<!-- Generator: Adobe Illustrator 17.1.0, SVG Export Plug-In  -->
<svg version="1.1"
	 xmlns="http://www.w3.org/2000/svg" xmlns:xlink="http://www.w3.org/1999/xlink" xmlns:a="http://ns.adobe.com/AdobeSVGViewerExtensions/3.0/"
	 x="0px" y="0px" width="219.4px" height="219.4px" viewBox="0 0 219.4 219.4" enable-background="new 0 0 219.4 219.4"
	 xml:space="preserve">
<defs>
</defs>
<path fill="#FFFFFF" d="M109.9,219.4L109.9,219.4c-1.2,0-2.2-0.8-2.4-1.9l-18.7-77.8l-15.5,9.5c-1,0.6-2.3,0.4-3.1-0.4
	c-0.8-0.8-1-2.1-0.3-3.1l10.1-16.1l-78-17.5c-1.1-0.2-1.9-1.2-1.9-2.4c0-1.2,0.8-2.2,1.9-2.4l78.3-18.9l-9.7-15.9
	c-0.6-1-0.5-2.2,0.4-3.1c0.8-0.8,2.1-0.9,3.1-0.3l15.9,10.1l17.3-77.5c0.3-1.1,1.2-1.9,2.4-1.9c1.2,0,2.2,0.8,2.4,1.9L131,81.2
	l15.2-9.6c1-0.6,2.3-0.5,3.1,0.3c0.8,0.8,1,2.1,0.4,3.1l-9.1,14.9l77,17.2c1.1,0.3,1.9,1.2,1.9,2.4c0,1.2-0.8,2.2-1.9,2.4l-78.7,19
	l9.8,15.5c0.6,1,0.5,2.2-0.3,3.1c-0.8,0.8-2.1,1-3.1,0.4l-15.6-9.6l-17.3,77.3C112.1,218.6,111.1,219.4,109.9,219.4L109.9,219.4z
	 M90.3,133.3c0.3,0,0.6,0.1,0.9,0.2c0.7,0.3,1.3,0.9,1.5,1.7l17,70.7l15.7-70.2c0.2-0.8,0.7-1.4,1.5-1.7c0.7-0.3,1.6-0.2,2.3,0.2
	l9.5,5.8l-5.9-9.4c-0.4-0.7-0.5-1.5-0.2-2.3c0.3-0.7,0.9-1.3,1.7-1.5l71.7-17.3L136.1,94c-0.8-0.2-1.4-0.7-1.7-1.4
	c-0.3-0.7-0.2-1.6,0.2-2.3l5.4-8.8l-9.1,5.8c-0.7,0.4-1.5,0.5-2.3,0.2c-0.7-0.3-1.3-0.9-1.5-1.7l-17.4-72.3L93.9,83.9
	c-0.2,0.8-0.7,1.4-1.5,1.8c-0.8,0.3-1.6,0.2-2.3-0.2l-9.9-6.3l5.9,9.7c0.4,0.7,0.5,1.5,0.2,2.2c-0.3,0.7-0.9,1.3-1.7,1.5l-71.2,17.1
	l71,15.9c0.8,0.2,1.4,0.7,1.8,1.5c0.3,0.7,0.2,1.6-0.2,2.3l-6.3,10l9.3-5.7C89.4,133.4,89.9,133.3,90.3,133.3z"/>
</svg>