<!-- Generator: Adobe Illustrator 17.1.0, SVG Export Plug-In  -->
<svg version="1.1"
	 xmlns="http://www.w3.org/2000/svg" xmlns:xlink="http://www.w3.org/1999/xlink" xmlns:a="http://ns.adobe.com/AdobeSVGViewerExtensions/3.0/"
	 x="0px" y="0px" width="100.2px" height="40.2px" viewBox="0 0 100.2 40.2" enable-background="new 0 0 100.2 40.2"
	 xml:space="preserve">
<defs>
</defs>
<g>
	<g>
		<path fill="#FFFFFF" d="M5,3.4c0,0,0-0.1,0-0.3c0-0.2,0-0.4-0.1-0.6C4.7,2.2,4.5,2,4.3,1.8C4,1.6,3.7,1.5,3.2,1.5
			c-0.6,0-1.1,0.3-1.5,0.8C1.4,2.9,1.3,3.7,1.3,4.7s0.2,1.8,0.5,2.4c0.4,0.6,0.9,0.8,1.5,0.8S4.7,7.6,5.4,7C5.8,7.2,6,7.5,6,7.8
			C5.7,8.1,5.3,8.4,4.8,8.6C4.2,8.9,3.7,9,3.1,9C2.6,9,2.1,8.9,1.7,8.6c-0.4-0.2-0.7-0.6-1-1C0.2,6.9,0,5.9,0,4.8
			c0-1.4,0.3-2.5,0.9-3.2c0.6-0.7,1.4-1.1,2.3-1.1c0.9,0,1.6,0.2,2.1,0.7c0.5,0.5,0.8,1,0.8,1.6c0,0.5-0.2,0.7-0.7,0.7
			C5.3,3.5,5.1,3.5,5,3.4z"/>
		<path fill="#FFFFFF" d="M11.5,3.4C12,4,12.3,4.8,12.3,5.9S12,7.7,11.5,8.3C11,8.8,10.5,9,9.7,9S8.5,8.8,8,8.3
			C7.5,7.7,7.2,6.9,7.2,5.9S7.5,4,8,3.4C8.5,3,9,2.7,9.7,2.7S11,3,11.5,3.4z M8.4,5.9c0,1.5,0.5,2.2,1.4,2.2s1.4-0.7,1.4-2.2
			c0-0.4,0-0.8-0.1-1.1c-0.1-0.3-0.2-0.6-0.4-0.8c-0.2-0.2-0.5-0.3-0.8-0.3S9.1,3.7,8.9,4C8.7,4.2,8.6,4.5,8.5,4.8
			C8.4,5.1,8.4,5.5,8.4,5.9z"/>
		<path fill="#FFFFFF" d="M18.5,4.7v2.8c0,0.5,0.1,0.8,0.2,1.1c-0.2,0.2-0.4,0.3-0.7,0.3c-0.4,0-0.6-0.2-0.6-0.7V5
			c0-0.4-0.1-0.7-0.2-0.9c-0.1-0.2-0.3-0.3-0.6-0.3c-0.3,0-0.6,0.1-0.9,0.2c-0.3,0.1-0.5,0.3-0.8,0.6v4.2c-0.1,0-0.3,0-0.6,0
			s-0.4,0-0.6,0V2.9l0.1-0.1h0.4c0.4,0,0.6,0.3,0.6,0.8c0.6-0.5,1.2-0.8,1.9-0.8c0.5,0,0.9,0.2,1.2,0.5C18.4,3.7,18.5,4.2,18.5,4.7z
			"/>
		<path fill="#FFFFFF" d="M25,4.8v2.8c0,0.5,0.1,0.8,0.2,1.1c-0.2,0.2-0.5,0.3-0.7,0.3c-0.4,0-0.6-0.2-0.6-0.7V5.1
			c0-0.4-0.1-0.7-0.2-0.9c-0.1-0.2-0.3-0.3-0.6-0.3c-0.3,0-0.6,0.1-0.9,0.2c-0.3,0.1-0.5,0.3-0.8,0.6v4.2c-0.1,0-0.3,0-0.6,0
			s-0.4,0-0.6,0V0.1L20.5,0h0.4c0.2,0,0.4,0.1,0.5,0.2c0.1,0.1,0.1,0.3,0.1,0.6v2.9c0.6-0.5,1.2-0.8,1.9-0.8c0.5,0,0.9,0.2,1.2,0.5
			C24.9,3.7,25,4.2,25,4.8z"/>
		<path fill="#FFFFFF" d="M31.3,6.2h-3.6c0,0.6,0.1,1,0.4,1.3C28.3,7.9,28.6,8,29.1,8s1.1-0.2,1.7-0.5C31,7.7,31.1,8,31.2,8.3
			C30.5,8.8,29.8,9,28.9,9c-0.9,0-1.5-0.3-1.9-0.9s-0.6-1.3-0.6-2.3s0.2-1.7,0.6-2.3c0.4-0.6,1-0.9,1.8-0.9c0.8,0,1.4,0.2,1.8,0.7
			c0.4,0.5,0.6,1.1,0.6,1.8C31.3,5.6,31.3,5.9,31.3,6.2z M29.9,4.1c-0.2-0.3-0.5-0.5-0.9-0.5s-0.7,0.2-0.9,0.5
			c-0.2,0.3-0.3,0.7-0.4,1.3h2.5V5.2C30.2,4.7,30.1,4.4,29.9,4.1z"/>
		<path fill="#FFFFFF" d="M34.3,9.7c0-0.2,0.1-0.5,0.3-0.8c-0.7-0.1-1.2-0.4-1.5-1c-0.3-0.6-0.5-1.3-0.5-2.1c0-1,0.2-1.8,0.7-2.4
			C33.7,3,34.3,2.7,35,2.7c0.7,0,1.2,0.2,1.6,0.6s0.6,0.8,0.6,1.2S37,5.2,36.6,5.2c-0.2,0-0.3,0-0.5,0c0,0,0-0.1,0-0.1
			c0-0.9-0.4-1.4-1.1-1.4c-0.4,0-0.7,0.2-0.9,0.6c-0.2,0.4-0.3,0.9-0.3,1.7c0,1.4,0.5,2.1,1.4,2.1c0.4,0,0.9-0.2,1.5-0.6
			c0.1,0.1,0.2,0.2,0.3,0.3C37,7.8,37,8,37.1,8.1C36.6,8.6,36,8.9,35.3,9c-0.1,0.1-0.1,0.2-0.1,0.3c0.3,0,0.6,0.1,0.8,0.3
			c0.2,0.2,0.3,0.4,0.3,0.8c0,0.3-0.1,0.6-0.4,0.8c-0.3,0.2-0.6,0.3-1,0.3c-0.4,0-0.7-0.1-1-0.2c0-0.2,0.1-0.4,0.2-0.6
			c0.2,0.1,0.4,0.2,0.6,0.2s0.3,0,0.4-0.1c0.1-0.1,0.1-0.2,0.1-0.3s0-0.3-0.1-0.3c-0.1-0.1-0.2-0.1-0.3-0.1c-0.1,0-0.2,0-0.3,0.1
			C34.4,9.9,34.3,9.8,34.3,9.7z"/>
		<path fill="#FFFFFF" d="M43.1,8.3c-0.1,0.3-0.2,0.5-0.5,0.6c-0.4-0.1-0.7-0.3-0.9-0.8C41.2,8.7,40.6,9,40,9
			c-0.6,0-1.1-0.2-1.4-0.5c-0.3-0.4-0.5-0.8-0.5-1.2c0-0.7,0.2-1.1,0.6-1.5s1-0.5,1.7-0.5c0.4,0,0.8,0,1.2,0.1V4.8
			c0-0.7-0.3-1.1-1-1.1c-0.5,0-1.2,0.2-1.9,0.5c-0.2-0.2-0.3-0.5-0.3-0.9C39.2,3,40,2.8,40.8,2.8c0.6,0,1.1,0.2,1.4,0.5
			c0.3,0.3,0.5,0.8,0.5,1.5v2.5C42.8,7.8,42.9,8.1,43.1,8.3z M40.2,8c0.5,0,1-0.3,1.5-0.8V6.1C41.3,6.1,41,6,40.5,6
			c-0.4,0-0.7,0.1-0.9,0.3c-0.2,0.2-0.3,0.4-0.3,0.7c0,0.3,0.1,0.5,0.2,0.7C39.7,8,39.9,8,40.2,8z"/>
		<path fill="#FFFFFF" d="M51.8,8.3c-0.1,0.3-0.2,0.5-0.5,0.6c-0.4-0.1-0.7-0.3-0.9-0.8C49.9,8.7,49.3,9,48.7,9
			c-0.6,0-1.1-0.2-1.4-0.5c-0.3-0.4-0.5-0.8-0.5-1.2c0-0.7,0.2-1.1,0.6-1.5s1-0.5,1.7-0.5c0.4,0,0.8,0,1.2,0.1V4.8
			c0-0.7-0.3-1.1-1-1.1c-0.5,0-1.2,0.2-1.9,0.5c-0.2-0.2-0.3-0.5-0.3-0.9c0.8-0.4,1.7-0.6,2.5-0.6c0.6,0,1.1,0.2,1.4,0.5
			c0.3,0.3,0.5,0.8,0.5,1.5v2.5C51.5,7.8,51.6,8.1,51.8,8.3z M48.9,8c0.5,0,1-0.3,1.5-0.8V6.1C50,6.1,49.7,6,49.3,6
			c-0.4,0-0.7,0.1-0.9,0.3C48.1,6.5,48,6.8,48,7.1c0,0.3,0.1,0.5,0.2,0.7C48.4,8,48.6,8,48.9,8z"/>
		<path fill="#FFFFFF" d="M55.4,8.4c0-0.1,0-0.3,0.1-0.4s0.2-0.3,0.3-0.4c0.7,0.4,1.2,0.5,1.6,0.5c0.4,0,0.7-0.1,0.9-0.2
			c0.2-0.1,0.3-0.3,0.3-0.6c0-0.4-0.3-0.7-0.8-0.9l-0.7-0.3c-1-0.4-1.5-0.9-1.5-1.7c0-0.5,0.2-1,0.6-1.3c0.4-0.3,0.9-0.5,1.6-0.5
			s1.3,0.1,1.9,0.4c0,0.2,0,0.3-0.1,0.5S59.4,3.9,59.3,4c-0.6-0.3-1.1-0.4-1.6-0.4c-0.3,0-0.5,0.1-0.7,0.2c-0.2,0.1-0.3,0.3-0.3,0.5
			c0,0.2,0.1,0.4,0.2,0.5s0.3,0.2,0.6,0.3l0.7,0.3c1,0.4,1.5,1,1.5,1.8c0,0.5-0.2,1-0.6,1.3c-0.4,0.3-1,0.5-1.7,0.5
			S56.1,8.8,55.4,8.4z"/>
		<path fill="#FFFFFF" d="M65.6,6.2H62c0,0.6,0.1,1,0.4,1.3C62.6,7.9,63,8,63.5,8s1.1-0.2,1.7-0.5c0.2,0.2,0.3,0.4,0.4,0.8
			C64.9,8.8,64.1,9,63.3,9c-0.9,0-1.5-0.3-1.9-0.9s-0.6-1.3-0.6-2.3s0.2-1.7,0.6-2.3c0.4-0.6,1-0.9,1.8-0.9c0.8,0,1.4,0.2,1.8,0.7
			c0.4,0.5,0.6,1.1,0.6,1.8C65.7,5.6,65.6,5.9,65.6,6.2z M64.2,4.1c-0.2-0.3-0.5-0.5-0.9-0.5s-0.7,0.2-0.9,0.5
			c-0.2,0.3-0.3,0.7-0.4,1.3h2.5V5.2C64.5,4.7,64.4,4.4,64.2,4.1z"/>
		<path fill="#FFFFFF" d="M68.9,8.9c-0.6,0-1.1-0.3-1.5-0.8c-0.4-0.5-0.5-1.3-0.5-2.3s0.2-1.7,0.7-2.3c0.5-0.5,1-0.8,1.6-0.8
			s1.2,0.2,1.7,0.6c0.2-0.3,0.4-0.5,0.8-0.6c0.2,0.1,0.4,0.3,0.5,0.6c-0.2,0.2-0.3,0.6-0.3,1.2v3.6c0,1.2-0.2,2-0.6,2.5
			c-0.4,0.5-1.1,0.8-2,0.8c-0.7,0-1.4-0.1-2.1-0.4c0-0.4,0.1-0.7,0.3-0.9c0.5,0.3,1.1,0.4,1.6,0.4s1-0.2,1.2-0.5
			c0.2-0.3,0.3-0.7,0.3-1.3V8.2C70.1,8.7,69.5,8.9,68.9,8.9z M70.5,7.2V4.3c-0.4-0.4-0.8-0.6-1.2-0.6c-0.4,0-0.7,0.2-1,0.6
			C68.1,4.6,68,5.2,68,5.9s0.1,1.2,0.3,1.6s0.5,0.5,0.8,0.5C69.7,7.9,70.1,7.7,70.5,7.2z"/>
		<path fill="#FFFFFF" d="M73.5,7V4.1c0-0.5-0.1-0.8-0.2-1.1c0.2-0.2,0.4-0.2,0.7-0.2c0.3,0,0.4,0.1,0.5,0.2
			c0.1,0.1,0.1,0.3,0.1,0.6v3.1c0,0.4,0.1,0.7,0.2,0.9c0.1,0.2,0.3,0.3,0.6,0.3c0.3,0,0.6-0.1,0.8-0.2c0.3-0.1,0.5-0.3,0.8-0.6V2.9
			c0.2,0,0.4,0,0.6,0s0.4,0,0.6,0v4.2c0,0.6,0.1,1,0.3,1.2c-0.1,0.3-0.2,0.5-0.4,0.6c-0.5-0.1-0.8-0.4-0.9-0.9
			c-0.6,0.6-1.3,0.9-2,0.9c-0.5,0-0.9-0.2-1.2-0.5C73.7,8,73.5,7.6,73.5,7z"/>
		<path fill="#FFFFFF" d="M81.4,3.9v4.9c-0.1,0-0.3,0-0.6,0c-0.2,0-0.4,0-0.6,0V4.4c0-0.2,0-0.4-0.1-0.5s-0.2-0.1-0.4-0.1h-0.1
			c0-0.1,0-0.3,0-0.4c0-0.2,0-0.3,0-0.4c0.3,0,0.5,0,0.7,0h0.2c0.3,0,0.5,0.1,0.7,0.3C81.3,3.3,81.4,3.6,81.4,3.9z M79.9,1.3
			c0-0.2,0-0.4,0.1-0.5c0.2-0.1,0.4-0.1,0.7-0.1c0.3,0,0.5,0,0.6,0.1c0.1,0.1,0.1,0.3,0.1,0.5c0,0.2,0,0.4-0.1,0.5
			c-0.1,0.1-0.3,0.1-0.6,0.1c-0.3,0-0.5,0-0.6-0.1C79.9,1.6,79.9,1.5,79.9,1.3z"/>
		<path fill="#FFFFFF" d="M83,3.4C83,3.2,83.2,3,83.4,2.8c0.5,0.1,0.9,0.5,1,1.1c0.3-0.7,0.9-1.1,1.6-1.1c0.2,0,0.4,0,0.6,0.1
			c0,0.4-0.1,0.8-0.3,1.1c0,0-0.2,0-0.5,0c-0.6,0-1,0.3-1.3,0.9v3.9c-0.1,0-0.3,0-0.6,0s-0.4,0-0.6,0V4.7C83.4,4.1,83.3,3.7,83,3.4z
			"/>
		<path fill="#FFFFFF" d="M94.9,8.3c-0.1,0.3-0.2,0.5-0.5,0.6c-0.4-0.1-0.7-0.3-0.9-0.8C92.9,8.7,92.3,9,91.7,9
			c-0.6,0-1.1-0.2-1.4-0.5c-0.3-0.4-0.5-0.8-0.5-1.2c0-0.7,0.2-1.1,0.6-1.5s1-0.5,1.7-0.5c0.4,0,0.8,0,1.2,0.1V4.8
			c0-0.7-0.3-1.1-1-1.1c-0.5,0-1.2,0.2-1.9,0.5c-0.2-0.2-0.3-0.5-0.3-0.9C91,3,91.8,2.8,92.6,2.8c0.6,0,1.1,0.2,1.4,0.5
			c0.3,0.3,0.5,0.8,0.5,1.5v2.5C94.5,7.8,94.6,8.1,94.9,8.3z M91.9,8c0.5,0,1-0.3,1.5-0.8V6.1c-0.3,0-0.7-0.1-1.1-0.1
			c-0.4,0-0.7,0.1-0.9,0.3c-0.2,0.2-0.3,0.4-0.3,0.7c0,0.3,0.1,0.5,0.2,0.7C91.4,8,91.6,8,91.9,8z"/>
		<path fill="#FFFFFF" d="M95.8,8.4c0-0.1,0-0.3,0.1-0.4s0.2-0.3,0.3-0.4c0.7,0.4,1.2,0.5,1.6,0.5c0.4,0,0.7-0.1,0.9-0.2
			C98.9,7.7,99,7.5,99,7.3c0-0.4-0.3-0.7-0.8-0.9l-0.7-0.3c-1-0.4-1.5-0.9-1.5-1.7c0-0.5,0.2-1,0.6-1.3c0.4-0.3,0.9-0.5,1.6-0.5
			s1.3,0.1,1.9,0.4c0,0.2,0,0.3-0.1,0.5S99.8,3.9,99.7,4c-0.6-0.3-1.1-0.4-1.6-0.4c-0.3,0-0.5,0.1-0.7,0.2c-0.2,0.1-0.3,0.3-0.3,0.5
			c0,0.2,0.1,0.4,0.2,0.5S97.7,5,98,5.1l0.7,0.3c1,0.4,1.5,1,1.5,1.8c0,0.5-0.2,1-0.6,1.3c-0.4,0.3-1,0.5-1.7,0.5S96.5,8.8,95.8,8.4
			z"/>
		<path fill="#FFFFFF" d="M9.3,23.2v-5.1l-1,0c0-0.2,0-0.3,0-0.4c0-0.1,0-0.3,0-0.4l1,0c-0.1-0.4-0.1-0.8-0.1-1.1
			c0-0.5,0.2-1,0.5-1.3c0.3-0.3,0.8-0.5,1.3-0.5c0.6,0,1.1,0.1,1.5,0.3c0,0.3-0.1,0.6-0.3,0.8c-0.4-0.1-0.8-0.2-1-0.2
			s-0.5,0.1-0.7,0.3c-0.2,0.2-0.2,0.4-0.2,0.7c0,0.3,0,0.7,0.1,1.1l1.7,0c0,0.2,0,0.3,0,0.4c0,0.1,0,0.2,0,0.4l-1.6,0v5.1
			c-0.2,0-0.3,0-0.6,0S9.5,23.3,9.3,23.2z"/>
		<path fill="#FFFFFF" d="M17.4,20.6h-3.6c0,0.6,0.1,1,0.4,1.3c0.2,0.3,0.6,0.5,1.1,0.5s1.1-0.2,1.7-0.5c0.2,0.2,0.3,0.4,0.4,0.8
			c-0.6,0.4-1.4,0.7-2.3,0.7c-0.9,0-1.5-0.3-1.9-0.9s-0.6-1.3-0.6-2.3s0.2-1.7,0.6-2.3c0.4-0.6,1-0.9,1.8-0.9c0.8,0,1.4,0.2,1.8,0.7
			c0.4,0.5,0.6,1.1,0.6,1.8C17.5,20,17.4,20.3,17.4,20.6z M16,18.5c-0.2-0.3-0.5-0.5-0.9-0.5s-0.7,0.2-0.9,0.5
			c-0.2,0.3-0.3,0.7-0.4,1.3h2.5v-0.2C16.3,19.1,16.2,18.8,16,18.5z"/>
		<path fill="#FFFFFF" d="M18.7,17.8c0.1-0.3,0.2-0.5,0.4-0.6c0.5,0.1,0.9,0.5,1,1.1c0.3-0.7,0.9-1.1,1.6-1.1c0.2,0,0.4,0,0.6,0.1
			c0,0.4-0.1,0.8-0.3,1.1c0,0-0.2,0-0.5,0c-0.6,0-1,0.3-1.3,0.9v3.9c-0.1,0-0.3,0-0.6,0s-0.4,0-0.6,0v-4.2
			C19.1,18.5,19,18.1,18.7,17.8z"/>
		<path fill="#FFFFFF" d="M23.1,17.8c0.1-0.3,0.2-0.5,0.4-0.6c0.5,0.1,0.9,0.5,1,1.1c0.3-0.7,0.9-1.1,1.6-1.1c0.2,0,0.4,0,0.6,0.1
			c0,0.4-0.1,0.8-0.3,1.1c0,0-0.2,0-0.5,0c-0.6,0-1,0.3-1.3,0.9v3.9c-0.1,0-0.3,0-0.6,0s-0.4,0-0.6,0v-4.2
			C23.5,18.5,23.4,18.1,23.1,17.8z"/>
		<path fill="#FFFFFF" d="M32.2,22.7c-0.1,0.3-0.2,0.5-0.5,0.6c-0.4-0.1-0.7-0.3-0.9-0.8c-0.6,0.6-1.2,0.8-1.8,0.8
			c-0.6,0-1.1-0.2-1.4-0.5c-0.3-0.4-0.5-0.8-0.5-1.2c0-0.7,0.2-1.1,0.6-1.5s1-0.5,1.7-0.5c0.4,0,0.8,0,1.2,0.1v-0.5
			c0-0.7-0.3-1.1-1-1.1c-0.5,0-1.2,0.2-1.9,0.5c-0.2-0.2-0.3-0.5-0.3-0.9c0.8-0.4,1.7-0.6,2.5-0.6c0.6,0,1.1,0.2,1.4,0.5
			c0.3,0.3,0.5,0.8,0.5,1.5v2.5C31.9,22.2,32,22.5,32.2,22.7z M29.3,22.4c0.5,0,1-0.3,1.5-0.8v-1.2c-0.3,0-0.7-0.1-1.1-0.1
			c-0.4,0-0.7,0.1-0.9,0.3c-0.2,0.2-0.3,0.4-0.3,0.7c0,0.3,0.1,0.5,0.2,0.7C28.8,22.4,29,22.4,29.3,22.4z"/>
		<path fill="#FFFFFF" d="M37,19.4c0-0.4-0.1-0.7-0.2-0.9c-0.1-0.2-0.3-0.3-0.6-0.3c-0.5,0-0.9,0.3-1.4,0.8v4.2c-0.1,0-0.3,0-0.6,0
			s-0.4,0-0.6,0v-5.9l0.1-0.1h0.4c0.4,0,0.6,0.3,0.6,0.8c0.5-0.5,1.1-0.8,1.7-0.8s1.1,0.3,1.3,0.9c0.6-0.6,1.3-0.9,1.9-0.9
			c0.5,0,0.9,0.2,1.1,0.5c0.3,0.4,0.4,0.8,0.4,1.3V22c0,0.5,0.1,0.8,0.2,1.1c-0.2,0.2-0.4,0.3-0.7,0.3c-0.4,0-0.6-0.2-0.6-0.7v-3.1
			c0-0.4-0.1-0.7-0.2-0.9c-0.1-0.2-0.3-0.3-0.6-0.3c-0.5,0-0.9,0.3-1.4,0.8v4.2c-0.1,0-0.3,0-0.6,0s-0.4,0-0.6,0V19.4z"/>
		<path fill="#FFFFFF" d="M47.7,20.6h-3.6c0,0.6,0.1,1,0.4,1.3c0.2,0.3,0.6,0.5,1.1,0.5s1.1-0.2,1.7-0.5c0.2,0.2,0.3,0.4,0.4,0.8
			c-0.6,0.4-1.4,0.7-2.3,0.7c-0.9,0-1.5-0.3-1.9-0.9s-0.6-1.3-0.6-2.3s0.2-1.7,0.6-2.3c0.4-0.6,1-0.9,1.8-0.9c0.8,0,1.4,0.2,1.8,0.7
			c0.4,0.5,0.6,1.1,0.6,1.8C47.8,20,47.7,20.3,47.7,20.6z M46.3,18.5c-0.2-0.3-0.5-0.5-0.9-0.5s-0.7,0.2-0.9,0.5
			c-0.2,0.3-0.3,0.7-0.4,1.3h2.5v-0.2C46.6,19.1,46.5,18.8,46.3,18.5z"/>
		<path fill="#FFFFFF" d="M54,19.1V22c0,0.5,0.1,0.8,0.2,1.1c-0.2,0.2-0.4,0.3-0.7,0.3c-0.4,0-0.6-0.2-0.6-0.7v-3.1
			c0-0.4-0.1-0.7-0.2-0.9c-0.1-0.2-0.3-0.3-0.6-0.3c-0.3,0-0.6,0.1-0.9,0.2c-0.3,0.1-0.5,0.3-0.8,0.6v4.2c-0.1,0-0.3,0-0.6,0
			s-0.4,0-0.6,0v-5.9l0.1-0.1h0.4c0.4,0,0.6,0.3,0.6,0.8c0.6-0.5,1.2-0.8,1.9-0.8c0.5,0,0.9,0.2,1.2,0.5C53.9,18.1,54,18.6,54,19.1z
			"/>
		<path fill="#FFFFFF" d="M58.8,17.3c0,0.1,0,0.3,0,0.4s0,0.3,0,0.4l-1.5,0v3.7c0,0.3,0.2,0.5,0.5,0.5h0.8c0.1,0.2,0.1,0.3,0.1,0.5
			s0,0.3,0,0.3c-0.5,0.1-0.9,0.1-1.3,0.1c-0.8,0-1.2-0.4-1.2-1.2v-3.9l-0.9,0c0-0.1,0-0.3,0-0.4s0-0.3,0-0.4l0.9,0v-1.1
			c0-0.3,0-0.5,0.1-0.6c0.1-0.1,0.3-0.2,0.5-0.2h0.4l0.1,0.1v1.8L58.8,17.3z"/>
		<path fill="#FFFFFF" d="M64.6,22.7c-0.1,0.3-0.2,0.5-0.5,0.6c-0.4-0.1-0.7-0.3-0.9-0.8c-0.6,0.6-1.2,0.8-1.8,0.8
			c-0.6,0-1.1-0.2-1.4-0.5c-0.3-0.4-0.5-0.8-0.5-1.2c0-0.7,0.2-1.1,0.6-1.5s1-0.5,1.7-0.5c0.4,0,0.8,0,1.2,0.1v-0.5
			c0-0.7-0.3-1.1-1-1.1c-0.5,0-1.2,0.2-1.9,0.5c-0.2-0.2-0.3-0.5-0.3-0.9c0.8-0.4,1.7-0.6,2.5-0.6c0.6,0,1.1,0.2,1.4,0.5
			c0.3,0.3,0.5,0.8,0.5,1.5v2.5C64.3,22.2,64.4,22.5,64.6,22.7z M61.7,22.4c0.5,0,1-0.3,1.5-0.8v-1.2c-0.3,0-0.7-0.1-1.1-0.1
			c-0.4,0-0.7,0.1-0.9,0.3c-0.2,0.2-0.3,0.4-0.3,0.7c0,0.3,0.1,0.5,0.2,0.7C61.2,22.4,61.4,22.4,61.7,22.4z"/>
		<path fill="#FFFFFF" d="M65.6,22.8c0-0.1,0-0.3,0.1-0.4S65.9,22,66,22c0.7,0.4,1.2,0.5,1.6,0.5c0.4,0,0.7-0.1,0.9-0.2
			c0.2-0.1,0.3-0.3,0.3-0.6c0-0.4-0.3-0.7-0.8-0.9l-0.7-0.3c-1-0.4-1.5-0.9-1.5-1.7c0-0.5,0.2-1,0.6-1.3c0.4-0.3,0.9-0.5,1.6-0.5
			s1.3,0.1,1.9,0.4c0,0.2,0,0.3-0.1,0.5s-0.2,0.3-0.3,0.4c-0.6-0.3-1.1-0.4-1.6-0.4c-0.3,0-0.5,0.1-0.7,0.2C67,18.4,67,18.5,67,18.7
			c0,0.2,0.1,0.4,0.2,0.5s0.3,0.2,0.6,0.3l0.7,0.3c1,0.4,1.5,1,1.5,1.8c0,0.5-0.2,1-0.6,1.3c-0.4,0.3-1,0.5-1.7,0.5
			S66.2,23.2,65.6,22.8z"/>
		<path fill="#FFFFFF" d="M77.3,25.1v-2.4c-0.5,0.4-1,0.7-1.7,0.7s-1.1-0.3-1.5-0.8c-0.4-0.5-0.5-1.3-0.5-2.3s0.2-1.7,0.7-2.3
			c0.5-0.5,1-0.8,1.6-0.8s1.2,0.2,1.6,0.6c0.2-0.3,0.4-0.5,0.8-0.5c0.2,0.1,0.4,0.3,0.5,0.6c-0.2,0.2-0.3,0.6-0.3,1.2v6.7l-0.1,0.1
			h-0.4c-0.2,0-0.4-0.1-0.5-0.2C77.3,25.5,77.3,25.3,77.3,25.1z M75.9,22.3c0.5,0,1-0.2,1.4-0.7v-3c-0.4-0.4-0.8-0.5-1.2-0.5
			c-0.4,0-0.7,0.2-0.9,0.6s-0.4,0.9-0.4,1.6s0.1,1.2,0.3,1.6C75.3,22.2,75.6,22.3,75.9,22.3z"/>
		<path fill="#FFFFFF" d="M80.3,21.4v-2.8c0-0.5-0.1-0.8-0.2-1.1c0.2-0.2,0.4-0.2,0.7-0.2c0.3,0,0.4,0.1,0.5,0.2
			c0.1,0.1,0.1,0.3,0.1,0.6v3.1c0,0.4,0.1,0.7,0.2,0.9c0.1,0.2,0.3,0.3,0.6,0.3c0.3,0,0.6-0.1,0.8-0.2c0.3-0.1,0.5-0.3,0.8-0.6v-4.2
			c0.2,0,0.4,0,0.6,0s0.4,0,0.6,0v4.2c0,0.6,0.1,1,0.3,1.2c-0.1,0.3-0.2,0.5-0.4,0.6c-0.5-0.1-0.8-0.4-0.9-0.9
			c-0.6,0.6-1.3,0.9-2,0.9c-0.5,0-0.9-0.2-1.2-0.5C80.4,22.4,80.3,22,80.3,21.4z"/>
		<path fill="#FFFFFF" d="M91.3,20.6h-3.6c0,0.6,0.1,1,0.4,1.3c0.2,0.3,0.6,0.5,1.1,0.5s1.1-0.2,1.7-0.5c0.2,0.2,0.3,0.4,0.4,0.8
			c-0.6,0.4-1.4,0.7-2.3,0.7c-0.9,0-1.5-0.3-1.9-0.9s-0.6-1.3-0.6-2.3s0.2-1.7,0.6-2.3c0.4-0.6,1-0.9,1.8-0.9c0.8,0,1.4,0.2,1.8,0.7
			c0.4,0.5,0.6,1.1,0.6,1.8C91.4,20,91.3,20.3,91.3,20.6z M89.9,18.5C89.7,18.2,89.4,18,89,18s-0.7,0.2-0.9,0.5
			c-0.2,0.3-0.3,0.7-0.4,1.3h2.5v-0.2C90.2,19.1,90.1,18.8,89.9,18.5z"/>
		<path fill="#FFFFFF" d="M18.8,31.5c0.7,0,1.2,0.3,1.5,0.8c0.4,0.6,0.5,1.3,0.5,2.3s-0.2,1.7-0.7,2.3s-1,0.8-1.6,0.8
			c-0.5,0-1-0.1-1.4-0.4v2.1c0,0.3,0,0.5-0.1,0.6c-0.1,0.1-0.3,0.2-0.5,0.2h-0.4L16,40.1v-8.4l0.1-0.1h0.4c0.4,0,0.6,0.2,0.7,0.6
			C17.6,31.8,18.2,31.5,18.8,31.5z M18.6,32.5c-0.6,0-1,0.3-1.4,0.8v3c0.4,0.3,0.9,0.5,1.2,0.5s0.7-0.2,0.9-0.6
			c0.2-0.4,0.4-0.9,0.4-1.6s-0.1-1.2-0.3-1.6S18.9,32.5,18.6,32.5z"/>
		<path fill="#FFFFFF" d="M22.1,32.2c0.1-0.3,0.2-0.5,0.4-0.6c0.5,0.1,0.9,0.5,1,1.1c0.3-0.7,0.9-1.1,1.6-1.1c0.2,0,0.4,0,0.6,0.1
			c0,0.4-0.1,0.8-0.3,1.1c0,0-0.2,0-0.5,0c-0.6,0-1,0.3-1.3,0.9v3.9c-0.1,0-0.3,0-0.6,0s-0.4,0-0.6,0v-4.2
			C22.5,32.9,22.3,32.5,22.1,32.2z"/>
		<path fill="#FFFFFF" d="M31.1,35h-3.6c0,0.6,0.1,1,0.4,1.3c0.2,0.3,0.6,0.5,1.1,0.5s1.1-0.2,1.7-0.5c0.2,0.2,0.3,0.4,0.4,0.8
			c-0.6,0.4-1.4,0.7-2.3,0.7c-0.9,0-1.5-0.3-1.9-0.9s-0.6-1.3-0.6-2.3s0.2-1.7,0.6-2.3c0.4-0.6,1-0.9,1.8-0.9c0.8,0,1.4,0.2,1.8,0.7
			c0.4,0.5,0.6,1.1,0.6,1.8C31.2,34.4,31.2,34.7,31.1,35z M29.8,32.9c-0.2-0.3-0.5-0.5-0.9-0.5s-0.7,0.2-0.9,0.5
			c-0.2,0.3-0.3,0.7-0.4,1.3h2.5V34C30.1,33.5,30,33.2,29.8,32.9z"/>
		<path fill="#FFFFFF" d="M35.6,31.5c0.7,0,1.2,0.3,1.5,0.8c0.4,0.6,0.5,1.3,0.5,2.3s-0.2,1.7-0.7,2.3s-1,0.8-1.6,0.8
			c-0.5,0-1-0.1-1.4-0.4v2.1c0,0.3,0,0.5-0.1,0.6c-0.1,0.1-0.3,0.2-0.5,0.2h-0.4l-0.1-0.1v-8.4l0.1-0.1h0.4c0.4,0,0.6,0.2,0.7,0.6
			C34.4,31.8,34.9,31.5,35.6,31.5z M35.3,32.5c-0.6,0-1,0.3-1.4,0.8v3c0.4,0.3,0.9,0.5,1.2,0.5s0.7-0.2,0.9-0.6
			c0.2-0.4,0.4-0.9,0.4-1.6s-0.1-1.2-0.3-1.6S35.6,32.5,35.3,32.5z"/>
		<path fill="#FFFFFF" d="M43.7,37.1c-0.1,0.3-0.2,0.5-0.5,0.6c-0.4-0.1-0.7-0.3-0.9-0.8c-0.6,0.6-1.2,0.8-1.8,0.8
			c-0.6,0-1.1-0.2-1.4-0.5c-0.3-0.4-0.5-0.8-0.5-1.2c0-0.7,0.2-1.1,0.6-1.5s1-0.5,1.7-0.5c0.4,0,0.8,0,1.2,0.1v-0.5
			c0-0.7-0.3-1.1-1-1.1c-0.5,0-1.2,0.2-1.9,0.5c-0.2-0.2-0.3-0.5-0.3-0.9c0.8-0.4,1.7-0.6,2.5-0.6c0.6,0,1.1,0.2,1.4,0.5
			c0.3,0.3,0.5,0.8,0.5,1.5V36C43.3,36.6,43.4,36.9,43.7,37.1z M40.7,36.8c0.5,0,1-0.3,1.5-0.8v-1.2c-0.3,0-0.7-0.1-1.1-0.1
			c-0.4,0-0.7,0.1-0.9,0.3c-0.2,0.2-0.3,0.4-0.3,0.7c0,0.3,0.1,0.5,0.2,0.7C40.2,36.8,40.4,36.8,40.7,36.8z"/>
		<path fill="#FFFFFF" d="M44.9,32.2c0.1-0.3,0.2-0.5,0.4-0.6c0.5,0.1,0.9,0.5,1,1.1c0.3-0.7,0.9-1.1,1.6-1.1c0.2,0,0.4,0,0.6,0.1
			c0,0.4-0.1,0.8-0.3,1.1c0,0-0.2,0-0.5,0c-0.6,0-1,0.3-1.3,0.9v3.9c-0.1,0-0.3,0-0.6,0s-0.4,0-0.6,0v-4.2
			C45.3,32.9,45.2,32.5,44.9,32.2z"/>
		<path fill="#FFFFFF" d="M54,37.1c-0.1,0.3-0.2,0.5-0.5,0.6c-0.4-0.1-0.7-0.3-0.9-0.8c-0.6,0.6-1.2,0.8-1.8,0.8
			c-0.6,0-1.1-0.2-1.4-0.5c-0.3-0.4-0.5-0.8-0.5-1.2c0-0.7,0.2-1.1,0.6-1.5s1-0.5,1.7-0.5c0.4,0,0.8,0,1.2,0.1v-0.5
			c0-0.7-0.3-1.1-1-1.1c-0.5,0-1.2,0.2-1.9,0.5c-0.2-0.2-0.3-0.5-0.3-0.9c0.8-0.4,1.7-0.6,2.5-0.6c0.6,0,1.1,0.2,1.4,0.5
			c0.3,0.3,0.5,0.8,0.5,1.5V36C53.7,36.6,53.8,36.9,54,37.1z M51.1,36.8c0.5,0,1-0.3,1.5-0.8v-1.2c-0.3,0-0.7-0.1-1.1-0.1
			c-0.4,0-0.7,0.1-0.9,0.3c-0.2,0.2-0.3,0.4-0.3,0.7c0,0.3,0.1,0.5,0.2,0.7C50.6,36.8,50.8,36.8,51.1,36.8z"/>
		<path fill="#FFFFFF" d="M58.8,33.8c0-0.4-0.1-0.7-0.2-0.9c-0.1-0.2-0.3-0.3-0.6-0.3c-0.5,0-0.9,0.3-1.4,0.8v4.2
			c-0.1,0-0.3,0-0.6,0s-0.4,0-0.6,0v-5.9l0.1-0.1h0.4c0.4,0,0.6,0.3,0.6,0.8c0.5-0.5,1.1-0.8,1.7-0.8s1.1,0.3,1.3,0.9
			c0.6-0.6,1.3-0.9,1.9-0.9c0.5,0,0.9,0.2,1.1,0.5c0.3,0.4,0.4,0.8,0.4,1.3v2.9c0,0.5,0.1,0.8,0.2,1.1c-0.2,0.2-0.4,0.3-0.7,0.3
			c-0.4,0-0.6-0.2-0.6-0.7v-3.1c0-0.4-0.1-0.7-0.2-0.9c-0.1-0.2-0.3-0.3-0.6-0.3c-0.5,0-0.9,0.3-1.4,0.8v4.2c-0.1,0-0.3,0-0.6,0
			s-0.4,0-0.6,0V33.8z"/>
		<path fill="#FFFFFF" d="M69,32.2c0.6,0.6,0.8,1.4,0.8,2.5s-0.3,1.9-0.8,2.5c-0.4,0.4-1,0.7-1.7,0.7s-1.3-0.2-1.7-0.7
			c-0.6-0.6-0.8-1.4-0.8-2.5s0.3-1.9,0.8-2.5c0.4-0.4,1-0.7,1.7-0.7S68.6,31.8,69,32.2z M65.9,34.7c0,1.5,0.5,2.2,1.4,2.2
			s1.4-0.7,1.4-2.2c0-0.4,0-0.8-0.1-1.1c-0.1-0.3-0.2-0.6-0.4-0.8c-0.2-0.2-0.5-0.3-0.8-0.3s-0.6,0.1-0.8,0.3
			c-0.2,0.2-0.4,0.5-0.4,0.8C65.9,33.9,65.9,34.3,65.9,34.7z"/>
		<path fill="#FFFFFF" d="M70.8,37.2c0-0.1,0-0.3,0.1-0.4s0.2-0.3,0.3-0.4c0.7,0.4,1.2,0.5,1.6,0.5c0.4,0,0.7-0.1,0.9-0.2
			c0.2-0.1,0.3-0.3,0.3-0.6c0-0.4-0.3-0.7-0.8-0.9L72.5,35c-1-0.4-1.5-0.9-1.5-1.7c0-0.5,0.2-1,0.6-1.3c0.4-0.3,0.9-0.5,1.6-0.5
			s1.3,0.1,1.9,0.4c0,0.2,0,0.3-0.1,0.5s-0.2,0.3-0.3,0.4c-0.6-0.3-1.1-0.4-1.6-0.4c-0.3,0-0.5,0.1-0.7,0.2
			c-0.2,0.1-0.3,0.3-0.3,0.5c0,0.2,0.1,0.4,0.2,0.5s0.3,0.2,0.6,0.3l0.7,0.3c1,0.4,1.5,1,1.5,1.8c0,0.5-0.2,1-0.6,1.3
			c-0.4,0.3-1,0.5-1.7,0.5S71.4,37.6,70.8,37.2z"/>
		<path fill="#FFFFFF" d="M76.4,37c0-0.2,0-0.4,0.1-0.6c0.2-0.1,0.4-0.1,0.7-0.1c0.3,0,0.5,0,0.7,0.1C78,36.5,78,36.7,78,37
			s0,0.4-0.1,0.6c-0.2,0.1-0.4,0.1-0.7,0.1c-0.3,0-0.5,0-0.7-0.1C76.4,37.4,76.4,37.2,76.4,37z"/>
		<path fill="#FFFFFF" d="M79.5,37c0-0.2,0-0.4,0.1-0.6c0.2-0.1,0.4-0.1,0.7-0.1c0.3,0,0.5,0,0.7,0.1c0.1,0.1,0.1,0.3,0.1,0.6
			s0,0.4-0.1,0.6c-0.2,0.1-0.4,0.1-0.7,0.1c-0.3,0-0.5,0-0.7-0.1C79.5,37.4,79.5,37.2,79.5,37z"/>
		<path fill="#FFFFFF" d="M82.6,37c0-0.2,0-0.4,0.1-0.6c0.2-0.1,0.4-0.1,0.7-0.1c0.3,0,0.5,0,0.7,0.1c0.1,0.1,0.1,0.3,0.1,0.6
			s0,0.4-0.1,0.6c-0.2,0.1-0.4,0.1-0.7,0.1c-0.3,0-0.5,0-0.7-0.1C82.7,37.4,82.6,37.2,82.6,37z"/>
	</g>
</g>
</svg>