<!-- Generator: Adobe Illustrator 17.1.0, SVG Export Plug-In  -->
<svg version="1.1"
	 xmlns="http://www.w3.org/2000/svg" xmlns:xlink="http://www.w3.org/1999/xlink" xmlns:a="http://ns.adobe.com/AdobeSVGViewerExtensions/3.0/"
	 x="0px" y="0px" width="136.5px" height="38.5px" viewBox="0 0 136.5 38.5" enable-background="new 0 0 136.5 38.5"
	 xml:space="preserve">
<defs>
</defs>
<g>
	<path fill="#FFFFFF" d="M14.8,3.6c0,0,0-0.1,0-0.3s0-0.4-0.1-0.6S14.4,2.2,14.1,2c-0.3-0.2-0.6-0.3-1-0.3c-0.6,0-1.1,0.3-1.5,0.8
		s-0.5,1.4-0.5,2.4c0,1,0.2,1.8,0.5,2.4c0.4,0.6,0.9,0.8,1.5,0.8s1.4-0.3,2.1-0.9c0.3,0.2,0.5,0.5,0.6,0.8c-0.3,0.4-0.8,0.6-1.3,0.9
		c-0.5,0.2-1.1,0.3-1.6,0.3c-0.6,0-1.1-0.1-1.5-0.4c-0.4-0.2-0.7-0.6-1-1C10.1,7.1,9.9,6.1,9.9,5c0-1.4,0.3-2.5,0.9-3.2
		s1.4-1.1,2.3-1.1c0.9,0,1.6,0.2,2.1,0.7C15.7,1.8,16,2.4,16,3c0,0.5-0.2,0.7-0.7,0.7C15.2,3.7,15,3.6,14.8,3.6z"/>
	<path fill="#FFFFFF" d="M21.9,8.5c-0.1,0.3-0.2,0.5-0.5,0.6C21,9,20.7,8.8,20.5,8.3c-0.6,0.6-1.2,0.8-1.8,0.8
		c-0.6,0-1.1-0.2-1.4-0.5s-0.5-0.8-0.5-1.2c0-0.7,0.2-1.2,0.6-1.5s1-0.5,1.7-0.5c0.4,0,0.8,0,1.2,0.1V5c0-0.7-0.3-1.1-1-1.1
		c-0.5,0-1.2,0.2-1.9,0.5c-0.2-0.2-0.3-0.5-0.3-0.9C18,3.2,18.8,3,19.6,3c0.6,0,1.1,0.2,1.4,0.5c0.3,0.3,0.5,0.8,0.5,1.5v2.5
		C21.6,8,21.7,8.3,21.9,8.5z M18.9,8.2c0.5,0,1-0.3,1.5-0.8V6.3c-0.3,0-0.7-0.1-1.1-0.1c-0.4,0-0.7,0.1-0.9,0.3
		c-0.2,0.2-0.3,0.4-0.3,0.7c0,0.3,0.1,0.5,0.2,0.7C18.5,8.1,18.7,8.2,18.9,8.2z"/>
	<path fill="#FFFFFF" d="M25,9.2c-0.7,0-1.2-0.3-1.5-0.8c-0.4-0.6-0.5-1.3-0.5-2.3s0.2-1.7,0.7-2.3C24,3.3,24.6,3,25.2,3
		c0.4,0,0.9,0.1,1.4,0.4V0.3l0.1-0.1h0.4c0.2,0,0.4,0.1,0.5,0.2c0.1,0.1,0.1,0.3,0.1,0.6v6.4c0,0.6,0.1,1,0.3,1.2
		C28,8.8,27.8,9,27.6,9.1c-0.4-0.1-0.7-0.3-0.9-0.8C26.2,8.9,25.7,9.2,25,9.2z M25.2,8.2c0.5,0,1-0.3,1.4-0.8v-3
		c-0.4-0.3-0.9-0.5-1.2-0.5s-0.7,0.2-0.9,0.6s-0.4,0.9-0.4,1.6c0,0.7,0.1,1.2,0.3,1.6S24.9,8.2,25.2,8.2z"/>
	<path fill="#FFFFFF" d="M34.2,8.5C34.1,8.8,34,9,33.8,9.1C33.3,9,33,8.8,32.8,8.3c-0.6,0.6-1.2,0.8-1.8,0.8c-0.6,0-1.1-0.2-1.4-0.5
		s-0.5-0.8-0.5-1.2c0-0.7,0.2-1.2,0.6-1.5s1-0.5,1.7-0.5c0.4,0,0.8,0,1.2,0.1V5c0-0.7-0.3-1.1-1-1.1c-0.5,0-1.2,0.2-1.9,0.5
		c-0.2-0.2-0.3-0.5-0.3-0.9C30.3,3.2,31.1,3,31.9,3c0.6,0,1.1,0.2,1.4,0.5c0.3,0.3,0.5,0.8,0.5,1.5v2.5C33.9,8,34,8.3,34.2,8.5z
		 M31.3,8.2c0.5,0,1-0.3,1.5-0.8V6.3c-0.3,0-0.7-0.1-1.1-0.1c-0.4,0-0.7,0.1-0.9,0.3c-0.2,0.2-0.3,0.4-0.3,0.7
		c0,0.3,0.1,0.5,0.2,0.7C30.8,8.1,31,8.2,31.3,8.2z"/>
	<path fill="#A9D42D" d="M42.8,6.5h-3.4c0,0.5,0.1,0.8,0.3,1.1c0.2,0.3,0.5,0.4,1,0.4s1-0.1,1.6-0.4c0.2,0.2,0.4,0.5,0.4,0.9
		c-0.6,0.5-1.4,0.7-2.3,0.7c-0.9,0-1.5-0.3-1.9-0.9C38.1,7.7,37.9,7,37.9,6c0-0.9,0.2-1.7,0.6-2.3c0.4-0.6,1-0.9,1.9-0.9
		c0.8,0,1.4,0.2,1.9,0.7c0.4,0.5,0.6,1.1,0.6,1.8C42.9,5.8,42.9,6.2,42.8,6.5z M40.5,4c-0.7,0-1,0.5-1.1,1.5h2.1V5.3
		c0-0.4-0.1-0.7-0.3-1S40.8,4,40.5,4z"/>
	<path fill="#A9D42D" d="M47.4,3c0,0.2,0.1,0.3,0.1,0.5c0,0.2,0,0.4-0.1,0.5l-1.5,0v3.3c0,0.4,0.2,0.5,0.5,0.5h0.8
		c0.1,0.2,0.1,0.5,0.1,0.6c0,0.2,0,0.3,0,0.4c-0.5,0.1-1,0.1-1.4,0.1c-0.9,0-1.4-0.5-1.4-1.4V4.1l-0.9,0c0-0.2-0.1-0.3-0.1-0.5
		c0-0.2,0-0.4,0.1-0.5l0.9,0V2.2c0-0.3,0.1-0.6,0.2-0.7c0.1-0.1,0.3-0.2,0.6-0.2h0.6l0.1,0.1v1.8L47.4,3z"/>
	<path fill="#A9D42D" d="M53.4,8.3c0,0.1-0.1,0.3-0.2,0.4C53.1,8.9,53,9,52.9,9.1c-0.5-0.1-0.9-0.3-1.1-0.7
		c-0.5,0.5-1.1,0.8-1.7,0.8c-0.6,0-1.1-0.2-1.4-0.5c-0.3-0.4-0.5-0.8-0.5-1.2c0-0.7,0.2-1.2,0.7-1.5c0.4-0.3,1-0.5,1.7-0.5
		c0.4,0,0.7,0,1,0V5.1c0-0.6-0.3-0.9-0.9-0.9c-0.4,0-1,0.1-1.8,0.4c-0.2-0.2-0.4-0.6-0.4-1.1c0.9-0.4,1.7-0.5,2.6-0.5
		c0.6,0,1.1,0.2,1.5,0.5S53,4.3,53,5v2.4C53,7.8,53.1,8.2,53.4,8.3z M50.4,8c0.4,0,0.8-0.2,1.2-0.6V6.4c-0.3,0-0.6,0-0.9,0
		s-0.6,0.1-0.7,0.3S49.7,7,49.7,7.2s0.1,0.5,0.2,0.6S50.1,8,50.4,8z"/>
	<path fill="#A9D42D" d="M57.7,2.9c0.6,0,1.2,0.3,1.5,0.8C59.6,4.3,59.8,5,59.8,6c0,1-0.2,1.7-0.7,2.3c-0.5,0.6-1,0.8-1.7,0.8
		c-0.4,0-0.8-0.1-1.3-0.3v1.9c0,0.3-0.1,0.6-0.2,0.7c-0.1,0.1-0.3,0.2-0.6,0.2h-0.6l-0.1-0.1V3.1L54.8,3h0.4c0.4,0,0.7,0.2,0.9,0.6
		C56.5,3.1,57.1,2.9,57.7,2.9z M57.3,4.1c-0.4,0-0.8,0.2-1.1,0.6v2.8c0.4,0.2,0.7,0.4,1,0.4c0.3,0,0.6-0.2,0.8-0.5
		c0.2-0.3,0.3-0.8,0.3-1.5S58.2,4.9,58,4.6S57.6,4.1,57.3,4.1z"/>
	<path fill="#A9D42D" d="M65.9,8.3c0,0.1-0.1,0.3-0.2,0.4c-0.1,0.1-0.2,0.3-0.3,0.3c-0.5-0.1-0.9-0.3-1.1-0.7
		c-0.5,0.5-1.1,0.8-1.7,0.8c-0.6,0-1.1-0.2-1.4-0.5c-0.3-0.4-0.5-0.8-0.5-1.2c0-0.7,0.2-1.2,0.7-1.5c0.4-0.3,1-0.5,1.7-0.5
		c0.4,0,0.7,0,1,0V5.1c0-0.6-0.3-0.9-0.9-0.9c-0.4,0-1,0.1-1.8,0.4c-0.2-0.2-0.4-0.6-0.4-1.1c0.9-0.4,1.7-0.5,2.6-0.5
		c0.6,0,1.1,0.2,1.5,0.5s0.6,0.8,0.6,1.5v2.4C65.5,7.8,65.7,8.2,65.9,8.3z M62.9,8c0.4,0,0.8-0.2,1.2-0.6V6.4c-0.3,0-0.6,0-0.9,0
		s-0.6,0.1-0.7,0.3S62.2,7,62.2,7.2s0.1,0.5,0.2,0.6S62.6,8,62.9,8z"/>
	<path fill="#A9D42D" d="M72.9,5.5c0,0,0-0.1,0-0.1c0-0.4-0.1-0.7-0.2-1S72.4,4,72,4c-0.7,0-1,0.7-1,2s0.4,2,1.2,2
		c0.4,0,0.9-0.2,1.4-0.6c0.1,0.1,0.2,0.2,0.4,0.4c0.1,0.2,0.2,0.3,0.2,0.5c-0.6,0.6-1.3,0.9-2.2,0.9c-0.9,0-1.5-0.3-1.9-0.9
		C69.7,7.7,69.5,7,69.5,6s0.3-1.8,0.8-2.3c0.5-0.5,1.1-0.8,1.8-0.8c0.7,0,1.2,0.2,1.6,0.6c0.4,0.4,0.6,0.8,0.6,1.3
		c0,0.5-0.2,0.8-0.7,0.8C73.3,5.6,73.1,5.5,72.9,5.5z"/>
	<path fill="#A9D42D" d="M80.4,6c0,1.1-0.3,1.9-0.9,2.5c-0.5,0.5-1.1,0.7-1.8,0.7S76.4,9,76,8.5c-0.6-0.6-0.9-1.4-0.9-2.5
		c0-1.1,0.3-1.9,0.9-2.5c0.5-0.5,1.1-0.7,1.8-0.7s1.3,0.2,1.8,0.7C80.1,4.1,80.4,5,80.4,6z M77.8,4c-0.8,0-1.1,0.7-1.1,2
		c0,1.3,0.4,2,1.1,2s1.1-0.7,1.1-2C78.9,4.7,78.5,4,77.8,4z"/>
	<path fill="#A9D42D" d="M86.6,5v2.7c0,0.5,0.1,0.9,0.2,1.1C86.6,9,86.3,9.1,86,9.1c-0.3,0-0.5-0.1-0.7-0.2
		c-0.1-0.2-0.2-0.4-0.2-0.7V5.3c0-0.4,0-0.6-0.1-0.8c-0.1-0.2-0.3-0.2-0.5-0.2c-0.5,0-0.9,0.2-1.3,0.6V9c-0.2,0-0.5,0.1-0.7,0.1
		c-0.3,0-0.5,0-0.8-0.1V3.1L81.8,3h0.6c0.5,0,0.7,0.2,0.8,0.7C83.8,3.2,84.4,3,84.9,3s1,0.2,1.3,0.6C86.5,3.9,86.6,4.4,86.6,5z"/>
	<path fill="#A9D42D" d="M91.4,5.5c0,0,0-0.1,0-0.1c0-0.4-0.1-0.7-0.2-1S90.8,4,90.5,4c-0.7,0-1,0.7-1,2s0.4,2,1.2,2
		c0.4,0,0.9-0.2,1.4-0.6c0.1,0.1,0.2,0.2,0.4,0.4c0.1,0.2,0.2,0.3,0.2,0.5c-0.6,0.6-1.3,0.9-2.2,0.9c-0.9,0-1.5-0.3-1.9-0.9
		C88.1,7.7,87.9,7,87.9,6s0.3-1.8,0.8-2.3c0.5-0.5,1.1-0.8,1.8-0.8c0.7,0,1.2,0.2,1.6,0.6c0.4,0.4,0.6,0.8,0.6,1.3
		c0,0.5-0.2,0.8-0.7,0.8C91.8,5.6,91.6,5.5,91.4,5.5z"/>
	<path fill="#A9D42D" d="M95.9,7.9h0.4c0.1,0.2,0.1,0.5,0.1,0.6c0,0.2,0,0.3,0,0.4c-0.5,0.1-0.8,0.1-1.1,0.1c-0.9,0-1.3-0.5-1.3-1.4
		V0.3L94,0.2h0.6c0.3,0,0.5,0.1,0.6,0.2c0.1,0.1,0.2,0.4,0.2,0.7v6.3C95.4,7.7,95.6,7.9,95.9,7.9z"/>
	<path fill="#A9D42D" d="M97.4,7.1V4.4c0-0.5-0.1-0.9-0.2-1.1C97.4,3.1,97.7,3,98,3s0.6,0.1,0.7,0.2c0.1,0.2,0.2,0.4,0.2,0.7v2.9
		c0,0.4,0,0.6,0.1,0.8c0.1,0.2,0.3,0.2,0.5,0.2c0.5,0,0.9-0.2,1.3-0.6V3.1c0.2,0,0.5-0.1,0.7-0.1c0.3,0,0.5,0,0.7,0.1v4.3
		c0,0.5,0.1,0.9,0.3,1c-0.1,0.3-0.2,0.6-0.5,0.8c-0.6-0.1-1-0.4-1.2-0.9c-0.6,0.6-1.3,0.9-1.9,0.9c-0.5,0-0.9-0.2-1.2-0.6
		C97.5,8.2,97.4,7.7,97.4,7.1z"/>
	<path fill="#A9D42D" d="M105.7,4.2V9c-0.2,0-0.5,0.1-0.7,0.1c-0.3,0-0.5,0-0.8-0.1V4.8c0-0.4-0.2-0.6-0.5-0.6h-0.1
		c0-0.1-0.1-0.3-0.1-0.5c0-0.2,0-0.4,0.1-0.5c0.3,0,0.6,0,0.9,0h0.2c0.3,0,0.6,0.1,0.8,0.3C105.6,3.6,105.7,3.9,105.7,4.2z M103.7,2
		l1.8-2c0.2,0.1,0.4,0.2,0.6,0.4c0.2,0.2,0.3,0.4,0.4,0.6l-2.1,1.6C104,2.5,103.8,2.3,103.7,2z"/>
	<path fill="#A9D42D" d="M109,9.2c-0.7,0-1.2-0.3-1.6-0.8C107.1,7.8,107,7,107,6.1c0-1,0.2-1.7,0.7-2.3c0.5-0.6,1-0.8,1.7-0.8
		c0.4,0,0.8,0.1,1.3,0.3v-3l0.1-0.1h0.6c0.3,0,0.5,0.1,0.6,0.2c0.1,0.1,0.2,0.4,0.2,0.7v6.2c0,0.5,0.1,0.8,0.3,1
		c0,0.1-0.1,0.3-0.2,0.4c-0.1,0.1-0.2,0.3-0.3,0.3c-0.5-0.1-0.9-0.3-1.1-0.7C110.3,8.9,109.7,9.2,109,9.2z M109.4,8
		c0.4,0,0.8-0.2,1.1-0.6V4.5c-0.4-0.2-0.8-0.4-1.1-0.4c-0.3,0-0.5,0.2-0.7,0.5c-0.2,0.3-0.3,0.8-0.3,1.5c0,0.6,0.1,1.1,0.3,1.4
		S109.1,8,109.4,8z"/>
	<path fill="#A9D42D" d="M118.5,8.3c0,0.1-0.1,0.3-0.2,0.4c-0.1,0.1-0.2,0.3-0.3,0.3c-0.5-0.1-0.9-0.3-1.1-0.7
		c-0.5,0.5-1.1,0.8-1.7,0.8c-0.6,0-1.1-0.2-1.4-0.5c-0.3-0.4-0.5-0.8-0.5-1.2c0-0.7,0.2-1.2,0.7-1.5c0.4-0.3,1-0.5,1.7-0.5
		c0.4,0,0.7,0,1,0V5.1c0-0.6-0.3-0.9-0.9-0.9c-0.4,0-1,0.1-1.8,0.4c-0.2-0.2-0.4-0.6-0.4-1.1c0.9-0.4,1.7-0.5,2.6-0.5
		c0.6,0,1.1,0.2,1.5,0.5s0.6,0.8,0.6,1.5v2.4C118.2,7.8,118.3,8.2,118.5,8.3z M115.5,8c0.4,0,0.8-0.2,1.2-0.6V6.4
		c-0.3,0-0.6,0-0.9,0s-0.6,0.1-0.7,0.3s-0.3,0.4-0.3,0.6s0.1,0.5,0.2,0.6S115.3,8,115.5,8z"/>
	<path fill="#FFFFFF" d="M9.9,18c0.1-0.3,0.2-0.5,0.4-0.6c0.5,0.1,0.9,0.5,1,1.1c0.3-0.7,0.9-1.1,1.6-1.1c0.2,0,0.4,0,0.6,0.1
		c0,0.4-0.1,0.8-0.3,1.1c0,0-0.2,0-0.5,0c-0.6,0-1,0.3-1.3,0.9v3.9c-0.1,0-0.3,0-0.6,0s-0.4,0-0.6,0v-4.2
		C10.3,18.7,10.2,18.3,9.9,18z"/>
	<path fill="#FFFFFF" d="M18.9,20.8h-3.6c0,0.6,0.1,1,0.4,1.3c0.2,0.3,0.6,0.5,1.1,0.5s1.1-0.2,1.7-0.5c0.2,0.2,0.3,0.4,0.4,0.8
		c-0.6,0.4-1.4,0.7-2.3,0.7c-0.9,0-1.5-0.3-1.9-0.9s-0.6-1.3-0.6-2.3s0.2-1.7,0.6-2.3c0.4-0.6,1-0.9,1.8-0.9c0.8,0,1.4,0.2,1.8,0.7
		c0.4,0.5,0.6,1.1,0.6,1.8C19,20.2,19,20.5,18.9,20.8z M17.6,18.7c-0.2-0.3-0.5-0.5-0.9-0.5s-0.7,0.2-0.9,0.5s-0.3,0.7-0.4,1.3h2.5
		v-0.2C17.9,19.3,17.8,19,17.6,18.7z"/>
	<path fill="#FFFFFF" d="M23.4,17.3c0.7,0,1.2,0.3,1.5,0.8c0.4,0.6,0.5,1.3,0.5,2.3c0,1-0.2,1.7-0.7,2.3c-0.5,0.5-1,0.8-1.6,0.8
		c-0.5,0-1-0.1-1.4-0.4v2.1c0,0.3,0,0.5-0.1,0.6c-0.1,0.1-0.3,0.2-0.5,0.2h-0.4l-0.1-0.1v-8.4l0.1-0.1H21c0.4,0,0.6,0.2,0.7,0.6
		C22.2,17.6,22.8,17.3,23.4,17.3z M23.1,18.3c-0.6,0-1,0.3-1.4,0.8v3c0.4,0.3,0.9,0.5,1.2,0.5s0.7-0.2,0.9-0.6
		c0.2-0.4,0.4-0.9,0.4-1.6c0-0.7-0.1-1.2-0.3-1.6S23.5,18.3,23.1,18.3z"/>
	<path fill="#FFFFFF" d="M26.6,18c0.1-0.3,0.2-0.5,0.4-0.6c0.5,0.1,0.9,0.5,1,1.1c0.3-0.7,0.9-1.1,1.6-1.1c0.2,0,0.4,0,0.6,0.1
		c0,0.4-0.1,0.8-0.3,1.1c0,0-0.2,0-0.5,0c-0.6,0-1,0.3-1.3,0.9v3.9c-0.1,0-0.3,0-0.6,0s-0.4,0-0.6,0v-4.2
		C27.1,18.7,26.9,18.3,26.6,18z"/>
	<path fill="#FFFFFF" d="M35.7,20.8h-3.6c0,0.6,0.1,1,0.4,1.3c0.2,0.3,0.6,0.5,1.1,0.5s1.1-0.2,1.7-0.5c0.2,0.2,0.3,0.4,0.4,0.8
		c-0.6,0.4-1.4,0.7-2.3,0.7c-0.9,0-1.5-0.3-1.9-0.9s-0.6-1.3-0.6-2.3s0.2-1.7,0.6-2.3c0.4-0.6,1-0.9,1.8-0.9c0.8,0,1.4,0.2,1.8,0.7
		c0.4,0.5,0.6,1.1,0.6,1.8C35.8,20.2,35.7,20.5,35.7,20.8z M34.3,18.7c-0.2-0.3-0.5-0.5-0.9-0.5s-0.7,0.2-0.9,0.5s-0.3,0.7-0.4,1.3
		h2.5v-0.2C34.6,19.3,34.5,19,34.3,18.7z"/>
	<path fill="#FFFFFF" d="M36.8,23c0-0.1,0-0.3,0.1-0.4s0.2-0.3,0.3-0.4c0.7,0.4,1.2,0.5,1.6,0.5c0.4,0,0.7-0.1,0.9-0.2
		c0.2-0.1,0.3-0.3,0.3-0.6c0-0.4-0.3-0.7-0.8-0.9l-0.7-0.3c-1-0.4-1.5-0.9-1.5-1.7c0-0.5,0.2-1,0.6-1.3c0.4-0.3,0.9-0.5,1.6-0.5
		s1.3,0.1,1.9,0.4c0,0.2,0,0.3-0.1,0.5s-0.2,0.3-0.3,0.4c-0.6-0.3-1.1-0.4-1.6-0.4c-0.3,0-0.5,0.1-0.7,0.2s-0.3,0.3-0.3,0.5
		s0.1,0.4,0.2,0.5c0.1,0.1,0.3,0.2,0.6,0.3l0.7,0.3c1,0.4,1.5,1,1.5,1.8c0,0.5-0.2,1-0.6,1.3s-1,0.5-1.7,0.5S37.4,23.4,36.8,23z"/>
	<path fill="#FFFFFF" d="M46.9,20.8h-3.6c0,0.6,0.1,1,0.4,1.3c0.2,0.3,0.6,0.5,1.1,0.5s1.1-0.2,1.7-0.5c0.2,0.2,0.3,0.4,0.4,0.8
		c-0.6,0.4-1.4,0.7-2.3,0.7c-0.9,0-1.5-0.3-1.9-0.9s-0.6-1.3-0.6-2.3s0.2-1.7,0.6-2.3c0.4-0.6,1-0.9,1.8-0.9c0.8,0,1.4,0.2,1.8,0.7
		c0.4,0.5,0.6,1.1,0.6,1.8C47,20.2,47,20.5,46.9,20.8z M45.6,18.7c-0.2-0.3-0.5-0.5-0.9-0.5s-0.7,0.2-0.9,0.5s-0.3,0.7-0.4,1.3h2.5
		v-0.2C45.9,19.3,45.8,19,45.6,18.7z"/>
	<path fill="#FFFFFF" d="M53.3,19.3v2.8c0,0.5,0.1,0.8,0.2,1.1c-0.2,0.2-0.4,0.3-0.7,0.3c-0.4,0-0.6-0.2-0.6-0.7v-3.1
		c0-0.4-0.1-0.7-0.2-0.9c-0.1-0.2-0.3-0.3-0.6-0.3c-0.3,0-0.6,0.1-0.9,0.2c-0.3,0.1-0.5,0.3-0.8,0.6v4.2c-0.1,0-0.3,0-0.6,0
		s-0.4,0-0.6,0v-5.9l0.1-0.1h0.4c0.4,0,0.6,0.3,0.6,0.8c0.6-0.5,1.2-0.8,1.9-0.8c0.5,0,0.9,0.2,1.2,0.5S53.3,18.8,53.3,19.3z"/>
	<path fill="#FFFFFF" d="M58,17.5c0,0.1,0,0.3,0,0.4s0,0.3,0,0.4l-1.5,0V22c0,0.3,0.2,0.5,0.5,0.5h0.8c0.1,0.2,0.1,0.3,0.1,0.5
		s0,0.3,0,0.3c-0.5,0.1-0.9,0.1-1.3,0.1c-0.8,0-1.2-0.4-1.2-1.2v-3.9l-0.9,0c0-0.1,0-0.3,0-0.4s0-0.3,0-0.4l0.9,0v-1.1
		c0-0.3,0-0.5,0.1-0.6c0.1-0.1,0.3-0.2,0.5-0.2h0.4l0.1,0.1v1.8L58,17.5z"/>
	<path fill="#FFFFFF" d="M63.9,22.9c-0.1,0.3-0.2,0.5-0.5,0.6c-0.4-0.1-0.7-0.3-0.9-0.8c-0.6,0.6-1.2,0.8-1.8,0.8
		c-0.6,0-1.1-0.2-1.4-0.5c-0.3-0.4-0.5-0.8-0.5-1.2c0-0.7,0.2-1.1,0.6-1.5s1-0.5,1.7-0.5c0.4,0,0.8,0,1.2,0.1v-0.5
		c0-0.7-0.3-1.1-1-1.1c-0.5,0-1.2,0.2-1.9,0.5c-0.2-0.2-0.3-0.5-0.3-0.9c0.8-0.4,1.7-0.6,2.5-0.6c0.6,0,1.1,0.2,1.4,0.5
		c0.3,0.3,0.5,0.8,0.5,1.5v2.5C63.5,22.4,63.6,22.7,63.9,22.9z M60.9,22.6c0.5,0,1-0.3,1.5-0.8v-1.2c-0.3,0-0.7-0.1-1.1-0.1
		c-0.4,0-0.7,0.1-0.9,0.3s-0.3,0.4-0.3,0.7s0.1,0.5,0.2,0.7C60.4,22.5,60.6,22.6,60.9,22.6z"/>
	<path fill="#FFFFFF" d="M68,21.6v-2.8c0-0.5-0.1-0.8-0.2-1.1c0.2-0.2,0.4-0.2,0.7-0.2c0.3,0,0.4,0.1,0.5,0.2s0.1,0.3,0.1,0.6v3.1
		c0,0.4,0.1,0.7,0.2,0.9c0.1,0.2,0.3,0.3,0.6,0.3c0.3,0,0.6-0.1,0.8-0.2s0.5-0.3,0.8-0.6v-4.2c0.2,0,0.4,0,0.6,0s0.4,0,0.6,0v4.2
		c0,0.6,0.1,1,0.3,1.2c-0.1,0.3-0.2,0.5-0.4,0.6c-0.5-0.1-0.8-0.4-0.9-0.9c-0.6,0.6-1.3,0.9-2,0.9c-0.5,0-0.9-0.2-1.2-0.5
		C68.1,22.6,68,22.2,68,21.6z"/>
	<path fill="#FFFFFF" d="M77.9,19.6c0-0.4-0.1-0.7-0.2-0.9c-0.1-0.2-0.3-0.3-0.6-0.3c-0.5,0-0.9,0.3-1.4,0.8v4.2c-0.1,0-0.3,0-0.6,0
		s-0.4,0-0.6,0v-5.9l0.1-0.1h0.4c0.4,0,0.6,0.3,0.6,0.8c0.5-0.5,1.1-0.8,1.7-0.8s1.1,0.3,1.3,0.9c0.6-0.6,1.3-0.9,1.9-0.9
		c0.5,0,0.9,0.2,1.1,0.5s0.4,0.8,0.4,1.3v2.9c0,0.5,0.1,0.8,0.2,1.1c-0.2,0.2-0.4,0.3-0.7,0.3c-0.4,0-0.6-0.2-0.6-0.7v-3.1
		c0-0.4-0.1-0.7-0.2-0.9c-0.1-0.2-0.3-0.3-0.6-0.3c-0.5,0-0.9,0.3-1.4,0.8v4.2c-0.1,0-0.3,0-0.6,0s-0.4,0-0.6,0V19.6z"/>
	<path fill="#FFFFFF" d="M88.7,22.9c-0.1,0.3-0.2,0.5-0.5,0.6c-0.4-0.1-0.7-0.3-0.9-0.8c-0.6,0.6-1.2,0.8-1.8,0.8
		c-0.6,0-1.1-0.2-1.4-0.5c-0.3-0.4-0.5-0.8-0.5-1.2c0-0.7,0.2-1.1,0.6-1.5s1-0.5,1.7-0.5c0.4,0,0.8,0,1.2,0.1v-0.5
		c0-0.7-0.3-1.1-1-1.1c-0.5,0-1.2,0.2-1.9,0.5c-0.2-0.2-0.3-0.5-0.3-0.9c0.8-0.4,1.7-0.6,2.5-0.6c0.6,0,1.1,0.2,1.4,0.5
		c0.3,0.3,0.5,0.8,0.5,1.5v2.5C88.4,22.4,88.5,22.7,88.7,22.9z M85.7,22.6c0.5,0,1-0.3,1.5-0.8v-1.2c-0.3,0-0.7-0.1-1.1-0.1
		c-0.4,0-0.7,0.1-0.9,0.3s-0.3,0.4-0.3,0.7s0.1,0.5,0.2,0.7C85.3,22.5,85.5,22.6,85.7,22.6z"/>
	<path fill="#FFFFFF" d="M94.7,22.5l1.5-5c0.1,0,0.3,0,0.5,0s0.4,0,0.6,0.1l0,0c-0.8,2.6-1.4,4.5-1.9,5.8c-0.2,0-0.5,0.1-0.8,0.1
		s-0.5,0-0.6-0.1s-0.2-0.3-0.3-0.5L92,17.6c0.2-0.1,0.5-0.2,0.7-0.2c0.3,0,0.5,0.2,0.6,0.5l0.8,2.7c0.2,0.6,0.3,1.2,0.5,1.8
		C94.6,22.4,94.7,22.5,94.7,22.5z"/>
	<path fill="#FFFFFF" d="M99.7,18.5v4.9c-0.1,0-0.3,0-0.6,0c-0.2,0-0.4,0-0.6,0V19c0-0.2,0-0.4-0.1-0.5s-0.2-0.1-0.4-0.1h-0.1
		c0-0.1,0-0.3,0-0.4s0-0.3,0-0.4c0.3,0,0.5,0,0.7,0h0.2c0.3,0,0.5,0.1,0.7,0.3C99.6,17.9,99.7,18.2,99.7,18.5z M98.2,15.9
		c0-0.2,0-0.4,0.1-0.5c0.2-0.1,0.4-0.1,0.7-0.1c0.3,0,0.5,0,0.6,0.1c0.1,0.1,0.1,0.3,0.1,0.5s0,0.4-0.1,0.5
		c-0.1,0.1-0.3,0.1-0.6,0.1c-0.3,0-0.5,0-0.6-0.1C98.2,16.2,98.2,16.1,98.2,15.9z"/>
	<path fill="#FFFFFF" d="M104.4,17.5c0,0.1,0,0.3,0,0.4s0,0.3,0,0.4l-1.5,0V22c0,0.3,0.2,0.5,0.5,0.5h0.8c0.1,0.2,0.1,0.3,0.1,0.5
		s0,0.3,0,0.3c-0.5,0.1-0.9,0.1-1.3,0.1c-0.8,0-1.2-0.4-1.2-1.2v-3.9l-0.9,0c0-0.1,0-0.3,0-0.4s0-0.3,0-0.4l0.9,0v-1.1
		c0-0.3,0-0.5,0.1-0.6c0.1-0.1,0.3-0.2,0.5-0.2h0.4l0.1,0.1v1.8L104.4,17.5z"/>
	<path fill="#FFFFFF" d="M109.6,18c0.6,0.6,0.8,1.4,0.8,2.5s-0.3,1.9-0.8,2.5c-0.4,0.4-1,0.7-1.7,0.7s-1.3-0.2-1.7-0.7
		c-0.6-0.6-0.8-1.4-0.8-2.5s0.3-1.9,0.8-2.5c0.4-0.4,1-0.7,1.7-0.7S109.2,17.6,109.6,18z M106.5,20.5c0,1.5,0.5,2.2,1.4,2.2
		s1.4-0.7,1.4-2.2c0-0.4,0-0.8-0.1-1.1s-0.2-0.6-0.4-0.8c-0.2-0.2-0.5-0.3-0.8-0.3s-0.6,0.1-0.8,0.3c-0.2,0.2-0.4,0.5-0.4,0.8
		S106.5,20,106.5,20.5z M107,16.5l1.7-1.9c0.2,0.1,0.3,0.2,0.5,0.3c0.2,0.1,0.3,0.3,0.3,0.5l-2,1.6C107.3,16.9,107.1,16.7,107,16.5z
		"/>
	<path fill="#FFFFFF" d="M111.6,18c0.1-0.3,0.2-0.5,0.4-0.6c0.5,0.1,0.9,0.5,1,1.1c0.3-0.7,0.9-1.1,1.6-1.1c0.2,0,0.4,0,0.6,0.1
		c0,0.4-0.1,0.8-0.3,1.1c0,0-0.2,0-0.5,0c-0.6,0-1,0.3-1.3,0.9v3.9c-0.1,0-0.3,0-0.6,0s-0.4,0-0.6,0v-4.2
		C112.1,18.7,111.9,18.3,111.6,18z"/>
	<path fill="#FFFFFF" d="M117.8,18.5v4.9c-0.1,0-0.3,0-0.6,0c-0.2,0-0.4,0-0.6,0V19c0-0.2,0-0.4-0.1-0.5s-0.2-0.1-0.4-0.1H116
		c0-0.1,0-0.3,0-0.4s0-0.3,0-0.4c0.3,0,0.5,0,0.7,0h0.2c0.3,0,0.5,0.1,0.7,0.3C117.8,17.9,117.8,18.2,117.8,18.5z M116.3,15.9
		c0-0.2,0-0.4,0.1-0.5c0.2-0.1,0.4-0.1,0.7-0.1c0.3,0,0.5,0,0.6,0.1c0.1,0.1,0.1,0.3,0.1,0.5s0,0.4-0.1,0.5
		c-0.1,0.1-0.3,0.1-0.6,0.1c-0.3,0-0.5,0-0.6-0.1C116.4,16.2,116.3,16.1,116.3,15.9z"/>
	<path fill="#FFFFFF" d="M124.3,22.9c-0.1,0.3-0.2,0.5-0.5,0.6c-0.4-0.1-0.7-0.3-0.9-0.8c-0.6,0.6-1.2,0.8-1.8,0.8
		c-0.6,0-1.1-0.2-1.4-0.5c-0.3-0.4-0.5-0.8-0.5-1.2c0-0.7,0.2-1.1,0.6-1.5s1-0.5,1.7-0.5c0.4,0,0.8,0,1.2,0.1v-0.5
		c0-0.7-0.3-1.1-1-1.1c-0.5,0-1.2,0.2-1.9,0.5c-0.2-0.2-0.3-0.5-0.3-0.9c0.8-0.4,1.7-0.6,2.5-0.6c0.6,0,1.1,0.2,1.4,0.5
		c0.3,0.3,0.5,0.8,0.5,1.5v2.5C124,22.4,124.1,22.7,124.3,22.9z M121.3,22.6c0.5,0,1-0.3,1.5-0.8v-1.2c-0.3,0-0.7-0.1-1.1-0.1
		c-0.4,0-0.7,0.1-0.9,0.3s-0.3,0.4-0.3,0.7s0.1,0.5,0.2,0.7C120.9,22.5,121.1,22.6,121.3,22.6z"/>
	<path fill="#FFFFFF" d="M125.6,25.3c-0.2-0.1-0.3-0.3-0.3-0.5c0,0,0-0.1,0-0.1c0.3-0.1,0.5-0.3,0.7-0.5c0.2-0.2,0.3-0.4,0.3-0.7
		c-0.2-0.1-0.4-0.1-0.5-0.2c-0.1-0.1-0.1-0.3-0.1-0.6s0-0.5,0.1-0.6c0.2-0.1,0.4-0.2,0.7-0.2s0.5,0.1,0.7,0.2
		c0.1,0.2,0.1,0.4,0.1,0.8c0,0.5-0.1,1-0.4,1.4S126.1,25.1,125.6,25.3z"/>
	<path fill="#FFFFFF" d="M136,20.8h-3.6c0,0.6,0.1,1,0.4,1.3c0.2,0.3,0.6,0.5,1.1,0.5s1.1-0.2,1.7-0.5c0.2,0.2,0.3,0.4,0.4,0.8
		c-0.6,0.4-1.4,0.7-2.3,0.7c-0.9,0-1.5-0.3-1.9-0.9s-0.6-1.3-0.6-2.3s0.2-1.7,0.6-2.3c0.4-0.6,1-0.9,1.8-0.9c0.8,0,1.4,0.2,1.8,0.7
		c0.4,0.5,0.6,1.1,0.6,1.8C136.1,20.2,136.1,20.5,136,20.8z M134.7,18.7c-0.2-0.3-0.5-0.5-0.9-0.5s-0.7,0.2-0.9,0.5
		s-0.3,0.7-0.4,1.3h2.5v-0.2C135,19.3,134.9,19,134.7,18.7z"/>
	<path fill="#FFFFFF" d="M13.5,34c0-0.4-0.1-0.7-0.2-0.9c-0.1-0.2-0.3-0.3-0.6-0.3c-0.5,0-0.9,0.3-1.4,0.8v4.2c-0.1,0-0.3,0-0.6,0
		s-0.4,0-0.6,0v-5.9l0.1-0.1h0.4c0.4,0,0.6,0.3,0.6,0.8c0.5-0.5,1.1-0.8,1.7-0.8s1.1,0.3,1.3,0.9c0.6-0.6,1.3-0.9,1.9-0.9
		c0.5,0,0.9,0.2,1.1,0.5s0.4,0.8,0.4,1.3v2.9c0,0.5,0.1,0.8,0.2,1.1c-0.2,0.2-0.4,0.3-0.7,0.3c-0.4,0-0.6-0.2-0.6-0.7V34
		c0-0.4-0.1-0.7-0.2-0.9c-0.1-0.2-0.3-0.3-0.6-0.3c-0.5,0-0.9,0.3-1.4,0.8v4.2c-0.1,0-0.3,0-0.6,0s-0.4,0-0.6,0V34z"/>
	<path fill="#FFFFFF" d="M24.1,35.2h-3.6c0,0.6,0.1,1,0.4,1.3c0.2,0.3,0.6,0.5,1.1,0.5s1.1-0.2,1.7-0.5c0.2,0.2,0.3,0.4,0.4,0.8
		c-0.6,0.4-1.4,0.7-2.3,0.7c-0.9,0-1.5-0.3-1.9-0.9s-0.6-1.3-0.6-2.3s0.2-1.7,0.6-2.3c0.4-0.6,1-0.9,1.8-0.9c0.8,0,1.4,0.2,1.8,0.7
		c0.4,0.5,0.6,1.1,0.6,1.8C24.2,34.6,24.2,34.9,24.1,35.2z M22.8,33.1c-0.2-0.3-0.5-0.5-0.9-0.5s-0.7,0.2-0.9,0.5s-0.3,0.7-0.4,1.3
		h2.5v-0.2C23.1,33.7,23,33.4,22.8,33.1z"/>
	<path fill="#FFFFFF" d="M25.4,32.4c0.1-0.3,0.2-0.5,0.4-0.6c0.5,0.1,0.9,0.5,1,1.1c0.3-0.7,0.9-1.1,1.6-1.1c0.2,0,0.4,0,0.6,0.1
		c0,0.4-0.1,0.8-0.3,1.1c0,0-0.2,0-0.5,0c-0.6,0-1,0.3-1.3,0.9v3.9c-0.1,0-0.3,0-0.6,0s-0.4,0-0.6,0v-4.2
		C25.9,33.1,25.7,32.7,25.4,32.4z"/>
	<path fill="#FFFFFF" d="M34.5,35.2h-3.6c0,0.6,0.1,1,0.4,1.3c0.2,0.3,0.6,0.5,1.1,0.5s1.1-0.2,1.7-0.5c0.2,0.2,0.3,0.4,0.4,0.8
		C33.8,37.7,33,38,32.2,38c-0.9,0-1.5-0.3-1.9-0.9s-0.6-1.3-0.6-2.3s0.2-1.7,0.6-2.3c0.4-0.6,1-0.9,1.8-0.9c0.8,0,1.4,0.2,1.8,0.7
		c0.4,0.5,0.6,1.1,0.6,1.8C34.6,34.6,34.6,34.9,34.5,35.2z M33.2,33.1c-0.2-0.3-0.5-0.5-0.9-0.5s-0.7,0.2-0.9,0.5s-0.3,0.7-0.4,1.3
		h2.5v-0.2C33.5,33.7,33.4,33.4,33.2,33.1z"/>
	<path fill="#FFFFFF" d="M39.3,34.1c0,0,0-0.1,0-0.1c0-0.9-0.4-1.4-1.1-1.4c-0.4,0-0.7,0.2-0.9,0.6c-0.2,0.4-0.3,0.9-0.3,1.7
		c0,1.4,0.5,2.1,1.4,2.1c0.4,0,0.9-0.2,1.5-0.6c0.1,0.1,0.2,0.2,0.3,0.3c0.1,0.1,0.2,0.3,0.2,0.4C39.7,37.7,39,38,38.2,38
		s-1.4-0.3-1.8-0.9c-0.4-0.6-0.6-1.4-0.6-2.3c0-1,0.2-1.7,0.7-2.2c0.5-0.5,1.1-0.8,1.8-0.8c0.7,0,1.2,0.2,1.6,0.6
		c0.4,0.4,0.6,0.8,0.6,1.2c0,0.4-0.2,0.7-0.6,0.7C39.6,34.2,39.5,34.2,39.3,34.1z"/>
	<path fill="#FFFFFF" d="M46.2,35.2h-3.6c0,0.6,0.1,1,0.4,1.3c0.2,0.3,0.6,0.5,1.1,0.5s1.1-0.2,1.7-0.5c0.2,0.2,0.3,0.4,0.4,0.8
		c-0.6,0.4-1.4,0.7-2.3,0.7c-0.9,0-1.5-0.3-1.9-0.9s-0.6-1.3-0.6-2.3s0.2-1.7,0.6-2.3c0.4-0.6,1-0.9,1.8-0.9c0.8,0,1.4,0.2,1.8,0.7
		c0.4,0.5,0.6,1.1,0.6,1.8C46.3,34.6,46.2,34.9,46.2,35.2z M44.8,33.1c-0.2-0.3-0.5-0.5-0.9-0.5s-0.7,0.2-0.9,0.5s-0.3,0.7-0.4,1.3
		h2.5v-0.2C45.1,33.7,45,33.4,44.8,33.1z"/>
	<path fill="#FFFFFF" d="M49.9,37.4c0-0.1,0-0.3,0.1-0.4s0.2-0.3,0.3-0.4c0.7,0.4,1.2,0.5,1.6,0.5c0.4,0,0.7-0.1,0.9-0.2
		c0.2-0.1,0.3-0.3,0.3-0.6c0-0.4-0.3-0.7-0.8-0.9l-0.7-0.3c-1-0.4-1.5-0.9-1.5-1.7c0-0.5,0.2-1,0.6-1.3c0.4-0.3,0.9-0.5,1.6-0.5
		s1.3,0.1,1.9,0.4c0,0.2,0,0.3-0.1,0.5s-0.2,0.3-0.3,0.4c-0.6-0.3-1.1-0.4-1.6-0.4c-0.3,0-0.5,0.1-0.7,0.2s-0.3,0.3-0.3,0.5
		s0.1,0.4,0.2,0.5c0.1,0.1,0.3,0.2,0.6,0.3l0.7,0.3c1,0.4,1.5,1,1.5,1.8c0,0.5-0.2,1-0.6,1.3S52.7,38,52,38S50.6,37.8,49.9,37.4z"/>
	<path fill="#FFFFFF" d="M60.1,35.2h-3.6c0,0.6,0.1,1,0.4,1.3c0.2,0.3,0.6,0.5,1.1,0.5s1.1-0.2,1.7-0.5c0.2,0.2,0.3,0.4,0.4,0.8
		c-0.6,0.4-1.4,0.7-2.3,0.7c-0.9,0-1.5-0.3-1.9-0.9s-0.6-1.3-0.6-2.3s0.2-1.7,0.6-2.3c0.4-0.6,1-0.9,1.8-0.9c0.8,0,1.4,0.2,1.8,0.7
		c0.4,0.5,0.6,1.1,0.6,1.8C60.2,34.6,60.1,34.9,60.1,35.2z M58.7,33.1c-0.2-0.3-0.5-0.5-0.9-0.5s-0.7,0.2-0.9,0.5s-0.3,0.7-0.4,1.3
		H59v-0.2C59,33.7,58.9,33.4,58.7,33.1z"/>
	<path fill="#FFFFFF" d="M61.4,32.4c0.1-0.3,0.2-0.5,0.4-0.6c0.5,0.1,0.9,0.5,1,1.1c0.3-0.7,0.9-1.1,1.6-1.1c0.2,0,0.4,0,0.6,0.1
		c0,0.4-0.1,0.8-0.3,1.1c0,0-0.2,0-0.5,0c-0.6,0-1,0.3-1.3,0.9v3.9c-0.1,0-0.3,0-0.6,0s-0.4,0-0.6,0v-4.2
		C61.8,33.1,61.7,32.7,61.4,32.4z"/>
	<path fill="#A9D42D" d="M71.7,34.3c0,0,0-0.1,0-0.1c0-0.4-0.1-0.7-0.2-1s-0.4-0.4-0.7-0.4c-0.7,0-1,0.7-1,2s0.4,2,1.2,2
		c0.4,0,0.9-0.2,1.4-0.6c0.1,0.1,0.2,0.2,0.4,0.4c0.1,0.2,0.2,0.3,0.2,0.5c-0.6,0.6-1.3,0.9-2.2,0.9c-0.9,0-1.5-0.3-1.9-0.9
		c-0.4-0.6-0.6-1.4-0.6-2.4s0.3-1.8,0.8-2.3c0.5-0.5,1.1-0.8,1.8-0.8c0.7,0,1.2,0.2,1.6,0.6s0.6,0.8,0.6,1.3s-0.2,0.8-0.7,0.8
		C72.1,34.4,71.9,34.3,71.7,34.3z"/>
	<path fill="#A9D42D" d="M79.2,34.8c0,1.1-0.3,1.9-0.9,2.5c-0.5,0.5-1.1,0.7-1.8,0.7s-1.3-0.2-1.8-0.7c-0.6-0.6-0.9-1.4-0.9-2.5
		s0.3-1.9,0.9-2.5c0.5-0.5,1.1-0.7,1.8-0.7s1.3,0.2,1.8,0.7C78.9,32.9,79.2,33.8,79.2,34.8z M76.6,32.8c-0.8,0-1.1,0.7-1.1,2
		s0.4,2,1.1,2s1.1-0.7,1.1-2S77.3,32.8,76.6,32.8z"/>
	<path fill="#A9D42D" d="M83.8,34.1c0-0.7-0.2-1-0.6-1c-0.4,0-0.7,0.2-1.1,0.6v4.1c-0.2,0-0.5,0.1-0.7,0.1c-0.3,0-0.5,0-0.8-0.1
		v-5.9l0.1-0.1h0.6c0.5,0,0.7,0.2,0.8,0.7c0.6-0.5,1.1-0.8,1.7-0.8c0.6,0,1,0.3,1.3,0.9c0.6-0.6,1.2-0.9,1.9-0.9
		c0.5,0,0.9,0.2,1.2,0.5c0.3,0.4,0.4,0.8,0.4,1.4v2.8c0,0.5,0.1,0.9,0.2,1.1c-0.2,0.2-0.5,0.3-0.9,0.3s-0.6-0.1-0.7-0.2
		S87,37.3,87,37v-2.9c0-0.7-0.2-1-0.7-1c-0.3,0-0.7,0.2-1.1,0.6v4.1c-0.2,0-0.5,0.1-0.7,0.1s-0.5,0-0.8-0.1V34.1z"/>
	<path fill="#A9D42D" d="M94.7,35.3h-3.4c0,0.5,0.1,0.8,0.3,1.1c0.2,0.3,0.5,0.4,1,0.4s1-0.1,1.6-0.4c0.2,0.2,0.4,0.5,0.4,0.9
		C94,37.8,93.2,38,92.3,38c-0.9,0-1.5-0.3-1.9-0.9c-0.4-0.6-0.6-1.3-0.6-2.3s0.2-1.7,0.6-2.3c0.4-0.6,1-0.9,1.9-0.9
		c0.8,0,1.4,0.2,1.9,0.7c0.4,0.5,0.6,1.1,0.6,1.8C94.8,34.6,94.8,35,94.7,35.3z M92.4,32.8c-0.7,0-1,0.5-1.1,1.5h2.1v-0.1
		c0-0.4-0.1-0.7-0.3-1S92.7,32.8,92.4,32.8z"/>
	<path fill="#A9D42D" d="M99.4,34.1c0-0.7-0.2-1-0.6-1c-0.4,0-0.7,0.2-1.1,0.6v4.1c-0.2,0-0.5,0.1-0.7,0.1c-0.3,0-0.5,0-0.8-0.1
		v-5.9l0.1-0.1h0.6c0.5,0,0.7,0.2,0.8,0.7c0.6-0.5,1.1-0.8,1.7-0.8c0.6,0,1,0.3,1.3,0.9c0.6-0.6,1.2-0.9,1.9-0.9
		c0.5,0,0.9,0.2,1.2,0.5c0.3,0.4,0.4,0.8,0.4,1.4v2.8c0,0.5,0.1,0.9,0.2,1.1c-0.2,0.2-0.5,0.3-0.9,0.3s-0.6-0.1-0.7-0.2
		s-0.2-0.4-0.2-0.7v-2.9c0-0.7-0.2-1-0.7-1c-0.3,0-0.7,0.2-1.1,0.6v4.1c-0.2,0-0.5,0.1-0.7,0.1s-0.5,0-0.8-0.1V34.1z"/>
	<path fill="#A9D42D" d="M110.7,34.8c0,1.1-0.3,1.9-0.9,2.5c-0.5,0.5-1.1,0.7-1.8,0.7s-1.3-0.2-1.8-0.7c-0.6-0.6-0.9-1.4-0.9-2.5
		s0.3-1.9,0.9-2.5c0.5-0.5,1.1-0.7,1.8-0.7s1.3,0.2,1.8,0.7C110.4,32.9,110.7,33.8,110.7,34.8z M108.1,32.8c-0.8,0-1.1,0.7-1.1,2
		s0.4,2,1.1,2s1.1-0.7,1.1-2S108.8,32.8,108.1,32.8z"/>
	<path fill="#A9D42D" d="M111.7,32.6c0-0.1,0.1-0.3,0.2-0.4c0.1-0.2,0.2-0.3,0.3-0.3c0.6,0.1,1,0.5,1.3,1.1c0.3-0.7,0.8-1.1,1.5-1.1
		c0.2,0,0.4,0,0.7,0.1c0,0.5-0.1,1-0.4,1.4c-0.1,0-0.3-0.1-0.5-0.1c-0.5,0-0.9,0.3-1.2,0.8v3.9c-0.2,0-0.5,0.1-0.7,0.1
		s-0.5,0-0.8-0.1v-4C112.1,33.2,112,32.8,111.7,32.6z"/>
	<path fill="#A9D42D" d="M121.3,37.1c0,0.1-0.1,0.3-0.2,0.4c-0.1,0.1-0.2,0.3-0.3,0.3c-0.5-0.1-0.9-0.3-1.1-0.7
		c-0.5,0.5-1.1,0.8-1.7,0.8c-0.6,0-1.1-0.2-1.4-0.5c-0.3-0.4-0.5-0.8-0.5-1.2c0-0.7,0.2-1.2,0.7-1.5c0.4-0.3,1-0.5,1.7-0.5
		c0.4,0,0.7,0,1,0v-0.4c0-0.6-0.3-0.9-0.9-0.9c-0.4,0-1,0.1-1.8,0.4c-0.2-0.2-0.4-0.6-0.4-1.1c0.9-0.4,1.7-0.5,2.6-0.5
		c0.6,0,1.1,0.2,1.5,0.5s0.6,0.8,0.6,1.5v2.4C120.9,36.6,121.1,37,121.3,37.1z M118.3,36.8c0.4,0,0.8-0.2,1.2-0.6v-1.1
		c-0.3,0-0.6,0-0.9,0s-0.6,0.1-0.7,0.3s-0.3,0.4-0.3,0.6c0,0.3,0.1,0.5,0.2,0.6C117.9,36.8,118.1,36.8,118.3,36.8z"/>
	<path fill="#A9D42D" d="M124.2,38c-0.7,0-1.2-0.3-1.6-0.8c-0.4-0.6-0.5-1.3-0.5-2.3c0-1,0.2-1.7,0.7-2.3s1-0.8,1.7-0.8
		c0.4,0,0.8,0.1,1.3,0.3v-3l0.1-0.1h0.6c0.3,0,0.5,0.1,0.6,0.2c0.1,0.1,0.2,0.4,0.2,0.7v6.2c0,0.5,0.1,0.8,0.3,1
		c0,0.1-0.1,0.3-0.2,0.4c-0.1,0.1-0.2,0.3-0.3,0.3c-0.5-0.1-0.9-0.3-1.1-0.7C125.5,37.7,124.9,38,124.2,38z M124.6,36.8
		c0.4,0,0.8-0.2,1.1-0.6v-2.8c-0.4-0.2-0.8-0.4-1.1-0.4c-0.3,0-0.5,0.2-0.7,0.5c-0.2,0.3-0.3,0.8-0.3,1.5c0,0.6,0.1,1.1,0.3,1.4
		C124.1,36.6,124.3,36.8,124.6,36.8z"/>
	<path fill="#A9D42D" d="M133.7,37.1c0,0.1-0.1,0.3-0.2,0.4c-0.1,0.1-0.2,0.3-0.3,0.3c-0.5-0.1-0.9-0.3-1.1-0.7
		c-0.5,0.5-1.1,0.8-1.7,0.8c-0.6,0-1.1-0.2-1.4-0.5c-0.3-0.4-0.5-0.8-0.5-1.2c0-0.7,0.2-1.2,0.7-1.5c0.4-0.3,1-0.5,1.7-0.5
		c0.4,0,0.7,0,1,0v-0.4c0-0.6-0.3-0.9-0.9-0.9c-0.4,0-1,0.1-1.8,0.4c-0.2-0.2-0.4-0.6-0.4-1.1c0.9-0.4,1.7-0.5,2.6-0.5
		c0.6,0,1.1,0.2,1.5,0.5s0.6,0.8,0.6,1.5v2.4C133.3,36.6,133.5,37,133.7,37.1z M130.7,36.8c0.4,0,0.8-0.2,1.2-0.6v-1.1
		c-0.3,0-0.6,0-0.9,0s-0.6,0.1-0.7,0.3S130,35.8,130,36c0,0.3,0.1,0.5,0.2,0.6C130.3,36.8,130.4,36.8,130.7,36.8z"/>
	<path fill="#FFFFFF" d="M134.9,37.2c0-0.2,0-0.4,0.1-0.6c0.2-0.1,0.4-0.1,0.7-0.1c0.3,0,0.5,0,0.7,0.1c0.1,0.1,0.1,0.3,0.1,0.6
		s0,0.4-0.1,0.6c-0.2,0.1-0.4,0.1-0.7,0.1c-0.3,0-0.5,0-0.7-0.1C134.9,37.6,134.9,37.4,134.9,37.2z"/>
</g>
<rect y="0.5" fill="#A9D42D" width="4" height="38"/>
</svg>