<!-- Generator: Adobe Illustrator 17.1.0, SVG Export Plug-In  -->
<svg version="1.1"
	 xmlns="http://www.w3.org/2000/svg" xmlns:xlink="http://www.w3.org/1999/xlink" xmlns:a="http://ns.adobe.com/AdobeSVGViewerExtensions/3.0/"
	 x="0px" y="0px" width="224px" height="245.7px" viewBox="0 0 224 245.7" enable-background="new 0 0 224 245.7"
	 xml:space="preserve">
<defs>
</defs>
<g>
	<path fill-rule="evenodd" clip-rule="evenodd" fill="#DEA97D" d="M162.3,77.6c0,0,0.9,9.2,3.7,23.8c1.9,9.7,1.8,19.2,1.8,19.2
		s1.5,6-17.2,8.9c-12.9,2-23.1-8.5-23.1-8.5s11.8-7.1,10.7-16.8c-0.6-5.6-10.9-25.6,4.4-30.3S162.3,77.6,162.3,77.6z"/>
	<path fill-rule="evenodd" clip-rule="evenodd" fill="#EBEBEB" d="M172.5,114.4c0,0,12.7,6.1,17.7,11.5c5,5.4,8,9.4,8,9.4
		s-2.8,42.1-17.2,57.2c-5,1.9-12.6-0.3-12.6-0.3l-4.6,22.9c0,0-49.6,1.7-47.4,0c2.2-1.7,1.2-36.4,0-36.2c-1.2,0.2-5-9.5-7.1-26.2
		s-0.4-33.9-0.4-33.9s22.7-7.6,22.3-6.7s0.9-8.3,0.9-8.3l9.5,4.3v8.2l2.5,6.3l8.6-5l0.8-9.4c0,0,11.4-2,13.8-2.8
		c2.4-0.8,5.2-2.5,5.2-2.5V114.4z"/>
	<path fill-rule="evenodd" clip-rule="evenodd" fill="#DEDEDE" d="M145.1,122.1c0.2-0.1-7,21.6-8.8,34.7s4.4,59.1,4.4,59.1
		l-24.2-0.8c0,0,2.3-32.2,0-36.2s-8.4-23.3-8.1-39.1c0.3-15.8-1-19.7-1-19.7l1.6-1.3l22.3-6.7l0.9-8.3l9.5,4.3c0,0-0.2,5.8,0.4,9.3
		S145.1,122.1,145.1,122.1z"/>
	<path fill="#ECC39C" d="M36.6,204.5c0,0-1.5,7.1-0.7,9.9s2.4,5.2,2.4,5.2H40l1.5,1.4c1.5-1,0-2.8,0-2.8s-2.1-2.7-1.5-5.5
		c0.2-0.9,2.1-1.4,2.2,0.1c0.2,1.5,0,2.9,0,2.9l1.1,0.4c0,0,0.8-2.9,1.1-5.4c0.3-2.5-2.2-6.4-2.7-7.4c-0.4-1-1.7-4.2-1.7-4.2
		s-2.6,0.8-3.2,1.7S36.6,204.5,36.6,204.5z"/>
	<path fill="#426C65" d="M65.6,50.4c3.8,0.5,7.2,0.7,10.4,1.1c6.5,0.8,11.5,2.5,15.2,9.7c5.4,10.8,2.7,24.3,6,26.2
		c3.4,1.9,6.7-3.4,4.3-4.6c-2.4-1.2-2.9,0.8-2.9,0.8s-0.5-5,3.7-1.7c4.2,3.3,1.1,10.9-3.5,11.8s-7.3,0-7.3,0L75.2,59"/>
	<path fill="#DEDEDE" d="M89.8,118.1c1.6-0.6,10.6-3.4,11.7,0s-3.1,6.3,0,9.4c3.1,3.1,5.7,27.5,6.6,36.5c0.8,9.1-2.2,38.2-2.2,38.2
		l-6-0.6c0,0-3.9-20.3-2.6-25.2c1.2-5,1.8-6.9,1.8-6.9s-14.4-27.7-14.6-32.1S89.8,118.1,89.8,118.1z"/>
	<path fill-rule="evenodd" clip-rule="evenodd" fill="#C6C6C6" d="M93.2,122.8c0,0,12.3,42.6,11.7,46s-2.9,33.5-2.9,33.5l-2.2-0.6
		c0,0-3.7-19.9-2.6-25.2c1-5.3,1.8-6.9,1.8-6.9l-11.4-23.4L93.2,122.8z"/>
	
		<ellipse transform="matrix(0.9999 1.229138e-002 -1.229138e-002 0.9999 0.8685 -1.5898)" fill-rule="evenodd" clip-rule="evenodd" fill="#D3A37D" cx="129.8" cy="69.9" rx="3.7" ry="4.1"/>
	<path fill-rule="evenodd" clip-rule="evenodd" fill="#ECC39C" d="M147.2,101.3l-9.4-0.1c-6.6-0.1-12.2-6-10.3-13.6l2.3-19.8
		c0.1-6.6,2.1-22.5,8.7-22.4l12.8,0.2c6.6,0.1,11.9,10.7,11.9,17.3c0,0,1.3,20.5-1.5,27.1C158.9,96.4,153.7,101.4,147.2,101.3z"/>
	
		<ellipse transform="matrix(0.9999 1.229138e-002 -1.229138e-002 0.9999 0.8767 -2.0348)" fill-rule="evenodd" clip-rule="evenodd" fill="#ECC39C" cx="166" cy="70.3" rx="3.7" ry="4.1"/>
	<path fill-rule="evenodd" clip-rule="evenodd" fill="#AF813A" d="M148.8,61c0,0,1.8-1.5,5-1.1c3.3,0.4,4.2,2.4,4.2,2.4l1.2-0.7
		c0,0-1.1-2.6-4.5-3.5s-4.8,0.5-4.8,0.5s-0.2-1.5-1-0.8C148,58.4,148.8,61,148.8,61z"/>
	<path fill-rule="evenodd" clip-rule="evenodd" fill="#AF813A" d="M141.8,60.5c0,0-1.8-1.5-5-1.2c-3.3,0.3-4.2,2.3-4.2,2.3l-1.2-0.8
		c0,0,1.1-2.6,4.6-3.4c3.5-0.8,4.8,0.6,4.8,0.6s0.2-1.5,1-0.8C142.7,57.9,141.8,60.5,141.8,60.5z"/>
	<path fill="#BD8558" d="M144.6,96.6c-0.8,0-1.6-0.2-2.3-0.6c-0.2-0.1-0.4-0.2-0.5-0.4c-0.1-0.2-0.1-0.5,0-0.8
		c0.3-1,1.5-1.3,2.4-1.2c0.5,0.1,1,0.3,1,0.8c0,0.4-0.3,0.7-0.7,0.8c-0.4,0-0.7-0.1-0.9-0.3l0.3-0.4c0.1,0.1,0.3,0.2,0.6,0.2
		c0.2,0,0.3-0.2,0.3-0.3c0-0.2-0.3-0.3-0.6-0.4c-0.8-0.1-1.6,0.2-1.9,0.8c-0.1,0.1-0.1,0.3,0,0.4c0,0.1,0.2,0.1,0.3,0.2
		c0.6,0.3,1.3,0.5,2,0.5c0,0,0,0,0,0L144.6,96.6C144.6,96.6,144.6,96.6,144.6,96.6z"/>
	<path fill-rule="evenodd" clip-rule="evenodd" fill="#81522B" d="M135.7,78.7c0,0,1.3,2.6,6.5,3c6.8,0.5,12.2-3.7,12.2-3.7
		s-2.8,10-10.4,10.8s-6.1-5-6.5-6.7S135.7,78.7,135.7,78.7z"/>
	
		<ellipse transform="matrix(0.9999 1.229138e-002 -1.229138e-002 0.9999 0.9078 -1.937)" fill-rule="evenodd" clip-rule="evenodd" fill="#D77C6A" cx="158" cy="72.9" rx="1.2" ry="0.8"/>
	
		<ellipse transform="matrix(0.9999 1.229138e-002 -1.229138e-002 0.9999 0.902 -1.6226)" fill-rule="evenodd" clip-rule="evenodd" fill="#D77C6A" cx="132.5" cy="72.6" rx="1.2" ry="0.8"/>
	<path fill-rule="evenodd" clip-rule="evenodd" fill="#E6AC4B" d="M137.1,44.1c0,0-4.3,5-8.3,4.4c-3.9-0.6-0.7-3.2-0.7-3.2
		s-4.7,0.3-4.9,5.7c-0.3,5.4,3.3,7.2,4.6,7.4c1.3,0.3,1.3,2.3,1.3,2.3L130,65c0,0,0.7-9.3,1.6-10.5c0.9-1.2,3.2-5.2,8.4-3.7
		c5.2,1.6,7.6,2.1,11.7,1.6c4.1-0.5,5.5-2.2,5.5-2.2s1.5,3.5,3.7,6.2c2.2,2.8,1.5,2.3,1.5,2.3l-0.1,11.4l0.8,0.4c0,0-0.2-2,0.6-3.6
		c0.8-1.6,2.5-0.8,2.5-0.8s1.8-6.8,0.2-12.8s-3.7-9.3-6.6-7.9c-2.9,1.4-2.4,0-2.4,0s0.9-2.7-7-3.8S137.1,44.1,137.1,44.1z"/>
	<g>
		<path fill="#FFFFFF" d="M135.5,44.3c0,0-3-2.5-3-4.1c0-1.7,4.3-7.8,12.8-8.2c8.5-0.4,15.8,8.3,15.8,9.6c0,1.4-3.3,3.2-3.3,3.2
			s-5-1.1-12.3-1.3C138.2,43.4,135.5,44.3,135.5,44.3z"/>
		<path fill="#3C3C3C" d="M134.5,43.4c0,0,3.4-2.9,11.5-2.4c6.6,0.3,12.3,3.3,12.3,3.3l-0.6,1.5c0,0-6.3-1.9-13.8-1.8
			c-7.5,0.1-8.7,0.9-8.7,0.9L134.5,43.4z"/>
		<path fill="#23201C" d="M135.8,44.3l-2.4,1.6c0,0,0.1,0.5,1,0.6c0.9,0.1,5.9,1.4,12.5,1.3c6.6-0.1,9.1-0.5,9.1-0.5
			c0.7-0.5,1.8-1.4,1.6-1.5c-0.2-0.1-4.8-2.2-11.8-2.5C139,43.1,135.8,44.3,135.8,44.3z"/>
	</g>
	<path fill-rule="evenodd" clip-rule="evenodd" fill="#DEDEDE" d="M157.6,169.4c0,0-1.3,0.6,2.9,0c4.2-0.6,5.3-3.1,5.3-3.1l2.5,4.3
		c0,0-2.3,3-5.8,3.9s-4.6-0.7-4.6-0.7L157.6,169.4z"/>
	<path fill="#87572E" d="M137.1,71.6c-2.4,0-3.1-2-3.1-3l1,0l-0.5,0l0.5,0c0,0.2,0.1,2,2.1,2c2.2,0,3.1-2.2,3.1-2.2l0.9,0.4
		C141,68.9,139.9,71.6,137.1,71.6z"/>
	<path fill="#87572E" d="M151.7,72.5c-2.4,0-3.1-2-3.1-3l1,0l-0.5,0l0.5,0c0,0.2,0.1,2,2.1,2c2.2,0,3.1-2.2,3.1-2.2l0.9,0.4
		C155.7,69.8,154.6,72.5,151.7,72.5z"/>
	<path fill="#DEA97D" d="M145.6,64.9L145.1,76l1.6-0.7l-0.4,3.7l-6.2-0.5c0,0,1.7-13.7,2-14.5c0.3-0.7,0.1-3.1,0.1-3.1
		s1.1-2.9,2.8,0.1C145.9,62.5,145.6,64.9,145.6,64.9z"/>
	<polygon fill-rule="evenodd" clip-rule="evenodd" fill="#BD8558" points="142.1,64.1 139.2,78.9 145.9,79 145.9,77.2 145.2,78.3 
		140.3,78.1 	"/>
	<path fill="none" stroke="#ECC39C" stroke-miterlimit="10" d="M141.3,77.1c0,0,1.1-6.2,1.3-9.2"/>
	<path fill-rule="evenodd" clip-rule="evenodd" fill="#DEDEDE" d="M137.6,83.3c0,0,3.3,0.9,7.4,0.7c4.2-0.3,8.1-2.8,8.1-2.8l1.2-3.1
		c0,0-3,2.1-7.2,2.8c-4.3,0.6-7,0.1-8.7-0.1s-2.8-1.9-2.8-1.9s1.6,2.9,1.8,3.4S137.6,83.3,137.6,83.3z"/>
	<path fill-rule="evenodd" clip-rule="evenodd" fill="#B9483A" d="M145.6,85.1C145.6,85.1,145.6,85.1,145.6,85.1
		c-0.5-0.2-3.4-1-5-0.4c-1.7,0.6-2,2.7,0,3.2c2,0.6,1.8-0.8,3-0.4s2-0.1,3.2-0.4c1-0.3,1.9-0.8,1.7-0.9c0,0,0.4,0.3,0.4,0.2
		L145.6,85.1z"/>
	<path fill-rule="evenodd" clip-rule="evenodd" fill="#DEDEDE" d="M150.2,85.6c-0.1,0.1-4,1.9-6.7,2.1c-2.8,0.2-5-1.1-5-1.1
		s0.4,2.2,4.1,2.3C147.6,88.9,150.2,85.6,150.2,85.6z"/>
	<path fill="#BD8558" d="M142.8,89.3c-2.1,0-3.4-1.1-4.1-1.7c-0.2-0.2-0.3-0.3-0.4-0.4l0.3-0.4c0.1,0.1,0.3,0.2,0.5,0.4
		c1.1,1,3.1,2.8,7.6,0.6c4.1-2,6.6-7.1,7.5-9.3c-2.2,1.6-7,3.1-10.7,2.8c-1.2,0-2.4,0-3.6-0.3c-1.9-0.4-3.6-1.2-5-2.5l0.3-0.4
		c1.3,1.2,3,2,4.8,2.4c1.2,0.2,2.4,0.2,3.5,0.3c4.1,0.3,9.9-1.7,11.1-3.4l1-1.4l-0.5,1.6c-0.1,0.3-2.7,7.9-8.2,10.6
		C145.3,89.1,143.9,89.3,142.8,89.3z"/>
	<path fill="#ECC39C" d="M83.6,103.2c0,0-20.3,2.7-31-17.5l-2.4-9.7c-2.6-10.9,4.1-22,15-24.6l0,0c10.9-2.6,22,4.1,24.6,15l2.4,9.7
		C95.7,86.4,89.1,101.3,83.6,103.2z"/>
	<ellipse fill="#ECC39C" cx="52.6" cy="85.6" rx="5.4" ry="5.5"/>
	<path fill="#ECC39C" d="M60.4,94c0,0,3.2,6.4,2.1,12.8s-4.4,9.8-4.4,9.8s5.7,9.4,12.6,9.5c7,0.1,12.4-7.8,12.4-7.8s-3.6-3-5.6-8.2
		c-2-5.2-1-12.6-1.4-12.7c-0.4-0.1,2.2-7-5.9-7.4C62.2,89.5,60.4,94,60.4,94z"/>
	<path fill="#DEDEDE" d="M47.2,133.7c0,0.8,6.1,15.6,13,25.7c7,10.1,4.5,17.8,4.5,17.8c0.1-0.1-12.3,4.8-17.5,14.3
		c-5.2,9.5,1.6,27.9,1.6,27.9s50.5-0.3,51.4,0c0.8,0.3,5-15.9-1.4-28.2s-11.2-15.1-11.2-15.1l2.2-20.7c0,0,6.2-6.9,7-14.3
		c0.6-5.7-2.8-11.5-2.8-11.5l-1.8-12.4l-8.6-1.5c0,0,0,0-0.6-3.4s0-4.6,0-4.6h-4.5c0,0-0.9,4-1.1,7.1c-0.3,3.1-2.5,8.7-2.5,8.7
		s-6.4-4.8-8.1-6.7s-1.4-9-1.4-9l-7.5-1.2c0,0,0.7,4.7,0,6.6c-0.7,2-9.3,8.1-9.3,8.1L47.2,133.7z"/>
	<path fill="#EBEBEB" d="M52.6,120.3c-1.6-0.6-10.6-3.4-11.7,0s3.1,6.3,0,9.4s-5.7,27.5-6.6,36.5s2.2,38.2,2.2,38.2l6-0.6
		c0,0,3.9-20.3,2.6-25.2c-1.2-5-1.8-6.9-1.8-6.9s14.4-27.7,14.6-32.1S52.6,120.3,52.6,120.3z"/>
	<g>
		<g>
			<path fill="#AE6441" d="M122.7,215c-19.1,0-34.6-15.5-34.6-34.6s15.5-34.6,34.6-34.6s34.6,15.5,34.6,34.6S141.8,215,122.7,215z
				 M122.7,151.9c-15.7,0-28.5,12.8-28.5,28.5s12.8,28.5,28.5,28.5s28.5-12.8,28.5-28.5S138.4,151.9,122.7,151.9z"/>
			<path fill="#AE6441" d="M161.5,149c-1.6,0.2-2.7,1.3-3.9,2.2c-1.7,1.3-3.4,2.7-5.1,4c-5.6,4.5-11.2,9.1-16.8,13.6
				c-12.7,10.3-25.3,20.7-37.9,31c-2.9,2.4-5.8,4.8-8.7,7.1c-1.2,1-1,3,0,4c1.2,1.2,2.8,1,4,0c7.8-6.4,15.6-12.8,23.4-19.2
				c12.5-10.3,25-20.5,37.7-30.7c2.2-1.7,4.3-3.5,6.5-5.2c0.4-0.3,0.7-0.6,1.1-0.8c-0.9,0.7,0.1,0,0.3-0.2c0.2-0.1,0.4-0.3,0.6-0.4
				c0,0,0.1-0.1,0.2-0.1c0,0,0,0,0.1,0c-0.1,0.2-1.1,0.3-1.3,0.4c1.5-0.2,2.8-1.2,2.8-2.8C164.3,150.4,163,148.8,161.5,149
				L161.5,149z"/>
			<path fill="#AE6441" d="M154.1,216.6c-0.2-1.6-1.3-2.7-2.2-3.9c-1.3-1.7-2.7-3.4-4-5.1c-4.5-5.6-9.1-11.2-13.6-16.8
				c-10.3-12.7-20.7-25.3-31-37.9c-2.4-2.9-4.8-5.8-7.1-8.7c-1-1.2-3-1-4,0c-1.2,1.2-1,2.8,0,4c6.4,7.8,12.8,15.6,19.2,23.4
				c10.3,12.5,20.5,25,30.7,37.7c1.7,2.2,3.5,4.3,5.2,6.5c0.3,0.4,0.6,0.7,0.8,1.1c-0.7-0.9,0,0.1,0.2,0.3c0.1,0.2,0.3,0.4,0.4,0.6
				c0,0,0.1,0.1,0.1,0.2c0,0,0,0,0,0.1c-0.2-0.1-0.3-1.1-0.4-1.3c0.2,1.5,1.2,2.8,2.8,2.8C152.6,219.4,154.2,218.1,154.1,216.6
				L154.1,216.6z"/>
			<path fill="#AE6441" d="M120,228.5c1-1.3,1-2.8,1.2-4.3c0.3-2.1,0.5-4.3,0.7-6.4c0.8-7.2,1.5-14.3,2.3-21.5
				c1.7-16.2,3.3-32.5,4.9-48.8c0.4-3.7,0.7-7.5,1.1-11.2c0.1-1.5-1.4-2.8-2.8-2.8c-1.6,0-2.6,1.3-2.8,2.8c-1,10-2,20.1-3,30.1
				c-1.6,16.1-3.2,32.2-4.9,48.3c-0.3,2.8-0.6,5.5-0.9,8.3c-0.1,0.5-0.1,0.9-0.2,1.4c0,0.2,0,0.4-0.1,0.6c0.3-0.8,0.1-0.6,0-0.2
				c0,0.2-0.1,0.5-0.1,0.7c0,0.1-0.1,0.2,0,0.2c0,0,0,0,0,0.1c-0.1-0.2,0.5-1,0.7-1.2c-0.9,1.2-1.2,2.8,0,4
				C117,229.4,119,229.7,120,228.5L120,228.5z"/>
			<path fill="#AE6441" d="M75.6,180.6c1.3,1,2.8,1,4.3,1.2c2.1,0.3,4.3,0.5,6.4,0.7c7.2,0.8,14.3,1.5,21.5,2.3
				c16.2,1.7,32.5,3.3,48.8,4.9c3.7,0.4,7.5,0.7,11.2,1.1c1.5,0.1,2.8-1.4,2.8-2.8c0-1.6-1.3-2.6-2.8-2.8c-10-1-20.1-2-30.1-3
				c-16.1-1.6-32.2-3.2-48.3-4.9c-2.8-0.3-5.5-0.6-8.3-0.9c-0.5-0.1-0.9-0.1-1.4-0.2c-0.2,0-0.4,0-0.6-0.1c0.8,0.3,0.6,0.1,0.2,0
				c-0.2,0-0.5-0.1-0.7-0.1c-0.1,0-0.2-0.1-0.2,0c0,0,0,0-0.1,0c0.2-0.1,1,0.5,1.2,0.7c-1.2-0.9-2.8-1.2-4,0
				C74.6,177.7,74.4,179.7,75.6,180.6L75.6,180.6z"/>
		</g>
	</g>
	<path fill-rule="evenodd" clip-rule="evenodd" fill="#DEDEDE" d="M166.8,168.9c0,0,7.3,3,12.6,6c5.3,2.9,6.3,7.7,5.9,9.5
		c-0.4,1.8-2.5,9.1-4.3,9.6c-1.8,0.6-10.6,3.9-14.7,0s-8.8-22.2-8.8-22.2L166.8,168.9z"/>
	<path fill="#DEA97D" d="M82.4,73.3c-1.3,0.1-2.2,1.6-3,4.1c-0.8,2.3-0.3,9.9,0,10.3c1.3,1.4,2.6,1.6,4.3,0.9
		c2.2-0.9,4.2-3.3,3.5-4.2c-0.7-0.9-2.4,0-4.6-2.1C80.7,80.2,82.4,73.3,82.4,73.3z"/>
	<path fill="none" stroke="#BD8558" stroke-miterlimit="10" d="M80.8,88.8c0,0,3.3,1,5.7-2.3c1.9-2.6-0.3-2.3-1.5-2.7
		c-1.3-0.4-2.6-0.6-3.4-4.7c-0.3-1.9,0.2-5.1,0.2-5.1"/>
	<path fill="#426C65" d="M84.1,71c0.5-0.6,1.1-1,1.8-1.2c0.7-0.2,1.8,0.5,1.7,1.3c-0.1,0.8,1.2,0.8,1.3,0c0.1-1.3-1.2-2.3-2.3-2.5
		c-1.2-0.3-2.6,0.6-3.4,1.5C82.7,70.7,83.6,71.6,84.1,71L84.1,71z"/>
	<path fill="#426C65" d="M69.6,72c0.2-0.3,1.1-0.8,1.7-0.9c1-0.2,3.4-0.2,3.8,1c0.2,0.8,1.5,0.4,1.2-0.3c-0.9-2.8-6.3-2.6-7.8-0.4
		C68,72,69.1,72.6,69.6,72L69.6,72z"/>
	<ellipse fill="#426C65" cx="85.9" cy="77.6" rx="2.3" ry="3.5"/>
	<ellipse fill="#FFFFFF" cx="85.6" cy="78" rx="2.1" ry="3"/>
	<ellipse fill="#426C65" cx="73.2" cy="78.2" rx="3.5" ry="3.5"/>
	<path fill="#426C65" d="M71.6,76c0,0-0.2,0-0.4,0c-0.2,0-0.5-0.2-0.7-0.3c-0.2-0.2-0.4-0.4-0.6-0.6c-0.1-0.2-0.2-0.4-0.2-0.4
		s0.2,0,0.4,0c0.2,0,0.5,0.2,0.7,0.3c0.2,0.2,0.4,0.4,0.6,0.6C71.6,75.8,71.6,76,71.6,76z"/>
	<path fill="#426C65" d="M70.6,76.7c0,0-0.2,0.1-0.4,0.1c-0.2,0-0.5,0-0.8-0.1c-0.1-0.1-0.3-0.1-0.4-0.2c-0.1-0.1-0.2-0.2-0.3-0.3
		c-0.1-0.2-0.2-0.4-0.2-0.4s0.2,0,0.4,0c0.1,0,0.2,0,0.3,0.1c0.1,0,0.3,0.1,0.4,0.1c0.2,0.1,0.5,0.2,0.7,0.4
		C70.4,76.5,70.5,76.6,70.6,76.7C70.6,76.7,70.6,76.7,70.6,76.7z"/>
	<path fill="#426C65" d="M70.1,78c0,0-0.1,0.1-0.3,0.2c-0.2,0.1-0.5,0.2-0.8,0.2c-0.1,0-0.3,0-0.4-0.1c-0.1-0.1-0.3-0.1-0.4-0.2
		c-0.2-0.1-0.3-0.3-0.3-0.3s0.2-0.1,0.4-0.1c0.1,0,0.2,0,0.3,0c0.1,0,0.3,0,0.4,0c0.3,0,0.5,0.1,0.7,0.1c0.1,0,0.2,0.1,0.3,0.1
		C70.1,78,70.1,78,70.1,78z"/>
	<path fill="#426C65" d="M85.9,74.8c0,0,0.1-0.2,0.2-0.4c0.1-0.2,0.3-0.4,0.6-0.6c0.2-0.2,0.5-0.3,0.7-0.3c0.2,0,0.4,0,0.4,0
		s-0.1,0.2-0.2,0.4c-0.1,0.2-0.3,0.4-0.6,0.6c-0.2,0.2-0.5,0.3-0.7,0.3C86.1,74.8,85.9,74.8,85.9,74.8z"/>
	<path fill="#426C65" d="M86.9,75.6C86.9,75.6,87,75.5,86.9,75.6c0.1-0.1,0.2-0.2,0.3-0.3c0.2-0.1,0.4-0.3,0.7-0.4
		c0.1,0,0.3-0.1,0.4-0.1c0.1,0,0.2,0,0.3-0.1c0.2,0,0.4,0,0.4,0S89,75,88.8,75.2c-0.1,0.1-0.2,0.2-0.3,0.3c-0.1,0.1-0.3,0.1-0.4,0.2
		c-0.3,0.1-0.6,0.1-0.8,0.1C87.1,75.7,86.9,75.6,86.9,75.6z"/>
	<path fill="#426C65" d="M87.9,77c0,0,0.1-0.1,0.3-0.2c0.2-0.1,0.3-0.2,0.5-0.2c0.2,0,0.4,0,0.6,0c0.2,0.1,0.3,0.2,0.3,0.2
		s-0.1,0.1-0.2,0.3c-0.1,0.1-0.4,0.2-0.6,0.3c-0.1,0-0.2,0-0.3,0c-0.1,0-0.2-0.1-0.3-0.1C88.1,77.1,87.9,77,87.9,77z"/>
	<path fill="#BD5E53" d="M88.7,90.7c0,0-1.3,2.6-6.7,2.6c-5,0-7.8-2.2-7.8-2.2s2.7,2.1,7.4,0.4C84.7,90.4,84.9,91.7,88.7,90.7z"/>
	<path fill="#D77C6A" d="M87,92.4c0,0,1.3,0.9,0,1.6c-1.3,0.7-3.5,1.4-6.5,0.7c-3-0.7-6.3-3.6-6.3-3.6s1.6,1.9,7.4,1.9
		C85.3,93.1,87,92.4,87,92.4z"/>
	<path fill="#3C3C3C" d="M86,78.6c0-1.6-0.6-2.9-1.3-3.2c-0.6,0.4-1.2,1.2-1.2,2.5c0,1.6,1,2.8,1.8,3.1C85.7,80.4,86,79.8,86,78.6z"
		/>
	<g>
		<path fill="#FFFFFF" d="M73,75.2c-0.6,0-1.1,0.1-1.6,0.4c1.5,0.3,2.7,1.6,2.7,3.2c0,1.2-0.7,2.3-1.7,2.8c0.2,0,0.4,0.1,0.6,0.1
			c1.8,0,3.3-1.4,3.3-3.2C76.3,76.6,74.9,75.2,73,75.2z"/>
		<path fill="#3C3C3C" d="M74.2,78.7c0-1.6-1.2-2.9-2.7-3.2c-1,0.5-1.7,1.6-1.7,2.8c0,1.6,1.2,2.9,2.7,3.2
			C73.5,81,74.2,80,74.2,78.7z"/>
	</g>
	
		<ellipse transform="matrix(0.9999 1.229138e-002 -1.229138e-002 0.9999 1.0295 -0.836)" fill-rule="evenodd" clip-rule="evenodd" fill="#D77C6A" cx="68.5" cy="83.3" rx="1.2" ry="0.8"/>
	
		<ellipse transform="matrix(0.9999 1.229138e-002 -1.229138e-002 0.9999 1.0096 -1.1132)" fill-rule="evenodd" clip-rule="evenodd" fill="#D77C6A" cx="91.1" cy="81.6" rx="1.2" ry="0.8"/>
	<path fill="#DEA97D" d="M67,98.8c0,0,2.2,1.2,7.7,2.7c5.4,1.5,8.9,1.6,8.9,1.6s-6.6,0.4-7.8,0C71.5,102.2,67,98.8,67,98.8z"/>
	<path fill="#EBEBEB" d="M75,123.7c0,0,8.9,10.1,8.5,18.1c-0.4,8-4.8,14.7-4.8,14.7s-2,21.9-2,26.9c0,5,1.8,36.2,1.8,36.2l-29.7,0
		c0,0-6.2-16.7-2.1-26.9s18-15.4,18-15.4s2.5-6.7-2.8-15.1S54,153,53,144.5s0.1-13.8,0.1-13.8c-0.6-1.1-2.1-10.9-2.1-10.9
		s5.9-3.4,7-6.5c1.2-3.1,0-6.6,0-6.6l7.5,1.2c0,0,0,6.4,1.4,9S75,123.7,75,123.7z"/>
	<path fill="#C6C6C6" d="M52,139.6c-1,6.7-11.4,29.3-11.4,29.3l-1.1,7c0,0,3.2-4.4,3.2-3.2c0,1.3-0.4,3.2-0.4,3.2s3.1,2.8,2.9,2.1
		c-0.2-0.7-1-6.3-1-6.3s9.7-20.9,10.2-22.1c0.5-1.2,1.4-10.3,0.6-14.2s-4.8-10.2-4.8-10.2S52.9,132.9,52,139.6z"/>
	<path fill="#C6C6C6" d="M54.3,127.2c0,0,0.2,9.1,0,10s1,2.7,1,2.7L54.3,127.2z"/>
	<path fill="#EBCDB3" d="M67.6,67.8c0,0-3,9-3.3,17.7C64,97.8,78,102.3,78,102.3s-13.6-1.7-19.4-11.2c-9.7-16.1,6.1-27.1,6.1-27.1
		L67.6,67.8z"/>
	<path fill="#ECC39C" d="M67.3,63.5c0,0-6,11-6.2,19.7c-0.4,12.3,13.6,16.7,13.6,16.7s-13.6-1.7-19.4-11.2
		c-9.7-16.1,6.1-27.1,6.1-27.1L67.3,63.5z"/>
	<path fill="#426C65" d="M71.5,57.6c0,0-8.5,2.1-11.2,17c-1.8,9.7,0.6,18.5,4,21.2c4,3.5,6.4-3.2,2.7-4.7c1.3-0.3,6.4,2.1,0.1,7.1
		c-6.7,5.3-19.7-3.3-23.5-5.8s-5.2-6.1-5.2-6.1S37.3,68,41.9,61.6s11.9-14.7,23.5-13.1"/>
	<g>
		<path fill="#2F5049" d="M56.7,54.4c-1,0-8,10.2-8.9,20.8c-1,10.7,6.1,22.1,8.4,23.7s-4-1.6-4-1.6s-6.3-10.2-5.2-20.9
			C48.5,60.2,56.7,54.4,56.7,54.4z"/>
	</g>
	<path fill="#2F5049" d="M54.6,51.4c-1-0.3-8.6,6.8-11.9,17.2C39.5,78.8,44.2,92,46.2,94s-3.4-2.2-3.4-2.2S39.2,79.5,41.9,69
		C45.2,55.7,54.6,51.4,54.6,51.4z"/>
	<path fill="#426C65" d="M84.4,54.8c0,0,4.7,2.8,4.8,5.2c0.1,2.4-0.8,7-0.8,7s-5,1.7-12.3,1.6c-7.3-0.1-11.9-0.9-11.9-0.9
		s-1.6-3.1-1.8-6c-0.2-2.9-6.7-9.6-2-10.9c4.7-1.3,14.4-0.1,19.7,1.6S84.4,54.8,84.4,54.8z"/>
	<path fill="#2F5049" d="M86,67.6c0,0,3.3-6.2,1.4-8.7S81,54.4,81,54.4s5,3.3,5.7,5.5c0.7,2.2-2,7.9-2,7.9L86,67.6z"/>
	<path fill="#2F5049" stroke="#2F5049" stroke-miterlimit="10" d="M80.1,68.4c0,0,2-4.4,1.3-7.7c-0.7-3.3-4.2-6-4.2-6
		s3.2,4.2,3.2,6.3c0,4.7-3.6,7.4-3.6,7.4L80.1,68.4z"/>
	<g>
		<path fill="#FFFFFF" d="M78.9,50.1c0,0,3-2.5,3-4.1s-4.3-7.8-12.8-8.2s-15.8,8.3-15.8,9.6c0,1.4,3.3,3.2,3.3,3.2s5-1.1,12.3-1.3
			C76.2,49.2,78.9,50.1,78.9,50.1z"/>
		<path fill="#3C3C3C" d="M79.9,49.2c0,0-3.4-2.9-11.5-2.4c-6.6,0.3-12.3,3.3-12.3,3.3l0.6,1.5c0,0,6.3-1.9,13.8-1.8
			s8.7,0.9,8.7,0.9L79.9,49.2z"/>
		<path fill="#23201C" d="M78.6,50.1l2.4,1.6c0,0-0.1,0.5-1,0.6c-0.9,0.1-5.9,1.4-12.5,1.3s-9.1-0.5-9.1-0.5
			c-0.7-0.5-1.8-1.4-1.6-1.5c0.2-0.1,4.8-2.2,11.8-2.5S78.6,50.1,78.6,50.1z"/>
	</g>
	<g>
		<path fill="#2F5049" d="M71.6,68.4c0,0,2-5,1.3-8.2c-0.7-3.3-2.8-4.7-2.8-4.7s1.8,2.9,1.8,5.1c0,4.7-3.6,7.4-3.6,7.4L71.6,68.4z"
			/>
	</g>
	<g>
		<g>
			<path fill="#ECC39C" d="M85.8,84.1c-2.3,0.7-3.8-1.9-4.2-3.8c-0.2-0.8-1.4-0.4-1.2,0.3c0.7,2.5,2.7,5.5,5.8,4.6
				C86.9,85,86.6,83.8,85.8,84.1L85.8,84.1z"/>
		</g>
	</g>
	<path fill="#FFFFFF" d="M74.7,79c0.1-0.2-1.2,0-1.2,0l0.5,1C74,79.9,74.6,79.4,74.7,79z"/>
	<path fill-rule="evenodd" clip-rule="evenodd" fill="#C78F63" d="M91.3,146.7l-1.6,2.2c0,0,1,1.4,1.6,2.7c0.6,1.3,0.6,1.3,0.6,1.3
		s1.7-0.2,2.2-0.9C94.5,151.3,91.3,146.7,91.3,146.7z"/>
	<path fill-rule="evenodd" clip-rule="evenodd" fill="#ECC39C" d="M96.5,144.8c-0.5-0.6-5.3,5.5-5.3,5.5l1.1,1.8l0.8-0.5l0.3,0.8
		l1.8,0l1.4,1.3h0.8c0,0,1,0.2,1.7-0.7c1-1.1,2.1-2.5,2.1-2.5s0.1-2,0-3C101.2,146.6,96.5,144.8,96.5,144.8z"/>
	<path fill="#DEA97D" d="M99.2,153.3c0,0-0.9-1.2-1.1-1.2c-0.7,0-0.8,0.3-1.3-0.1c-0.3-0.2-0.4-1-0.9-1s-0.9,0.1-1.2-0.5
		c-0.3-0.4-0.2-1-0.6-1s-0.7,0.2-1,0c-0.9-0.6,0-1.4-0.1-1.3c-0.1,0.1-1.7,1.5-1.8,2.3c-0.1,0.3,1.3,1.6,1.3,1.6l0.8-0.5l0.3,0.8
		l1.3,0.2c0,0,0.4,1.1,1.3,1.2c0.9,0,1.1-0.2,1.1,0.1c0,0.3,0.9,0.2,0.9,0.2L99.2,153.3z"/>
	<path fill-rule="evenodd" clip-rule="evenodd" fill="#ECC39C" d="M157.5,151.2c-0.6-0.1-3.3-1.6-3.3-1.6l-1.8,2.3l0.8,1.8l-2,1.4
		c0.3,1.1-3,2-3,2s4.4,5.6,6,6.6c1.5,1,4.3,1.9,4.2,3.4c-0.1,1,0.6,5.9,0.6,5.9l8.8-1.5c0,0-4.4-7-3-8.9c1.4-1.8,2.4-4.9,2.2-6.3
		c-0.1-1.4-2.7-2.8-2.7-2.8l-1,1.5L157.5,151.2z"/>
	<path fill="#2F5049" d="M63.7,57.2c-1.2-0.7-2.5,0.9-2.5,2.4s1.8,2.1,1.8,2.1s-0.9,0.4-2.1-0.9c-1.3-1.3,1-6.4,4.1-4.1
		c3.2,2.3-1.6,8.5-1.6,8.5S67.3,59.2,63.7,57.2z"/>
	<path fill="#2F5049" d="M66.7,96.8c0,0-4.9,0.1-8.6-6.1c-3.7-6.2-2.8-22.4,0-28.4c0,0-5.9,13-3.5,24.2S66.1,97,66.7,96.8z"/>
	<g opacity="0.29">
		<defs>
			<path id="SVGID_1_" opacity="0.29" d="M198.1,135.3c0,0-2.6-4-7.6-9.4c-5-5.4-17.3-11.5-17.3-11.5v-11.5c0,0-3.2,1.7-5.5,2.5
				c-0.2,0.1-0.6,0.1-0.8,0.2c-0.2-1.3-0.5-2.7-0.8-4.1c-1.5-7.7-2.5-13.8-3-18c0.3-3.2,0.4-6.8,0.4-10.2c0.6,0.7,1.5,1.1,2.5,1.1
				c2,0,3.7-1.8,3.7-4c0-2.2-1.5-4-3.5-4.1c0.2-0.8,1.7-7.1,0.1-12.7c-1.7-6-3.7-9.3-6.6-7.9c-1.4,0.7-2,0.7-2.3,0.5
				c0.2-0.2,0.3-0.4,0.3-0.4c0,0-0.2-0.1-0.4-0.2c0,0,0,0,0,0s0,0,0,0c0.2,0.1,0.4,0.1,0.4,0.1l0.5-1.2c0.9-0.6,2.9-1.9,2.9-2.9
				c0-1.4-7.2-10-15.7-9.6c-8.5,0.4-12.7,6.5-12.8,8.2c0,1,1.1,2.3,2,3.2l0,0l0.7,1.4l-1.7,1.1c0,0,0.1,0.5,1,0.6c0,0,0,0,0,0
				c-1.6,1.2-3.6,2.2-5.6,1.9c-3.9-0.6-0.7-3.2-0.7-3.2s-4.7,0.3-4.9,5.7s3.3,7.1,4.6,7.4c1.3,0.3,1.3,2.3,1.3,2.3l0.8,4
				c0,0.3,0,0.7-0.1,1c0,0,0,0,0,0c-2,0-3.7,1.8-3.7,4c0,2,1.3,3.7,3,4l-1.6,13.7c-1.9,7.5,3.5,13.3,10,13.6
				c0.4,1.3,0.6,2.3,0.7,3.1c0.1,0.8,0.1,1.5,0,2.2l-5.8-2.7l0,0.1l-0.2-0.1c0,0-1,7.2-1,8.3c0,0,0.1,0,0.1,0.1
				c0,0.1-0.1,0.1-0.1-0.1c-1.2-0.3-22.2,6.7-22.2,6.7s0,0.1,0,0.2l-1.4,1.1c0,0,0.6,1.9,0.9,8.2c-0.1,4.3-0.2,9.6,0.2,15.3
				c0.1,1.6,0.2,3.2,0.3,4.8c0,0,0,0.1,0,0.1c-0.8,0.3-1.6,0.7-2.3,1.1c-1.3-9.7-3-20.2-5-22.1c-3.1-3.1,1.1-6.1,0-9.4
				c-0.8-2.5-6-1.6-9.2-0.8l-8.6-1.5c0,0,0-0.5-0.6-3.8s0-5,0-5h-4.5c0,0-0.3,1.9-0.6,3.8c-0.2-0.4-0.3-0.5-0.5-1
				c-0.8-2.1-1.1-4.4-1.2-6.6c1,0.1,2.8,0.1,4.4,0.1c1.8,0,2.8-0.1,2.8-0.1c2.7-0.9,5.7-4.9,7.6-10.1l0.3,0.6c0,0,2.7,0.8,7.3,0
				c4.6-0.8,7.7-8.5,3.5-11.7c-4.2-3.3-3.7,1.7-3.7,1.7s0.6-2,2.9-0.8c2.4,1.2-1,6.5-4.3,4.6c-3.3-1.9-0.6-15.4-6-26.1
				c-2.8-5.5-6.4-7.8-10.8-8.9c0.6-0.2,0.7-0.5,0.7-0.5l-1.7-1.1l0.7-1.4l0,0c0.9-0.9,2-2.2,2-3.2c0-1.7-4.3-7.8-12.8-8.2
				c-8.5-0.4-15.7,8.2-15.7,9.6c0,0.8,1,1.7,1.9,2.3c-6,2.4-10.2,7.6-13.3,11.9c-4.6,6.4-3.5,24.7-3.5,24.7s1.2,3,4.3,5.4
				c0,0,0,0,0,0s5,3.9,3.6,2.4c1.7,1,3.8,2.2,6.1,3.3c1.3,0.6,5.7,2.8,3.7,1.4c0,0,0,0,0,0c2.1,0.7,4.2,1.1,6.1,1
				c0.4,2.1,0.6,4.5,0.2,6.9c0,0.2-0.1,0.4-0.1,0.7l-4.2-0.7c0,0,0,0,0,0l-0.1,0c0,0,0,0.1,0.1,0.4c0.1,1,0.4,3.7,0.1,5.5
				c-0.1,0.3-0.1,0.5-0.2,0.8c-0.1,0.2-0.2,0.4-0.3,0.5c-1,1.5-4.2,4-6.5,5.8c-0.1,0.1-0.2,0.1-0.2,0.1c-3.1-0.9-9.1-2.2-10.1,0.5
				c-1.1,3.3,3.1,6.3,0,9.4c-3.1,3.1-5.7,27.4-6.5,36.5c-0.8,9.1,2.2,38.1,2.2,38.1s-1.5,6.4-0.7,9.2c0.8,2.8,2.4,4.5,2.4,4.5h1.7
				l1.5,2.1c1.5-1,0-2.5,0-2.5s-2.1-2.5-1.5-5.3c0.2-0.9,2.1-1.3,2.2,0.2c0.2,1.5,0,2.9,0,2.9l1.1,0.4c0,0,0.8-2.9,1.1-5.4
				c0.2-2.1-1.4-5.1-2.3-6.6l0.5,0c0,0,3.9-20.2,2.6-25.2c-0.1-0.2-0.1-0.4-0.2-0.6v0c-0.2-0.7-1-6.3-1-6.3s6.5-14,9.1-19.7
				c0.3-0.7,0.6-1.3,0.9-1.9c0,0,0,0,0-0.1c1.4,3.9,3.8,6,7.6,12.1c0.2,0.3,0.3,0.6,0.5,0.8c3.1,5.9,3,10.7,2.6,12.9
				c-0.2,0.9-0.3,1.4-0.3,1.4s-13.9,5.3-18,15.4c-0.4,1.1-0.8,2.3-1,3.5c0,0.2-0.1,0.4-0.1,0.6c0,0,0,0,0,0
				c-0.2,1.4-0.3,2.8-0.3,4.2c0,9,3.5,18.5,3.5,18.5l29.7,0c0,0,0,0,0-0.1c11.2,0,21.3,0,21.7,0.1c0.5,0.2,1.9-4.7,2.1-11.1
				c4.2,3,9,5.2,14.3,6.1c0,0.2,0,0.3,0,0.4c-0.1,0.1-0.1,0.2-0.2,0.3c-0.1,0.1-0.1,0.2,0.2,0.3c-0.3,2.5-0.5,5-0.8,7.5
				c-0.1,0.5-0.1,0.9-0.2,1.4c0,0.1,0,0.1,0,0.2c0,0,0,0.1,0,0.1c0,0.2-0.1,0.5-0.1,0.7c0,0,0,0,0,0.1c0.1-0.3,0.5-0.8,0.6-0.9
				c-0.9,1.2-1.2,2.8,0,3.9c1,1,3,1.2,3.9,0c1-1.3,1-2.8,1.2-4.3c0.3-2.1,0.5-4.3,0.7-6.4c0.1-0.6,0.1-1.2,0.2-1.8
				c4,0.1,9.7,0.1,15.6,0l3,0.1c0,0,0-0.1,0-0.1c2.2,0,4.3-0.1,6.4-0.1c0,0,0,0,0,0.1c0.3,0.4,0.6,0.7,0.8,1.1
				c-0.7-0.9,0,0.1,0.2,0.3c0.1,0.2,0.3,0.4,0.4,0.6c0,0,0,0,0,0c-0.1-0.3-0.2-0.9-0.2-1.1c0.2,1.5,1.2,2.8,2.8,2.8
				c1.4,0,3-1.3,2.8-2.8c0-0.4-0.1-0.7-0.3-1.1c5.8-0.2,10-0.3,10-0.3l4-20.1c4.4,2.1,11.5-0.6,13.1-1.1c1-0.3,2.1-2.7,3-5.1
				C195.8,171.4,198.1,135.3,198.1,135.3z M114.2,174.8c1,2.7,1.9,4.1,2.3,4.1c0.1,0,0.3,0.4,0.4,1.2c-3-0.3-6-0.6-8.9-0.9
				c0.3-4.2,0.4-8.2,0.4-11.4c1,1.2,2,2.5,3,3.7C112.4,172.6,113.3,173.7,114.2,174.8z M97.4,176.3c-0.1,0.4-0.2,1-0.2,1.6
				c-0.9-0.1-1.8-0.2-2.7-0.3c0.4-3.9,1.5-7.6,3.3-10.9c0.8,1.7,1.4,2.7,1.4,2.7C99.2,169.4,98.4,171.1,97.4,176.3z M90.1,155.5
				c0,0,0.5-0.6,1.3-1.6c1.1,2.3,2.2,4.5,3.2,6.5c-3.3,4.7-5.5,10.2-6.1,16.2c-0.4-0.3-0.6-0.4-0.6-0.4L90.1,155.5z M94.5,183.3
				c1,0.1,1.9,0.2,2.9,0.3c0.2,1.9,0.4,3.9,0.7,5.9c-1.2-2.3-2.4-4.2-3.5-5.7C94.6,183.6,94.6,183.4,94.5,183.3z M107.6,184.7
				c0.1,0,0.3,0,0.4,0c2.5,0.3,4.9,0.5,7.4,0.8c-2.8,2.3-5.6,4.6-8.4,6.9C107.2,190,107.4,187.3,107.6,184.7z M165.9,66.4
				c-0.8,0-1.6,0.4-2.2,0.9c0,0,0,0,0,0C164.4,66.1,165.4,66.2,165.9,66.4z M109.8,155c0.4,2.5,0.7,4.9,1.1,7
				c-1.1-1.3-2.2-2.6-3.2-4c-0.1-0.6-0.1-1.1-0.2-1.7C108.2,155.8,109,155.4,109.8,155z M104.5,202l1.6,0.2c0,0,0.1-0.7,0.2-2
				c3.5-2.8,6.9-5.7,10.4-8.5c0.4-0.3,0.7-0.6,1.1-0.9c0,0.6,0,1.3,0.1,2c-0.1,5.3-0.3,11.1-0.6,15.4
				C112.4,207.2,108.1,205,104.5,202z"/>
		</defs>
		<clipPath id="SVGID_2_">
			<use xlink:href="#SVGID_1_"  overflow="visible"/>
		</clipPath>
		<g clip-path="url(#SVGID_2_)">
			
				<image overflow="visible" width="1323" height="1451" xlink:href="../../../../Downloads/iStock_000015257022_Medium.jpg"  transform="matrix(0.1693 0 0 0.1693 0 0)">
			</image>
		</g>
	</g>
	<g>
		<g opacity="0.75">
			<g>
				<defs>
					
						<rect id="SVGID_3_" x="160.5" y="137.7" transform="matrix(-0.9871 -0.1603 0.1603 -0.9871 302.9929 306.5774)" width="6.6" height="6.6"/>
				</defs>
				<clipPath id="SVGID_4_">
					<use xlink:href="#SVGID_3_"  overflow="visible"/>
				</clipPath>
				<path clip-path="url(#SVGID_4_)" fill="#ACACAC" d="M167.1,141.4C167.1,141.4,167.1,141.4,167.1,141.4c0-0.2,0-0.3-0.1-0.4
					c-0.1-0.2-0.1-0.4-0.1-0.6c0-0.1,0-0.2,0-0.3c0,0,0,0,0-0.1c0-0.1,0-0.1,0-0.2c0-0.1-0.1-0.1-0.1-0.2c0,0,0,0,0,0
					c-0.1-0.1-0.1-0.2-0.2-0.2c-0.2-0.2-0.3-0.3-0.3-0.5c0-0.1-0.1-0.2-0.1-0.3c0,0,0,0,0,0c0,0-0.1-0.1-0.1-0.1
					c-0.1-0.1-0.1-0.1-0.2-0.1c0,0,0,0,0,0c-0.1,0-0.2-0.1-0.3-0.1c-0.2,0-0.4-0.1-0.5-0.2c-0.1-0.1-0.2-0.1-0.3-0.2c0,0,0,0,0,0
					c0,0-0.1,0-0.2-0.1c-0.1,0-0.1,0-0.2,0c0,0,0,0-0.1,0c-0.1,0-0.2,0-0.3,0.1c-0.2,0.1-0.4,0.1-0.6,0.1c-0.1,0-0.2,0-0.3,0
					c0,0,0,0-0.1,0c-0.1,0-0.1,0-0.2,0c-0.1,0-0.1,0.1-0.2,0.1c0,0,0,0,0,0c-0.1,0.1-0.2,0.1-0.2,0.2c-0.2,0.2-0.3,0.3-0.5,0.3
					c-0.1,0-0.2,0.1-0.3,0.1c0,0,0,0,0,0c0,0-0.1,0.1-0.2,0.1c-0.1,0.1-0.1,0.1-0.1,0.2c0,0,0,0,0,0c0,0.1-0.1,0.2-0.1,0.3
					c0,0.2-0.1,0.4-0.2,0.5c-0.1,0.1-0.1,0.2-0.2,0.3c0,0,0,0,0,0c0,0,0,0.1-0.1,0.2c0,0.1,0,0.1,0,0.2c0,0,0,0,0,0.1
					c0,0.1,0,0.2,0.1,0.3c0.1,0.2,0.1,0.4,0.1,0.6c0,0.1,0,0.2,0,0.3c0,0,0,0,0,0.1c0,0.1,0,0.1,0,0.2c0,0.1,0.1,0.1,0.1,0.2
					c0,0,0,0,0,0c0.1,0.1,0.1,0.2,0.2,0.2c0.2,0.2,0.3,0.3,0.3,0.5c0,0.1,0.1,0.2,0.1,0.3c0,0,0,0,0,0c0,0,0.1,0.1,0.1,0.1
					c0.1,0.1,0.1,0.1,0.2,0.1c0,0,0,0,0,0c0.1,0,0.2,0.1,0.3,0.1c0.2,0,0.4,0.1,0.5,0.2c0.1,0.1,0.2,0.1,0.3,0.2c0,0,0,0,0,0
					c0,0,0.1,0,0.2,0.1c0.1,0,0.1,0,0.2,0c0,0,0,0,0.1,0c0.1,0,0.2,0,0.3-0.1c0.2-0.1,0.4-0.1,0.6-0.1c0.1,0,0.2,0,0.3,0
					c0,0,0,0,0.1,0c0.1,0,0.1,0,0.2,0c0.1,0,0.1-0.1,0.2-0.1c0,0,0,0,0,0c0.1-0.1,0.2-0.1,0.2-0.2c0.2-0.2,0.3-0.3,0.5-0.3
					c0.1,0,0.2-0.1,0.3-0.1c0,0,0,0,0,0c0,0,0.1-0.1,0.1-0.1c0.1-0.1,0.1-0.1,0.1-0.2c0,0,0,0,0,0c0-0.1,0.1-0.2,0.1-0.3
					c0-0.2,0.1-0.4,0.2-0.5c0.1-0.1,0.1-0.2,0.2-0.3c0,0,0,0,0,0c0,0,0-0.1,0.1-0.2C167.1,141.6,167.2,141.5,167.1,141.4"/>
			</g>
		</g>
		<g>
			<defs>
				<path id="SVGID_5_" d="M164.1,137.7C164.1,137.7,164.1,137.7,164.1,137.7c-0.2,0-0.3,0-0.4,0.1c-0.2,0.1-0.4,0.1-0.6,0.1
					c-0.1,0-0.2,0-0.3,0c0,0,0,0-0.1,0c-0.1,0-0.1,0-0.2,0c-0.1,0-0.1,0.1-0.2,0.1c0,0,0,0,0,0c-0.1,0.1-0.2,0.1-0.2,0.2
					c-0.2,0.2-0.3,0.3-0.5,0.3c-0.1,0-0.2,0.1-0.3,0.1c0,0,0,0,0,0c0,0-0.1,0.1-0.1,0.1c-0.1,0.1-0.1,0.1-0.1,0.2c0,0,0,0,0,0
					c0,0.1-0.1,0.2-0.1,0.3c0,0.2-0.1,0.4-0.2,0.5c-0.1,0.1-0.1,0.2-0.2,0.3c0,0,0,0,0,0c0,0,0,0.1-0.1,0.2c0,0.1,0,0.1,0,0.2
					c0,0,0,0,0,0.1c0,0.1,0,0.2,0.1,0.3c0.1,0.2,0.1,0.4,0.1,0.6c0,0.1,0,0.2,0,0.3c0,0,0,0,0,0.1c0,0.1,0,0.1,0,0.2
					c0,0.1,0.1,0.1,0.1,0.2c0,0,0,0,0,0c0.1,0.1,0.1,0.2,0.2,0.2c0.2,0.2,0.3,0.3,0.3,0.5c0,0.1,0.1,0.2,0.1,0.3c0,0,0,0,0,0
					c0,0,0.1,0.1,0.1,0.1c0.1,0.1,0.1,0.1,0.2,0.1c0,0,0,0,0,0c0.1,0,0.2,0.1,0.3,0.1c0.2,0,0.4,0.1,0.5,0.2
					c0.1,0.1,0.2,0.1,0.3,0.2c0,0,0,0,0,0c0,0,0.1,0,0.2,0.1c0.1,0,0.1,0,0.2,0c0,0,0,0,0.1,0c0.1,0,0.2,0,0.3-0.1
					c0.2-0.1,0.4-0.1,0.6-0.1c0.1,0,0.2,0,0.3,0c0,0,0,0,0.1,0c0.1,0,0.1,0,0.2,0c0.1,0,0.1-0.1,0.2-0.1c0,0,0,0,0,0
					c0.1-0.1,0.2-0.1,0.2-0.2c0.2-0.2,0.3-0.3,0.5-0.3c0.1,0,0.2-0.1,0.3-0.1c0,0,0,0,0,0c0,0,0.1-0.1,0.1-0.1
					c0.1-0.1,0.1-0.1,0.1-0.2c0,0,0,0,0,0c0-0.1,0.1-0.2,0.1-0.3c0-0.2,0.1-0.4,0.2-0.5c0.1-0.1,0.1-0.2,0.2-0.3c0,0,0,0,0,0
					c0,0,0-0.1,0.1-0.2c0-0.1,0-0.1,0-0.2c0,0,0,0,0-0.1c0-0.1,0-0.2-0.1-0.3c-0.1-0.2-0.1-0.4-0.1-0.6c0-0.1,0-0.2,0-0.3
					c0,0,0,0,0-0.1c0-0.1,0-0.1,0-0.2c0-0.1-0.1-0.1-0.1-0.2c0,0,0,0,0,0c-0.1-0.1-0.1-0.2-0.2-0.2c-0.2-0.2-0.3-0.3-0.3-0.5
					c0-0.1-0.1-0.2-0.1-0.3c0,0,0,0,0,0c0,0-0.1-0.1-0.1-0.1c-0.1-0.1-0.1-0.1-0.2-0.1c0,0,0,0,0,0c-0.1,0-0.2-0.1-0.3-0.1
					c-0.2,0-0.4-0.1-0.5-0.2c-0.1-0.1-0.2-0.1-0.3-0.2c0,0,0,0,0,0c0,0-0.1,0-0.2-0.1c0,0,0,0,0,0
					C164.2,137.7,164.2,137.7,164.1,137.7"/>
			</defs>
			<clipPath id="SVGID_6_">
				<use xlink:href="#SVGID_5_"  overflow="visible"/>
			</clipPath>
			
				<linearGradient id="SVGID_7_" gradientUnits="userSpaceOnUse" x1="-71.976" y1="-127.5742" x2="-71.9325" y2="-127.5742" gradientTransform="matrix(-89.2279 -123.8289 -123.8289 89.2279 -22054.0059 2614.0313)">
				<stop  offset="0" style="stop-color:#BBBFC2"/>
				<stop  offset="0.6545" style="stop-color:#D5D8DA"/>
				<stop  offset="1" style="stop-color:#EBEBED"/>
			</linearGradient>
			<polygon clip-path="url(#SVGID_6_)" fill="url(#SVGID_7_)" points="162.7,147.5 157.2,139.9 164.8,134.4 170.3,142 			"/>
		</g>
		<g opacity="0.25">
			<g>
				<defs>
					
						<rect id="SVGID_8_" x="160.6" y="137.6" transform="matrix(-0.9871 -0.1603 0.1603 -0.9871 301.8546 304.6792)" width="5.3" height="5.2"/>
				</defs>
				<clipPath id="SVGID_9_">
					<use xlink:href="#SVGID_8_"  overflow="visible"/>
				</clipPath>
				<path clip-path="url(#SVGID_9_)" fill="#FFFFFF" d="M160.8,142.4c0,0-0.1-0.1-0.1-0.2c0-0.1,0-0.1,0-0.2c0,0,0,0,0-0.1
					c0-0.1,0-0.2,0-0.3c0-0.2,0-0.4-0.1-0.6c0-0.1-0.1-0.2-0.1-0.3c0,0,0,0,0-0.1c0-0.1,0-0.1,0-0.2c0-0.1,0-0.1,0.1-0.2
					c0,0,0,0,0,0c0-0.1,0.1-0.2,0.2-0.3c0.1-0.1,0.2-0.3,0.2-0.5c0-0.1,0-0.2,0.1-0.3c0,0,0,0,0,0c0-0.1,0.1-0.1,0.1-0.2
					c0-0.1,0.1-0.1,0.1-0.1c0,0,0,0,0,0c0.1-0.1,0.2-0.1,0.3-0.1c0.1-0.1,0.3-0.2,0.5-0.3c0.1-0.1,0.1-0.1,0.2-0.2c0,0,0,0,0,0
					c0,0,0.1-0.1,0.2-0.1c0.1,0,0.1,0,0.2,0c0,0,0,0,0.1,0c0.1,0,0.2,0,0.3,0c0.2,0,0.4,0,0.6-0.1c0.1,0,0.2-0.1,0.3-0.1
					c0,0,0,0,0.1,0c0.1,0,0.1,0,0.2,0c0.1,0,0.1,0,0.2,0.1c0,0,0,0,0,0c0.1,0.1,0.2,0.1,0.3,0.2c0.1,0.1,0.3,0.2,0.5,0.2
					c0.1,0,0.2,0,0.3,0.1c0,0,0,0,0,0c0.1,0,0.1,0.1,0.2,0.1c0.1,0,0.1,0.1,0.1,0.1c0,0,0,0,0,0c0,0,0,0,0,0c0,0,0-0.1-0.1-0.1
					c0,0,0,0,0,0c0,0-0.1-0.1-0.1-0.1c-0.1-0.1-0.1-0.1-0.2-0.1c0,0,0,0,0,0c-0.1,0-0.2-0.1-0.3-0.1c-0.2,0-0.4-0.1-0.5-0.2
					c-0.1-0.1-0.2-0.1-0.3-0.2c0,0,0,0,0,0c0,0-0.1,0-0.2-0.1c-0.1,0-0.1,0-0.2,0c0,0,0,0-0.1,0c-0.1,0-0.2,0-0.3,0.1
					c-0.2,0.1-0.4,0.1-0.6,0.1c-0.1,0-0.2,0-0.3,0c0,0,0,0-0.1,0c-0.1,0-0.1,0-0.2,0c-0.1,0-0.1,0.1-0.2,0.1c0,0,0,0,0,0
					c-0.1,0.1-0.2,0.1-0.2,0.2c-0.2,0.2-0.3,0.3-0.5,0.3c-0.1,0-0.2,0.1-0.3,0.1c0,0,0,0,0,0c0,0-0.1,0.1-0.1,0.1
					c-0.1,0.1-0.1,0.1-0.1,0.2c0,0,0,0,0,0c0,0.1-0.1,0.2-0.1,0.3c0,0.2-0.1,0.4-0.2,0.5c-0.1,0.1-0.1,0.2-0.2,0.3c0,0,0,0,0,0
					c0,0,0,0.1-0.1,0.2c0,0.1,0,0.1,0,0.2c0,0,0,0,0,0.1c0,0.1,0,0.2,0.1,0.3c0.1,0.2,0.1,0.4,0.1,0.6c0,0.1,0,0.2,0,0.3
					c0,0,0,0,0,0.1c0,0.1,0,0.1,0,0.2C160.7,142.2,160.7,142.3,160.8,142.4C160.8,142.3,160.8,142.3,160.8,142.4
					C160.8,142.4,160.8,142.4,160.8,142.4C160.8,142.4,160.8,142.4,160.8,142.4"/>
			</g>
		</g>
		<g opacity="0.25">
			<g>
				<defs>
					
						<rect id="SVGID_10_" x="161.7" y="139.2" transform="matrix(-0.9871 -0.1603 0.1603 -0.9871 303.7961 308.0665)" width="5.3" height="5.2"/>
				</defs>
				<clipPath id="SVGID_11_">
					<use xlink:href="#SVGID_10_"  overflow="visible"/>
				</clipPath>
				<path clip-path="url(#SVGID_11_)" fill="#797C7D" d="M166.7,139.6c0,0,0.1,0.1,0.1,0.2c0,0.1,0,0.1,0,0.2c0,0,0,0,0,0.1
					c0,0.1,0,0.2,0,0.3c0,0.2,0,0.4,0.1,0.6c0,0.1,0.1,0.2,0.1,0.3c0,0,0,0,0,0.1c0,0.1,0,0.1,0,0.2c0,0.1,0,0.1-0.1,0.2
					c0,0,0,0,0,0c0,0.1-0.1,0.2-0.2,0.3c-0.1,0.1-0.2,0.3-0.2,0.5c0,0.1,0,0.2-0.1,0.3c0,0,0,0,0,0c0,0.1-0.1,0.1-0.1,0.2
					c0,0.1-0.1,0.1-0.1,0.1c0,0,0,0,0,0c-0.1,0.1-0.2,0.1-0.3,0.1c-0.1,0.1-0.3,0.2-0.5,0.3c-0.1,0.1-0.1,0.1-0.2,0.2c0,0,0,0,0,0
					c0,0-0.1,0.1-0.2,0.1c-0.1,0-0.1,0-0.2,0c0,0,0,0-0.1,0c-0.1,0-0.2,0-0.3,0c-0.2,0-0.4,0-0.6,0.1c-0.1,0-0.2,0.1-0.3,0.1
					c0,0,0,0-0.1,0c-0.1,0-0.1,0-0.2,0c-0.1,0-0.1,0-0.2-0.1c0,0,0,0,0,0c-0.1,0-0.2-0.1-0.3-0.2c-0.1-0.1-0.3-0.2-0.5-0.2
					c-0.1,0-0.2,0-0.3-0.1c0,0,0,0,0,0c-0.1,0-0.1-0.1-0.2-0.1c-0.1,0-0.1-0.1-0.1-0.1c0,0,0,0,0,0c0,0,0,0,0,0c0,0,0,0.1,0.1,0.1
					c0,0,0,0,0,0c0,0,0.1,0.1,0.1,0.1c0.1,0.1,0.1,0.1,0.2,0.1c0,0,0,0,0,0c0.1,0,0.2,0.1,0.3,0.1c0.2,0,0.4,0.1,0.5,0.2
					c0.1,0.1,0.2,0.1,0.3,0.2c0,0,0,0,0,0c0,0,0.1,0,0.2,0.1c0.1,0,0.1,0,0.2,0c0,0,0,0,0.1,0c0.1,0,0.2,0,0.3-0.1
					c0.2-0.1,0.4-0.1,0.6-0.1c0.1,0,0.2,0,0.3,0c0,0,0,0,0.1,0c0.1,0,0.1,0,0.2,0c0.1,0,0.1-0.1,0.2-0.1c0,0,0,0,0,0
					c0.1-0.1,0.2-0.1,0.2-0.2c0.2-0.2,0.3-0.3,0.5-0.3c0.1,0,0.2-0.1,0.3-0.1c0,0,0,0,0,0c0,0,0.1-0.1,0.2-0.1
					c0.1-0.1,0.1-0.1,0.1-0.2c0,0,0,0,0,0c0-0.1,0.1-0.2,0.1-0.3c0-0.2,0.1-0.4,0.2-0.5c0.1-0.1,0.1-0.2,0.2-0.3c0,0,0,0,0,0
					c0,0,0-0.1,0.1-0.2c0-0.1,0-0.1,0-0.2c0,0,0,0,0-0.1c0-0.1,0-0.2-0.1-0.3c-0.1-0.2-0.1-0.4-0.1-0.6c0-0.1,0-0.2,0-0.3
					c0,0,0,0,0-0.1c0-0.1,0-0.1,0-0.2C166.9,139.7,166.8,139.7,166.7,139.6C166.8,139.6,166.8,139.6,166.7,139.6
					C166.7,139.6,166.7,139.5,166.7,139.6C166.7,139.5,166.7,139.5,166.7,139.6"/>
			</g>
		</g>
		<path fill="#CDCFCE" d="M166.4,141.4c-0.2,1.5-1.6,2.5-3.1,2.2c-1.5-0.2-2.5-1.6-2.2-3.1c0.2-1.5,1.6-2.5,3.1-2.2
			C165.7,138.5,166.7,139.9,166.4,141.4"/>
		<g opacity="0.75">
			<g>
				<defs>
					
						<rect id="SVGID_12_" x="161.4" y="142.8" transform="matrix(-0.9871 -0.1603 0.1603 -0.9871 299.7679 312.0742)" width="2.2" height="2.3"/>
				</defs>
				<clipPath id="SVGID_13_">
					<use xlink:href="#SVGID_12_"  overflow="visible"/>
				</clipPath>
				<path clip-path="url(#SVGID_13_)" fill="#ACACAC" d="M162.1,142.7l-0.8,1.6l0.8,0.2c0,0,0.4,0.5,0.7,0.7
					c0.4-0.8,0.8-1.7,0.8-1.7L162.1,142.7z"/>
			</g>
		</g>
		<polygon fill="#CED0D1" points="162.1,142.7 163.6,143.5 162.8,145.1 162.2,144.4 161.3,144.3 		"/>
		<g opacity="0.25">
			<g>
				<defs>
					
						<rect id="SVGID_14_" x="161.3" y="143.3" transform="matrix(-0.9871 -0.1603 0.1603 -0.9871 299.642 312.4749)" width="2.2" height="1.7"/>
				</defs>
				<clipPath id="SVGID_15_">
					<use xlink:href="#SVGID_14_"  overflow="visible"/>
				</clipPath>
				<polygon clip-path="url(#SVGID_15_)" fill="#B6DADA" points="162.8,145 163.6,143.5 163.6,143.5 162.8,145.1 162.2,144.4 
					161.3,144.3 161.4,144.2 162.2,144.4 				"/>
			</g>
		</g>
		<g opacity="0.7">
			<g>
				<defs>
					
						<rect id="SVGID_16_" x="161.4" y="142.7" transform="matrix(-0.9871 -0.1603 0.1603 -0.9871 298.3399 311.0585)" width="0.6" height="1.7"/>
				</defs>
				<clipPath id="SVGID_17_">
					<use xlink:href="#SVGID_16_"  overflow="visible"/>
				</clipPath>
				<g clip-path="url(#SVGID_17_)">
					<defs>
						<polygon id="SVGID_18_" points="162.1,142.7 161.4,144.2 161.3,144.3 162.1,142.7 						"/>
					</defs>
					<clipPath id="SVGID_19_">
						<use xlink:href="#SVGID_18_"  overflow="visible"/>
					</clipPath>
					
						<linearGradient id="SVGID_20_" gradientUnits="userSpaceOnUse" x1="-82.2128" y1="-127.8983" x2="-82.1693" y2="-127.8983" gradientTransform="matrix(18.8002 -36.2715 -36.2715 -18.8002 -2932.1438 -5242.1982)">
						<stop  offset="0" style="stop-color:#CAE3E4"/>
						<stop  offset="8.325380e-002" style="stop-color:#CDE5E8"/>
						<stop  offset="0.1758" style="stop-color:#D3E8E9"/>
						<stop  offset="0.3756" style="stop-color:#CDE5E8"/>
						<stop  offset="0.6135" style="stop-color:#CAE3E5"/>
						<stop  offset="1" style="stop-color:#C8E2E4"/>
					</linearGradient>
					<polygon clip-path="url(#SVGID_19_)" fill="url(#SVGID_20_)" points="160.8,144 161.6,142.5 162.6,143 161.8,144.5 					"/>
				</g>
			</g>
		</g>
		<g opacity="0.75">
			<g>
				<defs>
					
						<rect id="SVGID_21_" x="163" y="142.9" transform="matrix(-0.9871 -0.1603 0.1603 -0.9871 303.0202 312.5213)" width="2.2" height="2.2"/>
				</defs>
				<clipPath id="SVGID_22_">
					<use xlink:href="#SVGID_21_"  overflow="visible"/>
				</clipPath>
				<path clip-path="url(#SVGID_22_)" fill="#ACACAC" d="M164.8,143l0.3,1.8l-0.9-0.2c0,0-0.6,0.3-0.9,0.4c-0.1-0.9-0.2-1.7-0.2-1.7
					L164.8,143z"/>
			</g>
		</g>
		<polygon fill="#CED0D1" points="164.7,143 163,143.2 163.3,145 164.1,144.6 165,144.7 		"/>
		<g opacity="0.25">
			<g>
				<defs>
					
						<rect id="SVGID_23_" x="162.9" y="143.4" transform="matrix(-0.9871 -0.1603 0.1603 -0.9871 302.7212 312.9065)" width="2.2" height="1.7"/>
				</defs>
				<clipPath id="SVGID_24_">
					<use xlink:href="#SVGID_23_"  overflow="visible"/>
				</clipPath>
				<polygon clip-path="url(#SVGID_24_)" fill="#B6DADA" points="163.3,144.9 163.1,143.2 163,143.2 163.3,145 164.1,144.6 
					165,144.7 165,144.7 164.1,144.5 				"/>
			</g>
		</g>
		<g opacity="0.7">
			<g>
				<defs>
					
						<rect id="SVGID_25_" x="164.6" y="143" transform="matrix(-0.9871 -0.1603 0.1603 -0.9871 304.5322 312.2569)" width="0.6" height="1.7"/>
				</defs>
				<clipPath id="SVGID_26_">
					<use xlink:href="#SVGID_25_"  overflow="visible"/>
				</clipPath>
				<g clip-path="url(#SVGID_26_)">
					<defs>
						<polygon id="SVGID_27_" points="164.7,143 165,144.7 165,144.7 164.7,143 						"/>
					</defs>
					<clipPath id="SVGID_28_">
						<use xlink:href="#SVGID_27_"  overflow="visible"/>
					</clipPath>
					
						<linearGradient id="SVGID_29_" gradientUnits="userSpaceOnUse" x1="-77.781" y1="-141.6721" x2="-77.7375" y2="-141.6721" gradientTransform="matrix(-6.3556 -40.3577 40.3577 -6.3556 5388.208 -3894.7458)">
						<stop  offset="0" style="stop-color:#DDBCD5"/>
						<stop  offset="8.325380e-002" style="stop-color:#E0C2D9"/>
						<stop  offset="0.1758" style="stop-color:#E3C9DD"/>
						<stop  offset="0.3756" style="stop-color:#E0C2D9"/>
						<stop  offset="0.6135" style="stop-color:#DDBCD6"/>
						<stop  offset="1" style="stop-color:#DCBBD5"/>
					</linearGradient>
					<polygon clip-path="url(#SVGID_28_)" fill="url(#SVGID_29_)" points="165.5,144.6 165.3,142.9 164.2,143 164.5,144.8 					"/>
				</g>
			</g>
		</g>
		<g>
			<defs>
				<path id="SVGID_30_" d="M161.2,140.5c-0.2,1.4,0.7,2.8,2.2,3c1.4,0.2,2.8-0.7,3-2.2c0.2-1.4-0.7-2.8-2.2-3
					C162.8,138.1,161.4,139.1,161.2,140.5"/>
			</defs>
			<clipPath id="SVGID_31_">
				<use xlink:href="#SVGID_30_"  overflow="visible"/>
			</clipPath>
			
				<linearGradient id="SVGID_32_" gradientUnits="userSpaceOnUse" x1="-72.1346" y1="-126.7016" x2="-72.0911" y2="-126.7016" gradientTransform="matrix(-71.2043 -98.8161 -98.8161 71.2043 -17491.1348 2036.7554)">
				<stop  offset="0" style="stop-color:#D7D8DA"/>
				<stop  offset="0.6545" style="stop-color:#E8EAEC"/>
				<stop  offset="1" style="stop-color:#F5F6F6"/>
			</linearGradient>
			<polygon clip-path="url(#SVGID_31_)" fill="url(#SVGID_32_)" points="162.9,146.2 158.5,140.1 164.6,135.7 169,141.8 			"/>
		</g>
		<g opacity="0.5">
			<g>
				<defs>
					
						<rect id="SVGID_33_" x="161.3" y="138.2" transform="matrix(-0.9871 -0.1603 0.1603 -0.9871 301.9303 304.2548)" width="3.9" height="3.5"/>
				</defs>
				<clipPath id="SVGID_34_">
					<use xlink:href="#SVGID_33_"  overflow="visible"/>
				</clipPath>
				<path clip-path="url(#SVGID_34_)" fill="#FFFFFF" d="M161.2,140.7c0.2-1.5,1.6-2.5,3.1-2.3c0.4,0.1,0.8,0.2,1.1,0.4
					c-0.3-0.3-0.7-0.4-1.2-0.5c-1.4-0.2-2.8,0.7-3,2.2c0,0.3,0,0.5,0,0.8C161.1,141.1,161.1,140.9,161.2,140.7"/>
			</g>
		</g>
		<g opacity="0.25">
			<g>
				<defs>
					
						<rect id="SVGID_35_" x="162.3" y="140.3" transform="matrix(-0.9871 -0.1603 0.1603 -0.9871 303.7206 308.4909)" width="3.9" height="3.5"/>
				</defs>
				<clipPath id="SVGID_36_">
					<use xlink:href="#SVGID_35_"  overflow="visible"/>
				</clipPath>
				<path clip-path="url(#SVGID_36_)" fill="#758082" d="M166.4,141.2c-0.2,1.5-1.6,2.5-3.1,2.3c-0.4-0.1-0.8-0.2-1.1-0.4
					c0.3,0.3,0.7,0.4,1.2,0.5c1.4,0.2,2.8-0.7,3-2.2c0-0.3,0-0.5,0-0.8C166.4,140.8,166.4,141,166.4,141.2"/>
			</g>
		</g>
		<g>
			<g>
				<defs>
					
						<rect id="SVGID_37_" x="160.4" y="137.7" transform="matrix(-0.9871 -0.1603 0.1603 -0.9871 302.7 307.3242)" width="6.7" height="7.6"/>
				</defs>
				<clipPath id="SVGID_38_">
					<use xlink:href="#SVGID_37_"  overflow="visible"/>
				</clipPath>
				<path clip-path="url(#SVGID_38_)" fill="#61AAEA" d="M167.1,141.4C167.1,141.4,167.1,141.4,167.1,141.4c0-0.2,0-0.3-0.1-0.4
					c-0.1-0.2-0.1-0.4-0.1-0.6c0-0.1,0-0.2,0-0.3c0,0,0,0,0-0.1c0-0.1,0-0.1,0-0.2c0-0.1-0.1-0.1-0.1-0.2c0,0,0,0,0,0
					c-0.1-0.1-0.1-0.1-0.2-0.2c0-0.1-0.1-0.1-0.1-0.1c0,0,0,0,0,0c-0.1-0.1-0.2-0.2-0.2-0.3c0-0.1-0.1-0.2-0.1-0.3c0,0,0,0,0,0
					c0,0-0.1-0.1-0.1-0.1c0,0-0.1-0.1-0.1-0.1c-0.1-0.1-0.1-0.1-0.2-0.1c0,0,0,0,0,0c-0.1,0-0.2-0.1-0.3-0.1c-0.2,0-0.4-0.1-0.5-0.2
					c-0.1-0.1-0.2-0.1-0.3-0.2c0,0,0,0,0,0c0,0-0.1,0-0.2-0.1c-0.1,0-0.1,0-0.2,0c0,0,0,0-0.1,0c-0.1,0-0.2,0-0.3,0.1
					c-0.2,0.1-0.4,0.1-0.6,0.1c-0.1,0-0.2,0-0.3,0c0,0,0,0-0.1,0c-0.1,0-0.1,0-0.2,0c-0.1,0-0.1,0.1-0.2,0.1c0,0,0,0,0,0
					c-0.1,0.1-0.2,0.1-0.2,0.2c-0.2,0.2-0.3,0.3-0.5,0.3c-0.1,0-0.2,0.1-0.3,0.1c0,0,0,0,0,0c0,0-0.1,0.1-0.1,0.1
					c-0.1,0.1-0.1,0.1-0.1,0.2c0,0,0,0,0,0c0,0.1-0.1,0.2-0.1,0.3c0,0.2-0.1,0.4-0.2,0.5c-0.1,0.1-0.1,0.2-0.2,0.3c0,0,0,0,0,0
					c0,0,0,0.1-0.1,0.2c0,0.1,0,0.1,0,0.2c0,0,0,0,0,0.1c0,0.1,0,0.2,0.1,0.3c0.1,0.2,0.1,0.4,0.1,0.6c0,0.1,0,0.2,0,0.3
					c0,0,0,0,0,0.1c0,0.1,0,0.1,0,0.2c0,0.1,0.1,0.1,0.1,0.2c0,0,0,0,0,0c0.1,0.1,0.1,0.1,0.2,0.2c0,0.1,0.1,0.1,0.1,0.1
					c0,0,0,0,0,0c0.1,0.1,0.2,0.2,0.2,0.3c0,0.1,0.1,0.2,0.1,0.3c0,0,0,0,0,0c0,0,0,0,0,0c0,0,0.1,0.1,0.1,0.1c0,0,0,0,0,0.1
					l-0.4,0.7l0,0l0,0l0.8,0.2c0,0,0.4,0.5,0.7,0.7c0.1-0.3,0.3-0.5,0.4-0.8l0.1,0.6l0,0c0,0,0,0,0,0c0.3-0.1,0.9-0.4,0.9-0.4
					l0.9,0.2l-0.1-0.6c0,0,0,0,0,0c0.1,0,0.1-0.1,0.2-0.1c0,0,0,0,0,0c0.1-0.1,0.2-0.1,0.2-0.2c0.2-0.2,0.3-0.3,0.5-0.3
					c0.1,0,0.2-0.1,0.3-0.1c0,0,0,0,0,0c0,0,0.1-0.1,0.1-0.1c0.1-0.1,0.1-0.1,0.1-0.2c0,0,0,0,0,0c0-0.1,0.1-0.2,0.1-0.3
					c0-0.2,0.1-0.4,0.2-0.5c0.1-0.1,0.1-0.2,0.2-0.3c0,0,0,0,0,0c0,0,0-0.1,0.1-0.2C167.1,141.6,167.2,141.5,167.1,141.4"/>
			</g>
		</g>
	</g>
	<g>
		<g opacity="0.75">
			<g>
				<defs>
					
						<rect id="SVGID_39_" x="168.1" y="139" transform="matrix(-0.9871 -0.1603 0.1603 -0.9871 317.8062 310.2261)" width="6.6" height="6.6"/>
				</defs>
				<clipPath id="SVGID_40_">
					<use xlink:href="#SVGID_39_"  overflow="visible"/>
				</clipPath>
				<path clip-path="url(#SVGID_40_)" fill="#ACACAC" d="M174.7,142.7C174.7,142.6,174.7,142.6,174.7,142.7c0-0.2,0-0.3-0.1-0.4
					c-0.1-0.2-0.1-0.4-0.1-0.6c0-0.1,0-0.2,0-0.3c0,0,0,0,0-0.1c0-0.1,0-0.1,0-0.2c0-0.1-0.1-0.1-0.1-0.2c0,0,0,0,0,0
					c-0.1-0.1-0.1-0.2-0.2-0.2c-0.2-0.2-0.3-0.3-0.3-0.5c0-0.1-0.1-0.2-0.1-0.3c0,0,0,0,0,0c0,0-0.1-0.1-0.1-0.1
					c-0.1-0.1-0.1-0.1-0.2-0.1c0,0,0,0,0,0c-0.1,0-0.2-0.1-0.3-0.1c-0.2,0-0.4-0.1-0.5-0.2c-0.1-0.1-0.2-0.1-0.3-0.2c0,0,0,0,0,0
					c0,0-0.1,0-0.2-0.1c-0.1,0-0.1,0-0.2,0c0,0,0,0-0.1,0c-0.1,0-0.2,0-0.3,0.1c-0.2,0.1-0.4,0.1-0.6,0.1c-0.1,0-0.2,0-0.3,0
					c0,0,0,0-0.1,0c-0.1,0-0.1,0-0.2,0c-0.1,0-0.1,0.1-0.2,0.1c0,0,0,0,0,0c-0.1,0.1-0.2,0.1-0.2,0.2c-0.2,0.2-0.3,0.3-0.5,0.3
					c-0.1,0-0.2,0.1-0.3,0.1c0,0,0,0,0,0c0,0-0.1,0.1-0.2,0.1c-0.1,0.1-0.1,0.1-0.1,0.2c0,0,0,0,0,0c0,0.1-0.1,0.2-0.1,0.3
					c0,0.2-0.1,0.4-0.2,0.5c-0.1,0.1-0.1,0.2-0.2,0.3c0,0,0,0,0,0c0,0,0,0.1-0.1,0.2c0,0.1,0,0.1,0,0.2c0,0,0,0,0,0.1
					c0,0.1,0,0.2,0.1,0.3c0.1,0.2,0.1,0.4,0.1,0.6c0,0.1,0,0.2,0,0.3c0,0,0,0,0,0.1c0,0.1,0,0.1,0,0.2c0,0.1,0.1,0.1,0.1,0.2
					c0,0,0,0,0,0c0.1,0.1,0.1,0.2,0.2,0.2c0.2,0.2,0.3,0.3,0.3,0.5c0,0.1,0.1,0.2,0.1,0.3c0,0,0,0,0,0c0,0,0.1,0.1,0.1,0.1
					c0.1,0.1,0.1,0.1,0.2,0.1c0,0,0,0,0,0c0.1,0,0.2,0.1,0.3,0.1c0.2,0,0.4,0.1,0.5,0.2c0.1,0.1,0.2,0.1,0.3,0.2c0,0,0,0,0,0
					c0,0,0.1,0,0.2,0.1c0.1,0,0.1,0,0.2,0c0,0,0,0,0.1,0c0.1,0,0.2,0,0.3-0.1c0.2-0.1,0.4-0.1,0.6-0.1c0.1,0,0.2,0,0.3,0
					c0,0,0,0,0.1,0c0.1,0,0.1,0,0.2,0c0.1,0,0.1-0.1,0.2-0.1c0,0,0,0,0,0c0.1-0.1,0.2-0.1,0.2-0.2c0.2-0.2,0.3-0.3,0.5-0.3
					c0.1,0,0.2-0.1,0.3-0.1c0,0,0,0,0,0c0,0,0.1-0.1,0.1-0.1c0.1-0.1,0.1-0.1,0.1-0.2c0,0,0,0,0,0c0-0.1,0.1-0.2,0.1-0.3
					c0-0.2,0.1-0.4,0.2-0.5c0.1-0.1,0.1-0.2,0.2-0.3c0,0,0,0,0,0c0,0,0-0.1,0.1-0.2C174.7,142.8,174.7,142.7,174.7,142.7"/>
			</g>
		</g>
		<g>
			<defs>
				<path id="SVGID_41_" d="M171.7,138.9C171.7,138.9,171.6,138.9,171.7,138.9c-0.2,0-0.3,0-0.4,0.1c-0.2,0.1-0.4,0.1-0.6,0.1
					c-0.1,0-0.2,0-0.3,0c0,0,0,0-0.1,0c-0.1,0-0.1,0-0.2,0c-0.1,0-0.1,0.1-0.2,0.1c0,0,0,0,0,0c-0.1,0.1-0.2,0.1-0.2,0.2
					c-0.2,0.2-0.3,0.3-0.5,0.3c-0.1,0-0.2,0.1-0.3,0.1c0,0,0,0,0,0c0,0-0.1,0.1-0.1,0.1c-0.1,0.1-0.1,0.1-0.1,0.2c0,0,0,0,0,0
					c0,0.1-0.1,0.2-0.1,0.3c0,0.2-0.1,0.4-0.2,0.5c-0.1,0.1-0.1,0.2-0.2,0.3c0,0,0,0,0,0c0,0,0,0.1-0.1,0.2c0,0.1,0,0.1,0,0.2
					c0,0,0,0,0,0.1c0,0.1,0,0.2,0.1,0.3c0.1,0.2,0.1,0.4,0.1,0.6c0,0.1,0,0.2,0,0.3c0,0,0,0,0,0.1c0,0.1,0,0.1,0,0.2
					c0,0.1,0.1,0.1,0.1,0.2c0,0,0,0,0,0c0.1,0.1,0.1,0.2,0.2,0.2c0.2,0.2,0.3,0.3,0.3,0.5c0,0.1,0.1,0.2,0.1,0.3c0,0,0,0,0,0
					c0,0,0.1,0.1,0.1,0.1c0.1,0.1,0.1,0.1,0.2,0.1c0,0,0,0,0,0c0.1,0,0.2,0.1,0.3,0.1c0.2,0,0.4,0.1,0.5,0.2
					c0.1,0.1,0.2,0.1,0.3,0.2c0,0,0,0,0,0c0,0,0.1,0,0.2,0.1c0.1,0,0.1,0,0.2,0c0,0,0,0,0.1,0c0.1,0,0.2,0,0.3-0.1
					c0.2-0.1,0.4-0.1,0.6-0.1c0.1,0,0.2,0,0.3,0c0,0,0,0,0.1,0c0.1,0,0.1,0,0.2,0c0.1,0,0.1-0.1,0.2-0.1c0,0,0,0,0,0
					c0.1-0.1,0.2-0.1,0.2-0.2c0.2-0.2,0.3-0.3,0.5-0.3c0.1,0,0.2-0.1,0.3-0.1c0,0,0,0,0,0c0,0,0.1-0.1,0.1-0.1
					c0.1-0.1,0.1-0.1,0.1-0.2c0,0,0,0,0,0c0-0.1,0.1-0.2,0.1-0.3c0-0.2,0.1-0.4,0.2-0.5c0.1-0.1,0.1-0.2,0.2-0.3c0,0,0,0,0,0
					c0,0,0-0.1,0.1-0.2c0-0.1,0-0.1,0-0.2c0,0,0,0,0-0.1c0-0.1,0-0.2-0.1-0.3c-0.1-0.2-0.1-0.4-0.1-0.6c0-0.1,0-0.2,0-0.3
					c0,0,0,0,0-0.1c0-0.1,0-0.1,0-0.2c0-0.1-0.1-0.1-0.1-0.2c0,0,0,0,0,0c-0.1-0.1-0.1-0.2-0.2-0.2c-0.2-0.2-0.3-0.3-0.3-0.5
					c0-0.1-0.1-0.2-0.1-0.3c0,0,0,0,0,0c0,0-0.1-0.1-0.1-0.1c-0.1-0.1-0.1-0.1-0.2-0.1c0,0,0,0,0,0c-0.1,0-0.2-0.1-0.3-0.1
					c-0.2,0-0.4-0.1-0.5-0.2c-0.1-0.1-0.2-0.1-0.3-0.2c0,0,0,0,0,0c0,0-0.1,0-0.2-0.1c0,0,0,0,0,0
					C171.8,138.9,171.7,138.9,171.7,138.9"/>
			</defs>
			<clipPath id="SVGID_42_">
				<use xlink:href="#SVGID_41_"  overflow="visible"/>
			</clipPath>
			
				<linearGradient id="SVGID_43_" gradientUnits="userSpaceOnUse" x1="-71.1481" y1="-126.7464" x2="-71.1046" y2="-126.7464" gradientTransform="matrix(-89.2279 -123.8289 -123.8289 89.2279 -21870.0742 2643.9023)">
				<stop  offset="0" style="stop-color:#BBBFC2"/>
				<stop  offset="0.6545" style="stop-color:#D5D8DA"/>
				<stop  offset="1" style="stop-color:#EBEBED"/>
			</linearGradient>
			<polygon clip-path="url(#SVGID_42_)" fill="url(#SVGID_43_)" points="170.3,148.8 164.8,141.1 172.4,135.6 177.9,143.3 			"/>
		</g>
		<g opacity="0.25">
			<g>
				<defs>
					
						<rect id="SVGID_44_" x="168.1" y="138.8" transform="matrix(-0.9871 -0.1603 0.1603 -0.9871 316.668 308.3277)" width="5.3" height="5.2"/>
				</defs>
				<clipPath id="SVGID_45_">
					<use xlink:href="#SVGID_44_"  overflow="visible"/>
				</clipPath>
				<path clip-path="url(#SVGID_45_)" fill="#FFFFFF" d="M168.4,143.6c0,0-0.1-0.1-0.1-0.2c0-0.1,0-0.1,0-0.2c0,0,0,0,0-0.1
					c0-0.1,0-0.2,0-0.3c0-0.2,0-0.4-0.1-0.6c0-0.1-0.1-0.2-0.1-0.3c0,0,0,0,0-0.1c0-0.1,0-0.1,0-0.2c0-0.1,0-0.1,0.1-0.2
					c0,0,0,0,0,0c0-0.1,0.1-0.2,0.2-0.3c0.1-0.1,0.2-0.3,0.2-0.5c0-0.1,0-0.2,0.1-0.3c0,0,0,0,0,0c0-0.1,0.1-0.1,0.1-0.2
					c0-0.1,0.1-0.1,0.1-0.1c0,0,0,0,0,0c0.1-0.1,0.2-0.1,0.3-0.1c0.1-0.1,0.3-0.2,0.5-0.3c0.1-0.1,0.1-0.1,0.2-0.2c0,0,0,0,0,0
					c0,0,0.1-0.1,0.2-0.1c0.1,0,0.1,0,0.2,0c0,0,0,0,0.1,0c0.1,0,0.2,0,0.3,0c0.2,0,0.4,0,0.6-0.1c0.1,0,0.2-0.1,0.3-0.1
					c0,0,0,0,0.1,0c0.1,0,0.1,0,0.2,0c0.1,0,0.1,0,0.2,0.1c0,0,0,0,0,0c0.1,0,0.2,0.1,0.3,0.2c0.1,0.1,0.3,0.2,0.5,0.2
					c0.1,0,0.2,0,0.3,0.1c0,0,0,0,0,0c0.1,0,0.1,0.1,0.2,0.1c0.1,0,0.1,0.1,0.1,0.1c0,0,0,0,0,0c0,0,0,0,0,0c0,0,0-0.1-0.1-0.1
					c0,0,0,0,0,0c0,0-0.1-0.1-0.1-0.1c-0.1-0.1-0.1-0.1-0.2-0.1c0,0,0,0,0,0c-0.1,0-0.2-0.1-0.3-0.1c-0.2,0-0.4-0.1-0.5-0.2
					c-0.1-0.1-0.2-0.1-0.3-0.2c0,0,0,0,0,0c0,0-0.1,0-0.2-0.1c-0.1,0-0.1,0-0.2,0c0,0,0,0-0.1,0c-0.1,0-0.2,0-0.3,0.1
					c-0.2,0.1-0.4,0.1-0.6,0.1c-0.1,0-0.2,0-0.3,0c0,0,0,0-0.1,0c-0.1,0-0.1,0-0.2,0c-0.1,0-0.1,0.1-0.2,0.1c0,0,0,0,0,0
					c-0.1,0.1-0.2,0.1-0.2,0.2c-0.2,0.2-0.3,0.3-0.5,0.3c-0.1,0-0.2,0.1-0.3,0.1c0,0,0,0,0,0c0,0-0.1,0.1-0.1,0.1
					c-0.1,0.1-0.1,0.1-0.1,0.2c0,0,0,0,0,0c0,0.1-0.1,0.2-0.1,0.3c0,0.2-0.1,0.4-0.2,0.5c-0.1,0.1-0.1,0.2-0.2,0.3c0,0,0,0,0,0
					c0,0,0,0.1-0.1,0.2c0,0.1,0,0.1,0,0.2c0,0,0,0,0,0.1c0,0.1,0,0.2,0.1,0.3c0.1,0.2,0.1,0.4,0.1,0.6c0,0.1,0,0.2,0,0.3
					c0,0,0,0,0,0.1c0,0.1,0,0.1,0,0.2C168.2,143.4,168.3,143.5,168.4,143.6C168.3,143.5,168.3,143.6,168.4,143.6
					C168.4,143.6,168.4,143.6,168.4,143.6C168.4,143.6,168.4,143.6,168.4,143.6"/>
			</g>
		</g>
		<g opacity="0.25">
			<g>
				<defs>
					
						<rect id="SVGID_46_" x="169.2" y="140.4" transform="matrix(-0.9871 -0.1603 0.1603 -0.9871 318.6095 311.7151)" width="5.3" height="5.2"/>
				</defs>
				<clipPath id="SVGID_47_">
					<use xlink:href="#SVGID_46_"  overflow="visible"/>
				</clipPath>
				<path clip-path="url(#SVGID_47_)" fill="#797C7D" d="M174.3,140.8c0,0,0.1,0.1,0.1,0.2c0,0.1,0,0.1,0,0.2c0,0,0,0,0,0.1
					c0,0.1,0,0.2,0,0.3c0,0.2,0,0.4,0.1,0.6c0,0.1,0.1,0.2,0.1,0.3c0,0,0,0,0,0.1c0,0.1,0,0.1,0,0.2c0,0.1,0,0.1-0.1,0.2
					c0,0,0,0,0,0c0,0.1-0.1,0.2-0.2,0.3c-0.1,0.1-0.2,0.3-0.2,0.5c0,0.1,0,0.2-0.1,0.3c0,0,0,0,0,0c0,0.1-0.1,0.1-0.1,0.2
					c0,0.1-0.1,0.1-0.1,0.1c0,0,0,0,0,0c-0.1,0.1-0.2,0.1-0.3,0.1c-0.1,0.1-0.3,0.2-0.5,0.3c-0.1,0.1-0.1,0.1-0.2,0.2c0,0,0,0,0,0
					c0,0-0.1,0.1-0.2,0.1c-0.1,0-0.1,0-0.2,0c0,0,0,0-0.1,0c-0.1,0-0.2,0-0.3,0c-0.2,0-0.4,0-0.6,0.1c-0.1,0-0.2,0.1-0.3,0.1
					c0,0,0,0-0.1,0c-0.1,0-0.1,0-0.2,0c-0.1,0-0.1,0-0.2-0.1c0,0,0,0,0,0c-0.1,0-0.2-0.1-0.3-0.2c-0.1-0.1-0.3-0.2-0.5-0.2
					c-0.1,0-0.2,0-0.3-0.1c0,0,0,0,0,0c-0.1,0-0.1-0.1-0.2-0.1c-0.1,0-0.1-0.1-0.1-0.1c0,0,0,0,0,0c0,0,0,0,0,0c0,0,0,0.1,0.1,0.1
					c0,0,0,0,0,0c0,0,0.1,0.1,0.1,0.1c0.1,0.1,0.1,0.1,0.2,0.1c0,0,0,0,0,0c0.1,0,0.2,0.1,0.3,0.1c0.2,0,0.4,0.1,0.5,0.2
					c0.1,0.1,0.2,0.1,0.3,0.2c0,0,0,0,0,0c0,0,0.1,0,0.2,0.1c0.1,0,0.1,0,0.2,0c0,0,0,0,0.1,0c0.1,0,0.2,0,0.3-0.1
					c0.2-0.1,0.4-0.1,0.6-0.1c0.1,0,0.2,0,0.3,0c0,0,0,0,0.1,0c0.1,0,0.1,0,0.2,0c0.1,0,0.1-0.1,0.2-0.1c0,0,0,0,0,0
					c0.1-0.1,0.2-0.1,0.2-0.2c0.2-0.2,0.3-0.3,0.5-0.3c0.1,0,0.2-0.1,0.3-0.1c0,0,0,0,0,0c0,0,0.1-0.1,0.2-0.1
					c0.1-0.1,0.1-0.1,0.1-0.2c0,0,0,0,0,0c0-0.1,0.1-0.2,0.1-0.3c0-0.2,0.1-0.4,0.2-0.5c0.1-0.1,0.1-0.2,0.2-0.3c0,0,0,0,0,0
					c0,0,0-0.1,0.1-0.2c0-0.1,0-0.1,0-0.2c0,0,0,0,0-0.1c0-0.1,0-0.2-0.1-0.3c-0.1-0.2-0.1-0.4-0.1-0.6c0-0.1,0-0.2,0-0.3
					c0,0,0,0,0-0.1c0-0.1,0-0.1,0-0.2C174.4,141,174.4,140.9,174.3,140.8C174.3,140.9,174.3,140.8,174.3,140.8
					C174.3,140.8,174.3,140.8,174.3,140.8C174.3,140.8,174.3,140.8,174.3,140.8"/>
			</g>
		</g>
		<path fill="#CDCFCE" d="M174,142.6c-0.2,1.5-1.6,2.5-3.1,2.2c-1.5-0.2-2.5-1.6-2.2-3.1c0.2-1.5,1.6-2.5,3.1-2.2
			C173.2,139.8,174.2,141.2,174,142.6"/>
		<g opacity="0.75">
			<g>
				<defs>
					
						<rect id="SVGID_48_" x="168.9" y="144" transform="matrix(-0.9871 -0.1603 0.1603 -0.9871 314.5812 315.7227)" width="2.2" height="2.3"/>
				</defs>
				<clipPath id="SVGID_49_">
					<use xlink:href="#SVGID_48_"  overflow="visible"/>
				</clipPath>
				<path clip-path="url(#SVGID_49_)" fill="#ACACAC" d="M169.7,144l-0.8,1.6l0.8,0.2c0,0,0.4,0.5,0.7,0.7c0.4-0.8,0.8-1.7,0.8-1.7
					L169.7,144z"/>
			</g>
		</g>
		<polygon fill="#CED0D1" points="169.7,143.9 171.2,144.7 170.4,146.3 169.7,145.6 168.8,145.5 		"/>
		<g opacity="0.25">
			<g>
				<defs>
					
						<rect id="SVGID_50_" x="168.9" y="144.5" transform="matrix(-0.9871 -0.1603 0.1603 -0.9871 314.4554 316.1235)" width="2.2" height="1.7"/>
				</defs>
				<clipPath id="SVGID_51_">
					<use xlink:href="#SVGID_50_"  overflow="visible"/>
				</clipPath>
				<polygon clip-path="url(#SVGID_51_)" fill="#B6DADA" points="170.4,146.2 171.2,144.7 171.2,144.7 170.4,146.3 169.7,145.6 
					168.8,145.5 168.9,145.5 169.8,145.6 				"/>
			</g>
		</g>
		<g opacity="0.7">
			<g>
				<defs>
					
						<rect id="SVGID_52_" x="169" y="143.9" transform="matrix(-0.9871 -0.1603 0.1603 -0.9871 313.1532 314.707)" width="0.6" height="1.7"/>
				</defs>
				<clipPath id="SVGID_53_">
					<use xlink:href="#SVGID_52_"  overflow="visible"/>
				</clipPath>
				<g clip-path="url(#SVGID_53_)">
					<defs>
						<polygon id="SVGID_54_" points="169.7,143.9 168.9,145.5 168.8,145.5 169.7,143.9 						"/>
					</defs>
					<clipPath id="SVGID_55_">
						<use xlink:href="#SVGID_54_"  overflow="visible"/>
					</clipPath>
					
						<linearGradient id="SVGID_56_" gradientUnits="userSpaceOnUse" x1="-83.577" y1="-123.7427" x2="-83.5335" y2="-123.7427" gradientTransform="matrix(18.8002 -36.2715 -36.2715 -18.8002 -2748.2117 -5212.3271)">
						<stop  offset="0" style="stop-color:#CAE3E4"/>
						<stop  offset="8.325380e-002" style="stop-color:#CDE5E8"/>
						<stop  offset="0.1758" style="stop-color:#D3E8E9"/>
						<stop  offset="0.3756" style="stop-color:#CDE5E8"/>
						<stop  offset="0.6135" style="stop-color:#CAE3E5"/>
						<stop  offset="1" style="stop-color:#C8E2E4"/>
					</linearGradient>
					<polygon clip-path="url(#SVGID_55_)" fill="url(#SVGID_56_)" points="168.4,145.3 169.2,143.7 170.2,144.2 169.3,145.8 					
						"/>
				</g>
			</g>
		</g>
		<g opacity="0.75">
			<g>
				<defs>
					
						<rect id="SVGID_57_" x="170.6" y="144.2" transform="matrix(-0.9871 -0.1603 0.1603 -0.9871 317.8336 316.1698)" width="2.2" height="2.2"/>
				</defs>
				<clipPath id="SVGID_58_">
					<use xlink:href="#SVGID_57_"  overflow="visible"/>
				</clipPath>
				<path clip-path="url(#SVGID_58_)" fill="#ACACAC" d="M172.4,144.3l0.3,1.8l-0.9-0.2c0,0-0.6,0.3-0.9,0.4
					c-0.1-0.9-0.2-1.7-0.2-1.7L172.4,144.3z"/>
			</g>
		</g>
		<polygon fill="#CED0D1" points="172.3,144.2 170.6,144.5 170.9,146.2 171.7,145.8 172.6,146 		"/>
		<g opacity="0.25">
			<g>
				<defs>
					
						<rect id="SVGID_59_" x="170.4" y="144.6" transform="matrix(-0.9871 -0.1603 0.1603 -0.9871 317.5345 316.5551)" width="2.2" height="1.7"/>
				</defs>
				<clipPath id="SVGID_60_">
					<use xlink:href="#SVGID_59_"  overflow="visible"/>
				</clipPath>
				<polygon clip-path="url(#SVGID_60_)" fill="#B6DADA" points="170.9,146.1 170.6,144.5 170.6,144.5 170.9,146.2 171.7,145.8 
					172.6,146 172.5,145.9 171.7,145.7 				"/>
			</g>
		</g>
		<g opacity="0.7">
			<g>
				<defs>
					
						<rect id="SVGID_61_" x="172.1" y="144.2" transform="matrix(-0.9871 -0.1603 0.1603 -0.9871 319.3456 315.9055)" width="0.6" height="1.7"/>
				</defs>
				<clipPath id="SVGID_62_">
					<use xlink:href="#SVGID_61_"  overflow="visible"/>
				</clipPath>
				<g clip-path="url(#SVGID_62_)">
					<defs>
						<polygon id="SVGID_63_" points="172.3,144.2 172.5,145.9 172.6,146 172.3,144.2 						"/>
					</defs>
					<clipPath id="SVGID_64_">
						<use xlink:href="#SVGID_63_"  overflow="visible"/>
					</clipPath>
					
						<linearGradient id="SVGID_65_" gradientUnits="userSpaceOnUse" x1="-76.4169" y1="-145.8277" x2="-76.3734" y2="-145.8277" gradientTransform="matrix(-6.3556 -40.3577 40.3577 -6.3556 5572.1401 -3864.8745)">
						<stop  offset="0" style="stop-color:#DDBCD5"/>
						<stop  offset="8.325380e-002" style="stop-color:#E0C2D9"/>
						<stop  offset="0.1758" style="stop-color:#E3C9DD"/>
						<stop  offset="0.3756" style="stop-color:#E0C2D9"/>
						<stop  offset="0.6135" style="stop-color:#DDBCD6"/>
						<stop  offset="1" style="stop-color:#DCBBD5"/>
					</linearGradient>
					<polygon clip-path="url(#SVGID_64_)" fill="url(#SVGID_65_)" points="173.1,145.9 172.8,144.1 171.7,144.3 172,146 					"/>
				</g>
			</g>
		</g>
		<g>
			<defs>
				<path id="SVGID_66_" d="M168.7,141.8c-0.2,1.4,0.7,2.8,2.2,3c1.4,0.2,2.8-0.7,3-2.2c0.2-1.4-0.7-2.8-2.2-3
					C170.3,139.3,168.9,140.3,168.7,141.8"/>
			</defs>
			<clipPath id="SVGID_67_">
				<use xlink:href="#SVGID_66_"  overflow="visible"/>
			</clipPath>
			
				<linearGradient id="SVGID_68_" gradientUnits="userSpaceOnUse" x1="-71.0972" y1="-125.6642" x2="-71.0537" y2="-125.6642" gradientTransform="matrix(-71.2043 -98.8161 -98.8161 71.2043 -17307.2031 2066.6265)">
				<stop  offset="0" style="stop-color:#D7D8DA"/>
				<stop  offset="0.6545" style="stop-color:#E8EAEC"/>
				<stop  offset="1" style="stop-color:#F5F6F6"/>
			</linearGradient>
			<polygon clip-path="url(#SVGID_67_)" fill="url(#SVGID_68_)" points="170.5,147.4 166.1,141.3 172.2,137 176.6,143 			"/>
		</g>
		<g opacity="0.5">
			<g>
				<defs>
					
						<rect id="SVGID_69_" x="168.8" y="139.5" transform="matrix(-0.9871 -0.1603 0.1603 -0.9871 316.7437 307.9033)" width="3.9" height="3.5"/>
				</defs>
				<clipPath id="SVGID_70_">
					<use xlink:href="#SVGID_69_"  overflow="visible"/>
				</clipPath>
				<path clip-path="url(#SVGID_70_)" fill="#FFFFFF" d="M168.7,141.9c0.2-1.5,1.6-2.5,3.1-2.3c0.4,0.1,0.8,0.2,1.1,0.4
					c-0.3-0.3-0.7-0.4-1.2-0.5c-1.4-0.2-2.8,0.7-3,2.2c0,0.3,0,0.5,0,0.8C168.7,142.4,168.7,142.2,168.7,141.9"/>
			</g>
		</g>
		<g opacity="0.25">
			<g>
				<defs>
					
						<rect id="SVGID_71_" x="169.9" y="141.5" transform="matrix(-0.9871 -0.1603 0.1603 -0.9871 318.534 312.1394)" width="3.9" height="3.5"/>
				</defs>
				<clipPath id="SVGID_72_">
					<use xlink:href="#SVGID_71_"  overflow="visible"/>
				</clipPath>
				<path clip-path="url(#SVGID_72_)" fill="#758082" d="M173.9,142.5c-0.2,1.5-1.6,2.5-3.1,2.3c-0.4-0.1-0.8-0.2-1.1-0.4
					c0.3,0.3,0.7,0.4,1.2,0.5c1.4,0.2,2.8-0.7,3-2.2c0-0.3,0-0.5,0-0.8C174,142,174,142.2,173.9,142.5"/>
			</g>
		</g>
		<g>
			<g>
				<defs>
					
						<rect id="SVGID_73_" x="167.9" y="138.9" transform="matrix(-0.9871 -0.1603 0.1603 -0.9871 317.5134 310.9728)" width="6.7" height="7.6"/>
				</defs>
				<clipPath id="SVGID_74_">
					<use xlink:href="#SVGID_73_"  overflow="visible"/>
				</clipPath>
				<path clip-path="url(#SVGID_74_)" fill="#D15A30" d="M174.7,142.7C174.7,142.6,174.7,142.6,174.7,142.7c0-0.2,0-0.3-0.1-0.4
					c-0.1-0.2-0.1-0.4-0.1-0.6c0-0.1,0-0.2,0-0.3c0,0,0,0,0-0.1c0-0.1,0-0.1,0-0.2c0-0.1-0.1-0.1-0.1-0.2c0,0,0,0,0,0
					c-0.1-0.1-0.1-0.1-0.2-0.2c0-0.1-0.1-0.1-0.1-0.1c0,0,0,0,0,0c-0.1-0.1-0.2-0.2-0.2-0.3c0-0.1-0.1-0.2-0.1-0.3c0,0,0,0,0,0
					c0,0-0.1-0.1-0.1-0.1c0,0-0.1-0.1-0.1-0.1c-0.1-0.1-0.1-0.1-0.2-0.1c0,0,0,0,0,0c-0.1,0-0.2-0.1-0.3-0.1c-0.2,0-0.4-0.1-0.5-0.2
					c-0.1-0.1-0.2-0.1-0.3-0.2c0,0,0,0,0,0c0,0-0.1,0-0.2-0.1c-0.1,0-0.1,0-0.2,0c0,0,0,0-0.1,0c-0.1,0-0.2,0-0.3,0.1
					c-0.2,0.1-0.4,0.1-0.6,0.1c-0.1,0-0.2,0-0.3,0c0,0,0,0-0.1,0c-0.1,0-0.1,0-0.2,0c-0.1,0-0.1,0.1-0.2,0.1c0,0,0,0,0,0
					c-0.1,0.1-0.2,0.1-0.2,0.2c-0.2,0.2-0.3,0.3-0.5,0.3c-0.1,0-0.2,0.1-0.3,0.1c0,0,0,0,0,0c0,0-0.1,0.1-0.1,0.1
					c-0.1,0.1-0.1,0.1-0.1,0.2c0,0,0,0,0,0c0,0.1-0.1,0.2-0.1,0.3c0,0.2-0.1,0.4-0.2,0.5c-0.1,0.1-0.1,0.2-0.2,0.3c0,0,0,0,0,0
					c0,0,0,0.1-0.1,0.2c0,0.1,0,0.1,0,0.2c0,0,0,0,0,0.1c0,0.1,0,0.2,0.1,0.3c0.1,0.2,0.1,0.4,0.1,0.6c0,0.1,0,0.2,0,0.3
					c0,0,0,0,0,0.1c0,0.1,0,0.1,0,0.2c0,0.1,0.1,0.1,0.1,0.2c0,0,0,0,0,0c0.1,0.1,0.1,0.1,0.2,0.2c0,0.1,0.1,0.1,0.1,0.1
					c0,0,0,0,0,0c0.1,0.1,0.2,0.2,0.2,0.3c0,0.1,0.1,0.2,0.1,0.3c0,0,0,0,0,0c0,0,0,0,0,0c0,0,0.1,0.1,0.1,0.1c0,0,0,0,0,0.1
					l-0.4,0.7l0,0l0,0l0.8,0.2c0,0,0.4,0.5,0.7,0.7c0.1-0.3,0.3-0.5,0.4-0.8l0.1,0.6l0,0c0,0,0,0,0,0c0.3-0.1,0.9-0.4,0.9-0.4
					l0.9,0.2l-0.1-0.6c0,0,0,0,0,0c0.1,0,0.1-0.1,0.2-0.1c0,0,0,0,0,0c0.1-0.1,0.2-0.1,0.2-0.2c0.2-0.2,0.3-0.3,0.5-0.3
					c0.1,0,0.2-0.1,0.3-0.1c0,0,0,0,0,0c0,0,0.1-0.1,0.1-0.1c0.1-0.1,0.1-0.1,0.1-0.2c0,0,0,0,0,0c0-0.1,0.1-0.2,0.1-0.3
					c0-0.2,0.1-0.4,0.2-0.5c0.1-0.1,0.1-0.2,0.2-0.3c0,0,0,0,0,0c0,0,0-0.1,0.1-0.2C174.7,142.8,174.7,142.7,174.7,142.7"/>
			</g>
		</g>
	</g>
	<g>
		<g opacity="0.75">
			<g>
				<defs>
					
						<rect id="SVGID_75_" x="145.4" y="135.3" transform="matrix(-0.9871 -0.1603 0.1603 -0.9871 273.3661 299.2804)" width="6.6" height="6.6"/>
				</defs>
				<clipPath id="SVGID_76_">
					<use xlink:href="#SVGID_75_"  overflow="visible"/>
				</clipPath>
				<path clip-path="url(#SVGID_76_)" fill="#ACACAC" d="M152,139C152,139,152,138.9,152,139c0-0.2,0-0.3-0.1-0.4
					c-0.1-0.2-0.1-0.4-0.1-0.6c0-0.1,0-0.2,0-0.3c0,0,0,0,0-0.1c0-0.1,0-0.1,0-0.2c0-0.1-0.1-0.1-0.1-0.2c0,0,0,0,0,0
					c-0.1-0.1-0.1-0.2-0.2-0.2c-0.2-0.2-0.3-0.3-0.3-0.5c0-0.1-0.1-0.2-0.1-0.3c0,0,0,0,0,0c0,0-0.1-0.1-0.1-0.1
					c-0.1-0.1-0.1-0.1-0.2-0.1c0,0,0,0,0,0c-0.1,0-0.2-0.1-0.3-0.1c-0.2,0-0.4-0.1-0.5-0.2c-0.1-0.1-0.2-0.1-0.3-0.2c0,0,0,0,0,0
					c0,0-0.1,0-0.2-0.1c-0.1,0-0.1,0-0.2,0c0,0,0,0-0.1,0c-0.1,0-0.2,0-0.3,0.1c-0.2,0.1-0.4,0.1-0.6,0.1c-0.1,0-0.2,0-0.3,0
					c0,0,0,0-0.1,0c-0.1,0-0.1,0-0.2,0c-0.1,0-0.1,0.1-0.2,0.1c0,0,0,0,0,0c-0.1,0.1-0.2,0.1-0.2,0.2c-0.2,0.2-0.3,0.3-0.5,0.3
					c-0.1,0-0.2,0.1-0.3,0.1c0,0,0,0,0,0c0,0-0.1,0.1-0.1,0.1c-0.1,0.1-0.1,0.1-0.1,0.2c0,0,0,0,0,0c0,0.1-0.1,0.2-0.1,0.3
					c0,0.2-0.1,0.4-0.2,0.5c-0.1,0.1-0.1,0.2-0.2,0.3c0,0,0,0,0,0c0,0,0,0.1-0.1,0.2c0,0.1,0,0.1,0,0.2c0,0,0,0,0,0.1
					c0,0.1,0,0.2,0.1,0.3c0.1,0.2,0.1,0.4,0.1,0.6c0,0.1,0,0.2,0,0.3c0,0,0,0,0,0.1c0,0.1,0,0.1,0,0.2c0,0.1,0.1,0.1,0.1,0.2
					c0,0,0,0,0,0c0.1,0.1,0.1,0.2,0.2,0.2c0.2,0.2,0.3,0.3,0.3,0.5c0,0.1,0.1,0.2,0.1,0.3c0,0,0,0,0,0c0,0,0.1,0.1,0.1,0.1
					c0.1,0.1,0.1,0.1,0.2,0.1c0,0,0,0,0,0c0.1,0,0.2,0.1,0.3,0.1c0.2,0,0.4,0.1,0.5,0.2c0.1,0.1,0.2,0.1,0.3,0.2c0,0,0,0,0,0
					c0,0,0.1,0,0.2,0.1c0.1,0,0.1,0,0.2,0c0,0,0,0,0.1,0c0.1,0,0.2,0,0.3-0.1c0.2-0.1,0.4-0.1,0.6-0.1c0.1,0,0.2,0,0.3,0
					c0,0,0,0,0.1,0c0.1,0,0.1,0,0.2,0c0.1,0,0.1-0.1,0.2-0.1c0,0,0,0,0,0c0.1-0.1,0.2-0.1,0.2-0.2c0.2-0.2,0.3-0.3,0.5-0.3
					c0.1,0,0.2-0.1,0.3-0.1c0,0,0,0,0,0c0,0,0.1-0.1,0.1-0.1c0.1-0.1,0.1-0.1,0.1-0.2c0,0,0,0,0,0c0-0.1,0.1-0.2,0.1-0.3
					c0-0.2,0.1-0.4,0.2-0.5c0.1-0.1,0.1-0.2,0.2-0.3c0,0,0,0,0,0c0,0,0-0.1,0.1-0.2C152,139.1,152,139,152,139"/>
			</g>
		</g>
		<g>
			<defs>
				<path id="SVGID_77_" d="M149,135.2C149,135.2,149,135.2,149,135.2c-0.2,0-0.3,0-0.4,0.1c-0.2,0.1-0.4,0.1-0.6,0.1
					c-0.1,0-0.2,0-0.3,0c0,0,0,0-0.1,0c-0.1,0-0.1,0-0.2,0c-0.1,0-0.1,0.1-0.2,0.1c0,0,0,0,0,0c-0.1,0.1-0.2,0.1-0.2,0.2
					c-0.2,0.2-0.3,0.3-0.5,0.3c-0.1,0-0.2,0.1-0.3,0.1c0,0,0,0,0,0c0,0-0.1,0.1-0.1,0.1c-0.1,0.1-0.1,0.1-0.1,0.2c0,0,0,0,0,0
					c0,0.1-0.1,0.2-0.1,0.3c0,0.2-0.1,0.4-0.2,0.5c-0.1,0.1-0.1,0.2-0.2,0.3c0,0,0,0,0,0c0,0,0,0.1-0.1,0.2c0,0.1,0,0.1,0,0.2
					c0,0,0,0,0,0.1c0,0.1,0,0.2,0.1,0.3c0.1,0.2,0.1,0.4,0.1,0.6c0,0.1,0,0.2,0,0.3c0,0,0,0,0,0.1c0,0.1,0,0.1,0,0.2
					c0,0.1,0.1,0.1,0.1,0.2c0,0,0,0,0,0c0.1,0.1,0.1,0.2,0.2,0.2c0.2,0.2,0.3,0.3,0.3,0.5c0,0.1,0.1,0.2,0.1,0.3c0,0,0,0,0,0
					c0,0,0.1,0.1,0.1,0.1c0.1,0.1,0.1,0.1,0.2,0.1c0,0,0,0,0,0c0.1,0,0.2,0.1,0.3,0.1c0.2,0,0.4,0.1,0.5,0.2
					c0.1,0.1,0.2,0.1,0.3,0.2c0,0,0,0,0,0c0,0,0.1,0,0.2,0.1c0.1,0,0.1,0,0.2,0c0,0,0,0,0.1,0c0.1,0,0.2,0,0.3-0.1
					c0.2-0.1,0.4-0.1,0.6-0.1c0.1,0,0.2,0,0.3,0c0,0,0,0,0.1,0c0.1,0,0.1,0,0.2,0c0.1,0,0.1-0.1,0.2-0.1c0,0,0,0,0,0
					c0.1-0.1,0.2-0.1,0.2-0.2c0.2-0.2,0.3-0.3,0.5-0.3c0.1,0,0.2-0.1,0.3-0.1c0,0,0,0,0,0c0,0,0.1-0.1,0.1-0.1
					c0.1-0.1,0.1-0.1,0.1-0.2c0,0,0,0,0,0c0-0.1,0.1-0.2,0.1-0.3c0-0.2,0.1-0.4,0.2-0.5c0.1-0.1,0.1-0.2,0.2-0.3c0,0,0,0,0,0
					c0,0,0-0.1,0.1-0.2c0-0.1,0-0.1,0-0.2c0,0,0,0,0-0.1c0-0.1,0-0.2-0.1-0.3c-0.1-0.2-0.1-0.4-0.1-0.6c0-0.1,0-0.2,0-0.3
					c0,0,0,0,0-0.1c0-0.1,0-0.1,0-0.2c0-0.1-0.1-0.1-0.1-0.2c0,0,0,0,0,0c-0.1-0.1-0.1-0.2-0.2-0.2c-0.2-0.2-0.3-0.3-0.3-0.5
					c0-0.1-0.1-0.2-0.1-0.3c0,0,0,0,0,0c0,0-0.1-0.1-0.1-0.1c-0.1-0.1-0.1-0.1-0.2-0.1c0,0,0,0,0,0c-0.1,0-0.2-0.1-0.3-0.1
					c-0.2,0-0.4-0.1-0.5-0.2c-0.1-0.1-0.2-0.1-0.3-0.2c0,0,0,0,0,0c0,0-0.1,0-0.2-0.1c0,0,0,0,0,0
					C149.1,135.2,149.1,135.2,149,135.2"/>
			</defs>
			<clipPath id="SVGID_78_">
				<use xlink:href="#SVGID_77_"  overflow="visible"/>
			</clipPath>
			
				<linearGradient id="SVGID_79_" gradientUnits="userSpaceOnUse" x1="-73.4985" y1="-129.0731" x2="-73.455" y2="-129.0731" gradientTransform="matrix(-89.2279 -123.8289 -123.8289 89.2279 -22390.5781 2556.7866)">
				<stop  offset="0" style="stop-color:#BBBFC2"/>
				<stop  offset="0.6545" style="stop-color:#D5D8DA"/>
				<stop  offset="1" style="stop-color:#EBEBED"/>
			</linearGradient>
			<polygon clip-path="url(#SVGID_78_)" fill="url(#SVGID_79_)" points="147.6,145.1 142.1,137.5 149.7,132 155.2,139.6 			"/>
		</g>
		<g opacity="0.25">
			<g>
				<defs>
					
						<rect id="SVGID_80_" x="145.5" y="135.1" transform="matrix(-0.9871 -0.1603 0.1603 -0.9871 272.2279 297.382)" width="5.3" height="5.2"/>
				</defs>
				<clipPath id="SVGID_81_">
					<use xlink:href="#SVGID_80_"  overflow="visible"/>
				</clipPath>
				<path clip-path="url(#SVGID_81_)" fill="#FFFFFF" d="M145.7,139.9c0,0-0.1-0.1-0.1-0.2c0-0.1,0-0.1,0-0.2c0,0,0,0,0-0.1
					c0-0.1,0-0.2,0-0.3c0-0.2,0-0.4-0.1-0.6c0-0.1-0.1-0.2-0.1-0.3c0,0,0,0,0-0.1c0-0.1,0-0.1,0-0.2c0-0.1,0-0.1,0.1-0.2
					c0,0,0,0,0,0c0-0.1,0.1-0.2,0.2-0.3c0.1-0.1,0.2-0.3,0.2-0.5c0-0.1,0-0.2,0.1-0.3c0,0,0,0,0,0c0-0.1,0.1-0.1,0.1-0.2
					c0-0.1,0.1-0.1,0.1-0.1c0,0,0,0,0,0c0.1-0.1,0.2-0.1,0.3-0.1c0.1-0.1,0.3-0.2,0.5-0.3c0.1-0.1,0.1-0.1,0.2-0.2c0,0,0,0,0,0
					c0,0,0.1-0.1,0.2-0.1c0.1,0,0.1,0,0.2,0c0,0,0,0,0.1,0c0.1,0,0.2,0,0.3,0c0.2,0,0.4,0,0.6-0.1c0.1,0,0.2-0.1,0.3-0.1
					c0,0,0,0,0.1,0c0.1,0,0.1,0,0.2,0c0.1,0,0.1,0,0.2,0.1c0,0,0,0,0,0c0.1,0,0.2,0.1,0.3,0.2c0.1,0.1,0.3,0.2,0.5,0.2
					c0.1,0,0.2,0,0.3,0.1c0,0,0,0,0,0c0.1,0,0.1,0.1,0.2,0.1c0.1,0,0.1,0.1,0.1,0.1c0,0,0,0,0,0c0,0,0,0,0,0c0,0,0-0.1-0.1-0.1
					c0,0,0,0,0,0c0,0-0.1-0.1-0.1-0.1c-0.1-0.1-0.1-0.1-0.2-0.1c0,0,0,0,0,0c-0.1,0-0.2-0.1-0.3-0.1c-0.2,0-0.4-0.1-0.5-0.2
					c-0.1-0.1-0.2-0.1-0.3-0.2c0,0,0,0,0,0c0,0-0.1,0-0.2-0.1c-0.1,0-0.1,0-0.2,0c0,0,0,0-0.1,0c-0.1,0-0.2,0-0.3,0.1
					c-0.2,0.1-0.4,0.1-0.6,0.1c-0.1,0-0.2,0-0.3,0c0,0,0,0-0.1,0c-0.1,0-0.1,0-0.2,0c-0.1,0-0.1,0.1-0.2,0.1c0,0,0,0,0,0
					c-0.1,0.1-0.2,0.1-0.2,0.2c-0.2,0.2-0.3,0.3-0.5,0.3c-0.1,0-0.2,0.1-0.3,0.1c0,0,0,0,0,0c0,0-0.1,0.1-0.1,0.1
					c-0.1,0.1-0.1,0.1-0.1,0.2c0,0,0,0,0,0c0,0.1-0.1,0.2-0.1,0.3c0,0.2-0.1,0.4-0.2,0.5c-0.1,0.1-0.1,0.2-0.2,0.3c0,0,0,0,0,0
					c0,0,0,0.1-0.1,0.2c0,0.1,0,0.1,0,0.2c0,0,0,0,0,0.1c0,0.1,0,0.2,0.1,0.3c0.1,0.2,0.1,0.4,0.1,0.6c0,0.1,0,0.2,0,0.3
					c0,0,0,0,0,0.1c0,0.1,0,0.1,0,0.2C145.6,139.7,145.6,139.8,145.7,139.9C145.7,139.9,145.7,139.9,145.7,139.9
					C145.7,139.9,145.7,139.9,145.7,139.9C145.7,140,145.7,139.9,145.7,139.9"/>
			</g>
		</g>
		<g opacity="0.25">
			<g>
				<defs>
					
						<rect id="SVGID_82_" x="146.6" y="136.7" transform="matrix(-0.9871 -0.1603 0.1603 -0.9871 274.1693 300.7693)" width="5.3" height="5.2"/>
				</defs>
				<clipPath id="SVGID_83_">
					<use xlink:href="#SVGID_82_"  overflow="visible"/>
				</clipPath>
				<path clip-path="url(#SVGID_83_)" fill="#797C7D" d="M151.6,137.1c0,0,0.1,0.1,0.1,0.2c0,0.1,0,0.1,0,0.2c0,0,0,0,0,0.1
					c0,0.1,0,0.2,0,0.3c0,0.2,0,0.4,0.1,0.6c0,0.1,0.1,0.2,0.1,0.3c0,0,0,0,0,0.1c0,0.1,0,0.1,0,0.2c0,0.1,0,0.1-0.1,0.2
					c0,0,0,0,0,0c0,0.1-0.1,0.2-0.2,0.3c-0.1,0.1-0.2,0.3-0.2,0.5c0,0.1,0,0.2-0.1,0.3c0,0,0,0,0,0c0,0.1-0.1,0.1-0.1,0.2
					c0,0.1-0.1,0.1-0.1,0.1c0,0,0,0,0,0c-0.1,0.1-0.2,0.1-0.3,0.1c-0.1,0.1-0.3,0.2-0.5,0.3c-0.1,0.1-0.1,0.1-0.2,0.2c0,0,0,0,0,0
					c0,0-0.1,0.1-0.2,0.1c-0.1,0-0.1,0-0.2,0c0,0,0,0-0.1,0c-0.1,0-0.2,0-0.3,0c-0.2,0-0.4,0-0.6,0.1c-0.1,0-0.2,0.1-0.3,0.1
					c0,0,0,0-0.1,0c-0.1,0-0.1,0-0.2,0c-0.1,0-0.1,0-0.2-0.1c0,0,0,0,0,0c-0.1,0-0.2-0.1-0.3-0.2c-0.1-0.1-0.3-0.2-0.5-0.2
					c-0.1,0-0.2,0-0.3-0.1c0,0,0,0,0,0c-0.1,0-0.1-0.1-0.2-0.1c-0.1,0-0.1-0.1-0.1-0.1c0,0,0,0,0,0c0,0,0,0,0,0c0,0,0,0.1,0.1,0.1
					c0,0,0,0,0,0c0,0,0.1,0.1,0.1,0.1c0.1,0.1,0.1,0.1,0.2,0.1c0,0,0,0,0,0c0.1,0,0.2,0.1,0.3,0.1c0.2,0,0.4,0.1,0.5,0.2
					c0.1,0.1,0.2,0.1,0.3,0.2c0,0,0,0,0,0c0,0,0.1,0,0.2,0.1c0.1,0,0.1,0,0.2,0c0,0,0,0,0.1,0c0.1,0,0.2,0,0.3-0.1
					c0.2-0.1,0.4-0.1,0.6-0.1c0.1,0,0.2,0,0.3,0c0,0,0,0,0.1,0c0.1,0,0.1,0,0.2,0c0.1,0,0.1-0.1,0.2-0.1c0,0,0,0,0,0
					c0.1-0.1,0.2-0.1,0.2-0.2c0.2-0.2,0.3-0.3,0.5-0.3c0.1,0,0.2-0.1,0.3-0.1c0,0,0,0,0,0c0,0,0.1-0.1,0.2-0.1
					c0.1-0.1,0.1-0.1,0.1-0.2c0,0,0,0,0,0c0-0.1,0.1-0.2,0.1-0.3c0-0.2,0.1-0.4,0.2-0.5c0.1-0.1,0.1-0.2,0.2-0.3c0,0,0,0,0,0
					c0,0,0-0.1,0.1-0.2c0-0.1,0-0.1,0-0.2c0,0,0,0,0-0.1c0-0.1,0-0.2-0.1-0.3c-0.1-0.2-0.1-0.4-0.1-0.6c0-0.1,0-0.2,0-0.3
					c0,0,0,0,0-0.1c0-0.1,0-0.1,0-0.2C151.8,137.3,151.7,137.2,151.6,137.1C151.7,137.2,151.7,137.2,151.6,137.1
					C151.6,137.1,151.6,137.1,151.6,137.1C151.6,137.1,151.6,137.1,151.6,137.1"/>
			</g>
		</g>
		<path fill="#CDCFCE" d="M151.3,139c-0.2,1.5-1.6,2.5-3.1,2.2c-1.5-0.2-2.5-1.6-2.2-3.1c0.2-1.5,1.6-2.5,3.1-2.2
			C150.6,136.1,151.6,137.5,151.3,139"/>
		<g opacity="0.75">
			<g>
				<defs>
					
						<rect id="SVGID_84_" x="146.3" y="140.4" transform="matrix(-0.9871 -0.1603 0.1603 -0.9871 270.1411 304.777)" width="2.2" height="2.3"/>
				</defs>
				<clipPath id="SVGID_85_">
					<use xlink:href="#SVGID_84_"  overflow="visible"/>
				</clipPath>
				<path clip-path="url(#SVGID_85_)" fill="#ACACAC" d="M147,140.3l-0.8,1.6l0.8,0.2c0,0,0.4,0.5,0.7,0.7c0.4-0.8,0.8-1.7,0.8-1.7
					L147,140.3z"/>
			</g>
		</g>
		<g>
			<defs>
				<polygon id="SVGID_86_" points="146.2,141.8 147.1,142 147.7,142.6 148.5,141 147,140.2 				"/>
			</defs>
			<clipPath id="SVGID_87_">
				<use xlink:href="#SVGID_86_"  overflow="visible"/>
			</clipPath>
			
				<linearGradient id="SVGID_88_" gradientUnits="userSpaceOnUse" x1="-80.0247" y1="-135.2492" x2="-79.9812" y2="-135.2492" gradientTransform="matrix(17.8963 -34.5277 -34.5277 -17.8963 -3090.8748 -5041.042)">
				<stop  offset="0" style="stop-color:#BBBFC2"/>
				<stop  offset="0.6545" style="stop-color:#D5D8DA"/>
				<stop  offset="1" style="stop-color:#EBEBED"/>
			</linearGradient>
			<polygon clip-path="url(#SVGID_87_)" fill="url(#SVGID_88_)" points="145.5,142 146.8,139.6 149.2,140.8 148,143.3 			"/>
		</g>
		<g opacity="0.25">
			<g>
				<defs>
					
						<rect id="SVGID_89_" x="146.2" y="140.8" transform="matrix(-0.9871 -0.1603 0.1603 -0.9871 270.0153 305.1778)" width="2.2" height="1.7"/>
				</defs>
				<clipPath id="SVGID_90_">
					<use xlink:href="#SVGID_89_"  overflow="visible"/>
				</clipPath>
				<polygon clip-path="url(#SVGID_90_)" fill="#758082" points="147.7,142.5 148.5,141 148.5,141 147.7,142.6 147.1,142 
					146.2,141.8 146.2,141.8 147.1,141.9 				"/>
			</g>
		</g>
		<g opacity="0.7">
			<g>
				<defs>
					
						<rect id="SVGID_91_" x="146.3" y="140.2" transform="matrix(-0.9871 -0.1603 0.1603 -0.9871 268.7131 303.7613)" width="0.6" height="1.7"/>
				</defs>
				<clipPath id="SVGID_92_">
					<use xlink:href="#SVGID_91_"  overflow="visible"/>
				</clipPath>
				<g clip-path="url(#SVGID_92_)">
					<defs>
						<polygon id="SVGID_93_" points="147,140.3 146.2,141.8 146.2,141.8 147,140.2 						"/>
					</defs>
					<clipPath id="SVGID_94_">
						<use xlink:href="#SVGID_93_"  overflow="visible"/>
					</clipPath>
					
						<linearGradient id="SVGID_95_" gradientUnits="userSpaceOnUse" x1="-79.7825" y1="-135.5014" x2="-79.739" y2="-135.5014" gradientTransform="matrix(18.8002 -36.2715 -36.2715 -18.8002 -3268.7153 -5299.4429)">
						<stop  offset="0" style="stop-color:#CAE3E4"/>
						<stop  offset="8.325380e-002" style="stop-color:#CDE5E8"/>
						<stop  offset="0.1758" style="stop-color:#D3E8E9"/>
						<stop  offset="0.3756" style="stop-color:#CDE5E8"/>
						<stop  offset="0.6135" style="stop-color:#CAE3E5"/>
						<stop  offset="1" style="stop-color:#C8E2E4"/>
					</linearGradient>
					<polygon clip-path="url(#SVGID_94_)" fill="url(#SVGID_95_)" points="145.7,141.6 146.5,140 147.5,140.5 146.7,142.1 					"/>
				</g>
			</g>
		</g>
		<g opacity="0.75">
			<g>
				<defs>
					
						<rect id="SVGID_96_" x="147.9" y="140.5" transform="matrix(-0.9871 -0.1603 0.1603 -0.9871 273.3935 305.2241)" width="2.2" height="2.2"/>
				</defs>
				<clipPath id="SVGID_97_">
					<use xlink:href="#SVGID_96_"  overflow="visible"/>
				</clipPath>
				<path clip-path="url(#SVGID_97_)" fill="#ACACAC" d="M149.7,140.6l0.3,1.8l-0.9-0.2c0,0-0.6,0.3-0.9,0.4
					c-0.1-0.9-0.2-1.7-0.2-1.7L149.7,140.6z"/>
			</g>
		</g>
		<g>
			<defs>
				<polygon id="SVGID_98_" points="147.9,140.8 148.2,142.5 149,142.1 149.9,142.3 149.6,140.5 				"/>
			</defs>
			<clipPath id="SVGID_99_">
				<use xlink:href="#SVGID_98_"  overflow="visible"/>
			</clipPath>
			
				<linearGradient id="SVGID_100_" gradientUnits="userSpaceOnUse" x1="-80.6" y1="-133.7856" x2="-80.5564" y2="-133.7856" gradientTransform="matrix(-6.0499 -38.4163 38.4163 -6.0499 4801.0317 -3763.0488)">
				<stop  offset="0" style="stop-color:#BBBFC2"/>
				<stop  offset="0.6545" style="stop-color:#D5D8DA"/>
				<stop  offset="1" style="stop-color:#EBEBED"/>
			</linearGradient>
			<polygon clip-path="url(#SVGID_99_)" fill="url(#SVGID_100_)" points="150.5,142.7 150.1,139.9 147.3,140.4 147.8,143.1 			"/>
		</g>
		<g opacity="0.25">
			<g>
				<defs>
					
						<rect id="SVGID_101_" x="147.8" y="140.9" transform="matrix(-0.9871 -0.1603 0.1603 -0.9871 273.0944 305.6093)" width="2.2" height="1.7"/>
				</defs>
				<clipPath id="SVGID_102_">
					<use xlink:href="#SVGID_101_"  overflow="visible"/>
				</clipPath>
				<polygon clip-path="url(#SVGID_102_)" fill="#758082" points="148.2,142.5 148,140.8 147.9,140.8 148.2,142.5 149,142.1 
					149.9,142.3 149.9,142.2 149,142.1 				"/>
			</g>
		</g>
		<g opacity="0.7">
			<g>
				<defs>
					
						<rect id="SVGID_103_" x="149.5" y="140.5" transform="matrix(-0.9871 -0.1603 0.1603 -0.9871 274.9055 304.9597)" width="0.6" height="1.7"/>
				</defs>
				<clipPath id="SVGID_104_">
					<use xlink:href="#SVGID_103_"  overflow="visible"/>
				</clipPath>
				<g clip-path="url(#SVGID_104_)">
					<defs>
						<polygon id="SVGID_105_" points="149.6,140.5 149.9,142.2 149.9,142.3 149.6,140.5 						"/>
					</defs>
					<clipPath id="SVGID_106_">
						<use xlink:href="#SVGID_105_"  overflow="visible"/>
					</clipPath>
					
						<linearGradient id="SVGID_107_" gradientUnits="userSpaceOnUse" x1="-80.3299" y1="-134.1081" x2="-80.2864" y2="-134.1081" gradientTransform="matrix(-6.3556 -40.3577 40.3577 -6.3556 5051.6367 -3951.9905)">
						<stop  offset="0" style="stop-color:#DDBCD5"/>
						<stop  offset="8.325380e-002" style="stop-color:#E0C2D9"/>
						<stop  offset="0.1758" style="stop-color:#E3C9DD"/>
						<stop  offset="0.3756" style="stop-color:#E0C2D9"/>
						<stop  offset="0.6135" style="stop-color:#DDBCD6"/>
						<stop  offset="1" style="stop-color:#DCBBD5"/>
					</linearGradient>
					<polygon clip-path="url(#SVGID_106_)" fill="url(#SVGID_107_)" points="150.4,142.2 150.2,140.4 149.1,140.6 149.4,142.4 					
						"/>
				</g>
			</g>
		</g>
		<g>
			<defs>
				<path id="SVGID_108_" d="M146,138.1c-0.2,1.4,0.7,2.8,2.2,3c1.4,0.2,2.8-0.7,3-2.2c0.2-1.4-0.7-2.8-2.2-3
					C147.6,135.7,146.3,136.6,146,138.1"/>
			</defs>
			<clipPath id="SVGID_109_">
				<use xlink:href="#SVGID_108_"  overflow="visible"/>
			</clipPath>
			
				<linearGradient id="SVGID_110_" gradientUnits="userSpaceOnUse" x1="-74.0426" y1="-128.58" x2="-73.9991" y2="-128.58" gradientTransform="matrix(-71.2043 -98.8161 -98.8161 71.2043 -17827.7051 1979.5107)">
				<stop  offset="0" style="stop-color:#D7D8DA"/>
				<stop  offset="0.6545" style="stop-color:#E8EAEC"/>
				<stop  offset="1" style="stop-color:#F5F6F6"/>
			</linearGradient>
			<polygon clip-path="url(#SVGID_109_)" fill="url(#SVGID_110_)" points="147.8,143.7 143.4,137.7 149.5,133.3 153.9,139.4 			"/>
		</g>
		<g opacity="0.5">
			<g>
				<defs>
					
						<rect id="SVGID_111_" x="146.2" y="135.8" transform="matrix(-0.9871 -0.1603 0.1603 -0.9871 272.3035 296.9576)" width="3.9" height="3.5"/>
				</defs>
				<clipPath id="SVGID_112_">
					<use xlink:href="#SVGID_111_"  overflow="visible"/>
				</clipPath>
				<path clip-path="url(#SVGID_112_)" fill="#FFFFFF" d="M146.1,138.3c0.2-1.5,1.6-2.5,3.1-2.3c0.4,0.1,0.8,0.2,1.1,0.4
					c-0.3-0.3-0.7-0.4-1.2-0.5c-1.4-0.2-2.8,0.7-3,2.2c0,0.3,0,0.5,0,0.8C146,138.7,146,138.5,146.1,138.3"/>
			</g>
		</g>
		<g opacity="0.25">
			<g>
				<defs>
					
						<rect id="SVGID_113_" x="147.2" y="137.8" transform="matrix(-0.9871 -0.1603 0.1603 -0.9871 274.0938 301.1937)" width="3.9" height="3.5"/>
				</defs>
				<clipPath id="SVGID_114_">
					<use xlink:href="#SVGID_113_"  overflow="visible"/>
				</clipPath>
				<path clip-path="url(#SVGID_114_)" fill="#758082" d="M151.3,138.8c-0.2,1.5-1.6,2.5-3.1,2.3c-0.4-0.1-0.8-0.2-1.1-0.4
					c0.3,0.3,0.7,0.4,1.2,0.5c1.4,0.2,2.8-0.7,3-2.2c0-0.3,0-0.5,0-0.8C151.3,138.3,151.3,138.6,151.3,138.8"/>
			</g>
		</g>
		<g>
			<g>
				<defs>
					
						<rect id="SVGID_115_" x="145.3" y="135.2" transform="matrix(-0.9871 -0.1603 0.1603 -0.9871 273.0733 300.027)" width="6.7" height="7.6"/>
				</defs>
				<clipPath id="SVGID_116_">
					<use xlink:href="#SVGID_115_"  overflow="visible"/>
				</clipPath>
				<path clip-path="url(#SVGID_116_)" fill="#6CB376" d="M152,139C152,139,152,138.9,152,139c0-0.2,0-0.3-0.1-0.4
					c-0.1-0.2-0.1-0.4-0.1-0.6c0-0.1,0-0.2,0-0.3c0,0,0,0,0-0.1c0-0.1,0-0.1,0-0.2c0-0.1-0.1-0.1-0.1-0.2c0,0,0,0,0,0
					c-0.1-0.1-0.1-0.1-0.2-0.2c0-0.1-0.1-0.1-0.1-0.1c0,0,0,0,0,0c-0.1-0.1-0.2-0.2-0.2-0.3c0-0.1-0.1-0.2-0.1-0.3c0,0,0,0,0,0
					c0,0-0.1-0.1-0.1-0.1c0,0-0.1-0.1-0.1-0.1c-0.1-0.1-0.1-0.1-0.2-0.1c0,0,0,0,0,0c-0.1,0-0.2-0.1-0.3-0.1c-0.2,0-0.4-0.1-0.5-0.2
					c-0.1-0.1-0.2-0.1-0.3-0.2c0,0,0,0,0,0c0,0-0.1,0-0.2-0.1c-0.1,0-0.1,0-0.2,0c0,0,0,0-0.1,0c-0.1,0-0.2,0-0.3,0.1
					c-0.2,0.1-0.4,0.1-0.6,0.1c-0.1,0-0.2,0-0.3,0c0,0,0,0-0.1,0c-0.1,0-0.1,0-0.2,0c-0.1,0-0.1,0.1-0.2,0.1c0,0,0,0,0,0
					c-0.1,0.1-0.2,0.1-0.2,0.2c-0.2,0.2-0.3,0.3-0.5,0.3c-0.1,0-0.2,0.1-0.3,0.1c0,0,0,0,0,0c0,0-0.1,0.1-0.1,0.1
					c-0.1,0.1-0.1,0.1-0.1,0.2c0,0,0,0,0,0c0,0.1-0.1,0.2-0.1,0.3c0,0.2-0.1,0.4-0.2,0.5c-0.1,0.1-0.1,0.2-0.2,0.3c0,0,0,0,0,0
					c0,0,0,0.1-0.1,0.2c0,0.1,0,0.1,0,0.2c0,0,0,0,0,0.1c0,0.1,0,0.2,0.1,0.3c0.1,0.2,0.1,0.4,0.1,0.6c0,0.1,0,0.2,0,0.3
					c0,0,0,0,0,0.1c0,0.1,0,0.1,0,0.2c0,0.1,0.1,0.1,0.1,0.2c0,0,0,0,0,0c0.1,0.1,0.1,0.1,0.2,0.2c0,0.1,0.1,0.1,0.1,0.1
					c0,0,0,0,0,0c0.1,0.1,0.2,0.2,0.2,0.3c0,0.1,0.1,0.2,0.1,0.3c0,0,0,0,0,0c0,0,0,0,0,0c0,0,0.1,0.1,0.1,0.1c0,0,0,0,0,0.1
					l-0.4,0.7l0,0l0,0l0.8,0.2c0,0,0.4,0.5,0.7,0.7c0.1-0.3,0.3-0.5,0.4-0.8l0.1,0.6l0,0c0,0,0,0,0,0c0.3-0.1,0.9-0.4,0.9-0.4
					l0.9,0.2l-0.1-0.6c0,0,0,0,0,0c0.1,0,0.1-0.1,0.2-0.1c0,0,0,0,0,0c0.1-0.1,0.2-0.1,0.2-0.2c0.2-0.2,0.3-0.3,0.5-0.3
					c0.1,0,0.2-0.1,0.3-0.1c0,0,0,0,0,0c0,0,0.1-0.1,0.1-0.1c0.1-0.1,0.1-0.1,0.1-0.2c0,0,0,0,0,0c0-0.1,0.1-0.2,0.1-0.3
					c0-0.2,0.1-0.4,0.2-0.5c0.1-0.1,0.1-0.2,0.2-0.3c0,0,0,0,0,0c0,0,0-0.1,0.1-0.2C152,139.1,152,139,152,139"/>
			</g>
		</g>
	</g>
	<g>
		<g opacity="0.75">
			<g>
				<defs>
					
						<rect id="SVGID_117_" x="153" y="136.5" transform="matrix(-0.9871 -0.1603 0.1603 -0.9871 288.1795 302.9289)" width="6.6" height="6.6"/>
				</defs>
				<clipPath id="SVGID_118_">
					<use xlink:href="#SVGID_117_"  overflow="visible"/>
				</clipPath>
				<path clip-path="url(#SVGID_118_)" fill="#ACACAC" d="M159.6,140.2C159.6,140.2,159.6,140.2,159.6,140.2c0-0.2,0-0.3-0.1-0.4
					c-0.1-0.2-0.1-0.4-0.1-0.6c0-0.1,0-0.2,0-0.3c0,0,0,0,0-0.1c0-0.1,0-0.1,0-0.2c0-0.1-0.1-0.1-0.1-0.2c0,0,0,0,0,0
					c-0.1-0.1-0.1-0.2-0.2-0.2c-0.2-0.2-0.3-0.3-0.3-0.5c0-0.1-0.1-0.2-0.1-0.3c0,0,0,0,0,0c0,0-0.1-0.1-0.1-0.1
					c-0.1-0.1-0.1-0.1-0.2-0.1c0,0,0,0,0,0c-0.1,0-0.2-0.1-0.3-0.1c-0.2,0-0.4-0.1-0.5-0.2c-0.1-0.1-0.2-0.1-0.3-0.2c0,0,0,0,0,0
					c0,0-0.1,0-0.2-0.1c-0.1,0-0.1,0-0.2,0c0,0,0,0-0.1,0c-0.1,0-0.2,0-0.3,0.1c-0.2,0.1-0.4,0.1-0.6,0.1c-0.1,0-0.2,0-0.3,0
					c0,0,0,0-0.1,0c-0.1,0-0.1,0-0.2,0c-0.1,0-0.1,0.1-0.2,0.1c0,0,0,0,0,0c-0.1,0.1-0.2,0.1-0.2,0.2c-0.2,0.2-0.3,0.3-0.5,0.3
					c-0.1,0-0.2,0.1-0.3,0.1c0,0,0,0,0,0c0,0-0.1,0.1-0.1,0.1c-0.1,0.1-0.1,0.1-0.1,0.2c0,0,0,0,0,0c0,0.1-0.1,0.2-0.1,0.3
					c0,0.2-0.1,0.4-0.2,0.5c-0.1,0.1-0.1,0.2-0.2,0.3c0,0,0,0,0,0c0,0,0,0.1-0.1,0.2c0,0.1,0,0.1,0,0.2c0,0,0,0,0,0.1
					c0,0.1,0,0.2,0.1,0.3c0.1,0.2,0.1,0.4,0.1,0.6c0,0.1,0,0.2,0,0.3c0,0,0,0,0,0.1c0,0.1,0,0.1,0,0.2c0,0.1,0.1,0.1,0.1,0.2
					c0,0,0,0,0,0c0.1,0.1,0.1,0.2,0.2,0.2c0.2,0.2,0.3,0.3,0.3,0.5c0,0.1,0.1,0.2,0.1,0.3c0,0,0,0,0,0c0,0,0.1,0.1,0.1,0.1
					c0.1,0.1,0.1,0.1,0.2,0.1c0,0,0,0,0,0c0.1,0,0.2,0.1,0.3,0.1c0.2,0,0.4,0.1,0.5,0.2c0.1,0.1,0.2,0.1,0.3,0.2c0,0,0,0,0,0
					c0,0,0.1,0,0.2,0.1c0.1,0,0.1,0,0.2,0c0,0,0,0,0.1,0c0.1,0,0.2,0,0.3-0.1c0.2-0.1,0.4-0.1,0.6-0.1c0.1,0,0.2,0,0.3,0
					c0,0,0,0,0.1,0c0.1,0,0.1,0,0.2,0c0.1,0,0.1-0.1,0.2-0.1c0,0,0,0,0,0c0.1-0.1,0.2-0.1,0.2-0.2c0.2-0.2,0.3-0.3,0.5-0.3
					c0.1,0,0.2-0.1,0.3-0.1c0,0,0,0,0,0c0,0,0.1-0.1,0.1-0.1c0.1-0.1,0.1-0.1,0.1-0.2c0,0,0,0,0,0c0-0.1,0.1-0.2,0.1-0.3
					c0-0.2,0.1-0.4,0.2-0.5c0.1-0.1,0.1-0.2,0.2-0.3c0,0,0,0,0,0c0,0,0-0.1,0.1-0.2C159.6,140.3,159.6,140.3,159.6,140.2"/>
			</g>
		</g>
		<g>
			<defs>
				<path id="SVGID_119_" d="M156.6,136.5C156.6,136.5,156.5,136.5,156.6,136.5c-0.2,0-0.3,0-0.4,0.1c-0.2,0.1-0.4,0.1-0.6,0.1
					c-0.1,0-0.2,0-0.3,0c0,0,0,0-0.1,0c-0.1,0-0.1,0-0.2,0c-0.1,0-0.1,0.1-0.2,0.1c0,0,0,0,0,0c-0.1,0.1-0.2,0.1-0.2,0.2
					c-0.2,0.2-0.3,0.3-0.5,0.3c-0.1,0-0.2,0.1-0.3,0.1c0,0,0,0,0,0c0,0-0.1,0.1-0.1,0.1c-0.1,0.1-0.1,0.1-0.1,0.2c0,0,0,0,0,0
					c0,0.1-0.1,0.2-0.1,0.3c0,0.2-0.1,0.4-0.2,0.5c-0.1,0.1-0.1,0.2-0.2,0.3c0,0,0,0,0,0c0,0,0,0.1-0.1,0.2c0,0.1,0,0.1,0,0.2
					c0,0,0,0,0,0.1c0,0.1,0,0.2,0.1,0.3c0.1,0.2,0.1,0.4,0.1,0.6c0,0.1,0,0.2,0,0.3c0,0,0,0,0,0.1c0,0.1,0,0.1,0,0.2
					c0,0.1,0.1,0.1,0.1,0.2c0,0,0,0,0,0c0.1,0.1,0.1,0.2,0.2,0.2c0.2,0.2,0.3,0.3,0.3,0.5c0,0.1,0.1,0.2,0.1,0.3c0,0,0,0,0,0
					c0,0,0.1,0.1,0.1,0.1c0.1,0.1,0.1,0.1,0.2,0.1c0,0,0,0,0,0c0.1,0,0.2,0.1,0.3,0.1c0.2,0,0.4,0.1,0.5,0.2
					c0.1,0.1,0.2,0.1,0.3,0.2c0,0,0,0,0,0c0,0,0.1,0,0.2,0.1c0.1,0,0.1,0,0.2,0c0,0,0,0,0.1,0c0.1,0,0.2,0,0.3-0.1
					c0.2-0.1,0.4-0.1,0.6-0.1c0.1,0,0.2,0,0.3,0c0,0,0,0,0.1,0c0.1,0,0.1,0,0.2,0c0.1,0,0.1-0.1,0.2-0.1c0,0,0,0,0,0
					c0.1-0.1,0.2-0.1,0.2-0.2c0.2-0.2,0.3-0.3,0.5-0.3c0.1,0,0.2-0.1,0.3-0.1c0,0,0,0,0,0c0,0,0.1-0.1,0.1-0.1
					c0.1-0.1,0.1-0.1,0.1-0.2c0,0,0,0,0,0c0-0.1,0.1-0.2,0.1-0.3c0-0.2,0.1-0.4,0.2-0.5c0.1-0.1,0.1-0.2,0.2-0.3c0,0,0,0,0,0
					c0,0,0-0.1,0.1-0.2c0-0.1,0-0.1,0-0.2c0,0,0,0,0-0.1c0-0.1,0-0.2-0.1-0.3c-0.1-0.2-0.1-0.4-0.1-0.6c0-0.1,0-0.2,0-0.3
					c0,0,0,0,0-0.1c0-0.1,0-0.1,0-0.2c0-0.1-0.1-0.1-0.1-0.2c0,0,0,0,0,0c-0.1-0.1-0.1-0.2-0.2-0.2c-0.2-0.2-0.3-0.3-0.3-0.5
					c0-0.1-0.1-0.2-0.1-0.3c0,0,0,0,0,0c0,0-0.1-0.1-0.1-0.1c-0.1-0.1-0.1-0.1-0.2-0.1c0,0,0,0,0,0c-0.1,0-0.2-0.1-0.3-0.1
					c-0.2,0-0.4-0.1-0.5-0.2c-0.1-0.1-0.2-0.1-0.3-0.2c0,0,0,0,0,0c0,0-0.1,0-0.2-0.1c0,0,0,0,0,0
					C156.7,136.5,156.6,136.5,156.6,136.5"/>
			</defs>
			<clipPath id="SVGID_120_">
				<use xlink:href="#SVGID_119_"  overflow="visible"/>
			</clipPath>
			
				<linearGradient id="SVGID_121_" gradientUnits="userSpaceOnUse" x1="-72.7665" y1="-128.3412" x2="-72.723" y2="-128.3412" gradientTransform="matrix(-89.2279 -123.8289 -123.8289 89.2279 -22227.0742 2583.3401)">
				<stop  offset="0" style="stop-color:#BBBFC2"/>
				<stop  offset="0.6545" style="stop-color:#D5D8DA"/>
				<stop  offset="1" style="stop-color:#EBEBED"/>
			</linearGradient>
			<polygon clip-path="url(#SVGID_120_)" fill="url(#SVGID_121_)" points="155.2,146.3 149.7,138.7 157.3,133.2 162.8,140.8 			"/>
		</g>
		<g opacity="0.25">
			<g>
				<defs>
					
						<rect id="SVGID_122_" x="153" y="136.3" transform="matrix(-0.9871 -0.1603 0.1603 -0.9871 287.0412 301.0307)" width="5.3" height="5.2"/>
				</defs>
				<clipPath id="SVGID_123_">
					<use xlink:href="#SVGID_122_"  overflow="visible"/>
				</clipPath>
				<path clip-path="url(#SVGID_123_)" fill="#FFFFFF" d="M153.3,141.2c0,0-0.1-0.1-0.1-0.2c0-0.1,0-0.1,0-0.2c0,0,0,0,0-0.1
					c0-0.1,0-0.2,0-0.3c0-0.2,0-0.4-0.1-0.6c0-0.1-0.1-0.2-0.1-0.3c0,0,0,0,0-0.1c0-0.1,0-0.1,0-0.2c0-0.1,0-0.1,0.1-0.2
					c0,0,0,0,0,0c0-0.1,0.1-0.2,0.2-0.3c0.1-0.1,0.2-0.3,0.2-0.5c0-0.1,0-0.2,0.1-0.3c0,0,0,0,0,0c0-0.1,0.1-0.1,0.1-0.2
					c0-0.1,0.1-0.1,0.1-0.1c0,0,0,0,0,0c0.1-0.1,0.2-0.1,0.3-0.1c0.1-0.1,0.3-0.2,0.5-0.3c0.1-0.1,0.1-0.1,0.2-0.2c0,0,0,0,0,0
					c0,0,0.1-0.1,0.2-0.1c0.1,0,0.1,0,0.2,0c0,0,0,0,0.1,0c0.1,0,0.2,0,0.3,0c0.2,0,0.4,0,0.6-0.1c0.1,0,0.2-0.1,0.3-0.1
					c0,0,0,0,0.1,0c0.1,0,0.1,0,0.2,0c0.1,0,0.1,0,0.2,0.1c0,0,0,0,0,0c0.1,0,0.2,0.1,0.3,0.2c0.1,0.1,0.3,0.2,0.5,0.2
					c0.1,0,0.2,0,0.3,0.1c0,0,0,0,0,0c0.1,0,0.1,0.1,0.2,0.1c0.1,0,0.1,0.1,0.1,0.1c0,0,0,0,0,0c0,0,0,0,0,0c0,0,0-0.1-0.1-0.1
					c0,0,0,0,0,0c0,0-0.1-0.1-0.1-0.1c-0.1-0.1-0.1-0.1-0.2-0.1c0,0,0,0,0,0c-0.1,0-0.2-0.1-0.3-0.1c-0.2,0-0.4-0.1-0.5-0.2
					c-0.1-0.1-0.2-0.1-0.3-0.2c0,0,0,0,0,0c0,0-0.1,0-0.2-0.1c-0.1,0-0.1,0-0.2,0c0,0,0,0-0.1,0c-0.1,0-0.2,0-0.3,0.1
					c-0.2,0.1-0.4,0.1-0.6,0.1c-0.1,0-0.2,0-0.3,0c0,0,0,0-0.1,0c-0.1,0-0.1,0-0.2,0c-0.1,0-0.1,0.1-0.2,0.1c0,0,0,0,0,0
					c-0.1,0.1-0.2,0.1-0.2,0.2c-0.2,0.2-0.3,0.3-0.5,0.3c-0.1,0-0.2,0.1-0.3,0.1c0,0,0,0,0,0c0,0-0.1,0.1-0.1,0.1
					c-0.1,0.1-0.1,0.1-0.1,0.2c0,0,0,0,0,0c0,0.1-0.1,0.2-0.1,0.3c0,0.2-0.1,0.4-0.2,0.5c-0.1,0.1-0.1,0.2-0.2,0.3c0,0,0,0,0,0
					c0,0,0,0.1-0.1,0.2c0,0.1,0,0.1,0,0.2c0,0,0,0,0,0.1c0,0.1,0,0.2,0.1,0.3c0.1,0.2,0.1,0.4,0.1,0.6c0,0.1,0,0.2,0,0.3
					c0,0,0,0,0,0.1c0,0.1,0,0.1,0,0.2C153.1,141,153.2,141,153.3,141.2C153.2,141.1,153.2,141.1,153.3,141.2
					C153.2,141.1,153.3,141.2,153.3,141.2C153.3,141.2,153.3,141.2,153.3,141.2"/>
			</g>
		</g>
		<g opacity="0.25">
			<g>
				<defs>
					
						<rect id="SVGID_124_" x="154.1" y="137.9" transform="matrix(-0.9871 -0.1603 0.1603 -0.9871 288.9828 304.4179)" width="5.3" height="5.2"/>
				</defs>
				<clipPath id="SVGID_125_">
					<use xlink:href="#SVGID_124_"  overflow="visible"/>
				</clipPath>
				<path clip-path="url(#SVGID_125_)" fill="#797C7D" d="M159.2,138.3c0,0,0.1,0.1,0.1,0.2c0,0.1,0,0.1,0,0.2c0,0,0,0,0,0.1
					c0,0.1,0,0.2,0,0.3c0,0.2,0,0.4,0.1,0.6c0,0.1,0.1,0.2,0.1,0.3c0,0,0,0,0,0.1c0,0.1,0,0.1,0,0.2c0,0.1,0,0.1-0.1,0.2
					c0,0,0,0,0,0c0,0.1-0.1,0.2-0.2,0.3c-0.1,0.1-0.2,0.3-0.2,0.5c0,0.1,0,0.2-0.1,0.3c0,0,0,0,0,0c0,0.1-0.1,0.1-0.1,0.2
					c0,0.1-0.1,0.1-0.1,0.1c0,0,0,0,0,0c-0.1,0.1-0.2,0.1-0.3,0.1c-0.1,0.1-0.3,0.2-0.5,0.3c-0.1,0.1-0.1,0.1-0.2,0.2c0,0,0,0,0,0
					c0,0-0.1,0.1-0.2,0.1c-0.1,0-0.1,0-0.2,0c0,0,0,0-0.1,0c-0.1,0-0.2,0-0.3,0c-0.2,0-0.4,0-0.6,0.1c-0.1,0-0.2,0.1-0.3,0.1
					c0,0,0,0-0.1,0c-0.1,0-0.1,0-0.2,0c-0.1,0-0.1,0-0.2-0.1c0,0,0,0,0,0c-0.1,0-0.2-0.1-0.3-0.2c-0.1-0.1-0.3-0.2-0.5-0.2
					c-0.1,0-0.2,0-0.3-0.1c0,0,0,0,0,0c-0.1,0-0.1-0.1-0.2-0.1c-0.1,0-0.1-0.1-0.1-0.1c0,0,0,0,0,0c0,0,0,0,0,0c0,0,0,0.1,0.1,0.1
					c0,0,0,0,0,0c0,0,0.1,0.1,0.1,0.1c0.1,0.1,0.1,0.1,0.2,0.1c0,0,0,0,0,0c0.1,0,0.2,0.1,0.3,0.1c0.2,0,0.4,0.1,0.5,0.2
					c0.1,0.1,0.2,0.1,0.3,0.2c0,0,0,0,0,0c0,0,0.1,0,0.2,0.1c0.1,0,0.1,0,0.2,0c0,0,0,0,0.1,0c0.1,0,0.2,0,0.3-0.1
					c0.2-0.1,0.4-0.1,0.6-0.1c0.1,0,0.2,0,0.3,0c0,0,0,0,0.1,0c0.1,0,0.1,0,0.2,0c0.1,0,0.1-0.1,0.2-0.1c0,0,0,0,0,0
					c0.1-0.1,0.2-0.1,0.2-0.2c0.2-0.2,0.3-0.3,0.5-0.3c0.1,0,0.2-0.1,0.3-0.1c0,0,0,0,0,0c0,0,0.1-0.1,0.2-0.1
					c0.1-0.1,0.1-0.1,0.1-0.2c0,0,0,0,0,0c0-0.1,0.1-0.2,0.1-0.3c0-0.2,0.1-0.4,0.2-0.5c0.1-0.1,0.1-0.2,0.2-0.3c0,0,0,0,0,0
					c0,0,0-0.1,0.1-0.2c0-0.1,0-0.1,0-0.2c0,0,0,0,0-0.1c0-0.1,0-0.2-0.1-0.3c-0.1-0.2-0.1-0.4-0.1-0.6c0-0.1,0-0.2,0-0.3
					c0,0,0,0,0-0.1c0-0.1,0-0.1,0-0.2C159.3,138.5,159.3,138.5,159.2,138.3C159.2,138.4,159.2,138.4,159.2,138.3
					C159.2,138.3,159.2,138.3,159.2,138.3C159.2,138.3,159.2,138.3,159.2,138.3"/>
			</g>
		</g>
		<path fill="#CDCFCE" d="M158.9,140.2c-0.2,1.5-1.6,2.5-3.1,2.2c-1.5-0.2-2.5-1.6-2.2-3.1c0.2-1.5,1.6-2.5,3.1-2.2
			C158.1,137.3,159.1,138.7,158.9,140.2"/>
		<g opacity="0.75">
			<g>
				<defs>
					
						<rect id="SVGID_126_" x="153.8" y="141.6" transform="matrix(-0.9871 -0.1603 0.1603 -0.9871 284.9545 308.4256)" width="2.2" height="2.3"/>
				</defs>
				<clipPath id="SVGID_127_">
					<use xlink:href="#SVGID_126_"  overflow="visible"/>
				</clipPath>
				<path clip-path="url(#SVGID_127_)" fill="#ACACAC" d="M154.6,141.5l-0.8,1.6l0.8,0.2c0,0,0.4,0.5,0.7,0.7
					c0.4-0.8,0.8-1.7,0.8-1.7L154.6,141.5z"/>
			</g>
		</g>
		<g>
			<defs>
				<polygon id="SVGID_128_" points="153.7,143.1 154.6,143.2 155.3,143.9 156.1,142.3 154.6,141.5 				"/>
			</defs>
			<clipPath id="SVGID_129_">
				<use xlink:href="#SVGID_128_"  overflow="visible"/>
			</clipPath>
			
				<linearGradient id="SVGID_130_" gradientUnits="userSpaceOnUse" x1="-81.2918" y1="-131.3893" x2="-81.2483" y2="-131.3893" gradientTransform="matrix(17.8963 -34.5277 -34.5277 -17.8963 -2927.3713 -5014.4883)">
				<stop  offset="0" style="stop-color:#BBBFC2"/>
				<stop  offset="0.6545" style="stop-color:#D5D8DA"/>
				<stop  offset="1" style="stop-color:#EBEBED"/>
			</linearGradient>
			<polygon clip-path="url(#SVGID_129_)" fill="url(#SVGID_130_)" points="153,143.3 154.3,140.8 156.8,142.1 155.5,144.5 			"/>
		</g>
		<g opacity="0.25">
			<g>
				<defs>
					
						<rect id="SVGID_131_" x="153.8" y="142.1" transform="matrix(-0.9871 -0.1603 0.1603 -0.9871 284.8287 308.8264)" width="2.2" height="1.7"/>
				</defs>
				<clipPath id="SVGID_132_">
					<use xlink:href="#SVGID_131_"  overflow="visible"/>
				</clipPath>
				<polygon clip-path="url(#SVGID_132_)" fill="#758082" points="155.3,143.8 156.1,142.3 156.1,142.3 155.3,143.9 154.6,143.2 
					153.7,143.1 153.8,143 154.7,143.1 				"/>
			</g>
		</g>
		<g opacity="0.7">
			<g>
				<defs>
					
						<rect id="SVGID_133_" x="153.9" y="141.4" transform="matrix(-0.9871 -0.1603 0.1603 -0.9871 283.5266 307.4099)" width="0.6" height="1.7"/>
				</defs>
				<clipPath id="SVGID_134_">
					<use xlink:href="#SVGID_133_"  overflow="visible"/>
				</clipPath>
				<g clip-path="url(#SVGID_134_)">
					<defs>
						<polygon id="SVGID_135_" points="154.6,141.5 153.8,143 153.7,143.1 154.6,141.5 						"/>
					</defs>
					<clipPath id="SVGID_136_">
						<use xlink:href="#SVGID_135_"  overflow="visible"/>
					</clipPath>
					
						<linearGradient id="SVGID_137_" gradientUnits="userSpaceOnUse" x1="-80.9887" y1="-131.8271" x2="-80.9452" y2="-131.8271" gradientTransform="matrix(18.8002 -36.2715 -36.2715 -18.8002 -3105.2119 -5272.8892)">
						<stop  offset="0" style="stop-color:#CAE3E4"/>
						<stop  offset="8.325380e-002" style="stop-color:#CDE5E8"/>
						<stop  offset="0.1758" style="stop-color:#D3E8E9"/>
						<stop  offset="0.3756" style="stop-color:#CDE5E8"/>
						<stop  offset="0.6135" style="stop-color:#CAE3E5"/>
						<stop  offset="1" style="stop-color:#C8E2E4"/>
					</linearGradient>
					<polygon clip-path="url(#SVGID_136_)" fill="url(#SVGID_137_)" points="153.3,142.8 154.1,141.2 155.1,141.7 154.2,143.3 					
						"/>
				</g>
			</g>
		</g>
		<g opacity="0.75">
			<g>
				<defs>
					
						<rect id="SVGID_138_" x="155.5" y="141.7" transform="matrix(-0.9871 -0.1603 0.1603 -0.9871 288.2069 308.8727)" width="2.2" height="2.2"/>
				</defs>
				<clipPath id="SVGID_139_">
					<use xlink:href="#SVGID_138_"  overflow="visible"/>
				</clipPath>
				<path clip-path="url(#SVGID_139_)" fill="#ACACAC" d="M157.3,141.8l0.3,1.8l-0.9-0.2c0,0-0.6,0.3-0.9,0.4
					c-0.1-0.9-0.2-1.7-0.2-1.7L157.3,141.8z"/>
			</g>
		</g>
		<g>
			<defs>
				<polygon id="SVGID_140_" points="155.5,142 155.8,143.8 156.6,143.3 157.5,143.5 157.2,141.7 				"/>
			</defs>
			<clipPath id="SVGID_141_">
				<use xlink:href="#SVGID_140_"  overflow="visible"/>
			</clipPath>
			
				<linearGradient id="SVGID_142_" gradientUnits="userSpaceOnUse" x1="-79.3328" y1="-137.6456" x2="-79.2893" y2="-137.6456" gradientTransform="matrix(-6.0499 -38.4163 38.4163 -6.0499 4964.5352 -3736.4954)">
				<stop  offset="0" style="stop-color:#BBBFC2"/>
				<stop  offset="0.6545" style="stop-color:#D5D8DA"/>
				<stop  offset="1" style="stop-color:#EBEBED"/>
			</linearGradient>
			<polygon clip-path="url(#SVGID_141_)" fill="url(#SVGID_142_)" points="158.1,143.9 157.6,141.2 154.9,141.6 155.3,144.4 			"/>
		</g>
		<g>
			<defs>
				<path id="SVGID_143_" d="M153.6,139.3c-0.2,1.4,0.7,2.8,2.2,3c1.4,0.2,2.8-0.7,3-2.2c0.2-1.4-0.7-2.8-2.2-3
					C155.2,136.9,153.8,137.9,153.6,139.3"/>
			</defs>
			<clipPath id="SVGID_144_">
				<use xlink:href="#SVGID_143_"  overflow="visible"/>
			</clipPath>
			
				<linearGradient id="SVGID_145_" gradientUnits="userSpaceOnUse" x1="-73.1254" y1="-127.6627" x2="-73.0818" y2="-127.6627" gradientTransform="matrix(-71.2043 -98.8161 -98.8161 71.2043 -17664.2031 2006.0642)">
				<stop  offset="0" style="stop-color:#D7D8DA"/>
				<stop  offset="0.6545" style="stop-color:#E8EAEC"/>
				<stop  offset="1" style="stop-color:#F5F6F6"/>
			</linearGradient>
			<polygon clip-path="url(#SVGID_144_)" fill="url(#SVGID_145_)" points="155.4,145 151,138.9 157.1,134.5 161.4,140.6 			"/>
		</g>
		<g opacity="0.5">
			<g>
				<defs>
					
						<rect id="SVGID_146_" x="153.7" y="137" transform="matrix(-0.9871 -0.1603 0.1603 -0.9871 287.117 300.6062)" width="3.9" height="3.5"/>
				</defs>
				<clipPath id="SVGID_147_">
					<use xlink:href="#SVGID_146_"  overflow="visible"/>
				</clipPath>
				<path clip-path="url(#SVGID_147_)" fill="#FFFFFF" d="M153.6,139.5c0.2-1.5,1.6-2.5,3.1-2.3c0.4,0.1,0.8,0.2,1.1,0.4
					c-0.3-0.3-0.7-0.4-1.2-0.5c-1.4-0.2-2.8,0.7-3,2.2c0,0.3,0,0.5,0,0.8C153.6,139.9,153.6,139.7,153.6,139.5"/>
			</g>
		</g>
		<g opacity="0.25">
			<g>
				<defs>
					
						<rect id="SVGID_148_" x="154.8" y="139" transform="matrix(-0.9871 -0.1603 0.1603 -0.9871 288.9073 304.8423)" width="3.9" height="3.5"/>
				</defs>
				<clipPath id="SVGID_149_">
					<use xlink:href="#SVGID_148_"  overflow="visible"/>
				</clipPath>
				<path clip-path="url(#SVGID_149_)" fill="#758082" d="M158.8,140c-0.2,1.5-1.6,2.5-3.1,2.3c-0.4-0.1-0.8-0.2-1.1-0.4
					c0.3,0.3,0.7,0.4,1.2,0.5c1.4,0.2,2.8-0.7,3-2.2c0-0.3,0-0.5,0-0.8C158.9,139.6,158.8,139.8,158.8,140"/>
			</g>
		</g>
		<g>
			<g>
				<defs>
					
						<rect id="SVGID_150_" x="152.8" y="136.4" transform="matrix(-0.9871 -0.1603 0.1603 -0.9871 287.8867 303.6757)" width="6.7" height="7.6"/>
				</defs>
				<clipPath id="SVGID_151_">
					<use xlink:href="#SVGID_150_"  overflow="visible"/>
				</clipPath>
				<path clip-path="url(#SVGID_151_)" fill="#E6AC4B" d="M159.6,140.2C159.6,140.2,159.6,140.2,159.6,140.2c0-0.2,0-0.3-0.1-0.4
					c-0.1-0.2-0.1-0.4-0.1-0.6c0-0.1,0-0.2,0-0.3c0,0,0,0,0-0.1c0-0.1,0-0.1,0-0.2c0-0.1-0.1-0.1-0.1-0.2c0,0,0,0,0,0
					c-0.1-0.1-0.1-0.1-0.2-0.2c0-0.1-0.1-0.1-0.1-0.1c0,0,0,0,0,0c-0.1-0.1-0.2-0.2-0.2-0.3c0-0.1-0.1-0.2-0.1-0.3c0,0,0,0,0,0
					c0,0-0.1-0.1-0.1-0.1c0,0-0.1-0.1-0.1-0.1c-0.1-0.1-0.1-0.1-0.2-0.1c0,0,0,0,0,0c-0.1,0-0.2-0.1-0.3-0.1c-0.2,0-0.4-0.1-0.5-0.2
					c-0.1-0.1-0.2-0.1-0.3-0.2c0,0,0,0,0,0c0,0-0.1,0-0.2-0.1c-0.1,0-0.1,0-0.2,0c0,0,0,0-0.1,0c-0.1,0-0.2,0-0.3,0.1
					c-0.2,0.1-0.4,0.1-0.6,0.1c-0.1,0-0.2,0-0.3,0c0,0,0,0-0.1,0c-0.1,0-0.1,0-0.2,0c-0.1,0-0.1,0.1-0.2,0.1c0,0,0,0,0,0
					c-0.1,0.1-0.2,0.1-0.2,0.2c-0.2,0.2-0.3,0.3-0.5,0.3c-0.1,0-0.2,0.1-0.3,0.1c0,0,0,0,0,0c0,0-0.1,0.1-0.1,0.1
					c-0.1,0.1-0.1,0.1-0.1,0.2c0,0,0,0,0,0c0,0.1-0.1,0.2-0.1,0.3c0,0.2-0.1,0.4-0.2,0.5c-0.1,0.1-0.1,0.2-0.2,0.3c0,0,0,0,0,0
					c0,0,0,0.1-0.1,0.2c0,0.1,0,0.1,0,0.2c0,0,0,0,0,0.1c0,0.1,0,0.2,0.1,0.3c0.1,0.2,0.1,0.4,0.1,0.6c0,0.1,0,0.2,0,0.3
					c0,0,0,0,0,0.1c0,0.1,0,0.1,0,0.2c0,0.1,0.1,0.1,0.1,0.2c0,0,0,0,0,0c0.1,0.1,0.1,0.1,0.2,0.2c0,0.1,0.1,0.1,0.1,0.1
					c0,0,0,0,0,0c0.1,0.1,0.2,0.2,0.2,0.3c0,0.1,0.1,0.2,0.1,0.3c0,0,0,0,0,0c0,0,0,0,0,0c0,0,0.1,0.1,0.1,0.1c0,0,0,0,0,0.1
					l-0.4,0.7l0,0l0,0l0.8,0.2c0,0,0.4,0.5,0.7,0.7c0.1-0.3,0.3-0.5,0.4-0.8l0.1,0.6l0,0c0,0,0,0,0,0c0.3-0.1,0.9-0.4,0.9-0.4
					l0.9,0.2l-0.1-0.6c0,0,0,0,0,0c0.1,0,0.1-0.1,0.2-0.1c0,0,0,0,0,0c0.1-0.1,0.2-0.1,0.2-0.2c0.2-0.2,0.3-0.3,0.5-0.3
					c0.1,0,0.2-0.1,0.3-0.1c0,0,0,0,0,0c0,0,0.1-0.1,0.1-0.1c0.1-0.1,0.1-0.1,0.1-0.2c0,0,0,0,0,0c0-0.1,0.1-0.2,0.1-0.3
					c0-0.2,0.1-0.4,0.2-0.5c0.1-0.1,0.1-0.2,0.2-0.3c0,0,0,0,0,0c0,0,0-0.1,0.1-0.2C159.6,140.3,159.6,140.3,159.6,140.2"/>
			</g>
		</g>
	</g>
</g>
</svg>