<!-- Generator: Adobe Illustrator 17.1.0, SVG Export Plug-In  -->
<svg version="1.1"
	 xmlns="http://www.w3.org/2000/svg" xmlns:xlink="http://www.w3.org/1999/xlink" xmlns:a="http://ns.adobe.com/AdobeSVGViewerExtensions/3.0/"
	 x="0px" y="0px" width="293px" height="72px" viewBox="0 0 293 72" enable-background="new 0 0 293 72" xml:space="preserve">
<defs>
</defs>
<g>
	<path opacity="0.5" fill="#FFFFFF" d="M0,22V9.3C0,4.2,4.4,0,9.5,0h274.8c5.1,0,8.7,4.2,8.7,9.3V22"/>
	<g opacity="0.25">
		<path fill="#FFFFFF" d="M293,22v40.4c0,5.1-3.5,9.6-8.7,9.6H9.5C4.4,72,0,67.6,0,62.4V22"/>
	</g>
	<g>
		<g>
			<circle fill="#FFFFFF" cx="15.2" cy="39.4" r="5.7"/>
		</g>
		<g>
			<circle fill="#F2CB12" cx="15.2" cy="39.4" r="3.9"/>
		</g>
	</g>
	<g>
		<g>
			<circle fill="#FFFFFF" cx="135.3" cy="39.1" r="5.7"/>
		</g>
		<g>
			<circle fill="#75AD40" cx="135.3" cy="39.1" r="3.9"/>
		</g>
	</g>
	<g>
		<g>
			<circle fill="#FFFFFF" cx="135.3" cy="55.2" r="5.7"/>
		</g>
		<g>
			<circle fill="#008ACF" cx="135.3" cy="55.2" r="3.9"/>
		</g>
	</g>
	<g>
		<g>
			<circle fill="#FFFFFF" cx="15.2" cy="56.4" r="5.7"/>
		</g>
		<g>
			<circle fill="#B6191D" cx="15.2" cy="56.4" r="3.9"/>
		</g>
	</g>
	<g>
		<g>
			<path fill="#FFFFFF" d="M119,5.4h2.3v8.3h4.1v1.9H119V5.4z"/>
		</g>
		<g>
			<path fill="#FFFFFF" d="M128.3,12.7c0.1,1,1,1.4,2.1,1.4c0.8,0,1.4-0.1,2-0.3l0.3,1.6c-0.8,0.3-1.7,0.5-2.7,0.5
				c-2.5,0-4-1.5-4-3.8c0-1.9,1.2-4,3.7-4c2.4,0,3.3,1.9,3.3,3.7c0,0.4,0,0.7-0.1,0.9H128.3z M131,11.1c0-0.6-0.2-1.5-1.3-1.5
				c-1,0-1.4,0.9-1.4,1.5H131z"/>
		</g>
		<g>
			<path fill="#FFFFFF" d="M141.6,14.6c0,1.4-0.3,2.6-1.1,3.3c-0.8,0.7-1.9,0.9-3,0.9c-1,0-2-0.2-2.7-0.6l0.5-1.8
				c0.5,0.3,1.3,0.6,2.2,0.6c1.1,0,1.9-0.6,1.9-2v-0.5h0c-0.4,0.6-1.2,1-2,1c-1.8,0-3.1-1.5-3.1-3.6c0-2.4,1.5-3.9,3.4-3.9
				c1,0,1.7,0.4,2,1.1h0l0.1-0.9h2c0,0.5-0.1,1.1-0.1,2.2V14.6z M139.3,11.2c0-0.1,0-0.3,0-0.4c-0.2-0.6-0.6-1-1.2-1
				c-0.8,0-1.5,0.8-1.5,2.1c0,1.1,0.5,2,1.5,2c0.6,0,1.1-0.4,1.2-0.9c0.1-0.2,0.1-0.4,0.1-0.6V11.2z"/>
		</g>
		<g>
			<path fill="#FFFFFF" d="M145.2,12.7c0.1,1,1,1.4,2.1,1.4c0.8,0,1.4-0.1,2-0.3l0.3,1.6c-0.8,0.3-1.7,0.5-2.7,0.5
				c-2.5,0-4-1.5-4-3.8c0-1.9,1.2-4,3.7-4c2.4,0,3.3,1.9,3.3,3.7c0,0.4,0,0.7-0.1,0.9H145.2z M147.9,11.1c0-0.6-0.2-1.5-1.3-1.5
				c-1,0-1.4,0.9-1.4,1.5H147.9z"/>
		</g>
		<g>
			<path fill="#FFFFFF" d="M151.4,10.6c0-0.9,0-1.7-0.1-2.4h2l0.1,1h0c0.3-0.5,1-1.2,2.3-1.2c1.5,0,2.7,1,2.7,3.2v4.4h-2.3v-4.1
				c0-1-0.3-1.6-1.2-1.6c-0.6,0-1,0.4-1.2,0.9c-0.1,0.2-0.1,0.4-0.1,0.6v4.3h-2.3V10.6z"/>
		</g>
		<g>
			<path fill="#FFFFFF" d="M167.5,4.9v8.5c0,0.8,0,1.7,0.1,2.2h-2l-0.1-1.1h0c-0.5,0.8-1.4,1.2-2.3,1.2c-1.8,0-3.2-1.5-3.2-3.8
				c0-2.5,1.5-4,3.3-4c0.9,0,1.6,0.3,2,0.8h0v-4H167.5z M165.2,11.4c0-0.1,0-0.3,0-0.4c-0.1-0.6-0.6-1.1-1.3-1.1
				c-1.1,0-1.6,0.9-1.6,2.1c0,1.3,0.6,2,1.6,2c0.7,0,1.2-0.5,1.3-1.1c0-0.2,0-0.3,0-0.5V11.4z"/>
		</g>
		<g>
			<path fill="#FFFFFF" d="M175.5,13.9c0,0.7,0,1.4,0.1,1.8h-2.1l-0.1-0.7h0c-0.5,0.6-1.2,0.9-2.1,0.9c-1.5,0-2.4-1.1-2.4-2.3
				c0-1.9,1.7-2.8,4.3-2.8v-0.1c0-0.4-0.2-1-1.3-1c-0.8,0-1.6,0.3-2,0.6l-0.4-1.5c0.5-0.3,1.5-0.7,2.9-0.7c2.5,0,3.2,1.5,3.2,3.2
				V13.9z M173.3,12.1c-1.2,0-2.2,0.3-2.2,1.2c0,0.6,0.4,0.9,0.9,0.9c0.6,0,1-0.4,1.2-0.8c0-0.1,0-0.3,0-0.4V12.1z"/>
		</g>
	</g>
	<g>
		<path fill="#FFFFFF" d="M36.9,42.4c-0.4,0.2-1.1,0.4-2,0.4c-2.1,0-3.7-1.3-3.7-3.8c0-2.3,1.6-3.9,3.9-3.9c0.9,0,1.5,0.2,1.8,0.3
			l-0.2,0.8c-0.4-0.2-0.9-0.3-1.5-0.3c-1.7,0-2.9,1.1-2.9,3.1c0,1.8,1,3,2.8,3c0.6,0,1.2-0.1,1.6-0.3L36.9,42.4z"/>
		<path fill="#FFFFFF" d="M42.4,41.1c0,0.5,0,1,0,1.5h-0.9l-0.1-0.9h0c-0.3,0.4-0.8,1-1.8,1c-0.8,0-1.8-0.5-1.8-2.3v-3.1h1v2.9
			c0,1,0.3,1.7,1.2,1.7c0.6,0,1.1-0.5,1.3-0.9c0.1-0.1,0.1-0.3,0.1-0.5v-3.3h1V41.1z"/>
		<path fill="#FFFFFF" d="M44,34.8h1v7.8h-1V34.8z"/>
		<path fill="#FFFFFF" d="M47.7,35.7v1.5h1.4V38h-1.4v2.9c0,0.7,0.2,1,0.7,1c0.3,0,0.4,0,0.6-0.1l0,0.7c-0.2,0.1-0.5,0.1-0.9,0.1
			c-0.5,0-0.8-0.1-1-0.4c-0.3-0.3-0.4-0.8-0.4-1.4V38H46v-0.7h0.8V36L47.7,35.7z"/>
		<path fill="#FFFFFF" d="M54.7,41.1c0,0.5,0,1,0,1.5h-0.9l-0.1-0.9h0c-0.3,0.4-0.8,1-1.8,1c-0.8,0-1.8-0.5-1.8-2.3v-3.1h1v2.9
			c0,1,0.3,1.7,1.2,1.7c0.7,0,1.1-0.5,1.3-0.9c0.1-0.1,0.1-0.3,0.1-0.5v-3.3h1V41.1z"/>
		<path fill="#FFFFFF" d="M56.3,38.9c0-0.6,0-1.2,0-1.7h0.8l0,1h0c0.2-0.7,0.8-1.2,1.5-1.2c0.1,0,0.2,0,0.3,0v0.9
			c-0.1,0-0.2,0-0.3,0c-0.7,0-1.2,0.5-1.3,1.2c0,0.1,0,0.3,0,0.5v2.8h-1V38.9z"/>
		<path fill="#FFFFFF" d="M62.8,42.6l-0.1-0.7h0c-0.3,0.4-0.9,0.8-1.6,0.8c-1.1,0-1.6-0.8-1.6-1.5c0-1.3,1.1-2,3.2-2v-0.1
			c0-0.4-0.1-1.2-1.2-1.2c-0.5,0-1,0.2-1.4,0.4l-0.2-0.6c0.4-0.3,1.1-0.5,1.8-0.5c1.6,0,2,1.1,2,2.2v2c0,0.5,0,0.9,0.1,1.3H62.8z
			 M62.6,39.9c-1.1,0-2.3,0.2-2.3,1.2c0,0.6,0.4,0.9,0.9,0.9c0.7,0,1.1-0.4,1.3-0.9c0-0.1,0.1-0.2,0.1-0.3V39.9z"/>
	</g>
	<g>
		<path fill="#FFFFFF" d="M37.3,59.3c-0.4,0.2-1.3,0.4-2.3,0.4c-1.1,0-2-0.3-2.8-1c-0.6-0.6-1-1.6-1-2.8c0-2.2,1.5-3.8,4-3.8
			c0.9,0,1.5,0.2,1.8,0.3l-0.2,0.8C36.5,53.1,36,53,35.2,53c-1.8,0-3,1.1-3,3c0,1.9,1.1,3,2.9,3c0.6,0,1.1-0.1,1.3-0.2v-2.2h-1.5
			v-0.8h2.4V59.3z"/>
		<path fill="#FFFFFF" d="M39.4,57.2c0,1.3,0.9,1.8,1.8,1.8c0.7,0,1.1-0.1,1.5-0.3l0.2,0.7c-0.3,0.2-0.9,0.3-1.8,0.3
			c-1.6,0-2.6-1.1-2.6-2.7s0.9-2.9,2.5-2.9c1.7,0,2.2,1.5,2.2,2.5c0,0.2,0,0.4,0,0.5H39.4z M42.2,56.5c0-0.6-0.3-1.6-1.3-1.6
			c-1,0-1.4,0.9-1.5,1.6H42.2z"/>
		<path fill="#FFFFFF" d="M44.2,58.7c0.3,0.2,0.8,0.4,1.3,0.4c0.7,0,1-0.4,1-0.8c0-0.5-0.3-0.7-1-1c-1-0.3-1.4-0.9-1.4-1.5
			c0-0.9,0.7-1.6,1.8-1.6c0.5,0,1,0.2,1.3,0.3L47,55.3c-0.2-0.1-0.6-0.3-1.1-0.3c-0.6,0-0.9,0.3-0.9,0.7c0,0.4,0.3,0.6,1,0.9
			c0.9,0.4,1.4,0.8,1.4,1.6c0,0.9-0.7,1.6-2,1.6c-0.6,0-1.1-0.1-1.5-0.4L44.2,58.7z"/>
		<path fill="#FFFFFF" d="M49.9,52.8v1.5h1.4v0.7h-1.4V58c0,0.7,0.2,1,0.7,1c0.3,0,0.4,0,0.6-0.1l0,0.7c-0.2,0.1-0.5,0.1-0.9,0.1
			c-0.5,0-0.8-0.1-1-0.4c-0.3-0.3-0.4-0.8-0.4-1.4v-2.9h-0.8v-0.7h0.8v-1.3L49.9,52.8z"/>
		<path fill="#FFFFFF" d="M55.3,59.7L55.2,59h0c-0.3,0.4-0.9,0.8-1.6,0.8c-1.1,0-1.6-0.8-1.6-1.5c0-1.3,1.1-2,3.2-2v-0.1
			c0-0.4-0.1-1.2-1.2-1.2c-0.5,0-1,0.2-1.4,0.4l-0.2-0.6c0.4-0.3,1.1-0.5,1.8-0.5c1.6,0,2,1.1,2,2.2v2c0,0.5,0,0.9,0.1,1.3H55.3z
			 M52.8,53.4c0-0.7,0.3-1.1,0.7-1.1c0.2,0,0.4,0.1,0.7,0.2c0.2,0.1,0.3,0.2,0.5,0.2c0.2,0,0.3-0.1,0.3-0.5h0.5
			c0,0.7-0.2,1.1-0.7,1.1c-0.2,0-0.4-0.1-0.7-0.2c-0.2-0.1-0.3-0.2-0.5-0.2c-0.2,0-0.3,0.2-0.3,0.5H52.8z M55.1,57
			c-1.1,0-2.3,0.2-2.3,1.2c0,0.6,0.4,0.9,0.9,0.9c0.7,0,1.1-0.4,1.3-0.9c0-0.1,0.1-0.2,0.1-0.3V57z"/>
		<path fill="#FFFFFF" d="M62.5,57c0,2-1.4,2.8-2.7,2.8c-1.4,0-2.6-1.1-2.6-2.7c0-1.8,1.2-2.8,2.6-2.8C61.4,54.2,62.5,55.3,62.5,57z
			 M58.2,57c0,1.2,0.7,2,1.6,2c0.9,0,1.6-0.9,1.6-2.1c0-0.9-0.5-2-1.6-2S58.2,56,58.2,57z"/>
		<path fill="#FFFFFF" d="M70.6,51.9v6.4c0,0.5,0,1,0,1.4h-0.9l0-0.9h0c-0.3,0.6-0.9,1-1.8,1c-1.3,0-2.3-1.1-2.3-2.7
			c0-1.8,1.1-2.9,2.4-2.9c0.8,0,1.4,0.4,1.6,0.8h0v-3.2H70.6z M69.6,56.5c0-0.1,0-0.3,0-0.4c-0.1-0.6-0.7-1.1-1.4-1.1
			c-1,0-1.6,0.9-1.6,2.1c0,1.1,0.5,2,1.6,2c0.6,0,1.2-0.4,1.4-1.2c0-0.1,0-0.3,0-0.4V56.5z"/>
		<path fill="#FFFFFF" d="M72.7,57.2c0,1.3,0.9,1.8,1.8,1.8c0.7,0,1.1-0.1,1.5-0.3l0.2,0.7c-0.3,0.2-0.9,0.3-1.8,0.3
			c-1.6,0-2.6-1.1-2.6-2.7s0.9-2.9,2.5-2.9c1.7,0,2.2,1.5,2.2,2.5c0,0.2,0,0.4,0,0.5H72.7z M75.6,56.5c0-0.6-0.3-1.6-1.3-1.6
			c-1,0-1.4,0.9-1.5,1.6H75.6z"/>
		<path fill="#FFFFFF" d="M80.1,52.3c0.5-0.1,1.1-0.1,1.8-0.1c0.9,0,1.6,0.2,2.1,0.6c0.4,0.4,0.6,0.9,0.6,1.6c0,0.7-0.2,1.2-0.6,1.6
			c-0.5,0.5-1.3,0.8-2.3,0.8c-0.3,0-0.6,0-0.8-0.1v3h-1V52.3z M81,55.9c0.2,0.1,0.5,0.1,0.8,0.1c1.2,0,1.9-0.6,1.9-1.6
			c0-1-0.7-1.5-1.8-1.5c-0.4,0-0.7,0-0.9,0.1V55.9z"/>
		<path fill="#FFFFFF" d="M86.2,57.2c0,1.3,0.9,1.8,1.8,1.8c0.7,0,1.1-0.1,1.5-0.3l0.2,0.7c-0.3,0.2-0.9,0.3-1.8,0.3
			c-1.6,0-2.6-1.1-2.6-2.7s0.9-2.9,2.5-2.9c1.7,0,2.2,1.5,2.2,2.5c0,0.2,0,0.4,0,0.5H86.2z M89,56.5c0-0.6-0.3-1.6-1.3-1.6
			c-1,0-1.4,0.9-1.5,1.6H89z"/>
		<path fill="#FFFFFF" d="M91,58.7c0.3,0.2,0.8,0.4,1.3,0.4c0.7,0,1-0.4,1-0.8c0-0.5-0.3-0.7-1-1c-1-0.3-1.4-0.9-1.4-1.5
			c0-0.9,0.7-1.6,1.8-1.6c0.5,0,1,0.2,1.3,0.3l-0.2,0.7c-0.2-0.1-0.6-0.3-1.1-0.3c-0.6,0-0.9,0.3-0.9,0.7c0,0.4,0.3,0.6,1,0.9
			c0.9,0.4,1.4,0.8,1.4,1.6c0,0.9-0.7,1.6-2,1.6c-0.6,0-1.1-0.1-1.5-0.4L91,58.7z"/>
		<path fill="#FFFFFF" d="M95.4,58.7c0.3,0.2,0.8,0.4,1.3,0.4c0.7,0,1-0.4,1-0.8c0-0.5-0.3-0.7-1-1c-1-0.3-1.4-0.9-1.4-1.5
			c0-0.9,0.7-1.6,1.8-1.6c0.5,0,1,0.2,1.3,0.3l-0.2,0.7C98,55.1,97.6,55,97.1,55c-0.6,0-0.9,0.3-0.9,0.7c0,0.4,0.3,0.6,1,0.9
			c0.9,0.4,1.4,0.8,1.4,1.6c0,0.9-0.7,1.6-2,1.6c-0.6,0-1.1-0.1-1.5-0.4L95.4,58.7z"/>
		<path fill="#FFFFFF" d="M104.7,57c0,2-1.4,2.8-2.7,2.8c-1.4,0-2.6-1.1-2.6-2.7c0-1.8,1.2-2.8,2.6-2.8
			C103.6,54.2,104.7,55.3,104.7,57z M100.4,57c0,1.2,0.7,2,1.6,2c0.9,0,1.6-0.9,1.6-2.1c0-0.9-0.5-2-1.6-2
			C100.9,55,100.4,56,100.4,57z"/>
		<path fill="#FFFFFF" d="M108.8,59.7l-0.1-0.7h0c-0.3,0.4-0.9,0.8-1.6,0.8c-1.1,0-1.6-0.8-1.6-1.5c0-1.3,1.1-2,3.2-2v-0.1
			c0-0.4-0.1-1.2-1.2-1.2c-0.5,0-1,0.2-1.4,0.4l-0.2-0.6c0.4-0.3,1.1-0.5,1.8-0.5c1.6,0,2,1.1,2,2.2v2c0,0.5,0,0.9,0.1,1.3H108.8z
			 M108.7,57c-1.1,0-2.3,0.2-2.3,1.2c0,0.6,0.4,0.9,0.9,0.9c0.7,0,1.1-0.4,1.3-0.9c0-0.1,0.1-0.2,0.1-0.3V57z"/>
		<path fill="#FFFFFF" d="M111.1,58.7c0.3,0.2,0.8,0.4,1.3,0.4c0.7,0,1-0.4,1-0.8c0-0.5-0.3-0.7-1-1c-1-0.3-1.4-0.9-1.4-1.5
			c0-0.9,0.7-1.6,1.8-1.6c0.5,0,1,0.2,1.3,0.3l-0.2,0.7c-0.2-0.1-0.6-0.3-1.1-0.3c-0.6,0-0.9,0.3-0.9,0.7c0,0.4,0.3,0.6,1,0.9
			c0.9,0.4,1.4,0.8,1.4,1.6c0,0.9-0.7,1.6-2,1.6c-0.6,0-1.1-0.1-1.5-0.4L111.1,58.7z"/>
	</g>
	<g>
		<path fill="#FFFFFF" d="M156.4,42.4c-0.4,0.2-1.1,0.4-2,0.4c-2.1,0-3.7-1.3-3.7-3.8c0-2.3,1.6-3.9,3.9-3.9c0.9,0,1.5,0.2,1.8,0.3
			l-0.2,0.8c-0.4-0.2-0.9-0.3-1.5-0.3c-1.7,0-2.9,1.1-2.9,3.1c0,1.8,1,3,2.8,3c0.6,0,1.2-0.1,1.6-0.3L156.4,42.4z"/>
		<path fill="#FFFFFF" d="M157.5,34.8h1v7.8h-1V34.8z"/>
		<path fill="#FFFFFF" d="M161.2,35.8c0,0.3-0.2,0.6-0.6,0.6c-0.3,0-0.6-0.3-0.6-0.6c0-0.3,0.3-0.6,0.6-0.6
			C161,35.2,161.2,35.4,161.2,35.8z M160.1,42.6v-5.3h1v5.3H160.1z"/>
		<path fill="#FFFFFF" d="M163.3,40.1c0,1.3,0.9,1.8,1.8,1.8c0.7,0,1.1-0.1,1.5-0.3l0.2,0.7c-0.3,0.2-0.9,0.3-1.8,0.3
			c-1.6,0-2.6-1.1-2.6-2.7s0.9-2.9,2.5-2.9c1.7,0,2.2,1.5,2.2,2.5c0,0.2,0,0.4,0,0.5H163.3z M166.1,39.4c0-0.6-0.3-1.6-1.3-1.6
			c-1,0-1.4,0.9-1.5,1.6H166.1z"/>
		<path fill="#FFFFFF" d="M168.2,38.7c0-0.5,0-1,0-1.4h0.9l0.1,0.9h0c0.3-0.5,0.9-1,1.8-1c0.7,0,1.9,0.4,1.9,2.3v3.2h-1v-3.1
			c0-0.9-0.3-1.6-1.2-1.6c-0.6,0-1.1,0.5-1.3,1c0,0.1-0.1,0.3-0.1,0.5v3.2h-1V38.7z"/>
		<path fill="#FFFFFF" d="M175.5,35.7v1.5h1.4V38h-1.4v2.9c0,0.7,0.2,1,0.7,1c0.3,0,0.4,0,0.6-0.1l0,0.7c-0.2,0.1-0.5,0.1-0.9,0.1
			c-0.5,0-0.8-0.1-1-0.4c-0.3-0.3-0.4-0.8-0.4-1.4V38h-0.8v-0.7h0.8V36L175.5,35.7z"/>
		<path fill="#FFFFFF" d="M178.4,40.1c0,1.3,0.9,1.8,1.8,1.8c0.7,0,1.1-0.1,1.5-0.3l0.2,0.7c-0.3,0.2-0.9,0.3-1.8,0.3
			c-1.6,0-2.6-1.1-2.6-2.7s0.9-2.9,2.5-2.9c1.7,0,2.2,1.5,2.2,2.5c0,0.2,0,0.4,0,0.5H178.4z M181.2,39.4c0-0.6-0.3-1.6-1.3-1.6
			c-1,0-1.4,0.9-1.5,1.6H181.2z"/>
	</g>
	<g>
		<path fill="#FFFFFF" d="M156.8,59.3c-0.4,0.2-1.3,0.4-2.3,0.4c-1.1,0-2-0.3-2.8-1c-0.6-0.6-1-1.6-1-2.8c0-2.2,1.5-3.8,4-3.8
			c0.9,0,1.5,0.2,1.8,0.3l-0.2,0.8c-0.4-0.2-0.9-0.3-1.6-0.3c-1.8,0-3,1.1-3,3c0,1.9,1.1,3,2.9,3c0.6,0,1.1-0.1,1.3-0.2v-2.2h-1.5
			v-0.8h2.4V59.3z"/>
		<path fill="#FFFFFF" d="M158.9,57.2c0,1.3,0.9,1.8,1.8,1.8c0.7,0,1.1-0.1,1.5-0.3l0.2,0.7c-0.3,0.2-0.9,0.3-1.8,0.3
			c-1.6,0-2.6-1.1-2.6-2.7s0.9-2.9,2.5-2.9c1.7,0,2.2,1.5,2.2,2.5c0,0.2,0,0.4,0,0.5H158.9z M161.7,56.5c0-0.6-0.3-1.6-1.3-1.6
			c-1,0-1.4,0.9-1.5,1.6H161.7z"/>
		<path fill="#FFFFFF" d="M163.7,58.7c0.3,0.2,0.8,0.4,1.3,0.4c0.7,0,1-0.4,1-0.8c0-0.5-0.3-0.7-1-1c-1-0.3-1.4-0.9-1.4-1.5
			c0-0.9,0.7-1.6,1.8-1.6c0.5,0,1,0.2,1.3,0.3l-0.2,0.7c-0.2-0.1-0.6-0.3-1.1-0.3c-0.6,0-0.9,0.3-0.9,0.7c0,0.4,0.3,0.6,1,0.9
			c0.9,0.4,1.4,0.8,1.4,1.6c0,0.9-0.7,1.6-2,1.6c-0.6,0-1.1-0.1-1.5-0.4L163.7,58.7z"/>
		<path fill="#FFFFFF" d="M169.4,52.8v1.5h1.4v0.7h-1.4V58c0,0.7,0.2,1,0.7,1c0.3,0,0.4,0,0.6-0.1l0,0.7c-0.2,0.1-0.5,0.1-0.9,0.1
			c-0.5,0-0.8-0.1-1-0.4c-0.3-0.3-0.4-0.8-0.4-1.4v-2.9h-0.8v-0.7h0.8v-1.3L169.4,52.8z"/>
		<path fill="#FFFFFF" d="M174.8,59.7l-0.1-0.7h0c-0.3,0.4-0.9,0.8-1.6,0.8c-1.1,0-1.6-0.8-1.6-1.5c0-1.3,1.1-2,3.2-2v-0.1
			c0-0.4-0.1-1.2-1.2-1.2c-0.5,0-1,0.2-1.4,0.4l-0.2-0.6c0.4-0.3,1.1-0.5,1.8-0.5c1.6,0,2,1.1,2,2.2v2c0,0.5,0,0.9,0.1,1.3H174.8z
			 M172.3,53.4c0-0.7,0.3-1.1,0.7-1.1c0.2,0,0.4,0.1,0.7,0.2c0.2,0.1,0.3,0.2,0.5,0.2c0.2,0,0.3-0.1,0.3-0.5h0.5
			c0,0.7-0.2,1.1-0.7,1.1c-0.2,0-0.4-0.1-0.7-0.2c-0.2-0.1-0.3-0.2-0.5-0.2c-0.2,0-0.3,0.2-0.3,0.5H172.3z M174.6,57
			c-1.1,0-2.3,0.2-2.3,1.2c0,0.6,0.4,0.9,0.9,0.9c0.7,0,1.1-0.4,1.3-0.9c0-0.1,0.1-0.2,0.1-0.3V57z"/>
		<path fill="#FFFFFF" d="M182,57c0,2-1.4,2.8-2.7,2.8c-1.4,0-2.6-1.1-2.6-2.7c0-1.8,1.2-2.8,2.6-2.8C180.9,54.2,182,55.3,182,57z
			 M177.7,57c0,1.2,0.7,2,1.6,2c0.9,0,1.6-0.9,1.6-2.1c0-0.9-0.5-2-1.6-2S177.7,56,177.7,57z"/>
		<path fill="#FFFFFF" d="M185.5,52.3h4v0.8h-3v2.5h2.8v0.8h-2.8v3.4h-1V52.3z"/>
		<path fill="#FFFFFF" d="M191.7,52.9c0,0.3-0.2,0.6-0.6,0.6c-0.3,0-0.6-0.3-0.6-0.6c0-0.3,0.3-0.6,0.6-0.6
			C191.4,52.3,191.7,52.5,191.7,52.9z M190.6,59.7v-5.3h1v5.3H190.6z"/>
		<path fill="#FFFFFF" d="M193.1,55.8c0-0.5,0-1,0-1.4h0.9l0.1,0.9h0c0.3-0.5,0.9-1,1.8-1c0.7,0,1.9,0.4,1.9,2.3v3.2h-1v-3.1
			c0-0.9-0.3-1.6-1.2-1.6c-0.6,0-1.1,0.5-1.3,1c0,0.1-0.1,0.3-0.1,0.5v3.2h-1V55.8z"/>
		<path fill="#FFFFFF" d="M202.2,59.7l-0.1-0.7h0c-0.3,0.4-0.9,0.8-1.6,0.8c-1.1,0-1.6-0.8-1.6-1.5c0-1.3,1.1-2,3.2-2v-0.1
			c0-0.4-0.1-1.2-1.2-1.2c-0.5,0-1,0.2-1.4,0.4l-0.2-0.6c0.4-0.3,1.1-0.5,1.7-0.5c1.6,0,2,1.1,2,2.2v2c0,0.5,0,0.9,0.1,1.3H202.2z
			 M202.1,57c-1.1,0-2.3,0.2-2.3,1.2c0,0.6,0.4,0.9,0.9,0.9c0.7,0,1.1-0.4,1.3-0.9c0-0.1,0.1-0.2,0.1-0.3V57z"/>
		<path fill="#FFFFFF" d="M204.6,55.8c0-0.5,0-1,0-1.4h0.9l0.1,0.9h0c0.3-0.5,0.9-1,1.8-1c0.7,0,1.9,0.4,1.9,2.3v3.2h-1v-3.1
			c0-0.9-0.3-1.6-1.2-1.6c-0.6,0-1.1,0.5-1.3,1c0,0.1-0.1,0.3-0.1,0.5v3.2h-1V55.8z"/>
		<path fill="#FFFFFF" d="M214.5,59.5c-0.3,0.1-0.8,0.3-1.5,0.3c-1.6,0-2.7-1.1-2.7-2.7c0-1.6,1.1-2.8,2.9-2.8
			c0.6,0,1.1,0.1,1.3,0.3l-0.2,0.7c-0.2-0.1-0.6-0.3-1.1-0.3c-1.2,0-1.9,0.9-1.9,2c0,1.2,0.8,2,1.8,2c0.6,0,0.9-0.1,1.2-0.3
			L214.5,59.5z"/>
		<path fill="#FFFFFF" d="M216.1,57.2c0,1.3,0.9,1.8,1.8,1.8c0.7,0,1.1-0.1,1.5-0.3l0.2,0.7c-0.3,0.2-0.9,0.3-1.8,0.3
			c-1.6,0-2.6-1.1-2.6-2.7s0.9-2.9,2.5-2.9c1.7,0,2.2,1.5,2.2,2.5c0,0.2,0,0.4,0,0.5H216.1z M218.9,56.5c0-0.6-0.3-1.6-1.3-1.6
			c-1,0-1.4,0.9-1.5,1.6H218.9z"/>
		<path fill="#FFFFFF" d="M222.1,52.9c0,0.3-0.2,0.6-0.6,0.6c-0.3,0-0.6-0.3-0.6-0.6c0-0.3,0.3-0.6,0.6-0.6
			C221.9,52.3,222.1,52.5,222.1,52.9z M221,59.7v-5.3h1v5.3H221z"/>
		<path fill="#FFFFFF" d="M223.6,56c0-0.6,0-1.2,0-1.7h0.8l0,1h0c0.2-0.7,0.8-1.2,1.5-1.2c0.1,0,0.2,0,0.3,0v0.9c-0.1,0-0.2,0-0.3,0
			c-0.7,0-1.2,0.5-1.3,1.2c0,0.1,0,0.3,0,0.5v2.8h-1V56z"/>
		<path fill="#FFFFFF" d="M230.1,59.7L230,59h0c-0.3,0.4-0.9,0.8-1.6,0.8c-1.1,0-1.6-0.8-1.6-1.5c0-1.3,1.1-2,3.2-2v-0.1
			c0-0.4-0.1-1.2-1.2-1.2c-0.5,0-1,0.2-1.4,0.4l-0.2-0.6c0.4-0.3,1.1-0.5,1.8-0.5c1.6,0,2,1.1,2,2.2v2c0,0.5,0,0.9,0.1,1.3H230.1z
			 M230,57c-1.1,0-2.3,0.2-2.3,1.2c0,0.6,0.4,0.9,0.9,0.9c0.7,0,1.1-0.4,1.3-0.9c0-0.1,0.1-0.2,0.1-0.3V57z"/>
		<path fill="#FFFFFF" d="M235.3,57.2c0,1.3,0.9,1.8,1.8,1.8c0.7,0,1.1-0.1,1.5-0.3l0.2,0.7c-0.3,0.2-0.9,0.3-1.8,0.3
			c-1.6,0-2.6-1.1-2.6-2.7s0.9-2.9,2.5-2.9c1.7,0,2.2,1.5,2.2,2.5c0,0.2,0,0.4,0,0.5H235.3z M238.2,56.5c0-0.6-0.3-1.6-1.3-1.6
			c-1,0-1.4,0.9-1.5,1.6H238.2z"/>
		<path fill="#FFFFFF" d="M242.7,59.7v-7.4h1l2.4,3.8c0.5,0.9,1,1.6,1.3,2.4l0,0c-0.1-1-0.1-1.9-0.1-3v-3.1h0.9v7.4h-1l-2.4-3.8
			c-0.5-0.8-1-1.7-1.4-2.5l0,0c0.1,0.9,0.1,1.8,0.1,3.1v3.2H242.7z"/>
		<path fill="#FFFFFF" d="M250.4,57.2c0,1.3,0.9,1.8,1.8,1.8c0.7,0,1.1-0.1,1.5-0.3l0.2,0.7c-0.3,0.2-0.9,0.3-1.8,0.3
			c-1.6,0-2.6-1.1-2.6-2.7s0.9-2.9,2.5-2.9c1.7,0,2.2,1.5,2.2,2.5c0,0.2,0,0.4,0,0.5H250.4z M253.2,56.5c0-0.6-0.3-1.6-1.3-1.6
			c-1,0-1.4,0.9-1.5,1.6H253.2z"/>
		<path fill="#FFFFFF" d="M260,54.4c0,0.4,0,0.8,0,1.5v3.1c0,1.2-0.2,2-0.8,2.4c-0.5,0.5-1.3,0.6-1.9,0.6c-0.6,0-1.3-0.2-1.8-0.4
			l0.2-0.7c0.4,0.2,0.9,0.4,1.6,0.4c1,0,1.7-0.5,1.7-1.9v-0.6h0c-0.3,0.5-0.9,0.9-1.7,0.9c-1.3,0-2.3-1.1-2.3-2.6
			c0-1.8,1.2-2.8,2.4-2.8c0.9,0,1.4,0.5,1.7,0.9h0l0-0.8H260z M259,56.5c0-0.2,0-0.3-0.1-0.4c-0.2-0.6-0.6-1-1.4-1
			c-0.9,0-1.6,0.8-1.6,2c0,1,0.5,1.9,1.6,1.9c0.6,0,1.1-0.4,1.3-1c0.1-0.2,0.1-0.4,0.1-0.5V56.5z"/>
		<path fill="#FFFFFF" d="M266.3,57c0,2-1.4,2.8-2.7,2.8c-1.4,0-2.6-1.1-2.6-2.7c0-1.8,1.2-2.8,2.6-2.8
			C265.3,54.2,266.3,55.3,266.3,57z M262.1,57c0,1.2,0.7,2,1.6,2c0.9,0,1.6-0.9,1.6-2.1c0-0.9-0.5-2-1.6-2S262.1,56,262.1,57z
			 M265.2,52.1l-1.3,1.6h-0.7l1-1.6H265.2z"/>
		<path fill="#FFFFFF" d="M271.4,59.5c-0.3,0.1-0.8,0.3-1.5,0.3c-1.6,0-2.7-1.1-2.7-2.7c0-1.6,1.1-2.8,2.9-2.8
			c0.6,0,1.1,0.1,1.3,0.3l-0.2,0.7c-0.2-0.1-0.6-0.3-1.1-0.3c-1.2,0-1.9,0.9-1.9,2c0,1.2,0.8,2,1.8,2c0.6,0,0.9-0.1,1.2-0.3
			L271.4,59.5z"/>
		<path fill="#FFFFFF" d="M273.6,52.9c0,0.3-0.2,0.6-0.6,0.6c-0.3,0-0.6-0.3-0.6-0.6c0-0.3,0.3-0.6,0.6-0.6
			C273.3,52.3,273.6,52.5,273.6,52.9z M272.5,59.7v-5.3h1v5.3H272.5z"/>
		<path fill="#FFFFFF" d="M279.9,57c0,2-1.4,2.8-2.7,2.8c-1.4,0-2.6-1.1-2.6-2.7c0-1.8,1.2-2.8,2.6-2.8
			C278.8,54.2,279.9,55.3,279.9,57z M275.7,57c0,1.2,0.7,2,1.6,2c0.9,0,1.6-0.9,1.6-2.1c0-0.9-0.5-2-1.6-2S275.7,56,275.7,57z"/>
		<path fill="#FFFFFF" d="M281,58.7c0.3,0.2,0.8,0.4,1.3,0.4c0.7,0,1-0.4,1-0.8c0-0.5-0.3-0.7-1-1c-1-0.3-1.4-0.9-1.4-1.5
			c0-0.9,0.7-1.6,1.8-1.6c0.5,0,1,0.2,1.3,0.3l-0.2,0.7c-0.2-0.1-0.6-0.3-1.1-0.3c-0.6,0-0.9,0.3-0.9,0.7c0,0.4,0.3,0.6,1,0.9
			c0.9,0.4,1.4,0.8,1.4,1.6c0,0.9-0.7,1.6-2,1.6c-0.6,0-1.1-0.1-1.5-0.4L281,58.7z"/>
	</g>
	<g opacity="0.45">
		<g id="XMLID_2_">
			<path fill="#FFFFFF" d="M32.8,16.7c-0.4,0.1-0.7-0.1-0.8-0.5c-0.1-0.3,0.1-0.7,0.5-0.8c0.3-0.1,0.7,0.1,0.8,0.5
				C33.4,16.2,33.2,16.6,32.8,16.7"/>
		</g>
		<g id="XMLID_1_">
			<path fill="#FFFFFF" d="M34.8,3.3c-0.3,0.1-0.7-0.1-0.8-0.5s0.1-0.7,0.5-0.8c0.4-0.1,0.7,0.1,0.8,0.5C35.3,2.8,35.1,3.2,34.8,3.3
				"/>
		</g>
		<g>
			<path fill="#FFFFFF" d="M45.9,21.6c-1.1-0.9-2.6-1.3-3.7-1.4c-1.1-0.2-1.9-0.7-2.1-0.9c-0.5-0.4-0.5-0.8-0.5-0.8l0,0
				c0.2-0.3,0.1-0.7-0.1-0.8c-0.2-0.1-0.5,0-0.7,0.2c0.1-0.3,0.1-0.6-0.2-0.8c-0.2-0.1-0.6,0-0.8,0.3l-0.2,0.3
				c0.1-0.7-0.1-1.3-0.6-1.5l-1.3-0.8c1.6-3.5,2.2-7.5,1.6-11.5l0.4-0.1c0.5-0.1,0.9-0.7,1-1.3l0.1,0.4c0.1,0.3,0.4,0.6,0.7,0.5
				c0.3-0.1,0.4-0.4,0.3-0.7C40,3,40.3,3.2,40.5,3.1c0.3-0.1,0.4-0.4,0.3-0.8l0,0c0,0,0.1-0.4,0.6-0.7c0.2-0.1,1.1-0.4,2.2-0.3
				c1.1,0.1,2.6,0.3,3.9-0.3c0,0,0.7-0.8,1-0.8H38.1c0,0,0-0.1,0-0.1l0.1,0.4c-0.1-0.2-0.3-0.3-0.4-0.3h-2l-0.6,0l0-0.1
				c-0.1,0-0.1,0-0.2,0.1c0.3,0.7,0.5,1.5,0.7,2.1c1.9,7.5-0.9,14.9-6.6,19.9h2.2c0.9-1,1.8-2,2.5-3l1.3,0.7
				c0.5,0.3,1.1,0.1,1.6-0.3L36.5,20c-0.2,0.3-0.1,0.7,0.1,0.8c0.2,0.1,0.5,0,0.7-0.3c-0.1,0.3-0.1,0.6,0.2,0.7
				c0.2,0.1,0.6,0,0.8-0.3l0,0c0,0,0.4-0.1,0.9,0.1c0.2,0.1,0.9,0.2,1.5,1.2h5.6C46.1,21.2,45.9,21.7,45.9,21.6z"/>
			<path fill="#FFFFFF" d="M0,16.6l0.1,2.9c0,0.9,1.1,1.7,1.9,2.7h2.5C2.6,20.2,1,18.6,0,16.6z"/>
		</g>
		<path fill="#003D67" d="M29,21.7c-2.7-1.5-5.4-3-8.1-4.5c3.2-5.7,6.5-11.9,9.7-16.9h-2c-3.1,5-6.1,10.6-9.2,16
			C13.2,12.7,7,9.1,0.9,5.6C0.6,6.1,0.4,6.7,0.3,7.2c6.1,3.5,12.2,6.9,18.3,10.4c-0.8,1.4-1.6,2.9-2.4,4.3c0,0.1-0.1,0.3-0.1,0.3
			h2.1c0.6-1,1.3-2.4,1.9-3.6c1.3,0.7,2.6,1.5,3.9,2.3c0.7,0.4,1.4,0.3,2.1,1.3h3.8C29.5,22.2,29.3,21.8,29,21.7z"/>
		<g>
			<path fill="#FFFFFF" d="M7.8,0.3c0.1,0,0.3,0,0.3-0.2c-0.3,0-0.7,0.1-1,0.2C7.4,0.3,7.6,0.3,7.8,0.3z"/>
			<path fill="#FFFFFF" d="M6.9,14.1c0.2-0.4,0.4-0.9,0.8-1.2c0.1,0.3,0.1,0.7,0.2,1c0.1,0.5,0.3,1,0.6,1.4c0,0.1,0.1,0.1,0.1,0.2
				c0.3,0.4,0.6,0.8,1.1,1.1c0.5,0.4,1.1,0.7,1.7,0.8c0.7,0.2,1.3,0.2,2,0.2c0.5,0,0.9,0,1.4-0.1c0.6,0,1.3,0,1.9,0.2
				c0.7,0.2,1.5,0.4,2.2,0.8c0.5,0.3,1,0.6,1.3,1.1c0,0.1,0.1,0.1,0.1,0.1c0-0.1,0.1-0.1,0.1-0.2c0.1-0.6,0.3-1.1,0.6-1.6
				c0.4-0.7,0.9-1.2,1.4-1.8c0.4-0.5,1-0.8,1.6-1.1c0.4-0.2,0.8-0.4,1.2-0.7c0.6-0.3,1.1-0.7,1.6-1.2c0.5-0.5,0.8-1,1.1-1.6
				c0.2-0.5,0.3-1,0.4-1.5c0-0.1,0-0.1,0-0.2c0.1-0.5,0-1-0.2-1.5c-0.1-0.3-0.2-0.6-0.3-0.9c0.5,0.1,0.9,0.4,1.3,0.7
				c0.1,0,0.1-0.1,0.1-0.2c-0.1-0.4-0.2-0.8-0.5-1.1c-0.3-0.4-0.6-0.9-1.1-1.2c-0.1-0.1-0.3-0.2-0.4-0.3c-0.5-0.3-1-0.5-1.6-0.6
				c-0.1,0-0.1,0-0.2,0c-0.1,0.1,0,0.2,0,0.3c0.3,0.3,0.4,0.7,0.5,1.1c0.2,0.4,0.1,0.8,0,1.2c0,0.3-0.1,0.6-0.3,0.9
				c-0.1,0.1-0.1,0.2-0.1,0.3c0,0,0,0.1,0,0.2c0.6-0.1,1-0.3,1.4-0.8c0.1,0.2,0,0.3,0,0.5c0,0.7-0.2,1.4-0.5,2.1
				c-0.2,0.5-0.6,0.9-1.1,1.2c-0.6,0.4-1.2,0.6-1.9,0.7c-0.4,0.1-0.8,0.1-1.2,0.1c-0.4,0-0.7,0-1-0.1c-0.2,0-0.3-0.1-0.5-0.1
				c-0.3-0.1-0.4-0.4-0.5-0.6c-0.1-0.4-0.1-0.8,0.2-1.1c0.1-0.1,0.2-0.1,0.1-0.3c-0.6-0.1-0.9-0.1-1.6,0.4c-0.1-0.2-0.1-0.5-0.2-0.7
				c-0.2-0.7-0.5-1.5-0.7-2.2c-0.2-0.7-0.4-1.4-0.6-2.1c-0.1-0.4-0.2-0.6-0.3-0.9c-0.1-0.3-0.8-2.6-1.3-4.6h-2
				c0.5,2,1.3,4.8,1.4,5.1c0.1,0.4,0.2,0.7,0.2,1c0.2,0.7,0.4,1.3,0.6,2c0.2,0.7,0.4,1.5,0.5,2.2c0.1,0.2,0.1,0.5,0.2,0.7
				c-0.8-0.1-1.1,0-1.6,0.4c0,0.1,0.1,0.2,0.2,0.2c0.4,0.1,0.6,0.4,0.7,0.8c0.1,0.3,0.1,0.6-0.1,0.8c-0.1,0.1-0.2,0.2-0.3,0.4
				c-0.2,0.3-0.5,0.5-0.8,0.6c-0.3,0.2-0.7,0.3-1.1,0.5c-0.6,0.2-1.3,0.4-2,0.3c-0.6,0-1.1-0.2-1.5-0.5c-0.6-0.4-1.1-0.9-1.5-1.5
				c-0.1-0.1-0.2-0.2-0.2-0.4c0.6,0.2,1.1,0.1,1.6-0.1c0-0.1,0-0.1-0.1-0.2c-0.1-0.1-0.2-0.2-0.3-0.2c-0.3-0.2-0.5-0.4-0.7-0.6
				c-0.3-0.3-0.5-0.7-0.6-1.1C8.5,10.4,8.3,10,8.4,9.6c0-0.1,0-0.2-0.1-0.2c0,0-0.1,0.1-0.1,0.1c-0.4,0.4-0.8,0.8-1.1,1.3
				c-0.1,0.1-0.2,0.3-0.2,0.5c-0.2,0.5-0.3,1-0.4,1.6c0,0.4,0.1,0.8,0.2,1.2C6.7,14.1,6.8,14.1,6.9,14.1z"/>
		</g>
		<g>
			<path fill="#FFFFFF" d="M21.1,22.2h3.5c7-3.6,10.8-11.6,8.8-19.5l-1.2,0.3C34.2,11.4,29.3,19.9,21.1,22.2z"/>
			<path fill="#FFFFFF" d="M12.3,22.2C7.2,20.8,3,16.9,1.4,11.5l-1.2,0.3c1.4,4.7,4.6,8.4,8.7,10.4H12.3z"/>
		</g>
	</g>
</g>
</svg>