<!-- Generator: Adobe Illustrator 17.1.0, SVG Export Plug-In  -->
<svg version="1.1"
	 xmlns="http://www.w3.org/2000/svg" xmlns:xlink="http://www.w3.org/1999/xlink" xmlns:a="http://ns.adobe.com/AdobeSVGViewerExtensions/3.0/"
	 x="0px" y="0px" width="233px" height="289.6px" viewBox="0 0 233 289.6" enable-background="new 0 0 233 289.6"
	 xml:space="preserve">
<defs>
</defs>
<path fill="#B74620" stroke="#FFFFFF" stroke-width="2" stroke-miterlimit="10" d="M122.5,216.5c-58.5,0-106-47.5-106-106
	s47.5-106,106-106s106,47.5,106,106S181,216.5,122.5,216.5"/>
<circle fill="none" stroke="#FFFFFF" stroke-width="9" stroke-miterlimit="10" cx="122.5" cy="110.5" r="106"/>
<g>
	<path fill="#FFFFFF" d="M26.5,279.9c-0.1-1.1,0.7-2.1,1.8-2.2l0,0c1.1-0.1,2.1,0.7,2.2,1.8l0,0c0.1,1.1-0.7,2.1-1.8,2.2l0,0
		c-0.1,0-0.1,0-0.2,0l0,0C27.4,281.7,26.6,281,26.5,279.9z M34.6,279c-0.2-1.1,0.6-2.1,1.7-2.3l0,0c1.1-0.2,2.1,0.6,2.3,1.7l0,0
		c0.2,1.1-0.6,2.1-1.7,2.3l0,0l0,0l0,0c-0.1,0-0.2,0-0.3,0l0,0C35.6,280.7,34.8,280,34.6,279z M42.7,277.7c-0.3-1.1,0.4-2.1,1.5-2.4
		l0,0c1.1-0.2,2.1,0.4,2.4,1.5l0,0c0.2,1.1-0.4,2.2-1.5,2.4l0,0c-0.1,0-0.3,0-0.4,0l0,0C43.8,279.2,42.9,278.6,42.7,277.7z
		 M50.7,275.7c-0.3-1,0.3-2.2,1.3-2.5l0,0c1.1-0.3,2.2,0.3,2.5,1.3l0,0c0.3,1.1-0.3,2.2-1.3,2.5l0,0c-0.2,0.1-0.4,0.1-0.6,0.1l0,0
		C51.8,277.1,51,276.6,50.7,275.7z M58.5,273.1c-0.4-1,0-2.2,1.1-2.6l0,0c1-0.4,2.2,0,2.6,1l0,0c0.4,1,0,2.2-1.1,2.6l0,0
		c-0.3,0.1-0.5,0.2-0.8,0.2l0,0C59.5,274.3,58.8,273.8,58.5,273.1z M65.9,269.6c-0.6-1-0.2-2.2,0.7-2.7l0,0c1-0.5,2.2-0.2,2.7,0.7
		l0,0c0.6,1,0.2,2.2-0.7,2.7l0,0l0,0l0,0c-0.3,0.2-0.6,0.3-1,0.3l0,0C67,270.6,66.3,270.3,65.9,269.6z M72.9,265.3
		c-0.7-0.9-0.5-2.1,0.4-2.8l0,0c0.9-0.7,2.1-0.5,2.8,0.4l0,0c0.7,0.9,0.5,2.1-0.4,2.8l0,0l0,0l0,0c-0.4,0.3-0.8,0.4-1.2,0.4l0,0
		C73.9,266.1,73.3,265.8,72.9,265.3z M79.2,260.1c-0.8-0.8-0.8-2,0-2.8l0,0c0.8-0.8,2-0.8,2.8,0l0,0c0.8,0.8,0.8,2,0,2.8l0,0
		c-0.4,0.4-0.9,0.6-1.4,0.6l0,0C80.1,260.7,79.6,260.5,79.2,260.1z M84.7,254c-0.9-0.7-1.1-1.9-0.5-2.8l0,0c0.6-0.9,1.9-1.1,2.8-0.5
		l0,0c0.9,0.7,1.1,1.9,0.5,2.8l0,0c-0.4,0.5-1,0.8-1.6,0.8l0,0C85.5,254.4,85.1,254.3,84.7,254z M89.3,247.2c-1-0.5-1.4-1.7-0.8-2.7
		l0,0c0.5-1,1.7-1.4,2.7-0.8l0,0c1,0.5,1.4,1.7,0.8,2.7l0,0c-0.4,0.7-1,1.1-1.8,1.1l0,0C89.9,247.4,89.6,247.3,89.3,247.2z
		 M92.9,239.8c-1-0.4-1.6-1.5-1.2-2.6l0,0c0.4-1,1.5-1.6,2.6-1.2l0,0c1,0.4,1.5,1.6,1.2,2.6l0,0l0,0l0,0c-0.3,0.8-1.1,1.3-1.9,1.3
		l0,0C93.4,239.9,93.1,239.9,92.9,239.8z M95.6,232c-1.1-0.3-1.7-1.4-1.4-2.5l0,0c0.3-1.1,1.4-1.7,2.5-1.4l0,0
		c1.1,0.3,1.7,1.4,1.4,2.5l0,0c-0.2,0.9-1.1,1.5-1.9,1.5l0,0C95.9,232.1,95.8,232.1,95.6,232z M97.6,224c-1.1-0.2-1.8-1.3-1.6-2.4
		l0,0c0.2-1.1,1.3-1.8,2.4-1.6l0,0c1.1,0.2,1.8,1.3,1.6,2.4l0,0c-0.2,0.9-1,1.6-2,1.6l0,0C97.8,224.1,97.7,224.1,97.6,224z
		 M99.2,216c-1.1-0.3-1.8-1.3-1.5-2.4l0,0c0.2-1.1,1.3-1.8,2.4-1.5l0,0c1.1,0.3,1.8,1.3,1.5,2.4l0,0c-0.2,0.9-1,1.6-2,1.6l0,0
		C99.5,216,99.3,216,99.2,216z"/>
</g>
<g>
	<path fill="#043A63" d="M56.4,80.3H59c0,0.3,0,0.5,0,0.7c-0.1,0.6-0.5,0.9-1.2,0.9h-3.5c-0.3,0-0.6-0.1-0.8-0.3s-0.3-0.5-0.3-0.8
		v-8.5l0.1-0.1h0.7c0.4,0,0.6,0.1,0.8,0.3c0.2,0.2,0.3,0.5,0.3,0.9v7C55.6,80.3,56,80.3,56.4,80.3z"/>
	<path fill="#043A63" d="M62.4,76.2v5.6c-0.3,0-0.5,0.1-0.9,0.1c-0.3,0-0.6,0-0.9-0.1v-4.9c0-0.5-0.2-0.8-0.6-0.8h-0.2
		c0-0.2-0.1-0.4-0.1-0.6c0-0.2,0-0.5,0.1-0.6c0.3,0,0.7-0.1,1-0.1h0.2c0.4,0,0.7,0.1,0.9,0.4S62.4,75.7,62.4,76.2z M60.3,73.6
		c-0.1-0.2-0.1-0.4-0.1-0.7c0-0.2,0-0.5,0.1-0.7c0.2-0.1,0.5-0.2,0.9-0.2s0.6,0.1,0.9,0.2c0.1,0.2,0.1,0.4,0.1,0.7
		c0,0.2,0,0.5-0.1,0.7c-0.2,0.1-0.5,0.2-0.9,0.2S60.5,73.7,60.3,73.6z"/>
	<path fill="#043A63" d="M66.3,82c-0.8,0-1.4-0.3-1.8-1c-0.4-0.6-0.6-1.5-0.6-2.7c0-1.1,0.3-2,0.8-2.7c0.5-0.6,1.2-1,1.9-1
		c0.5,0,1,0.1,1.5,0.4v-3.5l0.1-0.1h0.7c0.3,0,0.6,0.1,0.7,0.2c0.1,0.2,0.2,0.4,0.2,0.8v7.2c0,0.6,0.1,1,0.4,1.2
		c0,0.2-0.1,0.3-0.2,0.5c-0.1,0.2-0.2,0.3-0.4,0.4c-0.6-0.1-1-0.4-1.2-0.8C67.8,81.7,67.1,82,66.3,82z M66.8,80.5
		c0.5,0,1-0.3,1.3-0.8v-3.3c-0.5-0.3-0.9-0.4-1.2-0.4s-0.6,0.2-0.9,0.6c-0.2,0.4-0.3,1-0.3,1.7s0.1,1.3,0.3,1.6S66.4,80.5,66.8,80.5
		z"/>
	<path fill="#043A63" d="M77,78.9h-3.9c0,0.6,0.2,1,0.4,1.3c0.2,0.3,0.6,0.5,1.2,0.5s1.2-0.2,1.8-0.5c0.3,0.3,0.4,0.6,0.5,1.1
		c-0.7,0.5-1.6,0.8-2.7,0.8s-1.8-0.3-2.3-1c-0.5-0.7-0.7-1.6-0.7-2.6c0-1.1,0.3-2,0.8-2.6c0.5-0.7,1.2-1,2.2-1
		c0.9,0,1.7,0.3,2.2,0.8s0.8,1.3,0.8,2.1C77.2,78,77.1,78.5,77,78.9z M74.3,75.9c-0.8,0-1.2,0.6-1.2,1.7h2.4v-0.2
		c0-0.5-0.1-0.8-0.3-1.1C75.1,76,74.8,75.9,74.3,75.9z"/>
	<path fill="#043A63" d="M78.4,75.6c0-0.2,0.1-0.3,0.2-0.5c0.1-0.2,0.2-0.3,0.4-0.4c0.7,0.1,1.2,0.5,1.5,1.2c0.4-0.8,1-1.2,1.8-1.2
		c0.2,0,0.5,0,0.8,0.1c0,0.6-0.1,1.1-0.4,1.6c-0.1,0-0.3-0.1-0.6-0.1c-0.6,0-1,0.3-1.4,0.9v4.5c-0.3,0-0.5,0.1-0.9,0.1
		c-0.3,0-0.6,0-0.9-0.1v-4.7C78.9,76.4,78.7,75.9,78.4,75.6z"/>
	<path fill="#043A63" d="M89.6,81c0,0.2-0.1,0.3-0.2,0.5c-0.1,0.2-0.2,0.3-0.4,0.4c-0.6-0.1-1-0.3-1.3-0.8c-0.6,0.6-1.3,0.9-2,0.9
		s-1.3-0.2-1.6-0.6s-0.5-0.9-0.5-1.5c0-0.8,0.3-1.4,0.8-1.8s1.2-0.6,2-0.6c0.4,0,0.8,0,1.2,0.1v-0.4c0-0.7-0.4-1.1-1.1-1.1
		c-0.5,0-1.2,0.2-2.1,0.5c-0.3-0.3-0.4-0.7-0.5-1.2c1-0.4,2-0.6,3-0.6c0.7,0,1.3,0.2,1.7,0.6c0.4,0.4,0.7,1,0.7,1.8v2.9
		C89.2,80.4,89.3,80.8,89.6,81z M86,80.6c0.5,0,1-0.2,1.4-0.7v-1.2c-0.3,0-0.7-0.1-1.1-0.1c-0.4,0-0.7,0.1-0.9,0.3
		c-0.2,0.2-0.3,0.4-0.3,0.7c0,0.3,0.1,0.5,0.2,0.7S85.8,80.6,86,80.6z"/>
	<path fill="#043A63" d="M96.8,77.1v3.1c0,0.6,0.1,1,0.3,1.3c-0.3,0.2-0.7,0.4-1,0.4s-0.6-0.1-0.8-0.3c-0.1-0.2-0.2-0.5-0.2-0.8
		v-3.3c0-0.4-0.1-0.7-0.2-0.9c-0.1-0.2-0.3-0.3-0.6-0.3c-0.5,0-1,0.2-1.5,0.7v4.8c-0.3,0-0.5,0.1-0.9,0.1s-0.6,0-0.9-0.1v-6.9
		l0.1-0.1h0.6c0.5,0,0.8,0.3,1,0.8c0.7-0.6,1.4-0.9,2-0.9s1.2,0.2,1.5,0.7C96.7,75.8,96.8,76.4,96.8,77.1z"/>
	<path fill="#043A63" d="M100.4,82.8c0.1-0.4,0.2-0.7,0.3-0.9c-0.8-0.1-1.4-0.5-1.8-1.2c-0.4-0.6-0.6-1.5-0.6-2.4
		c0-1.2,0.3-2.2,0.9-2.8s1.3-0.9,2.1-0.9c0.8,0,1.5,0.2,1.9,0.7c0.5,0.4,0.7,1,0.7,1.6c0,0.6-0.3,0.9-0.9,0.9c-0.2,0-0.5,0-0.7-0.1
		c0-0.1,0-0.1,0-0.2c0-0.5-0.1-0.8-0.2-1.1c-0.1-0.3-0.4-0.4-0.8-0.4c-0.8,0-1.2,0.8-1.2,2.3s0.5,2.3,1.4,2.3c0.5,0,1-0.2,1.6-0.7
		c0.1,0.1,0.3,0.2,0.4,0.4c0.1,0.2,0.2,0.4,0.3,0.6c-0.6,0.6-1.3,0.9-2.1,1c-0.1,0.1-0.1,0.2-0.1,0.3c0.4,0,0.7,0.1,1,0.4
		c0.2,0.2,0.4,0.5,0.4,0.9c0,0.4-0.2,0.7-0.5,1c-0.3,0.3-0.7,0.4-1.2,0.4c-0.5,0-0.9-0.1-1.2-0.3c0-0.3,0.1-0.6,0.3-0.8
		c0.2,0.1,0.4,0.2,0.7,0.2c0.4,0,0.6-0.2,0.6-0.5c0-0.1,0-0.3-0.1-0.3c-0.1-0.1-0.2-0.1-0.3-0.1c-0.1,0-0.3,0-0.4,0.1
		C100.6,83,100.5,83,100.4,82.8z"/>
	<path fill="#043A63" d="M110.9,81c0,0.2-0.1,0.3-0.2,0.5c-0.1,0.2-0.2,0.3-0.4,0.4c-0.6-0.1-1-0.3-1.3-0.8c-0.6,0.6-1.3,0.9-2,0.9
		s-1.3-0.2-1.6-0.6s-0.5-0.9-0.5-1.5c0-0.8,0.3-1.4,0.8-1.8s1.2-0.6,2-0.6c0.4,0,0.8,0,1.2,0.1v-0.4c0-0.7-0.4-1.1-1.1-1.1
		c-0.5,0-1.2,0.2-2.1,0.5c-0.3-0.3-0.4-0.7-0.5-1.2c1-0.4,2-0.6,3-0.6c0.7,0,1.3,0.2,1.7,0.6c0.4,0.4,0.7,1,0.7,1.8v2.9
		C110.5,80.4,110.7,80.8,110.9,81z M107.4,80.6c0.5,0,1-0.2,1.4-0.7v-1.2c-0.3,0-0.7-0.1-1.1-0.1c-0.4,0-0.7,0.1-0.9,0.3
		c-0.2,0.2-0.3,0.4-0.3,0.7c0,0.3,0.1,0.5,0.2,0.7S107.2,80.6,107.4,80.6z"/>
	<path fill="#043A63" d="M115.8,81.8v-9.6c0.2,0,0.5-0.1,0.9-0.1c0.4,0,0.7,0,0.9,0.1v9.6c-0.2,0-0.5,0.1-0.9,0.1
		C116.3,81.8,116,81.8,115.8,81.8z"/>
	<path fill="#043A63" d="M125.5,77.1v3.1c0,0.6,0.1,1,0.3,1.3c-0.3,0.2-0.7,0.4-1,0.4s-0.6-0.1-0.8-0.3c-0.1-0.2-0.2-0.5-0.2-0.8
		v-3.3c0-0.4-0.1-0.7-0.2-0.9c-0.1-0.2-0.3-0.3-0.6-0.3c-0.5,0-1,0.2-1.5,0.7v4.8c-0.3,0-0.5,0.1-0.9,0.1s-0.6,0-0.9-0.1v-6.9
		l0.1-0.1h0.6c0.5,0,0.8,0.3,1,0.8c0.7-0.6,1.4-0.9,2-0.9s1.2,0.2,1.5,0.7C125.3,75.8,125.5,76.4,125.5,77.1z"/>
	<path fill="#043A63" d="M126.8,81.3c0-0.2,0.1-0.4,0.2-0.6c0.1-0.2,0.2-0.4,0.4-0.6c0.7,0.4,1.4,0.6,2,0.6c0.3,0,0.6-0.1,0.8-0.2
		c0.2-0.1,0.3-0.3,0.3-0.5c0-0.4-0.3-0.6-0.8-0.8l-0.8-0.3c-1.2-0.4-1.8-1.1-1.8-2c0-0.7,0.2-1.2,0.7-1.6c0.5-0.4,1.1-0.6,1.9-0.6
		s1.6,0.2,2.4,0.5c0,0.2,0,0.4-0.1,0.7c-0.1,0.2-0.2,0.4-0.4,0.5c-0.7-0.3-1.3-0.5-1.9-0.5c-0.3,0-0.5,0.1-0.6,0.2
		c-0.2,0.1-0.2,0.3-0.2,0.5c0,0.3,0.2,0.5,0.7,0.7l0.9,0.3c1.2,0.4,1.8,1.2,1.8,2.2c0,0.7-0.2,1.2-0.7,1.6c-0.5,0.4-1.2,0.6-2.1,0.6
		S127.6,81.7,126.8,81.3z"/>
	<path fill="#043A63" d="M137.3,74.8c0,0.2,0.1,0.4,0.1,0.6c0,0.2,0,0.4-0.1,0.6l-1.7,0v3.8c0,0.4,0.2,0.6,0.6,0.6h0.9
		c0.1,0.3,0.1,0.5,0.1,0.7s0,0.4,0,0.5c-0.6,0.1-1.1,0.1-1.7,0.1c-1.1,0-1.6-0.5-1.6-1.6v-4.1l-1,0c0-0.2-0.1-0.4-0.1-0.6
		c0-0.2,0-0.5,0.1-0.6l1,0v-1.1c0-0.4,0.1-0.7,0.2-0.8c0.1-0.2,0.4-0.2,0.7-0.2h0.7l0.1,0.1v2L137.3,74.8z"/>
	<path fill="#043A63" d="M138.2,75.6c0-0.2,0.1-0.3,0.2-0.5c0.1-0.2,0.2-0.3,0.4-0.4c0.7,0.1,1.2,0.5,1.5,1.2c0.4-0.8,1-1.2,1.8-1.2
		c0.2,0,0.5,0,0.8,0.1c0,0.6-0.1,1.1-0.4,1.6c-0.1,0-0.3-0.1-0.6-0.1c-0.6,0-1,0.3-1.4,0.9v4.5c-0.3,0-0.5,0.1-0.9,0.1
		c-0.3,0-0.6,0-0.9-0.1v-4.7C138.8,76.4,138.6,75.9,138.2,75.6z"/>
	<path fill="#043A63" d="M143.9,79.5v-3.1c0-0.6-0.1-1-0.3-1.3c0.3-0.3,0.6-0.4,1-0.4s0.7,0.1,0.8,0.3c0.1,0.2,0.2,0.5,0.2,0.8v3.3
		c0,0.4,0.1,0.7,0.2,0.9c0.1,0.2,0.3,0.3,0.6,0.3c0.5,0,1-0.2,1.5-0.7v-4.8c0.3,0,0.6-0.1,0.9-0.1s0.6,0,0.9,0.1v5
		c0,0.6,0.1,1,0.4,1.2c-0.1,0.4-0.3,0.7-0.6,0.9c-0.7-0.1-1.1-0.4-1.4-1c-0.7,0.7-1.5,1-2.3,1c-0.6,0-1.1-0.2-1.4-0.7
		C144.1,80.8,143.9,80.2,143.9,79.5z"/>
	<path fill="#043A63" d="M155.4,77.5c0-0.8-0.3-1.2-0.8-1.2c-0.4,0-0.8,0.2-1.3,0.7v4.8c-0.3,0-0.5,0.1-0.9,0.1s-0.6,0-0.9-0.1v-6.9
		l0.1-0.1h0.6c0.5,0,0.9,0.3,1,0.9c0.6-0.6,1.3-0.9,2-0.9c0.7,0,1.2,0.3,1.5,1c0.7-0.7,1.5-1,2.2-1c0.6,0,1,0.2,1.4,0.6
		c0.3,0.4,0.5,0.9,0.5,1.6v3.3c0,0.6,0.1,1,0.3,1.3c-0.3,0.2-0.6,0.4-1,0.4c-0.4,0-0.7-0.1-0.8-0.3s-0.2-0.5-0.2-0.8v-3.3
		c0-0.8-0.3-1.2-0.8-1.2c-0.4,0-0.8,0.2-1.3,0.7v4.8c-0.3,0-0.5,0.1-0.9,0.1c-0.3,0-0.6,0-0.9-0.1V77.5z"/>
	<path fill="#043A63" d="M168.1,78.9h-3.9c0,0.6,0.2,1,0.4,1.3c0.2,0.3,0.6,0.5,1.2,0.5s1.2-0.2,1.8-0.5c0.3,0.3,0.4,0.6,0.5,1.1
		c-0.7,0.5-1.6,0.8-2.7,0.8s-1.8-0.3-2.3-1c-0.5-0.7-0.7-1.6-0.7-2.6c0-1.1,0.3-2,0.8-2.6c0.5-0.7,1.2-1,2.2-1
		c0.9,0,1.7,0.3,2.2,0.8s0.8,1.3,0.8,2.1C168.2,78,168.2,78.5,168.1,78.9z M165.4,75.9c-0.8,0-1.2,0.6-1.2,1.7h2.4v-0.2
		c0-0.5-0.1-0.8-0.3-1.1C166.1,76,165.8,75.9,165.4,75.9z"/>
	<path fill="#043A63" d="M175.5,77.1v3.1c0,0.6,0.1,1,0.3,1.3c-0.3,0.2-0.7,0.4-1,0.4s-0.6-0.1-0.8-0.3c-0.1-0.2-0.2-0.5-0.2-0.8
		v-3.3c0-0.4-0.1-0.7-0.2-0.9c-0.1-0.2-0.3-0.3-0.6-0.3c-0.5,0-1,0.2-1.5,0.7v4.8c-0.3,0-0.5,0.1-0.9,0.1s-0.6,0-0.9-0.1v-6.9
		l0.1-0.1h0.6c0.5,0,0.8,0.3,1,0.8c0.7-0.6,1.4-0.9,2-0.9s1.2,0.2,1.5,0.7C175.4,75.8,175.5,76.4,175.5,77.1z"/>
	<path fill="#043A63" d="M181.1,74.8c0,0.2,0.1,0.4,0.1,0.6c0,0.2,0,0.4-0.1,0.6l-1.7,0v3.8c0,0.4,0.2,0.6,0.6,0.6h0.9
		c0.1,0.3,0.1,0.5,0.1,0.7s0,0.4,0,0.5c-0.6,0.1-1.1,0.1-1.7,0.1c-1.1,0-1.6-0.5-1.6-1.6v-4.1l-1,0c0-0.2-0.1-0.4-0.1-0.6
		c0-0.2,0-0.5,0.1-0.6l1,0v-1.1c0-0.4,0.1-0.7,0.2-0.8c0.1-0.2,0.4-0.2,0.7-0.2h0.7l0.1,0.1v2L181.1,74.8z"/>
	<path fill="#043A63" d="M188.1,81c0,0.2-0.1,0.3-0.2,0.5c-0.1,0.2-0.2,0.3-0.4,0.4c-0.6-0.1-1-0.3-1.3-0.8c-0.6,0.6-1.3,0.9-2,0.9
		s-1.3-0.2-1.6-0.6s-0.5-0.9-0.5-1.5c0-0.8,0.3-1.4,0.8-1.8s1.2-0.6,2-0.6c0.4,0,0.8,0,1.2,0.1v-0.4c0-0.7-0.4-1.1-1.1-1.1
		c-0.5,0-1.2,0.2-2.1,0.5c-0.3-0.3-0.4-0.7-0.5-1.2c1-0.4,2-0.6,3-0.6c0.7,0,1.3,0.2,1.7,0.6c0.4,0.4,0.7,1,0.7,1.8v2.9
		C187.7,80.4,187.8,80.8,188.1,81z M184.6,80.6c0.5,0,1-0.2,1.4-0.7v-1.2c-0.3,0-0.7-0.1-1.1-0.1c-0.4,0-0.7,0.1-0.9,0.3
		c-0.2,0.2-0.3,0.4-0.3,0.7c0,0.3,0.1,0.5,0.2,0.7S184.3,80.6,184.6,80.6z"/>
	<path fill="#043A63" d="M191.9,80.5h0.5c0.1,0.3,0.1,0.5,0.1,0.7s0,0.4,0,0.5c-0.5,0.1-1,0.1-1.3,0.1c-1,0-1.5-0.5-1.5-1.6v-8.6
		l0.1-0.1h0.7c0.3,0,0.6,0.1,0.7,0.2c0.1,0.2,0.2,0.4,0.2,0.8v7.3C191.3,80.3,191.5,80.5,191.9,80.5z"/>
	<path fill="#043A63" d="M61.1,95.7h-3.9c0,0.6,0.2,1,0.4,1.3c0.2,0.3,0.6,0.5,1.2,0.5s1.2-0.2,1.8-0.5c0.3,0.3,0.4,0.6,0.5,1.1
		c-0.7,0.5-1.6,0.8-2.7,0.8s-1.8-0.3-2.3-1c-0.5-0.7-0.7-1.6-0.7-2.6c0-1.1,0.3-2,0.8-2.6c0.5-0.7,1.2-1,2.2-1
		c0.9,0,1.7,0.3,2.2,0.8s0.8,1.3,0.8,2.1C61.2,94.8,61.2,95.3,61.1,95.7z M58.4,92.7c-0.8,0-1.2,0.6-1.2,1.7h2.4v-0.2
		c0-0.5-0.1-0.8-0.3-1.1C59.1,92.8,58.8,92.7,58.4,92.7z"/>
	<path fill="#043A63" d="M66.6,94.3c0-0.8-0.3-1.2-0.8-1.2c-0.4,0-0.8,0.2-1.3,0.7v4.8c-0.3,0-0.5,0.1-0.9,0.1c-0.3,0-0.6,0-0.9-0.1
		v-6.9l0.1-0.1h0.6c0.5,0,0.9,0.3,1,0.9c0.6-0.6,1.3-0.9,2-0.9c0.7,0,1.2,0.3,1.5,1c0.7-0.7,1.5-1,2.2-1c0.6,0,1,0.2,1.4,0.6
		c0.3,0.4,0.5,0.9,0.5,1.6V97c0,0.6,0.1,1,0.3,1.3c-0.3,0.2-0.6,0.4-1,0.4c-0.4,0-0.7-0.1-0.8-0.3s-0.2-0.5-0.2-0.8v-3.3
		c0-0.8-0.3-1.2-0.8-1.2c-0.4,0-0.8,0.2-1.3,0.7v4.8c-0.3,0-0.5,0.1-0.9,0.1c-0.3,0-0.6,0-0.9-0.1V94.3z"/>
	<path fill="#043A63" d="M81,93.4l2.2,0c0,0,0,0,0,0c0.8,0,1.2,0.4,1.2,1.1v3.7c-1.1,0.4-2.3,0.6-3.6,0.6s-2.3-0.5-3-1.4
		c-0.7-0.9-1-2.1-1-3.7s0.4-2.8,1.3-3.6c0.8-0.9,1.9-1.3,3.1-1.3c1.2,0,2.3,0.3,3.3,1c0,0.3-0.1,0.5-0.3,0.7
		c-0.2,0.2-0.3,0.4-0.5,0.6c-0.8-0.6-1.6-0.8-2.4-0.8s-1.4,0.3-1.9,0.9c-0.4,0.6-0.7,1.5-0.7,2.7c0,2.3,0.8,3.5,2.5,3.5
		c0.5,0,1-0.1,1.6-0.2v-1.3c0-0.4,0-0.7,0-0.9h-1c-0.3,0-0.5-0.1-0.6-0.2c-0.1-0.1-0.2-0.3-0.2-0.6S80.9,93.6,81,93.4z"/>
	<path fill="#043A63" d="M91.5,95.7h-3.9c0,0.6,0.2,1,0.4,1.3c0.2,0.3,0.6,0.5,1.2,0.5s1.2-0.2,1.8-0.5c0.3,0.3,0.4,0.6,0.5,1.1
		c-0.7,0.5-1.6,0.8-2.7,0.8s-1.8-0.3-2.3-1c-0.5-0.7-0.7-1.6-0.7-2.6c0-1.1,0.3-2,0.8-2.6c0.5-0.7,1.2-1,2.2-1
		c0.9,0,1.7,0.3,2.2,0.8s0.8,1.3,0.8,2.1C91.6,94.8,91.5,95.3,91.5,95.7z M88.8,92.7c-0.8,0-1.2,0.6-1.2,1.7H90v-0.2
		c0-0.5-0.1-0.8-0.3-1.1C89.5,92.8,89.2,92.7,88.8,92.7z"/>
	<path fill="#043A63" d="M92.6,98.1c0-0.2,0.1-0.4,0.2-0.6c0.1-0.2,0.2-0.4,0.4-0.6c0.7,0.4,1.4,0.6,2,0.6c0.3,0,0.6-0.1,0.8-0.2
		c0.2-0.1,0.3-0.3,0.3-0.5c0-0.4-0.3-0.6-0.8-0.8l-0.8-0.3c-1.2-0.4-1.8-1.1-1.8-2c0-0.7,0.2-1.2,0.7-1.6c0.5-0.4,1.1-0.6,1.9-0.6
		s1.6,0.2,2.4,0.5c0,0.2,0,0.4-0.1,0.7c-0.1,0.2-0.2,0.4-0.4,0.5c-0.7-0.3-1.3-0.5-1.9-0.5c-0.3,0-0.5,0.1-0.6,0.2
		c-0.2,0.1-0.2,0.3-0.2,0.5c0,0.3,0.2,0.5,0.7,0.7l0.9,0.3c1.2,0.4,1.8,1.2,1.8,2.2c0,0.7-0.2,1.2-0.7,1.6c-0.5,0.4-1.2,0.6-2.1,0.6
		S93.4,98.5,92.6,98.1z"/>
	<path fill="#043A63" d="M103,91.6c0,0.2,0.1,0.4,0.1,0.6c0,0.2,0,0.4-0.1,0.6l-1.7,0v3.8c0,0.4,0.2,0.6,0.6,0.6h0.9
		c0.1,0.3,0.1,0.5,0.1,0.7s0,0.4,0,0.5c-0.6,0.1-1.1,0.1-1.7,0.1c-1.1,0-1.6-0.5-1.6-1.6v-4.1l-1,0c0-0.2-0.1-0.4-0.1-0.6
		c0-0.2,0-0.5,0.1-0.6l1,0v-1.1c0-0.4,0.1-0.7,0.2-0.8c0.1-0.2,0.4-0.2,0.7-0.2h0.7l0.1,0.1v2L103,91.6z"/>
	<path fill="#043A63" d="M110,97.8c0,0.2-0.1,0.3-0.2,0.5c-0.1,0.2-0.2,0.3-0.4,0.4c-0.6-0.1-1-0.3-1.3-0.8c-0.6,0.6-1.3,0.9-2,0.9
		s-1.3-0.2-1.6-0.6s-0.5-0.9-0.5-1.5c0-0.8,0.3-1.4,0.8-1.8s1.2-0.6,2-0.6c0.4,0,0.8,0,1.2,0.1v-0.4c0-0.7-0.4-1.1-1.1-1.1
		c-0.5,0-1.2,0.2-2.1,0.5c-0.3-0.3-0.4-0.7-0.5-1.2c1-0.4,2-0.6,3-0.6c0.7,0,1.3,0.2,1.7,0.6c0.4,0.4,0.7,1,0.7,1.8v2.9
		C109.6,97.2,109.7,97.6,110,97.8z M107,90.6l-0.7-0.4c-0.1-0.1-0.3-0.1-0.5-0.1c-0.2,0-0.3,0.1-0.5,0.4l-0.1,0.2
		c-0.2,0-0.3-0.1-0.5-0.2c-0.2-0.1-0.3-0.2-0.3-0.4l0.1-0.3c0.1-0.3,0.4-0.6,0.6-0.8c0.3-0.2,0.5-0.3,0.8-0.3c0.3,0,0.6,0.1,0.9,0.2
		l0.7,0.4c0.2,0.1,0.3,0.1,0.5,0.1s0.3-0.1,0.5-0.4l0.1-0.2c0.2,0,0.3,0.1,0.5,0.2c0.2,0.1,0.3,0.2,0.3,0.4l-0.1,0.3
		c-0.1,0.3-0.4,0.6-0.6,0.8c-0.3,0.2-0.5,0.3-0.8,0.3S107.2,90.7,107,90.6z M106.5,97.4c0.5,0,1-0.2,1.4-0.7v-1.2
		c-0.3,0-0.7-0.1-1.1-0.1c-0.4,0-0.7,0.1-0.9,0.3c-0.2,0.2-0.3,0.4-0.3,0.7c0,0.3,0.1,0.5,0.2,0.7S106.2,97.4,106.5,97.4z"/>
	<path fill="#043A63" d="M117.3,95.1c0,1.3-0.3,2.2-1,2.9c-0.5,0.5-1.2,0.8-2.1,0.8c-0.9,0-1.6-0.3-2.1-0.8c-0.7-0.7-1-1.6-1-2.9
		s0.3-2.2,1-2.9c0.5-0.5,1.2-0.8,2.1-0.8c0.9,0,1.6,0.3,2.1,0.8C116.9,92.9,117.3,93.8,117.3,95.1z M114.2,92.7
		c-0.9,0-1.3,0.8-1.3,2.4c0,1.6,0.4,2.4,1.3,2.4c0.9,0,1.3-0.8,1.3-2.4C115.5,93.5,115.1,92.7,114.2,92.7z"/>
	<path fill="#043A63" d="M123.9,98.8c-0.8,0-1.4-0.3-1.8-1c-0.4-0.6-0.6-1.5-0.6-2.7c0-1.1,0.3-2,0.8-2.7c0.5-0.6,1.2-1,1.9-1
		c0.5,0,1,0.1,1.5,0.4v-3.5l0.1-0.1h0.7c0.3,0,0.6,0.1,0.7,0.2c0.1,0.2,0.2,0.4,0.2,0.8v7.2c0,0.6,0.1,1,0.4,1.2
		c0,0.2-0.1,0.3-0.2,0.5c-0.1,0.2-0.2,0.3-0.4,0.4c-0.6-0.1-1-0.4-1.2-0.8C125.3,98.5,124.7,98.8,123.9,98.8z M124.3,97.3
		c0.5,0,1-0.3,1.3-0.8v-3.3c-0.5-0.3-0.9-0.4-1.2-0.4s-0.6,0.2-0.9,0.6c-0.2,0.4-0.3,1-0.3,1.7s0.1,1.3,0.3,1.6S124,97.3,124.3,97.3
		z"/>
	<path fill="#043A63" d="M134.6,95.7h-3.9c0,0.6,0.2,1,0.4,1.3c0.2,0.3,0.6,0.5,1.2,0.5s1.2-0.2,1.8-0.5c0.3,0.3,0.4,0.6,0.5,1.1
		c-0.7,0.5-1.6,0.8-2.7,0.8s-1.8-0.3-2.3-1c-0.5-0.7-0.7-1.6-0.7-2.6c0-1.1,0.3-2,0.8-2.6c0.5-0.7,1.2-1,2.2-1
		c0.9,0,1.7,0.3,2.2,0.8s0.8,1.3,0.8,2.1C134.7,94.8,134.7,95.3,134.6,95.7z M131.9,92.7c-0.8,0-1.2,0.6-1.2,1.7h2.4v-0.2
		c0-0.5-0.1-0.8-0.3-1.1C132.6,92.8,132.3,92.7,131.9,92.7z"/>
	<path fill="#043A63" d="M145.1,89.8c0.6,0.5,0.9,1.3,0.9,2.4s-0.3,1.8-0.9,2.4c-0.6,0.6-1.4,0.8-2.4,0.8h-1.3v3.2
		c-0.2,0-0.5,0.1-0.9,0.1c-0.4,0-0.7,0-0.9-0.1v-9.5l0.1-0.1c1.5,0,2.5-0.1,3-0.1C143.7,88.9,144.5,89.2,145.1,89.8z M141.4,90.3V94
		c0.6,0,1,0,1.2,0c0.6,0,1-0.2,1.2-0.5s0.3-0.8,0.3-1.3c0-0.5-0.1-0.9-0.3-1.3c-0.2-0.4-0.6-0.5-1.2-0.5
		C142.1,90.3,141.7,90.3,141.4,90.3z"/>
	<path fill="#043A63" d="M152.7,95.7h-3.9c0,0.6,0.2,1,0.4,1.3c0.2,0.3,0.6,0.5,1.2,0.5s1.2-0.2,1.8-0.5c0.3,0.3,0.4,0.6,0.5,1.1
		c-0.7,0.5-1.6,0.8-2.7,0.8s-1.8-0.3-2.3-1c-0.5-0.7-0.7-1.6-0.7-2.6c0-1.1,0.3-2,0.8-2.6c0.5-0.7,1.2-1,2.2-1
		c0.9,0,1.7,0.3,2.2,0.8s0.8,1.3,0.8,2.1C152.9,94.8,152.8,95.3,152.7,95.7z M150,92.7c-0.8,0-1.2,0.6-1.2,1.7h2.4v-0.2
		c0-0.5-0.1-0.8-0.3-1.1C150.7,92.8,150.4,92.7,150,92.7z"/>
	<path fill="#043A63" d="M153.8,98.1c0-0.2,0.1-0.4,0.2-0.6c0.1-0.2,0.2-0.4,0.4-0.6c0.7,0.4,1.4,0.6,2,0.6c0.3,0,0.6-0.1,0.8-0.2
		c0.2-0.1,0.3-0.3,0.3-0.5c0-0.4-0.3-0.6-0.8-0.8l-0.8-0.3c-1.2-0.4-1.8-1.1-1.8-2c0-0.7,0.2-1.2,0.7-1.6c0.5-0.4,1.1-0.6,1.9-0.6
		s1.6,0.2,2.4,0.5c0,0.2,0,0.4-0.1,0.7c-0.1,0.2-0.2,0.4-0.4,0.5c-0.7-0.3-1.3-0.5-1.9-0.5c-0.3,0-0.5,0.1-0.6,0.2
		c-0.2,0.1-0.2,0.3-0.2,0.5c0,0.3,0.2,0.5,0.7,0.7l0.9,0.3c1.2,0.4,1.8,1.2,1.8,2.2c0,0.7-0.2,1.2-0.7,1.6c-0.5,0.4-1.2,0.6-2.1,0.6
		S154.7,98.5,153.8,98.1z"/>
	<path fill="#043A63" d="M160,98.1c0-0.2,0.1-0.4,0.2-0.6c0.1-0.2,0.2-0.4,0.4-0.6c0.7,0.4,1.4,0.6,2,0.6c0.3,0,0.6-0.1,0.8-0.2
		c0.2-0.1,0.3-0.3,0.3-0.5c0-0.4-0.3-0.6-0.8-0.8l-0.8-0.3c-1.2-0.4-1.8-1.1-1.8-2c0-0.7,0.2-1.2,0.7-1.6c0.5-0.4,1.1-0.6,1.9-0.6
		s1.6,0.2,2.4,0.5c0,0.2,0,0.4-0.1,0.7c-0.1,0.2-0.2,0.4-0.4,0.5c-0.7-0.3-1.3-0.5-1.9-0.5c-0.3,0-0.5,0.1-0.6,0.2
		c-0.2,0.1-0.2,0.3-0.2,0.5c0,0.3,0.2,0.5,0.7,0.7l0.9,0.3c1.2,0.4,1.8,1.2,1.8,2.2c0,0.7-0.2,1.2-0.7,1.6c-0.5,0.4-1.2,0.6-2.1,0.6
		S160.8,98.5,160,98.1z"/>
	<path fill="#043A63" d="M172.5,95.1c0,1.3-0.3,2.2-1,2.9c-0.5,0.5-1.2,0.8-2.1,0.8c-0.9,0-1.6-0.3-2.1-0.8c-0.7-0.7-1-1.6-1-2.9
		s0.3-2.2,1-2.9c0.5-0.5,1.2-0.8,2.1-0.8c0.9,0,1.6,0.3,2.1,0.8C172.2,92.9,172.5,93.8,172.5,95.1z M169.4,92.7
		c-0.9,0-1.3,0.8-1.3,2.4c0,1.6,0.4,2.4,1.3,2.4c0.9,0,1.3-0.8,1.3-2.4C170.8,93.5,170.3,92.7,169.4,92.7z"/>
	<path fill="#043A63" d="M179.7,97.8c0,0.2-0.1,0.3-0.2,0.5c-0.1,0.2-0.2,0.3-0.4,0.4c-0.6-0.1-1-0.3-1.3-0.8
		c-0.6,0.6-1.3,0.9-2,0.9s-1.3-0.2-1.6-0.6s-0.5-0.9-0.5-1.5c0-0.8,0.3-1.4,0.8-1.8s1.2-0.6,2-0.6c0.4,0,0.8,0,1.2,0.1v-0.4
		c0-0.7-0.4-1.1-1.1-1.1c-0.5,0-1.2,0.2-2.1,0.5c-0.3-0.3-0.4-0.7-0.5-1.2c1-0.4,2-0.6,3-0.6c0.7,0,1.3,0.2,1.7,0.6
		c0.4,0.4,0.7,1,0.7,1.8v2.9C179.3,97.2,179.4,97.6,179.7,97.8z M176.2,97.4c0.5,0,1-0.2,1.4-0.7v-1.2c-0.3,0-0.7-0.1-1.1-0.1
		c-0.4,0-0.7,0.1-0.9,0.3c-0.2,0.2-0.3,0.4-0.3,0.7c0,0.3,0.1,0.5,0.2,0.7S175.9,97.4,176.2,97.4z"/>
	<path fill="#043A63" d="M180.6,98.1c0-0.2,0.1-0.4,0.2-0.6c0.1-0.2,0.2-0.4,0.4-0.6c0.7,0.4,1.4,0.6,2,0.6c0.3,0,0.6-0.1,0.8-0.2
		c0.2-0.1,0.3-0.3,0.3-0.5c0-0.4-0.3-0.6-0.8-0.8l-0.8-0.3c-1.2-0.4-1.8-1.1-1.8-2c0-0.7,0.2-1.2,0.7-1.6c0.5-0.4,1.1-0.6,1.9-0.6
		s1.6,0.2,2.4,0.5c0,0.2,0,0.4-0.1,0.7c-0.1,0.2-0.2,0.4-0.4,0.5c-0.7-0.3-1.3-0.5-1.9-0.5c-0.3,0-0.5,0.1-0.6,0.2
		c-0.2,0.1-0.2,0.3-0.2,0.5c0,0.3,0.2,0.5,0.7,0.7l0.9,0.3c1.2,0.4,1.8,1.2,1.8,2.2c0,0.7-0.2,1.2-0.7,1.6c-0.5,0.4-1.2,0.6-2.1,0.6
		S181.4,98.5,180.6,98.1z"/>
	<path fill="#043A63" d="M187.3,98.5c-0.1-0.2-0.1-0.4-0.1-0.7s0-0.6,0.1-0.8c0.3-0.1,0.6-0.2,1-0.2s0.7,0.1,0.9,0.2
		c0.1,0.2,0.1,0.5,0.1,0.8s0,0.6-0.1,0.7c-0.2,0.1-0.5,0.2-0.9,0.2S187.6,98.6,187.3,98.5z"/>
</g>
<g>
	<path fill="#FFFFFF" d="M35.9,105.6l2.7,0c0.9,0,1.7,0.3,2.2,0.8s0.8,1.2,0.8,2.2c0,1-0.3,1.7-0.8,2.2s-1.3,0.8-2.2,0.8h-1.5v3.3
		c-0.2,0-0.4,0.1-0.7,0.1s-0.5,0-0.7-0.1L35.9,105.6L35.9,105.6z M37.1,110.4l1.4,0c0.4,0,0.8-0.1,1-0.3c0.3-0.2,0.4-0.4,0.5-0.7
		c0.1-0.3,0.1-0.6,0.1-1s-0.1-0.8-0.4-1.2c-0.3-0.4-0.7-0.6-1.3-0.6c-0.6,0-1.1,0-1.4,0V110.4z"/>
	<path fill="#FFFFFF" d="M42.5,108.8c0.1-0.3,0.2-0.5,0.5-0.7c0.6,0.1,1,0.5,1.2,1.2c0.4-0.8,1-1.2,1.8-1.2c0.2,0,0.5,0,0.7,0.1
		c0,0.5-0.1,0.9-0.3,1.2c-0.1,0-0.2,0-0.5-0.1c-0.6,0-1.1,0.4-1.5,1.1v4.4c-0.2,0-0.4,0.1-0.7,0.1c-0.3,0-0.5,0-0.7-0.1v-4.7
		C43,109.5,42.8,109.1,42.5,108.8z"/>
	<path fill="#FFFFFF" d="M52,108.7c0.6,0.6,0.9,1.6,0.9,2.8c0,1.2-0.3,2.1-0.9,2.8c-0.5,0.5-1.1,0.7-1.9,0.7s-1.4-0.2-1.9-0.7
		c-0.6-0.6-0.9-1.6-0.9-2.8c0-1.2,0.3-2.1,0.9-2.8c0.5-0.5,1.1-0.7,1.9-0.7S51.5,108.2,52,108.7z M48.6,111.5c0,1.7,0.5,2.5,1.5,2.5
		c1,0,1.5-0.8,1.5-2.5c0-0.5,0-0.9-0.1-1.2c-0.1-0.4-0.2-0.7-0.5-0.9s-0.5-0.4-0.9-0.4s-0.7,0.1-0.9,0.4s-0.4,0.6-0.5,0.9
		C48.6,110.6,48.6,111,48.6,111.5z"/>
	<path fill="#FFFFFF" d="M57.7,108c0.7,0,1.3,0.3,1.7,0.9c0.4,0.6,0.6,1.5,0.6,2.6c0,1.1-0.3,1.9-0.8,2.5c-0.5,0.6-1.1,0.9-1.8,0.9
		c-0.5,0-1.1-0.2-1.6-0.5v2.4c0,0.3,0,0.5-0.1,0.6c-0.1,0.1-0.3,0.2-0.6,0.2h-0.5l-0.1-0.1v-9.5l0.1-0.1H55c0.4,0,0.7,0.2,0.8,0.7
		C56.3,108.3,57,108,57.7,108z M57.4,109.1c-0.6,0-1.2,0.3-1.6,0.9v3.3c0.5,0.4,1,0.5,1.4,0.5s0.8-0.2,1-0.6c0.3-0.4,0.4-1,0.4-1.8
		s-0.1-1.4-0.4-1.8C58.1,109.3,57.8,109.1,57.4,109.1z"/>
	<path fill="#FFFFFF" d="M65.9,108.7c0.6,0.6,0.9,1.6,0.9,2.8c0,1.2-0.3,2.1-0.9,2.8c-0.5,0.5-1.1,0.7-1.9,0.7
		c-0.8,0-1.4-0.2-1.9-0.7c-0.6-0.6-0.9-1.6-0.9-2.8c0-1.2,0.3-2.1,0.9-2.8c0.5-0.5,1.1-0.7,1.9-0.7C64.8,108,65.4,108.2,65.9,108.7z
		 M62.4,111.5c0,1.7,0.5,2.5,1.5,2.5c1,0,1.5-0.8,1.5-2.5c0-0.5,0-0.9-0.1-1.2c-0.1-0.4-0.2-0.7-0.5-0.9S64.4,109,64,109
		c-0.4,0-0.7,0.1-0.9,0.4s-0.4,0.6-0.5,0.9C62.5,110.6,62.4,111,62.4,111.5z"/>
	<path fill="#FFFFFF" d="M68.1,108.8c0.1-0.3,0.2-0.5,0.5-0.7c0.6,0.1,1,0.5,1.2,1.2c0.4-0.8,1-1.2,1.8-1.2c0.2,0,0.5,0,0.7,0.1
		c0,0.5-0.1,0.9-0.3,1.2c-0.1,0-0.2,0-0.5-0.1c-0.6,0-1.1,0.4-1.5,1.1v4.4c-0.2,0-0.4,0.1-0.7,0.1c-0.3,0-0.5,0-0.7-0.1v-4.7
		C68.6,109.5,68.4,109.1,68.1,108.8z"/>
	<path fill="#FFFFFF" d="M76.5,110.7c0,0,0-0.1,0-0.1c0-1-0.4-1.6-1.2-1.6c-0.5,0-0.8,0.2-1,0.6c-0.2,0.4-0.4,1.1-0.4,1.9
		c0,1.6,0.5,2.4,1.6,2.4c0.5,0,1-0.2,1.7-0.7c0.1,0.1,0.2,0.2,0.4,0.3c0.1,0.2,0.2,0.3,0.2,0.4c-0.7,0.7-1.5,1-2.4,1s-1.6-0.3-2.1-1
		c-0.5-0.7-0.7-1.5-0.7-2.6c0-1.1,0.3-1.9,0.8-2.5c0.5-0.6,1.2-0.9,2-0.9c0.8,0,1.4,0.2,1.8,0.6c0.4,0.4,0.6,0.9,0.6,1.4
		c0,0.5-0.2,0.7-0.7,0.7C76.8,110.7,76.7,110.7,76.5,110.7z"/>
	<path fill="#FFFFFF" d="M80.8,109.3v5.5c-0.2,0-0.4,0.1-0.6,0.1s-0.5,0-0.6-0.1v-5c0-0.2,0-0.4-0.1-0.5c-0.1-0.1-0.2-0.2-0.5-0.2
		h-0.1c0-0.1-0.1-0.3-0.1-0.5s0-0.3,0.1-0.5c0.3,0,0.6-0.1,0.8-0.1h0.2c0.3,0,0.6,0.1,0.8,0.3C80.7,108.6,80.8,108.9,80.8,109.3z
		 M79.1,106.3c0-0.2,0-0.4,0.1-0.6c0.2-0.1,0.4-0.2,0.7-0.2s0.5,0.1,0.7,0.2c0.1,0.2,0.1,0.4,0.1,0.6s0,0.4-0.1,0.6
		c-0.2,0.1-0.4,0.2-0.7,0.2s-0.6-0.1-0.7-0.2C79.1,106.7,79.1,106.5,79.1,106.3z"/>
	<path fill="#FFFFFF" d="M87.2,108.7c0.6,0.6,0.9,1.6,0.9,2.8c0,1.2-0.3,2.1-0.9,2.8c-0.5,0.5-1.1,0.7-1.9,0.7s-1.4-0.2-1.9-0.7
		c-0.6-0.6-0.9-1.6-0.9-2.8c0-1.2,0.3-2.1,0.9-2.8c0.5-0.5,1.1-0.7,1.9-0.7S86.7,108.2,87.2,108.7z M83.7,111.5
		c0,1.7,0.5,2.5,1.5,2.5c1,0,1.5-0.8,1.5-2.5c0-0.5,0-0.9-0.1-1.2c-0.1-0.4-0.2-0.7-0.5-0.9s-0.5-0.4-0.9-0.4s-0.7,0.1-0.9,0.4
		s-0.4,0.6-0.5,0.9C83.7,110.6,83.7,111,83.7,111.5z"/>
	<path fill="#FFFFFF" d="M95,110.2v3.2c0,0.5,0.1,0.9,0.2,1.2c-0.2,0.2-0.5,0.3-0.8,0.3c-0.5,0-0.7-0.3-0.7-0.8v-3.5
		c0-0.5-0.1-0.8-0.2-1c-0.1-0.2-0.3-0.3-0.6-0.3s-0.6,0.1-1,0.2c-0.3,0.2-0.6,0.4-0.9,0.6v4.7c-0.2,0-0.4,0.1-0.6,0.1
		s-0.5,0-0.7-0.1v-6.6l0.1-0.1h0.5c0.5,0,0.7,0.3,0.7,0.9c0.7-0.6,1.4-0.9,2.2-0.9c0.6,0,1,0.2,1.3,0.6C94.8,109,95,109.6,95,110.2z
		"/>
	<path fill="#FFFFFF" d="M102,114.2c-0.1,0.3-0.3,0.5-0.5,0.7c-0.5-0.1-0.8-0.4-1-0.9c-0.6,0.6-1.3,0.9-2,0.9
		c-0.7,0-1.2-0.2-1.5-0.6c-0.3-0.4-0.5-0.9-0.5-1.4c0-0.7,0.2-1.3,0.7-1.7c0.5-0.4,1.1-0.6,1.9-0.6c0.5,0,0.9,0,1.3,0.1v-0.6
		c0-0.8-0.4-1.2-1.1-1.2c-0.6,0-1.3,0.2-2.1,0.5c-0.2-0.2-0.4-0.6-0.4-1c0.9-0.4,1.9-0.6,2.8-0.6c0.7,0,1.2,0.2,1.6,0.6
		c0.4,0.4,0.6,0.9,0.6,1.7v2.8C101.7,113.6,101.8,114,102,114.2z M98.7,113.9c0.6,0,1.2-0.3,1.7-0.9v-1.3c-0.4,0-0.8-0.1-1.2-0.1
		s-0.8,0.1-1,0.3c-0.2,0.2-0.4,0.5-0.4,0.8c0,0.3,0.1,0.6,0.3,0.8C98.2,113.8,98.4,113.9,98.7,113.9z"/>
	<path fill="#FFFFFF" d="M103.3,108.8c0.1-0.3,0.2-0.5,0.5-0.7c0.6,0.1,1,0.5,1.2,1.2c0.4-0.8,1-1.2,1.8-1.2c0.2,0,0.5,0,0.7,0.1
		c0,0.5-0.1,0.9-0.3,1.2c-0.1,0-0.2,0-0.5-0.1c-0.6,0-1.1,0.4-1.5,1.1v4.4c-0.2,0-0.4,0.1-0.7,0.1c-0.3,0-0.5,0-0.7-0.1v-4.7
		C103.7,109.5,103.6,109.1,103.3,108.8z"/>
	<path fill="#FFFFFF" d="M114.8,110.7c0,0,0-0.1,0-0.1c0-1-0.4-1.6-1.2-1.6c-0.5,0-0.8,0.2-1,0.6c-0.2,0.4-0.4,1.1-0.4,1.9
		c0,1.6,0.5,2.4,1.6,2.4c0.5,0,1-0.2,1.7-0.7c0.1,0.1,0.2,0.2,0.4,0.3c0.1,0.2,0.2,0.3,0.2,0.4c-0.7,0.7-1.5,1-2.4,1s-1.6-0.3-2.1-1
		c-0.5-0.7-0.7-1.5-0.7-2.6c0-1.1,0.3-1.9,0.8-2.5c0.5-0.6,1.2-0.9,2-0.9c0.8,0,1.4,0.2,1.8,0.6c0.4,0.4,0.6,0.9,0.6,1.4
		c0,0.5-0.2,0.7-0.7,0.7C115.1,110.7,115,110.7,114.8,110.7z"/>
	<path fill="#FFFFFF" d="M121.8,108.7c0.6,0.6,0.9,1.6,0.9,2.8c0,1.2-0.3,2.1-0.9,2.8c-0.5,0.5-1.1,0.7-1.9,0.7s-1.4-0.2-1.9-0.7
		c-0.6-0.6-0.9-1.6-0.9-2.8c0-1.2,0.3-2.1,0.9-2.8c0.5-0.5,1.1-0.7,1.9-0.7S121.4,108.2,121.8,108.7z M118.4,111.5
		c0,1.7,0.5,2.5,1.5,2.5c1,0,1.5-0.8,1.5-2.5c0-0.5,0-0.9-0.1-1.2c-0.1-0.4-0.2-0.7-0.5-0.9s-0.5-0.4-0.9-0.4s-0.7,0.1-0.9,0.4
		s-0.4,0.6-0.5,0.9C118.4,110.6,118.4,111,118.4,111.5z"/>
	<path fill="#FFFFFF" d="M129.6,110.2v3.2c0,0.5,0.1,0.9,0.2,1.2c-0.2,0.2-0.5,0.3-0.8,0.3c-0.5,0-0.7-0.3-0.7-0.8v-3.5
		c0-0.5-0.1-0.8-0.2-1c-0.1-0.2-0.3-0.3-0.6-0.3s-0.6,0.1-1,0.2c-0.3,0.2-0.6,0.4-0.9,0.6v4.7c-0.2,0-0.4,0.1-0.6,0.1
		s-0.5,0-0.7-0.1v-6.6l0.1-0.1h0.5c0.5,0,0.7,0.3,0.7,0.9c0.7-0.6,1.4-0.9,2.2-0.9c0.6,0,1,0.2,1.3,0.6
		C129.5,109,129.6,109.6,129.6,110.2z"/>
	<path fill="#FFFFFF" d="M136.8,110.2v3.2c0,0.5,0.1,0.9,0.2,1.2c-0.2,0.2-0.5,0.3-0.8,0.3c-0.5,0-0.7-0.3-0.7-0.8v-3.5
		c0-0.5-0.1-0.8-0.2-1s-0.3-0.3-0.7-0.3c-0.3,0-0.6,0.1-1,0.2c-0.3,0.2-0.6,0.4-0.9,0.6v4.7c-0.2,0-0.4,0.1-0.6,0.1s-0.5,0-0.7-0.1
		V105l0.1-0.1h0.5c0.3,0,0.5,0.1,0.6,0.2s0.1,0.3,0.1,0.6v3.2c0.7-0.6,1.4-0.9,2.2-0.9c0.6,0,1.1,0.2,1.3,0.6
		C136.7,109.1,136.8,109.6,136.8,110.2z"/>
	<path fill="#FFFFFF" d="M143.7,111.9h-4c0,0.6,0.2,1.1,0.4,1.5c0.2,0.4,0.6,0.5,1.2,0.5c0.6,0,1.2-0.2,1.9-0.5
		c0.2,0.2,0.4,0.5,0.4,0.9c-0.7,0.5-1.6,0.8-2.5,0.8s-1.7-0.3-2.1-1c-0.4-0.6-0.6-1.5-0.6-2.5c0-1,0.2-1.9,0.7-2.5
		c0.5-0.6,1.2-1,2-1s1.5,0.3,2,0.8c0.5,0.5,0.7,1.2,0.7,2.1C143.8,111.2,143.8,111.6,143.7,111.9z M142.2,109.5
		c-0.2-0.3-0.6-0.5-1-0.5s-0.8,0.2-1.1,0.5c-0.2,0.3-0.4,0.8-0.4,1.5h2.8v-0.2C142.5,110.2,142.4,109.8,142.2,109.5z"/>
	<path fill="#FFFFFF" d="M149,110.7c0,0,0-0.1,0-0.1c0-1-0.4-1.6-1.2-1.6c-0.5,0-0.8,0.2-1,0.6c-0.2,0.4-0.4,1.1-0.4,1.9
		c0,1.6,0.5,2.4,1.6,2.4c0.5,0,1-0.2,1.7-0.7c0.1,0.1,0.2,0.2,0.4,0.3c0.1,0.2,0.2,0.3,0.2,0.4c-0.7,0.7-1.5,1-2.4,1s-1.6-0.3-2.1-1
		c-0.5-0.7-0.7-1.5-0.7-2.6c0-1.1,0.3-1.9,0.8-2.5c0.5-0.6,1.2-0.9,2-0.9c0.8,0,1.4,0.2,1.8,0.6c0.4,0.4,0.6,0.9,0.6,1.4
		c0,0.5-0.2,0.7-0.7,0.7C149.3,110.7,149.1,110.7,149,110.7z"/>
	<path fill="#FFFFFF" d="M153.3,109.3v5.5c-0.2,0-0.4,0.1-0.6,0.1s-0.5,0-0.6-0.1v-5c0-0.2,0-0.4-0.1-0.5c-0.1-0.1-0.2-0.2-0.5-0.2
		h-0.1c0-0.1-0.1-0.3-0.1-0.5s0-0.3,0.1-0.5c0.3,0,0.6-0.1,0.8-0.1h0.2c0.3,0,0.6,0.1,0.8,0.3C153.2,108.6,153.3,108.9,153.3,109.3z
		 M151.5,106.3c0-0.2,0-0.4,0.1-0.6c0.2-0.1,0.4-0.2,0.7-0.2s0.5,0.1,0.7,0.2c0.1,0.2,0.1,0.4,0.1,0.6s0,0.4-0.1,0.6
		c-0.2,0.1-0.4,0.2-0.7,0.2s-0.6-0.1-0.7-0.2C151.6,106.7,151.5,106.5,151.5,106.3z"/>
	<path fill="#FFFFFF" d="M158.9,110.6c0-0.5-0.1-0.8-0.2-1c-0.1-0.2-0.3-0.3-0.6-0.3c-0.5,0-1,0.3-1.5,0.9v4.7
		c-0.2,0-0.4,0.1-0.6,0.1s-0.5,0-0.7-0.1v-6.6l0.1-0.1h0.5c0.5,0,0.7,0.3,0.7,0.9c0.6-0.6,1.2-0.9,2-0.9s1.2,0.3,1.5,1
		c0.7-0.7,1.4-1,2.2-1c0.6,0,1,0.2,1.3,0.6c0.3,0.4,0.4,0.9,0.4,1.5v3.3c0,0.5,0.1,0.9,0.2,1.2c-0.2,0.2-0.5,0.3-0.8,0.3
		c-0.5,0-0.7-0.3-0.7-0.8v-3.5c0-0.5-0.1-0.8-0.2-1s-0.3-0.3-0.6-0.3c-0.5,0-1,0.3-1.5,0.9v4.7c-0.2,0-0.4,0.1-0.6,0.1
		c-0.3,0-0.5,0-0.6-0.1V110.6z"/>
	<path fill="#FFFFFF" d="M170.8,111.9h-4c0,0.6,0.2,1.1,0.4,1.5c0.2,0.4,0.6,0.5,1.2,0.5c0.6,0,1.2-0.2,1.9-0.5
		c0.2,0.2,0.4,0.5,0.4,0.9c-0.7,0.5-1.6,0.8-2.5,0.8s-1.7-0.3-2.1-1c-0.4-0.6-0.6-1.5-0.6-2.5c0-1,0.2-1.9,0.7-2.5
		c0.5-0.6,1.2-1,2-1s1.5,0.3,2,0.8c0.5,0.5,0.7,1.2,0.7,2.1C170.9,111.2,170.8,111.6,170.8,111.9z M169.3,109.5
		c-0.2-0.3-0.6-0.5-1-0.5s-0.8,0.2-1.1,0.5c-0.2,0.3-0.4,0.8-0.4,1.5h2.8v-0.2C169.6,110.2,169.5,109.8,169.3,109.5z"/>
	<path fill="#FFFFFF" d="M177.8,110.2v3.2c0,0.5,0.1,0.9,0.2,1.2c-0.2,0.2-0.5,0.3-0.8,0.3c-0.5,0-0.7-0.3-0.7-0.8v-3.5
		c0-0.5-0.1-0.8-0.2-1c-0.1-0.2-0.3-0.3-0.6-0.3s-0.6,0.1-1,0.2c-0.3,0.2-0.6,0.4-0.9,0.6v4.7c-0.2,0-0.4,0.1-0.6,0.1
		s-0.5,0-0.7-0.1v-6.6l0.1-0.1h0.5c0.5,0,0.7,0.3,0.7,0.9c0.7-0.6,1.4-0.9,2.2-0.9c0.6,0,1,0.2,1.3,0.6
		C177.6,109,177.8,109.6,177.8,110.2z"/>
	<path fill="#FFFFFF" d="M183,108.1c0,0.2,0.1,0.3,0.1,0.5c0,0.2,0,0.3-0.1,0.5l-1.7,0v4.1c0,0.4,0.2,0.6,0.6,0.6h0.9
		c0.1,0.2,0.1,0.4,0.1,0.6c0,0.2,0,0.3,0,0.4c-0.5,0.1-1,0.1-1.5,0.1c-0.9,0-1.4-0.4-1.4-1.3v-4.4l-1,0c0-0.1-0.1-0.3-0.1-0.5
		c0-0.2,0-0.3,0.1-0.5l1,0v-1.2c0-0.3,0-0.5,0.1-0.6c0.1-0.1,0.3-0.2,0.6-0.2h0.5l0.1,0.1v2L183,108.1z"/>
	<path fill="#FFFFFF" d="M188.7,108.7c0.6,0.6,0.9,1.6,0.9,2.8c0,1.2-0.3,2.1-0.9,2.8c-0.5,0.5-1.1,0.7-1.9,0.7s-1.4-0.2-1.9-0.7
		c-0.6-0.6-0.9-1.6-0.9-2.8c0-1.2,0.3-2.1,0.9-2.8c0.5-0.5,1.1-0.7,1.9-0.7S188.2,108.2,188.7,108.7z M185.2,111.5
		c0,1.7,0.5,2.5,1.5,2.5c1,0,1.5-0.8,1.5-2.5c0-0.5,0-0.9-0.1-1.2c-0.1-0.4-0.2-0.7-0.5-0.9s-0.5-0.4-0.9-0.4s-0.7,0.1-0.9,0.4
		s-0.4,0.6-0.5,0.9C185.2,110.6,185.2,111,185.2,111.5z"/>
	<path fill="#FFFFFF" d="M195.9,115c-0.8,0-1.3-0.3-1.7-0.9c-0.4-0.6-0.6-1.5-0.6-2.6c0-1.1,0.3-1.9,0.8-2.5s1.1-0.9,1.8-0.9
		c0.5,0,1,0.2,1.6,0.5V105l0.1-0.1h0.5c0.3,0,0.5,0.1,0.6,0.2c0.1,0.1,0.1,0.3,0.1,0.6v7.2c0,0.6,0.1,1.1,0.4,1.3
		c-0.1,0.3-0.3,0.5-0.5,0.7c-0.5-0.1-0.8-0.4-1-0.9C197.3,114.7,196.7,115,195.9,115z M196.2,113.9c0.6,0,1.1-0.3,1.5-0.9v-3.4
		c-0.5-0.3-1-0.5-1.4-0.5c-0.4,0-0.8,0.2-1,0.6c-0.3,0.4-0.4,1-0.4,1.8s0.1,1.4,0.4,1.8C195.5,113.7,195.8,113.9,196.2,113.9z"/>
	<path fill="#FFFFFF" d="M206.1,114.2c-0.1,0.3-0.3,0.5-0.5,0.7c-0.5-0.1-0.8-0.4-1-0.9c-0.6,0.6-1.3,0.9-2,0.9
		c-0.7,0-1.2-0.2-1.5-0.6c-0.3-0.4-0.5-0.9-0.5-1.4c0-0.7,0.2-1.3,0.7-1.7c0.5-0.4,1.1-0.6,1.9-0.6c0.5,0,0.9,0,1.3,0.1v-0.6
		c0-0.8-0.4-1.2-1.1-1.2c-0.6,0-1.3,0.2-2.1,0.5c-0.2-0.2-0.4-0.6-0.4-1c0.9-0.4,1.9-0.6,2.8-0.6c0.7,0,1.2,0.2,1.6,0.6
		c0.4,0.4,0.6,0.9,0.6,1.7v2.8C205.8,113.6,205.9,114,206.1,114.2z M202.8,113.9c0.6,0,1.2-0.3,1.7-0.9v-1.3c-0.4,0-0.8-0.1-1.2-0.1
		s-0.8,0.1-1,0.3c-0.2,0.2-0.4,0.5-0.4,0.8c0,0.3,0.1,0.6,0.3,0.8C202.3,113.8,202.5,113.9,202.8,113.9z"/>
	<path fill="#FFFFFF" d="M207.1,114.3c0-0.2,0.1-0.3,0.1-0.5c0.1-0.2,0.2-0.3,0.3-0.4c0.7,0.4,1.3,0.6,1.8,0.6c0.5,0,0.8-0.1,1-0.3
		c0.2-0.2,0.3-0.4,0.4-0.6c0-0.4-0.3-0.7-0.9-1l-0.8-0.3c-1.2-0.4-1.7-1.1-1.7-1.9c0-0.6,0.2-1.1,0.7-1.4c0.4-0.4,1-0.5,1.8-0.5
		c0.7,0,1.4,0.2,2.1,0.5c0,0.2,0,0.4-0.1,0.5c-0.1,0.2-0.2,0.3-0.3,0.4c-0.7-0.3-1.3-0.4-1.8-0.4c-0.3,0-0.6,0.1-0.7,0.2
		c-0.2,0.1-0.3,0.3-0.3,0.6c0,0.2,0.1,0.4,0.2,0.5c0.1,0.1,0.4,0.3,0.7,0.4l0.8,0.3c1.1,0.4,1.7,1.1,1.7,2c0,0.6-0.2,1.1-0.7,1.4
		c-0.5,0.4-1.1,0.5-1.9,0.5S207.8,114.8,207.1,114.3z"/>
	<path fill="#FFFFFF" d="M48.1,130.8v-5.7l-1.2,0c0-0.2-0.1-0.4-0.1-0.5c0-0.1,0-0.3,0.1-0.5l1.1,0c-0.1-0.5-0.1-0.9-0.1-1.3
		c0-0.6,0.2-1.1,0.5-1.5c0.4-0.4,0.9-0.6,1.5-0.6c0.6,0,1.2,0.1,1.7,0.3c0,0.4-0.1,0.7-0.3,0.9c-0.5-0.1-0.9-0.2-1.2-0.2
		c-0.3,0-0.6,0.1-0.8,0.3c-0.2,0.2-0.3,0.5-0.3,0.8c0,0.4,0,0.8,0.1,1.2l1.9,0c0,0.2,0.1,0.4,0.1,0.5c0,0.1,0,0.3-0.1,0.5l-1.8,0
		v5.7c-0.2,0-0.4,0.1-0.6,0.1C48.5,130.9,48.3,130.8,48.1,130.8z"/>
	<path fill="#FFFFFF" d="M57.1,127.9h-4c0,0.6,0.2,1.1,0.4,1.5c0.2,0.4,0.6,0.5,1.2,0.5c0.6,0,1.2-0.2,1.9-0.5
		c0.2,0.2,0.4,0.5,0.4,0.9c-0.7,0.5-1.6,0.8-2.5,0.8s-1.7-0.3-2.1-1c-0.4-0.6-0.6-1.5-0.6-2.5c0-1,0.2-1.9,0.7-2.5
		c0.5-0.6,1.2-1,2-1s1.5,0.3,2,0.8c0.5,0.5,0.7,1.2,0.7,2.1C57.2,127.2,57.1,127.6,57.1,127.9z M55.5,125.5c-0.2-0.3-0.6-0.5-1-0.5
		s-0.8,0.2-1.1,0.5c-0.2,0.3-0.4,0.8-0.4,1.5h2.8v-0.2C55.9,126.2,55.8,125.8,55.5,125.5z"/>
	<path fill="#FFFFFF" d="M58.4,124.8c0.1-0.3,0.2-0.5,0.5-0.7c0.6,0.1,1,0.5,1.2,1.2c0.4-0.8,1-1.2,1.8-1.2c0.2,0,0.5,0,0.7,0.1
		c0,0.5-0.1,0.9-0.3,1.2c-0.1,0-0.2,0-0.5-0.1c-0.6,0-1.1,0.4-1.5,1.1v4.4c-0.2,0-0.4,0.1-0.7,0.1c-0.3,0-0.5,0-0.7-0.1v-4.7
		C58.9,125.5,58.8,125.1,58.4,124.8z"/>
	<path fill="#FFFFFF" d="M63.2,124.8c0.1-0.3,0.2-0.5,0.5-0.7c0.6,0.1,1,0.5,1.2,1.2c0.4-0.8,1-1.2,1.8-1.2c0.2,0,0.5,0,0.7,0.1
		c0,0.5-0.1,0.9-0.3,1.2c-0.1,0-0.2,0-0.5-0.1c-0.6,0-1.1,0.4-1.5,1.1v4.4c-0.2,0-0.4,0.1-0.7,0.1c-0.3,0-0.5,0-0.7-0.1v-4.7
		C63.7,125.5,63.5,125.1,63.2,124.8z"/>
	<path fill="#FFFFFF" d="M73.4,130.2c-0.1,0.3-0.3,0.5-0.5,0.7c-0.5-0.1-0.8-0.4-1-0.9c-0.6,0.6-1.3,0.9-2,0.9
		c-0.7,0-1.2-0.2-1.5-0.6c-0.3-0.4-0.5-0.9-0.5-1.4c0-0.7,0.2-1.3,0.7-1.7c0.5-0.4,1.1-0.6,1.9-0.6c0.5,0,0.9,0,1.3,0.1v-0.6
		c0-0.8-0.4-1.2-1.1-1.2c-0.6,0-1.3,0.2-2.1,0.5c-0.2-0.2-0.4-0.6-0.4-1c0.9-0.4,1.9-0.6,2.8-0.6c0.7,0,1.2,0.2,1.6,0.6
		c0.4,0.4,0.6,0.9,0.6,1.7v2.8C73,129.6,73.1,130,73.4,130.2z M70.1,129.9c0.6,0,1.2-0.3,1.7-0.9v-1.3c-0.4,0-0.8-0.1-1.2-0.1
		s-0.8,0.1-1,0.3c-0.2,0.2-0.4,0.5-0.4,0.8c0,0.3,0.1,0.6,0.3,0.8C69.5,129.8,69.8,129.9,70.1,129.9z"/>
	<path fill="#FFFFFF" d="M78.7,126.6c0-0.5-0.1-0.8-0.2-1c-0.1-0.2-0.3-0.3-0.6-0.3c-0.5,0-1,0.3-1.5,0.9v4.7
		c-0.2,0-0.4,0.1-0.6,0.1s-0.5,0-0.7-0.1v-6.6l0.1-0.1h0.5c0.5,0,0.7,0.3,0.7,0.9c0.6-0.6,1.2-0.9,2-0.9s1.2,0.3,1.5,1
		c0.7-0.7,1.4-1,2.2-1c0.6,0,1,0.2,1.3,0.6c0.3,0.4,0.4,0.9,0.4,1.5v3.3c0,0.5,0.1,0.9,0.2,1.2c-0.2,0.2-0.5,0.3-0.8,0.3
		c-0.5,0-0.7-0.3-0.7-0.8v-3.5c0-0.5-0.1-0.8-0.2-1s-0.3-0.3-0.6-0.3c-0.5,0-1,0.3-1.5,0.9v4.7c-0.2,0-0.4,0.1-0.6,0.1
		c-0.3,0-0.5,0-0.6-0.1V126.6z"/>
	<path fill="#FFFFFF" d="M90.5,127.9h-4c0,0.6,0.2,1.1,0.4,1.5c0.2,0.4,0.6,0.5,1.2,0.5c0.6,0,1.2-0.2,1.9-0.5
		c0.2,0.2,0.4,0.5,0.4,0.9c-0.7,0.5-1.6,0.8-2.5,0.8s-1.7-0.3-2.1-1c-0.4-0.6-0.6-1.5-0.6-2.5c0-1,0.2-1.9,0.7-2.5
		c0.5-0.6,1.2-1,2-1s1.5,0.3,2,0.8c0.5,0.5,0.7,1.2,0.7,2.1C90.6,127.2,90.6,127.6,90.5,127.9z M89,125.5c-0.2-0.3-0.6-0.5-1-0.5
		s-0.8,0.2-1.1,0.5c-0.2,0.3-0.4,0.8-0.4,1.5h2.8v-0.2C89.3,126.2,89.2,125.8,89,125.5z"/>
	<path fill="#FFFFFF" d="M97.5,126.2v3.2c0,0.5,0.1,0.9,0.2,1.2c-0.2,0.2-0.5,0.3-0.8,0.3c-0.5,0-0.7-0.3-0.7-0.8v-3.5
		c0-0.5-0.1-0.8-0.2-1c-0.1-0.2-0.3-0.3-0.6-0.3s-0.6,0.1-1,0.2c-0.3,0.2-0.6,0.4-0.9,0.6v4.7c-0.2,0-0.4,0.1-0.6,0.1
		s-0.5,0-0.7-0.1v-6.6l0.1-0.1h0.5c0.5,0,0.7,0.3,0.7,0.9c0.7-0.6,1.4-0.9,2.2-0.9c0.6,0,1,0.2,1.3,0.6
		C97.3,125,97.5,125.6,97.5,126.2z"/>
	<path fill="#FFFFFF" d="M102.7,124.1c0,0.2,0.1,0.3,0.1,0.5c0,0.2,0,0.3-0.1,0.5l-1.7,0v4.1c0,0.4,0.2,0.6,0.6,0.6h0.9
		c0.1,0.2,0.1,0.4,0.1,0.6c0,0.2,0,0.3,0,0.4c-0.5,0.1-1,0.1-1.5,0.1c-0.9,0-1.4-0.4-1.4-1.3v-4.4l-1,0c0-0.1-0.1-0.3-0.1-0.5
		c0-0.2,0-0.3,0.1-0.5l1,0v-1.2c0-0.3,0-0.5,0.1-0.6c0.1-0.1,0.3-0.2,0.6-0.2h0.5l0.1,0.1v2L102.7,124.1z"/>
	<path fill="#FFFFFF" d="M109.1,130.2c-0.1,0.3-0.3,0.5-0.5,0.7c-0.5-0.1-0.8-0.4-1-0.9c-0.6,0.6-1.3,0.9-2,0.9
		c-0.7,0-1.2-0.2-1.5-0.6c-0.3-0.4-0.5-0.9-0.5-1.4c0-0.7,0.2-1.3,0.7-1.7c0.5-0.4,1.1-0.6,1.9-0.6c0.5,0,0.9,0,1.3,0.1v-0.6
		c0-0.8-0.4-1.2-1.1-1.2c-0.6,0-1.3,0.2-2.1,0.5c-0.2-0.2-0.4-0.6-0.4-1c0.9-0.4,1.9-0.6,2.8-0.6c0.7,0,1.2,0.2,1.6,0.6
		c0.4,0.4,0.6,0.9,0.6,1.7v2.8C108.7,129.6,108.9,130,109.1,130.2z M105.8,129.9c0.6,0,1.2-0.3,1.7-0.9v-1.3c-0.4,0-0.8-0.1-1.2-0.1
		s-0.8,0.1-1,0.3c-0.2,0.2-0.4,0.5-0.4,0.8c0,0.3,0.1,0.6,0.3,0.8C105.3,129.8,105.5,129.9,105.8,129.9z"/>
	<path fill="#FFFFFF" d="M110.1,130.3c0-0.2,0.1-0.3,0.1-0.5c0.1-0.2,0.2-0.3,0.3-0.4c0.7,0.4,1.3,0.6,1.8,0.6c0.5,0,0.8-0.1,1-0.3
		c0.2-0.2,0.3-0.4,0.4-0.6c0-0.4-0.3-0.7-0.9-1l-0.8-0.3c-1.2-0.4-1.7-1.1-1.7-1.9c0-0.6,0.2-1.1,0.7-1.4c0.4-0.4,1-0.5,1.8-0.5
		c0.7,0,1.4,0.2,2.1,0.5c0,0.2,0,0.4-0.1,0.5c-0.1,0.2-0.2,0.3-0.3,0.4c-0.7-0.3-1.3-0.4-1.8-0.4c-0.3,0-0.6,0.1-0.7,0.2
		c-0.2,0.1-0.3,0.3-0.3,0.6c0,0.2,0.1,0.4,0.2,0.5c0.1,0.1,0.4,0.3,0.7,0.4l0.8,0.3c1.1,0.4,1.7,1.1,1.7,2c0,0.6-0.2,1.1-0.7,1.4
		c-0.5,0.4-1.1,0.5-1.9,0.5S110.8,130.8,110.1,130.3z"/>
	<path fill="#FFFFFF" d="M124.2,127.9h-4c0,0.6,0.2,1.1,0.4,1.5c0.2,0.4,0.6,0.5,1.2,0.5c0.6,0,1.2-0.2,1.9-0.5
		c0.2,0.2,0.4,0.5,0.4,0.9c-0.7,0.5-1.6,0.8-2.5,0.8s-1.7-0.3-2.1-1c-0.4-0.6-0.6-1.5-0.6-2.5c0-1,0.2-1.9,0.7-2.5
		c0.5-0.6,1.2-1,2-1s1.5,0.3,2,0.8c0.5,0.5,0.7,1.2,0.7,2.1C124.3,127.2,124.3,127.6,124.2,127.9z M122.7,125.5
		c-0.2-0.3-0.6-0.5-1-0.5s-0.8,0.2-1.1,0.5c-0.2,0.3-0.4,0.8-0.4,1.5h2.8v-0.2C123,126.2,122.9,125.8,122.7,125.5z"/>
	<path fill="#FFFFFF" d="M131.9,124c0.7,0,1.3,0.3,1.7,0.9c0.4,0.6,0.6,1.5,0.6,2.6c0,1.1-0.3,1.9-0.8,2.5c-0.5,0.6-1.1,0.9-1.8,0.9
		c-0.5,0-1.1-0.2-1.6-0.5v2.4c0,0.3,0,0.5-0.1,0.6c-0.1,0.1-0.3,0.2-0.6,0.2h-0.5l-0.1-0.1v-9.5l0.1-0.1h0.4c0.4,0,0.7,0.2,0.8,0.7
		C130.6,124.3,131.2,124,131.9,124z M131.6,125.1c-0.6,0-1.2,0.3-1.6,0.9v3.3c0.5,0.4,1,0.5,1.4,0.5s0.8-0.2,1-0.6
		c0.3-0.4,0.4-1,0.4-1.8s-0.1-1.4-0.4-1.8C132.3,125.3,132,125.1,131.6,125.1z"/>
	<path fill="#FFFFFF" d="M135.4,124.8c0.1-0.3,0.2-0.5,0.5-0.7c0.6,0.1,1,0.5,1.2,1.2c0.4-0.8,1-1.2,1.8-1.2c0.2,0,0.5,0,0.7,0.1
		c0,0.5-0.1,0.9-0.3,1.2c-0.1,0-0.2,0-0.5-0.1c-0.6,0-1.1,0.4-1.5,1.1v4.4c-0.2,0-0.4,0.1-0.7,0.1c-0.3,0-0.5,0-0.7-0.1v-4.7
		C135.9,125.5,135.7,125.1,135.4,124.8z"/>
	<path fill="#FFFFFF" d="M145,124.7c0.6,0.6,0.9,1.6,0.9,2.8c0,1.2-0.3,2.1-0.9,2.8c-0.5,0.5-1.1,0.7-1.9,0.7s-1.4-0.2-1.9-0.7
		c-0.6-0.6-0.9-1.6-0.9-2.8c0-1.2,0.3-2.1,0.9-2.8c0.5-0.5,1.1-0.7,1.9-0.7S144.5,124.2,145,124.7z M141.5,127.5
		c0,1.7,0.5,2.5,1.5,2.5c1,0,1.5-0.8,1.5-2.5c0-0.5,0-0.9-0.1-1.2c-0.1-0.4-0.2-0.7-0.5-0.9s-0.5-0.4-0.9-0.4s-0.7,0.1-0.9,0.4
		s-0.4,0.6-0.5,0.9C141.5,126.6,141.5,127,141.5,127.5z"/>
	<path fill="#FFFFFF" d="M151,126.7c0,0,0-0.1,0-0.1c0-1-0.4-1.6-1.2-1.6c-0.5,0-0.8,0.2-1,0.6c-0.2,0.4-0.4,1.1-0.4,1.9
		c0,1.6,0.5,2.4,1.6,2.4c0.5,0,1-0.2,1.7-0.7c0.1,0.1,0.2,0.2,0.4,0.3c0.1,0.2,0.2,0.3,0.2,0.4c-0.7,0.7-1.5,1-2.4,1s-1.6-0.3-2.1-1
		c-0.5-0.7-0.7-1.5-0.7-2.6c0-1.1,0.3-1.9,0.8-2.5c0.5-0.6,1.2-0.9,2-0.9c0.8,0,1.4,0.2,1.8,0.6c0.4,0.4,0.6,0.9,0.6,1.4
		c0,0.5-0.2,0.7-0.7,0.7C151.3,126.7,151.2,126.7,151,126.7z"/>
	<path fill="#FFFFFF" d="M158.6,127.9h-4c0,0.6,0.2,1.1,0.4,1.5c0.2,0.4,0.6,0.5,1.2,0.5c0.6,0,1.2-0.2,1.9-0.5
		c0.2,0.2,0.4,0.5,0.4,0.9c-0.7,0.5-1.6,0.8-2.5,0.8s-1.7-0.3-2.1-1c-0.4-0.6-0.6-1.5-0.6-2.5c0-1,0.2-1.9,0.7-2.5
		c0.5-0.6,1.2-1,2-1s1.5,0.3,2,0.8c0.5,0.5,0.7,1.2,0.7,2.1C158.7,127.2,158.7,127.6,158.6,127.9z M157.1,125.5
		c-0.2-0.3-0.6-0.5-1-0.5s-0.8,0.2-1.1,0.5c-0.2,0.3-0.4,0.8-0.4,1.5h2.8v-0.2C157.4,126.2,157.3,125.8,157.1,125.5z"/>
	<path fill="#FFFFFF" d="M159.7,130.3c0-0.2,0.1-0.3,0.1-0.5c0.1-0.2,0.2-0.3,0.3-0.4c0.7,0.4,1.3,0.6,1.8,0.6c0.5,0,0.8-0.1,1-0.3
		c0.2-0.2,0.3-0.4,0.4-0.6c0-0.4-0.3-0.7-0.9-1l-0.8-0.3c-1.2-0.4-1.7-1.1-1.7-1.9c0-0.6,0.2-1.1,0.7-1.4c0.4-0.4,1-0.5,1.8-0.5
		c0.7,0,1.4,0.2,2.1,0.5c0,0.2,0,0.4-0.1,0.5c-0.1,0.2-0.2,0.3-0.3,0.4c-0.7-0.3-1.3-0.4-1.8-0.4c-0.3,0-0.6,0.1-0.7,0.2
		c-0.2,0.1-0.3,0.3-0.3,0.6c0,0.2,0.1,0.4,0.2,0.5c0.1,0.1,0.4,0.3,0.7,0.4l0.8,0.3c1.1,0.4,1.7,1.1,1.7,2c0,0.6-0.2,1.1-0.7,1.4
		c-0.5,0.4-1.1,0.5-1.9,0.5S160.4,130.8,159.7,130.3z"/>
	<path fill="#FFFFFF" d="M165.4,130.3c0-0.2,0.1-0.3,0.1-0.5c0.1-0.2,0.2-0.3,0.3-0.4c0.7,0.4,1.3,0.6,1.8,0.6c0.5,0,0.8-0.1,1-0.3
		c0.2-0.2,0.3-0.4,0.4-0.6c0-0.4-0.3-0.7-0.9-1l-0.8-0.3c-1.2-0.4-1.7-1.1-1.7-1.9c0-0.6,0.2-1.1,0.7-1.4c0.4-0.4,1-0.5,1.8-0.5
		c0.7,0,1.4,0.2,2.1,0.5c0,0.2,0,0.4-0.1,0.5c-0.1,0.2-0.2,0.3-0.3,0.4c-0.7-0.3-1.3-0.4-1.8-0.4c-0.3,0-0.6,0.1-0.7,0.2
		c-0.2,0.1-0.3,0.3-0.3,0.6c0,0.2,0.1,0.4,0.2,0.5c0.1,0.1,0.4,0.3,0.7,0.4l0.8,0.3c1.1,0.4,1.7,1.1,1.7,2c0,0.6-0.2,1.1-0.7,1.4
		c-0.5,0.4-1.1,0.5-1.9,0.5S166.2,130.8,165.4,130.3z"/>
	<path fill="#FFFFFF" d="M176.2,124.7c0.6,0.6,0.9,1.6,0.9,2.8c0,1.2-0.3,2.1-0.9,2.8c-0.5,0.5-1.1,0.7-1.9,0.7s-1.4-0.2-1.9-0.7
		c-0.6-0.6-0.9-1.6-0.9-2.8c0-1.2,0.3-2.1,0.9-2.8c0.5-0.5,1.1-0.7,1.9-0.7S175.7,124.2,176.2,124.7z M172.7,127.5
		c0,1.7,0.5,2.5,1.5,2.5c1,0,1.5-0.8,1.5-2.5c0-0.5,0-0.9-0.1-1.2c-0.1-0.4-0.2-0.7-0.5-0.9s-0.5-0.4-0.9-0.4s-0.7,0.1-0.9,0.4
		s-0.4,0.6-0.5,0.9C172.8,126.6,172.7,127,172.7,127.5z"/>
	<path fill="#FFFFFF" d="M178.1,130.3c0-0.2,0.1-0.3,0.1-0.5c0.1-0.2,0.2-0.3,0.3-0.4c0.7,0.4,1.3,0.6,1.8,0.6c0.5,0,0.8-0.1,1-0.3
		c0.2-0.2,0.3-0.4,0.4-0.6c0-0.4-0.3-0.7-0.9-1l-0.8-0.3c-1.2-0.4-1.7-1.1-1.7-1.9c0-0.6,0.2-1.1,0.7-1.4c0.4-0.4,1-0.5,1.8-0.5
		c0.7,0,1.4,0.2,2.1,0.5c0,0.2,0,0.4-0.1,0.5c-0.1,0.2-0.2,0.3-0.3,0.4c-0.7-0.3-1.3-0.4-1.8-0.4c-0.3,0-0.6,0.1-0.7,0.2
		c-0.2,0.1-0.3,0.3-0.3,0.6c0,0.2,0.1,0.4,0.2,0.5c0.1,0.1,0.4,0.3,0.7,0.4l0.8,0.3c1.1,0.4,1.7,1.1,1.7,2c0,0.6-0.2,1.1-0.7,1.4
		c-0.5,0.4-1.1,0.5-1.9,0.5S178.8,130.8,178.1,130.3z"/>
	<path fill="#FFFFFF" d="M192.6,126.2v3.2c0,0.5,0.1,0.9,0.2,1.2c-0.2,0.2-0.5,0.3-0.8,0.3c-0.5,0-0.7-0.3-0.7-0.8v-3.5
		c0-0.5-0.1-0.8-0.2-1c-0.1-0.2-0.3-0.3-0.6-0.3s-0.6,0.1-1,0.2c-0.3,0.2-0.6,0.4-0.9,0.6v4.7c-0.2,0-0.4,0.1-0.6,0.1
		s-0.5,0-0.7-0.1v-6.6l0.1-0.1h0.5c0.5,0,0.7,0.3,0.7,0.9c0.7-0.6,1.4-0.9,2.2-0.9c0.6,0,1,0.2,1.3,0.6
		C192.4,125,192.6,125.6,192.6,126.2z"/>
	<path fill="#FFFFFF" d="M199.7,130.2c-0.1,0.3-0.3,0.5-0.5,0.7c-0.5-0.1-0.8-0.4-1-0.9c-0.6,0.6-1.3,0.9-2,0.9
		c-0.7,0-1.2-0.2-1.5-0.6c-0.3-0.4-0.5-0.9-0.5-1.4c0-0.7,0.2-1.3,0.7-1.7c0.5-0.4,1.1-0.6,1.9-0.6c0.5,0,0.9,0,1.3,0.1v-0.6
		c0-0.8-0.4-1.2-1.1-1.2c-0.6,0-1.3,0.2-2.1,0.5c-0.2-0.2-0.4-0.6-0.4-1c0.9-0.4,1.9-0.6,2.8-0.6c0.7,0,1.2,0.2,1.6,0.6
		c0.4,0.4,0.6,0.9,0.6,1.7v2.8C199.3,129.6,199.4,130,199.7,130.2z M196.3,129.9c0.6,0,1.2-0.3,1.7-0.9v-1.3c-0.4,0-0.8-0.1-1.2-0.1
		s-0.8,0.1-1,0.3c-0.2,0.2-0.4,0.5-0.4,0.8c0,0.3,0.1,0.6,0.3,0.8C195.8,129.8,196,129.9,196.3,129.9z"/>
	<path fill="#FFFFFF" d="M74,146.9c-0.7,0-1.3-0.3-1.7-0.9c-0.4-0.6-0.6-1.5-0.6-2.6s0.3-1.9,0.8-2.6s1.1-0.9,1.8-0.9
		s1.3,0.2,1.9,0.7c0.2-0.3,0.5-0.5,0.9-0.6c0.3,0.1,0.4,0.4,0.5,0.7c-0.3,0.2-0.4,0.7-0.4,1.3v4c0,1.4-0.2,2.3-0.6,2.8
		c-0.5,0.6-1.2,0.9-2.2,0.9c-0.8,0-1.6-0.1-2.3-0.4c0-0.4,0.1-0.7,0.4-1c0.6,0.3,1.2,0.4,1.8,0.4c0.6,0,1.1-0.2,1.3-0.5
		s0.4-0.8,0.4-1.4v-0.7C75.4,146.7,74.7,146.9,74,146.9z M75.9,145v-3.3c-0.5-0.4-0.9-0.6-1.4-0.6c-0.4,0-0.8,0.2-1.1,0.6
		c-0.3,0.4-0.4,1-0.4,1.8c0,0.8,0.1,1.4,0.4,1.8c0.2,0.4,0.5,0.6,0.9,0.6C74.9,145.8,75.5,145.5,75.9,145z"/>
	<path fill="#FFFFFF" d="M84.1,143.9h-4c0,0.6,0.2,1.1,0.4,1.5c0.2,0.4,0.6,0.5,1.2,0.5c0.6,0,1.2-0.2,1.9-0.5
		c0.2,0.2,0.4,0.5,0.4,0.9c-0.7,0.5-1.6,0.8-2.5,0.8s-1.7-0.3-2.1-1c-0.4-0.6-0.6-1.5-0.6-2.5c0-1,0.2-1.9,0.7-2.5
		c0.5-0.6,1.2-1,2-1s1.5,0.3,2,0.8c0.5,0.5,0.7,1.2,0.7,2.1C84.2,143.2,84.1,143.6,84.1,143.9z M82.6,141.5c-0.2-0.3-0.6-0.5-1-0.5
		s-0.8,0.2-1.1,0.5c-0.2,0.3-0.4,0.8-0.4,1.5h2.8v-0.2C82.9,142.2,82.8,141.8,82.6,141.5z"/>
	<path fill="#FFFFFF" d="M85.2,146.3c0-0.2,0.1-0.3,0.1-0.5c0.1-0.2,0.2-0.3,0.3-0.4c0.7,0.4,1.3,0.6,1.8,0.6c0.5,0,0.8-0.1,1-0.3
		c0.2-0.2,0.3-0.4,0.4-0.6c0-0.4-0.3-0.7-0.9-1l-0.8-0.3c-1.2-0.4-1.7-1.1-1.7-1.9c0-0.6,0.2-1.1,0.7-1.4c0.4-0.4,1-0.5,1.8-0.5
		c0.7,0,1.4,0.2,2.1,0.5c0,0.2,0,0.4-0.1,0.5c-0.1,0.2-0.2,0.3-0.3,0.4c-0.7-0.3-1.3-0.4-1.8-0.4c-0.3,0-0.6,0.1-0.7,0.2
		c-0.2,0.1-0.3,0.3-0.3,0.6c0,0.2,0.1,0.4,0.2,0.5c0.1,0.1,0.4,0.3,0.7,0.4l0.8,0.3c1.1,0.4,1.7,1.1,1.7,2c0,0.6-0.2,1.1-0.7,1.4
		c-0.5,0.4-1.1,0.5-1.9,0.5S85.9,146.8,85.2,146.3z"/>
	<path fill="#FFFFFF" d="M94.8,140.1c0,0.2,0.1,0.3,0.1,0.5c0,0.2,0,0.3-0.1,0.5l-1.7,0v4.1c0,0.4,0.2,0.6,0.6,0.6h0.9
		c0.1,0.2,0.1,0.4,0.1,0.6c0,0.2,0,0.3,0,0.4c-0.5,0.1-1,0.1-1.5,0.1c-0.9,0-1.4-0.4-1.4-1.3v-4.4l-1,0c0-0.1-0.1-0.3-0.1-0.5
		c0-0.2,0-0.3,0.1-0.5l1,0v-1.2c0-0.3,0-0.5,0.1-0.6c0.1-0.1,0.3-0.2,0.6-0.2H93l0.1,0.1v2L94.8,140.1z"/>
	<path fill="#FFFFFF" d="M101.2,146.2c-0.1,0.3-0.3,0.5-0.5,0.7c-0.5-0.1-0.8-0.4-1-0.9c-0.6,0.6-1.3,0.9-2,0.9
		c-0.7,0-1.2-0.2-1.5-0.6c-0.3-0.4-0.5-0.9-0.5-1.4c0-0.7,0.2-1.3,0.7-1.7c0.5-0.4,1.1-0.6,1.9-0.6c0.5,0,0.9,0,1.3,0.1v-0.6
		c0-0.8-0.4-1.2-1.1-1.2c-0.6,0-1.3,0.2-2.1,0.5c-0.2-0.2-0.4-0.6-0.4-1c0.9-0.4,1.9-0.6,2.8-0.6c0.7,0,1.2,0.2,1.6,0.6
		c0.4,0.4,0.6,0.9,0.6,1.7v2.8C100.9,145.6,101,146,101.2,146.2z M98.5,139.1l-0.8-0.4c-0.2-0.1-0.3-0.1-0.5-0.1s-0.3,0.1-0.5,0.3
		l-0.1,0.2c-0.1,0-0.3,0-0.4-0.1c-0.1-0.1-0.2-0.2-0.3-0.3l0.1-0.3c0.1-0.3,0.3-0.5,0.5-0.7s0.5-0.3,0.7-0.3s0.5,0.1,0.8,0.2
		l0.8,0.4c0.1,0.1,0.3,0.1,0.5,0.1s0.3-0.1,0.5-0.3l0.1-0.2c0.1,0,0.3,0.1,0.4,0.1c0.1,0.1,0.2,0.2,0.3,0.3l-0.1,0.3
		c-0.1,0.3-0.3,0.5-0.6,0.7s-0.5,0.3-0.7,0.3C99.1,139.3,98.8,139.2,98.5,139.1z M97.9,145.9c0.6,0,1.2-0.3,1.7-0.9v-1.3
		c-0.4,0-0.8-0.1-1.2-0.1s-0.8,0.1-1,0.3c-0.2,0.2-0.4,0.5-0.4,0.8c0,0.3,0.1,0.6,0.3,0.8C97.4,145.8,97.6,145.9,97.9,145.9z"/>
	<path fill="#FFFFFF" d="M107.2,140.7c0.6,0.6,0.9,1.6,0.9,2.8c0,1.2-0.3,2.1-0.9,2.8c-0.5,0.5-1.1,0.7-1.9,0.7s-1.4-0.2-1.9-0.7
		c-0.6-0.6-0.9-1.6-0.9-2.8c0-1.2,0.3-2.1,0.9-2.8c0.5-0.5,1.1-0.7,1.9-0.7S106.7,140.2,107.2,140.7z M103.7,143.5
		c0,1.7,0.5,2.5,1.5,2.5c1,0,1.5-0.8,1.5-2.5c0-0.5,0-0.9-0.1-1.2c-0.1-0.4-0.2-0.7-0.5-0.9s-0.5-0.4-0.9-0.4s-0.7,0.1-0.9,0.4
		s-0.4,0.6-0.5,0.9C103.8,142.6,103.7,143,103.7,143.5z"/>
	<path fill="#FFFFFF" d="M114.4,147c-0.8,0-1.3-0.3-1.7-0.9c-0.4-0.6-0.6-1.5-0.6-2.6c0-1.1,0.3-1.9,0.8-2.5s1.1-0.9,1.8-0.9
		c0.5,0,1,0.2,1.6,0.5V137l0.1-0.1h0.5c0.3,0,0.5,0.1,0.6,0.2c0.1,0.1,0.1,0.3,0.1,0.6v7.2c0,0.6,0.1,1.1,0.4,1.3
		c-0.1,0.3-0.3,0.5-0.5,0.7c-0.5-0.1-0.8-0.4-1-0.9C115.8,146.7,115.2,147,114.4,147z M114.7,145.9c0.6,0,1.1-0.3,1.5-0.9v-3.4
		c-0.5-0.3-1-0.5-1.4-0.5c-0.4,0-0.8,0.2-1,0.6c-0.3,0.4-0.4,1-0.4,1.8s0.1,1.4,0.4,1.8C114,145.7,114.3,145.9,114.7,145.9z"/>
	<path fill="#FFFFFF" d="M124.5,143.9h-4c0,0.6,0.2,1.1,0.4,1.5c0.2,0.4,0.6,0.5,1.2,0.5c0.6,0,1.2-0.2,1.9-0.5
		c0.2,0.2,0.4,0.5,0.4,0.9c-0.7,0.5-1.6,0.8-2.5,0.8s-1.7-0.3-2.1-1c-0.4-0.6-0.6-1.5-0.6-2.5c0-1,0.2-1.9,0.7-2.5
		c0.5-0.6,1.2-1,2-1s1.5,0.3,2,0.8c0.5,0.5,0.7,1.2,0.7,2.1C124.5,143.2,124.5,143.6,124.5,143.9z M122.9,141.5
		c-0.2-0.3-0.6-0.5-1-0.5s-0.8,0.2-1.1,0.5c-0.2,0.3-0.4,0.8-0.4,1.5h2.8v-0.2C123.3,142.2,123.2,141.8,122.9,141.5z"/>
	<path fill="#FFFFFF" d="M132.2,140c0.7,0,1.3,0.3,1.7,0.9c0.4,0.6,0.6,1.5,0.6,2.6c0,1.1-0.3,1.9-0.8,2.5c-0.5,0.6-1.1,0.9-1.8,0.9
		c-0.5,0-1.1-0.2-1.6-0.5v2.4c0,0.3,0,0.5-0.1,0.6c-0.1,0.1-0.3,0.2-0.6,0.2h-0.5l-0.1-0.1v-9.5l0.1-0.1h0.4c0.4,0,0.7,0.2,0.8,0.7
		C130.8,140.3,131.4,140,132.2,140z M131.9,141.1c-0.6,0-1.2,0.3-1.6,0.9v3.3c0.5,0.4,1,0.5,1.4,0.5s0.8-0.2,1-0.6
		c0.3-0.4,0.4-1,0.4-1.8s-0.1-1.4-0.4-1.8C132.5,141.3,132.2,141.1,131.9,141.1z"/>
	<path fill="#FFFFFF" d="M140.9,143.9h-4c0,0.6,0.2,1.1,0.4,1.5c0.2,0.4,0.6,0.5,1.2,0.5c0.6,0,1.2-0.2,1.9-0.5
		c0.2,0.2,0.4,0.5,0.4,0.9c-0.7,0.5-1.6,0.8-2.5,0.8s-1.7-0.3-2.1-1c-0.4-0.6-0.6-1.5-0.6-2.5c0-1,0.2-1.9,0.7-2.5
		c0.5-0.6,1.2-1,2-1s1.5,0.3,2,0.8c0.5,0.5,0.7,1.2,0.7,2.1C141,143.2,141,143.6,140.9,143.9z M139.4,141.5c-0.2-0.3-0.6-0.5-1-0.5
		s-0.8,0.2-1.1,0.5c-0.2,0.3-0.4,0.8-0.4,1.5h2.8v-0.2C139.7,142.2,139.6,141.8,139.4,141.5z"/>
	<path fill="#FFFFFF" d="M142,146.3c0-0.2,0.1-0.3,0.1-0.5c0.1-0.2,0.2-0.3,0.3-0.4c0.7,0.4,1.3,0.6,1.8,0.6c0.5,0,0.8-0.1,1-0.3
		c0.2-0.2,0.3-0.4,0.4-0.6c0-0.4-0.3-0.7-0.9-1l-0.8-0.3c-1.2-0.4-1.7-1.1-1.7-1.9c0-0.6,0.2-1.1,0.7-1.4c0.4-0.4,1-0.5,1.8-0.5
		c0.7,0,1.4,0.2,2.1,0.5c0,0.2,0,0.4-0.1,0.5c-0.1,0.2-0.2,0.3-0.3,0.4c-0.7-0.3-1.3-0.4-1.8-0.4c-0.3,0-0.6,0.1-0.7,0.2
		c-0.2,0.1-0.3,0.3-0.3,0.6c0,0.2,0.1,0.4,0.2,0.5c0.1,0.1,0.4,0.3,0.7,0.4l0.8,0.3c1.1,0.4,1.7,1.1,1.7,2c0,0.6-0.2,1.1-0.7,1.4
		c-0.5,0.4-1.1,0.5-1.9,0.5S142.7,146.8,142,146.3z"/>
	<path fill="#FFFFFF" d="M147.8,146.3c0-0.2,0.1-0.3,0.1-0.5c0.1-0.2,0.2-0.3,0.3-0.4c0.7,0.4,1.3,0.6,1.8,0.6c0.5,0,0.8-0.1,1-0.3
		c0.2-0.2,0.3-0.4,0.4-0.6c0-0.4-0.3-0.7-0.9-1l-0.8-0.3c-1.2-0.4-1.7-1.1-1.7-1.9c0-0.6,0.2-1.1,0.7-1.4c0.4-0.4,1-0.5,1.8-0.5
		c0.7,0,1.4,0.2,2.1,0.5c0,0.2,0,0.4-0.1,0.5c-0.1,0.2-0.2,0.3-0.3,0.4c-0.7-0.3-1.3-0.4-1.8-0.4c-0.3,0-0.6,0.1-0.7,0.2
		c-0.2,0.1-0.3,0.3-0.3,0.6c0,0.2,0.1,0.4,0.2,0.5c0.1,0.1,0.4,0.3,0.7,0.4l0.8,0.3c1.1,0.4,1.7,1.1,1.7,2c0,0.6-0.2,1.1-0.7,1.4
		c-0.5,0.4-1.1,0.5-1.9,0.5S148.5,146.8,147.8,146.3z"/>
	<path fill="#FFFFFF" d="M158.6,140.7c0.6,0.6,0.9,1.6,0.9,2.8c0,1.2-0.3,2.1-0.9,2.8c-0.5,0.5-1.1,0.7-1.9,0.7s-1.4-0.2-1.9-0.7
		c-0.6-0.6-0.9-1.6-0.9-2.8c0-1.2,0.3-2.1,0.9-2.8c0.5-0.5,1.1-0.7,1.9-0.7S158.1,140.2,158.6,140.7z M155.1,143.5
		c0,1.7,0.5,2.5,1.5,2.5c1,0,1.5-0.8,1.5-2.5c0-0.5,0-0.9-0.1-1.2c-0.1-0.4-0.2-0.7-0.5-0.9s-0.5-0.4-0.9-0.4s-0.7,0.1-0.9,0.4
		s-0.4,0.6-0.5,0.9C155.1,142.6,155.1,143,155.1,143.5z"/>
	<path fill="#FFFFFF" d="M166.2,146.2c-0.1,0.3-0.3,0.5-0.5,0.7c-0.5-0.1-0.8-0.4-1-0.9c-0.6,0.6-1.3,0.9-2,0.9
		c-0.7,0-1.2-0.2-1.5-0.6c-0.3-0.4-0.5-0.9-0.5-1.4c0-0.7,0.2-1.3,0.7-1.7c0.5-0.4,1.1-0.6,1.9-0.6c0.5,0,0.9,0,1.3,0.1v-0.6
		c0-0.8-0.4-1.2-1.1-1.2c-0.6,0-1.3,0.2-2.1,0.5c-0.2-0.2-0.4-0.6-0.4-1c0.9-0.4,1.9-0.6,2.8-0.6c0.7,0,1.2,0.2,1.6,0.6
		c0.4,0.4,0.6,0.9,0.6,1.7v2.8C165.8,145.6,165.9,146,166.2,146.2z M162.8,145.9c0.6,0,1.2-0.3,1.7-0.9v-1.3c-0.4,0-0.8-0.1-1.2-0.1
		s-0.8,0.1-1,0.3c-0.2,0.2-0.4,0.5-0.4,0.8c0,0.3,0.1,0.6,0.3,0.8C162.3,145.8,162.5,145.9,162.8,145.9z"/>
	<path fill="#FFFFFF" d="M167.1,146.3c0-0.2,0.1-0.3,0.1-0.5c0.1-0.2,0.2-0.3,0.3-0.4c0.7,0.4,1.3,0.6,1.8,0.6c0.5,0,0.8-0.1,1-0.3
		c0.2-0.2,0.3-0.4,0.4-0.6c0-0.4-0.3-0.7-0.9-1l-0.8-0.3c-1.2-0.4-1.7-1.1-1.7-1.9c0-0.6,0.2-1.1,0.7-1.4c0.4-0.4,1-0.5,1.8-0.5
		c0.7,0,1.4,0.2,2.1,0.5c0,0.2,0,0.4-0.1,0.5c-0.1,0.2-0.2,0.3-0.3,0.4c-0.7-0.3-1.3-0.4-1.8-0.4c-0.3,0-0.6,0.1-0.7,0.2
		c-0.2,0.1-0.3,0.3-0.3,0.6c0,0.2,0.1,0.4,0.2,0.5c0.1,0.1,0.4,0.3,0.7,0.4l0.8,0.3c1.1,0.4,1.7,1.1,1.7,2c0,0.6-0.2,1.1-0.7,1.4
		c-0.5,0.4-1.1,0.5-1.9,0.5S167.9,146.8,167.1,146.3z"/>
	<path fill="#FFFFFF" d="M173.3,146.1c0-0.3,0-0.5,0.1-0.7c0.2-0.1,0.5-0.2,0.8-0.2s0.6,0.1,0.8,0.2c0.1,0.2,0.1,0.4,0.1,0.7
		c0,0.3,0,0.5-0.1,0.7c-0.2,0.1-0.4,0.2-0.8,0.2s-0.6-0.1-0.8-0.2C173.3,146.6,173.3,146.4,173.3,146.1z"/>
</g>
<g>
	<path fill="#C7C7C7" d="M47.8,269.4v-8.1c0,0-33.6,17.7-35.7,18.2C9.9,279.9,0,281,0,281l4.8,8.1c0,0,4.2,1.1,8.6,0.1L47.8,269.4z"
		/>
	<path fill="#D5DDDD" d="M5.9,269.9c-3.6,3.4-5.7,11.3-5.7,11.3s8.3,0.8,15.3-1.4l33.3-18.4L35,253.5L5.9,269.9z"/>
	<path fill="#BF582B" d="M7,270.5c-3.4,3.2-5.4,9.8-5.4,9.8c0,0.2,7.2,0.5,14.6-2l30.1-16.8l-11.8-6.9L7,270.5z"/>
	<g>
		<path fill="#993D1C" d="M44.9,260.8c0.1,0,0.2,0.1,0.2,0.1l-31,17.7c-0.3,0.1-1.5,0.3-2,0.4L44.9,260.8z"/>
		<path fill="#993D1C" d="M34.9,256.8l1.5-0.7L4.9,273.8c0.2-0.2,0.3-0.5,0.4-0.7L34.9,256.8z"/>
		<path fill="#993D1C" d="M42.4,259.4L5.9,280.2c-0.3,0.1-0.7,0.1-1,0.1L42.4,259.4z"/>
		<path fill="#993D1C" d="M40.3,258.3c0.1,0,0.2,0.1,0.3,0.1l-39,21.9c0.1-0.1,0.2-0.4,0.3-0.6L40.3,258.3z"/>
		<path fill="#993D1C" d="M3.3,277L3.3,277c0-0.2,0.1-0.4,0.2-0.6l34.7-19.3c0.1,0,0.2,0.1,0.2,0.1"/>
	</g>
	<path fill="#AEB1B1" d="M34.9,255.4L7,271.4c-2.5,2.4-3.9,6.5-5,8.8l-1.1,0.3c0.1-0.2,1.1-1.4,1.1-1.4s1.9-5.7,5-8.6l27.9-16
		l11.8,6.9l-0.8,0.5L34.9,255.4z"/>
	<g>
		<polygon fill="#D5DDDD" points="20.1,267.5 20.1,259.8 27,263.9 27,271.4 		"/>
		<path fill="#CFD1D2" d="M40.2,263.8L27,271.4v-7.5c0,0,13.5-7.8,13.3-7.6C40,256.5,40.2,263.8,40.2,263.8z"/>
		<g>
			<path fill="#898989" d="M31.3,264.3l-0.4-0.2c0,0-0.5-0.3-1.2,0.4c-0.8,0.7-0.9,1.6-0.7,2.2c0,0,0.1,0.3,0.2,0.3l0.5,0.3
				L31.3,264.3z"/>
			<path fill="#A5A4A4" d="M30.4,267.2c-0.4,0.2-1.4,0.2-1.4-0.9c0-1.3,0.9-1.9,1.4-2.2c0.2-0.1,1.2-0.1,1.3,0.8
				C31.7,265.7,31.5,266.7,30.4,267.2z"/>
			<path fill="#008A93" d="M30.5,266.9c-0.3,0.1-1.1,0.2-1.1-0.7c0-1,0.7-1.5,1.1-1.7c0.2-0.1,0.9-0.1,1,0.7
				C31.4,265.2,31.4,266.5,30.5,266.9z"/>
			<path fill="#043A63" d="M30.5,264.6c0,0,0.8,0,0.8,0.7c0.1,0.6-0.3,1.2-0.3,1.3c0,0,0.3-0.3,0.4-1
				C31.5,264.8,31.1,264.5,30.5,264.6z"/>
			<path fill="#00D1D2" d="M30.5,264.8c0,0-0.7,0.4-0.8,1c-0.1,0.6,0,0.9,0.2,0.9c0,0,0.9-1.2,0.9-1.5
				C30.8,264.8,30.5,264.8,30.5,264.8z"/>
		</g>
		<g>
			<path fill="#898989" d="M39,260.1l-0.4-0.2c0,0-0.5-0.3-1.2,0.4c-0.8,0.7-0.9,1.6-0.7,2.2c0,0,0.1,0.3,0.2,0.3l0.5,0.3L39,260.1z
				"/>
			<path fill="#A5A4A4" d="M38.1,263c-0.4,0.2-1.4,0.2-1.4-0.9c0-1.3,0.9-1.9,1.4-2.2c0.2-0.1,1.2-0.1,1.3,0.8
				C39.4,261.4,39.2,262.4,38.1,263z"/>
			<path fill="#008A93" d="M38.1,262.7c-0.3,0.1-1.1,0.2-1.1-0.7c0-1,0.7-1.5,1.1-1.7c0.2-0.1,0.9-0.1,1,0.7
				C39.1,261,39.1,262.2,38.1,262.7z"/>
			<path fill="#043A63" d="M38.2,260.3c0,0,0.8,0,0.8,0.7c0.1,0.6-0.3,1.2-0.3,1.3c0,0,0.3-0.3,0.4-1
				C39.2,260.6,38.8,260.2,38.2,260.3z"/>
			<path fill="#00D1D2" d="M38.2,260.5c0,0-0.7,0.4-0.8,1c-0.1,0.6,0,0.9,0.2,0.9c0,0,0.9-1.2,0.9-1.5
				C38.5,260.5,38.2,260.5,38.2,260.5z"/>
		</g>
		<polygon fill="#043A63" points="21.3,268.3 21.1,263.8 23.8,265.4 23.8,269.9 		"/>
		<g>
			<polygon fill="#8DB33C" points="13.1,261.9 13.1,260.6 22.8,266.1 22.8,267.4 			"/>
			<path fill="#94C73D" d="M41.6,256.7l-18.8,10.8v-1.3l18.8-10.8C41.6,255.7,41.6,256.7,41.6,256.7z"/>
			<polygon fill="#A9D42D" points="13.1,260.6 31.8,250 41.6,255.4 22.8,266.1 			"/>
		</g>
	</g>
	<g>
		<path fill="#941D26" d="M27.3,278.7c1.4-2.2,0.5-2.9-0.3-3.4c-0.8-0.5-2.1,0.1-2.9,1.4c-0.8,1.3-0.8,2.7-0.1,3.2
			C24.8,280.4,25.8,281,27.3,278.7z M25.6,277.6c0.4-0.7,1.1-1,1.5-0.8c0.4,0.2,0.3,1-0.1,1.7c-0.4,0.7-1.1,1-1.5,0.8
			C25.1,279.1,25.1,278.3,25.6,277.6z"/>
		<path fill="#941D26" d="M26.7,276.7c0,0,0.4,0.5-0.3,1.5c-0.6,1-1.2,0.9-1.2,0.9s-0.1,1.1,0.6,0.8c0.7-0.3,2.3-2.5,1.8-2.9
			C27.1,276.5,26.7,276.7,26.7,276.7z"/>
		<path fill="#DB404B" d="M27.4,278.8c0.8-1.3,0.8-2.7,0.1-3.2c-0.8-0.5-2.1,0.1-2.9,1.4s-0.8,2.7-0.1,3.2
			C25.3,280.7,26.6,280.1,27.4,278.8z M25.6,277.6c0.4-0.7,1.1-1,1.5-0.8c0.4,0.2,0.3,1-0.1,1.7c-0.4,0.7-1.1,1-1.5,0.8
			C25.1,279.1,25.1,278.3,25.6,277.6z"/>
		<path fill="#FFFFFF" d="M24.3,277.5c0,0,0.1-0.3,0.3-0.6c0.1-0.1,0.4-0.5,0.4-0.5l0.8,0.9l-0.4,0.6L24.3,277.5z"/>
		<path fill="#FFFFFF" d="M27.1,279.3c0,0,0.2-0.2,0.4-0.5c0.1-0.1,0.3-0.6,0.3-0.6l-0.7,0l-0.4,0.6L27.1,279.3z"/>
		<path fill="#D1D1D1" d="M24.5,276.1l0.5,0.3c0,0-0.6,0.6-0.7,1.1l-0.5-0.3C23.8,277.2,24.3,276.3,24.5,276.1z"/>
		<path fill="#D1D1D1" d="M26.6,277.8l0.5,0.4c0,0,0,0.2-0.4,0.6l-0.5-0.3C26.2,278.5,26.4,278.3,26.6,277.8z"/>
		<path fill="#FFFFFF" d="M27.2,276.9l0.7-0.8c0,0-0.3-0.6-0.9-0.7l-0.2,1.3C26.8,276.7,27.2,276.8,27.2,276.9z"/>
		<path fill="#FFFFFF" d="M25.7,279.4c0,0-0.3,0-0.4-0.2c-0.1-0.2,0,0,0,0l-0.9,0.9c0,0,0.5,0.4,0.8,0.3L25.7,279.4z"/>
	</g>
	<g>
		<path fill="#941D26" d="M33.3,275.6c1.4-2.2,0.5-2.9-0.3-3.4c-0.8-0.5-2.1,0.1-2.9,1.4c-0.8,1.3-0.8,2.7-0.1,3.2
			C30.9,277.3,31.9,277.9,33.3,275.6z M31.6,274.5c0.4-0.7,1.1-1,1.5-0.8c0.4,0.2,0.3,1-0.1,1.7c-0.4,0.7-1.1,1-1.5,0.8
			C31.1,275.9,31.2,275.2,31.6,274.5z"/>
		<path fill="#941D26" d="M32.7,273.6c0,0,0.4,0.5-0.3,1.5c-0.6,1-1.2,0.9-1.2,0.9s-0.1,1.1,0.6,0.8c0.7-0.3,2.3-2.5,1.8-2.9
			C33.2,273.4,32.7,273.6,32.7,273.6z"/>
		<path fill="#DB404B" d="M33.5,275.7c0.8-1.3,0.8-2.7,0.1-3.2c-0.8-0.5-2.1,0.1-2.9,1.4s-0.8,2.7-0.1,3.2S32.7,277,33.5,275.7z
			 M31.6,274.5c0.4-0.7,1.1-1,1.5-0.8c0.4,0.2,0.3,1-0.1,1.7c-0.4,0.7-1.1,1-1.5,0.8C31.1,275.9,31.2,275.2,31.6,274.5z"/>
		<path fill="#FFFFFF" d="M30.3,274.4c0,0,0.1-0.3,0.3-0.6c0.1-0.1,0.4-0.5,0.4-0.5l0.8,0.9l-0.4,0.6L30.3,274.4z"/>
		<path fill="#FFFFFF" d="M33.1,276.2c0,0,0.2-0.2,0.4-0.5c0.1-0.1,0.3-0.6,0.3-0.6l-0.7,0l-0.4,0.6L33.1,276.2z"/>
		<path fill="#D1D1D1" d="M30.6,273l0.5,0.3c0,0-0.6,0.6-0.7,1.1l-0.5-0.3C29.8,274.1,30.3,273.2,30.6,273z"/>
		<path fill="#D1D1D1" d="M32.7,274.7l0.5,0.4c0,0,0,0.2-0.4,0.6l-0.5-0.3C32.3,275.4,32.5,275.2,32.7,274.7z"/>
		<path fill="#FFFFFF" d="M33.3,273.8L34,273c0,0-0.3-0.6-0.9-0.7l-0.2,1.3C32.8,273.6,33.2,273.7,33.3,273.8z"/>
		<path fill="#FFFFFF" d="M31.7,276.3c0,0-0.3,0-0.4-0.2c-0.1-0.2,0,0,0,0l-0.9,0.9c0,0,0.5,0.4,0.8,0.3L31.7,276.3z"/>
	</g>
	<g>
		<path fill="#941D26" d="M38.9,272.4c1.4-2.2,0.5-2.9-0.3-3.4c-0.8-0.5-2.1,0.1-2.9,1.4s-0.8,2.7-0.1,3.2
			C36.4,274,37.5,274.6,38.9,272.4z M37.2,271.2c0.4-0.7,1.1-1,1.5-0.8c0.4,0.2,0.3,1-0.1,1.7c-0.4,0.7-1.1,1-1.5,0.8
			C36.7,272.7,36.7,271.9,37.2,271.2z"/>
		<path fill="#941D26" d="M38.3,270.3c0,0,0.4,0.5-0.3,1.5c-0.6,1-1.2,0.9-1.2,0.9s-0.1,1.1,0.6,0.8c0.7-0.3,2.3-2.5,1.8-2.9
			S38.3,270.3,38.3,270.3z"/>
		<path fill="#DB404B" d="M39.1,272.5c0.8-1.3,0.8-2.7,0.1-3.2c-0.8-0.5-2.1,0.1-2.9,1.4s-0.8,2.7-0.1,3.2
			C36.9,274.3,38.2,273.7,39.1,272.5z M37.2,271.2c0.4-0.7,1.1-1,1.5-0.8c0.4,0.2,0.3,1-0.1,1.7c-0.4,0.7-1.1,1-1.5,0.8
			C36.7,272.7,36.7,271.9,37.2,271.2z"/>
		<path fill="#FFFFFF" d="M35.9,271.2c0,0,0.1-0.3,0.3-0.6c0.1-0.1,0.4-0.5,0.4-0.5l0.8,0.9l-0.4,0.6L35.9,271.2z"/>
		<path fill="#FFFFFF" d="M38.7,273c0,0,0.2-0.2,0.4-0.5c0.1-0.1,0.3-0.6,0.3-0.6l-0.7,0l-0.4,0.6L38.7,273z"/>
		<path fill="#D1D1D1" d="M36.2,269.7l0.5,0.3c0,0-0.6,0.6-0.7,1.1l-0.5-0.3C35.4,270.8,35.9,269.9,36.2,269.7z"/>
		<path fill="#D1D1D1" d="M38.3,271.4l0.5,0.4c0,0,0,0.2-0.4,0.6l-0.5-0.3C37.8,272.1,38,271.9,38.3,271.4z"/>
		<path fill="#FFFFFF" d="M38.8,270.5l0.7-0.8c0,0-0.3-0.6-0.9-0.7l-0.2,1.3C38.4,270.4,38.8,270.4,38.8,270.5z"/>
		<path fill="#FFFFFF" d="M37.3,273c0,0-0.3,0-0.4-0.2c-0.1-0.2,0,0,0,0l-0.9,0.9c0,0,0.5,0.4,0.8,0.3L37.3,273z"/>
	</g>
	<g>
		<path fill="#898989" d="M18,282.2l-0.6-0.2c0,0-0.5-0.1-1,0.4c-0.8,0.7-0.7,1.2-0.7,1.8c0,0.1,0.1,0.5,0.2,0.6l0.3,0.3L18,282.2z"
			/>
		<path fill="#A5A4A4" d="M17.2,285.1c-0.4,0.2-1.4,0.2-1.4-0.9c0-1.3,0.9-2,1.4-2.1c0.4-0.1,1.2-0.2,1.3,0.8
			C18.5,283.6,18.3,284.6,17.2,285.1z"/>
		<path fill="#0A293A" d="M17.2,284.8c-0.3,0.1-1.1,0.2-1.1-0.7c0-1,0.7-1.5,1.1-1.7c0.2-0.1,0.9-0.1,1,0.7
			C18.2,283.1,18.2,284.4,17.2,284.8z"/>
		<path fill="#000B11" d="M17.3,282.5c0,0,0.8,0,0.8,0.7c0.1,0.6-0.3,1.2-0.3,1.3c0,0,0.3-0.3,0.4-1
			C18.3,282.7,17.8,282.4,17.3,282.5z"/>
		<g>
			<path fill="#A5A4A4" d="M18.2,284.5c0.1,0.2,0,0.4-0.1,0.5l0,0c-0.2,0.1-0.4,0-0.5-0.1l-0.3-0.5c-0.1-0.2,0-0.4,0.1-0.5l0,0
				c0.2-0.1,0.4,0,0.5,0.1L18.2,284.5z"/>
			<path fill="#D5DDDD" d="M18.8,285.6c0.1,0.2,0,0.4-0.1,0.5l0,0c-0.2,0.1-0.4,0-0.5-0.1l-0.3-0.5c-0.1-0.2,0-0.4,0.1-0.5l0,0
				c0.2-0.1,0.4,0,0.5,0.1L18.8,285.6z"/>
			<path fill="#A5A4A4" d="M19.4,286.6c0.1,0.2,0,0.4-0.1,0.5l0,0c-0.2,0.1-0.4,0-0.5-0.1l-0.3-0.5c-0.1-0.2,0-0.4,0.1-0.5l0,0
				c0.2-0.1,0.4,0,0.5,0.1L19.4,286.6z"/>
			<path fill="#D5DDDD" d="M20,287.7c0.1,0.2,0,0.4-0.1,0.5l0,0c-0.2,0.1-0.4,0-0.5-0.1l-0.3-0.5c-0.1-0.2,0-0.4,0.1-0.5l0,0
				c0.2-0.1,0.4,0,0.5,0.1L20,287.7z"/>
			<path fill="#A5A4A4" d="M20.6,288.8c0.1,0.2,0,0.4-0.1,0.5l0,0c-0.2,0.1-0.4,0-0.5-0.1l-0.3-0.5c-0.1-0.2,0-0.4,0.1-0.5l0,0
				c0.2-0.1,0.4,0,0.5,0.1L20.6,288.8z"/>
		</g>
	</g>
	<g>
		<path fill="#4D5050" d="M15.4,250.8c0,0-3.5,16-3.7,16.7c0,0-0.6,0.3-0.5,0.3c0,0,4.1-17,4.1-17L15.4,250.8z"/>
		<path fill="#4D5050" d="M15,250.7c0,0-5,17.1-5.2,17.8c0,0-0.4,0.2-0.4,0.2c0,0,5.4-18,5.4-18H15z"/>
		<path fill="#4D5050" d="M14.7,250.7c0,0-7.6,18.9-7.8,19.5c0,0-0.2,0.1-0.4,0.3c0,0,8.1-19.8,8.1-19.8H14.7z"/>
		<g>
			<polygon fill="#8E9595" points="16,271.9 14.2,271.9 14.5,250.7 15.7,250.7 			"/>
			<path fill="#8E9595" d="M14.2,272c0,0,0,0.6,0.9,0.6c0.9,0,0.9-0.7,0.9-0.7l-1.8-0.1V272z"/>
		</g>
		<path fill="#B5BCBC" d="M14.9,251.1l0.2,20.8c0,0-0.4,0.3-0.6-0.1c-0.2-0.4,0.2-20.7,0.2-20.7H14.9z"/>
		<path fill="#4D5050" d="M15.1,250.7c0,0,0.4,27.3,0.6,28.4c0,0,0.5-0.3,0.5-0.3c0,0-0.9-28.1-0.9-28.1H15.1z"/>
		<path fill="#4D5050" d="M15.5,250.7c0,0,2.4,26.1,2.6,27.2c0,0,0.5-0.3,0.5-0.3c0,0-2.9-26.9-2.9-26.9H15.5z"/>
		<path fill="#4D5050" d="M15.6,250.7c0,0,4.8,24.6,5,25.7c0,0,0.5-0.3,0.5-0.3c0,0-5.4-25.4-5.4-25.4H15.6z"/>
		<ellipse fill="#B5BCBC" cx="15" cy="250.8" rx="0.6" ry="0.3"/>
		<polygon fill="#4D5050" points="15,250.7 14.9,245 15.3,245 15.3,250.7 		"/>
		<path fill="#F9AE40" d="M20.3,247.8c0,0-2.1,0.4-2.4,1c-0.5,0.9-2.2,0.7-2.4,0.7c-0.1-0.1,0-4,0-4s2,0.1,2.1-0.5
			c0.1-0.6,2.8-1.2,2.8-1.2"/>
		<polygon fill="#B8700F" points="18,248.5 17.8,248.9 17.5,244.9 17.8,244.6 		"/>
	</g>
</g>
</svg>