<!-- Generator: Adobe Illustrator 17.1.0, SVG Export Plug-In  -->
<svg version="1.1"
	 xmlns="http://www.w3.org/2000/svg" xmlns:xlink="http://www.w3.org/1999/xlink" xmlns:a="http://ns.adobe.com/AdobeSVGViewerExtensions/3.0/"
	 x="0px" y="0px" width="871px" height="65px" viewBox="0 0 871 65" enable-background="new 0 0 871 65" xml:space="preserve">
<defs>
</defs>
<g>
	<rect y="1" fill="#A9D42D" width="871" height="42"/>
	<polygon fill="#A9D42D" points="441,41 366,41 377.8,65 441,65 504.6,65 516,41 	"/>
	<rect fill="#043A63" width="871" height="42"/>
	<polygon fill="#043A63" points="441,38 366,38 378.8,64 441,64 503.3,64 516,38 	"/>
	<circle fill="#0C6672" cx="393.8" cy="49.8" r="8.6"/>
	<circle fill="#008C95" cx="426.1" cy="50.1" r="7.2"/>
	<circle fill="#0C6672" cx="425.1" cy="49.8" r="8.6"/>
	<circle fill="#0C6672" cx="456.4" cy="49.8" r="8.6"/>
	<circle fill="#0C6672" cx="487.8" cy="49.8" r="8.6"/>
	<circle fill="#008C95" cx="394.1" cy="50.1" r="7.2"/>
	<circle fill="#008C95" cx="426.1" cy="50.1" r="7.2"/>
	<circle fill="#008C95" cx="457.1" cy="50.1" r="7.2"/>
	<circle fill="#008C95" cx="488.1" cy="50.1" r="7.2"/>
	<path fill="#0C6672" d="M487.8,41.2c-4.7,0-8.6,3.8-8.6,8.6s3.8,8.6,8.6,8.6s8.6-3.8,8.6-8.6S492.5,41.2,487.8,41.2z M488.1,57.3
		c-4,0-7.2-3.2-7.2-7.2s3.2-7.2,7.2-7.2s7.2,3.2,7.2,7.2S492.1,57.3,488.1,57.3z"/>
	<g>
		<g>
			<path fill="#043A63" d="M458.8,48l-1.1,1.2c-0.1,0.1-0.2,0.2-0.4,0.3c0.6,0,1.1,0.3,1.5,0.7c0.4,0.4,0.6,1,0.6,1.7
				s-0.3,1.4-0.8,1.8c-0.5,0.5-1.2,0.7-2,0.7c-1,0-1.8-0.3-2.5-0.8c0.1-0.4,0.3-0.7,0.6-1c0.5,0.4,1.1,0.6,1.6,0.6
				c0.4,0,0.8-0.1,1-0.4s0.4-0.6,0.4-1c0-0.4-0.1-0.7-0.3-1c-0.2-0.2-0.5-0.3-0.8-0.3c-0.3,0-0.6,0.1-0.9,0.2
				c-0.3-0.1-0.5-0.4-0.6-0.8l1.4-1.4c0.3-0.3,0.6-0.6,0.8-0.8l0-0.1c-0.3,0.1-0.8,0.1-1.3,0.1h-1.6c-0.1-0.2-0.1-0.4-0.1-0.6
				c0-0.2,0-0.5,0.1-0.7h4.2c0.2,0.4,0.3,0.7,0.3,0.9C459.1,47.6,459,47.8,458.8,48z"/>
		</g>
	</g>
	<g>
		<g>
			<path fill="#043A63" d="M489.5,52.7l0,0.7v0.8c-0.2,0-0.4,0.1-0.7,0.1s-0.5,0-0.7-0.1v-0.8l0-0.7l-0.7,0h-2
				c-0.2-0.3-0.3-0.6-0.3-0.8s0.1-0.5,0.2-0.8l2-4.7c0.1,0,0.2,0,0.3,0s0.3,0,0.5,0.1c0.2,0,0.4,0.1,0.5,0.3l-1.2,2.7
				c-0.4,1-0.8,1.7-1,2.1l0,0c0.4,0,0.9-0.1,1.5-0.1h0.1v-1.1c0-0.4,0.1-0.6,0.3-0.9s0.4-0.3,0.7-0.3h0.4l0.1,0.1v1.4l0,0.7l0.6,0
				h0.5c0,0.2,0,0.3,0,0.6s0,0.4-0.1,0.7H489.5z"/>
		</g>
	</g>
	<rect x="400" y="48" fill="#008C95" width="19" height="3"/>
	<rect x="464" y="48" fill="#008C95" width="18" height="3"/>
	<rect x="464" y="48" fill="#0C6672" width="17" height="1"/>
	<rect x="433" y="48" fill="#008C95" width="17" height="3"/>
	<rect x="433" y="48" fill="#0C6672" width="17" height="1"/>
	<rect x="401" y="48" fill="#0C6672" width="18" height="1"/>
	<ellipse fill="#F2F2F2" cx="393.7" cy="49.6" rx="8.6" ry="8.8"/>
	<ellipse fill="#F2F2F2" cx="424.9" cy="49.6" rx="8.8" ry="8.8"/>
	<rect x="402" y="48" fill="#F2F2F2" width="15" height="3"/>
	<g>
		<g>
			<path fill="#043A63" d="M393.4,52.3l0-0.8v-2.3c0-0.2,0-0.7,0.1-1.4c-0.4,0.5-1,0.9-1.7,1.2c-0.2-0.1-0.3-0.2-0.4-0.4
				s-0.2-0.3-0.2-0.5c1.1-0.7,1.9-1.5,2.3-2.4c0.2,0,0.5-0.1,0.7-0.1s0.5,0,0.7,0.1v5.7l0,0.8l0.7,0h0.8c0,0.2,0.1,0.4,0.1,0.6
				c0,0.2,0,0.4-0.1,0.6h-4.7c0-0.2-0.1-0.4-0.1-0.6s0-0.4,0.1-0.6h1L393.4,52.3z"/>
		</g>
	</g>
	<g>
		<g>
			<path fill="#043A63" d="M427.8,52.2c0,0.2,0,0.4,0,0.6c-0.1,0.5-0.4,0.7-0.9,0.7h-3.7c-0.4-0.4-0.6-0.7-0.6-0.9
				c0-0.6,0.5-1.4,1.5-2.2l1.2-1.1c0.5-0.5,0.8-1,0.8-1.4c0-0.3-0.1-0.6-0.3-0.8c-0.2-0.2-0.4-0.3-0.7-0.3c-0.3,0-0.6,0.1-0.8,0.3
				c-0.2,0.2-0.4,0.5-0.5,0.8c-0.2,0-0.4,0-0.6-0.1s-0.4-0.2-0.4-0.3c0.2-0.5,0.5-1,0.9-1.3c0.4-0.4,1-0.5,1.7-0.5s1.2,0.2,1.7,0.6
				c0.4,0.4,0.7,1,0.7,1.7c0,0.5-0.1,0.9-0.4,1.3c-0.3,0.4-0.6,0.7-1.1,1.2l-0.9,0.8c-0.6,0.5-1,0.9-1.1,1.2
				c0.6-0.1,1.2-0.1,1.7-0.1H427.8z"/>
		</g>
	</g>
</g>
</svg>