<!-- Generator: Adobe Illustrator 17.1.0, SVG Export Plug-In  -->
<svg version="1.1"
	 xmlns="http://www.w3.org/2000/svg" xmlns:xlink="http://www.w3.org/1999/xlink" xmlns:a="http://ns.adobe.com/AdobeSVGViewerExtensions/3.0/"
	 x="0px" y="0px" width="86.1px" height="35.1px" viewBox="0 0 86.1 35.1" enable-background="new 0 0 86.1 35.1"
	 xml:space="preserve">
<defs>
</defs>
<g>
	<path fill="#FFFFFF" d="M34,35.1H2.1C0.9,35.1,0,34.1,0,33v-1.1c0-1.2,0.9-2.1,2.1-2.1H34c1.2,0,2.1,0.9,2.1,2.1V33
		C36.1,34.1,35.1,35.1,34,35.1 M2.1,30.9c-0.5,0-1,0.4-1,1V33c0,0.5,0.4,1,1,1H34c0.5,0,1-0.4,1-1v-1.1c0-0.5-0.4-1-1-1H2.1z"/>
	<path fill="#FFFFFF" d="M34,29.8c-0.3,0-0.6-0.3-0.6-0.6c0-0.5-0.4-0.8-0.8-0.8H3.4c-0.5,0-0.8,0.4-0.8,0.8c0,0.3-0.3,0.6-0.6,0.6
		c-0.3,0-0.6-0.3-0.6-0.6c0-1.1,0.9-2,2-2h29.2c1.1,0,1.9,0.8,2,1.9c0,0,0,0,0,0v0C34.6,29.6,34.4,29.8,34,29.8"/>
	<path fill="#043A63" d="M5,27.2c-1,0-1.7-0.8-1.7-1.7V13.4c0-1,0.8-1.7,1.7-1.7c1,0,1.7,0.8,1.7,1.7v12.1C6.7,26.4,6,27.2,5,27.2
		 M5,12.8c-0.3,0-0.6,0.3-0.6,0.6v12.1c0,0.3,0.3,0.6,0.6,0.6c0.3,0,0.6-0.3,0.6-0.6V13.4C5.6,13.1,5.3,12.8,5,12.8"/>
	<path fill="#043A63" d="M18,27.2c-1,0-1.7-0.8-1.7-1.7V13.4c0-1,0.8-1.7,1.7-1.7c1,0,1.7,0.8,1.7,1.7v12.1
		C19.7,26.4,18.9,27.2,18,27.2 M18,12.8c-0.3,0-0.6,0.3-0.6,0.6v12.1c0,0.3,0.3,0.6,0.6,0.6c0.3,0,0.6-0.3,0.6-0.6V13.4
		C18.6,13.1,18.3,12.8,18,12.8"/>
	<path fill="#043A63" d="M31.1,27.2c-1,0-1.7-0.8-1.7-1.7V13.4c0-1,0.8-1.7,1.7-1.7c1,0,1.7,0.8,1.7,1.7v12.1
		C32.8,26.4,32,27.2,31.1,27.2 M31.1,12.8c-0.3,0-0.6,0.3-0.6,0.6v12.1c0,0.3,0.3,0.6,0.6,0.6c0.3,0,0.6-0.3,0.6-0.6V13.4
		C31.7,13.1,31.4,12.8,31.1,12.8"/>
	<path fill="#FFFFFF" d="M32.4,11.4H3.7c-0.8,0-1.4-0.6-1.4-1.4c0-0.8,0.6-1.4,1.4-1.4h28.6c0.8,0,1.4,0.6,1.4,1.4
		C33.8,10.8,33.2,11.4,32.4,11.4 M3.7,9.7c-0.2,0-0.3,0.1-0.3,0.3c0,0.2,0.1,0.3,0.3,0.3h28.6c0.2,0,0.3-0.1,0.3-0.3
		c0-0.2-0.1-0.3-0.3-0.3H3.7z"/>
	<path fill="#FFFFFF" d="M3.2,8.2c-0.8,0-1.5-0.4-1.6-1.1C1.5,6.5,1.8,5.6,3.2,5.1c0.6-0.2,1.9-0.7,3.5-1.3C13.9,1.2,17.4,0,18,0
		h0.1c0.6,0,4.1,1.2,11.2,3.9c1.6,0.6,3,1.1,3.5,1.3c1.4,0.5,1.7,1.3,1.6,1.9c-0.2,0.7-0.9,1.2-1.9,1.1l-29.2,0
		C3.3,8.2,3.3,8.2,3.2,8.2 M18.1,1.1l-0.1,0c-0.7,0.1-7.3,2.5-10.8,3.8C5.5,5.5,4.2,6,3.6,6.2C2.9,6.5,2.7,6.8,2.7,6.8
		c0,0.1,0.2,0.2,0.6,0.2l29.3,0c0.5,0,0.7-0.1,0.7-0.2c0-0.1-0.2-0.4-0.9-0.6c-0.6-0.2-1.9-0.7-3.6-1.3C25.4,3.6,18.8,1.2,18.1,1.1"
		/>
</g>
<g>
	<path fill="#FFFFFF" d="M54.1,16c0,0,0-0.1,0-0.3c0-0.2,0-0.4-0.1-0.6c-0.1-0.3-0.3-0.5-0.5-0.7c-0.3-0.2-0.6-0.3-1-0.3
		c-0.6,0-1.1,0.3-1.5,0.8c-0.3,0.6-0.5,1.4-0.5,2.4s0.2,1.8,0.5,2.4c0.4,0.6,0.9,0.8,1.5,0.8s1.4-0.3,2.1-0.9
		c0.3,0.2,0.5,0.5,0.6,0.8c-0.3,0.4-0.8,0.6-1.3,0.9c-0.5,0.2-1.1,0.3-1.6,0.3c-0.6,0-1.1-0.1-1.5-0.4c-0.4-0.2-0.7-0.6-1-1
		c-0.5-0.8-0.7-1.8-0.7-2.9c0-1.4,0.3-2.5,0.9-3.2c0.6-0.7,1.4-1.1,2.3-1.1c0.9,0,1.6,0.2,2.1,0.7c0.5,0.5,0.8,1,0.8,1.6
		c0,0.5-0.2,0.7-0.7,0.7C54.4,16,54.3,16,54.1,16z"/>
	<path fill="#FFFFFF" d="M56.6,19.6v-2.8c0-0.5-0.1-0.8-0.2-1.1c0.2-0.2,0.4-0.2,0.7-0.2c0.3,0,0.4,0.1,0.5,0.2
		c0.1,0.1,0.1,0.3,0.1,0.6v3.1c0,0.4,0.1,0.7,0.2,0.9c0.1,0.2,0.3,0.3,0.6,0.3c0.3,0,0.6-0.1,0.8-0.2c0.3-0.1,0.5-0.3,0.8-0.6v-4.2
		c0.2,0,0.4,0,0.6,0s0.4,0,0.6,0v4.2c0,0.6,0.1,1,0.3,1.2c-0.1,0.3-0.2,0.5-0.4,0.6c-0.5-0.1-0.8-0.4-0.9-0.9
		c-0.6,0.6-1.3,0.9-2,0.9c-0.5,0-0.9-0.2-1.2-0.5C56.8,20.6,56.6,20.1,56.6,19.6z"/>
	<path fill="#FFFFFF" d="M64.8,20.5h0.5c0.1,0.2,0.1,0.3,0.1,0.5c0,0.1,0,0.3,0,0.4c-0.3,0.1-0.7,0.1-1,0.1c-0.8,0-1.1-0.4-1.1-1.2
		v-7.6l0.1-0.1h0.4c0.2,0,0.4,0.1,0.5,0.2c0.1,0.1,0.1,0.3,0.1,0.6V20C64.3,20.3,64.5,20.5,64.8,20.5z"/>
	<path fill="#FFFFFF" d="M69.4,15.5c0,0.1,0,0.3,0,0.4s0,0.3,0,0.4l-1.5,0V20c0,0.3,0.2,0.5,0.5,0.5h0.8c0.1,0.2,0.1,0.3,0.1,0.5
		s0,0.3,0,0.3c-0.5,0.1-0.9,0.1-1.3,0.1c-0.8,0-1.2-0.4-1.2-1.2v-3.9l-0.9,0c0-0.1,0-0.3,0-0.4s0-0.3,0-0.4l0.9,0v-1.1
		c0-0.3,0-0.5,0.1-0.6c0.1-0.1,0.3-0.2,0.5-0.2h0.4l0.1,0.1v1.8L69.4,15.5z"/>
	<path fill="#FFFFFF" d="M70.6,19.6v-2.8c0-0.5-0.1-0.8-0.2-1.1c0.2-0.2,0.4-0.2,0.7-0.2c0.3,0,0.4,0.1,0.5,0.2
		c0.1,0.1,0.1,0.3,0.1,0.6v3.1c0,0.4,0.1,0.7,0.2,0.9c0.1,0.2,0.3,0.3,0.6,0.3c0.3,0,0.6-0.1,0.8-0.2c0.3-0.1,0.5-0.3,0.8-0.6v-4.2
		c0.2,0,0.4,0,0.6,0s0.4,0,0.6,0v4.2c0,0.6,0.1,1,0.3,1.2c-0.1,0.3-0.2,0.5-0.4,0.6c-0.5-0.1-0.8-0.4-0.9-0.9
		c-0.6,0.6-1.3,0.9-2,0.9c-0.5,0-0.9-0.2-1.2-0.5C70.8,20.6,70.6,20.1,70.6,19.6z"/>
	<path fill="#FFFFFF" d="M76.9,16c0.1-0.3,0.2-0.5,0.4-0.6c0.5,0.1,0.9,0.5,1,1.1c0.3-0.7,0.9-1.1,1.6-1.1c0.2,0,0.4,0,0.6,0.1
		c0,0.4-0.1,0.8-0.3,1.1c0,0-0.2,0-0.5,0c-0.6,0-1,0.3-1.3,0.9v3.9c-0.1,0-0.3,0-0.6,0s-0.4,0-0.6,0v-4.2
		C77.4,16.7,77.2,16.3,76.9,16z"/>
	<path fill="#FFFFFF" d="M86.1,20.9c-0.1,0.3-0.2,0.5-0.5,0.6c-0.4-0.1-0.7-0.3-0.9-0.8c-0.6,0.6-1.2,0.8-1.8,0.8
		c-0.6,0-1.1-0.2-1.4-0.5c-0.3-0.4-0.5-0.8-0.5-1.2c0-0.7,0.2-1.1,0.6-1.5s1-0.5,1.7-0.5c0.4,0,0.8,0,1.2,0.1v-0.5
		c0-0.7-0.3-1.1-1-1.1c-0.5,0-1.2,0.2-1.9,0.5c-0.2-0.2-0.3-0.5-0.3-0.9c0.8-0.4,1.7-0.6,2.5-0.6c0.6,0,1.1,0.2,1.4,0.5
		c0.3,0.3,0.5,0.8,0.5,1.5v2.5C85.8,20.3,85.9,20.7,86.1,20.9z M83.1,20.6c0.5,0,1-0.3,1.5-0.8v-1.2c-0.3,0-0.7-0.1-1.1-0.1
		c-0.4,0-0.7,0.1-0.9,0.3c-0.2,0.2-0.3,0.4-0.3,0.7c0,0.3,0.1,0.5,0.2,0.7C82.7,20.5,82.9,20.6,83.1,20.6z"/>
</g>
</svg>