<!-- Generator: Adobe Illustrator 17.1.0, SVG Export Plug-In  -->
<svg version="1.1"
	 xmlns="http://www.w3.org/2000/svg" xmlns:xlink="http://www.w3.org/1999/xlink" xmlns:a="http://ns.adobe.com/AdobeSVGViewerExtensions/3.0/"
	 x="0px" y="0px" width="612.2px" height="148.6px" viewBox="0 0 612.2 148.6" enable-background="new 0 0 612.2 148.6"
	 xml:space="preserve">
<defs>
</defs>
<polygon fill="#043A63" points="23.8,148.6 0,75.5 23.8,0 612.2,0 612.2,148.6 "/>
<g>
	<path fill="#FFFFFF" d="M50.4,31.9L50.4,31.9c0,1.2,0.1,2.2,0.1,3.1v4.2c-0.2,0-0.4,0.1-0.6,0.1c-0.2,0-0.4,0-0.6-0.1v-8.9
		c0.2,0,0.5-0.1,0.8-0.1c0.3,0,0.5,0,0.8,0.1l2.8,5.6c0.1,0.3,0.3,0.6,0.5,1c0.2,0.4,0.3,0.7,0.4,0.8v0l0,0
		c-0.1-1.1-0.1-2.2-0.1-3.2v-3.4c0-0.3,0-0.5,0.1-0.6c0.1-0.1,0.3-0.2,0.6-0.2h0.4l0.1,0.1v8.9c-0.2,0-0.5,0.1-0.8,0.1
		c-0.3,0-0.5,0-0.8-0.1l-2.8-5.6C51,33.1,50.7,32.6,50.4,31.9z"/>
	<path fill="#FFFFFF" d="M62.8,38.7c-0.1,0.3-0.3,0.5-0.5,0.6c-0.5-0.1-0.8-0.4-1-0.8c-0.6,0.6-1.3,0.9-1.9,0.9
		c-0.6,0-1.1-0.2-1.5-0.6c-0.3-0.4-0.5-0.8-0.5-1.3c0-0.7,0.2-1.2,0.7-1.6c0.5-0.4,1.1-0.5,1.8-0.5c0.4,0,0.9,0,1.3,0.1v-0.5
		c0-0.8-0.4-1.2-1.1-1.2c-0.6,0-1.3,0.2-2.1,0.5c-0.2-0.2-0.4-0.5-0.4-0.9c0.9-0.4,1.8-0.6,2.7-0.6c0.7,0,1.2,0.2,1.6,0.5
		c0.4,0.4,0.6,0.9,0.6,1.6v2.7C62.4,38.1,62.6,38.4,62.8,38.7z M59.6,38.4c0.6,0,1.1-0.3,1.6-0.8v-1.2c-0.3,0-0.7-0.1-1.2-0.1
		c-0.4,0-0.8,0.1-1,0.3c-0.2,0.2-0.3,0.5-0.3,0.8s0.1,0.6,0.2,0.8C59.1,38.3,59.3,38.4,59.6,38.4z"/>
	<path fill="#FFFFFF" d="M66.3,38.2l1.6-5.4c0.1,0,0.3-0.1,0.5-0.1s0.4,0,0.6,0.1l0,0.1c-0.9,2.8-1.5,4.9-2,6.3
		c-0.2,0-0.5,0.1-0.8,0.1s-0.5,0-0.7-0.1c-0.1-0.1-0.2-0.3-0.3-0.6l-1.8-5.7c0.3-0.1,0.5-0.2,0.7-0.2c0.4,0,0.6,0.2,0.7,0.5l0.9,2.9
		c0.2,0.6,0.4,1.3,0.5,1.9C66.2,38.2,66.2,38.2,66.3,38.2z"/>
	<path fill="#FFFFFF" d="M74.9,36.4H71c0,0.6,0.2,1.1,0.4,1.4s0.6,0.5,1.2,0.5s1.1-0.2,1.8-0.5c0.2,0.2,0.4,0.5,0.4,0.8
		c-0.7,0.5-1.5,0.7-2.4,0.7s-1.6-0.3-2-0.9c-0.4-0.6-0.6-1.4-0.6-2.4s0.2-1.8,0.7-2.4c0.5-0.6,1.1-0.9,1.9-0.9
		c0.8,0,1.5,0.3,1.9,0.8c0.5,0.5,0.7,1.2,0.7,2C75,35.7,74.9,36.1,74.9,36.4z M73.4,34.1c-0.2-0.3-0.6-0.5-1-0.5
		c-0.4,0-0.8,0.2-1,0.5c-0.2,0.3-0.4,0.8-0.4,1.4h2.7v-0.2C73.8,34.8,73.6,34.4,73.4,34.1z"/>
	<path fill="#FFFFFF" d="M78.4,39.3c-0.7,0-1.2-0.3-1.6-0.9S76.2,37,76.2,36c0-1.1,0.2-1.9,0.7-2.5c0.5-0.6,1.1-0.9,1.7-0.9
		s1.3,0.2,1.8,0.7c0.2-0.3,0.5-0.5,0.8-0.6c0.2,0.1,0.4,0.3,0.5,0.7c-0.2,0.2-0.4,0.6-0.4,1.3v3.9c0,1.3-0.2,2.2-0.6,2.7
		c-0.5,0.6-1.2,0.8-2.1,0.8c-0.8,0-1.5-0.1-2.2-0.4c0-0.4,0.1-0.7,0.3-1c0.6,0.3,1.2,0.4,1.8,0.4s1-0.2,1.3-0.5
		c0.2-0.3,0.4-0.8,0.4-1.4v-0.6C79.7,39.1,79.1,39.3,78.4,39.3z M80.3,37.4v-3.2c-0.5-0.4-0.9-0.6-1.3-0.6s-0.8,0.2-1,0.6
		c-0.3,0.4-0.4,1-0.4,1.7c0,0.8,0.1,1.3,0.3,1.7c0.2,0.4,0.5,0.6,0.9,0.6C79.3,38.3,79.8,38,80.3,37.4z"/>
	<path fill="#FFFFFF" d="M88.4,38.7c-0.1,0.3-0.3,0.5-0.5,0.6c-0.5-0.1-0.8-0.4-1-0.8c-0.6,0.6-1.3,0.9-1.9,0.9
		c-0.6,0-1.1-0.2-1.5-0.6c-0.3-0.4-0.5-0.8-0.5-1.3c0-0.7,0.2-1.2,0.7-1.6c0.5-0.4,1.1-0.5,1.8-0.5c0.4,0,0.9,0,1.3,0.1v-0.5
		c0-0.8-0.4-1.2-1.1-1.2c-0.6,0-1.3,0.2-2.1,0.5c-0.2-0.2-0.4-0.5-0.4-0.9c0.9-0.4,1.8-0.6,2.7-0.6c0.7,0,1.2,0.2,1.6,0.5
		c0.4,0.4,0.6,0.9,0.6,1.6v2.7C88.1,38.1,88.2,38.4,88.4,38.7z M85.2,38.4c0.6,0,1.1-0.3,1.6-0.8v-1.2c-0.3,0-0.7-0.1-1.2-0.1
		c-0.4,0-0.8,0.1-1,0.3c-0.2,0.2-0.3,0.5-0.3,0.8s0.1,0.6,0.2,0.8C84.7,38.3,85,38.4,85.2,38.4z"/>
	<path fill="#FFFFFF" d="M89.8,33.4c0.1-0.3,0.2-0.5,0.5-0.7c0.6,0.1,0.9,0.5,1.1,1.2c0.4-0.8,0.9-1.2,1.7-1.2c0.2,0,0.4,0,0.7,0.1
		c0,0.5-0.1,0.9-0.3,1.2c-0.1,0-0.2,0-0.5-0.1c-0.6,0-1.1,0.3-1.4,1v4.3c-0.1,0-0.4,0.1-0.6,0.1c-0.3,0-0.5,0-0.6-0.1v-4.5
		C90.2,34.1,90.1,33.7,89.8,33.4z"/>
	<path fill="#FFFFFF" d="M102.4,36.4h-3.9c0,0.6,0.2,1.1,0.4,1.4s0.6,0.5,1.2,0.5s1.1-0.2,1.8-0.5c0.2,0.2,0.4,0.5,0.4,0.8
		c-0.7,0.5-1.5,0.7-2.4,0.7s-1.6-0.3-2-0.9c-0.4-0.6-0.6-1.4-0.6-2.4s0.2-1.8,0.7-2.4c0.5-0.6,1.1-0.9,1.9-0.9
		c0.8,0,1.5,0.3,1.9,0.8c0.5,0.5,0.7,1.2,0.7,2C102.5,35.7,102.5,36.1,102.4,36.4z M101,34.1c-0.2-0.3-0.6-0.5-1-0.5
		c-0.4,0-0.8,0.2-1,0.5c-0.2,0.3-0.4,0.8-0.4,1.4h2.7v-0.2C101.3,34.8,101.2,34.4,101,34.1z"/>
	<path fill="#FFFFFF" d="M107.5,32.8c0.1,0,0.3-0.1,0.5-0.1c0.2,0,0.4,0,0.6,0.1l0,0.1l-1.8,2.9l2.1,3.2c-0.3,0.2-0.6,0.3-0.9,0.3
		s-0.5-0.1-0.6-0.4l-1.4-2.1l-1.5,2.4c-0.1,0-0.3,0.1-0.5,0.1s-0.5,0-0.6-0.1l-0.1-0.1l2.1-3.2l-1.9-2.9c0.3-0.2,0.6-0.3,0.8-0.3
		s0.5,0.1,0.7,0.4l1.2,1.8L107.5,32.8z"/>
	<path fill="#FFFFFF" d="M111.6,33.9v5.3c-0.1,0-0.4,0.1-0.6,0.1s-0.5,0-0.6-0.1v-4.8c0-0.2,0-0.4-0.1-0.5c-0.1-0.1-0.2-0.2-0.4-0.2
		h-0.1c0-0.1-0.1-0.3-0.1-0.4c0-0.2,0-0.3,0.1-0.5c0.3,0,0.5-0.1,0.8-0.1h0.2c0.3,0,0.6,0.1,0.7,0.3
		C111.5,33.3,111.6,33.5,111.6,33.9z M110,31c0-0.2,0-0.4,0.1-0.6c0.2-0.1,0.4-0.2,0.7-0.2s0.5,0.1,0.7,0.2c0.1,0.2,0.1,0.3,0.1,0.6
		c0,0.2,0,0.4-0.1,0.6c-0.1,0.1-0.4,0.2-0.7,0.2c-0.3,0-0.5-0.1-0.7-0.2C110,31.4,110,31.2,110,31z"/>
	<path fill="#FFFFFF" d="M115.4,39.3c-0.7,0-1.2-0.3-1.6-0.9s-0.6-1.4-0.6-2.5c0-1.1,0.2-1.9,0.7-2.5c0.5-0.6,1.1-0.9,1.7-0.9
		s1.3,0.2,1.8,0.7c0.2-0.3,0.5-0.5,0.8-0.6c0.2,0.1,0.4,0.3,0.5,0.7c-0.2,0.2-0.4,0.6-0.4,1.3v3.9c0,1.3-0.2,2.2-0.6,2.7
		c-0.5,0.6-1.2,0.8-2.1,0.8c-0.8,0-1.5-0.1-2.2-0.4c0-0.4,0.1-0.7,0.3-1c0.6,0.3,1.2,0.4,1.8,0.4s1-0.2,1.3-0.5
		c0.2-0.3,0.4-0.8,0.4-1.4v-0.6C116.7,39.1,116.1,39.3,115.4,39.3z M117.3,37.4v-3.2c-0.5-0.4-0.9-0.6-1.3-0.6s-0.8,0.2-1,0.6
		c-0.3,0.4-0.4,1-0.4,1.7c0,0.8,0.1,1.3,0.3,1.7c0.2,0.4,0.5,0.6,0.9,0.6C116.3,38.3,116.8,38,117.3,37.4z"/>
	<path fill="#FFFFFF" d="M125.3,36.4h-3.9c0,0.6,0.2,1.1,0.4,1.4s0.6,0.5,1.2,0.5s1.1-0.2,1.8-0.5c0.2,0.2,0.4,0.5,0.4,0.8
		c-0.7,0.5-1.5,0.7-2.4,0.7s-1.6-0.3-2-0.9c-0.4-0.6-0.6-1.4-0.6-2.4s0.2-1.8,0.7-2.4c0.5-0.6,1.1-0.9,1.9-0.9
		c0.8,0,1.5,0.3,1.9,0.8c0.5,0.5,0.7,1.2,0.7,2C125.4,35.7,125.3,36.1,125.3,36.4z M123.8,34.1c-0.2-0.3-0.6-0.5-1-0.5
		c-0.4,0-0.8,0.2-1,0.5c-0.2,0.3-0.4,0.8-0.4,1.4h2.7v-0.2C124.1,34.8,124,34.4,123.8,34.1z"/>
	<path fill="#FFFFFF" d="M134.8,38.7c-0.1,0.3-0.3,0.5-0.5,0.6c-0.5-0.1-0.8-0.4-1-0.8c-0.6,0.6-1.3,0.9-1.9,0.9
		c-0.6,0-1.1-0.2-1.5-0.6c-0.3-0.4-0.5-0.8-0.5-1.3c0-0.7,0.2-1.2,0.7-1.6c0.5-0.4,1.1-0.5,1.8-0.5c0.4,0,0.9,0,1.3,0.1v-0.5
		c0-0.8-0.4-1.2-1.1-1.2c-0.6,0-1.3,0.2-2.1,0.5c-0.2-0.2-0.4-0.5-0.4-0.9c0.9-0.4,1.8-0.6,2.7-0.6c0.7,0,1.2,0.2,1.6,0.5
		c0.4,0.4,0.6,0.9,0.6,1.6v2.7C134.5,38.1,134.6,38.4,134.8,38.7z M131.6,38.4c0.6,0,1.1-0.3,1.6-0.8v-1.2c-0.3,0-0.7-0.1-1.2-0.1
		c-0.4,0-0.8,0.1-1,0.3c-0.2,0.2-0.3,0.5-0.3,0.8s0.1,0.6,0.2,0.8C131.1,38.3,131.4,38.4,131.6,38.4z"/>
	<path fill="#FFFFFF" d="M144.4,34.8v3.1c0,0.5,0.1,0.9,0.2,1.2c-0.2,0.2-0.5,0.3-0.8,0.3c-0.4,0-0.7-0.3-0.7-0.8v-3.4
		c0-0.5-0.1-0.8-0.2-1c-0.1-0.2-0.3-0.3-0.6-0.3s-0.6,0.1-0.9,0.2c-0.3,0.2-0.6,0.4-0.8,0.6v4.5c-0.1,0-0.3,0.1-0.6,0.1
		c-0.3,0-0.5,0-0.6-0.1v-9.5l0.1-0.1h0.5c0.3,0,0.4,0.1,0.5,0.2c0.1,0.1,0.1,0.3,0.1,0.6v3.1c0.6-0.6,1.3-0.9,2.1-0.9
		c0.6,0,1,0.2,1.3,0.6C144.3,33.7,144.4,34.2,144.4,34.8z"/>
	<path fill="#FFFFFF" d="M151.3,38.7c-0.1,0.3-0.3,0.5-0.5,0.6c-0.5-0.1-0.8-0.4-1-0.8c-0.6,0.6-1.3,0.9-1.9,0.9
		c-0.6,0-1.1-0.2-1.5-0.6c-0.3-0.4-0.5-0.8-0.5-1.3c0-0.7,0.2-1.2,0.7-1.6c0.5-0.4,1.1-0.5,1.8-0.5c0.4,0,0.9,0,1.3,0.1v-0.5
		c0-0.8-0.4-1.2-1.1-1.2c-0.6,0-1.3,0.2-2.1,0.5c-0.2-0.2-0.4-0.5-0.4-0.9c0.9-0.4,1.8-0.6,2.7-0.6c0.7,0,1.2,0.2,1.6,0.5
		c0.4,0.4,0.6,0.9,0.6,1.6v2.7C151,38.1,151.1,38.4,151.3,38.7z M148.2,38.4c0.6,0,1.1-0.3,1.6-0.8v-1.2c-0.3,0-0.7-0.1-1.2-0.1
		c-0.4,0-0.8,0.1-1,0.3c-0.2,0.2-0.3,0.5-0.3,0.8s0.1,0.6,0.2,0.8C147.6,38.3,147.9,38.4,148.2,38.4z"/>
	<path fill="#FFFFFF" d="M156.1,32.7c0.7,0,1.2,0.3,1.6,0.9c0.4,0.6,0.6,1.4,0.6,2.4s-0.3,1.8-0.8,2.4s-1.2,0.9-2,0.9
		c-0.8,0-1.6-0.1-2.4-0.4v-9.2l0.1-0.1h0.5c0.3,0,0.4,0.1,0.5,0.2c0.1,0.1,0.1,0.3,0.1,0.6v2.9C154.8,32.9,155.4,32.7,156.1,32.7z
		 M155.7,33.8c-0.6,0-1.1,0.3-1.5,0.8v3.7c0.3,0.1,0.7,0.2,1.2,0.2s0.8-0.2,1.1-0.6c0.3-0.4,0.4-1,0.4-1.8s-0.1-1.3-0.3-1.7
		C156.4,33.9,156.1,33.8,155.7,33.8z"/>
	<path fill="#FFFFFF" d="M161.3,33.9v5.3c-0.1,0-0.4,0.1-0.6,0.1s-0.5,0-0.6-0.1v-4.8c0-0.2,0-0.4-0.1-0.5c-0.1-0.1-0.2-0.2-0.4-0.2
		h-0.1c0-0.1-0.1-0.3-0.1-0.4c0-0.2,0-0.3,0.1-0.5c0.3,0,0.5-0.1,0.8-0.1h0.2c0.3,0,0.6,0.1,0.7,0.3
		C161.2,33.3,161.3,33.5,161.3,33.9z M159.6,31c0-0.2,0-0.4,0.1-0.6c0.2-0.1,0.4-0.2,0.7-0.2s0.5,0.1,0.7,0.2
		c0.1,0.2,0.1,0.3,0.1,0.6c0,0.2,0,0.4-0.1,0.6c-0.1,0.1-0.4,0.2-0.7,0.2c-0.3,0-0.5-0.1-0.7-0.2C159.7,31.4,159.6,31.2,159.6,31z"
		/>
	<path fill="#FFFFFF" d="M165.1,38.3h0.5c0.1,0.2,0.1,0.4,0.1,0.5c0,0.2,0,0.3,0,0.4c-0.3,0.1-0.7,0.1-1.1,0.1
		c-0.8,0-1.2-0.4-1.2-1.3v-8.3l0.1-0.1h0.5c0.3,0,0.4,0.1,0.5,0.2c0.1,0.1,0.1,0.3,0.1,0.6v7.2C164.6,38.1,164.7,38.3,165.1,38.3z"
		/>
	<path fill="#FFFFFF" d="M168.5,33.9v5.3c-0.1,0-0.4,0.1-0.6,0.1s-0.5,0-0.6-0.1v-4.8c0-0.2,0-0.4-0.1-0.5c-0.1-0.1-0.2-0.2-0.4-0.2
		h-0.1c0-0.1-0.1-0.3-0.1-0.4c0-0.2,0-0.3,0.1-0.5c0.3,0,0.5-0.1,0.8-0.1h0.2c0.3,0,0.6,0.1,0.7,0.3
		C168.5,33.3,168.5,33.5,168.5,33.9z M166.9,31c0-0.2,0-0.4,0.1-0.6c0.2-0.1,0.4-0.2,0.7-0.2s0.5,0.1,0.7,0.2
		c0.1,0.2,0.1,0.3,0.1,0.6c0,0.2,0,0.4-0.1,0.6c-0.1,0.1-0.4,0.2-0.7,0.2c-0.3,0-0.5-0.1-0.7-0.2C166.9,31.4,166.9,31.2,166.9,31z"
		/>
	<path fill="#FFFFFF" d="M172.4,39.4c-0.7,0-1.3-0.3-1.7-0.9c-0.4-0.6-0.6-1.4-0.6-2.5s0.2-1.9,0.7-2.4c0.5-0.6,1.1-0.9,1.7-0.9
		c0.5,0,1,0.1,1.5,0.4v-3.4l0.1-0.1h0.5c0.3,0,0.4,0.1,0.5,0.2c0.1,0.1,0.1,0.3,0.1,0.6v6.9c0,0.6,0.1,1,0.4,1.3
		c-0.1,0.3-0.3,0.5-0.5,0.6c-0.5-0.1-0.8-0.4-1-0.8C173.8,39.1,173.1,39.4,172.4,39.4z M172.7,38.3c0.6,0,1.1-0.3,1.5-0.9v-3.3
		c-0.5-0.3-0.9-0.5-1.3-0.5c-0.4,0-0.7,0.2-1,0.6c-0.3,0.4-0.4,1-0.4,1.7c0,0.8,0.1,1.3,0.3,1.7C172,38.1,172.3,38.3,172.7,38.3z"/>
	<path fill="#FFFFFF" d="M182.4,38.7c-0.1,0.3-0.3,0.5-0.5,0.6c-0.5-0.1-0.8-0.4-1-0.8c-0.6,0.6-1.3,0.9-1.9,0.9
		c-0.6,0-1.1-0.2-1.5-0.6c-0.3-0.4-0.5-0.8-0.5-1.3c0-0.7,0.2-1.2,0.7-1.6c0.5-0.4,1.1-0.5,1.8-0.5c0.4,0,0.9,0,1.3,0.1v-0.5
		c0-0.8-0.4-1.2-1.1-1.2c-0.6,0-1.3,0.2-2.1,0.5c-0.2-0.2-0.4-0.5-0.4-0.9c0.9-0.4,1.8-0.6,2.7-0.6c0.7,0,1.2,0.2,1.6,0.5
		c0.4,0.4,0.6,0.9,0.6,1.6v2.7C182,38.1,182.2,38.4,182.4,38.7z M179.2,38.4c0.6,0,1.1-0.3,1.6-0.8v-1.2c-0.3,0-0.7-0.1-1.2-0.1
		c-0.4,0-0.8,0.1-1,0.3c-0.2,0.2-0.3,0.5-0.3,0.8s0.1,0.6,0.2,0.8C178.7,38.3,178.9,38.4,179.2,38.4z"/>
	<path fill="#FFFFFF" d="M185.8,39.4c-0.7,0-1.3-0.3-1.7-0.9c-0.4-0.6-0.6-1.4-0.6-2.5s0.2-1.9,0.7-2.4c0.5-0.6,1.1-0.9,1.7-0.9
		c0.5,0,1,0.1,1.5,0.4v-3.4l0.1-0.1h0.5c0.3,0,0.4,0.1,0.5,0.2c0.1,0.1,0.1,0.3,0.1,0.6v6.9c0,0.6,0.1,1,0.4,1.3
		c-0.1,0.3-0.3,0.5-0.5,0.6c-0.5-0.1-0.8-0.4-1-0.8C187.1,39.1,186.5,39.4,185.8,39.4z M186,38.3c0.6,0,1.1-0.3,1.5-0.9v-3.3
		c-0.5-0.3-0.9-0.5-1.3-0.5c-0.4,0-0.7,0.2-1,0.6c-0.3,0.4-0.4,1-0.4,1.7c0,0.8,0.1,1.3,0.3,1.7C185.4,38.1,185.7,38.3,186,38.3z"/>
	<path fill="#FFFFFF" d="M195.5,36.4h-3.9c0,0.6,0.2,1.1,0.4,1.4s0.6,0.5,1.2,0.5s1.1-0.2,1.8-0.5c0.2,0.2,0.4,0.5,0.4,0.8
		c-0.7,0.5-1.5,0.7-2.4,0.7s-1.6-0.3-2-0.9c-0.4-0.6-0.6-1.4-0.6-2.4s0.2-1.8,0.7-2.4c0.5-0.6,1.1-0.9,1.9-0.9
		c0.8,0,1.5,0.3,1.9,0.8c0.5,0.5,0.7,1.2,0.7,2C195.6,35.7,195.6,36.1,195.5,36.4z M194.1,34.1c-0.2-0.3-0.6-0.5-1-0.5
		c-0.4,0-0.8,0.2-1,0.5c-0.2,0.3-0.4,0.8-0.4,1.4h2.7v-0.2C194.4,34.8,194.3,34.4,194.1,34.1z"/>
	<path fill="#FFFFFF" d="M202,39.4c-0.7,0-1.3-0.3-1.7-0.9c-0.4-0.6-0.6-1.4-0.6-2.5s0.2-1.9,0.7-2.4c0.5-0.6,1.1-0.9,1.7-0.9
		c0.5,0,1,0.1,1.5,0.4v-3.4l0.1-0.1h0.5c0.3,0,0.4,0.1,0.5,0.2c0.1,0.1,0.1,0.3,0.1,0.6v6.9c0,0.6,0.1,1,0.4,1.3
		c-0.1,0.3-0.3,0.5-0.5,0.6c-0.5-0.1-0.8-0.4-1-0.8C203.4,39.1,202.7,39.4,202,39.4z M202.3,38.3c0.6,0,1.1-0.3,1.5-0.9v-3.3
		c-0.5-0.3-0.9-0.5-1.3-0.5c-0.4,0-0.7,0.2-1,0.6c-0.3,0.4-0.4,1-0.4,1.7c0,0.8,0.1,1.3,0.3,1.7C201.6,38.1,201.9,38.3,202.3,38.3z"
		/>
	<path fill="#FFFFFF" d="M211.8,36.4h-3.9c0,0.6,0.2,1.1,0.4,1.4s0.6,0.5,1.2,0.5s1.1-0.2,1.8-0.5c0.2,0.2,0.4,0.5,0.4,0.8
		c-0.7,0.5-1.5,0.7-2.4,0.7s-1.6-0.3-2-0.9c-0.4-0.6-0.6-1.4-0.6-2.4s0.2-1.8,0.7-2.4c0.5-0.6,1.1-0.9,1.9-0.9
		c0.8,0,1.5,0.3,1.9,0.8c0.5,0.5,0.7,1.2,0.7,2C211.9,35.7,211.9,36.1,211.8,36.4z M210.3,34.1c-0.2-0.3-0.6-0.5-1-0.5
		c-0.4,0-0.8,0.2-1,0.5c-0.2,0.3-0.4,0.8-0.4,1.4h2.7v-0.2C210.7,34.8,210.6,34.4,210.3,34.1z"/>
	<path fill="#FFFFFF" d="M52.2,48.4c0,0.1,0.1,0.3,0.1,0.5s0,0.3-0.1,0.5l-1.6,0v4c0,0.4,0.2,0.6,0.5,0.6H52
		c0.1,0.2,0.1,0.3,0.1,0.5c0,0.2,0,0.3,0,0.4c-0.5,0.1-1,0.1-1.4,0.1c-0.9,0-1.3-0.4-1.3-1.3v-4.3l-0.9,0c0-0.1-0.1-0.3-0.1-0.5
		s0-0.3,0.1-0.5l0.9,0v-1.2c0-0.3,0-0.5,0.1-0.6c0.1-0.1,0.3-0.2,0.5-0.2h0.5l0.1,0.1v1.9L52.2,48.4z"/>
	<path fill="#FFFFFF" d="M53.3,49c0.1-0.3,0.2-0.5,0.5-0.7c0.6,0.1,0.9,0.5,1.1,1.2c0.4-0.8,0.9-1.2,1.7-1.2c0.2,0,0.4,0,0.7,0.1
		c0,0.5-0.1,0.9-0.3,1.2c-0.1,0-0.2,0-0.5-0.1c-0.6,0-1.1,0.3-1.4,1v4.3c-0.1,0-0.4,0.1-0.6,0.1c-0.3,0-0.5,0-0.6-0.1v-4.5
		C53.7,49.7,53.6,49.3,53.3,49z"/>
	<path fill="#FFFFFF" d="M63.2,54.3c-0.1,0.3-0.3,0.5-0.5,0.6c-0.5-0.1-0.8-0.4-1-0.8c-0.6,0.6-1.3,0.9-1.9,0.9
		c-0.6,0-1.1-0.2-1.5-0.6c-0.3-0.4-0.5-0.8-0.5-1.3c0-0.7,0.2-1.2,0.7-1.6c0.5-0.4,1.1-0.5,1.8-0.5c0.4,0,0.9,0,1.3,0.1v-0.5
		c0-0.8-0.4-1.2-1.1-1.2c-0.6,0-1.3,0.2-2.1,0.5c-0.2-0.2-0.4-0.5-0.4-0.9c0.9-0.4,1.8-0.6,2.7-0.6c0.7,0,1.2,0.2,1.6,0.5
		c0.4,0.4,0.6,0.9,0.6,1.6v2.7C62.8,53.7,62.9,54,63.2,54.3z M60,54c0.6,0,1.1-0.3,1.6-0.8v-1.2c-0.3,0-0.7-0.1-1.2-0.1
		c-0.4,0-0.8,0.1-1,0.3c-0.2,0.2-0.3,0.5-0.3,0.8s0.1,0.6,0.2,0.8C59.5,53.9,59.7,54,60,54z"/>
	<path fill="#FFFFFF" d="M69.9,50.4v3.1c0,0.5,0.1,0.9,0.2,1.2c-0.2,0.2-0.5,0.3-0.8,0.3c-0.5,0-0.7-0.3-0.7-0.8v-3.4
		c0-0.5-0.1-0.8-0.2-1c-0.1-0.2-0.3-0.3-0.6-0.3s-0.6,0.1-0.9,0.2c-0.3,0.2-0.6,0.4-0.8,0.6v4.5c-0.1,0-0.4,0.1-0.6,0.1
		s-0.5,0-0.6-0.1v-6.4l0.1-0.1h0.5c0.4,0,0.7,0.3,0.7,0.8c0.7-0.6,1.3-0.9,2.1-0.9c0.6,0,1,0.2,1.3,0.6
		C69.8,49.3,69.9,49.8,69.9,50.4z"/>
	<path fill="#FFFFFF" d="M71.3,54.3c0-0.1,0.1-0.3,0.1-0.5c0.1-0.2,0.2-0.3,0.3-0.4c0.7,0.4,1.3,0.6,1.7,0.6s0.8-0.1,1-0.2
		s0.3-0.4,0.3-0.6c0-0.4-0.3-0.7-0.8-0.9L73.2,52c-1.1-0.4-1.7-1-1.7-1.8c0-0.6,0.2-1,0.6-1.4c0.4-0.3,1-0.5,1.7-0.5s1.4,0.2,2,0.5
		c0,0.2,0,0.3-0.1,0.5c-0.1,0.2-0.2,0.3-0.3,0.4c-0.6-0.3-1.2-0.4-1.7-0.4c-0.3,0-0.5,0.1-0.7,0.2c-0.2,0.1-0.3,0.3-0.3,0.5
		s0.1,0.4,0.2,0.5c0.1,0.1,0.3,0.2,0.6,0.4l0.8,0.3c1.1,0.4,1.6,1.1,1.6,2c0,0.6-0.2,1-0.7,1.4S74.3,55,73.6,55S72,54.8,71.3,54.3z"
		/>
	<path fill="#FFFFFF" d="M79,49.5v5.3c-0.1,0-0.4,0.1-0.6,0.1s-0.5,0-0.6-0.1V50c0-0.2,0-0.4-0.1-0.5c-0.1-0.1-0.2-0.2-0.4-0.2h-0.1
		c0-0.1-0.1-0.3-0.1-0.4c0-0.2,0-0.3,0.1-0.5c0.3,0,0.5-0.1,0.8-0.1H78c0.3,0,0.6,0.1,0.7,0.3C79,48.9,79,49.1,79,49.5z M77.4,46.6
		c0-0.2,0-0.4,0.1-0.6c0.2-0.1,0.4-0.2,0.7-0.2s0.5,0.1,0.7,0.2c0.1,0.2,0.1,0.3,0.1,0.6c0,0.2,0,0.4-0.1,0.6
		c-0.1,0.1-0.4,0.2-0.7,0.2c-0.3,0-0.5-0.1-0.7-0.2C77.4,47,77.4,46.8,77.4,46.6z"/>
	<path fill="#FFFFFF" d="M84.1,48.4c0,0.1,0.1,0.3,0.1,0.5s0,0.3-0.1,0.5l-1.6,0v4c0,0.4,0.2,0.6,0.5,0.6H84
		c0.1,0.2,0.1,0.3,0.1,0.5c0,0.2,0,0.3,0,0.4c-0.5,0.1-1,0.1-1.4,0.1c-0.9,0-1.3-0.4-1.3-1.3v-4.3l-0.9,0c0-0.1-0.1-0.3-0.1-0.5
		s0-0.3,0.1-0.5l0.9,0v-1.2c0-0.3,0-0.5,0.1-0.6c0.1-0.1,0.3-0.2,0.5-0.2h0.5l0.1,0.1v1.9L84.1,48.4z"/>
	<path fill="#FFFFFF" d="M90.5,54.3c-0.1,0.3-0.3,0.5-0.5,0.6c-0.5-0.1-0.8-0.4-1-0.8c-0.6,0.6-1.3,0.9-1.9,0.9
		c-0.6,0-1.1-0.2-1.5-0.6c-0.3-0.4-0.5-0.8-0.5-1.3c0-0.7,0.2-1.2,0.7-1.6c0.5-0.4,1.1-0.5,1.8-0.5c0.4,0,0.9,0,1.3,0.1v-0.5
		c0-0.8-0.4-1.2-1.1-1.2c-0.6,0-1.3,0.2-2.1,0.5c-0.2-0.2-0.4-0.5-0.4-0.9c0.9-0.4,1.8-0.6,2.7-0.6c0.7,0,1.2,0.2,1.6,0.5
		c0.4,0.4,0.6,0.9,0.6,1.6v2.7C90.1,53.7,90.2,54,90.5,54.3z M87.3,54c0.6,0,1.1-0.3,1.6-0.8v-1.2c-0.3,0-0.7-0.1-1.2-0.1
		c-0.4,0-0.8,0.1-1,0.3c-0.2,0.2-0.3,0.5-0.3,0.8s0.1,0.6,0.2,0.8C86.8,53.9,87,54,87.3,54z"/>
	<path fill="#FFFFFF" d="M91.8,49c0.1-0.3,0.2-0.5,0.5-0.7c0.6,0.1,0.9,0.5,1.1,1.2c0.4-0.8,0.9-1.2,1.7-1.2c0.2,0,0.4,0,0.7,0.1
		c0,0.5-0.1,0.9-0.3,1.2c-0.1,0-0.2,0-0.5-0.1c-0.6,0-1.1,0.3-1.4,1v4.3c-0.1,0-0.4,0.1-0.6,0.1c-0.3,0-0.5,0-0.6-0.1v-4.5
		C92.3,49.7,92.1,49.3,91.8,49z"/>
	<path fill="#FFFFFF" d="M104.5,52h-3.9c0,0.6,0.2,1.1,0.4,1.4s0.6,0.5,1.2,0.5s1.1-0.2,1.8-0.5c0.2,0.2,0.4,0.5,0.4,0.8
		c-0.7,0.5-1.5,0.7-2.4,0.7s-1.6-0.3-2-0.9c-0.4-0.6-0.6-1.4-0.6-2.4s0.2-1.8,0.7-2.4c0.5-0.6,1.1-0.9,1.9-0.9
		c0.8,0,1.5,0.3,1.9,0.8c0.5,0.5,0.7,1.2,0.7,2C104.6,51.3,104.5,51.7,104.5,52z M103,49.7c-0.2-0.3-0.6-0.5-1-0.5
		c-0.4,0-0.8,0.2-1,0.5c-0.2,0.3-0.4,0.8-0.4,1.4h2.7v-0.2C103.3,50.4,103.2,50,103,49.7z"/>
	<path fill="#FFFFFF" d="M111.3,50.4v3.1c0,0.5,0.1,0.9,0.2,1.2c-0.2,0.2-0.5,0.3-0.8,0.3c-0.5,0-0.7-0.3-0.7-0.8v-3.4
		c0-0.5-0.1-0.8-0.2-1c-0.1-0.2-0.3-0.3-0.6-0.3s-0.6,0.1-0.9,0.2c-0.3,0.2-0.6,0.4-0.8,0.6v4.5c-0.1,0-0.4,0.1-0.6,0.1
		s-0.5,0-0.6-0.1v-6.4l0.1-0.1h0.5c0.4,0,0.7,0.3,0.7,0.8c0.7-0.6,1.3-0.9,2.1-0.9c0.6,0,1,0.2,1.3,0.6
		C111.2,49.3,111.3,49.8,111.3,50.4z"/>
	<path fill="#FFFFFF" d="M116.5,48.4c0,0.1,0.1,0.3,0.1,0.5s0,0.3-0.1,0.5l-1.6,0v4c0,0.4,0.2,0.6,0.5,0.6h0.9
		c0.1,0.2,0.1,0.3,0.1,0.5c0,0.2,0,0.3,0,0.4c-0.5,0.1-1,0.1-1.4,0.1c-0.9,0-1.3-0.4-1.3-1.3v-4.3l-0.9,0c0-0.1-0.1-0.3-0.1-0.5
		s0-0.3,0.1-0.5l0.9,0v-1.2c0-0.3,0-0.5,0.1-0.6c0.1-0.1,0.3-0.2,0.5-0.2h0.5l0.1,0.1v1.9L116.5,48.4z"/>
	<path fill="#FFFFFF" d="M117.5,49c0.1-0.3,0.2-0.5,0.5-0.7c0.6,0.1,0.9,0.5,1.1,1.2c0.4-0.8,0.9-1.2,1.7-1.2c0.2,0,0.4,0,0.7,0.1
		c0,0.5-0.1,0.9-0.3,1.2c-0.1,0-0.2,0-0.5-0.1c-0.6,0-1.1,0.3-1.4,1v4.3c-0.1,0-0.4,0.1-0.6,0.1c-0.3,0-0.5,0-0.6-0.1v-4.5
		C118,49.7,117.8,49.3,117.5,49z"/>
	<path fill="#FFFFFF" d="M127.4,52h-3.9c0,0.6,0.2,1.1,0.4,1.4s0.6,0.5,1.2,0.5s1.1-0.2,1.8-0.5c0.2,0.2,0.4,0.5,0.4,0.8
		c-0.7,0.5-1.5,0.7-2.4,0.7s-1.6-0.3-2-0.9c-0.4-0.6-0.6-1.4-0.6-2.4s0.2-1.8,0.7-2.4c0.5-0.6,1.1-0.9,1.9-0.9
		c0.8,0,1.5,0.3,1.9,0.8c0.5,0.5,0.7,1.2,0.7,2C127.4,51.3,127.4,51.7,127.4,52z M125.9,49.7c-0.2-0.3-0.6-0.5-1-0.5
		c-0.4,0-0.8,0.2-1,0.5c-0.2,0.3-0.4,0.8-0.4,1.4h2.7v-0.2C126.2,50.4,126.1,50,125.9,49.7z"/>
	<path fill="#FFFFFF" d="M135.3,48.1c0.7,0,1.3,0.3,1.7,0.9s0.6,1.4,0.6,2.5s-0.2,1.9-0.7,2.5c-0.5,0.6-1.1,0.9-1.8,0.9
		c-0.4,0-0.8-0.1-1.2-0.3v1.8c0,0.4-0.1,0.7-0.2,0.9c-0.2,0.2-0.4,0.3-0.8,0.3h-0.8l-0.1-0.1v-9.2l0.1-0.1h0.5
		c0.5,0,0.8,0.2,1.1,0.6C134,48.4,134.6,48.1,135.3,48.1z M134.7,49.7c-0.4,0-0.7,0.2-1,0.5v2.9c0.3,0.2,0.6,0.3,0.9,0.3
		c0.6,0,0.9-0.7,0.9-2c0-0.6-0.1-1-0.2-1.3S134.9,49.7,134.7,49.7z"/>
	<path fill="#FFFFFF" d="M138.4,49.2c0-0.2,0.1-0.4,0.2-0.6s0.2-0.3,0.4-0.4c0.8,0.1,1.3,0.5,1.6,1.2c0.3-0.8,0.9-1.2,1.6-1.2
		c0.3,0,0.6,0,0.8,0.1c0,0.3,0,0.6-0.1,0.9c-0.1,0.4-0.2,0.7-0.4,0.9c-0.2-0.1-0.4-0.1-0.7-0.1c-0.5,0-0.8,0.2-1.1,0.7v4.1
		c-0.3,0.1-0.6,0.1-0.9,0.1c-0.4,0-0.7,0-1-0.1v-4.2C138.9,49.9,138.7,49.5,138.4,49.2z"/>
	<path fill="#FFFFFF" d="M149.3,53.9c0,0.2-0.1,0.4-0.2,0.6c-0.1,0.2-0.2,0.3-0.4,0.4c-0.6,0-1-0.3-1.4-0.7
		c-0.6,0.5-1.2,0.8-1.8,0.8s-1.2-0.2-1.5-0.6c-0.3-0.4-0.5-0.9-0.5-1.4c0-0.7,0.2-1.3,0.7-1.7c0.5-0.4,1.1-0.6,1.8-0.6
		c0.3,0,0.6,0,1,0v-0.3c0-0.6-0.3-0.9-0.9-0.9c-0.4,0-1,0.1-1.9,0.4c-0.3-0.3-0.4-0.8-0.5-1.4c0.4-0.2,0.9-0.3,1.4-0.4
		c0.6-0.1,1.1-0.2,1.5-0.2c0.7,0,1.2,0.2,1.6,0.5c0.4,0.4,0.7,0.9,0.7,1.7V53C148.9,53.5,149.1,53.7,149.3,53.9z M145.1,47l2-2.2
		c0.2,0.1,0.5,0.2,0.7,0.4s0.4,0.4,0.5,0.7l-2.4,1.8c-0.2-0.1-0.3-0.1-0.5-0.3C145.3,47.4,145.2,47.2,145.1,47z M146,53.6
		c0.3,0,0.7-0.1,1-0.4v-1.1c-0.2,0-0.5,0-0.8,0c-0.6,0-0.9,0.3-0.9,0.9c0,0.2,0.1,0.3,0.2,0.5S145.8,53.6,146,53.6z"/>
	<path fill="#FFFFFF" d="M154.2,48.3c0.1,0.2,0.1,0.5,0.1,0.7s0,0.5-0.1,0.7l-1.6,0v3.1c0,0.4,0.2,0.6,0.6,0.6h0.8
		c0.1,0.3,0.2,0.6,0.2,0.8c0,0.2,0,0.4-0.1,0.5c-0.6,0.1-1.2,0.1-1.7,0.1c-1.1,0-1.6-0.6-1.6-1.7v-3.4l-1,0
		c-0.1-0.2-0.1-0.4-0.1-0.7s0-0.5,0.1-0.7l1,0v-0.8c0-0.4,0.1-0.7,0.2-0.9c0.2-0.2,0.4-0.3,0.8-0.3h0.8l0.1,0.1v1.9L154.2,48.3z"/>
	<path fill="#FFFFFF" d="M157.8,49.8v5c-0.3,0.1-0.6,0.1-0.9,0.1c-0.4,0-0.7,0-1-0.1v-4.4c0-0.5-0.2-0.7-0.6-0.7h-0.2
		c-0.1-0.2-0.1-0.4-0.1-0.7c0-0.2,0-0.5,0.1-0.7c0.4,0,0.8-0.1,1.1-0.1h0.3c0.4,0,0.8,0.1,1,0.4C157.7,49,157.8,49.3,157.8,49.8z
		 M155.5,46.5c0-0.3,0-0.5,0.1-0.7c0.2-0.1,0.6-0.2,1-0.2c0.4,0,0.7,0.1,0.9,0.2c0.1,0.2,0.1,0.5,0.1,0.7c0,0.3,0,0.5-0.1,0.7
		c-0.2,0.1-0.5,0.2-0.9,0.2s-0.7-0.1-0.9-0.2C155.5,47,155.5,46.7,155.5,46.5z"/>
	<path fill="#FFFFFF" d="M162.7,51.2c0,0,0-0.1,0-0.1c0-0.5-0.1-0.8-0.1-1.1c-0.1-0.2-0.3-0.4-0.6-0.4s-0.6,0.2-0.7,0.5
		c-0.1,0.3-0.2,0.8-0.2,1.5s0.1,1.2,0.3,1.5c0.2,0.3,0.5,0.4,0.9,0.4s0.9-0.2,1.4-0.6c0.2,0.1,0.3,0.2,0.5,0.5
		c0.1,0.2,0.2,0.4,0.3,0.6c-0.3,0.3-0.7,0.5-1.1,0.7c-0.5,0.2-0.9,0.3-1.4,0.3c-0.9,0-1.6-0.3-2.1-0.9c-0.5-0.6-0.7-1.5-0.7-2.6
		c0-1.1,0.3-1.9,0.8-2.5s1.2-0.9,2-0.9c0.8,0,1.4,0.2,1.9,0.6c0.5,0.4,0.7,0.9,0.7,1.5c0,0.3-0.1,0.5-0.3,0.7s-0.4,0.2-0.7,0.2
		S162.9,51.2,162.7,51.2z"/>
	<path fill="#FFFFFF" d="M171,53.9c0,0.2-0.1,0.4-0.2,0.6c-0.1,0.2-0.2,0.3-0.4,0.4c-0.6,0-1-0.3-1.4-0.7c-0.6,0.5-1.2,0.8-1.8,0.8
		s-1.2-0.2-1.5-0.6c-0.3-0.4-0.5-0.9-0.5-1.4c0-0.7,0.2-1.3,0.7-1.7c0.5-0.4,1.1-0.6,1.8-0.6c0.3,0,0.6,0,1,0v-0.3
		c0-0.6-0.3-0.9-0.9-0.9c-0.4,0-1,0.1-1.9,0.4c-0.3-0.3-0.4-0.8-0.5-1.4c0.4-0.2,0.9-0.3,1.4-0.4c0.6-0.1,1.1-0.2,1.5-0.2
		c0.7,0,1.2,0.2,1.6,0.5c0.4,0.4,0.7,0.9,0.7,1.7V53C170.7,53.5,170.8,53.7,171,53.9z M167.7,53.6c0.3,0,0.7-0.1,1-0.4v-1.1
		c-0.2,0-0.5,0-0.8,0c-0.6,0-0.9,0.3-0.9,0.9c0,0.2,0.1,0.3,0.2,0.5S167.5,53.6,167.7,53.6z"/>
	<path fill="#FFFFFF" d="M180.1,52.2h-3.4c0,0.4,0.1,0.7,0.3,1c0.2,0.2,0.5,0.3,1,0.3c0.5,0,1-0.1,1.6-0.4c0.3,0.3,0.4,0.6,0.5,1.2
		c-0.7,0.5-1.6,0.7-2.5,0.7c-0.5,0-1-0.1-1.4-0.3c-0.4-0.2-0.7-0.4-0.9-0.8c-0.4-0.6-0.6-1.4-0.6-2.4s0.2-1.8,0.7-2.4
		s1.2-0.9,2.1-0.9s1.6,0.3,2.1,0.8s0.7,1.2,0.7,2C180.3,51.4,180.2,51.8,180.1,52.2z M178.3,49.9c-0.1-0.2-0.4-0.3-0.7-0.3
		c-0.3,0-0.5,0.1-0.7,0.3c-0.1,0.2-0.2,0.6-0.3,1h1.8v-0.2C178.5,50.4,178.4,50.1,178.3,49.9z"/>
	<path fill="#FFFFFF" d="M52.1,66.8c0,0,0-0.1,0-0.1c0-0.5-0.1-0.8-0.1-1.1c-0.1-0.2-0.3-0.4-0.6-0.4s-0.6,0.2-0.7,0.5
		c-0.1,0.3-0.2,0.8-0.2,1.5s0.1,1.2,0.3,1.5c0.2,0.3,0.5,0.4,0.9,0.4s0.9-0.2,1.4-0.6c0.2,0.1,0.3,0.2,0.5,0.5
		c0.1,0.2,0.2,0.4,0.3,0.6c-0.3,0.3-0.7,0.5-1.1,0.7c-0.5,0.2-0.9,0.3-1.4,0.3c-0.9,0-1.6-0.3-2.1-0.9c-0.5-0.6-0.7-1.5-0.7-2.6
		c0-1.1,0.3-1.9,0.8-2.5s1.2-0.9,2-0.9c0.8,0,1.4,0.2,1.9,0.6c0.5,0.4,0.7,0.9,0.7,1.5c0,0.3-0.1,0.5-0.3,0.7s-0.4,0.2-0.7,0.2
		S52.3,66.8,52.1,66.8z"/>
	<path fill="#FFFFFF" d="M59.6,64.5c0.6,0.6,0.9,1.5,0.9,2.7c0,1.2-0.3,2-0.9,2.7c-0.5,0.5-1.2,0.8-2,0.8c-0.8,0-1.5-0.3-2-0.8
		c-0.6-0.6-0.9-1.5-0.9-2.7c0-1.2,0.3-2,0.9-2.7c0.5-0.5,1.2-0.8,2-0.8C58.4,63.7,59.1,64,59.6,64.5z M56.8,65.7
		c-0.1,0.3-0.2,0.8-0.2,1.5c0,0.6,0.1,1.1,0.2,1.5s0.4,0.5,0.8,0.5c0.4,0,0.7-0.2,0.8-0.5c0.1-0.3,0.2-0.8,0.2-1.5
		c0-0.6-0.1-1.1-0.2-1.5c-0.1-0.3-0.4-0.5-0.8-0.5C57.2,65.2,56.9,65.4,56.8,65.7z"/>
	<path fill="#FFFFFF" d="M67.3,66.1v2.7c0,0.6,0.1,1,0.3,1.3c-0.3,0.3-0.7,0.4-1.1,0.4c-0.4,0-0.7-0.1-0.9-0.3
		c-0.2-0.2-0.2-0.5-0.2-0.9v-2.8c0-0.3,0-0.6-0.1-0.7c-0.1-0.1-0.2-0.2-0.5-0.2c-0.4,0-0.7,0.2-1.1,0.5v4.4c-0.3,0.1-0.6,0.1-1,0.1
		c-0.4,0-0.7,0-1-0.1v-6.5l0.1-0.1h0.7c0.5,0,0.9,0.3,1,0.8c0.6-0.5,1.2-0.8,1.8-0.8s1.1,0.2,1.4,0.6C67.2,64.9,67.3,65.4,67.3,66.1
		z"/>
	<path fill="#FFFFFF" d="M74.4,66.1v2.7c0,0.6,0.1,1,0.3,1.3c-0.3,0.3-0.7,0.4-1.1,0.4c-0.4,0-0.7-0.1-0.9-0.3s-0.2-0.5-0.2-0.9
		v-2.8c0-0.3,0-0.6-0.1-0.7c-0.1-0.1-0.2-0.2-0.5-0.2c-0.4,0-0.7,0.2-1.1,0.5v4.4c-0.3,0.1-0.6,0.1-0.9,0.1c-0.4,0-0.7,0-1-0.1v-9.5
		l0.1-0.1h0.8c0.4,0,0.7,0.1,0.8,0.3c0.2,0.2,0.2,0.5,0.2,0.9v2.5c0.6-0.5,1.2-0.7,1.8-0.7c0.6,0,1,0.2,1.4,0.6
		C74.2,64.9,74.4,65.4,74.4,66.1z"/>
	<path fill="#FFFFFF" d="M81,67.8h-3.4c0,0.4,0.1,0.7,0.3,1c0.2,0.2,0.5,0.3,1,0.3c0.5,0,1-0.1,1.6-0.4c0.3,0.3,0.4,0.6,0.5,1.2
		c-0.7,0.5-1.6,0.7-2.5,0.7c-0.5,0-1-0.1-1.4-0.3c-0.4-0.2-0.7-0.4-0.9-0.8c-0.4-0.6-0.6-1.4-0.6-2.4s0.2-1.8,0.7-2.4
		s1.2-0.9,2.1-0.9s1.6,0.3,2.1,0.8s0.7,1.2,0.7,2C81.2,67,81.1,67.4,81,67.8z M79.1,65.5c-0.1-0.2-0.4-0.3-0.7-0.3
		c-0.3,0-0.5,0.1-0.7,0.3c-0.1,0.2-0.2,0.6-0.3,1h1.8v-0.2C79.4,66,79.3,65.7,79.1,65.5z"/>
	<path fill="#FFFFFF" d="M85.7,66.8c0,0,0-0.1,0-0.1c0-0.5-0.1-0.8-0.1-1.1c-0.1-0.2-0.3-0.4-0.6-0.4s-0.6,0.2-0.7,0.5
		C84.1,66,84,66.5,84,67.2s0.1,1.2,0.3,1.5c0.2,0.3,0.5,0.4,0.9,0.4s0.9-0.2,1.4-0.6c0.2,0.1,0.3,0.2,0.5,0.5
		c0.1,0.2,0.2,0.4,0.3,0.6c-0.3,0.3-0.7,0.5-1.1,0.7c-0.5,0.2-0.9,0.3-1.4,0.3c-0.9,0-1.6-0.3-2.1-0.9c-0.5-0.6-0.7-1.5-0.7-2.6
		c0-1.1,0.3-1.9,0.8-2.5s1.2-0.9,2-0.9c0.8,0,1.4,0.2,1.9,0.6c0.5,0.4,0.7,0.9,0.7,1.5c0,0.3-0.1,0.5-0.3,0.7s-0.4,0.2-0.7,0.2
		S85.9,66.8,85.7,66.8z"/>
	<path fill="#FFFFFF" d="M90.9,65.4v5c-0.3,0.1-0.6,0.1-0.9,0.1c-0.4,0-0.7,0-1-0.1V66c0-0.5-0.2-0.7-0.6-0.7h-0.2
		c-0.1-0.2-0.1-0.4-0.1-0.7c0-0.2,0-0.5,0.1-0.7c0.4,0,0.8-0.1,1.1-0.1h0.3c0.4,0,0.8,0.1,1,0.4C90.8,64.6,90.9,64.9,90.9,65.4z
		 M88.6,62.1c0-0.3,0-0.5,0.1-0.7c0.2-0.1,0.6-0.2,1-0.2c0.4,0,0.7,0.1,0.9,0.2c0.1,0.2,0.1,0.5,0.1,0.7c0,0.3,0,0.5-0.1,0.7
		c-0.2,0.1-0.5,0.2-0.9,0.2s-0.7-0.1-0.9-0.2C88.7,62.6,88.6,62.3,88.6,62.1z"/>
	<path fill="#FFFFFF" d="M96,66.5c0-0.6-0.2-0.9-0.6-0.9c-0.3,0-0.6,0.2-0.9,0.5v4.4c-0.3,0.1-0.6,0.1-1,0.1c-0.4,0-0.7,0-1-0.1
		v-6.5l0.1-0.1h0.7c0.5,0,0.9,0.3,1,0.8c0.6-0.6,1.2-0.8,1.8-0.8c0.7,0,1.2,0.3,1.5,0.9c0.7-0.6,1.3-0.9,1.9-0.9
		c0.6,0,1.1,0.2,1.4,0.6c0.3,0.4,0.4,0.9,0.4,1.5v2.9c0,0.5,0.1,1,0.3,1.3c-0.3,0.3-0.7,0.4-1.1,0.4c-0.4,0-0.7-0.1-0.9-0.3
		s-0.2-0.5-0.2-0.9v-2.8c0-0.6-0.2-0.9-0.6-0.9c-0.3,0-0.6,0.2-0.9,0.5v4.4c-0.3,0.1-0.6,0.1-1,0.1c-0.4,0-0.7,0-1-0.1V66.5z"/>
	<path fill="#FFFFFF" d="M108.1,67.8h-3.4c0,0.4,0.1,0.7,0.3,1c0.2,0.2,0.5,0.3,1,0.3c0.5,0,1-0.1,1.6-0.4c0.3,0.3,0.4,0.6,0.5,1.2
		c-0.7,0.5-1.6,0.7-2.5,0.7c-0.5,0-1-0.1-1.4-0.3c-0.4-0.2-0.7-0.4-0.9-0.8c-0.4-0.6-0.6-1.4-0.6-2.4s0.2-1.8,0.7-2.4
		s1.2-0.9,2.1-0.9s1.6,0.3,2.1,0.8s0.7,1.2,0.7,2C108.2,67,108.2,67.4,108.1,67.8z M106.2,65.5c-0.1-0.2-0.4-0.3-0.7-0.3
		c-0.3,0-0.5,0.1-0.7,0.3c-0.1,0.2-0.2,0.6-0.3,1h1.8v-0.2C106.4,66,106.4,65.7,106.2,65.5z"/>
	<path fill="#FFFFFF" d="M115,66.1v2.7c0,0.6,0.1,1,0.3,1.3c-0.3,0.3-0.7,0.4-1.1,0.4c-0.4,0-0.7-0.1-0.9-0.3
		c-0.2-0.2-0.2-0.5-0.2-0.9v-2.8c0-0.3,0-0.6-0.1-0.7c-0.1-0.1-0.2-0.2-0.5-0.2c-0.4,0-0.7,0.2-1.1,0.5v4.4c-0.3,0.1-0.6,0.1-1,0.1
		c-0.4,0-0.7,0-1-0.1v-6.5l0.1-0.1h0.7c0.5,0,0.9,0.3,1,0.8c0.6-0.5,1.2-0.8,1.8-0.8s1.1,0.2,1.4,0.6C114.9,64.9,115,65.4,115,66.1z
		"/>
	<path fill="#FFFFFF" d="M120.3,63.9c0.1,0.2,0.1,0.5,0.1,0.7s0,0.5-0.1,0.7l-1.6,0v3.1c0,0.4,0.2,0.6,0.6,0.6h0.8
		c0.1,0.3,0.2,0.6,0.2,0.8c0,0.2,0,0.4-0.1,0.5c-0.6,0.1-1.2,0.1-1.7,0.1c-1.1,0-1.6-0.6-1.6-1.7v-3.4l-1,0
		c-0.1-0.2-0.1-0.4-0.1-0.7s0-0.5,0.1-0.7l1,0v-0.8c0-0.4,0.1-0.7,0.2-0.9c0.2-0.2,0.4-0.3,0.8-0.3h0.8l0.1,0.1V64L120.3,63.9z"/>
	<path fill="#FFFFFF" d="M126.1,64.5c0.6,0.6,0.9,1.5,0.9,2.7c0,1.2-0.3,2-0.9,2.7c-0.5,0.5-1.2,0.8-2,0.8c-0.8,0-1.5-0.3-2-0.8
		c-0.6-0.6-0.9-1.5-0.9-2.7c0-1.2,0.3-2,0.9-2.7c0.5-0.5,1.2-0.8,2-0.8C124.9,63.7,125.5,64,126.1,64.5z M123.2,65.7
		c-0.1,0.3-0.2,0.8-0.2,1.5c0,0.6,0.1,1.1,0.2,1.5s0.4,0.5,0.8,0.5c0.4,0,0.7-0.2,0.8-0.5c0.1-0.3,0.2-0.8,0.2-1.5
		c0-0.6-0.1-1.1-0.2-1.5c-0.1-0.3-0.4-0.5-0.8-0.5C123.6,65.2,123.4,65.4,123.2,65.7z"/>
	<path fill="#FFFFFF" d="M136.4,66v3.1c0,0.5,0.1,0.9,0.2,1.2c-0.2,0.2-0.5,0.3-0.8,0.3c-0.5,0-0.7-0.3-0.7-0.8v-3.4
		c0-0.5-0.1-0.8-0.2-1c-0.1-0.2-0.3-0.3-0.6-0.3s-0.6,0.1-0.9,0.2c-0.3,0.2-0.6,0.4-0.8,0.6v4.5c-0.1,0-0.4,0.1-0.6,0.1
		s-0.5,0-0.6-0.1V64l0.1-0.1h0.5c0.4,0,0.7,0.3,0.7,0.8c0.7-0.6,1.3-0.9,2.1-0.9c0.6,0,1,0.2,1.3,0.6
		C136.2,64.9,136.4,65.4,136.4,66z"/>
	<path fill="#FFFFFF" d="M143.3,69.9c-0.1,0.3-0.3,0.5-0.5,0.6c-0.5-0.1-0.8-0.4-1-0.8c-0.6,0.6-1.3,0.9-1.9,0.9
		c-0.6,0-1.1-0.2-1.5-0.6c-0.3-0.4-0.5-0.8-0.5-1.3c0-0.7,0.2-1.2,0.7-1.6c0.5-0.4,1.1-0.5,1.8-0.5c0.4,0,0.9,0,1.3,0.1v-0.5
		c0-0.8-0.4-1.2-1.1-1.2c-0.6,0-1.3,0.2-2.1,0.5c-0.2-0.2-0.4-0.5-0.4-0.9c0.9-0.4,1.8-0.6,2.7-0.6c0.7,0,1.2,0.2,1.6,0.5
		c0.4,0.4,0.6,0.9,0.6,1.6v2.7C143,69.3,143.1,69.6,143.3,69.9z M140.1,69.6c0.6,0,1.1-0.3,1.6-0.8v-1.2c-0.3,0-0.7-0.1-1.2-0.1
		c-0.4,0-0.8,0.1-1,0.3c-0.2,0.2-0.3,0.5-0.3,0.8s0.1,0.6,0.2,0.8C139.6,69.5,139.8,69.6,140.1,69.6z"/>
	<path fill="#FFFFFF" d="M151.3,66.4c0,0,0-0.1,0-0.1c0-1-0.4-1.5-1.2-1.5c-0.4,0-0.8,0.2-1,0.6c-0.2,0.4-0.4,1-0.4,1.8
		c0,1.5,0.5,2.3,1.5,2.3c0.5,0,1-0.2,1.6-0.7c0.1,0.1,0.2,0.2,0.3,0.3c0.1,0.1,0.2,0.3,0.2,0.4c-0.6,0.6-1.4,1-2.3,1s-1.6-0.3-2-0.9
		c-0.4-0.6-0.7-1.5-0.7-2.5s0.3-1.8,0.8-2.4c0.5-0.6,1.2-0.9,1.9-0.9c0.7,0,1.3,0.2,1.7,0.6c0.4,0.4,0.6,0.8,0.6,1.3
		s-0.2,0.7-0.7,0.7C151.6,66.5,151.4,66.5,151.3,66.4z"/>
	<path fill="#FFFFFF" d="M158.2,64.5c0.6,0.6,0.9,1.5,0.9,2.7c0,1.2-0.3,2-0.9,2.7c-0.5,0.5-1.1,0.7-1.9,0.7s-1.4-0.2-1.9-0.7
		c-0.6-0.6-0.9-1.5-0.9-2.7c0-1.2,0.3-2,0.9-2.7c0.5-0.5,1.1-0.7,1.9-0.7S157.7,64.1,158.2,64.5z M154.8,67.2c0,1.6,0.5,2.4,1.5,2.4
		s1.5-0.8,1.5-2.4c0-0.5,0-0.8-0.1-1.2s-0.2-0.6-0.5-0.9c-0.2-0.2-0.5-0.4-0.9-0.4s-0.7,0.1-0.9,0.4c-0.2,0.2-0.4,0.5-0.5,0.9
		S154.8,66.8,154.8,67.2z"/>
	<path fill="#FFFFFF" d="M165.8,66v3.1c0,0.5,0.1,0.9,0.2,1.2c-0.2,0.2-0.5,0.3-0.8,0.3c-0.5,0-0.7-0.3-0.7-0.8v-3.4
		c0-0.5-0.1-0.8-0.2-1c-0.1-0.2-0.3-0.3-0.6-0.3s-0.6,0.1-0.9,0.2c-0.3,0.2-0.6,0.4-0.8,0.6v4.5c-0.1,0-0.4,0.1-0.6,0.1
		s-0.5,0-0.6-0.1V64l0.1-0.1h0.5c0.4,0,0.7,0.3,0.7,0.8c0.7-0.6,1.3-0.9,2.1-0.9c0.6,0,1,0.2,1.3,0.6
		C165.7,64.9,165.8,65.4,165.8,66z"/>
	<path fill="#FFFFFF" d="M171.4,72.4v-2.6c-0.5,0.5-1.1,0.7-1.8,0.7s-1.2-0.3-1.6-0.9s-0.6-1.4-0.6-2.5c0-1.1,0.2-1.9,0.7-2.5
		c0.5-0.6,1.1-0.9,1.7-0.9s1.3,0.2,1.8,0.7c0.2-0.3,0.5-0.5,0.8-0.6c0.2,0.1,0.4,0.3,0.5,0.7c-0.2,0.2-0.4,0.6-0.4,1.3v7.3l-0.1,0.1
		H172c-0.3,0-0.4-0.1-0.5-0.2C171.4,72.9,171.4,72.7,171.4,72.4z M169.9,69.5c0.6,0,1.1-0.3,1.5-0.8v-3.2c-0.5-0.4-0.9-0.6-1.3-0.6
		c-0.4,0-0.8,0.2-1,0.6c-0.3,0.4-0.4,1-0.4,1.7c0,0.8,0.1,1.3,0.3,1.7C169.2,69.3,169.5,69.5,169.9,69.5z"/>
	<path fill="#FFFFFF" d="M174.6,68.4v-3.1c0-0.5-0.1-0.9-0.2-1.2c0.2-0.2,0.4-0.3,0.7-0.3s0.5,0.1,0.6,0.2c0.1,0.1,0.1,0.3,0.1,0.6
		v3.4c0,0.5,0.1,0.8,0.2,1c0.1,0.2,0.3,0.3,0.6,0.3c0.3,0,0.6-0.1,0.9-0.2c0.3-0.2,0.6-0.4,0.8-0.6V64c0.2,0,0.4-0.1,0.6-0.1
		s0.4,0,0.6,0.1v4.6c0,0.6,0.1,1,0.4,1.3c-0.1,0.3-0.2,0.5-0.5,0.6c-0.5-0.1-0.9-0.4-1-0.9c-0.7,0.7-1.4,1-2.2,1
		c-0.6,0-1-0.2-1.3-0.6C174.8,69.6,174.6,69,174.6,68.4z"/>
	<path fill="#FFFFFF" d="M183.2,65.1v5.3c-0.1,0-0.4,0.1-0.6,0.1s-0.5,0-0.6-0.1v-4.8c0-0.2,0-0.4-0.1-0.5c-0.1-0.1-0.2-0.2-0.4-0.2
		h-0.1c0-0.1-0.1-0.3-0.1-0.4c0-0.2,0-0.3,0.1-0.5c0.3,0,0.5-0.1,0.8-0.1h0.2c0.3,0,0.6,0.1,0.7,0.3
		C183.1,64.5,183.2,64.7,183.2,65.1z M181.5,62.2c0-0.2,0-0.4,0.1-0.6c0.2-0.1,0.4-0.2,0.7-0.2s0.5,0.1,0.7,0.2
		c0.1,0.2,0.1,0.3,0.1,0.6c0,0.2,0,0.4-0.1,0.6c-0.1,0.1-0.4,0.2-0.7,0.2c-0.3,0-0.5-0.1-0.7-0.2C181.5,62.6,181.5,62.4,181.5,62.2z
		"/>
	<path fill="#FFFFFF" d="M184.6,69.9c0-0.1,0.1-0.3,0.1-0.5c0.1-0.2,0.2-0.3,0.3-0.4c0.7,0.4,1.3,0.6,1.7,0.6s0.8-0.1,1-0.2
		s0.3-0.4,0.3-0.6c0-0.4-0.3-0.7-0.8-0.9l-0.7-0.3c-1.1-0.4-1.7-1-1.7-1.8c0-0.6,0.2-1,0.6-1.4c0.4-0.3,1-0.5,1.7-0.5s1.4,0.2,2,0.5
		c0,0.2,0,0.3-0.1,0.5c-0.1,0.2-0.2,0.3-0.3,0.4c-0.6-0.3-1.2-0.4-1.7-0.4c-0.3,0-0.5,0.1-0.7,0.2c-0.2,0.1-0.3,0.3-0.3,0.5
		s0.1,0.4,0.2,0.5c0.1,0.1,0.3,0.2,0.6,0.4l0.8,0.3c1.1,0.4,1.6,1.1,1.6,2c0,0.6-0.2,1-0.7,1.4s-1.1,0.5-1.8,0.5
		S185.3,70.4,184.6,69.9z"/>
	<path fill="#FFFFFF" d="M194,64c0,0.1,0.1,0.3,0.1,0.5s0,0.3-0.1,0.5l-1.6,0v4c0,0.4,0.2,0.6,0.5,0.6h0.9c0.1,0.2,0.1,0.3,0.1,0.5
		c0,0.2,0,0.3,0,0.4c-0.5,0.1-1,0.1-1.4,0.1c-0.9,0-1.3-0.4-1.3-1.3v-4.3l-0.9,0c0-0.1-0.1-0.3-0.1-0.5s0-0.3,0.1-0.5l0.9,0v-1.2
		c0-0.3,0-0.5,0.1-0.6c0.1-0.1,0.3-0.2,0.5-0.2h0.5l0.1,0.1V64L194,64z"/>
	<path fill="#FFFFFF" d="M200.3,69.9c-0.1,0.3-0.3,0.5-0.5,0.6c-0.5-0.1-0.8-0.4-1-0.8c-0.6,0.6-1.3,0.9-1.9,0.9
		c-0.6,0-1.1-0.2-1.5-0.6c-0.3-0.4-0.5-0.8-0.5-1.3c0-0.7,0.2-1.2,0.7-1.6c0.5-0.4,1.1-0.5,1.8-0.5c0.4,0,0.9,0,1.3,0.1v-0.5
		c0-0.8-0.4-1.2-1.1-1.2c-0.6,0-1.3,0.2-2.1,0.5c-0.2-0.2-0.4-0.5-0.4-0.9c0.9-0.4,1.8-0.6,2.7-0.6c0.7,0,1.2,0.2,1.6,0.5
		c0.4,0.4,0.6,0.9,0.6,1.6v2.7C200,69.3,200.1,69.6,200.3,69.9z M197.2,69.6c0.6,0,1.1-0.3,1.6-0.8v-1.2c-0.3,0-0.7-0.1-1.2-0.1
		c-0.4,0-0.8,0.1-1,0.3c-0.2,0.2-0.3,0.5-0.3,0.8s0.1,0.6,0.2,0.8C196.6,69.5,196.9,69.6,197.2,69.6z"/>
	<path fill="#FFFFFF" d="M207.9,63.8c0.7,0,1.3,0.3,1.6,0.9c0.4,0.6,0.6,1.4,0.6,2.5s-0.2,1.9-0.7,2.5c-0.5,0.6-1.1,0.9-1.7,0.9
		c-0.5,0-1-0.2-1.5-0.5v2.3c0,0.3,0,0.5-0.1,0.6s-0.3,0.2-0.5,0.2H205l-0.1-0.1V64L205,64h0.4c0.4,0,0.7,0.2,0.7,0.7
		C206.6,64.1,207.2,63.8,207.9,63.8z M207.6,64.9c-0.6,0-1.1,0.3-1.5,0.9V69c0.5,0.3,0.9,0.5,1.3,0.5s0.8-0.2,1-0.6
		c0.3-0.4,0.4-1,0.4-1.7s-0.1-1.3-0.3-1.7C208.3,65.1,208,64.9,207.6,64.9z"/>
	<path fill="#FFFFFF" d="M216,64.5c0.6,0.6,0.9,1.5,0.9,2.7c0,1.2-0.3,2-0.9,2.7c-0.5,0.5-1.1,0.7-1.9,0.7s-1.4-0.2-1.9-0.7
		c-0.6-0.6-0.9-1.5-0.9-2.7c0-1.2,0.3-2,0.9-2.7c0.5-0.5,1.1-0.7,1.9-0.7S215.5,64.1,216,64.5z M212.6,67.2c0,1.6,0.5,2.4,1.5,2.4
		s1.5-0.8,1.5-2.4c0-0.5,0-0.8-0.1-1.2s-0.2-0.6-0.5-0.9c-0.2-0.2-0.5-0.4-0.9-0.4s-0.7,0.1-0.9,0.4c-0.2,0.2-0.4,0.5-0.5,0.9
		S212.6,66.8,212.6,67.2z"/>
	<path fill="#FFFFFF" d="M218.2,64.6c0.1-0.3,0.2-0.5,0.5-0.7c0.6,0.1,0.9,0.5,1.1,1.2c0.4-0.8,0.9-1.2,1.7-1.2c0.2,0,0.4,0,0.7,0.1
		c0,0.5-0.1,0.9-0.3,1.2c-0.1,0-0.2,0-0.5-0.1c-0.6,0-1.1,0.3-1.4,1v4.3c-0.1,0-0.4,0.1-0.6,0.1c-0.3,0-0.5,0-0.6-0.1v-4.5
		C218.6,65.3,218.5,64.9,218.2,64.6z"/>
	<path fill="#FFFFFF" d="M52.6,81.9c0-0.5-0.1-0.8-0.2-1s-0.3-0.3-0.6-0.3c-0.5,0-1,0.3-1.5,0.8V86c-0.1,0-0.4,0.1-0.6,0.1
		s-0.5,0-0.6-0.1v-6.4l0.1-0.1h0.5c0.4,0,0.7,0.3,0.7,0.8c0.6-0.6,1.2-0.9,1.9-0.9s1.2,0.3,1.4,1c0.7-0.6,1.4-1,2.1-1
		c0.5,0,0.9,0.2,1.2,0.6c0.3,0.4,0.4,0.9,0.4,1.5v3.2c0,0.5,0.1,0.9,0.2,1.2c-0.2,0.2-0.5,0.3-0.8,0.3c-0.4,0-0.7-0.3-0.7-0.8v-3.4
		c0-0.5-0.1-0.8-0.2-1c-0.1-0.2-0.3-0.3-0.6-0.3c-0.5,0-1,0.3-1.5,0.8V86c-0.1,0-0.4,0.1-0.6,0.1s-0.5,0-0.6-0.1V81.9z"/>
	<path fill="#FFFFFF" d="M64.3,85.5c-0.1,0.3-0.3,0.5-0.5,0.6c-0.5-0.1-0.8-0.4-1-0.8c-0.6,0.6-1.3,0.9-1.9,0.9
		c-0.6,0-1.1-0.2-1.5-0.6c-0.3-0.4-0.5-0.8-0.5-1.3c0-0.7,0.2-1.2,0.7-1.6c0.5-0.4,1.1-0.5,1.8-0.5c0.4,0,0.9,0,1.3,0.1v-0.5
		c0-0.8-0.4-1.2-1.1-1.2c-0.6,0-1.3,0.2-2.1,0.5c-0.2-0.2-0.4-0.5-0.4-0.9c0.9-0.4,1.8-0.6,2.7-0.6c0.7,0,1.2,0.2,1.6,0.5
		c0.4,0.4,0.6,0.9,0.6,1.6v2.7C64,84.9,64.1,85.2,64.3,85.5z M61.1,85.2c0.6,0,1.1-0.3,1.6-0.8v-1.2C62.4,83,62,83,61.6,83
		c-0.4,0-0.8,0.1-1,0.3c-0.2,0.2-0.3,0.5-0.3,0.8s0.1,0.6,0.2,0.8C60.6,85.1,60.9,85.2,61.1,85.2z"/>
	<path fill="#FFFFFF" d="M65.7,80.2c0.1-0.3,0.2-0.5,0.5-0.7c0.6,0.1,0.9,0.5,1.1,1.2c0.4-0.8,0.9-1.2,1.7-1.2c0.2,0,0.4,0,0.7,0.1
		c0,0.5-0.1,0.9-0.3,1.2c-0.1,0-0.2,0-0.5-0.1c-0.6,0-1.1,0.3-1.4,1V86c-0.1,0-0.4,0.1-0.6,0.1c-0.3,0-0.5,0-0.6-0.1v-4.5
		C66.1,80.9,66,80.5,65.7,80.2z"/>
	<path fill="#FFFFFF" d="M75.5,83.2h-3.9c0,0.6,0.2,1.1,0.4,1.4s0.6,0.5,1.2,0.5s1.1-0.2,1.8-0.5c0.2,0.2,0.4,0.5,0.4,0.8
		c-0.7,0.5-1.5,0.7-2.4,0.7s-1.6-0.3-2-0.9c-0.4-0.6-0.6-1.4-0.6-2.4s0.2-1.8,0.7-2.4c0.5-0.6,1.1-0.9,1.9-0.9
		c0.8,0,1.5,0.3,1.9,0.8c0.5,0.5,0.7,1.2,0.7,2C75.6,82.5,75.5,82.9,75.5,83.2z M74,80.9c-0.2-0.3-0.6-0.5-1-0.5
		c-0.4,0-0.8,0.2-1,0.5c-0.2,0.3-0.4,0.8-0.4,1.4h2.7v-0.2C74.3,81.6,74.2,81.2,74,80.9z"/>
	<path fill="#FFFFFF" d="M76.6,85.5c0-0.1,0.1-0.3,0.1-0.5c0.1-0.2,0.2-0.3,0.3-0.4c0.7,0.4,1.3,0.6,1.7,0.6s0.8-0.1,1-0.2
		s0.3-0.4,0.3-0.6c0-0.4-0.3-0.7-0.8-0.9l-0.7-0.3c-1.1-0.4-1.7-1-1.7-1.8c0-0.6,0.2-1,0.6-1.4c0.4-0.3,1-0.5,1.7-0.5s1.4,0.2,2,0.5
		c0,0.2,0,0.3-0.1,0.5c-0.1,0.2-0.2,0.3-0.3,0.4c-0.6-0.3-1.2-0.4-1.7-0.4c-0.3,0-0.5,0.1-0.7,0.2c-0.2,0.1-0.3,0.3-0.3,0.5
		s0.1,0.4,0.2,0.5c0.1,0.1,0.3,0.2,0.6,0.4l0.8,0.3c1.1,0.4,1.6,1.1,1.6,2c0,0.6-0.2,1-0.7,1.4s-1.1,0.5-1.8,0.5S77.4,86,76.6,85.5z
		"/>
	<path fill="#FFFFFF" d="M89.3,81.9c0-0.5-0.1-0.8-0.2-1s-0.3-0.3-0.6-0.3c-0.5,0-1,0.3-1.5,0.8V86c-0.1,0-0.4,0.1-0.6,0.1
		S86,86,85.8,86v-6.4l0.1-0.1h0.5c0.4,0,0.7,0.3,0.7,0.8c0.6-0.6,1.2-0.9,1.9-0.9s1.2,0.3,1.4,1c0.7-0.6,1.4-1,2.1-1
		c0.5,0,0.9,0.2,1.2,0.6c0.3,0.4,0.4,0.9,0.4,1.5v3.2c0,0.5,0.1,0.9,0.2,1.2c-0.2,0.2-0.5,0.3-0.8,0.3c-0.4,0-0.7-0.3-0.7-0.8v-3.4
		c0-0.5-0.1-0.8-0.2-1c-0.1-0.2-0.3-0.3-0.6-0.3c-0.5,0-1,0.3-1.5,0.8V86c-0.1,0-0.4,0.1-0.6,0.1s-0.5,0-0.6-0.1V81.9z"/>
	<path fill="#FFFFFF" d="M101.1,85.5c-0.1,0.3-0.3,0.5-0.5,0.6c-0.5-0.1-0.8-0.4-1-0.8c-0.6,0.6-1.3,0.9-1.9,0.9
		c-0.6,0-1.1-0.2-1.5-0.6c-0.3-0.4-0.5-0.8-0.5-1.3c0-0.7,0.2-1.2,0.7-1.6c0.5-0.4,1.1-0.5,1.8-0.5c0.4,0,0.9,0,1.3,0.1v-0.5
		c0-0.8-0.4-1.2-1.1-1.2c-0.6,0-1.3,0.2-2.1,0.5c-0.2-0.2-0.4-0.5-0.4-0.9c0.9-0.4,1.8-0.6,2.7-0.6c0.7,0,1.2,0.2,1.6,0.5
		c0.4,0.4,0.6,0.9,0.6,1.6v2.7C100.7,84.9,100.8,85.2,101.1,85.5z M97.9,85.2c0.6,0,1.1-0.3,1.6-0.8v-1.2c-0.3,0-0.7-0.1-1.2-0.1
		c-0.4,0-0.8,0.1-1,0.3c-0.2,0.2-0.3,0.5-0.3,0.8s0.1,0.6,0.2,0.8C97.4,85.1,97.6,85.2,97.9,85.2z"/>
	<path fill="#FFFFFF" d="M104.1,80.7V86c-0.1,0-0.4,0.1-0.6,0.1s-0.5,0-0.6-0.1v-4.8c0-0.2,0-0.4-0.1-0.5c-0.1-0.1-0.2-0.2-0.4-0.2
		h-0.1c0-0.1-0.1-0.3-0.1-0.4c0-0.2,0-0.3,0.1-0.5c0.3,0,0.5-0.1,0.8-0.1h0.2c0.3,0,0.6,0.1,0.7,0.3
		C104.1,80.1,104.1,80.3,104.1,80.7z M102.5,77.8c0-0.2,0-0.4,0.1-0.6c0.2-0.1,0.4-0.2,0.7-0.2s0.5,0.1,0.7,0.2
		c0.1,0.2,0.1,0.3,0.1,0.6c0,0.2,0,0.4-0.1,0.6c-0.1,0.1-0.4,0.2-0.7,0.2c-0.3,0-0.5-0.1-0.7-0.2C102.5,78.2,102.5,78,102.5,77.8z"
		/>
	<path fill="#FFFFFF" d="M105.6,85.5c0-0.1,0.1-0.3,0.1-0.5c0.1-0.2,0.2-0.3,0.3-0.4c0.7,0.4,1.3,0.6,1.7,0.6s0.8-0.1,1-0.2
		s0.3-0.4,0.3-0.6c0-0.4-0.3-0.7-0.8-0.9l-0.7-0.3c-1.1-0.4-1.7-1-1.7-1.8c0-0.6,0.2-1,0.6-1.4c0.4-0.3,1-0.5,1.7-0.5s1.4,0.2,2,0.5
		c0,0.2,0,0.3-0.1,0.5c-0.1,0.2-0.2,0.3-0.3,0.4c-0.6-0.3-1.2-0.4-1.7-0.4c-0.3,0-0.5,0.1-0.7,0.2c-0.2,0.1-0.3,0.3-0.3,0.5
		s0.1,0.4,0.2,0.5c0.1,0.1,0.3,0.2,0.6,0.4l0.8,0.3c1.1,0.4,1.6,1.1,1.6,2c0,0.6-0.2,1-0.7,1.4s-1.1,0.5-1.8,0.5
		S106.3,86,105.6,85.5z"/>
	<path fill="#FFFFFF" d="M116.6,86.2c-0.7,0-1.3-0.3-1.7-0.9c-0.4-0.6-0.6-1.4-0.6-2.5s0.2-1.9,0.7-2.4c0.5-0.6,1.1-0.9,1.7-0.9
		c0.5,0,1,0.1,1.5,0.4v-3.4l0.1-0.1h0.5c0.3,0,0.4,0.1,0.5,0.2c0.1,0.1,0.1,0.3,0.1,0.6v6.9c0,0.6,0.1,1,0.4,1.3
		c-0.1,0.3-0.3,0.5-0.5,0.6c-0.5-0.1-0.8-0.4-1-0.8C117.9,85.9,117.3,86.2,116.6,86.2z M116.8,85.1c0.6,0,1.1-0.3,1.5-0.9V81
		c-0.5-0.3-0.9-0.5-1.3-0.5c-0.4,0-0.7,0.2-1,0.6c-0.3,0.4-0.4,1-0.4,1.7c0,0.8,0.1,1.3,0.3,1.7C116.2,84.9,116.5,85.1,116.8,85.1z"
		/>
	<path fill="#FFFFFF" d="M123,80.7V86c-0.1,0-0.4,0.1-0.6,0.1s-0.5,0-0.6-0.1v-4.8c0-0.2,0-0.4-0.1-0.5c-0.1-0.1-0.2-0.2-0.4-0.2
		H121c0-0.1-0.1-0.3-0.1-0.4c0-0.2,0-0.3,0.1-0.5c0.3,0,0.5-0.1,0.8-0.1h0.2c0.3,0,0.6,0.1,0.7,0.3C122.9,80.1,123,80.3,123,80.7z
		 M121.3,77.8c0-0.2,0-0.4,0.1-0.6c0.2-0.1,0.4-0.2,0.7-0.2s0.5,0.1,0.7,0.2c0.1,0.2,0.1,0.3,0.1,0.6c0,0.2,0,0.4-0.1,0.6
		c-0.1,0.1-0.4,0.2-0.7,0.2c-0.3,0-0.5-0.1-0.7-0.2C121.4,78.2,121.3,78,121.3,77.8z"/>
	<path fill="#FFFFFF" d="M124.4,85.5c0-0.1,0.1-0.3,0.1-0.5c0.1-0.2,0.2-0.3,0.3-0.4c0.7,0.4,1.3,0.6,1.7,0.6s0.8-0.1,1-0.2
		s0.3-0.4,0.3-0.6c0-0.4-0.3-0.7-0.8-0.9l-0.7-0.3c-1.1-0.4-1.7-1-1.7-1.8c0-0.6,0.2-1,0.6-1.4c0.4-0.3,1-0.5,1.7-0.5s1.4,0.2,2,0.5
		c0,0.2,0,0.3-0.1,0.5c-0.1,0.2-0.2,0.3-0.3,0.4c-0.6-0.3-1.2-0.4-1.7-0.4c-0.3,0-0.5,0.1-0.7,0.2c-0.2,0.1-0.3,0.3-0.3,0.5
		s0.1,0.4,0.2,0.5c0.1,0.1,0.3,0.2,0.6,0.4l0.8,0.3c1.1,0.4,1.6,1.1,1.6,2c0,0.6-0.2,1-0.7,1.4s-1.1,0.5-1.8,0.5
		S125.2,86,124.4,85.5z"/>
	<path fill="#FFFFFF" d="M133.8,79.6c0,0.1,0.1,0.3,0.1,0.5s0,0.3-0.1,0.5l-1.6,0v4c0,0.4,0.2,0.6,0.5,0.6h0.9
		c0.1,0.2,0.1,0.3,0.1,0.5c0,0.2,0,0.3,0,0.4c-0.5,0.1-1,0.1-1.4,0.1c-0.9,0-1.3-0.4-1.3-1.3v-4.3l-0.9,0c0-0.1-0.1-0.3-0.1-0.5
		s0-0.3,0.1-0.5l0.9,0v-1.2c0-0.3,0-0.5,0.1-0.6c0.1-0.1,0.3-0.2,0.5-0.2h0.5l0.1,0.1v1.9L133.8,79.6z"/>
	<path fill="#FFFFFF" d="M140.2,85.5c-0.1,0.3-0.3,0.5-0.5,0.6c-0.5-0.1-0.8-0.4-1-0.8c-0.6,0.6-1.3,0.9-1.9,0.9
		c-0.6,0-1.1-0.2-1.5-0.6c-0.3-0.4-0.5-0.8-0.5-1.3c0-0.7,0.2-1.2,0.7-1.6c0.5-0.4,1.1-0.5,1.8-0.5c0.4,0,0.9,0,1.3,0.1v-0.5
		c0-0.8-0.4-1.2-1.1-1.2c-0.6,0-1.3,0.2-2.1,0.5c-0.2-0.2-0.4-0.5-0.4-0.9c0.9-0.4,1.8-0.6,2.7-0.6c0.7,0,1.2,0.2,1.6,0.5
		c0.4,0.4,0.6,0.9,0.6,1.6v2.7C139.8,84.9,139.9,85.2,140.2,85.5z M137,85.2c0.6,0,1.1-0.3,1.6-0.8v-1.2c-0.3,0-0.7-0.1-1.2-0.1
		c-0.4,0-0.8,0.1-1,0.3c-0.2,0.2-0.3,0.5-0.3,0.8s0.1,0.6,0.2,0.8C136.5,85.1,136.7,85.2,137,85.2z"/>
	<path fill="#FFFFFF" d="M146.9,81.6v3.1c0,0.5,0.1,0.9,0.2,1.2c-0.2,0.2-0.5,0.3-0.8,0.3c-0.5,0-0.7-0.3-0.7-0.8v-3.4
		c0-0.5-0.1-0.8-0.2-1c-0.1-0.2-0.3-0.3-0.6-0.3s-0.6,0.1-0.9,0.2c-0.3,0.2-0.6,0.4-0.8,0.6V86c-0.1,0-0.4,0.1-0.6,0.1
		s-0.5,0-0.6-0.1v-6.4l0.1-0.1h0.5c0.4,0,0.7,0.3,0.7,0.8c0.7-0.6,1.3-0.9,2.1-0.9c0.6,0,1,0.2,1.3,0.6
		C146.8,80.5,146.9,81,146.9,81.6z"/>
	<path fill="#FFFFFF" d="M152,79.6c0,0.1,0.1,0.3,0.1,0.5s0,0.3-0.1,0.5l-1.6,0v4c0,0.4,0.2,0.6,0.5,0.6h0.9
		c0.1,0.2,0.1,0.3,0.1,0.5c0,0.2,0,0.3,0,0.4c-0.5,0.1-1,0.1-1.4,0.1c-0.9,0-1.3-0.4-1.3-1.3v-4.3l-0.9,0c0-0.1-0.1-0.3-0.1-0.5
		s0-0.3,0.1-0.5l0.9,0v-1.2c0-0.3,0-0.5,0.1-0.6c0.1-0.1,0.3-0.2,0.5-0.2h0.5l0.1,0.1v1.9L152,79.6z"/>
	<path fill="#FFFFFF" d="M158.2,83.2h-3.9c0,0.6,0.2,1.1,0.4,1.4s0.6,0.5,1.2,0.5s1.1-0.2,1.8-0.5c0.2,0.2,0.4,0.5,0.4,0.8
		c-0.7,0.5-1.5,0.7-2.4,0.7s-1.6-0.3-2-0.9c-0.4-0.6-0.6-1.4-0.6-2.4s0.2-1.8,0.7-2.4c0.5-0.6,1.1-0.9,1.9-0.9
		c0.8,0,1.5,0.3,1.9,0.8c0.5,0.5,0.7,1.2,0.7,2C158.3,82.5,158.2,82.9,158.2,83.2z M156.7,80.9c-0.2-0.3-0.6-0.5-1-0.5
		c-0.4,0-0.8,0.2-1,0.5c-0.2,0.3-0.4,0.8-0.4,1.4h2.7v-0.2C157.1,81.6,156.9,81.2,156.7,80.9z"/>
	<path fill="#FFFFFF" d="M159.4,85.5c0-0.1,0.1-0.3,0.1-0.5c0.1-0.2,0.2-0.3,0.3-0.4c0.7,0.4,1.3,0.6,1.7,0.6s0.8-0.1,1-0.2
		s0.3-0.4,0.3-0.6c0-0.4-0.3-0.7-0.8-0.9l-0.7-0.3c-1.1-0.4-1.7-1-1.7-1.8c0-0.6,0.2-1,0.6-1.4c0.4-0.3,1-0.5,1.7-0.5s1.4,0.2,2,0.5
		c0,0.2,0,0.3-0.1,0.5c-0.1,0.2-0.2,0.3-0.3,0.4c-0.6-0.3-1.2-0.4-1.7-0.4c-0.3,0-0.5,0.1-0.7,0.2c-0.2,0.1-0.3,0.3-0.3,0.5
		s0.1,0.4,0.2,0.5c0.1,0.1,0.3,0.2,0.6,0.4l0.8,0.3c1.1,0.4,1.6,1.1,1.6,2c0,0.6-0.2,1-0.7,1.4s-1.1,0.5-1.8,0.5
		S160.1,86,159.4,85.5z"/>
	<path fill="#FFFFFF" d="M165.4,88.1c-0.2-0.1-0.3-0.3-0.3-0.6c0,0,0-0.1,0-0.1c0.3-0.1,0.6-0.3,0.7-0.6c0.2-0.2,0.3-0.5,0.3-0.7
		c-0.3-0.1-0.4-0.1-0.5-0.2c-0.1-0.1-0.1-0.4-0.1-0.6c0-0.3,0-0.5,0.1-0.6c0.2-0.1,0.5-0.2,0.8-0.2s0.6,0.1,0.7,0.2
		c0.1,0.2,0.1,0.5,0.1,0.8c0,0.6-0.2,1.1-0.5,1.5C166.5,87.5,166,87.9,165.4,88.1z"/>
	<path fill="#FFFFFF" d="M171.4,85.5c0-0.1,0.1-0.3,0.1-0.5c0.1-0.2,0.2-0.3,0.3-0.4c0.7,0.4,1.3,0.6,1.7,0.6s0.8-0.1,1-0.2
		s0.3-0.4,0.3-0.6c0-0.4-0.3-0.7-0.8-0.9l-0.7-0.3c-1.1-0.4-1.7-1-1.7-1.8c0-0.6,0.2-1,0.6-1.4c0.4-0.3,1-0.5,1.7-0.5s1.4,0.2,2,0.5
		c0,0.2,0,0.3-0.1,0.5c-0.1,0.2-0.2,0.3-0.3,0.4c-0.6-0.3-1.2-0.4-1.7-0.4c-0.3,0-0.5,0.1-0.7,0.2c-0.2,0.1-0.3,0.3-0.3,0.5
		s0.1,0.4,0.2,0.5c0.1,0.1,0.3,0.2,0.6,0.4l0.8,0.3c1.1,0.4,1.6,1.1,1.6,2c0,0.6-0.2,1-0.7,1.4s-1.1,0.5-1.8,0.5
		S172.1,86,171.4,85.5z"/>
	<path fill="#FFFFFF" d="M182.4,83.2h-3.9c0,0.6,0.2,1.1,0.4,1.4s0.6,0.5,1.2,0.5s1.1-0.2,1.8-0.5c0.2,0.2,0.4,0.5,0.4,0.8
		c-0.7,0.5-1.5,0.7-2.4,0.7s-1.6-0.3-2-0.9c-0.4-0.6-0.6-1.4-0.6-2.4s0.2-1.8,0.7-2.4c0.5-0.6,1.1-0.9,1.9-0.9
		c0.8,0,1.5,0.3,1.9,0.8c0.5,0.5,0.7,1.2,0.7,2C182.5,82.5,182.4,82.9,182.4,83.2z M180.9,80.9c-0.2-0.3-0.6-0.5-1-0.5
		c-0.4,0-0.8,0.2-1,0.5c-0.2,0.3-0.4,0.8-0.4,1.4h2.7v-0.2C181.2,81.6,181.1,81.2,180.9,80.9z"/>
	<path fill="#FFFFFF" d="M187.7,81.9c0-0.5-0.1-0.8-0.2-1s-0.3-0.3-0.6-0.3c-0.5,0-1,0.3-1.5,0.8V86c-0.1,0-0.4,0.1-0.6,0.1
		s-0.5,0-0.6-0.1v-6.4l0.1-0.1h0.5c0.4,0,0.7,0.3,0.7,0.8c0.6-0.6,1.2-0.9,1.9-0.9s1.2,0.3,1.4,1c0.7-0.6,1.4-1,2.1-1
		c0.5,0,0.9,0.2,1.2,0.6c0.3,0.4,0.4,0.9,0.4,1.5v3.2c0,0.5,0.1,0.9,0.2,1.2c-0.2,0.2-0.5,0.3-0.8,0.3c-0.4,0-0.7-0.3-0.7-0.8v-3.4
		c0-0.5-0.1-0.8-0.2-1c-0.1-0.2-0.3-0.3-0.6-0.3c-0.5,0-1,0.3-1.5,0.8V86c-0.1,0-0.4,0.1-0.6,0.1s-0.5,0-0.6-0.1V81.9z"/>
	<path fill="#FFFFFF" d="M197.6,79.4c0.7,0,1.3,0.3,1.6,0.9c0.4,0.6,0.6,1.4,0.6,2.5s-0.2,1.9-0.7,2.5c-0.5,0.6-1.1,0.9-1.7,0.9
		c-0.5,0-1-0.2-1.5-0.5V88c0,0.3,0,0.5-0.1,0.6s-0.3,0.2-0.5,0.2h-0.5l-0.1-0.1v-9.1l0.1-0.1h0.4c0.4,0,0.7,0.2,0.7,0.7
		C196.2,79.7,196.8,79.4,197.6,79.4z M197.3,80.5c-0.6,0-1.1,0.3-1.5,0.9v3.2c0.5,0.3,0.9,0.5,1.3,0.5s0.8-0.2,1-0.6
		c0.3-0.4,0.4-1,0.4-1.7s-0.1-1.3-0.3-1.7C197.9,80.7,197.6,80.5,197.3,80.5z"/>
	<path fill="#FFFFFF" d="M201,80.2c0.1-0.3,0.2-0.5,0.5-0.7c0.6,0.1,0.9,0.5,1.1,1.2c0.4-0.8,0.9-1.2,1.7-1.2c0.2,0,0.4,0,0.7,0.1
		c0,0.5-0.1,0.9-0.3,1.2c-0.1,0-0.2,0-0.5-0.1c-0.6,0-1.1,0.3-1.4,1V86c-0.1,0-0.4,0.1-0.6,0.1c-0.3,0-0.5,0-0.6-0.1v-4.5
		C201.5,80.9,201.4,80.5,201,80.2z"/>
	<path fill="#FFFFFF" d="M210.9,83.2H207c0,0.6,0.2,1.1,0.4,1.4s0.6,0.5,1.2,0.5s1.1-0.2,1.8-0.5c0.2,0.2,0.4,0.5,0.4,0.8
		c-0.7,0.5-1.5,0.7-2.4,0.7s-1.6-0.3-2-0.9c-0.4-0.6-0.6-1.4-0.6-2.4s0.2-1.8,0.7-2.4c0.5-0.6,1.1-0.9,1.9-0.9
		c0.8,0,1.5,0.3,1.9,0.8c0.5,0.5,0.7,1.2,0.7,2C210.9,82.5,210.9,82.9,210.9,83.2z M209.4,80.9c-0.2-0.3-0.6-0.5-1-0.5
		c-0.4,0-0.8,0.2-1,0.5c-0.2,0.3-0.4,0.8-0.4,1.4h2.7v-0.2C209.7,81.6,209.6,81.2,209.4,80.9z"/>
	<path fill="#FFFFFF" d="M53.8,98.8h-3.9c0,0.6,0.2,1.1,0.4,1.4s0.6,0.5,1.2,0.5s1.1-0.2,1.8-0.5c0.2,0.2,0.4,0.5,0.4,0.8
		c-0.7,0.5-1.5,0.7-2.4,0.7s-1.6-0.3-2-0.9c-0.4-0.6-0.6-1.4-0.6-2.4s0.2-1.8,0.7-2.4c0.5-0.6,1.1-0.9,1.9-0.9
		c0.8,0,1.5,0.3,1.9,0.8c0.5,0.5,0.7,1.2,0.7,2C53.9,98.1,53.9,98.5,53.8,98.8z M52.3,96.5c-0.2-0.3-0.6-0.5-1-0.5
		c-0.4,0-0.8,0.2-1,0.5c-0.2,0.3-0.4,0.8-0.4,1.4h2.7v-0.2C52.7,97.2,52.6,96.8,52.3,96.5z"/>
	<path fill="#FFFFFF" d="M60.7,97.2v3.1c0,0.5,0.1,0.9,0.2,1.2c-0.2,0.2-0.5,0.3-0.8,0.3c-0.5,0-0.7-0.3-0.7-0.8v-3.4
		c0-0.5-0.1-0.8-0.2-1c-0.1-0.2-0.3-0.3-0.6-0.3s-0.6,0.1-0.9,0.2c-0.3,0.2-0.6,0.4-0.8,0.6v4.5c-0.1,0-0.4,0.1-0.6,0.1
		s-0.5,0-0.6-0.1v-6.4l0.1-0.1h0.5c0.4,0,0.7,0.3,0.7,0.8c0.7-0.6,1.3-0.9,2.1-0.9c0.6,0,1,0.2,1.3,0.6
		C60.5,96.1,60.7,96.6,60.7,97.2z"/>
	<path fill="#FFFFFF" d="M64.4,101.7c-0.7,0-1.2-0.3-1.6-0.9s-0.6-1.4-0.6-2.5c0-1.1,0.2-1.9,0.7-2.5c0.5-0.6,1.1-0.9,1.7-0.9
		s1.3,0.2,1.8,0.7c0.2-0.3,0.5-0.5,0.8-0.6c0.2,0.1,0.4,0.3,0.5,0.7c-0.2,0.2-0.4,0.6-0.4,1.3v3.9c0,1.3-0.2,2.2-0.6,2.7
		c-0.5,0.6-1.2,0.8-2.1,0.8c-0.8,0-1.5-0.1-2.2-0.4c0-0.4,0.1-0.7,0.3-1c0.6,0.3,1.2,0.4,1.8,0.4s1-0.2,1.3-0.5
		c0.2-0.3,0.4-0.8,0.4-1.4V101C65.7,101.5,65.1,101.7,64.4,101.7z M66.3,99.8v-3.2c-0.5-0.4-0.9-0.6-1.3-0.6s-0.8,0.2-1,0.6
		c-0.3,0.4-0.4,1-0.4,1.7c0,0.8,0.1,1.3,0.3,1.7c0.2,0.4,0.5,0.6,0.9,0.6C65.3,100.7,65.8,100.4,66.3,99.8z"/>
	<path fill="#FFFFFF" d="M74.5,101.1c-0.1,0.3-0.3,0.5-0.5,0.6c-0.5-0.1-0.8-0.4-1-0.8c-0.6,0.6-1.3,0.9-1.9,0.9
		c-0.6,0-1.1-0.2-1.5-0.6c-0.3-0.4-0.5-0.8-0.5-1.3c0-0.7,0.2-1.2,0.7-1.6c0.5-0.4,1.1-0.5,1.8-0.5c0.4,0,0.9,0,1.3,0.1v-0.5
		c0-0.8-0.4-1.2-1.1-1.2c-0.6,0-1.3,0.2-2.1,0.5c-0.2-0.2-0.4-0.5-0.4-0.9c0.9-0.4,1.8-0.6,2.7-0.6c0.7,0,1.2,0.2,1.6,0.5
		c0.4,0.4,0.6,0.9,0.6,1.6v2.7C74.1,100.5,74.2,100.8,74.5,101.1z M71.3,100.8c0.6,0,1.1-0.3,1.6-0.8v-1.2c-0.3,0-0.7-0.1-1.2-0.1
		c-0.4,0-0.8,0.1-1,0.3c-0.2,0.2-0.3,0.5-0.3,0.8s0.1,0.6,0.2,0.8C70.7,100.7,71,100.8,71.3,100.8z"/>
	<path fill="#FFFFFF" d="M77.6,96.3v5.1c0,0.7,0,1.3-0.1,1.6s-0.2,0.6-0.3,0.7c-0.3,0.3-0.8,0.6-1.4,0.8c-0.2-0.2-0.3-0.4-0.4-0.8
		c0.4-0.2,0.6-0.4,0.7-0.6c0.1-0.2,0.2-0.6,0.2-1v-5.3c0-0.2,0-0.4-0.1-0.5c-0.1-0.1-0.2-0.1-0.4-0.1h-0.3c0-0.2-0.1-0.3-0.1-0.4
		s0-0.3,0.1-0.5c0.3,0,0.6-0.1,0.9-0.1h0.2c0.3,0,0.5,0.1,0.7,0.3C77.5,95.7,77.6,95.9,77.6,96.3z M76,93.4c0-0.2,0-0.4,0.1-0.6
		c0.2-0.1,0.4-0.2,0.7-0.2c0.3,0,0.5,0.1,0.7,0.2c0.1,0.2,0.1,0.3,0.1,0.6c0,0.2,0,0.4-0.1,0.6c-0.1,0.1-0.4,0.2-0.7,0.2
		c-0.3,0-0.5-0.1-0.7-0.2C76,93.8,76,93.6,76,93.4z"/>
	<path fill="#FFFFFF" d="M84.6,101.1c-0.1,0.3-0.3,0.5-0.5,0.6c-0.5-0.1-0.8-0.4-1-0.8c-0.6,0.6-1.3,0.9-1.9,0.9
		c-0.6,0-1.1-0.2-1.5-0.6c-0.3-0.4-0.5-0.8-0.5-1.3c0-0.7,0.2-1.2,0.7-1.6c0.5-0.4,1.1-0.5,1.8-0.5c0.4,0,0.9,0,1.3,0.1v-0.5
		c0-0.8-0.4-1.2-1.1-1.2c-0.6,0-1.3,0.2-2.1,0.5c-0.2-0.2-0.4-0.5-0.4-0.9c0.9-0.4,1.8-0.6,2.7-0.6c0.7,0,1.2,0.2,1.6,0.5
		c0.4,0.4,0.6,0.9,0.6,1.6v2.7C84.2,100.5,84.4,100.8,84.6,101.1z M81.4,100.8c0.6,0,1.1-0.3,1.6-0.8v-1.2c-0.3,0-0.7-0.1-1.2-0.1
		c-0.4,0-0.8,0.1-1,0.3c-0.2,0.2-0.3,0.5-0.3,0.8s0.1,0.6,0.2,0.8C80.9,100.7,81.1,100.8,81.4,100.8z"/>
	<path fill="#FFFFFF" d="M91.3,97.2v3.1c0,0.5,0.1,0.9,0.2,1.2c-0.2,0.2-0.5,0.3-0.8,0.3c-0.5,0-0.7-0.3-0.7-0.8v-3.4
		c0-0.5-0.1-0.8-0.2-1c-0.1-0.2-0.3-0.3-0.6-0.3s-0.6,0.1-0.9,0.2c-0.3,0.2-0.6,0.4-0.8,0.6v4.5c-0.1,0-0.4,0.1-0.6,0.1
		s-0.5,0-0.6-0.1v-6.4l0.1-0.1h0.5c0.4,0,0.7,0.3,0.7,0.8c0.7-0.6,1.3-0.9,2.1-0.9c0.6,0,1,0.2,1.3,0.6
		C91.2,96.1,91.3,96.6,91.3,97.2z"/>
	<path fill="#FFFFFF" d="M95.2,101.8c-0.7,0-1.3-0.3-1.7-0.9c-0.4-0.6-0.6-1.4-0.6-2.5s0.2-1.9,0.7-2.4c0.5-0.6,1.1-0.9,1.7-0.9
		c0.5,0,1,0.1,1.5,0.4v-3.4l0.1-0.1h0.5c0.3,0,0.4,0.1,0.5,0.2c0.1,0.1,0.1,0.3,0.1,0.6v6.9c0,0.6,0.1,1,0.4,1.3
		c-0.1,0.3-0.3,0.5-0.5,0.6c-0.5-0.1-0.8-0.4-1-0.8C96.5,101.5,95.9,101.8,95.2,101.8z M95.4,100.7c0.6,0,1.1-0.3,1.5-0.9v-3.3
		c-0.5-0.3-0.9-0.5-1.3-0.5c-0.4,0-0.7,0.2-1,0.6c-0.3,0.4-0.4,1-0.4,1.7c0,0.8,0.1,1.3,0.3,1.7C94.8,100.5,95.1,100.7,95.4,100.7z"
		/>
	<path fill="#FFFFFF" d="M104.5,95.7c0.6,0.6,0.9,1.5,0.9,2.7c0,1.2-0.3,2-0.9,2.7c-0.5,0.5-1.1,0.7-1.9,0.7s-1.4-0.2-1.9-0.7
		c-0.6-0.6-0.9-1.5-0.9-2.7c0-1.2,0.3-2,0.9-2.7c0.5-0.5,1.1-0.7,1.9-0.7S104,95.3,104.5,95.7z M101.1,98.4c0,1.6,0.5,2.4,1.5,2.4
		s1.5-0.8,1.5-2.4c0-0.5,0-0.8-0.1-1.2s-0.2-0.6-0.5-0.9c-0.2-0.2-0.5-0.4-0.9-0.4s-0.7,0.1-0.9,0.4c-0.2,0.2-0.4,0.5-0.5,0.9
		S101.1,98,101.1,98.4z"/>
	<path fill="#FFFFFF" d="M109.2,101.1c0-0.1,0.1-0.3,0.1-0.5c0.1-0.2,0.2-0.3,0.3-0.4c0.7,0.4,1.3,0.6,1.7,0.6s0.8-0.1,1-0.2
		s0.3-0.4,0.3-0.6c0-0.4-0.3-0.7-0.8-0.9l-0.7-0.3c-1.1-0.4-1.7-1-1.7-1.8c0-0.6,0.2-1,0.6-1.4c0.4-0.3,1-0.5,1.7-0.5s1.4,0.2,2,0.5
		c0,0.2,0,0.3-0.1,0.5c-0.1,0.2-0.2,0.3-0.3,0.4c-0.6-0.3-1.2-0.4-1.7-0.4c-0.3,0-0.5,0.1-0.7,0.2c-0.2,0.1-0.3,0.3-0.3,0.5
		s0.1,0.4,0.2,0.5c0.1,0.1,0.3,0.2,0.6,0.4l0.8,0.3c1.1,0.4,1.6,1.1,1.6,2c0,0.6-0.2,1-0.7,1.4s-1.1,0.5-1.8,0.5
		S110,101.6,109.2,101.1z"/>
	<path fill="#FFFFFF" d="M115.5,99.6v-3.1c0-0.5-0.1-0.9-0.2-1.2c0.2-0.2,0.4-0.3,0.7-0.3s0.5,0.1,0.6,0.2c0.1,0.1,0.1,0.3,0.1,0.6
		v3.4c0,0.5,0.1,0.8,0.2,1c0.1,0.2,0.3,0.3,0.6,0.3c0.3,0,0.6-0.1,0.9-0.2c0.3-0.2,0.6-0.4,0.8-0.6v-4.5c0.2,0,0.4-0.1,0.6-0.1
		s0.4,0,0.6,0.1v4.6c0,0.6,0.1,1,0.4,1.3c-0.1,0.3-0.2,0.5-0.5,0.6c-0.5-0.1-0.9-0.4-1-0.9c-0.7,0.7-1.4,1-2.2,1
		c-0.6,0-1-0.2-1.3-0.6C115.6,100.8,115.5,100.2,115.5,99.6z"/>
	<path fill="#FFFFFF" d="M127.6,101.1c-0.1,0.3-0.3,0.5-0.5,0.6c-0.5-0.1-0.8-0.4-1-0.8c-0.6,0.6-1.3,0.9-1.9,0.9
		c-0.6,0-1.1-0.2-1.5-0.6c-0.3-0.4-0.5-0.8-0.5-1.3c0-0.7,0.2-1.2,0.7-1.6c0.5-0.4,1.1-0.5,1.8-0.5c0.4,0,0.9,0,1.3,0.1v-0.5
		c0-0.8-0.4-1.2-1.1-1.2c-0.6,0-1.3,0.2-2.1,0.5c-0.2-0.2-0.4-0.5-0.4-0.9c0.9-0.4,1.8-0.6,2.7-0.6c0.7,0,1.2,0.2,1.6,0.5
		c0.4,0.4,0.6,0.9,0.6,1.6v2.7C127.2,100.5,127.3,100.8,127.6,101.1z M124.4,100.8c0.6,0,1.1-0.3,1.6-0.8v-1.2
		c-0.3,0-0.7-0.1-1.2-0.1c-0.4,0-0.8,0.1-1,0.3c-0.2,0.2-0.3,0.5-0.3,0.8s0.1,0.6,0.2,0.8C123.9,100.7,124.1,100.8,124.4,100.8z"/>
	<path fill="#FFFFFF" d="M136.8,98.8H133c0,0.6,0.2,1.1,0.4,1.4s0.6,0.5,1.2,0.5s1.1-0.2,1.8-0.5c0.2,0.2,0.4,0.5,0.4,0.8
		c-0.7,0.5-1.5,0.7-2.4,0.7s-1.6-0.3-2-0.9c-0.4-0.6-0.6-1.4-0.6-2.4s0.2-1.8,0.7-2.4c0.5-0.6,1.1-0.9,1.9-0.9
		c0.8,0,1.5,0.3,1.9,0.8c0.5,0.5,0.7,1.2,0.7,2C136.9,98.1,136.9,98.5,136.8,98.8z M135.4,96.5c-0.2-0.3-0.6-0.5-1-0.5
		c-0.4,0-0.8,0.2-1,0.5c-0.2,0.3-0.4,0.8-0.4,1.4h2.7v-0.2C135.7,97.2,135.6,96.8,135.4,96.5z"/>
	<path fill="#FFFFFF" d="M142.2,103.6V101c-0.5,0.5-1.1,0.7-1.8,0.7s-1.2-0.3-1.6-0.9s-0.6-1.4-0.6-2.5c0-1.1,0.2-1.9,0.7-2.5
		c0.5-0.6,1.1-0.9,1.7-0.9s1.3,0.2,1.8,0.7c0.2-0.3,0.5-0.5,0.8-0.6c0.2,0.1,0.4,0.3,0.5,0.7c-0.2,0.2-0.4,0.6-0.4,1.3v7.3l-0.1,0.1
		h-0.5c-0.3,0-0.4-0.1-0.5-0.2C142.2,104.1,142.2,103.9,142.2,103.6z M140.7,100.7c0.6,0,1.1-0.3,1.5-0.8v-3.2
		c-0.5-0.4-0.9-0.6-1.3-0.6c-0.4,0-0.8,0.2-1,0.6c-0.3,0.4-0.4,1-0.4,1.7c0,0.8,0.1,1.3,0.3,1.7C140,100.5,140.3,100.7,140.7,100.7z
		"/>
	<path fill="#FFFFFF" d="M145.4,99.6v-3.1c0-0.5-0.1-0.9-0.2-1.2c0.2-0.2,0.4-0.3,0.7-0.3s0.5,0.1,0.6,0.2c0.1,0.1,0.1,0.3,0.1,0.6
		v3.4c0,0.5,0.1,0.8,0.2,1c0.1,0.2,0.3,0.3,0.6,0.3c0.3,0,0.6-0.1,0.9-0.2c0.3-0.2,0.6-0.4,0.8-0.6v-4.5c0.2,0,0.4-0.1,0.6-0.1
		s0.4,0,0.6,0.1v4.6c0,0.6,0.1,1,0.4,1.3c-0.1,0.3-0.2,0.5-0.5,0.6c-0.5-0.1-0.9-0.4-1-0.9c-0.7,0.7-1.4,1-2.2,1
		c-0.6,0-1-0.2-1.3-0.6C145.6,100.8,145.4,100.2,145.4,99.6z"/>
	<path fill="#FFFFFF" d="M154,96.3v5.3c-0.1,0-0.4,0.1-0.6,0.1s-0.5,0-0.6-0.1v-4.8c0-0.2,0-0.4-0.1-0.5c-0.1-0.1-0.2-0.2-0.4-0.2
		H152c0-0.1-0.1-0.3-0.1-0.4c0-0.2,0-0.3,0.1-0.5c0.3,0,0.5-0.1,0.8-0.1h0.2c0.3,0,0.6,0.1,0.7,0.3C153.9,95.7,154,95.9,154,96.3z
		 M152.3,93.4c0-0.2,0-0.4,0.1-0.6c0.2-0.1,0.4-0.2,0.7-0.2s0.5,0.1,0.7,0.2c0.1,0.2,0.1,0.3,0.1,0.6c0,0.2,0,0.4-0.1,0.6
		c-0.1,0.1-0.4,0.2-0.7,0.2c-0.3,0-0.5-0.1-0.7-0.2C152.3,93.8,152.3,93.6,152.3,93.4z"/>
	<path fill="#FFFFFF" d="M159.1,95c0.7,0,1.3,0.3,1.6,0.9c0.4,0.6,0.6,1.4,0.6,2.5s-0.2,1.9-0.7,2.5c-0.5,0.6-1.1,0.9-1.7,0.9
		c-0.5,0-1-0.2-1.5-0.5v2.3c0,0.3,0,0.5-0.1,0.6s-0.3,0.2-0.5,0.2h-0.5l-0.1-0.1v-9.1l0.1-0.1h0.4c0.4,0,0.7,0.2,0.7,0.7
		C157.7,95.3,158.3,95,159.1,95z M158.8,96.1c-0.6,0-1.1,0.3-1.5,0.9v3.2c0.5,0.3,0.9,0.5,1.3,0.5s0.8-0.2,1-0.6
		c0.3-0.4,0.4-1,0.4-1.7s-0.1-1.3-0.3-1.7C159.4,96.3,159.1,96.1,158.8,96.1z"/>
	<path fill="#FFFFFF" d="M167.6,98.8h-3.9c0,0.6,0.2,1.1,0.4,1.4s0.6,0.5,1.2,0.5s1.1-0.2,1.8-0.5c0.2,0.2,0.4,0.5,0.4,0.8
		c-0.7,0.5-1.5,0.7-2.4,0.7s-1.6-0.3-2-0.9c-0.4-0.6-0.6-1.4-0.6-2.4s0.2-1.8,0.7-2.4c0.5-0.6,1.1-0.9,1.9-0.9
		c0.8,0,1.5,0.3,1.9,0.8c0.5,0.5,0.7,1.2,0.7,2C167.7,98.1,167.7,98.5,167.6,98.8z M166.2,96.5c-0.2-0.3-0.6-0.5-1-0.5
		c-0.4,0-0.8,0.2-1,0.5c-0.2,0.3-0.4,0.8-0.4,1.4h2.7v-0.2C166.5,97.2,166.4,96.8,166.2,96.5z"/>
	<path fill="#FFFFFF" d="M177,98.8h-3.9c0,0.6,0.2,1.1,0.4,1.4s0.6,0.5,1.2,0.5s1.1-0.2,1.8-0.5c0.2,0.2,0.4,0.5,0.4,0.8
		c-0.7,0.5-1.5,0.7-2.4,0.7s-1.6-0.3-2-0.9c-0.4-0.6-0.6-1.4-0.6-2.4s0.2-1.8,0.7-2.4c0.5-0.6,1.1-0.9,1.9-0.9
		c0.8,0,1.5,0.3,1.9,0.8c0.5,0.5,0.7,1.2,0.7,2C177.1,98.1,177,98.5,177,98.8z M175.5,96.5c-0.2-0.3-0.6-0.5-1-0.5
		c-0.4,0-0.8,0.2-1,0.5c-0.2,0.3-0.4,0.8-0.4,1.4h2.7v-0.2C175.9,97.2,175.7,96.8,175.5,96.5z"/>
	<path fill="#FFFFFF" d="M182.3,97.5c0-0.5-0.1-0.8-0.2-1s-0.3-0.3-0.6-0.3c-0.5,0-1,0.3-1.5,0.8v4.5c-0.1,0-0.4,0.1-0.6,0.1
		s-0.5,0-0.6-0.1v-6.4l0.1-0.1h0.5c0.4,0,0.7,0.3,0.7,0.8c0.6-0.6,1.2-0.9,1.9-0.9s1.2,0.3,1.4,1c0.7-0.6,1.4-1,2.1-1
		c0.5,0,0.9,0.2,1.2,0.6c0.3,0.4,0.4,0.9,0.4,1.5v3.2c0,0.5,0.1,0.9,0.2,1.2c-0.2,0.2-0.5,0.3-0.8,0.3c-0.4,0-0.7-0.3-0.7-0.8v-3.4
		c0-0.5-0.1-0.8-0.2-1c-0.1-0.2-0.3-0.3-0.6-0.3c-0.5,0-1,0.3-1.5,0.8v4.5c-0.1,0-0.4,0.1-0.6,0.1s-0.5,0-0.6-0.1V97.5z"/>
	<path fill="#FFFFFF" d="M193.8,101.8c-0.7,0-1.3-0.3-1.7-0.9c-0.4-0.6-0.6-1.4-0.6-2.5s0.2-1.9,0.7-2.4c0.5-0.6,1.1-0.9,1.7-0.9
		c0.5,0,1,0.1,1.5,0.4v-3.4l0.1-0.1h0.5c0.3,0,0.4,0.1,0.5,0.2c0.1,0.1,0.1,0.3,0.1,0.6v6.9c0,0.6,0.1,1,0.4,1.3
		c-0.1,0.3-0.3,0.5-0.5,0.6c-0.5-0.1-0.8-0.4-1-0.8C195.1,101.5,194.5,101.8,193.8,101.8z M194,100.7c0.6,0,1.1-0.3,1.5-0.9v-3.3
		c-0.5-0.3-0.9-0.5-1.3-0.5c-0.4,0-0.7,0.2-1,0.6c-0.3,0.4-0.4,1-0.4,1.7c0,0.8,0.1,1.3,0.3,1.7C193.4,100.5,193.7,100.7,194,100.7z
		"/>
	<path fill="#FFFFFF" d="M200.2,96.3v5.3c-0.1,0-0.4,0.1-0.6,0.1s-0.5,0-0.6-0.1v-4.8c0-0.2,0-0.4-0.1-0.5c-0.1-0.1-0.2-0.2-0.4-0.2
		h-0.1c0-0.1-0.1-0.3-0.1-0.4c0-0.2,0-0.3,0.1-0.5c0.3,0,0.5-0.1,0.8-0.1h0.2c0.3,0,0.6,0.1,0.7,0.3
		C200.1,95.7,200.2,95.9,200.2,96.3z M198.6,93.4c0-0.2,0-0.4,0.1-0.6c0.2-0.1,0.4-0.2,0.7-0.2s0.5,0.1,0.7,0.2
		c0.1,0.2,0.1,0.3,0.1,0.6c0,0.2,0,0.4-0.1,0.6c-0.1,0.1-0.4,0.2-0.7,0.2c-0.3,0-0.5-0.1-0.7-0.2C198.6,93.8,198.6,93.6,198.6,93.4z
		"/>
	<path fill="#FFFFFF" d="M201.9,95.8c0.1-0.3,0.2-0.5,0.5-0.7c0.6,0.1,0.9,0.5,1.1,1.2c0.4-0.8,0.9-1.2,1.7-1.2c0.2,0,0.4,0,0.7,0.1
		c0,0.5-0.1,0.9-0.3,1.2c-0.1,0-0.2,0-0.5-0.1c-0.6,0-1.1,0.3-1.4,1v4.3c-0.1,0-0.4,0.1-0.6,0.1c-0.3,0-0.5,0-0.6-0.1v-4.5
		C202.4,96.5,202.3,96.1,201.9,95.8z"/>
	<path fill="#FFFFFF" d="M211.8,98.8h-3.9c0,0.6,0.2,1.1,0.4,1.4s0.6,0.5,1.2,0.5s1.1-0.2,1.8-0.5c0.2,0.2,0.4,0.5,0.4,0.8
		c-0.7,0.5-1.5,0.7-2.4,0.7s-1.6-0.3-2-0.9c-0.4-0.6-0.6-1.4-0.6-2.4s0.2-1.8,0.7-2.4c0.5-0.6,1.1-0.9,1.9-0.9
		c0.8,0,1.5,0.3,1.9,0.8c0.5,0.5,0.7,1.2,0.7,2C211.8,98.1,211.8,98.5,211.8,98.8z M210.3,96.5c-0.2-0.3-0.6-0.5-1-0.5
		c-0.4,0-0.8,0.2-1,0.5c-0.2,0.3-0.4,0.8-0.4,1.4h2.7v-0.2C210.6,97.2,210.5,96.8,210.3,96.5z"/>
	<path fill="#FFFFFF" d="M215.1,102.6c0.1-0.2,0.1-0.5,0.3-0.8c-0.7-0.1-1.3-0.5-1.7-1.1s-0.6-1.4-0.6-2.2c0-1.1,0.3-2,0.8-2.6
		c0.5-0.6,1.2-0.9,1.9-0.9c0.7,0,1.3,0.2,1.7,0.6c0.4,0.4,0.6,0.8,0.6,1.3s-0.2,0.7-0.7,0.7c-0.2,0-0.4,0-0.5-0.1c0,0,0-0.1,0-0.1
		c0-1-0.4-1.5-1.2-1.5c-0.4,0-0.8,0.2-1,0.6c-0.2,0.4-0.4,1-0.4,1.8c0,1.5,0.5,2.3,1.5,2.3c0.5,0,1-0.2,1.6-0.7
		c0.1,0.1,0.2,0.2,0.3,0.3c0.1,0.1,0.2,0.3,0.2,0.4c-0.5,0.5-1.2,0.8-1.9,0.9c-0.1,0.2-0.1,0.3-0.1,0.3c0.4,0,0.6,0.1,0.9,0.4
		s0.3,0.5,0.3,0.8s-0.1,0.6-0.4,0.9c-0.3,0.2-0.6,0.4-1.1,0.4c-0.4,0-0.8-0.1-1-0.2c0-0.2,0.1-0.5,0.3-0.7c0.2,0.1,0.4,0.2,0.6,0.2
		s0.4,0,0.5-0.1c0.1-0.1,0.1-0.2,0.1-0.4s0-0.3-0.1-0.4c-0.1-0.1-0.2-0.1-0.4-0.1c-0.1,0-0.3,0-0.4,0.1
		C215.2,102.8,215.1,102.7,215.1,102.6z"/>
	<path fill="#FFFFFF" d="M224.6,101.1c-0.1,0.3-0.3,0.5-0.5,0.6c-0.5-0.1-0.8-0.4-1-0.8c-0.6,0.6-1.3,0.9-1.9,0.9
		c-0.6,0-1.1-0.2-1.5-0.6c-0.3-0.4-0.5-0.8-0.5-1.3c0-0.7,0.2-1.2,0.7-1.6c0.5-0.4,1.1-0.5,1.8-0.5c0.4,0,0.9,0,1.3,0.1v-0.5
		c0-0.8-0.4-1.2-1.1-1.2c-0.6,0-1.3,0.2-2.1,0.5c-0.2-0.2-0.4-0.5-0.4-0.9c0.9-0.4,1.8-0.6,2.7-0.6c0.7,0,1.2,0.2,1.6,0.5
		c0.4,0.4,0.6,0.9,0.6,1.6v2.7C224.2,100.5,224.3,100.8,224.6,101.1z M222,94.2l-0.7-0.4c-0.2-0.1-0.3-0.1-0.5-0.1s-0.3,0.1-0.5,0.3
		l-0.1,0.2c-0.1,0-0.3,0-0.4-0.1c-0.1-0.1-0.2-0.2-0.2-0.3l0.1-0.3c0.1-0.3,0.3-0.5,0.5-0.7c0.2-0.2,0.5-0.3,0.7-0.3
		c0.2,0,0.5,0.1,0.8,0.2l0.7,0.4c0.1,0.1,0.3,0.1,0.4,0.1c0.2,0,0.3-0.1,0.5-0.3l0.1-0.2c0.1,0,0.3,0.1,0.4,0.1
		c0.1,0.1,0.2,0.2,0.2,0.3l-0.1,0.2c-0.1,0.3-0.3,0.5-0.5,0.7c-0.2,0.2-0.5,0.2-0.7,0.2S222.2,94.3,222,94.2z M221.4,100.8
		c0.6,0,1.1-0.3,1.6-0.8v-1.2c-0.3,0-0.7-0.1-1.2-0.1c-0.4,0-0.8,0.1-1,0.3c-0.2,0.2-0.3,0.5-0.3,0.8s0.1,0.6,0.2,0.8
		C220.9,100.7,221.1,100.8,221.4,100.8z"/>
	<path fill="#FFFFFF" d="M230.5,95.7c0.6,0.6,0.9,1.5,0.9,2.7c0,1.2-0.3,2-0.9,2.7c-0.5,0.5-1.1,0.7-1.9,0.7s-1.4-0.2-1.9-0.7
		c-0.6-0.6-0.9-1.5-0.9-2.7c0-1.2,0.3-2,0.9-2.7c0.5-0.5,1.1-0.7,1.9-0.7S230,95.3,230.5,95.7z M227.1,98.4c0,1.6,0.5,2.4,1.5,2.4
		s1.5-0.8,1.5-2.4c0-0.5,0-0.8-0.1-1.2s-0.2-0.6-0.5-0.9c-0.2-0.2-0.5-0.4-0.9-0.4s-0.7,0.1-0.9,0.4c-0.2,0.2-0.4,0.5-0.5,0.9
		S227.1,98,227.1,98.4z"/>
	<path fill="#FFFFFF" d="M54,116.7c-0.1,0.3-0.3,0.5-0.5,0.6c-0.5-0.1-0.8-0.4-1-0.8c-0.6,0.6-1.3,0.9-1.9,0.9
		c-0.6,0-1.1-0.2-1.5-0.6c-0.3-0.4-0.5-0.8-0.5-1.3c0-0.7,0.2-1.2,0.7-1.6c0.5-0.4,1.1-0.5,1.8-0.5c0.4,0,0.9,0,1.3,0.1v-0.5
		c0-0.8-0.4-1.2-1.1-1.2c-0.6,0-1.3,0.2-2.1,0.5c-0.2-0.2-0.4-0.5-0.4-0.9c0.9-0.4,1.8-0.6,2.7-0.6c0.7,0,1.2,0.2,1.6,0.5
		c0.4,0.4,0.6,0.9,0.6,1.6v2.7C53.6,116.1,53.8,116.4,54,116.7z M50.8,116.4c0.6,0,1.1-0.3,1.6-0.8v-1.2c-0.3,0-0.7-0.1-1.2-0.1
		c-0.4,0-0.8,0.1-1,0.3c-0.2,0.2-0.3,0.5-0.3,0.8s0.1,0.6,0.2,0.8C50.3,116.3,50.5,116.4,50.8,116.4z"/>
	<path fill="#FFFFFF" d="M59.9,111.3c0.6,0.6,0.9,1.5,0.9,2.7c0,1.2-0.3,2-0.9,2.7c-0.5,0.5-1.1,0.7-1.9,0.7s-1.4-0.2-1.9-0.7
		c-0.6-0.6-0.9-1.5-0.9-2.7c0-1.2,0.3-2,0.9-2.7c0.5-0.5,1.1-0.7,1.9-0.7S59.4,110.9,59.9,111.3z M56.5,114c0,1.6,0.5,2.4,1.5,2.4
		s1.5-0.8,1.5-2.4c0-0.5,0-0.8-0.1-1.2s-0.2-0.6-0.5-0.9c-0.2-0.2-0.5-0.4-0.9-0.4s-0.7,0.1-0.9,0.4c-0.2,0.2-0.4,0.5-0.5,0.9
		S56.5,113.6,56.5,114z"/>
	<path fill="#FFFFFF" d="M69.7,111.3c0.6,0.6,0.9,1.5,0.9,2.7c0,1.2-0.3,2-0.9,2.7c-0.5,0.5-1.2,0.8-2,0.8c-0.8,0-1.5-0.3-2-0.8
		c-0.6-0.6-0.9-1.5-0.9-2.7c0-1.2,0.3-2,0.9-2.7c0.5-0.5,1.2-0.8,2-0.8C68.5,110.5,69.2,110.8,69.7,111.3z M66.8,112.5
		c-0.1,0.3-0.2,0.8-0.2,1.5c0,0.6,0.1,1.1,0.2,1.5s0.4,0.5,0.8,0.5c0.4,0,0.7-0.2,0.8-0.5c0.1-0.3,0.2-0.8,0.2-1.5
		c0-0.6-0.1-1.1-0.2-1.5c-0.1-0.3-0.4-0.5-0.8-0.5C67.2,112,67,112.2,66.8,112.5z"/>
	<path fill="#FFFFFF" d="M77,111.5c0.4,0.6,0.6,1.4,0.6,2.4s-0.3,1.8-0.9,2.5s-1.3,0.9-2.3,0.9c-1,0-1.8-0.1-2.6-0.4v-9.2l0.1-0.1
		h0.7c0.4,0,0.7,0.1,0.8,0.3c0.2,0.2,0.2,0.5,0.2,0.9v2.3c0.5-0.3,1-0.5,1.5-0.5C76,110.6,76.6,110.9,77,111.5z M74.7,112.2
		c-0.4,0-0.7,0.2-1,0.5v3.3c0.2,0,0.5,0.1,0.7,0.1c0.8,0,1.2-0.7,1.2-2C75.6,112.8,75.3,112.2,74.7,112.2z"/>
	<path fill="#FFFFFF" d="M81.1,112.2v4.7c0,1-0.2,1.7-0.5,2.2s-1,0.8-1.9,1c-0.1-0.1-0.3-0.3-0.4-0.5c-0.1-0.2-0.2-0.5-0.2-0.7
		c0.4-0.2,0.7-0.4,0.8-0.6c0.1-0.2,0.2-0.6,0.2-1v-4.5c0-0.5-0.2-0.7-0.6-0.7h-0.3c-0.1-0.2-0.1-0.4-0.1-0.7c0-0.2,0-0.5,0.1-0.7
		c0.5,0,0.9-0.1,1.2-0.1h0.3c0.4,0,0.8,0.1,1,0.4S81.1,111.7,81.1,112.2z M78.7,108.9c0-0.3,0-0.5,0.1-0.7c0.2-0.1,0.6-0.2,1-0.2
		s0.7,0.1,0.9,0.2c0.1,0.2,0.1,0.5,0.1,0.7c0,0.3,0,0.5-0.1,0.7c-0.2,0.1-0.5,0.2-0.9,0.2s-0.7-0.1-0.9-0.2
		C78.8,109.4,78.7,109.1,78.7,108.9z"/>
	<path fill="#FFFFFF" d="M87.7,114.6h-3.4c0,0.4,0.1,0.7,0.3,1c0.2,0.2,0.5,0.3,1,0.3c0.5,0,1-0.1,1.6-0.4c0.3,0.3,0.4,0.6,0.5,1.2
		c-0.7,0.5-1.6,0.7-2.5,0.7c-0.5,0-1-0.1-1.4-0.3c-0.4-0.2-0.7-0.4-0.9-0.8c-0.4-0.6-0.6-1.4-0.6-2.4s0.2-1.8,0.7-2.4
		s1.2-0.9,2.1-0.9s1.6,0.3,2.1,0.8s0.7,1.2,0.7,2C87.9,113.7,87.8,114.2,87.7,114.6z M85.9,112.3c-0.1-0.2-0.4-0.3-0.7-0.3
		c-0.3,0-0.5,0.1-0.7,0.3c-0.1,0.2-0.2,0.6-0.3,1h1.8v-0.2C86.1,112.8,86,112.5,85.9,112.3z"/>
	<path fill="#FFFFFF" d="M92.9,110.7c0.1,0.2,0.1,0.5,0.1,0.7s0,0.5-0.1,0.7l-1.6,0v3.1c0,0.4,0.2,0.6,0.6,0.6h0.8
		c0.1,0.3,0.2,0.6,0.2,0.8c0,0.2,0,0.4-0.1,0.5c-0.6,0.1-1.2,0.1-1.7,0.1c-1.1,0-1.6-0.6-1.6-1.7v-3.4l-1,0
		c-0.1-0.2-0.1-0.4-0.1-0.7s0-0.5,0.1-0.7l1,0v-0.8c0-0.4,0.1-0.7,0.2-0.9c0.2-0.2,0.4-0.3,0.8-0.3h0.8l0.1,0.1v1.9L92.9,110.7z"/>
	<path fill="#FFFFFF" d="M96.4,112.2v5c-0.3,0.1-0.6,0.1-0.9,0.1c-0.4,0-0.7,0-1-0.1v-4.4c0-0.5-0.2-0.7-0.6-0.7h-0.2
		c-0.1-0.2-0.1-0.4-0.1-0.7c0-0.2,0-0.5,0.1-0.7c0.4,0,0.8-0.1,1.1-0.1h0.3c0.4,0,0.8,0.1,1,0.4C96.3,111.4,96.4,111.7,96.4,112.2z
		 M94.1,108.9c0-0.3,0-0.5,0.1-0.7c0.2-0.1,0.6-0.2,1-0.2c0.4,0,0.7,0.1,0.9,0.2c0.1,0.2,0.1,0.5,0.1,0.7c0,0.3,0,0.5-0.1,0.7
		c-0.2,0.1-0.5,0.2-0.9,0.2s-0.7-0.1-0.9-0.2C94.2,109.4,94.1,109.1,94.1,108.9z"/>
	<path fill="#FFFFFF" d="M100.4,115.7l1.2-5c0.2,0,0.5-0.1,0.8-0.1s0.6,0,0.9,0.1l0.1,0.1c-0.8,3-1.5,5.1-1.8,6.3
		c-0.4,0.1-0.9,0.1-1.3,0.1s-0.8-0.1-1-0.2c-0.2-0.1-0.4-0.4-0.5-0.7l-1.6-5.5c0.4-0.2,0.8-0.3,1.1-0.3c0.3,0,0.5,0.1,0.7,0.2
		s0.3,0.4,0.4,0.7l0.6,2.5c0.1,0.2,0.1,0.5,0.2,0.9c0.1,0.4,0.1,0.6,0.1,0.7C100.3,115.7,100.3,115.7,100.4,115.7z"/>
	<path fill="#FFFFFF" d="M108.8,111.3c0.6,0.6,0.9,1.5,0.9,2.7c0,1.2-0.3,2-0.9,2.7c-0.5,0.5-1.2,0.8-2,0.8c-0.8,0-1.5-0.3-2-0.8
		c-0.6-0.6-0.9-1.5-0.9-2.7c0-1.2,0.3-2,0.9-2.7c0.5-0.5,1.2-0.8,2-0.8C107.6,110.5,108.3,110.8,108.8,111.3z M105.9,112.5
		c-0.1,0.3-0.2,0.8-0.2,1.5c0,0.6,0.1,1.1,0.2,1.5s0.4,0.5,0.8,0.5c0.4,0,0.7-0.2,0.8-0.5c0.1-0.3,0.2-0.8,0.2-1.5
		c0-0.6-0.1-1.1-0.2-1.5c-0.1-0.3-0.4-0.5-0.8-0.5C106.3,112,106.1,112.2,105.9,112.5z"/>
	<path fill="#FFFFFF" d="M117.5,110.7c0.1,0.2,0.1,0.5,0.1,0.7s0,0.5-0.1,0.7l-1.6,0v3.1c0,0.4,0.2,0.6,0.6,0.6h0.8
		c0.1,0.3,0.2,0.6,0.2,0.8c0,0.2,0,0.4-0.1,0.5c-0.6,0.1-1.2,0.1-1.7,0.1c-1.1,0-1.6-0.6-1.6-1.7v-3.4l-1,0
		c-0.1-0.2-0.1-0.4-0.1-0.7s0-0.5,0.1-0.7l1,0v-0.8c0-0.4,0.1-0.7,0.2-0.9c0.2-0.2,0.4-0.3,0.8-0.3h0.8l0.1,0.1v1.9L117.5,110.7z"/>
	<path fill="#FFFFFF" d="M118.2,111.6c0-0.2,0.1-0.4,0.2-0.6s0.2-0.3,0.4-0.4c0.8,0.1,1.3,0.5,1.6,1.2c0.3-0.8,0.9-1.2,1.6-1.2
		c0.3,0,0.6,0,0.8,0.1c0,0.3,0,0.6-0.1,0.9c-0.1,0.4-0.2,0.7-0.4,0.9c-0.2-0.1-0.4-0.1-0.7-0.1c-0.5,0-0.8,0.2-1.1,0.7v4.1
		c-0.3,0.1-0.6,0.1-0.9,0.1c-0.4,0-0.7,0-1-0.1V113C118.7,112.3,118.6,111.9,118.2,111.6z"/>
	<path fill="#FFFFFF" d="M129.1,116.3c0,0.2-0.1,0.4-0.2,0.6c-0.1,0.2-0.2,0.3-0.4,0.4c-0.6,0-1-0.3-1.4-0.7
		c-0.6,0.5-1.2,0.8-1.8,0.8s-1.2-0.2-1.5-0.6c-0.3-0.4-0.5-0.9-0.5-1.4c0-0.7,0.2-1.3,0.7-1.7c0.5-0.4,1.1-0.6,1.8-0.6
		c0.3,0,0.6,0,1,0v-0.3c0-0.6-0.3-0.9-0.9-0.9c-0.4,0-1,0.1-1.9,0.4c-0.3-0.3-0.4-0.8-0.5-1.4c0.4-0.2,0.9-0.3,1.4-0.4
		c0.6-0.1,1.1-0.2,1.5-0.2c0.7,0,1.2,0.2,1.6,0.5c0.4,0.4,0.7,0.9,0.7,1.7v2.7C128.7,115.9,128.8,116.1,129.1,116.3z M125.7,116
		c0.3,0,0.7-0.1,1-0.4v-1.1c-0.2,0-0.5,0-0.8,0c-0.6,0-0.9,0.3-0.9,0.9c0,0.2,0.1,0.3,0.2,0.5S125.6,116,125.7,116z"/>
	<path fill="#FFFFFF" d="M131.9,118.2c0.1-0.4,0.2-0.6,0.3-0.8c-0.7-0.1-1.3-0.5-1.7-1.1c-0.4-0.6-0.6-1.4-0.6-2.3
		c0-1.2,0.3-2,0.8-2.6s1.2-0.9,2-0.9c0.8,0,1.4,0.2,1.9,0.6c0.5,0.4,0.7,0.9,0.7,1.5c0,0.3-0.1,0.5-0.3,0.7s-0.4,0.2-0.7,0.2
		s-0.6,0-0.8-0.1c0,0,0-0.1,0-0.1c0-0.5-0.1-0.8-0.1-1.1c-0.1-0.2-0.3-0.4-0.6-0.4s-0.6,0.2-0.7,0.5c-0.1,0.3-0.2,0.8-0.2,1.5
		s0.1,1.2,0.3,1.5c0.2,0.3,0.5,0.4,0.9,0.4s0.9-0.2,1.4-0.6c0.2,0.1,0.3,0.2,0.5,0.5c0.1,0.2,0.2,0.4,0.3,0.6
		c-0.5,0.5-1.2,0.9-2.1,1c0,0.1-0.1,0.2-0.1,0.2c0.4,0,0.7,0.1,0.9,0.4c0.2,0.2,0.4,0.5,0.4,0.9c0,0.4-0.2,0.7-0.5,1
		c-0.3,0.3-0.7,0.4-1.2,0.4s-0.9-0.1-1.2-0.3c0-0.3,0.1-0.6,0.3-0.8c0.2,0.1,0.4,0.2,0.6,0.2c0.3,0,0.5-0.1,0.5-0.4
		c0-0.1,0-0.2-0.1-0.3c-0.1-0.1-0.2-0.1-0.3-0.1c-0.1,0-0.2,0-0.3,0.1C132,118.4,132,118.3,131.9,118.2z"/>
	<path fill="#FFFFFF" d="M141.9,116.3c0,0.2-0.1,0.4-0.2,0.6c-0.1,0.2-0.2,0.3-0.4,0.4c-0.6,0-1-0.3-1.4-0.7
		c-0.6,0.5-1.2,0.8-1.8,0.8s-1.2-0.2-1.5-0.6c-0.3-0.4-0.5-0.9-0.5-1.4c0-0.7,0.2-1.3,0.7-1.7c0.5-0.4,1.1-0.6,1.8-0.6
		c0.3,0,0.6,0,1,0v-0.3c0-0.6-0.3-0.9-0.9-0.9c-0.4,0-1,0.1-1.9,0.4c-0.3-0.3-0.4-0.8-0.5-1.4c0.4-0.2,0.9-0.3,1.4-0.4
		c0.6-0.1,1.1-0.2,1.5-0.2c0.7,0,1.2,0.2,1.6,0.5c0.4,0.4,0.7,0.9,0.7,1.7v2.7C141.5,115.9,141.6,116.1,141.9,116.3z M138.6,116
		c0.3,0,0.7-0.1,1-0.4v-1.1c-0.2,0-0.5,0-0.8,0c-0.6,0-0.9,0.3-0.9,0.9c0,0.2,0.1,0.3,0.2,0.5S138.4,116,138.6,116z"/>
	<path fill="#FFFFFF" d="M144.9,117.4c-0.7,0-1.3-0.3-1.7-0.9s-0.6-1.4-0.6-2.5c0-1.1,0.2-1.9,0.7-2.5c0.5-0.6,1.1-0.9,1.9-0.9
		c0.4,0,0.8,0.1,1.2,0.3v-3.2l0.1-0.1h0.8c0.4,0,0.6,0.1,0.8,0.3c0.2,0.2,0.2,0.5,0.2,0.9v6.5c0,0.5,0.1,0.8,0.4,1
		c0,0.2-0.1,0.4-0.2,0.6c-0.1,0.2-0.2,0.3-0.4,0.4c-0.6,0-1.1-0.3-1.4-0.7C146.2,117.1,145.6,117.4,144.9,117.4z M145.4,115.8
		c0.4,0,0.7-0.2,1-0.6v-2.9c-0.4-0.2-0.7-0.3-0.9-0.3c-0.6,0-0.9,0.7-0.9,2c0,0.6,0.1,1,0.2,1.3C145,115.7,145.2,115.8,145.4,115.8z
		"/>
	<path fill="#FFFFFF" d="M154.6,111.3c0.6,0.6,0.9,1.5,0.9,2.7c0,1.2-0.3,2-0.9,2.7c-0.5,0.5-1.2,0.8-2,0.8c-0.8,0-1.5-0.3-2-0.8
		c-0.6-0.6-0.9-1.5-0.9-2.7c0-1.2,0.3-2,0.9-2.7c0.5-0.5,1.2-0.8,2-0.8C153.4,110.5,154.1,110.8,154.6,111.3z M151.8,112.5
		c-0.1,0.3-0.2,0.8-0.2,1.5c0,0.6,0.1,1.1,0.2,1.5s0.4,0.5,0.8,0.5c0.4,0,0.7-0.2,0.8-0.5c0.1-0.3,0.2-0.8,0.2-1.5
		c0-0.6-0.1-1.1-0.2-1.5c-0.1-0.3-0.4-0.5-0.8-0.5C152.2,112,151.9,112.2,151.8,112.5z"/>
	<path fill="#FFFFFF" d="M156.7,116.5c0-0.3,0-0.5,0.1-0.6c0.2-0.1,0.4-0.2,0.8-0.2s0.6,0.1,0.8,0.2c0.1,0.2,0.1,0.4,0.1,0.6
		c0,0.3,0,0.5-0.1,0.6c-0.2,0.1-0.4,0.2-0.7,0.2c-0.3,0-0.6-0.1-0.8-0.2C156.8,117,156.7,116.8,156.7,116.5z"/>
</g>
</svg>