<!-- Generator: Adobe Illustrator 17.1.0, SVG Export Plug-In  -->
<svg version="1.1"
	 xmlns="http://www.w3.org/2000/svg" xmlns:xlink="http://www.w3.org/1999/xlink" xmlns:a="http://ns.adobe.com/AdobeSVGViewerExtensions/3.0/"
	 x="0px" y="0px" width="239.9px" height="286.4px" viewBox="0 0 239.9 286.4" enable-background="new 0 0 239.9 286.4"
	 xml:space="preserve">
<defs>
</defs>
<g>
	<path fill="#FFFFFF" d="M27.8,261.4c-0.2-1.1,0.5-2.1,1.6-2.3l0,0c1.1-0.2,2.1,0.5,2.3,1.6h0c0.2,1.1-0.6,2.1-1.6,2.3l0,0
		c-0.1,0-0.2,0-0.3,0l0,0C28.8,263.1,27.9,262.4,27.8,261.4z M29.4,254.9c-1.1-0.2-1.8-1.2-1.6-2.3l0,0c0.2-1.1,1.2-1.8,2.3-1.6l0,0
		c1.1,0.2,1.8,1.2,1.6,2.3l0,0c-0.2,1-1,1.6-2,1.6l0,0C29.6,254.9,29.5,254.9,29.4,254.9z M31.6,247c-0.9-0.6-1.3-1.8-0.7-2.8l0,0
		c0.6-0.9,1.8-1.3,2.8-0.7l0,0c0.9,0.6,1.3,1.8,0.7,2.7l0,0c-0.4,0.6-1,1-1.7,1l0,0C32.3,247.3,32,247.2,31.6,247z M36.4,240.3
		c-0.8-0.8-0.7-2.1,0.1-2.8l0,0l0,0l0,0c0.8-0.8,2.1-0.7,2.8,0.1l0,0c0.8,0.8,0.7,2.1-0.1,2.8l0,0c-0.4,0.4-0.9,0.6-1.4,0.6l0,0
		C37.3,240.9,36.8,240.7,36.4,240.3z M42.6,235c-0.6-0.9-0.3-2.2,0.6-2.8l0,0c0.9-0.6,2.2-0.4,2.8,0.6l0,0c0.6,0.9,0.4,2.2-0.6,2.8
		l0,0c-0.3,0.2-0.7,0.3-1.1,0.3l0,0C43.6,235.9,43,235.5,42.6,235z M49.6,230.7c-0.5-1-0.1-2.2,0.9-2.7l0,0l0,0l0,0
		c1-0.5,2.2-0.1,2.7,0.9l0,0c0.5,1,0.1,2.2-0.9,2.7l0,0c-0.3,0.1-0.6,0.2-0.9,0.2l0,0C50.7,231.8,50,231.4,49.6,230.7z M57.1,227.3
		c-0.4-1,0.2-2.2,1.2-2.6l0,0c1-0.4,2.2,0.2,2.6,1.2l0,0c0.4,1-0.1,2.2-1.2,2.6l0,0c-0.2,0.1-0.5,0.1-0.7,0.1l0,0
		C58.2,228.6,57.4,228.1,57.1,227.3z M64.9,224.6c-0.3-1.1,0.3-2.2,1.4-2.5l0,0c0,0,0,0,0,0l0,0c1.1-0.3,2.2,0.3,2.5,1.4l0,0
		c0.3,1.1-0.3,2.2-1.4,2.5l0,0c-0.2,0-0.4,0.1-0.5,0.1l0,0C66,226.1,65.2,225.5,64.9,224.6z M72.9,222.6c-0.2-1.1,0.5-2.1,1.6-2.3
		l0,0c1.1-0.2,2.1,0.5,2.4,1.6l0,0c0.2,1.1-0.5,2.1-1.6,2.4l0,0c-0.1,0-0.3,0-0.4,0l0,0C73.9,224.2,73.1,223.5,72.9,222.6z
		 M81,221.1c-0.1-1.1,0.7-2.1,1.8-2.2l0,0c1.1-0.1,2.1,0.7,2.2,1.8l0,0c0.1,1.1-0.6,2.1-1.8,2.2l0,0c-0.1,0-0.2,0-0.2,0l0,0
		C82,222.9,81.1,222.1,81,221.1z M89.2,220.4c0-1.1,0.9-2,2-2l0,0c1.1,0,2,0.9,2,2l0,0c0,1.1-0.9,2-2,2l0,0h0l0,0
		C90.1,222.4,89.2,221.5,89.2,220.4z"/>
</g>
<path fill="#27A66A" stroke="#FFFFFF" stroke-width="2" stroke-miterlimit="10" d="M123.4,228c-61.6,0-111.5-49.9-111.5-111.5
	S61.8,5,123.4,5C185,5,234.9,54.9,234.9,116.5S185,228,123.4,228"/>
<circle fill="none" stroke="#FFFFFF" stroke-width="9" stroke-miterlimit="10" cx="123.4" cy="116.5" r="112"/>
<g>
	<path fill="#043A63" d="M42.9,64.7c0.6,0.5,0.9,1.3,0.9,2.4s-0.3,1.8-0.9,2.4c-0.6,0.6-1.4,0.8-2.4,0.8h-1.3v3.2
		c-0.2,0-0.5,0.1-0.9,0.1c-0.4,0-0.7,0-0.9-0.1V64l0.1-0.1c1.5,0,2.5-0.1,3-0.1C41.5,63.8,42.3,64.1,42.9,64.7z M39.1,65.2v3.7
		c0.6,0,1,0,1.2,0c0.6,0,1-0.2,1.2-0.5s0.3-0.8,0.3-1.3c0-0.5-0.1-0.9-0.3-1.3c-0.2-0.4-0.6-0.5-1.2-0.5
		C39.8,65.2,39.4,65.2,39.1,65.2z"/>
	<path fill="#043A63" d="M50.4,72.7c0,0.2-0.1,0.3-0.2,0.5c-0.1,0.2-0.2,0.3-0.4,0.4c-0.6-0.1-1-0.3-1.3-0.8c-0.6,0.6-1.3,0.9-2,0.9
		s-1.3-0.2-1.6-0.6s-0.5-0.9-0.5-1.5c0-0.8,0.3-1.4,0.8-1.8s1.2-0.6,2-0.6c0.4,0,0.8,0,1.2,0.1v-0.4c0-0.7-0.4-1.1-1.1-1.1
		c-0.5,0-1.2,0.2-2.1,0.5c-0.3-0.3-0.4-0.7-0.5-1.2c1-0.4,2-0.6,3-0.6c0.7,0,1.3,0.2,1.7,0.6c0.4,0.4,0.7,1,0.7,1.8v2.9
		C50,72.1,50.1,72.5,50.4,72.7z M46.9,72.3c0.5,0,1-0.2,1.4-0.7v-1.2c-0.3,0-0.7-0.1-1.1-0.1c-0.4,0-0.7,0.1-0.9,0.3
		c-0.2,0.2-0.3,0.4-0.3,0.7c0,0.3,0.1,0.5,0.2,0.7S46.6,72.3,46.9,72.3z"/>
	<path fill="#043A63" d="M51.1,73c0-0.2,0.1-0.4,0.2-0.6c0.1-0.2,0.2-0.4,0.4-0.6c0.7,0.4,1.4,0.6,2,0.6c0.3,0,0.6-0.1,0.8-0.2
		c0.2-0.1,0.3-0.3,0.3-0.5c0-0.4-0.3-0.6-0.8-0.8l-0.8-0.3c-1.2-0.4-1.8-1.1-1.8-2c0-0.7,0.2-1.2,0.7-1.6c0.5-0.4,1.1-0.6,1.9-0.6
		s1.6,0.2,2.4,0.5c0,0.2,0,0.4-0.1,0.7c-0.1,0.2-0.2,0.4-0.4,0.5c-0.7-0.3-1.3-0.5-1.9-0.5c-0.3,0-0.5,0.1-0.6,0.2
		c-0.2,0.1-0.2,0.3-0.2,0.5c0,0.3,0.2,0.5,0.7,0.7l0.9,0.3c1.2,0.4,1.8,1.2,1.8,2.2c0,0.7-0.2,1.2-0.7,1.6c-0.5,0.4-1.2,0.6-2.1,0.6
		S51.9,73.4,51.1,73z"/>
	<path fill="#043A63" d="M57.2,73c0-0.2,0.1-0.4,0.2-0.6c0.1-0.2,0.2-0.4,0.4-0.6c0.7,0.4,1.4,0.6,2,0.6c0.3,0,0.6-0.1,0.8-0.2
		c0.2-0.1,0.3-0.3,0.3-0.5c0-0.4-0.3-0.6-0.8-0.8l-0.8-0.3c-1.2-0.4-1.8-1.1-1.8-2c0-0.7,0.2-1.2,0.7-1.6c0.5-0.4,1.1-0.6,1.9-0.6
		s1.6,0.2,2.4,0.5c0,0.2,0,0.4-0.1,0.7c-0.1,0.2-0.2,0.4-0.4,0.5c-0.7-0.3-1.3-0.5-1.9-0.5c-0.3,0-0.5,0.1-0.6,0.2
		c-0.2,0.1-0.2,0.3-0.2,0.5c0,0.3,0.2,0.5,0.7,0.7l0.9,0.3c1.2,0.4,1.8,1.2,1.8,2.2c0,0.7-0.2,1.2-0.7,1.6c-0.5,0.4-1.2,0.6-2.1,0.6
		S58,73.4,57.2,73z"/>
	<path fill="#043A63" d="M69.4,72.7c0,0.2-0.1,0.3-0.2,0.5c-0.1,0.2-0.2,0.3-0.4,0.4c-0.6-0.1-1-0.3-1.3-0.8c-0.6,0.6-1.3,0.9-2,0.9
		s-1.3-0.2-1.6-0.6c-0.4-0.4-0.5-0.9-0.5-1.5c0-0.8,0.3-1.4,0.8-1.8c0.5-0.4,1.2-0.6,2-0.6c0.4,0,0.8,0,1.2,0.1v-0.4
		c0-0.7-0.4-1.1-1.1-1.1c-0.5,0-1.2,0.2-2.1,0.5c-0.3-0.3-0.4-0.7-0.5-1.2c1-0.4,2-0.6,3-0.6c0.7,0,1.3,0.2,1.7,0.6
		c0.4,0.4,0.7,1,0.7,1.8v2.9C69,72.1,69.1,72.5,69.4,72.7z M65.9,72.3c0.5,0,1-0.2,1.4-0.7v-1.2c-0.3,0-0.7-0.1-1.1-0.1
		c-0.4,0-0.7,0.1-0.9,0.3c-0.2,0.2-0.3,0.4-0.3,0.7c0,0.3,0.1,0.5,0.2,0.7S65.6,72.3,65.9,72.3z"/>
	<path fill="#043A63" d="M76.5,68.8v3.1c0,0.6,0.1,1,0.3,1.3c-0.3,0.2-0.7,0.4-1,0.4s-0.6-0.1-0.8-0.3c-0.1-0.2-0.2-0.5-0.2-0.8
		v-3.3c0-0.4-0.1-0.7-0.2-0.9C74.5,68.1,74.3,68,74,68c-0.5,0-1,0.2-1.5,0.7v4.8c-0.3,0-0.5,0.1-0.9,0.1s-0.6,0-0.9-0.1v-6.9
		l0.1-0.1h0.6c0.5,0,0.8,0.3,1,0.8c0.7-0.6,1.4-0.9,2-0.9s1.2,0.2,1.5,0.7C76.3,67.5,76.5,68.1,76.5,68.8z"/>
	<path fill="#043A63" d="M80.3,73.7c-0.8,0-1.4-0.3-1.8-1c-0.4-0.6-0.6-1.5-0.6-2.7c0-1.1,0.3-2,0.8-2.7c0.5-0.6,1.2-1,1.9-1
		c0.5,0,1,0.1,1.5,0.4v-3.5l0.1-0.1h0.7c0.3,0,0.6,0.1,0.7,0.2c0.1,0.2,0.2,0.4,0.2,0.8v7.2c0,0.6,0.1,1,0.4,1.2
		c0,0.2-0.1,0.3-0.2,0.5c-0.1,0.2-0.2,0.3-0.4,0.4c-0.6-0.1-1-0.4-1.2-0.8C81.8,73.4,81.1,73.7,80.3,73.7z M80.7,72.2
		c0.5,0,1-0.3,1.3-0.8v-3.3c-0.5-0.3-0.9-0.4-1.2-0.4S80.2,68,80,68.4c-0.2,0.4-0.3,1-0.3,1.7s0.1,1.3,0.3,1.6S80.4,72.2,80.7,72.2z
		"/>
	<path fill="#043A63" d="M91.4,70c0,1.3-0.3,2.2-1,2.9c-0.5,0.5-1.2,0.8-2.1,0.8c-0.9,0-1.6-0.3-2.1-0.8c-0.7-0.7-1-1.6-1-2.9
		s0.3-2.2,1-2.9c0.5-0.5,1.2-0.8,2.1-0.8c0.9,0,1.6,0.3,2.1,0.8C91,67.8,91.4,68.8,91.4,70z M88.3,67.7c-0.9,0-1.3,0.8-1.3,2.4
		c0,1.6,0.4,2.4,1.3,2.4c0.9,0,1.3-0.8,1.3-2.4C89.6,68.4,89.2,67.7,88.3,67.7z"/>
	<path fill="#043A63" d="M99.2,66.3c0.8,0,1.3,0.3,1.8,1s0.6,1.5,0.6,2.7c0,1.1-0.3,2-0.8,2.7c-0.5,0.6-1.2,1-1.9,1
		c-0.5,0-1-0.1-1.5-0.4v2.2c0,0.4-0.1,0.7-0.2,0.8c-0.1,0.2-0.4,0.2-0.7,0.2h-0.7l-0.1-0.1v-9.9l0.1-0.1h0.5c0.5,0,0.8,0.2,1,0.7
		C97.8,66.6,98.5,66.3,99.2,66.3z M98.8,67.8c-0.5,0-1,0.3-1.3,0.8v3.3c0.4,0.3,0.9,0.4,1.2,0.4c0.4,0,0.7-0.2,0.9-0.6
		c0.2-0.4,0.3-1,0.3-1.7s-0.1-1.3-0.3-1.6S99.1,67.8,98.8,67.8z"/>
	<path fill="#043A63" d="M108.6,72.7c0,0.2-0.1,0.3-0.2,0.5c-0.1,0.2-0.2,0.3-0.4,0.4c-0.6-0.1-1-0.3-1.3-0.8
		c-0.6,0.6-1.3,0.9-2,0.9s-1.3-0.2-1.6-0.6s-0.5-0.9-0.5-1.5c0-0.8,0.3-1.4,0.8-1.8s1.2-0.6,2-0.6c0.4,0,0.8,0,1.2,0.1v-0.4
		c0-0.7-0.4-1.1-1.1-1.1c-0.5,0-1.2,0.2-2.1,0.5c-0.3-0.3-0.4-0.7-0.5-1.2c1-0.4,2-0.6,3-0.6c0.7,0,1.3,0.2,1.7,0.6
		c0.4,0.4,0.7,1,0.7,1.8v2.9C108.2,72.1,108.4,72.5,108.6,72.7z M105.1,72.3c0.5,0,1-0.2,1.4-0.7v-1.2c-0.3,0-0.7-0.1-1.1-0.1
		c-0.4,0-0.7,0.1-0.9,0.3c-0.2,0.2-0.3,0.4-0.3,0.7c0,0.3,0.1,0.5,0.2,0.7S104.9,72.3,105.1,72.3z"/>
	<path fill="#043A63" d="M109.6,67.3c0-0.2,0.1-0.3,0.2-0.5c0.1-0.2,0.2-0.3,0.4-0.4c0.7,0.1,1.2,0.5,1.5,1.2c0.4-0.8,1-1.2,1.8-1.2
		c0.2,0,0.5,0,0.8,0.1c0,0.6-0.1,1.1-0.4,1.6c-0.1,0-0.3-0.1-0.6-0.1c-0.6,0-1,0.3-1.4,0.9v4.5c-0.3,0-0.5,0.1-0.9,0.1
		c-0.3,0-0.6,0-0.9-0.1v-4.7C110.1,68.1,110,67.6,109.6,67.3z"/>
	<path fill="#043A63" d="M120.7,72.7c0,0.2-0.1,0.3-0.2,0.5c-0.1,0.2-0.2,0.3-0.4,0.4c-0.6-0.1-1-0.3-1.3-0.8
		c-0.6,0.6-1.3,0.9-2,0.9s-1.3-0.2-1.6-0.6s-0.5-0.9-0.5-1.5c0-0.8,0.3-1.4,0.8-1.8s1.2-0.6,2-0.6c0.4,0,0.8,0,1.2,0.1v-0.4
		c0-0.7-0.4-1.1-1.1-1.1c-0.5,0-1.2,0.2-2.1,0.5c-0.3-0.3-0.4-0.7-0.5-1.2c1-0.4,2-0.6,3-0.6c0.7,0,1.3,0.2,1.7,0.6
		c0.4,0.4,0.7,1,0.7,1.8v2.9C120.3,72.1,120.4,72.5,120.7,72.7z M117.1,72.3c0.5,0,1-0.2,1.4-0.7v-1.2c-0.3,0-0.7-0.1-1.1-0.1
		c-0.4,0-0.7,0.1-0.9,0.3c-0.2,0.2-0.3,0.4-0.3,0.7c0,0.3,0.1,0.5,0.2,0.7S116.9,72.3,117.1,72.3z"/>
	<path fill="#043A63" d="M130.8,70c0,1.3-0.3,2.2-1,2.9c-0.5,0.5-1.2,0.8-2.1,0.8c-0.9,0-1.6-0.3-2.1-0.8c-0.7-0.7-1-1.6-1-2.9
		s0.3-2.2,1-2.9c0.5-0.5,1.2-0.8,2.1-0.8c0.9,0,1.6,0.3,2.1,0.8C130.4,67.8,130.8,68.8,130.8,70z M127.7,67.7
		c-0.9,0-1.3,0.8-1.3,2.4c0,1.6,0.4,2.4,1.3,2.4c0.9,0,1.3-0.8,1.3-2.4C129,68.4,128.5,67.7,127.7,67.7z"/>
	<path fill="#043A63" d="M138.6,66.3c0.8,0,1.3,0.3,1.8,1s0.6,1.5,0.6,2.7c0,1.1-0.3,2-0.8,2.7c-0.5,0.6-1.2,1-1.9,1
		c-0.5,0-1-0.1-1.5-0.4v2.2c0,0.4-0.1,0.7-0.2,0.8c-0.1,0.2-0.4,0.2-0.7,0.2h-0.7l-0.1-0.1v-9.9l0.1-0.1h0.5c0.5,0,0.8,0.2,1,0.7
		C137.2,66.6,137.9,66.3,138.6,66.3z M138.1,67.8c-0.5,0-1,0.3-1.3,0.8v3.3c0.4,0.3,0.9,0.4,1.2,0.4c0.4,0,0.7-0.2,0.9-0.6
		c0.2-0.4,0.3-1,0.3-1.7s-0.1-1.3-0.3-1.6S138.5,67.8,138.1,67.8z"/>
	<path fill="#043A63" d="M144.4,67.9v5.6c-0.3,0-0.5,0.1-0.9,0.1c-0.3,0-0.6,0-0.9-0.1v-4.9c0-0.5-0.2-0.8-0.6-0.8h-0.2
		c0-0.2-0.1-0.4-0.1-0.6c0-0.2,0-0.5,0.1-0.6c0.3,0,0.7-0.1,1-0.1h0.2c0.4,0,0.7,0.1,0.9,0.4S144.4,67.5,144.4,67.9z M142.4,65.3
		c-0.1-0.2-0.1-0.4-0.1-0.7c0-0.2,0-0.5,0.1-0.7c0.2-0.1,0.5-0.2,0.9-0.2s0.6,0.1,0.9,0.2c0.1,0.2,0.1,0.4,0.1,0.7
		c0,0.2,0,0.5-0.1,0.7c-0.2,0.1-0.5,0.2-0.9,0.2S142.5,65.4,142.4,65.3z"/>
	<path fill="#043A63" d="M148.5,72.2h0.5c0.1,0.3,0.1,0.5,0.1,0.7s0,0.4,0,0.5c-0.5,0.1-1,0.1-1.3,0.1c-1,0-1.5-0.5-1.5-1.6v-8.6
		l0.1-0.1h0.7c0.3,0,0.6,0.1,0.7,0.2c0.1,0.2,0.2,0.4,0.2,0.8v7.3C147.9,72,148.1,72.2,148.5,72.2z"/>
	<path fill="#043A63" d="M155.9,72.7c0,0.2-0.1,0.3-0.2,0.5c-0.1,0.2-0.2,0.3-0.4,0.4c-0.6-0.1-1-0.3-1.3-0.8
		c-0.6,0.6-1.3,0.9-2,0.9s-1.3-0.2-1.6-0.6s-0.5-0.9-0.5-1.5c0-0.8,0.3-1.4,0.8-1.8s1.2-0.6,2-0.6c0.4,0,0.8,0,1.2,0.1v-0.4
		c0-0.7-0.4-1.1-1.1-1.1c-0.5,0-1.2,0.2-2.1,0.5c-0.3-0.3-0.4-0.7-0.5-1.2c1-0.4,2-0.6,3-0.6c0.7,0,1.3,0.2,1.7,0.6
		c0.4,0.4,0.7,1,0.7,1.8v2.9C155.5,72.1,155.6,72.5,155.9,72.7z M152.4,72.3c0.5,0,1-0.2,1.4-0.7v-1.2c-0.3,0-0.7-0.1-1.1-0.1
		c-0.4,0-0.7,0.1-0.9,0.3c-0.2,0.2-0.3,0.4-0.3,0.7c0,0.3,0.1,0.5,0.2,0.7S152.1,72.3,152.4,72.3z"/>
	<path fill="#043A63" d="M156.9,67.3c0-0.2,0.1-0.3,0.2-0.5c0.1-0.2,0.2-0.3,0.4-0.4c0.7,0.1,1.2,0.5,1.5,1.2c0.4-0.8,1-1.2,1.8-1.2
		c0.2,0,0.5,0,0.8,0.1c0,0.6-0.1,1.1-0.4,1.6c-0.1,0-0.3-0.1-0.6-0.1c-0.6,0-1,0.3-1.4,0.9v4.5c-0.3,0-0.5,0.1-0.9,0.1
		c-0.3,0-0.6,0-0.9-0.1v-4.7C157.4,68.1,157.2,67.6,156.9,67.3z"/>
	<path fill="#043A63" d="M170.7,67.4c0,0,0-0.1,0-0.1c0-0.6-0.1-1.1-0.4-1.5c-0.3-0.4-0.7-0.6-1.4-0.6c-1.3,0-2,1.2-2,3.6
		c0,1.1,0.2,1.9,0.6,2.5c0.4,0.6,0.9,0.9,1.6,0.9s1.5-0.3,2.4-1c0.2,0.1,0.4,0.3,0.5,0.5c0.2,0.2,0.3,0.4,0.3,0.6
		c-0.4,0.4-1,0.8-1.6,1c-0.6,0.3-1.3,0.4-2,0.4c-0.7,0-1.3-0.1-1.8-0.4c-0.5-0.3-0.9-0.7-1.2-1.1c-0.5-0.9-0.8-2-0.8-3.4
		c0-1.7,0.4-2.9,1.1-3.7c0.7-0.8,1.7-1.3,2.7-1.3s1.9,0.3,2.6,0.8c0.6,0.5,1,1.2,1,2c0,0.7-0.3,1-1,1
		C171.2,67.5,170.9,67.5,170.7,67.4z"/>
	<path fill="#043A63" d="M176,72.2h0.5c0.1,0.3,0.1,0.5,0.1,0.7s0,0.4,0,0.5c-0.5,0.1-1,0.1-1.3,0.1c-1,0-1.5-0.5-1.5-1.6v-8.6
		l0.1-0.1h0.7c0.3,0,0.6,0.1,0.7,0.2c0.1,0.2,0.2,0.4,0.2,0.8v7.3C175.4,72,175.6,72.2,176,72.2z"/>
	<path fill="#043A63" d="M179.8,67.9v5.6c-0.3,0-0.5,0.1-0.9,0.1c-0.3,0-0.6,0-0.9-0.1v-4.9c0-0.5-0.2-0.8-0.6-0.8h-0.2
		c0-0.2-0.1-0.4-0.1-0.6c0-0.2,0-0.5,0.1-0.6c0.3,0,0.7-0.1,1-0.1h0.2c0.4,0,0.7,0.1,0.9,0.4S179.8,67.5,179.8,67.9z M177.8,65.3
		c-0.1-0.2-0.1-0.4-0.1-0.7c0-0.2,0-0.5,0.1-0.7c0.2-0.1,0.5-0.2,0.9-0.2s0.6,0.1,0.9,0.2c0.1,0.2,0.1,0.4,0.1,0.7
		c0,0.2,0,0.5-0.1,0.7c-0.2,0.1-0.5,0.2-0.9,0.2S177.9,65.4,177.8,65.3z"/>
	<path fill="#043A63" d="M186.9,70.6h-3.9c0,0.6,0.2,1,0.4,1.3c0.2,0.3,0.6,0.5,1.2,0.5s1.2-0.2,1.8-0.5c0.3,0.3,0.4,0.6,0.5,1.1
		c-0.7,0.5-1.6,0.8-2.7,0.8s-1.8-0.3-2.3-1c-0.5-0.7-0.7-1.6-0.7-2.6c0-1.1,0.3-2,0.8-2.6c0.5-0.7,1.2-1,2.2-1
		c0.9,0,1.7,0.3,2.2,0.8s0.8,1.3,0.8,2.1C187,69.8,187,70.2,186.9,70.6z M184.2,67.6c-0.8,0-1.2,0.6-1.2,1.7h2.4v-0.2
		c0-0.5-0.1-0.8-0.3-1.1C184.9,67.7,184.6,67.6,184.2,67.6z"/>
	<path fill="#043A63" d="M194.2,68.8v3.1c0,0.6,0.1,1,0.3,1.3c-0.3,0.2-0.7,0.4-1,0.4s-0.6-0.1-0.8-0.3c-0.1-0.2-0.2-0.5-0.2-0.8
		v-3.3c0-0.4-0.1-0.7-0.2-0.9c-0.1-0.2-0.3-0.3-0.6-0.3c-0.5,0-1,0.2-1.5,0.7v4.8c-0.3,0-0.5,0.1-0.9,0.1s-0.6,0-0.9-0.1v-6.9
		l0.1-0.1h0.6c0.5,0,0.8,0.3,1,0.8c0.7-0.6,1.4-0.9,2-0.9s1.2,0.2,1.5,0.7C194,67.5,194.2,68.1,194.2,68.8z"/>
	<path fill="#043A63" d="M199.6,66.5c0,0.2,0.1,0.4,0.1,0.6c0,0.2,0,0.4-0.1,0.6l-1.7,0v3.8c0,0.4,0.2,0.6,0.6,0.6h0.9
		c0.1,0.3,0.1,0.5,0.1,0.7s0,0.4,0,0.5c-0.6,0.1-1.1,0.1-1.7,0.1c-1.1,0-1.6-0.5-1.6-1.6v-4.1l-1,0c0-0.2-0.1-0.4-0.1-0.6
		c0-0.2,0-0.5,0.1-0.6l1,0v-1.1c0-0.4,0.1-0.7,0.2-0.8c0.1-0.2,0.4-0.2,0.7-0.2h0.7l0.1,0.1v2L199.6,66.5z"/>
	<path fill="#043A63" d="M206.1,70.6h-3.9c0,0.6,0.2,1,0.4,1.3c0.2,0.3,0.6,0.5,1.2,0.5s1.2-0.2,1.8-0.5c0.3,0.3,0.4,0.6,0.5,1.1
		c-0.7,0.5-1.6,0.8-2.7,0.8s-1.8-0.3-2.3-1c-0.5-0.7-0.7-1.6-0.7-2.6c0-1.1,0.3-2,0.8-2.6c0.5-0.7,1.2-1,2.2-1
		c0.9,0,1.7,0.3,2.2,0.8s0.8,1.3,0.8,2.1C206.3,69.8,206.2,70.2,206.1,70.6z M203.4,67.6c-0.8,0-1.2,0.6-1.2,1.7h2.4v-0.2
		c0-0.5-0.1-0.8-0.3-1.1C204.1,67.7,203.8,67.6,203.4,67.6z"/>
	<path fill="#043A63" d="M209.6,71.9c0.1,0.3,0.2,0.6,0.2,1c0,0.6-0.2,1.2-0.6,1.8c-0.4,0.5-0.9,0.9-1.7,1.2
		c-0.1-0.1-0.3-0.2-0.3-0.3c-0.1-0.1-0.1-0.3-0.1-0.3s0-0.1,0-0.2c0.3-0.1,0.6-0.3,0.8-0.6c0.2-0.2,0.3-0.5,0.4-0.8
		c-0.3,0-0.4-0.1-0.6-0.2c-0.1-0.2-0.1-0.5-0.1-0.8s0-0.6,0.1-0.7c0.3-0.1,0.6-0.2,1-0.2C209.1,71.7,209.4,71.8,209.6,71.9z"/>
	<path fill="#043A63" d="M42.9,89.5c0,0.2-0.1,0.3-0.2,0.5c-0.1,0.2-0.2,0.3-0.4,0.4c-0.6-0.1-1-0.3-1.3-0.8c-0.6,0.6-1.3,0.9-2,0.9
		s-1.3-0.2-1.6-0.6s-0.5-0.9-0.5-1.5c0-0.8,0.3-1.4,0.8-1.8s1.2-0.6,2-0.6c0.4,0,0.8,0,1.2,0.1v-0.4c0-0.7-0.4-1.1-1.1-1.1
		c-0.5,0-1.2,0.2-2.1,0.5c-0.3-0.3-0.4-0.7-0.5-1.2c1-0.4,2-0.6,3-0.6c0.7,0,1.3,0.2,1.7,0.6c0.4,0.4,0.7,1,0.7,1.8v2.9
		C42.5,88.9,42.6,89.3,42.9,89.5z M39.4,89.1c0.5,0,1-0.2,1.4-0.7v-1.2c-0.3,0-0.7-0.1-1.1-0.1c-0.4,0-0.7,0.1-0.9,0.3
		c-0.2,0.2-0.3,0.4-0.3,0.7c0,0.3,0.1,0.5,0.2,0.7S39.1,89.1,39.4,89.1z"/>
	<path fill="#043A63" d="M49.5,84.2c0.4,0.6,0.6,1.5,0.6,2.6s-0.3,2-0.9,2.6c-0.6,0.6-1.4,1-2.3,1c-1,0-1.8-0.2-2.6-0.5v-9.9
		l0.1-0.1H45c0.3,0,0.6,0.1,0.7,0.2c0.1,0.2,0.2,0.4,0.2,0.8v2.8c0.5-0.4,1.1-0.6,1.8-0.6C48.5,83.2,49.1,83.5,49.5,84.2z
		 M47.3,84.6c-0.5,0-0.9,0.2-1.3,0.7V89c0.3,0.1,0.6,0.1,1,0.1c0.5,0,0.8-0.2,1.1-0.6c0.3-0.4,0.4-1,0.4-1.8
		C48.4,85.3,48,84.6,47.3,84.6z"/>
	<path fill="#043A63" d="M57.3,86.8c0,1.3-0.3,2.2-1,2.9c-0.5,0.5-1.2,0.8-2.1,0.8c-0.9,0-1.6-0.3-2.1-0.8c-0.7-0.7-1-1.6-1-2.9
		s0.3-2.2,1-2.9c0.5-0.5,1.2-0.8,2.1-0.8c0.9,0,1.6,0.3,2.1,0.8C57,84.6,57.3,85.6,57.3,86.8z M54.2,84.5c-0.9,0-1.3,0.8-1.3,2.4
		c0,1.6,0.4,2.4,1.3,2.4c0.9,0,1.3-0.8,1.3-2.4C55.5,85.2,55.1,84.5,54.2,84.5z"/>
	<path fill="#043A63" d="M58.3,84.1c0-0.2,0.1-0.3,0.2-0.5c0.1-0.2,0.2-0.3,0.4-0.4c0.7,0.1,1.2,0.5,1.5,1.2c0.4-0.8,1-1.2,1.8-1.2
		c0.2,0,0.5,0,0.8,0.1c0,0.6-0.1,1.1-0.4,1.6c-0.1,0-0.3-0.1-0.6-0.1c-0.6,0-1,0.3-1.4,0.9v4.5c-0.3,0-0.5,0.1-0.9,0.1
		c-0.3,0-0.6,0-0.9-0.1v-4.7C58.8,84.9,58.7,84.4,58.3,84.1z"/>
	<path fill="#043A63" d="M65.7,90.5c-0.8,0-1.4-0.3-1.8-1c-0.4-0.6-0.6-1.5-0.6-2.7c0-1.1,0.3-2,0.8-2.7c0.5-0.6,1.2-1,1.9-1
		c0.5,0,1,0.1,1.5,0.4v-3.5l0.1-0.1h0.7c0.3,0,0.6,0.1,0.7,0.2c0.1,0.2,0.2,0.4,0.2,0.8v7.2c0,0.6,0.1,1,0.4,1.2
		c0,0.2-0.1,0.3-0.2,0.5c-0.1,0.2-0.2,0.3-0.4,0.4c-0.6-0.1-1-0.4-1.2-0.8C67.2,90.2,66.5,90.5,65.7,90.5z M66.2,89
		c0.5,0,1-0.3,1.3-0.8V85c-0.5-0.3-0.9-0.4-1.2-0.4s-0.6,0.2-0.9,0.6c-0.2,0.4-0.3,1-0.3,1.7s0.1,1.3,0.3,1.6S65.9,89,66.2,89z"/>
	<path fill="#043A63" d="M76.7,89.5c0,0.2-0.1,0.3-0.2,0.5c-0.1,0.2-0.2,0.3-0.4,0.4c-0.6-0.1-1-0.3-1.3-0.8c-0.6,0.6-1.3,0.9-2,0.9
		s-1.3-0.2-1.6-0.6s-0.5-0.9-0.5-1.5c0-0.8,0.3-1.4,0.8-1.8s1.2-0.6,2-0.6c0.4,0,0.8,0,1.2,0.1v-0.4c0-0.7-0.4-1.1-1.1-1.1
		c-0.5,0-1.2,0.2-2.1,0.5c-0.3-0.3-0.4-0.7-0.5-1.2c1-0.4,2-0.6,3-0.6c0.7,0,1.3,0.2,1.7,0.6c0.4,0.4,0.7,1,0.7,1.8v2.9
		C76.3,88.9,76.4,89.3,76.7,89.5z M73.1,89.1c0.5,0,1-0.2,1.4-0.7v-1.2c-0.3,0-0.7-0.1-1.1-0.1c-0.4,0-0.7,0.1-0.9,0.3
		c-0.2,0.2-0.3,0.4-0.3,0.7c0,0.3,0.1,0.5,0.2,0.7S72.9,89.1,73.1,89.1z"/>
	<path fill="#043A63" d="M77.7,84.1c0-0.2,0.1-0.3,0.2-0.5c0.1-0.2,0.2-0.3,0.4-0.4c0.7,0.1,1.2,0.5,1.5,1.2c0.4-0.8,1-1.2,1.8-1.2
		c0.2,0,0.5,0,0.8,0.1c0,0.6-0.1,1.1-0.4,1.6c-0.1,0-0.3-0.1-0.6-0.1c-0.6,0-1,0.3-1.4,0.9v4.5c-0.3,0-0.5,0.1-0.9,0.1
		c-0.3,0-0.6,0-0.9-0.1v-4.7C78.2,84.9,78,84.4,77.7,84.1z"/>
	<path fill="#043A63" d="M88.5,87.4h-3.9c0,0.6,0.2,1,0.4,1.3c0.2,0.3,0.6,0.5,1.2,0.5s1.2-0.2,1.8-0.5c0.3,0.3,0.4,0.6,0.5,1.1
		c-0.7,0.5-1.6,0.8-2.7,0.8s-1.8-0.3-2.3-1c-0.5-0.7-0.7-1.6-0.7-2.6c0-1.1,0.3-2,0.8-2.6c0.5-0.7,1.2-1,2.2-1
		c0.9,0,1.7,0.3,2.2,0.8s0.8,1.3,0.8,2.1C88.6,86.6,88.6,87,88.5,87.4z M85.8,84.4c-0.8,0-1.2,0.6-1.2,1.7H87V86
		c0-0.5-0.1-0.8-0.3-1.1C86.5,84.5,86.2,84.4,85.8,84.4z"/>
	<path fill="#043A63" d="M93.8,86c0-0.8-0.3-1.2-0.8-1.2c-0.4,0-0.8,0.2-1.3,0.7v4.8c-0.3,0-0.5,0.1-0.9,0.1s-0.6,0-0.9-0.1v-6.9
		l0.1-0.1h0.6c0.5,0,0.9,0.3,1,0.9c0.6-0.6,1.3-0.9,2-0.9c0.7,0,1.2,0.3,1.5,1c0.7-0.7,1.5-1,2.2-1c0.6,0,1,0.2,1.4,0.6
		c0.3,0.4,0.5,0.9,0.5,1.6v3.3c0,0.6,0.1,1,0.3,1.3c-0.3,0.2-0.6,0.4-1,0.4c-0.4,0-0.7-0.1-0.8-0.3s-0.2-0.5-0.2-0.8V86
		c0-0.8-0.3-1.2-0.8-1.2c-0.4,0-0.8,0.2-1.3,0.7v4.8c-0.3,0-0.5,0.1-0.9,0.1c-0.3,0-0.6,0-0.9-0.1V86z"/>
	<path fill="#043A63" d="M106.9,86.8c0,1.3-0.3,2.2-1,2.9c-0.5,0.5-1.2,0.8-2.1,0.8c-0.9,0-1.6-0.3-2.1-0.8c-0.7-0.7-1-1.6-1-2.9
		s0.3-2.2,1-2.9c0.5-0.5,1.2-0.8,2.1-0.8c0.9,0,1.6,0.3,2.1,0.8C106.6,84.6,106.9,85.6,106.9,86.8z M103.8,84.5
		c-0.9,0-1.3,0.8-1.3,2.4c0,1.6,0.4,2.4,1.3,2.4c0.9,0,1.3-0.8,1.3-2.4C105.1,85.2,104.7,84.5,103.8,84.5z"/>
	<path fill="#043A63" d="M107.7,89.8c0-0.2,0.1-0.4,0.2-0.6c0.1-0.2,0.2-0.4,0.4-0.6c0.7,0.4,1.4,0.6,2,0.6c0.3,0,0.6-0.1,0.8-0.2
		c0.2-0.1,0.3-0.3,0.3-0.5c0-0.4-0.3-0.6-0.8-0.8l-0.8-0.3c-1.2-0.4-1.8-1.1-1.8-2c0-0.7,0.2-1.2,0.7-1.6c0.5-0.4,1.1-0.6,1.9-0.6
		s1.6,0.2,2.4,0.5c0,0.2,0,0.4-0.1,0.7c-0.1,0.2-0.2,0.4-0.4,0.5c-0.7-0.3-1.3-0.5-1.9-0.5c-0.3,0-0.5,0.1-0.6,0.2
		c-0.2,0.1-0.2,0.3-0.2,0.5c0,0.3,0.2,0.5,0.7,0.7l0.9,0.3c1.2,0.4,1.8,1.2,1.8,2.2c0,0.7-0.2,1.2-0.7,1.6c-0.5,0.4-1.2,0.6-2.1,0.6
		S108.5,90.2,107.7,89.8z"/>
	<path fill="#043A63" d="M118.8,82.2l0,1.4v1.1h3.2c0.1,0.2,0.1,0.5,0.1,0.7s0,0.5-0.1,0.7h-3.2v4.1c-0.2,0-0.5,0.1-0.9,0.1
		c-0.4,0-0.6,0-0.9-0.1v-9.5l0.1-0.1h5.7c0.1,0.2,0.1,0.4,0.1,0.7c0,0.6-0.3,0.8-1,0.8H120C119.4,82.2,119,82.2,118.8,82.2z"/>
	<path fill="#043A63" d="M129.8,86.8c0,1.3-0.3,2.2-1,2.9c-0.5,0.5-1.2,0.8-2.1,0.8c-0.9,0-1.6-0.3-2.1-0.8c-0.7-0.7-1-1.6-1-2.9
		s0.3-2.2,1-2.9c0.5-0.5,1.2-0.8,2.1-0.8c0.9,0,1.6,0.3,2.1,0.8C129.5,84.6,129.8,85.6,129.8,86.8z M126.7,84.5
		c-0.9,0-1.3,0.8-1.3,2.4c0,1.6,0.4,2.4,1.3,2.4c0.9,0,1.3-0.8,1.3-2.4C128,85.2,127.6,84.5,126.7,84.5z"/>
	<path fill="#043A63" d="M134.8,86.2c0-0.1,0-0.1,0-0.2c0-0.5-0.1-0.8-0.2-1.1c-0.1-0.3-0.4-0.4-0.8-0.4c-0.8,0-1.2,0.8-1.2,2.3
		s0.5,2.3,1.4,2.3c0.5,0,1-0.2,1.6-0.7c0.1,0.1,0.3,0.2,0.4,0.4c0.1,0.2,0.2,0.4,0.3,0.6c-0.7,0.7-1.5,1-2.5,1s-1.7-0.3-2.2-1
		c-0.5-0.7-0.7-1.6-0.7-2.7s0.3-2,0.9-2.7s1.3-0.9,2.1-0.9c0.8,0,1.5,0.2,1.9,0.7c0.5,0.4,0.7,1,0.7,1.6c0,0.6-0.3,0.9-0.9,0.9
		C135.3,86.2,135,86.2,134.8,86.2z"/>
	<path fill="#043A63" d="M143.4,86.8c0,1.3-0.3,2.2-1,2.9c-0.5,0.5-1.2,0.8-2.1,0.8c-0.9,0-1.6-0.3-2.1-0.8c-0.7-0.7-1-1.6-1-2.9
		s0.3-2.2,1-2.9c0.5-0.5,1.2-0.8,2.1-0.8c0.9,0,1.6,0.3,2.1,0.8C143.1,84.6,143.4,85.6,143.4,86.8z M140.3,84.5
		c-0.9,0-1.3,0.8-1.3,2.4c0,1.6,0.4,2.4,1.3,2.4c0.9,0,1.3-0.8,1.3-2.4C141.6,85.2,141.2,84.5,140.3,84.5z"/>
	<path fill="#043A63" d="M153.5,85.6v3.1c0,0.6,0.1,1,0.3,1.3c-0.3,0.2-0.7,0.4-1,0.4s-0.6-0.1-0.8-0.3c-0.1-0.2-0.2-0.5-0.2-0.8V86
		c0-0.4-0.1-0.7-0.2-0.9c-0.1-0.2-0.3-0.3-0.6-0.3c-0.5,0-1,0.2-1.5,0.7v4.8c-0.3,0-0.5,0.1-0.9,0.1s-0.6,0-0.9-0.1v-6.9l0.1-0.1
		h0.6c0.5,0,0.8,0.3,1,0.8c0.7-0.6,1.4-0.9,2-0.9s1.2,0.2,1.5,0.7C153.3,84.3,153.5,84.9,153.5,85.6z"/>
	<path fill="#043A63" d="M161,86.8c0,1.3-0.3,2.2-1,2.9c-0.5,0.5-1.2,0.8-2.1,0.8c-0.9,0-1.6-0.3-2.1-0.8c-0.7-0.7-1-1.6-1-2.9
		s0.3-2.2,1-2.9c0.5-0.5,1.2-0.8,2.1-0.8c0.9,0,1.6,0.3,2.1,0.8C160.7,84.6,161,85.6,161,86.8z M157.9,84.5c-0.9,0-1.3,0.8-1.3,2.4
		c0,1.6,0.4,2.4,1.3,2.4c0.9,0,1.3-0.8,1.3-2.4C159.2,85.2,158.8,84.5,157.9,84.5z"/>
	<path fill="#043A63" d="M170.7,84.2c0,0,0-0.1,0-0.1c0-0.6-0.1-1.1-0.4-1.5c-0.3-0.4-0.7-0.6-1.4-0.6c-1.3,0-2,1.2-2,3.6
		c0,1.1,0.2,1.9,0.6,2.5c0.4,0.6,0.9,0.9,1.6,0.9s1.5-0.3,2.4-1c0.2,0.1,0.4,0.3,0.5,0.5c0.2,0.2,0.3,0.4,0.3,0.6
		c-0.4,0.4-1,0.8-1.6,1c-0.6,0.3-1.3,0.4-2,0.4c-0.7,0-1.3-0.1-1.8-0.4c-0.5-0.3-0.9-0.7-1.2-1.1c-0.5-0.9-0.8-2-0.8-3.4
		c0-1.7,0.4-2.9,1.1-3.7c0.7-0.8,1.7-1.3,2.7-1.3s1.9,0.3,2.6,0.8c0.6,0.5,1,1.2,1,2c0,0.7-0.3,1-1,1
		C171.1,84.3,170.9,84.3,170.7,84.2z"/>
	<path fill="#043A63" d="M175.9,89h0.5c0.1,0.3,0.1,0.5,0.1,0.7s0,0.4,0,0.5c-0.5,0.1-1,0.1-1.3,0.1c-1,0-1.5-0.5-1.5-1.6v-8.6
		l0.1-0.1h0.7c0.3,0,0.6,0.1,0.7,0.2c0.1,0.2,0.2,0.4,0.2,0.8v7.3C175.4,88.8,175.6,89,175.9,89z"/>
	<path fill="#043A63" d="M179.7,84.7v5.6c-0.3,0-0.5,0.1-0.9,0.1c-0.3,0-0.6,0-0.9-0.1v-4.9c0-0.5-0.2-0.8-0.6-0.8h-0.2
		c0-0.2-0.1-0.4-0.1-0.6c0-0.2,0-0.5,0.1-0.6c0.3,0,0.7-0.1,1-0.1h0.2c0.4,0,0.7,0.1,0.9,0.4S179.7,84.3,179.7,84.7z M177.7,82.1
		c-0.1-0.2-0.1-0.4-0.1-0.7c0-0.2,0-0.5,0.1-0.7c0.2-0.1,0.5-0.2,0.9-0.2s0.6,0.1,0.9,0.2c0.1,0.2,0.1,0.4,0.1,0.7
		c0,0.2,0,0.5-0.1,0.7c-0.2,0.1-0.5,0.2-0.9,0.2S177.9,82.2,177.7,82.1z"/>
	<path fill="#043A63" d="M186.8,87.4h-3.9c0,0.6,0.2,1,0.4,1.3c0.2,0.3,0.6,0.5,1.2,0.5s1.2-0.2,1.8-0.5c0.3,0.3,0.4,0.6,0.5,1.1
		c-0.7,0.5-1.6,0.8-2.7,0.8s-1.8-0.3-2.3-1c-0.5-0.7-0.7-1.6-0.7-2.6c0-1.1,0.3-2,0.8-2.6c0.5-0.7,1.2-1,2.2-1
		c0.9,0,1.7,0.3,2.2,0.8s0.8,1.3,0.8,2.1C187,86.6,186.9,87,186.8,87.4z M184.1,84.4c-0.8,0-1.2,0.6-1.2,1.7h2.4V86
		c0-0.5-0.1-0.8-0.3-1.1C184.8,84.5,184.5,84.4,184.1,84.4z"/>
	<path fill="#043A63" d="M194.1,85.6v3.1c0,0.6,0.1,1,0.3,1.3c-0.3,0.2-0.7,0.4-1,0.4s-0.6-0.1-0.8-0.3c-0.1-0.2-0.2-0.5-0.2-0.8V86
		c0-0.4-0.1-0.7-0.2-0.9c-0.1-0.2-0.3-0.3-0.6-0.3c-0.5,0-1,0.2-1.5,0.7v4.8c-0.3,0-0.5,0.1-0.9,0.1s-0.6,0-0.9-0.1v-6.9l0.1-0.1
		h0.6c0.5,0,0.8,0.3,1,0.8c0.7-0.6,1.4-0.9,2-0.9s1.2,0.2,1.5,0.7C194,84.3,194.1,84.9,194.1,85.6z"/>
	<path fill="#043A63" d="M199.6,83.3c0,0.2,0.1,0.4,0.1,0.6c0,0.2,0,0.4-0.1,0.6l-1.7,0v3.8c0,0.4,0.2,0.6,0.6,0.6h0.9
		c0.1,0.3,0.1,0.5,0.1,0.7s0,0.4,0,0.5c-0.6,0.1-1.1,0.1-1.7,0.1c-1.1,0-1.6-0.5-1.6-1.6v-4.1l-1,0c0-0.2-0.1-0.4-0.1-0.6
		c0-0.2,0-0.5,0.1-0.6l1,0v-1.1c0-0.4,0.1-0.7,0.2-0.8c0.1-0.2,0.4-0.2,0.7-0.2h0.7l0.1,0.1v2L199.6,83.3z"/>
	<path fill="#043A63" d="M206.1,87.4h-3.9c0,0.6,0.2,1,0.4,1.3c0.2,0.3,0.6,0.5,1.2,0.5s1.2-0.2,1.8-0.5c0.3,0.3,0.4,0.6,0.5,1.1
		c-0.7,0.5-1.6,0.8-2.7,0.8s-1.8-0.3-2.3-1c-0.5-0.7-0.7-1.6-0.7-2.6c0-1.1,0.3-2,0.8-2.6c0.5-0.7,1.2-1,2.2-1
		c0.9,0,1.7,0.3,2.2,0.8s0.8,1.3,0.8,2.1C206.2,86.6,206.2,87,206.1,87.4z M203.4,84.4c-0.8,0-1.2,0.6-1.2,1.7h2.4V86
		c0-0.5-0.1-0.8-0.3-1.1C204.1,84.5,203.8,84.4,203.4,84.4z"/>
	<path fill="#043A63" d="M207.6,90.2c-0.1-0.2-0.1-0.4-0.1-0.7s0-0.6,0.1-0.8c0.3-0.1,0.6-0.2,1-0.2s0.7,0.1,0.9,0.2
		c0.1,0.2,0.1,0.5,0.1,0.8s0,0.6-0.1,0.7c-0.2,0.1-0.5,0.2-0.9,0.2S207.9,90.3,207.6,90.2z"/>
</g>
<g>
	<path fill="#FFFFFF" d="M31.4,105.5l-0.9,0h-1.9l-0.9,0l-0.8,2.4c-0.1,0-0.3,0.1-0.6,0.1s-0.5,0-0.7-0.1l0-0.1l3.2-9.5
		c0.2,0,0.5-0.1,0.8-0.1c0.4,0,0.6,0,0.8,0.1l3.2,9.5c-0.2,0.1-0.5,0.2-0.7,0.2c-0.3,0-0.5-0.1-0.6-0.2c-0.1-0.1-0.2-0.3-0.3-0.6
		L31.4,105.5z M28.1,104.3l0.7,0h1.4c0,0,0.1,0,0.3,0c0.2,0,0.3,0,0.4,0l-0.7-2.2c-0.3-0.8-0.5-1.7-0.7-2.5h-0.1
		c-0.1,0.7-0.3,1.3-0.5,1.9L28.1,104.3z"/>
	<path fill="#FFFFFF" d="M41.1,100.8c0.8,0,1.3,0.3,1.8,1c0.4,0.6,0.6,1.5,0.6,2.7c0,1.1-0.3,2-0.8,2.6s-1.2,0.9-1.9,0.9
		c-0.6,0-1.1-0.2-1.7-0.5v2.5c0,0.3-0.1,0.5-0.2,0.7c-0.1,0.1-0.3,0.2-0.6,0.2h-0.5l-0.1-0.1V101l0.1-0.1h0.4c0.4,0,0.7,0.2,0.8,0.7
		C39.7,101,40.3,100.8,41.1,100.8z M40.8,101.9c-0.7,0-1.2,0.3-1.6,1v3.4c0.5,0.4,1,0.5,1.4,0.5c0.4,0,0.8-0.2,1.1-0.7
		c0.3-0.4,0.4-1.1,0.4-1.9s-0.1-1.4-0.4-1.8C41.5,102.1,41.2,101.9,40.8,101.9z"/>
	<path fill="#FFFFFF" d="M50.4,107.2c-0.1,0.3-0.3,0.6-0.5,0.7c-0.5-0.1-0.9-0.4-1.1-0.9c-0.7,0.7-1.4,1-2.1,1s-1.2-0.2-1.6-0.6
		c-0.4-0.4-0.5-0.9-0.5-1.4c0-0.8,0.2-1.3,0.7-1.7c0.5-0.4,1.1-0.6,1.9-0.6c0.5,0,0.9,0,1.4,0.1v-0.6c0-0.8-0.4-1.3-1.2-1.3
		c-0.6,0-1.3,0.2-2.2,0.5c-0.3-0.3-0.4-0.6-0.4-1c1-0.4,1.9-0.6,2.9-0.6c0.7,0,1.3,0.2,1.7,0.6c0.4,0.4,0.6,1,0.6,1.8v2.9
		C50,106.6,50.1,107,50.4,107.2z M46.9,106.9c0.6,0,1.2-0.3,1.7-0.9v-1.3c-0.4,0-0.8-0.1-1.3-0.1c-0.5,0-0.8,0.1-1.1,0.3
		c-0.2,0.2-0.4,0.5-0.4,0.9c0,0.4,0.1,0.6,0.3,0.8S46.6,106.9,46.9,106.9z"/>
	<path fill="#FFFFFF" d="M51.7,101.6c0.1-0.3,0.2-0.6,0.5-0.7c0.6,0.1,1,0.6,1.2,1.2c0.4-0.8,1-1.2,1.8-1.2c0.2,0,0.5,0,0.7,0.1
		c0,0.5-0.1,0.9-0.3,1.3c-0.1,0-0.2,0-0.6-0.1c-0.7,0-1.2,0.4-1.5,1.1v4.6c-0.2,0-0.4,0.1-0.7,0.1s-0.5,0-0.7-0.1V103
		C52.2,102.4,52,101.9,51.7,101.6z"/>
	<path fill="#FFFFFF" d="M60.6,100.9c0,0.2,0.1,0.3,0.1,0.5c0,0.2,0,0.3-0.1,0.5l-1.8,0v4.3c0,0.4,0.2,0.6,0.6,0.6h1
		c0.1,0.2,0.1,0.4,0.1,0.6s0,0.3,0,0.4c-0.5,0.1-1.1,0.1-1.5,0.1c-1,0-1.4-0.5-1.4-1.4v-4.6l-1,0c0-0.1-0.1-0.3-0.1-0.5
		c0-0.2,0-0.4,0.1-0.5l1,0v-1.3c0-0.3,0.1-0.5,0.2-0.7s0.3-0.2,0.6-0.2h0.5l0.1,0.1v2.1L60.6,100.9z"/>
	<path fill="#FFFFFF" d="M63.7,102.1v5.8c-0.2,0-0.4,0.1-0.7,0.1c-0.3,0-0.5,0-0.7-0.1v-5.2c0-0.3,0-0.4-0.1-0.5
		c-0.1-0.1-0.2-0.2-0.5-0.2h-0.2c0-0.1-0.1-0.3-0.1-0.5c0-0.2,0-0.3,0.1-0.5c0.3,0,0.6-0.1,0.8-0.1h0.2c0.3,0,0.6,0.1,0.8,0.3
		C63.6,101.4,63.7,101.7,63.7,102.1z M61.9,99c0-0.2,0-0.4,0.1-0.6c0.2-0.1,0.5-0.2,0.8-0.2s0.6,0.1,0.7,0.2
		c0.1,0.2,0.1,0.4,0.1,0.6c0,0.2,0,0.4-0.1,0.6c-0.2,0.1-0.4,0.2-0.7,0.2c-0.3,0-0.6-0.1-0.8-0.2C62,99.4,61.9,99.2,61.9,99z"/>
	<path fill="#FFFFFF" d="M65.4,101.6c0.1-0.3,0.2-0.6,0.5-0.7c0.6,0.1,1,0.6,1.2,1.2c0.4-0.8,1-1.2,1.8-1.2c0.2,0,0.5,0,0.7,0.1
		c0,0.5-0.1,0.9-0.3,1.3c-0.1,0-0.2,0-0.6-0.1c-0.7,0-1.2,0.4-1.5,1.1v4.6c-0.2,0-0.4,0.1-0.7,0.1s-0.5,0-0.7-0.1V103
		C65.9,102.4,65.8,101.9,65.4,101.6z"/>
	<path fill="#FFFFFF" d="M75.7,108c-0.8,0-1.4-0.3-1.8-1c-0.4-0.6-0.6-1.5-0.6-2.7c0-1.1,0.3-2,0.8-2.6s1.2-0.9,1.9-0.9
		c0.5,0,1.1,0.2,1.6,0.5v-3.7l0.1-0.1h0.5c0.3,0,0.5,0.1,0.6,0.2c0.1,0.1,0.2,0.4,0.2,0.7v7.5c0,0.7,0.1,1.1,0.4,1.4
		c-0.1,0.3-0.3,0.6-0.5,0.7c-0.5-0.1-0.8-0.4-1-0.9C77.1,107.7,76.4,108,75.7,108z M75.9,106.9c0.6,0,1.1-0.3,1.6-0.9v-3.5
		c-0.5-0.4-1-0.5-1.4-0.5c-0.4,0-0.8,0.2-1.1,0.7c-0.3,0.4-0.4,1.1-0.4,1.9s0.1,1.4,0.4,1.8S75.5,106.9,75.9,106.9z"/>
	<path fill="#FFFFFF" d="M85.5,101.5c0.7,0.7,1,1.6,1,2.9s-0.3,2.2-1,2.9c-0.5,0.5-1.2,0.8-2,0.8c-0.8,0-1.5-0.3-2-0.8
		c-0.7-0.7-1-1.6-1-2.9s0.3-2.2,1-2.9c0.5-0.5,1.2-0.8,2-0.8C84.3,100.8,85,101,85.5,101.5z M81.9,104.4c0,1.7,0.5,2.6,1.6,2.6
		c1.1,0,1.6-0.9,1.6-2.6c0-0.5,0-0.9-0.1-1.3c-0.1-0.4-0.3-0.7-0.5-0.9c-0.2-0.3-0.6-0.4-1-0.4c-0.4,0-0.7,0.1-1,0.4
		c-0.2,0.3-0.4,0.6-0.5,0.9S81.9,103.9,81.9,104.4z"/>
	<path fill="#FFFFFF" d="M93,108c-0.8,0-1.4-0.3-1.8-1c-0.4-0.6-0.6-1.5-0.6-2.7c0-1.1,0.3-2,0.8-2.6s1.2-0.9,1.9-0.9
		c0.5,0,1.1,0.2,1.6,0.5v-3.7l0.1-0.1h0.5c0.3,0,0.5,0.1,0.6,0.2c0.1,0.1,0.2,0.4,0.2,0.7v7.5c0,0.7,0.1,1.1,0.4,1.4
		c-0.1,0.3-0.3,0.6-0.5,0.7c-0.5-0.1-0.8-0.4-1-0.9C94.5,107.7,93.8,108,93,108z M93.3,106.9c0.6,0,1.1-0.3,1.6-0.9v-3.5
		c-0.5-0.4-1-0.5-1.4-0.5c-0.4,0-0.8,0.2-1.1,0.7c-0.3,0.4-0.4,1.1-0.4,1.9s0.1,1.4,0.4,1.8S92.9,106.9,93.3,106.9z"/>
	<path fill="#FFFFFF" d="M102.9,101.5c0.7,0.7,1,1.6,1,2.9s-0.3,2.2-1,2.9c-0.5,0.5-1.2,0.8-2,0.8c-0.8,0-1.5-0.3-2-0.8
		c-0.7-0.7-1-1.6-1-2.9s0.3-2.2,1-2.9c0.5-0.5,1.2-0.8,2-0.8C101.7,100.8,102.4,101,102.9,101.5z M99.3,104.4c0,1.7,0.5,2.6,1.6,2.6
		c1.1,0,1.6-0.9,1.6-2.6c0-0.5,0-0.9-0.1-1.3c-0.1-0.4-0.3-0.7-0.5-0.9c-0.2-0.3-0.6-0.4-1-0.4c-0.4,0-0.7,0.1-1,0.4
		c-0.2,0.3-0.4,0.6-0.5,0.9S99.3,103.9,99.3,104.4z"/>
	<path fill="#FFFFFF" d="M109.3,103.4c0-0.5-0.1-0.8-0.2-1.1c-0.1-0.2-0.4-0.3-0.7-0.3c-0.5,0-1.1,0.3-1.6,0.9v4.9
		c-0.2,0-0.4,0.1-0.7,0.1c-0.3,0-0.5,0-0.7-0.1V101l0.1-0.1h0.5c0.5,0,0.7,0.3,0.8,0.9c0.6-0.6,1.3-1,2-1s1.3,0.3,1.6,1
		c0.7-0.7,1.5-1,2.2-1c0.6,0,1,0.2,1.3,0.6c0.3,0.4,0.5,0.9,0.5,1.6v3.4c0,0.5,0.1,1,0.2,1.2c-0.2,0.2-0.5,0.3-0.9,0.3
		c-0.5,0-0.7-0.3-0.7-0.9v-3.7c0-0.5-0.1-0.8-0.2-1.1c-0.1-0.2-0.4-0.3-0.7-0.3c-0.6,0-1.1,0.3-1.6,0.9v4.9c-0.2,0-0.4,0.1-0.7,0.1
		c-0.3,0-0.5,0-0.7-0.1V103.4z"/>
	<path fill="#FFFFFF" d="M118,102.1v5.8c-0.2,0-0.4,0.1-0.7,0.1c-0.3,0-0.5,0-0.7-0.1v-5.2c0-0.3,0-0.4-0.1-0.5
		c-0.1-0.1-0.2-0.2-0.5-0.2h-0.2c0-0.1-0.1-0.3-0.1-0.5c0-0.2,0-0.3,0.1-0.5c0.3,0,0.6-0.1,0.8-0.1h0.2c0.3,0,0.6,0.1,0.8,0.3
		S118,101.7,118,102.1z M116,99.8l2-2.2c0.2,0.1,0.4,0.2,0.6,0.4c0.2,0.2,0.3,0.4,0.4,0.6l-2.4,1.9C116.3,100.2,116.1,100,116,99.8z
		"/>
	<path fill="#FFFFFF" d="M125.5,103.1v3.3c0,0.6,0.1,1,0.2,1.2c-0.2,0.2-0.5,0.3-0.8,0.3c-0.5,0-0.7-0.3-0.7-0.9v-3.6
		c0-0.5-0.1-0.9-0.2-1.1s-0.4-0.3-0.7-0.3c-0.3,0-0.7,0.1-1,0.3s-0.6,0.4-0.9,0.7v4.9c-0.2,0-0.4,0.1-0.7,0.1c-0.3,0-0.5,0-0.7-0.1
		V101l0.1-0.1h0.5c0.5,0,0.7,0.3,0.8,0.9c0.7-0.6,1.5-1,2.3-1c0.6,0,1.1,0.2,1.4,0.6C125.4,101.9,125.5,102.4,125.5,103.1z"/>
	<path fill="#FFFFFF" d="M129.1,102.1v5.8c-0.2,0-0.4,0.1-0.7,0.1c-0.3,0-0.5,0-0.7-0.1v-5.2c0-0.3,0-0.4-0.1-0.5
		c-0.1-0.1-0.2-0.2-0.5-0.2H127c0-0.1-0.1-0.3-0.1-0.5c0-0.2,0-0.3,0.1-0.5c0.3,0,0.6-0.1,0.8-0.1h0.2c0.3,0,0.6,0.1,0.8,0.3
		C129,101.4,129.1,101.7,129.1,102.1z M127.3,99c0-0.2,0-0.4,0.1-0.6c0.2-0.1,0.5-0.2,0.8-0.2s0.6,0.1,0.7,0.2
		c0.1,0.2,0.1,0.4,0.1,0.6c0,0.2,0,0.4-0.1,0.6c-0.2,0.1-0.4,0.2-0.7,0.2c-0.3,0-0.6-0.1-0.8-0.2C127.3,99.4,127.3,99.2,127.3,99z"
		/>
	<path fill="#FFFFFF" d="M135.7,101.5c0.7,0.7,1,1.6,1,2.9s-0.3,2.2-1,2.9c-0.5,0.5-1.2,0.8-2,0.8c-0.8,0-1.5-0.3-2-0.8
		c-0.7-0.7-1-1.6-1-2.9s0.3-2.2,1-2.9c0.5-0.5,1.2-0.8,2-0.8C134.5,100.8,135.2,101,135.7,101.5z M132.1,104.4
		c0,1.7,0.5,2.6,1.6,2.6c1.1,0,1.6-0.9,1.6-2.6c0-0.5,0-0.9-0.1-1.3c-0.1-0.4-0.3-0.7-0.5-0.9c-0.2-0.3-0.6-0.4-1-0.4
		c-0.4,0-0.7,0.1-1,0.4c-0.2,0.3-0.4,0.6-0.5,0.9S132.1,103.9,132.1,104.4z"/>
	<path fill="#FFFFFF" d="M143.2,108c-0.8,0-1.4-0.3-1.8-1c-0.4-0.6-0.6-1.5-0.6-2.7c0-1.1,0.3-2,0.8-2.6s1.2-0.9,1.9-0.9
		c0.5,0,1.1,0.2,1.6,0.5v-3.7l0.1-0.1h0.5c0.3,0,0.5,0.1,0.6,0.2c0.1,0.1,0.2,0.4,0.2,0.7v7.5c0,0.7,0.1,1.1,0.4,1.4
		c-0.1,0.3-0.3,0.6-0.5,0.7c-0.5-0.1-0.8-0.4-1-0.9C144.6,107.7,144,108,143.2,108z M143.5,106.9c0.6,0,1.1-0.3,1.6-0.9v-3.5
		c-0.5-0.4-1-0.5-1.4-0.5c-0.4,0-0.8,0.2-1.1,0.7c-0.3,0.4-0.4,1.1-0.4,1.9s0.1,1.4,0.4,1.8S143.1,106.9,143.5,106.9z"/>
	<path fill="#FFFFFF" d="M153,101.5c0.7,0.7,1,1.6,1,2.9s-0.3,2.2-1,2.9c-0.5,0.5-1.2,0.8-2,0.8c-0.8,0-1.5-0.3-2-0.8
		c-0.7-0.7-1-1.6-1-2.9s0.3-2.2,1-2.9c0.5-0.5,1.2-0.8,2-0.8C151.9,100.8,152.5,101,153,101.5z M149.4,104.4c0,1.7,0.5,2.6,1.6,2.6
		c1.1,0,1.6-0.9,1.6-2.6c0-0.5,0-0.9-0.1-1.3c-0.1-0.4-0.3-0.7-0.5-0.9c-0.2-0.3-0.6-0.4-1-0.4c-0.4,0-0.7,0.1-1,0.4
		c-0.2,0.3-0.4,0.6-0.5,0.9S149.4,103.9,149.4,104.4z"/>
	<path fill="#FFFFFF" d="M155,107.3c0-0.2,0.1-0.3,0.1-0.5s0.2-0.3,0.3-0.4c0.8,0.4,1.4,0.6,1.9,0.6c0.5,0,0.8-0.1,1.1-0.3
		s0.4-0.4,0.4-0.7c0-0.4-0.3-0.8-0.9-1l-0.8-0.3c-1.2-0.4-1.8-1.1-1.8-2c0-0.6,0.2-1.1,0.7-1.5c0.5-0.4,1.1-0.6,1.8-0.6
		s1.5,0.2,2.2,0.5c0,0.2,0,0.4-0.1,0.6s-0.2,0.3-0.3,0.4c-0.7-0.3-1.3-0.4-1.9-0.4c-0.3,0-0.6,0.1-0.8,0.2c-0.2,0.2-0.3,0.3-0.3,0.6
		s0.1,0.4,0.2,0.6c0.1,0.1,0.4,0.3,0.7,0.4l0.8,0.3c1.2,0.5,1.8,1.2,1.8,2.1c0,0.6-0.2,1.1-0.7,1.5c-0.5,0.4-1.2,0.6-2,0.6
		C156.6,108,155.7,107.8,155,107.3z"/>
	<path fill="#FFFFFF" d="M168.2,103.6c0,0,0-0.1,0-0.1c0-1.1-0.4-1.6-1.3-1.6c-0.5,0-0.8,0.2-1.1,0.7c-0.3,0.4-0.4,1.1-0.4,2
		c0,1.6,0.5,2.5,1.6,2.5c0.5,0,1.1-0.2,1.7-0.7c0.1,0.1,0.3,0.2,0.4,0.3c0.1,0.2,0.2,0.3,0.2,0.5c-0.7,0.7-1.5,1-2.5,1
		s-1.7-0.3-2.1-1c-0.5-0.7-0.7-1.6-0.7-2.7s0.3-2,0.8-2.6c0.6-0.6,1.2-0.9,2-0.9s1.4,0.2,1.9,0.7c0.4,0.4,0.7,0.9,0.7,1.4
		c0,0.5-0.2,0.8-0.7,0.8C168.6,103.6,168.4,103.6,168.2,103.6z"/>
	<path fill="#FFFFFF" d="M175.6,101.5c0.7,0.7,1,1.6,1,2.9s-0.3,2.2-1,2.9c-0.5,0.5-1.2,0.8-2,0.8c-0.8,0-1.5-0.3-2-0.8
		c-0.7-0.7-1-1.6-1-2.9s0.3-2.2,1-2.9c0.5-0.5,1.2-0.8,2-0.8C174.4,100.8,175,101,175.6,101.5z M171.9,104.4c0,1.7,0.5,2.6,1.6,2.6
		c1.1,0,1.6-0.9,1.6-2.6c0-0.5,0-0.9-0.1-1.3c-0.1-0.4-0.3-0.7-0.5-0.9c-0.2-0.3-0.6-0.4-1-0.4c-0.4,0-0.7,0.1-1,0.4
		c-0.2,0.3-0.4,0.6-0.5,0.9S171.9,103.9,171.9,104.4z"/>
	<path fill="#FFFFFF" d="M183.6,103.1v3.3c0,0.6,0.1,1,0.2,1.2c-0.2,0.2-0.5,0.3-0.8,0.3c-0.5,0-0.7-0.3-0.7-0.9v-3.6
		c0-0.5-0.1-0.9-0.2-1.1s-0.4-0.3-0.7-0.3c-0.3,0-0.7,0.1-1,0.3s-0.6,0.4-0.9,0.7v4.9c-0.2,0-0.4,0.1-0.7,0.1c-0.3,0-0.5,0-0.7-0.1
		V101l0.1-0.1h0.5c0.5,0,0.7,0.3,0.8,0.9c0.7-0.6,1.5-1,2.3-1c0.6,0,1.1,0.2,1.4,0.6C183.5,101.9,183.6,102.4,183.6,103.1z"/>
	<path fill="#FFFFFF" d="M189.3,103.6c0,0,0-0.1,0-0.1c0-1.1-0.4-1.6-1.3-1.6c-0.5,0-0.8,0.2-1.1,0.7c-0.3,0.4-0.4,1.1-0.4,2
		c0,1.6,0.5,2.5,1.6,2.5c0.5,0,1.1-0.2,1.7-0.7c0.1,0.1,0.3,0.2,0.4,0.3c0.1,0.2,0.2,0.3,0.2,0.5c-0.7,0.7-1.5,1-2.5,1
		s-1.7-0.3-2.1-1c-0.5-0.7-0.7-1.6-0.7-2.7s0.3-2,0.8-2.6c0.6-0.6,1.2-0.9,2-0.9s1.4,0.2,1.9,0.7c0.4,0.4,0.7,0.9,0.7,1.4
		c0,0.5-0.2,0.8-0.7,0.8C189.7,103.6,189.5,103.6,189.3,103.6z"/>
	<path fill="#FFFFFF" d="M197.2,104.8H193c0,0.7,0.2,1.2,0.4,1.5c0.3,0.4,0.7,0.5,1.3,0.5s1.2-0.2,1.9-0.5c0.2,0.2,0.4,0.5,0.4,0.9
		c-0.7,0.5-1.6,0.8-2.6,0.8c-1,0-1.7-0.3-2.2-1s-0.7-1.5-0.7-2.6s0.3-2,0.7-2.6c0.5-0.7,1.2-1,2.1-1c0.9,0,1.6,0.3,2.1,0.8
		c0.5,0.6,0.7,1.3,0.7,2.1C197.3,104.1,197.3,104.5,197.2,104.8z M195.6,102.3c-0.2-0.4-0.6-0.5-1.1-0.5c-0.5,0-0.8,0.2-1.1,0.5
		s-0.4,0.9-0.4,1.5h2.9v-0.2C196,103.1,195.9,102.6,195.6,102.3z"/>
	<path fill="#FFFFFF" d="M200.5,102.1v5.8c-0.2,0-0.4,0.1-0.7,0.1c-0.3,0-0.5,0-0.7-0.1v-5.2c0-0.3,0-0.4-0.1-0.5
		c-0.1-0.1-0.2-0.2-0.5-0.2h-0.2c0-0.1-0.1-0.3-0.1-0.5c0-0.2,0-0.3,0.1-0.5c0.3,0,0.6-0.1,0.8-0.1h0.2c0.3,0,0.6,0.1,0.8,0.3
		C200.4,101.4,200.5,101.7,200.5,102.1z M198.7,99c0-0.2,0-0.4,0.1-0.6c0.2-0.1,0.5-0.2,0.8-0.2s0.6,0.1,0.7,0.2
		c0.1,0.2,0.1,0.4,0.1,0.6c0,0.2,0,0.4-0.1,0.6c-0.2,0.1-0.4,0.2-0.7,0.2c-0.3,0-0.6-0.1-0.8-0.2C198.8,99.4,198.7,99.2,198.7,99z"
		/>
	<path fill="#FFFFFF" d="M205.9,100.9c0,0.2,0.1,0.3,0.1,0.5c0,0.2,0,0.3-0.1,0.5l-1.8,0v4.3c0,0.4,0.2,0.6,0.6,0.6h1
		c0.1,0.2,0.1,0.4,0.1,0.6s0,0.3,0,0.4c-0.5,0.1-1.1,0.1-1.5,0.1c-1,0-1.4-0.5-1.4-1.4v-4.6l-1,0c0-0.1-0.1-0.3-0.1-0.5
		c0-0.2,0-0.4,0.1-0.5l1,0v-1.3c0-0.3,0.1-0.5,0.2-0.7s0.3-0.2,0.6-0.2h0.5l0.1,0.1v2.1L205.9,100.9z"/>
	<path fill="#FFFFFF" d="M211.8,101.5c0.7,0.7,1,1.6,1,2.9s-0.3,2.2-1,2.9c-0.5,0.5-1.2,0.8-2,0.8c-0.8,0-1.5-0.3-2-0.8
		c-0.7-0.7-1-1.6-1-2.9s0.3-2.2,1-2.9c0.5-0.5,1.2-0.8,2-0.8C210.6,100.8,211.3,101,211.8,101.5z M208.2,104.4
		c0,1.7,0.5,2.6,1.6,2.6c1.1,0,1.6-0.9,1.6-2.6c0-0.5,0-0.9-0.1-1.3c-0.1-0.4-0.3-0.7-0.5-0.9c-0.2-0.3-0.6-0.4-1-0.4
		c-0.4,0-0.7,0.1-1,0.4c-0.2,0.3-0.4,0.6-0.5,0.9S208.2,103.9,208.2,104.4z"/>
	<path fill="#FFFFFF" d="M213.7,107.3c0-0.2,0.1-0.3,0.1-0.5s0.2-0.3,0.3-0.4c0.8,0.4,1.4,0.6,1.9,0.6c0.5,0,0.8-0.1,1.1-0.3
		s0.4-0.4,0.4-0.7c0-0.4-0.3-0.8-0.9-1l-0.8-0.3c-1.2-0.4-1.8-1.1-1.8-2c0-0.6,0.2-1.1,0.7-1.5c0.5-0.4,1.1-0.6,1.8-0.6
		s1.5,0.2,2.2,0.5c0,0.2,0,0.4-0.1,0.6s-0.2,0.3-0.3,0.4c-0.7-0.3-1.3-0.4-1.9-0.4c-0.3,0-0.6,0.1-0.8,0.2c-0.2,0.2-0.3,0.3-0.3,0.6
		s0.1,0.4,0.2,0.6c0.1,0.1,0.4,0.3,0.7,0.4l0.8,0.3c1.2,0.5,1.8,1.2,1.8,2.1c0,0.6-0.2,1.1-0.7,1.5c-0.5,0.4-1.2,0.6-2,0.6
		C215.3,108,214.5,107.8,213.7,107.3z"/>
	<path fill="#FFFFFF" d="M30.7,124.8c-0.8,0-1.4-0.3-1.8-1c-0.4-0.6-0.6-1.5-0.6-2.7c0-1.1,0.3-2,0.8-2.6s1.2-0.9,1.9-0.9
		c0.5,0,1.1,0.2,1.6,0.5v-3.7l0.1-0.1h0.5c0.3,0,0.5,0.1,0.6,0.2c0.1,0.1,0.2,0.4,0.2,0.7v7.5c0,0.7,0.1,1.1,0.4,1.4
		c-0.1,0.3-0.3,0.6-0.5,0.7c-0.5-0.1-0.8-0.4-1-0.9C32.2,124.5,31.5,124.8,30.7,124.8z M31,123.7c0.6,0,1.1-0.3,1.6-0.9v-3.5
		c-0.5-0.4-1-0.5-1.4-0.5c-0.4,0-0.8,0.2-1.1,0.7c-0.3,0.4-0.4,1.1-0.4,1.9s0.1,1.4,0.4,1.8S30.6,123.7,31,123.7z"/>
	<path fill="#FFFFFF" d="M41.1,121.6H37c0,0.7,0.2,1.2,0.4,1.5c0.3,0.4,0.7,0.5,1.3,0.5s1.2-0.2,1.9-0.5c0.2,0.2,0.4,0.5,0.4,0.9
		c-0.7,0.5-1.6,0.8-2.6,0.8c-1,0-1.7-0.3-2.2-1s-0.7-1.5-0.7-2.6s0.3-2,0.7-2.6c0.5-0.7,1.2-1,2.1-1c0.9,0,1.6,0.3,2.1,0.8
		c0.5,0.6,0.7,1.3,0.7,2.1C41.2,120.9,41.2,121.3,41.1,121.6z M39.6,119.1c-0.2-0.4-0.6-0.5-1.1-0.5c-0.5,0-0.8,0.2-1.1,0.5
		S37,120,37,120.6h2.9v-0.2C39.9,119.9,39.8,119.4,39.6,119.1z"/>
	<path fill="#FFFFFF" d="M46.1,124.6v-9.6c0.2,0,0.4-0.1,0.7-0.1c0.3,0,0.5,0,0.7,0.1v9.6c-0.2,0-0.4,0.1-0.7,0.1
		C46.5,124.7,46.3,124.7,46.1,124.6z"/>
	<path fill="#FFFFFF" d="M50.1,115.1l3,0c1,0,1.8,0.3,2.3,0.7c0.6,0.5,0.8,1.2,0.8,2.1c0,0.6-0.2,1.2-0.5,1.6
		c-0.3,0.4-0.8,0.8-1.3,0.9c0.4,0.1,0.7,0.5,1,1.2l0.6,1.7c0.2,0.5,0.4,0.8,0.6,1c-0.2,0.3-0.5,0.4-0.9,0.4c-0.3,0-0.4-0.1-0.6-0.2
		c-0.1-0.1-0.3-0.4-0.4-0.7l-0.7-1.9c-0.1-0.4-0.3-0.7-0.5-0.9s-0.5-0.3-0.9-0.3h-1.2v3.9c-0.2,0-0.4,0.1-0.7,0.1
		c-0.3,0-0.5,0-0.7-0.1L50.1,115.1L50.1,115.1z M51.4,116.1v3.5c0.5,0,1.1,0,1.7,0c0.6,0,1-0.2,1.3-0.5c0.3-0.3,0.4-0.7,0.4-1.2
		c0-1.2-0.6-1.7-1.8-1.7C52.2,116.1,51.7,116.1,51.4,116.1z"/>
	<path fill="#FFFFFF" d="M63.2,118.3c0,0,0-0.1,0-0.3s-0.1-0.4-0.2-0.8c-0.1-0.3-0.3-0.6-0.6-0.8c-0.3-0.2-0.7-0.4-1.2-0.4
		c-0.8,0-1.3,0.3-1.7,1c-0.4,0.7-0.6,1.6-0.6,2.8c0,1.2,0.2,2.2,0.6,2.8c0.4,0.6,1,1,1.8,1c0.8,0,1.6-0.4,2.5-1.1
		c0.4,0.2,0.6,0.5,0.7,0.9c-0.4,0.4-0.9,0.7-1.5,1s-1.2,0.4-1.9,0.4c-0.7,0-1.2-0.1-1.7-0.4c-0.5-0.3-0.9-0.6-1.1-1.1
		c-0.5-0.9-0.8-2.1-0.8-3.4c0-1.7,0.4-2.9,1.1-3.7s1.6-1.3,2.6-1.3c1,0,1.9,0.3,2.5,0.8c0.6,0.5,0.9,1.2,0.9,1.9
		c0,0.5-0.3,0.8-0.8,0.8C63.6,118.4,63.4,118.4,63.2,118.3z"/>
	<path fill="#FFFFFF" d="M74.2,121.6H70c0,0.7,0.2,1.2,0.4,1.5c0.3,0.4,0.7,0.5,1.3,0.5s1.2-0.2,1.9-0.5c0.2,0.2,0.4,0.5,0.4,0.9
		c-0.7,0.5-1.6,0.8-2.6,0.8c-1,0-1.7-0.3-2.2-1s-0.7-1.5-0.7-2.6s0.3-2,0.7-2.6c0.5-0.7,1.2-1,2.1-1c0.9,0,1.6,0.3,2.1,0.8
		c0.5,0.6,0.7,1.3,0.7,2.1C74.3,120.9,74.2,121.3,74.2,121.6z M72.6,119.1c-0.2-0.4-0.6-0.5-1.1-0.5c-0.5,0-0.8,0.2-1.1,0.5
		S70,120,70,120.6H73v-0.2C73,119.9,72.8,119.4,72.6,119.1z"/>
	<path fill="#FFFFFF" d="M83.4,118.3c0.7,0.7,1,1.6,1,2.9s-0.3,2.2-1,2.9c-0.5,0.5-1.2,0.8-2,0.8c-0.8,0-1.5-0.3-2-0.8
		c-0.7-0.7-1-1.6-1-2.9s0.3-2.2,1-2.9c0.5-0.5,1.2-0.8,2-0.8C82.3,117.6,82.9,117.8,83.4,118.3z M79.8,121.2c0,1.7,0.5,2.6,1.6,2.6
		c1.1,0,1.6-0.9,1.6-2.6c0-0.5,0-0.9-0.1-1.3c-0.1-0.4-0.3-0.7-0.5-0.9c-0.2-0.3-0.6-0.4-1-0.4c-0.4,0-0.7,0.1-1,0.4
		c-0.2,0.3-0.4,0.6-0.5,0.9S79.8,120.7,79.8,121.2z"/>
	<path fill="#FFFFFF" d="M85.4,124.1c0-0.2,0.1-0.3,0.1-0.5s0.2-0.3,0.3-0.4c0.8,0.4,1.4,0.6,1.9,0.6c0.5,0,0.8-0.1,1.1-0.3
		s0.4-0.4,0.4-0.7c0-0.4-0.3-0.8-0.9-1l-0.8-0.3c-1.2-0.4-1.8-1.1-1.8-2c0-0.6,0.2-1.1,0.7-1.5c0.5-0.4,1.1-0.6,1.8-0.6
		s1.5,0.2,2.2,0.5c0,0.2,0,0.4-0.1,0.6s-0.2,0.3-0.3,0.4c-0.7-0.3-1.3-0.4-1.9-0.4c-0.3,0-0.6,0.1-0.8,0.2c-0.2,0.2-0.3,0.3-0.3,0.6
		s0.1,0.4,0.2,0.6c0.1,0.1,0.4,0.3,0.7,0.4l0.8,0.3c1.2,0.5,1.8,1.2,1.8,2.1c0,0.6-0.2,1.1-0.7,1.5c-0.5,0.4-1.2,0.6-2,0.6
		C86.9,124.8,86.1,124.6,85.4,124.1z"/>
	<path fill="#FFFFFF" d="M96.5,118.9v5.8c-0.2,0-0.4,0.1-0.7,0.1c-0.3,0-0.5,0-0.7-0.1v-5.2c0-0.3,0-0.4-0.1-0.5
		c-0.1-0.1-0.2-0.2-0.5-0.2h-0.2c0-0.1-0.1-0.3-0.1-0.5c0-0.2,0-0.3,0.1-0.5c0.3,0,0.6-0.1,0.8-0.1h0.2c0.3,0,0.6,0.1,0.8,0.3
		C96.4,118.2,96.5,118.5,96.5,118.9z M94.7,115.8c0-0.2,0-0.4,0.1-0.6c0.2-0.1,0.5-0.2,0.8-0.2s0.6,0.1,0.7,0.2
		c0.1,0.2,0.1,0.4,0.1,0.6c0,0.2,0,0.4-0.1,0.6c-0.2,0.1-0.4,0.2-0.7,0.2c-0.3,0-0.6-0.1-0.8-0.2C94.7,116.2,94.7,116,94.7,115.8z"
		/>
	<path fill="#FFFFFF" d="M102.4,120.2c0-0.5-0.1-0.8-0.2-1.1c-0.1-0.2-0.4-0.3-0.7-0.3c-0.5,0-1.1,0.3-1.6,0.9v4.9
		c-0.2,0-0.4,0.1-0.7,0.1c-0.3,0-0.5,0-0.7-0.1v-6.9l0.1-0.1h0.5c0.5,0,0.7,0.3,0.8,0.9c0.6-0.6,1.3-1,2-1s1.3,0.3,1.6,1
		c0.7-0.7,1.5-1,2.2-1c0.6,0,1,0.2,1.3,0.6c0.3,0.4,0.5,0.9,0.5,1.6v3.4c0,0.5,0.1,1,0.2,1.2c-0.2,0.2-0.5,0.3-0.9,0.3
		c-0.5,0-0.7-0.3-0.7-0.9v-3.7c0-0.5-0.1-0.8-0.2-1.1c-0.1-0.2-0.4-0.3-0.7-0.3c-0.6,0-1.1,0.3-1.6,0.9v4.9c-0.2,0-0.4,0.1-0.7,0.1
		c-0.3,0-0.5,0-0.7-0.1V120.2z"/>
	<path fill="#FFFFFF" d="M112.8,117.6c0.8,0,1.3,0.3,1.8,1c0.4,0.6,0.6,1.5,0.6,2.7c0,1.1-0.3,2-0.8,2.6s-1.2,0.9-1.9,0.9
		c-0.6,0-1.1-0.2-1.7-0.5v2.5c0,0.3-0.1,0.5-0.2,0.7c-0.1,0.1-0.3,0.2-0.6,0.2h-0.5l-0.1-0.1v-9.8l0.1-0.1h0.4
		c0.4,0,0.7,0.2,0.8,0.7C111.4,117.8,112.1,117.6,112.8,117.6z M112.5,118.7c-0.7,0-1.2,0.3-1.6,1v3.4c0.5,0.4,1,0.5,1.4,0.5
		c0.4,0,0.8-0.2,1.1-0.7c0.3-0.4,0.4-1.1,0.4-1.9s-0.1-1.4-0.4-1.8C113.2,118.9,112.9,118.7,112.5,118.7z"/>
	<path fill="#FFFFFF" d="M122.1,124c-0.1,0.3-0.3,0.6-0.5,0.7c-0.5-0.1-0.9-0.4-1.1-0.9c-0.7,0.7-1.4,1-2.1,1s-1.2-0.2-1.6-0.6
		c-0.4-0.4-0.5-0.9-0.5-1.4c0-0.8,0.2-1.3,0.7-1.7c0.5-0.4,1.1-0.6,1.9-0.6c0.5,0,0.9,0,1.4,0.1V120c0-0.8-0.4-1.3-1.2-1.3
		c-0.6,0-1.3,0.2-2.2,0.5c-0.3-0.3-0.4-0.6-0.4-1c1-0.4,1.9-0.6,2.9-0.6c0.7,0,1.3,0.2,1.7,0.6c0.4,0.4,0.6,1,0.6,1.8v2.9
		C121.7,123.4,121.9,123.8,122.1,124z M118.7,123.7c0.6,0,1.2-0.3,1.7-0.9v-1.3c-0.4,0-0.8-0.1-1.3-0.1c-0.5,0-0.8,0.1-1.1,0.3
		c-0.2,0.2-0.4,0.5-0.4,0.9c0,0.4,0.1,0.6,0.3,0.8S118.4,123.7,118.7,123.7z"/>
	<path fill="#FFFFFF" d="M127.3,120.4c0,0,0-0.1,0-0.1c0-1.1-0.4-1.6-1.3-1.6c-0.5,0-0.8,0.2-1.1,0.7c-0.3,0.4-0.4,1.1-0.4,2
		c0,1.6,0.5,2.5,1.6,2.5c0.5,0,1.1-0.2,1.7-0.7c0.1,0.1,0.3,0.2,0.4,0.3c0.1,0.2,0.2,0.3,0.2,0.5c-0.7,0.7-1.5,1-2.5,1
		s-1.7-0.3-2.1-1c-0.5-0.7-0.7-1.6-0.7-2.7s0.3-2,0.8-2.6c0.6-0.6,1.2-0.9,2-0.9s1.4,0.2,1.9,0.7c0.4,0.4,0.7,0.9,0.7,1.4
		c0,0.5-0.2,0.8-0.7,0.8C127.6,120.4,127.4,120.4,127.3,120.4z"/>
	<path fill="#FFFFFF" d="M133.4,117.7c0,0.2,0.1,0.3,0.1,0.5c0,0.2,0,0.3-0.1,0.5l-1.8,0v4.3c0,0.4,0.2,0.6,0.6,0.6h1
		c0.1,0.2,0.1,0.4,0.1,0.6s0,0.3,0,0.4c-0.5,0.1-1.1,0.1-1.5,0.1c-1,0-1.4-0.5-1.4-1.4v-4.6l-1,0c0-0.1-0.1-0.3-0.1-0.5
		c0-0.2,0-0.4,0.1-0.5l1,0v-1.3c0-0.3,0.1-0.5,0.2-0.7s0.3-0.2,0.6-0.2h0.5l0.1,0.1v2.1L133.4,117.7z"/>
	<path fill="#FFFFFF" d="M139.3,118.3c0.7,0.7,1,1.6,1,2.9s-0.3,2.2-1,2.9c-0.5,0.5-1.2,0.8-2,0.8c-0.8,0-1.5-0.3-2-0.8
		c-0.7-0.7-1-1.6-1-2.9s0.3-2.2,1-2.9c0.5-0.5,1.2-0.8,2-0.8C138.1,117.6,138.8,117.8,139.3,118.3z M135.7,121.2
		c0,1.7,0.5,2.6,1.6,2.6c1.1,0,1.6-0.9,1.6-2.6c0-0.5,0-0.9-0.1-1.3c-0.1-0.4-0.3-0.7-0.5-0.9c-0.2-0.3-0.6-0.4-1-0.4
		c-0.4,0-0.7,0.1-1,0.4c-0.2,0.3-0.4,0.6-0.5,0.9S135.7,120.7,135.7,121.2z"/>
	<path fill="#FFFFFF" d="M141.2,124.1c0-0.2,0.1-0.3,0.1-0.5s0.2-0.3,0.3-0.4c0.8,0.4,1.4,0.6,1.9,0.6c0.5,0,0.8-0.1,1.1-0.3
		s0.4-0.4,0.4-0.7c0-0.4-0.3-0.8-0.9-1l-0.8-0.3c-1.2-0.4-1.8-1.1-1.8-2c0-0.6,0.2-1.1,0.7-1.5c0.5-0.4,1.1-0.6,1.8-0.6
		s1.5,0.2,2.2,0.5c0,0.2,0,0.4-0.1,0.6s-0.2,0.3-0.3,0.4c-0.7-0.3-1.3-0.4-1.9-0.4c-0.3,0-0.6,0.1-0.8,0.2c-0.2,0.2-0.3,0.3-0.3,0.6
		s0.1,0.4,0.2,0.6c0.1,0.1,0.4,0.3,0.7,0.4l0.8,0.3c1.2,0.5,1.8,1.2,1.8,2.1c0,0.6-0.2,1.1-0.7,1.5c-0.5,0.4-1.2,0.6-2,0.6
		C142.8,124.8,142,124.6,141.2,124.1z"/>
	<path fill="#FFFFFF" d="M156.3,119.9v3.3c0,0.6,0.1,1,0.2,1.2c-0.2,0.2-0.5,0.3-0.8,0.3c-0.5,0-0.7-0.3-0.7-0.9v-3.6
		c0-0.5-0.1-0.9-0.2-1.1s-0.4-0.3-0.7-0.3c-0.3,0-0.7,0.1-1,0.3s-0.6,0.4-0.9,0.7v4.9c-0.2,0-0.4,0.1-0.7,0.1c-0.3,0-0.5,0-0.7-0.1
		v-6.9l0.1-0.1h0.5c0.5,0,0.7,0.3,0.8,0.9c0.7-0.6,1.5-1,2.3-1c0.6,0,1.1,0.2,1.4,0.6C156.1,118.7,156.3,119.2,156.3,119.9z"/>
	<path fill="#FFFFFF" d="M162.9,118.3c0.7,0.7,1,1.6,1,2.9s-0.3,2.2-1,2.9c-0.5,0.5-1.2,0.8-2,0.8c-0.8,0-1.5-0.3-2-0.8
		c-0.7-0.7-1-1.6-1-2.9s0.3-2.2,1-2.9c0.5-0.5,1.2-0.8,2-0.8C161.7,117.6,162.4,117.8,162.9,118.3z M159.3,121.2
		c0,1.7,0.5,2.6,1.6,2.6c1.1,0,1.6-0.9,1.6-2.6c0-0.5,0-0.9-0.1-1.3c-0.1-0.4-0.3-0.7-0.5-0.9c-0.2-0.3-0.6-0.4-1-0.4
		c-0.4,0-0.7,0.1-1,0.4c-0.2,0.3-0.4,0.6-0.5,0.9S159.3,120.7,159.3,121.2z"/>
	<path fill="#FFFFFF" d="M173.9,119.9v3.3c0,0.6,0.1,1,0.2,1.2c-0.2,0.2-0.5,0.3-0.8,0.3c-0.5,0-0.7-0.3-0.7-0.9v-3.6
		c0-0.5-0.1-0.9-0.2-1.1s-0.4-0.3-0.7-0.3c-0.3,0-0.7,0.1-1,0.3s-0.6,0.4-0.9,0.7v4.9c-0.2,0-0.4,0.1-0.7,0.1c-0.3,0-0.5,0-0.7-0.1
		v-6.9l0.1-0.1h0.5c0.5,0,0.7,0.3,0.8,0.9c0.7-0.6,1.5-1,2.3-1c0.6,0,1.1,0.2,1.4,0.6C173.7,118.7,173.9,119.2,173.9,119.9z"/>
	<path fill="#FFFFFF" d="M181,121.6h-4.2c0,0.7,0.2,1.2,0.4,1.5c0.3,0.4,0.7,0.5,1.3,0.5s1.2-0.2,1.9-0.5c0.2,0.2,0.4,0.5,0.4,0.9
		c-0.7,0.5-1.6,0.8-2.6,0.8c-1,0-1.7-0.3-2.2-1s-0.7-1.5-0.7-2.6s0.3-2,0.7-2.6c0.5-0.7,1.2-1,2.1-1c0.9,0,1.6,0.3,2.1,0.8
		c0.5,0.6,0.7,1.3,0.7,2.1C181.1,120.9,181.1,121.3,181,121.6z M179.4,119.1c-0.2-0.4-0.6-0.5-1.1-0.5c-0.5,0-0.8,0.2-1.1,0.5
		s-0.4,0.9-0.4,1.5h2.9v-0.2C179.8,119.9,179.7,119.4,179.4,119.1z"/>
	<path fill="#FFFFFF" d="M184.7,124.8c-0.7,0-1.3-0.3-1.7-1c-0.4-0.6-0.6-1.5-0.6-2.7s0.3-2,0.8-2.6s1.2-0.9,1.9-0.9
		c0.7,0,1.4,0.2,1.9,0.7c0.2-0.3,0.5-0.6,0.9-0.7c0.3,0.1,0.4,0.4,0.5,0.7c-0.3,0.2-0.4,0.7-0.4,1.4v4.2c0,1.4-0.2,2.4-0.7,2.9
		c-0.5,0.6-1.3,0.9-2.3,0.9c-0.8,0-1.6-0.2-2.4-0.5c0-0.4,0.1-0.8,0.4-1c0.6,0.3,1.3,0.4,1.9,0.4c0.7,0,1.1-0.2,1.4-0.5
		s0.4-0.9,0.4-1.5V124C186.1,124.5,185.4,124.8,184.7,124.8z M186.6,122.7v-3.4c-0.5-0.4-1-0.7-1.4-0.7s-0.8,0.2-1.1,0.6
		s-0.4,1.1-0.4,1.9s0.1,1.4,0.4,1.8c0.2,0.4,0.6,0.6,0.9,0.6C185.6,123.6,186.2,123.3,186.6,122.7z"/>
	<path fill="#FFFFFF" d="M194.6,118.3c0.7,0.7,1,1.6,1,2.9s-0.3,2.2-1,2.9c-0.5,0.5-1.2,0.8-2,0.8c-0.8,0-1.5-0.3-2-0.8
		c-0.7-0.7-1-1.6-1-2.9s0.3-2.2,1-2.9c0.5-0.5,1.2-0.8,2-0.8C193.4,117.6,194.1,117.8,194.6,118.3z M191,121.2
		c0,1.7,0.5,2.6,1.6,2.6c1.1,0,1.6-0.9,1.6-2.6c0-0.5,0-0.9-0.1-1.3c-0.1-0.4-0.3-0.7-0.5-0.9c-0.2-0.3-0.6-0.4-1-0.4
		c-0.4,0-0.7,0.1-1,0.4c-0.2,0.3-0.4,0.6-0.5,0.9S191,120.7,191,121.2z M191.5,116.6l2-2.2c0.2,0.1,0.4,0.2,0.6,0.4
		c0.2,0.2,0.3,0.4,0.4,0.6l-2.4,1.9C191.8,117,191.6,116.8,191.5,116.6z"/>
	<path fill="#FFFFFF" d="M200.9,120.4c0,0,0-0.1,0-0.1c0-1.1-0.4-1.6-1.3-1.6c-0.5,0-0.8,0.2-1.1,0.7c-0.3,0.4-0.4,1.1-0.4,2
		c0,1.6,0.5,2.5,1.6,2.5c0.5,0,1.1-0.2,1.7-0.7c0.1,0.1,0.3,0.2,0.4,0.3c0.1,0.2,0.2,0.3,0.2,0.5c-0.7,0.7-1.5,1-2.5,1
		s-1.7-0.3-2.1-1c-0.5-0.7-0.7-1.6-0.7-2.7s0.3-2,0.8-2.6c0.6-0.6,1.2-0.9,2-0.9s1.4,0.2,1.9,0.7c0.4,0.4,0.7,0.9,0.7,1.4
		c0,0.5-0.2,0.8-0.7,0.8C201.2,120.4,201,120.4,200.9,120.4z"/>
	<path fill="#FFFFFF" d="M205.3,118.9v5.8c-0.2,0-0.4,0.1-0.7,0.1c-0.3,0-0.5,0-0.7-0.1v-5.2c0-0.3,0-0.4-0.1-0.5
		c-0.1-0.1-0.2-0.2-0.5-0.2h-0.2c0-0.1-0.1-0.3-0.1-0.5c0-0.2,0-0.3,0.1-0.5c0.3,0,0.6-0.1,0.8-0.1h0.2c0.3,0,0.6,0.1,0.8,0.3
		C205.2,118.2,205.3,118.5,205.3,118.9z M203.5,115.8c0-0.2,0-0.4,0.1-0.6c0.2-0.1,0.5-0.2,0.8-0.2s0.6,0.1,0.7,0.2
		c0.1,0.2,0.1,0.4,0.1,0.6c0,0.2,0,0.4-0.1,0.6c-0.2,0.1-0.4,0.2-0.7,0.2c-0.3,0-0.6-0.1-0.8-0.2C203.6,116.2,203.5,116,203.5,115.8
		z"/>
	<path fill="#FFFFFF" d="M211.9,118.3c0.7,0.7,1,1.6,1,2.9s-0.3,2.2-1,2.9c-0.5,0.5-1.2,0.8-2,0.8c-0.8,0-1.5-0.3-2-0.8
		c-0.7-0.7-1-1.6-1-2.9s0.3-2.2,1-2.9c0.5-0.5,1.2-0.8,2-0.8C210.7,117.6,211.4,117.8,211.9,118.3z M208.3,121.2
		c0,1.7,0.5,2.6,1.6,2.6c1.1,0,1.6-0.9,1.6-2.6c0-0.5,0-0.9-0.1-1.3c-0.1-0.4-0.3-0.7-0.5-0.9c-0.2-0.3-0.6-0.4-1-0.4
		c-0.4,0-0.7,0.1-1,0.4c-0.2,0.3-0.4,0.6-0.5,0.9S208.3,120.7,208.3,121.2z"/>
	<path fill="#FFFFFF" d="M214.2,126.9c-0.2-0.1-0.3-0.3-0.3-0.6c0,0,0-0.1,0-0.1c0.3-0.1,0.6-0.3,0.8-0.6s0.3-0.5,0.3-0.8
		c-0.3-0.1-0.5-0.1-0.5-0.2c-0.1-0.1-0.1-0.4-0.1-0.7s0-0.5,0.1-0.7c0.2-0.1,0.5-0.2,0.9-0.2c0.3,0,0.6,0.1,0.8,0.2
		c0.1,0.2,0.1,0.5,0.1,0.9c0,0.6-0.2,1.2-0.5,1.7C215.4,126.3,214.9,126.6,214.2,126.9z"/>
	<path fill="#FFFFFF" d="M51.7,135.7v5.8c-0.2,0-0.4,0.1-0.7,0.1c-0.3,0-0.5,0-0.7-0.1v-5.2c0-0.3,0-0.4-0.1-0.5
		c-0.1-0.1-0.2-0.2-0.5-0.2h-0.2c0-0.1-0.1-0.3-0.1-0.5c0-0.2,0-0.3,0.1-0.5c0.3,0,0.6-0.1,0.8-0.1h0.2c0.3,0,0.6,0.1,0.8,0.3
		C51.6,135,51.7,135.3,51.7,135.7z M49.9,132.6c0-0.2,0-0.4,0.1-0.6c0.2-0.1,0.5-0.2,0.8-0.2s0.6,0.1,0.7,0.2
		c0.1,0.2,0.1,0.4,0.1,0.6c0,0.2,0,0.4-0.1,0.6c-0.2,0.1-0.4,0.2-0.7,0.2c-0.3,0-0.6-0.1-0.8-0.2C49.9,133,49.9,132.8,49.9,132.6z"
		/>
	<path fill="#FFFFFF" d="M55.7,141.6c-0.8,0-1.4-0.3-1.8-1c-0.4-0.6-0.6-1.5-0.6-2.7c0-1.1,0.3-2,0.8-2.6s1.2-0.9,1.9-0.9
		c0.5,0,1.1,0.2,1.6,0.5v-3.7l0.1-0.1h0.5c0.3,0,0.5,0.1,0.6,0.2c0.1,0.1,0.2,0.4,0.2,0.7v7.5c0,0.7,0.1,1.1,0.4,1.4
		c-0.1,0.3-0.3,0.6-0.5,0.7c-0.5-0.1-0.8-0.4-1-0.9C57.2,141.3,56.5,141.6,55.7,141.6z M56,140.5c0.6,0,1.1-0.3,1.6-0.9V136
		c-0.5-0.4-1-0.5-1.4-0.5c-0.4,0-0.8,0.2-1.1,0.7c-0.3,0.4-0.4,1.1-0.4,1.9s0.1,1.4,0.4,1.8S55.6,140.5,56,140.5z"/>
	<path fill="#FFFFFF" d="M66.1,138.4h-4.2c0,0.7,0.2,1.2,0.4,1.5c0.3,0.4,0.7,0.5,1.3,0.5c0.6,0,1.2-0.2,1.9-0.5
		c0.2,0.2,0.4,0.5,0.4,0.9c-0.7,0.5-1.6,0.8-2.6,0.8c-1,0-1.7-0.3-2.2-1s-0.7-1.5-0.7-2.6s0.3-2,0.7-2.6c0.5-0.7,1.2-1,2.1-1
		c0.9,0,1.6,0.3,2.1,0.8c0.5,0.6,0.7,1.3,0.7,2.1C66.2,137.7,66.2,138.1,66.1,138.4z M64.5,135.9c-0.2-0.4-0.6-0.5-1.1-0.5
		c-0.5,0-0.8,0.2-1.1,0.5s-0.4,0.9-0.4,1.5h2.9v-0.2C64.9,136.7,64.8,136.2,64.5,135.9z"/>
	<path fill="#FFFFFF" d="M73.4,136.7v3.3c0,0.6,0.1,1,0.2,1.2c-0.2,0.2-0.5,0.3-0.8,0.3c-0.5,0-0.7-0.3-0.7-0.9V137
		c0-0.5-0.1-0.9-0.2-1.1s-0.4-0.3-0.7-0.3c-0.3,0-0.7,0.1-1,0.3s-0.6,0.4-0.9,0.7v4.9c-0.2,0-0.4,0.1-0.7,0.1c-0.3,0-0.5,0-0.7-0.1
		v-6.9l0.1-0.1h0.5c0.5,0,0.7,0.3,0.8,0.9c0.7-0.6,1.5-1,2.3-1c0.6,0,1.1,0.2,1.4,0.6C73.2,135.5,73.4,136,73.4,136.7z"/>
	<path fill="#FFFFFF" d="M78.7,134.5c0,0.2,0.1,0.3,0.1,0.5c0,0.2,0,0.3-0.1,0.5l-1.8,0v4.3c0,0.4,0.2,0.6,0.6,0.6h1
		c0.1,0.2,0.1,0.4,0.1,0.6s0,0.3,0,0.4c-0.5,0.1-1.1,0.1-1.5,0.1c-1,0-1.4-0.5-1.4-1.4v-4.6l-1,0c0-0.1-0.1-0.3-0.1-0.5
		c0-0.2,0-0.4,0.1-0.5l1,0v-1.3c0-0.3,0.1-0.5,0.2-0.7s0.3-0.2,0.6-0.2h0.5l0.1,0.1v2.1L78.7,134.5z"/>
	<path fill="#FFFFFF" d="M81.8,135.7v5.8c-0.2,0-0.4,0.1-0.7,0.1c-0.3,0-0.5,0-0.7-0.1v-5.2c0-0.3,0-0.4-0.1-0.5
		c-0.1-0.1-0.2-0.2-0.5-0.2h-0.2c0-0.1-0.1-0.3-0.1-0.5c0-0.2,0-0.3,0.1-0.5c0.3,0,0.6-0.1,0.8-0.1h0.2c0.3,0,0.6,0.1,0.8,0.3
		C81.8,135,81.8,135.3,81.8,135.7z M80.1,132.6c0-0.2,0-0.4,0.1-0.6c0.2-0.1,0.5-0.2,0.8-0.2s0.6,0.1,0.7,0.2
		c0.1,0.2,0.1,0.4,0.1,0.6c0,0.2,0,0.4-0.1,0.6c-0.2,0.1-0.4,0.2-0.7,0.2c-0.3,0-0.6-0.1-0.8-0.2C80.1,133,80.1,132.8,80.1,132.6z"
		/>
	<path fill="#FFFFFF" d="M84.2,141.4v-5.9l-1.2,0c0-0.2-0.1-0.4-0.1-0.5c0-0.1,0-0.3,0.1-0.5l1.1,0c-0.1-0.5-0.1-1-0.1-1.3
		c0-0.6,0.2-1.1,0.6-1.5s0.9-0.6,1.5-0.6s1.2,0.1,1.8,0.3c0,0.4-0.1,0.7-0.3,0.9c-0.5-0.1-0.9-0.2-1.2-0.2s-0.6,0.1-0.8,0.3
		s-0.3,0.5-0.3,0.9c0,0.4,0,0.8,0.1,1.3l2,0c0,0.2,0.1,0.4,0.1,0.5c0,0.1,0,0.3-0.1,0.5l-1.9,0v5.9c-0.2,0-0.4,0.1-0.7,0.1
		C84.6,141.5,84.4,141.5,84.2,141.4z"/>
	<path fill="#FFFFFF" d="M90.5,135.7v5.8c-0.2,0-0.4,0.1-0.7,0.1c-0.3,0-0.5,0-0.7-0.1v-5.2c0-0.3,0-0.4-0.1-0.5
		c-0.1-0.1-0.2-0.2-0.5-0.2h-0.2c0-0.1-0.1-0.3-0.1-0.5c0-0.2,0-0.3,0.1-0.5c0.3,0,0.6-0.1,0.8-0.1h0.2c0.3,0,0.6,0.1,0.8,0.3
		C90.4,135,90.5,135.3,90.5,135.7z M88.7,132.6c0-0.2,0-0.4,0.1-0.6c0.2-0.1,0.5-0.2,0.8-0.2s0.6,0.1,0.7,0.2
		c0.1,0.2,0.1,0.4,0.1,0.6c0,0.2,0,0.4-0.1,0.6c-0.2,0.1-0.4,0.2-0.7,0.2c-0.3,0-0.6-0.1-0.8-0.2C88.8,133,88.7,132.8,88.7,132.6z"
		/>
	<path fill="#FFFFFF" d="M96.3,137.2c0,0,0-0.1,0-0.1c0-1.1-0.4-1.6-1.3-1.6c-0.5,0-0.8,0.2-1.1,0.7c-0.3,0.4-0.4,1.1-0.4,2
		c0,1.6,0.5,2.5,1.6,2.5c0.5,0,1.1-0.2,1.7-0.7c0.1,0.1,0.3,0.2,0.4,0.3c0.1,0.2,0.2,0.3,0.2,0.5c-0.7,0.7-1.5,1-2.5,1
		s-1.7-0.3-2.1-1c-0.5-0.7-0.7-1.6-0.7-2.7s0.3-2,0.8-2.6c0.6-0.6,1.2-0.9,2-0.9s1.4,0.2,1.9,0.7c0.4,0.4,0.7,0.9,0.7,1.4
		c0,0.5-0.2,0.8-0.7,0.8C96.6,137.2,96.4,137.2,96.3,137.2z"/>
	<path fill="#FFFFFF" d="M104.3,140.8c-0.1,0.3-0.3,0.6-0.5,0.7c-0.5-0.1-0.9-0.4-1.1-0.9c-0.7,0.7-1.4,1-2.1,1s-1.2-0.2-1.6-0.6
		c-0.4-0.4-0.5-0.9-0.5-1.4c0-0.8,0.2-1.3,0.7-1.7c0.5-0.4,1.1-0.6,1.9-0.6c0.5,0,0.9,0,1.4,0.1v-0.6c0-0.8-0.4-1.3-1.2-1.3
		c-0.6,0-1.3,0.2-2.2,0.5c-0.3-0.3-0.4-0.6-0.4-1c1-0.4,1.9-0.6,2.9-0.6c0.7,0,1.3,0.2,1.7,0.6c0.4,0.4,0.6,1,0.6,1.8v2.9
		C103.9,140.2,104.1,140.6,104.3,140.8z M100.9,140.5c0.6,0,1.2-0.3,1.7-0.9v-1.3c-0.4,0-0.8-0.1-1.3-0.1c-0.5,0-0.8,0.1-1.1,0.3
		c-0.2,0.2-0.4,0.5-0.4,0.9c0,0.4,0.1,0.6,0.3,0.8S100.6,140.5,100.9,140.5z"/>
	<path fill="#FFFFFF" d="M105.6,135.2c0.1-0.3,0.2-0.6,0.5-0.7c0.6,0.1,1,0.6,1.2,1.2c0.4-0.8,1-1.2,1.8-1.2c0.2,0,0.5,0,0.7,0.1
		c0,0.5-0.1,0.9-0.3,1.3c-0.1,0-0.2,0-0.6-0.1c-0.7,0-1.2,0.4-1.5,1.1v4.6c-0.2,0-0.4,0.1-0.7,0.1s-0.5,0-0.7-0.1v-4.8
		C106.1,136,105.9,135.5,105.6,135.2z"/>
	<path fill="#FFFFFF" d="M119.2,140.8c-0.1,0.3-0.3,0.6-0.5,0.7c-0.5-0.1-0.9-0.4-1.1-0.9c-0.7,0.7-1.4,1-2.1,1s-1.2-0.2-1.6-0.6
		c-0.4-0.4-0.5-0.9-0.5-1.4c0-0.8,0.2-1.3,0.7-1.7c0.5-0.4,1.1-0.6,1.9-0.6c0.5,0,0.9,0,1.4,0.1v-0.6c0-0.8-0.4-1.3-1.2-1.3
		c-0.6,0-1.3,0.2-2.2,0.5c-0.3-0.3-0.4-0.6-0.4-1c1-0.4,1.9-0.6,2.9-0.6c0.7,0,1.3,0.2,1.7,0.6c0.4,0.4,0.6,1,0.6,1.8v2.9
		C118.8,140.2,118.9,140.6,119.2,140.8z M115.7,140.5c0.6,0,1.2-0.3,1.7-0.9v-1.3c-0.4,0-0.8-0.1-1.3-0.1c-0.5,0-0.8,0.1-1.1,0.3
		c-0.2,0.2-0.4,0.5-0.4,0.9c0,0.4,0.1,0.6,0.3,0.8S115.4,140.5,115.7,140.5z"/>
	<path fill="#FFFFFF" d="M127.6,137c0-0.5-0.1-0.8-0.2-1.1c-0.1-0.2-0.4-0.3-0.7-0.3c-0.5,0-1.1,0.3-1.6,0.9v4.9
		c-0.2,0-0.4,0.1-0.7,0.1c-0.3,0-0.5,0-0.7-0.1v-6.9l0.1-0.1h0.5c0.5,0,0.7,0.3,0.8,0.9c0.6-0.6,1.3-1,2-1s1.3,0.3,1.6,1
		c0.7-0.7,1.5-1,2.2-1c0.6,0,1,0.2,1.3,0.6c0.3,0.4,0.5,0.9,0.5,1.6v3.4c0,0.5,0.1,1,0.2,1.2c-0.2,0.2-0.5,0.3-0.9,0.3
		c-0.5,0-0.7-0.3-0.7-0.9V137c0-0.5-0.1-0.8-0.2-1.1c-0.1-0.2-0.4-0.3-0.7-0.3c-0.6,0-1.1,0.3-1.6,0.9v4.9c-0.2,0-0.4,0.1-0.7,0.1
		c-0.3,0-0.5,0-0.7-0.1V137z"/>
	<path fill="#FFFFFF" d="M139.9,138.4h-4.2c0,0.7,0.2,1.2,0.4,1.5c0.3,0.4,0.7,0.5,1.3,0.5s1.2-0.2,1.9-0.5c0.2,0.2,0.4,0.5,0.4,0.9
		c-0.7,0.5-1.6,0.8-2.6,0.8c-1,0-1.7-0.3-2.2-1s-0.7-1.5-0.7-2.6s0.3-2,0.7-2.6c0.5-0.7,1.2-1,2.1-1c0.9,0,1.6,0.3,2.1,0.8
		c0.5,0.6,0.7,1.3,0.7,2.1C140,137.7,139.9,138.1,139.9,138.4z M138.3,135.9c-0.2-0.4-0.6-0.5-1.1-0.5c-0.5,0-0.8,0.2-1.1,0.5
		s-0.4,0.9-0.4,1.5h2.9v-0.2C138.6,136.7,138.5,136.2,138.3,135.9z"/>
	<path fill="#FFFFFF" d="M145,134.5c0,0.2,0.1,0.3,0.1,0.5c0,0.2,0,0.3-0.1,0.5l-1.8,0v4.3c0,0.4,0.2,0.6,0.6,0.6h1
		c0.1,0.2,0.1,0.4,0.1,0.6s0,0.3,0,0.4c-0.5,0.1-1.1,0.1-1.5,0.1c-1,0-1.4-0.5-1.4-1.4v-4.6l-1,0c0-0.1-0.1-0.3-0.1-0.5
		c0-0.2,0-0.4,0.1-0.5l1,0v-1.3c0-0.3,0.1-0.5,0.2-0.7s0.3-0.2,0.6-0.2h0.5l0.1,0.1v2.1L145,134.5z"/>
	<path fill="#FFFFFF" d="M150.9,135.1c0.7,0.7,1,1.6,1,2.9s-0.3,2.2-1,2.9c-0.5,0.5-1.2,0.8-2,0.8c-0.8,0-1.5-0.3-2-0.8
		c-0.7-0.7-1-1.6-1-2.9s0.3-2.2,1-2.9c0.5-0.5,1.2-0.8,2-0.8C149.7,134.4,150.4,134.6,150.9,135.1z M147.3,138
		c0,1.7,0.5,2.6,1.6,2.6c1.1,0,1.6-0.9,1.6-2.6c0-0.5,0-0.9-0.1-1.3c-0.1-0.4-0.3-0.7-0.5-0.9c-0.2-0.3-0.6-0.4-1-0.4
		c-0.4,0-0.7,0.1-1,0.4c-0.2,0.3-0.4,0.6-0.5,0.9S147.3,137.5,147.3,138z"/>
	<path fill="#FFFFFF" d="M155.5,141.6c-0.8,0-1.4-0.3-1.8-1c-0.4-0.6-0.6-1.5-0.6-2.7c0-1.1,0.3-2,0.8-2.6s1.2-0.9,1.9-0.9
		c0.5,0,1.1,0.2,1.6,0.5v-3.7l0.1-0.1h0.5c0.3,0,0.5,0.1,0.6,0.2c0.1,0.1,0.2,0.4,0.2,0.7v7.5c0,0.7,0.1,1.1,0.4,1.4
		c-0.1,0.3-0.3,0.6-0.5,0.7c-0.5-0.1-0.8-0.4-1-0.9C156.9,141.3,156.3,141.6,155.5,141.6z M155.7,140.5c0.6,0,1.1-0.3,1.6-0.9V136
		c-0.5-0.4-1-0.5-1.4-0.5c-0.4,0-0.8,0.2-1.1,0.7c-0.3,0.4-0.4,1.1-0.4,1.9s0.1,1.4,0.4,1.8S155.4,140.5,155.7,140.5z"/>
	<path fill="#FFFFFF" d="M165.3,135.1c0.7,0.7,1,1.6,1,2.9s-0.3,2.2-1,2.9c-0.5,0.5-1.2,0.8-2,0.8c-0.8,0-1.5-0.3-2-0.8
		c-0.7-0.7-1-1.6-1-2.9s0.3-2.2,1-2.9c0.5-0.5,1.2-0.8,2-0.8C164.1,134.4,164.8,134.6,165.3,135.1z M161.7,138
		c0,1.7,0.5,2.6,1.6,2.6c1.1,0,1.6-0.9,1.6-2.6c0-0.5,0-0.9-0.1-1.3c-0.1-0.4-0.3-0.7-0.5-0.9c-0.2-0.3-0.6-0.4-1-0.4
		c-0.4,0-0.7,0.1-1,0.4c-0.2,0.3-0.4,0.6-0.5,0.9S161.7,137.5,161.7,138z"/>
	<path fill="#FFFFFF" d="M169.8,140.4h0.5c0.1,0.2,0.1,0.4,0.1,0.6s0,0.3,0,0.4c-0.4,0.1-0.8,0.1-1.2,0.1c-0.9,0-1.3-0.5-1.3-1.4
		v-8.9l0.1-0.1h0.5c0.3,0,0.5,0.1,0.6,0.2s0.2,0.4,0.2,0.7v7.8C169.2,140.2,169.4,140.4,169.8,140.4z"/>
	<path fill="#FFFFFF" d="M176.4,135.1c0.7,0.7,1,1.6,1,2.9s-0.3,2.2-1,2.9c-0.5,0.5-1.2,0.8-2,0.8c-0.8,0-1.5-0.3-2-0.8
		c-0.7-0.7-1-1.6-1-2.9s0.3-2.2,1-2.9c0.5-0.5,1.2-0.8,2-0.8C175.2,134.4,175.9,134.6,176.4,135.1z M172.8,138
		c0,1.7,0.5,2.6,1.6,2.6c1.1,0,1.6-0.9,1.6-2.6c0-0.5,0-0.9-0.1-1.3c-0.1-0.4-0.3-0.7-0.5-0.9c-0.2-0.3-0.6-0.4-1-0.4
		c-0.4,0-0.7,0.1-1,0.4c-0.2,0.3-0.4,0.6-0.5,0.9S172.8,137.5,172.8,138z"/>
	<path fill="#FFFFFF" d="M180.9,141.6c-0.7,0-1.3-0.3-1.7-1c-0.4-0.6-0.6-1.5-0.6-2.7s0.3-2,0.8-2.6s1.2-0.9,1.9-0.9
		c0.7,0,1.4,0.2,1.9,0.7c0.2-0.3,0.5-0.6,0.9-0.7c0.3,0.1,0.4,0.4,0.5,0.7c-0.3,0.2-0.4,0.7-0.4,1.4v4.2c0,1.4-0.2,2.4-0.7,2.9
		c-0.5,0.6-1.3,0.9-2.3,0.9c-0.8,0-1.6-0.2-2.4-0.5c0-0.4,0.1-0.8,0.4-1c0.6,0.3,1.3,0.4,1.9,0.4c0.7,0,1.1-0.2,1.4-0.5
		s0.4-0.9,0.4-1.5v-0.7C182.3,141.3,181.6,141.6,180.9,141.6z M182.9,139.5v-3.4c-0.5-0.4-1-0.7-1.4-0.7s-0.8,0.2-1.1,0.6
		s-0.4,1.1-0.4,1.9s0.1,1.4,0.4,1.8c0.2,0.4,0.6,0.6,0.9,0.6C181.8,140.4,182.4,140.1,182.9,139.5z"/>
	<path fill="#FFFFFF" d="M187.7,135.7v5.8c-0.2,0-0.4,0.1-0.7,0.1c-0.3,0-0.5,0-0.7-0.1v-5.2c0-0.3,0-0.4-0.1-0.5
		c-0.1-0.1-0.2-0.2-0.5-0.2h-0.2c0-0.1-0.1-0.3-0.1-0.5c0-0.2,0-0.3,0.1-0.5c0.3,0,0.6-0.1,0.8-0.1h0.2c0.3,0,0.6,0.1,0.8,0.3
		C187.6,135,187.7,135.3,187.7,135.7z M185.9,132.6c0-0.2,0-0.4,0.1-0.6c0.2-0.1,0.5-0.2,0.8-0.2s0.6,0.1,0.7,0.2
		c0.1,0.2,0.1,0.4,0.1,0.6c0,0.2,0,0.4-0.1,0.6c-0.2,0.1-0.4,0.2-0.7,0.2c-0.3,0-0.6-0.1-0.8-0.2C186,133,185.9,132.8,185.9,132.6z"
		/>
	<path fill="#FFFFFF" d="M195.1,140.8c-0.1,0.3-0.3,0.6-0.5,0.7c-0.5-0.1-0.9-0.4-1.1-0.9c-0.7,0.7-1.4,1-2.1,1s-1.2-0.2-1.6-0.6
		c-0.4-0.4-0.5-0.9-0.5-1.4c0-0.8,0.2-1.3,0.7-1.7c0.5-0.4,1.1-0.6,1.9-0.6c0.5,0,0.9,0,1.4,0.1v-0.6c0-0.8-0.4-1.3-1.2-1.3
		c-0.6,0-1.3,0.2-2.2,0.5c-0.3-0.3-0.4-0.6-0.4-1c1-0.4,1.9-0.6,2.9-0.6c0.7,0,1.3,0.2,1.7,0.6c0.4,0.4,0.6,1,0.6,1.8v2.9
		C194.7,140.2,194.8,140.6,195.1,140.8z M191.6,140.5c0.6,0,1.2-0.3,1.7-0.9v-1.3c-0.4,0-0.8-0.1-1.3-0.1c-0.5,0-0.8,0.1-1.1,0.3
		c-0.2,0.2-0.4,0.5-0.4,0.9c0,0.4,0.1,0.6,0.3,0.8S191.3,140.5,191.6,140.5z"/>
	<path fill="#FFFFFF" d="M59.4,158.4c-0.8,0-1.4-0.3-1.8-1c-0.4-0.6-0.6-1.5-0.6-2.7c0-1.1,0.3-2,0.8-2.6s1.2-0.9,1.9-0.9
		c0.5,0,1.1,0.2,1.6,0.5V148l0.1-0.1h0.5c0.3,0,0.5,0.1,0.6,0.2c0.1,0.1,0.2,0.4,0.2,0.7v7.5c0,0.7,0.1,1.1,0.4,1.4
		c-0.1,0.3-0.3,0.6-0.5,0.7c-0.5-0.1-0.8-0.4-1-0.9C60.9,158.1,60.2,158.4,59.4,158.4z M59.7,157.3c0.6,0,1.1-0.3,1.6-0.9v-3.5
		c-0.5-0.4-1-0.5-1.4-0.5c-0.4,0-0.8,0.2-1.1,0.7c-0.3,0.4-0.4,1.1-0.4,1.9s0.1,1.4,0.4,1.8S59.3,157.3,59.7,157.3z"/>
	<path fill="#FFFFFF" d="M69.8,155.2h-4.2c0,0.7,0.2,1.2,0.4,1.5c0.3,0.4,0.7,0.5,1.3,0.5s1.2-0.2,1.9-0.5c0.2,0.2,0.4,0.5,0.4,0.9
		c-0.7,0.5-1.6,0.8-2.6,0.8c-1,0-1.7-0.3-2.2-1s-0.7-1.5-0.7-2.6s0.3-2,0.7-2.6c0.5-0.7,1.2-1,2.1-1c0.9,0,1.6,0.3,2.1,0.8
		c0.5,0.6,0.7,1.3,0.7,2.1C69.9,154.5,69.9,154.9,69.8,155.2z M68.2,152.7c-0.2-0.4-0.6-0.5-1.1-0.5c-0.5,0-0.8,0.2-1.1,0.5
		s-0.4,0.9-0.4,1.5h2.9V154C68.6,153.5,68.5,153,68.2,152.7z"/>
	<path fill="#FFFFFF" d="M79.8,157.6c-0.1,0.3-0.3,0.6-0.5,0.7c-0.5-0.1-0.9-0.4-1.1-0.9c-0.7,0.7-1.4,1-2.1,1s-1.2-0.2-1.6-0.6
		c-0.4-0.4-0.5-0.9-0.5-1.4c0-0.8,0.2-1.3,0.7-1.7c0.5-0.4,1.1-0.6,1.9-0.6c0.5,0,0.9,0,1.4,0.1v-0.6c0-0.8-0.4-1.3-1.2-1.3
		c-0.6,0-1.3,0.2-2.2,0.5c-0.3-0.3-0.4-0.6-0.4-1c1-0.4,1.9-0.6,2.9-0.6c0.7,0,1.3,0.2,1.7,0.6c0.4,0.4,0.6,1,0.6,1.8v2.9
		C79.5,157,79.6,157.4,79.8,157.6z M76.4,157.3c0.6,0,1.2-0.3,1.7-0.9v-1.3c-0.4,0-0.8-0.1-1.3-0.1c-0.5,0-0.8,0.1-1.1,0.3
		c-0.2,0.2-0.4,0.5-0.4,0.9c0,0.4,0.1,0.6,0.3,0.8S76.1,157.3,76.4,157.3z"/>
	<path fill="#FFFFFF" d="M81.8,158.2v-5.9l-1.2,0c0-0.2-0.1-0.4-0.1-0.5c0-0.1,0-0.3,0.1-0.5l1.1,0c-0.1-0.5-0.1-1-0.1-1.3
		c0-0.6,0.2-1.1,0.6-1.5s0.9-0.6,1.5-0.6s1.2,0.1,1.8,0.3c0,0.4-0.1,0.7-0.3,0.9c-0.5-0.1-0.9-0.2-1.2-0.2s-0.6,0.1-0.8,0.3
		s-0.3,0.5-0.3,0.9c0,0.4,0,0.8,0.1,1.3l2,0c0,0.2,0.1,0.4,0.1,0.5c0,0.1,0,0.3-0.1,0.5l-1.9,0v5.9c-0.2,0-0.4,0.1-0.7,0.1
		C82.2,158.3,82,158.3,81.8,158.2z"/>
	<path fill="#FFFFFF" d="M91.1,155.2h-4.2c0,0.7,0.2,1.2,0.4,1.5c0.3,0.4,0.7,0.5,1.3,0.5s1.2-0.2,1.9-0.5c0.2,0.2,0.4,0.5,0.4,0.9
		c-0.7,0.5-1.6,0.8-2.6,0.8c-1,0-1.7-0.3-2.2-1s-0.7-1.5-0.7-2.6s0.3-2,0.7-2.6c0.5-0.7,1.2-1,2.1-1c0.9,0,1.6,0.3,2.1,0.8
		c0.5,0.6,0.7,1.3,0.7,2.1C91.2,154.5,91.1,154.9,91.1,155.2z M89.5,152.7c-0.2-0.4-0.6-0.5-1.1-0.5c-0.5,0-0.8,0.2-1.1,0.5
		s-0.4,0.9-0.4,1.5h2.9V154C89.9,153.5,89.7,153,89.5,152.7z"/>
	<path fill="#FFFFFF" d="M92.5,152c0.1-0.3,0.2-0.6,0.5-0.7c0.6,0.1,1,0.6,1.2,1.2c0.4-0.8,1-1.2,1.8-1.2c0.2,0,0.5,0,0.7,0.1
		c0,0.5-0.1,0.9-0.3,1.3c-0.1,0-0.2,0-0.6-0.1c-0.7,0-1.2,0.4-1.5,1.1v4.6c-0.2,0-0.4,0.1-0.7,0.1s-0.5,0-0.7-0.1v-4.8
		C93,152.8,92.8,152.3,92.5,152z"/>
	<path fill="#FFFFFF" d="M99.6,152.5v5.8c-0.2,0-0.4,0.1-0.7,0.1c-0.3,0-0.5,0-0.7-0.1V153c0-0.3,0-0.4-0.1-0.5
		c-0.1-0.1-0.2-0.2-0.5-0.2h-0.2c0-0.1-0.1-0.3-0.1-0.5c0-0.2,0-0.3,0.1-0.5c0.3,0,0.6-0.1,0.8-0.1h0.2c0.3,0,0.6,0.1,0.8,0.3
		C99.5,151.8,99.6,152.1,99.6,152.5z M97.8,149.4c0-0.2,0-0.4,0.1-0.6c0.2-0.1,0.5-0.2,0.8-0.2s0.6,0.1,0.7,0.2
		c0.1,0.2,0.1,0.4,0.1,0.6c0,0.2,0,0.4-0.1,0.6c-0.2,0.1-0.4,0.2-0.7,0.2c-0.3,0-0.6-0.1-0.8-0.2C97.9,149.8,97.8,149.6,97.8,149.4z
		"/>
	<path fill="#FFFFFF" d="M103.3,159.3c0.1-0.2,0.2-0.5,0.3-0.9c-0.8-0.1-1.4-0.5-1.8-1.1c-0.4-0.7-0.6-1.5-0.6-2.4
		c0-1.2,0.3-2.1,0.8-2.8c0.6-0.6,1.2-0.9,2-0.9s1.4,0.2,1.9,0.7c0.4,0.4,0.7,0.9,0.7,1.4c0,0.5-0.2,0.8-0.7,0.8
		c-0.2,0-0.4,0-0.6-0.1c0,0,0-0.1,0-0.1c0-1.1-0.4-1.6-1.3-1.6c-0.5,0-0.8,0.2-1.1,0.7c-0.3,0.4-0.4,1.1-0.4,2
		c0,1.6,0.5,2.5,1.6,2.5c0.5,0,1.1-0.2,1.7-0.7c0.1,0.1,0.3,0.2,0.4,0.3c0.1,0.2,0.2,0.3,0.2,0.5c-0.6,0.6-1.3,0.9-2.1,1
		c-0.1,0.2-0.1,0.3-0.2,0.4c0.4,0,0.7,0.2,0.9,0.4c0.2,0.2,0.4,0.5,0.4,0.9s-0.2,0.7-0.5,0.9c-0.3,0.3-0.7,0.4-1.1,0.4
		s-0.8-0.1-1.1-0.3c0-0.3,0.1-0.5,0.3-0.7c0.2,0.1,0.4,0.2,0.7,0.2s0.4-0.1,0.5-0.2s0.2-0.2,0.2-0.4c0-0.2-0.1-0.3-0.2-0.4
		s-0.2-0.2-0.4-0.2s-0.3,0-0.4,0.1C103.4,159.5,103.3,159.4,103.3,159.3z"/>
	<path fill="#FFFFFF" d="M113.4,157.6c-0.1,0.3-0.3,0.6-0.5,0.7c-0.5-0.1-0.9-0.4-1.1-0.9c-0.7,0.7-1.4,1-2.1,1s-1.2-0.2-1.6-0.6
		c-0.4-0.4-0.5-0.9-0.5-1.4c0-0.8,0.2-1.3,0.7-1.7c0.5-0.4,1.1-0.6,1.9-0.6c0.5,0,0.9,0,1.4,0.1v-0.6c0-0.8-0.4-1.3-1.2-1.3
		c-0.6,0-1.3,0.2-2.2,0.5c-0.3-0.3-0.4-0.6-0.4-1c1-0.4,1.9-0.6,2.9-0.6c0.7,0,1.3,0.2,1.7,0.6c0.4,0.4,0.6,1,0.6,1.8v2.9
		C113,157,113.2,157.4,113.4,157.6z M110.6,150.2l-0.8-0.4c-0.2-0.1-0.4-0.1-0.5-0.1s-0.3,0.1-0.5,0.3l-0.2,0.2
		c-0.1,0-0.3,0-0.4-0.1c-0.1-0.1-0.2-0.2-0.3-0.3l0.1-0.3c0.1-0.3,0.3-0.6,0.6-0.7c0.2-0.2,0.5-0.3,0.8-0.3c0.3,0,0.5,0.1,0.8,0.2
		l0.8,0.4c0.1,0.1,0.3,0.1,0.5,0.1s0.3-0.1,0.5-0.4l0.2-0.2c0.1,0,0.3,0.1,0.4,0.1c0.1,0.1,0.2,0.2,0.3,0.3l-0.1,0.3
		c-0.1,0.3-0.3,0.6-0.6,0.7c-0.2,0.2-0.5,0.3-0.7,0.3S110.9,150.4,110.6,150.2z M110,157.3c0.6,0,1.2-0.3,1.7-0.9v-1.3
		c-0.4,0-0.8-0.1-1.3-0.1c-0.5,0-0.8,0.1-1.1,0.3c-0.2,0.2-0.4,0.5-0.4,0.9c0,0.4,0.1,0.6,0.3,0.8S109.7,157.3,110,157.3z"/>
	<path fill="#FFFFFF" d="M119.6,151.9c0.7,0.7,1,1.6,1,2.9s-0.3,2.2-1,2.9c-0.5,0.5-1.2,0.8-2,0.8c-0.8,0-1.5-0.3-2-0.8
		c-0.7-0.7-1-1.6-1-2.9s0.3-2.2,1-2.9c0.5-0.5,1.2-0.8,2-0.8C118.4,151.2,119.1,151.4,119.6,151.9z M116,154.8
		c0,1.7,0.5,2.6,1.6,2.6c1.1,0,1.6-0.9,1.6-2.6c0-0.5,0-0.9-0.1-1.3c-0.1-0.4-0.3-0.7-0.5-0.9c-0.2-0.3-0.6-0.4-1-0.4
		c-0.4,0-0.7,0.1-1,0.4c-0.2,0.3-0.4,0.6-0.5,0.9S116,154.3,116,154.8z"/>
	<path fill="#FFFFFF" d="M130.2,155.2h-4.2c0,0.7,0.2,1.2,0.4,1.5c0.3,0.4,0.7,0.5,1.3,0.5s1.2-0.2,1.9-0.5c0.2,0.2,0.4,0.5,0.4,0.9
		c-0.7,0.5-1.6,0.8-2.6,0.8c-1,0-1.7-0.3-2.2-1s-0.7-1.5-0.7-2.6s0.3-2,0.7-2.6c0.5-0.7,1.2-1,2.1-1c0.9,0,1.6,0.3,2.1,0.8
		c0.5,0.6,0.7,1.3,0.7,2.1C130.3,154.5,130.3,154.9,130.2,155.2z M128.7,152.7c-0.2-0.4-0.6-0.5-1.1-0.5c-0.5,0-0.8,0.2-1.1,0.5
		s-0.4,0.9-0.4,1.5h2.9V154C129,153.5,128.9,153,128.7,152.7z"/>
	<path fill="#FFFFFF" d="M134.6,152c0.1-0.3,0.2-0.6,0.5-0.7c0.6,0.1,1,0.6,1.2,1.2c0.4-0.8,1-1.2,1.8-1.2c0.2,0,0.5,0,0.7,0.1
		c0,0.5-0.1,0.9-0.3,1.3c-0.1,0-0.2,0-0.6-0.1c-0.7,0-1.2,0.4-1.5,1.1v4.6c-0.2,0-0.4,0.1-0.7,0.1s-0.5,0-0.7-0.1v-4.8
		C135.1,152.8,134.9,152.3,134.6,152z"/>
	<path fill="#FFFFFF" d="M145,155.2h-4.2c0,0.7,0.2,1.2,0.4,1.5c0.3,0.4,0.7,0.5,1.3,0.5s1.2-0.2,1.9-0.5c0.2,0.2,0.4,0.5,0.4,0.9
		c-0.7,0.5-1.6,0.8-2.6,0.8c-1,0-1.7-0.3-2.2-1s-0.7-1.5-0.7-2.6s0.3-2,0.7-2.6c0.5-0.7,1.2-1,2.1-1c0.9,0,1.6,0.3,2.1,0.8
		c0.5,0.6,0.7,1.3,0.7,2.1C145.1,154.5,145.1,154.9,145,155.2z M143.5,152.7c-0.2-0.4-0.6-0.5-1.1-0.5c-0.5,0-0.8,0.2-1.1,0.5
		s-0.4,0.9-0.4,1.5h2.9V154C143.8,153.5,143.7,153,143.5,152.7z"/>
	<path fill="#FFFFFF" d="M152.1,157.6c-0.1,0.3-0.3,0.6-0.5,0.7c-0.5-0.1-0.9-0.4-1.1-0.9c-0.7,0.7-1.4,1-2.1,1s-1.2-0.2-1.6-0.6
		c-0.4-0.4-0.5-0.9-0.5-1.4c0-0.8,0.2-1.3,0.7-1.7c0.5-0.4,1.1-0.6,1.9-0.6c0.5,0,0.9,0,1.4,0.1v-0.6c0-0.8-0.4-1.3-1.2-1.3
		c-0.6,0-1.3,0.2-2.2,0.5c-0.3-0.3-0.4-0.6-0.4-1c1-0.4,1.9-0.6,2.9-0.6c0.7,0,1.3,0.2,1.7,0.6c0.4,0.4,0.6,1,0.6,1.8v2.9
		C151.7,157,151.9,157.4,152.1,157.6z M148.7,157.3c0.6,0,1.2-0.3,1.7-0.9v-1.3c-0.4,0-0.8-0.1-1.3-0.1c-0.5,0-0.8,0.1-1.1,0.3
		c-0.2,0.2-0.4,0.5-0.4,0.9c0,0.4,0.1,0.6,0.3,0.8S148.4,157.3,148.7,157.3z"/>
	<path fill="#FFFFFF" d="M155.6,157.2h0.5c0.1,0.2,0.1,0.4,0.1,0.6s0,0.3,0,0.4c-0.4,0.1-0.8,0.1-1.2,0.1c-0.9,0-1.3-0.5-1.3-1.4
		V148l0.1-0.1h0.5c0.3,0,0.5,0.1,0.6,0.2s0.2,0.4,0.2,0.7v7.8C155.1,157,155.2,157.2,155.6,157.2z"/>
	<path fill="#FFFFFF" d="M159.2,152.5v5.8c-0.2,0-0.4,0.1-0.7,0.1c-0.3,0-0.5,0-0.7-0.1V153c0-0.3,0-0.4-0.1-0.5
		c-0.1-0.1-0.2-0.2-0.5-0.2h-0.2c0-0.1-0.1-0.3-0.1-0.5c0-0.2,0-0.3,0.1-0.5c0.3,0,0.6-0.1,0.8-0.1h0.2c0.3,0,0.6,0.1,0.8,0.3
		C159.1,151.8,159.2,152.1,159.2,152.5z M157.4,149.4c0-0.2,0-0.4,0.1-0.6c0.2-0.1,0.5-0.2,0.8-0.2s0.6,0.1,0.7,0.2
		c0.1,0.2,0.1,0.4,0.1,0.6c0,0.2,0,0.4-0.1,0.6c-0.2,0.1-0.4,0.2-0.7,0.2c-0.3,0-0.6-0.1-0.8-0.2
		C157.5,149.8,157.4,149.6,157.4,149.4z"/>
	<path fill="#FFFFFF" d="M160.9,156.9l2.4-3.2c0.4-0.5,0.8-0.9,1.1-1.4l0,0c-0.5,0.1-1.1,0.1-1.9,0.1h-1.5c0-0.1,0-0.3,0-0.5
		s0-0.4,0.1-0.6h4.7c0.1,0.4,0.2,0.7,0.2,0.8s-0.1,0.3-0.2,0.5l-2.4,3.2c-0.1,0.1-0.4,0.5-1.1,1.4l0,0.1c0.4,0,0.8-0.1,1.3-0.1h0.7
		c0.7,0,1.2-0.1,1.5-0.2c0.1,0.2,0.1,0.4,0.1,0.6c0,0.4-0.3,0.6-0.9,0.6h-4.2c-0.1-0.4-0.2-0.6-0.2-0.8S160.8,157.1,160.9,156.9z"/>
	<path fill="#FFFFFF" d="M172.7,157.6c-0.1,0.3-0.3,0.6-0.5,0.7c-0.5-0.1-0.9-0.4-1.1-0.9c-0.7,0.7-1.4,1-2.1,1s-1.2-0.2-1.6-0.6
		c-0.4-0.4-0.5-0.9-0.5-1.4c0-0.8,0.2-1.3,0.7-1.7c0.5-0.4,1.1-0.6,1.9-0.6c0.5,0,0.9,0,1.4,0.1v-0.6c0-0.8-0.4-1.3-1.2-1.3
		c-0.6,0-1.3,0.2-2.2,0.5c-0.3-0.3-0.4-0.6-0.4-1c1-0.4,1.9-0.6,2.9-0.6c0.7,0,1.3,0.2,1.7,0.6c0.4,0.4,0.6,1,0.6,1.8v2.9
		C172.3,157,172.4,157.4,172.7,157.6z M169.3,157.3c0.6,0,1.2-0.3,1.7-0.9v-1.3c-0.4,0-0.8-0.1-1.3-0.1c-0.5,0-0.8,0.1-1.1,0.3
		c-0.2,0.2-0.4,0.5-0.4,0.9c0,0.4,0.1,0.6,0.3,0.8S169,157.3,169.3,157.3z"/>
	<path fill="#FFFFFF" d="M174,152c0.1-0.3,0.2-0.6,0.5-0.7c0.6,0.1,1,0.6,1.2,1.2c0.4-0.8,1-1.2,1.8-1.2c0.2,0,0.5,0,0.7,0.1
		c0,0.5-0.1,0.9-0.3,1.3c-0.1,0-0.2,0-0.6-0.1c-0.7,0-1.2,0.4-1.5,1.1v4.6c-0.2,0-0.4,0.1-0.7,0.1s-0.5,0-0.7-0.1v-4.8
		C174.5,152.8,174.3,152.3,174,152z"/>
	<path fill="#FFFFFF" d="M186.8,151.9c0.7,0.7,1,1.6,1,2.9s-0.3,2.2-1,2.9c-0.5,0.5-1.2,0.8-2,0.8c-0.8,0-1.5-0.3-2-0.8
		c-0.7-0.7-1-1.6-1-2.9s0.3-2.2,1-2.9c0.5-0.5,1.2-0.8,2-0.8C185.6,151.2,186.3,151.4,186.8,151.9z M183.2,154.8
		c0,1.7,0.5,2.6,1.6,2.6c1.1,0,1.6-0.9,1.6-2.6c0-0.5,0-0.9-0.1-1.3c-0.1-0.4-0.3-0.7-0.5-0.9c-0.2-0.3-0.6-0.4-1-0.4
		c-0.4,0-0.7,0.1-1,0.4c-0.2,0.3-0.4,0.6-0.5,0.9S183.2,154.3,183.2,154.8z"/>
	<path fill="#FFFFFF" d="M35.9,174.4c-0.1,0.3-0.3,0.6-0.5,0.7c-0.5-0.1-0.9-0.4-1.1-0.9c-0.7,0.7-1.4,1-2.1,1s-1.2-0.2-1.6-0.6
		c-0.4-0.4-0.5-0.9-0.5-1.4c0-0.8,0.2-1.3,0.7-1.7c0.5-0.4,1.1-0.6,1.9-0.6c0.5,0,0.9,0,1.4,0.1v-0.6c0-0.8-0.4-1.3-1.2-1.3
		c-0.6,0-1.3,0.2-2.2,0.5c-0.3-0.3-0.4-0.6-0.4-1c1-0.4,1.9-0.6,2.9-0.6c0.7,0,1.3,0.2,1.7,0.6c0.4,0.4,0.6,1,0.6,1.8v2.9
		C35.5,173.8,35.6,174.2,35.9,174.4z M32.4,174.1c0.6,0,1.2-0.3,1.7-0.9v-1.3c-0.4,0-0.8-0.1-1.3-0.1c-0.5,0-0.8,0.1-1.1,0.3
		c-0.2,0.2-0.4,0.5-0.4,0.9c0,0.4,0.1,0.6,0.3,0.8S32.1,174.1,32.4,174.1z"/>
	<path fill="#FFFFFF" d="M41,170.8c0,0,0-0.1,0-0.1c0-1.1-0.4-1.6-1.3-1.6c-0.5,0-0.8,0.2-1.1,0.7c-0.3,0.4-0.4,1.1-0.4,2
		c0,1.6,0.5,2.5,1.6,2.5c0.5,0,1.1-0.2,1.7-0.7c0.1,0.1,0.3,0.2,0.4,0.3c0.1,0.2,0.2,0.3,0.2,0.5c-0.7,0.7-1.5,1-2.5,1
		s-1.7-0.3-2.1-1c-0.5-0.7-0.7-1.6-0.7-2.7s0.3-2,0.8-2.6c0.6-0.6,1.2-0.9,2-0.9s1.4,0.2,1.9,0.7c0.4,0.4,0.7,0.9,0.7,1.4
		c0,0.5-0.2,0.8-0.7,0.8C41.4,170.8,41.2,170.8,41,170.8z"/>
	<path fill="#FFFFFF" d="M48.3,168.7c0.7,0.7,1,1.6,1,2.9s-0.3,2.2-1,2.9c-0.5,0.5-1.2,0.8-2,0.8c-0.8,0-1.5-0.3-2-0.8
		c-0.7-0.7-1-1.6-1-2.9s0.3-2.2,1-2.9c0.5-0.5,1.2-0.8,2-0.8C47.1,168,47.8,168.2,48.3,168.7z M44.7,171.6c0,1.7,0.5,2.6,1.6,2.6
		c1.1,0,1.6-0.9,1.6-2.6c0-0.5,0-0.9-0.1-1.3c-0.1-0.4-0.3-0.7-0.5-0.9c-0.2-0.3-0.6-0.4-1-0.4c-0.4,0-0.7,0.1-1,0.4
		c-0.2,0.3-0.4,0.6-0.5,0.9S44.7,171.1,44.7,171.6z"/>
	<path fill="#FFFFFF" d="M54.7,170.6c0-0.5-0.1-0.8-0.2-1.1c-0.1-0.2-0.4-0.3-0.7-0.3c-0.5,0-1.1,0.3-1.6,0.9v4.9
		c-0.2,0-0.4,0.1-0.7,0.1c-0.3,0-0.5,0-0.7-0.1v-6.9l0.1-0.1h0.5c0.5,0,0.7,0.3,0.8,0.9c0.6-0.6,1.3-1,2-1s1.3,0.3,1.6,1
		c0.7-0.7,1.5-1,2.2-1c0.6,0,1,0.2,1.3,0.6c0.3,0.4,0.5,0.9,0.5,1.6v3.4c0,0.5,0.1,1,0.2,1.2c-0.2,0.2-0.5,0.3-0.9,0.3
		c-0.5,0-0.7-0.3-0.7-0.9v-3.7c0-0.5-0.1-0.8-0.2-1.1c-0.1-0.2-0.4-0.3-0.7-0.3c-0.6,0-1.1,0.3-1.6,0.9v4.9c-0.2,0-0.4,0.1-0.7,0.1
		c-0.3,0-0.5,0-0.7-0.1V170.6z"/>
	<path fill="#FFFFFF" d="M65.2,168c0.8,0,1.3,0.3,1.8,1c0.4,0.6,0.6,1.5,0.6,2.7c0,1.1-0.3,2-0.8,2.6s-1.2,0.9-1.9,0.9
		c-0.6,0-1.1-0.2-1.7-0.5v2.5c0,0.3-0.1,0.5-0.2,0.7c-0.1,0.1-0.3,0.2-0.6,0.2H62l-0.1-0.1v-9.8l0.1-0.1h0.4c0.4,0,0.7,0.2,0.8,0.7
		C63.8,168.2,64.4,168,65.2,168z M64.9,169.1c-0.7,0-1.2,0.3-1.6,1v3.4c0.5,0.4,1,0.5,1.4,0.5c0.4,0,0.8-0.2,1.1-0.7
		c0.3-0.4,0.4-1.1,0.4-1.9s-0.1-1.4-0.4-1.8C65.6,169.3,65.3,169.1,64.9,169.1z"/>
	<path fill="#FFFFFF" d="M74.5,174.4c-0.1,0.3-0.3,0.6-0.5,0.7c-0.5-0.1-0.9-0.4-1.1-0.9c-0.7,0.7-1.4,1-2.1,1s-1.2-0.2-1.6-0.6
		c-0.4-0.4-0.5-0.9-0.5-1.4c0-0.8,0.2-1.3,0.7-1.7c0.5-0.4,1.1-0.6,1.9-0.6c0.5,0,0.9,0,1.4,0.1v-0.6c0-0.8-0.4-1.3-1.2-1.3
		c-0.6,0-1.3,0.2-2.2,0.5c-0.3-0.3-0.4-0.6-0.4-1c1-0.4,1.9-0.6,2.9-0.6c0.7,0,1.3,0.2,1.7,0.6c0.4,0.4,0.6,1,0.6,1.8v2.9
		C74.1,173.8,74.2,174.2,74.5,174.4z M71,174.1c0.6,0,1.2-0.3,1.7-0.9v-1.3c-0.4,0-0.8-0.1-1.3-0.1c-0.5,0-0.8,0.1-1.1,0.3
		c-0.2,0.2-0.4,0.5-0.4,0.9c0,0.4,0.1,0.6,0.3,0.8S70.7,174.1,71,174.1z"/>
	<path fill="#FFFFFF" d="M81.6,170.3v3.3c0,0.6,0.1,1,0.2,1.2c-0.2,0.2-0.5,0.3-0.8,0.3c-0.5,0-0.7-0.3-0.7-0.9v-3.6
		c0-0.5-0.1-0.9-0.2-1.1s-0.4-0.3-0.7-0.3c-0.3,0-0.7,0.1-1,0.3s-0.6,0.4-0.9,0.7v4.9c-0.2,0-0.4,0.1-0.7,0.1c-0.3,0-0.5,0-0.7-0.1
		v-6.9l0.1-0.1h0.5c0.5,0,0.7,0.3,0.8,0.9c0.7-0.6,1.5-1,2.3-1c0.6,0,1.1,0.2,1.4,0.6C81.4,169.1,81.6,169.6,81.6,170.3z"/>
	<path fill="#FFFFFF" d="M89.1,170.3v3.3c0,0.5,0.1,1,0.2,1.2c-0.2,0.2-0.5,0.3-0.9,0.3c-0.5,0-0.7-0.3-0.7-0.9v-3.6
		c0-0.5-0.1-0.9-0.2-1.1s-0.4-0.3-0.7-0.3s-0.7,0.1-1,0.3s-0.6,0.4-0.9,0.7v4.9c-0.2,0-0.4,0.1-0.7,0.1s-0.5,0-0.7-0.1v-10.2
		l0.1-0.1h0.5c0.3,0,0.5,0.1,0.6,0.2s0.2,0.4,0.2,0.7v3.3c0.7-0.6,1.4-0.9,2.3-0.9c0.6,0,1.1,0.2,1.4,0.6
		C88.9,169.1,89.1,169.6,89.1,170.3z"/>
	<path fill="#FFFFFF" d="M96.4,174.4c-0.1,0.3-0.3,0.6-0.5,0.7c-0.5-0.1-0.9-0.4-1.1-0.9c-0.7,0.7-1.4,1-2.1,1s-1.2-0.2-1.6-0.6
		c-0.4-0.4-0.5-0.9-0.5-1.4c0-0.8,0.2-1.3,0.7-1.7c0.5-0.4,1.1-0.6,1.9-0.6c0.5,0,0.9,0,1.4,0.1v-0.6c0-0.8-0.4-1.3-1.2-1.3
		c-0.6,0-1.3,0.2-2.2,0.5c-0.3-0.3-0.4-0.6-0.4-1c1-0.4,1.9-0.6,2.9-0.6c0.7,0,1.3,0.2,1.7,0.6c0.4,0.4,0.6,1,0.6,1.8v2.9
		C96,173.8,96.1,174.2,96.4,174.4z M93,174.1c0.6,0,1.2-0.3,1.7-0.9v-1.3c-0.4,0-0.8-0.1-1.3-0.1c-0.5,0-0.8,0.1-1.1,0.3
		c-0.2,0.2-0.4,0.5-0.4,0.9c0,0.4,0.1,0.6,0.3,0.8S92.7,174.1,93,174.1z"/>
	<path fill="#FFFFFF" d="M101.9,170.6c0-0.5-0.1-0.8-0.2-1.1c-0.1-0.2-0.4-0.3-0.7-0.3c-0.5,0-1.1,0.3-1.6,0.9v4.9
		c-0.2,0-0.4,0.1-0.7,0.1c-0.3,0-0.5,0-0.7-0.1v-6.9l0.1-0.1h0.5c0.5,0,0.7,0.3,0.8,0.9c0.6-0.6,1.3-1,2-1s1.3,0.3,1.6,1
		c0.7-0.7,1.5-1,2.2-1c0.6,0,1,0.2,1.3,0.6c0.3,0.4,0.5,0.9,0.5,1.6v3.4c0,0.5,0.1,1,0.2,1.2c-0.2,0.2-0.5,0.3-0.9,0.3
		c-0.5,0-0.7-0.3-0.7-0.9v-3.7c0-0.5-0.1-0.8-0.2-1.1c-0.1-0.2-0.4-0.3-0.7-0.3c-0.6,0-1.1,0.3-1.6,0.9v4.9c-0.2,0-0.4,0.1-0.7,0.1
		c-0.3,0-0.5,0-0.7-0.1V170.6z"/>
	<path fill="#FFFFFF" d="M114.1,172H110c0,0.7,0.2,1.2,0.4,1.5c0.3,0.4,0.7,0.5,1.3,0.5s1.2-0.2,1.9-0.5c0.2,0.2,0.4,0.5,0.4,0.9
		c-0.7,0.5-1.6,0.8-2.6,0.8c-1,0-1.7-0.3-2.2-1s-0.7-1.5-0.7-2.6s0.3-2,0.7-2.6c0.5-0.7,1.2-1,2.1-1c0.9,0,1.6,0.3,2.1,0.8
		c0.5,0.6,0.7,1.3,0.7,2.1C114.2,171.3,114.2,171.7,114.1,172z M112.6,169.5c-0.2-0.4-0.6-0.5-1.1-0.5c-0.5,0-0.8,0.2-1.1,0.5
		s-0.4,0.9-0.4,1.5h2.9v-0.2C112.9,170.3,112.8,169.8,112.6,169.5z"/>
	<path fill="#FFFFFF" d="M121.4,170.3v3.3c0,0.6,0.1,1,0.2,1.2c-0.2,0.2-0.5,0.3-0.8,0.3c-0.5,0-0.7-0.3-0.7-0.9v-3.6
		c0-0.5-0.1-0.9-0.2-1.1s-0.4-0.3-0.7-0.3c-0.3,0-0.7,0.1-1,0.3s-0.6,0.4-0.9,0.7v4.9c-0.2,0-0.4,0.1-0.7,0.1c-0.3,0-0.5,0-0.7-0.1
		v-6.9l0.1-0.1h0.5c0.5,0,0.7,0.3,0.8,0.9c0.7-0.6,1.5-1,2.3-1c0.6,0,1.1,0.2,1.4,0.6C121.2,169.1,121.4,169.6,121.4,170.3z"/>
	<path fill="#FFFFFF" d="M126.8,168.1c0,0.2,0.1,0.3,0.1,0.5c0,0.2,0,0.3-0.1,0.5l-1.8,0v4.3c0,0.4,0.2,0.6,0.6,0.6h1
		c0.1,0.2,0.1,0.4,0.1,0.6s0,0.3,0,0.4c-0.5,0.1-1.1,0.1-1.5,0.1c-1,0-1.4-0.5-1.4-1.4v-4.6l-1,0c0-0.1-0.1-0.3-0.1-0.5
		c0-0.2,0-0.4,0.1-0.5l1,0v-1.3c0-0.3,0.1-0.5,0.2-0.7s0.3-0.2,0.6-0.2h0.5l0.1,0.1v2.1L126.8,168.1z"/>
	<path fill="#FFFFFF" d="M132.7,168.7c0.7,0.7,1,1.6,1,2.9s-0.3,2.2-1,2.9c-0.5,0.5-1.2,0.8-2,0.8c-0.8,0-1.5-0.3-2-0.8
		c-0.7-0.7-1-1.6-1-2.9s0.3-2.2,1-2.9c0.5-0.5,1.2-0.8,2-0.8C131.5,168,132.2,168.2,132.7,168.7z M129.1,171.6
		c0,1.7,0.5,2.6,1.6,2.6c1.1,0,1.6-0.9,1.6-2.6c0-0.5,0-0.9-0.1-1.3c-0.1-0.4-0.3-0.7-0.5-0.9c-0.2-0.3-0.6-0.4-1-0.4
		c-0.4,0-0.7,0.1-1,0.4c-0.2,0.3-0.4,0.6-0.5,0.9S129.1,171.1,129.1,171.6z"/>
	<path fill="#FFFFFF" d="M140.2,175.2c-0.8,0-1.4-0.3-1.8-1c-0.4-0.6-0.6-1.5-0.6-2.7c0-1.1,0.3-2,0.8-2.6s1.2-0.9,1.9-0.9
		c0.5,0,1.1,0.2,1.6,0.5v-3.7l0.1-0.1h0.5c0.3,0,0.5,0.1,0.6,0.2c0.1,0.1,0.2,0.4,0.2,0.7v7.5c0,0.7,0.1,1.1,0.4,1.4
		c-0.1,0.3-0.3,0.6-0.5,0.7c-0.5-0.1-0.8-0.4-1-0.9C141.7,174.9,141,175.2,140.2,175.2z M140.5,174.1c0.6,0,1.1-0.3,1.6-0.9v-3.5
		c-0.5-0.4-1-0.5-1.4-0.5c-0.4,0-0.8,0.2-1.1,0.7c-0.3,0.4-0.4,1.1-0.4,1.9s0.1,1.4,0.4,1.8S140.1,174.1,140.5,174.1z"/>
	<path fill="#FFFFFF" d="M150.6,172h-4.2c0,0.7,0.2,1.2,0.4,1.5c0.3,0.4,0.7,0.5,1.3,0.5s1.2-0.2,1.9-0.5c0.2,0.2,0.4,0.5,0.4,0.9
		c-0.7,0.5-1.6,0.8-2.6,0.8c-1,0-1.7-0.3-2.2-1s-0.7-1.5-0.7-2.6s0.3-2,0.7-2.6c0.5-0.7,1.2-1,2.1-1c0.9,0,1.6,0.3,2.1,0.8
		c0.5,0.6,0.7,1.3,0.7,2.1C150.7,171.3,150.7,171.7,150.6,172z M149,169.5c-0.2-0.4-0.6-0.5-1.1-0.5c-0.5,0-0.8,0.2-1.1,0.5
		s-0.4,0.9-0.4,1.5h2.9v-0.2C149.4,170.3,149.3,169.8,149,169.5z"/>
	<path fill="#FFFFFF" d="M155,168.8c0.1-0.3,0.2-0.6,0.5-0.7c0.6,0.1,1,0.6,1.2,1.2c0.4-0.8,1-1.2,1.8-1.2c0.2,0,0.5,0,0.7,0.1
		c0,0.5-0.1,0.9-0.3,1.3c-0.1,0-0.2,0-0.6-0.1c-0.7,0-1.2,0.4-1.5,1.1v4.6c-0.2,0-0.4,0.1-0.7,0.1s-0.5,0-0.7-0.1v-4.8
		C155.5,169.6,155.3,169.1,155,168.8z"/>
	<path fill="#FFFFFF" d="M165.4,172h-4.2c0,0.7,0.2,1.2,0.4,1.5c0.3,0.4,0.7,0.5,1.3,0.5s1.2-0.2,1.9-0.5c0.2,0.2,0.4,0.5,0.4,0.9
		c-0.7,0.5-1.6,0.8-2.6,0.8c-1,0-1.7-0.3-2.2-1s-0.7-1.5-0.7-2.6s0.3-2,0.7-2.6c0.5-0.7,1.2-1,2.1-1c0.9,0,1.6,0.3,2.1,0.8
		c0.5,0.6,0.7,1.3,0.7,2.1C165.5,171.3,165.4,171.7,165.4,172z M163.8,169.5c-0.2-0.4-0.6-0.5-1.1-0.5c-0.5,0-0.8,0.2-1.1,0.5
		s-0.4,0.9-0.4,1.5h2.9v-0.2C164.2,170.3,164,169.8,163.8,169.5z"/>
	<path fill="#FFFFFF" d="M166.5,174.5c0-0.2,0.1-0.3,0.1-0.5s0.2-0.3,0.3-0.4c0.8,0.4,1.4,0.6,1.9,0.6c0.5,0,0.8-0.1,1.1-0.3
		s0.4-0.4,0.4-0.7c0-0.4-0.3-0.8-0.9-1l-0.8-0.3c-1.2-0.4-1.8-1.1-1.8-2c0-0.6,0.2-1.1,0.7-1.5c0.5-0.4,1.1-0.6,1.8-0.6
		s1.5,0.2,2.2,0.5c0,0.2,0,0.4-0.1,0.6s-0.2,0.3-0.3,0.4c-0.7-0.3-1.3-0.4-1.9-0.4c-0.3,0-0.6,0.1-0.8,0.2c-0.2,0.2-0.3,0.3-0.3,0.6
		s0.1,0.4,0.2,0.6c0.1,0.1,0.4,0.3,0.7,0.4l0.8,0.3c1.2,0.5,1.8,1.2,1.8,2.1c0,0.6-0.2,1.1-0.7,1.5c-0.5,0.4-1.2,0.6-2,0.6
		C168.1,175.2,167.3,175,166.5,174.5z"/>
	<path fill="#FFFFFF" d="M173.1,172.9v-3.3c0-0.5-0.1-1-0.2-1.2c0.2-0.2,0.5-0.3,0.8-0.3s0.5,0.1,0.6,0.2c0.1,0.1,0.2,0.4,0.2,0.7
		v3.6c0,0.5,0.1,0.9,0.2,1.1c0.1,0.2,0.4,0.3,0.7,0.3s0.7-0.1,1-0.3c0.3-0.2,0.6-0.4,0.9-0.7v-4.9c0.2,0,0.5-0.1,0.7-0.1
		s0.4,0,0.7,0.1v5c0,0.7,0.1,1.1,0.4,1.4c-0.1,0.3-0.3,0.5-0.5,0.7c-0.6-0.1-0.9-0.5-1.1-1c-0.7,0.7-1.5,1-2.4,1
		c-0.6,0-1.1-0.2-1.4-0.6C173.2,174.1,173.1,173.6,173.1,172.9z"/>
	<path fill="#FFFFFF" d="M182.5,174h0.5c0.1,0.2,0.1,0.4,0.1,0.6s0,0.3,0,0.4c-0.4,0.1-0.8,0.1-1.2,0.1c-0.9,0-1.3-0.5-1.3-1.4v-8.9
		l0.1-0.1h0.5c0.3,0,0.5,0.1,0.6,0.2s0.2,0.4,0.2,0.7v7.8C182,173.8,182.2,174,182.5,174z"/>
	<path fill="#FFFFFF" d="M187.7,168.1c0,0.2,0.1,0.3,0.1,0.5c0,0.2,0,0.3-0.1,0.5l-1.8,0v4.3c0,0.4,0.2,0.6,0.6,0.6h1
		c0.1,0.2,0.1,0.4,0.1,0.6s0,0.3,0,0.4c-0.5,0.1-1.1,0.1-1.5,0.1c-1,0-1.4-0.5-1.4-1.4v-4.6l-1,0c0-0.1-0.1-0.3-0.1-0.5
		c0-0.2,0-0.4,0.1-0.5l1,0v-1.3c0-0.3,0.1-0.5,0.2-0.7s0.3-0.2,0.6-0.2h0.5l0.1,0.1v2.1L187.7,168.1z"/>
	<path fill="#FFFFFF" d="M194.4,174.4c-0.1,0.3-0.3,0.6-0.5,0.7c-0.5-0.1-0.9-0.4-1.1-0.9c-0.7,0.7-1.4,1-2.1,1s-1.2-0.2-1.6-0.6
		c-0.4-0.4-0.5-0.9-0.5-1.4c0-0.8,0.2-1.3,0.7-1.7c0.5-0.4,1.1-0.6,1.9-0.6c0.5,0,0.9,0,1.4,0.1v-0.6c0-0.8-0.4-1.3-1.2-1.3
		c-0.6,0-1.3,0.2-2.2,0.5c-0.3-0.3-0.4-0.6-0.4-1c1-0.4,1.9-0.6,2.9-0.6c0.7,0,1.3,0.2,1.7,0.6c0.4,0.4,0.6,1,0.6,1.8v2.9
		C194,173.8,194.1,174.2,194.4,174.4z M190.9,174.1c0.6,0,1.2-0.3,1.7-0.9v-1.3c-0.4,0-0.8-0.1-1.3-0.1c-0.5,0-0.8,0.1-1.1,0.3
		c-0.2,0.2-0.4,0.5-0.4,0.9c0,0.4,0.1,0.6,0.3,0.8S190.6,174.1,190.9,174.1z"/>
	<path fill="#FFFFFF" d="M197.9,175.2c-0.8,0-1.4-0.3-1.8-1c-0.4-0.6-0.6-1.5-0.6-2.7c0-1.1,0.3-2,0.8-2.6s1.2-0.9,1.9-0.9
		c0.5,0,1.1,0.2,1.6,0.5v-3.7l0.1-0.1h0.5c0.3,0,0.5,0.1,0.6,0.2c0.1,0.1,0.2,0.4,0.2,0.7v7.5c0,0.7,0.1,1.1,0.4,1.4
		c-0.1,0.3-0.3,0.6-0.5,0.7c-0.5-0.1-0.8-0.4-1-0.9C199.3,174.9,198.6,175.2,197.9,175.2z M198.1,174.1c0.6,0,1.1-0.3,1.6-0.9v-3.5
		c-0.5-0.4-1-0.5-1.4-0.5c-0.4,0-0.8,0.2-1.1,0.7c-0.3,0.4-0.4,1.1-0.4,1.9s0.1,1.4,0.4,1.8S197.7,174.1,198.1,174.1z"/>
	<path fill="#FFFFFF" d="M207.7,168.7c0.7,0.7,1,1.6,1,2.9s-0.3,2.2-1,2.9c-0.5,0.5-1.2,0.8-2,0.8c-0.8,0-1.5-0.3-2-0.8
		c-0.7-0.7-1-1.6-1-2.9s0.3-2.2,1-2.9c0.5-0.5,1.2-0.8,2-0.8C206.5,168,207.2,168.2,207.7,168.7z M204.1,171.6
		c0,1.7,0.5,2.6,1.6,2.6c1.1,0,1.6-0.9,1.6-2.6c0-0.5,0-0.9-0.1-1.3c-0.1-0.4-0.3-0.7-0.5-0.9c-0.2-0.3-0.6-0.4-1-0.4
		c-0.4,0-0.7,0.1-1,0.4c-0.2,0.3-0.4,0.6-0.5,0.9S204.1,171.1,204.1,171.6z"/>
	<path fill="#FFFFFF" d="M209.7,174.5c0-0.2,0.1-0.3,0.1-0.5s0.2-0.3,0.3-0.4c0.8,0.4,1.4,0.6,1.9,0.6c0.5,0,0.8-0.1,1.1-0.3
		s0.4-0.4,0.4-0.7c0-0.4-0.3-0.8-0.9-1l-0.8-0.3c-1.2-0.4-1.8-1.1-1.8-2c0-0.6,0.2-1.1,0.7-1.5c0.5-0.4,1.1-0.6,1.8-0.6
		s1.5,0.2,2.2,0.5c0,0.2,0,0.4-0.1,0.6s-0.2,0.3-0.3,0.4c-0.7-0.3-1.3-0.4-1.9-0.4c-0.3,0-0.6,0.1-0.8,0.2c-0.2,0.2-0.3,0.3-0.3,0.6
		s0.1,0.4,0.2,0.6c0.1,0.1,0.4,0.3,0.7,0.4l0.8,0.3c1.2,0.5,1.8,1.2,1.8,2.1c0,0.6-0.2,1.1-0.7,1.5c-0.5,0.4-1.2,0.6-2,0.6
		C211.2,175.2,210.4,175,209.7,174.5z"/>
</g>
<g>
	<path fill="#C7C7C7" d="M47.8,266.3v-8.1c0,0-33.6,17.7-35.7,18.2S0,277.8,0,277.8l4.8,8.1c0,0,4.2,1.1,8.6,0.1L47.8,266.3z"/>
	<path fill="#D5DDDD" d="M5.9,266.7C2.3,270.2,0.2,278,0.2,278s8.3,0.8,15.3-1.4l33.3-18.4L35,250.3L5.9,266.7z"/>
	<path fill="#BF582B" d="M7,267.3c-3.4,3.2-5.4,9.8-5.4,9.8c0,0.2,7.2,0.5,14.6-2l30.1-16.8l-11.8-6.9L7,267.3z"/>
	<g>
		<path fill="#993D1C" d="M44.9,257.7c0.1,0,0.2,0.1,0.2,0.1l-31,17.7c-0.3,0.1-1.5,0.3-2,0.4L44.9,257.7z"/>
		<path fill="#993D1C" d="M34.9,253.6l1.5-0.7L4.9,270.6c0.2-0.2,0.3-0.5,0.4-0.7L34.9,253.6z"/>
		<path fill="#993D1C" d="M42.4,256.3L5.9,277c-0.3,0.1-0.7,0.1-1,0.1L42.4,256.3z"/>
		<path fill="#993D1C" d="M40.3,255.1c0.1,0,0.2,0.1,0.3,0.1l-39,21.9c0.1-0.1,0.2-0.4,0.3-0.6L40.3,255.1z"/>
		<path fill="#993D1C" d="M3.3,273.8L3.3,273.8c0-0.2,0.1-0.4,0.2-0.6l34.7-19.3c0.1,0,0.2,0.1,0.2,0.1"/>
	</g>
	<path fill="#AEB1B1" d="M34.9,252.2L7,268.2c-2.5,2.4-3.9,6.5-5,8.8l-1.1,0.3c0.1-0.2,1.1-1.4,1.1-1.4s1.9-5.7,5-8.6l27.9-16
		l11.8,6.9l-0.8,0.5L34.9,252.2z"/>
	<g>
		<polygon fill="#D5DDDD" points="20.1,264.3 20.1,256.7 27,260.7 27,268.2 		"/>
		<path fill="#CFD1D2" d="M40.2,260.6L27,268.2v-7.5c0,0,13.5-7.8,13.3-7.6C40,253.4,40.2,260.6,40.2,260.6z"/>
		<g>
			<path fill="#898989" d="M31.3,261.2l-0.4-0.2c0,0-0.5-0.3-1.2,0.4c-0.8,0.7-0.9,1.6-0.7,2.2c0,0,0.1,0.3,0.2,0.3l0.5,0.3
				L31.3,261.2z"/>
			<path fill="#A5A4A4" d="M30.4,264.1c-0.4,0.2-1.4,0.2-1.4-0.9c0-1.3,0.9-1.9,1.4-2.2c0.2-0.1,1.2-0.1,1.3,0.8
				C31.7,262.5,31.5,263.5,30.4,264.1z"/>
			<path fill="#008A93" d="M30.5,263.8c-0.3,0.1-1.1,0.2-1.1-0.7c0-1,0.7-1.5,1.1-1.7c0.2-0.1,0.9-0.1,1,0.7
				C31.4,262.1,31.4,263.3,30.5,263.8z"/>
			<path fill="#043A63" d="M30.5,261.4c0,0,0.8,0,0.8,0.7c0.1,0.6-0.3,1.2-0.3,1.3c0,0,0.3-0.3,0.4-1
				C31.5,261.7,31.1,261.3,30.5,261.4z"/>
			<path fill="#00D1D2" d="M30.5,261.6c0,0-0.7,0.4-0.8,1c-0.1,0.6,0,0.9,0.2,0.9c0,0,0.9-1.2,0.9-1.5S30.5,261.6,30.5,261.6z"/>
		</g>
		<g>
			<path fill="#898989" d="M39,256.9l-0.4-0.2c0,0-0.5-0.3-1.2,0.4c-0.8,0.7-0.9,1.6-0.7,2.2c0,0,0.1,0.3,0.2,0.3l0.5,0.3L39,256.9z
				"/>
			<path fill="#A5A4A4" d="M38.1,259.8c-0.4,0.2-1.4,0.2-1.4-0.9c0-1.3,0.9-1.9,1.4-2.2c0.2-0.1,1.2-0.1,1.3,0.8
				C39.4,258.2,39.2,259.3,38.1,259.8z"/>
			<path fill="#008A93" d="M38.1,259.5c-0.3,0.1-1.1,0.2-1.1-0.7c0-1,0.7-1.5,1.1-1.7c0.2-0.1,0.9-0.1,1,0.7
				C39.1,257.8,39.1,259,38.1,259.5z"/>
			<path fill="#043A63" d="M38.2,257.1c0,0,0.8,0,0.8,0.7c0.1,0.6-0.3,1.2-0.3,1.3c0,0,0.3-0.3,0.4-1
				C39.2,257.4,38.8,257,38.2,257.1z"/>
			<path fill="#00D1D2" d="M38.2,257.3c0,0-0.7,0.4-0.8,1c-0.1,0.6,0,0.9,0.2,0.9c0,0,0.9-1.2,0.9-1.5
				C38.5,257.4,38.2,257.3,38.2,257.3z"/>
		</g>
		<polygon fill="#043A63" points="21.3,265.2 21.1,260.7 23.8,262.2 23.8,266.7 		"/>
		<g>
			<polygon fill="#8DB33C" points="13.1,258.8 13.1,257.4 22.8,263 22.8,264.3 			"/>
			<path fill="#94C73D" d="M41.6,253.5l-18.8,10.8V263l18.8-10.8C41.6,252.5,41.6,253.5,41.6,253.5z"/>
			<polygon fill="#A9D42D" points="13.1,257.4 31.8,246.8 41.6,252.2 22.8,263 			"/>
		</g>
	</g>
	<g>
		<path fill="#941D26" d="M27.3,275.6c1.4-2.2,0.5-2.9-0.3-3.4c-0.8-0.5-2.1,0.1-2.9,1.4c-0.8,1.3-0.8,2.7-0.1,3.2
			C24.8,277.2,25.8,277.8,27.3,275.6z M25.6,274.5c0.4-0.7,1.1-1,1.5-0.8c0.4,0.2,0.3,1-0.1,1.7c-0.4,0.7-1.1,1-1.5,0.8
			C25.1,275.9,25.1,275.1,25.6,274.5z"/>
		<path fill="#941D26" d="M26.7,273.6c0,0,0.4,0.5-0.3,1.5s-1.2,0.9-1.2,0.9s-0.1,1.1,0.6,0.8c0.7-0.3,2.3-2.5,1.8-2.9
			C27.1,273.3,26.7,273.6,26.7,273.6z"/>
		<path fill="#DB404B" d="M27.4,275.7c0.8-1.3,0.8-2.7,0.1-3.2c-0.8-0.5-2.1,0.1-2.9,1.4c-0.8,1.3-0.8,2.7-0.1,3.2
			C25.3,277.6,26.6,276.9,27.4,275.7z M25.6,274.5c0.4-0.7,1.1-1,1.5-0.8c0.4,0.2,0.3,1-0.1,1.7c-0.4,0.7-1.1,1-1.5,0.8
			C25.1,275.9,25.1,275.1,25.6,274.5z"/>
		<path fill="#FFFFFF" d="M24.3,274.4c0,0,0.1-0.3,0.3-0.6c0.1-0.1,0.4-0.5,0.4-0.5l0.8,0.9l-0.4,0.6L24.3,274.4z"/>
		<path fill="#FFFFFF" d="M27.1,276.2c0,0,0.2-0.2,0.4-0.5c0.1-0.1,0.3-0.6,0.3-0.6l-0.7,0l-0.4,0.6L27.1,276.2z"/>
		<path fill="#D1D1D1" d="M24.5,273l0.5,0.3c0,0-0.6,0.6-0.7,1.1l-0.5-0.3C23.8,274,24.3,273.2,24.5,273z"/>
		<path fill="#D1D1D1" d="M26.6,274.6l0.5,0.4c0,0,0,0.2-0.4,0.6l-0.5-0.3C26.2,275.3,26.4,275.1,26.6,274.6z"/>
		<path fill="#FFFFFF" d="M27.2,273.8l0.7-0.8c0,0-0.3-0.6-0.9-0.7l-0.2,1.3C26.8,273.6,27.2,273.6,27.2,273.8z"/>
		<path fill="#FFFFFF" d="M25.7,276.2c0,0-0.3,0-0.4-0.2c-0.1-0.2,0,0,0,0l-0.9,0.9c0,0,0.5,0.4,0.8,0.3L25.7,276.2z"/>
	</g>
	<g>
		<path fill="#941D26" d="M33.3,272.5c1.4-2.2,0.5-2.9-0.3-3.4c-0.8-0.5-2.1,0.1-2.9,1.4s-0.8,2.7-0.1,3.2
			C30.9,274.1,31.9,274.7,33.3,272.5z M31.6,271.4c0.4-0.7,1.1-1,1.5-0.8c0.4,0.2,0.3,1-0.1,1.7c-0.4,0.7-1.1,1-1.5,0.8
			C31.1,272.8,31.2,272,31.6,271.4z"/>
		<path fill="#941D26" d="M32.7,270.5c0,0,0.4,0.5-0.3,1.5c-0.6,1-1.2,0.9-1.2,0.9s-0.1,1.1,0.6,0.8c0.7-0.3,2.3-2.5,1.8-2.9
			C33.2,270.2,32.7,270.5,32.7,270.5z"/>
		<path fill="#DB404B" d="M33.5,272.6c0.8-1.3,0.8-2.7,0.1-3.2c-0.8-0.5-2.1,0.1-2.9,1.4s-0.8,2.7-0.1,3.2S32.7,273.8,33.5,272.6z
			 M31.6,271.4c0.4-0.7,1.1-1,1.5-0.8c0.4,0.2,0.3,1-0.1,1.7c-0.4,0.7-1.1,1-1.5,0.8C31.1,272.8,31.2,272,31.6,271.4z"/>
		<path fill="#FFFFFF" d="M30.3,271.3c0,0,0.1-0.3,0.3-0.6c0.1-0.1,0.4-0.5,0.4-0.5l0.8,0.9l-0.4,0.6L30.3,271.3z"/>
		<path fill="#FFFFFF" d="M33.1,273.1c0,0,0.2-0.2,0.4-0.5c0.1-0.1,0.3-0.6,0.3-0.6l-0.7,0l-0.4,0.6L33.1,273.1z"/>
		<path fill="#D1D1D1" d="M30.6,269.8l0.5,0.3c0,0-0.6,0.6-0.7,1.1l-0.5-0.3C29.8,270.9,30.3,270.1,30.6,269.8z"/>
		<path fill="#D1D1D1" d="M32.7,271.5l0.5,0.4c0,0,0,0.2-0.4,0.6l-0.5-0.3C32.3,272.2,32.5,272,32.7,271.5z"/>
		<path fill="#FFFFFF" d="M33.3,270.7l0.7-0.8c0,0-0.3-0.6-0.9-0.7l-0.2,1.3C32.8,270.5,33.2,270.5,33.3,270.7z"/>
		<path fill="#FFFFFF" d="M31.7,273.1c0,0-0.3,0-0.4-0.2c-0.1-0.2,0,0,0,0l-0.9,0.9c0,0,0.5,0.4,0.8,0.3L31.7,273.1z"/>
	</g>
	<g>
		<path fill="#941D26" d="M38.9,269.2c1.4-2.2,0.5-2.9-0.3-3.4s-2.1,0.1-2.9,1.4c-0.8,1.3-0.8,2.7-0.1,3.2S37.5,271.4,38.9,269.2z
			 M37.2,268.1c0.4-0.7,1.1-1,1.5-0.8c0.4,0.2,0.3,1-0.1,1.7c-0.4,0.7-1.1,1-1.5,0.8C36.7,269.5,36.7,268.8,37.2,268.1z"/>
		<path fill="#941D26" d="M38.3,267.2c0,0,0.4,0.5-0.3,1.5c-0.6,1-1.2,0.9-1.2,0.9s-0.1,1.1,0.6,0.8c0.7-0.3,2.3-2.5,1.8-2.9
			S38.3,267.2,38.3,267.2z"/>
		<path fill="#DB404B" d="M39.1,269.3c0.8-1.3,0.8-2.7,0.1-3.2s-2.1,0.1-2.9,1.4c-0.8,1.3-0.8,2.7-0.1,3.2S38.2,270.6,39.1,269.3z
			 M37.2,268.1c0.4-0.7,1.1-1,1.5-0.8c0.4,0.2,0.3,1-0.1,1.7c-0.4,0.7-1.1,1-1.5,0.8C36.7,269.5,36.7,268.8,37.2,268.1z"/>
		<path fill="#FFFFFF" d="M35.9,268c0,0,0.1-0.3,0.3-0.6c0.1-0.1,0.4-0.5,0.4-0.5l0.8,0.9l-0.4,0.6L35.9,268z"/>
		<path fill="#FFFFFF" d="M38.7,269.8c0,0,0.2-0.2,0.4-0.5c0.1-0.1,0.3-0.6,0.3-0.6l-0.7,0l-0.4,0.6L38.7,269.8z"/>
		<path fill="#D1D1D1" d="M36.2,266.6l0.5,0.3c0,0-0.6,0.6-0.7,1.1l-0.5-0.3C35.4,267.7,35.9,266.8,36.2,266.6z"/>
		<path fill="#D1D1D1" d="M38.3,268.3l0.5,0.4c0,0,0,0.2-0.4,0.6l-0.5-0.3C37.8,269,38,268.8,38.3,268.3z"/>
		<path fill="#FFFFFF" d="M38.8,267.4l0.7-0.8c0,0-0.3-0.6-0.9-0.7l-0.2,1.3C38.4,267.2,38.8,267.2,38.8,267.4z"/>
		<path fill="#FFFFFF" d="M37.3,269.8c0,0-0.3,0-0.4-0.2c-0.1-0.2,0,0,0,0l-0.9,0.9c0,0,0.5,0.4,0.8,0.3L37.3,269.8z"/>
	</g>
	<g>
		<path fill="#898989" d="M18,279l-0.6-0.2c0,0-0.5-0.1-1,0.4c-0.8,0.7-0.7,1.2-0.7,1.8c0,0.1,0.1,0.5,0.2,0.6l0.3,0.3L18,279z"/>
		<path fill="#A5A4A4" d="M17.2,281.9c-0.4,0.2-1.4,0.2-1.4-0.9c0-1.3,0.9-2,1.4-2.1c0.4-0.1,1.2-0.2,1.3,0.8
			C18.5,280.4,18.3,281.4,17.2,281.9z"/>
		<path fill="#0A293A" d="M17.2,281.7c-0.3,0.1-1.1,0.2-1.1-0.7c0-1,0.7-1.5,1.1-1.7c0.2-0.1,0.9-0.1,1,0.7
			C18.2,280,18.2,281.2,17.2,281.7z"/>
		<path fill="#000B11" d="M17.3,279.3c0,0,0.8,0,0.8,0.7c0.1,0.6-0.3,1.2-0.3,1.3c0,0,0.3-0.3,0.4-1
			C18.3,279.5,17.8,279.2,17.3,279.3z"/>
		<g>
			<path fill="#A5A4A4" d="M18.2,281.3c0.1,0.2,0,0.4-0.1,0.5l0,0c-0.2,0.1-0.4,0-0.5-0.1l-0.3-0.5c-0.1-0.2,0-0.4,0.1-0.5l0,0
				c0.2-0.1,0.4,0,0.5,0.1L18.2,281.3z"/>
			<path fill="#D5DDDD" d="M18.8,282.4c0.1,0.2,0,0.4-0.1,0.5l0,0c-0.2,0.1-0.4,0-0.5-0.1l-0.3-0.5c-0.1-0.2,0-0.4,0.1-0.5l0,0
				c0.2-0.1,0.4,0,0.5,0.1L18.8,282.4z"/>
			<path fill="#A5A4A4" d="M19.4,283.5c0.1,0.2,0,0.4-0.1,0.5l0,0c-0.2,0.1-0.4,0-0.5-0.1l-0.3-0.5c-0.1-0.2,0-0.4,0.1-0.5l0,0
				c0.2-0.1,0.4,0,0.5,0.1L19.4,283.5z"/>
			<path fill="#D5DDDD" d="M20,284.5c0.1,0.2,0,0.4-0.1,0.5l0,0c-0.2,0.1-0.4,0-0.5-0.1l-0.3-0.5c-0.1-0.2,0-0.4,0.1-0.5l0,0
				c0.2-0.1,0.4,0,0.5,0.1L20,284.5z"/>
			<path fill="#A5A4A4" d="M20.6,285.6c0.1,0.2,0,0.4-0.1,0.5l0,0c-0.2,0.1-0.4,0-0.5-0.1l-0.3-0.5c-0.1-0.2,0-0.4,0.1-0.5l0,0
				c0.2-0.1,0.4,0,0.5,0.1L20.6,285.6z"/>
		</g>
	</g>
	<g>
		<path fill="#4D5050" d="M15.4,247.7c0,0-3.5,16-3.7,16.7c0,0-0.6,0.3-0.5,0.3c0,0,4.1-17,4.1-17L15.4,247.7z"/>
		<path fill="#4D5050" d="M15,247.6c0,0-5,17.1-5.2,17.8c0,0-0.4,0.2-0.4,0.2c0,0,5.4-18,5.4-18H15z"/>
		<path fill="#4D5050" d="M14.7,247.6c0,0-7.6,18.9-7.8,19.5c0,0-0.2,0.1-0.4,0.3c0,0,8.1-19.8,8.1-19.8H14.7z"/>
		<g>
			<polygon fill="#8E9595" points="16,268.7 14.2,268.7 14.5,247.6 15.7,247.6 			"/>
			<path fill="#8E9595" d="M14.2,268.8c0,0,0,0.6,0.9,0.6c0.9,0,0.9-0.7,0.9-0.7l-1.8-0.1V268.8z"/>
		</g>
		<path fill="#B5BCBC" d="M14.9,247.9l0.2,20.8c0,0-0.4,0.3-0.6-0.1c-0.2-0.4,0.2-20.7,0.2-20.7H14.9z"/>
		<path fill="#4D5050" d="M15.1,247.6c0,0,0.4,27.3,0.6,28.4c0,0,0.5-0.3,0.5-0.3c0,0-0.9-28.1-0.9-28.1H15.1z"/>
		<path fill="#4D5050" d="M15.5,247.6c0,0,2.4,26.1,2.6,27.2c0,0,0.5-0.3,0.5-0.3c0,0-2.9-26.9-2.9-26.9H15.5z"/>
		<path fill="#4D5050" d="M15.6,247.6c0,0,4.8,24.6,5,25.7c0,0,0.5-0.3,0.5-0.3c0,0-5.4-25.4-5.4-25.4H15.6z"/>
		<ellipse fill="#B5BCBC" cx="15" cy="247.6" rx="0.6" ry="0.3"/>
		<polygon fill="#4D5050" points="15,247.6 14.9,241.9 15.3,241.9 15.3,247.6 		"/>
		<path fill="#F9AE40" d="M20.3,244.6c0,0-2.1,0.4-2.4,1c-0.5,0.9-2.2,0.7-2.4,0.7c-0.1-0.1,0-4,0-4s2,0.1,2.1-0.5
			c0.1-0.6,2.8-1.2,2.8-1.2"/>
		<polygon fill="#B8700F" points="18,245.4 17.8,245.8 17.5,241.8 17.8,241.5 		"/>
	</g>
</g>
</svg>