<!-- Generator: Adobe Illustrator 17.1.0, SVG Export Plug-In  -->
<svg version="1.1"
	 xmlns="http://www.w3.org/2000/svg" xmlns:xlink="http://www.w3.org/1999/xlink" xmlns:a="http://ns.adobe.com/AdobeSVGViewerExtensions/3.0/"
	 x="0px" y="0px" width="178.6px" height="61px" viewBox="0 0 178.6 61" enable-background="new 0 0 178.6 61" xml:space="preserve"
	>
<defs>
</defs>
<g>
	<path fill="none" stroke="#FFFFFF" stroke-width="2" stroke-linecap="round" stroke-miterlimit="10" d="M51,53v6.2
		c0,0.7-0.7,0.8-1.4,0.8H2.7C2,60,1,59.9,1,59.2V12.4L13.4,1h36.3C50.3,1,51,1.3,51,2v47"/>
	<path fill="none" stroke="#FFFFFF" stroke-width="2" stroke-linecap="round" stroke-miterlimit="10" d="M14,1v9.8
		c0,0.7-0.8,1.2-1.5,1.2H1"/>
</g>
<g>
	<g>
		<polygon fill="none" stroke="#CBDA2A" stroke-miterlimit="10" points="19.6,25.6 26.5,32.4 33.1,25.8 26.4,11 		"/>
		<line fill="none" stroke="#CBDA2A" stroke-miterlimit="10" x1="26.4" y1="12" x2="26.4" y2="32.6"/>
		<polygon fill="none" stroke="#CBDA2A" stroke-miterlimit="10" points="33.2,25.7 26.4,32.6 33,39.2 47.8,32.5 		"/>
		<line fill="none" stroke="#CBDA2A" stroke-miterlimit="10" x1="46.8" y1="32.3" x2="26.3" y2="32.3"/>
		<polygon fill="none" stroke="#CBDA2A" stroke-miterlimit="10" points="33,39.4 26.2,32.6 19.6,39.2 26.3,54 		"/>
		<line fill="none" stroke="#CBDA2A" stroke-miterlimit="10" x1="26.3" y1="52.9" x2="26.3" y2="32.4"/>
		<polygon fill="none" stroke="#CBDA2A" stroke-miterlimit="10" points="19.4,39.2 26.3,32.4 19.6,25.8 4.8,32.5 		"/>
		<line fill="none" stroke="#CBDA2A" stroke-miterlimit="10" x1="5.9" y1="32.3" x2="26.4" y2="32.3"/>
	</g>
	<polygon fill="#CBDA2A" points="26.7,12.6 26.5,32.4 33,25.7 	"/>
	<polygon fill="#CBDA2A" points="46.7,32.6 25.6,32.3 32.8,38.9 	"/>
	<polygon fill="#CBDA2A" points="26.1,53.6 26.3,32.5 19.7,39.6 	"/>
	<polygon fill="#CBDA2A" points="5.9,32.1 27,32.3 19.8,25.8 	"/>
</g>
<g>
	<path fill="#A9D42D" d="M70.6,8.4c0,0,0-0.1,0-0.1c0-0.7-0.2-1.3-0.5-1.7c-0.3-0.5-0.8-0.7-1.6-0.7c-1.5,0-2.3,1.4-2.3,4.1
		c0,1.2,0.2,2.2,0.6,2.9s1.1,1,1.9,1s1.7-0.4,2.8-1.2c0.2,0.1,0.4,0.3,0.6,0.6c0.2,0.3,0.3,0.5,0.4,0.7c-0.5,0.5-1.1,0.9-1.8,1.2
		c-0.7,0.3-1.5,0.5-2.3,0.5c-0.8,0-1.5-0.2-2-0.5s-1-0.8-1.3-1.3c-0.6-1.1-0.9-2.3-0.9-3.9c0-1.9,0.4-3.3,1.3-4.3
		c0.8-1,1.9-1.4,3.1-1.4s2.2,0.3,3,0.9s1.1,1.4,1.1,2.3c0,0.8-0.4,1.1-1.2,1.1C71.2,8.5,70.9,8.5,70.6,8.4z"/>
	<path fill="#A9D42D" d="M80.9,11.4c0,1.4-0.4,2.5-1.1,3.3c-0.6,0.6-1.4,0.9-2.4,0.9s-1.8-0.3-2.4-0.9c-0.8-0.8-1.1-1.8-1.1-3.3
		s0.4-2.5,1.1-3.3c0.6-0.6,1.4-0.9,2.4-0.9s1.8,0.3,2.4,0.9C80.5,8.8,80.9,9.9,80.9,11.4z M77.3,8.7c-1,0-1.5,0.9-1.5,2.7
		s0.5,2.7,1.5,2.7s1.5-0.9,1.5-2.7S78.3,8.7,77.3,8.7z"/>
	<path fill="#A9D42D" d="M89.1,10v3.6c0,0.7,0.1,1.2,0.3,1.5c-0.4,0.3-0.7,0.4-1.2,0.4c-0.4,0-0.7-0.1-0.9-0.3
		c-0.2-0.2-0.2-0.5-0.2-0.9v-3.8c0-0.5-0.1-0.8-0.2-1S86.6,9,86.3,9c-0.6,0-1.2,0.3-1.7,0.8v5.5c-0.3,0.1-0.6,0.1-1,0.1
		c-0.4,0-0.7,0-1-0.1V7.4l0.1-0.1h0.7c0.6,0,1,0.3,1.1,1c0.8-0.7,1.6-1,2.3-1c0.8,0,1.3,0.3,1.7,0.8C89,8.5,89.1,9.2,89.1,10z"/>
	<path fill="#A9D42D" d="M97.8,10v3.6c0,0.7,0.1,1.2,0.3,1.5c-0.3,0.3-0.7,0.4-1.2,0.4c-0.4,0-0.7-0.1-0.9-0.3
		c-0.2-0.2-0.2-0.5-0.2-0.9v-3.8c0-0.5-0.1-0.8-0.2-1C95.5,9.2,95.3,9,95,9c-0.6,0-1.2,0.3-1.7,0.8v5.5c-0.3,0.1-0.6,0.1-1,0.1
		s-0.7,0-1-0.1V3.7l0.1-0.1h0.8c0.4,0,0.7,0.1,0.8,0.3s0.2,0.5,0.2,1v3.5c0.8-0.7,1.5-1,2.3-1c0.8,0,1.3,0.2,1.7,0.7
		C97.6,8.5,97.8,9.2,97.8,10z"/>
	<path fill="#A9D42D" d="M106,12h-4.5c0,0.6,0.2,1.1,0.4,1.5c0.3,0.3,0.7,0.5,1.3,0.5c0.6,0,1.3-0.2,2.1-0.6
		c0.3,0.3,0.5,0.7,0.6,1.2c-0.9,0.6-1.9,0.9-3.1,0.9s-2.1-0.4-2.6-1.2c-0.5-0.8-0.8-1.8-0.8-3s0.3-2.2,0.9-3
		c0.6-0.8,1.4-1.2,2.5-1.2s1.9,0.3,2.5,1c0.6,0.6,0.9,1.5,0.9,2.4C106.2,11.1,106.1,11.5,106,12z M102.9,8.6c-0.9,0-1.3,0.7-1.4,2
		h2.8v-0.2c0-0.5-0.1-1-0.3-1.3C103.8,8.8,103.4,8.6,102.9,8.6z"/>
	<path fill="#A9D42D" d="M109.9,16.5c0.1-0.4,0.2-0.7,0.3-1c-0.9-0.1-1.6-0.6-2.1-1.3c-0.5-0.7-0.7-1.7-0.7-2.8c0-1.4,0.3-2.5,1-3.2
		c0.7-0.7,1.5-1.1,2.4-1.1c0.9,0,1.7,0.2,2.2,0.7c0.5,0.5,0.8,1.1,0.8,1.8c0,0.7-0.3,1-1,1c-0.2,0-0.5,0-0.8-0.1c0-0.1,0-0.1,0-0.2
		c0-0.5-0.1-1-0.2-1.3c-0.2-0.3-0.5-0.5-1-0.5c-0.9,0-1.4,0.9-1.4,2.6s0.5,2.6,1.6,2.6c0.6,0,1.2-0.3,1.9-0.8
		c0.2,0.1,0.3,0.3,0.5,0.5c0.1,0.2,0.3,0.4,0.3,0.7c-0.7,0.7-1.5,1-2.4,1.2c-0.1,0.1-0.1,0.3-0.2,0.4c0.5,0,0.8,0.2,1.1,0.4
		c0.3,0.3,0.4,0.6,0.4,1.1s-0.2,0.8-0.6,1.1c-0.4,0.3-0.9,0.5-1.4,0.5c-0.6,0-1-0.1-1.4-0.4c0-0.4,0.1-0.7,0.4-0.9
		c0.2,0.1,0.5,0.2,0.8,0.2c0.4,0,0.7-0.2,0.7-0.6c0-0.2-0.1-0.3-0.2-0.4c-0.1-0.1-0.2-0.2-0.4-0.2s-0.3,0-0.4,0.1
		C110.1,16.8,110,16.7,109.9,16.5z"/>
	<path fill="#A9D42D" d="M122,14.4c-0.1,0.2-0.1,0.4-0.3,0.6c-0.1,0.2-0.3,0.3-0.4,0.5c-0.7-0.1-1.1-0.4-1.5-0.9
		c-0.7,0.7-1.5,1-2.3,1s-1.4-0.2-1.9-0.7c-0.4-0.5-0.6-1-0.6-1.7c0-0.9,0.3-1.6,0.9-2c0.6-0.5,1.3-0.7,2.2-0.7c0.5,0,1,0,1.4,0.1
		v-0.5c0-0.8-0.4-1.3-1.2-1.3c-0.6,0-1.4,0.2-2.4,0.6c-0.3-0.3-0.5-0.8-0.5-1.4c1.2-0.5,2.3-0.7,3.5-0.7c0.8,0,1.5,0.2,2,0.7
		c0.5,0.4,0.8,1.1,0.8,2v3.3C121.5,13.8,121.7,14.2,122,14.4z M117.9,14c0.6,0,1.1-0.3,1.6-0.8v-1.4c-0.4,0-0.8-0.1-1.2-0.1
		s-0.8,0.1-1,0.3c-0.2,0.2-0.3,0.5-0.3,0.8c0,0.3,0.1,0.6,0.3,0.8C117.4,13.9,117.7,14,117.9,14z"/>
	<path fill="#A9D42D" d="M133.8,11.4c0,1.4-0.4,2.5-1.1,3.3c-0.6,0.6-1.4,0.9-2.4,0.9s-1.8-0.3-2.4-0.9c-0.8-0.8-1.1-1.8-1.1-3.3
		s0.4-2.5,1.1-3.3c0.6-0.6,1.4-0.9,2.4-0.9s1.8,0.3,2.4,0.9C133.4,8.8,133.8,9.9,133.8,11.4z M130.3,8.7c-1,0-1.5,0.9-1.5,2.7
		s0.5,2.7,1.5,2.7s1.5-0.9,1.5-2.7S131.3,8.7,130.3,8.7z"/>
	<path fill="#A9D42D" d="M143.4,17.6v-2.8c-0.6,0.5-1.3,0.7-2,0.7c-0.9,0-1.6-0.4-2.1-1.1c-0.5-0.7-0.7-1.8-0.7-3s0.3-2.3,0.9-3
		c0.6-0.7,1.3-1.1,2.2-1.1c0.8,0,1.6,0.3,2.2,0.8c0.3-0.4,0.7-0.6,1.3-0.7c0.1,0.1,0.3,0.2,0.4,0.4c0.1,0.2,0.2,0.4,0.3,0.6
		c-0.3,0.3-0.4,0.7-0.4,1.4v9l-0.1,0.1h-0.8c-0.4,0-0.7-0.1-0.8-0.3S143.4,18,143.4,17.6z M141.9,13.9c0.6,0,1.1-0.3,1.5-0.8V9.3
		c-0.5-0.4-0.9-0.6-1.4-0.6c-0.4,0-0.8,0.2-1,0.7c-0.3,0.5-0.4,1.1-0.4,2s0.1,1.5,0.3,1.9S141.5,13.9,141.9,13.9z"/>
	<path fill="#A9D42D" d="M147.6,12.8V9.2c0-0.6-0.1-1.1-0.3-1.5c0.3-0.3,0.7-0.4,1.1-0.4s0.7,0.1,0.9,0.3c0.2,0.2,0.2,0.5,0.2,0.9
		v3.8c0,0.5,0.1,0.8,0.2,1s0.4,0.3,0.7,0.3c0.6,0,1.2-0.3,1.7-0.8V7.4c0.3-0.1,0.6-0.1,1-0.1c0.4,0,0.7,0,1,0.1v5.7
		c0,0.7,0.1,1.1,0.4,1.4c-0.1,0.4-0.3,0.8-0.7,1c-0.8-0.1-1.3-0.5-1.6-1.1c-0.8,0.8-1.7,1.2-2.6,1.2c-0.7,0-1.3-0.2-1.6-0.7
		S147.6,13.6,147.6,12.8z"/>
	<path fill="#A9D42D" d="M162.4,12h-4.5c0,0.6,0.2,1.1,0.4,1.5c0.3,0.3,0.7,0.5,1.3,0.5c0.6,0,1.3-0.2,2.1-0.6
		c0.3,0.3,0.5,0.7,0.6,1.2c-0.9,0.6-1.9,0.9-3.1,0.9s-2.1-0.4-2.6-1.2c-0.5-0.8-0.8-1.8-0.8-3s0.3-2.2,0.9-3
		c0.6-0.8,1.4-1.2,2.5-1.2s1.9,0.3,2.5,1c0.6,0.6,0.9,1.5,0.9,2.4C162.5,11.1,162.5,11.5,162.4,12z M159.3,8.6c-0.9,0-1.3,0.7-1.4,2
		h2.8v-0.2c0-0.5-0.1-1-0.3-1.3C160.1,8.8,159.8,8.6,159.3,8.6z"/>
	<path fill="#A9D42D" d="M68.6,26.4c0.9,0,1.5,0.4,2,1.1c0.5,0.7,0.7,1.8,0.7,3c0,1.3-0.3,2.3-0.9,3c-0.6,0.7-1.3,1.1-2.2,1.1
		c-0.6,0-1.1-0.1-1.7-0.4v2.5c0,0.4-0.1,0.8-0.2,1c-0.2,0.2-0.4,0.3-0.8,0.3h-0.8l-0.1-0.1V26.6l0.1-0.1h0.6c0.6,0,0.9,0.3,1.1,0.8
		C67,26.7,67.7,26.4,68.6,26.4z M68.1,28c-0.6,0-1.1,0.3-1.5,0.9v3.8c0.5,0.3,1,0.5,1.4,0.5c0.4,0,0.8-0.2,1-0.7
		c0.3-0.5,0.4-1.1,0.4-2S69.2,29,69,28.6C68.7,28.2,68.4,28,68.1,28z"/>
	<path fill="#A9D42D" d="M72.6,27.5c0-0.2,0.1-0.4,0.3-0.6c0.1-0.2,0.3-0.4,0.4-0.5c0.8,0.1,1.4,0.6,1.7,1.4
		c0.4-0.9,1.1-1.4,2.1-1.4c0.2,0,0.6,0,0.9,0.1c0,0.7-0.2,1.3-0.5,1.9c-0.2,0-0.4-0.1-0.7-0.1c-0.7,0-1.2,0.3-1.6,1v5.1
		c-0.3,0.1-0.6,0.1-1,0.1c-0.4,0-0.7,0-1-0.1v-5.4C73.2,28.4,73,27.8,72.6,27.5z"/>
	<path fill="#A9D42D" d="M85.2,31.2h-4.5c0,0.6,0.2,1.1,0.4,1.5c0.3,0.3,0.7,0.5,1.3,0.5c0.6,0,1.3-0.2,2.1-0.6
		c0.3,0.3,0.5,0.7,0.6,1.2c-0.9,0.6-1.9,0.9-3.1,0.9s-2.1-0.4-2.6-1.2c-0.5-0.8-0.8-1.8-0.8-3s0.3-2.2,0.9-3
		c0.6-0.8,1.4-1.2,2.5-1.2s1.9,0.3,2.5,1c0.6,0.6,0.9,1.5,0.9,2.4C85.3,30.3,85.3,30.7,85.2,31.2z M82.1,27.8c-0.9,0-1.3,0.7-1.4,2
		h2.8v-0.2c0-0.5-0.1-1-0.3-1.3C82.9,28,82.6,27.8,82.1,27.8z"/>
	<path fill="#A9D42D" d="M91.2,26.4c0.9,0,1.5,0.4,2,1.1c0.5,0.7,0.7,1.8,0.7,3c0,1.3-0.3,2.3-0.9,3c-0.6,0.7-1.3,1.1-2.2,1.1
		c-0.6,0-1.1-0.1-1.7-0.4v2.5c0,0.4-0.1,0.8-0.2,1C88.7,37.9,88.4,38,88,38h-0.8l-0.1-0.1V26.6l0.1-0.1h0.6c0.6,0,0.9,0.3,1.1,0.8
		C89.6,26.7,90.3,26.4,91.2,26.4z M90.6,28c-0.6,0-1.1,0.3-1.5,0.9v3.8c0.5,0.3,1,0.5,1.4,0.5c0.4,0,0.8-0.2,1-0.7
		c0.3-0.5,0.4-1.1,0.4-2s-0.1-1.5-0.4-1.9C91.3,28.2,91,28,90.6,28z"/>
	<path fill="#A9D42D" d="M102.1,33.6c-0.1,0.2-0.1,0.4-0.3,0.6c-0.1,0.2-0.3,0.3-0.4,0.5c-0.7-0.1-1.1-0.4-1.5-0.9
		c-0.7,0.7-1.5,1-2.3,1s-1.4-0.2-1.9-0.7c-0.4-0.5-0.6-1-0.6-1.7c0-0.9,0.3-1.6,0.9-2c0.6-0.5,1.3-0.7,2.2-0.7c0.5,0,1,0,1.4,0.1
		v-0.5c0-0.8-0.4-1.3-1.2-1.3c-0.6,0-1.4,0.2-2.4,0.6c-0.3-0.3-0.5-0.8-0.5-1.4c1.2-0.5,2.3-0.7,3.5-0.7c0.8,0,1.5,0.2,2,0.7
		c0.5,0.4,0.8,1.1,0.8,2v3.3C101.6,33,101.8,33.4,102.1,33.6z M98.1,33.2c0.6,0,1.1-0.3,1.6-0.8V31c-0.4,0-0.8-0.1-1.2-0.1
		s-0.8,0.1-1,0.3c-0.2,0.2-0.3,0.5-0.3,0.8c0,0.3,0.1,0.6,0.3,0.8C97.5,33.1,97.8,33.2,98.1,33.2z"/>
	<path fill="#A9D42D" d="M103.4,27.5c0-0.2,0.1-0.4,0.3-0.6c0.1-0.2,0.3-0.4,0.4-0.5c0.8,0.1,1.4,0.6,1.7,1.4
		c0.4-0.9,1.1-1.4,2.1-1.4c0.2,0,0.6,0,0.9,0.1c0,0.7-0.2,1.3-0.5,1.9c-0.2,0-0.4-0.1-0.7-0.1c-0.7,0-1.2,0.3-1.6,1v5.1
		c-0.3,0.1-0.6,0.1-1,0.1c-0.4,0-0.7,0-1-0.1v-5.4C104,28.4,103.8,27.8,103.4,27.5z"/>
	<path fill="#A9D42D" d="M116.1,33.6c-0.1,0.2-0.1,0.4-0.3,0.6c-0.1,0.2-0.3,0.3-0.4,0.5c-0.7-0.1-1.1-0.4-1.5-0.9
		c-0.7,0.7-1.5,1-2.3,1s-1.4-0.2-1.9-0.7c-0.4-0.5-0.6-1-0.6-1.7c0-0.9,0.3-1.6,0.9-2c0.6-0.5,1.3-0.7,2.2-0.7c0.5,0,1,0,1.4,0.1
		v-0.5c0-0.8-0.4-1.3-1.2-1.3c-0.6,0-1.4,0.2-2.4,0.6c-0.3-0.3-0.5-0.8-0.5-1.4c1.2-0.5,2.3-0.7,3.5-0.7c0.8,0,1.5,0.2,2,0.7
		c0.5,0.4,0.8,1.1,0.8,2v3.3C115.7,33,115.9,33.4,116.1,33.6z M112.1,33.2c0.6,0,1.1-0.3,1.6-0.8V31c-0.4,0-0.8-0.1-1.2-0.1
		s-0.8,0.1-1,0.3c-0.2,0.2-0.3,0.5-0.3,0.8c0,0.3,0.1,0.6,0.3,0.8C111.6,33.1,111.8,33.2,112.1,33.2z"/>
	<path fill="#A9D42D" d="M122.2,29.6c0-0.9-0.3-1.4-0.9-1.4c-0.5,0-1,0.3-1.5,0.8v5.5c-0.3,0.1-0.6,0.1-1,0.1c-0.4,0-0.7,0-1-0.1
		v-7.9l0.1-0.1h0.7c0.6,0,1,0.3,1.1,1c0.7-0.7,1.5-1.1,2.3-1.1c0.8,0,1.4,0.4,1.8,1.2c0.8-0.8,1.7-1.2,2.5-1.2
		c0.7,0,1.2,0.2,1.5,0.7s0.5,1.1,0.5,1.8v3.7c0,0.7,0.1,1.2,0.3,1.5c-0.3,0.3-0.7,0.4-1.2,0.4c-0.4,0-0.7-0.1-0.9-0.3
		c-0.2-0.2-0.2-0.5-0.2-0.9v-3.8c0-0.9-0.3-1.3-0.9-1.3c-0.4,0-0.9,0.3-1.5,0.8v5.5c-0.3,0.1-0.6,0.1-1,0.1c-0.4,0-0.7,0-1-0.1V29.6
		z"/>
	<path fill="#A9D42D" d="M137.3,30.6c0,1.4-0.4,2.5-1.1,3.3c-0.6,0.6-1.4,0.9-2.4,0.9s-1.8-0.3-2.4-0.9c-0.8-0.8-1.1-1.8-1.1-3.3
		s0.4-2.5,1.1-3.3c0.6-0.6,1.4-0.9,2.4-0.9s1.8,0.3,2.4,0.9C136.9,28,137.3,29.1,137.3,30.6z M133.8,27.9c-1,0-1.5,0.9-1.5,2.7
		s0.5,2.7,1.5,2.7s1.5-0.9,1.5-2.7S134.8,27.9,133.8,27.9z"/>
	<path fill="#A9D42D" d="M138.4,34c0-0.2,0.1-0.5,0.2-0.7c0.1-0.3,0.3-0.5,0.4-0.6c0.9,0.5,1.6,0.7,2.2,0.7c0.4,0,0.7-0.1,0.9-0.2
		s0.3-0.3,0.3-0.6c0-0.4-0.3-0.7-0.9-1l-0.9-0.3c-1.3-0.5-2-1.3-2-2.3c0-0.7,0.3-1.3,0.8-1.8c0.5-0.5,1.3-0.7,2.2-0.7
		s1.8,0.2,2.7,0.6c0,0.2,0,0.5-0.2,0.8s-0.3,0.5-0.4,0.6c-0.8-0.4-1.5-0.5-2.2-0.5c-0.3,0-0.5,0.1-0.7,0.2s-0.3,0.3-0.3,0.6
		c0,0.3,0.3,0.6,0.8,0.8l1,0.4c1.4,0.5,2.1,1.3,2.1,2.5c0,0.8-0.3,1.4-0.9,1.8c-0.6,0.4-1.4,0.7-2.4,0.7
		C140.3,34.8,139.3,34.5,138.4,34z"/>
	<path fill="#A9D42D" d="M153.7,26.4c0.9,0,1.5,0.4,2,1.1c0.5,0.7,0.7,1.8,0.7,3c0,1.3-0.3,2.3-0.9,3c-0.6,0.7-1.3,1.1-2.2,1.1
		c-0.6,0-1.1-0.1-1.7-0.4v2.5c0,0.4-0.1,0.8-0.2,1c-0.2,0.2-0.4,0.3-0.8,0.3h-0.8l-0.1-0.1V26.6l0.1-0.1h0.6c0.6,0,0.9,0.3,1.1,0.8
		C152.1,26.7,152.8,26.4,153.7,26.4z M153.1,28c-0.6,0-1.1,0.3-1.5,0.9v3.8c0.5,0.3,1,0.5,1.4,0.5c0.4,0,0.8-0.2,1-0.7
		c0.3-0.5,0.4-1.1,0.4-2s-0.1-1.5-0.4-1.9C153.8,28.2,153.5,28,153.1,28z"/>
	<path fill="#A9D42D" d="M164.5,33.6c-0.1,0.2-0.1,0.4-0.3,0.6c-0.1,0.2-0.3,0.3-0.4,0.5c-0.7-0.1-1.1-0.4-1.5-0.9
		c-0.7,0.7-1.5,1-2.3,1s-1.4-0.2-1.9-0.7c-0.4-0.5-0.6-1-0.6-1.7c0-0.9,0.3-1.6,0.9-2c0.6-0.5,1.3-0.7,2.2-0.7c0.5,0,1,0,1.4,0.1
		v-0.5c0-0.8-0.4-1.3-1.2-1.3c-0.6,0-1.4,0.2-2.4,0.6c-0.3-0.3-0.5-0.8-0.5-1.4c1.2-0.5,2.3-0.7,3.5-0.7c0.8,0,1.5,0.2,2,0.7
		c0.5,0.4,0.8,1.1,0.8,2v3.3C164.1,33,164.2,33.4,164.5,33.6z M160.5,33.2c0.6,0,1.1-0.3,1.6-0.8V31c-0.4,0-0.8-0.1-1.2-0.1
		s-0.8,0.1-1,0.3c-0.2,0.2-0.3,0.5-0.3,0.8c0,0.3,0.1,0.6,0.3,0.8C160,33.1,160.2,33.2,160.5,33.2z"/>
	<path fill="#A9D42D" d="M165.8,27.5c0-0.2,0.1-0.4,0.3-0.6c0.1-0.2,0.3-0.4,0.4-0.5c0.8,0.1,1.4,0.6,1.7,1.4
		c0.4-0.9,1.1-1.4,2.1-1.4c0.2,0,0.6,0,0.9,0.1c0,0.7-0.2,1.3-0.5,1.9c-0.2,0-0.4-0.1-0.7-0.1c-0.7,0-1.2,0.3-1.6,1v5.1
		c-0.3,0.1-0.6,0.1-1,0.1c-0.4,0-0.7,0-1-0.1v-5.4C166.4,28.4,166.2,27.8,165.8,27.5z"/>
	<path fill="#A9D42D" d="M178.6,33.6c-0.1,0.2-0.1,0.4-0.3,0.6c-0.1,0.2-0.3,0.3-0.4,0.5c-0.7-0.1-1.1-0.4-1.5-0.9
		c-0.7,0.7-1.5,1-2.3,1s-1.4-0.2-1.9-0.7c-0.4-0.5-0.6-1-0.6-1.7c0-0.9,0.3-1.6,0.9-2c0.6-0.5,1.3-0.7,2.2-0.7c0.5,0,1,0,1.4,0.1
		v-0.5c0-0.8-0.4-1.3-1.2-1.3c-0.6,0-1.4,0.2-2.4,0.6c-0.3-0.3-0.5-0.8-0.5-1.4c1.2-0.5,2.3-0.7,3.5-0.7c0.8,0,1.5,0.2,2,0.7
		c0.5,0.4,0.8,1.1,0.8,2v3.3C178.2,33,178.3,33.4,178.6,33.6z M174.6,33.2c0.6,0,1.1-0.3,1.6-0.8V31c-0.4,0-0.8-0.1-1.2-0.1
		s-0.8,0.1-1,0.3c-0.2,0.2-0.3,0.5-0.3,0.8c0,0.3,0.1,0.6,0.3,0.8C174.1,33.1,174.3,33.2,174.6,33.2z"/>
	<path fill="#A9D42D" d="M70.6,50.4h-4.5c0,0.6,0.2,1.1,0.4,1.5c0.3,0.3,0.7,0.5,1.3,0.5c0.6,0,1.3-0.2,2.1-0.6
		c0.3,0.3,0.5,0.7,0.6,1.2c-0.9,0.6-1.9,0.9-3.1,0.9s-2.1-0.4-2.6-1.2c-0.5-0.8-0.8-1.8-0.8-3s0.3-2.2,0.9-3
		c0.6-0.8,1.4-1.2,2.5-1.2s1.9,0.3,2.5,1c0.6,0.6,0.9,1.5,0.9,2.4C70.7,49.5,70.7,49.9,70.6,50.4z M67.5,47c-0.9,0-1.3,0.7-1.4,2
		h2.8v-0.2c0-0.5-0.1-1-0.3-1.3C68.3,47.2,68,47,67.5,47z"/>
	<path fill="#A9D42D" d="M71.8,53.2c0-0.2,0.1-0.5,0.2-0.7c0.1-0.3,0.3-0.5,0.4-0.6c0.9,0.5,1.6,0.7,2.2,0.7c0.4,0,0.7-0.1,0.9-0.2
		s0.3-0.3,0.3-0.6c0-0.4-0.3-0.7-0.9-1l-0.9-0.3c-1.3-0.5-2-1.3-2-2.3c0-0.7,0.3-1.3,0.8-1.8c0.5-0.5,1.3-0.7,2.2-0.7
		s1.8,0.2,2.7,0.6c0,0.2,0,0.5-0.2,0.8s-0.3,0.5-0.4,0.6c-0.8-0.4-1.5-0.5-2.2-0.5c-0.3,0-0.5,0.1-0.7,0.2s-0.3,0.3-0.3,0.6
		c0,0.3,0.3,0.6,0.8,0.8l1,0.4c1.4,0.5,2.1,1.3,2.1,2.5c0,0.8-0.3,1.4-0.9,1.8c-0.6,0.4-1.4,0.7-2.4,0.7
		C73.7,54,72.8,53.7,71.8,53.2z"/>
	<path fill="#A9D42D" d="M78.9,53.2c0-0.2,0.1-0.5,0.2-0.7c0.1-0.3,0.3-0.5,0.4-0.6c0.9,0.5,1.6,0.7,2.2,0.7c0.4,0,0.7-0.1,0.9-0.2
		s0.3-0.3,0.3-0.6c0-0.4-0.3-0.7-0.9-1l-0.9-0.3c-1.3-0.5-2-1.3-2-2.3c0-0.7,0.3-1.3,0.8-1.8c0.5-0.5,1.3-0.7,2.2-0.7
		s1.8,0.2,2.7,0.6c0,0.2,0,0.5-0.2,0.8s-0.3,0.5-0.4,0.6c-0.8-0.4-1.5-0.5-2.2-0.5c-0.3,0-0.5,0.1-0.7,0.2s-0.3,0.3-0.3,0.6
		c0,0.3,0.3,0.6,0.8,0.8l1,0.4c1.4,0.5,2.1,1.3,2.1,2.5c0,0.8-0.3,1.4-0.9,1.8c-0.6,0.4-1.4,0.7-2.4,0.7
		C80.8,54,79.8,53.7,78.9,53.2z"/>
	<path fill="#A9D42D" d="M93,52.8c-0.1,0.2-0.1,0.4-0.3,0.6c-0.1,0.2-0.3,0.3-0.4,0.5c-0.7-0.1-1.1-0.4-1.5-0.9
		c-0.7,0.7-1.5,1-2.3,1s-1.4-0.2-1.9-0.7c-0.4-0.5-0.6-1-0.6-1.7c0-0.9,0.3-1.6,0.9-2c0.6-0.5,1.3-0.7,2.2-0.7c0.5,0,1,0,1.4,0.1
		v-0.5c0-0.8-0.4-1.3-1.2-1.3c-0.6,0-1.4,0.2-2.4,0.6c-0.3-0.3-0.5-0.8-0.5-1.4c1.2-0.5,2.3-0.7,3.5-0.7c0.8,0,1.5,0.2,2,0.7
		c0.5,0.4,0.8,1.1,0.8,2v3.3C92.6,52.2,92.7,52.6,93,52.8z M89,52.4c0.6,0,1.1-0.3,1.6-0.8v-1.4c-0.4,0-0.8-0.1-1.2-0.1
		s-0.8,0.1-1,0.3c-0.2,0.2-0.3,0.5-0.3,0.8c0,0.3,0.1,0.6,0.3,0.8C88.5,52.3,88.7,52.4,89,52.4z"/>
	<path fill="#A9D42D" d="M102.5,45.8c0.1,0.2,0.1,0.5,0.1,0.7c0,0.3,0,0.5-0.1,0.7l-2,0v4.4c0,0.5,0.2,0.7,0.7,0.7h1
		c0.1,0.3,0.2,0.6,0.2,0.8s0,0.4,0,0.6c-0.7,0.1-1.3,0.1-1.9,0.1c-1.2,0-1.9-0.6-1.9-1.9v-4.7l-1.2,0c-0.1-0.2-0.1-0.4-0.1-0.7
		c0-0.3,0-0.5,0.1-0.7l1.2,0v-1.2c0-0.4,0.1-0.8,0.2-1s0.4-0.3,0.8-0.3h0.8l0.1,0.1v2.3L102.5,45.8z"/>
	<path fill="#A9D42D" d="M103.6,46.7c0-0.2,0.1-0.4,0.3-0.6c0.1-0.2,0.3-0.4,0.4-0.5c0.8,0.1,1.4,0.6,1.7,1.4
		c0.4-0.9,1.1-1.4,2.1-1.4c0.2,0,0.6,0,0.9,0.1c0,0.7-0.2,1.3-0.5,1.9c-0.2,0-0.4-0.1-0.7-0.1c-0.7,0-1.2,0.3-1.6,1v5.1
		c-0.3,0.1-0.6,0.1-1,0.1c-0.4,0-0.7,0-1-0.1v-5.4C104.2,47.6,104,47,103.6,46.7z"/>
	<path fill="#A9D42D" d="M116.4,52.8c-0.1,0.2-0.1,0.4-0.3,0.6c-0.1,0.2-0.3,0.3-0.4,0.5c-0.7-0.1-1.1-0.4-1.5-0.9
		c-0.7,0.7-1.5,1-2.3,1s-1.4-0.2-1.9-0.7c-0.4-0.5-0.6-1-0.6-1.7c0-0.9,0.3-1.6,0.9-2c0.6-0.5,1.3-0.7,2.2-0.7c0.5,0,1,0,1.4,0.1
		v-0.5c0-0.8-0.4-1.3-1.2-1.3c-0.6,0-1.4,0.2-2.4,0.6c-0.3-0.3-0.5-0.8-0.5-1.4c1.2-0.5,2.3-0.7,3.5-0.7c0.8,0,1.5,0.2,2,0.7
		c0.5,0.4,0.8,1.1,0.8,2v3.3C115.9,52.2,116.1,52.6,116.4,52.8z M112.4,52.4c0.6,0,1.1-0.3,1.6-0.8v-1.4c-0.4,0-0.8-0.1-1.2-0.1
		s-0.8,0.1-1,0.3c-0.2,0.2-0.3,0.5-0.3,0.8c0,0.3,0.1,0.6,0.3,0.8C111.9,52.3,112.1,52.4,112.4,52.4z"/>
	<path fill="#A9D42D" d="M120.6,52.2l1.7-6.4c0.2,0,0.5-0.1,0.8-0.1c0.3,0,0.6,0,0.9,0.1l0.1,0.1c-1,3.5-1.8,6.1-2.4,7.8
		c-0.4,0.1-0.9,0.1-1.4,0.1s-0.8-0.1-1-0.2c-0.2-0.1-0.4-0.4-0.5-0.8l-2.1-6.8c0.4-0.2,0.8-0.3,1.1-0.3c0.6,0,1,0.3,1.1,0.9l0.9,3.3
		c0.1,0.3,0.3,1,0.5,2.2C120.5,52.1,120.5,52.2,120.6,52.2z"/>
	<path fill="#A9D42D" d="M131.3,50.4h-4.5c0,0.6,0.2,1.1,0.4,1.5c0.3,0.3,0.7,0.5,1.3,0.5c0.6,0,1.3-0.2,2.1-0.6
		c0.3,0.3,0.5,0.7,0.6,1.2c-0.9,0.6-1.9,0.9-3.1,0.9s-2.1-0.4-2.6-1.2c-0.5-0.8-0.8-1.8-0.8-3s0.3-2.2,0.9-3
		c0.6-0.8,1.4-1.2,2.5-1.2s1.9,0.3,2.5,1c0.6,0.6,0.9,1.5,0.9,2.4C131.5,49.5,131.5,49.9,131.3,50.4z M128.3,47
		c-0.9,0-1.3,0.7-1.4,2h2.8v-0.2c0-0.5-0.1-1-0.3-1.3C129.1,47.2,128.7,47,128.3,47z"/>
	<path fill="#A9D42D" d="M132.6,53.2c0-0.2,0.1-0.5,0.2-0.7c0.1-0.3,0.3-0.5,0.4-0.6c0.9,0.5,1.6,0.7,2.2,0.7c0.4,0,0.7-0.1,0.9-0.2
		s0.3-0.3,0.3-0.6c0-0.4-0.3-0.7-0.9-1l-0.9-0.3c-1.3-0.5-2-1.3-2-2.3c0-0.7,0.3-1.3,0.8-1.8c0.5-0.5,1.3-0.7,2.2-0.7
		s1.8,0.2,2.7,0.6c0,0.2,0,0.5-0.2,0.8s-0.3,0.5-0.4,0.6c-0.8-0.4-1.5-0.5-2.2-0.5c-0.3,0-0.5,0.1-0.7,0.2s-0.3,0.3-0.3,0.6
		c0,0.3,0.3,0.6,0.8,0.8l1,0.4c1.4,0.5,2.1,1.3,2.1,2.5c0,0.8-0.3,1.4-0.9,1.8c-0.6,0.4-1.4,0.7-2.4,0.7
		C134.5,54,133.5,53.7,132.6,53.2z"/>
	<path fill="#A9D42D" d="M139.7,53.2c0-0.2,0.1-0.5,0.2-0.7c0.1-0.3,0.3-0.5,0.4-0.6c0.9,0.5,1.6,0.7,2.2,0.7c0.4,0,0.7-0.1,0.9-0.2
		s0.3-0.3,0.3-0.6c0-0.4-0.3-0.7-0.9-1l-0.9-0.3c-1.3-0.5-2-1.3-2-2.3c0-0.7,0.3-1.3,0.8-1.8c0.5-0.5,1.3-0.7,2.2-0.7
		s1.8,0.2,2.7,0.6c0,0.2,0,0.5-0.2,0.8s-0.3,0.5-0.4,0.6c-0.8-0.4-1.5-0.5-2.2-0.5c-0.3,0-0.5,0.1-0.7,0.2s-0.3,0.3-0.3,0.6
		c0,0.3,0.3,0.6,0.8,0.8l1,0.4c1.4,0.5,2.1,1.3,2.1,2.5c0,0.8-0.3,1.4-0.9,1.8c-0.6,0.4-1.4,0.7-2.4,0.7
		C141.5,54,140.6,53.7,139.7,53.2z"/>
	<path fill="#A9D42D" d="M149.7,47.4v6.4c-0.3,0.1-0.6,0.1-1,0.1s-0.7,0-1-0.1v-5.6c0-0.6-0.2-0.9-0.7-0.9h-0.2
		c-0.1-0.2-0.1-0.4-0.1-0.7s0-0.5,0.1-0.7c0.4,0,0.8-0.1,1.2-0.1h0.3c0.5,0,0.8,0.1,1.1,0.4S149.7,46.9,149.7,47.4z M147.4,44.4
		c-0.1-0.2-0.2-0.5-0.2-0.8c0-0.3,0.1-0.5,0.2-0.8c0.3-0.1,0.6-0.2,1-0.2c0.4,0,0.7,0.1,1,0.2c0.1,0.2,0.2,0.5,0.2,0.8
		c0,0.3-0.1,0.5-0.2,0.8c-0.2,0.1-0.6,0.2-1,0.2S147.6,44.5,147.4,44.4z"/>
	<path fill="#A9D42D" d="M158.4,52.8c-0.1,0.2-0.1,0.4-0.3,0.6c-0.1,0.2-0.3,0.3-0.4,0.5c-0.7-0.1-1.1-0.4-1.5-0.9
		c-0.7,0.7-1.5,1-2.3,1s-1.4-0.2-1.9-0.7c-0.4-0.5-0.6-1-0.6-1.7c0-0.9,0.3-1.6,0.9-2c0.6-0.5,1.3-0.7,2.2-0.7c0.5,0,1,0,1.4,0.1
		v-0.5c0-0.8-0.4-1.3-1.2-1.3c-0.6,0-1.4,0.2-2.4,0.6c-0.3-0.3-0.5-0.8-0.5-1.4c1.2-0.5,2.3-0.7,3.5-0.7c0.8,0,1.5,0.2,2,0.7
		c0.5,0.4,0.8,1.1,0.8,2v3.3C157.9,52.2,158.1,52.6,158.4,52.8z M154.3,52.4c0.6,0,1.1-0.3,1.6-0.8v-1.4c-0.4,0-0.8-0.1-1.2-0.1
		s-0.8,0.1-1,0.3c-0.2,0.2-0.3,0.5-0.3,0.8c0,0.3,0.1,0.6,0.3,0.8C153.8,52.3,154.1,52.4,154.3,52.4z"/>
	<path fill="#A9D42D" d="M161.3,51.8c0.4,0,0.8,0.1,1,0.2c0.1,0.1,0.2,0.4,0.2,0.8c0,0.4-0.1,0.7-0.2,0.8c-0.2,0.1-0.6,0.2-1,0.2
		c-0.4,0-0.8-0.1-1-0.2c-0.1-0.2-0.2-0.5-0.2-0.8c0-0.4,0.1-0.6,0.2-0.8C160.5,51.9,160.9,51.8,161.3,51.8z M160.5,50.5l-0.2-7.3
		c0.5-0.4,1.2-0.6,2.1-0.6l0.1,0.1l-0.4,7.7c-0.2,0.1-0.5,0.1-0.8,0.1C161,50.6,160.7,50.6,160.5,50.5z"/>
</g>
</svg>