<!-- Generator: Adobe Illustrator 17.1.0, SVG Export Plug-In  -->
<svg version="1.1"
	 xmlns="http://www.w3.org/2000/svg" xmlns:xlink="http://www.w3.org/1999/xlink" xmlns:a="http://ns.adobe.com/AdobeSVGViewerExtensions/3.0/"
	 x="0px" y="0px" width="871px" height="67px" viewBox="0 0 871 67" enable-background="new 0 0 871 67" xml:space="preserve">
<defs>
</defs>
<g>
	<rect y="5" fill="#A9D42D" width="871" height="40"/>
	<polygon fill="#A9D42D" points="441,43 366,43 377.8,67 441,67 504.6,67 516,43 	"/>
	<rect fill="#043A63" width="871" height="44"/>
	<polygon fill="#043A63" points="441,40 366,40 378.8,66 441,66 503.3,66 516,40 	"/>
	<ellipse fill="#F2F2F2" cx="393.7" cy="51.6" rx="8.6" ry="8.8"/>
	<ellipse fill="#F2F2F2" cx="424.9" cy="51.6" rx="8.8" ry="8.8"/>
	<rect x="402" y="50" fill="#F2F2F2" width="15" height="3"/>
	<ellipse fill="#F2F2F2" cx="456.4" cy="51.6" rx="8.6" ry="8.8"/>
	<rect x="433" y="50" fill="#F2F2F2" width="16" height="3"/>
	<ellipse fill="#F2F2F2" cx="487.7" cy="51.6" rx="8.6" ry="8.8"/>
	<rect x="464" y="50" fill="#F2F2F2" width="16" height="3"/>
	<g>
		<g>
			<path fill="#043A63" d="M427.8,54.2c0,0.2,0,0.4,0,0.6c-0.1,0.5-0.4,0.7-0.9,0.7h-3.7c-0.4-0.4-0.6-0.7-0.6-0.9
				c0-0.6,0.5-1.4,1.5-2.2l1.2-1.1c0.5-0.5,0.8-1,0.8-1.4c0-0.3-0.1-0.6-0.3-0.8c-0.2-0.2-0.4-0.3-0.7-0.3c-0.3,0-0.6,0.1-0.8,0.3
				c-0.2,0.2-0.4,0.5-0.5,0.8c-0.2,0-0.4,0-0.6-0.1s-0.4-0.2-0.4-0.3c0.2-0.5,0.5-1,0.9-1.3c0.4-0.4,1-0.5,1.7-0.5s1.2,0.2,1.7,0.6
				c0.4,0.4,0.7,1,0.7,1.7c0,0.5-0.1,0.9-0.4,1.3c-0.3,0.4-0.6,0.7-1.1,1.2l-0.9,0.8c-0.6,0.5-1,0.9-1.1,1.2
				c0.6-0.1,1.2-0.1,1.7-0.1H427.8z"/>
		</g>
	</g>
	<g>
		<g>
			<path fill="#043A63" d="M458.8,49.3l-1.1,1.2c-0.1,0.1-0.2,0.2-0.4,0.3c0.6,0,1.1,0.3,1.5,0.7c0.4,0.4,0.6,1,0.6,1.7
				s-0.3,1.4-0.8,1.8c-0.5,0.5-1.2,0.7-2,0.7c-1,0-1.8-0.3-2.5-0.8c0.1-0.4,0.3-0.7,0.6-1c0.5,0.4,1.1,0.6,1.6,0.6
				c0.4,0,0.8-0.1,1-0.4s0.4-0.6,0.4-1c0-0.4-0.1-0.7-0.3-1c-0.2-0.2-0.5-0.3-0.8-0.3c-0.3,0-0.6,0.1-0.9,0.2
				c-0.3-0.1-0.5-0.4-0.6-0.8l1.4-1.4c0.3-0.3,0.6-0.6,0.8-0.8l0-0.1c-0.3,0.1-0.8,0.1-1.3,0.1h-1.6c-0.1-0.2-0.1-0.4-0.1-0.6
				c0-0.2,0-0.5,0.1-0.7h4.2c0.2,0.4,0.3,0.7,0.3,0.9C459.1,48.9,459,49.1,458.8,49.3z"/>
		</g>
	</g>
	<g>
		<g>
			<path fill="#043A63" d="M489.5,54l0,0.7v0.8c-0.2,0-0.4,0.1-0.7,0.1s-0.5,0-0.7-0.1v-0.8l0-0.7l-0.7,0h-2
				c-0.2-0.3-0.3-0.6-0.3-0.8s0.1-0.5,0.2-0.8l2-4.7c0.1,0,0.2,0,0.3,0s0.3,0,0.5,0.1c0.2,0,0.4,0.1,0.5,0.3l-1.2,2.7
				c-0.4,1-0.8,1.7-1,2.1l0,0c0.4,0,0.9-0.1,1.5-0.1h0.1v-1.1c0-0.4,0.1-0.6,0.3-0.9s0.4-0.3,0.7-0.3h0.4l0.1,0.1V52l0,0.7l0.6,0
				h0.5c0,0.2,0,0.3,0,0.6s0,0.4-0.1,0.7H489.5z"/>
		</g>
	</g>
	<g>
		<g>
			<path fill="#043A63" d="M393.4,54.3l0-0.8v-2.3c0-0.2,0-0.7,0.1-1.4c-0.4,0.5-1,0.9-1.7,1.2c-0.2-0.1-0.3-0.2-0.4-0.4
				s-0.2-0.3-0.2-0.5c1.1-0.7,1.9-1.5,2.3-2.4c0.2,0,0.5-0.1,0.7-0.1s0.5,0,0.7,0.1v5.7l0,0.8l0.7,0h0.8c0,0.2,0.1,0.4,0.1,0.6
				c0,0.2,0,0.4-0.1,0.6h-4.7c0-0.2-0.1-0.4-0.1-0.6s0-0.4,0.1-0.6h1L393.4,54.3z"/>
		</g>
	</g>
</g>
</svg>