<!-- Generator: Adobe Illustrator 17.1.0, SVG Export Plug-In  -->
<svg version="1.1"
	 xmlns="http://www.w3.org/2000/svg" xmlns:xlink="http://www.w3.org/1999/xlink" xmlns:a="http://ns.adobe.com/AdobeSVGViewerExtensions/3.0/"
	 x="0px" y="0px" width="267.4px" height="54.6px" viewBox="0 0 267.4 54.6" enable-background="new 0 0 267.4 54.6"
	 xml:space="preserve">
<defs>
</defs>
<g>
	<path fill="#FFFFFF" d="M5.2,3.4c0,0,0-0.1,0-0.3c0-0.2,0-0.4-0.1-0.6C5,2.2,4.8,2,4.5,1.8c-0.3-0.2-0.6-0.3-1-0.3
		C2.8,1.5,2.3,1.7,2,2.3C1.7,2.9,1.5,3.7,1.5,4.7S1.7,6.5,2,7.1c0.4,0.6,0.9,0.8,1.5,0.8S4.9,7.6,5.7,7C6,7.2,6.2,7.5,6.3,7.8
		C5.9,8.1,5.5,8.4,5,8.6C4.5,8.9,3.9,9,3.4,9C2.8,9,2.3,8.9,1.9,8.6c-0.4-0.2-0.7-0.6-1-1C0.5,6.9,0.2,5.9,0.2,4.8
		c0-1.4,0.3-2.5,0.9-3.2c0.6-0.7,1.4-1.1,2.3-1.1c0.9,0,1.6,0.2,2.1,0.7c0.5,0.5,0.8,1,0.8,1.6c0,0.5-0.2,0.7-0.7,0.7
		C5.5,3.5,5.4,3.5,5.2,3.4z"/>
	<path fill="#FFFFFF" d="M11.7,3.4c0.6,0.6,0.8,1.4,0.8,2.5s-0.3,1.9-0.8,2.5C11.3,8.8,10.7,9,10,9S8.7,8.8,8.2,8.3
		C7.7,7.7,7.4,6.9,7.4,5.9S7.7,4,8.2,3.4C8.7,3,9.3,2.7,10,2.7S11.3,3,11.7,3.4z M8.6,5.9c0,1.5,0.5,2.2,1.4,2.2s1.4-0.7,1.4-2.2
		c0-0.4,0-0.8-0.1-1.1C11.2,4.5,11,4.2,10.8,4c-0.2-0.2-0.5-0.3-0.8-0.3S9.4,3.7,9.2,4C8.9,4.2,8.8,4.5,8.7,4.8
		C8.6,5.1,8.6,5.5,8.6,5.9z"/>
	<path fill="#FFFFFF" d="M18.7,4.7v2.8c0,0.5,0.1,0.8,0.2,1.1c-0.2,0.2-0.4,0.3-0.7,0.3c-0.4,0-0.6-0.2-0.6-0.7V5
		c0-0.4-0.1-0.7-0.2-0.9c-0.1-0.2-0.3-0.3-0.6-0.3c-0.3,0-0.6,0.1-0.9,0.2c-0.3,0.1-0.5,0.3-0.8,0.6v4.2c-0.1,0-0.3,0-0.6,0
		s-0.4,0-0.6,0V2.9l0.1-0.1h0.4c0.4,0,0.6,0.3,0.6,0.8c0.6-0.5,1.2-0.8,1.9-0.8c0.5,0,0.9,0.2,1.2,0.5C18.6,3.7,18.7,4.2,18.7,4.7z"
		/>
	<path fill="#FFFFFF" d="M22.5,7.9l1.5-5c0.1,0,0.3,0,0.5,0s0.4,0,0.6,0.1l0,0c-0.8,2.6-1.4,4.5-1.9,5.8c-0.2,0-0.5,0.1-0.8,0.1
		s-0.5,0-0.6-0.1s-0.2-0.3-0.3-0.5L19.7,3c0.2-0.1,0.5-0.2,0.7-0.2c0.3,0,0.5,0.2,0.6,0.5L21.9,6c0.2,0.6,0.3,1.2,0.5,1.8
		C22.4,7.8,22.4,7.9,22.5,7.9z"/>
	<path fill="#FFFFFF" d="M27.4,3.9v4.9c-0.1,0-0.3,0-0.6,0c-0.2,0-0.4,0-0.6,0V4.4c0-0.2,0-0.4-0.1-0.5S26,3.8,25.8,3.8h-0.1
		c0-0.1,0-0.3,0-0.4c0-0.2,0-0.3,0-0.4c0.3,0,0.5,0,0.7,0h0.2c0.3,0,0.5,0.1,0.7,0.3C27.3,3.3,27.4,3.6,27.4,3.9z M25.9,1.3
		c0-0.2,0-0.4,0.1-0.5c0.2-0.1,0.4-0.1,0.7-0.1c0.3,0,0.5,0,0.6,0.1c0.1,0.1,0.1,0.3,0.1,0.5c0,0.2,0,0.4-0.1,0.5
		c-0.1,0.1-0.3,0.1-0.6,0.1c-0.3,0-0.5,0-0.6-0.1C25.9,1.6,25.9,1.5,25.9,1.3z"/>
	<path fill="#FFFFFF" d="M31,9c-0.7,0-1.2-0.3-1.5-0.8c-0.4-0.6-0.5-1.3-0.5-2.3c0-1,0.2-1.7,0.7-2.3c0.5-0.5,1-0.8,1.6-0.8
		c0.4,0,0.9,0.1,1.4,0.4V0.1L32.7,0h0.4c0.2,0,0.4,0.1,0.5,0.2c0.1,0.1,0.1,0.3,0.1,0.6v6.4c0,0.6,0.1,1,0.3,1.2
		c-0.1,0.3-0.2,0.5-0.5,0.6c-0.4-0.1-0.7-0.3-0.9-0.8C32.3,8.7,31.7,9,31,9z M31.2,8c0.5,0,1-0.3,1.4-0.8v-3
		c-0.4-0.3-0.9-0.5-1.2-0.5s-0.7,0.2-0.9,0.6c-0.2,0.4-0.4,0.9-0.4,1.6c0,0.7,0.1,1.2,0.3,1.6S30.9,8,31.2,8z"/>
	<path fill="#FFFFFF" d="M40.2,8.3c-0.1,0.3-0.2,0.5-0.5,0.6c-0.4-0.1-0.7-0.3-0.9-0.8C38.3,8.7,37.7,9,37.1,9
		c-0.6,0-1.1-0.2-1.4-0.5c-0.3-0.4-0.5-0.8-0.5-1.2c0-0.7,0.2-1.1,0.6-1.5s1-0.5,1.7-0.5c0.4,0,0.8,0,1.2,0.1V4.8
		c0-0.7-0.3-1.1-1-1.1c-0.5,0-1.2,0.2-1.9,0.5c-0.2-0.2-0.3-0.5-0.3-0.9c0.8-0.4,1.7-0.6,2.5-0.6c0.6,0,1.1,0.2,1.4,0.5
		c0.3,0.3,0.5,0.8,0.5,1.5v2.5C39.9,7.8,40,8.1,40.2,8.3z M37.3,8c0.5,0,1-0.3,1.5-0.8V6.1c-0.3,0-0.7-0.1-1.1-0.1
		c-0.4,0-0.7,0.1-0.9,0.3c-0.2,0.2-0.3,0.4-0.3,0.7c0,0.3,0.1,0.5,0.2,0.7C36.8,8,37,8,37.3,8z"/>
	<path fill="#FFFFFF" d="M45,5c0-0.4-0.1-0.7-0.2-0.9c-0.1-0.2-0.3-0.3-0.6-0.3c-0.5,0-0.9,0.3-1.4,0.8v4.2c-0.1,0-0.3,0-0.6,0
		s-0.4,0-0.6,0V2.9l0.1-0.1h0.4c0.4,0,0.6,0.3,0.6,0.8c0.5-0.5,1.1-0.8,1.7-0.8s1.1,0.3,1.3,0.9c0.6-0.6,1.3-0.9,1.9-0.9
		c0.5,0,0.9,0.2,1.1,0.5c0.3,0.4,0.4,0.8,0.4,1.3v2.9c0,0.5,0.1,0.8,0.2,1.1c-0.2,0.2-0.4,0.3-0.7,0.3c-0.4,0-0.6-0.2-0.6-0.7V5
		c0-0.4-0.1-0.7-0.2-0.9c-0.1-0.2-0.3-0.3-0.6-0.3c-0.5,0-0.9,0.3-1.4,0.8v4.2c-0.1,0-0.3,0-0.6,0s-0.4,0-0.6,0V5z"/>
	<path fill="#FFFFFF" d="M55.2,3.4C55.8,4,56,4.8,56,5.9s-0.3,1.9-0.8,2.5c-0.4,0.4-1,0.7-1.7,0.7s-1.3-0.2-1.7-0.7
		c-0.6-0.6-0.8-1.4-0.8-2.5s0.3-1.9,0.8-2.5c0.4-0.4,1-0.7,1.7-0.7S54.8,3,55.2,3.4z M52.1,5.9c0,1.5,0.5,2.2,1.4,2.2
		s1.4-0.7,1.4-2.2c0-0.4,0-0.8-0.1-1.1c-0.1-0.3-0.2-0.6-0.4-0.8c-0.2-0.2-0.5-0.3-0.8-0.3S52.9,3.7,52.6,4
		c-0.2,0.2-0.4,0.5-0.4,0.8C52.1,5.1,52.1,5.5,52.1,5.9z"/>
	<path fill="#FFFFFF" d="M57,8.4c0-0.1,0-0.3,0.1-0.4s0.2-0.3,0.3-0.4C58,7.9,58.6,8.1,59,8.1c0.4,0,0.7-0.1,0.9-0.2
		c0.2-0.1,0.3-0.3,0.3-0.6c0-0.4-0.3-0.7-0.8-0.9l-0.7-0.3c-1-0.4-1.5-0.9-1.5-1.7c0-0.5,0.2-1,0.6-1.3c0.4-0.3,0.9-0.5,1.6-0.5
		s1.3,0.1,1.9,0.4c0,0.2,0,0.3-0.1,0.5S61,3.9,60.9,4c-0.6-0.3-1.1-0.4-1.6-0.4c-0.3,0-0.5,0.1-0.7,0.2c-0.2,0.1-0.3,0.3-0.3,0.5
		c0,0.2,0.1,0.4,0.2,0.5s0.3,0.2,0.6,0.3l0.7,0.3c1,0.4,1.5,1,1.5,1.8c0,0.5-0.2,1-0.6,1.3C60.3,8.8,59.8,9,59,9S57.6,8.8,57,8.4z"
		/>
	<path fill="#FFFFFF" d="M67.3,7.9l1.5-5c0.1,0,0.3,0,0.5,0s0.4,0,0.6,0.1l0,0c-0.8,2.6-1.4,4.5-1.9,5.8c-0.2,0-0.5,0.1-0.8,0.1
		s-0.5,0-0.6-0.1s-0.2-0.3-0.3-0.5L64.6,3c0.2-0.1,0.5-0.2,0.7-0.2c0.3,0,0.5,0.2,0.6,0.5L66.7,6c0.2,0.6,0.3,1.2,0.5,1.8
		C67.2,7.8,67.2,7.9,67.3,7.9z"/>
	<path fill="#FFFFFF" d="M74.8,3.4c0.6,0.6,0.8,1.4,0.8,2.5s-0.3,1.9-0.8,2.5C74.3,8.8,73.7,9,73,9s-1.3-0.2-1.7-0.7
		c-0.6-0.6-0.8-1.4-0.8-2.5s0.3-1.9,0.8-2.5c0.4-0.4,1-0.7,1.7-0.7S74.3,3,74.8,3.4z M71.7,5.9c0,1.5,0.5,2.2,1.4,2.2
		s1.4-0.7,1.4-2.2c0-0.4,0-0.8-0.1-1.1c-0.1-0.3-0.2-0.6-0.4-0.8c-0.2-0.2-0.5-0.3-0.8-0.3S72.4,3.7,72.2,4
		c-0.2,0.2-0.4,0.5-0.4,0.8C71.7,5.1,71.7,5.5,71.7,5.9z"/>
	<path fill="#FFFFFF" d="M80.3,5.1c0,0,0-0.1,0-0.1c0-0.9-0.4-1.4-1.1-1.4c-0.4,0-0.7,0.2-0.9,0.6c-0.2,0.4-0.3,0.9-0.3,1.7
		c0,1.4,0.5,2.1,1.4,2.1c0.4,0,0.9-0.2,1.5-0.6c0.1,0.1,0.2,0.2,0.3,0.3c0.1,0.1,0.2,0.3,0.2,0.4C80.7,8.7,80,9,79.2,9
		s-1.4-0.3-1.8-0.9c-0.4-0.6-0.6-1.4-0.6-2.3s0.2-1.7,0.7-2.2c0.5-0.5,1.1-0.8,1.8-0.8c0.7,0,1.2,0.2,1.6,0.6s0.6,0.8,0.6,1.2
		s-0.2,0.7-0.6,0.7C80.6,5.2,80.4,5.2,80.3,5.1z"/>
	<path fill="#FFFFFF" d="M87.1,6.2h-3.6c0,0.6,0.1,1,0.4,1.3C84.1,7.9,84.5,8,85,8s1.1-0.2,1.7-0.5C86.9,7.7,87,8,87,8.3
		C86.4,8.8,85.6,9,84.8,9c-0.9,0-1.5-0.3-1.9-0.9s-0.6-1.3-0.6-2.3s0.2-1.7,0.6-2.3c0.4-0.6,1-0.9,1.8-0.9c0.8,0,1.4,0.2,1.8,0.7
		C87,4,87.2,4.6,87.2,5.3C87.2,5.6,87.2,5.9,87.1,6.2z M86,2.3l-1.1-1.1l-1.2,1.2c-0.2-0.1-0.4-0.3-0.5-0.5l1.3-1.6
		c0.1,0,0.3-0.1,0.4-0.1s0.3,0,0.6,0.1l1.2,1.5C86.5,2,86.3,2.2,86,2.3z M85.8,4.1c-0.2-0.3-0.5-0.5-0.9-0.5s-0.7,0.2-0.9,0.5
		c-0.2,0.3-0.3,0.7-0.4,1.3h2.5V5.2C86.1,4.7,86,4.4,85.8,4.1z"/>
	<path fill="#FFFFFF" d="M88.5,10.7c-0.2-0.1-0.3-0.3-0.3-0.5c0,0,0-0.1,0-0.1c0.3-0.1,0.5-0.3,0.7-0.5c0.2-0.2,0.3-0.4,0.3-0.7
		c-0.2-0.1-0.4-0.1-0.5-0.2c-0.1-0.1-0.1-0.3-0.1-0.6c0-0.3,0-0.5,0.1-0.6c0.2-0.1,0.4-0.2,0.7-0.2s0.5,0.1,0.7,0.2
		c0.1,0.2,0.1,0.4,0.1,0.8c0,0.5-0.1,1-0.4,1.4S89.1,10.5,88.5,10.7z"/>
	<path fill="#FFFFFF" d="M96.2,7.9h0.5c0.1,0.2,0.1,0.3,0.1,0.5c0,0.1,0,0.3,0,0.4c-0.3,0.1-0.7,0.1-1,0.1c-0.8,0-1.1-0.4-1.1-1.2
		V0.1L94.7,0h0.4c0.2,0,0.4,0.1,0.5,0.2c0.1,0.1,0.1,0.3,0.1,0.6v6.7C95.7,7.8,95.9,7.9,96.2,7.9z"/>
	<path fill="#FFFFFF" d="M99.4,3.9v4.9c-0.1,0-0.3,0-0.6,0s-0.4,0-0.6,0V4.4c0-0.2,0-0.4-0.1-0.5c-0.1-0.1-0.2-0.1-0.4-0.1h-0.1
		c0-0.1,0-0.3,0-0.4c0-0.2,0-0.3,0-0.4c0.3,0,0.5,0,0.7,0h0.2c0.3,0,0.5,0.1,0.7,0.3C99.3,3.3,99.4,3.6,99.4,3.9z M97.7,1.9L99.4,0
		c0.2,0.1,0.3,0.2,0.5,0.3c0.2,0.1,0.3,0.3,0.3,0.5l-2,1.6C98,2.3,97.8,2.1,97.7,1.9z"/>
	<path fill="#FFFFFF" d="M102.9,9c-0.7,0-1.2-0.3-1.5-0.8c-0.4-0.6-0.5-1.3-0.5-2.3c0-1,0.2-1.7,0.7-2.3c0.5-0.5,1-0.8,1.6-0.8
		c0.4,0,0.9,0.1,1.4,0.4V0.1l0.1-0.1h0.4c0.2,0,0.4,0.1,0.5,0.2c0.1,0.1,0.1,0.3,0.1,0.6v6.4c0,0.6,0.1,1,0.3,1.2
		c-0.1,0.3-0.2,0.5-0.5,0.6c-0.4-0.1-0.7-0.3-0.9-0.8C104.2,8.7,103.6,9,102.9,9z M103.2,8c0.5,0,1-0.3,1.4-0.8v-3
		c-0.4-0.3-0.9-0.5-1.2-0.5s-0.7,0.2-0.9,0.6c-0.2,0.4-0.4,0.9-0.4,1.6c0,0.7,0.1,1.2,0.3,1.6S102.8,8,103.2,8z"/>
	<path fill="#FFFFFF" d="M112,6.2h-3.6c0,0.6,0.1,1,0.4,1.3c0.2,0.3,0.6,0.5,1.1,0.5s1.1-0.2,1.7-0.5c0.2,0.2,0.3,0.4,0.4,0.8
		c-0.6,0.4-1.4,0.7-2.3,0.7c-0.9,0-1.5-0.3-1.9-0.9s-0.6-1.3-0.6-2.3s0.2-1.7,0.6-2.3c0.4-0.6,1-0.9,1.8-0.9c0.8,0,1.4,0.2,1.8,0.7
		c0.4,0.5,0.6,1.1,0.6,1.8C112.1,5.6,112,5.9,112,6.2z M110.6,4.1c-0.2-0.3-0.5-0.5-0.9-0.5s-0.7,0.2-0.9,0.5
		c-0.2,0.3-0.3,0.7-0.4,1.3h2.5V5.2C110.9,4.7,110.8,4.4,110.6,4.1z"/>
	<path fill="#FFFFFF" d="M113.3,3.4c0.1-0.3,0.2-0.5,0.4-0.6c0.5,0.1,0.9,0.5,1,1.1c0.3-0.7,0.9-1.1,1.6-1.1c0.2,0,0.4,0,0.6,0.1
		c0,0.4-0.1,0.8-0.3,1.1c0,0-0.2,0-0.5,0c-0.6,0-1,0.3-1.3,0.9v3.9c-0.1,0-0.3,0-0.6,0s-0.4,0-0.6,0V4.7
		C113.7,4.1,113.6,3.7,113.3,3.4z"/>
	<path fill="#FFFFFF" d="M120.9,0.6l2.5,0c0.8,0,1.5,0.2,2,0.6c0.5,0.4,0.7,1,0.7,1.8c0,0.5-0.1,1-0.4,1.4s-0.7,0.7-1.1,0.8
		c0.4,0.1,0.6,0.5,0.8,1l0.6,1.5c0.2,0.4,0.3,0.7,0.5,0.9c-0.2,0.2-0.4,0.4-0.8,0.4c-0.2,0-0.4-0.1-0.5-0.2
		c-0.1-0.1-0.2-0.3-0.3-0.6l-0.6-1.7c-0.1-0.3-0.3-0.6-0.5-0.7s-0.4-0.3-0.8-0.3h-1v3.3c-0.2,0-0.4,0-0.6,0s-0.4,0-0.6,0L120.9,0.6
		L120.9,0.6z M122,1.5v3c0.5,0,1,0,1.5,0s0.9-0.1,1.1-0.4c0.2-0.3,0.3-0.6,0.3-1.1c0-1-0.5-1.5-1.5-1.5C122.7,1.5,122.3,1.5,122,1.5
		z"/>
	<path fill="#FFFFFF" d="M131.7,3.4c0.6,0.6,0.8,1.4,0.8,2.5s-0.3,1.9-0.8,2.5c-0.4,0.4-1,0.7-1.7,0.7s-1.3-0.2-1.7-0.7
		c-0.6-0.6-0.8-1.4-0.8-2.5s0.3-1.9,0.8-2.5c0.4-0.4,1-0.7,1.7-0.7S131.3,3,131.7,3.4z M128.6,5.9c0,1.5,0.5,2.2,1.4,2.2
		s1.4-0.7,1.4-2.2c0-0.4,0-0.8-0.1-1.1c-0.1-0.3-0.2-0.6-0.4-0.8c-0.2-0.2-0.5-0.3-0.8-0.3s-0.6,0.1-0.8,0.3
		c-0.2,0.2-0.4,0.5-0.4,0.8C128.7,5.1,128.6,5.5,128.6,5.9z"/>
	<path fill="#FFFFFF" d="M135.7,9c-0.7,0-1.2-0.3-1.5-0.8c-0.4-0.6-0.5-1.3-0.5-2.3c0-1,0.2-1.7,0.7-2.3c0.5-0.5,1-0.8,1.6-0.8
		c0.4,0,0.9,0.1,1.4,0.4V0.1l0.1-0.1h0.4c0.2,0,0.4,0.1,0.5,0.2c0.1,0.1,0.1,0.3,0.1,0.6v6.4c0,0.6,0.1,1,0.3,1.2
		c-0.1,0.3-0.2,0.5-0.5,0.6c-0.4-0.1-0.7-0.3-0.9-0.8C137,8.7,136.4,9,135.7,9z M136,8c0.5,0,1-0.3,1.4-0.8v-3
		c-0.4-0.3-0.9-0.5-1.2-0.5s-0.7,0.2-0.9,0.6c-0.2,0.4-0.4,0.9-0.4,1.6c0,0.7,0.1,1.2,0.3,1.6S135.7,8,136,8z"/>
	<path fill="#FFFFFF" d="M144.3,3.4c0.6,0.6,0.8,1.4,0.8,2.5s-0.3,1.9-0.8,2.5c-0.4,0.4-1,0.7-1.7,0.7s-1.3-0.2-1.7-0.7
		c-0.6-0.6-0.8-1.4-0.8-2.5s0.3-1.9,0.8-2.5c0.4-0.4,1-0.7,1.7-0.7S143.9,3,144.3,3.4z M141.2,5.9c0,1.5,0.5,2.2,1.4,2.2
		s1.4-0.7,1.4-2.2c0-0.4,0-0.8-0.1-1.1c-0.1-0.3-0.2-0.6-0.4-0.8c-0.2-0.2-0.5-0.3-0.8-0.3S142,3.7,141.8,4
		c-0.2,0.2-0.4,0.5-0.4,0.8C141.3,5.1,141.2,5.5,141.2,5.9z"/>
	<path fill="#FFFFFF" d="M149.5,2.8c0.6,0,1.1,0.3,1.5,0.8c0.4,0.5,0.5,1.3,0.5,2.2s-0.3,1.7-0.8,2.2s-1.1,0.8-1.9,0.8
		s-1.5-0.1-2.2-0.4V0.1l0.1-0.1h0.4c0.2,0,0.4,0.1,0.5,0.2c0.1,0.1,0.1,0.3,0.1,0.6v2.7C148.3,3,148.9,2.8,149.5,2.8z M149.2,3.8
		c-0.5,0-1,0.2-1.4,0.7v3.4c0.3,0.1,0.7,0.2,1.1,0.2s0.8-0.2,1-0.6c0.3-0.4,0.4-0.9,0.4-1.6c0-0.7-0.1-1.2-0.3-1.6
		S149.5,3.8,149.2,3.8z"/>
	<path fill="#FFFFFF" d="M157.4,6.2h-3.6c0,0.6,0.1,1,0.4,1.3c0.2,0.3,0.6,0.5,1.1,0.5s1.1-0.2,1.7-0.5c0.2,0.2,0.3,0.4,0.4,0.8
		C156.6,8.8,155.9,9,155,9c-0.9,0-1.5-0.3-1.9-0.9s-0.6-1.3-0.6-2.3s0.2-1.7,0.6-2.3c0.4-0.6,1-0.9,1.8-0.9c0.8,0,1.4,0.2,1.8,0.7
		c0.4,0.5,0.6,1.1,0.6,1.8C157.4,5.6,157.4,5.9,157.4,6.2z M156,4.1c-0.2-0.3-0.5-0.5-0.9-0.5s-0.7,0.2-0.9,0.5
		c-0.2,0.3-0.3,0.7-0.4,1.3h2.5V5.2C156.3,4.7,156.2,4.4,156,4.1z"/>
	<path fill="#FFFFFF" d="M163.7,4.7v2.8c0,0.5,0.1,0.8,0.2,1.1c-0.2,0.2-0.4,0.3-0.7,0.3c-0.4,0-0.6-0.2-0.6-0.7V5
		c0-0.4-0.1-0.7-0.2-0.9c-0.1-0.2-0.3-0.3-0.6-0.3c-0.3,0-0.6,0.1-0.9,0.2c-0.3,0.1-0.5,0.3-0.8,0.6v4.2c-0.1,0-0.3,0-0.6,0
		s-0.4,0-0.6,0V2.9l0.1-0.1h0.4c0.4,0,0.6,0.3,0.6,0.8c0.6-0.5,1.2-0.8,1.9-0.8c0.5,0,0.9,0.2,1.2,0.5
		C163.6,3.7,163.7,4.2,163.7,4.7z"/>
	<path fill="#FFFFFF" d="M165,8.4c0-0.1,0-0.3,0.1-0.4s0.2-0.3,0.3-0.4c0.7,0.4,1.2,0.5,1.6,0.5c0.4,0,0.7-0.1,0.9-0.2
		c0.2-0.1,0.3-0.3,0.3-0.6c0-0.4-0.3-0.7-0.8-0.9l-0.7-0.3c-1-0.4-1.5-0.9-1.5-1.7c0-0.5,0.2-1,0.6-1.3c0.4-0.3,0.9-0.5,1.6-0.5
		s1.3,0.1,1.9,0.4c0,0.2,0,0.3-0.1,0.5S169,3.9,168.9,4c-0.6-0.3-1.1-0.4-1.6-0.4c-0.3,0-0.5,0.1-0.7,0.2c-0.2,0.1-0.3,0.3-0.3,0.5
		c0,0.2,0.1,0.4,0.2,0.5s0.3,0.2,0.6,0.3l0.7,0.3c1,0.4,1.5,1,1.5,1.8c0,0.5-0.2,1-0.6,1.3c-0.4,0.3-1,0.5-1.7,0.5
		S165.6,8.8,165,8.4z"/>
	<path fill="#FFFFFF" d="M170.6,10.7c-0.2-0.1-0.3-0.3-0.3-0.5c0,0,0-0.1,0-0.1c0.3-0.1,0.5-0.3,0.7-0.5c0.2-0.2,0.3-0.4,0.3-0.7
		c-0.2-0.1-0.4-0.1-0.5-0.2c-0.1-0.1-0.1-0.3-0.1-0.6c0-0.3,0-0.5,0.1-0.6c0.2-0.1,0.4-0.2,0.7-0.2s0.5,0.1,0.7,0.2
		c0.1,0.2,0.1,0.4,0.1,0.8c0,0.5-0.1,1-0.4,1.4S171.1,10.5,170.6,10.7z"/>
	<path fill="#FFFFFF" d="M181.2,8.3c-0.1,0.3-0.2,0.5-0.5,0.6c-0.4-0.1-0.7-0.3-0.9-0.8C179.2,8.7,178.6,9,178,9
		c-0.6,0-1.1-0.2-1.4-0.5c-0.3-0.4-0.5-0.8-0.5-1.2c0-0.7,0.2-1.1,0.6-1.5s1-0.5,1.7-0.5c0.4,0,0.8,0,1.2,0.1V4.8
		c0-0.7-0.3-1.1-1-1.1c-0.5,0-1.2,0.2-1.9,0.5c-0.2-0.2-0.3-0.5-0.3-0.9c0.8-0.4,1.7-0.6,2.5-0.6c0.6,0,1.1,0.2,1.4,0.5
		c0.3,0.3,0.5,0.8,0.5,1.5v2.5C180.8,7.8,180.9,8.1,181.2,8.3z M178.2,8c0.5,0,1-0.3,1.5-0.8V6.1c-0.3,0-0.7-0.1-1.1-0.1
		c-0.4,0-0.7,0.1-0.9,0.3c-0.2,0.2-0.3,0.4-0.3,0.7c0,0.3,0.1,0.5,0.2,0.7C177.8,8,178,8,178.2,8z"/>
	<path fill="#FFFFFF" d="M188.2,2.7c0.7,0,1.2,0.3,1.5,0.8c0.4,0.6,0.5,1.3,0.5,2.3s-0.2,1.7-0.7,2.3s-1,0.8-1.6,0.8
		c-0.5,0-1-0.1-1.4-0.4v2.1c0,0.3,0,0.5-0.1,0.6c-0.1,0.1-0.3,0.2-0.5,0.2h-0.4l-0.1-0.1V2.9l0.1-0.1h0.4c0.4,0,0.6,0.2,0.7,0.6
		C186.9,3,187.5,2.7,188.2,2.7z M187.9,3.7c-0.6,0-1,0.3-1.4,0.8v3c0.4,0.3,0.9,0.5,1.2,0.5s0.7-0.2,0.9-0.6
		c0.2-0.4,0.4-0.9,0.4-1.6s-0.1-1.2-0.3-1.6S188.2,3.7,187.9,3.7z"/>
	<path fill="#FFFFFF" d="M196.2,8.3c-0.1,0.3-0.2,0.5-0.5,0.6c-0.4-0.1-0.7-0.3-0.9-0.8c-0.6,0.6-1.2,0.8-1.8,0.8
		c-0.6,0-1.1-0.2-1.4-0.5c-0.3-0.4-0.5-0.8-0.5-1.2c0-0.7,0.2-1.1,0.6-1.5s1-0.5,1.7-0.5c0.4,0,0.8,0,1.2,0.1V4.8
		c0-0.7-0.3-1.1-1-1.1c-0.5,0-1.2,0.2-1.9,0.5c-0.2-0.2-0.3-0.5-0.3-0.9c0.8-0.4,1.7-0.6,2.5-0.6c0.6,0,1.1,0.2,1.4,0.5
		c0.3,0.3,0.5,0.8,0.5,1.5v2.5C195.9,7.8,196,8.1,196.2,8.3z M193.3,8c0.5,0,1-0.3,1.5-0.8V6.1c-0.3,0-0.7-0.1-1.1-0.1
		c-0.4,0-0.7,0.1-0.9,0.3c-0.2,0.2-0.3,0.4-0.3,0.7c0,0.3,0.1,0.5,0.2,0.7C192.8,8,193,8,193.3,8z"/>
	<path fill="#FFFFFF" d="M197.4,3.4c0.1-0.3,0.2-0.5,0.4-0.6c0.5,0.1,0.9,0.5,1,1.1c0.3-0.7,0.9-1.1,1.6-1.1c0.2,0,0.4,0,0.6,0.1
		c0,0.4-0.1,0.8-0.3,1.1c0,0-0.2,0-0.5,0c-0.6,0-1,0.3-1.3,0.9v3.9c-0.1,0-0.3,0-0.6,0s-0.4,0-0.6,0V4.7
		C197.9,4.1,197.7,3.7,197.4,3.4z"/>
	<path fill="#FFFFFF" d="M205.2,2.9c0,0.1,0,0.3,0,0.4s0,0.3,0,0.4l-1.5,0v3.7c0,0.3,0.2,0.5,0.5,0.5h0.8c0.1,0.2,0.1,0.3,0.1,0.5
		s0,0.3,0,0.3c-0.5,0.1-0.9,0.1-1.3,0.1c-0.8,0-1.2-0.4-1.2-1.2V3.7l-0.9,0c0-0.1,0-0.3,0-0.4s0-0.3,0-0.4l0.9,0V1.8
		c0-0.3,0-0.5,0.1-0.6c0.1-0.1,0.3-0.2,0.5-0.2h0.4l0.1,0.1v1.8L205.2,2.9z"/>
	<path fill="#FFFFFF" d="M208,3.9v4.9c-0.1,0-0.3,0-0.6,0c-0.2,0-0.4,0-0.6,0V4.4c0-0.2,0-0.4-0.1-0.5s-0.2-0.1-0.4-0.1h-0.1
		c0-0.1,0-0.3,0-0.4c0-0.2,0-0.3,0-0.4c0.3,0,0.5,0,0.7,0h0.2c0.3,0,0.5,0.1,0.7,0.3C207.9,3.3,208,3.6,208,3.9z M206.5,1.3
		c0-0.2,0-0.4,0.1-0.5c0.2-0.1,0.4-0.1,0.7-0.1c0.3,0,0.5,0,0.6,0.1c0.1,0.1,0.1,0.3,0.1,0.5c0,0.2,0,0.4-0.1,0.5
		c-0.1,0.1-0.3,0.1-0.6,0.1c-0.3,0-0.5,0-0.6-0.1C206.5,1.6,206.5,1.5,206.5,1.3z"/>
	<path fill="#FFFFFF" d="M213.1,5.1c0,0,0-0.1,0-0.1c0-0.9-0.4-1.4-1.1-1.4c-0.4,0-0.7,0.2-0.9,0.6c-0.2,0.4-0.3,0.9-0.3,1.7
		c0,1.4,0.5,2.1,1.4,2.1c0.4,0,0.9-0.2,1.5-0.6c0.1,0.1,0.2,0.2,0.3,0.3c0.1,0.1,0.2,0.3,0.2,0.4C213.5,8.7,212.8,9,212,9
		s-1.4-0.3-1.8-0.9c-0.4-0.6-0.6-1.4-0.6-2.3s0.2-1.7,0.7-2.2c0.5-0.5,1.1-0.8,1.8-0.8c0.7,0,1.2,0.2,1.6,0.6s0.6,0.8,0.6,1.2
		s-0.2,0.7-0.6,0.7C213.4,5.2,213.2,5.2,213.1,5.1z"/>
	<path fill="#FFFFFF" d="M217,3.9v4.9c-0.1,0-0.3,0-0.6,0c-0.2,0-0.4,0-0.6,0V4.4c0-0.2,0-0.4-0.1-0.5s-0.2-0.1-0.4-0.1h-0.1
		c0-0.1,0-0.3,0-0.4c0-0.2,0-0.3,0-0.4c0.3,0,0.5,0,0.7,0h0.2c0.3,0,0.5,0.1,0.7,0.3C216.9,3.3,217,3.6,217,3.9z M215.5,1.3
		c0-0.2,0-0.4,0.1-0.5c0.2-0.1,0.4-0.1,0.7-0.1c0.3,0,0.5,0,0.6,0.1c0.1,0.1,0.1,0.3,0.1,0.5c0,0.2,0,0.4-0.1,0.5
		c-0.1,0.1-0.3,0.1-0.6,0.1c-0.3,0-0.5,0-0.6-0.1C215.5,1.6,215.5,1.5,215.5,1.3z"/>
	<path fill="#FFFFFF" d="M221.7,2.7c0.7,0,1.2,0.3,1.5,0.8c0.4,0.6,0.5,1.3,0.5,2.3s-0.2,1.7-0.7,2.3s-1,0.8-1.6,0.8
		c-0.5,0-1-0.1-1.4-0.4v2.1c0,0.3,0,0.5-0.1,0.6c-0.1,0.1-0.3,0.2-0.5,0.2H219l-0.1-0.1V2.9l0.1-0.1h0.4c0.4,0,0.6,0.2,0.7,0.6
		C220.5,3,221.1,2.7,221.7,2.7z M221.5,3.7c-0.6,0-1,0.3-1.4,0.8v3c0.4,0.3,0.9,0.5,1.2,0.5s0.7-0.2,0.9-0.6
		c0.2-0.4,0.4-0.9,0.4-1.6s-0.1-1.2-0.3-1.6S221.8,3.7,221.5,3.7z"/>
	<path fill="#FFFFFF" d="M229.8,8.3c-0.1,0.3-0.2,0.5-0.5,0.6c-0.4-0.1-0.7-0.3-0.9-0.8c-0.6,0.6-1.2,0.8-1.8,0.8
		c-0.6,0-1.1-0.2-1.4-0.5c-0.3-0.4-0.5-0.8-0.5-1.2c0-0.7,0.2-1.1,0.6-1.5s1-0.5,1.7-0.5c0.4,0,0.8,0,1.2,0.1V4.8
		c0-0.7-0.3-1.1-1-1.1c-0.5,0-1.2,0.2-1.9,0.5c-0.2-0.2-0.3-0.5-0.3-0.9c0.8-0.4,1.7-0.6,2.5-0.6c0.6,0,1.1,0.2,1.4,0.5
		c0.3,0.3,0.5,0.8,0.5,1.5v2.5C229.5,7.8,229.6,8.1,229.8,8.3z M226.9,8c0.5,0,1-0.3,1.5-0.8V6.1c-0.3,0-0.7-0.1-1.1-0.1
		c-0.4,0-0.7,0.1-0.9,0.3c-0.2,0.2-0.3,0.4-0.3,0.7c0,0.3,0.1,0.5,0.2,0.7C226.4,8,226.6,8,226.9,8z"/>
	<path fill="#FFFFFF" d="M231,3.4c0.1-0.3,0.2-0.5,0.4-0.6c0.5,0.1,0.9,0.5,1,1.1c0.3-0.7,0.9-1.1,1.6-1.1c0.2,0,0.4,0,0.6,0.1
		c0,0.4-0.1,0.8-0.3,1.1c0,0-0.2,0-0.5,0c-0.6,0-1,0.3-1.3,0.9v3.9c-0.1,0-0.3,0-0.6,0s-0.4,0-0.6,0V4.7
		C231.5,4.1,231.3,3.7,231,3.4z"/>
	<path fill="#FFFFFF" d="M240,9c-0.7,0-1.2-0.3-1.5-0.8c-0.4-0.6-0.5-1.3-0.5-2.3c0-1,0.2-1.7,0.7-2.3c0.5-0.5,1-0.8,1.6-0.8
		c0.4,0,0.9,0.1,1.4,0.4V0.1l0.1-0.1h0.4c0.2,0,0.4,0.1,0.5,0.2c0.1,0.1,0.1,0.3,0.1,0.6v6.4c0,0.6,0.1,1,0.3,1.2
		c-0.1,0.3-0.2,0.5-0.5,0.6c-0.4-0.1-0.7-0.3-0.9-0.8C241.3,8.7,240.7,9,240,9z M240.3,8c0.5,0,1-0.3,1.4-0.8v-3
		c-0.4-0.3-0.9-0.5-1.2-0.5s-0.7,0.2-0.9,0.6c-0.2,0.4-0.4,0.9-0.4,1.6c0,0.7,0.1,1.2,0.3,1.6S239.9,8,240.3,8z"/>
	<path fill="#FFFFFF" d="M249.1,6.2h-3.6c0,0.6,0.1,1,0.4,1.3c0.2,0.3,0.6,0.5,1.1,0.5s1.1-0.2,1.7-0.5c0.2,0.2,0.3,0.4,0.4,0.8
		c-0.6,0.4-1.4,0.7-2.3,0.7c-0.9,0-1.5-0.3-1.9-0.9s-0.6-1.3-0.6-2.3s0.2-1.7,0.6-2.3c0.4-0.6,1-0.9,1.8-0.9c0.8,0,1.4,0.2,1.8,0.7
		c0.4,0.5,0.6,1.1,0.6,1.8C249.2,5.6,249.1,5.9,249.1,6.2z M247.7,4.1c-0.2-0.3-0.5-0.5-0.9-0.5s-0.7,0.2-0.9,0.5
		c-0.2,0.3-0.3,0.7-0.4,1.3h2.5V5.2C248,4.7,247.9,4.4,247.7,4.1z"/>
	<path fill="#FFFFFF" d="M0.5,21.4v-2.8c0-0.5-0.1-0.8-0.2-1.1c0.2-0.2,0.4-0.2,0.7-0.2c0.3,0,0.4,0.1,0.5,0.2
		c0.1,0.1,0.1,0.3,0.1,0.6v3.1c0,0.4,0.1,0.7,0.2,0.9c0.1,0.2,0.3,0.3,0.6,0.3c0.3,0,0.6-0.1,0.8-0.2c0.3-0.1,0.5-0.3,0.8-0.6v-4.2
		c0.2,0,0.4,0,0.6,0s0.4,0,0.6,0v4.2c0,0.6,0.1,1,0.3,1.2c-0.1,0.3-0.2,0.5-0.4,0.6c-0.5-0.1-0.8-0.4-0.9-0.9
		c-0.6,0.6-1.3,0.9-2,0.9c-0.5,0-0.9-0.2-1.2-0.5C0.7,22.4,0.5,22,0.5,21.4z"/>
	<path fill="#FFFFFF" d="M10.4,19.4c0-0.4-0.1-0.7-0.2-0.9c-0.1-0.2-0.3-0.3-0.6-0.3c-0.5,0-0.9,0.3-1.4,0.8v4.2c-0.1,0-0.3,0-0.6,0
		s-0.4,0-0.6,0v-5.9l0.1-0.1h0.4c0.4,0,0.6,0.3,0.6,0.8c0.5-0.5,1.1-0.8,1.7-0.8s1.1,0.3,1.3,0.9c0.6-0.6,1.3-0.9,1.9-0.9
		c0.5,0,0.9,0.2,1.1,0.5c0.3,0.4,0.4,0.8,0.4,1.3V22c0,0.5,0.1,0.8,0.2,1.1c-0.2,0.2-0.4,0.3-0.7,0.3c-0.4,0-0.6-0.2-0.6-0.7v-3.1
		c0-0.4-0.1-0.7-0.2-0.9c-0.1-0.2-0.3-0.3-0.6-0.3c-0.5,0-0.9,0.3-1.4,0.8v4.2c-0.1,0-0.3,0-0.6,0s-0.4,0-0.6,0V19.4z"/>
	<path fill="#FFFFFF" d="M21.2,22.7c-0.1,0.3-0.2,0.5-0.5,0.6c-0.4-0.1-0.7-0.3-0.9-0.8c-0.6,0.6-1.2,0.8-1.8,0.8
		c-0.6,0-1.1-0.2-1.4-0.5c-0.3-0.4-0.5-0.8-0.5-1.2c0-0.7,0.2-1.1,0.6-1.5s1-0.5,1.7-0.5c0.4,0,0.8,0,1.2,0.1v-0.5
		c0-0.7-0.3-1.1-1-1.1c-0.5,0-1.2,0.2-1.9,0.5c-0.2-0.2-0.3-0.5-0.3-0.9c0.8-0.4,1.7-0.6,2.5-0.6c0.6,0,1.1,0.2,1.4,0.5
		c0.3,0.3,0.5,0.8,0.5,1.5v2.5C20.9,22.2,21,22.5,21.2,22.7z M18.3,22.4c0.5,0,1-0.3,1.5-0.8v-1.2c-0.3,0-0.7-0.1-1.1-0.1
		c-0.4,0-0.7,0.1-0.9,0.3c-0.2,0.2-0.3,0.4-0.3,0.7c0,0.3,0.1,0.5,0.2,0.7C17.8,22.4,18,22.4,18.3,22.4z"/>
	<path fill="#FFFFFF" d="M28.3,17.3c0,0.1,0,0.3,0,0.4s0,0.3,0,0.4l-1.5,0v3.7c0,0.3,0.2,0.5,0.5,0.5h0.8c0.1,0.2,0.1,0.3,0.1,0.5
		s0,0.3,0,0.3c-0.5,0.1-0.9,0.1-1.3,0.1c-0.8,0-1.2-0.4-1.2-1.2v-3.9l-0.9,0c0-0.1,0-0.3,0-0.4s0-0.3,0-0.4l0.9,0v-1.1
		c0-0.3,0-0.5,0.1-0.6c0.1-0.1,0.3-0.2,0.5-0.2h0.4l0.1,0.1v1.8L28.3,17.3z"/>
	<path fill="#FFFFFF" d="M29.3,17.8c0.1-0.3,0.2-0.5,0.4-0.6c0.5,0.1,0.9,0.5,1,1.1c0.3-0.7,0.9-1.1,1.6-1.1c0.2,0,0.4,0,0.6,0.1
		c0,0.4-0.1,0.8-0.3,1.1c0,0-0.2,0-0.5,0c-0.6,0-1,0.3-1.3,0.9v3.9c-0.1,0-0.3,0-0.6,0s-0.4,0-0.6,0v-4.2
		C29.7,18.5,29.5,18.1,29.3,17.8z"/>
	<path fill="#FFFFFF" d="M38.4,22.7c-0.1,0.3-0.2,0.5-0.5,0.6c-0.4-0.1-0.7-0.3-0.9-0.8c-0.6,0.6-1.2,0.8-1.8,0.8
		c-0.6,0-1.1-0.2-1.4-0.5c-0.3-0.4-0.5-0.8-0.5-1.2c0-0.7,0.2-1.1,0.6-1.5s1-0.5,1.7-0.5c0.4,0,0.8,0,1.2,0.1v-0.5
		c0-0.7-0.3-1.1-1-1.1c-0.5,0-1.2,0.2-1.9,0.5c-0.2-0.2-0.3-0.5-0.3-0.9c0.8-0.4,1.7-0.6,2.5-0.6c0.6,0,1.1,0.2,1.4,0.5
		c0.3,0.3,0.5,0.8,0.5,1.5v2.5C38.1,22.2,38.2,22.5,38.4,22.7z M35.5,22.4c0.5,0,1-0.3,1.5-0.8v-1.2c-0.3,0-0.7-0.1-1.1-0.1
		c-0.4,0-0.7,0.1-0.9,0.3c-0.2,0.2-0.3,0.4-0.3,0.7c0,0.3,0.1,0.5,0.2,0.7C35,22.4,35.2,22.4,35.5,22.4z"/>
	<path fill="#FFFFFF" d="M41.6,22.3l1.5-5c0.1,0,0.3,0,0.5,0s0.4,0,0.6,0.1l0,0c-0.8,2.6-1.4,4.5-1.9,5.8c-0.2,0-0.5,0.1-0.8,0.1
		s-0.5,0-0.6-0.1s-0.2-0.3-0.3-0.5l-1.7-5.2c0.2-0.1,0.5-0.2,0.7-0.2c0.3,0,0.5,0.2,0.6,0.5l0.8,2.7c0.2,0.6,0.3,1.2,0.5,1.8
		C41.5,22.2,41.6,22.3,41.6,22.3z"/>
	<path fill="#FFFFFF" d="M49.6,20.6H46c0,0.6,0.1,1,0.4,1.3c0.2,0.3,0.6,0.5,1.1,0.5s1.1-0.2,1.7-0.5c0.2,0.2,0.3,0.4,0.4,0.8
		c-0.6,0.4-1.4,0.7-2.3,0.7c-0.9,0-1.5-0.3-1.9-0.9s-0.6-1.3-0.6-2.3s0.2-1.7,0.6-2.3c0.4-0.6,1-0.9,1.8-0.9c0.8,0,1.4,0.2,1.8,0.7
		c0.4,0.5,0.6,1.1,0.6,1.8C49.6,20,49.6,20.3,49.6,20.6z M48.2,18.5C48,18.2,47.7,18,47.3,18s-0.7,0.2-0.9,0.5
		c-0.2,0.3-0.3,0.7-0.4,1.3h2.5v-0.2C48.5,19.1,48.4,18.8,48.2,18.5z"/>
	<path fill="#FFFFFF" d="M50.6,22.8c0-0.1,0-0.3,0.1-0.4S50.9,22,51,22c0.7,0.4,1.2,0.5,1.6,0.5c0.4,0,0.7-0.1,0.9-0.2
		c0.2-0.1,0.3-0.3,0.3-0.6c0-0.4-0.3-0.7-0.8-0.9l-0.7-0.3c-1-0.4-1.5-0.9-1.5-1.7c0-0.5,0.2-1,0.6-1.3c0.4-0.3,0.9-0.5,1.6-0.5
		s1.3,0.1,1.9,0.4c0,0.2,0,0.3-0.1,0.5s-0.2,0.3-0.3,0.4C54,18.2,53.4,18,52.9,18c-0.3,0-0.5,0.1-0.7,0.2c-0.2,0.1-0.3,0.3-0.3,0.5
		c0,0.2,0.1,0.4,0.2,0.5s0.3,0.2,0.6,0.3l0.7,0.3c1,0.4,1.5,1,1.5,1.8c0,0.5-0.2,1-0.6,1.3c-0.4,0.3-1,0.5-1.7,0.5
		S51.3,23.2,50.6,22.8z"/>
	<path fill="#FFFFFF" d="M55.9,22.8c0-0.1,0-0.3,0.1-0.4s0.2-0.3,0.3-0.4c0.7,0.4,1.2,0.5,1.6,0.5c0.4,0,0.7-0.1,0.9-0.2
		c0.2-0.1,0.3-0.3,0.3-0.6c0-0.4-0.3-0.7-0.8-0.9l-0.7-0.3c-1-0.4-1.5-0.9-1.5-1.7c0-0.5,0.2-1,0.6-1.3c0.4-0.3,0.9-0.5,1.6-0.5
		s1.3,0.1,1.9,0.4c0,0.2,0,0.3-0.1,0.5s-0.2,0.3-0.3,0.4c-0.6-0.3-1.1-0.4-1.6-0.4c-0.3,0-0.5,0.1-0.7,0.2c-0.2,0.1-0.3,0.3-0.3,0.5
		c0,0.2,0.1,0.4,0.2,0.5s0.3,0.2,0.6,0.3l0.7,0.3c1,0.4,1.5,1,1.5,1.8c0,0.5-0.2,1-0.6,1.3c-0.4,0.3-1,0.5-1.7,0.5
		S56.5,23.2,55.9,22.8z"/>
	<path fill="#FFFFFF" d="M63,18.3v4.9c-0.1,0-0.3,0-0.6,0c-0.2,0-0.4,0-0.6,0v-4.5c0-0.2,0-0.4-0.1-0.5s-0.2-0.1-0.4-0.1h-0.1
		c0-0.1,0-0.3,0-0.4c0-0.2,0-0.3,0-0.4c0.3,0,0.5,0,0.7,0h0.2c0.3,0,0.5,0.1,0.7,0.3C62.9,17.7,63,18,63,18.3z M61.5,15.7
		c0-0.2,0-0.4,0.1-0.5C61.8,15,62,15,62.3,15c0.3,0,0.5,0,0.6,0.1c0.1,0.1,0.1,0.3,0.1,0.5c0,0.2,0,0.4-0.1,0.5
		c-0.1,0.1-0.3,0.1-0.6,0.1c-0.3,0-0.5,0-0.6-0.1C61.5,16,61.5,15.9,61.5,15.7z"/>
	<path fill="#FFFFFF" d="M69.5,22.7c-0.1,0.3-0.2,0.5-0.5,0.6c-0.4-0.1-0.7-0.3-0.9-0.8c-0.6,0.6-1.2,0.8-1.8,0.8
		c-0.6,0-1.1-0.2-1.4-0.5c-0.3-0.4-0.5-0.8-0.5-1.2c0-0.7,0.2-1.1,0.6-1.5s1-0.5,1.7-0.5c0.4,0,0.8,0,1.2,0.1v-0.5
		c0-0.7-0.3-1.1-1-1.1c-0.5,0-1.2,0.2-1.9,0.5c-0.2-0.2-0.3-0.5-0.3-0.9c0.8-0.4,1.7-0.6,2.5-0.6c0.6,0,1.1,0.2,1.4,0.5
		c0.3,0.3,0.5,0.8,0.5,1.5v2.5C69.1,22.2,69.2,22.5,69.5,22.7z M66.5,22.4c0.5,0,1-0.3,1.5-0.8v-1.2c-0.3,0-0.7-0.1-1.1-0.1
		c-0.4,0-0.7,0.1-0.9,0.3c-0.2,0.2-0.3,0.4-0.3,0.7c0,0.3,0.1,0.5,0.2,0.7C66,22.4,66.3,22.4,66.5,22.4z"/>
	<path fill="#FFFFFF" d="M75.3,23.4c-0.7,0-1.2-0.3-1.5-0.8c-0.4-0.6-0.5-1.3-0.5-2.3c0-1,0.2-1.7,0.7-2.3c0.5-0.5,1-0.8,1.6-0.8
		c0.4,0,0.9,0.1,1.4,0.4v-3.1l0.1-0.1h0.4c0.2,0,0.4,0.1,0.5,0.2c0.1,0.1,0.1,0.3,0.1,0.6v6.4c0,0.6,0.1,1,0.3,1.2
		c-0.1,0.3-0.2,0.5-0.5,0.6c-0.4-0.1-0.7-0.3-0.9-0.8C76.6,23.1,76,23.4,75.3,23.4z M75.5,22.4c0.5,0,1-0.3,1.4-0.8v-3
		c-0.4-0.3-0.9-0.5-1.2-0.5s-0.7,0.2-0.9,0.6c-0.2,0.4-0.4,0.9-0.4,1.6c0,0.7,0.1,1.2,0.3,1.6S75.2,22.4,75.5,22.4z"/>
	<path fill="#FFFFFF" d="M84.3,20.6h-3.6c0,0.6,0.1,1,0.4,1.3c0.2,0.3,0.6,0.5,1.1,0.5s1.1-0.2,1.7-0.5c0.2,0.2,0.3,0.4,0.4,0.8
		c-0.6,0.4-1.4,0.7-2.3,0.7c-0.9,0-1.5-0.3-1.9-0.9s-0.6-1.3-0.6-2.3s0.2-1.7,0.6-2.3c0.4-0.6,1-0.9,1.8-0.9c0.8,0,1.4,0.2,1.8,0.7
		c0.4,0.5,0.6,1.1,0.6,1.8C84.4,20,84.4,20.3,84.3,20.6z M83,18.5c-0.2-0.3-0.5-0.5-0.9-0.5s-0.7,0.2-0.9,0.5
		c-0.2,0.3-0.3,0.7-0.4,1.3h2.5v-0.2C83.3,19.1,83.2,18.8,83,18.5z"/>
	<path fill="#A9D42D" d="M91.6,19.7c0,0,0-0.1,0-0.1c0-0.4-0.1-0.7-0.2-1s-0.4-0.4-0.7-0.4c-0.7,0-1,0.7-1,2s0.4,2,1.2,2
		c0.4,0,0.9-0.2,1.4-0.6c0.1,0.1,0.2,0.2,0.4,0.4c0.1,0.2,0.2,0.3,0.2,0.5c-0.6,0.6-1.3,0.9-2.2,0.9c-0.9,0-1.5-0.3-1.9-0.9
		c-0.4-0.6-0.6-1.4-0.6-2.4s0.3-1.8,0.8-2.3s1.1-0.8,1.8-0.8c0.7,0,1.2,0.2,1.6,0.6C92.8,18,93,18.5,93,19c0,0.5-0.2,0.8-0.7,0.8
		C92,19.8,91.8,19.7,91.6,19.7z"/>
	<path fill="#A9D42D" d="M99.1,20.2c0,1.1-0.3,1.9-0.9,2.5c-0.5,0.5-1.1,0.7-1.8,0.7s-1.3-0.2-1.8-0.7c-0.6-0.6-0.9-1.4-0.9-2.5
		c0-1.1,0.3-1.9,0.9-2.5c0.5-0.5,1.1-0.7,1.8-0.7s1.3,0.2,1.8,0.7C98.8,18.4,99.1,19.2,99.1,20.2z M96.5,18.2c-0.8,0-1.1,0.7-1.1,2
		c0,1.3,0.4,2,1.1,2s1.1-0.7,1.1-2C97.6,18.9,97.2,18.2,96.5,18.2z"/>
	<path fill="#A9D42D" d="M105.3,19.2v2.7c0,0.5,0.1,0.9,0.2,1.1c-0.3,0.2-0.6,0.3-0.9,0.3c-0.3,0-0.5-0.1-0.7-0.2
		c-0.1-0.2-0.2-0.4-0.2-0.7v-2.9c0-0.4,0-0.6-0.1-0.8c-0.1-0.2-0.3-0.2-0.5-0.2c-0.5,0-0.9,0.2-1.3,0.6v4.1c-0.2,0-0.5,0.1-0.7,0.1
		c-0.3,0-0.5,0-0.8-0.1v-5.9l0.1-0.1h0.6c0.5,0,0.7,0.2,0.8,0.7c0.6-0.5,1.2-0.8,1.7-0.8s1,0.2,1.3,0.6S105.3,18.6,105.3,19.2z"/>
	<path fill="#A9D42D" d="M111.9,19.2v2.7c0,0.5,0.1,0.9,0.2,1.1c-0.2,0.2-0.5,0.3-0.9,0.3s-0.6-0.1-0.7-0.2
		c-0.1-0.2-0.2-0.4-0.2-0.7v-2.8c0-0.4,0-0.6-0.1-0.8c-0.1-0.2-0.3-0.2-0.5-0.2c-0.5,0-0.9,0.2-1.3,0.6v4.1c-0.2,0-0.5,0.1-0.7,0.1
		s-0.5,0-0.7-0.1v-8.7l0.1-0.1h0.6c0.3,0,0.5,0.1,0.6,0.2s0.2,0.4,0.2,0.7v2.6c0.6-0.5,1.1-0.7,1.7-0.7c0.6,0,1,0.2,1.3,0.6
		C111.7,18.1,111.9,18.6,111.9,19.2z"/>
	<path fill="#A9D42D" d="M118,20.7h-3.4c0,0.5,0.1,0.8,0.3,1.1c0.2,0.3,0.5,0.4,1,0.4s1-0.1,1.6-0.4c0.2,0.2,0.4,0.5,0.4,0.9
		c-0.6,0.5-1.4,0.7-2.3,0.7c-0.9,0-1.5-0.3-1.9-0.9c-0.4-0.6-0.6-1.3-0.6-2.3c0-0.9,0.2-1.7,0.6-2.3c0.4-0.6,1-0.9,1.9-0.9
		c0.8,0,1.4,0.2,1.9,0.7c0.4,0.5,0.6,1.1,0.6,1.8C118.1,20,118.1,20.4,118,20.7z M115.7,18.2c-0.7,0-1,0.5-1.1,1.5h2.1v-0.1
		c0-0.4-0.1-0.7-0.3-1S116.1,18.2,115.7,18.2z"/>
	<path fill="#A9D42D" d="M122.6,19.7c0,0,0-0.1,0-0.1c0-0.4-0.1-0.7-0.2-1s-0.4-0.4-0.7-0.4c-0.7,0-1,0.7-1,2s0.4,2,1.2,2
		c0.4,0,0.9-0.2,1.4-0.6c0.1,0.1,0.2,0.2,0.4,0.4c0.1,0.2,0.2,0.3,0.2,0.5c-0.6,0.6-1.3,0.9-2.2,0.9c-0.9,0-1.5-0.3-1.9-0.9
		c-0.4-0.6-0.6-1.4-0.6-2.4s0.3-1.8,0.8-2.3s1.1-0.8,1.8-0.8c0.7,0,1.2,0.2,1.6,0.6c0.4,0.4,0.6,0.8,0.6,1.3c0,0.5-0.2,0.8-0.7,0.8
		C123,19.8,122.8,19.7,122.6,19.7z"/>
	<path fill="#A9D42D" d="M127,18.4v4.8c-0.2,0-0.5,0.1-0.7,0.1c-0.3,0-0.5,0-0.8-0.1V19c0-0.4-0.2-0.6-0.5-0.6h-0.1
		c0-0.1-0.1-0.3-0.1-0.5c0-0.2,0-0.4,0.1-0.5c0.3,0,0.6,0,0.9,0h0.2c0.3,0,0.6,0.1,0.8,0.3S127,18.1,127,18.4z M125.2,16.2
		c-0.1-0.2-0.1-0.4-0.1-0.6s0-0.4,0.1-0.6c0.2-0.1,0.5-0.2,0.8-0.2c0.3,0,0.6,0.1,0.7,0.2c0.1,0.2,0.1,0.4,0.1,0.6s0,0.4-0.1,0.6
		c-0.2,0.1-0.4,0.2-0.8,0.2S125.4,16.3,125.2,16.2z"/>
	<path fill="#A9D42D" d="M131.9,19.5c0-0.7-0.2-1-0.6-1c-0.4,0-0.7,0.2-1.1,0.6v4.1c-0.2,0-0.5,0.1-0.7,0.1c-0.3,0-0.5,0-0.8-0.1
		v-5.9l0.1-0.1h0.6c0.5,0,0.7,0.2,0.8,0.7c0.6-0.5,1.1-0.8,1.7-0.8c0.6,0,1,0.3,1.3,0.9c0.6-0.6,1.2-0.9,1.9-0.9
		c0.5,0,0.9,0.2,1.2,0.5c0.3,0.4,0.4,0.8,0.4,1.4v2.8c0,0.5,0.1,0.9,0.2,1.1c-0.2,0.2-0.5,0.3-0.9,0.3s-0.6-0.1-0.7-0.2
		c-0.1-0.2-0.2-0.4-0.2-0.7v-2.9c0-0.7-0.2-1-0.7-1c-0.3,0-0.7,0.2-1.1,0.6v4.1c-0.2,0-0.5,0.1-0.7,0.1s-0.5,0-0.8-0.1V19.5z"/>
	<path fill="#A9D42D" d="M142.8,20.7h-3.4c0,0.5,0.1,0.8,0.3,1.1c0.2,0.3,0.5,0.4,1,0.4s1-0.1,1.6-0.4c0.2,0.2,0.4,0.5,0.4,0.9
		c-0.6,0.5-1.4,0.7-2.3,0.7c-0.9,0-1.5-0.3-1.9-0.9c-0.4-0.6-0.6-1.3-0.6-2.3c0-0.9,0.2-1.7,0.6-2.3c0.4-0.6,1-0.9,1.9-0.9
		c0.8,0,1.4,0.2,1.9,0.7c0.4,0.5,0.6,1.1,0.6,1.8C142.9,20,142.9,20.4,142.8,20.7z M140.5,18.2c-0.7,0-1,0.5-1.1,1.5h2.1v-0.1
		c0-0.4-0.1-0.7-0.3-1S140.8,18.2,140.5,18.2z"/>
	<path fill="#A9D42D" d="M149.2,19.2v2.7c0,0.5,0.1,0.9,0.2,1.1c-0.3,0.2-0.6,0.3-0.9,0.3c-0.3,0-0.5-0.1-0.7-0.2
		c-0.1-0.2-0.2-0.4-0.2-0.7v-2.9c0-0.4,0-0.6-0.1-0.8c-0.1-0.2-0.3-0.2-0.5-0.2c-0.5,0-0.9,0.2-1.3,0.6v4.1c-0.2,0-0.5,0.1-0.7,0.1
		c-0.3,0-0.5,0-0.8-0.1v-5.9l0.1-0.1h0.6c0.5,0,0.7,0.2,0.8,0.7c0.6-0.5,1.2-0.8,1.7-0.8s1,0.2,1.3,0.6S149.2,18.6,149.2,19.2z"/>
	<path fill="#A9D42D" d="M154,17.3c0,0.2,0.1,0.3,0.1,0.5s0,0.4-0.1,0.5l-1.5,0v3.3c0,0.4,0.2,0.5,0.5,0.5h0.8
		c0.1,0.2,0.1,0.5,0.1,0.6c0,0.2,0,0.3,0,0.4c-0.5,0.1-1,0.1-1.4,0.1c-0.9,0-1.4-0.5-1.4-1.4v-3.6l-0.9,0c0-0.2-0.1-0.3-0.1-0.5
		s0-0.4,0.1-0.5l0.9,0v-0.9c0-0.3,0.1-0.6,0.2-0.7c0.1-0.1,0.3-0.2,0.6-0.2h0.6l0.1,0.1v1.8L154,17.3z"/>
	<path fill="#A9D42D" d="M160.1,20.2c0,1.1-0.3,1.9-0.9,2.5c-0.5,0.5-1.1,0.7-1.8,0.7s-1.3-0.2-1.8-0.7c-0.6-0.6-0.9-1.4-0.9-2.5
		c0-1.1,0.3-1.9,0.9-2.5c0.5-0.5,1.1-0.7,1.8-0.7s1.3,0.2,1.8,0.7C159.8,18.4,160.1,19.2,160.1,20.2z M157.4,18.2
		c-0.8,0-1.1,0.7-1.1,2c0,1.3,0.4,2,1.1,2s1.1-0.7,1.1-2C158.6,18.9,158.2,18.2,157.4,18.2z"/>
	<path fill="#A9D42D" d="M168.5,20.7h-3.4c0,0.5,0.1,0.8,0.3,1.1c0.2,0.3,0.5,0.4,1,0.4s1-0.1,1.6-0.4c0.2,0.2,0.4,0.5,0.4,0.9
		c-0.6,0.5-1.4,0.7-2.3,0.7c-0.9,0-1.5-0.3-1.9-0.9c-0.4-0.6-0.6-1.3-0.6-2.3c0-0.9,0.2-1.7,0.6-2.3c0.4-0.6,1-0.9,1.9-0.9
		c0.8,0,1.4,0.2,1.9,0.7c0.4,0.5,0.6,1.1,0.6,1.8C168.7,20,168.6,20.4,168.5,20.7z M166.2,18.2c-0.7,0-1,0.5-1.1,1.5h2.1v-0.1
		c0-0.4-0.1-0.7-0.3-1S166.6,18.2,166.2,18.2z"/>
	<path fill="#A9D42D" d="M175.8,19.7c0,0,0-0.1,0-0.1c0-0.4-0.1-0.7-0.2-1s-0.4-0.4-0.7-0.4c-0.7,0-1,0.7-1,2s0.4,2,1.2,2
		c0.4,0,0.9-0.2,1.4-0.6c0.1,0.1,0.2,0.2,0.4,0.4c0.1,0.2,0.2,0.3,0.2,0.5c-0.6,0.6-1.3,0.9-2.2,0.9c-0.9,0-1.5-0.3-1.9-0.9
		c-0.4-0.6-0.6-1.4-0.6-2.4s0.3-1.8,0.8-2.3s1.1-0.8,1.8-0.8c0.7,0,1.2,0.2,1.6,0.6c0.4,0.4,0.6,0.8,0.6,1.3c0,0.5-0.2,0.8-0.7,0.8
		C176.2,19.8,176,19.7,175.8,19.7z"/>
	<path fill="#A9D42D" d="M183.1,22.5c0,0.1-0.1,0.3-0.2,0.4c-0.1,0.1-0.2,0.3-0.3,0.3c-0.5-0.1-0.9-0.3-1.1-0.7
		c-0.5,0.5-1.1,0.8-1.7,0.8c-0.6,0-1.1-0.2-1.4-0.5c-0.3-0.4-0.5-0.8-0.5-1.2c0-0.7,0.2-1.2,0.7-1.5c0.4-0.3,1-0.5,1.7-0.5
		c0.4,0,0.7,0,1,0v-0.4c0-0.6-0.3-0.9-0.9-0.9c-0.4,0-1,0.1-1.8,0.4c-0.2-0.2-0.4-0.6-0.4-1.1c0.9-0.4,1.7-0.5,2.6-0.5
		c0.6,0,1.1,0.2,1.5,0.5s0.6,0.8,0.6,1.5v2.4C182.8,22.1,182.9,22.4,183.1,22.5z M180.1,22.2c0.4,0,0.8-0.2,1.2-0.6v-1.1
		c-0.3,0-0.6,0-0.9,0s-0.6,0.1-0.7,0.3s-0.3,0.4-0.3,0.6c0,0.3,0.1,0.5,0.2,0.6C179.7,22.2,179.9,22.2,180.1,22.2z"/>
	<path fill="#A9D42D" d="M187.5,17.1c0.6,0,1.2,0.3,1.5,0.8c0.4,0.6,0.5,1.3,0.5,2.3s-0.2,1.7-0.7,2.3c-0.5,0.6-1,0.8-1.7,0.8
		c-0.4,0-0.8-0.1-1.3-0.3v1.9c0,0.3-0.1,0.6-0.2,0.7s-0.3,0.2-0.6,0.2h-0.6l-0.1-0.1v-8.4l0.1-0.1h0.4c0.4,0,0.7,0.2,0.9,0.6
		C186.3,17.3,186.8,17.1,187.5,17.1z M187.1,18.3c-0.4,0-0.8,0.2-1.1,0.6v2.8c0.4,0.2,0.7,0.4,1,0.4c0.3,0,0.6-0.2,0.8-0.5
		c0.2-0.3,0.3-0.8,0.3-1.5c0-0.6-0.1-1.1-0.3-1.4C187.6,18.5,187.3,18.3,187.1,18.3z"/>
	<path fill="#A9D42D" d="M195.6,22.5c0,0.1-0.1,0.3-0.2,0.4c-0.1,0.1-0.2,0.3-0.3,0.3c-0.5-0.1-0.9-0.3-1.1-0.7
		c-0.5,0.5-1.1,0.8-1.7,0.8c-0.6,0-1.1-0.2-1.4-0.5c-0.3-0.4-0.5-0.8-0.5-1.2c0-0.7,0.2-1.2,0.7-1.5c0.4-0.3,1-0.5,1.7-0.5
		c0.4,0,0.7,0,1,0v-0.4c0-0.6-0.3-0.9-0.9-0.9c-0.4,0-1,0.1-1.8,0.4c-0.2-0.2-0.4-0.6-0.4-1.1c0.9-0.4,1.7-0.5,2.6-0.5
		c0.6,0,1.1,0.2,1.5,0.5s0.6,0.8,0.6,1.5v2.4C195.3,22.1,195.4,22.4,195.6,22.5z M192.6,22.2c0.4,0,0.8-0.2,1.2-0.6v-1.1
		c-0.3,0-0.6,0-0.9,0s-0.6,0.1-0.7,0.3s-0.3,0.4-0.3,0.6c0,0.3,0.1,0.5,0.2,0.6C192.2,22.2,192.4,22.2,192.6,22.2z"/>
	<path fill="#A9D42D" d="M199.9,19.7c0,0,0-0.1,0-0.1c0-0.4-0.1-0.7-0.2-1s-0.4-0.4-0.7-0.4c-0.7,0-1,0.7-1,2s0.4,2,1.2,2
		c0.4,0,0.9-0.2,1.4-0.6c0.1,0.1,0.2,0.2,0.4,0.4c0.1,0.2,0.2,0.3,0.2,0.5c-0.6,0.6-1.3,0.9-2.2,0.9c-0.9,0-1.5-0.3-1.9-0.9
		c-0.4-0.6-0.6-1.4-0.6-2.4s0.3-1.8,0.8-2.3s1.1-0.8,1.8-0.8c0.7,0,1.2,0.2,1.6,0.6c0.4,0.4,0.6,0.8,0.6,1.3c0,0.5-0.2,0.8-0.7,0.8
		C200.3,19.8,200.1,19.7,199.9,19.7z"/>
	<path fill="#A9D42D" d="M204.3,18.4v4.8c-0.2,0-0.5,0.1-0.7,0.1c-0.3,0-0.5,0-0.8-0.1V19c0-0.4-0.2-0.6-0.5-0.6h-0.1
		c0-0.1-0.1-0.3-0.1-0.5c0-0.2,0-0.4,0.1-0.5c0.3,0,0.6,0,0.9,0h0.2c0.3,0,0.6,0.1,0.8,0.3S204.3,18.1,204.3,18.4z M202.5,16.2
		c-0.1-0.2-0.1-0.4-0.1-0.6s0-0.4,0.1-0.6c0.2-0.1,0.5-0.2,0.8-0.2c0.3,0,0.6,0.1,0.7,0.2c0.1,0.2,0.1,0.4,0.1,0.6s0,0.4-0.1,0.6
		c-0.2,0.1-0.4,0.2-0.8,0.2S202.7,16.3,202.5,16.2z"/>
	<path fill="#A9D42D" d="M209,17.3c0,0.2,0.1,0.3,0.1,0.5s0,0.4-0.1,0.5l-1.5,0v3.3c0,0.4,0.2,0.5,0.5,0.5h0.8
		c0.1,0.2,0.1,0.5,0.1,0.6c0,0.2,0,0.3,0,0.4c-0.5,0.1-1,0.1-1.4,0.1c-0.9,0-1.4-0.5-1.4-1.4v-3.6l-0.9,0c0-0.2-0.1-0.3-0.1-0.5
		s0-0.4,0.1-0.5l0.9,0v-0.9c0-0.3,0.1-0.6,0.2-0.7c0.1-0.1,0.3-0.2,0.6-0.2h0.6l0.1,0.1v1.8L209,17.3z"/>
	<path fill="#A9D42D" d="M215,22.5c0,0.1-0.1,0.3-0.2,0.4c-0.1,0.1-0.2,0.3-0.3,0.3c-0.5-0.1-0.9-0.3-1.1-0.7
		c-0.5,0.5-1.1,0.8-1.7,0.8c-0.6,0-1.1-0.2-1.4-0.5c-0.3-0.4-0.5-0.8-0.5-1.2c0-0.7,0.2-1.2,0.7-1.5c0.4-0.3,1-0.5,1.7-0.5
		c0.4,0,0.7,0,1,0v-0.4c0-0.6-0.3-0.9-0.9-0.9c-0.4,0-1,0.1-1.8,0.4c-0.2-0.2-0.4-0.6-0.4-1.1c0.9-0.4,1.7-0.5,2.6-0.5
		c0.6,0,1.1,0.2,1.5,0.5s0.6,0.8,0.6,1.5v2.4C214.7,22.1,214.8,22.4,215,22.5z M212,22.2c0.4,0,0.8-0.2,1.2-0.6v-1.1
		c-0.3,0-0.6,0-0.9,0s-0.6,0.1-0.7,0.3s-0.3,0.4-0.3,0.6c0,0.3,0.1,0.5,0.2,0.6C211.6,22.2,211.8,22.2,212,22.2z"/>
	<path fill="#A9D42D" d="M217.8,24.1c0.1-0.3,0.2-0.6,0.3-0.8c-0.7-0.1-1.2-0.4-1.5-1c-0.4-0.6-0.5-1.3-0.5-2.1
		c0-1.1,0.3-1.8,0.8-2.4s1.1-0.8,1.8-0.8c0.7,0,1.2,0.2,1.6,0.6c0.4,0.4,0.6,0.8,0.6,1.3c0,0.5-0.2,0.8-0.7,0.8
		c-0.2,0-0.4,0-0.6-0.1c0,0,0-0.1,0-0.1c0-0.4-0.1-0.7-0.2-1s-0.4-0.4-0.7-0.4c-0.7,0-1,0.7-1,2s0.4,2,1.2,2c0.4,0,0.9-0.2,1.4-0.6
		c0.1,0.1,0.2,0.2,0.4,0.4c0.1,0.2,0.2,0.3,0.2,0.5c-0.5,0.5-1.1,0.8-1.8,0.9c-0.1,0.1-0.1,0.2-0.1,0.3c0.3,0,0.6,0.1,0.8,0.3
		c0.2,0.2,0.3,0.5,0.3,0.8s-0.1,0.6-0.4,0.8c-0.3,0.2-0.6,0.3-1.1,0.3s-0.8-0.1-1-0.3c0-0.3,0.1-0.5,0.3-0.7
		c0.2,0.1,0.4,0.2,0.6,0.2c0.3,0,0.5-0.1,0.5-0.4c0-0.1,0-0.2-0.1-0.3s-0.2-0.1-0.3-0.1s-0.2,0-0.3,0
		C217.9,24.3,217.8,24.2,217.8,24.1z"/>
	<path fill="#A9D42D" d="M226.8,22.5c0,0.1-0.1,0.3-0.2,0.4c-0.1,0.1-0.2,0.3-0.3,0.3c-0.5-0.1-0.9-0.3-1.1-0.7
		c-0.5,0.5-1.1,0.8-1.7,0.8c-0.6,0-1.1-0.2-1.4-0.5c-0.3-0.4-0.5-0.8-0.5-1.2c0-0.7,0.2-1.2,0.7-1.5c0.4-0.3,1-0.5,1.7-0.5
		c0.4,0,0.7,0,1,0v-0.4c0-0.6-0.3-0.9-0.9-0.9c-0.4,0-1,0.1-1.8,0.4c-0.2-0.2-0.4-0.6-0.4-1.1c0.9-0.4,1.7-0.5,2.6-0.5
		c0.6,0,1.1,0.2,1.5,0.5s0.6,0.8,0.6,1.5v2.4C226.4,22.1,226.6,22.4,226.8,22.5z M224.2,16.4l-0.6-0.3c-0.1-0.1-0.3-0.1-0.4-0.1
		s-0.3,0.1-0.4,0.3l-0.1,0.2c-0.1,0-0.3-0.1-0.4-0.1c-0.1-0.1-0.2-0.2-0.3-0.3l0.1-0.2c0.1-0.3,0.3-0.5,0.5-0.7
		c0.2-0.2,0.5-0.3,0.7-0.3s0.5,0.1,0.8,0.2l0.6,0.3c0.1,0.1,0.3,0.1,0.4,0.1s0.3-0.1,0.4-0.3l0.1-0.2c0.1,0,0.3,0.1,0.4,0.1
		c0.1,0.1,0.2,0.2,0.3,0.3l-0.1,0.2c-0.1,0.3-0.3,0.5-0.5,0.7c-0.2,0.2-0.5,0.3-0.7,0.3S224.4,16.5,224.2,16.4z M223.8,22.2
		c0.4,0,0.8-0.2,1.2-0.6v-1.1c-0.3,0-0.6,0-0.9,0s-0.6,0.1-0.7,0.3s-0.3,0.4-0.3,0.6c0,0.3,0.1,0.5,0.2,0.6
		C223.4,22.2,223.6,22.2,223.8,22.2z"/>
	<path fill="#A9D42D" d="M233,20.2c0,1.1-0.3,1.9-0.9,2.5c-0.5,0.5-1.1,0.7-1.8,0.7s-1.3-0.2-1.8-0.7c-0.6-0.6-0.9-1.4-0.9-2.5
		c0-1.1,0.3-1.9,0.9-2.5c0.5-0.5,1.1-0.7,1.8-0.7s1.3,0.2,1.8,0.7C232.8,18.4,233,19.2,233,20.2z M230.4,18.2c-0.8,0-1.1,0.7-1.1,2
		c0,1.3,0.4,2,1.1,2s1.1-0.7,1.1-2C231.5,18.9,231.1,18.2,230.4,18.2z"/>
	<path fill="#FFFFFF" d="M234.2,25.1c-0.2-0.1-0.3-0.3-0.3-0.5c0,0,0-0.1,0-0.1c0.3-0.1,0.5-0.3,0.7-0.5c0.2-0.2,0.3-0.4,0.3-0.7
		c-0.2-0.1-0.4-0.1-0.5-0.2c-0.1-0.1-0.1-0.3-0.1-0.6c0-0.3,0-0.5,0.1-0.6c0.2-0.1,0.4-0.2,0.7-0.2s0.5,0.1,0.7,0.2
		c0.1,0.2,0.1,0.4,0.1,0.8c0,0.5-0.1,1-0.4,1.4S234.8,24.9,234.2,25.1z"/>
	<path fill="#FFFFFF" d="M243.1,17.1c0.7,0,1.2,0.3,1.5,0.8c0.4,0.6,0.5,1.3,0.5,2.3s-0.2,1.7-0.7,2.3s-1,0.8-1.6,0.8
		c-0.5,0-1-0.1-1.4-0.4v2.1c0,0.3,0,0.5-0.1,0.6c-0.1,0.1-0.3,0.2-0.5,0.2h-0.4l-0.1-0.1v-8.4l0.1-0.1h0.4c0.4,0,0.6,0.2,0.7,0.6
		C241.9,17.4,242.4,17.1,243.1,17.1z M242.8,18.1c-0.6,0-1,0.3-1.4,0.8v3c0.4,0.3,0.9,0.5,1.2,0.5s0.7-0.2,0.9-0.6
		c0.2-0.4,0.4-0.9,0.4-1.6s-0.1-1.2-0.3-1.6S243.2,18.1,242.8,18.1z"/>
	<path fill="#FFFFFF" d="M251.2,22.7c-0.1,0.3-0.2,0.5-0.5,0.6c-0.4-0.1-0.7-0.3-0.9-0.8c-0.6,0.6-1.2,0.8-1.8,0.8
		c-0.6,0-1.1-0.2-1.4-0.5c-0.3-0.4-0.5-0.8-0.5-1.2c0-0.7,0.2-1.1,0.6-1.5s1-0.5,1.7-0.5c0.4,0,0.8,0,1.2,0.1v-0.5
		c0-0.7-0.3-1.1-1-1.1c-0.5,0-1.2,0.2-1.9,0.5c-0.2-0.2-0.3-0.5-0.3-0.9c0.8-0.4,1.7-0.6,2.5-0.6c0.6,0,1.1,0.2,1.4,0.5
		c0.3,0.3,0.5,0.8,0.5,1.5v2.5C250.8,22.2,251,22.5,251.2,22.7z M248.2,22.4c0.5,0,1-0.3,1.5-0.8v-1.2c-0.3,0-0.7-0.1-1.1-0.1
		c-0.4,0-0.7,0.1-0.9,0.3c-0.2,0.2-0.3,0.4-0.3,0.7c0,0.3,0.1,0.5,0.2,0.7C247.8,22.4,248,22.4,248.2,22.4z"/>
	<path fill="#FFFFFF" d="M252.4,17.8c0.1-0.3,0.2-0.5,0.4-0.6c0.5,0.1,0.9,0.5,1,1.1c0.3-0.7,0.9-1.1,1.6-1.1c0.2,0,0.4,0,0.6,0.1
		c0,0.4-0.1,0.8-0.3,1.1c0,0-0.2,0-0.5,0c-0.6,0-1,0.3-1.3,0.9v3.9c-0.1,0-0.3,0-0.6,0s-0.4,0-0.6,0v-4.2
		C252.8,18.5,252.7,18.1,252.4,17.8z"/>
	<path fill="#FFFFFF" d="M261.5,22.7c-0.1,0.3-0.2,0.5-0.5,0.6c-0.4-0.1-0.7-0.3-0.9-0.8c-0.6,0.6-1.2,0.8-1.8,0.8
		c-0.6,0-1.1-0.2-1.4-0.5c-0.3-0.4-0.5-0.8-0.5-1.2c0-0.7,0.2-1.1,0.6-1.5s1-0.5,1.7-0.5c0.4,0,0.8,0,1.2,0.1v-0.5
		c0-0.7-0.3-1.1-1-1.1c-0.5,0-1.2,0.2-1.9,0.5c-0.2-0.2-0.3-0.5-0.3-0.9c0.8-0.4,1.7-0.6,2.5-0.6c0.6,0,1.1,0.2,1.4,0.5
		c0.3,0.3,0.5,0.8,0.5,1.5v2.5C261.2,22.2,261.3,22.5,261.5,22.7z M258.6,22.4c0.5,0,1-0.3,1.5-0.8v-1.2c-0.3,0-0.7-0.1-1.1-0.1
		c-0.4,0-0.7,0.1-0.9,0.3c-0.2,0.2-0.3,0.4-0.3,0.7c0,0.3,0.1,0.5,0.2,0.7C258.1,22.4,258.3,22.4,258.6,22.4z"/>
	<path fill="#FFFFFF" d="M3.9,39.5v-2.4c-0.5,0.4-1,0.7-1.7,0.7s-1.1-0.3-1.5-0.8c-0.4-0.5-0.5-1.3-0.5-2.3s0.2-1.7,0.7-2.3
		c0.5-0.5,1-0.8,1.6-0.8s1.2,0.2,1.6,0.6c0.2-0.3,0.4-0.5,0.8-0.5c0.2,0.1,0.4,0.3,0.5,0.6C5.1,32.4,5,32.8,5,33.4v6.7l-0.1,0.1H4.5
		c-0.2,0-0.4-0.1-0.5-0.2C3.9,39.9,3.9,39.7,3.9,39.5z M2.5,36.7c0.5,0,1-0.2,1.4-0.7v-3c-0.4-0.4-0.8-0.5-1.2-0.5
		c-0.4,0-0.7,0.2-0.9,0.6S1.3,34,1.3,34.7s0.1,1.2,0.3,1.6C1.9,36.6,2.1,36.7,2.5,36.7z"/>
	<path fill="#FFFFFF" d="M6.9,35.8v-2.8c0-0.5-0.1-0.8-0.2-1.1c0.2-0.2,0.4-0.2,0.7-0.2c0.3,0,0.4,0.1,0.5,0.2C8,31.9,8,32.1,8,32.4
		v3.1c0,0.4,0.1,0.7,0.2,0.9c0.1,0.2,0.3,0.3,0.6,0.3c0.3,0,0.6-0.1,0.8-0.2c0.3-0.1,0.5-0.3,0.8-0.6v-4.2c0.2,0,0.4,0,0.6,0
		s0.4,0,0.6,0V36c0,0.6,0.1,1,0.3,1.2c-0.1,0.3-0.2,0.5-0.4,0.6c-0.5-0.1-0.8-0.4-0.9-0.9c-0.6,0.6-1.3,0.9-2,0.9
		c-0.5,0-0.9-0.2-1.2-0.5C7,36.8,6.9,36.4,6.9,35.8z"/>
	<path fill="#FFFFFF" d="M17.8,35h-3.6c0,0.6,0.1,1,0.4,1.3c0.2,0.3,0.6,0.5,1.1,0.5s1.1-0.2,1.7-0.5c0.2,0.2,0.3,0.4,0.4,0.8
		c-0.6,0.4-1.4,0.7-2.3,0.7c-0.9,0-1.5-0.3-1.9-0.9s-0.6-1.3-0.6-2.3s0.2-1.7,0.6-2.3c0.4-0.6,1-0.9,1.8-0.9c0.8,0,1.4,0.2,1.8,0.7
		c0.4,0.5,0.6,1.1,0.6,1.8C17.9,34.4,17.9,34.7,17.8,35z M16.5,32.9c-0.2-0.3-0.5-0.5-0.9-0.5s-0.7,0.2-0.9,0.5
		c-0.2,0.3-0.3,0.7-0.4,1.3h2.5V34C16.8,33.5,16.7,33.2,16.5,32.9z"/>
	<path fill="#FFFFFF" d="M24.9,31.5c0.7,0,1.2,0.3,1.5,0.8c0.4,0.6,0.5,1.3,0.5,2.3s-0.2,1.7-0.7,2.3s-1,0.8-1.6,0.8
		c-0.5,0-1-0.1-1.4-0.4v2.1c0,0.3,0,0.5-0.1,0.6c-0.1,0.1-0.3,0.2-0.5,0.2h-0.4l-0.1-0.1v-8.4l0.1-0.1h0.4c0.4,0,0.6,0.2,0.7,0.6
		C23.7,31.8,24.3,31.5,24.9,31.5z M24.7,32.5c-0.6,0-1,0.3-1.4,0.8v3c0.4,0.3,0.9,0.5,1.2,0.5s0.7-0.2,0.9-0.6
		c0.2-0.4,0.4-0.9,0.4-1.6s-0.1-1.2-0.3-1.6S25,32.5,24.7,32.5z"/>
	<path fill="#FFFFFF" d="M32.4,32.2c0.6,0.6,0.8,1.4,0.8,2.5s-0.3,1.9-0.8,2.5c-0.4,0.4-1,0.7-1.7,0.7s-1.3-0.2-1.7-0.7
		c-0.6-0.6-0.8-1.4-0.8-2.5s0.3-1.9,0.8-2.5c0.4-0.4,1-0.7,1.7-0.7S31.9,31.8,32.4,32.2z M29.3,34.7c0,1.5,0.5,2.2,1.4,2.2
		s1.4-0.7,1.4-2.2c0-0.4,0-0.8-0.1-1.1c-0.1-0.3-0.2-0.6-0.4-0.8c-0.2-0.2-0.5-0.3-0.8-0.3s-0.6,0.1-0.8,0.3
		c-0.2,0.2-0.4,0.5-0.4,0.8C29.3,33.9,29.3,34.3,29.3,34.7z"/>
	<path fill="#FFFFFF" d="M37.5,31.7c0,0.1,0,0.3,0,0.4s0,0.3,0,0.4l-1.5,0v3.7c0,0.3,0.2,0.5,0.5,0.5h0.8c0.1,0.2,0.1,0.3,0.1,0.5
		s0,0.3,0,0.3c-0.5,0.1-0.9,0.1-1.3,0.1c-0.8,0-1.2-0.4-1.2-1.2v-3.9l-0.9,0c0-0.1,0-0.3,0-0.4s0-0.3,0-0.4l0.9,0v-1.1
		c0-0.3,0-0.5,0.1-0.6c0.1-0.1,0.3-0.2,0.5-0.2h0.4l0.1,0.1v1.8L37.5,31.7z"/>
	<path fill="#FFFFFF" d="M43.1,35h-3.6c0,0.6,0.1,1,0.4,1.3c0.2,0.3,0.6,0.5,1.1,0.5s1.1-0.2,1.7-0.5c0.2,0.2,0.3,0.4,0.4,0.8
		c-0.6,0.4-1.4,0.7-2.3,0.7c-0.9,0-1.5-0.3-1.9-0.9s-0.6-1.3-0.6-2.3s0.2-1.7,0.6-2.3c0.4-0.6,1-0.9,1.8-0.9c0.8,0,1.4,0.2,1.8,0.7
		c0.4,0.5,0.6,1.1,0.6,1.8C43.2,34.4,43.2,34.7,43.1,35z M41.8,32.9c-0.2-0.3-0.5-0.5-0.9-0.5s-0.7,0.2-0.9,0.5
		c-0.2,0.3-0.3,0.7-0.4,1.3h2.5V34C42.1,33.5,42,33.2,41.8,32.9z"/>
	<path fill="#FFFFFF" d="M49.5,33.5v2.8c0,0.5,0.1,0.8,0.2,1.1c-0.2,0.2-0.4,0.3-0.7,0.3c-0.4,0-0.6-0.2-0.6-0.7v-3.1
		c0-0.4-0.1-0.7-0.2-0.9c-0.1-0.2-0.3-0.3-0.6-0.3c-0.3,0-0.6,0.1-0.9,0.2c-0.3,0.1-0.5,0.3-0.8,0.6v4.2c-0.1,0-0.3,0-0.6,0
		s-0.4,0-0.6,0v-5.9l0.1-0.1h0.4c0.4,0,0.6,0.3,0.6,0.8c0.6-0.5,1.2-0.8,1.9-0.8c0.5,0,0.9,0.2,1.2,0.5C49.3,32.5,49.5,33,49.5,33.5
		z"/>
	<path fill="#FFFFFF" d="M54.5,33.9c0,0,0-0.1,0-0.1c0-0.9-0.4-1.4-1.1-1.4c-0.4,0-0.7,0.2-0.9,0.6c-0.2,0.4-0.3,0.9-0.3,1.7
		c0,1.4,0.5,2.1,1.4,2.1c0.4,0,0.9-0.2,1.5-0.6c0.1,0.1,0.2,0.2,0.3,0.3c0.1,0.1,0.2,0.3,0.2,0.4c-0.6,0.6-1.3,0.9-2.1,0.9
		s-1.4-0.3-1.8-0.9c-0.4-0.6-0.6-1.4-0.6-2.3s0.2-1.7,0.7-2.2c0.5-0.5,1.1-0.8,1.8-0.8c0.7,0,1.2,0.2,1.6,0.6s0.6,0.8,0.6,1.2
		S55.4,34,55,34C54.8,34,54.6,34,54.5,33.9z"/>
	<path fill="#FFFFFF" d="M58.4,32.7v4.9c-0.1,0-0.3,0-0.6,0c-0.2,0-0.4,0-0.6,0v-4.5c0-0.2,0-0.4-0.1-0.5s-0.2-0.1-0.4-0.1h-0.1
		c0-0.1,0-0.3,0-0.4c0-0.2,0-0.3,0-0.4c0.3,0,0.5,0,0.7,0h0.2c0.3,0,0.5,0.1,0.7,0.3C58.3,32.1,58.4,32.4,58.4,32.7z M56.9,30.1
		c0-0.2,0-0.4,0.1-0.5c0.2-0.1,0.4-0.1,0.7-0.1c0.3,0,0.5,0,0.6,0.1c0.1,0.1,0.1,0.3,0.1,0.5c0,0.2,0,0.4-0.1,0.5
		c-0.1,0.1-0.3,0.1-0.6,0.1c-0.3,0-0.5,0-0.6-0.1C56.9,30.4,56.9,30.3,56.9,30.1z"/>
	<path fill="#FFFFFF" d="M64.9,37.1c-0.1,0.3-0.2,0.5-0.5,0.6c-0.4-0.1-0.7-0.3-0.9-0.8c-0.6,0.6-1.2,0.8-1.8,0.8
		c-0.6,0-1.1-0.2-1.4-0.5c-0.3-0.4-0.5-0.8-0.5-1.2c0-0.7,0.2-1.1,0.6-1.5s1-0.5,1.7-0.5c0.4,0,0.8,0,1.2,0.1v-0.5
		c0-0.7-0.3-1.1-1-1.1c-0.5,0-1.2,0.2-1.9,0.5c-0.2-0.2-0.3-0.5-0.3-0.9c0.8-0.4,1.7-0.6,2.5-0.6c0.6,0,1.1,0.2,1.4,0.5
		c0.3,0.3,0.5,0.8,0.5,1.5V36C64.5,36.6,64.6,36.9,64.9,37.1z M61.9,36.8c0.5,0,1-0.3,1.5-0.8v-1.2c-0.3,0-0.7-0.1-1.1-0.1
		c-0.4,0-0.7,0.1-0.9,0.3c-0.2,0.2-0.3,0.4-0.3,0.7c0,0.3,0.1,0.5,0.2,0.7C61.4,36.8,61.6,36.8,61.9,36.8z"/>
	<path fill="#FFFFFF" d="M68,36.7h0.5c0.1,0.2,0.1,0.3,0.1,0.5c0,0.1,0,0.3,0,0.4c-0.3,0.1-0.7,0.1-1,0.1c-0.8,0-1.1-0.4-1.1-1.2
		v-7.6l0.1-0.1h0.4c0.2,0,0.4,0.1,0.5,0.2c0.1,0.1,0.1,0.3,0.1,0.6v6.7C67.5,36.6,67.7,36.7,68,36.7z"/>
	<path fill="#FFFFFF" d="M71.2,32.7v4.9c-0.1,0-0.3,0-0.6,0c-0.2,0-0.4,0-0.6,0v-4.5c0-0.2,0-0.4-0.1-0.5s-0.2-0.1-0.4-0.1h-0.1
		c0-0.1,0-0.3,0-0.4c0-0.2,0-0.3,0-0.4c0.3,0,0.5,0,0.7,0h0.2c0.3,0,0.5,0.1,0.7,0.3C71.1,32.1,71.2,32.4,71.2,32.7z M69.7,30.1
		c0-0.2,0-0.4,0.1-0.5c0.2-0.1,0.4-0.1,0.7-0.1c0.3,0,0.5,0,0.6,0.1c0.1,0.1,0.1,0.3,0.1,0.5c0,0.2,0,0.4-0.1,0.5
		c-0.1,0.1-0.3,0.1-0.6,0.1c-0.3,0-0.5,0-0.6-0.1C69.7,30.4,69.7,30.3,69.7,30.1z"/>
	<path fill="#FFFFFF" d="M72.8,36.5l2-2.8c0.3-0.4,0.6-0.8,0.9-1.2l0,0c-0.4,0-1,0.1-1.6,0.1h-1.3c0-0.1,0-0.3,0-0.4
		c0-0.1,0-0.3,0.1-0.5h4c0.1,0.3,0.2,0.6,0.2,0.7s-0.1,0.3-0.2,0.4l-2,2.7c0,0.1-0.4,0.5-0.9,1.2l0,0c0.4,0,0.7,0,1.1,0h0.6
		c0.6,0,1.1-0.1,1.3-0.2c0.1,0.2,0.1,0.3,0.1,0.5c0,0.4-0.3,0.6-0.8,0.6h-3.6c-0.1-0.3-0.2-0.6-0.2-0.7S72.6,36.7,72.8,36.5z"/>
	<path fill="#FFFFFF" d="M82.8,35h-3.6c0,0.6,0.1,1,0.4,1.3c0.2,0.3,0.6,0.5,1.1,0.5s1.1-0.2,1.7-0.5c0.2,0.2,0.3,0.4,0.4,0.8
		c-0.6,0.4-1.4,0.7-2.3,0.7c-0.9,0-1.5-0.3-1.9-0.9S78,35.6,78,34.7s0.2-1.7,0.6-2.3c0.4-0.6,1-0.9,1.8-0.9c0.8,0,1.4,0.2,1.8,0.7
		c0.4,0.5,0.6,1.1,0.6,1.8C82.9,34.4,82.9,34.7,82.8,35z M81.5,32.9c-0.2-0.3-0.5-0.5-0.9-0.5s-0.7,0.2-0.9,0.5
		c-0.2,0.3-0.3,0.7-0.4,1.3h2.5V34C81.8,33.5,81.7,33.2,81.5,32.9z"/>
	<path fill="#FFFFFF" d="M91.6,37.1c-0.1,0.3-0.2,0.5-0.5,0.6c-0.4-0.1-0.7-0.3-0.9-0.8c-0.6,0.6-1.2,0.8-1.8,0.8
		c-0.6,0-1.1-0.2-1.4-0.5c-0.3-0.4-0.5-0.8-0.5-1.2c0-0.7,0.2-1.1,0.6-1.5s1-0.5,1.7-0.5c0.4,0,0.8,0,1.2,0.1v-0.5
		c0-0.7-0.3-1.1-1-1.1c-0.5,0-1.2,0.2-1.9,0.5c-0.2-0.2-0.3-0.5-0.3-0.9c0.8-0.4,1.7-0.6,2.5-0.6c0.6,0,1.1,0.2,1.4,0.5
		c0.3,0.3,0.5,0.8,0.5,1.5V36C91.3,36.6,91.4,36.9,91.6,37.1z M88.7,36.8c0.5,0,1-0.3,1.5-0.8v-1.2c-0.3,0-0.7-0.1-1.1-0.1
		c-0.4,0-0.7,0.1-0.9,0.3c-0.2,0.2-0.3,0.4-0.3,0.7c0,0.3,0.1,0.5,0.2,0.7C88.2,36.8,88.4,36.8,88.7,36.8z"/>
	<path fill="#FFFFFF" d="M92.6,37.2c0-0.1,0-0.3,0.1-0.4s0.2-0.3,0.3-0.4c0.7,0.4,1.2,0.5,1.6,0.5c0.4,0,0.7-0.1,0.9-0.2
		c0.2-0.1,0.3-0.3,0.3-0.6c0-0.4-0.3-0.7-0.8-0.9L94.4,35c-1-0.4-1.5-0.9-1.5-1.7c0-0.5,0.2-1,0.6-1.3c0.4-0.3,0.9-0.5,1.6-0.5
		s1.3,0.1,1.9,0.4c0,0.2,0,0.3-0.1,0.5s-0.2,0.3-0.3,0.4c-0.6-0.3-1.1-0.4-1.6-0.4c-0.3,0-0.5,0.1-0.7,0.2c-0.2,0.1-0.3,0.3-0.3,0.5
		c0,0.2,0.1,0.4,0.2,0.5s0.3,0.2,0.6,0.3l0.7,0.3c1,0.4,1.5,1,1.5,1.8c0,0.5-0.2,1-0.6,1.3c-0.4,0.3-1,0.5-1.7,0.5
		S93.3,37.6,92.6,37.2z"/>
	<path fill="#FFFFFF" d="M100.5,37.2c0-0.1,0-0.3,0.1-0.4s0.2-0.3,0.3-0.4c0.7,0.4,1.2,0.5,1.6,0.5c0.4,0,0.7-0.1,0.9-0.2
		c0.2-0.1,0.3-0.3,0.3-0.6c0-0.4-0.3-0.7-0.8-0.9l-0.7-0.3c-1-0.4-1.5-0.9-1.5-1.7c0-0.5,0.2-1,0.6-1.3c0.4-0.3,0.9-0.5,1.6-0.5
		s1.3,0.1,1.9,0.4c0,0.2,0,0.3-0.1,0.5s-0.2,0.3-0.3,0.4c-0.6-0.3-1.1-0.4-1.6-0.4c-0.3,0-0.5,0.1-0.7,0.2c-0.2,0.1-0.3,0.3-0.3,0.5
		c0,0.2,0.1,0.4,0.2,0.5s0.3,0.2,0.6,0.3l0.7,0.3c1,0.4,1.5,1,1.5,1.8c0,0.5-0.2,1-0.6,1.3c-0.4,0.3-1,0.5-1.7,0.5
		S101.2,37.6,100.5,37.2z"/>
	<path fill="#FFFFFF" d="M106.3,35.8v-2.8c0-0.5-0.1-0.8-0.2-1.1c0.2-0.2,0.4-0.2,0.7-0.2c0.3,0,0.4,0.1,0.5,0.2
		c0.1,0.1,0.1,0.3,0.1,0.6v3.1c0,0.4,0.1,0.7,0.2,0.9c0.1,0.2,0.3,0.3,0.6,0.3c0.3,0,0.6-0.1,0.8-0.2c0.3-0.1,0.5-0.3,0.8-0.6v-4.2
		c0.2,0,0.4,0,0.6,0s0.4,0,0.6,0V36c0,0.6,0.1,1,0.3,1.2c-0.1,0.3-0.2,0.5-0.4,0.6c-0.5-0.1-0.8-0.4-0.9-0.9c-0.6,0.6-1.3,0.9-2,0.9
		c-0.5,0-0.9-0.2-1.2-0.5C106.4,36.8,106.3,36.4,106.3,35.8z"/>
	<path fill="#FFFFFF" d="M117.4,37.1c-0.1,0.3-0.2,0.5-0.5,0.6c-0.4-0.1-0.7-0.3-0.9-0.8c-0.6,0.6-1.2,0.8-1.8,0.8
		c-0.6,0-1.1-0.2-1.4-0.5c-0.3-0.4-0.5-0.8-0.5-1.2c0-0.7,0.2-1.1,0.6-1.5s1-0.5,1.7-0.5c0.4,0,0.8,0,1.2,0.1v-0.5
		c0-0.7-0.3-1.1-1-1.1c-0.5,0-1.2,0.2-1.9,0.5c-0.2-0.2-0.3-0.5-0.3-0.9c0.8-0.4,1.7-0.6,2.5-0.6c0.6,0,1.1,0.2,1.4,0.5
		c0.3,0.3,0.5,0.8,0.5,1.5V36C117.1,36.6,117.2,36.9,117.4,37.1z M114.5,36.8c0.5,0,1-0.3,1.5-0.8v-1.2c-0.3,0-0.7-0.1-1.1-0.1
		c-0.4,0-0.7,0.1-0.9,0.3c-0.2,0.2-0.3,0.4-0.3,0.7c0,0.3,0.1,0.5,0.2,0.7C114,36.8,114.2,36.8,114.5,36.8z"/>
	<path fill="#FFFFFF" d="M118.4,37.2c0-0.1,0-0.3,0.1-0.4s0.2-0.3,0.3-0.4c0.7,0.4,1.2,0.5,1.6,0.5c0.4,0,0.7-0.1,0.9-0.2
		c0.2-0.1,0.3-0.3,0.3-0.6c0-0.4-0.3-0.7-0.8-0.9l-0.7-0.3c-1-0.4-1.5-0.9-1.5-1.7c0-0.5,0.2-1,0.6-1.3c0.4-0.3,0.9-0.5,1.6-0.5
		s1.3,0.1,1.9,0.4c0,0.2,0,0.3-0.1,0.5s-0.2,0.3-0.3,0.4c-0.6-0.3-1.1-0.4-1.6-0.4c-0.3,0-0.5,0.1-0.7,0.2c-0.2,0.1-0.3,0.3-0.3,0.5
		c0,0.2,0.1,0.4,0.2,0.5s0.3,0.2,0.6,0.3l0.7,0.3c1,0.4,1.5,1,1.5,1.8c0,0.5-0.2,1-0.6,1.3c-0.4,0.3-1,0.5-1.7,0.5
		S119,37.6,118.4,37.2z"/>
	<path fill="#FFFFFF" d="M131.4,37.1c-0.1,0.3-0.2,0.5-0.5,0.6c-0.4-0.1-0.7-0.3-0.9-0.8c-0.6,0.6-1.2,0.8-1.8,0.8
		c-0.6,0-1.1-0.2-1.4-0.5c-0.3-0.4-0.5-0.8-0.5-1.2c0-0.7,0.2-1.1,0.6-1.5s1-0.5,1.7-0.5c0.4,0,0.8,0,1.2,0.1v-0.5
		c0-0.7-0.3-1.1-1-1.1c-0.5,0-1.2,0.2-1.9,0.5c-0.2-0.2-0.3-0.5-0.3-0.9c0.8-0.4,1.7-0.6,2.5-0.6c0.6,0,1.1,0.2,1.4,0.5
		c0.3,0.3,0.5,0.8,0.5,1.5V36C131,36.6,131.1,36.9,131.4,37.1z M128.4,36.8c0.5,0,1-0.3,1.5-0.8v-1.2c-0.3,0-0.7-0.1-1.1-0.1
		c-0.4,0-0.7,0.1-0.9,0.3c-0.2,0.2-0.3,0.4-0.3,0.7c0,0.3,0.1,0.5,0.2,0.7C127.9,36.8,128.1,36.8,128.4,36.8z"/>
	<path fill="#FFFFFF" d="M135.6,31.7c0,0.1,0,0.3,0,0.4s0,0.3,0,0.4l-1.5,0v3.7c0,0.3,0.2,0.5,0.5,0.5h0.8c0.1,0.2,0.1,0.3,0.1,0.5
		s0,0.3,0,0.3c-0.5,0.1-0.9,0.1-1.3,0.1c-0.8,0-1.2-0.4-1.2-1.2v-3.9l-0.9,0c0-0.1,0-0.3,0-0.4s0-0.3,0-0.4l0.9,0v-1.1
		c0-0.3,0-0.5,0.1-0.6c0.1-0.1,0.3-0.2,0.5-0.2h0.4l0.1,0.1v1.8L135.6,31.7z"/>
	<path fill="#FFFFFF" d="M138.4,32.7v4.9c-0.1,0-0.3,0-0.6,0c-0.2,0-0.4,0-0.6,0v-4.5c0-0.2,0-0.4-0.1-0.5s-0.2-0.1-0.4-0.1h-0.1
		c0-0.1,0-0.3,0-0.4c0-0.2,0-0.3,0-0.4c0.3,0,0.5,0,0.7,0h0.2c0.3,0,0.5,0.1,0.7,0.3C138.3,32.1,138.4,32.4,138.4,32.7z M136.9,30.1
		c0-0.2,0-0.4,0.1-0.5c0.2-0.1,0.4-0.1,0.7-0.1c0.3,0,0.5,0,0.6,0.1c0.1,0.1,0.1,0.3,0.1,0.5c0,0.2,0,0.4-0.1,0.5
		c-0.1,0.1-0.3,0.1-0.6,0.1c-0.3,0-0.5,0-0.6-0.1C136.9,30.4,136.9,30.3,136.9,30.1z"/>
	<path fill="#FFFFFF" d="M142.1,36.7l1.5-5c0.1,0,0.3,0,0.5,0s0.4,0,0.6,0.1l0,0c-0.8,2.6-1.4,4.5-1.9,5.8c-0.2,0-0.5,0.1-0.8,0.1
		s-0.5,0-0.6-0.1s-0.2-0.3-0.3-0.5l-1.7-5.2c0.2-0.1,0.5-0.2,0.7-0.2c0.3,0,0.5,0.2,0.6,0.5l0.8,2.7c0.2,0.6,0.3,1.2,0.5,1.8
		C142,36.6,142,36.7,142.1,36.7z"/>
	<path fill="#FFFFFF" d="M147,32.7v4.9c-0.1,0-0.3,0-0.6,0c-0.2,0-0.4,0-0.6,0v-4.5c0-0.2,0-0.4-0.1-0.5s-0.2-0.1-0.4-0.1h-0.1
		c0-0.1,0-0.3,0-0.4c0-0.2,0-0.3,0-0.4c0.3,0,0.5,0,0.7,0h0.2c0.3,0,0.5,0.1,0.7,0.3C147,32.1,147,32.4,147,32.7z M145.5,30.1
		c0-0.2,0-0.4,0.1-0.5c0.2-0.1,0.4-0.1,0.7-0.1c0.3,0,0.5,0,0.6,0.1c0.1,0.1,0.1,0.3,0.1,0.5c0,0.2,0,0.4-0.1,0.5
		c-0.1,0.1-0.3,0.1-0.6,0.1c-0.3,0-0.5,0-0.6-0.1C145.5,30.4,145.5,30.3,145.5,30.1z"/>
	<path fill="#FFFFFF" d="M150.6,37.8c-0.7,0-1.2-0.3-1.5-0.8c-0.4-0.6-0.5-1.3-0.5-2.3c0-1,0.2-1.7,0.7-2.3c0.5-0.5,1-0.8,1.6-0.8
		c0.4,0,0.9,0.1,1.4,0.4v-3.1l0.1-0.1h0.4c0.2,0,0.4,0.1,0.5,0.2c0.1,0.1,0.1,0.3,0.1,0.6v6.4c0,0.6,0.1,1,0.3,1.2
		c-0.1,0.3-0.2,0.5-0.5,0.6c-0.4-0.1-0.7-0.3-0.9-0.8C151.9,37.5,151.3,37.8,150.6,37.8z M150.8,36.8c0.5,0,1-0.3,1.4-0.8v-3
		c-0.4-0.3-0.9-0.5-1.2-0.5s-0.7,0.2-0.9,0.6c-0.2,0.4-0.4,0.9-0.4,1.6c0,0.7,0.1,1.2,0.3,1.6S150.5,36.8,150.8,36.8z"/>
	<path fill="#FFFFFF" d="M159.8,37.1c-0.1,0.3-0.2,0.5-0.5,0.6c-0.4-0.1-0.7-0.3-0.9-0.8c-0.6,0.6-1.2,0.8-1.8,0.8
		c-0.6,0-1.1-0.2-1.4-0.5c-0.3-0.4-0.5-0.8-0.5-1.2c0-0.7,0.2-1.1,0.6-1.5s1-0.5,1.7-0.5c0.4,0,0.8,0,1.2,0.1v-0.5
		c0-0.7-0.3-1.1-1-1.1c-0.5,0-1.2,0.2-1.9,0.5c-0.2-0.2-0.3-0.5-0.3-0.9c0.8-0.4,1.7-0.6,2.5-0.6c0.6,0,1.1,0.2,1.4,0.5
		c0.3,0.3,0.5,0.8,0.5,1.5V36C159.5,36.6,159.6,36.9,159.8,37.1z M156.9,36.8c0.5,0,1-0.3,1.5-0.8v-1.2c-0.3,0-0.7-0.1-1.1-0.1
		c-0.4,0-0.7,0.1-0.9,0.3c-0.2,0.2-0.3,0.4-0.3,0.7c0,0.3,0.1,0.5,0.2,0.7C156.4,36.8,156.6,36.8,156.9,36.8z"/>
	<path fill="#FFFFFF" d="M162.9,37.8c-0.7,0-1.2-0.3-1.5-0.8c-0.4-0.6-0.5-1.3-0.5-2.3c0-1,0.2-1.7,0.7-2.3c0.5-0.5,1-0.8,1.6-0.8
		c0.4,0,0.9,0.1,1.4,0.4v-3.1l0.1-0.1h0.4c0.2,0,0.4,0.1,0.5,0.2c0.1,0.1,0.1,0.3,0.1,0.6v6.4c0,0.6,0.1,1,0.3,1.2
		c-0.1,0.3-0.2,0.5-0.5,0.6c-0.4-0.1-0.7-0.3-0.9-0.8C164.2,37.5,163.6,37.8,162.9,37.8z M163.2,36.8c0.5,0,1-0.3,1.4-0.8v-3
		c-0.4-0.3-0.9-0.5-1.2-0.5s-0.7,0.2-0.9,0.6c-0.2,0.4-0.4,0.9-0.4,1.6c0,0.7,0.1,1.2,0.3,1.6S162.8,36.8,163.2,36.8z"/>
	<path fill="#FFFFFF" d="M172,35h-3.6c0,0.6,0.1,1,0.4,1.3c0.2,0.3,0.6,0.5,1.1,0.5s1.1-0.2,1.7-0.5c0.2,0.2,0.3,0.4,0.4,0.8
		c-0.6,0.4-1.4,0.7-2.3,0.7c-0.9,0-1.5-0.3-1.9-0.9s-0.6-1.3-0.6-2.3s0.2-1.7,0.6-2.3c0.4-0.6,1-0.9,1.8-0.9c0.8,0,1.4,0.2,1.8,0.7
		c0.4,0.5,0.6,1.1,0.6,1.8C172,34.4,172,34.7,172,35z M170.6,32.9c-0.2-0.3-0.5-0.5-0.9-0.5s-0.7,0.2-0.9,0.5
		c-0.2,0.3-0.3,0.7-0.4,1.3h2.5V34C170.9,33.5,170.8,33.2,170.6,32.9z"/>
	<path fill="#FFFFFF" d="M173,37.2c0-0.1,0-0.3,0.1-0.4s0.2-0.3,0.3-0.4c0.7,0.4,1.2,0.5,1.6,0.5c0.4,0,0.7-0.1,0.9-0.2
		c0.2-0.1,0.3-0.3,0.3-0.6c0-0.4-0.3-0.7-0.8-0.9l-0.7-0.3c-1-0.4-1.5-0.9-1.5-1.7c0-0.5,0.2-1,0.6-1.3c0.4-0.3,0.9-0.5,1.6-0.5
		s1.3,0.1,1.9,0.4c0,0.2,0,0.3-0.1,0.5s-0.2,0.3-0.3,0.4c-0.6-0.3-1.1-0.4-1.6-0.4c-0.3,0-0.5,0.1-0.7,0.2c-0.2,0.1-0.3,0.3-0.3,0.5
		c0,0.2,0.1,0.4,0.2,0.5s0.3,0.2,0.6,0.3l0.7,0.3c1,0.4,1.5,1,1.5,1.8c0,0.5-0.2,1-0.6,1.3c-0.4,0.3-1,0.5-1.7,0.5
		S173.7,37.6,173,37.2z"/>
	<path fill="#FFFFFF" d="M183.2,37.8c-0.7,0-1.2-0.3-1.5-0.8c-0.4-0.6-0.5-1.3-0.5-2.3c0-1,0.2-1.7,0.7-2.3c0.5-0.5,1-0.8,1.6-0.8
		c0.4,0,0.9,0.1,1.4,0.4v-3.1l0.1-0.1h0.4c0.2,0,0.4,0.1,0.5,0.2c0.1,0.1,0.1,0.3,0.1,0.6v6.4c0,0.6,0.1,1,0.3,1.2
		c-0.1,0.3-0.2,0.5-0.5,0.6c-0.4-0.1-0.7-0.3-0.9-0.8C184.4,37.5,183.8,37.8,183.2,37.8z M183.4,36.8c0.5,0,1-0.3,1.4-0.8v-3
		c-0.4-0.3-0.9-0.5-1.2-0.5s-0.7,0.2-0.9,0.6c-0.2,0.4-0.4,0.9-0.4,1.6c0,0.7,0.1,1.2,0.3,1.6S183.1,36.8,183.4,36.8z"/>
	<path fill="#FFFFFF" d="M189.1,32.7v4.9c-0.1,0-0.3,0-0.6,0c-0.2,0-0.4,0-0.6,0v-4.5c0-0.2,0-0.4-0.1-0.5s-0.2-0.1-0.4-0.1h-0.1
		c0-0.1,0-0.3,0-0.4c0-0.2,0-0.3,0-0.4c0.3,0,0.5,0,0.7,0h0.2c0.3,0,0.5,0.1,0.7,0.3C189,32.1,189.1,32.4,189.1,32.7z M187.6,30.1
		c0-0.2,0-0.4,0.1-0.5c0.2-0.1,0.4-0.1,0.7-0.1c0.3,0,0.5,0,0.6,0.1c0.1,0.1,0.1,0.3,0.1,0.5c0,0.2,0,0.4-0.1,0.5
		c-0.1,0.1-0.3,0.1-0.6,0.1c-0.3,0-0.5,0-0.6-0.1C187.6,30.4,187.6,30.3,187.6,30.1z"/>
	<path fill="#FFFFFF" d="M195.5,37.1c-0.1,0.3-0.2,0.5-0.5,0.6c-0.4-0.1-0.7-0.3-0.9-0.8c-0.6,0.6-1.2,0.8-1.8,0.8
		c-0.6,0-1.1-0.2-1.4-0.5c-0.3-0.4-0.5-0.8-0.5-1.2c0-0.7,0.2-1.1,0.6-1.5s1-0.5,1.7-0.5c0.4,0,0.8,0,1.2,0.1v-0.5
		c0-0.7-0.3-1.1-1-1.1c-0.5,0-1.2,0.2-1.9,0.5c-0.2-0.2-0.3-0.5-0.3-0.9c0.8-0.4,1.7-0.6,2.5-0.6c0.6,0,1.1,0.2,1.4,0.5
		c0.3,0.3,0.5,0.8,0.5,1.5V36C195.2,36.6,195.3,36.9,195.5,37.1z M192.6,36.8c0.5,0,1-0.3,1.5-0.8v-1.2c-0.3,0-0.7-0.1-1.1-0.1
		c-0.4,0-0.7,0.1-0.9,0.3c-0.2,0.2-0.3,0.4-0.3,0.7c0,0.3,0.1,0.5,0.2,0.7C192.1,36.8,192.3,36.8,192.6,36.8z M192.1,30.7l1.7-1.9
		c0.2,0.1,0.3,0.2,0.5,0.3c0.2,0.1,0.3,0.3,0.3,0.5l-2,1.6C192.4,31.1,192.2,30.9,192.1,30.7z"/>
	<path fill="#FFFFFF" d="M196.8,32.2c0.1-0.3,0.2-0.5,0.4-0.6c0.5,0.1,0.9,0.5,1,1.1c0.3-0.7,0.9-1.1,1.6-1.1c0.2,0,0.4,0,0.6,0.1
		c0,0.4-0.1,0.8-0.3,1.1c0,0-0.2,0-0.5,0c-0.6,0-1,0.3-1.3,0.9v3.9c-0.1,0-0.3,0-0.6,0s-0.4,0-0.6,0v-4.2
		C197.2,32.9,197,32.5,196.8,32.2z"/>
	<path fill="#FFFFFF" d="M203,32.7v4.9c-0.1,0-0.3,0-0.6,0c-0.2,0-0.4,0-0.6,0v-4.5c0-0.2,0-0.4-0.1-0.5s-0.2-0.1-0.4-0.1h-0.1
		c0-0.1,0-0.3,0-0.4c0-0.2,0-0.3,0-0.4c0.3,0,0.5,0,0.7,0h0.2c0.3,0,0.5,0.1,0.7,0.3C202.9,32.1,203,32.4,203,32.7z M201.5,30.1
		c0-0.2,0-0.4,0.1-0.5c0.2-0.1,0.4-0.1,0.7-0.1c0.3,0,0.5,0,0.6,0.1c0.1,0.1,0.1,0.3,0.1,0.5c0,0.2,0,0.4-0.1,0.5
		c-0.1,0.1-0.3,0.1-0.6,0.1c-0.3,0-0.5,0-0.6-0.1C201.5,30.4,201.5,30.3,201.5,30.1z"/>
	<path fill="#FFFFFF" d="M209.4,37.1c-0.1,0.3-0.2,0.5-0.5,0.6c-0.4-0.1-0.7-0.3-0.9-0.8c-0.6,0.6-1.2,0.8-1.8,0.8
		c-0.6,0-1.1-0.2-1.4-0.5c-0.3-0.4-0.5-0.8-0.5-1.2c0-0.7,0.2-1.1,0.6-1.5s1-0.5,1.7-0.5c0.4,0,0.8,0,1.2,0.1v-0.5
		c0-0.7-0.3-1.1-1-1.1c-0.5,0-1.2,0.2-1.9,0.5c-0.2-0.2-0.3-0.5-0.3-0.9c0.8-0.4,1.7-0.6,2.5-0.6c0.6,0,1.1,0.2,1.4,0.5
		c0.3,0.3,0.5,0.8,0.5,1.5V36C209.1,36.6,209.2,36.9,209.4,37.1z M206.5,36.8c0.5,0,1-0.3,1.5-0.8v-1.2c-0.3,0-0.7-0.1-1.1-0.1
		c-0.4,0-0.7,0.1-0.9,0.3c-0.2,0.2-0.3,0.4-0.3,0.7c0,0.3,0.1,0.5,0.2,0.7C206,36.8,206.2,36.8,206.5,36.8z"/>
	<path fill="#FFFFFF" d="M210.4,37.2c0-0.1,0-0.3,0.1-0.4s0.2-0.3,0.3-0.4c0.7,0.4,1.2,0.5,1.6,0.5c0.4,0,0.7-0.1,0.9-0.2
		c0.2-0.1,0.3-0.3,0.3-0.6c0-0.4-0.3-0.7-0.8-0.9l-0.7-0.3c-1-0.4-1.5-0.9-1.5-1.7c0-0.5,0.2-1,0.6-1.3c0.4-0.3,0.9-0.5,1.6-0.5
		s1.3,0.1,1.9,0.4c0,0.2,0,0.3-0.1,0.5s-0.2,0.3-0.3,0.4c-0.6-0.3-1.1-0.4-1.6-0.4c-0.3,0-0.5,0.1-0.7,0.2c-0.2,0.1-0.3,0.3-0.3,0.5
		c0,0.2,0.1,0.4,0.2,0.5s0.3,0.2,0.6,0.3l0.7,0.3c1,0.4,1.5,1,1.5,1.8c0,0.5-0.2,1-0.6,1.3c-0.4,0.3-1,0.5-1.7,0.5
		S211,37.6,210.4,37.2z"/>
	<path fill="#FFFFFF" d="M216,39.5c-0.2-0.1-0.3-0.3-0.3-0.5c0,0,0-0.1,0-0.1c0.3-0.1,0.5-0.3,0.7-0.5c0.2-0.2,0.3-0.4,0.3-0.7
		c-0.2-0.1-0.4-0.1-0.5-0.2c-0.1-0.1-0.1-0.3-0.1-0.6c0-0.3,0-0.5,0.1-0.6c0.2-0.1,0.4-0.2,0.7-0.2s0.5,0.1,0.7,0.2
		c0.1,0.2,0.1,0.4,0.1,0.8c0,0.5-0.1,1-0.4,1.4S216.5,39.3,216,39.5z"/>
	<path fill="#FFFFFF" d="M224.8,31.5c0.7,0,1.2,0.3,1.5,0.8c0.4,0.6,0.5,1.3,0.5,2.3s-0.2,1.7-0.7,2.3s-1,0.8-1.6,0.8
		c-0.5,0-1-0.1-1.4-0.4v2.1c0,0.3,0,0.5-0.1,0.6c-0.1,0.1-0.3,0.2-0.5,0.2h-0.4l-0.1-0.1v-8.4l0.1-0.1h0.4c0.4,0,0.6,0.2,0.7,0.6
		C223.6,31.8,224.2,31.5,224.8,31.5z M224.6,32.5c-0.6,0-1,0.3-1.4,0.8v3c0.4,0.3,0.9,0.5,1.2,0.5s0.7-0.2,0.9-0.6
		c0.2-0.4,0.4-0.9,0.4-1.6s-0.1-1.2-0.3-1.6S224.9,32.5,224.6,32.5z"/>
	<path fill="#FFFFFF" d="M232.9,37.1c-0.1,0.3-0.2,0.5-0.5,0.6c-0.4-0.1-0.7-0.3-0.9-0.8c-0.6,0.6-1.2,0.8-1.8,0.8
		c-0.6,0-1.1-0.2-1.4-0.5c-0.3-0.4-0.5-0.8-0.5-1.2c0-0.7,0.2-1.1,0.6-1.5s1-0.5,1.7-0.5c0.4,0,0.8,0,1.2,0.1v-0.5
		c0-0.7-0.3-1.1-1-1.1c-0.5,0-1.2,0.2-1.9,0.5c-0.2-0.2-0.3-0.5-0.3-0.9c0.8-0.4,1.7-0.6,2.5-0.6c0.6,0,1.1,0.2,1.4,0.5
		c0.3,0.3,0.5,0.8,0.5,1.5V36C232.6,36.6,232.7,36.9,232.9,37.1z M230,36.8c0.5,0,1-0.3,1.5-0.8v-1.2c-0.3,0-0.7-0.1-1.1-0.1
		c-0.4,0-0.7,0.1-0.9,0.3c-0.2,0.2-0.3,0.4-0.3,0.7c0,0.3,0.1,0.5,0.2,0.7C229.5,36.8,229.7,36.8,230,36.8z"/>
	<path fill="#FFFFFF" d="M234.4,35.8v-2.8c0-0.5-0.1-0.8-0.2-1.1c0.2-0.2,0.4-0.2,0.7-0.2c0.3,0,0.4,0.1,0.5,0.2
		c0.1,0.1,0.1,0.3,0.1,0.6v3.1c0,0.4,0.1,0.7,0.2,0.9c0.1,0.2,0.3,0.3,0.6,0.3c0.3,0,0.6-0.1,0.8-0.2c0.3-0.1,0.5-0.3,0.8-0.6v-4.2
		c0.2,0,0.4,0,0.6,0s0.4,0,0.6,0V36c0,0.6,0.1,1,0.3,1.2c-0.1,0.3-0.2,0.5-0.4,0.6c-0.5-0.1-0.8-0.4-0.9-0.9c-0.6,0.6-1.3,0.9-2,0.9
		c-0.5,0-0.9-0.2-1.2-0.5C234.5,36.8,234.4,36.4,234.4,35.8z"/>
	<path fill="#FFFFFF" d="M243.9,31.7c0,0.1,0,0.3,0,0.4s0,0.3,0,0.4l-1.5,0v3.7c0,0.3,0.2,0.5,0.5,0.5h0.8c0.1,0.2,0.1,0.3,0.1,0.5
		s0,0.3,0,0.3c-0.5,0.1-0.9,0.1-1.3,0.1c-0.8,0-1.2-0.4-1.2-1.2v-3.9l-0.9,0c0-0.1,0-0.3,0-0.4s0-0.3,0-0.4l0.9,0v-1.1
		c0-0.3,0-0.5,0.1-0.6c0.1-0.1,0.3-0.2,0.5-0.2h0.4l0.1,0.1v1.8L243.9,31.7z"/>
	<path fill="#FFFFFF" d="M249.7,37.1c-0.1,0.3-0.2,0.5-0.5,0.6c-0.4-0.1-0.7-0.3-0.9-0.8c-0.6,0.6-1.2,0.8-1.8,0.8
		c-0.6,0-1.1-0.2-1.4-0.5c-0.3-0.4-0.5-0.8-0.5-1.2c0-0.7,0.2-1.1,0.6-1.5s1-0.5,1.7-0.5c0.4,0,0.8,0,1.2,0.1v-0.5
		c0-0.7-0.3-1.1-1-1.1c-0.5,0-1.2,0.2-1.9,0.5c-0.2-0.2-0.3-0.5-0.3-0.9c0.8-0.4,1.7-0.6,2.5-0.6c0.6,0,1.1,0.2,1.4,0.5
		c0.3,0.3,0.5,0.8,0.5,1.5V36C249.4,36.6,249.5,36.9,249.7,37.1z M246.8,36.8c0.5,0,1-0.3,1.5-0.8v-1.2c-0.3,0-0.7-0.1-1.1-0.1
		c-0.4,0-0.7,0.1-0.9,0.3c-0.2,0.2-0.3,0.4-0.3,0.7c0,0.3,0.1,0.5,0.2,0.7C246.3,36.8,246.5,36.8,246.8,36.8z"/>
	<path fill="#FFFFFF" d="M252.8,37.8c-0.7,0-1.2-0.3-1.5-0.8c-0.4-0.6-0.5-1.3-0.5-2.3c0-1,0.2-1.7,0.7-2.3c0.5-0.5,1-0.8,1.6-0.8
		c0.4,0,0.9,0.1,1.4,0.4v-3.1l0.1-0.1h0.4c0.2,0,0.4,0.1,0.5,0.2c0.1,0.1,0.1,0.3,0.1,0.6v6.4c0,0.6,0.1,1,0.3,1.2
		c-0.1,0.3-0.2,0.5-0.5,0.6c-0.4-0.1-0.7-0.3-0.9-0.8C254.1,37.5,253.5,37.8,252.8,37.8z M253.1,36.8c0.5,0,1-0.3,1.4-0.8v-3
		c-0.4-0.3-0.9-0.5-1.2-0.5s-0.7,0.2-0.9,0.6c-0.2,0.4-0.4,0.9-0.4,1.6c0,0.7,0.1,1.2,0.3,1.6S252.7,36.8,253.1,36.8z"/>
	<path fill="#FFFFFF" d="M262,37.1c-0.1,0.3-0.2,0.5-0.5,0.6c-0.4-0.1-0.7-0.3-0.9-0.8c-0.6,0.6-1.2,0.8-1.8,0.8
		c-0.6,0-1.1-0.2-1.4-0.5c-0.3-0.4-0.5-0.8-0.5-1.2c0-0.7,0.2-1.1,0.6-1.5s1-0.5,1.7-0.5c0.4,0,0.8,0,1.2,0.1v-0.5
		c0-0.7-0.3-1.1-1-1.1c-0.5,0-1.2,0.2-1.9,0.5c-0.2-0.2-0.3-0.5-0.3-0.9c0.8-0.4,1.7-0.6,2.5-0.6c0.6,0,1.1,0.2,1.4,0.5
		c0.3,0.3,0.5,0.8,0.5,1.5V36C261.7,36.6,261.8,36.9,262,37.1z M259.1,36.8c0.5,0,1-0.3,1.5-0.8v-1.2c-0.3,0-0.7-0.1-1.1-0.1
		c-0.4,0-0.7,0.1-0.9,0.3c-0.2,0.2-0.3,0.4-0.3,0.7c0,0.3,0.1,0.5,0.2,0.7C258.6,36.8,258.8,36.8,259.1,36.8z"/>
	<path fill="#FFFFFF" d="M263,37.2c0-0.1,0-0.3,0.1-0.4s0.2-0.3,0.3-0.4c0.7,0.4,1.2,0.5,1.6,0.5c0.4,0,0.7-0.1,0.9-0.2
		c0.2-0.1,0.3-0.3,0.3-0.6c0-0.4-0.3-0.7-0.8-0.9l-0.7-0.3c-1-0.4-1.5-0.9-1.5-1.7c0-0.5,0.2-1,0.6-1.3c0.4-0.3,0.9-0.5,1.6-0.5
		s1.3,0.1,1.9,0.4c0,0.2,0,0.3-0.1,0.5s-0.2,0.3-0.3,0.4c-0.6-0.3-1.1-0.4-1.6-0.4c-0.3,0-0.5,0.1-0.7,0.2c-0.2,0.1-0.3,0.3-0.3,0.5
		c0,0.2,0.1,0.4,0.2,0.5s0.3,0.2,0.6,0.3l0.7,0.3c1,0.4,1.5,1,1.5,1.8c0,0.5-0.2,1-0.6,1.3c-0.4,0.3-1,0.5-1.7,0.5
		S263.7,37.6,263,37.2z"/>
	<path fill="#FFFFFF" d="M0,51.6c0-0.1,0-0.3,0.1-0.4s0.2-0.3,0.3-0.4c0.7,0.4,1.2,0.5,1.6,0.5c0.4,0,0.7-0.1,0.9-0.2
		c0.2-0.1,0.3-0.3,0.3-0.6c0-0.4-0.3-0.7-0.8-0.9l-0.7-0.3c-1-0.4-1.5-0.9-1.5-1.7c0-0.5,0.2-1,0.6-1.3c0.4-0.3,0.9-0.5,1.6-0.5
		s1.3,0.1,1.9,0.4c0,0.2,0,0.3-0.1,0.5S4,47.1,3.9,47.2c-0.6-0.3-1.1-0.4-1.6-0.4c-0.3,0-0.5,0.1-0.7,0.2c-0.2,0.1-0.3,0.3-0.3,0.5
		c0,0.2,0.1,0.4,0.2,0.5s0.3,0.2,0.6,0.3l0.7,0.3c1,0.4,1.5,1,1.5,1.8c0,0.5-0.2,1-0.6,1.3c-0.4,0.3-1,0.5-1.7,0.5S0.7,52,0,51.6z"
		/>
	<path fill="#FFFFFF" d="M10.2,49.4H6.6c0,0.6,0.1,1,0.4,1.3c0.2,0.3,0.6,0.5,1.1,0.5s1.1-0.2,1.7-0.5c0.2,0.2,0.3,0.4,0.4,0.8
		c-0.6,0.4-1.4,0.7-2.3,0.7c-0.9,0-1.5-0.3-1.9-0.9S5.4,50,5.4,49.1s0.2-1.7,0.6-2.3c0.4-0.6,1-0.9,1.8-0.9c0.8,0,1.4,0.2,1.8,0.7
		c0.4,0.5,0.6,1.1,0.6,1.8C10.3,48.8,10.2,49.1,10.2,49.4z M8.8,47.3c-0.2-0.3-0.5-0.5-0.9-0.5S7.2,47,7,47.3
		c-0.2,0.3-0.3,0.7-0.4,1.3h2.5v-0.2C9.1,47.9,9,47.6,8.8,47.3z"/>
	<path fill="#FFFFFF" d="M15.1,48.2c0-0.4-0.1-0.7-0.2-0.9c-0.1-0.2-0.3-0.3-0.6-0.3c-0.5,0-0.9,0.3-1.4,0.8V52c-0.1,0-0.3,0-0.6,0
		s-0.4,0-0.6,0v-5.9l0.1-0.1h0.4c0.4,0,0.6,0.3,0.6,0.8c0.5-0.5,1.1-0.8,1.7-0.8s1.1,0.3,1.3,0.9c0.6-0.6,1.3-0.9,1.9-0.9
		c0.5,0,0.9,0.2,1.1,0.5c0.3,0.4,0.4,0.8,0.4,1.3v2.9c0,0.5,0.1,0.8,0.2,1.1c-0.2,0.2-0.4,0.3-0.7,0.3c-0.4,0-0.6-0.2-0.6-0.7v-3.1
		c0-0.4-0.1-0.7-0.2-0.9c-0.1-0.2-0.3-0.3-0.6-0.3c-0.5,0-0.9,0.3-1.4,0.8V52c-0.1,0-0.3,0-0.6,0s-0.4,0-0.6,0V48.2z"/>
	<path fill="#FFFFFF" d="M24.2,45.9c0.7,0,1.2,0.3,1.5,0.8c0.4,0.6,0.5,1.3,0.5,2.3s-0.2,1.7-0.7,2.3s-1,0.8-1.6,0.8
		c-0.5,0-1-0.1-1.4-0.4v2.1c0,0.3,0,0.5-0.1,0.6c-0.1,0.1-0.3,0.2-0.5,0.2h-0.4l-0.1-0.1v-8.4l0.1-0.1h0.4c0.4,0,0.6,0.2,0.7,0.6
		C23,46.2,23.5,45.9,24.2,45.9z M23.9,46.9c-0.6,0-1,0.3-1.4,0.8v3c0.4,0.3,0.9,0.5,1.2,0.5s0.7-0.2,0.9-0.6
		c0.2-0.4,0.4-0.9,0.4-1.6s-0.1-1.2-0.3-1.6S24.2,46.9,23.9,46.9z"/>
	<path fill="#FFFFFF" d="M27.4,46.6c0.1-0.3,0.2-0.5,0.4-0.6c0.5,0.1,0.9,0.5,1,1.1c0.3-0.7,0.9-1.1,1.6-1.1c0.2,0,0.4,0,0.6,0.1
		c0,0.4-0.1,0.8-0.3,1.1c0,0-0.2,0-0.5,0c-0.6,0-1,0.3-1.3,0.9V52c-0.1,0-0.3,0-0.6,0s-0.4,0-0.6,0v-4.2
		C27.8,47.3,27.7,46.9,27.4,46.6z"/>
	<path fill="#FFFFFF" d="M36.5,49.4h-3.6c0,0.6,0.1,1,0.4,1.3c0.2,0.3,0.6,0.5,1.1,0.5s1.1-0.2,1.7-0.5c0.2,0.2,0.3,0.4,0.4,0.8
		c-0.6,0.4-1.4,0.7-2.3,0.7c-0.9,0-1.5-0.3-1.9-0.9s-0.6-1.3-0.6-2.3s0.2-1.7,0.6-2.3c0.4-0.6,1-0.9,1.8-0.9c0.8,0,1.4,0.2,1.8,0.7
		c0.4,0.5,0.6,1.1,0.6,1.8C36.6,48.8,36.5,49.1,36.5,49.4z M35.1,47.3c-0.2-0.3-0.5-0.5-0.9-0.5s-0.7,0.2-0.9,0.5
		c-0.2,0.3-0.3,0.7-0.4,1.3h2.5v-0.2C35.4,47.9,35.3,47.6,35.1,47.3z"/>
	<path fill="#FFFFFF" d="M45.4,47.9v2.8c0,0.5,0.1,0.8,0.2,1.1c-0.2,0.2-0.4,0.3-0.7,0.3c-0.4,0-0.6-0.2-0.6-0.7v-3.1
		c0-0.4-0.1-0.7-0.2-0.9c-0.1-0.2-0.3-0.3-0.6-0.3c-0.3,0-0.6,0.1-0.9,0.2c-0.3,0.1-0.5,0.3-0.8,0.6V52c-0.1,0-0.3,0-0.6,0
		s-0.4,0-0.6,0v-5.9l0.1-0.1h0.4c0.4,0,0.6,0.3,0.6,0.8c0.6-0.5,1.2-0.8,1.9-0.8c0.5,0,0.9,0.2,1.2,0.5
		C45.3,46.9,45.4,47.4,45.4,47.9z"/>
	<path fill="#FFFFFF" d="M51.2,46.6c0.6,0.6,0.8,1.4,0.8,2.5s-0.3,1.9-0.8,2.5c-0.4,0.4-1,0.7-1.7,0.7s-1.3-0.2-1.7-0.7
		c-0.6-0.6-0.8-1.4-0.8-2.5s0.3-1.9,0.8-2.5c0.4-0.4,1-0.7,1.7-0.7S50.8,46.2,51.2,46.6z M48.1,49.1c0,1.5,0.5,2.2,1.4,2.2
		s1.4-0.7,1.4-2.2c0-0.4,0-0.8-0.1-1.1c-0.1-0.3-0.2-0.6-0.4-0.8c-0.2-0.2-0.5-0.3-0.8-0.3s-0.6,0.1-0.8,0.3
		c-0.2,0.2-0.4,0.5-0.4,0.8C48.1,48.3,48.1,48.7,48.1,49.1z"/>
	<path fill="#FFFFFF" d="M53,51.6c0-0.1,0-0.3,0.1-0.4s0.2-0.3,0.3-0.4c0.7,0.4,1.2,0.5,1.6,0.5c0.4,0,0.7-0.1,0.9-0.2
		c0.2-0.1,0.3-0.3,0.3-0.6c0-0.4-0.3-0.7-0.8-0.9l-0.7-0.3c-1-0.4-1.5-0.9-1.5-1.7c0-0.5,0.2-1,0.6-1.3c0.4-0.3,0.9-0.5,1.6-0.5
		s1.3,0.1,1.9,0.4c0,0.2,0,0.3-0.1,0.5s-0.2,0.3-0.3,0.4c-0.6-0.3-1.1-0.4-1.6-0.4c-0.3,0-0.5,0.1-0.7,0.2c-0.2,0.1-0.3,0.3-0.3,0.5
		c0,0.2,0.1,0.4,0.2,0.5s0.3,0.2,0.6,0.3l0.7,0.3c1,0.4,1.5,1,1.5,1.8c0,0.5-0.2,1-0.6,1.3c-0.4,0.3-1,0.5-1.7,0.5S53.6,52,53,51.6z
		"/>
	<path fill="#A9D42D" d="M66.2,48v2.7c0,0.5,0.1,0.9,0.2,1.1c-0.3,0.2-0.6,0.3-0.9,0.3c-0.3,0-0.5-0.1-0.7-0.2
		c-0.1-0.2-0.2-0.4-0.2-0.7v-2.9c0-0.4,0-0.6-0.1-0.8c-0.1-0.2-0.3-0.2-0.5-0.2c-0.5,0-0.9,0.2-1.3,0.6V52c-0.2,0-0.5,0.1-0.7,0.1
		c-0.3,0-0.5,0-0.8-0.1v-5.9l0.1-0.1H62c0.5,0,0.7,0.2,0.8,0.7c0.6-0.5,1.2-0.8,1.7-0.8s1,0.2,1.3,0.6S66.2,47.4,66.2,48z"/>
	<path fill="#A9D42D" d="M72.8,49c0,1.1-0.3,1.9-0.9,2.5c-0.5,0.5-1.1,0.7-1.8,0.7s-1.3-0.2-1.8-0.7c-0.6-0.6-0.9-1.4-0.9-2.5
		c0-1.1,0.3-1.9,0.9-2.5c0.5-0.5,1.1-0.7,1.8-0.7s1.3,0.2,1.8,0.7C72.5,47.2,72.8,48,72.8,49z M70.2,47c-0.8,0-1.1,0.7-1.1,2
		c0,1.3,0.4,2,1.1,2s1.1-0.7,1.1-2C71.3,47.7,70.9,47,70.2,47z"/>
	<path fill="#A9D42D" d="M73.6,51.6c0-0.2,0.1-0.3,0.1-0.5c0.1-0.2,0.2-0.4,0.3-0.5c0.6,0.3,1.2,0.5,1.7,0.5c0.3,0,0.5-0.1,0.7-0.2
		c0.2-0.1,0.2-0.3,0.2-0.4c0-0.3-0.2-0.6-0.7-0.7l-0.7-0.3c-1-0.4-1.5-1-1.5-1.7c0-0.6,0.2-1,0.6-1.4c0.4-0.3,1-0.5,1.6-0.5
		s1.3,0.2,2,0.5c0,0.2,0,0.4-0.1,0.6c-0.1,0.2-0.2,0.4-0.3,0.5C77,47.2,76.5,47,76,47c-0.2,0-0.4,0.1-0.5,0.2
		c-0.1,0.1-0.2,0.2-0.2,0.4c0,0.3,0.2,0.5,0.6,0.6l0.7,0.3c1,0.4,1.5,1,1.5,1.8c0,0.6-0.2,1-0.6,1.4c-0.4,0.3-1,0.5-1.8,0.5
		S74.3,52,73.6,51.6z"/>
	<path fill="#A9D42D" d="M78.9,51.6c0-0.2,0.1-0.3,0.1-0.5c0.1-0.2,0.2-0.4,0.3-0.5c0.6,0.3,1.2,0.5,1.7,0.5c0.3,0,0.5-0.1,0.7-0.2
		c0.2-0.1,0.2-0.3,0.2-0.4c0-0.3-0.2-0.6-0.7-0.7l-0.7-0.3c-1-0.4-1.5-1-1.5-1.7c0-0.6,0.2-1,0.6-1.4c0.4-0.3,1-0.5,1.6-0.5
		s1.3,0.2,2,0.5c0,0.2,0,0.4-0.1,0.6c-0.1,0.2-0.2,0.4-0.3,0.5c-0.6-0.3-1.1-0.4-1.6-0.4c-0.2,0-0.4,0.1-0.5,0.2
		c-0.1,0.1-0.2,0.2-0.2,0.4c0,0.3,0.2,0.5,0.6,0.6l0.7,0.3c1,0.4,1.5,1,1.5,1.8c0,0.6-0.2,1-0.6,1.4c-0.4,0.3-1,0.5-1.8,0.5
		S79.6,52,78.9,51.6z"/>
	<path fill="#A9D42D" d="M89.6,49c0,1.1-0.3,1.9-0.9,2.5c-0.5,0.5-1.1,0.7-1.8,0.7s-1.3-0.2-1.8-0.7c-0.6-0.6-0.9-1.4-0.9-2.5
		c0-1.1,0.3-1.9,0.9-2.5c0.5-0.5,1.1-0.7,1.8-0.7s1.3,0.2,1.8,0.7C89.3,47.2,89.6,48,89.6,49z M87,47c-0.8,0-1.1,0.7-1.1,2
		c0,1.3,0.4,2,1.1,2s1.1-0.7,1.1-2C88.1,47.7,87.7,47,87,47z"/>
	<path fill="#A9D42D" d="M90.4,51.6c0-0.2,0.1-0.3,0.1-0.5c0.1-0.2,0.2-0.4,0.3-0.5c0.6,0.3,1.2,0.5,1.7,0.5c0.3,0,0.5-0.1,0.7-0.2
		c0.2-0.1,0.2-0.3,0.2-0.4c0-0.3-0.2-0.6-0.7-0.7l-0.7-0.3c-1-0.4-1.5-1-1.5-1.7c0-0.6,0.2-1,0.6-1.4c0.4-0.3,1-0.5,1.6-0.5
		s1.3,0.2,2,0.5c0,0.2,0,0.4-0.1,0.6c-0.1,0.2-0.2,0.4-0.3,0.5c-0.6-0.3-1.1-0.4-1.6-0.4c-0.2,0-0.4,0.1-0.5,0.2
		c-0.1,0.1-0.2,0.2-0.2,0.4c0,0.3,0.2,0.5,0.6,0.6l0.7,0.3c1,0.4,1.5,1,1.5,1.8c0,0.6-0.2,1-0.6,1.4c-0.4,0.3-1,0.5-1.8,0.5
		S91.1,52,90.4,51.6z"/>
	<path fill="#A9D42D" d="M103.8,44.5c0.5,0.5,0.8,1.1,0.8,2c0,0.9-0.3,1.6-0.8,2c-0.5,0.5-1.2,0.7-2,0.7h-1.2V52
		c-0.2,0-0.5,0.1-0.8,0.1c-0.3,0-0.6,0-0.8-0.1v-8.1l0.1-0.1c1.3,0,2.1,0,2.6,0C102.6,43.8,103.2,44,103.8,44.5z M100.6,45v3.1
		c0.5,0,0.9,0,1.1,0c0.5,0,0.8-0.2,1-0.5c0.2-0.3,0.3-0.7,0.3-1.1s-0.1-0.8-0.3-1.1c-0.2-0.3-0.5-0.5-1-0.5S100.8,45,100.6,45z"/>
	<path fill="#A9D42D" d="M105.3,46.8c0-0.1,0.1-0.3,0.2-0.4c0.1-0.2,0.2-0.3,0.3-0.3c0.6,0.1,1,0.5,1.3,1.1c0.3-0.7,0.8-1.1,1.5-1.1
		c0.2,0,0.4,0,0.7,0.1c0,0.5-0.1,1-0.4,1.4c-0.1,0-0.3-0.1-0.5-0.1c-0.5,0-0.9,0.3-1.2,0.8V52c-0.2,0-0.5,0.1-0.7,0.1
		s-0.5,0-0.8-0.1v-4C105.7,47.4,105.5,47,105.3,46.8z"/>
	<path fill="#A9D42D" d="M112.1,47.2V52c-0.2,0-0.5,0.1-0.7,0.1c-0.3,0-0.5,0-0.8-0.1v-4.2c0-0.4-0.2-0.6-0.5-0.6h-0.1
		c0-0.1-0.1-0.3-0.1-0.5c0-0.2,0-0.4,0.1-0.5c0.3,0,0.6,0,0.9,0h0.2c0.3,0,0.6,0.1,0.8,0.3S112.1,46.9,112.1,47.2z M110.3,45
		c-0.1-0.2-0.1-0.4-0.1-0.6s0-0.4,0.1-0.6c0.2-0.1,0.5-0.2,0.8-0.2c0.3,0,0.6,0.1,0.7,0.2c0.1,0.2,0.1,0.4,0.1,0.6s0,0.4-0.1,0.6
		c-0.2,0.1-0.4,0.2-0.8,0.2S110.5,45.1,110.3,45z"/>
	<path fill="#A9D42D" d="M118.6,48v2.7c0,0.5,0.1,0.9,0.2,1.1c-0.3,0.2-0.6,0.3-0.9,0.3c-0.3,0-0.5-0.1-0.7-0.2
		c-0.1-0.2-0.2-0.4-0.2-0.7v-2.9c0-0.4,0-0.6-0.1-0.8c-0.1-0.2-0.3-0.2-0.5-0.2c-0.5,0-0.9,0.2-1.3,0.6V52c-0.2,0-0.5,0.1-0.7,0.1
		c-0.3,0-0.5,0-0.8-0.1v-5.9l0.1-0.1h0.6c0.5,0,0.7,0.2,0.8,0.7c0.6-0.5,1.2-0.8,1.7-0.8s1,0.2,1.3,0.6S118.6,47.4,118.6,48z"/>
	<path fill="#A9D42D" d="M123.4,48.5c0,0,0-0.1,0-0.1c0-0.4-0.1-0.7-0.2-1s-0.4-0.4-0.7-0.4c-0.7,0-1,0.7-1,2s0.4,2,1.2,2
		c0.4,0,0.9-0.2,1.4-0.6c0.1,0.1,0.2,0.2,0.4,0.4c0.1,0.2,0.2,0.3,0.2,0.5c-0.6,0.6-1.3,0.9-2.2,0.9c-0.9,0-1.5-0.3-1.9-0.9
		c-0.4-0.6-0.6-1.4-0.6-2.4s0.3-1.8,0.8-2.3s1.1-0.8,1.8-0.8c0.7,0,1.2,0.2,1.6,0.6c0.4,0.4,0.6,0.8,0.6,1.3c0,0.5-0.2,0.8-0.7,0.8
		C123.8,48.6,123.6,48.5,123.4,48.5z"/>
	<path fill="#A9D42D" d="M127.6,47.2V52c-0.2,0-0.5,0.1-0.7,0.1c-0.3,0-0.5,0-0.8-0.1v-4.2c0-0.4-0.2-0.6-0.5-0.6h-0.1
		c0-0.1-0.1-0.3-0.1-0.5c0-0.2,0-0.4,0.1-0.5c0.3,0,0.6,0,0.9,0h0.2c0.3,0,0.6,0.1,0.8,0.3C127.5,46.6,127.6,46.9,127.6,47.2z
		 M125.6,45l1.8-2c0.2,0.1,0.4,0.2,0.6,0.4c0.2,0.2,0.3,0.4,0.4,0.6l-2.1,1.6C126,45.5,125.8,45.3,125.6,45z"/>
	<path fill="#A9D42D" d="M132.3,45.9c0.6,0,1.2,0.3,1.5,0.8c0.4,0.6,0.5,1.3,0.5,2.3s-0.2,1.7-0.7,2.3c-0.5,0.6-1,0.8-1.7,0.8
		c-0.4,0-0.8-0.1-1.3-0.3v1.9c0,0.3-0.1,0.6-0.2,0.7s-0.3,0.2-0.6,0.2h-0.6l-0.1-0.1v-8.4l0.1-0.1h0.4c0.4,0,0.7,0.2,0.9,0.6
		C131.1,46.1,131.7,45.9,132.3,45.9z M131.9,47.1c-0.4,0-0.8,0.2-1.1,0.6v2.8c0.4,0.2,0.7,0.4,1,0.4c0.3,0,0.6-0.2,0.8-0.5
		c0.2-0.3,0.3-0.8,0.3-1.5c0-0.6-0.1-1.1-0.3-1.4C132.4,47.3,132.2,47.1,131.9,47.1z"/>
	<path fill="#A9D42D" d="M137.4,47.2V52c-0.2,0-0.5,0.1-0.7,0.1c-0.3,0-0.5,0-0.8-0.1v-4.2c0-0.4-0.2-0.6-0.5-0.6h-0.1
		c0-0.1-0.1-0.3-0.1-0.5c0-0.2,0-0.4,0.1-0.5c0.3,0,0.6,0,0.9,0h0.2c0.3,0,0.6,0.1,0.8,0.3S137.4,46.9,137.4,47.2z M135.6,45
		c-0.1-0.2-0.1-0.4-0.1-0.6s0-0.4,0.1-0.6c0.2-0.1,0.5-0.2,0.8-0.2c0.3,0,0.6,0.1,0.7,0.2c0.1,0.2,0.1,0.4,0.1,0.6s0,0.4-0.1,0.6
		c-0.2,0.1-0.4,0.2-0.8,0.2S135.8,45.1,135.6,45z"/>
	<path fill="#A9D42D" d="M144,49c0,1.1-0.3,1.9-0.9,2.5c-0.5,0.5-1.1,0.7-1.8,0.7s-1.3-0.2-1.8-0.7c-0.6-0.6-0.9-1.4-0.9-2.5
		c0-1.1,0.3-1.9,0.9-2.5c0.5-0.5,1.1-0.7,1.8-0.7s1.3,0.2,1.8,0.7C143.7,47.2,144,48,144,49z M141.3,47c-0.8,0-1.1,0.7-1.1,2
		c0,1.3,0.4,2,1.1,2s1.1-0.7,1.1-2C142.5,47.7,142.1,47,141.3,47z"/>
	<path fill="#A9D42D" d="M144.8,51.6c0-0.2,0.1-0.3,0.1-0.5c0.1-0.2,0.2-0.4,0.3-0.5c0.6,0.3,1.2,0.5,1.7,0.5c0.3,0,0.5-0.1,0.7-0.2
		c0.2-0.1,0.2-0.3,0.2-0.4c0-0.3-0.2-0.6-0.7-0.7l-0.7-0.3c-1-0.4-1.5-1-1.5-1.7c0-0.6,0.2-1,0.6-1.4c0.4-0.3,1-0.5,1.6-0.5
		s1.3,0.2,2,0.5c0,0.2,0,0.4-0.1,0.6c-0.1,0.2-0.2,0.4-0.3,0.5c-0.6-0.3-1.1-0.4-1.6-0.4c-0.2,0-0.4,0.1-0.5,0.2
		c-0.1,0.1-0.2,0.2-0.2,0.4c0,0.3,0.2,0.5,0.6,0.6l0.7,0.3c1,0.4,1.5,1,1.5,1.8c0,0.6-0.2,1-0.6,1.4c-0.4,0.3-1,0.5-1.8,0.5
		S145.5,52,144.8,51.6z"/>
	<path fill="#A9D42D" d="M157.7,49.5h-3.4c0,0.5,0.1,0.8,0.3,1.1c0.2,0.3,0.5,0.4,1,0.4s1-0.1,1.6-0.4c0.2,0.2,0.4,0.5,0.4,0.9
		c-0.6,0.5-1.4,0.7-2.3,0.7c-0.9,0-1.5-0.3-1.9-0.9c-0.4-0.6-0.6-1.3-0.6-2.3c0-0.9,0.2-1.7,0.6-2.3c0.4-0.6,1-0.9,1.9-0.9
		c0.8,0,1.4,0.2,1.9,0.7c0.4,0.5,0.6,1.1,0.6,1.8C157.9,48.8,157.8,49.2,157.7,49.5z M155.4,47c-0.7,0-1,0.5-1.1,1.5h2.1v-0.1
		c0-0.4-0.1-0.7-0.3-1S155.8,47,155.4,47z"/>
	<path fill="#A9D42D" d="M164.7,50.7l1.8-6.9c0.2,0,0.4-0.1,0.6-0.1c0.3,0,0.5,0,0.7,0.1l0.1,0.1l-2.3,8.1c-0.3,0-0.7,0.1-1,0.1
		s-0.7,0-0.8-0.1s-0.3-0.3-0.4-0.6l-2.1-7.4c0.4-0.2,0.6-0.2,0.9-0.2s0.4,0.1,0.6,0.2c0.1,0.1,0.2,0.3,0.3,0.6l1.1,4
		c0.1,0.4,0.3,1.2,0.5,2.1C164.6,50.7,164.6,50.7,164.7,50.7z"/>
	<path fill="#A9D42D" d="M173.2,51.3c0,0.1-0.1,0.3-0.2,0.4c-0.1,0.1-0.2,0.3-0.3,0.3c-0.5-0.1-0.9-0.3-1.1-0.7
		c-0.5,0.5-1.1,0.8-1.7,0.8c-0.6,0-1.1-0.2-1.4-0.5c-0.3-0.4-0.5-0.8-0.5-1.2c0-0.7,0.2-1.2,0.7-1.5c0.4-0.3,1-0.5,1.7-0.5
		c0.4,0,0.7,0,1,0v-0.4c0-0.6-0.3-0.9-0.9-0.9c-0.4,0-1,0.1-1.8,0.4c-0.2-0.2-0.4-0.6-0.4-1.1c0.9-0.4,1.7-0.5,2.6-0.5
		c0.6,0,1.1,0.2,1.5,0.5s0.6,0.8,0.6,1.5v2.4C172.9,50.9,173,51.2,173.2,51.3z M170.2,51c0.4,0,0.8-0.2,1.2-0.6v-1.1
		c-0.3,0-0.6,0-0.9,0s-0.6,0.1-0.7,0.3s-0.3,0.4-0.3,0.6c0,0.3,0.1,0.5,0.2,0.6C169.8,51,170,51,170.2,51z"/>
	<path fill="#A9D42D" d="M176.5,50.9h0.4c0.1,0.2,0.1,0.5,0.1,0.6c0,0.2,0,0.3,0,0.4c-0.5,0.1-0.8,0.1-1.1,0.1
		c-0.9,0-1.3-0.5-1.3-1.4v-7.4l0.1-0.1h0.6c0.3,0,0.5,0.1,0.6,0.2s0.2,0.4,0.2,0.7v6.3C176,50.7,176.2,50.9,176.5,50.9z"/>
	<path fill="#A9D42D" d="M183.1,49c0,1.1-0.3,1.9-0.9,2.5c-0.5,0.5-1.1,0.7-1.8,0.7s-1.3-0.2-1.8-0.7c-0.6-0.6-0.9-1.4-0.9-2.5
		c0-1.1,0.3-1.9,0.9-2.5c0.5-0.5,1.1-0.7,1.8-0.7s1.3,0.2,1.8,0.7C182.8,47.2,183.1,48,183.1,49z M180.4,47c-0.8,0-1.1,0.7-1.1,2
		c0,1.3,0.4,2,1.1,2s1.1-0.7,1.1-2C181.6,47.7,181.2,47,180.4,47z"/>
	<path fill="#A9D42D" d="M184.1,46.8c0-0.1,0.1-0.3,0.2-0.4c0.1-0.2,0.2-0.3,0.3-0.3c0.6,0.1,1,0.5,1.3,1.1c0.3-0.7,0.8-1.1,1.5-1.1
		c0.2,0,0.4,0,0.7,0.1c0,0.5-0.1,1-0.4,1.4c-0.1,0-0.3-0.1-0.5-0.1c-0.5,0-0.9,0.3-1.2,0.8V52c-0.2,0-0.5,0.1-0.7,0.1
		s-0.5,0-0.8-0.1v-4C184.5,47.4,184.4,47,184.1,46.8z"/>
	<path fill="#A9D42D" d="M193.5,49.5h-3.4c0,0.5,0.1,0.8,0.3,1.1c0.2,0.3,0.5,0.4,1,0.4s1-0.1,1.6-0.4c0.2,0.2,0.4,0.5,0.4,0.9
		c-0.6,0.5-1.4,0.7-2.3,0.7c-0.9,0-1.5-0.3-1.9-0.9c-0.4-0.6-0.6-1.3-0.6-2.3c0-0.9,0.2-1.7,0.6-2.3c0.4-0.6,1-0.9,1.9-0.9
		c0.8,0,1.4,0.2,1.9,0.7c0.4,0.5,0.6,1.1,0.6,1.8C193.6,48.8,193.6,49.2,193.5,49.5z M191.2,47c-0.7,0-1,0.5-1.1,1.5h2.1v-0.1
		c0-0.4-0.1-0.7-0.3-1S191.5,47,191.2,47z"/>
	<path fill="#A9D42D" d="M194.4,51.6c0-0.2,0.1-0.3,0.1-0.5c0.1-0.2,0.2-0.4,0.3-0.5c0.6,0.3,1.2,0.5,1.7,0.5c0.3,0,0.5-0.1,0.7-0.2
		c0.2-0.1,0.2-0.3,0.2-0.4c0-0.3-0.2-0.6-0.7-0.7l-0.7-0.3c-1-0.4-1.5-1-1.5-1.7c0-0.6,0.2-1,0.6-1.4c0.4-0.3,1-0.5,1.6-0.5
		s1.3,0.2,2,0.5c0,0.2,0,0.4-0.1,0.6c-0.1,0.2-0.2,0.4-0.3,0.5c-0.6-0.3-1.1-0.4-1.6-0.4c-0.2,0-0.4,0.1-0.5,0.2
		c-0.1,0.1-0.2,0.2-0.2,0.4c0,0.3,0.2,0.5,0.6,0.6l0.7,0.3c1,0.4,1.5,1,1.5,1.8c0,0.6-0.2,1-0.6,1.4c-0.4,0.3-1,0.5-1.8,0.5
		S195.1,52,194.4,51.6z"/>
	<path fill="#FFFFFF" d="M200.1,51.4c0-0.2,0-0.4,0.1-0.6c0.2-0.1,0.4-0.1,0.7-0.1c0.3,0,0.5,0,0.7,0.1c0.1,0.1,0.1,0.3,0.1,0.6
		s0,0.4-0.1,0.6c-0.2,0.1-0.4,0.1-0.7,0.1c-0.3,0-0.5,0-0.7-0.1C200.2,51.8,200.1,51.6,200.1,51.4z"/>
</g>
</svg>