<!-- Generator: Adobe Illustrator 17.1.0, SVG Export Plug-In  -->
<svg version="1.1"
	 xmlns="http://www.w3.org/2000/svg" xmlns:xlink="http://www.w3.org/1999/xlink" xmlns:a="http://ns.adobe.com/AdobeSVGViewerExtensions/3.0/"
	 x="0px" y="0px" width="182.3px" height="187.2px" viewBox="0 0 182.3 187.2" enable-background="new 0 0 182.3 187.2"
	 xml:space="preserve">
<defs>
</defs>
<g>
	<g>
		<radialGradient id="SVGID_1_" cx="91.166" cy="91.166" r="91.166" gradientUnits="userSpaceOnUse">
			<stop  offset="0" style="stop-color:#008B94"/>
			<stop  offset="0.4984" style="stop-color:#008993"/>
			<stop  offset="0.6778" style="stop-color:#008290"/>
			<stop  offset="0.8058" style="stop-color:#00778B"/>
			<stop  offset="0.9085" style="stop-color:#006684"/>
			<stop  offset="0.9961" style="stop-color:#00507A"/>
			<stop  offset="1" style="stop-color:#004F7A"/>
		</radialGradient>
		<circle fill-rule="evenodd" clip-rule="evenodd" fill="url(#SVGID_1_)" cx="91.2" cy="91.2" r="91.2"/>
		<radialGradient id="SVGID_2_" cx="91.166" cy="91.166" r="82.2388" gradientUnits="userSpaceOnUse">
			<stop  offset="0" style="stop-color:#008B94"/>
			<stop  offset="0.4984" style="stop-color:#008993"/>
			<stop  offset="0.6778" style="stop-color:#008290"/>
			<stop  offset="0.8058" style="stop-color:#00778B"/>
			<stop  offset="0.9085" style="stop-color:#006684"/>
			<stop  offset="0.9961" style="stop-color:#00507A"/>
			<stop  offset="1" style="stop-color:#004F7A"/>
		</radialGradient>
		<circle fill-rule="evenodd" clip-rule="evenodd" fill="url(#SVGID_2_)" cx="91.2" cy="91.2" r="82.2"/>
	</g>
	<g>
		<g>
			<path fill="#CBDA2A" d="M157.1,131.8c0.1,0.1,0.2,0.1,0.2,0.2c0.7,1.8,1.8,3.4,2.1,5.4c0.1,0.7,0,1.3-0.4,1.9
				c-0.2,0.3-0.3,0.5-0.5,0.8l-0.5,0.8c-0.3,0.6-0.7,1.2-1,1.7c-0.3,0.5-0.7,0.9-1.1,1.4c-0.2-0.4-0.3-0.6-0.4-0.8
				c-0.6-1.3-1.2-2.7-1.8-4c-0.3-0.8-0.5-1.7,0.1-2.6c0.4-0.7,0.9-1.5,1.3-2.2l0.6-1c0.2-0.4,0.5-0.7,0.7-1.1
				C156.8,132.1,157,132,157.1,131.8"/>
			<path fill="#CBDA2A" d="M160.7,136.7c-0.7-1.3-1.3-2.5-1.8-3.8c-0.2-0.6-0.4-1.1-0.6-1.7c-0.2-0.6-0.1-1.2,0.2-1.7
				c0.8-1.5,1.7-3,2.5-4.5c0.1-0.1,0.2-0.2,0.3-0.4c0.2,0.3,0.4,0.4,0.5,0.7c0.3,0.5,0.5,1.1,0.7,1.6c0.3,0.8,0.7,1.6,1,2.5
				c0.4,1.1,0.5,2.3-0.2,3.3c-0.8,1.3-1.6,2.5-2.3,3.8C161,136.6,160.9,136.6,160.7,136.7"/>
			<path fill="#CBDA2A" d="M165.1,129.6c-0.3-0.3-0.5-0.5-0.6-0.7c-0.5-1.1-1-2.3-1.5-3.4c-0.1-0.2-0.2-0.4-0.3-0.6
				c-0.5-0.8-0.5-1.5-0.1-2.2c0.7-1.5,1.4-2.9,2-4.5c0.3-0.6,0.6-0.7,1.1-0.1c0.9,1.3,1.7,2.7,2.2,4.3c0.3,0.9-0.1,1.8-0.4,2.6
				c-0.5,1.3-1.2,2.6-1.8,3.9C165.6,129,165.4,129.2,165.1,129.6"/>
			<path fill="#CBDA2A" d="M167.7,110c0.2,0.1,0.2,0.1,0.3,0.1c1.2,1.4,2.6,2.8,3.4,4.6c0.3,0.7,0.3,1.3,0.1,1.9
				c-0.2,0.7-0.5,1.3-0.7,2c-0.2,0.7-0.5,1.3-0.8,1.9c-0.2,0.5-0.5,1-0.9,1.6c-0.2-0.3-0.4-0.5-0.5-0.8c-0.7-1.3-1.5-2.5-2.3-3.8
				c-0.5-0.8-0.8-1.6-0.5-2.5c0.5-1.5,0.9-3.1,1.5-4.6C167.5,110.4,167.6,110.2,167.7,110"/>
			<path fill="#CBDA2A" d="M172.4,113.9c-1-1-1.9-2.2-2.7-3.3c-0.4-0.5-0.7-1-1-1.5c-0.4-0.5-0.5-1-0.4-1.6c0.3-1.6,0.6-3.3,0.8-4.9
				c0-0.1,0.1-0.2,0.1-0.5c0.3,0.2,0.5,0.3,0.7,0.4c0.4,0.4,0.8,0.8,1.2,1.2c0.6,0.7,1.2,1.3,1.8,2c0.8,0.9,1.2,2,0.9,3.3
				c-0.2,0.8-0.4,1.5-0.6,2.2l-0.7,2.2C172.7,113.7,172.6,113.7,172.4,113.9"/>
			<path fill="#CBDA2A" d="M174.6,105.5c-0.4-0.2-0.6-0.3-0.8-0.5c-0.9-0.9-1.7-1.8-2.6-2.6c-0.1-0.1-0.3-0.3-0.5-0.4
				c-0.8-0.5-1-1.2-0.9-2.1c0.1-1.6,0.2-3.2,0.2-4.9c0-0.7,0.3-0.9,0.9-0.5c1.3,0.9,2.6,1.9,3.6,3.2c0.6,0.7,0.6,1.7,0.6,2.6
				c0,1.4-0.1,2.9-0.3,4.3C174.8,104.8,174.7,105,174.6,105.5"/>
			<path fill="#CBDA2A" d="M170,86.1c0.2,0,0.2,0,0.3,0c1.6,0.9,3.4,1.8,4.8,3.1c0.5,0.5,0.8,1.1,0.8,1.8c0,0.7,0,1.4,0.1,2.1
				c0,0.7,0,1.4,0,2.1c0,0.6-0.1,1.2-0.2,1.9c-0.3-0.2-0.5-0.4-0.7-0.5c-1.2-0.9-2.4-1.8-3.5-2.7c-0.7-0.5-1.3-1.2-1.3-2.1
				c-0.1-1.6-0.3-3.3-0.2-4.9C169.9,86.5,170,86.3,170,86.1"/>
			<path fill="#CBDA2A" d="M175.8,88c-1.3-0.6-2.5-1.3-3.6-2.1c-0.5-0.3-1-0.7-1.5-1c-0.5-0.3-0.8-0.8-0.9-1.4
				c-0.3-1.7-0.5-3.3-0.8-5c0-0.1,0-0.2,0-0.5c0.3,0.1,0.6,0.1,0.8,0.2c0.5,0.2,1,0.5,1.5,0.8c0.8,0.4,1.6,0.8,2.3,1.3
				c1.1,0.6,1.8,1.5,1.9,2.8l0.2,2.3l0.1,2.3C175.9,87.8,175.8,87.8,175.8,88"/>
			<path fill="#CBDA2A" d="M175,79.5c-0.4-0.1-0.7-0.1-0.9-0.2c-1.1-0.6-2.2-1.1-3.3-1.7c-0.2-0.1-0.4-0.2-0.6-0.3
				c-0.9-0.3-1.3-0.9-1.5-1.7c-0.4-1.6-0.8-3.2-1.3-4.7c-0.2-0.7,0-1,0.7-0.7c1.5,0.5,3,1,4.3,2c0.7,0.5,1.1,1.4,1.3,2.3
				c0.4,1.4,0.7,2.7,1.1,4.1C175,78.8,175,79,175,79.5"/>
			<path fill="#CBDA2A" d="M164.8,62.6c0.2-0.1,0.2-0.1,0.3-0.1c1.8,0.3,3.8,0.6,5.5,1.4c0.6,0.3,1.1,0.8,1.3,1.5
				c0.4,1.3,0.9,2.6,1.2,4c0.1,0.6,0.2,1.1,0.3,1.8c-0.4-0.1-0.6-0.2-0.9-0.3c-1.4-0.5-2.8-1-4.1-1.5c-0.8-0.3-1.6-0.8-1.9-1.7
				c-0.5-1.5-1.2-3-1.6-4.5C164.9,63,164.9,62.8,164.8,62.6"/>
			<path fill="#CBDA2A" d="M170.9,62.6c-1.5-0.2-2.8-0.5-4.1-0.9c-0.6-0.2-1.2-0.3-1.7-0.5c-0.6-0.2-1-0.5-1.3-1l-0.6-1.1l-0.6-1.1
				l-1.3-2.2c-0.1-0.1-0.1-0.2-0.2-0.5c0.3,0,0.6-0.1,0.9-0.1c0.6,0,1.1,0.2,1.7,0.2c0.9,0.1,1.8,0.2,2.6,0.4
				c0.6,0.1,1.1,0.3,1.6,0.6c0.5,0.3,0.9,0.8,1.2,1.4c0.7,1.4,1.3,2.9,1.9,4.3C171,62.4,170.9,62.4,170.9,62.6"/>
			<path fill="#CBDA2A" d="M167.2,54.7c-0.4,0-0.7,0.1-0.9,0.1c-1.2-0.1-2.4-0.3-3.7-0.4c-0.2,0-0.4-0.1-0.6-0.1
				c-0.9,0.1-1.5-0.4-2-1.1c-0.9-1.4-1.8-2.8-2.8-4.1c-0.4-0.6-0.3-0.9,0.5-1c1.6,0,3.2,0,4.8,0.5c0.9,0.3,1.5,1,2,1.7
				c0.9,1.1,1.6,2.3,2.4,3.5C167,54.1,167.1,54.3,167.2,54.7"/>
			<path fill="#CBDA2A" d="M151.9,41.9c0.1-0.1,0.2-0.2,0.2-0.2c1.8-0.3,3.7-0.7,5.7-0.5c0.7,0.1,1.3,0.4,1.7,1
				c0.9,1.1,1.7,2.2,2.5,3.3c0.3,0.5,0.6,1,0.9,1.6c-0.4,0-0.7,0-0.9,0c-1.5-0.1-3-0.1-4.4-0.1c-0.9,0-1.8-0.2-2.3-0.9
				c-1-1.3-2.1-2.4-3.1-3.7C152,42.3,152,42.1,151.9,41.9"/>
			<path fill="#CBDA2A" d="M151.9,42c0.1-0.1,0.2-0.2,0.2-0.2c1.9-0.3,3.7-0.7,5.7-0.5c0.7,0.1,1.3,0.4,1.7,1
				c0.9,1.1,1.7,2.2,2.5,3.3c0.3,0.5,0.6,1,0.9,1.6c-0.4,0-0.7,0-0.9,0c-1.5-0.1-3-0.1-4.4-0.1c-0.9,0-1.8-0.2-2.3-0.9
				c-1-1.3-2.1-2.4-3.1-3.7C152.1,42.3,152,42.2,151.9,42"/>
			<path fill="#CBDA2A" d="M151.9,42c0.1-0.1,0.2-0.2,0.2-0.2c1.9-0.3,3.7-0.7,5.7-0.5c0.7,0.1,1.3,0.4,1.7,1
				c0.9,1.1,1.7,2.2,2.5,3.3c0.3,0.5,0.6,1,0.9,1.6c-0.4,0-0.7,0-0.9,0c-1.5-0.1-3-0.1-4.4-0.1c-0.9,0-1.8-0.2-2.3-0.9
				c-1-1.3-2.1-2.4-3.1-3.7C152.1,42.3,152,42.2,151.9,42"/>
			<path fill="#CBDA2A" d="M157.6,40c-1.4,0.3-2.8,0.4-4.2,0.5c-0.6,0-1.2,0.1-1.8,0.1c-0.6,0-1.1-0.1-1.5-0.5
				c-1.2-1.1-2.5-2.2-3.8-3.3c-0.1-0.1-0.2-0.2-0.3-0.4c0.3-0.1,0.5-0.3,0.8-0.4c0.6-0.1,1.1-0.2,1.7-0.4c0.9-0.2,1.7-0.4,2.6-0.5
				c1.2-0.2,2.3,0,3.3,0.9c1.1,1.1,2.2,2.3,3.2,3.5C157.6,39.7,157.6,39.8,157.6,40"/>
			<path fill="#CBDA2A" d="M151.6,33.7c-0.4,0.2-0.6,0.3-0.8,0.4c-1.2,0.3-2.4,0.5-3.6,0.8c-0.2,0-0.4,0.1-0.6,0.2
				c-0.9,0.4-1.6,0.1-2.3-0.4l-4-3.1c-0.6-0.4-0.5-0.8,0.2-1.1c1.5-0.5,3.1-0.9,4.7-0.9c0.9,0,1.7,0.5,2.4,1
				c1.2,0.8,2.3,1.6,3.4,2.5C151.1,33.2,151.3,33.4,151.6,33.7"/>
			<path fill="#CBDA2A" d="M133.5,25.8c0.1-0.1,0.1-0.2,0.2-0.2c0.9-0.3,1.8-0.7,2.7-1c0.9-0.3,1.8-0.6,2.8-0.7
				c0.7-0.1,1.3,0.1,1.8,0.6c1,0.9,2.1,1.7,3.1,2.5c0.4,0.4,0.8,0.8,1.3,1.3c-0.4,0.1-0.6,0.2-0.9,0.3c-1.4,0.4-2.8,0.8-4.2,1.1
				c-0.9,0.2-1.8,0.2-2.5-0.4c-0.7-0.5-1.3-1-2-1.5c-0.6-0.5-1.3-1-1.9-1.5C133.8,26.2,133.7,26,133.5,25.8"/>
			<path fill="#CBDA2A" d="M138.7,22.7c-1.3,0.6-2.7,1-4,1.4c-0.6,0.2-1.2,0.3-1.7,0.5c-0.6,0.2-1.1,0.1-1.6-0.2
				c-1.4-0.8-2.9-1.6-4.4-2.4c-0.1-0.1-0.2-0.1-0.4-0.3c0.2-0.2,0.4-0.4,0.7-0.6c0.5-0.3,1-0.5,1.5-0.7c0.8-0.4,1.6-0.8,2.5-1.1
				c1.1-0.4,2.3-0.5,3.4,0.2c0.7,0.4,1.3,0.9,1.9,1.3c0.6,0.5,1.3,0.9,1.9,1.4C138.6,22.4,138.6,22.5,138.7,22.7"/>
			<path fill="#CBDA2A" d="M131.5,17.8c-0.3,0.3-0.5,0.5-0.7,0.6c-1.1,0.5-2.2,1.1-3.3,1.6c-0.2,0.1-0.4,0.2-0.5,0.3
				c-0.7,0.6-1.5,0.5-2.2,0.2c-1.5-0.6-3-1.2-4.6-1.8c-0.7-0.2-0.8-0.6-0.2-1c1.3-0.9,2.6-1.8,4.2-2.4c0.9-0.3,1.8,0,2.6,0.3
				c1.4,0.5,2.7,1,4,1.7C130.9,17.4,131.1,17.6,131.5,17.8"/>
			<path fill="#CBDA2A" d="M111.6,15.9c0.1-0.2,0.1-0.2,0.1-0.3c1.4-1.2,2.8-2.6,4.5-3.5c0.6-0.3,1.3-0.4,1.9-0.2
				c1.3,0.4,2.6,0.8,3.9,1.3c0.5,0.2,1,0.5,1.7,0.8c-0.3,0.2-0.5,0.4-0.7,0.5c-1.3,0.8-2.5,1.7-3.7,2.5c-0.8,0.5-1.6,0.8-2.5,0.6
				c-1.6-0.5-3.2-0.8-4.7-1.4C112,16.1,111.8,16,111.6,15.9"/>
			<path fill="#CBDA2A" d="M115.3,11.1c-1,1-2.1,1.9-3.2,2.7c-0.5,0.4-1,0.7-1.5,1c-0.5,0.4-1,0.5-1.6,0.4c-1.6-0.3-3.3-0.6-4.9-0.8
				c-0.1,0-0.2-0.1-0.5-0.1c0.2-0.3,0.3-0.5,0.4-0.7c0.4-0.4,0.8-0.8,1.2-1.2c0.6-0.6,1.3-1.2,2-1.8c0.9-0.8,2-1.2,3.3-0.9
				c1.5,0.3,3,0.8,4.5,1.2C115.1,10.9,115.2,11,115.3,11.1"/>
			<path fill="#CBDA2A" d="M106.9,9.1c-0.2,0.4-0.3,0.6-0.5,0.8c-0.9,0.9-1.7,1.7-2.6,2.6c-0.1,0.2-0.3,0.3-0.4,0.5
				c-0.5,0.8-1.2,1-2,0.9c-1.6-0.1-3.3-0.2-4.9-0.2c-0.7,0-0.9-0.3-0.5-0.9c0.9-1.3,1.9-2.6,3.2-3.6c0.7-0.6,1.7-0.6,2.5-0.6
				c1.4,0,2.9,0.1,4.3,0.2C106.3,8.9,106.5,9,106.9,9.1"/>
			<path fill="#CBDA2A" d="M87.8,13.9c0-0.2,0-0.2,0-0.3c0.9-1.7,1.6-3.5,3-4.9c0.5-0.5,1-0.8,1.8-0.8c1.4-0.1,2.8-0.1,4.2-0.1
				c0.6,0,1.2,0.1,1.9,0.2c-0.2,0.3-0.4,0.5-0.5,0.7c-0.9,1.2-1.8,2.3-2.7,3.5c-0.5,0.7-1.2,1.3-2.1,1.3c-1.6,0.1-3.2,0.3-4.8,0.3
				C88.3,13.9,88.1,13.9,87.8,13.9"/>
			<path fill="#CBDA2A" d="M89.6,8.1c-0.6,1.3-1.3,2.5-2,3.7c-0.3,0.5-0.6,1-1,1.5c-0.3,0.5-0.8,0.8-1.3,0.9c-1.6,0.3-3.3,0.7-4.9,1
				c-0.1,0-0.2,0-0.5,0c0.1-0.3,0.1-0.6,0.2-0.8c0.2-0.5,0.5-1,0.7-1.6c0.4-0.8,0.8-1.6,1.2-2.4c0.6-1.1,1.4-1.8,2.7-2
				c1.5-0.2,3.1-0.4,4.6-0.5C89.3,8,89.4,8,89.6,8.1"/>
			<path fill="#CBDA2A" d="M81,9.2c-0.1,0.4-0.1,0.7-0.2,0.9c-0.5,1.1-1,2.2-1.5,3.4c-0.1,0.2-0.2,0.4-0.2,0.6
				c-0.2,0.9-0.8,1.3-1.6,1.6c-1.6,0.4-3.2,0.9-4.8,1.4c-0.7,0.2-1,0-0.8-0.7c0.5-1.5,1-3,1.9-4.4c0.5-0.7,1.4-1.1,2.2-1.4
				c1.3-0.5,2.7-0.9,4.1-1.2C80.3,9.2,80.6,9.2,81,9.2"/>
			<path fill="#CBDA2A" d="M63.7,19.6c0-0.2-0.1-0.2-0.1-0.3c0.4-1.8,0.8-3.7,1.7-5.5c0.3-0.6,0.8-1,1.5-1.2
				c1.3-0.4,2.6-0.8,3.9-1.2c0.5-0.1,1.1-0.2,1.8-0.3c-0.1,0.4-0.2,0.6-0.3,0.9c-0.5,1.4-1,2.8-1.5,4.2C70.4,17,69.9,17.8,69,18
				c-1.6,0.5-3.1,1.1-4.7,1.5C64.1,19.6,63.9,19.6,63.7,19.6"/>
			<path fill="#CBDA2A" d="M63.8,19.6c0-0.2-0.1-0.2-0.1-0.3c0.4-1.8,0.8-3.7,1.7-5.5c0.3-0.6,0.8-1,1.5-1.2
				c1.3-0.4,2.6-0.8,3.9-1.2c0.5-0.1,1.1-0.2,1.8-0.3c-0.1,0.4-0.2,0.6-0.3,0.9c-0.5,1.4-1,2.8-1.5,4.2C70.5,17,70,17.7,69.1,18
				c-1.6,0.5-3.1,1.1-4.7,1.5C64.2,19.5,64,19.5,63.8,19.6"/>
			<path fill="#CBDA2A" d="M63.8,19.6c0-0.2-0.1-0.2-0.1-0.3c0.4-1.8,0.8-3.7,1.7-5.5c0.3-0.6,0.8-1,1.5-1.2
				c1.3-0.4,2.6-0.8,3.9-1.2c0.5-0.1,1.1-0.2,1.8-0.3c-0.1,0.4-0.2,0.6-0.3,0.9c-0.5,1.4-1,2.8-1.5,4.2C70.5,17,70,17.7,69.1,18
				c-1.6,0.5-3.1,1.1-4.7,1.5C64.2,19.5,64,19.5,63.8,19.6"/>
			<path fill="#CBDA2A" d="M64.1,13.5c-0.3,1.4-0.7,2.8-1.1,4.1c-0.2,0.6-0.4,1.1-0.6,1.7c-0.2,0.6-0.5,1-1,1.2
				c-1.4,0.7-2.8,1.5-4.3,2.4C57.1,23,57,23,56.7,23.1c0-0.3-0.1-0.6-0.1-0.9c0-0.6,0.1-1.1,0.2-1.7c0.1-0.9,0.2-1.8,0.4-2.6
				c0.2-1.2,0.9-2.2,2.1-2.8c1.5-0.7,3-1.2,4.4-1.6C63.9,13.4,64,13.5,64.1,13.5"/>
			<path fill="#CBDA2A" d="M56,16.9c0,0.4,0.1,0.7,0.1,0.9c-0.1,1.2-0.3,2.4-0.4,3.7c0,0.2-0.1,0.4-0.1,0.6c0.1,0.9-0.4,1.5-1.2,2
				l-2.1,1.3c-0.7,0.4-1.4,0.9-2,1.3c-0.6,0.4-0.9,0.2-0.9-0.5c0-1.6,0.1-3.2,0.6-4.7c0.3-0.9,1.1-1.4,1.7-1.9
				c1.1-0.8,2.2-1.6,3.4-2.3C55.3,17.2,55.6,17.1,56,16.9"/>
			<path fill="#CBDA2A" d="M43.1,31.7c-0.1-0.2-0.1-0.2-0.2-0.2c-0.2-1.9-0.5-3.8-0.2-5.7c0.1-0.7,0.4-1.2,1-1.7
				c1.1-0.8,2.2-1.6,3.4-2.4c0.5-0.3,1-0.5,1.7-0.8c0,0.4,0,0.7,0,0.9c-0.1,1.5-0.2,3-0.2,4.4c0,0.9-0.3,1.8-1,2.3
				c-1.3,1-2.5,2.1-3.9,2.9C43.4,31.6,43.3,31.6,43.1,31.7"/>
			<path fill="#CBDA2A" d="M41.4,25.9c0.2,1.4,0.3,2.8,0.3,4.2c0,0.6,0,1.2,0,1.8c0,0.6-0.2,1.1-0.6,1.5c-1.2,1.1-2.5,2.3-3.7,3.5
				c-0.1,0.1-0.2,0.1-0.4,0.3c-0.1-0.3-0.3-0.5-0.3-0.8c-0.1-0.6-0.1-1.1-0.2-1.7c-0.1-0.9-0.2-1.8-0.2-2.7
				c-0.1-1.2,0.2-2.3,1.2-3.2c1.2-1,2.4-2,3.6-2.9C41.1,25.9,41.2,25.9,41.4,25.9"/>
			<path fill="#CBDA2A" d="M34.8,31.4c0.2,0.4,0.3,0.6,0.3,0.9c0.2,1.2,0.3,2.4,0.5,3.7c0,0.2,0,0.4,0.1,0.6c0.3,0.9,0,1.6-0.6,2.2
				c-1.1,1.2-2.2,2.4-3.2,3.7c-0.4,0.5-0.8,0.5-1-0.2c-0.5-1.5-0.8-3.1-0.8-4.7c0-0.9,0.6-1.7,1.1-2.4C32.1,34,33.1,33,34,32
				C34.2,31.8,34.4,31.7,34.8,31.4"/>
			<path fill="#CBDA2A" d="M26.5,49.4c-0.1-0.1-0.2-0.1-0.2-0.2c-0.7-1.7-1.6-3.4-1.9-5.4c-0.1-0.7,0-1.3,0.5-1.9
				c0.8-1.1,1.7-2.2,2.6-3.3c0.4-0.4,0.8-0.8,1.4-1.3c0.1,0.4,0.2,0.6,0.2,0.9c0.3,1.5,0.7,2.9,1.1,4.3c0.2,0.9,0.2,1.8-0.3,2.5
				c-1,1.3-1.8,2.7-2.8,4C26.8,49.1,26.7,49.2,26.5,49.4"/>
			<path fill="#CBDA2A" d="M23.1,44.3c0.6,1.3,1.2,2.6,1.6,3.9c0.2,0.6,0.4,1.1,0.6,1.7c0.2,0.6,0.2,1.1-0.1,1.6
				c-0.8,1.5-1.5,3-2.2,4.5c0,0.1-0.1,0.2-0.3,0.4c-0.2-0.2-0.4-0.4-0.6-0.6c-0.3-0.5-0.5-1-0.8-1.5c-0.4-0.8-0.8-1.6-1.2-2.4
				c-0.5-1.1-0.5-2.3,0.1-3.4c0.8-1.4,1.6-2.6,2.5-3.9C22.9,44.5,22.9,44.5,23.1,44.3"/>
			<path fill="#CBDA2A" d="M18.6,51.8c0.3,0.3,0.5,0.5,0.6,0.7c0.6,1.1,1.1,2.2,1.7,3.3c0.1,0.2,0.2,0.4,0.3,0.5
				c0.6,0.7,0.6,1.4,0.3,2.2c-0.6,1.5-1.1,3.1-1.6,4.7c-0.2,0.7-0.6,0.8-1,0.2c-1-1.3-1.9-2.6-2.5-4.1c-0.3-0.9-0.1-1.8,0.2-2.6
				c0.4-1.4,0.9-2.7,1.5-4C18.2,52.4,18.4,52.2,18.6,51.8"/>
			<path fill="#CBDA2A" d="M17.1,71.6c-0.2-0.1-0.2-0.1-0.3-0.1c-1.2-1.5-2.6-2.8-3.5-4.5c-0.3-0.6-0.4-1.2-0.2-1.9
				c0.4-1.3,0.8-2.6,1.2-3.9c0.2-0.5,0.5-1,0.8-1.7c0.2,0.3,0.4,0.5,0.5,0.7c0.8,1.2,1.7,2.4,2.5,3.6c0.5,0.7,0.8,1.6,0.6,2.5
				c-0.5,1.6-0.8,3.2-1.4,4.8C17.3,71.2,17.2,71.4,17.1,71.6"/>
			<path fill="#CBDA2A" d="M12.3,67.8c1,1,1.9,2.1,2.7,3.2c0.4,0.5,0.7,1,1.1,1.4c0.4,0.5,0.5,1,0.4,1.6c-0.3,1.6-0.5,3.3-0.7,5
				c0,0.1-0.1,0.2-0.1,0.5c-0.3-0.2-0.5-0.3-0.7-0.4c-0.4-0.4-0.8-0.8-1.2-1.2c-0.6-0.6-1.3-1.3-1.9-1.9c-0.8-0.9-1.3-2-1-3.3
				c0.2-0.8,0.3-1.5,0.6-2.3c0.2-0.8,0.4-1.5,0.6-2.2C12.1,68,12.2,68,12.3,67.8"/>
			<path fill="#CBDA2A" d="M10.3,76.3c0.4,0.2,0.6,0.3,0.8,0.5c0.9,0.9,1.8,1.7,2.7,2.5c0.2,0.1,0.3,0.3,0.5,0.4
				c0.8,0.5,1,1.2,0.9,2.1c-0.1,1.6-0.2,3.3-0.3,4.9c0,0.7-0.3,0.9-0.9,0.5c-1.3-0.9-2.5-2-3.5-3.3c-0.5-0.7-0.5-1.7-0.5-2.5
				c0-1.4,0.1-2.8,0.2-4.2C10.1,77,10.2,76.7,10.3,76.3"/>
			<path fill="#CBDA2A" d="M14.8,95.8c-0.2,0-0.2,0-0.3,0c-1.7-0.9-3.4-1.7-4.8-3c-0.5-0.5-0.8-1.1-0.8-1.8c0-1.4,0-2.8,0-4.2
				c0-0.6,0.2-1.2,0.3-1.8c0.3,0.2,0.5,0.4,0.7,0.6c1.1,1,2.3,1.8,3.5,2.8c0.7,0.6,1.3,1.3,1.3,2.2c0,1.6,0.2,3.2,0.2,4.8
				C14.9,95.4,14.8,95.6,14.8,95.8"/>
			<path fill="#CBDA2A" d="M14.8,95.7c-0.2,0-0.2,0-0.3,0c-1.7-0.9-3.4-1.7-4.8-3c-0.5-0.5-0.8-1.1-0.8-1.8c0-1.4,0-2.8,0-4.2
				c0-0.6,0.2-1.1,0.3-1.8c0.3,0.2,0.5,0.4,0.7,0.6c1.1,1,2.3,1.9,3.4,2.8c0.7,0.6,1.3,1.3,1.3,2.2c0,1.6,0.2,3.2,0.2,4.8
				C14.8,95.3,14.8,95.5,14.8,95.7"/>
			<path fill="#CBDA2A" d="M14.8,95.7c-0.2,0-0.2,0-0.3,0c-1.7-0.9-3.4-1.7-4.8-3c-0.5-0.5-0.8-1.1-0.8-1.8c0-1.4,0-2.8,0-4.2
				c0-0.6,0.2-1.1,0.3-1.8c0.3,0.2,0.5,0.4,0.7,0.6c1.1,1,2.3,1.9,3.4,2.8c0.7,0.6,1.3,1.3,1.3,2.2c0,1.6,0.2,3.2,0.2,4.8
				C14.8,95.3,14.8,95.5,14.8,95.7"/>
			<path fill="#CBDA2A" d="M9,93.9c1.3,0.6,2.5,1.4,3.7,2.1c0.5,0.3,1,0.6,1.5,1c0.5,0.3,0.8,0.8,0.9,1.3c0.3,1.6,0.7,3.3,1.1,5
				c0,0.1,0,0.2,0,0.5c-0.3-0.1-0.6-0.1-0.8-0.2c-0.5-0.2-1-0.5-1.6-0.7c-0.8-0.4-1.6-0.8-2.4-1.2c-1.1-0.6-1.9-1.4-2.1-2.7
				c-0.3-1.6-0.4-3.1-0.5-4.7C8.9,94.1,8.9,94,9,93.9"/>
			<path fill="#CBDA2A" d="M10.1,102.5c0.4,0.1,0.7,0.1,0.9,0.2c1.1,0.5,2.2,1,3.4,1.5c0.2,0.1,0.4,0.2,0.6,0.2
				c0.9,0.2,1.3,0.8,1.6,1.6c0.4,1.6,0.9,3.2,1.5,4.7c0.2,0.7,0,1-0.7,0.8c-1.5-0.4-3.1-0.9-4.4-1.8c-0.7-0.5-1.1-1.4-1.4-2.2
				c-0.5-1.3-0.9-2.7-1.3-4.1C10.2,103.2,10.2,103,10.1,102.5"/>
			<path fill="#CBDA2A" d="M20.8,119.1c-0.2,0.1-0.2,0.1-0.3,0.1c-1.8-0.4-3.8-0.6-5.5-1.5c-0.6-0.3-1.1-0.8-1.3-1.4
				c-0.5-1.3-0.9-2.6-1.3-3.9c-0.2-0.6-0.2-1.1-0.4-1.8c0.4,0.1,0.6,0.2,0.9,0.3c1.4,0.5,2.8,0.9,4.2,1.4c0.9,0.3,1.6,0.8,1.9,1.6
				c0.6,1.5,1.3,3,1.7,4.6C20.8,118.7,20.8,118.9,20.8,119.1"/>
			<path fill="#CBDA2A" d="M14.7,119.1c1.4,0.2,2.8,0.5,4.1,0.9c0.6,0.2,1.2,0.4,1.7,0.5c0.6,0.2,1,0.6,1.3,1.1
				c0.7,1.5,1.5,3,2.3,4.5c0.1,0.1,0.1,0.2,0.2,0.5c-0.3,0-0.6,0.1-0.9,0.1c-0.6-0.1-1.1-0.2-1.7-0.3c-0.9-0.2-1.8-0.3-2.6-0.5
				c-1.2-0.3-2.2-0.9-2.7-2.1c-0.6-1.4-1.2-2.8-1.7-4.3C14.7,119.3,14.7,119.2,14.7,119.1"/>
			<path fill="#CBDA2A" d="M18.1,127c0.4,0,0.7-0.1,0.9-0.1c1.2,0.2,2.4,0.4,3.6,0.6c0.2,0,0.4,0.1,0.6,0.1c0.9,0,1.5,0.4,1.9,1.2
				c0.8,1.4,1.7,2.8,2.6,4.2c0.4,0.6,0.2,0.9-0.5,0.9c-1.6,0-3.2-0.1-4.7-0.6c-0.9-0.3-1.4-1-1.9-1.8c-0.8-1.2-1.5-2.4-2.2-3.6
				C18.3,127.6,18.2,127.4,18.1,127"/>
			<path fill="#CBDA2A" d="M32.8,140.3c-0.2,0.1-0.2,0.1-0.2,0.2c-1.9,0.2-3.8,0.5-5.7,0.2c-0.7-0.1-1.2-0.4-1.7-1
				c-0.8-1.1-1.6-2.2-2.3-3.4c-0.3-0.5-0.5-1-0.8-1.7c0.4,0,0.7,0,0.9,0c1.5,0.1,3,0.2,4.4,0.2c0.9,0.1,1.8,0.3,2.3,1
				c1,1.3,2,2.5,2.9,3.9C32.6,139.9,32.7,140.1,32.8,140.3"/>
			<path fill="#CBDA2A" d="M27,141.9c1.4-0.2,2.8-0.3,4.2-0.3c0.6,0,1.2,0,1.8,0c0.6,0,1.1,0.2,1.5,0.6l0.9,0.9l0.5,0.5
				c0.1,0.1,0.4,0.4,0.5,0.6l1.7,2c0.1,0.1,0.1,0.2,0.2,0.4c-0.3,0.1-0.5,0.2-0.8,0.3c-0.6,0.1-1.1,0.1-1.7,0.1
				c-0.9,0-1.8,0-2.7,0.1c-1.1,0.1-2.2-0.2-3.1-1.1c-1-1.2-2-2.4-2.9-3.6C27,142.2,27,142.1,27,141.9"/>
			<path fill="#CBDA2A" d="M32.3,148.4c0.4-0.1,0.6-0.2,0.9-0.3c1.2-0.1,2.5-0.1,3.7-0.2c0.2,0,0.4,0,0.6-0.1
				c0.4-0.1,0.8-0.2,1.1-0.1c0.2,0,0.3,0.1,0.4,0.1c0.1,0,0.1,0.1,0.2,0.1c0.1,0.1,0.2,0.1,0.3,0.2c1.3,1,2.7,2.1,4,3.1
				c0.6,0.4,0.6,0.8-0.1,1.1c-1.5,0.5-3.1,1-4.7,1c-0.9,0-1.7-0.5-2.4-0.9l-0.4-0.3c-0.1-0.1-0.3-0.2-0.5-0.4
				c-0.3-0.3-0.7-0.6-0.9-0.8c-0.6-0.6-1.1-1.1-1.6-1.7C32.6,149,32.5,148.7,32.3,148.4"/>
			<path fill="#CBDA2A" d="M50.5,156.4c-0.1,0.1-0.1,0.2-0.2,0.2c-1.7,0.8-3.4,1.7-5.3,2.1c-0.7,0.1-1.3,0-1.9-0.4
				c-1.1-0.8-2.2-1.6-3.3-2.4c-0.4-0.4-0.8-0.8-1.3-1.3c0.4-0.1,0.6-0.2,0.9-0.3c1.4-0.4,2.8-0.8,4.2-1.2c0.9-0.2,1.8-0.3,2.5,0.2
				c1.3,0.9,2.7,1.7,4,2.7C50.2,156.1,50.3,156.2,50.5,156.4"/>
			<path fill="#CBDA2A" d="M45.5,159.9c1.3-0.7,2.6-1.2,3.9-1.7c0.6-0.2,1.1-0.4,1.7-0.6c0.6-0.2,1.1-0.2,1.6,0
				c1.5,0.7,2.9,1.3,4.5,1.8c0.1,0,0.2,0.1,0.4,0.2c-0.2,0.2-0.4,0.5-0.6,0.6c-0.4,0.3-0.9,0.7-1.4,1c-0.7,0.5-1.5,0.9-2.3,1.3
				c-1.1,0.6-2.3,0.7-3.5,0.1c-1.4-0.7-2.7-1.6-4.1-2.4C45.7,160.2,45.6,160.1,45.5,159.9"/>
			<path fill="#CBDA2A" d="M53.3,164.2c0.3-0.3,0.5-0.5,0.7-0.7c1.1-0.6,2.1-1.3,3.1-2.1c0.2-0.1,0.4-0.2,0.6-0.3
				c0.8-0.6,1.8-0.4,2.4-0.2l4.7,1.8c0.7,0.3,0.8,0.6,0.2,1.1c-1.3,0.9-2.7,1.8-4.2,2.3c-0.8,0.3-1.7,0-2.5-0.2
				c-0.8-0.3-1.5-0.5-1.9-0.7l-0.3-0.1l-0.5-0.2c-0.4-0.1-0.7-0.2-1.1-0.3C53.9,164.5,53.7,164.4,53.3,164.2"/>
			<path fill="#CBDA2A" d="M73.2,165.9c-0.1,0.2-0.1,0.2-0.1,0.3c-1.4,1.3-2.8,2.6-4.5,3.5c-0.7,0.3-1.3,0.3-2,0.1
				c-1.3-0.5-2.6-0.9-3.8-1.4c-0.5-0.2-1-0.5-1.6-0.8c0.3-0.2,0.5-0.4,0.7-0.5c1.2-0.8,2.5-1.6,3.7-2.4c0.8-0.5,1.6-0.8,2.5-0.5
				c1.5,0.5,3.1,0.9,4.6,1.5C72.8,165.7,73,165.8,73.2,165.9"/>
			<path fill="#CBDA2A" d="M73.1,165.9c-0.1,0.2-0.1,0.2-0.1,0.3c-1.4,1.3-2.8,2.6-4.5,3.5c-0.6,0.3-1.3,0.3-2,0.1
				c-1.3-0.5-2.6-0.9-3.8-1.4c-0.5-0.2-1-0.5-1.6-0.8c0.3-0.2,0.5-0.4,0.7-0.5c1.2-0.8,2.5-1.6,3.7-2.4c0.8-0.5,1.6-0.7,2.5-0.5
				c1.5,0.5,3.1,0.9,4.6,1.5C72.8,165.7,72.9,165.8,73.1,165.9"/>
			<path fill="#CBDA2A" d="M73.1,165.9c-0.1,0.2-0.1,0.2-0.1,0.3c-1.4,1.3-2.8,2.6-4.5,3.5c-0.6,0.3-1.3,0.3-2,0.1
				c-1.3-0.5-2.6-0.9-3.8-1.4c-0.5-0.2-1-0.5-1.6-0.8c0.3-0.2,0.5-0.4,0.7-0.5c1.2-0.8,2.5-1.6,3.7-2.4c0.8-0.5,1.6-0.7,2.5-0.5
				c1.5,0.5,3.1,0.9,4.6,1.5C72.8,165.7,72.9,165.8,73.1,165.9"/>
			<path fill="#CBDA2A" d="M69.3,170.7c1.1-1,2.2-1.9,3.2-2.7c0.5-0.4,1-0.7,1.4-1.1c0.5-0.4,1-0.5,1.5-0.4c1.6,0.2,3.3,0.4,5,0.6
				c0.1,0,0.2,0.1,0.5,0.1c-0.2,0.3-0.3,0.5-0.4,0.7c-0.4,0.4-0.8,0.8-1.2,1.2c-0.6,0.6-1.2,1.3-1.9,1.9c-0.9,0.8-1.9,1.3-3.2,1.1
				c-1.6-0.3-3.1-0.7-4.6-1.2C69.5,170.9,69.5,170.8,69.3,170.7"/>
			<path fill="#CBDA2A" d="M77.9,172.5c0.2-0.4,0.3-0.6,0.5-0.8c0.8-0.9,1.7-1.8,2.5-2.7c0.1-0.2,0.3-0.3,0.4-0.5
				c0.5-0.8,1.2-1,2.1-0.9c1.7,0.1,3.3,0.2,5,0.3c0.7,0,0.9,0.4,0.5,0.9c-1,1.3-2,2.5-3.3,3.5c-0.7,0.5-1.7,0.6-2.5,0.6
				c-1.4,0-2.8-0.1-4.2-0.2C78.6,172.7,78.4,172.6,77.9,172.5"/>
			<path fill="#CBDA2A" d="M97.1,168.3c0,0.2,0,0.2,0,0.3c-0.9,1.6-1.8,3.3-3.3,4.7c-0.5,0.5-1.2,0.7-1.8,0.7
				c-1.3-0.1-2.7-0.1-4-0.2c-0.6,0-1.1-0.2-1.8-0.3c0.2-0.3,0.4-0.5,0.5-0.7c0.9-1.1,1.8-2.3,2.8-3.4c0.6-0.7,1.3-1.2,2.3-1.2l1.2,0
				l1.2,0c0.8,0,1.6,0,2.4,0.1C96.7,168.2,96.9,168.3,97.1,168.3"/>
			<path fill="#CBDA2A" d="M95,174c0.7-1.3,1.5-2.4,2.3-3.6c0.3-0.5,0.7-1,1-1.5c0.3-0.5,0.8-0.8,1.3-0.9c1.6-0.3,3.2-0.6,4.8-1
				c0.1,0,0.2,0,0.5,0c0,0.3,0,0.6-0.1,0.8c-0.2,0.5-0.5,1-0.7,1.6c-0.4,0.8-0.8,1.6-1.2,2.4c-0.6,1.1-1.5,1.8-2.8,2
				c-1.6,0.2-3.2,0.3-4.7,0.3C95.2,174.1,95.2,174.1,95,174"/>
			<path fill="#CBDA2A" d="M103.8,173.2c0.1-0.4,0.1-0.7,0.2-0.9c0.5-1.1,1-2.3,1.5-3.4c0.1-0.2,0.2-0.4,0.2-0.6
				c0.2-0.9,0.8-1.4,1.5-1.6c1.5-0.5,3.1-1.1,4.6-1.7c0.6-0.3,1-0.1,0.8,0.7c-0.3,1.5-0.7,3.1-1.6,4.5c-0.5,0.8-1.3,1.2-2.2,1.5
				c-1.3,0.5-2.7,1-4.1,1.3C104.5,173.1,104.2,173.1,103.8,173.2"/>
			<path fill="#CBDA2A" d="M120.5,161.8c0,0.2,0.1,0.2,0.1,0.3c-0.5,1.9-0.8,3.8-1.5,5.5c-0.3,0.7-0.7,1.1-1.3,1.3
				c-1.2,0.5-2.5,1-3.7,1.5c-0.5,0.2-1.1,0.3-1.8,0.5c0.1-0.4,0.1-0.6,0.2-0.9c0.4-1.4,0.8-2.9,1.1-4.3c0.2-0.9,0.7-1.7,1.6-2
				c1.6-0.7,3.1-1.4,4.8-1.9C120.1,161.9,120.3,161.9,120.5,161.8"/>
			<path fill="#CBDA2A" d="M120.3,167.9c0.2-1.4,0.5-2.8,0.9-4.1c0.2-0.6,0.4-1.1,0.7-1.7c0.2-0.6,0.7-1,1.2-1.2
				c1.5-0.6,3.1-1.2,4.6-1.9c0.1-0.1,0.2-0.1,0.5-0.1c0,0.3,0.1,0.6,0,0.9c-0.1,0.6-0.2,1.1-0.4,1.7c-0.2,0.9-0.4,1.7-0.7,2.6
				c-0.4,1.2-1.1,2.1-2.3,2.5c-1.4,0.5-2.7,0.9-4.1,1.4C120.6,168,120.5,167.9,120.3,167.9"/>
			<path fill="#CBDA2A" d="M128.2,165.1c0-0.4,0-0.7,0-0.9c0.3-1.2,0.6-2.4,0.8-3.6c0-0.2,0.1-0.4,0.1-0.6c0-0.9,0.5-1.5,1.2-1.9
				c1.4-0.8,2.8-1.6,4.1-2.5c0.6-0.4,0.9-0.3,0.9,0.5c0,1.6-0.1,3.2-0.6,4.7c-0.3,0.9-1.1,1.4-1.8,1.9c-1.2,0.8-2.5,1.5-3.8,2.1
				C128.9,164.9,128.6,165,128.2,165.1"/>
			<path fill="#CBDA2A" d="M141.5,150.4c0.1,0.2,0.2,0.2,0.2,0.2c0.2,1.9,0.5,3.8,0.3,5.7c-0.1,0.7-0.4,1.2-1,1.7
				c-1.1,0.9-2.2,1.7-3.4,2.5c-0.5,0.3-1,0.5-1.7,0.9c0-0.4,0-0.7,0-0.9c0.1-1.5,0.2-3,0.2-4.4c0-0.9,0.3-1.7,1-2.3
				c1.2-1,2.5-2.2,3.9-3.1C141.1,150.6,141.3,150.5,141.5,150.4"/>
			<path fill="#CBDA2A" d="M143.2,156.2c-0.3-1.4-0.4-2.8-0.4-4.2c0-0.6,0-1.2,0-1.8c0-0.6,0.2-1.1,0.6-1.5c1.2-1.2,2.4-2.3,3.6-3.5
				c0.1-0.1,0.2-0.2,0.4-0.3c0.1,0.3,0.3,0.5,0.3,0.8c0.1,0.6,0.2,1.1,0.3,1.7c0.1,0.9,0.2,1.8,0.3,2.7c0.1,1.2-0.2,2.3-1.2,3.2
				c-1.1,1-2.3,2-3.5,2.9C143.5,156.2,143.4,156.2,143.2,156.2"/>
			<path fill="#CBDA2A" d="M149.8,150.6c-0.2-0.4-0.3-0.6-0.3-0.9c-0.2-1.2-0.4-2.4-0.6-3.6c0-0.2-0.1-0.4-0.1-0.6
				c-0.3-0.9-0.1-1.5,0.4-2.2c1-1.2,2-2.5,2.8-3.8c0.4-0.6,0.8-0.6,1,0.1c0.3,0.7,0.6,1.5,0.8,2.2c0.2,0.8,0.4,1.6,0.4,2.4
				c0,0.9-0.5,1.7-1,2.5c-0.8,1.2-1.8,2.3-2.8,3.4C150.3,150.2,150.1,150.4,149.8,150.6"/>
			<path fill="#CBDA2A" d="M157.1,131.6c0.1,0.1,0.2,0.1,0.2,0.2c0.8,1.7,1.8,3.4,2.2,5.3c0.2,0.7,0.1,1.3-0.3,1.9l-1,1.7
				c-0.4,0.6-0.7,1.2-1.1,1.8c-0.3,0.5-0.8,0.9-1.2,1.5c-0.1-0.4-0.2-0.6-0.3-0.9c-0.4-1.4-1-2.8-1.5-4.1c-0.3-0.8-0.5-1.7,0-2.5
				c0.8-1.5,1.6-3,2.6-4.4C156.7,131.9,156.9,131.8,157.1,131.6"/>
			<path fill="#CBDA2A" d="M157,131.7c0.1,0.1,0.2,0.1,0.2,0.2c0.8,1.7,1.8,3.4,2.2,5.3c0.2,0.7,0.1,1.3-0.3,1.9
				c-0.3,0.6-0.6,1.1-1,1.8c-0.4,0.6-0.7,1.2-1.1,1.8c-0.3,0.5-0.8,0.9-1.2,1.5c-0.1-0.4-0.2-0.6-0.3-0.9c-0.4-1.4-1-2.8-1.5-4.2
				c-0.3-0.8-0.5-1.7,0-2.5c0.8-1.5,1.6-3,2.6-4.4C156.7,132,156.8,131.9,157,131.7"/>
		</g>
	</g>
</g>
<g>
	<defs>
		<circle id="SVGID_3_" cx="92.4" cy="91.3" r="76.9"/>
	</defs>
	<clipPath id="SVGID_4_">
		<use xlink:href="#SVGID_3_"  overflow="visible"/>
	</clipPath>
	<g clip-path="url(#SVGID_4_)">
		<path fill="#2C446C" d="M123.5,184.5h-1.9c-7.5,0-13.6-6.1-13.6-13.6v-45.3c0-7.5,6.1-13.6,13.6-13.6h1.9
			c7.5,0,13.6,6.1,13.6,13.6v45.3C137.1,178.4,131,184.5,123.5,184.5z"/>
		<g>
			<path fill="#2C446C" d="M159.6,134.3L159.6,134.3c-5.5,0-10.1,5.9-10.1,13v19.5c0,7.2,4.5,13,10.1,13h0c0.2,0,0.4,0,0.6,0v-45.5
				C160,134.3,159.8,134.3,159.6,134.3z"/>
			<path fill="#233955" d="M160.2,134.4v45.5c5.3-0.4,9.5-6.1,9.5-13v-19.5C169.7,140.5,165.5,134.8,160.2,134.4z"/>
			<path fill="#2C446C" d="M160.2,113.9c-2.9,0-5.2,3-5.2,6.8v6.6c0,3.7,2.4,6.8,5.2,6.8l0,0V113.9L160.2,113.9z"/>
			<path fill="#233955" d="M165.5,127.3v-6.6c0-3.7-2.4-6.8-5.2-6.8h0v20.1h0C163.1,134.1,165.5,131.1,165.5,127.3z"/>
		</g>
		<g>
			<path fill="#2C446C" d="M141.6,125.7L141.6,125.7c-7.5,0-13.6,7.9-13.6,17.6v26.3c0,9.7,6.1,17.6,13.6,17.6h0c0.3,0,0.6,0,0.8,0
				v-61.4C142.2,125.7,141.9,125.7,141.6,125.7z"/>
			<path fill="#233955" d="M142.5,125.7v61.4c7.1-0.6,12.8-8.2,12.8-17.5v-26.3C155.2,134,149.6,126.3,142.5,125.7z"/>
			<path fill="#233955" d="M149.5,116.4v-11.8c0-4.3-2.7-7.7-6-7.7h-1.1v27.2h1.1C146.8,124.2,149.5,120.7,149.5,116.4z"/>
			<path fill="#2C446C" d="M141.4,97c-3.3,0-6,3.5-6,7.7v11.8c0,4.3,2.7,7.7,6,7.7h1.1V97H141.4z"/>
		</g>
		<g>
			<path fill="#2C446C" d="M77.9,131L77.9,131c5.5,0,9.9,5.9,9.9,13v19.5c0,7.2-4.5,13-9.9,13h0c-0.2,0-0.4,0-0.6,0v-45.5
				C77.4,131,77.6,131,77.9,131z"/>
			<path fill="#233955" d="M77.2,131.1v45.5c-5.2-0.4-9.3-6.1-9.3-13V144C67.9,137.2,72.1,131.5,77.2,131.1z"/>
			<path fill="#2C446C" d="M77.2,110.6c2.8,0,5.2,3,5.2,6.8v6.6c0,3.7-2.3,6.8-5.2,6.8l0,0V110.6L77.2,110.6z"/>
			<path fill="#233955" d="M72.1,124v-6.6c0-3.7,2.3-6.8,5.2-6.8h0v20.1h0C74.4,130.8,72.1,127.8,72.1,124z"/>
		</g>
		<g>
			<path fill="#2C446C" d="M95.6,122.4L95.6,122.4c7.4,0,13.4,7.9,13.4,17.6v26.3c0,9.7-6,17.6-13.4,17.6h0c-0.3,0-0.6,0-0.8,0
				v-61.4C95,122.4,95.3,122.4,95.6,122.4z"/>
			<path fill="#233955" d="M94.7,122.4v61.4c-7-0.6-12.6-8.2-12.6-17.5V140C82.2,130.7,87.7,123,94.7,122.4z"/>
			<path fill="#233955" d="M87.8,113.1v-11.8c0-4.3,2.7-7.7,5.9-7.7h1.1v27.2h-1.1C90.4,120.9,87.8,117.4,87.8,113.1z"/>
			<path fill="#2C446C" d="M95.8,93.6c3.2,0,5.9,3.5,5.9,7.7v11.8c0,4.3-2.7,7.7-5.9,7.7h-1.1V93.6H95.8z"/>
		</g>
		<g>
			<path fill="#2C446C" d="M43.3,128.9L43.3,128.9c5.5,0,9.9,5.9,9.9,13v19.5c0,7.2-4.5,13-9.9,13h0c-0.2,0-0.4,0-0.6,0V129
				C42.9,128.9,43.1,128.9,43.3,128.9z"/>
			<path fill="#233955" d="M42.7,129v45.5c-5.2-0.4-9.3-6.1-9.3-13v-19.5C33.4,135.1,37.5,129.4,42.7,129z"/>
			<path fill="#2C446C" d="M42.7,108.5c2.8,0,5.2,3,5.2,6.8v6.6c0,3.7-2.3,6.8-5.2,6.8h0L42.7,108.5L42.7,108.5z"/>
			<path fill="#233955" d="M37.5,121.9v-6.6c0-3.7,2.3-6.8,5.2-6.8h0v20.1h0C39.9,128.7,37.5,125.6,37.5,121.9z"/>
		</g>
		<g>
			<path fill="#2C446C" d="M61,120.3L61,120.3c7.4,0,13.4,7.9,13.4,17.6v26.3c0,9.7-6,17.6-13.4,17.6h0c-0.3,0-0.6,0-0.8,0v-61.4
				C60.5,120.3,60.7,120.3,61,120.3z"/>
			<path fill="#233955" d="M60.2,120.3v61.4c-7-0.6-12.6-8.2-12.6-17.5v-26.3C47.6,128.6,53.2,120.9,60.2,120.3z"/>
			<path fill="#233955" d="M53.2,111V99.3c0-4.3,2.7-7.7,5.9-7.7h1.1v27.2h-1.1C55.9,118.8,53.2,115.3,53.2,111z"/>
			<path fill="#2C446C" d="M61.2,91.5c3.2,0,5.9,3.5,5.9,7.7V111c0,4.3-2.7,7.7-5.9,7.7h-1.1V91.5H61.2z"/>
		</g>
		<g>
			<path fill="#2C446C" d="M19.6,141.1L19.6,141.1c3.9,0,7.1,4.2,7.1,9.4v14c0,5.1-3.2,9.4-7.1,9.4h0c-0.1,0-0.3,0-0.4,0v-32.7
				C19.3,141.1,19.5,141.1,19.6,141.1z"/>
			<path fill="#233955" d="M19.2,141.1v32.7c-3.7-0.3-6.7-4.4-6.7-9.3v-14C12.5,145.5,15.5,141.4,19.2,141.1z"/>
			<path fill="#2C446C" d="M19.2,126.4c2,0,3.7,2.2,3.7,4.9v4.8c0,2.7-1.7,4.9-3.7,4.9h0L19.2,126.4L19.2,126.4z"/>
			<path fill="#233955" d="M15.5,136.1v-4.8c0-2.7,1.7-4.9,3.7-4.9h0v14.5h0C17.2,140.9,15.5,138.7,15.5,136.1z"/>
		</g>
		<g>
			<path fill="#2C446C" d="M32.4,134.9L32.4,134.9c5.3,0,9.6,5.7,9.6,12.6v18.9c0,6.9-4.3,12.6-9.6,12.6h0c-0.2,0-0.4,0-0.6,0v-44.2
				C32,134.9,32.2,134.9,32.4,134.9z"/>
			<path fill="#233955" d="M31.8,134.9v44.2c-5-0.4-9-5.9-9-12.6v-18.9C22.7,140.8,26.7,135.3,31.8,134.9z"/>
			<path fill="#233955" d="M26.8,128.2v-8.5c0-3.1,1.9-5.6,4.2-5.6h0.8v19.6H31C28.7,133.8,26.8,131.3,26.8,128.2z"/>
			<path fill="#2C446C" d="M32.5,114.2c2.3,0,4.2,2.5,4.2,5.6v8.5c0,3.1-1.9,5.6-4.2,5.6h-0.8v-19.6H32.5z"/>
		</g>
	</g>
	<path clip-path="url(#SVGID_4_)" fill="#6B6B6B" d="M118.4,59.8c-1-1.3-2.6-2.2-4.4-2.2c-2.9,0-5.2,2.2-5.6,5L118.4,59.8z"/>
	<path clip-path="url(#SVGID_4_)" fill="#939494" d="M116.2,59.7c1.2,0.1,2.4,0.6,3.3,1.4l0.1,0c-1-1.3-2.6-2.2-4.4-2.2
		c-2.9,0-5.2,2.2-5.6,5l0,0C110.4,61.1,113.1,59.3,116.2,59.7z"/>
	<path clip-path="url(#SVGID_4_)" fill="#858585" d="M122.2,64.1C122.2,64.1,122.2,64.1,122.2,64.1c-0.6-0.3-4-1.7-6.9-1.7
		c-3.8,0-5.7,1.2-5.7,1.2s0.2-3.2,3.4-4s5.3,0.1,7.2,1.8"/>
	<path clip-path="url(#SVGID_4_)" fill="#858585" d="M109.2,62.4c0,0-0.7-1.3-2.4-1.1c-1.7,0.1-1.9,0.4-1.9,0.4s-1.4,0.9-1.9,1.9
		c-0.4,1-0.6,1.4-0.6,1.4s1.2-2.1,3.2-2.7S109.2,62.4,109.2,62.4z"/>
	<path clip-path="url(#SVGID_4_)" fill="#939494" d="M109.4,61.3c0,0,0.5-1.7,1.8-2.5c1.3-0.7,3-1.1,3-1.1s-1.5-0.2-3.2,0.8
		C109.3,59.6,109.4,61.3,109.4,61.3z"/>
	<g clip-path="url(#SVGID_4_)">
		<polygon fill="#B8B8B8" points="62.7,98.5 56.5,96.6 51.8,97.3 56.7,102.5 		"/>
		<polygon fill="#B7C7D3" points="121.7,88.5 112.5,86.8 105.9,90 110.5,97.3 		"/>
		<path fill="#1093B2" d="M70.9,137.7l0.9,1.9c0,0,2.4,0.2,2.7,0c0.4-0.2,0.7,0,0.7,0v-1.9H70.9z"/>
		<path fill="#D2D2D2" d="M86.3,140.4l0.9,1.9c0,0,2.4,0.2,2.7,0c0.4-0.2,0.7,0,0.7,0l0.6-1.9H86.3z"/>
		<path fill="#DFA780" d="M74.5,141.1c0,0,0.8,3.6,0.3,5c-0.4,1.4-1.2,2.6-1.2,2.6h-0.9l-0.8,0.7c-0.8-0.5,0-1.4,0-1.4
			s1.1-1.3,0.8-2.8c-0.1-0.4-1-0.7-1.1,0c-0.1,0.8,0,1.5,0,1.5l-0.6,0.2c0,0-0.4-1.5-0.6-2.8s1.1-3.3,1.3-3.8
			c0.2-0.5,0.9-2.1,0.9-2.1s1.3,0.4,1.6,0.9S74.5,141.1,74.5,141.1z"/>
		<path fill="#DFA780" d="M87.3,142.5c0,0-0.8,3.6-0.3,5s1.2,2.6,1.2,2.6H89l0.8,0.7c0.8-0.5,0-1.4,0-1.4s-1.1-1.3-0.8-2.8
			c0.1-0.4,1-0.7,1.1,0c0.1,0.8,0,1.5,0,1.5l0.6,0.2c0,0,0.4-1.5,0.6-2.8c0.1-1.3-1.1-3.3-1.3-3.8c-0.2-0.5-0.9-2.1-0.9-2.1
			s-1.3,0.4-1.6,0.9C87.1,141,87.3,142.5,87.3,142.5z"/>
		<polygon fill="#32383C" points="120.9,139.9 123.9,169.1 115.9,169.1 111.7,149.7 109.3,150.1 108,169.7 99.9,169.7 98.1,139.1 		
			"/>
		<path fill="#D2D2D2" d="M91.3,120.6c0,0-1.2,20.7-1.5,21.1c-0.3,0.4-2.8,0-2.8,0l-1.5-21.3c0,0,1.8-2.7,3.9-2.3
			S91.3,120.6,91.3,120.6z"/>
		<path fill="#D2D2D2" d="M85.6,119.7c0.4-0.8,8-23.2,8-23.2s6.1-0.1,7,5.4c0.8,5.5-9.2,19.2-11,20.5
			C87.8,123.7,85,120.9,85.6,119.7z"/>
		<path fill="#1093B2" d="M70.2,121.7c0,0,1.5,17.4,1.8,17.8c0.3,0.4,2.8,0,2.8,0l0.4-17.4c0,0-1-3.3-3.1-2.9
			C70.1,119.6,70.2,121.7,70.2,121.7z"/>
		<path fill="#1093B2" d="M75,123c-0.4-0.8-4.9-20.1-4.9-20.1s-3.5-2.2-4.4,3.3s4.3,16.4,6,17.7C73.4,125.2,75.5,124.2,75,123z"/>
		<path fill="#187993" d="M53.6,130.2c0,0-6.3,4-6.3,10.1c0.1,10.6,5.6,31.5,5.6,31.5l14.6-0.5c0,0,3.1-27.2,3.1-30.4
			c0-3.2-5.5-10.1-5.5-10.1L53.6,130.2z"/>
		<path fill="#573631" d="M53.4,70.3c0,0-11.2,4.3-7.2,16.9c1.4,4.4,6.1,6.6,8.6,6.6c0,0,9.1,0.5,19.2-3.3c-5.8-1.5-3.8-9-3.8-9
			L53.4,70.3z"/>
		<path fill="#1093B2" d="M52.6,100.5c0,0,5.8,4.8,6.4,4.7c0.6-0.1,3.4-3.8,3.4-3.8s-0.9-1.6-1-1.7c0-0.1,7.4,2.8,7.4,2.8l-2.2,4.5
			c0,0,3.4,6.1,2.3,8.1c-1,2-4,15.7-4,15.7s-3.2,1.7-6.2,1.2s-5.4-1.8-5.4-1.8S46.9,101.8,47,102C47,102.1,52.6,100.5,52.6,100.5z"
			/>
		<path fill="#187993" d="M58.9,105.2c0,0,3.7,5.3,3.5,8.2c-0.2,2.9-2,18.6-2,18.6l4.3-1.3c0,0,5.3-15.2,4.7-17.7
			c-0.6-2.5-2.5-6.2-2.5-6.2l1.6-4.4c0,0-7.7-3.5-7.6-3.1C61.4,99.7,58.9,105.2,58.9,105.2z"/>
		<path fill="#DFA780" d="M53.9,91.7l-0.5,9.2c0,0,4.3,4.2,5.6,4.3c1.3,0.1,2.5-2.7,2.5-2.7s-0.3-2.7-0.6-4.6
			c-0.3-1.8-0.4-4.1-0.4-4.1L53.9,91.7z"/>
		<path fill="#573631" d="M70.2,79.7c0,5.9-5.8,10.7-11.8,10.7s-10.8-4.8-10.8-10.7c0-5.9,4.9-10.7,10.8-10.7S70.2,73.8,70.2,79.7z"
			/>
		<g>
			<defs>
				<path id="SVGID_5_" d="M61.7,95.7c0.6,0,5.9-3.8,5.9-8.5c0-1.1-0.9-3.4-0.9-3.4l-0.2-5.7c-0.2-1.7-2.5-4.8-4.8-5.5
					c-4.7-1.4-11.2,1.2-11.2,3.6c0,0-0.2,6,1.3,12.7C53.2,95.6,61.7,95.7,61.7,95.7z"/>
			</defs>
			<clipPath id="SVGID_6_">
				<use xlink:href="#SVGID_5_"  overflow="visible"/>
			</clipPath>
			<path clip-path="url(#SVGID_6_)" fill="#DFA780" d="M58.7,97l4.4-0.3c3.4,0,5.4-5.1,5.4-9.1V76.1c0-4-2.8-7.3-6.2-7.3h-3.8
				c-3.4,0-6.2,3.3-6.2,7.3v9.7C52,89.7,55.2,97,58.7,97z"/>
			<path clip-path="url(#SVGID_6_)" fill="#F3D8C1" d="M61.2,69.7c0,0,0,11.9,0,16.1S61,97,61,97s-3.2,0.5-4.9-0.3
				c-1.6-0.8-6.1-5.3-6.1-5.3s-2.3-16.5-0.3-18.2c1.9-1.8,2.7-3.9,5.8-3.9C58.6,69.3,61.2,69.7,61.2,69.7z"/>
			<path clip-path="url(#SVGID_6_)" fill="#F3D8C1" d="M69.5,85.4C69.5,85.4,69.5,85.4,69.5,85.4c0.2,0,0.3-0.1,0.3-0.2
				c0-0.1-0.1-0.2-0.2-0.2c0,0,0,0,0,0c-0.1,0-0.2,0.1-0.2,0.2C69.2,85.3,69.4,85.4,69.5,85.4L69.5,85.4z"/>
		</g>
		<path fill="#C68C6A" d="M61.9,83.6c-0.1-0.3-0.1-0.6-0.1-0.9c0-1.7,0.8-3.1,2.6-3c1.4,0.1,2.1,1.3,2.1,3c0,0.3,0,0.6-0.1,0.9H61.9
			z"/>
		<path fill="#FFFFFF" d="M63.9,84.9L63.9,84.9c0.7,0,1.2-0.5,1.2-1.2v-0.5c0-0.7-0.5-1.2-1.2-1.2h0c-0.7,0-1.2,0.5-1.2,1.2v0.5
			C62.6,84.4,63.2,84.9,63.9,84.9z"/>
		<g>
			<path fill="#6D7B6E" d="M64.3,83.3c0,0.6-0.4,1.2-0.8,1.2v-2.3C64,82.2,64.3,82.7,64.3,83.3z"/>
			<path fill="#4C574D" d="M63.5,82.2v2.3c-0.5,0-0.8-0.5-0.8-1.2C62.7,82.7,63,82.2,63.5,82.2z"/>
		</g>
		<path fill="#573631" d="M64.2,85v-0.4c0.4,0,0.8-0.5,0.8-1.2c0-0.6-0.4-1.2-0.8-1.2h-0.5c-0.4,0-0.8,0.5-0.8,1.2l-0.4,0
			c0-0.9,0.5-1.6,1.2-1.6h0.5c0.6,0,1.2,0.7,1.2,1.6C65.4,84.3,64.8,85,64.2,85z"/>
		<path fill="#573631" d="M65.1,83C65.1,83,65,83,65.1,83l-0.1-0.1l0.3-0.1c0-0.1-0.1-0.1-0.1-0.1c0.1,0,0.5-0.2,0.9-0.3l0.1,0.3
			C65.4,82.9,65.2,83,65.1,83z"/>
		<path fill="#573631" d="M62.6,80.3c0.3-0.5,1-0.5,1.2-0.5h0.8c0.5,0,0.8,0.1,1.1,0.5H62.6z"/>
		<path fill="#DFA780" d="M59.6,83.6c0.1-0.3,0.2-0.6,0.2-1c0-1.8-1.3-3.3-3.9-3.2c-2.2,0.1-3.2,1.5-3.2,3.2c0,0.3,0,0.7,0.1,1H59.6
			z"/>
		<path fill="#FFFFFF" d="M56.9,85h-0.5c-0.9,0-1.6-0.7-1.6-1.6v0c0-0.9,0.7-1.6,1.6-1.6h0.5c0.9,0,1.6,0.7,1.6,1.6v0
			C58.5,84.3,57.7,85,56.9,85z"/>
		<path fill="#E9E9E9" d="M120.1,92.3c0.5-0.5,14.8,8.6,14.8,8.6s-12.7,28.1-12.2,28.3c0.5,0.2-1.7,10.7-1.7,10.7l-13.7,1l-8.3-0.5
			l-4.6-25.5l-0.9-18.3l0.7-0.2l16.2-4.9L120.1,92.3z"/>
		<path fill="#DFA780" d="M120.1,77.3c0.1,0-0.7,13.5-0.7,13.5s1.3,2.7,1.2,2.7c-0.3,0.1-10,7.4-10,7.4l-3.8-6.2l1.4-16.7
			L120.1,77.3z"/>
		<ellipse fill="#6B6B6B" cx="111.2" cy="65.8" rx="8.9" ry="5.8"/>
		<g>
			<defs>
				<path id="SVGID_7_" d="M114,86.6c-0.1,0.1-0.8,0.9-1.5,1.3c-0.7,0.4-3.4,0.3-3.4,0.3c-0.6,0-1.6-1.8-1.6-1.8s-3.1-3.1-3.8-3.9
					c-0.4-0.5-0.6-1.9-0.6-2.1V68c0.5-5.6,17.4-4.1,17.4-0.3l-0.4,12.5C120.1,83.6,115.2,85.4,114,86.6z"/>
			</defs>
			<clipPath id="SVGID_8_">
				<use xlink:href="#SVGID_7_"  overflow="visible"/>
			</clipPath>
			<path clip-path="url(#SVGID_8_)" fill="#F3D8C1" d="M111.6,89.8l-4.6-0.3c-3.7,0-5.7-5.4-5.7-9.7V67.5c0-4.3,3-7.8,6.6-7.8h4.1
				c3.7,0,6.6,3.5,6.6,7.8v10.3C118.7,82.1,115.3,89.8,111.6,89.8z"/>
			<path clip-path="url(#SVGID_8_)" fill="#DFA780" d="M109.1,60.7c0,0,0,12.7,0,17.1c0,4.4,0.2,11.9,0.2,11.9s3.4,0.5,5.2-0.3
				c1.7-0.8,5.7-9.2,5.7-9.2s3.2-14,1.1-15.8s-2.8-4.1-6.1-4.1S109.1,60.7,109.1,60.7z"/>
			<path clip-path="url(#SVGID_8_)" fill="#CB8D69" d="M120.8,76.4c0.1-0.2-3.9,1.7-4.4,4.3c-0.3,1.7-1.7,7.4-1.7,7.4s6.4-6.7,6.4-8
				C121.1,78.7,120.8,76.4,120.8,76.4z"/>
			<path clip-path="url(#SVGID_8_)" fill="#CB8D69" d="M102.9,78.7c0,0,2.2,2.4,3.2,3.6c1,1.2,1.7,5.7,1.7,5.7s-4.1-3.5-4.3-3.8
				C103.3,83.8,102.9,78.7,102.9,78.7z"/>
			<path clip-path="url(#SVGID_8_)" fill="#F3D8C1" d="M100.4,76.9C100.4,76.9,100.4,76.9,100.4,76.9c-0.2,0-0.3,0.1-0.3,0.2
				c0,0.1,0.1,0.2,0.2,0.2c0,0,0,0,0,0c0.1,0,0.2-0.1,0.2-0.2C100.6,77,100.5,76.9,100.4,76.9L100.4,76.9z"/>
		</g>
		<path fill="#CB8D69" d="M110.8,71.8l-0.3,1.6v0.9l5.5-0.1c0,0,0.8-1.2,1-1.8c0.2-0.6,0-1.4,0-1.4L110.8,71.8z"/>
		<polygon fill="#CB8D69" points="108.9,73.6 108.4,71.8 103.2,71.8 103.8,73.8 		"/>
		<path fill="#D1806D" d="M111.9,84.4h-3.8c-0.3,0-0.6-0.3-0.6-0.6v-0.3c0-0.3,0.3-0.6,0.6-0.6h3.8c0.3,0,0.6,0.3,0.6,0.6v0.3
			C112.5,84.2,112.3,84.4,111.9,84.4z"/>
		<path fill="#D15568" d="M106.4,80.7"/>
		<polygon fill="#FFFFFF" points="112.4,83.5 107.6,83.5 106.7,81.7 113.1,81.7 113.7,81.1 		"/>
		<path fill="#C47164" d="M108.9,81.6c0,0-0.4-0.5-1.2-0.4c-0.8,0.1-1.2,0.4-1.2,0.4H108.9z"/>
		<path fill="#C47164" d="M109.1,81.6c0,0,0.7-0.5,1.9-0.4c1.3,0.1,2,0.4,2,0.4L109.1,81.6z"/>
		<path fill="#50232C" d="M113.1,81.8h-6.4c-0.4,0-0.5-0.5-0.5-0.6l0.3,0l-0.1,0l0.1,0c0,0.1,0.1,0.4,0.2,0.4h6.4
			c0.1-0.1,0.4-0.3,0.5-0.4l0.3,0.1C113.7,81.5,113.2,81.7,113.1,81.8L113.1,81.8z"/>
		<path fill="#E7B4AC" d="M110.7,83.9h-2.3c-0.1,0-0.1,0-0.1-0.1l0,0c0-0.1,0-0.1,0.1-0.1h2.3c0.1,0,0.1,0,0.1,0.1l0,0
			C110.8,83.9,110.8,83.9,110.7,83.9z"/>
		<path fill="#6B6B6B" d="M116.1,71.9l0-0.4c0-0.7-0.7-1.3-1.5-1.3l-3,0c-0.8,0-1.4,0.6-1.4,1.3l0,0.4L116.1,71.9z"/>
		<path fill="#6B6B6B" d="M108.6,84.4l0,0.2c0,0.3,0.3,0.6,0.7,0.6l1.5,0c0.4,0,0.7-0.3,0.7-0.6l0-0.2L108.6,84.4z"/>
		<g>
			<path fill="#FFFFFF" d="M115.2,74.3v-0.4c0-0.7-0.6-1.3-1.2-1.3h-1c-0.7,0-1.2,0.6-1.2,1.3v0.4H115.2z"/>
			<path fill="#FFFFFF" d="M115.3,74.4h-3.5v-0.4c0-0.8,0.6-1.4,1.3-1.4h1c0.7,0,1.3,0.6,1.3,1.4V74.4z M111.8,74.3h3.4v-0.3
				c0-0.7-0.5-1.3-1.2-1.3h-1c-0.7,0-1.2,0.6-1.2,1.3V74.3z"/>
		</g>
		<path fill="#573631" d="M115.4,74.3h-0.3v-0.4c0-0.7-0.5-1.2-1.1-1.2h-1c-0.6,0-1.1,0.5-1.1,1.2h-0.3c0-0.8,0.6-1.5,1.4-1.5h1
			c0.8,0,1.4,0.7,1.4,1.5V74.3z"/>
		<path fill="#6B6B6B" d="M107.8,71.9v-0.4c0-0.7-0.6-1.3-1.3-1.3h-2.7c-0.7,0-1.3,0.6-1.3,1.3v0.4H107.8z"/>
		<g>
			<path fill="#6D7B6E" d="M113.1,73.6c0,0.5,0.4,1,1,1v-1.9C113.5,72.6,113.1,73,113.1,73.6z"/>
			<path fill="#4C574D" d="M114,72.6v1.9c0.5,0,1-0.4,1-1C115,73,114.6,72.6,114,72.6z"/>
		</g>
		<g>
			<path fill="#6D7B6E" d="M54.9,83.4c0,0.7,0.6,1.3,1.3,1.3v-2.5C55.4,82.1,54.9,82.7,54.9,83.4z"/>
			<path fill="#4C574D" d="M56.1,82.1v2.5c0.7,0,1.3-0.6,1.3-1.3C57.4,82.7,56.8,82.1,56.1,82.1z"/>
		</g>
		<g>
			<path fill="#FFFFFF" d="M108,74.3v-0.4c0-0.7-0.6-1.3-1.2-1.3h-1c-0.7,0-1.2,0.6-1.2,1.3v0.4H108z"/>
			<path fill="#FFFFFF" d="M108,74.3h-3.5v-0.4c0-0.8,0.6-1.4,1.3-1.4h1c0.7,0,1.3,0.6,1.3,1.4V74.3z M104.6,74.2h3.4v-0.3
				c0-0.7-0.5-1.3-1.2-1.3h-1c-0.7,0-1.2,0.6-1.2,1.3V74.2z"/>
		</g>
		<path fill="#573631" d="M108,74.3h-0.3v-0.4c0-0.7-0.5-1.2-1.1-1.2h-1c-0.6,0-1.1,0.5-1.1,1.2h-0.3c0-0.8,0.6-1.5,1.4-1.5h1
			c0.8,0,1.4,0.7,1.4,1.5V74.3z"/>
		<g>
			<path fill="#6D7B6E" d="M105.6,73.6c0,0.5,0.4,1,1,1v-1.9C106.1,72.6,105.6,73,105.6,73.6z"/>
			<path fill="#4C574D" d="M106.6,72.6v1.9c0.5,0,1-0.4,1-1C107.5,73,107.1,72.6,106.6,72.6z"/>
		</g>
		<path fill="#CB8D69" d="M115.1,74.8h-3.5c-0.2,0-0.3-0.1-0.3-0.3v-0.3h4v0.3C115.4,74.6,115.3,74.8,115.1,74.8z"/>
		<path fill="#CB8D69" d="M107.8,74.8h-3.1c-0.2,0-0.3-0.1-0.3-0.3v-0.3h3.7v0.3C108,74.6,107.9,74.8,107.8,74.8z"/>
		<path fill="#6B6B6B" d="M118.4,59.9c-1-1.3-2.6-2.2-4.4-2.2c-2.9,0-5.2,2.2-5.6,5L118.4,59.9z"/>
		<path fill="#6B6B6B" d="M107.2,62.7c0,0,1.8,3,3.3,4.1c1.4,1.1,3.5,1.4,3.5,1.4s-2.3-4.3-2.7-5.8L107.2,62.7z"/>
		<path fill="#6B6B6B" d="M109.4,62.5c0,0,3.3,3.6,5.2,3.8c1.8,0.3,3.8-0.2,3.8-0.2s-4-1.7-5-2.8L109.4,62.5z"/>
		<path fill="#CB8D69" d="M121.2,71c0,0-1.4-0.1-1.4,2s-0.5,5-0.5,5h1.3c0.6,0,1.4-0.7,1.4-1.3l0.3-4.6
			C122.4,71.5,121.9,71,121.2,71z"/>
		<path fill="#6B6B6B" d="M118.3,75.9c0,0,1.9,0,1.8,0s0-3,0-3.6c0-0.6,0.5-1.3,0.5-1.3l1,0.1c0,0,0.8-3.2,0.5-4.8
			c-0.4-1.6-1.2-2.8-1.2-2.8l1.3,0.6c0,0-0.7-1.7-2.3-2.8c-2.8-2-6.5-2.2-6.5-2.2l-6.1,3.5l8,3c0,0,2.8-0.1,3.5,1
			c0.9,1.5-0.6,3.4-0.6,3.4L118.3,75.9z"/>
		<path fill="#6B6B6B" d="M113.7,79.8c-0.9,0-2.1,0-2.3,0l-3.2-0.5l-0.6,0.4l-1.5,0c-0.5,0-1,0.4-1,1v0.2l-0.1,3.1l2.1,2.3
			c0,0,0.4,0.5,1.1,1.4c0.7,1,2.3,1,3.8,0.6c1.5-0.4,1.7-1.3,2.2-1.8c0.4-0.5,0.7-0.5,0.7-0.5v-3.1v-0.9v-0.8
			C114.9,80.4,114.4,79.8,113.7,79.8z M111.9,86.8c-1.2,1.1-1.5,0-1.5,0v-2.1l-0.9,0.1c0,0,0.2,1.3-0.1,2c-0.3,0.7-1.3-0.5-1.3-0.5
			l-2.3-4.7c-0.1-0.3,0.1-0.6,0.4-0.6h7.5c0.4,0,0.6,0.4,0.5,0.7C113.5,83.2,112.4,86.3,111.9,86.8z"/>
		<path fill="#C77265" d="M110.8,77.2c0,0,1.1,0,1,1.6c0,0.5-2.7,1.9-2.7,1.9L110.8,77.2z"/>
		<path fill="#B4625B" d="M108,77.2c0,0-1.1,0-1,1.6c0,0.5,2.6,1.3,2.6,1.3L108,77.2z"/>
		<path fill="#C77265" d="M108.6,73.4h1.9l0.5,5.3c0,0-0.7,2.1-1.9,2.1c-1.9,0-1.9-1.6-1.9-1.6L108.6,73.4z"/>
		<path fill="#E19E9B" d="M108.9,73.4c0,0-0.7,4.1-1,6.2c-0.1,0.6,0.8,0.8,0.9,0.3c0.3-2.1,1.2-6.4,0.8-6.4
			C109.2,73.4,109,72.8,108.9,73.4L108.9,73.4z"/>
		<g>
			<path fill="#50232C" d="M110.2,80.1c0.1,0,0.1-0.7,0.5-0.8c0.4-0.2,0.7,0.1,0.4,0.1c0,0-0.4,0-0.5,0.2
				C110.4,79.8,110.3,80.1,110.2,80.1L110.2,80.1z"/>
		</g>
		<polygon fill="#D2D2D2" points="110.8,101.2 108,116.6 107.3,140.9 120.9,140.3 122.7,129.2 134.8,100.9 121.7,92.7 		"/>
		<path fill="#E9E9E9" d="M134.8,100.9c0,0-6-0.5-8.7,4.3c-2.6,4.8-6.3,21.3-6.3,21.3s4.3,3.1,4.7,2.9s10.2-16.6,10.6-17.3
			C135.7,111.3,141.5,102.8,134.8,100.9z"/>
		<g>
			<g>
				<path fill="#AF6441" d="M89.8,149.9c-9.6,0-17.4-7.8-17.4-17.4c0-9.6,7.8-17.4,17.4-17.4s17.4,7.8,17.4,17.4
					C107.3,142.1,99.4,149.9,89.8,149.9z M89.8,118.1c-7.9,0-14.3,6.4-14.3,14.3s6.4,14.3,14.3,14.3s14.3-6.4,14.3-14.3
					S97.7,118.1,89.8,118.1z"/>
				<path fill="#AF6441" d="M109.4,116.7c-0.8,0.1-1.3,0.6-2,1.1c-0.9,0.7-1.7,1.3-2.6,2c-2.8,2.3-5.6,4.6-8.5,6.8
					c-6.4,5.2-12.7,10.4-19.1,15.6c-1.5,1.2-2.9,2.4-4.4,3.6c-0.6,0.5-0.5,1.5,0,2c0.6,0.6,1.4,0.5,2,0c3.9-3.2,7.8-6.4,11.8-9.6
					c6.3-5.2,12.6-10.3,18.9-15.4c1.1-0.9,2.2-1.8,3.3-2.6c0.2-0.1,0.4-0.3,0.5-0.4c-0.5,0.4,0,0,0.2-0.1c0.1-0.1,0.2-0.1,0.3-0.2
					c0,0,0.1,0,0.1-0.1c0,0,0,0,0,0c-0.1,0.1-0.6,0.2-0.7,0.2c0.8-0.1,1.4-0.6,1.4-1.4C110.8,117.4,110.1,116.6,109.4,116.7
					L109.4,116.7z"/>
				<path fill="#AF6441" d="M105.6,150.7c-0.1-0.8-0.6-1.3-1.1-2c-0.7-0.9-1.3-1.7-2-2.6c-2.3-2.8-4.6-5.6-6.8-8.5
					c-5.2-6.4-10.4-12.7-15.6-19.1c-1.2-1.5-2.4-2.9-3.6-4.4c-0.5-0.6-1.5-0.5-2,0c-0.6,0.6-0.5,1.4,0,2c3.2,3.9,6.4,7.8,9.6,11.8
					c5.2,6.3,10.3,12.6,15.4,18.9c0.9,1.1,1.8,2.2,2.6,3.3c0.1,0.2,0.3,0.4,0.4,0.5c-0.4-0.5,0,0,0.1,0.2c0.1,0.1,0.1,0.2,0.2,0.3
					c0,0,0,0.1,0.1,0.1c0,0,0,0,0,0c-0.1-0.1-0.2-0.6-0.2-0.7c0.1,0.8,0.6,1.4,1.4,1.4C104.9,152.1,105.7,151.4,105.6,150.7
					L105.6,150.7z"/>
				<path fill="#AF6441" d="M88.5,156.6c0.5-0.6,0.5-1.4,0.6-2.2c0.1-1.1,0.3-2.2,0.4-3.2c0.4-3.6,0.8-7.2,1.1-10.8
					c0.8-8.2,1.7-16.3,2.5-24.5c0.2-1.9,0.4-3.8,0.6-5.6c0.1-0.8-0.7-1.4-1.4-1.4c-0.8,0-1.3,0.6-1.4,1.4c-0.5,5-1,10.1-1.5,15.1
					c-0.8,8.1-1.6,16.2-2.5,24.3c-0.2,1.4-0.3,2.8-0.5,4.2c0,0.2-0.1,0.5-0.1,0.7c0,0.1,0,0.2,0,0.3c0.2-0.4,0-0.3,0-0.1
					c0,0.1,0,0.2-0.1,0.3c0,0,0,0.1,0,0.1c0,0,0,0,0,0c0-0.1,0.3-0.5,0.3-0.6c-0.5,0.6-0.6,1.4,0,2C87,157.1,88,157.2,88.5,156.6
					L88.5,156.6z"/>
				<path fill="#AF6441" d="M66.1,132.6c0.6,0.5,1.4,0.5,2.2,0.6c1.1,0.1,2.2,0.3,3.2,0.4c3.6,0.4,7.2,0.8,10.8,1.1
					c8.2,0.8,16.3,1.7,24.5,2.5c1.9,0.2,3.8,0.4,5.6,0.6c0.8,0.1,1.4-0.7,1.4-1.4c0-0.8-0.6-1.3-1.4-1.4c-5-0.5-10.1-1-15.1-1.5
					c-8.1-0.8-16.2-1.6-24.3-2.5c-1.4-0.2-2.8-0.3-4.2-0.5c-0.2,0-0.5-0.1-0.7-0.1c-0.1,0-0.2,0-0.3,0c0.4,0.2,0.3,0,0.1,0
					c-0.1,0-0.2,0-0.3-0.1c0,0-0.1,0-0.1,0c0,0,0,0,0,0c0.1,0,0.5,0.3,0.6,0.3c-0.6-0.5-1.4-0.6-2,0
					C65.7,131.1,65.5,132.1,66.1,132.6L66.1,132.6z"/>
			</g>
		</g>
		<path fill="#573631" d="M56.1,85.1c-0.9,0-1.7-0.7-1.7-1.7c0-0.9,0.7-1.7,1.7-1.7h0.8c0.9,0,1.7,0.7,1.7,1.7h-0.4
			c0-0.7-0.6-1.3-1.3-1.3h-0.8c-0.7,0-1.3,0.6-1.3,1.3s0.6,1.3,1.3,1.3V85.1z"/>
		<path fill="#573631" d="M54.8,82.9c-0.2,0-0.5-0.1-1.4-0.4l0.1-0.3c0.6,0.2,1.3,0.3,1.4,0.3c0,0-0.1,0-0.1,0.1l0.3,0.1
			C54.9,82.9,54.8,82.9,54.8,82.9z"/>
		<polygon fill="#C77265" points="62.1,82.1 62.9,87.5 60.5,87.6 60.5,82.1 		"/>
		<ellipse fill="#C77265" cx="62.1" cy="86.9" rx="1.4" ry="1.2"/>
		<ellipse fill="#C77265" cx="60.2" cy="87.1" rx="0.5" ry="0.7"/>
		<path fill="#573631" d="M58.5,80c-0.5-0.5-1.5-0.6-1.7-0.6h-1.2c-0.8,0-1.2,0.1-1.6,0.6H58.5z"/>
		<path fill="#B95748" d="M63.2,91.9h-2.9c-0.3,0-1-0.2-1.4-0.6L57.7,90c0-0.3,1.6,0.6,1.8,0.6h3.6c0.3,0,0.5,0.2,0.5,0.5v0.3
			C63.7,91.7,63.4,91.9,63.2,91.9z"/>
		<path fill="#E7B4AC" d="M63,91.5h-1.1c-0.1,0-0.2-0.1-0.2-0.2l0,0c0-0.1,0.1-0.2,0.2-0.2H63c0.1,0,0.2,0.1,0.2,0.2l0,0
			C63.3,91.4,63.2,91.5,63,91.5z"/>
		<path fill="#9E4038" d="M57.3,89.5c0,0.4,1.6,1.2,1.6,1.2h4.8l0.6-0.9h-1.7l-0.9,0.4c0,0-0.4-0.3-0.5-0.4
			C61,89.6,58.5,90.2,57.3,89.5z"/>
		<circle fill="#DC8A83" cx="62.3" cy="86.6" r="0.6"/>
		<path fill="#F3D8C1" d="M51,87.3l-0.5,0.1c-0.6,0.1-1.2-0.2-1.4-0.8l-0.7-2.7c-0.1-0.6,0.2-1.2,0.8-1.4l0.5-0.1
			c0.6-0.1,1.2,0.2,1.4,0.8l0.7,2.7C51.9,86.6,51.6,87.2,51,87.3z"/>
		<path fill="#573631" d="M62.1,71.9c0,0-0.9,3.9-4.8,5.7c-3.9,1.8-8.6,0.3-8.6,0.3l1.1-3.7C49.9,74.3,55.1,69.7,62.1,71.9z"/>
		<path fill="#573631" d="M52.6,77.6c0,0-1,4.2-1.1,5.5c-0.1,1.3,0,1.9,0,1.9L51,84.7l-1.4-6.4L52.6,77.6z"/>
		<g>
			<path fill="#C43C2F" d="M49.6,88c0-0.6,0.5-1.2,1.2-1.2c0,0,0,0,0,0c-0.2-0.1-0.4-0.2-0.7-0.2c-0.6,0-1.2,0.5-1.2,1.2
				c0,0.6,0.5,1.1,1.1,1.2C49.8,88.7,49.6,88.4,49.6,88z"/>
			<path fill="#A2262A" d="M51.3,87.8c0-0.4-0.2-0.7-0.5-0.9c0,0,0,0,0,0c-0.6,0-1.2,0.5-1.2,1.2c0,0.4,0.2,0.7,0.5,0.9c0,0,0,0,0,0
				C50.8,88.9,51.3,88.4,51.3,87.8z"/>
		</g>
		<path fill="#573631" d="M61.7,72.4c0,0.2,0.4,2.8,2.2,4.5c1.8,1.8,4.4,1.9,4.4,1.9s-0.6-4.1-2.2-5.5S61.7,72.4,61.7,72.4z"/>
		<path fill="#1EB4D6" d="M47,102c0,0,2.3,2,3.5,5.5c1.2,3.6,7.6,16.8,7.6,16.8l-4.8,2.5c0,0-7.8-11.6-9.5-19
			C43.1,104.7,46.2,102.5,47,102z"/>
		<circle fill="#D2D2D2" cx="61.4" cy="112.5" r="0.6"/>
		<circle fill="#D2D2D2" cx="60.8" cy="119.7" r="0.6"/>
		<circle fill="#D2D2D2" cx="109" cy="105.3" r="0.6"/>
		<circle fill="#D2D2D2" cx="107.8" cy="112.5" r="0.6"/>
		<circle fill="#D2D2D2" cx="106.7" cy="125.1" r="0.6"/>
		<circle fill="#D2D2D2" cx="60.2" cy="128.1" r="0.6"/>
		<circle opacity="0.34" fill="#DC8A83" cx="54.2" cy="86.5" r="0.8"/>
		<circle opacity="0.66" fill="#DC8A83" cx="66" cy="86.6" r="0.8"/>
		<path fill="#DFA780" d="M110.6,118.8c0,0,0.4,0.8,0.6,1.6c0.2,0.8-1.6,2.6-1.6,2.6l-0.6-2.9L110.6,118.8z"/>
		<path fill="#CB8D69" d="M106.9,114.9c-0.2,0-0.8,0.3-0.8,0.3s0.3,2,0.4,1.9s1.9-0.4,1.9-0.4L106.9,114.9z"/>
		<path fill="#CB8D69" d="M106.1,116.1c-0.2,0-0.8,0.5-0.8,0.5s0.3,2,0.4,1.9c0.2,0,1.6-0.6,1.6-0.6L106.1,116.1z"/>
		<path fill="#CB8D69" d="M105.3,116.6c-0.2,0.1-2,2.1-2,2.1s0.4,2,0.6,1.9c0.1-0.1,2.3-2.5,2.3-2.5L105.3,116.6z"/>
		<path fill="#DFA780" d="M108.4,116.8c0,0.1-2,0.1-3.1,1c-1.1,1-1.7,2.4-1.7,2.4s2.7,3.1,3.4,3.6s2.4-0.3,2.7-0.9
			S108.4,116.8,108.4,116.8z"/>
		<path fill="#DFA780" d="M110,122.5l1.1,1.9c0,0-0.8,1.1-1.8,1.2c-1,0.1-0.7,0.4-1,0.1c-0.3-0.3-1.7-2.5-1.7-2.5L110,122.5z"/>
		<path fill="#E9E9E9" d="M111.5,122.5c0,0,7.6-1.9,9.4-1.6s3.4,3.8,3.8,4.9c0.5,1.2,0,2.5,0,2.5s0.6,1.5-1.9,1.9
			c-2.4,0.4-13.5-4.6-13.5-4.6L111.5,122.5z"/>
		<path fill="#ECF6FC" d="M110.1,122.4c0,0,0.5,0.9-0.1,1.7s-1.1,1.1-1.1,1.1l-0.8-0.1l1.7,1.4c0,0,1.1-0.7,1.7-2
			c0.6-1.3-0.1-2.5-0.1-2.5L110.1,122.4z"/>
		<g>
			<path fill="#DFA780" d="M74.6,116.8c0,0,0.1,0.6-0.1,1.4c-0.2,0.8,1.2,2.8,1.2,2.8l0.6-2.9L74.6,116.8z"/>
			<path fill="#CB8D69" d="M78.3,112.9c0.2,0,0.8,0.3,0.8,0.3s-0.3,2-0.4,1.9s-1.9-0.4-1.9-0.4L78.3,112.9z"/>
			<path fill="#CB8D69" d="M79.8,114.6c0.2,0.1,2,2.1,2,2.1s-0.4,2-0.6,1.9c-0.1-0.1-2.3-2.5-2.3-2.5L79.8,114.6z"/>
			<path fill="#DFA780" d="M76.8,114.8c0,0.1,2,0.1,3.1,1c1.1,1,1.7,2.4,1.7,2.4s-2.7,3.1-3.4,3.6c-0.7,0.4-2.4-0.3-2.7-0.9
				S76.8,114.8,76.8,114.8z"/>
			<path fill="#DFA780" d="M75.1,120.5l-1.8,0.6c0,0,1.4,2.4,2.4,2.5s-0.3,0.3,0,0s2.4-1.7,2.4-1.7L75.1,120.5z"/>
			<path fill="#1EB4D6" d="M74,120.9c0,0-14.1,0.7-16,1.1c-1.9,0.3-4.3,1.1-4.8,2.3c-0.5,1.2,0,2.5,0,2.5s2.4,1.5,4.8,1.4
				c3.8-0.2,17.8-4.5,17.8-4.5L74,120.9z"/>
			<path fill="#1EB4D6" d="M75.1,120.4c0,0-0.5,0.9,0.1,1.7c0.6,0.8,1.1,1.1,1.1,1.1l0.8-0.1l-1.7,1.4c0,0-1.1-0.7-1.7-2
				c-0.6-1.3,0.1-2.5,0.1-2.5L75.1,120.4z"/>
		</g>
		<path fill="#939494" d="M116.1,59.7c1.2,0.1,2.4,0.6,3.3,1.4l0.1,0c-1-1.3-2.6-2.2-4.4-2.2c-2.9,0-5.2,2.2-5.6,5l0,0
			C110.3,61.1,113.1,59.3,116.1,59.7z"/>
		<path fill="#858585" d="M120.1,61.5c-1.9-1.7-4-2.5-7.2-1.8s-3.4,4-3.4,4s1.9-1.2,5.7-1.2c2.9,0,6.3,1.4,6.9,1.7c0,0,0.1,0,0.1,0"
			/>
		<path fill="#858585" d="M109.1,62.5c0,0-0.7-1.3-2.4-1.1c-1.7,0.1-1.9,0.4-1.9,0.4s-1.4,0.9-1.9,1.9s-0.6,1.4-0.6,1.4
			s1.2-2.1,3.2-2.7C107.5,61.9,109.1,62.5,109.1,62.5z"/>
		<path fill="#858585" d="M109.6,63.7c0,0-0.5,1.5,1.2,2.8c1.7,1.2,3.1,1.7,3.1,1.7l-1-2.2L109.6,63.7z"/>
		<path fill="#939494" d="M111.5,63.7c0,0,4.4-0.8,7.9,0.6c2.7,1.1,3,2.4,3,2.4s-0.3,2.2-0.3,2.2c0,0,0.3-2.5-4.2-3.8
			C113.7,63.8,111.5,63.7,111.5,63.7z"/>
		<path fill="#939494" d="M109.4,61.3c0,0,0.5-1.7,1.8-2.5c1.3-0.7,3-1.1,3-1.1s-1.5-0.2-3.2,0.8C109.3,59.6,109.4,61.3,109.4,61.3z
			"/>
		<path fill="#6A4845" d="M60.8,71.6c0,0-7.8-1.3-11.6,5c-3.9,6.3-1,12.9-1,13.5c0,0.5-4.3-2.3-1.9-11.5
			C49,67.8,60.8,71.6,60.8,71.6z"/>
		<path fill="#6A4845" d="M59.5,70.4c0,0-0.7-1.7-1.8-1.6c-1.2,0.1-3.4,0.6-3.4,0.6s2.1-0.4,3.7,0.3C59.5,70.4,59.5,70.4,59.5,70.4z
			"/>
		<path fill="#6A4845" d="M61.4,72.3c0,0-3.6-0.6-5.9,0.9s-3.4,5-3.4,5s3.9-1.3,6.3-3.2C60.9,73,61.4,72.3,61.4,72.3z"/>
		<path fill="#6A4845" d="M61.4,71.1c0,0,0.8-0.6,2.8-0.1c2,0.5,3.1,1.4,3.1,1.4l-3.2-2.3C64.1,70.2,62.4,69.9,61.4,71.1z"/>
		<polygon fill="#1EB4D6" points="58.9,105.9 58.9,101.3 51.8,97.3 51.8,100.7 		"/>
		<polygon fill="#1EB4D6" points="58.9,105.9 60.7,99.9 62.7,98.5 62.5,102 		"/>
		<polygon fill="#FFFFFF" points="110.5,100.9 111.8,95.2 121.7,88.5 121.7,92.7 		"/>
		<polygon fill="#FFFFFF" points="110,100.1 109.1,94.7 106.1,90 106.1,94.3 		"/>
		<path fill="#1EB4D6" d="M66,68.7c0.1-0.9-0.3-1.9-1-2.4c-1.5-1.2-4.3-2.9-6.9-2.5c-2.8,0.4-6.3,3.8-7.9,5.6
			c-0.6,0.6-0.7,1.6-0.1,2.3l1.5,0.9c0,0,6.1-0.2,8.5-1.2c2.4-1,4.4-0.5,4.4-0.5L66,68.7z"/>
		<path fill="#3C3C3C" d="M65.3,69.6c0,0,0.8-0.6-5.2-0.3c-6,0.3-10.1,3-10.1,3l0.8,0.5c0,0,5.6-1.5,10.2-1.6c4.6-0.2,4-0.6,4-0.6
			L65.3,69.6z"/>
		<path fill="#23201C" d="M59.3,70.7c5.5-0.6,6.2-0.3,6.2-0.3s3.2,1.4-2.6,2.5c-7.1,1.3-11.4-0.3-11.4-0.3S53.8,71.3,59.3,70.7z"/>
		<g>
			<path fill="#FFFFFF" d="M104.4,57.9c-0.1-0.9,0.3-1.9,1.1-2.4c1.6-1.2,4.4-2.9,7-2.4c2.8,0.5,6.2,3.9,7.9,5.7
				c0.6,0.6,0.6,1.6,0.1,2.3L119,62c0,0-6.1-0.3-8.4-1.3c-2.4-1-4.4-0.5-4.4-0.5L104.4,57.9z"/>
			<path fill="#3C3C3C" d="M105.1,58.8c0,0-0.8-0.6,5.2-0.3c6,0.3,10.1,3.1,10.1,3.1l-0.8,0.5c0,0-5.5-1.5-10.1-1.8
				s-3.9-0.6-3.9-0.6L105.1,58.8z"/>
			<path fill="#23201C" d="M111.2,60c-5.5-0.7-6.2-0.4-6.2-0.4s-3.2,1.4,2.6,2.6C114.6,63.6,119,62,119,62S116.7,60.7,111.2,60z"/>
			<g>
				<path opacity="0.48" fill="#3C3C3C" d="M110,58l-1-1.4c-0.4-0.5-0.2-1.2,0.3-1.6l1.4-1c0.5-0.4,1.2-0.2,1.6,0.3l1,1.4
					c0.4,0.5,0.2,1.2-0.3,1.6l-1.4,1C111.1,58.6,110.4,58.5,110,58z"/>
				<path opacity="0.48" fill="#3C3C3C" d="M109.6,57.9l-1-1.4c-0.4-0.5-0.2-1.2,0.3-1.6l1.4-1c0.5-0.4,1.2-0.2,1.6,0.3l1,1.4
					c0.4,0.5,0.2,1.2-0.3,1.6l-1.4,1C110.6,58.5,109.9,58.4,109.6,57.9z"/>
				<path opacity="0.48" fill="#3C3C3C" d="M110,57.5l-1-1.4c-0.4-0.5-0.2-1.2,0.3-1.6l1.4-1c0.5-0.4,1.2-0.2,1.6,0.3l1,1.4
					c0.4,0.5,0.2,1.2-0.3,1.6l-1.4,1C111.1,58.2,110.3,58,110,57.5z"/>
				<path opacity="0.48" fill="#3C3C3C" d="M111.2,55.7l-0.2,0c-0.6,0.1-1.2-0.4-1.3-1l0-0.2c-0.1-0.6,0.4-1.2,1-1.3l0.2,0
					c0.6-0.1,1.2,0.4,1.3,1l0,0.2C112.3,55,111.9,55.6,111.2,55.7z"/>
				<g>
					<path fill="#B88134" d="M110.9,55.3c-0.1,0.6-0.2,1.2-0.3,1.9c0,0.1,0.2,0.2,0.2,0.1c0.1-0.6,0.2-1.2,0.3-1.9
						C111.2,55.3,110.9,55.2,110.9,55.3L110.9,55.3z"/>
					<path fill="#B88134" d="M110.1,56.3c-0.1,0-0.1,0-0.2,0c-0.1,0-0.2,0-0.1,0.1c0.1,1.2,1.6,1.4,2.2,0.4c0-0.1,0-0.2-0.1-0.2
						c-0.1,0-0.2,0-0.3-0.1c-0.1,0-0.2,0.2-0.1,0.2c0.1,0,0.2,0,0.3,0.1c0-0.1,0-0.1-0.1-0.2c-0.5,0.8-1.7,0.7-1.8-0.3
						c0,0-0.1,0.1-0.1,0.1c0.1,0,0.1,0,0.2,0C110.2,56.6,110.2,56.3,110.1,56.3L110.1,56.3z"/>
					<path fill="#B88134" d="M111.1,55.3C111.1,55.3,111,55.3,111.1,55.3c-0.2,0-0.4-0.2-0.3-0.4c0-0.2,0.2-0.3,0.4-0.3
						c0.1,0,0.2,0.1,0.2,0.1c0,0.1,0.1,0.2,0.1,0.2C111.4,55.2,111.2,55.3,111.1,55.3z M111.1,54.8c-0.1,0-0.1,0-0.1,0.1
						c0,0.1,0,0.1,0.1,0.2c0.1,0,0.1,0,0.2-0.1C111.2,54.9,111.2,54.9,111.1,54.8C111.1,54.8,111.1,54.8,111.1,54.8z"/>
				</g>
			</g>
		</g>
		<g>
			<path opacity="0.48" fill="#3C3C3C" d="M59,68.2l-0.7-0.6c-0.5-0.4-0.6-1.1-0.2-1.6l0.6-0.7c0.4-0.5,1.1-0.6,1.6-0.2l0.7,0.6
				c0.5,0.4,0.6,1.1,0.2,1.6L60.6,68C60.2,68.5,59.5,68.6,59,68.2z"/>
			<path opacity="0.48" fill="#3C3C3C" d="M58.6,68.2l-0.7-0.6c-0.5-0.4-0.6-1.1-0.2-1.6l0.6-0.7c0.4-0.5,1.1-0.6,1.6-0.2l0.7,0.6
				c0.5,0.4,0.6,1.1,0.2,1.6l-0.6,0.7C59.8,68.5,59.1,68.6,58.6,68.2z"/>
			<path opacity="0.48" fill="#3C3C3C" d="M58.9,67.9l-0.7-0.6c-0.5-0.4-0.6-1.1-0.2-1.6l0.6-0.7c0.4-0.5,1.1-0.6,1.6-0.2l0.7,0.6
				c0.5,0.4,0.6,1.1,0.2,1.6l-0.6,0.7C60.1,68.2,59.3,68.3,58.9,67.9z"/>
			<path opacity="0.48" fill="#3C3C3C" d="M59.5,66.3L59.5,66.3c-0.5,0.2-1.1,0-1.3-0.5l0,0c-0.2-0.5,0-1.1,0.5-1.3v0
				c0.5-0.2,1.1,0,1.3,0.5h0C60.2,65.5,60,66.1,59.5,66.3z"/>
			<g>
				<path fill="#B88134" d="M59.2,66.1c0.1,0.5,0.1,1,0.2,1.5c0,0.1,0.3,0.2,0.2,0c-0.1-0.5-0.1-1-0.2-1.5
					C59.4,65.9,59.2,65.9,59.2,66.1L59.2,66.1z"/>
				<path fill="#B88134" d="M58.8,67c-0.1,0-0.1,0-0.2,0c-0.1,0-0.1,0.1-0.1,0.1c0.3,1,1.6,0.7,1.9-0.2c0-0.1,0-0.2-0.1-0.1
					c-0.1,0-0.2,0-0.3,0c-0.1,0-0.2,0.3,0,0.2c0.1,0,0.2,0,0.3,0c0,0-0.1-0.1-0.1-0.1c-0.2,0.7-1.2,0.9-1.4,0.2c0,0-0.1,0.1-0.1,0.1
					c0.1,0,0.1,0,0.2,0C59,67.2,59,67,58.8,67L58.8,67z"/>
				<path fill="#B88134" d="M59.3,66c-0.1,0-0.3-0.1-0.3-0.3c0-0.2,0.1-0.3,0.3-0.3c0.2,0,0.3,0.1,0.3,0.3
					C59.6,65.9,59.5,66,59.3,66C59.3,66,59.3,66,59.3,66z M59.3,65.7C59.3,65.7,59.3,65.7,59.3,65.7c-0.1,0-0.1,0.1-0.1,0.1
					c0,0.1,0.1,0.1,0.1,0.1C59.4,65.8,59.4,65.8,59.3,65.7C59.4,65.7,59.3,65.7,59.3,65.7z"/>
			</g>
		</g>
		<polygon fill="#B88134" points="127.2,95.6 121.7,95 122.2,96 130.9,102.4 137.7,101.5 138,100.1 		"/>
		<polygon fill="#E0B155" points="126.1,94.3 121.7,95 130.9,100.9 138,100.1 		"/>
		<polygon fill="#B88134" points="49.3,101.3 53.1,101.5 52.7,102.1 46.2,105.5 41.6,104.3 41.5,103.3 		"/>
		<polygon fill="#E0B155" points="50.2,100.6 53.1,101.5 46.3,104.5 41.5,103.3 		"/>
		<polygon fill="#E0B155" points="104.4,92.7 104.4,93.8 92.7,97.3 92.2,95.9 		"/>
		<polygon fill="#B88134" points="104.5,93.3 104.5,94.4 93.1,97.7 92.6,96.4 		"/>
		<polygon fill="#E0B155" points="62.8,99.8 62.9,100.9 71.3,103.6 71.5,102.3 		"/>
		<polygon fill="#B88134" points="62.8,100.4 62.9,101.5 71.1,104.1 71.3,102.8 		"/>
		<rect x="84" y="129.2" fill="#86452D" width="14.5" height="41.5"/>
	</g>
</g>
</svg>