<!-- Generator: Adobe Illustrator 17.1.0, SVG Export Plug-In  -->
<svg version="1.1"
	 xmlns="http://www.w3.org/2000/svg" xmlns:xlink="http://www.w3.org/1999/xlink" xmlns:a="http://ns.adobe.com/AdobeSVGViewerExtensions/3.0/"
	 x="0px" y="0px" width="280.9px" height="36.5px" viewBox="0 0 280.9 36.5" enable-background="new 0 0 280.9 36.5"
	 xml:space="preserve">
<defs>
</defs>
<g>
	<path fill="#A9D42D" d="M132.1,1.2c0.9,0.8,1.3,1.9,1.3,3.4c0,1.5-0.4,2.6-1.3,3.4c-0.9,0.8-2,1.2-3.4,1.2h-1.9v4.6
		c-0.3,0.1-0.8,0.1-1.3,0.1c-0.5,0-0.9,0-1.3-0.1V0.2l0.1-0.1c2.1-0.1,3.5-0.1,4.3-0.1C130.1,0,131.2,0.4,132.1,1.2z M126.8,2v5.2
		c0.9,0,1.5,0,1.8,0c0.8,0,1.4-0.3,1.7-0.8c0.3-0.5,0.5-1.1,0.5-1.8c0-0.7-0.2-1.3-0.5-1.8c-0.3-0.5-0.9-0.8-1.7-0.8
		S127.2,2,126.8,2z"/>
	<path fill="#A9D42D" d="M145.8,3.5c0.3,1,0.5,2.1,0.5,3.5s-0.2,2.5-0.5,3.5s-0.9,1.8-1.7,2.5c-0.4,0.3-1,0.6-1.6,0.8
		c-0.7,0.2-1.4,0.3-2,0.3c-0.7,0-2.2,0-4.5-0.1l-0.1-0.1V0.2l0.1-0.1C137.4,0,139,0,140.5,0c0.6,0,1.3,0.1,1.9,0.3
		c0.7,0.2,1.2,0.4,1.6,0.8C144.9,1.7,145.5,2.5,145.8,3.5z M143.1,10.2c0.2-0.5,0.3-1,0.4-1.5s0.1-1.1,0.1-1.7s0-1.2-0.1-1.7
		s-0.2-1-0.4-1.5c-0.2-0.5-0.5-0.9-1-1.2c-0.4-0.3-1.1-0.4-1.8-0.4c-0.8,0-1.5,0-2,0v9.8h2.2c0.6,0,1.2-0.1,1.6-0.4
		C142.6,11.1,142.9,10.7,143.1,10.2z"/>
	<path fill="#A9D42D" d="M153.2,11.6h3.8c0,0.4,0,0.8-0.1,1c-0.1,0.8-0.7,1.2-1.7,1.2h-4.9c-0.5,0-0.8-0.1-1.1-0.4s-0.4-0.6-0.4-1.1
		V0.1L149,0h0.9c0.5,0,0.9,0.1,1.1,0.4c0.2,0.3,0.4,0.7,0.4,1.2v10C152.1,11.6,152.7,11.6,153.2,11.6z"/>
	<path fill="#A9D42D" d="M6.3,22.9c0.7,0.6,1,1.5,1,2.7c0,1.2-0.3,2.1-1,2.7c-0.7,0.6-1.6,1-2.7,1H2V33C1.8,33,1.4,33,1,33
		S0.3,33,0,33V22.1L0.1,22C1.8,22,2.9,22,3.6,22C4.7,22,5.6,22.3,6.3,22.9z M2,23.5v4.2c0.7,0,1.2,0,1.4,0c0.7,0,1.1-0.2,1.4-0.6
		c0.3-0.4,0.4-0.9,0.4-1.5s-0.1-1-0.4-1.4c-0.3-0.4-0.7-0.6-1.4-0.6S2.4,23.5,2,23.5z"/>
	<path fill="#A9D42D" d="M8.3,26c0-0.2,0.1-0.4,0.3-0.6C8.7,25.2,8.8,25,9,24.9c0.8,0.1,1.4,0.6,1.7,1.4c0.4-0.9,1.1-1.4,2.1-1.4
		c0.2,0,0.6,0,0.9,0.1c0,0.7-0.2,1.3-0.5,1.9c-0.2,0-0.4-0.1-0.7-0.1c-0.7,0-1.2,0.3-1.6,1V33c-0.3,0.1-0.6,0.1-1,0.1
		c-0.4,0-0.7,0-1-0.1v-5.4C8.9,26.8,8.7,26.3,8.3,26z"/>
	<path fill="#A9D42D" d="M21.4,29c0,1.4-0.4,2.5-1.1,3.3c-0.6,0.6-1.4,0.9-2.4,0.9s-1.8-0.3-2.4-0.9c-0.8-0.8-1.1-1.8-1.1-3.3
		s0.4-2.5,1.1-3.3c0.6-0.6,1.4-0.9,2.4-0.9s1.8,0.3,2.4,0.9C21,26.5,21.4,27.6,21.4,29z M17.8,26.3c-1,0-1.5,0.9-1.5,2.7
		c0,1.8,0.5,2.7,1.5,2.7s1.5-0.9,1.5-2.7C19.4,27.2,18.9,26.3,17.8,26.3z"/>
	<path fill="#A9D42D" d="M23.4,32c-0.5-0.7-0.7-1.8-0.7-3c0-1.3,0.3-2.3,0.9-3c0.6-0.7,1.3-1.1,2.2-1.1s1.6,0.3,2.2,0.8
		c0.3-0.4,0.7-0.6,1.3-0.7c0.1,0.1,0.3,0.2,0.4,0.4c0.1,0.2,0.2,0.4,0.3,0.6c-0.3,0.3-0.4,0.7-0.4,1.4v4.5c0,1.7-0.3,2.9-0.8,3.6
		s-1.5,1.1-2.7,1.1c-1,0-1.9-0.2-2.9-0.5c0-0.6,0.2-1.1,0.5-1.5c0.7,0.3,1.5,0.5,2.2,0.5c0.7,0,1.2-0.2,1.4-0.5
		c0.3-0.4,0.4-0.8,0.4-1.5v-0.6c-0.6,0.5-1.3,0.8-2,0.8C24.5,33.1,23.8,32.7,23.4,32z M27.5,30.7V27c-0.5-0.4-0.9-0.7-1.4-0.7
		s-0.8,0.2-1,0.7c-0.3,0.5-0.4,1.1-0.4,2s0.1,1.5,0.3,1.9c0.2,0.4,0.5,0.6,0.9,0.6C26.5,31.5,27,31.2,27.5,30.7z"/>
	<path fill="#A9D42D" d="M31.2,26c0-0.2,0.1-0.4,0.3-0.6c0.1-0.2,0.3-0.4,0.4-0.5c0.8,0.1,1.4,0.6,1.7,1.4c0.4-0.9,1.1-1.4,2.1-1.4
		c0.2,0,0.6,0,0.9,0.1c0,0.7-0.2,1.3-0.5,1.9c-0.2,0-0.4-0.1-0.7-0.1c-0.7,0-1.2,0.3-1.6,1V33c-0.3,0.1-0.6,0.1-1,0.1
		c-0.4,0-0.7,0-1-0.1v-5.4C31.8,26.8,31.6,26.3,31.2,26z"/>
	<path fill="#A9D42D" d="M44,32.1c-0.1,0.2-0.1,0.4-0.3,0.6c-0.1,0.2-0.3,0.3-0.4,0.5c-0.7-0.1-1.1-0.4-1.5-0.9
		c-0.7,0.7-1.5,1-2.3,1s-1.4-0.2-1.9-0.7c-0.4-0.5-0.6-1-0.6-1.7c0-0.9,0.3-1.6,0.9-2c0.6-0.5,1.3-0.7,2.2-0.7c0.5,0,1,0,1.4,0.1
		v-0.5c0-0.8-0.4-1.3-1.2-1.3c-0.6,0-1.4,0.2-2.4,0.6c-0.3-0.3-0.5-0.8-0.5-1.4c1.2-0.5,2.3-0.7,3.5-0.7c0.8,0,1.5,0.2,2,0.7
		c0.5,0.4,0.8,1.1,0.8,2v3.3C43.5,31.4,43.7,31.8,44,32.1z M40,31.7c0.6,0,1.1-0.3,1.6-0.8v-1.4c-0.4,0-0.8-0.1-1.2-0.1
		s-0.8,0.1-1,0.3C39.1,30,39,30.3,39,30.6s0.1,0.6,0.3,0.8C39.4,31.6,39.7,31.7,40,31.7z"/>
	<path fill="#A9D42D" d="M50,28c0-0.9-0.3-1.4-0.9-1.4c-0.5,0-1,0.3-1.5,0.8V33c-0.3,0.1-0.6,0.1-1,0.1c-0.4,0-0.7,0-1-0.1v-7.9
		l0.1-0.1h0.7c0.6,0,1,0.3,1.1,1c0.7-0.7,1.5-1.1,2.3-1.1c0.8,0,1.4,0.4,1.8,1.2c0.8-0.8,1.7-1.2,2.5-1.2c0.7,0,1.2,0.2,1.5,0.7
		c0.4,0.5,0.5,1.1,0.5,1.8v3.7c0,0.7,0.1,1.2,0.3,1.5c-0.3,0.3-0.7,0.4-1.2,0.4c-0.4,0-0.7-0.1-0.9-0.3s-0.2-0.5-0.2-0.9V28
		c0-0.9-0.3-1.3-0.9-1.3c-0.4,0-0.9,0.3-1.5,0.8V33C51.7,33,51.4,33,51,33c-0.4,0-0.7,0-1-0.1V28z"/>
	<path fill="#A9D42D" d="M64.9,32.1c-0.1,0.2-0.1,0.4-0.3,0.6c-0.1,0.2-0.3,0.3-0.4,0.5c-0.7-0.1-1.1-0.4-1.5-0.9
		c-0.7,0.7-1.5,1-2.3,1s-1.4-0.2-1.9-0.7c-0.4-0.5-0.6-1-0.6-1.7c0-0.9,0.3-1.6,0.9-2c0.6-0.5,1.3-0.7,2.2-0.7c0.5,0,1,0,1.4,0.1
		v-0.5c0-0.8-0.4-1.3-1.2-1.3c-0.6,0-1.4,0.2-2.4,0.6c-0.3-0.3-0.5-0.8-0.5-1.4c1.2-0.5,2.3-0.7,3.5-0.7c0.8,0,1.5,0.2,2,0.7
		c0.5,0.4,0.8,1.1,0.8,2v3.3C64.5,31.4,64.6,31.8,64.9,32.1z M60.9,31.7c0.6,0,1.1-0.3,1.6-0.8v-1.4c-0.4,0-0.8-0.1-1.2-0.1
		s-0.8,0.1-1,0.3C60.1,30,60,30.3,60,30.6s0.1,0.6,0.3,0.8C60.4,31.6,60.6,31.7,60.9,31.7z"/>
	<path fill="#A9D42D" d="M72.5,33.2c-0.9,0-1.6-0.4-2.1-1.1c-0.5-0.7-0.7-1.8-0.7-3s0.3-2.3,0.9-3c0.6-0.7,1.4-1.1,2.2-1.1
		c0.5,0,1.1,0.2,1.7,0.4v-4l0.1-0.1h0.8c0.4,0,0.7,0.1,0.8,0.3c0.2,0.2,0.2,0.5,0.2,1v8.3c0,0.7,0.1,1.1,0.4,1.4
		c-0.1,0.2-0.1,0.4-0.3,0.6s-0.3,0.3-0.4,0.5c-0.7-0.1-1.1-0.4-1.4-1C74.2,32.8,73.4,33.2,72.5,33.2z M73,31.6
		c0.6,0,1.1-0.3,1.5-0.9v-3.8c-0.5-0.3-1-0.5-1.4-0.5s-0.7,0.2-1,0.7c-0.3,0.5-0.4,1.1-0.4,2c0,0.8,0.1,1.5,0.4,1.9
		C72.3,31.3,72.6,31.6,73,31.6z"/>
	<path fill="#A9D42D" d="M84.7,29.6h-4.5c0,0.6,0.2,1.1,0.4,1.5c0.3,0.3,0.7,0.5,1.3,0.5c0.6,0,1.3-0.2,2.1-0.6
		c0.3,0.3,0.5,0.7,0.6,1.2c-0.9,0.6-1.9,0.9-3.1,0.9S79.5,32.8,79,32c-0.5-0.8-0.8-1.8-0.8-3c0-1.2,0.3-2.2,0.9-3
		c0.6-0.8,1.4-1.2,2.5-1.2s1.9,0.3,2.5,1c0.6,0.6,0.9,1.5,0.9,2.4C84.9,28.7,84.9,29.2,84.7,29.6z M81.7,26.2c-0.9,0-1.3,0.7-1.4,2
		H83V28c0-0.5-0.1-1-0.3-1.3C82.5,26.4,82.1,26.2,81.7,26.2z"/>
	<path fill="#A9D42D" d="M98.5,24.7c0.2,0.8,0.4,1.7,0.4,2.8s-0.1,2-0.4,2.8c-0.2,0.8-0.7,1.4-1.4,2c-0.3,0.3-0.8,0.5-1.3,0.6
		C95.3,33,94.8,33,94.2,33s-1.8,0-3.6-0.1l-0.1-0.1V22.1l0.1-0.1c1.2,0,2.5-0.1,3.7-0.1c0.5,0,1,0.1,1.5,0.2c0.5,0.1,1,0.3,1.3,0.6
		C97.8,23.3,98.3,24,98.5,24.7z M96.4,30.1c0.2-0.4,0.3-0.8,0.3-1.2c0.1-0.4,0.1-0.9,0.1-1.4s0-1-0.1-1.4s-0.2-0.8-0.3-1.2
		c-0.2-0.4-0.4-0.7-0.8-1c-0.4-0.2-0.8-0.3-1.5-0.3c-0.6,0-1.2,0-1.6,0v7.9h1.8c0.5,0,0.9-0.1,1.3-0.3
		C95.9,30.8,96.2,30.5,96.4,30.1z"/>
	<path fill="#A9D42D" d="M106.7,29.6h-4.5c0,0.6,0.2,1.1,0.4,1.5c0.3,0.3,0.7,0.5,1.3,0.5c0.6,0,1.3-0.2,2.1-0.6
		c0.3,0.3,0.5,0.7,0.6,1.2c-0.9,0.6-1.9,0.9-3.1,0.9s-2.1-0.4-2.6-1.2c-0.5-0.8-0.8-1.8-0.8-3c0-1.2,0.3-2.2,0.9-3
		c0.6-0.8,1.4-1.2,2.5-1.2s1.9,0.3,2.5,1c0.6,0.6,0.9,1.5,0.9,2.4C106.9,28.7,106.9,29.2,106.7,29.6z M103.7,26.2
		c-0.9,0-1.3,0.7-1.4,2h2.8V28c0-0.5-0.1-1-0.3-1.3C104.5,26.4,104.1,26.2,103.7,26.2z"/>
	<path fill="#A9D42D" d="M108,32.4c0-0.2,0.1-0.5,0.2-0.7c0.1-0.3,0.3-0.5,0.4-0.6c0.9,0.5,1.6,0.7,2.2,0.7c0.4,0,0.7-0.1,0.9-0.2
		c0.2-0.2,0.3-0.3,0.3-0.6c0-0.4-0.3-0.7-0.9-1l-0.9-0.3c-1.3-0.5-2-1.3-2-2.3c0-0.7,0.3-1.3,0.8-1.8c0.5-0.5,1.3-0.7,2.2-0.7
		s1.8,0.2,2.7,0.6c0,0.2,0,0.5-0.2,0.8s-0.3,0.5-0.4,0.6c-0.8-0.4-1.5-0.5-2.2-0.5c-0.3,0-0.5,0.1-0.7,0.2s-0.3,0.3-0.3,0.6
		c0,0.3,0.3,0.6,0.8,0.8l1,0.4c1.4,0.5,2.1,1.3,2.1,2.5c0,0.8-0.3,1.4-0.9,1.8c-0.6,0.4-1.4,0.7-2.4,0.7
		C109.9,33.2,108.9,32.9,108,32.4z"/>
	<path fill="#A9D42D" d="M121.8,29.6h-4.5c0,0.6,0.2,1.1,0.4,1.5c0.3,0.3,0.7,0.5,1.3,0.5c0.6,0,1.3-0.2,2.1-0.6
		c0.3,0.3,0.5,0.7,0.6,1.2c-0.9,0.6-1.9,0.9-3.1,0.9s-2.1-0.4-2.6-1.2c-0.5-0.8-0.8-1.8-0.8-3c0-1.2,0.3-2.2,0.9-3
		c0.6-0.8,1.4-1.2,2.5-1.2s1.9,0.3,2.5,1c0.6,0.6,0.9,1.5,0.9,2.4C121.9,28.7,121.9,29.2,121.8,29.6z M118.7,26.2
		c-0.9,0-1.3,0.7-1.4,2h2.8V28c0-0.5-0.1-1-0.3-1.3C119.5,26.4,119.2,26.2,118.7,26.2z"/>
	<path fill="#A9D42D" d="M130.3,27.6v3.6c0,0.7,0.1,1.2,0.3,1.5c-0.4,0.3-0.7,0.4-1.2,0.4c-0.4,0-0.7-0.1-0.9-0.3s-0.2-0.5-0.2-0.9
		V28c0-0.5-0.1-0.8-0.2-1c-0.1-0.2-0.4-0.3-0.7-0.3c-0.6,0-1.2,0.3-1.7,0.8V33c-0.3,0.1-0.6,0.1-1,0.1c-0.4,0-0.7,0-1-0.1V25
		l0.1-0.1h0.7c0.6,0,1,0.3,1.1,1c0.8-0.7,1.6-1,2.3-1c0.8,0,1.3,0.3,1.7,0.8C130.1,26.1,130.3,26.8,130.3,27.6z"/>
	<path fill="#A9D42D" d="M135.2,31.4l1.7-6.4c0.2,0,0.5-0.1,0.8-0.1c0.3,0,0.6,0,0.9,0.1l0.1,0.1c-1,3.5-1.8,6.1-2.4,7.8
		c-0.4,0.1-0.9,0.1-1.4,0.1s-0.8-0.1-1-0.2c-0.2-0.1-0.4-0.4-0.5-0.8l-2.1-6.8c0.4-0.2,0.8-0.3,1.1-0.3c0.6,0,1,0.3,1.1,0.9l0.9,3.3
		c0.1,0.3,0.3,1,0.5,2.2C135.1,31.4,135.1,31.4,135.2,31.4z"/>
	<path fill="#A9D42D" d="M146.5,29c0,1.4-0.4,2.5-1.1,3.3c-0.6,0.6-1.4,0.9-2.4,0.9s-1.8-0.3-2.4-0.9c-0.8-0.8-1.1-1.8-1.1-3.3
		s0.4-2.5,1.1-3.3c0.6-0.6,1.4-0.9,2.4-0.9s1.8,0.3,2.4,0.9C146.1,26.5,146.5,27.6,146.5,29z M143,26.3c-1,0-1.5,0.9-1.5,2.7
		c0,1.8,0.5,2.7,1.5,2.7s1.5-0.9,1.5-2.7C144.5,27.2,144,26.3,143,26.3z"/>
	<path fill="#A9D42D" d="M150.8,31.5h0.5c0.1,0.3,0.2,0.6,0.2,0.8c0,0.2,0,0.4,0,0.6c-0.6,0.1-1.1,0.1-1.5,0.1
		c-1.2,0-1.7-0.6-1.7-1.9v-9.9l0.1-0.1h0.8c0.4,0,0.7,0.1,0.8,0.3c0.2,0.2,0.2,0.5,0.2,1v8.4C150.2,31.2,150.4,31.5,150.8,31.5z"/>
	<path fill="#A9D42D" d="M155.7,31.4l1.7-6.4c0.2,0,0.5-0.1,0.8-0.1c0.3,0,0.6,0,0.9,0.1l0.1,0.1c-1,3.5-1.8,6.1-2.4,7.8
		c-0.4,0.1-0.9,0.1-1.4,0.1s-0.8-0.1-1-0.2c-0.2-0.1-0.4-0.4-0.5-0.8l-2.1-6.8c0.4-0.2,0.8-0.3,1.1-0.3c0.6,0,1,0.3,1.1,0.9l0.9,3.3
		c0.1,0.3,0.3,1,0.5,2.2C155.5,31.4,155.6,31.4,155.7,31.4z"/>
	<path fill="#A9D42D" d="M162.8,26.6V33c-0.3,0.1-0.6,0.1-1,0.1s-0.7,0-1-0.1v-5.6c0-0.6-0.2-0.9-0.7-0.9h-0.2
		c-0.1-0.2-0.1-0.4-0.1-0.7s0-0.5,0.1-0.7c0.4,0,0.8-0.1,1.2-0.1h0.3c0.5,0,0.8,0.1,1.1,0.4C162.7,25.7,162.8,26.1,162.8,26.6z
		 M160.5,23.6c-0.1-0.2-0.2-0.5-0.2-0.8c0-0.3,0.1-0.5,0.2-0.8c0.3-0.2,0.6-0.2,1-0.2c0.4,0,0.7,0.1,1,0.2c0.1,0.2,0.2,0.5,0.2,0.8
		c0,0.3-0.1,0.5-0.2,0.8c-0.2,0.1-0.6,0.2-1,0.2S160.7,23.7,160.5,23.6z"/>
	<path fill="#A9D42D" d="M169.3,28c0-0.9-0.3-1.4-0.9-1.4c-0.5,0-1,0.3-1.5,0.8V33c-0.3,0.1-0.6,0.1-1,0.1c-0.4,0-0.7,0-1-0.1v-7.9
		l0.1-0.1h0.7c0.6,0,1,0.3,1.1,1c0.7-0.7,1.5-1.1,2.3-1.1c0.8,0,1.4,0.4,1.8,1.2c0.8-0.8,1.7-1.2,2.5-1.2c0.7,0,1.2,0.2,1.5,0.7
		c0.4,0.5,0.5,1.1,0.5,1.8v3.7c0,0.7,0.1,1.2,0.3,1.5c-0.3,0.3-0.7,0.4-1.2,0.4c-0.4,0-0.7-0.1-0.9-0.3s-0.2-0.5-0.2-0.9V28
		c0-0.9-0.3-1.3-0.9-1.3c-0.4,0-0.9,0.3-1.5,0.8V33c-0.3,0.1-0.6,0.1-1,0.1c-0.4,0-0.7,0-1-0.1V28z"/>
	<path fill="#A9D42D" d="M183.9,29.6h-4.5c0,0.6,0.2,1.1,0.4,1.5c0.3,0.3,0.7,0.5,1.3,0.5c0.6,0,1.3-0.2,2.1-0.6
		c0.3,0.3,0.5,0.7,0.6,1.2c-0.9,0.6-1.9,0.9-3.1,0.9s-2.1-0.4-2.6-1.2c-0.5-0.8-0.8-1.8-0.8-3c0-1.2,0.3-2.2,0.9-3
		c0.6-0.8,1.4-1.2,2.5-1.2s1.9,0.3,2.5,1c0.6,0.6,0.9,1.5,0.9,2.4C184,28.7,184,29.2,183.9,29.6z M180.8,26.2c-0.9,0-1.3,0.7-1.4,2
		h2.8V28c0-0.5-0.1-1-0.3-1.3C181.6,26.4,181.3,26.2,180.8,26.2z"/>
	<path fill="#A9D42D" d="M192.4,27.6v3.6c0,0.7,0.1,1.2,0.3,1.5c-0.4,0.3-0.7,0.4-1.2,0.4c-0.4,0-0.7-0.1-0.9-0.3s-0.2-0.5-0.2-0.9
		V28c0-0.5-0.1-0.8-0.2-1c-0.1-0.2-0.4-0.3-0.7-0.3c-0.6,0-1.2,0.3-1.7,0.8V33c-0.3,0.1-0.6,0.1-1,0.1c-0.4,0-0.7,0-1-0.1V25
		l0.1-0.1h0.7c0.6,0,1,0.3,1.1,1c0.8-0.7,1.6-1,2.3-1c0.8,0,1.3,0.3,1.7,0.8C192.2,26.1,192.4,26.8,192.4,27.6z"/>
	<path fill="#A9D42D" d="M198.8,25c0.1,0.2,0.1,0.5,0.1,0.7c0,0.3,0,0.5-0.1,0.7l-2,0v4.4c0,0.5,0.2,0.7,0.7,0.7h1
		c0.1,0.3,0.2,0.6,0.2,0.8c0,0.2,0,0.4,0,0.6c-0.7,0.1-1.3,0.1-1.9,0.1c-1.2,0-1.9-0.6-1.9-1.9v-4.7l-1.2,0
		c-0.1-0.2-0.1-0.4-0.1-0.7c0-0.3,0-0.5,0.1-0.7l1.2,0v-1.2c0-0.4,0.1-0.8,0.2-1c0.2-0.2,0.4-0.3,0.8-0.3h0.8l0.1,0.1V25L198.8,25z"
		/>
	<path fill="#A9D42D" d="M206.9,29c0,1.4-0.4,2.5-1.1,3.3c-0.6,0.6-1.4,0.9-2.4,0.9s-1.8-0.3-2.4-0.9c-0.8-0.8-1.1-1.8-1.1-3.3
		s0.4-2.5,1.1-3.3c0.6-0.6,1.4-0.9,2.4-0.9s1.8,0.3,2.4,0.9C206.5,26.5,206.9,27.6,206.9,29z M203.4,26.3c-1,0-1.5,0.9-1.5,2.7
		c0,1.8,0.5,2.7,1.5,2.7s1.5-0.9,1.5-2.7C204.9,27.2,204.4,26.3,203.4,26.3z"/>
	<path fill="#A9D42D" d="M214.5,33.2c-0.9,0-1.6-0.4-2.1-1.1c-0.5-0.7-0.7-1.8-0.7-3s0.3-2.3,0.9-3c0.6-0.7,1.4-1.1,2.2-1.1
		c0.5,0,1.1,0.2,1.7,0.4v-4l0.1-0.1h0.8c0.4,0,0.7,0.1,0.8,0.3c0.2,0.2,0.2,0.5,0.2,1v8.3c0,0.7,0.1,1.1,0.4,1.4
		c-0.1,0.2-0.1,0.4-0.3,0.6s-0.3,0.3-0.4,0.5c-0.7-0.1-1.1-0.4-1.4-1C216.2,32.8,215.4,33.2,214.5,33.2z M215,31.6
		c0.6,0,1.1-0.3,1.5-0.9v-3.8c-0.5-0.3-1-0.5-1.4-0.5s-0.7,0.2-1,0.7c-0.3,0.5-0.4,1.1-0.4,2c0,0.8,0.1,1.5,0.4,1.9
		C214.3,31.3,214.6,31.6,215,31.6z"/>
	<path fill="#A9D42D" d="M226.7,29.6h-4.5c0,0.6,0.2,1.1,0.4,1.5c0.3,0.3,0.7,0.5,1.3,0.5c0.6,0,1.3-0.2,2.1-0.6
		c0.3,0.3,0.5,0.7,0.6,1.2c-0.9,0.6-1.9,0.9-3.1,0.9s-2.1-0.4-2.6-1.2c-0.5-0.8-0.8-1.8-0.8-3c0-1.2,0.3-2.2,0.9-3
		c0.6-0.8,1.4-1.2,2.5-1.2s1.9,0.3,2.5,1c0.6,0.6,0.9,1.5,0.9,2.4C226.9,28.7,226.8,29.2,226.7,29.6z M223.6,26.2
		c-0.9,0-1.3,0.7-1.4,2h2.8V28c0-0.5-0.1-1-0.3-1.3C224.5,26.4,224.1,26.2,223.6,26.2z"/>
	<path fill="#A9D42D" d="M235.9,31.2h3c0,0.4,0,0.6,0,0.8c-0.1,0.7-0.6,1-1.3,1h-4c-0.4,0-0.7-0.1-0.9-0.3c-0.2-0.2-0.3-0.5-0.3-0.9
		V22l0.1-0.1h0.8c0.4,0,0.7,0.1,0.9,0.3c0.2,0.2,0.3,0.5,0.3,1v8C235,31.2,235.5,31.2,235.9,31.2z"/>
	<path fill="#A9D42D" d="M242.7,26.6V33c-0.3,0.1-0.6,0.1-1,0.1c-0.4,0-0.7,0-1-0.1v-5.6c0-0.6-0.2-0.9-0.7-0.9h-0.2
		c-0.1-0.2-0.1-0.4-0.1-0.7s0-0.5,0.1-0.7c0.4,0,0.8-0.1,1.2-0.1h0.3c0.5,0,0.8,0.1,1.1,0.4C242.6,25.7,242.7,26.1,242.7,26.6z
		 M240.1,23.6l2.4-2.6c0.3,0.1,0.5,0.3,0.8,0.5c0.3,0.2,0.4,0.5,0.5,0.7l-2.8,2.2C240.5,24.2,240.2,24,240.1,23.6z"/>
	<path fill="#A9D42D" d="M247.2,33.2c-0.9,0-1.6-0.4-2.1-1.1c-0.5-0.7-0.7-1.8-0.7-3s0.3-2.3,0.9-3c0.6-0.7,1.4-1.1,2.2-1.1
		c0.5,0,1.1,0.2,1.7,0.4v-4l0.1-0.1h0.8c0.4,0,0.7,0.1,0.8,0.3c0.2,0.2,0.2,0.5,0.2,1v8.3c0,0.7,0.1,1.1,0.4,1.4
		c-0.1,0.2-0.1,0.4-0.3,0.6s-0.3,0.3-0.4,0.5c-0.7-0.1-1.1-0.4-1.4-1C248.9,32.8,248.1,33.2,247.2,33.2z M247.7,31.6
		c0.6,0,1.1-0.3,1.5-0.9v-3.8c-0.5-0.3-1-0.5-1.4-0.5s-0.7,0.2-1,0.7c-0.3,0.5-0.4,1.1-0.4,2c0,0.8,0.1,1.5,0.4,1.9
		C247,31.3,247.3,31.6,247.7,31.6z"/>
	<path fill="#A9D42D" d="M259.5,29.6H255c0,0.6,0.2,1.1,0.4,1.5c0.3,0.3,0.7,0.5,1.3,0.5c0.6,0,1.3-0.2,2.1-0.6
		c0.3,0.3,0.5,0.7,0.6,1.2c-0.9,0.6-1.9,0.9-3.1,0.9s-2.1-0.4-2.6-1.2c-0.5-0.8-0.8-1.8-0.8-3c0-1.2,0.3-2.2,0.9-3
		c0.6-0.8,1.4-1.2,2.5-1.2s1.9,0.3,2.5,1c0.6,0.6,0.9,1.5,0.9,2.4C259.6,28.7,259.6,29.2,259.5,29.6z M256.4,26.2
		c-0.9,0-1.3,0.7-1.4,2h2.8V28c0-0.5-0.1-1-0.3-1.3C257.2,26.4,256.8,26.2,256.4,26.2z"/>
	<path fill="#A9D42D" d="M261,26c0-0.2,0.1-0.4,0.3-0.6c0.1-0.2,0.3-0.4,0.4-0.5c0.8,0.1,1.4,0.6,1.7,1.4c0.4-0.9,1.1-1.4,2.1-1.4
		c0.2,0,0.6,0,0.9,0.1c0,0.7-0.2,1.3-0.5,1.9c-0.2,0-0.4-0.1-0.7-0.1c-0.7,0-1.2,0.3-1.6,1V33c-0.3,0.1-0.6,0.1-1,0.1
		c-0.4,0-0.7,0-1-0.1v-5.4C261.6,26.8,261.4,26.3,261,26z"/>
	<path fill="#A9D42D" d="M273.5,29.6H269c0,0.6,0.2,1.1,0.4,1.5c0.3,0.3,0.7,0.5,1.3,0.5c0.6,0,1.3-0.2,2.1-0.6
		c0.3,0.3,0.5,0.7,0.6,1.2c-0.9,0.6-1.9,0.9-3.1,0.9s-2.1-0.4-2.6-1.2c-0.5-0.8-0.8-1.8-0.8-3c0-1.2,0.3-2.2,0.9-3
		c0.6-0.8,1.4-1.2,2.5-1.2s1.9,0.3,2.5,1c0.6,0.6,0.9,1.5,0.9,2.4C273.7,28.7,273.6,29.2,273.5,29.6z M270.4,26.2
		c-0.9,0-1.3,0.7-1.4,2h2.8V28c0-0.5-0.1-1-0.3-1.3C271.2,26.4,270.9,26.2,270.4,26.2z"/>
	<path fill="#A9D42D" d="M274.8,32.4c0-0.2,0.1-0.5,0.2-0.7c0.1-0.3,0.3-0.5,0.4-0.6c0.9,0.5,1.6,0.7,2.2,0.7c0.4,0,0.7-0.1,0.9-0.2
		c0.2-0.2,0.3-0.3,0.3-0.6c0-0.4-0.3-0.7-0.9-1l-0.9-0.3c-1.3-0.5-2-1.3-2-2.3c0-0.7,0.3-1.3,0.8-1.8c0.5-0.5,1.3-0.7,2.2-0.7
		s1.8,0.2,2.7,0.6c0,0.2,0,0.5-0.2,0.8s-0.3,0.5-0.4,0.6c-0.8-0.4-1.5-0.5-2.2-0.5c-0.3,0-0.5,0.1-0.7,0.2s-0.3,0.3-0.3,0.6
		c0,0.3,0.3,0.6,0.8,0.8l1,0.4c1.4,0.5,2.1,1.3,2.1,2.5c0,0.8-0.3,1.4-0.9,1.8c-0.6,0.4-1.4,0.7-2.4,0.7
		C276.7,33.2,275.7,32.9,274.8,32.4z"/>
</g>
</svg>