<!-- Generator: Adobe Illustrator 17.1.0, SVG Export Plug-In  -->
<svg version="1.1"
	 xmlns="http://www.w3.org/2000/svg" xmlns:xlink="http://www.w3.org/1999/xlink" xmlns:a="http://ns.adobe.com/AdobeSVGViewerExtensions/3.0/"
	 x="0px" y="0px" width="97px" height="30.8px" viewBox="0 0 97 30.8" enable-background="new 0 0 97 30.8" xml:space="preserve">
<defs>
</defs>
<g>
	<path fill-rule="evenodd" clip-rule="evenodd" fill="#043A63" d="M8.6,30.8c-0.3,0-0.5-0.2-0.5-0.5s0.2-0.5,0.5-0.5h16.6
		c0.3,0,0.5,0.2,0.5,0.5s-0.2,0.5-0.5,0.5H8.6z"/>
	<path fill-rule="evenodd" clip-rule="evenodd" fill="#FFFFFF" d="M2.9,30.8c-0.3,0-0.5-0.2-0.5-0.5s0.2-0.5,0.5-0.5h3
		c0.3,0,0.5,0.2,0.5,0.5s-0.2,0.5-0.5,0.5H2.9z M27.3,30.8h3h0c0.3,0,0.5-0.2,0.5-0.5v0c0-3.4-1.1-6.5-3-9.1
		c-1.9-2.6-4.6-4.6-7.8-5.6c-0.3-0.1-0.5,0.1-0.6,0.3c-0.1,0.3,0.1,0.5,0.3,0.6c3,0.9,5.5,2.8,7.3,5.3c1.7,2.3,2.7,5,2.8,8h-2.5
		c-0.3,0-0.5,0.2-0.5,0.5S27.1,30.8,27.3,30.8 M10.7,15.6c-3.2,1-5.9,3-7.8,5.6c-1.9,2.5-3,5.7-3,9.1c0,0.3,0.2,0.5,0.5,0.5
		c0.3,0,0.5-0.2,0.5-0.5c0-3.2,1-6.1,2.8-8.5c1.8-2.4,4.3-4.3,7.3-5.3c0.3-0.1,0.4-0.3,0.3-0.6C11.3,15.7,11,15.6,10.7,15.6"/>
	<path fill-rule="evenodd" clip-rule="evenodd" fill="#FFFFFF" d="M15.4,0c2.2,0,4.2,0.9,5.6,2.3c1.4,1.4,2.3,3.4,2.3,5.6
		c0,2.2-0.9,4.2-2.3,5.6l0,0l0,0l0,0c-1.4,1.4-3.4,2.3-5.6,2.3c-2.2,0-4.2-0.9-5.6-2.3c-1.4-1.4-2.3-3.4-2.3-5.6
		c0-2.2,0.9-4.2,2.3-5.6l0,0C11.2,0.9,13.2,0,15.4,0 M20.3,3c-1.3-1.3-3-2-4.9-2c-1.9,0-3.7,0.8-4.9,2c-1.3,1.3-2,3-2,4.9
		c0,1.9,0.8,3.7,2,4.9c1.3,1.3,3,2,4.9,2c1.9,0,3.7-0.8,4.9-2l0,0c1.3-1.3,2-3,2-4.9C22.4,6,21.6,4.3,20.3,3"/>
	<path fill-rule="evenodd" clip-rule="evenodd" fill="#FFFFFF" d="M10.7,16.5c-0.2-0.1-0.3-0.4-0.2-0.7c0.1-0.2,0.4-0.3,0.7-0.2
		c0.6,0.4,1.3,0.6,2.1,0.8l0,0v0c0.7,0.2,1.4,0.3,2.2,0.3c0.8,0,1.5-0.1,2.2-0.3l0,0c0.7-0.2,1.4-0.5,2-0.8c0.2-0.1,0.5,0,0.7,0.2
		c0.1,0.2,0,0.5-0.2,0.7c-0.7,0.4-1.5,0.7-2.3,0.9l0,0c-0.8,0.2-1.6,0.3-2.5,0.3c-0.8,0-1.7-0.1-2.5-0.3v0
		C12.1,17.2,11.4,16.9,10.7,16.5"/>
	<path fill-rule="evenodd" clip-rule="evenodd" fill="#043A63" d="M23.8,27c-0.1-0.2,0-0.5,0.3-0.6c0.2-0.1,0.5,0,0.6,0.3
		c0.2,0.6,0.4,1.2,0.6,1.8c0.1,0.6,0.2,1.2,0.2,1.9c0,0.3-0.2,0.5-0.5,0.5c-0.3,0-0.5-0.2-0.5-0.5c0-0.6-0.1-1.1-0.2-1.7
		C24.2,28.1,24,27.5,23.8,27"/>
	<path fill-rule="evenodd" clip-rule="evenodd" fill="#FFFFFF" d="M6.3,30.3c0,0.3-0.2,0.5-0.5,0.5c-0.3,0-0.5-0.2-0.5-0.5
		c0-0.6,0.1-1.3,0.2-1.9c0.1-0.6,0.3-1.2,0.6-1.8c0.1-0.2,0.4-0.4,0.6-0.3C7,26.5,7.1,26.8,7,27c-0.2,0.5-0.4,1.1-0.5,1.6
		C6.4,29.2,6.3,29.7,6.3,30.3"/>
</g>
<g>
	<path fill="#FFFFFF" d="M45.9,7.8h1.8c0.3,0,0.5,0.1,0.7,0.2c0.1,0.1,0.2,0.3,0.2,0.6v3.1c-0.9,0.3-1.9,0.5-2.9,0.5
		c-0.6,0-1.1-0.1-1.6-0.3c-0.4-0.2-0.8-0.5-1-0.9c-0.5-0.8-0.8-1.8-0.8-2.9c0-0.7,0.1-1.4,0.3-2s0.5-1,0.8-1.3c0.7-0.7,1.5-1,2.4-1
		c1.1,0,2,0.3,2.8,0.9c-0.1,0.4-0.3,0.7-0.6,0.9c-0.6-0.5-1.4-0.8-2.2-0.8c-0.7,0-1.2,0.3-1.6,0.8C43.7,6,43.5,6.9,43.5,8
		c0,2.1,0.8,3.2,2.3,3.2c0.6,0,1.1-0.1,1.6-0.2V9.6c0-0.4,0-0.6,0-0.8h-1.1c-0.4,0-0.6-0.2-0.6-0.5C45.8,8.1,45.8,7.9,45.9,7.8z"/>
	<path fill="#FFFFFF" d="M54.7,9.4h-3.6c0,0.6,0.1,1,0.4,1.3c0.2,0.3,0.6,0.5,1.1,0.5s1.1-0.2,1.7-0.5c0.2,0.2,0.3,0.4,0.4,0.8
		c-0.6,0.4-1.4,0.7-2.3,0.7c-0.9,0-1.5-0.3-1.9-0.9s-0.6-1.3-0.6-2.3s0.2-1.7,0.6-2.3C51,6.2,51.6,6,52.3,6c0.8,0,1.4,0.2,1.8,0.7
		c0.4,0.5,0.6,1.1,0.6,1.8C54.8,8.8,54.7,9.1,54.7,9.4z M53.3,7.3c-0.2-0.3-0.5-0.5-0.9-0.5S51.7,7,51.5,7.3
		c-0.2,0.3-0.3,0.7-0.4,1.3h2.5V8.4C53.6,8,53.5,7.6,53.3,7.3z"/>
	<path fill="#FFFFFF" d="M55.7,11.6c0-0.1,0-0.3,0.1-0.4s0.2-0.3,0.3-0.4c0.7,0.4,1.2,0.5,1.6,0.5c0.4,0,0.7-0.1,0.9-0.2
		c0.2-0.1,0.3-0.3,0.3-0.6c0-0.4-0.3-0.7-0.8-0.9l-0.7-0.3C56.5,9,56,8.4,56,7.7c0-0.5,0.2-1,0.6-1.3C57,6.1,57.5,6,58.1,6
		s1.3,0.1,1.9,0.4c0,0.2,0,0.3-0.1,0.5s-0.2,0.3-0.3,0.4c-0.6-0.3-1.1-0.4-1.6-0.4c-0.3,0-0.5,0.1-0.7,0.2c-0.2,0.1-0.3,0.3-0.3,0.5
		c0,0.2,0.1,0.4,0.2,0.5s0.3,0.2,0.6,0.3l0.7,0.3c1,0.4,1.5,1,1.5,1.8c0,0.5-0.2,1-0.6,1.3c-0.4,0.3-1,0.5-1.7,0.5
		S56.4,12,55.7,11.6z"/>
	<path fill="#FFFFFF" d="M64.4,6.1c0,0.1,0,0.3,0,0.4s0,0.3,0,0.4l-1.5,0v3.7c0,0.3,0.2,0.5,0.5,0.5h0.8c0.1,0.2,0.1,0.3,0.1,0.5
		s0,0.3,0,0.3c-0.5,0.1-0.9,0.1-1.3,0.1c-0.8,0-1.2-0.4-1.2-1.2V6.9l-0.9,0c0-0.1,0-0.3,0-0.4s0-0.3,0-0.4l0.9,0V5
		c0-0.3,0-0.5,0.1-0.6c0.1-0.1,0.3-0.2,0.5-0.2h0.4l0.1,0.1v1.8L64.4,6.1z"/>
	<path fill="#FFFFFF" d="M70.3,11.5c-0.1,0.3-0.2,0.5-0.5,0.6c-0.4-0.1-0.7-0.3-0.9-0.8c-0.6,0.6-1.2,0.8-1.8,0.8
		c-0.6,0-1.1-0.2-1.4-0.5c-0.3-0.4-0.5-0.8-0.5-1.2c0-0.7,0.2-1.1,0.6-1.5s1-0.5,1.7-0.5c0.4,0,0.8,0,1.2,0.1V8c0-0.7-0.3-1.1-1-1.1
		c-0.5,0-1.2,0.2-1.9,0.5c-0.2-0.2-0.3-0.5-0.3-0.9C66.4,6.2,67.2,6,68,6c0.6,0,1.1,0.2,1.4,0.5c0.3,0.3,0.5,0.8,0.5,1.5v2.5
		C69.9,11,70.1,11.3,70.3,11.5z M67.9,5.2l-0.7-0.3c-0.2-0.1-0.3-0.1-0.4-0.1S66.5,4.8,66.3,5l-0.1,0.2c-0.1,0-0.2,0-0.3-0.1
		C65.7,5,65.7,5,65.6,4.8l0.1-0.2C65.8,4.3,66,4.1,66.2,4c0.2-0.2,0.4-0.2,0.6-0.2c0.2,0,0.5,0.1,0.7,0.2l0.7,0.3
		c0.1,0.1,0.3,0.1,0.4,0.1c0.1,0,0.3-0.1,0.5-0.3l0.1-0.2c0.1,0,0.2,0,0.3,0.1c0.1,0.1,0.2,0.2,0.2,0.3l-0.1,0.2
		c-0.1,0.3-0.3,0.5-0.5,0.6c-0.2,0.2-0.4,0.2-0.6,0.2C68.3,5.4,68.1,5.3,67.9,5.2z M67.3,11.2c0.5,0,1-0.3,1.5-0.8V9.3
		c-0.3,0-0.7-0.1-1.1-0.1c-0.4,0-0.7,0.1-0.9,0.3c-0.2,0.2-0.3,0.4-0.3,0.7c0,0.3,0.1,0.5,0.2,0.7C66.9,11.2,67.1,11.2,67.3,11.2z"
		/>
	<path fill="#FFFFFF" d="M75.7,6.6c0.6,0.6,0.8,1.4,0.8,2.5s-0.3,1.9-0.8,2.5c-0.4,0.4-1,0.7-1.7,0.7s-1.3-0.2-1.7-0.7
		c-0.6-0.6-0.8-1.4-0.8-2.5s0.3-1.9,0.8-2.5C72.7,6.2,73.3,6,74,6S75.3,6.2,75.7,6.6z M72.6,9.1c0,1.5,0.5,2.2,1.4,2.2
		s1.4-0.7,1.4-2.2c0-0.4,0-0.8-0.1-1.1c-0.1-0.3-0.2-0.6-0.4-0.8C74.6,7,74.3,6.8,74,6.8S73.4,7,73.2,7.2c-0.2,0.2-0.4,0.5-0.4,0.8
		C72.6,8.3,72.6,8.7,72.6,9.1z"/>
	<path fill="#FFFFFF" d="M44.3,26.6c-0.7,0-1.2-0.3-1.5-0.8c-0.4-0.6-0.5-1.3-0.5-2.3c0-1,0.2-1.7,0.7-2.3c0.5-0.5,1-0.8,1.6-0.8
		c0.4,0,0.9,0.1,1.4,0.4v-3.1l0.1-0.1h0.4c0.2,0,0.4,0.1,0.5,0.2c0.1,0.1,0.1,0.3,0.1,0.6v6.4c0,0.6,0.1,1,0.3,1.2
		c-0.1,0.3-0.2,0.5-0.5,0.6c-0.4-0.1-0.7-0.3-0.9-0.8C45.5,26.3,44.9,26.6,44.3,26.6z M44.5,25.6c0.5,0,1-0.3,1.4-0.8v-3
		c-0.4-0.3-0.9-0.5-1.2-0.5s-0.7,0.2-0.9,0.6c-0.2,0.4-0.4,0.9-0.4,1.6c0,0.7,0.1,1.2,0.3,1.6S44.2,25.6,44.5,25.6z"/>
	<path fill="#FFFFFF" d="M53.3,23.8h-3.6c0,0.6,0.1,1,0.4,1.3c0.2,0.3,0.6,0.5,1.1,0.5s1.1-0.2,1.7-0.5c0.2,0.2,0.3,0.4,0.4,0.8
		c-0.6,0.4-1.4,0.7-2.3,0.7c-0.9,0-1.5-0.3-1.9-0.9s-0.6-1.3-0.6-2.3s0.2-1.7,0.6-2.3c0.4-0.6,1-0.9,1.8-0.9c0.8,0,1.4,0.2,1.8,0.7
		c0.4,0.5,0.6,1.1,0.6,1.8C53.4,23.2,53.4,23.5,53.3,23.8z M52,21.7c-0.2-0.3-0.5-0.5-0.9-0.5s-0.7,0.2-0.9,0.5
		c-0.2,0.3-0.3,0.7-0.4,1.3h2.5v-0.2C52.3,22.4,52.2,22,52,21.7z"/>
	<path fill="#FFFFFF" d="M57.8,18.2l2.4,0c0.8,0,1.5,0.2,2,0.7s0.8,1.1,0.8,2c0,0.9-0.3,1.5-0.8,2s-1.2,0.7-2,0.7h-1.3v2.9
		c-0.2,0-0.4,0-0.6,0s-0.4,0-0.6,0L57.8,18.2L57.8,18.2z M58.9,22.5l1.3,0c0.4,0,0.7-0.1,0.9-0.3c0.2-0.2,0.4-0.4,0.5-0.6
		c0.1-0.2,0.1-0.5,0.1-0.9s-0.1-0.7-0.3-1.1s-0.6-0.5-1.2-0.5c-0.6,0-1,0-1.3,0V22.5z"/>
	<path fill="#FFFFFF" d="M68.7,23.8h-3.6c0,0.6,0.1,1,0.4,1.3c0.2,0.3,0.6,0.5,1.1,0.5s1.1-0.2,1.7-0.5c0.2,0.2,0.3,0.4,0.4,0.8
		c-0.6,0.4-1.4,0.7-2.3,0.7c-0.9,0-1.5-0.3-1.9-0.9S64,24.4,64,23.5s0.2-1.7,0.6-2.3c0.4-0.6,1-0.9,1.8-0.9c0.8,0,1.4,0.2,1.8,0.7
		c0.4,0.5,0.6,1.1,0.6,1.8C68.8,23.2,68.8,23.5,68.7,23.8z M67.4,21.7c-0.2-0.3-0.5-0.5-0.9-0.5s-0.7,0.2-0.9,0.5
		c-0.2,0.3-0.3,0.7-0.4,1.3h2.5v-0.2C67.7,22.4,67.6,22,67.4,21.7z"/>
	<path fill="#FFFFFF" d="M69.8,26c0-0.1,0-0.3,0.1-0.4s0.2-0.3,0.3-0.4c0.7,0.4,1.2,0.5,1.6,0.5c0.4,0,0.7-0.1,0.9-0.2
		c0.2-0.1,0.3-0.3,0.3-0.6c0-0.4-0.3-0.7-0.8-0.9l-0.7-0.3c-1-0.4-1.5-0.9-1.5-1.7c0-0.5,0.2-1,0.6-1.3c0.4-0.3,0.9-0.5,1.6-0.5
		s1.3,0.1,1.9,0.4c0,0.2,0,0.3-0.1,0.5s-0.2,0.3-0.3,0.4c-0.6-0.3-1.1-0.4-1.6-0.4c-0.3,0-0.5,0.1-0.7,0.2c-0.2,0.1-0.3,0.3-0.3,0.5
		c0,0.2,0.1,0.4,0.2,0.5s0.3,0.2,0.6,0.3l0.7,0.3c1,0.4,1.5,1,1.5,1.8c0,0.5-0.2,1-0.6,1.3c-0.4,0.3-1,0.5-1.7,0.5
		S70.5,26.4,69.8,26z"/>
	<path fill="#FFFFFF" d="M75.1,26c0-0.1,0-0.3,0.1-0.4s0.2-0.3,0.3-0.4c0.7,0.4,1.2,0.5,1.6,0.5c0.4,0,0.7-0.1,0.9-0.2
		c0.2-0.1,0.3-0.3,0.3-0.6c0-0.4-0.3-0.7-0.8-0.9l-0.7-0.3c-1-0.4-1.5-0.9-1.5-1.7c0-0.5,0.2-1,0.6-1.3c0.4-0.3,0.9-0.5,1.6-0.5
		s1.3,0.1,1.9,0.4c0,0.2,0,0.3-0.1,0.5s-0.2,0.3-0.3,0.4c-0.6-0.3-1.1-0.4-1.6-0.4c-0.3,0-0.5,0.1-0.7,0.2c-0.2,0.1-0.3,0.3-0.3,0.5
		c0,0.2,0.1,0.4,0.2,0.5s0.3,0.2,0.6,0.3L78,23c1,0.4,1.5,1,1.5,1.8c0,0.5-0.2,1-0.6,1.3c-0.4,0.3-1,0.5-1.7,0.5S75.7,26.4,75.1,26z
		"/>
	<path fill="#FFFFFF" d="M84.8,21c0.6,0.6,0.8,1.4,0.8,2.5s-0.3,1.9-0.8,2.5c-0.4,0.4-1,0.7-1.7,0.7s-1.3-0.2-1.7-0.7
		c-0.6-0.6-0.8-1.4-0.8-2.5s0.3-1.9,0.8-2.5c0.4-0.4,1-0.7,1.7-0.7S84.3,20.6,84.8,21z M81.7,23.5c0,1.5,0.5,2.2,1.4,2.2
		s1.4-0.7,1.4-2.2c0-0.4,0-0.8-0.1-1.1c-0.1-0.3-0.2-0.6-0.4-0.8c-0.2-0.2-0.5-0.3-0.8-0.3s-0.6,0.1-0.8,0.3
		c-0.2,0.2-0.4,0.5-0.4,0.8C81.7,22.7,81.7,23.1,81.7,23.5z"/>
	<path fill="#FFFFFF" d="M91.7,25.9c-0.1,0.3-0.2,0.5-0.5,0.6c-0.4-0.1-0.7-0.3-0.9-0.8c-0.6,0.6-1.2,0.8-1.8,0.8
		c-0.6,0-1.1-0.2-1.4-0.5c-0.3-0.4-0.5-0.8-0.5-1.2c0-0.7,0.2-1.1,0.6-1.5s1-0.5,1.7-0.5c0.4,0,0.8,0,1.2,0.1v-0.5
		c0-0.7-0.3-1.1-1-1.1c-0.5,0-1.2,0.2-1.9,0.5c-0.2-0.2-0.3-0.5-0.3-0.9c0.8-0.4,1.7-0.6,2.5-0.6c0.6,0,1.1,0.2,1.4,0.5
		c0.3,0.3,0.5,0.8,0.5,1.5v2.5C91.3,25.4,91.4,25.7,91.7,25.9z M88.7,25.6c0.5,0,1-0.3,1.5-0.8v-1.2c-0.3,0-0.7-0.1-1.1-0.1
		c-0.4,0-0.7,0.1-0.9,0.3c-0.2,0.2-0.3,0.4-0.3,0.7c0,0.3,0.1,0.5,0.2,0.7C88.2,25.6,88.4,25.6,88.7,25.6z"/>
	<path fill="#FFFFFF" d="M92.6,26c0-0.1,0-0.3,0.1-0.4s0.2-0.3,0.3-0.4c0.7,0.4,1.2,0.5,1.6,0.5c0.4,0,0.7-0.1,0.9-0.2
		c0.2-0.1,0.3-0.3,0.3-0.6c0-0.4-0.3-0.7-0.8-0.9l-0.7-0.3c-1-0.4-1.5-0.9-1.5-1.7c0-0.5,0.2-1,0.6-1.3c0.4-0.3,0.9-0.5,1.6-0.5
		s1.3,0.1,1.9,0.4c0,0.2,0,0.3-0.1,0.5s-0.2,0.3-0.3,0.4c-0.6-0.3-1.1-0.4-1.6-0.4c-0.3,0-0.5,0.1-0.7,0.2c-0.2,0.1-0.3,0.3-0.3,0.5
		c0,0.2,0.1,0.4,0.2,0.5s0.3,0.2,0.6,0.3l0.7,0.3c1,0.4,1.5,1,1.5,1.8c0,0.5-0.2,1-0.6,1.3c-0.4,0.3-1,0.5-1.7,0.5
		S93.3,26.4,92.6,26z"/>
</g>
</svg>