<!-- Generator: Adobe Illustrator 17.1.0, SVG Export Plug-In  -->
<svg version="1.1"
	 xmlns="http://www.w3.org/2000/svg" xmlns:xlink="http://www.w3.org/1999/xlink" xmlns:a="http://ns.adobe.com/AdobeSVGViewerExtensions/3.0/"
	 x="0px" y="0px" width="1487px" height="722px" viewBox="0 0 1487 722" enable-background="new 0 0 1487 722" xml:space="preserve"
	>
<defs>
</defs>
<radialGradient id="SVGID_1_" cx="743.5" cy="361" r="584.4285" gradientTransform="matrix(1 0 0 0.64 0 129.9679)" gradientUnits="userSpaceOnUse">
	<stop  offset="0" style="stop-color:#4A4A4A;stop-opacity:0.4"/>
	<stop  offset="2.967136e-002" style="stop-color:#666666;stop-opacity:0.4358"/>
	<stop  offset="7.977668e-002" style="stop-color:#8E8E8E;stop-opacity:0.4962"/>
	<stop  offset="0.1331" style="stop-color:#B1B1B1;stop-opacity:0.5605"/>
	<stop  offset="0.1892" style="stop-color:#CECECE;stop-opacity:0.6281"/>
	<stop  offset="0.2491" style="stop-color:#E3E3E3;stop-opacity:0.7004"/>
	<stop  offset="0.3147" style="stop-color:#F3F3F3;stop-opacity:0.7794"/>
	<stop  offset="0.39" style="stop-color:#FCFCFC;stop-opacity:0.8703"/>
	<stop  offset="0.4976" style="stop-color:#FFFFFF"/>
	<stop  offset="0.594" style="stop-color:#FCFCFC;stop-opacity:0.8848"/>
	<stop  offset="0.6705" style="stop-color:#F2F2F2;stop-opacity:0.7935"/>
	<stop  offset="0.7401" style="stop-color:#E1E1E1;stop-opacity:0.7103"/>
	<stop  offset="0.8057" style="stop-color:#CACACA;stop-opacity:0.632"/>
	<stop  offset="0.8685" style="stop-color:#ABABAB;stop-opacity:0.5571"/>
	<stop  offset="0.9291" style="stop-color:#868686;stop-opacity:0.4847"/>
	<stop  offset="0.9869" style="stop-color:#5A5A5A;stop-opacity:0.4156"/>
	<stop  offset="1" style="stop-color:#4F4F4F;stop-opacity:0.4"/>
</radialGradient>
<path opacity="0.6" fill="url(#SVGID_1_)" d="M1487,60v-2h-49V0h-2v58h-57V0h-2v58h-56V0h-2v58h-59V0h-2v58h-57V0h-2v58h-59V0h-2v58
	h-57V0h-2v58h-58V0h-2v58h-58V0h-2v58h-59V0h-2v58h-58V0h-2v58h-57V0h-2v58h-59V0h-2v58h-52V0h-2v58h-59V0h-2v58h-57V0h-2v58h-59V0
	h-2v58h-57V0h-2v58h-58V0h-2v58h-58V0h-2v58h-59V0h-2v58h-58V0h-2v58h-57V0h-2v58H65V0h-2v58H0v2h63v58H0v2h63v58H0v2h63v59H0v1h63
	v57H0v2h63v59H0v2h63v57H0v2h63v59H0v2h63v58H0v2h63v58H0v2h63v58H0v2h63v62h2v-62h59v62h2v-62h57v62h2v-62h58v62h2v-62h59v62h2v-62
	h58v62h2v-62h58v62h2v-62h57v62h2v-62h59v62h2v-62h57v62h2v-62h59v62h2v-62h52v62h2v-62h59v62h2v-62h57v62h2v-62h58v62h2v-62h59v62
	h2v-62h58v62h2v-62h58v62h2v-62h57v62h2v-62h59v62h2v-62h57v62h2v-62h59v62h2v-62h56v62h2v-62h57v62h2v-62h49v-2h-49v-58h49v-2h-49
	v-58h49v-2h-49v-58h49v-2h-49v-59h49v-2h-49v-57h49v-2h-49v-59h49v-2h-49v-57h49v-1h-49v-59h49v-2h-49v-58h49v-2h-49V60H1487z
	 M1377,60v58h-56V60H1377z M1079,358h-58v-59h58V358z M1081,299h57v59h-57V299z M1019,358h-58v-59h58V358z M959,358h-59v-59h59V358z
	 M898,358h-58v-59h58V358z M838,358h-57v-59h57V358z M779,358h-59v-59h59V358z M718,358h-52v-59h52V358z M664,358h-59v-59h59V358z
	 M603,358h-57v-59h57V358z M544,358h-59v-59h59V358z M483,358h-57v-59h57V358z M424,358h-58v-59h58V358z M364,358h-58v-59h58V358z
	 M364,360v57h-58v-57H364z M366,360h58v57h-58V360z M426,360h57v57h-57V360z M485,360h59v57h-59V360z M546,360h57v57h-57V360z
	 M605,360h59v57h-59V360z M666,360h52v57h-52V360z M720,360h59v57h-59V360z M781,360h57v57h-57V360z M840,360h58v57h-58V360z
	 M900,360h59v57h-59V360z M961,360h58v57h-58V360z M1021,360h58v57h-58V360z M1081,360h57v57h-57V360z M1140,360h59v57h-59V360z
	 M1140,358v-59h59v59H1140z M1140,297v-57h59v57H1140z M1138,297h-57v-57h57V297z M1079,297h-58v-57h58V297z M1019,297h-58v-57h58
	V297z M959,297h-59v-57h59V297z M898,297h-58v-57h58V297z M838,297h-57v-57h57V297z M779,297h-59v-57h59V297z M718,297h-52v-57h52
	V297z M664,297h-59v-57h59V297z M603,297h-57v-57h57V297z M544,297h-59v-57h59V297z M483,297h-57v-57h57V297z M424,297h-58v-57h58
	V297z M364,297h-58v-57h58V297z M304,297h-59v-57h59V297z M304,299v59h-59v-59H304z M304,360v57h-59v-57H304z M304,419v59h-59v-59
	H304z M306,419h58v59h-58V419z M366,419h58v59h-58V419z M426,419h57v59h-57V419z M485,419h59v59h-59V419z M546,419h57v59h-57V419z
	 M605,419h59v59h-59V419z M666,419h52v59h-52V419z M720,419h59v59h-59V419z M781,419h57v59h-57V419z M840,419h58v59h-58V419z
	 M900,419h59v59h-59V419z M961,419h58v59h-58V419z M1021,419h58v59h-58V419z M1081,419h57v59h-57V419z M1140,419h59v59h-59V419z
	 M1201,419h57v59h-57V419z M1201,417v-57h57v57H1201z M1201,358v-59h57v59H1201z M1201,297v-57h57v57H1201z M1201,239v-59h57v59
	H1201z M1199,239h-59v-59h59V239z M1138,239h-57v-59h57V239z M1079,239h-58v-59h58V239z M1019,239h-58v-59h58V239z M959,239h-59v-59
	h59V239z M898,239h-58v-59h58V239z M838,239h-57v-59h57V239z M779,239h-59v-59h59V239z M718,239h-52v-59h52V239z M664,239h-59v-59
	h59V239z M603,239h-57v-59h57V239z M544,239h-59v-59h59V239z M483,239h-57v-59h57V239z M424,239h-58v-59h58V239z M364,239h-58v-59
	h58V239z M304,239h-59v-59h59V239z M243,239h-58v-59h58V239z M243,240v57h-58v-57H243z M243,299v59h-58v-59H243z M243,360v57h-58
	v-57H243z M243,419v59h-58v-59H243z M243,480v58h-58v-58H243z M245,480h59v58h-59V480z M306,480h58v58h-58V480z M366,480h58v58h-58
	V480z M426,480h57v58h-57V480z M485,480h59v58h-59V480z M546,480h57v58h-57V480z M605,480h59v58h-59V480z M666,480h52v58h-52V480z
	 M720,480h59v58h-59V480z M781,480h57v58h-57V480z M840,480h58v58h-58V480z M900,480h59v58h-59V480z M961,480h58v58h-58V480z
	 M1021,480h58v58h-58V480z M1081,480h57v58h-57V480z M1140,480h59v58h-59V480z M1201,480h57v58h-57V480z M1260,480h59v58h-59V480z
	 M1260,478v-59h59v59H1260z M1260,417v-57h59v57H1260z M1260,358v-59h59v59H1260z M1260,297v-57h59v57H1260z M1260,239v-59h59v59
	H1260z M1260,178v-58h59v58H1260z M1258,178h-57v-58h57V178z M1199,178h-59v-58h59V178z M1138,178h-57v-58h57V178z M1079,178h-58
	v-58h58V178z M1019,178h-58v-58h58V178z M959,178h-59v-58h59V178z M898,178h-58v-58h58V178z M838,178h-57v-58h57V178z M779,178h-59
	v-58h59V178z M718,178h-52v-58h52V178z M664,178h-59v-58h59V178z M603,178h-57v-58h57V178z M544,178h-59v-58h59V178z M483,178h-57
	v-58h57V178z M424,178h-58v-58h58V178z M364,178h-58v-58h58V178z M304,178h-59v-58h59V178z M243,178h-58v-58h58V178z M183,178h-57
	v-58h57V178z M183,180v59h-57v-59H183z M183,240v57h-57v-57H183z M183,299v59h-57v-59H183z M183,360v57h-57v-57H183z M183,419v59
	h-57v-59H183z M183,480v58h-57v-58H183z M183,540v58h-57v-58H183z M185,540h58v58h-58V540z M245,540h59v58h-59V540z M306,540h58v58
	h-58V540z M366,540h58v58h-58V540z M426,540h57v58h-57V540z M485,540h59v58h-59V540z M546,540h57v58h-57V540z M605,540h59v58h-59
	V540z M666,540h52v58h-52V540z M720,540h59v58h-59V540z M781,540h57v58h-57V540z M840,540h58v58h-58V540z M900,540h59v58h-59V540z
	 M961,540h58v58h-58V540z M1021,540h58v58h-58V540z M1081,540h57v58h-57V540z M1140,540h59v58h-59V540z M1201,540h57v58h-57V540z
	 M1260,540h59v58h-59V540z M1321,540h56v58h-56V540z M1321,538v-58h56v58H1321z M1321,478v-59h56v59H1321z M1321,417v-57h56v57H1321
	z M1321,358v-59h56v59H1321z M1321,297v-57h56v57H1321z M1321,239v-59h56v59H1321z M1321,178v-58h56v58H1321z M1319,60v58h-59V60
	H1319z M1258,60v58h-57V60H1258z M1199,60v58h-59V60H1199z M1138,60v58h-57V60H1138z M1079,60v58h-58V60H1079z M1019,60v58h-58V60
	H1019z M959,60v58h-59V60H959z M898,60v58h-58V60H898z M838,60v58h-57V60H838z M779,60v58h-59V60H779z M718,60v58h-52V60H718z
	 M664,60v58h-59V60H664z M603,60v58h-57V60H603z M544,60v58h-59V60H544z M483,60v58h-57V60H483z M424,60v58h-58V60H424z M364,60v58
	h-58V60H364z M304,60v58h-59V60H304z M243,60v58h-58V60H243z M183,60v58h-57V60H183z M65,60h59v58H65V60z M65,120h59v58H65V120z
	 M65,180h59v59H65V180z M65,240h59v57H65V240z M65,299h59v59H65V299z M65,360h59v57H65V360z M65,419h59v59H65V419z M65,480h59v58H65
	V480z M65,540h59v58H65V540z M65,658v-58h59v58H65z M126,658v-58h57v58H126z M185,658v-58h58v58H185z M245,658v-58h59v58H245z
	 M306,658v-58h58v58H306z M366,658v-58h58v58H366z M426,658v-58h57v58H426z M485,658v-58h59v58H485z M546,658v-58h57v58H546z
	 M605,658v-58h59v58H605z M666,658v-58h52v58H666z M720,658v-58h59v58H720z M781,658v-58h57v58H781z M840,658v-58h58v58H840z
	 M900,658v-58h59v58H900z M961,658v-58h58v58H961z M1021,658v-58h58v58H1021z M1081,658v-58h57v58H1081z M1140,658v-58h59v58H1140z
	 M1201,658v-58h57v58H1201z M1260,658v-58h59v58H1260z M1321,658v-58h56v58H1321z M1436,658h-57v-58h57V658z M1436,598h-57v-58h57
	V598z M1436,538h-57v-58h57V538z M1436,478h-57v-59h57V478z M1436,417h-57v-57h57V417z M1436,358h-57v-59h57V358z M1436,297h-57v-57
	h57V297z M1436,239h-57v-59h57V239z M1436,178h-57v-58h57V178z M1436,118h-57V60h57V118z"/>
</svg>