<!-- Generator: Adobe Illustrator 17.1.0, SVG Export Plug-In  -->
<svg version="1.1"
	 xmlns="http://www.w3.org/2000/svg" xmlns:xlink="http://www.w3.org/1999/xlink" xmlns:a="http://ns.adobe.com/AdobeSVGViewerExtensions/3.0/"
	 x="0px" y="0px" width="282.5px" height="247.1px" viewBox="0 0 282.5 247.1" enable-background="new 0 0 282.5 247.1"
	 xml:space="preserve">
<defs>
</defs>
<path fill="#E6A84C" stroke="#FFFFFF" stroke-width="2" stroke-miterlimit="10" d="M172,242.6c-58.5,0-106-47.5-106-106
	s47.5-106,106-106c58.5,0,106,47.5,106,106S230.5,242.6,172,242.6"/>
<circle fill="none" stroke="#FFFFFF" stroke-width="9" stroke-miterlimit="10" cx="172" cy="136.6" r="106"/>
<g>
	<path fill="#FFFFFF" d="M7.3,102.2c-1.1-0.1-1.9-1.1-1.8-2.2l0,0c0.1-1.1,1.1-1.9,2.2-1.8l0,0c1.1,0.1,1.9,1.1,1.8,2.2l0,0
		c-0.1,1-1,1.8-2,1.8l0,0C7.4,102.2,7.3,102.2,7.3,102.2z M8.2,94c-1.1-0.2-1.8-1.2-1.7-2.3l0,0c0.2-1.1,1.2-1.9,2.3-1.7l0,0
		c1.1,0.2,1.8,1.2,1.7,2.3l0,0c-0.2,1-1,1.7-2,1.7l0,0C8.4,94,8.3,94,8.2,94z M9.5,85.9c-1.1-0.2-1.8-1.3-1.6-2.4l0,0
		c0.2-1.1,1.3-1.8,2.4-1.6l0,0c1.1,0.2,1.8,1.3,1.6,2.4l0,0c-0.2,0.9-1,1.6-2,1.6l0,0C9.8,86,9.7,85.9,9.5,85.9z M11.3,77.9
		c-1.1-0.3-1.7-1.4-1.4-2.5l0,0c0.3-1.1,1.4-1.7,2.5-1.4l0,0c1.1,0.3,1.7,1.4,1.4,2.5l0,0c-0.2,0.9-1,1.5-1.9,1.5l0,0
		C11.6,78,11.5,77.9,11.3,77.9z M13.5,70c-1-0.4-1.6-1.5-1.3-2.5l0,0c0.3-1,1.5-1.6,2.5-1.3l0,0c1,0.4,1.6,1.5,1.2,2.5l0,0
		c-0.3,0.8-1.1,1.4-1.9,1.4l0,0C14,70.1,13.7,70.1,13.5,70z M16.3,62.3c-1-0.4-1.5-1.6-1.1-2.6l0,0c0.4-1,1.6-1.5,2.6-1.1l0,0
		c1,0.4,1.5,1.6,1.1,2.6l0,0c-0.3,0.8-1.1,1.2-1.8,1.2l0,0C16.8,62.4,16.5,62.4,16.3,62.3z M19.6,54.7c-1-0.5-1.4-1.7-0.9-2.7l0,0
		c0.5-1,1.7-1.4,2.7-0.9l0,0c1,0.5,1.4,1.7,0.9,2.7l0,0c-0.4,0.7-1.1,1.1-1.8,1.1l0,0C20.2,55,19.9,54.9,19.6,54.7z M23.5,47.5
		c-0.9-0.6-1.2-1.8-0.7-2.8l0,0c0.6-0.9,1.8-1.2,2.8-0.6l0,0c0.9,0.6,1.2,1.8,0.7,2.8l0,0c0,0,0,0,0,0l0,0c-0.4,0.6-1,0.9-1.7,0.9
		l0,0C24.2,47.8,23.8,47.7,23.5,47.5z M27.9,40.6c-0.9-0.6-1.1-1.9-0.4-2.8l0,0c0.7-0.9,1.9-1.1,2.8-0.4l0,0
		c0.9,0.6,1.1,1.9,0.4,2.8l0,0l0,0l0,0c-0.4,0.5-1,0.8-1.6,0.8l0,0C28.7,41,28.3,40.9,27.9,40.6z M33,34.1c-0.8-0.7-0.9-2-0.1-2.8
		l0,0c0.7-0.8,2-0.9,2.8-0.2l0,0c0.8,0.7,0.9,2,0.2,2.8l0,0c-0.4,0.5-0.9,0.7-1.5,0.7l0,0C33.8,34.6,33.4,34.5,33,34.1z M170.1,31.1
		L170.1,31.1L170.1,31.1c-0.3-1.1,0.3-2.2,1.4-2.4l0,0c1.1-0.3,2.2,0.3,2.5,1.4l0,0c0.3,1.1-0.3,2.2-1.4,2.5l0,0
		c-0.2,0-0.4,0.1-0.5,0.1l0,0C171.1,32.6,170.3,32,170.1,31.1z M38.6,28.2c-0.8-0.8-0.7-2.1,0.1-2.8l0,0c0.8-0.8,2.1-0.7,2.8,0.1
		l0,0c0.8,0.8,0.7,2.1-0.1,2.8l0,0c-0.4,0.4-0.9,0.5-1.4,0.5l0,0C39.5,28.8,39,28.6,38.6,28.2z M166.6,24.6
		c-0.7-0.9-0.5-2.1,0.3-2.8l0,0c0.9-0.7,2.1-0.5,2.8,0.3l0,0c0.7,0.9,0.5,2.1-0.3,2.8l0,0c-0.4,0.3-0.8,0.4-1.3,0.4l0,0
		C167.6,25.4,167,25.1,166.6,24.6z M44.8,22.7c-0.7-0.9-0.5-2.1,0.4-2.8h0c0.9-0.7,2.1-0.5,2.8,0.4l0,0c0.7,0.9,0.5,2.1-0.4,2.8l0,0
		c-0.4,0.3-0.8,0.4-1.2,0.4l0,0C45.7,23.5,45.2,23.2,44.8,22.7z M161.1,19.3c-0.9-0.7-1-1.9-0.4-2.8l0,0c0.7-0.9,1.9-1,2.8-0.4l0,0
		c0.9,0.7,1,1.9,0.4,2.8l0,0c-0.4,0.5-1,0.8-1.6,0.8l0,0C161.9,19.7,161.4,19.5,161.1,19.3z M51.4,17.9c-0.6-0.9-0.3-2.2,0.6-2.8
		l0,0c0.9-0.6,2.2-0.3,2.8,0.6l0,0c0.6,0.9,0.3,2.2-0.6,2.8l0,0c-0.3,0.2-0.7,0.3-1.1,0.3l0,0C52.4,18.8,51.8,18.5,51.4,17.9z
		 M154.5,14.9c-1-0.5-1.3-1.8-0.8-2.7l0,0c0.5-1,1.8-1.3,2.7-0.8l0,0c1,0.5,1.3,1.8,0.8,2.7l0,0c-0.4,0.7-1,1-1.8,1l0,0
		C155.1,15.2,154.8,15.1,154.5,14.9z M58.5,13.7c-0.5-1-0.1-2.2,0.9-2.7l0,0c1-0.5,2.2-0.1,2.7,0.9l0,0c0.5,1,0.1,2.2-0.9,2.7l0,0
		l0,0l0,0c-0.3,0.2-0.6,0.2-0.9,0.2l0,0C59.5,14.8,58.8,14.4,58.5,13.7z M147.3,11.5c-1-0.4-1.5-1.6-1.1-2.6l0,0
		c0.4-1,1.6-1.5,2.6-1.1h0c1,0.4,1.5,1.6,1.1,2.6l0,0c-0.3,0.8-1.1,1.2-1.9,1.2l0,0C147.8,11.6,147.5,11.6,147.3,11.5z M65.9,10.1
		C65.5,9.1,66,8,67,7.5l0,0c1-0.4,2.2,0.1,2.6,1.1l0,0c0.4,1-0.1,2.2-1.1,2.6l0,0c-0.3,0.1-0.5,0.1-0.8,0.1l0,0
		C66.9,11.4,66.2,10.9,65.9,10.1z M139.7,8.7c-1-0.3-1.6-1.5-1.3-2.5l0,0c0.3-1.1,1.5-1.6,2.5-1.3l0,0c1.1,0.3,1.6,1.4,1.3,2.5l0,0
		c-0.3,0.9-1.1,1.4-1.9,1.4l0,0C140.1,8.8,139.9,8.8,139.7,8.7z M73.6,7.3c-0.3-1,0.3-2.2,1.3-2.5l0,0c1.1-0.3,2.2,0.3,2.5,1.3l0,0
		c0.3,1.1-0.3,2.2-1.3,2.5l0,0c-0.2,0.1-0.4,0.1-0.6,0.1l0,0C74.6,8.7,73.8,8.1,73.6,7.3z M131.9,6.7c-1.1-0.2-1.8-1.3-1.5-2.4l0,0
		c0.3-1.1,1.3-1.8,2.4-1.5l0,0c1.1,0.2,1.8,1.3,1.5,2.4l0,0c-0.2,0.9-1,1.6-1.9,1.6l0,0C132.2,6.7,132.1,6.7,131.9,6.7z M81.5,5
		c-0.2-1.1,0.4-2.2,1.5-2.4l0,0c1.1-0.2,2.1,0.4,2.4,1.5l0,0c0.2,1.1-0.4,2.1-1.5,2.4l0,0c-0.1,0-0.3,0-0.4,0l0,0
		C82.5,6.6,81.7,5.9,81.5,5z M124,5.2c-1.1-0.2-1.9-1.2-1.7-2.3l0,0c0.2-1.1,1.2-1.9,2.3-1.7l0,0c1.1,0.2,1.9,1.2,1.7,2.3l0,0
		c-0.1,1-1,1.7-2,1.7l0,0C124.2,5.2,124.1,5.2,124,5.2z M89.5,3.4c-0.2-1.1,0.6-2.1,1.7-2.3l0,0c1.1-0.1,2.1,0.6,2.3,1.7l0,0
		c0.2,1.1-0.6,2.1-1.7,2.3l0,0c-0.1,0-0.2,0-0.3,0l0,0C90.5,5.1,89.7,4.4,89.5,3.4z M116,4.3c-1.1-0.1-1.9-1-1.8-2.1l0,0
		c0.1-1.1,1-1.9,2.1-1.8v0c1.1,0.1,1.9,1.1,1.8,2.2l0,0c-0.1,1-1,1.8-2,1.8l0,0C116.1,4.3,116,4.3,116,4.3z M97.7,2.4
		c-0.1-1.1,0.8-2.1,1.9-2.1l0,0c1.1-0.1,2.1,0.8,2.1,1.9l0,0c0.1,1.1-0.8,2.1-1.9,2.1l0,0c0,0-0.1,0-0.1,0l0,0
		C98.6,4.3,97.8,3.5,97.7,2.4z M107.9,4c-1.1,0-2-0.9-2-2l0,0c0-1.1,0.9-2,2-2l0,0c1.1,0,2,0.9,2,2l0,0C109.9,3.1,109,4,107.9,4
		L107.9,4C107.9,4,107.9,4,107.9,4z"/>
</g>
<g>
	<path fill="#043A63" d="M108.8,99.6L108.8,99.6l0.1,9.6c-0.3,0.1-0.6,0.1-1,0.1s-0.8,0-1.1-0.1l-2.7-5.5c-0.2-0.5-0.5-1.1-0.9-1.9
		l-0.1,0c0.1,1.2,0.1,2.4,0.1,3.7v3.8c-0.2,0-0.5,0.1-0.8,0.1s-0.6,0-0.8-0.1v-9.5c0.3-0.1,0.6-0.1,1-0.1s0.8,0,1.1,0.1l2.6,5.5
		c0.2,0.5,0.6,1.2,0.9,2.1l0,0c-0.1-1.3-0.1-2.6-0.1-3.8v-2.8c0-0.4,0.1-0.7,0.2-0.8c0.1-0.2,0.4-0.3,0.8-0.3H108.8z"/>
	<path fill="#043A63" d="M116.8,105.8c0,1.3-0.3,2.2-1,2.9c-0.5,0.5-1.2,0.8-2.1,0.8c-0.9,0-1.6-0.3-2.1-0.8c-0.7-0.7-1-1.6-1-2.9
		s0.3-2.2,1-2.9c0.5-0.5,1.2-0.8,2.1-0.8c0.9,0,1.6,0.3,2.1,0.8C116.5,103.6,116.8,104.5,116.8,105.8z M113.7,103.4
		c-0.9,0-1.3,0.8-1.3,2.4c0,1.6,0.4,2.4,1.3,2.4c0.9,0,1.3-0.8,1.3-2.4C115,104.2,114.6,103.4,113.7,103.4z"/>
	<path fill="#043A63" d="M117.7,108.7c0-0.2,0.1-0.4,0.2-0.6c0.1-0.2,0.2-0.4,0.4-0.6c0.7,0.4,1.4,0.6,2,0.6c0.3,0,0.6-0.1,0.8-0.2
		c0.2-0.1,0.3-0.3,0.3-0.5c0-0.4-0.3-0.6-0.8-0.8l-0.8-0.3c-1.2-0.4-1.8-1.1-1.8-2c0-0.7,0.2-1.2,0.7-1.6c0.5-0.4,1.1-0.6,1.9-0.6
		s1.6,0.2,2.4,0.5c0,0.2,0,0.4-0.1,0.7c-0.1,0.2-0.2,0.4-0.4,0.5c-0.7-0.3-1.3-0.5-1.9-0.5c-0.3,0-0.5,0.1-0.6,0.2
		c-0.2,0.1-0.2,0.3-0.2,0.5c0,0.3,0.2,0.5,0.7,0.7l0.9,0.3c1.2,0.4,1.8,1.2,1.8,2.2c0,0.7-0.2,1.2-0.7,1.6c-0.5,0.4-1.2,0.6-2.1,0.6
		S118.5,109.2,117.7,108.7z"/>
	<path fill="#043A63" d="M123.9,108.7c0-0.2,0.1-0.4,0.2-0.6c0.1-0.2,0.2-0.4,0.4-0.6c0.7,0.4,1.4,0.6,2,0.6c0.3,0,0.6-0.1,0.8-0.2
		c0.2-0.1,0.3-0.3,0.3-0.5c0-0.4-0.3-0.6-0.8-0.8l-0.8-0.3c-1.2-0.4-1.8-1.1-1.8-2c0-0.7,0.2-1.2,0.7-1.6c0.5-0.4,1.1-0.6,1.9-0.6
		s1.6,0.2,2.4,0.5c0,0.2,0,0.4-0.1,0.7c-0.1,0.2-0.2,0.4-0.4,0.5c-0.7-0.3-1.3-0.5-1.9-0.5c-0.3,0-0.5,0.1-0.6,0.2
		c-0.2,0.1-0.2,0.3-0.2,0.5c0,0.3,0.2,0.5,0.7,0.7l0.9,0.3c1.2,0.4,1.8,1.2,1.8,2.2c0,0.7-0.2,1.2-0.7,1.6c-0.5,0.4-1.2,0.6-2.1,0.6
		S124.7,109.2,123.9,108.7z"/>
	<path fill="#043A63" d="M136.4,105.8c0,1.3-0.3,2.2-1,2.9c-0.5,0.5-1.2,0.8-2.1,0.8c-0.9,0-1.6-0.3-2.1-0.8c-0.7-0.7-1-1.6-1-2.9
		s0.3-2.2,1-2.9c0.5-0.5,1.2-0.8,2.1-0.8c0.9,0,1.6,0.3,2.1,0.8C136.1,103.6,136.4,104.5,136.4,105.8z M133.3,103.4
		c-0.9,0-1.3,0.8-1.3,2.4c0,1.6,0.4,2.4,1.3,2.4c0.9,0,1.3-0.8,1.3-2.4C134.7,104.2,134.2,103.4,133.3,103.4z"/>
	<path fill="#043A63" d="M144.6,102.1c0.8,0,1.3,0.3,1.8,1s0.6,1.5,0.6,2.7c0,1.1-0.3,2-0.8,2.7c-0.5,0.6-1.2,1-1.9,1
		c-0.5,0-1-0.1-1.5-0.4v2.2c0,0.4-0.1,0.7-0.2,0.8c-0.1,0.2-0.4,0.2-0.7,0.2h-0.7l-0.1-0.1v-9.9l0.1-0.1h0.5c0.5,0,0.8,0.2,1,0.7
		C143.2,102.4,143.8,102.1,144.6,102.1z M144.1,103.5c-0.5,0-1,0.3-1.3,0.8v3.3c0.4,0.3,0.9,0.4,1.2,0.4c0.4,0,0.7-0.2,0.9-0.6
		c0.2-0.4,0.3-1,0.3-1.7s-0.1-1.3-0.3-1.6S144.4,103.5,144.1,103.5z"/>
	<path fill="#043A63" d="M154.3,105.8c0,1.3-0.3,2.2-1,2.9c-0.5,0.5-1.2,0.8-2.1,0.8c-0.9,0-1.6-0.3-2.1-0.8c-0.7-0.7-1-1.6-1-2.9
		s0.3-2.2,1-2.9c0.5-0.5,1.2-0.8,2.1-0.8c0.9,0,1.6,0.3,2.1,0.8C153.9,103.6,154.3,104.5,154.3,105.8z M151.2,103.4
		c-0.9,0-1.3,0.8-1.3,2.4c0,1.6,0.4,2.4,1.3,2.4c0.9,0,1.3-0.8,1.3-2.4C152.5,104.2,152.1,103.4,151.2,103.4z"/>
	<path fill="#043A63" d="M161.5,104.6v3.1c0,0.6,0.1,1,0.3,1.3c-0.3,0.2-0.7,0.4-1,0.4s-0.6-0.1-0.8-0.3c-0.1-0.2-0.2-0.5-0.2-0.8
		v-3.3c0-0.4-0.1-0.7-0.2-0.9c-0.1-0.2-0.3-0.3-0.6-0.3c-0.5,0-1,0.2-1.5,0.7v4.8c-0.3,0-0.5,0.1-0.9,0.1s-0.6,0-0.9-0.1v-6.9
		l0.1-0.1h0.6c0.5,0,0.8,0.3,1,0.8c0.7-0.6,1.4-0.9,2-0.9s1.2,0.2,1.5,0.7C161.4,103.3,161.5,103.8,161.5,104.6z"/>
	<path fill="#043A63" d="M167.1,102.3c0,0.2,0.1,0.4,0.1,0.6c0,0.2,0,0.4-0.1,0.6l-1.7,0v3.8c0,0.4,0.2,0.6,0.6,0.6h0.9
		c0.1,0.3,0.1,0.5,0.1,0.7s0,0.4,0,0.5c-0.6,0.1-1.1,0.1-1.7,0.1c-1.1,0-1.6-0.5-1.6-1.6v-4.1l-1,0c0-0.2-0.1-0.4-0.1-0.6
		c0-0.2,0-0.5,0.1-0.6l1,0v-1.1c0-0.4,0.1-0.7,0.2-0.8c0.1-0.2,0.4-0.2,0.7-0.2h0.7l0.1,0.1v2L167.1,102.3z"/>
	<path fill="#043A63" d="M174.3,105.8c0,1.3-0.3,2.2-1,2.9c-0.5,0.5-1.2,0.8-2.1,0.8c-0.9,0-1.6-0.3-2.1-0.8c-0.7-0.7-1-1.6-1-2.9
		s0.3-2.2,1-2.9c0.5-0.5,1.2-0.8,2.1-0.8c0.9,0,1.6,0.3,2.1,0.8C173.9,103.6,174.3,104.5,174.3,105.8z M171.2,103.4
		c-0.9,0-1.3,0.8-1.3,2.4c0,1.6,0.4,2.4,1.3,2.4c0.9,0,1.3-0.8,1.3-2.4C172.5,104.2,172,103.4,171.2,103.4z"/>
	<path fill="#043A63" d="M180.9,109.4c-0.8,0-1.4-0.3-1.8-1c-0.4-0.6-0.6-1.5-0.6-2.7c0-1.1,0.3-2,0.8-2.7c0.5-0.6,1.2-1,1.9-1
		c0.5,0,1,0.1,1.5,0.4V99l0.1-0.1h0.7c0.3,0,0.6,0.1,0.7,0.2c0.1,0.2,0.2,0.4,0.2,0.8v7.2c0,0.6,0.1,1,0.4,1.2
		c0,0.2-0.1,0.3-0.2,0.5c-0.1,0.2-0.2,0.3-0.4,0.4c-0.6-0.1-1-0.4-1.2-0.8C182.3,109.1,181.7,109.4,180.9,109.4z M181.3,108
		c0.5,0,1-0.3,1.3-0.8V104c-0.5-0.3-0.9-0.4-1.2-0.4s-0.6,0.2-0.9,0.6c-0.2,0.4-0.3,1-0.3,1.7s0.1,1.3,0.3,1.6S181,108,181.3,108z"
		/>
	<path fill="#043A63" d="M191.6,106.3h-3.9c0,0.6,0.2,1,0.4,1.3c0.2,0.3,0.6,0.5,1.2,0.5s1.2-0.2,1.8-0.5c0.3,0.3,0.4,0.6,0.5,1.1
		c-0.7,0.5-1.6,0.8-2.7,0.8s-1.8-0.3-2.3-1c-0.5-0.7-0.7-1.6-0.7-2.6c0-1.1,0.3-2,0.8-2.6c0.5-0.7,1.2-1,2.2-1
		c0.9,0,1.7,0.3,2.2,0.8s0.8,1.3,0.8,2.1C191.7,105.5,191.7,105.9,191.6,106.3z M188.9,103.4c-0.8,0-1.2,0.6-1.2,1.7h2.4v-0.2
		c0-0.5-0.1-0.8-0.3-1.1C189.6,103.5,189.3,103.4,188.9,103.4z"/>
	<path fill="#043A63" d="M199.9,102.1c0.8,0,1.3,0.3,1.8,1s0.6,1.5,0.6,2.7c0,1.1-0.3,2-0.8,2.7c-0.5,0.6-1.2,1-1.9,1
		c-0.5,0-1-0.1-1.5-0.4v2.2c0,0.4-0.1,0.7-0.2,0.8c-0.1,0.2-0.4,0.2-0.7,0.2h-0.7l-0.1-0.1v-9.9l0.1-0.1h0.5c0.5,0,0.8,0.2,1,0.7
		C198.5,102.4,199.2,102.1,199.9,102.1z M199.4,103.5c-0.5,0-1,0.3-1.3,0.8v3.3c0.4,0.3,0.9,0.4,1.2,0.4c0.4,0,0.7-0.2,0.9-0.6
		c0.2-0.4,0.3-1,0.3-1.7s-0.1-1.3-0.3-1.6S199.8,103.5,199.4,103.5z"/>
	<path fill="#043A63" d="M209.5,108.5c0,0.2-0.1,0.3-0.2,0.5c-0.1,0.2-0.2,0.3-0.4,0.4c-0.6-0.1-1-0.3-1.3-0.8
		c-0.6,0.6-1.3,0.9-2,0.9s-1.3-0.2-1.6-0.6s-0.5-0.9-0.5-1.5c0-0.8,0.3-1.4,0.8-1.8s1.2-0.6,2-0.6c0.4,0,0.8,0,1.2,0.1v-0.4
		c0-0.7-0.4-1.1-1.1-1.1c-0.5,0-1.2,0.2-2.1,0.5c-0.3-0.3-0.4-0.7-0.5-1.2c1-0.4,2-0.6,3-0.6c0.7,0,1.3,0.2,1.7,0.6
		c0.4,0.4,0.7,1,0.7,1.8v2.9C209.1,107.9,209.2,108.2,209.5,108.5z M205.9,108.1c0.5,0,1-0.2,1.4-0.7v-1.2c-0.3,0-0.7-0.1-1.1-0.1
		c-0.4,0-0.7,0.1-0.9,0.3c-0.2,0.2-0.3,0.4-0.3,0.7c0,0.3,0.1,0.5,0.2,0.7S205.7,108.1,205.9,108.1z"/>
	<path fill="#043A63" d="M210.6,103.1c0-0.2,0.1-0.3,0.2-0.5c0.1-0.2,0.2-0.3,0.4-0.4c0.7,0.1,1.2,0.5,1.5,1.2
		c0.4-0.8,1-1.2,1.8-1.2c0.2,0,0.5,0,0.8,0.1c0,0.6-0.1,1.1-0.4,1.6c-0.1,0-0.3-0.1-0.6-0.1c-0.6,0-1,0.3-1.4,0.9v4.5
		c-0.3,0-0.5,0.1-0.9,0.1c-0.3,0-0.6,0-0.9-0.1v-4.7C211.1,103.9,210.9,103.4,210.6,103.1z"/>
	<path fill="#043A63" d="M220.3,102.3c0,0.2,0.1,0.4,0.1,0.6c0,0.2,0,0.4-0.1,0.6l-1.7,0v3.8c0,0.4,0.2,0.6,0.6,0.6h0.9
		c0.1,0.3,0.1,0.5,0.1,0.7s0,0.4,0,0.5c-0.6,0.1-1.1,0.1-1.7,0.1c-1.1,0-1.6-0.5-1.6-1.6v-4.1l-1,0c0-0.2-0.1-0.4-0.1-0.6
		c0-0.2,0-0.5,0.1-0.6l1,0v-1.1c0-0.4,0.1-0.7,0.2-0.8c0.1-0.2,0.4-0.2,0.7-0.2h0.7l0.1,0.1v2L220.3,102.3z"/>
	<path fill="#043A63" d="M223.9,103.7v5.6c-0.3,0-0.5,0.1-0.9,0.1c-0.3,0-0.6,0-0.9-0.1v-4.9c0-0.5-0.2-0.8-0.6-0.8h-0.2
		c0-0.2-0.1-0.4-0.1-0.6c0-0.2,0-0.5,0.1-0.6c0.3,0,0.7-0.1,1-0.1h0.2c0.4,0,0.7,0.1,0.9,0.4S223.9,103.2,223.9,103.7z M221.9,101
		c-0.1-0.2-0.1-0.4-0.1-0.7c0-0.2,0-0.5,0.1-0.7c0.2-0.1,0.5-0.2,0.9-0.2s0.6,0.1,0.9,0.2c0.1,0.2,0.1,0.4,0.1,0.7
		c0,0.2,0,0.5-0.1,0.7c-0.2,0.1-0.5,0.2-0.9,0.2S222.1,101.2,221.9,101z"/>
	<path fill="#043A63" d="M227.9,109.4c-0.8,0-1.4-0.3-1.8-1c-0.4-0.6-0.6-1.5-0.6-2.7c0-1.1,0.3-2,0.8-2.7c0.5-0.6,1.2-1,1.9-1
		c0.5,0,1,0.1,1.5,0.4V99l0.1-0.1h0.7c0.3,0,0.6,0.1,0.7,0.2c0.1,0.2,0.2,0.4,0.2,0.8v7.2c0,0.6,0.1,1,0.4,1.2
		c0,0.2-0.1,0.3-0.2,0.5c-0.1,0.2-0.2,0.3-0.4,0.4c-0.6-0.1-1-0.4-1.2-0.8C229.4,109.1,228.7,109.4,227.9,109.4z M228.3,108
		c0.5,0,1-0.3,1.3-0.8V104c-0.5-0.3-0.9-0.4-1.2-0.4s-0.6,0.2-0.9,0.6c-0.2,0.4-0.3,1-0.3,1.7s0.1,1.3,0.3,1.6S228,108,228.3,108z"
		/>
	<path fill="#043A63" d="M238.9,108.5c0,0.2-0.1,0.3-0.2,0.5c-0.1,0.2-0.2,0.3-0.4,0.4c-0.6-0.1-1-0.3-1.3-0.8
		c-0.6,0.6-1.3,0.9-2,0.9s-1.3-0.2-1.6-0.6s-0.5-0.9-0.5-1.5c0-0.8,0.3-1.4,0.8-1.8s1.2-0.6,2-0.6c0.4,0,0.8,0,1.2,0.1v-0.4
		c0-0.7-0.4-1.1-1.1-1.1c-0.5,0-1.2,0.2-2.1,0.5c-0.3-0.3-0.4-0.7-0.5-1.2c1-0.4,2-0.6,3-0.6c0.7,0,1.3,0.2,1.7,0.6
		c0.4,0.4,0.7,1,0.7,1.8v2.9C238.6,107.9,238.7,108.2,238.9,108.5z M235.4,108.1c0.5,0,1-0.2,1.4-0.7v-1.2c-0.3,0-0.7-0.1-1.1-0.1
		c-0.4,0-0.7,0.1-0.9,0.3c-0.2,0.2-0.3,0.4-0.3,0.7c0,0.3,0.1,0.5,0.2,0.7S235.2,108.1,235.4,108.1z"/>
	<path fill="#043A63" d="M110.7,123.1h-3.9c0,0.6,0.2,1,0.4,1.3c0.2,0.3,0.6,0.5,1.2,0.5s1.2-0.2,1.8-0.5c0.3,0.3,0.4,0.6,0.5,1.1
		c-0.7,0.5-1.6,0.8-2.7,0.8s-1.8-0.3-2.3-1c-0.5-0.7-0.7-1.6-0.7-2.6c0-1.1,0.3-2,0.8-2.6c0.5-0.7,1.2-1,2.2-1
		c0.9,0,1.7,0.3,2.2,0.8s0.8,1.3,0.8,2.1C110.8,122.3,110.8,122.7,110.7,123.1z M108,120.2c-0.8,0-1.2,0.6-1.2,1.7h2.4v-0.2
		c0-0.5-0.1-0.8-0.3-1.1C108.7,120.3,108.4,120.2,108,120.2z M106.9,117.8l2.1-2.3c0.2,0.1,0.5,0.2,0.7,0.4c0.2,0.2,0.4,0.4,0.4,0.7
		l-2.5,1.9C107.3,118.4,107,118.2,106.9,117.8z"/>
	<path fill="#043A63" d="M121.1,125.3c0,0.2-0.1,0.3-0.2,0.5c-0.1,0.2-0.2,0.3-0.4,0.4c-0.6-0.1-1-0.3-1.3-0.8
		c-0.6,0.6-1.3,0.9-2,0.9s-1.3-0.2-1.6-0.6s-0.5-0.9-0.5-1.5c0-0.8,0.3-1.4,0.8-1.8s1.2-0.6,2-0.6c0.4,0,0.8,0,1.2,0.1v-0.4
		c0-0.7-0.4-1.1-1.1-1.1c-0.5,0-1.2,0.2-2.1,0.5c-0.3-0.3-0.4-0.7-0.5-1.2c1-0.4,2-0.6,3-0.6c0.7,0,1.3,0.2,1.7,0.6
		c0.4,0.4,0.7,1,0.7,1.8v2.9C120.7,124.7,120.9,125,121.1,125.3z M117.6,124.9c0.5,0,1-0.2,1.4-0.7V123c-0.3,0-0.7-0.1-1.1-0.1
		c-0.4,0-0.7,0.1-0.9,0.3c-0.2,0.2-0.3,0.4-0.3,0.7c0,0.3,0.1,0.5,0.2,0.7S117.3,124.9,117.6,124.9z"/>
	<path fill="#043A63" d="M131,120c0,0,0-0.1,0-0.1c0-0.6-0.1-1.1-0.4-1.5c-0.3-0.4-0.7-0.6-1.4-0.6c-1.3,0-2,1.2-2,3.6
		c0,1.1,0.2,1.9,0.6,2.5c0.4,0.6,0.9,0.9,1.6,0.9s1.5-0.3,2.4-1c0.2,0.1,0.4,0.3,0.5,0.5c0.2,0.2,0.3,0.4,0.3,0.6
		c-0.4,0.4-1,0.8-1.6,1c-0.6,0.3-1.3,0.4-2,0.4c-0.7,0-1.3-0.1-1.8-0.4c-0.5-0.3-0.9-0.7-1.2-1.1c-0.5-0.9-0.8-2-0.8-3.4
		c0-1.7,0.4-2.9,1.1-3.7c0.7-0.8,1.7-1.3,2.7-1.3s1.9,0.3,2.6,0.8c0.6,0.5,1,1.2,1,2c0,0.7-0.3,1-1,1C131.5,120.1,131.3,120,131,120
		z"/>
	<path fill="#043A63" d="M134.1,123.8v-3.1c0-0.6-0.1-1-0.3-1.3c0.3-0.3,0.6-0.4,1-0.4s0.7,0.1,0.8,0.3c0.1,0.2,0.2,0.5,0.2,0.8v3.3
		c0,0.4,0.1,0.7,0.2,0.9c0.1,0.2,0.3,0.3,0.6,0.3c0.5,0,1-0.2,1.5-0.7v-4.8c0.3,0,0.6-0.1,0.9-0.1s0.6,0,0.9,0.1v5
		c0,0.6,0.1,1,0.4,1.2c-0.1,0.4-0.3,0.7-0.6,0.9c-0.7-0.1-1.1-0.4-1.4-1c-0.7,0.7-1.5,1-2.3,1c-0.6,0-1.1-0.2-1.4-0.7
		C134.3,125.1,134.1,124.5,134.1,123.8z"/>
	<path fill="#043A63" d="M144.1,124.8h0.5c0.1,0.3,0.1,0.5,0.1,0.7s0,0.4,0,0.5c-0.5,0.1-1,0.1-1.3,0.1c-1,0-1.5-0.5-1.5-1.6v-8.6
		l0.1-0.1h0.7c0.3,0,0.6,0.1,0.7,0.2c0.1,0.2,0.2,0.4,0.2,0.8v7.3C143.5,124.5,143.7,124.8,144.1,124.8z"/>
	<path fill="#043A63" d="M149.5,119.1c0,0.2,0.1,0.4,0.1,0.6c0,0.2,0,0.4-0.1,0.6l-1.7,0v3.8c0,0.4,0.2,0.6,0.6,0.6h0.9
		c0.1,0.3,0.1,0.5,0.1,0.7s0,0.4,0,0.5c-0.6,0.1-1.1,0.1-1.7,0.1c-1.1,0-1.6-0.5-1.6-1.6v-4.1l-1,0c0-0.2-0.1-0.4-0.1-0.6
		c0-0.2,0-0.5,0.1-0.6l1,0v-1.1c0-0.4,0.1-0.7,0.2-0.8c0.1-0.2,0.4-0.2,0.7-0.2h0.7l0.1,0.1v2L149.5,119.1z"/>
	<path fill="#043A63" d="M150.8,123.8v-3.1c0-0.6-0.1-1-0.3-1.3c0.3-0.3,0.6-0.4,1-0.4s0.7,0.1,0.8,0.3c0.1,0.2,0.2,0.5,0.2,0.8v3.3
		c0,0.4,0.1,0.7,0.2,0.9c0.1,0.2,0.3,0.3,0.6,0.3c0.5,0,1-0.2,1.5-0.7v-4.8c0.3,0,0.6-0.1,0.9-0.1s0.6,0,0.9,0.1v5
		c0,0.6,0.1,1,0.4,1.2c-0.1,0.4-0.3,0.7-0.6,0.9c-0.7-0.1-1.1-0.4-1.4-1c-0.7,0.7-1.5,1-2.3,1c-0.6,0-1.1-0.2-1.4-0.7
		C151,125.1,150.8,124.5,150.8,123.8z"/>
	<path fill="#043A63" d="M158.1,119.9c0-0.2,0.1-0.3,0.2-0.5c0.1-0.2,0.2-0.3,0.4-0.4c0.7,0.1,1.2,0.5,1.5,1.2
		c0.4-0.8,1-1.2,1.8-1.2c0.2,0,0.5,0,0.8,0.1c0,0.6-0.1,1.1-0.4,1.6c-0.1,0-0.3-0.1-0.6-0.1c-0.6,0-1,0.3-1.4,0.9v4.5
		c-0.3,0-0.5,0.1-0.9,0.1c-0.3,0-0.6,0-0.9-0.1v-4.7C158.6,120.7,158.5,120.2,158.1,119.9z"/>
	<path fill="#043A63" d="M169.3,125.3c0,0.2-0.1,0.3-0.2,0.5c-0.1,0.2-0.2,0.3-0.4,0.4c-0.6-0.1-1-0.3-1.3-0.8
		c-0.6,0.6-1.3,0.9-2,0.9s-1.3-0.2-1.6-0.6s-0.5-0.9-0.5-1.5c0-0.8,0.3-1.4,0.8-1.8s1.2-0.6,2-0.6c0.4,0,0.8,0,1.2,0.1v-0.4
		c0-0.7-0.4-1.1-1.1-1.1c-0.5,0-1.2,0.2-2.1,0.5c-0.3-0.3-0.4-0.7-0.5-1.2c1-0.4,2-0.6,3-0.6c0.7,0,1.3,0.2,1.7,0.6
		c0.4,0.4,0.7,1,0.7,1.8v2.9C168.9,124.7,169.1,125,169.3,125.3z M165.8,124.9c0.5,0,1-0.2,1.4-0.7V123c-0.3,0-0.7-0.1-1.1-0.1
		c-0.4,0-0.7,0.1-0.9,0.3c-0.2,0.2-0.3,0.4-0.3,0.7c0,0.3,0.1,0.5,0.2,0.7S165.5,124.9,165.8,124.9z"/>
	<path fill="#043A63" d="M180.6,119.4c0,0.6-0.2,1.2-0.5,1.6c-0.3,0.5-0.8,0.8-1.3,0.9c0.5,0.2,0.8,0.6,1,1.2l0.5,1.5
		c0.2,0.5,0.4,0.8,0.7,1c-0.3,0.4-0.7,0.5-1.2,0.5c-0.3,0-0.5-0.1-0.7-0.2c-0.2-0.2-0.3-0.4-0.4-0.8l-0.6-1.7
		c-0.1-0.3-0.3-0.6-0.5-0.8c-0.2-0.2-0.5-0.3-0.9-0.3h-0.9v3.7c-0.2,0-0.5,0.1-0.9,0.1c-0.4,0-0.7,0-0.9-0.1v-9.5l0.1-0.1
		c1.5,0,2.5-0.1,3.1-0.1c1,0,1.8,0.3,2.4,0.8S180.6,118.4,180.6,119.4z M175.9,117.8v3.1c0.7,0,1.1,0,1.4,0c1,0,1.6-0.5,1.6-1.6
		c0-1-0.5-1.6-1.6-1.6C176.6,117.8,176.2,117.8,175.9,117.8z"/>
	<path fill="#043A63" d="M188.2,122.6c0,1.3-0.3,2.2-1,2.9c-0.5,0.5-1.2,0.8-2.1,0.8c-0.9,0-1.6-0.3-2.1-0.8c-0.7-0.7-1-1.6-1-2.9
		s0.3-2.2,1-2.9c0.5-0.5,1.2-0.8,2.1-0.8c0.9,0,1.6,0.3,2.1,0.8C187.8,120.4,188.2,121.3,188.2,122.6z M185.1,120.2
		c-0.9,0-1.3,0.8-1.3,2.4c0,1.6,0.4,2.4,1.3,2.4c0.9,0,1.3-0.8,1.3-2.4C186.4,121,186,120.2,185.1,120.2z"/>
	<path fill="#043A63" d="M191.7,126.2c-0.8,0-1.4-0.3-1.8-1c-0.4-0.6-0.6-1.5-0.6-2.7c0-1.1,0.3-2,0.8-2.7c0.5-0.6,1.2-1,1.9-1
		c0.5,0,1,0.1,1.5,0.4v-3.5l0.1-0.1h0.7c0.3,0,0.6,0.1,0.7,0.2c0.1,0.2,0.2,0.4,0.2,0.8v7.2c0,0.6,0.1,1,0.4,1.2
		c0,0.2-0.1,0.3-0.2,0.5c-0.1,0.2-0.2,0.3-0.4,0.4c-0.6-0.1-1-0.4-1.2-0.8C193.2,125.9,192.5,126.2,191.7,126.2z M192.1,124.8
		c0.5,0,1-0.3,1.3-0.8v-3.3c-0.5-0.3-0.9-0.4-1.2-0.4s-0.6,0.2-0.9,0.6c-0.2,0.4-0.3,1-0.3,1.7s0.1,1.3,0.3,1.6
		S191.8,124.8,192.1,124.8z"/>
	<path fill="#043A63" d="M202.9,122.6c0,1.3-0.3,2.2-1,2.9c-0.5,0.5-1.2,0.8-2.1,0.8c-0.9,0-1.6-0.3-2.1-0.8c-0.7-0.7-1-1.6-1-2.9
		s0.3-2.2,1-2.9c0.5-0.5,1.2-0.8,2.1-0.8c0.9,0,1.6,0.3,2.1,0.8C202.6,120.4,202.9,121.3,202.9,122.6z M199.8,120.2
		c-0.9,0-1.3,0.8-1.3,2.4c0,1.6,0.4,2.4,1.3,2.4c0.9,0,1.3-0.8,1.3-2.4C201.1,121,200.7,120.2,199.8,120.2z"/>
	<path fill="#043A63" d="M209.7,119.9c0.4,0.6,0.6,1.5,0.6,2.6s-0.3,2-0.9,2.6c-0.6,0.6-1.4,1-2.3,1c-1,0-1.8-0.2-2.6-0.5v-9.9
		l0.1-0.1h0.6c0.3,0,0.6,0.1,0.7,0.2c0.1,0.2,0.2,0.4,0.2,0.8v2.8c0.5-0.4,1.1-0.6,1.8-0.6C208.7,119,209.3,119.3,209.7,119.9z
		 M207.5,120.4c-0.5,0-0.9,0.2-1.3,0.7v3.7c0.3,0.1,0.6,0.1,1,0.1c0.5,0,0.8-0.2,1.1-0.6c0.3-0.4,0.4-1,0.4-1.8
		C208.6,121.1,208.2,120.4,207.5,120.4z"/>
	<path fill="#043A63" d="M217.2,123.1h-3.9c0,0.6,0.2,1,0.4,1.3c0.2,0.3,0.6,0.5,1.2,0.5s1.2-0.2,1.8-0.5c0.3,0.3,0.4,0.6,0.5,1.1
		c-0.7,0.5-1.6,0.8-2.7,0.8s-1.8-0.3-2.3-1c-0.5-0.7-0.7-1.6-0.7-2.6c0-1.1,0.3-2,0.8-2.6c0.5-0.7,1.2-1,2.2-1
		c0.9,0,1.7,0.3,2.2,0.8s0.8,1.3,0.8,2.1C217.3,122.3,217.2,122.7,217.2,123.1z M214.4,120.2c-0.8,0-1.2,0.6-1.2,1.7h2.4v-0.2
		c0-0.5-0.1-0.8-0.3-1.1C215.2,120.3,214.9,120.2,214.4,120.2z"/>
	<path fill="#043A63" d="M224.6,121.4v3.1c0,0.6,0.1,1,0.3,1.3c-0.3,0.2-0.7,0.4-1,0.4s-0.6-0.1-0.8-0.3c-0.1-0.2-0.2-0.5-0.2-0.8
		v-3.3c0-0.4-0.1-0.7-0.2-0.9c-0.1-0.2-0.3-0.3-0.6-0.3c-0.5,0-1,0.2-1.5,0.7v4.8c-0.3,0-0.5,0.1-0.9,0.1s-0.6,0-0.9-0.1v-6.9
		l0.1-0.1h0.6c0.5,0,0.8,0.3,1,0.8c0.7-0.6,1.4-0.9,2-0.9s1.2,0.2,1.5,0.7C224.4,120.1,224.6,120.6,224.6,121.4z"/>
	<path fill="#043A63" d="M225.9,125.5c0-0.2,0.1-0.4,0.2-0.6c0.1-0.2,0.2-0.4,0.4-0.6c0.7,0.4,1.4,0.6,2,0.6c0.3,0,0.6-0.1,0.8-0.2
		c0.2-0.1,0.3-0.3,0.3-0.5c0-0.4-0.3-0.6-0.8-0.8l-0.8-0.3c-1.2-0.4-1.8-1.1-1.8-2c0-0.7,0.2-1.2,0.7-1.6c0.5-0.4,1.1-0.6,1.9-0.6
		s1.6,0.2,2.4,0.5c0,0.2,0,0.4-0.1,0.7c-0.1,0.2-0.2,0.4-0.4,0.5c-0.7-0.3-1.3-0.5-1.9-0.5c-0.3,0-0.5,0.1-0.6,0.2
		c-0.2,0.1-0.2,0.3-0.2,0.5c0,0.3,0.2,0.5,0.7,0.7l0.9,0.3c1.2,0.4,1.8,1.2,1.8,2.2c0,0.7-0.2,1.2-0.7,1.6c-0.5,0.4-1.2,0.6-2.1,0.6
		S226.7,126,225.9,125.5z"/>
	<path fill="#043A63" d="M232.6,126c-0.1-0.2-0.1-0.4-0.1-0.7s0-0.6,0.1-0.8c0.3-0.1,0.6-0.2,1-0.2s0.7,0.1,0.9,0.2
		c0.1,0.2,0.1,0.5,0.1,0.8s0,0.6-0.1,0.7c-0.2,0.1-0.5,0.2-0.9,0.2S232.9,126.1,232.6,126z"/>
</g>
<g>
	<path fill="#FFFFFF" d="M80.8,141.2l-0.9,0h-1.9l-0.9,0l-0.8,2.4c-0.1,0-0.3,0.1-0.6,0.1s-0.5,0-0.7-0.1l0-0.1l3.2-9.5
		c0.2,0,0.5-0.1,0.8-0.1c0.4,0,0.6,0,0.8,0.1l3.2,9.5c-0.2,0.1-0.5,0.2-0.7,0.2c-0.3,0-0.5-0.1-0.6-0.2c-0.1-0.1-0.2-0.3-0.3-0.6
		L80.8,141.2z M77.6,140.1l0.7,0h1.4c0,0,0.1,0,0.3,0c0.2,0,0.3,0,0.4,0l-0.7-2.2c-0.3-0.8-0.5-1.7-0.7-2.5H79
		c-0.1,0.7-0.3,1.3-0.5,1.9L77.6,140.1z"/>
	<path fill="#FFFFFF" d="M86.2,142.5h0.5c0.1,0.2,0.1,0.4,0.1,0.6s0,0.3,0,0.4c-0.4,0.1-0.8,0.1-1.2,0.1c-0.9,0-1.3-0.5-1.3-1.4
		v-8.9l0.1-0.1h0.5c0.3,0,0.5,0.1,0.6,0.2s0.2,0.4,0.2,0.7v7.8C85.6,142.3,85.8,142.5,86.2,142.5z"/>
	<path fill="#FFFFFF" d="M89.9,137.8v5.8c-0.2,0-0.4,0.1-0.7,0.1c-0.3,0-0.5,0-0.7-0.1v-5.2c0-0.3,0-0.4-0.1-0.5
		c-0.1-0.1-0.2-0.2-0.5-0.2h-0.2c0-0.1-0.1-0.3-0.1-0.5c0-0.2,0-0.3,0.1-0.5c0.3,0,0.6-0.1,0.8-0.1h0.2c0.3,0,0.6,0.1,0.8,0.3
		C89.8,137.1,89.9,137.4,89.9,137.8z M88.1,134.7c0-0.2,0-0.4,0.1-0.6c0.2-0.1,0.5-0.2,0.8-0.2s0.6,0.1,0.7,0.2
		c0.1,0.2,0.1,0.4,0.1,0.6c0,0.2,0,0.4-0.1,0.6c-0.2,0.1-0.4,0.2-0.7,0.2c-0.3,0-0.6-0.1-0.8-0.2C88.2,135.2,88.1,135,88.1,134.7z"
		/>
	<path fill="#FFFFFF" d="M97.6,138.8v3.3c0,0.6,0.1,1,0.2,1.2c-0.2,0.2-0.5,0.3-0.8,0.3c-0.5,0-0.7-0.3-0.7-0.9v-3.6
		c0-0.5-0.1-0.9-0.2-1.1s-0.4-0.3-0.7-0.3c-0.3,0-0.7,0.1-1,0.3s-0.6,0.4-0.9,0.7v4.9c-0.2,0-0.4,0.1-0.7,0.1c-0.3,0-0.5,0-0.7-0.1
		v-6.9l0.1-0.1h0.5c0.5,0,0.7,0.3,0.8,0.9c0.7-0.6,1.5-1,2.3-1c0.6,0,1.1,0.2,1.4,0.6C97.5,137.6,97.6,138.1,97.6,138.8z"/>
	<path fill="#FFFFFF" d="M105.2,138.8v3.3c0,0.5,0.1,1,0.2,1.2c-0.2,0.2-0.5,0.3-0.9,0.3c-0.5,0-0.7-0.3-0.7-0.9v-3.6
		c0-0.5-0.1-0.9-0.2-1.1s-0.4-0.3-0.7-0.3s-0.7,0.1-1,0.3s-0.6,0.4-0.9,0.7v4.9c-0.2,0-0.4,0.1-0.7,0.1s-0.5,0-0.7-0.1v-10.2
		l0.1-0.1h0.5c0.3,0,0.5,0.1,0.6,0.2s0.2,0.4,0.2,0.7v3.3c0.7-0.6,1.4-0.9,2.3-0.9c0.6,0,1.1,0.2,1.4,0.6
		C105.1,137.6,105.2,138.1,105.2,138.8z"/>
	<path fill="#FFFFFF" d="M112.7,143c-0.1,0.3-0.3,0.6-0.5,0.7c-0.5-0.1-0.9-0.4-1.1-0.9c-0.7,0.7-1.4,1-2.1,1s-1.2-0.2-1.6-0.6
		c-0.4-0.4-0.5-0.9-0.5-1.4c0-0.8,0.2-1.3,0.7-1.7c0.5-0.4,1.1-0.6,1.9-0.6c0.5,0,0.9,0,1.4,0.1v-0.6c0-0.8-0.4-1.3-1.2-1.3
		c-0.6,0-1.3,0.2-2.2,0.5c-0.3-0.3-0.4-0.6-0.4-1c1-0.4,1.9-0.6,2.9-0.6c0.7,0,1.3,0.2,1.7,0.6c0.4,0.4,0.6,1,0.6,1.8v2.9
		C112.3,142.3,112.4,142.7,112.7,143z M109.3,142.7c0.6,0,1.2-0.3,1.7-0.9v-1.3c-0.4,0-0.8-0.1-1.3-0.1c-0.5,0-0.8,0.1-1.1,0.3
		c-0.2,0.2-0.4,0.5-0.4,0.9c0,0.4,0.1,0.6,0.3,0.8S108.9,142.7,109.3,142.7z"/>
	<path fill="#FFFFFF" d="M119.9,138.8v3.3c0,0.6,0.1,1,0.2,1.2c-0.2,0.2-0.5,0.3-0.8,0.3c-0.5,0-0.7-0.3-0.7-0.9v-3.6
		c0-0.5-0.1-0.9-0.2-1.1s-0.4-0.3-0.7-0.3c-0.3,0-0.7,0.1-1,0.3s-0.6,0.4-0.9,0.7v4.9c-0.2,0-0.4,0.1-0.7,0.1c-0.3,0-0.5,0-0.7-0.1
		v-6.9l0.1-0.1h0.5c0.5,0,0.7,0.3,0.8,0.9c0.7-0.6,1.5-1,2.3-1c0.6,0,1.1,0.2,1.4,0.6C119.8,137.6,119.9,138.1,119.9,138.8z"/>
	<path fill="#FFFFFF" d="M124.1,143.7c-0.8,0-1.4-0.3-1.8-1c-0.4-0.6-0.6-1.5-0.6-2.7c0-1.1,0.3-2,0.8-2.6s1.2-0.9,1.9-0.9
		c0.5,0,1.1,0.2,1.6,0.5v-3.7l0.1-0.1h0.5c0.3,0,0.5,0.1,0.6,0.2c0.1,0.1,0.2,0.4,0.2,0.7v7.5c0,0.7,0.1,1.1,0.4,1.4
		c-0.1,0.3-0.3,0.6-0.5,0.7c-0.5-0.1-0.8-0.4-1-0.9C125.5,143.4,124.9,143.7,124.1,143.7z M124.3,142.6c0.6,0,1.1-0.3,1.6-0.9v-3.5
		c-0.5-0.4-1-0.5-1.4-0.5c-0.4,0-0.8,0.2-1.1,0.7c-0.3,0.4-0.4,1.1-0.4,1.9s0.1,1.4,0.4,1.8S124,142.6,124.3,142.6z"/>
	<path fill="#FFFFFF" d="M134.1,137.2c0.7,0.7,1,1.6,1,2.9s-0.3,2.2-1,2.9c-0.5,0.5-1.2,0.8-2,0.8c-0.8,0-1.5-0.3-2-0.8
		c-0.7-0.7-1-1.6-1-2.9s0.3-2.2,1-2.9c0.5-0.5,1.2-0.8,2-0.8C132.9,136.5,133.6,136.7,134.1,137.2z M130.5,140.1
		c0,1.7,0.5,2.6,1.6,2.6c1.1,0,1.6-0.9,1.6-2.6c0-0.5,0-0.9-0.1-1.3c-0.1-0.4-0.3-0.7-0.5-0.9c-0.2-0.3-0.6-0.4-1-0.4
		c-0.4,0-0.7,0.1-1,0.4c-0.2,0.3-0.4,0.6-0.5,0.9S130.5,139.6,130.5,140.1z"/>
	<path fill="#FFFFFF" d="M139.2,143c0-0.2,0.1-0.3,0.1-0.5s0.2-0.3,0.3-0.4c0.8,0.4,1.4,0.6,1.9,0.6c0.5,0,0.8-0.1,1.1-0.3
		s0.4-0.4,0.4-0.7c0-0.4-0.3-0.8-0.9-1l-0.8-0.3c-1.2-0.4-1.8-1.1-1.8-2c0-0.6,0.2-1.1,0.7-1.5c0.5-0.4,1.1-0.6,1.8-0.6
		s1.5,0.2,2.2,0.5c0,0.2,0,0.4-0.1,0.6s-0.2,0.3-0.3,0.4c-0.7-0.3-1.3-0.4-1.9-0.4c-0.3,0-0.6,0.1-0.8,0.2c-0.2,0.2-0.3,0.3-0.3,0.6
		s0.1,0.4,0.2,0.6c0.1,0.1,0.4,0.3,0.7,0.4l0.8,0.3c1.2,0.5,1.8,1.2,1.8,2.1c0,0.6-0.2,1.1-0.7,1.5c-0.5,0.4-1.2,0.6-2,0.6
		C140.8,143.7,140,143.5,139.2,143z"/>
	<path fill="#FFFFFF" d="M146,141.4v-3.3c0-0.5-0.1-1-0.2-1.2c0.2-0.2,0.5-0.3,0.8-0.3s0.5,0.1,0.6,0.2c0.1,0.1,0.2,0.4,0.2,0.7v3.6
		c0,0.5,0.1,0.9,0.2,1.1c0.1,0.2,0.4,0.3,0.7,0.3s0.7-0.1,1-0.3c0.3-0.2,0.6-0.4,0.9-0.7v-4.9c0.2,0,0.5-0.1,0.7-0.1s0.4,0,0.7,0.1
		v5c0,0.7,0.1,1.1,0.4,1.4c-0.1,0.3-0.3,0.5-0.5,0.7c-0.6-0.1-0.9-0.5-1.1-1c-0.7,0.7-1.5,1-2.4,1c-0.6,0-1.1-0.2-1.4-0.6
		C146.1,142.6,146,142.1,146,141.4z"/>
	<path fill="#FFFFFF" d="M159,143c-0.1,0.3-0.3,0.6-0.5,0.7c-0.5-0.1-0.9-0.4-1.1-0.9c-0.7,0.7-1.4,1-2.1,1s-1.2-0.2-1.6-0.6
		c-0.4-0.4-0.5-0.9-0.5-1.4c0-0.8,0.2-1.3,0.7-1.7c0.5-0.4,1.1-0.6,1.9-0.6c0.5,0,0.9,0,1.4,0.1v-0.6c0-0.8-0.4-1.3-1.2-1.3
		c-0.6,0-1.3,0.2-2.2,0.5c-0.3-0.3-0.4-0.6-0.4-1c1-0.4,1.9-0.6,2.9-0.6c0.7,0,1.3,0.2,1.7,0.6c0.4,0.4,0.6,1,0.6,1.8v2.9
		C158.6,142.3,158.7,142.7,159,143z M155.5,142.7c0.6,0,1.2-0.3,1.7-0.9v-1.3c-0.4,0-0.8-0.1-1.3-0.1c-0.5,0-0.8,0.1-1.1,0.3
		c-0.2,0.2-0.4,0.5-0.4,0.9c0,0.4,0.1,0.6,0.3,0.8S155.2,142.7,155.5,142.7z"/>
	<path fill="#FFFFFF" d="M167.1,136.5c0.8,0,1.3,0.3,1.8,1c0.4,0.6,0.6,1.5,0.6,2.7c0,1.1-0.3,2-0.8,2.6s-1.2,0.9-1.9,0.9
		c-0.6,0-1.1-0.2-1.7-0.5v2.5c0,0.3-0.1,0.5-0.2,0.7c-0.1,0.1-0.3,0.2-0.6,0.2h-0.5l-0.1-0.1v-9.8l0.1-0.1h0.4
		c0.4,0,0.7,0.2,0.8,0.7C165.7,136.8,166.3,136.5,167.1,136.5z M166.8,137.6c-0.7,0-1.2,0.3-1.6,1v3.4c0.5,0.4,1,0.5,1.4,0.5
		c0.4,0,0.8-0.2,1.1-0.7c0.3-0.4,0.4-1.1,0.4-1.9s-0.1-1.4-0.4-1.8C167.5,137.8,167.2,137.6,166.8,137.6z"/>
	<path fill="#FFFFFF" d="M170.9,137.3c0.1-0.3,0.2-0.6,0.5-0.7c0.6,0.1,1,0.6,1.2,1.2c0.4-0.8,1-1.2,1.8-1.2c0.2,0,0.5,0,0.7,0.1
		c0,0.5-0.1,0.9-0.3,1.3c-0.1,0-0.2,0-0.6-0.1c-0.7,0-1.2,0.4-1.5,1.1v4.6c-0.2,0-0.4,0.1-0.7,0.1s-0.5,0-0.7-0.1v-4.8
		C171.4,138.1,171.2,137.6,170.9,137.3z"/>
	<path fill="#FFFFFF" d="M181.6,143c-0.1,0.3-0.3,0.6-0.5,0.7c-0.5-0.1-0.9-0.4-1.1-0.9c-0.7,0.7-1.4,1-2.1,1s-1.2-0.2-1.6-0.6
		c-0.4-0.4-0.5-0.9-0.5-1.4c0-0.8,0.2-1.3,0.7-1.7c0.5-0.4,1.1-0.6,1.9-0.6c0.5,0,0.9,0,1.4,0.1v-0.6c0-0.8-0.4-1.3-1.2-1.3
		c-0.6,0-1.3,0.2-2.2,0.5c-0.3-0.3-0.4-0.6-0.4-1c1-0.4,1.9-0.6,2.9-0.6c0.7,0,1.3,0.2,1.7,0.6c0.4,0.4,0.6,1,0.6,1.8v2.9
		C181.3,142.3,181.4,142.7,181.6,143z M178.2,142.7c0.6,0,1.2-0.3,1.7-0.9v-1.3c-0.4,0-0.8-0.1-1.3-0.1c-0.5,0-0.8,0.1-1.1,0.3
		c-0.2,0.2-0.4,0.5-0.4,0.9c0,0.4,0.1,0.6,0.3,0.8S177.9,142.7,178.2,142.7z M177.6,135.5l2-2.2c0.2,0.1,0.4,0.2,0.6,0.4
		s0.3,0.4,0.4,0.6l-2.4,1.9C177.9,135.9,177.7,135.8,177.6,135.5z"/>
	<path fill="#FFFFFF" d="M186.8,136.6c0,0.2,0.1,0.3,0.1,0.5c0,0.2,0,0.3-0.1,0.5l-1.8,0v4.3c0,0.4,0.2,0.6,0.6,0.6h1
		c0.1,0.2,0.1,0.4,0.1,0.6s0,0.3,0,0.4c-0.5,0.1-1.1,0.1-1.5,0.1c-1,0-1.4-0.5-1.4-1.4v-4.6l-1,0c0-0.1-0.1-0.3-0.1-0.5
		c0-0.2,0-0.4,0.1-0.5l1,0v-1.3c0-0.3,0.1-0.5,0.2-0.7s0.3-0.2,0.6-0.2h0.5l0.1,0.1v2.1L186.8,136.6z"/>
	<path fill="#FFFFFF" d="M190,137.8v5.8c-0.2,0-0.4,0.1-0.7,0.1c-0.3,0-0.5,0-0.7-0.1v-5.2c0-0.3,0-0.4-0.1-0.5
		c-0.1-0.1-0.2-0.2-0.5-0.2h-0.2c0-0.1-0.1-0.3-0.1-0.5c0-0.2,0-0.3,0.1-0.5c0.3,0,0.6-0.1,0.8-0.1h0.2c0.3,0,0.6,0.1,0.8,0.3
		C189.9,137.1,190,137.4,190,137.8z M188.3,134.7c0-0.2,0-0.4,0.1-0.6c0.2-0.1,0.5-0.2,0.8-0.2s0.6,0.1,0.7,0.2
		c0.1,0.2,0.1,0.4,0.1,0.6c0,0.2,0,0.4-0.1,0.6c-0.2,0.1-0.4,0.2-0.7,0.2c-0.3,0-0.6-0.1-0.8-0.2C188.3,135.2,188.3,135,188.3,134.7
		z"/>
	<path fill="#FFFFFF" d="M195.9,139.3c0,0,0-0.1,0-0.1c0-1.1-0.4-1.6-1.3-1.6c-0.5,0-0.8,0.2-1.1,0.7c-0.3,0.4-0.4,1.1-0.4,2
		c0,1.6,0.5,2.5,1.6,2.5c0.5,0,1.1-0.2,1.7-0.7c0.1,0.1,0.3,0.2,0.4,0.3c0.1,0.2,0.2,0.3,0.2,0.5c-0.7,0.7-1.5,1-2.5,1
		s-1.7-0.3-2.1-1c-0.5-0.7-0.7-1.6-0.7-2.7s0.3-2,0.8-2.6c0.6-0.6,1.2-0.9,2-0.9s1.4,0.2,1.9,0.7c0.4,0.4,0.7,0.9,0.7,1.4
		c0,0.5-0.2,0.8-0.7,0.8C196.3,139.3,196.1,139.3,195.9,139.3z"/>
	<path fill="#FFFFFF" d="M204.1,143c-0.1,0.3-0.3,0.6-0.5,0.7c-0.5-0.1-0.9-0.4-1.1-0.9c-0.7,0.7-1.4,1-2.1,1s-1.2-0.2-1.6-0.6
		c-0.4-0.4-0.5-0.9-0.5-1.4c0-0.8,0.2-1.3,0.7-1.7c0.5-0.4,1.1-0.6,1.9-0.6c0.5,0,0.9,0,1.4,0.1v-0.6c0-0.8-0.4-1.3-1.2-1.3
		c-0.6,0-1.3,0.2-2.2,0.5c-0.3-0.3-0.4-0.6-0.4-1c1-0.4,1.9-0.6,2.9-0.6c0.7,0,1.3,0.2,1.7,0.6c0.4,0.4,0.6,1,0.6,1.8v2.9
		C203.8,142.3,203.9,142.7,204.1,143z M200.7,142.7c0.6,0,1.2-0.3,1.7-0.9v-1.3c-0.4,0-0.8-0.1-1.3-0.1c-0.5,0-0.8,0.1-1.1,0.3
		c-0.2,0.2-0.4,0.5-0.4,0.9c0,0.4,0.1,0.6,0.3,0.8S200.4,142.7,200.7,142.7z"/>
	<path fill="#FFFFFF" d="M211,143.7c-0.8,0-1.4-0.3-1.8-1c-0.4-0.6-0.6-1.5-0.6-2.7c0-1.1,0.3-2,0.8-2.6s1.2-0.9,1.9-0.9
		c0.5,0,1.1,0.2,1.6,0.5v-3.7l0.1-0.1h0.5c0.3,0,0.5,0.1,0.6,0.2c0.1,0.1,0.2,0.4,0.2,0.7v7.5c0,0.7,0.1,1.1,0.4,1.4
		c-0.1,0.3-0.3,0.6-0.5,0.7c-0.5-0.1-0.8-0.4-1-0.9C212.4,143.4,211.7,143.7,211,143.7z M211.2,142.6c0.6,0,1.1-0.3,1.6-0.9v-3.5
		c-0.5-0.4-1-0.5-1.4-0.5c-0.4,0-0.8,0.2-1.1,0.7c-0.3,0.4-0.4,1.1-0.4,1.9s0.1,1.4,0.4,1.8S210.8,142.6,211.2,142.6z"/>
	<path fill="#FFFFFF" d="M221.5,140.5h-4.2c0,0.7,0.2,1.2,0.4,1.5c0.3,0.4,0.7,0.5,1.3,0.5s1.2-0.2,1.9-0.5c0.2,0.2,0.4,0.5,0.4,0.9
		c-0.7,0.5-1.6,0.8-2.6,0.8c-1,0-1.7-0.3-2.2-1s-0.7-1.5-0.7-2.6s0.3-2,0.7-2.6c0.5-0.7,1.2-1,2.1-1c0.9,0,1.6,0.3,2.1,0.8
		c0.5,0.6,0.7,1.3,0.7,2.1C221.6,139.8,221.6,140.2,221.5,140.5z M219.9,138c-0.2-0.4-0.6-0.5-1.1-0.5c-0.5,0-0.8,0.2-1.1,0.5
		s-0.4,0.9-0.4,1.5h2.9v-0.2C220.3,138.8,220.2,138.4,219.9,138z"/>
	<path fill="#FFFFFF" d="M228.4,143.7c-0.7,0-1.3-0.3-1.7-1c-0.4-0.6-0.6-1.5-0.6-2.7s0.3-2,0.8-2.6s1.2-0.9,1.9-0.9
		c0.7,0,1.4,0.2,1.9,0.7c0.2-0.3,0.5-0.6,0.9-0.7c0.3,0.1,0.4,0.4,0.5,0.7c-0.3,0.2-0.4,0.7-0.4,1.4v4.2c0,1.4-0.2,2.4-0.7,2.9
		c-0.5,0.6-1.3,0.9-2.3,0.9c-0.8,0-1.6-0.2-2.4-0.5c0-0.4,0.1-0.8,0.4-1c0.6,0.3,1.3,0.4,1.9,0.4c0.7,0,1.1-0.2,1.4-0.5
		s0.4-0.9,0.4-1.5v-0.7C229.8,143.4,229.1,143.7,228.4,143.7z M230.4,141.7v-3.4c-0.5-0.4-1-0.7-1.4-0.7s-0.8,0.2-1.1,0.6
		s-0.4,1.1-0.4,1.9s0.1,1.4,0.4,1.8c0.2,0.4,0.6,0.6,0.9,0.6C229.3,142.5,229.9,142.2,230.4,141.7z"/>
	<path fill="#FFFFFF" d="M239,140.5h-4.2c0,0.7,0.2,1.2,0.4,1.5c0.3,0.4,0.7,0.5,1.3,0.5s1.2-0.2,1.9-0.5c0.2,0.2,0.4,0.5,0.4,0.9
		c-0.7,0.5-1.6,0.8-2.6,0.8c-1,0-1.7-0.3-2.2-1s-0.7-1.5-0.7-2.6s0.3-2,0.7-2.6c0.5-0.7,1.2-1,2.1-1c0.9,0,1.6,0.3,2.1,0.8
		c0.5,0.6,0.7,1.3,0.7,2.1C239.1,139.8,239,140.2,239,140.5z M237.4,138c-0.2-0.4-0.6-0.5-1.1-0.5c-0.5,0-0.8,0.2-1.1,0.5
		s-0.4,0.9-0.4,1.5h2.9v-0.2C237.8,138.8,237.6,138.4,237.4,138z"/>
	<path fill="#FFFFFF" d="M240.2,143c0-0.2,0.1-0.3,0.1-0.5s0.2-0.3,0.3-0.4c0.8,0.4,1.4,0.6,1.9,0.6c0.5,0,0.8-0.1,1.1-0.3
		s0.4-0.4,0.4-0.7c0-0.4-0.3-0.8-0.9-1l-0.8-0.3c-1.2-0.4-1.8-1.1-1.8-2c0-0.6,0.2-1.1,0.7-1.5c0.5-0.4,1.1-0.6,1.8-0.6
		s1.5,0.2,2.2,0.5c0,0.2,0,0.4-0.1,0.6s-0.2,0.3-0.3,0.4c-0.7-0.3-1.3-0.4-1.9-0.4c-0.3,0-0.6,0.1-0.8,0.2c-0.2,0.2-0.3,0.3-0.3,0.6
		s0.1,0.4,0.2,0.6c0.1,0.1,0.4,0.3,0.7,0.4l0.8,0.3c1.2,0.5,1.8,1.2,1.8,2.1c0,0.6-0.2,1.1-0.7,1.5c-0.5,0.4-1.2,0.6-2,0.6
		C241.8,143.7,241,143.5,240.2,143z"/>
	<path fill="#FFFFFF" d="M250.4,136.6c0,0.2,0.1,0.3,0.1,0.5c0,0.2,0,0.3-0.1,0.5l-1.8,0v4.3c0,0.4,0.2,0.6,0.6,0.6h1
		c0.1,0.2,0.1,0.4,0.1,0.6s0,0.3,0,0.4c-0.5,0.1-1.1,0.1-1.5,0.1c-1,0-1.4-0.5-1.4-1.4v-4.6l-1,0c0-0.1-0.1-0.3-0.1-0.5
		c0-0.2,0-0.4,0.1-0.5l1,0v-1.3c0-0.3,0.1-0.5,0.2-0.7s0.3-0.2,0.6-0.2h0.5l0.1,0.1v2.1L250.4,136.6z"/>
	<path fill="#FFFFFF" d="M257.2,143c-0.1,0.3-0.3,0.6-0.5,0.7c-0.5-0.1-0.9-0.4-1.1-0.9c-0.7,0.7-1.4,1-2.1,1s-1.2-0.2-1.6-0.6
		c-0.4-0.4-0.5-0.9-0.5-1.4c0-0.8,0.2-1.3,0.7-1.7c0.5-0.4,1.1-0.6,1.9-0.6c0.5,0,0.9,0,1.4,0.1v-0.6c0-0.8-0.4-1.3-1.2-1.3
		c-0.6,0-1.3,0.2-2.2,0.5c-0.3-0.3-0.4-0.6-0.4-1c1-0.4,1.9-0.6,2.9-0.6c0.7,0,1.3,0.2,1.7,0.6c0.4,0.4,0.6,1,0.6,1.8v2.9
		C256.8,142.3,256.9,142.7,257.2,143z M254.4,135.6l-0.8-0.4c-0.2-0.1-0.4-0.1-0.5-0.1s-0.3,0.1-0.5,0.3l-0.2,0.2
		c-0.1,0-0.3,0-0.4-0.1c-0.1-0.1-0.2-0.2-0.3-0.3l0.1-0.3c0.1-0.3,0.3-0.6,0.6-0.7c0.2-0.2,0.5-0.3,0.8-0.3c0.3,0,0.5,0.1,0.8,0.2
		l0.8,0.4c0.1,0.1,0.3,0.1,0.5,0.1s0.3-0.1,0.5-0.4l0.2-0.2c0.1,0,0.3,0.1,0.4,0.1c0.1,0.1,0.2,0.2,0.3,0.3l-0.1,0.3
		c-0.1,0.3-0.3,0.6-0.6,0.7c-0.2,0.2-0.5,0.3-0.7,0.3S254.7,135.7,254.4,135.6z M253.7,142.7c0.6,0,1.2-0.3,1.7-0.9v-1.3
		c-0.4,0-0.8-0.1-1.3-0.1c-0.5,0-0.8,0.1-1.1,0.3c-0.2,0.2-0.4,0.5-0.4,0.9c0,0.4,0.1,0.6,0.3,0.8S253.4,142.7,253.7,142.7z"/>
	<path fill="#FFFFFF" d="M263.5,137.2c0.7,0.7,1,1.6,1,2.9s-0.3,2.2-1,2.9c-0.5,0.5-1.2,0.8-2,0.8c-0.8,0-1.5-0.3-2-0.8
		c-0.7-0.7-1-1.6-1-2.9s0.3-2.2,1-2.9c0.5-0.5,1.2-0.8,2-0.8C262.3,136.5,263,136.7,263.5,137.2z M259.9,140.1
		c0,1.7,0.5,2.6,1.6,2.6c1.1,0,1.6-0.9,1.6-2.6c0-0.5,0-0.9-0.1-1.3c-0.1-0.4-0.3-0.7-0.5-0.9c-0.2-0.3-0.6-0.4-1-0.4
		c-0.4,0-0.7,0.1-1,0.4c-0.2,0.3-0.4,0.6-0.5,0.9S259.9,139.6,259.9,140.1z"/>
	<path fill="#FFFFFF" d="M96.1,156.1c0,0,0-0.1,0-0.1c0-1.1-0.4-1.6-1.3-1.6c-0.5,0-0.8,0.2-1.1,0.7c-0.3,0.4-0.4,1.1-0.4,2
		c0,1.6,0.5,2.5,1.6,2.5c0.5,0,1.1-0.2,1.7-0.7c0.1,0.1,0.3,0.2,0.4,0.3c0.1,0.2,0.2,0.3,0.2,0.5c-0.7,0.7-1.5,1-2.5,1
		s-1.7-0.3-2.1-1c-0.5-0.7-0.7-1.6-0.7-2.7s0.3-2,0.8-2.6c0.6-0.6,1.2-0.9,2-0.9s1.4,0.2,1.9,0.7c0.4,0.4,0.7,0.9,0.7,1.4
		c0,0.5-0.2,0.8-0.7,0.8C96.5,156.1,96.3,156.1,96.1,156.1z"/>
	<path fill="#FFFFFF" d="M103.6,154c0.7,0.7,1,1.6,1,2.9s-0.3,2.2-1,2.9c-0.5,0.5-1.2,0.8-2,0.8c-0.8,0-1.5-0.3-2-0.8
		c-0.7-0.7-1-1.6-1-2.9s0.3-2.2,1-2.9c0.5-0.5,1.2-0.8,2-0.8C102.4,153.3,103,153.5,103.6,154z M99.9,156.9c0,1.7,0.5,2.6,1.6,2.6
		c1.1,0,1.6-0.9,1.6-2.6c0-0.5,0-0.9-0.1-1.3c-0.1-0.4-0.3-0.7-0.5-0.9c-0.2-0.3-0.6-0.4-1-0.4c-0.4,0-0.7,0.1-1,0.4
		c-0.2,0.3-0.4,0.6-0.5,0.9S99.9,156.4,99.9,156.9z"/>
	<path fill="#FFFFFF" d="M110.1,156c0-0.5-0.1-0.8-0.2-1.1c-0.1-0.2-0.4-0.3-0.7-0.3c-0.5,0-1.1,0.3-1.6,0.9v4.9
		c-0.2,0-0.4,0.1-0.7,0.1c-0.3,0-0.5,0-0.7-0.1v-6.9l0.1-0.1h0.5c0.5,0,0.7,0.3,0.8,0.9c0.6-0.6,1.3-1,2-1s1.3,0.3,1.6,1
		c0.7-0.7,1.5-1,2.2-1c0.6,0,1,0.2,1.3,0.6c0.3,0.4,0.5,0.9,0.5,1.6v3.4c0,0.5,0.1,1,0.2,1.2c-0.2,0.2-0.5,0.3-0.9,0.3
		c-0.5,0-0.7-0.3-0.7-0.9v-3.7c0-0.5-0.1-0.8-0.2-1.1c-0.1-0.2-0.4-0.3-0.7-0.3c-0.6,0-1.1,0.3-1.6,0.9v4.9c-0.2,0-0.4,0.1-0.7,0.1
		c-0.3,0-0.5,0-0.7-0.1V156z"/>
	<path fill="#FFFFFF" d="M125.8,159.8c-0.1,0.3-0.3,0.6-0.5,0.7c-0.5-0.1-0.9-0.4-1.1-0.9c-0.7,0.7-1.4,1-2.1,1s-1.2-0.2-1.6-0.6
		c-0.4-0.4-0.5-0.9-0.5-1.4c0-0.8,0.2-1.3,0.7-1.7c0.5-0.4,1.1-0.6,1.9-0.6c0.5,0,0.9,0,1.4,0.1v-0.6c0-0.8-0.4-1.3-1.2-1.3
		c-0.6,0-1.3,0.2-2.2,0.5c-0.3-0.3-0.4-0.6-0.4-1c1-0.4,1.9-0.6,2.9-0.6c0.7,0,1.3,0.2,1.7,0.6c0.4,0.4,0.6,1,0.6,1.8v2.9
		C125.4,159.1,125.6,159.5,125.8,159.8z M122.4,159.5c0.6,0,1.2-0.3,1.7-0.9v-1.3c-0.4,0-0.8-0.1-1.3-0.1c-0.5,0-0.8,0.1-1.1,0.3
		c-0.2,0.2-0.4,0.5-0.4,0.9c0,0.4,0.1,0.6,0.3,0.8S122.1,159.5,122.4,159.5z"/>
	<path fill="#FFFFFF" d="M134.4,156.1c0,0,0-0.1,0-0.1c0-1.1-0.4-1.6-1.3-1.6c-0.5,0-0.8,0.2-1.1,0.7c-0.3,0.4-0.4,1.1-0.4,2
		c0,1.6,0.5,2.5,1.6,2.5c0.5,0,1.1-0.2,1.7-0.7c0.1,0.1,0.3,0.2,0.4,0.3c0.1,0.2,0.2,0.3,0.2,0.5c-0.7,0.7-1.5,1-2.5,1
		s-1.7-0.3-2.1-1c-0.5-0.7-0.7-1.6-0.7-2.7s0.3-2,0.8-2.6c0.6-0.6,1.2-0.9,2-0.9s1.4,0.2,1.9,0.7c0.4,0.4,0.7,0.9,0.7,1.4
		c0,0.5-0.2,0.8-0.7,0.8C134.7,156.1,134.5,156.1,134.4,156.1z"/>
	<path fill="#FFFFFF" d="M137.2,158.2v-3.3c0-0.5-0.1-1-0.2-1.2c0.2-0.2,0.5-0.3,0.8-0.3s0.5,0.1,0.6,0.2c0.1,0.1,0.2,0.4,0.2,0.7
		v3.6c0,0.5,0.1,0.9,0.2,1.1c0.1,0.2,0.4,0.3,0.7,0.3s0.7-0.1,1-0.3c0.3-0.2,0.6-0.4,0.9-0.7v-4.9c0.2,0,0.5-0.1,0.7-0.1
		s0.4,0,0.7,0.1v5c0,0.7,0.1,1.1,0.4,1.4c-0.1,0.3-0.3,0.5-0.5,0.7c-0.6-0.1-0.9-0.5-1.1-1c-0.7,0.7-1.5,1-2.4,1
		c-0.6,0-1.1-0.2-1.4-0.6C137.4,159.4,137.2,158.9,137.2,158.2z"/>
	<path fill="#FFFFFF" d="M146.8,159.3h0.5c0.1,0.2,0.1,0.4,0.1,0.6s0,0.3,0,0.4c-0.4,0.1-0.8,0.1-1.2,0.1c-0.9,0-1.3-0.5-1.3-1.4
		v-8.9l0.1-0.1h0.5c0.3,0,0.5,0.1,0.6,0.2s0.2,0.4,0.2,0.7v7.8C146.2,159.1,146.4,159.3,146.8,159.3z"/>
	<path fill="#FFFFFF" d="M152.1,153.4c0,0.2,0.1,0.3,0.1,0.5c0,0.2,0,0.3-0.1,0.5l-1.8,0v4.3c0,0.4,0.2,0.6,0.6,0.6h1
		c0.1,0.2,0.1,0.4,0.1,0.6s0,0.3,0,0.4c-0.5,0.1-1.1,0.1-1.5,0.1c-1,0-1.4-0.5-1.4-1.4v-4.6l-1,0c0-0.1-0.1-0.3-0.1-0.5
		c0-0.2,0-0.4,0.1-0.5l1,0v-1.3c0-0.3,0.1-0.5,0.2-0.7s0.3-0.2,0.6-0.2h0.5l0.1,0.1v2.1L152.1,153.4z"/>
	<path fill="#FFFFFF" d="M153.6,158.2v-3.3c0-0.5-0.1-1-0.2-1.2c0.2-0.2,0.5-0.3,0.8-0.3s0.5,0.1,0.6,0.2c0.1,0.1,0.2,0.4,0.2,0.7
		v3.6c0,0.5,0.1,0.9,0.2,1.1c0.1,0.2,0.4,0.3,0.7,0.3s0.7-0.1,1-0.3c0.3-0.2,0.6-0.4,0.9-0.7v-4.9c0.2,0,0.5-0.1,0.7-0.1
		s0.4,0,0.7,0.1v5c0,0.7,0.1,1.1,0.4,1.4c-0.1,0.3-0.3,0.5-0.5,0.7c-0.6-0.1-0.9-0.5-1.1-1c-0.7,0.7-1.5,1-2.4,1
		c-0.6,0-1.1-0.2-1.4-0.6C153.7,159.4,153.6,158.9,153.6,158.2z"/>
	<path fill="#FFFFFF" d="M160.9,154.1c0.1-0.3,0.2-0.6,0.5-0.7c0.6,0.1,1,0.6,1.2,1.2c0.4-0.8,1-1.2,1.8-1.2c0.2,0,0.5,0,0.7,0.1
		c0,0.5-0.1,0.9-0.3,1.3c-0.1,0-0.2,0-0.6-0.1c-0.7,0-1.2,0.4-1.5,1.1v4.6c-0.2,0-0.4,0.1-0.7,0.1s-0.5,0-0.7-0.1v-4.8
		C161.4,154.9,161.3,154.4,160.9,154.1z"/>
	<path fill="#FFFFFF" d="M171.6,159.8c-0.1,0.3-0.3,0.6-0.5,0.7c-0.5-0.1-0.9-0.4-1.1-0.9c-0.7,0.7-1.4,1-2.1,1s-1.2-0.2-1.6-0.6
		c-0.4-0.4-0.5-0.9-0.5-1.4c0-0.8,0.2-1.3,0.7-1.7c0.5-0.4,1.1-0.6,1.9-0.6c0.5,0,0.9,0,1.4,0.1v-0.6c0-0.8-0.4-1.3-1.2-1.3
		c-0.6,0-1.3,0.2-2.2,0.5c-0.3-0.3-0.4-0.6-0.4-1c1-0.4,1.9-0.6,2.9-0.6c0.7,0,1.3,0.2,1.7,0.6c0.4,0.4,0.6,1,0.6,1.8v2.9
		C171.2,159.1,171.3,159.5,171.6,159.8z M168.2,159.5c0.6,0,1.2-0.3,1.7-0.9v-1.3c-0.4,0-0.8-0.1-1.3-0.1c-0.5,0-0.8,0.1-1.1,0.3
		c-0.2,0.2-0.4,0.5-0.4,0.9c0,0.4,0.1,0.6,0.3,0.8S167.9,159.5,168.2,159.5z"/>
	<path fill="#FFFFFF" d="M173.1,162.6c-0.2-0.1-0.3-0.3-0.3-0.6c0,0,0-0.1,0-0.1c0.3-0.1,0.6-0.3,0.8-0.6s0.3-0.5,0.3-0.8
		c-0.3-0.1-0.5-0.1-0.5-0.2c-0.1-0.1-0.1-0.4-0.1-0.7s0-0.5,0.1-0.7c0.2-0.1,0.5-0.2,0.9-0.2c0.3,0,0.6,0.1,0.8,0.2
		c0.1,0.2,0.1,0.5,0.1,0.9c0,0.6-0.2,1.2-0.5,1.7C174.3,162,173.8,162.4,173.1,162.6z"/>
	<path fill="#FFFFFF" d="M184.7,154c0.7,0.7,1,1.6,1,2.9s-0.3,2.2-1,2.9c-0.5,0.5-1.2,0.8-2,0.8c-0.8,0-1.5-0.3-2-0.8
		c-0.7-0.7-1-1.6-1-2.9s0.3-2.2,1-2.9c0.5-0.5,1.2-0.8,2-0.8C183.6,153.3,184.2,153.5,184.7,154z M181.1,156.9
		c0,1.7,0.5,2.6,1.6,2.6c1.1,0,1.6-0.9,1.6-2.6c0-0.5,0-0.9-0.1-1.3c-0.1-0.4-0.3-0.7-0.5-0.9c-0.2-0.3-0.6-0.4-1-0.4
		c-0.4,0-0.7,0.1-1,0.4c-0.2,0.3-0.4,0.6-0.5,0.9S181.1,156.4,181.1,156.9z"/>
	<path fill="#FFFFFF" d="M186.8,159.8c0-0.2,0.1-0.3,0.1-0.5s0.2-0.3,0.3-0.4c0.8,0.4,1.4,0.6,1.9,0.6c0.5,0,0.8-0.1,1.1-0.3
		s0.4-0.4,0.4-0.7c0-0.4-0.3-0.8-0.9-1l-0.8-0.3c-1.2-0.4-1.8-1.1-1.8-2c0-0.6,0.2-1.1,0.7-1.5c0.5-0.4,1.1-0.6,1.8-0.6
		s1.5,0.2,2.2,0.5c0,0.2,0,0.4-0.1,0.6s-0.2,0.3-0.3,0.4c-0.7-0.3-1.3-0.4-1.9-0.4c-0.3,0-0.6,0.1-0.8,0.2c-0.2,0.2-0.3,0.3-0.3,0.6
		s0.1,0.4,0.2,0.6c0.1,0.1,0.4,0.3,0.7,0.4l0.8,0.3c1.2,0.5,1.8,1.2,1.8,2.1c0,0.6-0.2,1.1-0.7,1.5c-0.5,0.4-1.2,0.6-2,0.6
		C188.4,160.5,187.6,160.3,186.8,159.8z"/>
	<path fill="#FFFFFF" d="M198.9,159.3l1.7-5.8c0.1,0,0.3-0.1,0.5-0.1c0.2,0,0.5,0,0.7,0.1l0,0.1c-0.9,3-1.7,5.2-2.2,6.8
		c-0.2,0-0.5,0.1-0.9,0.1c-0.3,0-0.6,0-0.7-0.1c-0.1-0.1-0.3-0.3-0.4-0.6l-2-6.1c0.3-0.1,0.6-0.2,0.8-0.2c0.4,0,0.6,0.2,0.7,0.6
		l1,3.1c0.2,0.7,0.4,1.4,0.6,2.1C198.7,159.2,198.8,159.3,198.9,159.3z"/>
	<path fill="#FFFFFF" d="M208.3,159.8c-0.1,0.3-0.3,0.6-0.5,0.7c-0.5-0.1-0.9-0.4-1.1-0.9c-0.7,0.7-1.4,1-2.1,1s-1.2-0.2-1.6-0.6
		c-0.4-0.4-0.5-0.9-0.5-1.4c0-0.8,0.2-1.3,0.7-1.7c0.5-0.4,1.1-0.6,1.9-0.6c0.5,0,0.9,0,1.4,0.1v-0.6c0-0.8-0.4-1.3-1.2-1.3
		c-0.6,0-1.3,0.2-2.2,0.5c-0.3-0.3-0.4-0.6-0.4-1c1-0.4,1.9-0.6,2.9-0.6c0.7,0,1.3,0.2,1.7,0.6c0.4,0.4,0.6,1,0.6,1.8v2.9
		C207.9,159.1,208,159.5,208.3,159.8z M204.9,159.5c0.6,0,1.2-0.3,1.7-0.9v-1.3c-0.4,0-0.8-0.1-1.3-0.1c-0.5,0-0.8,0.1-1.1,0.3
		c-0.2,0.2-0.4,0.5-0.4,0.9c0,0.4,0.1,0.6,0.3,0.8S204.6,159.5,204.9,159.5z"/>
	<path fill="#FFFFFF" d="M211.9,159.3h0.5c0.1,0.2,0.1,0.4,0.1,0.6s0,0.3,0,0.4c-0.4,0.1-0.8,0.1-1.2,0.1c-0.9,0-1.3-0.5-1.3-1.4
		v-8.9l0.1-0.1h0.5c0.3,0,0.5,0.1,0.6,0.2s0.2,0.4,0.2,0.7v7.8C211.4,159.1,211.6,159.3,211.9,159.3z"/>
	<path fill="#FFFFFF" d="M218.7,154c0.7,0.7,1,1.6,1,2.9s-0.3,2.2-1,2.9c-0.5,0.5-1.2,0.8-2,0.8c-0.8,0-1.5-0.3-2-0.8
		c-0.7-0.7-1-1.6-1-2.9s0.3-2.2,1-2.9c0.5-0.5,1.2-0.8,2-0.8C217.5,153.3,218.2,153.5,218.7,154z M215.1,156.9
		c0,1.7,0.5,2.6,1.6,2.6c1.1,0,1.6-0.9,1.6-2.6c0-0.5,0-0.9-0.1-1.3c-0.1-0.4-0.3-0.7-0.5-0.9c-0.2-0.3-0.6-0.4-1-0.4
		c-0.4,0-0.7,0.1-1,0.4c-0.2,0.3-0.4,0.6-0.5,0.9S215.1,156.4,215.1,156.9z"/>
	<path fill="#FFFFFF" d="M221.1,154.1c0.1-0.3,0.2-0.6,0.5-0.7c0.6,0.1,1,0.6,1.2,1.2c0.4-0.8,1-1.2,1.8-1.2c0.2,0,0.5,0,0.7,0.1
		c0,0.5-0.1,0.9-0.3,1.3c-0.1,0-0.2,0-0.6-0.1c-0.7,0-1.2,0.4-1.5,1.1v4.6c-0.2,0-0.4,0.1-0.7,0.1s-0.5,0-0.7-0.1v-4.8
		C221.6,154.9,221.4,154.4,221.1,154.1z"/>
	<path fill="#FFFFFF" d="M231.6,157.3h-4.2c0,0.7,0.2,1.2,0.4,1.5c0.3,0.4,0.7,0.5,1.3,0.5s1.2-0.2,1.9-0.5c0.2,0.2,0.4,0.5,0.4,0.9
		c-0.7,0.5-1.6,0.8-2.6,0.8c-1,0-1.7-0.3-2.2-1s-0.7-1.5-0.7-2.6s0.3-2,0.7-2.6c0.5-0.7,1.2-1,2.1-1c0.9,0,1.6,0.3,2.1,0.8
		c0.5,0.6,0.7,1.3,0.7,2.1C231.7,156.6,231.7,157,231.6,157.3z M230.1,154.8c-0.2-0.4-0.6-0.5-1.1-0.5c-0.5,0-0.8,0.2-1.1,0.5
		s-0.4,0.9-0.4,1.5h2.9v-0.2C230.4,155.6,230.3,155.2,230.1,154.8z"/>
	<path fill="#FFFFFF" d="M232.9,159.8c0-0.2,0.1-0.3,0.1-0.5s0.2-0.3,0.3-0.4c0.8,0.4,1.4,0.6,1.9,0.6c0.5,0,0.8-0.1,1.1-0.3
		s0.4-0.4,0.4-0.7c0-0.4-0.3-0.8-0.9-1l-0.8-0.3c-1.2-0.4-1.8-1.1-1.8-2c0-0.6,0.2-1.1,0.7-1.5c0.5-0.4,1.1-0.6,1.8-0.6
		s1.5,0.2,2.2,0.5c0,0.2,0,0.4-0.1,0.6s-0.2,0.3-0.3,0.4c-0.7-0.3-1.3-0.4-1.9-0.4c-0.3,0-0.6,0.1-0.8,0.2c-0.2,0.2-0.3,0.3-0.3,0.6
		s0.1,0.4,0.2,0.6c0.1,0.1,0.4,0.3,0.7,0.4l0.8,0.3c1.2,0.5,1.8,1.2,1.8,2.1c0,0.6-0.2,1.1-0.7,1.5c-0.5,0.4-1.2,0.6-2,0.6
		C234.5,160.5,233.7,160.3,232.9,159.8z"/>
	<path fill="#FFFFFF" d="M247.9,157.3h-4.2c0,0.7,0.2,1.2,0.4,1.5c0.3,0.4,0.7,0.5,1.3,0.5s1.2-0.2,1.9-0.5c0.2,0.2,0.4,0.5,0.4,0.9
		c-0.7,0.5-1.6,0.8-2.6,0.8c-1,0-1.7-0.3-2.2-1s-0.7-1.5-0.7-2.6s0.3-2,0.7-2.6c0.5-0.7,1.2-1,2.1-1c0.9,0,1.6,0.3,2.1,0.8
		c0.5,0.6,0.7,1.3,0.7,2.1C248,156.6,247.9,157,247.9,157.3z M246.3,154.8c-0.2-0.4-0.6-0.5-1.1-0.5c-0.5,0-0.8,0.2-1.1,0.5
		s-0.4,0.9-0.4,1.5h2.9v-0.2C246.6,155.6,246.5,155.2,246.3,154.8z"/>
	<path fill="#FFFFFF" d="M104.4,170.8c0.7,0.7,1,1.6,1,2.9s-0.3,2.2-1,2.9c-0.5,0.5-1.2,0.8-2,0.8c-0.8,0-1.5-0.3-2-0.8
		c-0.7-0.7-1-1.6-1-2.9s0.3-2.2,1-2.9c0.5-0.5,1.2-0.8,2-0.8C103.2,170.1,103.9,170.3,104.4,170.8z M100.8,173.7
		c0,1.7,0.5,2.6,1.6,2.6c1.1,0,1.6-0.9,1.6-2.6c0-0.5,0-0.9-0.1-1.3c-0.1-0.4-0.3-0.7-0.5-0.9c-0.2-0.3-0.6-0.4-1-0.4
		c-0.4,0-0.7,0.1-1,0.4c-0.2,0.3-0.4,0.6-0.5,0.9S100.8,173.2,100.8,173.7z"/>
	<path fill="#FFFFFF" d="M106.5,176.6c0-0.2,0.1-0.3,0.1-0.5s0.2-0.3,0.3-0.4c0.8,0.4,1.4,0.6,1.9,0.6c0.5,0,0.8-0.1,1.1-0.3
		s0.4-0.4,0.4-0.7c0-0.4-0.3-0.8-0.9-1l-0.8-0.3c-1.2-0.4-1.8-1.1-1.8-2c0-0.6,0.2-1.1,0.7-1.5c0.5-0.4,1.1-0.6,1.8-0.6
		s1.5,0.2,2.2,0.5c0,0.2,0,0.4-0.1,0.6s-0.2,0.3-0.3,0.4c-0.7-0.3-1.3-0.4-1.9-0.4c-0.3,0-0.6,0.1-0.8,0.2c-0.2,0.2-0.3,0.3-0.3,0.6
		s0.1,0.4,0.2,0.6c0.1,0.1,0.4,0.3,0.7,0.4l0.8,0.3c1.2,0.5,1.8,1.2,1.8,2.1c0,0.6-0.2,1.1-0.7,1.5c-0.5,0.4-1.2,0.6-2,0.6
		C108.1,177.3,107.2,177.1,106.5,176.6z"/>
	<path fill="#FFFFFF" d="M118.3,177.3c-0.8,0-1.4-0.3-1.8-1c-0.4-0.6-0.6-1.5-0.6-2.7c0-1.1,0.3-2,0.8-2.6s1.2-0.9,1.9-0.9
		c0.5,0,1.1,0.2,1.6,0.5V167l0.1-0.1h0.5c0.3,0,0.5,0.1,0.6,0.2c0.1,0.1,0.2,0.4,0.2,0.7v7.5c0,0.7,0.1,1.1,0.4,1.4
		c-0.1,0.3-0.3,0.6-0.5,0.7c-0.5-0.1-0.8-0.4-1-0.9C119.7,177,119.1,177.3,118.3,177.3z M118.6,176.2c0.6,0,1.1-0.3,1.6-0.9v-3.5
		c-0.5-0.4-1-0.5-1.4-0.5c-0.4,0-0.8,0.2-1.1,0.7c-0.3,0.4-0.4,1.1-0.4,1.9s0.1,1.4,0.4,1.8S118.2,176.2,118.6,176.2z"/>
	<path fill="#FFFFFF" d="M128.8,174.1h-4.2c0,0.7,0.2,1.2,0.4,1.5c0.3,0.4,0.7,0.5,1.3,0.5s1.2-0.2,1.9-0.5c0.2,0.2,0.4,0.5,0.4,0.9
		c-0.7,0.5-1.6,0.8-2.6,0.8c-1,0-1.7-0.3-2.2-1s-0.7-1.5-0.7-2.6s0.3-2,0.7-2.6c0.5-0.7,1.2-1,2.1-1c0.9,0,1.6,0.3,2.1,0.8
		c0.5,0.6,0.7,1.3,0.7,2.1C128.9,173.4,128.9,173.8,128.8,174.1z M127.3,171.6c-0.2-0.4-0.6-0.5-1.1-0.5c-0.5,0-0.8,0.2-1.1,0.5
		s-0.4,0.9-0.4,1.5h2.9V173C127.6,172.4,127.5,172,127.3,171.6z"/>
	<path fill="#FFFFFF" d="M130.1,176.6c0-0.2,0.1-0.3,0.1-0.5s0.2-0.3,0.3-0.4c0.8,0.4,1.4,0.6,1.9,0.6c0.5,0,0.8-0.1,1.1-0.3
		s0.4-0.4,0.4-0.7c0-0.4-0.3-0.8-0.9-1l-0.8-0.3c-1.2-0.4-1.8-1.1-1.8-2c0-0.6,0.2-1.1,0.7-1.5c0.5-0.4,1.1-0.6,1.8-0.6
		s1.5,0.2,2.2,0.5c0,0.2,0,0.4-0.1,0.6s-0.2,0.3-0.3,0.4c-0.7-0.3-1.3-0.4-1.9-0.4c-0.3,0-0.6,0.1-0.8,0.2c-0.2,0.2-0.3,0.3-0.3,0.6
		s0.1,0.4,0.2,0.6c0.1,0.1,0.4,0.3,0.7,0.4l0.8,0.3c1.2,0.5,1.8,1.2,1.8,2.1c0,0.6-0.2,1.1-0.7,1.5c-0.5,0.4-1.2,0.6-2,0.6
		C131.7,177.3,130.9,177.1,130.1,176.6z"/>
	<path fill="#FFFFFF" d="M142.2,176.6c-0.1,0.3-0.3,0.6-0.5,0.7c-0.5-0.1-0.9-0.4-1.1-0.9c-0.7,0.7-1.4,1-2.1,1s-1.2-0.2-1.6-0.6
		c-0.4-0.4-0.5-0.9-0.5-1.4c0-0.8,0.2-1.3,0.7-1.7c0.5-0.4,1.1-0.6,1.9-0.6c0.5,0,0.9,0,1.4,0.1v-0.6c0-0.8-0.4-1.3-1.2-1.3
		c-0.6,0-1.3,0.2-2.2,0.5c-0.3-0.3-0.4-0.6-0.4-1c1-0.4,1.9-0.6,2.9-0.6c0.7,0,1.3,0.2,1.7,0.6c0.4,0.4,0.6,1,0.6,1.8v2.9
		C141.8,175.9,141.9,176.3,142.2,176.6z M138.7,176.3c0.6,0,1.2-0.3,1.7-0.9V174c-0.4,0-0.8-0.1-1.3-0.1c-0.5,0-0.8,0.1-1.1,0.3
		c-0.2,0.2-0.4,0.5-0.4,0.9c0,0.4,0.1,0.6,0.3,0.8S138.4,176.3,138.7,176.3z"/>
	<path fill="#FFFFFF" d="M144.3,177.2v-5.9l-1.2,0c0-0.2-0.1-0.4-0.1-0.5c0-0.1,0-0.3,0.1-0.5l1.1,0c-0.1-0.5-0.1-1-0.1-1.3
		c0-0.6,0.2-1.1,0.6-1.5s0.9-0.6,1.5-0.6s1.2,0.1,1.8,0.3c0,0.4-0.1,0.7-0.3,0.9c-0.5-0.1-0.9-0.2-1.2-0.2s-0.6,0.1-0.8,0.3
		s-0.3,0.5-0.3,0.9c0,0.4,0,0.8,0.1,1.3l2,0c0,0.2,0.1,0.4,0.1,0.5c0,0.1,0,0.3-0.1,0.5l-1.9,0v5.9c-0.2,0-0.4,0.1-0.7,0.1
		C144.7,177.2,144.5,177.2,144.3,177.2z"/>
	<path fill="#FFFFFF" d="M150.7,171.4v5.8c-0.2,0-0.4,0.1-0.7,0.1c-0.3,0-0.5,0-0.7-0.1V172c0-0.3,0-0.4-0.1-0.5
		c-0.1-0.1-0.2-0.2-0.5-0.2h-0.2c0-0.1-0.1-0.3-0.1-0.5c0-0.2,0-0.3,0.1-0.5c0.3,0,0.6-0.1,0.8-0.1h0.2c0.3,0,0.6,0.1,0.8,0.3
		C150.6,170.7,150.7,171,150.7,171.4z M149,168.3c0-0.2,0-0.4,0.1-0.6c0.2-0.1,0.5-0.2,0.8-0.2s0.6,0.1,0.7,0.2
		c0.1,0.2,0.1,0.4,0.1,0.6c0,0.2,0,0.4-0.1,0.6c-0.2,0.1-0.4,0.2-0.7,0.2c-0.3,0-0.6-0.1-0.8-0.2C149,168.8,149,168.6,149,168.3z"/>
	<path fill="#FFFFFF" d="M157.5,170.8c0.7,0.7,1,1.6,1,2.9s-0.3,2.2-1,2.9c-0.5,0.5-1.2,0.8-2,0.8c-0.8,0-1.5-0.3-2-0.8
		c-0.7-0.7-1-1.6-1-2.9s0.3-2.2,1-2.9c0.5-0.5,1.2-0.8,2-0.8C156.3,170.1,157,170.3,157.5,170.8z M153.9,173.7
		c0,1.7,0.5,2.6,1.6,2.6c1.1,0,1.6-0.9,1.6-2.6c0-0.5,0-0.9-0.1-1.3c-0.1-0.4-0.3-0.7-0.5-0.9c-0.2-0.3-0.6-0.4-1-0.4
		c-0.4,0-0.7,0.1-1,0.4c-0.2,0.3-0.4,0.6-0.5,0.9S153.9,173.2,153.9,173.7z"/>
	<path fill="#FFFFFF" d="M159.6,176.6c0-0.2,0.1-0.3,0.1-0.5s0.2-0.3,0.3-0.4c0.8,0.4,1.4,0.6,1.9,0.6c0.5,0,0.8-0.1,1.1-0.3
		s0.4-0.4,0.4-0.7c0-0.4-0.3-0.8-0.9-1l-0.8-0.3c-1.2-0.4-1.8-1.1-1.8-2c0-0.6,0.2-1.1,0.7-1.5c0.5-0.4,1.1-0.6,1.8-0.6
		s1.5,0.2,2.2,0.5c0,0.2,0,0.4-0.1,0.6s-0.2,0.3-0.3,0.4c-0.7-0.3-1.3-0.4-1.9-0.4c-0.3,0-0.6,0.1-0.8,0.2c-0.2,0.2-0.3,0.3-0.3,0.6
		s0.1,0.4,0.2,0.6c0.1,0.1,0.4,0.3,0.7,0.4l0.8,0.3c1.2,0.5,1.8,1.2,1.8,2.1c0,0.6-0.2,1.1-0.7,1.5c-0.5,0.4-1.2,0.6-2,0.6
		C161.2,177.3,160.4,177.1,159.6,176.6z"/>
	<path fill="#FFFFFF" d="M174.5,174.1h-4.2c0,0.7,0.2,1.2,0.4,1.5c0.3,0.4,0.7,0.5,1.3,0.5s1.2-0.2,1.9-0.5c0.2,0.2,0.4,0.5,0.4,0.9
		c-0.7,0.5-1.6,0.8-2.6,0.8c-1,0-1.7-0.3-2.2-1s-0.7-1.5-0.7-2.6s0.3-2,0.7-2.6c0.5-0.7,1.2-1,2.1-1c0.9,0,1.6,0.3,2.1,0.8
		c0.5,0.6,0.7,1.3,0.7,2.1C174.6,173.4,174.6,173.8,174.5,174.1z M173,171.6c-0.2-0.4-0.6-0.5-1.1-0.5c-0.5,0-0.8,0.2-1.1,0.5
		s-0.4,0.9-0.4,1.5h2.9V173C173.3,172.4,173.2,172,173,171.6z"/>
	<path fill="#FFFFFF" d="M175.8,176.6c0-0.2,0.1-0.3,0.1-0.5s0.2-0.3,0.3-0.4c0.8,0.4,1.4,0.6,1.9,0.6c0.5,0,0.8-0.1,1.1-0.3
		s0.4-0.4,0.4-0.7c0-0.4-0.3-0.8-0.9-1l-0.8-0.3c-1.2-0.4-1.8-1.1-1.8-2c0-0.6,0.2-1.1,0.7-1.5c0.5-0.4,1.1-0.6,1.8-0.6
		s1.5,0.2,2.2,0.5c0,0.2,0,0.4-0.1,0.6s-0.2,0.3-0.3,0.4c-0.7-0.3-1.3-0.4-1.9-0.4c-0.3,0-0.6,0.1-0.8,0.2c-0.2,0.2-0.3,0.3-0.3,0.6
		s0.1,0.4,0.2,0.6c0.1,0.1,0.4,0.3,0.7,0.4l0.8,0.3c1.2,0.5,1.8,1.2,1.8,2.1c0,0.6-0.2,1.1-0.7,1.5c-0.5,0.4-1.2,0.6-2,0.6
		C177.4,177.3,176.6,177.1,175.8,176.6z"/>
	<path fill="#FFFFFF" d="M185.9,170.2c0,0.2,0.1,0.3,0.1,0.5c0,0.2,0,0.3-0.1,0.5l-1.8,0v4.3c0,0.4,0.2,0.6,0.6,0.6h1
		c0.1,0.2,0.1,0.4,0.1,0.6s0,0.3,0,0.4c-0.5,0.1-1.1,0.1-1.5,0.1c-1,0-1.4-0.5-1.4-1.4v-4.6l-1,0c0-0.1-0.1-0.3-0.1-0.5
		c0-0.2,0-0.4,0.1-0.5l1,0V169c0-0.3,0.1-0.5,0.2-0.7s0.3-0.2,0.6-0.2h0.5l0.1,0.1v2.1L185.9,170.2z"/>
	<path fill="#FFFFFF" d="M187.1,170.9c0.1-0.3,0.2-0.6,0.5-0.7c0.6,0.1,1,0.6,1.2,1.2c0.4-0.8,1-1.2,1.8-1.2c0.2,0,0.5,0,0.7,0.1
		c0,0.5-0.1,0.9-0.3,1.3c-0.1,0-0.2,0-0.6-0.1c-0.7,0-1.2,0.4-1.5,1.1v4.6c-0.2,0-0.4,0.1-0.7,0.1s-0.5,0-0.7-0.1v-4.8
		C187.6,171.7,187.4,171.2,187.1,170.9z"/>
	<path fill="#FFFFFF" d="M197.8,176.6c-0.1,0.3-0.3,0.6-0.5,0.7c-0.5-0.1-0.9-0.4-1.1-0.9c-0.7,0.7-1.4,1-2.1,1s-1.2-0.2-1.6-0.6
		c-0.4-0.4-0.5-0.9-0.5-1.4c0-0.8,0.2-1.3,0.7-1.7c0.5-0.4,1.1-0.6,1.9-0.6c0.5,0,0.9,0,1.4,0.1v-0.6c0-0.8-0.4-1.3-1.2-1.3
		c-0.6,0-1.3,0.2-2.2,0.5c-0.3-0.3-0.4-0.6-0.4-1c1-0.4,1.9-0.6,2.9-0.6c0.7,0,1.3,0.2,1.7,0.6c0.4,0.4,0.6,1,0.6,1.8v2.9
		C197.4,175.9,197.5,176.3,197.8,176.6z M194.3,176.3c0.6,0,1.2-0.3,1.7-0.9V174c-0.4,0-0.8-0.1-1.3-0.1c-0.5,0-0.8,0.1-1.1,0.3
		c-0.2,0.2-0.4,0.5-0.4,0.9c0,0.4,0.1,0.6,0.3,0.8S194,176.3,194.3,176.3z"/>
	<path fill="#FFFFFF" d="M202.7,170.2c0,0.2,0.1,0.3,0.1,0.5c0,0.2,0,0.3-0.1,0.5l-1.8,0v4.3c0,0.4,0.2,0.6,0.6,0.6h1
		c0.1,0.2,0.1,0.4,0.1,0.6s0,0.3,0,0.4c-0.5,0.1-1.1,0.1-1.5,0.1c-1,0-1.4-0.5-1.4-1.4v-4.6l-1,0c0-0.1-0.1-0.3-0.1-0.5
		c0-0.2,0-0.4,0.1-0.5l1,0V169c0-0.3,0.1-0.5,0.2-0.7s0.3-0.2,0.6-0.2h0.5l0.1,0.1v2.1L202.7,170.2z"/>
	<path fill="#FFFFFF" d="M209.3,174.1h-4.2c0,0.7,0.2,1.2,0.4,1.5c0.3,0.4,0.7,0.5,1.3,0.5s1.2-0.2,1.9-0.5c0.2,0.2,0.4,0.5,0.4,0.9
		c-0.7,0.5-1.6,0.8-2.6,0.8c-1,0-1.7-0.3-2.2-1s-0.7-1.5-0.7-2.6s0.3-2,0.7-2.6c0.5-0.7,1.2-1,2.1-1c0.9,0,1.6,0.3,2.1,0.8
		c0.5,0.6,0.7,1.3,0.7,2.1C209.4,173.4,209.4,173.8,209.3,174.1z M207.8,171.6c-0.2-0.4-0.6-0.5-1.1-0.5c-0.5,0-0.8,0.2-1.1,0.5
		s-0.4,0.9-0.4,1.5h2.9V173C208.1,172.4,208,172,207.8,171.6z M205.7,169.1l2-2.2c0.2,0.1,0.4,0.2,0.6,0.4s0.3,0.4,0.4,0.6l-2.4,1.9
		C206,169.5,205.8,169.4,205.7,169.1z"/>
	<path fill="#FFFFFF" d="M213.2,177.3c-0.7,0-1.3-0.3-1.7-1c-0.4-0.6-0.6-1.5-0.6-2.7s0.3-2,0.8-2.6s1.2-0.9,1.9-0.9
		c0.7,0,1.4,0.2,1.9,0.7c0.2-0.3,0.5-0.6,0.9-0.7c0.3,0.1,0.4,0.4,0.5,0.7c-0.3,0.2-0.4,0.7-0.4,1.4v4.2c0,1.4-0.2,2.4-0.7,2.9
		c-0.5,0.6-1.3,0.9-2.3,0.9c-0.8,0-1.6-0.2-2.4-0.5c0-0.4,0.1-0.8,0.4-1c0.6,0.3,1.3,0.4,1.9,0.4c0.7,0,1.1-0.2,1.4-0.5
		s0.4-0.9,0.4-1.5v-0.7C214.6,177,213.9,177.3,213.2,177.3z M215.1,175.3v-3.4c-0.5-0.4-1-0.7-1.4-0.7s-0.8,0.2-1.1,0.6
		s-0.4,1.1-0.4,1.9s0.1,1.4,0.4,1.8c0.2,0.4,0.6,0.6,0.9,0.6C214.1,176.1,214.7,175.8,215.1,175.3z"/>
	<path fill="#FFFFFF" d="M220.1,171.4v5.8c-0.2,0-0.4,0.1-0.7,0.1c-0.3,0-0.5,0-0.7-0.1V172c0-0.3,0-0.4-0.1-0.5
		c-0.1-0.1-0.2-0.2-0.5-0.2H218c0-0.1-0.1-0.3-0.1-0.5c0-0.2,0-0.3,0.1-0.5c0.3,0,0.6-0.1,0.8-0.1h0.2c0.3,0,0.6,0.1,0.8,0.3
		C220,170.7,220.1,171,220.1,171.4z M218.3,168.3c0-0.2,0-0.4,0.1-0.6c0.2-0.1,0.5-0.2,0.8-0.2s0.6,0.1,0.7,0.2
		c0.1,0.2,0.1,0.4,0.1,0.6c0,0.2,0,0.4-0.1,0.6c-0.2,0.1-0.4,0.2-0.7,0.2c-0.3,0-0.6-0.1-0.8-0.2
		C218.4,168.8,218.3,168.6,218.3,168.3z"/>
	<path fill="#FFFFFF" d="M226,172.9c0,0,0-0.1,0-0.1c0-1.1-0.4-1.6-1.3-1.6c-0.5,0-0.8,0.2-1.1,0.7c-0.3,0.4-0.4,1.1-0.4,2
		c0,1.6,0.5,2.5,1.6,2.5c0.5,0,1.1-0.2,1.7-0.7c0.1,0.1,0.3,0.2,0.4,0.3c0.1,0.2,0.2,0.3,0.2,0.5c-0.7,0.7-1.5,1-2.5,1
		s-1.7-0.3-2.1-1c-0.5-0.7-0.7-1.6-0.7-2.7s0.3-2,0.8-2.6c0.6-0.6,1.2-0.9,2-0.9s1.4,0.2,1.9,0.7c0.4,0.4,0.7,0.9,0.7,1.4
		c0,0.5-0.2,0.8-0.7,0.8C226.4,172.9,226.2,172.9,226,172.9z"/>
	<path fill="#FFFFFF" d="M233.5,170.8c0.7,0.7,1,1.6,1,2.9s-0.3,2.2-1,2.9c-0.5,0.5-1.2,0.8-2,0.8c-0.8,0-1.5-0.3-2-0.8
		c-0.7-0.7-1-1.6-1-2.9s0.3-2.2,1-2.9c0.5-0.5,1.2-0.8,2-0.8C232.3,170.1,233,170.3,233.5,170.8z M229.9,173.7
		c0,1.7,0.5,2.6,1.6,2.6c1.1,0,1.6-0.9,1.6-2.6c0-0.5,0-0.9-0.1-1.3c-0.1-0.4-0.3-0.7-0.5-0.9c-0.2-0.3-0.6-0.4-1-0.4
		c-0.4,0-0.7,0.1-1,0.4c-0.2,0.3-0.4,0.6-0.5,0.9S229.9,173.2,229.9,173.7z"/>
	<path fill="#FFFFFF" d="M235.6,176.6c0-0.2,0.1-0.3,0.1-0.5s0.2-0.3,0.3-0.4c0.8,0.4,1.4,0.6,1.9,0.6c0.5,0,0.8-0.1,1.1-0.3
		s0.4-0.4,0.4-0.7c0-0.4-0.3-0.8-0.9-1l-0.8-0.3c-1.2-0.4-1.8-1.1-1.8-2c0-0.6,0.2-1.1,0.7-1.5c0.5-0.4,1.1-0.6,1.8-0.6
		s1.5,0.2,2.2,0.5c0,0.2,0,0.4-0.1,0.6s-0.2,0.3-0.3,0.4c-0.7-0.3-1.3-0.4-1.9-0.4c-0.3,0-0.6,0.1-0.8,0.2c-0.2,0.2-0.3,0.3-0.3,0.6
		s0.1,0.4,0.2,0.6c0.1,0.1,0.4,0.3,0.7,0.4l0.8,0.3c1.2,0.5,1.8,1.2,1.8,2.1c0,0.6-0.2,1.1-0.7,1.5c-0.5,0.4-1.2,0.6-2,0.6
		C237.1,177.3,236.3,177.1,235.6,176.6z"/>
	<path fill="#FFFFFF" d="M126.2,194.1c-0.8,0-1.4-0.3-1.8-1c-0.4-0.6-0.6-1.5-0.6-2.7c0-1.1,0.3-2,0.8-2.6s1.2-0.9,1.9-0.9
		c0.5,0,1.1,0.2,1.6,0.5v-3.7l0.1-0.1h0.5c0.3,0,0.5,0.1,0.6,0.2c0.1,0.1,0.2,0.4,0.2,0.7v7.5c0,0.7,0.1,1.1,0.4,1.4
		c-0.1,0.3-0.3,0.6-0.5,0.7c-0.5-0.1-0.8-0.4-1-0.9C127.6,193.8,127,194.1,126.2,194.1z M126.4,193c0.6,0,1.1-0.3,1.6-0.9v-3.5
		c-0.5-0.4-1-0.5-1.4-0.5c-0.4,0-0.8,0.2-1.1,0.7c-0.3,0.4-0.4,1.1-0.4,1.9s0.1,1.4,0.4,1.8S126.1,193,126.4,193z"/>
	<path fill="#FFFFFF" d="M136.9,193.4c-0.1,0.3-0.3,0.6-0.5,0.7c-0.5-0.1-0.9-0.4-1.1-0.9c-0.7,0.7-1.4,1-2.1,1s-1.2-0.2-1.6-0.6
		c-0.4-0.4-0.5-0.9-0.5-1.4c0-0.8,0.2-1.3,0.7-1.7c0.5-0.4,1.1-0.6,1.9-0.6c0.5,0,0.9,0,1.4,0.1v-0.6c0-0.8-0.4-1.3-1.2-1.3
		c-0.6,0-1.3,0.2-2.2,0.5c-0.3-0.3-0.4-0.6-0.4-1c1-0.4,1.9-0.6,2.9-0.6c0.7,0,1.3,0.2,1.7,0.6c0.4,0.4,0.6,1,0.6,1.8v2.9
		C136.5,192.7,136.7,193.1,136.9,193.4z M133.5,193.1c0.6,0,1.2-0.3,1.7-0.9v-1.3c-0.4,0-0.8-0.1-1.3-0.1c-0.5,0-0.8,0.1-1.1,0.3
		c-0.2,0.2-0.4,0.5-0.4,0.9c0,0.4,0.1,0.6,0.3,0.8S133.2,193.1,133.5,193.1z"/>
	<path fill="#FFFFFF" d="M146.3,187.6c0.7,0.7,1,1.6,1,2.9s-0.3,2.2-1,2.9c-0.5,0.5-1.2,0.8-2,0.8c-0.8,0-1.5-0.3-2-0.8
		c-0.7-0.7-1-1.6-1-2.9s0.3-2.2,1-2.9c0.5-0.5,1.2-0.8,2-0.8C145.2,186.9,145.8,187.1,146.3,187.6z M142.7,190.5
		c0,1.7,0.5,2.6,1.6,2.6c1.1,0,1.6-0.9,1.6-2.6c0-0.5,0-0.9-0.1-1.3c-0.1-0.4-0.3-0.7-0.5-0.9c-0.2-0.3-0.6-0.4-1-0.4
		c-0.4,0-0.7,0.1-1,0.4c-0.2,0.3-0.4,0.6-0.5,0.9S142.7,190,142.7,190.5z"/>
	<path fill="#FFFFFF" d="M148.7,187.7c0.1-0.3,0.2-0.6,0.5-0.7c0.6,0.1,1,0.6,1.2,1.2c0.4-0.8,1-1.2,1.8-1.2c0.2,0,0.5,0,0.7,0.1
		c0,0.5-0.1,0.9-0.3,1.3c-0.1,0-0.2,0-0.6-0.1c-0.7,0-1.2,0.4-1.5,1.1v4.6c-0.2,0-0.4,0.1-0.7,0.1s-0.5,0-0.7-0.1v-4.8
		C149.2,188.5,149,188,148.7,187.7z"/>
	<path fill="#FFFFFF" d="M156.1,194.1c-0.7,0-1.3-0.3-1.7-1c-0.4-0.6-0.6-1.5-0.6-2.7s0.3-2,0.8-2.6s1.2-0.9,1.9-0.9
		c0.7,0,1.4,0.2,1.9,0.7c0.2-0.3,0.5-0.6,0.9-0.7c0.3,0.1,0.4,0.4,0.5,0.7c-0.3,0.2-0.4,0.7-0.4,1.4v4.2c0,1.4-0.2,2.4-0.7,2.9
		c-0.5,0.6-1.3,0.9-2.3,0.9c-0.8,0-1.6-0.2-2.4-0.5c0-0.4,0.1-0.8,0.4-1c0.6,0.3,1.3,0.4,1.9,0.4c0.7,0,1.1-0.2,1.4-0.5
		s0.4-0.9,0.4-1.5v-0.7C157.5,193.8,156.8,194.1,156.1,194.1z M158,192.1v-3.4c-0.5-0.4-1-0.7-1.4-0.7s-0.8,0.2-1.1,0.6
		s-0.4,1.1-0.4,1.9s0.1,1.4,0.4,1.8c0.2,0.4,0.6,0.6,0.9,0.6C157,192.9,157.6,192.6,158,192.1z"/>
	<path fill="#FFFFFF" d="M166.9,193.4c-0.1,0.3-0.3,0.6-0.5,0.7c-0.5-0.1-0.9-0.4-1.1-0.9c-0.7,0.7-1.4,1-2.1,1s-1.2-0.2-1.6-0.6
		c-0.4-0.4-0.5-0.9-0.5-1.4c0-0.8,0.2-1.3,0.7-1.7c0.5-0.4,1.1-0.6,1.9-0.6c0.5,0,0.9,0,1.4,0.1v-0.6c0-0.8-0.4-1.3-1.2-1.3
		c-0.6,0-1.3,0.2-2.2,0.5c-0.3-0.3-0.4-0.6-0.4-1c1-0.4,1.9-0.6,2.9-0.6c0.7,0,1.3,0.2,1.7,0.6c0.4,0.4,0.6,1,0.6,1.8v2.9
		C166.5,192.7,166.6,193.1,166.9,193.4z M163.4,193.1c0.6,0,1.2-0.3,1.7-0.9v-1.3c-0.4,0-0.8-0.1-1.3-0.1c-0.5,0-0.8,0.1-1.1,0.3
		c-0.2,0.2-0.4,0.5-0.4,0.9c0,0.4,0.1,0.6,0.3,0.8S163.1,193.1,163.4,193.1z"/>
	<path fill="#FFFFFF" d="M174.1,189.2v3.3c0,0.6,0.1,1,0.2,1.2c-0.2,0.2-0.5,0.3-0.8,0.3c-0.5,0-0.7-0.3-0.7-0.9v-3.6
		c0-0.5-0.1-0.9-0.2-1.1s-0.4-0.3-0.7-0.3c-0.3,0-0.7,0.1-1,0.3s-0.6,0.4-0.9,0.7v4.9c-0.2,0-0.4,0.1-0.7,0.1c-0.3,0-0.5,0-0.7-0.1
		v-6.9l0.1-0.1h0.5c0.5,0,0.7,0.3,0.8,0.9c0.7-0.6,1.5-1,2.3-1c0.6,0,1.1,0.2,1.4,0.6C174,188,174.1,188.5,174.1,189.2z"/>
	<path fill="#FFFFFF" d="M177.8,188.2v5.8c-0.2,0-0.4,0.1-0.7,0.1c-0.3,0-0.5,0-0.7-0.1v-5.2c0-0.3,0-0.4-0.1-0.5
		c-0.1-0.1-0.2-0.2-0.5-0.2h-0.2c0-0.1-0.1-0.3-0.1-0.5c0-0.2,0-0.3,0.1-0.5c0.3,0,0.6-0.1,0.8-0.1h0.2c0.3,0,0.6,0.1,0.8,0.3
		C177.7,187.5,177.8,187.8,177.8,188.2z M176,185.1c0-0.2,0-0.4,0.1-0.6c0.2-0.1,0.5-0.2,0.8-0.2s0.6,0.1,0.7,0.2
		c0.1,0.2,0.1,0.4,0.1,0.6c0,0.2,0,0.4-0.1,0.6c-0.2,0.1-0.4,0.2-0.7,0.2c-0.3,0-0.6-0.1-0.8-0.2C176.1,185.6,176,185.4,176,185.1z"
		/>
	<path fill="#FFFFFF" d="M179.7,192.7l2.4-3.2c0.4-0.5,0.8-0.9,1.1-1.4l0,0c-0.5,0.1-1.1,0.1-1.9,0.1h-1.5c0-0.1,0-0.3,0-0.5
		s0-0.4,0.1-0.6h4.7c0.1,0.4,0.2,0.7,0.2,0.8s-0.1,0.3-0.2,0.5l-2.4,3.2c-0.1,0.1-0.4,0.5-1.1,1.4l0,0.1c0.4,0,0.8-0.1,1.3-0.1h0.7
		c0.7,0,1.2-0.1,1.5-0.2c0.1,0.2,0.1,0.4,0.1,0.6c0,0.4-0.3,0.6-0.9,0.6h-4.2c-0.1-0.4-0.2-0.6-0.2-0.8S179.5,192.9,179.7,192.7z"/>
	<path fill="#FFFFFF" d="M191.6,193.4c-0.1,0.3-0.3,0.6-0.5,0.7c-0.5-0.1-0.9-0.4-1.1-0.9c-0.7,0.7-1.4,1-2.1,1s-1.2-0.2-1.6-0.6
		c-0.4-0.4-0.5-0.9-0.5-1.4c0-0.8,0.2-1.3,0.7-1.7c0.5-0.4,1.1-0.6,1.9-0.6c0.5,0,0.9,0,1.4,0.1v-0.6c0-0.8-0.4-1.3-1.2-1.3
		c-0.6,0-1.3,0.2-2.2,0.5c-0.3-0.3-0.4-0.6-0.4-1c1-0.4,1.9-0.6,2.9-0.6c0.7,0,1.3,0.2,1.7,0.6c0.4,0.4,0.6,1,0.6,1.8v2.9
		C191.2,192.7,191.3,193.1,191.6,193.4z M188.1,193.1c0.6,0,1.2-0.3,1.7-0.9v-1.3c-0.4,0-0.8-0.1-1.3-0.1c-0.5,0-0.8,0.1-1.1,0.3
		c-0.2,0.2-0.4,0.5-0.4,0.9c0,0.4,0.1,0.6,0.3,0.8S187.8,193.1,188.1,193.1z"/>
	<path fill="#FFFFFF" d="M195,195c0.1-0.2,0.2-0.5,0.3-0.9c-0.8-0.1-1.4-0.5-1.8-1.1c-0.4-0.7-0.6-1.5-0.6-2.4
		c0-1.2,0.3-2.1,0.8-2.8c0.6-0.6,1.2-0.9,2-0.9s1.4,0.2,1.9,0.7c0.4,0.4,0.7,0.9,0.7,1.4c0,0.5-0.2,0.8-0.7,0.8
		c-0.2,0-0.4,0-0.6-0.1c0,0,0-0.1,0-0.1c0-1.1-0.4-1.6-1.3-1.6c-0.5,0-0.8,0.2-1.1,0.7c-0.3,0.4-0.4,1.1-0.4,2
		c0,1.6,0.5,2.5,1.6,2.5c0.5,0,1.1-0.2,1.7-0.7c0.1,0.1,0.3,0.2,0.4,0.3c0.1,0.2,0.2,0.3,0.2,0.5c-0.6,0.6-1.3,0.9-2.1,1
		c-0.1,0.2-0.1,0.3-0.2,0.4c0.4,0,0.7,0.2,0.9,0.4c0.2,0.2,0.4,0.5,0.4,0.9s-0.2,0.7-0.5,0.9c-0.3,0.3-0.7,0.4-1.1,0.4
		s-0.8-0.1-1.1-0.3c0-0.3,0.1-0.5,0.3-0.7c0.2,0.1,0.4,0.2,0.7,0.2s0.4-0.1,0.5-0.2s0.2-0.2,0.2-0.4c0-0.2-0.1-0.3-0.2-0.4
		s-0.2-0.2-0.4-0.2s-0.3,0-0.4,0.1C195.1,195.2,195,195.1,195,195z"/>
	<path fill="#FFFFFF" d="M205.3,193.4c-0.1,0.3-0.3,0.6-0.5,0.7c-0.5-0.1-0.9-0.4-1.1-0.9c-0.7,0.7-1.4,1-2.1,1s-1.2-0.2-1.6-0.6
		c-0.4-0.4-0.5-0.9-0.5-1.4c0-0.8,0.2-1.3,0.7-1.7c0.5-0.4,1.1-0.6,1.9-0.6c0.5,0,0.9,0,1.4,0.1v-0.6c0-0.8-0.4-1.3-1.2-1.3
		c-0.6,0-1.3,0.2-2.2,0.5c-0.3-0.3-0.4-0.6-0.4-1c1-0.4,1.9-0.6,2.9-0.6c0.7,0,1.3,0.2,1.7,0.6c0.4,0.4,0.6,1,0.6,1.8v2.9
		C204.9,192.7,205,193.1,205.3,193.4z M202.4,186l-0.8-0.4c-0.2-0.1-0.4-0.1-0.5-0.1s-0.3,0.1-0.5,0.3l-0.2,0.2
		c-0.1,0-0.3,0-0.4-0.1c-0.1-0.1-0.2-0.2-0.3-0.3l0.1-0.3c0.1-0.3,0.3-0.6,0.6-0.7c0.2-0.2,0.5-0.3,0.8-0.3c0.3,0,0.5,0.1,0.8,0.2
		l0.8,0.4c0.1,0.1,0.3,0.1,0.5,0.1s0.3-0.1,0.5-0.4l0.2-0.2c0.1,0,0.3,0.1,0.4,0.1c0.1,0.1,0.2,0.2,0.3,0.3l-0.1,0.3
		c-0.1,0.3-0.3,0.6-0.6,0.7c-0.2,0.2-0.5,0.3-0.7,0.3S202.7,186.1,202.4,186z M201.8,193.1c0.6,0,1.2-0.3,1.7-0.9v-1.3
		c-0.4,0-0.8-0.1-1.3-0.1c-0.5,0-0.8,0.1-1.1,0.3c-0.2,0.2-0.4,0.5-0.4,0.9c0,0.4,0.1,0.6,0.3,0.8S201.5,193.1,201.8,193.1z"/>
	<path fill="#FFFFFF" d="M211.6,187.6c0.7,0.7,1,1.6,1,2.9s-0.3,2.2-1,2.9c-0.5,0.5-1.2,0.8-2,0.8c-0.8,0-1.5-0.3-2-0.8
		c-0.7-0.7-1-1.6-1-2.9s0.3-2.2,1-2.9c0.5-0.5,1.2-0.8,2-0.8C210.4,186.9,211.1,187.1,211.6,187.6z M208,190.5
		c0,1.7,0.5,2.6,1.6,2.6c1.1,0,1.6-0.9,1.6-2.6c0-0.5,0-0.9-0.1-1.3c-0.1-0.4-0.3-0.7-0.5-0.9c-0.2-0.3-0.6-0.4-1-0.4
		c-0.4,0-0.7,0.1-1,0.4c-0.2,0.3-0.4,0.6-0.5,0.9S208,190,208,190.5z"/>
	<path fill="#FFFFFF" d="M214.1,193.2c0-0.3,0-0.5,0.1-0.7c0.2-0.1,0.5-0.2,0.8-0.2c0.3,0,0.6,0.1,0.8,0.2c0.1,0.2,0.1,0.4,0.1,0.7
		c0,0.3,0,0.5-0.1,0.7c-0.2,0.1-0.4,0.2-0.8,0.2s-0.6-0.1-0.8-0.2C214.1,193.7,214.1,193.5,214.1,193.2z"/>
</g>
<g>
	<radialGradient id="SVGID_1_" cx="8.7374" cy="100.3859" r="9.2077" gradientUnits="userSpaceOnUse">
		<stop  offset="0" style="stop-color:#008A93"/>
		<stop  offset="0.2693" style="stop-color:#008691"/>
		<stop  offset="0.5233" style="stop-color:#007B8D"/>
		<stop  offset="0.7704" style="stop-color:#006885"/>
		<stop  offset="1" style="stop-color:#004F7A"/>
	</radialGradient>
	<path fill="url(#SVGID_1_)" d="M17.5,101.3c0,4.8-3.9,8.7-8.7,8.7S0,106.1,0,101.3c0-4.8,3.9-10.6,8.7-10.6S17.5,96.5,17.5,101.3z"
		/>
	<path fill="#043A63" d="M2,94.9c0,0,2.4,3.6,6.7,3.2s6-3.1,6.2-3.9c0,0-1.6-0.8-2.6-0.9C11.3,93.3,4.2,91.2,2,94.9z"/>
	<radialGradient id="SVGID_2_" cx="8.7374" cy="90.3053" r="7.1662" gradientUnits="userSpaceOnUse">
		<stop  offset="0" style="stop-color:#008A93"/>
		<stop  offset="0.2693" style="stop-color:#008691"/>
		<stop  offset="0.5233" style="stop-color:#007B8D"/>
		<stop  offset="0.7704" style="stop-color:#006885"/>
		<stop  offset="1" style="stop-color:#004F7A"/>
	</radialGradient>
	<circle fill="url(#SVGID_2_)" cx="8.7" cy="90.3" r="7.2"/>
	<polygon fill="#CAD92A" points="7.8,98.5 7.1,99.5 8.3,101 7.1,104.7 8.7,106.9 10.1,104.7 9.1,101 10.1,99.4 9.4,98.5 	"/>
</g>
</svg>