<!-- Generator: Adobe Illustrator 17.1.0, SVG Export Plug-In  -->
<svg version="1.1"
	 xmlns="http://www.w3.org/2000/svg" xmlns:xlink="http://www.w3.org/1999/xlink" xmlns:a="http://ns.adobe.com/AdobeSVGViewerExtensions/3.0/"
	 x="0px" y="0px" width="125px" height="33.8px" viewBox="0 0 125 33.8" enable-background="new 0 0 125 33.8" xml:space="preserve"
	>
<defs>
</defs>
<g>
	<path fill="#A9D42D" d="M6.5,4.3c0,0,0-0.1,0-0.1c0-0.7-0.2-1.3-0.5-1.7C5.7,1.9,5.2,1.7,4.4,1.7C2.9,1.7,2.1,3,2.1,5.8
		C2.1,7,2.4,8,2.8,8.6c0.4,0.7,1.1,1,1.9,1s1.7-0.4,2.8-1.2C7.6,8.6,7.8,8.8,8,9c0.2,0.3,0.3,0.5,0.4,0.7c-0.5,0.5-1.1,0.9-1.8,1.2
		c-0.7,0.3-1.5,0.5-2.3,0.5c-0.8,0-1.5-0.2-2-0.5s-1-0.8-1.3-1.3C0.3,8.6,0,7.3,0,5.8c0-1.9,0.4-3.3,1.3-4.3C2.1,0.5,3.2,0,4.4,0
		s2.2,0.3,3,0.9c0.7,0.6,1.1,1.4,1.1,2.3c0,0.8-0.4,1.1-1.2,1.1C7,4.4,6.8,4.3,6.5,4.3z"/>
	<path fill="#A9D42D" d="M10,8.6V5.1c0-0.6-0.1-1.1-0.3-1.5c0.3-0.3,0.7-0.4,1.1-0.4s0.7,0.1,0.9,0.3C11.9,3.6,12,4,12,4.4v3.8
		c0,0.5,0.1,0.8,0.2,1c0.1,0.2,0.4,0.3,0.7,0.3c0.6,0,1.2-0.3,1.7-0.8V3.2c0.3-0.1,0.6-0.1,1-0.1c0.4,0,0.7,0,1,0.1v5.7
		c0,0.7,0.1,1.1,0.4,1.4c-0.1,0.4-0.3,0.8-0.7,1c-0.8-0.1-1.3-0.5-1.6-1.1c-0.8,0.8-1.7,1.2-2.6,1.2c-0.7,0-1.3-0.2-1.6-0.7
		S10,9.4,10,8.6z"/>
	<path fill="#A9D42D" d="M18.4,4.2c0-0.2,0.1-0.4,0.3-0.6c0.1-0.2,0.3-0.4,0.4-0.5c0.8,0.1,1.4,0.6,1.7,1.4c0.4-0.9,1.1-1.4,2.1-1.4
		c0.2,0,0.6,0,0.9,0.1c0,0.7-0.2,1.3-0.5,1.9c-0.2,0-0.4-0.1-0.7-0.1c-0.7,0-1.2,0.3-1.6,1v5.1c-0.3,0.1-0.6,0.1-1,0.1
		c-0.4,0-0.7,0-1-0.1V5.8C18.9,5,18.7,4.5,18.4,4.2z"/>
	<path fill="#A9D42D" d="M27.4,4.8v6.4c-0.3,0.1-0.6,0.1-1,0.1s-0.7,0-1-0.1V5.5c0-0.6-0.2-0.9-0.7-0.9h-0.2
		c-0.1-0.2-0.1-0.4-0.1-0.7s0-0.5,0.1-0.7c0.4,0,0.8-0.1,1.2-0.1H26c0.5,0,0.8,0.1,1.1,0.4C27.3,3.9,27.4,4.3,27.4,4.8z M25.1,1.8
		C25,1.6,24.9,1.3,24.9,1c0-0.3,0.1-0.5,0.2-0.8c0.3-0.2,0.6-0.2,1-0.2c0.4,0,0.7,0.1,1,0.2c0.1,0.2,0.2,0.5,0.2,0.8
		c0,0.3-0.1,0.5-0.2,0.8C26.9,2,26.5,2,26.1,2S25.3,2,25.1,1.8z"/>
	<path fill="#A9D42D" d="M36.3,7.2c0,1.4-0.4,2.5-1.1,3.3c-0.6,0.6-1.4,0.9-2.4,0.9s-1.8-0.3-2.4-0.9c-0.8-0.8-1.1-1.8-1.1-3.3
		s0.4-2.5,1.1-3.3C30.9,3.3,31.7,3,32.7,3s1.8,0.3,2.4,0.9C35.9,4.7,36.3,5.8,36.3,7.2z M32.7,4.5c-1,0-1.5,0.9-1.5,2.7
		c0,1.8,0.5,2.7,1.5,2.7s1.5-0.9,1.5-2.7C34.2,5.4,33.7,4.5,32.7,4.5z"/>
	<path fill="#A9D42D" d="M37.3,10.6c0-0.2,0.1-0.5,0.2-0.7c0.1-0.3,0.3-0.5,0.4-0.6c0.9,0.5,1.6,0.7,2.2,0.7c0.4,0,0.7-0.1,0.9-0.2
		c0.2-0.2,0.3-0.3,0.3-0.6c0-0.4-0.3-0.7-0.9-1l-0.9-0.3c-1.3-0.5-2-1.3-2-2.3c0-0.7,0.3-1.3,0.8-1.8C38.9,3.3,39.6,3,40.6,3
		s1.8,0.2,2.7,0.6c0,0.2,0,0.5-0.2,0.8s-0.3,0.5-0.4,0.6c-0.8-0.4-1.5-0.5-2.2-0.5c-0.3,0-0.5,0.1-0.7,0.2S39.5,5,39.5,5.3
		c0,0.3,0.3,0.6,0.8,0.8l1,0.4c1.4,0.5,2.1,1.3,2.1,2.5c0,0.8-0.3,1.4-0.9,1.8c-0.6,0.4-1.4,0.7-2.4,0.7
		C39.2,11.4,38.2,11.1,37.3,10.6z"/>
	<path fill="#A9D42D" d="M51.6,7.2c0,1.4-0.4,2.5-1.1,3.3c-0.6,0.6-1.4,0.9-2.4,0.9s-1.8-0.3-2.4-0.9c-0.8-0.8-1.1-1.8-1.1-3.3
		s0.4-2.5,1.1-3.3C46.3,3.3,47.1,3,48.1,3s1.8,0.3,2.4,0.9C51.3,4.7,51.6,5.8,51.6,7.2z M48.1,4.5c-1,0-1.5,0.9-1.5,2.7
		c0,1.8,0.5,2.7,1.5,2.7s1.5-0.9,1.5-2.7C49.6,5.4,49.1,4.5,48.1,4.5z"/>
	<path fill="#A9D42D" d="M60.9,3c0.9,0,1.5,0.4,2,1.1c0.5,0.7,0.7,1.8,0.7,3c0,1.3-0.3,2.3-0.9,3c-0.6,0.7-1.3,1.1-2.2,1.1
		c-0.6,0-1.1-0.1-1.7-0.4v2.5c0,0.4-0.1,0.8-0.2,1c-0.2,0.2-0.4,0.3-0.8,0.3H57l-0.1-0.1V3.3L57,3.2h0.6c0.6,0,0.9,0.3,1.1,0.8
		C59.3,3.3,60.1,3,60.9,3z M60.4,4.7c-0.6,0-1.1,0.3-1.5,0.9v3.8c0.5,0.3,1,0.5,1.4,0.5c0.4,0,0.8-0.2,1-0.7c0.3-0.5,0.4-1.1,0.4-2
		s-0.1-1.5-0.4-1.9C61.1,4.9,60.8,4.7,60.4,4.7z"/>
	<path fill="#A9D42D" d="M71.8,10.3c-0.1,0.2-0.1,0.4-0.3,0.6c-0.1,0.2-0.3,0.3-0.4,0.5c-0.7-0.1-1.1-0.4-1.5-0.9
		c-0.7,0.7-1.5,1-2.3,1s-1.4-0.2-1.9-0.7c-0.4-0.5-0.6-1-0.6-1.7c0-0.9,0.3-1.6,0.9-2c0.6-0.5,1.3-0.7,2.2-0.7c0.5,0,1,0,1.4,0.1
		V5.9c0-0.8-0.4-1.3-1.2-1.3c-0.6,0-1.4,0.2-2.4,0.6c-0.3-0.3-0.5-0.8-0.5-1.4c1.2-0.5,2.3-0.7,3.5-0.7c0.8,0,1.5,0.2,2,0.7
		c0.5,0.4,0.8,1.1,0.8,2V9C71.4,9.6,71.5,10,71.8,10.3z M67.8,9.9c0.6,0,1.1-0.3,1.6-0.8V7.7c-0.4,0-0.8-0.1-1.2-0.1s-0.8,0.1-1,0.3
		c-0.2,0.2-0.3,0.5-0.3,0.8s0.1,0.6,0.3,0.8C67.3,9.8,67.5,9.9,67.8,9.9z"/>
	<path fill="#A9D42D" d="M73.1,4.2c0-0.2,0.1-0.4,0.3-0.6c0.1-0.2,0.3-0.4,0.4-0.5c0.8,0.1,1.4,0.6,1.7,1.4c0.4-0.9,1.1-1.4,2.1-1.4
		c0.2,0,0.6,0,0.9,0.1c0,0.7-0.2,1.3-0.5,1.9c-0.2,0-0.4-0.1-0.7-0.1c-0.7,0-1.2,0.3-1.6,1v5.1c-0.3,0.1-0.6,0.1-1,0.1
		c-0.4,0-0.7,0-1-0.1V5.8C73.7,5,73.5,4.5,73.1,4.2z"/>
	<path fill="#A9D42D" d="M85.9,10.3c-0.1,0.2-0.1,0.4-0.3,0.6c-0.1,0.2-0.3,0.3-0.4,0.5c-0.7-0.1-1.1-0.4-1.5-0.9
		c-0.7,0.7-1.5,1-2.3,1s-1.4-0.2-1.9-0.7C79.2,10.2,79,9.7,79,9c0-0.9,0.3-1.6,0.9-2c0.6-0.5,1.3-0.7,2.2-0.7c0.5,0,1,0,1.4,0.1V5.9
		c0-0.8-0.4-1.3-1.2-1.3c-0.6,0-1.4,0.2-2.4,0.6c-0.3-0.3-0.5-0.8-0.5-1.4c1.2-0.5,2.3-0.7,3.5-0.7c0.8,0,1.5,0.2,2,0.7
		c0.5,0.4,0.8,1.1,0.8,2V9C85.5,9.6,85.6,10,85.9,10.3z M81.9,9.9c0.6,0,1.1-0.3,1.6-0.8V7.7c-0.4,0-0.8-0.1-1.2-0.1s-0.8,0.1-1,0.3
		c-0.2,0.2-0.3,0.5-0.3,0.8s0.1,0.6,0.3,0.8C81.4,9.8,81.6,9.9,81.9,9.9z"/>
	<path fill="#A9D42D" d="M97.8,7.2c0,1.4-0.4,2.5-1.1,3.3c-0.6,0.6-1.4,0.9-2.4,0.9s-1.8-0.3-2.4-0.9c-0.8-0.8-1.1-1.8-1.1-3.3
		s0.4-2.5,1.1-3.3C92.4,3.3,93.2,3,94.2,3s1.8,0.3,2.4,0.9C97.4,4.7,97.8,5.8,97.8,7.2z M94.2,4.5c-1,0-1.5,0.9-1.5,2.7
		c0,1.8,0.5,2.7,1.5,2.7s1.5-0.9,1.5-2.7C95.7,5.4,95.2,4.5,94.2,4.5z"/>
	<path fill="#A9D42D" d="M102.3,10.6c0-0.2,0.1-0.5,0.2-0.7c0.1-0.3,0.3-0.5,0.4-0.6c0.9,0.5,1.6,0.7,2.2,0.7c0.4,0,0.7-0.1,0.9-0.2
		c0.2-0.2,0.3-0.3,0.3-0.6c0-0.4-0.3-0.7-0.9-1l-0.9-0.3c-1.3-0.5-2-1.3-2-2.3c0-0.7,0.3-1.3,0.8-1.8c0.5-0.5,1.3-0.7,2.2-0.7
		s1.8,0.2,2.7,0.6c0,0.2,0,0.5-0.2,0.8s-0.3,0.5-0.4,0.6c-0.8-0.4-1.5-0.5-2.2-0.5c-0.3,0-0.5,0.1-0.7,0.2s-0.3,0.3-0.3,0.6
		c0,0.3,0.3,0.6,0.8,0.8l1,0.4c1.4,0.5,2.1,1.3,2.1,2.5c0,0.8-0.3,1.4-0.9,1.8c-0.6,0.4-1.4,0.7-2.4,0.7
		C104.2,11.4,103.2,11.1,102.3,10.6z"/>
	<path fill="#A9D42D" d="M116.1,7.9h-4.5c0,0.6,0.2,1.1,0.4,1.5c0.3,0.3,0.7,0.5,1.3,0.5c0.6,0,1.3-0.2,2.1-0.6
		c0.3,0.3,0.5,0.7,0.6,1.2c-0.9,0.6-1.9,0.9-3.1,0.9s-2.1-0.4-2.6-1.2c-0.5-0.8-0.8-1.8-0.8-3c0-1.2,0.3-2.2,0.9-3
		c0.6-0.8,1.4-1.2,2.5-1.2s1.9,0.3,2.5,1c0.6,0.6,0.9,1.5,0.9,2.4C116.2,6.9,116.2,7.4,116.1,7.9z M113,4.5c-0.9,0-1.3,0.7-1.4,2
		h2.8V6.3c0-0.5-0.1-1-0.3-1.3C113.8,4.6,113.5,4.5,113,4.5z"/>
	<path fill="#A9D42D" d="M118,8.6V5.1c0-0.6-0.1-1.1-0.3-1.5c0.3-0.3,0.7-0.4,1.1-0.4s0.7,0.1,0.9,0.3c0.2,0.2,0.2,0.5,0.2,0.9v3.8
		c0,0.5,0.1,0.8,0.2,1c0.1,0.2,0.4,0.3,0.7,0.3c0.6,0,1.2-0.3,1.7-0.8V3.2c0.3-0.1,0.6-0.1,1-0.1c0.4,0,0.7,0,1,0.1v5.7
		c0,0.7,0.1,1.1,0.4,1.4c-0.1,0.4-0.3,0.8-0.7,1c-0.8-0.1-1.3-0.5-1.6-1.1c-0.8,0.8-1.7,1.2-2.6,1.2c-0.7,0-1.3-0.2-1.6-0.7
		S118,9.4,118,8.6z"/>
	<path fill="#A9D42D" d="M6.8,22.2c0.9,0,1.5,0.4,2,1.1c0.5,0.7,0.7,1.8,0.7,3s-0.3,2.3-0.9,3c-0.6,0.7-1.3,1.1-2.2,1.1
		c-0.6,0-1.1-0.1-1.7-0.4v2.5c0,0.4-0.1,0.8-0.2,1c-0.2,0.2-0.4,0.3-0.8,0.3H2.9l-0.1-0.1V22.5l0.1-0.1h0.6c0.6,0,0.9,0.3,1.1,0.8
		C5.2,22.5,5.9,22.2,6.8,22.2z M6.2,23.9c-0.6,0-1.1,0.3-1.5,0.9v3.8c0.5,0.3,1,0.5,1.4,0.5c0.4,0,0.8-0.2,1-0.7
		c0.3-0.5,0.4-1.1,0.4-2s-0.1-1.5-0.4-1.9C6.9,24.1,6.6,23.9,6.2,23.9z"/>
	<path fill="#A9D42D" d="M10.8,23.4c0-0.2,0.1-0.4,0.3-0.6c0.1-0.2,0.3-0.4,0.4-0.5c0.8,0.1,1.4,0.6,1.7,1.4
		c0.4-0.9,1.1-1.4,2.1-1.4c0.2,0,0.6,0,0.9,0.1c0,0.7-0.2,1.3-0.5,1.9c-0.2,0-0.4-0.1-0.7-0.1c-0.7,0-1.2,0.3-1.6,1v5.1
		c-0.3,0.1-0.6,0.1-1,0.1c-0.4,0-0.7,0-1-0.1V25C11.4,24.2,11.2,23.7,10.8,23.4z"/>
	<path fill="#A9D42D" d="M23.9,26.4c0,1.4-0.4,2.5-1.1,3.3c-0.6,0.6-1.4,0.9-2.4,0.9s-1.8-0.3-2.4-0.9c-0.8-0.8-1.1-1.8-1.1-3.3
		s0.4-2.5,1.1-3.3c0.6-0.6,1.4-0.9,2.4-0.9s1.8,0.3,2.4,0.9C23.6,23.9,23.9,25,23.9,26.4z M20.4,23.7c-1,0-1.5,0.9-1.5,2.7
		c0,1.8,0.5,2.7,1.5,2.7s1.5-0.9,1.5-2.7C21.9,24.6,21.4,23.7,20.4,23.7z M19.1,21l2.4-2.6c0.3,0.1,0.5,0.3,0.8,0.5
		c0.3,0.2,0.4,0.5,0.5,0.7l-2.8,2.2C19.5,21.6,19.2,21.4,19.1,21z"/>
	<path fill="#A9D42D" d="M29.8,22.4c0.2-0.1,0.5-0.1,0.8-0.1c0.3,0,0.6,0,1,0.1l0,0.1l-2.3,3.5l2.6,3.9c-0.4,0.3-0.9,0.4-1.3,0.4
		s-0.8-0.2-1-0.6l-1.4-2.1l-1.6,2.6c-0.2,0.1-0.5,0.1-0.9,0.1c-0.4,0-0.7-0.1-1-0.2l-0.1-0.1l2.5-3.9l-2.3-3.6
		c0.4-0.3,0.9-0.4,1.3-0.4c0.4,0,0.8,0.2,1,0.6l1.2,1.8L29.8,22.4z"/>
	<path fill="#A9D42D" d="M35.5,24v6.4c-0.3,0.1-0.6,0.1-1,0.1s-0.7,0-1-0.1v-5.6c0-0.6-0.2-0.9-0.7-0.9h-0.2
		c-0.1-0.2-0.1-0.4-0.1-0.7s0-0.5,0.1-0.7c0.4,0,0.8-0.1,1.2-0.1h0.3c0.5,0,0.8,0.1,1.1,0.4C35.4,23.1,35.5,23.5,35.5,24z M33.2,21
		c-0.1-0.2-0.2-0.5-0.2-0.8s0.1-0.5,0.2-0.8c0.3-0.1,0.6-0.2,1-0.2c0.4,0,0.7,0.1,1,0.2c0.1,0.2,0.2,0.5,0.2,0.8s-0.1,0.5-0.2,0.8
		c-0.2,0.2-0.6,0.2-1,0.2S33.4,21.2,33.2,21z"/>
	<path fill="#A9D42D" d="M42.1,25.5c0-0.9-0.3-1.4-0.9-1.4c-0.5,0-1,0.3-1.5,0.8v5.5c-0.3,0.1-0.6,0.1-1,0.1c-0.4,0-0.7,0-1-0.1
		v-7.9l0.1-0.1h0.7c0.6,0,1,0.3,1.1,1c0.7-0.7,1.5-1.1,2.3-1.1c0.8,0,1.4,0.4,1.8,1.2c0.8-0.8,1.7-1.2,2.5-1.2
		c0.7,0,1.2,0.2,1.5,0.7c0.4,0.5,0.5,1.1,0.5,1.8v3.7c0,0.7,0.1,1.2,0.3,1.5c-0.3,0.3-0.7,0.4-1.2,0.4c-0.4,0-0.7-0.1-0.9-0.3
		c-0.2-0.2-0.2-0.5-0.2-0.9v-3.8c0-0.9-0.3-1.3-0.9-1.3c-0.4,0-0.9,0.3-1.5,0.8v5.5c-0.3,0.1-0.6,0.1-1,0.1c-0.4,0-0.7,0-1-0.1V25.5
		z"/>
	<path fill="#A9D42D" d="M57.2,26.4c0,1.4-0.4,2.5-1.1,3.3c-0.6,0.6-1.4,0.9-2.4,0.9s-1.8-0.3-2.4-0.9c-0.8-0.8-1.1-1.8-1.1-3.3
		s0.4-2.5,1.1-3.3c0.6-0.6,1.4-0.9,2.4-0.9s1.8,0.3,2.4,0.9C56.8,23.9,57.2,25,57.2,26.4z M53.7,23.7c-1,0-1.5,0.9-1.5,2.7
		c0,1.8,0.5,2.7,1.5,2.7s1.5-0.9,1.5-2.7C55.2,24.6,54.7,23.7,53.7,23.7z"/>
	<path fill="#A9D42D" d="M64.8,30.6c-0.9,0-1.6-0.4-2.1-1.1c-0.5-0.7-0.7-1.8-0.7-3c0-1.3,0.3-2.3,0.9-3s1.4-1.1,2.2-1.1
		c0.5,0,1.1,0.1,1.7,0.4v-4l0.1-0.1h0.8c0.4,0,0.7,0.1,0.8,0.3c0.2,0.2,0.2,0.5,0.2,1v8.3c0,0.7,0.1,1.1,0.4,1.4
		c-0.1,0.2-0.1,0.4-0.3,0.6s-0.3,0.3-0.4,0.5c-0.7-0.1-1.1-0.4-1.4-1C66.4,30.3,65.7,30.6,64.8,30.6z M65.3,29
		c0.6,0,1.1-0.3,1.5-0.9v-3.8c-0.5-0.3-1-0.5-1.4-0.5s-0.7,0.2-1,0.7c-0.3,0.5-0.4,1.1-0.4,2c0,0.8,0.1,1.5,0.4,1.9
		C64.6,28.8,64.9,29,65.3,29z"/>
	<path fill="#A9D42D" d="M77,27.1h-4.5c0,0.6,0.2,1.1,0.4,1.5c0.3,0.3,0.7,0.5,1.3,0.5c0.6,0,1.3-0.2,2.1-0.6
		c0.3,0.3,0.5,0.7,0.6,1.2c-0.9,0.6-1.9,0.9-3.1,0.9s-2.1-0.4-2.6-1.2c-0.5-0.8-0.8-1.8-0.8-3c0-1.2,0.3-2.2,0.9-3s1.4-1.2,2.5-1.2
		s1.9,0.3,2.5,1c0.6,0.6,0.9,1.5,0.9,2.4C77.2,26.1,77.1,26.6,77,27.1z M73.9,23.7c-0.9,0-1.3,0.7-1.4,2h2.8v-0.2
		c0-0.5-0.1-1-0.3-1.3S74.4,23.7,73.9,23.7z"/>
	<path fill="#A9D42D" d="M78.3,29.8c0-0.2,0.1-0.5,0.2-0.7c0.1-0.3,0.3-0.5,0.4-0.6c0.9,0.5,1.6,0.7,2.2,0.7c0.4,0,0.7-0.1,0.9-0.2
		c0.2-0.1,0.3-0.3,0.3-0.6c0-0.4-0.3-0.7-0.9-1L80.6,27c-1.3-0.5-2-1.3-2-2.3c0-0.7,0.3-1.3,0.8-1.8s1.3-0.7,2.2-0.7
		s1.8,0.2,2.7,0.6c0,0.2,0,0.5-0.2,0.8s-0.3,0.5-0.4,0.6c-0.8-0.4-1.5-0.5-2.2-0.5c-0.3,0-0.5,0.1-0.7,0.2s-0.3,0.3-0.3,0.6
		c0,0.3,0.3,0.6,0.8,0.8l1,0.4c1.4,0.5,2.1,1.3,2.1,2.5c0,0.8-0.3,1.4-0.9,1.8c-0.6,0.4-1.4,0.7-2.4,0.7
		C80.2,30.6,79.2,30.3,78.3,29.8z"/>
	<path fill="#A9D42D" d="M92.4,29.5c-0.1,0.2-0.1,0.4-0.3,0.6c-0.1,0.2-0.3,0.3-0.4,0.5c-0.7-0.1-1.1-0.4-1.5-0.9
		c-0.7,0.7-1.5,1-2.3,1s-1.4-0.2-1.9-0.7s-0.6-1-0.6-1.7c0-0.9,0.3-1.6,0.9-2c0.6-0.5,1.3-0.7,2.2-0.7c0.5,0,1,0,1.4,0.1v-0.5
		c0-0.8-0.4-1.3-1.2-1.3c-0.6,0-1.4,0.2-2.4,0.6c-0.3-0.3-0.5-0.8-0.5-1.4c1.2-0.5,2.3-0.7,3.5-0.7c0.8,0,1.5,0.2,2,0.7
		c0.5,0.4,0.8,1.1,0.8,2v3.3C92,28.8,92.1,29.2,92.4,29.5z M88.4,29.1c0.6,0,1.1-0.3,1.6-0.8v-1.4c-0.4,0-0.8-0.1-1.2-0.1
		s-0.8,0.1-1,0.3c-0.2,0.2-0.3,0.5-0.3,0.8c0,0.3,0.1,0.6,0.3,0.8C87.9,29,88.1,29.1,88.4,29.1z"/>
	<path fill="#A9D42D" d="M94.6,30.4v-6.5l-1.4,0c-0.1-0.2-0.1-0.5-0.1-0.7s0-0.5,0.1-0.7l1.3,0c-0.1-0.6-0.1-1-0.1-1.3
		c0-0.8,0.2-1.4,0.7-1.9c0.5-0.5,1.1-0.7,1.9-0.7s1.5,0.1,2.2,0.4c0,0.6-0.1,1-0.4,1.3c-0.5-0.1-0.9-0.2-1.3-0.2
		c-0.4,0-0.7,0.1-0.9,0.3c-0.2,0.2-0.3,0.5-0.3,0.9c0,0.4,0,0.8,0.1,1.2l2.2,0c0.1,0.2,0.1,0.4,0.1,0.7c0,0.3,0,0.5-0.1,0.7l-2,0
		v6.5c-0.3,0.1-0.7,0.1-1,0.1C95.2,30.5,94.9,30.4,94.6,30.4z"/>
	<path fill="#A9D42D" d="M102.7,24v6.4c-0.3,0.1-0.6,0.1-1,0.1s-0.7,0-1-0.1v-5.6c0-0.6-0.2-0.9-0.7-0.9h-0.2
		c-0.1-0.2-0.1-0.4-0.1-0.7s0-0.5,0.1-0.7c0.4,0,0.8-0.1,1.2-0.1h0.3c0.5,0,0.8,0.1,1.1,0.4C102.6,23.1,102.7,23.5,102.7,24z
		 M100.4,21c-0.1-0.2-0.2-0.5-0.2-0.8s0.1-0.5,0.2-0.8c0.3-0.1,0.6-0.2,1-0.2c0.4,0,0.7,0.1,1,0.2c0.1,0.2,0.2,0.5,0.2,0.8
		s-0.1,0.5-0.2,0.8c-0.2,0.2-0.6,0.2-1,0.2S100.6,21.2,100.4,21z"/>
	<path fill="#A9D42D" d="M111.5,26.4c0,1.4-0.4,2.5-1.1,3.3c-0.6,0.6-1.4,0.9-2.4,0.9s-1.8-0.3-2.4-0.9c-0.8-0.8-1.1-1.8-1.1-3.3
		s0.4-2.5,1.1-3.3c0.6-0.6,1.4-0.9,2.4-0.9s1.8,0.3,2.4,0.9C111.1,23.9,111.5,25,111.5,26.4z M108,23.7c-1,0-1.5,0.9-1.5,2.7
		c0,1.8,0.5,2.7,1.5,2.7s1.5-0.9,1.5-2.7C109.5,24.6,109,23.7,108,23.7z"/>
	<path fill="#A9D42D" d="M112.3,20.1c1-0.6,2-0.9,3.1-0.9s1.8,0.3,2.4,0.8s0.8,1.2,0.8,2c0,1.3-0.7,2.4-2.1,3.1l-1,0.5l-0.1,1.5
		c-0.2,0.1-0.5,0.1-0.8,0.1c-0.3,0-0.5,0-0.8-0.1l-0.1-2.4l0.2-0.2l0.8-0.4c1.2-0.6,1.8-1.2,1.8-2c0-0.4-0.1-0.7-0.4-0.9
		c-0.3-0.2-0.6-0.3-1.2-0.3s-1.2,0.2-1.9,0.6c-0.2-0.2-0.3-0.4-0.5-0.6C112.3,20.6,112.3,20.4,112.3,20.1z M113.5,28.7
		c0.3-0.2,0.6-0.2,1-0.2c0.4,0,0.8,0.1,1,0.2c0.1,0.2,0.2,0.5,0.2,0.8c0,0.4-0.1,0.6-0.2,0.8c-0.3,0.2-0.6,0.2-1,0.2s-0.7-0.1-1-0.2
		c-0.1-0.2-0.1-0.5-0.1-0.8S113.4,28.9,113.5,28.7z"/>
	<path fill="#A9D42D" d="M120.9,28.4c0.4,0,0.8,0.1,1,0.2c0.1,0.2,0.2,0.4,0.2,0.8s-0.1,0.7-0.2,0.8c-0.2,0.1-0.6,0.2-1,0.2
		c-0.4,0-0.8-0.1-1-0.2c-0.1-0.2-0.2-0.5-0.2-0.8s0.1-0.6,0.2-0.8C120.2,28.5,120.5,28.4,120.9,28.4z M120.2,27.2l-0.2-7.3
		c0.5-0.4,1.2-0.6,2.1-0.6l0.1,0.1l-0.4,7.7c-0.2,0.1-0.5,0.1-0.8,0.1C120.6,27.3,120.4,27.2,120.2,27.2z"/>
</g>
</svg>