<!-- Generator: Adobe Illustrator 17.1.0, SVG Export Plug-In  -->
<svg version="1.1"
	 xmlns="http://www.w3.org/2000/svg" xmlns:xlink="http://www.w3.org/1999/xlink" xmlns:a="http://ns.adobe.com/AdobeSVGViewerExtensions/3.0/"
	 x="0px" y="0px" width="120.2px" height="44.5px" viewBox="0 0 120.2 44.5" enable-background="new 0 0 120.2 44.5"
	 xml:space="preserve">
<defs>
</defs>
<g>
	<path fill="#FFFFFF" d="M61.8,4.9h2.2c0.4,0,0.6,0.1,0.8,0.2c0.2,0.2,0.2,0.4,0.2,0.7v3.6c-1,0.4-2.2,0.6-3.4,0.6
		c-0.7,0-1.3-0.1-1.8-0.4c-0.5-0.3-0.9-0.6-1.2-1.1c-0.6-0.9-0.9-2-0.9-3.4c0-0.9,0.1-1.6,0.4-2.3c0.2-0.7,0.5-1.2,1-1.6
		c0.8-0.8,1.7-1.2,2.8-1.2c1.3,0,2.4,0.3,3.2,1c-0.1,0.4-0.3,0.8-0.7,1c-0.8-0.6-1.6-0.9-2.6-0.9c-0.8,0-1.4,0.3-1.9,0.9
		C59.3,2.9,59,3.8,59,5.2c0,2.5,0.9,3.7,2.7,3.7c0.7,0,1.3-0.1,1.8-0.3V7c0-0.4,0-0.7,0-0.9h-1.3c-0.4,0-0.7-0.2-0.7-0.6
		C61.7,5.3,61.7,5.1,61.8,4.9z"/>
	<path fill="#FFFFFF" d="M71.9,6.8h-4.2c0,0.7,0.2,1.2,0.4,1.5c0.3,0.4,0.7,0.5,1.3,0.5s1.2-0.2,1.9-0.5c0.2,0.2,0.4,0.5,0.4,0.9
		c-0.7,0.5-1.6,0.8-2.6,0.8c-1,0-1.7-0.3-2.2-1s-0.7-1.5-0.7-2.6s0.3-2,0.7-2.6c0.5-0.7,1.2-1,2.1-1c0.9,0,1.6,0.3,2.1,0.8
		S72,4.9,72,5.8C72,6.1,72,6.5,71.9,6.8z M70.3,4.3c-0.2-0.3-0.6-0.5-1.1-0.5c-0.5,0-0.8,0.2-1.1,0.5s-0.4,0.9-0.4,1.5h2.9V5.7
		C70.7,5.1,70.6,4.7,70.3,4.3z"/>
	<path fill="#FFFFFF" d="M73,9.4c0-0.2,0.1-0.3,0.1-0.5c0.1-0.2,0.2-0.3,0.3-0.4C74.2,8.8,74.9,9,75.3,9c0.5,0,0.8-0.1,1.1-0.3
		c0.2-0.2,0.4-0.4,0.4-0.7c0-0.4-0.3-0.8-0.9-1l-0.8-0.3c-1.2-0.4-1.8-1.1-1.8-2c0-0.6,0.2-1.1,0.7-1.5C74.4,3,75,2.8,75.8,2.8
		s1.5,0.2,2.2,0.5c0,0.2,0,0.4-0.1,0.6c-0.1,0.2-0.2,0.3-0.3,0.4c-0.7-0.3-1.3-0.4-1.9-0.4c-0.3,0-0.6,0.1-0.8,0.2
		c-0.2,0.2-0.3,0.3-0.3,0.6c0,0.2,0.1,0.4,0.2,0.6s0.4,0.3,0.7,0.4l0.8,0.3c1.2,0.5,1.8,1.2,1.8,2.1c0,0.6-0.2,1.1-0.7,1.5
		c-0.5,0.4-1.2,0.6-2,0.6C74.6,10.1,73.8,9.8,73,9.4z"/>
	<path fill="#FFFFFF" d="M83,3c0,0.2,0.1,0.3,0.1,0.5S83,3.8,83,4l-1.8,0v4.3c0,0.4,0.2,0.6,0.6,0.6h1c0.1,0.2,0.1,0.4,0.1,0.6
		c0,0.2,0,0.3,0,0.4c-0.5,0.1-1.1,0.1-1.5,0.1c-1,0-1.4-0.5-1.4-1.4V3.9l-1,0c0-0.1-0.1-0.3-0.1-0.5s0-0.4,0.1-0.5l1,0V1.7
		c0-0.3,0.1-0.5,0.2-0.7s0.3-0.2,0.6-0.2h0.5l0.1,0.1V3L83,3z"/>
	<path fill="#FFFFFF" d="M89.7,9.3c-0.1,0.3-0.3,0.6-0.5,0.7c-0.5-0.1-0.9-0.4-1.1-0.9c-0.7,0.7-1.4,1-2.1,1s-1.2-0.2-1.6-0.6
		S83.9,8.5,83.9,8c0-0.8,0.2-1.3,0.7-1.7c0.5-0.4,1.1-0.6,1.9-0.6c0.5,0,0.9,0,1.4,0.1V5.2c0-0.8-0.4-1.3-1.2-1.3
		c-0.6,0-1.3,0.2-2.2,0.5c-0.3-0.3-0.4-0.6-0.4-1c1-0.4,1.9-0.6,2.9-0.6c0.7,0,1.3,0.2,1.7,0.6s0.6,1,0.6,1.8V8
		C89.3,8.6,89.4,9,89.7,9.3z M86.9,1.9l-0.8-0.4c-0.2-0.1-0.4-0.1-0.5-0.1s-0.3,0.1-0.5,0.3l-0.2,0.2c-0.1,0-0.3,0-0.4-0.1
		c-0.1-0.1-0.2-0.2-0.3-0.3l0.1-0.3c0.1-0.3,0.3-0.6,0.6-0.7c0.2-0.2,0.5-0.3,0.8-0.3c0.3,0,0.5,0.1,0.8,0.2l0.8,0.4
		c0.1,0.1,0.3,0.1,0.5,0.1s0.3-0.1,0.5-0.3l0.2-0.2c0.1,0,0.3,0.1,0.4,0.1c0.1,0.1,0.2,0.2,0.3,0.3L89,1.1c-0.1,0.3-0.3,0.6-0.6,0.7
		C88.2,2,88,2.1,87.7,2.1S87.2,2,86.9,1.9z M86.3,9C86.9,9,87.5,8.7,88,8V6.7c-0.4,0-0.8-0.1-1.3-0.1c-0.5,0-0.8,0.1-1.1,0.3
		c-0.2,0.2-0.4,0.5-0.4,0.9s0.1,0.6,0.3,0.8C85.7,8.9,85.9,9,86.3,9z"/>
	<path fill="#FFFFFF" d="M95.9,3.6c0.7,0.7,1,1.6,1,2.9s-0.3,2.2-1,2.9c-0.5,0.5-1.2,0.8-2,0.8c-0.8,0-1.5-0.3-2-0.8
		c-0.7-0.7-1-1.6-1-2.9s0.3-2.2,1-2.9c0.5-0.5,1.2-0.8,2-0.8C94.7,2.8,95.4,3,95.9,3.6z M92.3,6.4c0,1.7,0.5,2.6,1.6,2.6
		c1.1,0,1.6-0.9,1.6-2.6c0-0.5,0-0.9-0.1-1.3c-0.1-0.4-0.3-0.7-0.5-0.9c-0.2-0.3-0.6-0.4-1-0.4c-0.4,0-0.7,0.1-1,0.4
		c-0.2,0.3-0.4,0.6-0.5,0.9C92.3,5.5,92.3,5.9,92.3,6.4z"/>
	<path fill="#FFFFFF" d="M59.5,17.3l0,1.7v1.3c0.1,0,0.4,0,0.6,0H63c0,0.2,0.1,0.4,0.1,0.6c0,0.2,0,0.4-0.1,0.6h-2.8
		c-0.3,0-0.5,0-0.6,0v4.2c-0.2,0-0.4,0.1-0.7,0.1c-0.3,0-0.5,0-0.7-0.1v-9.5l0.1-0.1h5.5c0.1,0.2,0.1,0.4,0.1,0.6
		c0,0.4-0.3,0.6-0.8,0.6h-2.1C60.2,17.3,59.8,17.3,59.5,17.3z"/>
	<path fill="#FFFFFF" d="M66.6,19.9v5.8c-0.2,0-0.4,0.1-0.7,0.1c-0.3,0-0.5,0-0.7-0.1v-5.2c0-0.3,0-0.4-0.1-0.5s-0.2-0.2-0.5-0.2
		h-0.2c0-0.1-0.1-0.3-0.1-0.5s0-0.3,0.1-0.5c0.3,0,0.6-0.1,0.8-0.1h0.2c0.3,0,0.6,0.1,0.8,0.3C66.5,19.3,66.6,19.5,66.6,19.9z
		 M64.9,16.9c0-0.2,0-0.4,0.1-0.6c0.2-0.1,0.5-0.2,0.8-0.2s0.6,0.1,0.7,0.2c0.1,0.2,0.1,0.4,0.1,0.6s0,0.4-0.1,0.6
		c-0.2,0.1-0.4,0.2-0.7,0.2c-0.3,0-0.6-0.1-0.8-0.2C64.9,17.3,64.9,17.1,64.9,16.9z"/>
	<path fill="#FFFFFF" d="M74.2,20.9v3.3c0,0.6,0.1,1,0.2,1.2c-0.2,0.2-0.5,0.3-0.8,0.3c-0.5,0-0.7-0.3-0.7-0.9v-3.6
		c0-0.5-0.1-0.9-0.2-1.1c-0.1-0.2-0.4-0.3-0.7-0.3c-0.3,0-0.7,0.1-1,0.3s-0.6,0.4-0.9,0.7v4.9c-0.2,0-0.4,0.1-0.7,0.1
		c-0.3,0-0.5,0-0.7-0.1v-6.9l0.1-0.1h0.5c0.5,0,0.7,0.3,0.8,0.9c0.7-0.6,1.5-1,2.3-1c0.6,0,1.1,0.2,1.4,0.6
		C74,19.7,74.2,20.2,74.2,20.9z"/>
	<path fill="#FFFFFF" d="M81.5,25.1c-0.1,0.3-0.3,0.6-0.5,0.7c-0.5-0.1-0.9-0.4-1.1-0.9c-0.7,0.7-1.4,1-2.1,1s-1.2-0.2-1.6-0.6
		c-0.4-0.4-0.5-0.9-0.5-1.4c0-0.8,0.2-1.3,0.7-1.7s1.1-0.6,1.9-0.6c0.5,0,0.9,0,1.4,0.1V21c0-0.8-0.4-1.3-1.2-1.3
		c-0.6,0-1.3,0.2-2.2,0.5c-0.3-0.3-0.4-0.6-0.4-1c1-0.4,1.9-0.6,2.9-0.6c0.7,0,1.3,0.2,1.7,0.6c0.4,0.4,0.6,1,0.6,1.8v2.9
		C81.1,24.4,81.3,24.8,81.5,25.1z M78.1,24.8c0.6,0,1.2-0.3,1.7-0.9v-1.3c-0.4,0-0.8-0.1-1.3-0.1c-0.5,0-0.8,0.1-1.1,0.3
		c-0.2,0.2-0.4,0.5-0.4,0.9c0,0.4,0.1,0.6,0.3,0.8C77.5,24.7,77.8,24.8,78.1,24.8z"/>
	<path fill="#FFFFFF" d="M88.6,20.9v3.3c0,0.6,0.1,1,0.2,1.2c-0.2,0.2-0.5,0.3-0.8,0.3c-0.5,0-0.7-0.3-0.7-0.9v-3.6
		c0-0.5-0.1-0.9-0.2-1.1c-0.1-0.2-0.4-0.3-0.7-0.3c-0.3,0-0.7,0.1-1,0.3s-0.6,0.4-0.9,0.7v4.9c-0.2,0-0.4,0.1-0.7,0.1
		c-0.3,0-0.5,0-0.7-0.1v-6.9l0.1-0.1h0.5c0.5,0,0.7,0.3,0.8,0.9c0.7-0.6,1.5-1,2.3-1c0.6,0,1.1,0.2,1.4,0.6
		C88.5,19.7,88.6,20.2,88.6,20.9z"/>
	<path fill="#FFFFFF" d="M94.4,21.4c0,0,0-0.1,0-0.1c0-1.1-0.4-1.6-1.3-1.6c-0.5,0-0.8,0.2-1.1,0.7c-0.3,0.4-0.4,1.1-0.4,2
		c0,1.6,0.5,2.5,1.6,2.5c0.5,0,1.1-0.2,1.7-0.7c0.1,0.1,0.3,0.2,0.4,0.3s0.2,0.3,0.2,0.5c-0.7,0.7-1.5,1-2.5,1s-1.7-0.3-2.1-1
		c-0.5-0.7-0.7-1.6-0.7-2.7c0-1.1,0.3-2,0.8-2.6c0.6-0.6,1.2-0.9,2-0.9s1.4,0.2,1.9,0.7c0.4,0.4,0.7,0.9,0.7,1.4s-0.2,0.8-0.7,0.8
		C94.7,21.4,94.5,21.4,94.4,21.4z"/>
	<path fill="#FFFFFF" d="M102.2,22.6h-4.2c0,0.7,0.2,1.2,0.4,1.5s0.7,0.5,1.3,0.5s1.2-0.2,1.9-0.5c0.2,0.2,0.4,0.5,0.4,0.9
		c-0.7,0.5-1.6,0.8-2.6,0.8c-1,0-1.7-0.3-2.2-1s-0.7-1.5-0.7-2.6s0.3-2,0.7-2.6c0.5-0.7,1.2-1,2.1-1c0.9,0,1.6,0.3,2.1,0.8
		c0.5,0.6,0.7,1.3,0.7,2.2C102.3,21.9,102.3,22.3,102.2,22.6z M100.6,20.1c-0.2-0.4-0.6-0.5-1.1-0.5c-0.5,0-0.8,0.2-1.1,0.5
		s-0.4,0.9-0.4,1.5h2.9v-0.2C101,20.9,100.9,20.5,100.6,20.1z"/>
	<path fill="#FFFFFF" d="M105.5,19.9v5.8c-0.2,0-0.4,0.1-0.7,0.1c-0.3,0-0.5,0-0.7-0.1v-5.2c0-0.3,0-0.4-0.1-0.5s-0.2-0.2-0.5-0.2
		h-0.2c0-0.1-0.1-0.3-0.1-0.5s0-0.3,0.1-0.5c0.3,0,0.6-0.1,0.8-0.1h0.2c0.3,0,0.6,0.1,0.8,0.3C105.4,19.3,105.5,19.5,105.5,19.9z
		 M103.7,16.9c0-0.2,0-0.4,0.1-0.6c0.2-0.1,0.5-0.2,0.8-0.2s0.6,0.1,0.7,0.2c0.1,0.2,0.1,0.4,0.1,0.6s0,0.4-0.1,0.6
		c-0.2,0.1-0.4,0.2-0.7,0.2c-0.3,0-0.6-0.1-0.8-0.2C103.8,17.3,103.7,17.1,103.7,16.9z"/>
	<path fill="#FFFFFF" d="M107.2,19.4c0.1-0.3,0.2-0.6,0.5-0.7c0.6,0.1,1,0.6,1.2,1.2c0.4-0.8,1-1.2,1.8-1.2c0.2,0,0.5,0,0.7,0.1
		c0,0.5-0.1,0.9-0.3,1.3c-0.1,0-0.2,0-0.6-0.1c-0.7,0-1.2,0.4-1.5,1.1v4.6c-0.2,0-0.4,0.1-0.7,0.1s-0.5,0-0.7-0.1v-4.8
		C107.7,20.2,107.6,19.7,107.2,19.4z"/>
	<path fill="#FFFFFF" d="M117.8,25.1c-0.1,0.3-0.3,0.6-0.5,0.7c-0.5-0.1-0.9-0.4-1.1-0.9c-0.7,0.7-1.4,1-2.1,1s-1.2-0.2-1.6-0.6
		c-0.4-0.4-0.5-0.9-0.5-1.4c0-0.8,0.2-1.3,0.7-1.7s1.1-0.6,1.9-0.6c0.5,0,0.9,0,1.4,0.1V21c0-0.8-0.4-1.3-1.2-1.3
		c-0.6,0-1.3,0.2-2.2,0.5c-0.3-0.3-0.4-0.6-0.4-1c1-0.4,1.9-0.6,2.9-0.6c0.7,0,1.3,0.2,1.7,0.6c0.4,0.4,0.6,1,0.6,1.8v2.9
		C117.4,24.4,117.5,24.8,117.8,25.1z M114.3,24.8c0.6,0,1.2-0.3,1.7-0.9v-1.3c-0.4,0-0.8-0.1-1.3-0.1c-0.5,0-0.8,0.1-1.1,0.3
		c-0.2,0.2-0.4,0.5-0.4,0.9c0,0.4,0.1,0.6,0.3,0.8C113.8,24.7,114,24.8,114.3,24.8z"/>
	<path fill="#FFFFFF" d="M63.1,38.4h-4.2c0,0.7,0.2,1.2,0.4,1.5c0.3,0.4,0.7,0.5,1.3,0.5s1.2-0.2,1.9-0.5c0.2,0.2,0.4,0.5,0.4,0.9
		c-0.7,0.5-1.6,0.8-2.6,0.8c-1,0-1.7-0.3-2.2-1s-0.7-1.5-0.7-2.6s0.3-2,0.7-2.6c0.5-0.7,1.2-1,2.1-1c0.9,0,1.6,0.3,2.1,0.8
		s0.7,1.3,0.7,2.1C63.2,37.7,63.1,38.1,63.1,38.4z M61.5,35.9c-0.2-0.3-0.6-0.5-1.1-0.5c-0.5,0-0.8,0.2-1.1,0.5s-0.4,0.9-0.4,1.5
		h2.9v-0.2C61.8,36.7,61.7,36.3,61.5,35.9z"/>
	<path fill="#FFFFFF" d="M69.2,33.6L69.2,33.6c0,1.3,0.1,2.4,0.1,3.3v4.6c-0.2,0-0.4,0.1-0.7,0.1c-0.2,0-0.4,0-0.7-0.1v-9.5
		c0.3,0,0.5-0.1,0.9-0.1c0.3,0,0.6,0,0.8,0.1l3.1,6c0.1,0.3,0.3,0.6,0.5,1.1s0.4,0.8,0.4,0.9v0l0,0c-0.1-1.2-0.1-2.3-0.1-3.5v-3.7
		c0-0.3,0.1-0.5,0.2-0.7c0.1-0.1,0.3-0.2,0.6-0.2h0.4l0.1,0.1v9.5c-0.3,0-0.6,0.1-0.9,0.1s-0.6,0-0.8-0.1l-3.1-6
		C69.8,34.9,69.5,34.3,69.2,33.6z"/>
	<path fill="#FFFFFF" d="M82.2,38.4h-4.2c0,0.7,0.2,1.2,0.4,1.5c0.3,0.4,0.7,0.5,1.3,0.5s1.2-0.2,1.9-0.5c0.2,0.2,0.4,0.5,0.4,0.9
		c-0.7,0.5-1.6,0.8-2.6,0.8c-1,0-1.7-0.3-2.2-1s-0.7-1.5-0.7-2.6s0.3-2,0.7-2.6c0.5-0.7,1.2-1,2.1-1c0.9,0,1.6,0.3,2.1,0.8
		s0.7,1.3,0.7,2.1C82.3,37.7,82.3,38.1,82.2,38.4z M80.6,35.9c-0.2-0.3-0.6-0.5-1.1-0.5c-0.5,0-0.8,0.2-1.1,0.5s-0.4,0.9-0.4,1.5H81
		v-0.2C81,36.7,80.9,36.3,80.6,35.9z"/>
	<path fill="#FFFFFF" d="M85.9,41.6c-0.7,0-1.3-0.3-1.7-1c-0.4-0.6-0.6-1.5-0.6-2.7c0-1.1,0.3-2,0.8-2.6c0.5-0.6,1.2-0.9,1.9-0.9
		c0.7,0,1.4,0.2,1.9,0.7c0.2-0.3,0.5-0.6,0.9-0.7c0.3,0.1,0.4,0.4,0.5,0.7c-0.3,0.2-0.4,0.7-0.4,1.4v4.2c0,1.4-0.2,2.4-0.7,2.9
		c-0.5,0.6-1.3,0.9-2.3,0.9c-0.8,0-1.6-0.2-2.4-0.5c0-0.4,0.1-0.8,0.4-1c0.6,0.3,1.3,0.4,1.9,0.4c0.7,0,1.1-0.2,1.4-0.5
		s0.4-0.9,0.4-1.5v-0.7C87.3,41.3,86.6,41.6,85.9,41.6z M87.9,39.6v-3.4c-0.5-0.4-1-0.7-1.4-0.7s-0.8,0.2-1.1,0.6s-0.4,1.1-0.4,1.9
		s0.1,1.4,0.4,1.8c0.2,0.4,0.6,0.6,0.9,0.6C86.8,40.4,87.4,40.2,87.9,39.6z"/>
	<path fill="#FFFFFF" d="M95.8,35.2c0.7,0.7,1,1.6,1,2.9s-0.3,2.2-1,2.9c-0.5,0.5-1.2,0.8-2,0.8c-0.8,0-1.5-0.3-2-0.8
		c-0.7-0.7-1-1.6-1-2.9s0.3-2.2,1-2.9c0.5-0.5,1.2-0.8,2-0.8C94.6,34.4,95.3,34.6,95.8,35.2z M92.2,38c0,1.7,0.5,2.6,1.6,2.6
		c1.1,0,1.6-0.9,1.6-2.6c0-0.5,0-0.9-0.1-1.3c-0.1-0.4-0.3-0.7-0.5-0.9c-0.2-0.3-0.6-0.4-1-0.4c-0.4,0-0.7,0.1-1,0.4
		c-0.2,0.3-0.4,0.6-0.5,0.9C92.2,37.1,92.2,37.5,92.2,38z M92.7,33.4l2-2.2c0.2,0.1,0.4,0.2,0.6,0.4c0.2,0.2,0.3,0.4,0.4,0.6
		L93.3,34C93,33.9,92.8,33.7,92.7,33.4z"/>
	<path fill="#FFFFFF" d="M102.1,37.2c0,0,0-0.1,0-0.1c0-1.1-0.4-1.6-1.3-1.6c-0.5,0-0.8,0.2-1.1,0.7s-0.4,1.1-0.4,2
		c0,1.6,0.5,2.5,1.6,2.5c0.5,0,1.1-0.2,1.7-0.7c0.1,0.1,0.3,0.2,0.4,0.3c0.1,0.2,0.2,0.3,0.2,0.5c-0.7,0.7-1.5,1-2.5,1
		s-1.7-0.3-2.1-1c-0.5-0.7-0.7-1.6-0.7-2.7c0-1.1,0.3-2,0.8-2.6c0.6-0.6,1.2-0.9,2-0.9s1.4,0.2,1.9,0.7c0.4,0.4,0.7,0.9,0.7,1.4
		c0,0.5-0.2,0.8-0.7,0.8C102.4,37.2,102.2,37.2,102.1,37.2z"/>
	<path fill="#FFFFFF" d="M106.5,35.7v5.8c-0.2,0-0.4,0.1-0.7,0.1c-0.3,0-0.5,0-0.7-0.1v-5.2c0-0.3,0-0.4-0.1-0.5
		c-0.1-0.1-0.2-0.2-0.5-0.2h-0.2c0-0.1-0.1-0.3-0.1-0.5c0-0.2,0-0.3,0.1-0.5c0.3,0,0.6-0.1,0.8-0.1h0.2c0.3,0,0.6,0.1,0.8,0.3
		C106.4,35.1,106.5,35.3,106.5,35.7z M104.7,32.6c0-0.2,0-0.4,0.1-0.6c0.2-0.1,0.5-0.2,0.8-0.2s0.6,0.1,0.7,0.2
		c0.1,0.2,0.1,0.4,0.1,0.6c0,0.2,0,0.4-0.1,0.6c-0.2,0.1-0.4,0.2-0.7,0.2c-0.3,0-0.6-0.1-0.8-0.2C104.8,33.1,104.7,32.9,104.7,32.6z
		"/>
	<path fill="#FFFFFF" d="M113.1,35.2c0.7,0.7,1,1.6,1,2.9s-0.3,2.2-1,2.9c-0.5,0.5-1.2,0.8-2,0.8c-0.8,0-1.5-0.3-2-0.8
		c-0.7-0.7-1-1.6-1-2.9s0.3-2.2,1-2.9c0.5-0.5,1.2-0.8,2-0.8C111.9,34.4,112.6,34.6,113.1,35.2z M109.5,38c0,1.7,0.5,2.6,1.6,2.6
		c1.1,0,1.6-0.9,1.6-2.6c0-0.5,0-0.9-0.1-1.3c-0.1-0.4-0.3-0.7-0.5-0.9c-0.2-0.3-0.6-0.4-1-0.4c-0.4,0-0.7,0.1-1,0.4
		c-0.2,0.3-0.4,0.6-0.5,0.9C109.6,37.1,109.5,37.5,109.5,38z"/>
	<path fill="#FFFFFF" d="M115.1,41c0-0.2,0.1-0.3,0.1-0.5c0.1-0.2,0.2-0.3,0.3-0.4c0.8,0.4,1.4,0.6,1.9,0.6c0.5,0,0.8-0.1,1.1-0.3
		c0.2-0.2,0.4-0.4,0.4-0.7c0-0.4-0.3-0.8-0.9-1l-0.8-0.3c-1.2-0.4-1.8-1.1-1.8-2c0-0.6,0.2-1.1,0.7-1.5c0.5-0.4,1.1-0.6,1.8-0.6
		s1.5,0.2,2.2,0.5c0,0.2,0,0.4-0.1,0.6c-0.1,0.2-0.2,0.3-0.3,0.4c-0.7-0.3-1.3-0.4-1.9-0.4c-0.3,0-0.6,0.1-0.8,0.2
		c-0.2,0.2-0.3,0.3-0.3,0.6c0,0.2,0.1,0.4,0.2,0.6s0.4,0.3,0.7,0.4l0.8,0.3c1.2,0.5,1.8,1.2,1.8,2.1c0,0.6-0.2,1.1-0.7,1.5
		c-0.5,0.4-1.2,0.6-2,0.6C116.6,41.7,115.8,41.4,115.1,41z"/>
</g>
<g>
	<path fill="#FFFFFF" d="M22.7,14c-4.1,0-7.9-0.7-10.8-2c-3-1.3-4.6-3.1-4.6-5c0-1.9,1.6-3.7,4.6-5c2.9-1.3,6.7-2,10.8-2
		c4.1,0,7.9,0.7,10.8,2c3,1.3,4.6,3.1,4.6,5c0,1.9-1.6,3.7-4.6,5C30.6,13.3,26.8,14,22.7,14 M22.7,0.7c-4,0-7.7,0.7-10.5,1.9
		C9.5,3.8,8,5.4,8,7c0,1.6,1.5,3.2,4.2,4.4c2.8,1.2,6.5,1.9,10.5,1.9c4,0,7.7-0.7,10.5-1.9c2.7-1.2,4.2-2.8,4.2-4.4
		c0-1.6-1.5-3.2-4.2-4.4C30.4,1.4,26.7,0.7,22.7,0.7"/>
	<path fill="#9DC44C" d="M22.7,17.6c-4.1,0-7.9-0.7-10.8-2c-3-1.3-4.6-3.1-4.6-5c0-0.2,0-0.3,0-0.4c0-0.1,0-0.3,0-0.5
		c0-0.2,0.2-0.4,0.4-0.4C7.8,9.2,8,9.4,8,9.6c0,0.2,0,0.3,0,0.5c0,0.1,0,0.3,0,0.5c0,1.6,1.5,3.2,4.2,4.4c2.8,1.2,6.5,1.9,10.5,1.9
		c4,0,7.7-0.7,10.5-1.9c2.7-1.2,4.2-2.8,4.2-4.4c0-0.4,0-0.5,0-0.6c0-0.1,0-0.2,0-0.6c0-0.2,0.2-0.4,0.4-0.4c0.2,0,0.4,0.2,0.4,0.4
		c0,0.4,0,0.5,0,0.6c0,0.1,0,0.2,0,0.5c0,1.9-1.6,3.7-4.6,5C30.6,16.9,26.8,17.6,22.7,17.6"/>
	<path fill="#FFFFFF" d="M15.5,21.3c-4.1,0-7.9-0.7-10.8-2c-3-1.3-4.6-3.1-4.6-5c0-2.3,2.5-4.5,6.7-5.8c0.2-0.1,0.4,0,0.4,0.2
		c0.1,0.2,0,0.4-0.2,0.4c-3.9,1.2-6.2,3.1-6.2,5.1c0,1.6,1.5,3.2,4.2,4.4c2.8,1.2,6.5,1.9,10.5,1.9c5.3,0,10.3-1.3,12.9-3.3
		c0.2-0.1,0.4-0.1,0.5,0.1c0.1,0.2,0.1,0.4-0.1,0.5C26,20,20.9,21.3,15.5,21.3"/>
	<path fill="#9DC44C" d="M15.5,24.9c-4.1,0-7.9-0.7-10.8-2c-3-1.3-4.6-3.1-4.6-5c0-0.2,0-0.3,0-0.4c0-0.1,0-0.3,0-0.5
		c0-0.2,0.2-0.4,0.4-0.4c0.2,0,0.4,0.2,0.4,0.4c0,0.2,0,0.3,0,0.5c0,0.1,0,0.3,0,0.5c0,1.6,1.5,3.2,4.2,4.4
		c2.8,1.2,6.5,1.9,10.5,1.9c4,0,7.7-0.7,10.5-1.9c2.7-1.2,4.2-2.8,4.2-4.4c0-0.2,0.2-0.4,0.4-0.4c0.2,0,0.4,0.2,0.4,0.4
		c0,1.9-1.6,3.7-4.6,5C23.3,24.2,19.5,24.9,15.5,24.9"/>
	<path fill="#FFFFFF" d="M25.1,25.7c-1.6,0-3.1-0.1-4.6-0.3c-0.2,0-0.3-0.2-0.3-0.4c0-0.2,0.2-0.3,0.4-0.3c1.5,0.2,3,0.3,4.5,0.3
		c4,0,7.7-0.7,10.5-1.9c2.7-1.2,4.2-2.8,4.2-4.4c0-1.4-1.1-2.7-3-3.8c-0.2-0.1-0.2-0.3-0.1-0.5c0.1-0.2,0.3-0.2,0.5-0.1
		c2.2,1.3,3.4,2.8,3.4,4.4c0,1.9-1.6,3.7-4.6,5C33,25,29.2,25.7,25.1,25.7"/>
	<path fill="#9DC44C" d="M25.1,29.3c-5.7,0-10.9-1.4-13.6-3.7c-0.1-0.1-0.2-0.4,0-0.5c0.1-0.1,0.4-0.2,0.5,0
		c2.5,2.2,7.6,3.5,13.1,3.5c4,0,7.7-0.7,10.5-1.9c2.7-1.2,4.2-2.8,4.2-4.4c0-0.4,0-0.5,0-0.6c0-0.1,0-0.2,0-0.6
		c0-0.2,0.2-0.4,0.4-0.4c0.2,0,0.4,0.2,0.4,0.4c0,0.4,0,0.5,0,0.6c0,0.1,0,0.2,0,0.5c0,1.9-1.6,3.7-4.6,5
		C33,28.6,29.2,29.3,25.1,29.3"/>
	<path fill="#FFFFFF" d="M21.2,32.6c-4.1,0-7.9-0.7-10.8-2c-3-1.3-4.6-3.1-4.6-5c0-0.4,0.1-0.7,0.2-1.1c0.1-0.2,0.3-0.3,0.5-0.2
		c0.2,0.1,0.3,0.3,0.2,0.5c-0.1,0.3-0.1,0.6-0.1,0.9c0,1.6,1.5,3.2,4.2,4.4c2.8,1.2,6.5,1.9,10.5,1.9c5.8,0,11.1-1.5,13.5-3.8
		c0.1-0.1,0.4-0.1,0.5,0c0.1,0.1,0.1,0.4,0,0.5C32.8,31,27.3,32.6,21.2,32.6"/>
	<path fill="#9DC44C" d="M21.2,36.2c-4.1,0-7.9-0.7-10.8-2c-3-1.3-4.6-3.1-4.6-5c0-0.2,0-0.3,0-0.4c0-0.1,0-0.3,0-0.5
		c0-0.2,0.2-0.4,0.4-0.4c0.2,0,0.4,0.2,0.4,0.4c0,0.2,0,0.3,0,0.5c0,0.1,0,0.3,0,0.5c0,1.6,1.5,3.2,4.2,4.4
		c2.8,1.2,6.5,1.9,10.5,1.9c4,0,7.7-0.7,10.5-1.9c2.7-1.2,4.2-2.8,4.2-4.4c0-0.3,0-0.5,0-0.6c0-0.1,0-0.2,0-0.6
		c0-0.2,0.2-0.4,0.4-0.4c0.2,0,0.4,0.2,0.4,0.4c0,0.4,0,0.5,0,0.6c0,0.1,0,0.2,0,0.5c0,1.9-1.6,3.7-4.6,5
		C29.1,35.5,25.3,36.2,21.2,36.2"/>
	<path fill="#FFFFFF" d="M18.8,40.9c-4.1,0-7.9-0.7-10.8-2c-3-1.3-4.6-3.1-4.6-5c0-0.6,0.4-2.3,2.2-2.9c0.2-0.1,0.4,0,0.5,0.2
		s0,0.4-0.2,0.5c-1.4,0.5-1.7,1.8-1.7,2.2c0,1.6,1.5,3.2,4.2,4.4c2.8,1.2,6.5,1.9,10.5,1.9c4,0,7.7-0.7,10.5-1.9
		c2.7-1.2,4.2-2.8,4.2-4.4c0-0.2,0.2-0.4,0.4-0.4c0.2,0,0.4,0.2,0.4,0.4c0,1.9-1.6,3.7-4.6,5C26.7,40.2,22.9,40.9,18.8,40.9"/>
	<path fill="#9DC44C" d="M18.8,44.4c-4.1,0-7.9-0.7-10.8-2c-3-1.3-4.6-3.1-4.6-5c0-0.2,0-0.3,0-0.4c0-0.1,0-0.3,0-0.5
		c0-0.2,0.2-0.4,0.4-0.4c0.2,0,0.4,0.2,0.4,0.4c0,0.2,0,0.3,0,0.5c0,0.1,0,0.3,0,0.5c0,1.6,1.5,3.2,4.2,4.4
		c2.8,1.2,6.5,1.9,10.5,1.9c4,0,7.7-0.7,10.5-1.9c2.7-1.2,4.2-2.8,4.2-4.4c0-0.4,0-0.5,0-0.6c0-0.1,0-0.2,0-0.6
		c0-0.2,0.2-0.4,0.4-0.4c0.2,0,0.4,0.2,0.4,0.4c0,0.4,0,0.5,0,0.6c0,0.1,0,0.2,0,0.5c0,1.9-1.6,3.7-4.6,5
		C26.7,43.7,22.9,44.4,18.8,44.4"/>
	<path fill="#9DC44C" d="M23.7,11.9h-2.1v-1.1c-1-0.1-2.1-0.2-2.8-0.5l-0.2-0.1l0.7-1.8l0.2,0.1C19.9,8.7,21,9,22.2,9
		c0.9,0,1.5-0.2,1.5-0.5c0-0.3-0.5-0.6-1.7-0.8c-1.6-0.4-3.3-0.9-3.3-2.4c0-1.1,1.1-2,2.9-2.3V1.9h2.1v1c1.1,0,1.9,0.2,2.4,0.4
		l0.2,0.1l-0.7,1.7L25.5,5c-0.4-0.1-1.2-0.4-2.4-0.4c-0.9,0-1.3,0.2-1.3,0.5c0,0.3,1.4,0.7,1.9,0.8c2.2,0.5,3,1.2,3,2.4
		c0,1.2-1.2,2.1-3.1,2.4V11.9z M22,11.5h1.3v-1.2l0.2,0c1.7-0.2,2.9-1,2.9-2c0-1-0.8-1.5-2.7-2c-1.5-0.4-2.3-0.7-2.3-1.2
		c0-0.3,0.2-0.9,1.7-0.9c1.1,0,1.9,0.2,2.4,0.4l0.4-0.9c-0.5-0.1-1.2-0.3-2.3-0.3l-0.2,0v-1h-1.3v1.1l-0.2,0
		c-1.7,0.2-2.7,0.9-2.7,1.9c0,0.9,0.9,1.5,3,1.9c1.2,0.3,2,0.6,2,1.2c0,0.6-0.7,0.9-1.9,0.9c-1.2,0-2.2-0.3-2.8-0.5l-0.4,1
		c0.6,0.2,1.6,0.4,2.7,0.4l0.2,0V11.5z"/>
</g>
</svg>