<!-- Generator: Adobe Illustrator 17.1.0, SVG Export Plug-In  -->
<svg version="1.1"
	 xmlns="http://www.w3.org/2000/svg" xmlns:xlink="http://www.w3.org/1999/xlink" xmlns:a="http://ns.adobe.com/AdobeSVGViewerExtensions/3.0/"
	 x="0px" y="0px" width="153.4px" height="47.9px" viewBox="0 0 153.4 47.9" enable-background="new 0 0 153.4 47.9"
	 xml:space="preserve">
<defs>
</defs>
<g>
	<path fill="#A9D42D" d="M13.3,0.8c1.7,0,2.9-0.1,3.6-0.1c1.2,0,2.1,0.2,2.7,0.7c0.7,0.5,1,1.2,1,2.2c0,0.5-0.1,0.9-0.4,1.3
		c-0.3,0.4-0.6,0.7-1,0.9c0.5,0.2,1,0.5,1.4,1C21,7.4,21.1,8,21.1,8.6c0,1.1-0.3,1.9-1,2.4s-1.7,0.8-2.9,0.8c-0.8,0-2.1,0-3.9-0.1
		l-0.1-0.1V0.9L13.3,0.8z M15.6,2.5v2.7h1.2c0.5,0,0.9-0.1,1.1-0.4s0.3-0.6,0.3-1c0-0.9-0.5-1.3-1.4-1.3C16.3,2.5,15.9,2.5,15.6,2.5
		z M17,6.9h-1.4v3.2c0.4,0,0.8,0,1.4,0s1-0.2,1.3-0.5s0.4-0.7,0.4-1.1c0-0.4-0.1-0.8-0.4-1.1S17.6,6.9,17,6.9z"/>
	<path fill="#A9D42D" d="M28.9,8.6h-4.2c0,0.5,0.2,0.9,0.4,1.2c0.2,0.3,0.6,0.4,1.2,0.4s1.2-0.2,2-0.5c0.3,0.3,0.5,0.8,0.7,1.4
		C28,11.7,27,12,25.8,12c-0.7,0-1.2-0.1-1.7-0.3c-0.5-0.2-0.8-0.5-1.1-1c-0.5-0.8-0.7-1.8-0.7-3s0.3-2.2,0.9-3
		c0.6-0.8,1.4-1.2,2.5-1.2s2,0.3,2.6,1S29.1,6,29.1,7C29.1,7.5,29,8,28.9,8.6z M26.6,5.7c-0.2-0.3-0.5-0.4-0.8-0.4
		c-0.4,0-0.7,0.1-0.8,0.4c-0.2,0.3-0.3,0.7-0.3,1.2h2.3V6.7C26.9,6.3,26.8,5.9,26.6,5.7z"/>
	<path fill="#A9D42D" d="M35,6.9c0-0.8-0.3-1.2-0.8-1.2c-0.4,0-0.7,0.2-1.2,0.6v5.4c-0.3,0.1-0.7,0.1-1.2,0.1c-0.5,0-0.9,0-1.2-0.1
		v-8l0.1-0.1h0.9c0.7,0,1.1,0.3,1.3,1c0.8-0.7,1.5-1,2.2-1C36,3.7,36.7,4,37,4.8c0.8-0.7,1.6-1.1,2.4-1.1c0.8,0,1.3,0.2,1.7,0.7
		c0.4,0.5,0.5,1.1,0.5,1.8v3.6c0,0.7,0.1,1.2,0.4,1.6c-0.4,0.3-0.9,0.5-1.4,0.5c-0.5,0-0.9-0.1-1.1-0.4c-0.2-0.2-0.3-0.6-0.3-1.1
		V6.9c0-0.8-0.3-1.1-0.8-1.1c-0.3,0-0.7,0.2-1.1,0.6v5.4c-0.3,0.1-0.7,0.1-1.2,0.1c-0.4,0-0.8,0-1.2-0.1V6.9z"/>
	<path fill="#A9D42D" d="M47.8,8.4h-4.4c-0.1-0.3-0.1-0.6-0.1-1c0-0.4,0-0.7,0.1-1h4.4c0.1,0.3,0.1,0.6,0.1,1
		C47.9,7.9,47.9,8.2,47.8,8.4z"/>
	<path fill="#A9D42D" d="M52.5,10L54,3.8c0.2-0.1,0.6-0.1,1-0.1c0.4,0,0.8,0.1,1.1,0.2L56.2,4c-1,3.7-1.8,6.3-2.3,7.8
		c-0.5,0.1-1.1,0.1-1.6,0.1s-1-0.1-1.2-0.2c-0.2-0.2-0.4-0.5-0.6-0.9l-2-6.7c0.5-0.2,1-0.3,1.3-0.3s0.7,0.1,0.9,0.3
		c0.2,0.2,0.4,0.5,0.5,0.8L52,7.8c0.1,0.3,0.2,0.6,0.2,1.1c0.1,0.5,0.1,0.8,0.2,0.9C52.4,9.9,52.4,10,52.5,10z"/>
	<path fill="#A9D42D" d="M60.1,5.6v6.2c-0.3,0.1-0.7,0.1-1.2,0.1c-0.5,0-0.9,0-1.2-0.1V6.4c0-0.6-0.3-0.9-0.8-0.9h-0.2
		c-0.1-0.3-0.1-0.5-0.1-0.8s0-0.6,0.1-0.8c0.5-0.1,1-0.1,1.4-0.1h0.3c0.5,0,0.9,0.2,1.2,0.5C59.9,4.6,60.1,5,60.1,5.6z M57.2,1.5
		c0-0.3,0.1-0.6,0.2-0.9c0.3-0.2,0.7-0.2,1.2-0.2s0.9,0.1,1.1,0.2c0.1,0.3,0.2,0.6,0.2,0.9s-0.1,0.6-0.2,0.9
		c-0.3,0.2-0.7,0.2-1.2,0.2c-0.5,0-0.9-0.1-1.1-0.2C57.3,2.1,57.2,1.8,57.2,1.5z"/>
	<path fill="#A9D42D" d="M68.9,6.5v3.3c0,0.7,0.1,1.2,0.4,1.6c-0.4,0.3-0.9,0.5-1.4,0.5c-0.5,0-0.9-0.1-1.1-0.4s-0.3-0.6-0.3-1.1
		V6.9c0-0.4-0.1-0.7-0.2-0.9S66,5.8,65.8,5.8c-0.5,0-0.9,0.2-1.3,0.6v5.4c-0.3,0.1-0.7,0.1-1.2,0.1c-0.5,0-0.9,0-1.2-0.1v-8l0.1-0.1
		h0.9c0.7,0,1.1,0.3,1.3,1c0.8-0.7,1.5-1,2.3-1s1.3,0.3,1.7,0.8C68.7,4.9,68.9,5.6,68.9,6.5z"/>
	<path fill="#A9D42D" d="M73.2,12c-0.9,0-1.6-0.4-2.1-1.1s-0.7-1.8-0.7-3.1s0.3-2.3,0.9-3.1c0.6-0.7,1.4-1.1,2.3-1.1
		c0.5,0,1,0.1,1.5,0.4V0.1L75.2,0h0.9c0.5,0,0.8,0.1,1,0.3c0.2,0.2,0.3,0.6,0.3,1.1v8c0,0.6,0.1,1,0.4,1.2c0,0.2-0.1,0.4-0.3,0.7
		c-0.1,0.2-0.3,0.4-0.5,0.6c-0.7,0-1.3-0.3-1.7-0.9C74.8,11.7,74.1,12,73.2,12z M73.8,10.1c0.5,0,0.9-0.2,1.2-0.7V5.8
		c-0.5-0.3-0.8-0.4-1.1-0.4c-0.8,0-1.2,0.8-1.2,2.5c0,0.7,0.1,1.3,0.3,1.6C73.3,9.9,73.5,10.1,73.8,10.1z"/>
	<path fill="#A9D42D" d="M85.1,4.5c0.8,0.8,1.2,1.9,1.2,3.3s-0.4,2.5-1.2,3.3c-0.6,0.6-1.5,0.9-2.5,0.9c-1,0-1.9-0.3-2.5-0.9
		c-0.8-0.8-1.2-1.9-1.2-3.3s0.4-2.5,1.2-3.3c0.6-0.6,1.5-0.9,2.5-0.9C83.6,3.6,84.5,3.9,85.1,4.5z M81.6,6c-0.2,0.4-0.2,1-0.2,1.8
		c0,0.8,0.1,1.4,0.2,1.8c0.2,0.4,0.5,0.6,1,0.6c0.5,0,0.8-0.2,1-0.6c0.2-0.4,0.2-1,0.2-1.8c0-0.8-0.1-1.4-0.2-1.8
		c-0.2-0.4-0.5-0.6-1-0.6C82.1,5.3,81.8,5.6,81.6,6z"/>
	<path fill="#A9D42D" d="M98,10.7c0,0.2-0.1,0.4-0.3,0.7c-0.2,0.2-0.3,0.4-0.5,0.5c-0.7,0-1.3-0.3-1.7-0.8c-0.7,0.6-1.4,1-2.3,1
		c-0.8,0-1.5-0.2-1.9-0.7c-0.4-0.5-0.6-1.1-0.6-1.7c0-0.9,0.3-1.6,0.9-2.1c0.6-0.5,1.4-0.7,2.2-0.7c0.4,0,0.8,0,1.2,0V6.5
		c0-0.7-0.4-1.1-1.1-1.1c-0.5,0-1.3,0.2-2.4,0.5c-0.3-0.4-0.5-0.9-0.6-1.7c0.5-0.2,1.1-0.4,1.8-0.5c0.7-0.1,1.3-0.2,1.8-0.2
		c0.8,0,1.5,0.2,2,0.7c0.5,0.4,0.8,1.1,0.8,2.1v3.3C97.5,10.1,97.7,10.5,98,10.7z M93.9,10.2c0.4,0,0.8-0.2,1.2-0.5V8.4
		c-0.2,0-0.6,0-1,0c-0.7,0-1.1,0.4-1.1,1.1c0,0.2,0.1,0.4,0.2,0.6C93.5,10.2,93.7,10.2,93.9,10.2z"/>
	<path fill="#A9D42D" d="M105.2,4.5c0.8,0.8,1.2,1.9,1.2,3.3s-0.4,2.5-1.2,3.3c-0.6,0.6-1.5,0.9-2.5,0.9c-1,0-1.9-0.3-2.5-0.9
		C99.4,10.3,99,9.2,99,7.8s0.4-2.5,1.2-3.3c0.6-0.6,1.5-0.9,2.5-0.9C103.7,3.6,104.5,3.9,105.2,4.5z M101.7,6
		c-0.2,0.4-0.2,1-0.2,1.8c0,0.8,0.1,1.4,0.2,1.8c0.2,0.4,0.5,0.6,1,0.6c0.5,0,0.8-0.2,1-0.6c0.2-0.4,0.2-1,0.2-1.8
		c0-0.8-0.1-1.4-0.2-1.8c-0.2-0.4-0.5-0.6-1-0.6C102.2,5.3,101.8,5.6,101.7,6z"/>
	<path fill="#A9D42D" d="M118.2,1.7c0.7,0.6,1.1,1.6,1.1,2.8c0,1.2-0.4,2.2-1.1,2.8c-0.7,0.7-1.6,1-2.8,1H114v3.5
		c-0.3,0.1-0.7,0.1-1.2,0.1s-0.9,0-1.2-0.1V0.9l0.1-0.1c1.8,0,3-0.1,3.7-0.1C116.5,0.8,117.5,1.1,118.2,1.7z M114,2.6v3.8
		c0.3,0,0.7,0,1.1,0s0.8-0.1,1-0.3c0.3-0.2,0.4-0.5,0.5-0.7s0.1-0.6,0.1-1c0-0.4-0.1-0.8-0.3-1.2c-0.2-0.4-0.6-0.6-1.1-0.6
		S114.3,2.6,114,2.6z"/>
	<path fill="#A9D42D" d="M129.4,3.5c0.3,0.8,0.4,1.7,0.4,2.8s-0.1,2-0.4,2.8c-0.2,0.8-0.7,1.4-1.4,2c-0.3,0.3-0.8,0.5-1.3,0.6
		c-0.6,0.1-1.2,0.2-1.8,0.2c-0.6,0-1.9,0-3.7-0.1l-0.1-0.1V0.9l0.1-0.1c1.2,0,2.5-0.1,4-0.1c0.5,0,1,0.1,1.6,0.2
		c0.6,0.1,1,0.3,1.3,0.6C128.6,2.1,129.1,2.8,129.4,3.5z M123.8,10l1.2,0c1.5,0,2.2-1.2,2.2-3.6s-0.7-3.6-2.2-3.6l-1.6,0V10
		C123.4,10,123.5,10,123.8,10z"/>
	<path fill="#A9D42D" d="M135.5,9.7h2.8c0,0.4,0,0.7-0.1,0.9c-0.1,0.8-0.7,1.2-1.6,1.2H133c-0.4,0-0.8-0.1-1-0.4s-0.4-0.6-0.4-1.1
		V0.8l0.1-0.1h0.9c1,0,1.4,0.5,1.4,1.5v7.5C134.6,9.7,135.1,9.7,135.5,9.7z"/>
	<path fill="#FFFFFF" d="M0.1,21.6l2.4,0c0.8,0,1.5,0.2,2,0.7s0.8,1.1,0.8,2c0,0.9-0.3,1.5-0.8,2s-1.2,0.7-2,0.7H1.2v2.9
		c-0.2,0-0.4,0-0.6,0s-0.4,0-0.6,0L0.1,21.6L0.1,21.6z M1.2,25.9l1.3,0c0.4,0,0.7-0.1,0.9-0.3c0.2-0.2,0.4-0.4,0.5-0.6
		C3.9,24.7,4,24.4,4,24.1S3.9,23.3,3.6,23S3,22.5,2.5,22.5c-0.6,0-1,0-1.3,0V25.9z"/>
	<path fill="#FFFFFF" d="M6.1,24.4c0.1-0.3,0.2-0.5,0.4-0.6c0.5,0.1,0.9,0.5,1,1.1c0.3-0.7,0.9-1.1,1.6-1.1c0.2,0,0.4,0,0.6,0.1
		c0,0.4-0.1,0.8-0.3,1.1c0,0-0.2,0-0.5,0c-0.6,0-1,0.3-1.3,0.9v3.9c-0.1,0-0.3,0-0.6,0s-0.4,0-0.6,0v-4.2
		C6.6,25.1,6.4,24.7,6.1,24.4z"/>
	<path fill="#FFFFFF" d="M14.7,24.4c0.6,0.6,0.8,1.4,0.8,2.5s-0.3,1.9-0.8,2.5c-0.4,0.4-1,0.7-1.7,0.7s-1.3-0.2-1.7-0.7
		c-0.6-0.6-0.8-1.4-0.8-2.5s0.3-1.9,0.8-2.5c0.4-0.4,1-0.7,1.7-0.7S14.3,23.9,14.7,24.4z M11.6,26.8c0,1.5,0.5,2.2,1.4,2.2
		s1.4-0.7,1.4-2.2c0-0.4,0-0.8-0.1-1.1c-0.1-0.3-0.2-0.6-0.4-0.8c-0.2-0.2-0.5-0.3-0.8-0.3s-0.6,0.1-0.8,0.3
		c-0.2,0.2-0.4,0.5-0.4,0.8C11.7,26,11.6,26.4,11.6,26.8z"/>
	<path fill="#FFFFFF" d="M18.7,29.9c-0.6,0-1.1-0.3-1.5-0.8c-0.4-0.5-0.5-1.3-0.5-2.3s0.2-1.7,0.7-2.3c0.5-0.5,1-0.8,1.6-0.8
		s1.2,0.2,1.7,0.6c0.2-0.3,0.4-0.5,0.8-0.6c0.2,0.1,0.4,0.3,0.5,0.6c-0.2,0.2-0.3,0.6-0.3,1.2v3.6c0,1.2-0.2,2-0.6,2.5
		c-0.4,0.5-1.1,0.8-2,0.8c-0.7,0-1.4-0.1-2.1-0.4c0-0.4,0.1-0.7,0.3-0.9c0.5,0.3,1.1,0.4,1.6,0.4s1-0.2,1.2-0.5
		c0.2-0.3,0.3-0.7,0.3-1.3v-0.6C19.9,29.7,19.3,29.9,18.7,29.9z M20.4,28.1v-2.9c-0.4-0.4-0.8-0.6-1.2-0.6c-0.4,0-0.7,0.2-1,0.6
		c-0.2,0.4-0.4,0.9-0.4,1.6s0.1,1.2,0.3,1.6s0.5,0.5,0.8,0.5C19.5,28.9,20,28.6,20.4,28.1z"/>
	<path fill="#FFFFFF" d="M23.1,24.4c0.1-0.3,0.2-0.5,0.4-0.6c0.5,0.1,0.9,0.5,1,1.1c0.3-0.7,0.9-1.1,1.6-1.1c0.2,0,0.4,0,0.6,0.1
		c0,0.4-0.1,0.8-0.3,1.1c0,0-0.2,0-0.5,0c-0.6,0-1,0.3-1.3,0.9v3.9c-0.1,0-0.3,0-0.6,0s-0.4,0-0.6,0v-4.2
		C23.5,25.1,23.4,24.7,23.1,24.4z"/>
	<path fill="#FFFFFF" d="M32.2,29.3c-0.1,0.3-0.2,0.5-0.5,0.6c-0.4-0.1-0.7-0.3-0.9-0.8c-0.6,0.6-1.2,0.8-1.8,0.8
		c-0.6,0-1.1-0.2-1.4-0.5c-0.3-0.4-0.5-0.8-0.5-1.2c0-0.7,0.2-1.1,0.6-1.5s1-0.5,1.7-0.5c0.4,0,0.8,0,1.2,0.1v-0.5
		c0-0.7-0.3-1.1-1-1.1c-0.5,0-1.2,0.2-1.9,0.5c-0.2-0.2-0.3-0.5-0.3-0.9c0.8-0.4,1.7-0.6,2.5-0.6c0.6,0,1.1,0.2,1.4,0.5
		c0.3,0.3,0.5,0.8,0.5,1.5v2.5C31.9,28.7,32,29.1,32.2,29.3z M29.3,29c0.5,0,1-0.3,1.5-0.8v-1.2c-0.3,0-0.7-0.1-1.1-0.1
		c-0.4,0-0.7,0.1-0.9,0.3c-0.2,0.2-0.3,0.4-0.3,0.7c0,0.3,0.1,0.5,0.2,0.7C28.8,28.9,29,29,29.3,29z"/>
	<path fill="#FFFFFF" d="M37,26c0-0.4-0.1-0.7-0.2-0.9c-0.1-0.2-0.3-0.3-0.6-0.3c-0.5,0-0.9,0.3-1.4,0.8v4.2c-0.1,0-0.3,0-0.6,0
		s-0.4,0-0.6,0v-5.9l0.1-0.1h0.4c0.4,0,0.6,0.3,0.6,0.8c0.5-0.5,1.1-0.8,1.7-0.8s1.1,0.3,1.3,0.9c0.6-0.6,1.3-0.9,1.9-0.9
		c0.5,0,0.9,0.2,1.1,0.5c0.3,0.4,0.4,0.8,0.4,1.3v2.9c0,0.5,0.1,0.8,0.2,1.1c-0.2,0.2-0.4,0.3-0.7,0.3c-0.4,0-0.6-0.2-0.6-0.7V26
		c0-0.4-0.1-0.7-0.2-0.9c-0.1-0.2-0.3-0.3-0.6-0.3c-0.5,0-0.9,0.3-1.4,0.8v4.2c-0.1,0-0.3,0-0.6,0s-0.4,0-0.6,0V26z"/>
	<path fill="#FFFFFF" d="M47.8,29.3c-0.1,0.3-0.2,0.5-0.5,0.6c-0.4-0.1-0.7-0.3-0.9-0.8c-0.6,0.6-1.2,0.8-1.8,0.8
		c-0.6,0-1.1-0.2-1.4-0.5c-0.3-0.4-0.5-0.8-0.5-1.2c0-0.7,0.2-1.1,0.6-1.5s1-0.5,1.7-0.5c0.4,0,0.8,0,1.2,0.1v-0.5
		c0-0.7-0.3-1.1-1-1.1c-0.5,0-1.2,0.2-1.9,0.5c-0.2-0.2-0.3-0.5-0.3-0.9c0.8-0.4,1.7-0.6,2.5-0.6c0.6,0,1.1,0.2,1.4,0.5
		c0.3,0.3,0.5,0.8,0.5,1.5v2.5C47.5,28.7,47.6,29.1,47.8,29.3z M44.9,29c0.5,0,1-0.3,1.5-0.8v-1.2c-0.3,0-0.7-0.1-1.1-0.1
		c-0.4,0-0.7,0.1-0.9,0.3c-0.2,0.2-0.3,0.4-0.3,0.7c0,0.3,0.1,0.5,0.2,0.7C44.4,28.9,44.6,29,44.9,29z"/>
	<path fill="#FFFFFF" d="M53.7,29.9c-0.7,0-1.2-0.3-1.5-0.8c-0.4-0.6-0.5-1.3-0.5-2.3c0-1,0.2-1.7,0.7-2.3c0.5-0.5,1-0.8,1.6-0.8
		c0.4,0,0.9,0.1,1.4,0.4V21l0.1-0.1h0.4c0.2,0,0.4,0.1,0.5,0.2c0.1,0.1,0.1,0.3,0.1,0.6v6.4c0,0.6,0.1,1,0.3,1.2
		c-0.1,0.3-0.2,0.5-0.5,0.6c-0.4-0.1-0.7-0.3-0.9-0.8C54.9,29.7,54.4,29.9,53.7,29.9z M53.9,29c0.5,0,1-0.3,1.4-0.8v-3
		c-0.4-0.3-0.9-0.5-1.2-0.5s-0.7,0.2-0.9,0.6c-0.2,0.4-0.4,0.9-0.4,1.6c0,0.7,0.1,1.2,0.3,1.6S53.6,29,53.9,29z"/>
	<path fill="#FFFFFF" d="M62.7,27.2h-3.6c0,0.6,0.1,1,0.4,1.3c0.2,0.3,0.6,0.5,1.1,0.5s1.1-0.2,1.7-0.5c0.2,0.2,0.3,0.4,0.4,0.8
		c-0.6,0.4-1.4,0.7-2.3,0.7c-0.9,0-1.5-0.3-1.9-0.9S58,27.7,58,26.8s0.2-1.7,0.6-2.3c0.4-0.6,1-0.9,1.8-0.9c0.8,0,1.4,0.2,1.8,0.7
		c0.4,0.5,0.6,1.1,0.6,1.8C62.8,26.6,62.8,26.9,62.7,27.2z M61.4,25c-0.2-0.3-0.5-0.5-0.9-0.5s-0.7,0.2-0.9,0.5
		c-0.2,0.3-0.3,0.7-0.4,1.3h2.5v-0.2C61.7,25.7,61.6,25.3,61.4,25z"/>
	<path fill="#FFFFFF" d="M72.9,23.6c0.2,0.6,0.3,1.3,0.3,2.1s-0.1,1.5-0.3,2.1c-0.2,0.6-0.5,1.1-1,1.5c-0.2,0.2-0.6,0.4-1,0.5
		c-0.4,0.1-0.8,0.2-1.1,0.2s-1.2,0-2.6,0l-0.1-0.1v-8.1l0.1-0.1c0.7,0,1.6,0,2.6,0c0.4,0,0.7,0.1,1.1,0.2c0.4,0.1,0.7,0.3,1,0.5
		C72.4,22.6,72.7,23,72.9,23.6z M68.4,28.9l1.5,0c0.4,0,0.7-0.1,0.9-0.2c0.3-0.1,0.5-0.3,0.6-0.5c0.1-0.2,0.3-0.4,0.4-0.7
		c0.1-0.3,0.1-0.6,0.2-0.8c0-0.3,0-0.6,0-0.9s0-0.6,0-0.9c0-0.3-0.1-0.5-0.2-0.8c-0.1-0.3-0.2-0.5-0.4-0.7c-0.1-0.2-0.4-0.4-0.6-0.5
		c-0.3-0.1-0.6-0.2-0.9-0.2l-1.5,0V28.9z"/>
	<path fill="#FFFFFF" d="M79.1,27.2h-3.6c0,0.6,0.1,1,0.4,1.3c0.2,0.3,0.6,0.5,1.1,0.5s1.1-0.2,1.7-0.5c0.2,0.2,0.3,0.4,0.4,0.8
		c-0.6,0.4-1.4,0.7-2.3,0.7c-0.9,0-1.5-0.3-1.9-0.9s-0.6-1.3-0.6-2.3s0.2-1.7,0.6-2.3c0.4-0.6,1-0.9,1.8-0.9c0.8,0,1.4,0.2,1.8,0.7
		c0.4,0.5,0.6,1.1,0.6,1.8C79.2,26.6,79.2,26.9,79.1,27.2z M77.8,25c-0.2-0.3-0.5-0.5-0.9-0.5s-0.7,0.2-0.9,0.5
		c-0.2,0.3-0.3,0.7-0.4,1.3h2.5v-0.2C78.1,25.7,78,25.3,77.8,25z"/>
	<path fill="#FFFFFF" d="M80.2,29.3c0-0.1,0-0.3,0.1-0.4s0.2-0.3,0.3-0.4c0.7,0.4,1.2,0.5,1.6,0.5c0.4,0,0.7-0.1,0.9-0.2
		c0.2-0.1,0.3-0.3,0.3-0.6c0-0.4-0.3-0.7-0.8-0.9L82,27.1c-1-0.4-1.5-0.9-1.5-1.7c0-0.5,0.2-1,0.6-1.3c0.4-0.3,0.9-0.5,1.6-0.5
		s1.3,0.1,1.9,0.4c0,0.2,0,0.3-0.1,0.5s-0.2,0.3-0.3,0.4c-0.6-0.3-1.1-0.4-1.6-0.4c-0.3,0-0.5,0.1-0.7,0.2c-0.2,0.1-0.3,0.3-0.3,0.5
		c0,0.2,0.1,0.4,0.2,0.5s0.3,0.2,0.6,0.3l0.7,0.3c1,0.4,1.5,1,1.5,1.8c0,0.5-0.2,1-0.6,1.3c-0.4,0.3-1,0.5-1.7,0.5
		S80.9,29.7,80.2,29.3z"/>
	<path fill="#FFFFFF" d="M90.4,27.2h-3.6c0,0.6,0.1,1,0.4,1.3c0.2,0.3,0.6,0.5,1.1,0.5s1.1-0.2,1.7-0.5c0.2,0.2,0.3,0.4,0.4,0.8
		c-0.6,0.4-1.4,0.7-2.3,0.7c-0.9,0-1.5-0.3-1.9-0.9s-0.6-1.3-0.6-2.3s0.2-1.7,0.6-2.3c0.4-0.6,1-0.9,1.8-0.9c0.8,0,1.4,0.2,1.8,0.7
		c0.4,0.5,0.6,1.1,0.6,1.8C90.5,26.6,90.4,26.9,90.4,27.2z M89,25c-0.2-0.3-0.5-0.5-0.9-0.5s-0.7,0.2-0.9,0.5
		c-0.2,0.3-0.3,0.7-0.4,1.3h2.5v-0.2C89.3,25.7,89.2,25.3,89,25z"/>
	<path fill="#FFFFFF" d="M96.7,25.7v2.8c0,0.5,0.1,0.8,0.2,1.1c-0.2,0.2-0.4,0.3-0.7,0.3c-0.4,0-0.6-0.2-0.6-0.7V26
		c0-0.4-0.1-0.7-0.2-0.9c-0.1-0.2-0.3-0.3-0.6-0.3c-0.3,0-0.6,0.1-0.9,0.2c-0.3,0.1-0.5,0.3-0.8,0.6v4.2c-0.1,0-0.3,0-0.6,0
		s-0.4,0-0.6,0v-5.9l0.1-0.1h0.4c0.4,0,0.6,0.3,0.6,0.8c0.6-0.5,1.2-0.8,1.9-0.8c0.5,0,0.9,0.2,1.2,0.5
		C96.6,24.7,96.7,25.1,96.7,25.7z"/>
	<path fill="#FFFFFF" d="M100.5,28.8l1.5-5c0.1,0,0.3,0,0.5,0s0.4,0,0.6,0.1l0,0c-0.8,2.6-1.4,4.5-1.9,5.8c-0.2,0-0.5,0.1-0.8,0.1
		s-0.5,0-0.6-0.1s-0.2-0.3-0.3-0.5l-1.7-5.2c0.2-0.1,0.5-0.2,0.7-0.2c0.3,0,0.5,0.2,0.6,0.5l0.8,2.7c0.2,0.6,0.3,1.2,0.5,1.8
		C100.3,28.8,100.4,28.8,100.5,28.8z"/>
	<path fill="#FFFFFF" d="M107.9,24.4c0.6,0.6,0.8,1.4,0.8,2.5s-0.3,1.9-0.8,2.5c-0.4,0.4-1,0.7-1.7,0.7s-1.3-0.2-1.7-0.7
		c-0.6-0.6-0.8-1.4-0.8-2.5s0.3-1.9,0.8-2.5c0.4-0.4,1-0.7,1.7-0.7S107.5,23.9,107.9,24.4z M104.8,26.8c0,1.5,0.5,2.2,1.4,2.2
		s1.4-0.7,1.4-2.2c0-0.4,0-0.8-0.1-1.1c-0.1-0.3-0.2-0.6-0.4-0.8c-0.2-0.2-0.5-0.3-0.8-0.3s-0.6,0.1-0.8,0.3
		c-0.2,0.2-0.4,0.5-0.4,0.8C104.9,26,104.8,26.4,104.8,26.8z"/>
	<path fill="#FFFFFF" d="M111.9,28.9h0.5c0.1,0.2,0.1,0.3,0.1,0.5c0,0.1,0,0.3,0,0.4c-0.3,0.1-0.7,0.1-1,0.1c-0.8,0-1.1-0.4-1.1-1.2
		V21l0.1-0.1h0.4c0.2,0,0.4,0.1,0.5,0.2c0.1,0.1,0.1,0.3,0.1,0.6v6.7C111.4,28.7,111.5,28.9,111.9,28.9z"/>
	<path fill="#FFFFFF" d="M115.5,28.8l1.5-5c0.1,0,0.3,0,0.5,0s0.4,0,0.6,0.1l0,0c-0.8,2.6-1.4,4.5-1.9,5.8c-0.2,0-0.5,0.1-0.8,0.1
		s-0.5,0-0.6-0.1s-0.2-0.3-0.3-0.5l-1.7-5.2c0.2-0.1,0.5-0.2,0.7-0.2c0.3,0,0.5,0.2,0.6,0.5l0.8,2.7c0.2,0.6,0.3,1.2,0.5,1.8
		C115.4,28.8,115.4,28.8,115.5,28.8z"/>
	<path fill="#FFFFFF" d="M120.5,24.8v4.9c-0.1,0-0.3,0-0.6,0c-0.2,0-0.4,0-0.6,0v-4.5c0-0.2,0-0.4-0.1-0.5s-0.2-0.1-0.4-0.1h-0.1
		c0-0.1,0-0.3,0-0.4c0-0.2,0-0.3,0-0.4c0.3,0,0.5,0,0.7,0h0.2c0.3,0,0.5,0.1,0.7,0.3C120.4,24.3,120.5,24.5,120.5,24.8z M119,22.2
		c0-0.2,0-0.4,0.1-0.5c0.2-0.1,0.4-0.1,0.7-0.1c0.3,0,0.5,0,0.6,0.1c0.1,0.1,0.1,0.3,0.1,0.5c0,0.2,0,0.4-0.1,0.5
		c-0.1,0.1-0.3,0.1-0.6,0.1c-0.3,0-0.5,0-0.6-0.1C119,22.6,119,22.4,119,22.2z"/>
	<path fill="#FFFFFF" d="M125.7,26c0-0.4-0.1-0.7-0.2-0.9c-0.1-0.2-0.3-0.3-0.6-0.3c-0.5,0-0.9,0.3-1.4,0.8v4.2c-0.1,0-0.3,0-0.6,0
		s-0.4,0-0.6,0v-5.9l0.1-0.1h0.4c0.4,0,0.6,0.3,0.6,0.8c0.5-0.5,1.1-0.8,1.7-0.8s1.1,0.3,1.3,0.9c0.6-0.6,1.3-0.9,1.9-0.9
		c0.5,0,0.9,0.2,1.1,0.5c0.3,0.4,0.4,0.8,0.4,1.3v2.9c0,0.5,0.1,0.8,0.2,1.1c-0.2,0.2-0.4,0.3-0.7,0.3c-0.4,0-0.6-0.2-0.6-0.7V26
		c0-0.4-0.1-0.7-0.2-0.9c-0.1-0.2-0.3-0.3-0.6-0.3c-0.5,0-0.9,0.3-1.4,0.8v4.2c-0.1,0-0.3,0-0.6,0s-0.4,0-0.6,0V26z"/>
	<path fill="#FFFFFF" d="M136.3,27.2h-3.6c0,0.6,0.1,1,0.4,1.3c0.2,0.3,0.6,0.5,1.1,0.5s1.1-0.2,1.7-0.5c0.2,0.2,0.3,0.4,0.4,0.8
		c-0.6,0.4-1.4,0.7-2.3,0.7c-0.9,0-1.5-0.3-1.9-0.9s-0.6-1.3-0.6-2.3s0.2-1.7,0.6-2.3c0.4-0.6,1-0.9,1.8-0.9c0.8,0,1.4,0.2,1.8,0.7
		c0.4,0.5,0.6,1.1,0.6,1.8C136.4,26.6,136.4,26.9,136.3,27.2z M134.9,25c-0.2-0.3-0.5-0.5-0.9-0.5s-0.7,0.2-0.9,0.5
		c-0.2,0.3-0.3,0.7-0.4,1.3h2.5v-0.2C135.3,25.7,135.1,25.3,134.9,25z"/>
	<path fill="#FFFFFF" d="M142.6,25.7v2.8c0,0.5,0.1,0.8,0.2,1.1c-0.2,0.2-0.4,0.3-0.7,0.3c-0.4,0-0.6-0.2-0.6-0.7V26
		c0-0.4-0.1-0.7-0.2-0.9c-0.1-0.2-0.3-0.3-0.6-0.3c-0.3,0-0.6,0.1-0.9,0.2c-0.3,0.1-0.5,0.3-0.8,0.6v4.2c-0.1,0-0.3,0-0.6,0
		s-0.4,0-0.6,0v-5.9l0.1-0.1h0.4c0.4,0,0.6,0.3,0.6,0.8c0.6-0.5,1.2-0.8,1.9-0.8c0.5,0,0.9,0.2,1.2,0.5
		C142.5,24.7,142.6,25.1,142.6,25.7z"/>
	<path fill="#FFFFFF" d="M147.4,23.8c0,0.1,0,0.3,0,0.4s0,0.3,0,0.4l-1.5,0v3.7c0,0.3,0.2,0.5,0.5,0.5h0.8c0.1,0.2,0.1,0.3,0.1,0.5
		s0,0.3,0,0.3c-0.5,0.1-0.9,0.1-1.3,0.1c-0.8,0-1.2-0.4-1.2-1.2v-3.9l-0.9,0c0-0.1,0-0.3,0-0.4s0-0.3,0-0.4l0.9,0v-1.1
		c0-0.3,0-0.5,0.1-0.6c0.1-0.1,0.3-0.2,0.5-0.2h0.4l0.1,0.1v1.8L147.4,23.8z"/>
	<path fill="#FFFFFF" d="M152.6,24.4c0.6,0.6,0.8,1.4,0.8,2.5s-0.3,1.9-0.8,2.5c-0.4,0.4-1,0.7-1.7,0.7s-1.3-0.2-1.7-0.7
		c-0.6-0.6-0.8-1.4-0.8-2.5s0.3-1.9,0.8-2.5c0.4-0.4,1-0.7,1.7-0.7S152.1,23.9,152.6,24.4z M149.5,26.8c0,1.5,0.5,2.2,1.4,2.2
		s1.4-0.7,1.4-2.2c0-0.4,0-0.8-0.1-1.1c-0.1-0.3-0.2-0.6-0.4-0.8c-0.2-0.2-0.5-0.3-0.8-0.3s-0.6,0.1-0.8,0.3
		c-0.2,0.2-0.4,0.5-0.4,0.8C149.5,26,149.5,26.4,149.5,26.8z"/>
	<path fill="#FFFFFF" d="M16.3,47.9c-0.7,0-1.2-0.3-1.5-0.8c-0.4-0.6-0.5-1.3-0.5-2.3c0-1,0.2-1.7,0.7-2.3c0.5-0.5,1-0.8,1.6-0.8
		c0.4,0,0.9,0.1,1.4,0.4V39L18,39h0.4c0.2,0,0.4,0.1,0.5,0.2c0.1,0.1,0.1,0.3,0.1,0.6v6.4c0,0.6,0.1,1,0.3,1.2
		c-0.1,0.3-0.2,0.5-0.5,0.6c-0.4-0.1-0.7-0.3-0.9-0.8C17.6,47.7,17,47.9,16.3,47.9z M16.5,47c0.5,0,1-0.3,1.4-0.8v-3
		c-0.4-0.3-0.9-0.5-1.2-0.5s-0.7,0.2-0.9,0.6c-0.2,0.4-0.4,0.9-0.4,1.6c0,0.7,0.1,1.2,0.3,1.6S16.2,47,16.5,47z"/>
	<path fill="#FFFFFF" d="M25.3,45.2h-3.6c0,0.6,0.1,1,0.4,1.3c0.2,0.3,0.6,0.5,1.1,0.5s1.1-0.2,1.7-0.5c0.2,0.2,0.3,0.4,0.4,0.8
		c-0.6,0.4-1.4,0.7-2.3,0.7c-0.9,0-1.5-0.3-1.9-0.9s-0.6-1.3-0.6-2.3s0.2-1.7,0.6-2.3c0.4-0.6,1-0.9,1.8-0.9c0.8,0,1.4,0.2,1.8,0.7
		c0.4,0.5,0.6,1.1,0.6,1.8C25.4,44.6,25.4,44.9,25.3,45.2z M24,43c-0.2-0.3-0.5-0.5-0.9-0.5s-0.7,0.2-0.9,0.5
		c-0.2,0.3-0.3,0.7-0.4,1.3h2.5v-0.2C24.3,43.7,24.2,43.3,24,43z"/>
	<path fill="#FFFFFF" d="M32,46.7h2.4c0,0.2,0,0.4,0,0.5c-0.1,0.4-0.3,0.6-0.8,0.6h-3.2c-0.2,0-0.4-0.1-0.5-0.2
		c-0.1-0.1-0.2-0.3-0.2-0.6v-7.4l0.1-0.1h0.5c0.2,0,0.4,0.1,0.5,0.2c0.1,0.1,0.1,0.3,0.1,0.6v6.5C31.4,46.8,31.7,46.7,32,46.7z"/>
	<path fill="#FFFFFF" d="M37,42.8v4.9c-0.1,0-0.3,0-0.6,0s-0.4,0-0.6,0v-4.5c0-0.2,0-0.4-0.1-0.5c-0.1-0.1-0.2-0.1-0.4-0.1h-0.1
		c0-0.1,0-0.3,0-0.4c0-0.2,0-0.3,0-0.4c0.3,0,0.5,0,0.7,0h0.2c0.3,0,0.5,0.1,0.7,0.3C37,42.3,37,42.5,37,42.8z M35.4,40.9l1.7-1.9
		c0.2,0.1,0.3,0.2,0.5,0.3c0.2,0.1,0.3,0.3,0.3,0.5l-2,1.6C35.6,41.2,35.5,41.1,35.4,40.9z"/>
	<path fill="#FFFFFF" d="M40.6,47.9c-0.7,0-1.2-0.3-1.5-0.8c-0.4-0.6-0.5-1.3-0.5-2.3c0-1,0.2-1.7,0.7-2.3c0.5-0.5,1-0.8,1.6-0.8
		c0.4,0,0.9,0.1,1.4,0.4V39l0.1-0.1h0.4c0.2,0,0.4,0.1,0.5,0.2c0.1,0.1,0.1,0.3,0.1,0.6v6.4c0,0.6,0.1,1,0.3,1.2
		c-0.1,0.3-0.2,0.5-0.5,0.6c-0.4-0.1-0.7-0.3-0.9-0.8C41.9,47.7,41.3,47.9,40.6,47.9z M40.8,47c0.5,0,1-0.3,1.4-0.8v-3
		c-0.4-0.3-0.9-0.5-1.2-0.5s-0.7,0.2-0.9,0.6c-0.2,0.4-0.4,0.9-0.4,1.6c0,0.7,0.1,1.2,0.3,1.6S40.5,47,40.8,47z"/>
	<path fill="#FFFFFF" d="M49.6,45.2h-3.6c0,0.6,0.1,1,0.4,1.3c0.2,0.3,0.6,0.5,1.1,0.5s1.1-0.2,1.7-0.5c0.2,0.2,0.3,0.4,0.4,0.8
		c-0.6,0.4-1.4,0.7-2.3,0.7c-0.9,0-1.5-0.3-1.9-0.9s-0.6-1.3-0.6-2.3s0.2-1.7,0.6-2.3c0.4-0.6,1-0.9,1.8-0.9c0.8,0,1.4,0.2,1.8,0.7
		c0.4,0.5,0.6,1.1,0.6,1.8C49.7,44.6,49.7,44.9,49.6,45.2z M48.3,43c-0.2-0.3-0.5-0.5-0.9-0.5s-0.7,0.2-0.9,0.5
		c-0.2,0.3-0.3,0.7-0.4,1.3h2.5v-0.2C48.6,43.7,48.5,43.3,48.3,43z"/>
	<path fill="#FFFFFF" d="M51,42.4c0.1-0.3,0.2-0.5,0.4-0.6c0.5,0.1,0.9,0.5,1,1.1c0.3-0.7,0.9-1.1,1.6-1.1c0.2,0,0.4,0,0.6,0.1
		c0,0.4-0.1,0.8-0.3,1.1c0,0-0.2,0-0.5,0c-0.6,0-1,0.3-1.3,0.9v3.9c-0.1,0-0.3,0-0.6,0s-0.4,0-0.6,0v-4.2
		C51.4,43.1,51.3,42.7,51,42.4z"/>
	<path fill="#FFFFFF" d="M60,45.2h-3.6c0,0.6,0.1,1,0.4,1.3c0.2,0.3,0.6,0.5,1.1,0.5s1.1-0.2,1.7-0.5c0.2,0.2,0.3,0.4,0.4,0.8
		c-0.6,0.4-1.4,0.7-2.3,0.7c-0.9,0-1.5-0.3-1.9-0.9s-0.6-1.3-0.6-2.3s0.2-1.7,0.6-2.3c0.4-0.6,1-0.9,1.8-0.9c0.8,0,1.4,0.2,1.8,0.7
		c0.4,0.5,0.6,1.1,0.6,1.8C60.1,44.6,60.1,44.9,60,45.2z M58.7,43c-0.2-0.3-0.5-0.5-0.9-0.5s-0.7,0.2-0.9,0.5
		c-0.2,0.3-0.3,0.7-0.4,1.3H59v-0.2C59,43.7,58.9,43.3,58.7,43z"/>
	<path fill="#FFFFFF" d="M61.1,47.3c0-0.1,0-0.3,0.1-0.4s0.2-0.3,0.3-0.4c0.7,0.4,1.2,0.5,1.6,0.5c0.4,0,0.7-0.1,0.9-0.2
		c0.2-0.1,0.3-0.3,0.3-0.6c0-0.4-0.3-0.7-0.8-0.9l-0.7-0.3c-1-0.4-1.5-0.9-1.5-1.7c0-0.5,0.2-1,0.6-1.3c0.4-0.3,0.9-0.5,1.6-0.5
		s1.3,0.1,1.9,0.4c0,0.2,0,0.3-0.1,0.5S65.1,42.9,65,43c-0.6-0.3-1.1-0.4-1.6-0.4c-0.3,0-0.5,0.1-0.7,0.2c-0.2,0.1-0.3,0.3-0.3,0.5
		c0,0.2,0.1,0.4,0.2,0.5s0.3,0.2,0.6,0.3l0.7,0.3c1,0.4,1.5,1,1.5,1.8c0,0.5-0.2,1-0.6,1.3c-0.4,0.3-1,0.5-1.7,0.5
		S61.8,47.7,61.1,47.3z"/>
	<path fill="#FFFFFF" d="M71.2,47.9c-0.7,0-1.2-0.3-1.5-0.8c-0.4-0.6-0.5-1.3-0.5-2.3c0-1,0.2-1.7,0.7-2.3c0.5-0.5,1-0.8,1.6-0.8
		c0.4,0,0.9,0.1,1.4,0.4V39l0.1-0.1h0.4c0.2,0,0.4,0.1,0.5,0.2c0.1,0.1,0.1,0.3,0.1,0.6v6.4c0,0.6,0.1,1,0.3,1.2
		c-0.1,0.3-0.2,0.5-0.5,0.6c-0.4-0.1-0.7-0.3-0.9-0.8C72.5,47.7,71.9,47.9,71.2,47.9z M71.5,47c0.5,0,1-0.3,1.4-0.8v-3
		c-0.4-0.3-0.9-0.5-1.2-0.5s-0.7,0.2-0.9,0.6c-0.2,0.4-0.4,0.9-0.4,1.6c0,0.7,0.1,1.2,0.3,1.6S71.1,47,71.5,47z"/>
	<path fill="#FFFFFF" d="M80.5,47.3c-0.1,0.3-0.2,0.5-0.5,0.6c-0.4-0.1-0.7-0.3-0.9-0.8c-0.6,0.6-1.2,0.8-1.8,0.8
		c-0.6,0-1.1-0.2-1.4-0.5c-0.3-0.4-0.5-0.8-0.5-1.2c0-0.7,0.2-1.1,0.6-1.5s1-0.5,1.7-0.5c0.4,0,0.8,0,1.2,0.1v-0.5
		c0-0.7-0.3-1.1-1-1.1c-0.5,0-1.2,0.2-1.9,0.5c-0.2-0.2-0.3-0.5-0.3-0.9c0.8-0.4,1.7-0.6,2.5-0.6c0.6,0,1.1,0.2,1.4,0.5
		c0.3,0.3,0.5,0.8,0.5,1.5v2.5C80.1,46.7,80.2,47.1,80.5,47.3z M77.5,47c0.5,0,1-0.3,1.5-0.8v-1.2c-0.3,0-0.7-0.1-1.1-0.1
		c-0.4,0-0.7,0.1-0.9,0.3c-0.2,0.2-0.3,0.4-0.3,0.7c0,0.3,0.1,0.5,0.2,0.7C77,46.9,77.2,47,77.5,47z"/>
	<path fill="#FFFFFF" d="M84.9,39.6l2.5,0c0.8,0,1.5,0.2,2,0.6c0.5,0.4,0.7,1,0.7,1.8c0,0.5-0.1,1-0.4,1.4S89,44,88.6,44.2
		c0.4,0.1,0.6,0.5,0.8,1l0.6,1.5c0.2,0.4,0.3,0.7,0.5,0.9c-0.2,0.2-0.4,0.4-0.8,0.4c-0.2,0-0.4-0.1-0.5-0.2
		c-0.1-0.1-0.2-0.3-0.3-0.6l-0.6-1.7c-0.1-0.3-0.3-0.6-0.5-0.7s-0.4-0.3-0.8-0.3h-1v3.3c-0.2,0-0.4,0-0.6,0s-0.4,0-0.6,0L84.9,39.6
		L84.9,39.6z M86,40.5v3c0.5,0,1,0,1.5,0s0.9-0.1,1.1-0.4c0.2-0.3,0.3-0.6,0.3-1.1c0-1-0.5-1.5-1.5-1.5C86.7,40.5,86.3,40.5,86,40.5
		z"/>
	<path fill="#FFFFFF" d="M95.7,42.4c0.6,0.6,0.8,1.4,0.8,2.5s-0.3,1.9-0.8,2.5c-0.4,0.4-1,0.7-1.7,0.7s-1.3-0.2-1.7-0.7
		c-0.6-0.6-0.8-1.4-0.8-2.5s0.3-1.9,0.8-2.5c0.4-0.4,1-0.7,1.7-0.7S95.3,41.9,95.7,42.4z M92.6,44.8c0,1.5,0.5,2.2,1.4,2.2
		s1.4-0.7,1.4-2.2c0-0.4,0-0.8-0.1-1.1c-0.1-0.3-0.2-0.6-0.4-0.8c-0.2-0.2-0.5-0.3-0.8-0.3s-0.6,0.1-0.8,0.3
		c-0.2,0.2-0.4,0.5-0.4,0.8C92.7,44,92.6,44.4,92.6,44.8z"/>
	<path fill="#FFFFFF" d="M99.7,47.9c-0.7,0-1.2-0.3-1.5-0.8c-0.4-0.6-0.5-1.3-0.5-2.3c0-1,0.2-1.7,0.7-2.3c0.5-0.5,1-0.8,1.6-0.8
		c0.4,0,0.9,0.1,1.4,0.4V39l0.1-0.1h0.4c0.2,0,0.4,0.1,0.5,0.2c0.1,0.1,0.1,0.3,0.1,0.6v6.4c0,0.6,0.1,1,0.3,1.2
		c-0.1,0.3-0.2,0.5-0.5,0.6c-0.4-0.1-0.7-0.3-0.9-0.8C101,47.7,100.4,47.9,99.7,47.9z M100,47c0.5,0,1-0.3,1.4-0.8v-3
		c-0.4-0.3-0.9-0.5-1.2-0.5s-0.7,0.2-0.9,0.6c-0.2,0.4-0.4,0.9-0.4,1.6c0,0.7,0.1,1.2,0.3,1.6S99.6,47,100,47z"/>
	<path fill="#FFFFFF" d="M108.3,42.4c0.6,0.6,0.8,1.4,0.8,2.5s-0.3,1.9-0.8,2.5c-0.4,0.4-1,0.7-1.7,0.7s-1.3-0.2-1.7-0.7
		c-0.6-0.6-0.8-1.4-0.8-2.5s0.3-1.9,0.8-2.5c0.4-0.4,1-0.7,1.7-0.7S107.9,41.9,108.3,42.4z M105.2,44.8c0,1.5,0.5,2.2,1.4,2.2
		s1.4-0.7,1.4-2.2c0-0.4,0-0.8-0.1-1.1c-0.1-0.3-0.2-0.6-0.4-0.8c-0.2-0.2-0.5-0.3-0.8-0.3s-0.6,0.1-0.8,0.3
		c-0.2,0.2-0.4,0.5-0.4,0.8C105.2,44,105.2,44.4,105.2,44.8z"/>
	<path fill="#FFFFFF" d="M113.5,41.8c0.6,0,1.1,0.3,1.5,0.8c0.4,0.5,0.5,1.3,0.5,2.2s-0.3,1.7-0.8,2.2s-1.1,0.8-1.9,0.8
		s-1.5-0.1-2.2-0.4V39l0.1-0.1h0.4c0.2,0,0.4,0.1,0.5,0.2c0.1,0.1,0.1,0.3,0.1,0.6v2.7C112.3,42,112.8,41.8,113.5,41.8z M113.2,42.7
		c-0.5,0-1,0.2-1.4,0.7v3.4c0.3,0.1,0.7,0.2,1.1,0.2s0.8-0.2,1-0.6c0.3-0.4,0.4-0.9,0.4-1.6c0-0.7-0.1-1.2-0.3-1.6
		S113.5,42.7,113.2,42.7z"/>
	<path fill="#FFFFFF" d="M121.3,45.2h-3.6c0,0.6,0.1,1,0.4,1.3c0.2,0.3,0.6,0.5,1.1,0.5s1.1-0.2,1.7-0.5c0.2,0.2,0.3,0.4,0.4,0.8
		c-0.6,0.4-1.4,0.7-2.3,0.7c-0.9,0-1.5-0.3-1.9-0.9s-0.6-1.3-0.6-2.3s0.2-1.7,0.6-2.3c0.4-0.6,1-0.9,1.8-0.9c0.8,0,1.4,0.2,1.8,0.7
		c0.4,0.5,0.6,1.1,0.6,1.8C121.4,44.6,121.4,44.9,121.3,45.2z M120,43c-0.2-0.3-0.5-0.5-0.9-0.5s-0.7,0.2-0.9,0.5
		c-0.2,0.3-0.3,0.7-0.4,1.3h2.5v-0.2C120.3,43.7,120.2,43.3,120,43z"/>
	<path fill="#FFFFFF" d="M127.7,43.7v2.8c0,0.5,0.1,0.8,0.2,1.1c-0.2,0.2-0.4,0.3-0.7,0.3c-0.4,0-0.6-0.2-0.6-0.7V44
		c0-0.4-0.1-0.7-0.2-0.9c-0.1-0.2-0.3-0.3-0.6-0.3c-0.3,0-0.6,0.1-0.9,0.2c-0.3,0.1-0.5,0.3-0.8,0.6v4.2c-0.1,0-0.3,0-0.6,0
		s-0.4,0-0.6,0v-5.9l0.1-0.1h0.4c0.4,0,0.6,0.3,0.6,0.8c0.6-0.5,1.2-0.8,1.9-0.8c0.5,0,0.9,0.2,1.2,0.5
		C127.5,42.7,127.7,43.1,127.7,43.7z"/>
	<path fill="#FFFFFF" d="M129,47.3c0-0.1,0-0.3,0.1-0.4s0.2-0.3,0.3-0.4c0.7,0.4,1.2,0.5,1.6,0.5c0.4,0,0.7-0.1,0.9-0.2
		c0.2-0.1,0.3-0.3,0.3-0.6c0-0.4-0.3-0.7-0.8-0.9l-0.7-0.3c-1-0.4-1.5-0.9-1.5-1.7c0-0.5,0.2-1,0.6-1.3c0.4-0.3,0.9-0.5,1.6-0.5
		s1.3,0.1,1.9,0.4c0,0.2,0,0.3-0.1,0.5s-0.2,0.3-0.3,0.4c-0.6-0.3-1.1-0.4-1.6-0.4c-0.3,0-0.5,0.1-0.7,0.2c-0.2,0.1-0.3,0.3-0.3,0.5
		c0,0.2,0.1,0.4,0.2,0.5s0.3,0.2,0.6,0.3l0.7,0.3c1,0.4,1.5,1,1.5,1.8c0,0.5-0.2,1-0.6,1.3c-0.4,0.3-1,0.5-1.7,0.5
		S129.6,47.7,129,47.3z"/>
	<path fill="#FFFFFF" d="M134.6,47.1c0-0.2,0-0.4,0.1-0.6c0.2-0.1,0.4-0.1,0.7-0.1c0.3,0,0.5,0,0.7,0.1c0.1,0.1,0.1,0.3,0.1,0.6
		s0,0.4-0.1,0.6c-0.2,0.1-0.4,0.1-0.7,0.1c-0.3,0-0.5,0-0.7-0.1C134.6,47.6,134.6,47.4,134.6,47.1z"/>
</g>
</svg>