<!-- Generator: Adobe Illustrator 17.1.0, SVG Export Plug-In  -->
<svg version="1.1"
	 xmlns="http://www.w3.org/2000/svg" xmlns:xlink="http://www.w3.org/1999/xlink" xmlns:a="http://ns.adobe.com/AdobeSVGViewerExtensions/3.0/"
	 x="0px" y="0px" width="201.8px" height="176.7px" viewBox="0 0 201.8 176.7" enable-background="new 0 0 201.8 176.7"
	 xml:space="preserve">
<defs>
</defs>
<g>
	<path fill="none" stroke="#FFFFFF" stroke-width="3" stroke-miterlimit="10" d="M162.4,131"/>
	<path fill="#FFFFFF" d="M106.2,174.6c-0.8,0-1.5-0.6-1.5-1.4c0-0.8,0.6-1.5,1.4-1.6c0.3,0,0.6,0,0.9-0.1c0.8-0.1,1.6,0.5,1.7,1.3
		s-0.5,1.6-1.3,1.7C107,174.6,106.6,174.6,106.2,174.6C106.2,174.6,106.2,174.6,106.2,174.6z M100.4,173.4c-0.2,0-0.5-0.1-0.7-0.2
		c-0.3-0.2-0.7-0.4-1-0.6c-0.7-0.5-0.9-1.4-0.4-2.1c0.5-0.7,1.4-0.9,2.1-0.4c0.2,0.2,0.5,0.3,0.7,0.4c0.7,0.4,1,1.3,0.6,2
		C101.5,173.1,100.9,173.4,100.4,173.4z M112.9,172.7c-0.5,0-1.1-0.3-1.3-0.8c-0.4-0.7-0.1-1.6,0.7-2c0.3-0.1,0.6-0.3,0.8-0.4
		c0.7-0.4,1.6-0.1,2,0.6c0.4,0.7,0.1,1.6-0.6,2c-0.3,0.2-0.6,0.3-0.9,0.5C113.3,172.7,113.1,172.7,112.9,172.7z M118.5,168.6
		c-0.4,0-0.7-0.1-1-0.4c-0.6-0.6-0.6-1.5-0.1-2.1c0.2-0.2,0.4-0.4,0.6-0.7c0.5-0.7,1.5-0.8,2.1-0.3c0.7,0.5,0.8,1.4,0.3,2.1
		c-0.2,0.3-0.5,0.6-0.7,0.9C119.3,168.5,118.9,168.6,118.5,168.6z M95.5,168.5c-0.5,0-1-0.3-1.3-0.7c-0.2-0.3-0.4-0.6-0.5-0.9
		c-0.4-0.7-0.1-1.6,0.6-2c0.7-0.4,1.6-0.1,2,0.6c0.1,0.3,0.3,0.5,0.5,0.8c0.4,0.7,0.2,1.6-0.5,2.1C96.1,168.5,95.8,168.5,95.5,168.5
		z M117.6,162.3c-0.7,0-1.3-0.4-1.4-1.1c-0.1-0.3-0.2-0.7-0.3-1c-0.2-0.8,0.3-1.6,1.1-1.8c0.8-0.2,1.6,0.3,1.8,1.1
		c0.1,0.3,0.1,0.6,0.2,0.9c0.2,0.8-0.3,1.6-1.1,1.8C117.8,162.3,117.7,162.3,117.6,162.3z M92.9,162.1c-0.7,0-1.3-0.4-1.4-1.1
		c-0.1-0.3-0.2-0.7-0.3-1c-0.2-0.8,0.3-1.6,1.1-1.8c0.8-0.2,1.6,0.3,1.8,1.1c0.1,0.3,0.2,0.6,0.2,0.9c0.2,0.8-0.2,1.6-1,1.8
		C93.1,162.1,93,162.1,92.9,162.1z M116.7,155.4c-0.8,0-1.5-0.7-1.5-1.5v-0.1c0-0.3,0-0.6,0-0.9c0-0.8,0.7-1.5,1.5-1.5
		c0.8,0,1.5,0.7,1.5,1.5c0,0.3,0,0.6,0,0.8v0.1C118.2,154.8,117.5,155.4,116.7,155.4z M91.5,155.2c-0.7,0-1.4-0.6-1.5-1.3
		c0-0.3-0.1-0.7-0.1-1c-0.1-0.8,0.5-1.6,1.3-1.6c0.8-0.1,1.6,0.5,1.6,1.3c0,0.3,0.1,0.7,0.1,1c0.1,0.8-0.5,1.6-1.3,1.7
		C91.7,155.2,91.6,155.2,91.5,155.2z M117.4,148.5c-0.1,0-0.2,0-0.3,0c-0.8-0.2-1.3-0.9-1.2-1.8c0.1-0.3,0.1-0.7,0.2-1
		c0.2-0.8,1-1.3,1.8-1.1c0.8,0.2,1.3,1,1.1,1.8c-0.1,0.3-0.1,0.6-0.2,0.9C118.7,148,118.1,148.5,117.4,148.5z M91,148.2
		c-0.8,0-1.5-0.6-1.5-1.5c0-0.3,0-0.6,0-1l1.5-0.1l1-1.1l0.5,0.4l0.1,0.7c0,0.3,0,0.6,0,0.9C92.6,147.5,91.9,148.2,91,148.2
		C91.1,148.2,91.1,148.2,91,148.2z M86.9,142.9c-0.5,0-0.9-0.2-1.2-0.6c-0.2-0.3-0.4-0.6-0.6-0.9c-0.5-0.7-0.3-1.6,0.4-2.1
		c0.7-0.5,1.6-0.3,2.1,0.4c0.2,0.3,0.4,0.5,0.5,0.8c0.5,0.7,0.3,1.6-0.3,2.1C87.5,142.8,87.2,142.9,86.9,142.9z M119.1,141.7
		c-0.1,0-0.3,0-0.4-0.1c-0.8-0.2-1.2-1.1-1-1.9l0.3-1c0.3-0.8,1.1-1.2,1.9-1c0.8,0.3,1.2,1.1,1,1.9l-0.3,0.9
		C120.4,141.3,119.8,141.7,119.1,141.7z M83.4,136.8c-0.6,0-1.1-0.3-1.4-0.9c-0.1-0.3-0.3-0.6-0.4-1c-0.3-0.8,0.1-1.6,0.9-1.9
		c0.8-0.3,1.6,0.1,1.9,0.8c0.1,0.3,0.2,0.6,0.4,0.9c0.3,0.8,0,1.6-0.8,2C83.8,136.8,83.6,136.8,83.4,136.8z M121.3,135.1
		c-0.2,0-0.3,0-0.5-0.1c-0.8-0.3-1.2-1.1-1-1.9l0.3-0.9c0.3-0.8,1.1-1.2,1.9-1c0.8,0.3,1.2,1.1,1,1.9l-0.3,1
		C122.5,134.7,121.9,135.1,121.3,135.1z M81.4,130.1c-0.7,0-1.3-0.5-1.5-1.2c-0.1-0.3-0.1-0.7-0.2-1c-0.1-0.8,0.4-1.6,1.2-1.7
		c0.8-0.1,1.6,0.4,1.7,1.2c0.1,0.3,0.1,0.6,0.2,0.9c0.2,0.8-0.4,1.6-1.2,1.8C81.6,130.1,81.5,130.1,81.4,130.1z M123.3,128.3
		c-0.1,0-0.2,0-0.3,0c-0.8-0.2-1.3-1-1.1-1.8c0.1-0.3,0.1-0.6,0.2-0.9c0.2-0.8,1-1.3,1.8-1.1c0.8,0.2,1.3,1,1.1,1.8
		c-0.1,0.3-0.1,0.7-0.2,1C124.6,127.9,124,128.3,123.3,128.3z M80.9,123.2C80.8,123.2,80.8,123.2,80.9,123.2c-0.9,0-1.5-0.8-1.5-1.6
		c0-0.4,0-0.7,0.1-1.1c0.1-0.8,0.8-1.4,1.6-1.3c0.8,0.1,1.4,0.8,1.3,1.6c0,0.3-0.1,0.6-0.1,0.9C82.3,122.6,81.7,123.2,80.9,123.2z
		 M124.2,121.4C124.2,121.4,124.2,121.4,124.2,121.4c-0.9,0-1.5-0.7-1.5-1.5l0-0.4c0-0.2,0-0.4,0-0.6c0-0.8,0.6-1.5,1.5-1.5
		c0.8,0,1.5,0.6,1.5,1.5c0,0.2,0,0.4,0,0.7l0,0.4C125.7,120.8,125.1,121.4,124.2,121.4z M127.7,117.3c-0.6,0-1.2-0.4-1.4-1.1
		c-0.2-0.8,0.2-1.6,1-1.9c0.3-0.1,0.6-0.2,0.9-0.3c0.8-0.3,1.6,0.1,1.9,0.9c0.3,0.8-0.1,1.6-0.9,1.9c-0.3,0.1-0.7,0.2-1,0.3
		C128,117.3,127.8,117.3,127.7,117.3z M82.4,116.4c-0.2,0-0.4,0-0.6-0.1c-0.8-0.3-1.1-1.2-0.8-2c0.1-0.3,0.3-0.7,0.5-1
		c0.4-0.7,1.3-1,2-0.6c0.7,0.4,1,1.3,0.6,2c-0.1,0.3-0.3,0.5-0.4,0.8C83.5,116,83,116.4,82.4,116.4z M134,114.3
		c-0.5,0-0.9-0.2-1.2-0.6c-0.5-0.7-0.3-1.6,0.3-2.1c0.2-0.2,0.5-0.4,0.7-0.6c0.6-0.5,1.6-0.4,2.1,0.2c0.5,0.6,0.4,1.6-0.2,2.1
		c-0.3,0.2-0.6,0.4-0.9,0.7C134.6,114.2,134.3,114.3,134,114.3z M86.7,111c-0.5,0-0.9-0.2-1.2-0.6c-0.5-0.7-0.3-1.6,0.4-2.1
		c0.3-0.2,0.6-0.4,0.9-0.6c0.7-0.4,1.6-0.2,2.1,0.5c0.4,0.7,0.2,1.6-0.5,2.1c-0.3,0.1-0.5,0.3-0.7,0.5C87.3,110.9,87,111,86.7,111z
		 M138.6,109.1c-0.2,0-0.5-0.1-0.7-0.2c-0.7-0.4-1-1.3-0.6-2c0.1-0.3,0.3-0.5,0.4-0.8c0.3-0.8,1.2-1.1,2-0.7c0.8,0.3,1.1,1.2,0.7,2
		c-0.2,0.3-0.3,0.7-0.5,1C139.6,108.9,139.1,109.1,138.6,109.1z M85,105.8c-0.5,0-0.9-0.2-1.2-0.6l-0.6-0.8
		c-0.5-0.7-0.3-1.6,0.3-2.1c0.7-0.5,1.6-0.3,2.1,0.3l0.6,0.8c0.5,0.7,0.3,1.6-0.3,2.1C85.6,105.7,85.3,105.8,85,105.8z M140.3,102.4
		C140.3,102.4,140.3,102.4,140.3,102.4c-0.8,0-1.5-0.7-1.5-1.5l0-0.1c0-0.3,0-0.5,0-0.8c0-0.8,0.6-1.5,1.4-1.6
		c0.8,0,1.5,0.6,1.6,1.4c0,0.3,0,0.6,0,0.9l0,0.2C141.8,101.8,141.1,102.4,140.3,102.4z M80.9,100c-0.5,0-1-0.2-1.3-0.7
		c-0.2-0.3-0.4-0.6-0.6-0.9c-0.4-0.7-0.2-1.6,0.5-2.1c0.7-0.4,1.6-0.2,2.1,0.5c0.2,0.3,0.3,0.5,0.5,0.8c0.5,0.7,0.3,1.6-0.4,2.1
		C81.5,100,81.2,100,80.9,100z M139,95.6c-0.6,0-1.2-0.4-1.4-1c-0.1-0.3-0.2-0.6-0.3-0.9c-0.3-0.8,0-1.6,0.8-2c0.8-0.3,1.6,0,2,0.8
		c0.1,0.3,0.3,0.7,0.4,1c0.3,0.8-0.1,1.6-0.9,1.9C139.4,95.6,139.2,95.6,139,95.6z M143.7,94.5c-0.8,0-1.5-0.6-1.5-1.4
		c0-0.8,0.6-1.5,1.4-1.6c0.3,0,0.6,0,0.9-0.1c0.8-0.1,1.6,0.5,1.7,1.3c0.1,0.8-0.5,1.6-1.3,1.7C144.5,94.5,144.1,94.5,143.7,94.5
		C143.7,94.5,143.7,94.5,143.7,94.5z M77.6,93.9c-0.6,0-1.2-0.4-1.4-1c-0.1-0.3-0.3-0.7-0.4-1c-0.3-0.8,0.1-1.6,0.9-1.9
		c0.8-0.3,1.6,0.1,1.9,0.9c0.1,0.3,0.2,0.6,0.3,0.9c0.3,0.8-0.1,1.6-0.9,1.9C78,93.9,77.8,93.9,77.6,93.9z M150.3,92.4
		c-0.5,0-1-0.2-1.2-0.7c-0.5-0.7-0.3-1.6,0.4-2.1c0.2-0.2,0.5-0.3,0.7-0.5c0.6-0.5,1.6-0.4,2.1,0.2c0.5,0.6,0.4,1.6-0.2,2.1
		c-0.3,0.2-0.6,0.5-0.9,0.7C150.8,92.3,150.5,92.4,150.3,92.4z M76.1,87.1c-0.8,0-1.4-0.6-1.5-1.4c0-0.3,0-0.7-0.1-1.1
		c0-0.8,0.6-1.5,1.4-1.6c0.8-0.1,1.5,0.6,1.6,1.4c0,0.3,0,0.6,0.1,0.9c0.1,0.8-0.6,1.5-1.4,1.6C76.2,87.1,76.1,87.1,76.1,87.1z
		 M154.6,87.1c-0.2,0-0.4,0-0.6-0.1c-0.8-0.3-1.1-1.2-0.7-2c0.1-0.3,0.2-0.6,0.4-0.8c0.3-0.8,1.2-1.2,1.9-0.9
		c0.8,0.3,1.2,1.2,0.9,1.9c-0.1,0.3-0.3,0.7-0.4,1C155.7,86.7,155.2,87.1,154.6,87.1z M156.3,80.3c0,0-0.1,0-0.1,0
		c-0.8-0.1-1.4-0.8-1.4-1.6c0-0.3,0-0.6,0.1-0.9c0-0.8,0.7-1.5,1.6-1.4c0.8,0,1.5,0.7,1.4,1.6c0,0.4,0,0.7-0.1,1.1
		C157.8,79.7,157.1,80.3,156.3,80.3z M76.3,80.1c-0.1,0-0.1,0-0.2,0c-0.8-0.1-1.4-0.8-1.3-1.7c0-0.3,0.1-0.7,0.1-1
		c0.1-0.8,0.9-1.4,1.7-1.3c0.8,0.1,1.4,0.9,1.3,1.7c0,0.3-0.1,0.6-0.1,1C77.7,79.6,77.1,80.1,76.3,80.1z M73.9,75.6
		c-0.1,0-0.2,0-0.4,0c-0.3-0.1-0.7-0.2-1-0.3c-0.8-0.2-1.3-1.1-1-1.9c0.2-0.8,1.1-1.3,1.9-1c0.3,0.1,0.6,0.2,0.9,0.3
		c0.8,0.2,1.3,1,1.1,1.8C75.2,75.2,74.5,75.6,73.9,75.6z M156,73.3c-0.7,0-1.3-0.5-1.5-1.2c-0.1-0.3-0.1-0.6-0.2-0.9
		c-0.2-0.8,0.3-1.6,1.2-1.8c0.8-0.2,1.6,0.3,1.8,1.2c0.1,0.3,0.1,0.7,0.2,1c0.1,0.8-0.4,1.6-1.2,1.7C156.2,73.3,156.1,73.3,156,73.3
		z M67.4,73.1c-0.2,0-0.5-0.1-0.7-0.2c-0.3-0.2-0.6-0.3-0.9-0.5c-0.7-0.4-0.9-1.4-0.5-2.1c0.4-0.7,1.4-0.9,2.1-0.5
		c0.3,0.2,0.5,0.3,0.8,0.5c0.7,0.4,1,1.3,0.6,2C68.4,72.8,67.9,73.1,67.4,73.1z M61.8,68.9c-0.4,0-0.8-0.2-1.1-0.5
		c-0.2-0.3-0.5-0.5-0.7-0.8c-0.5-0.6-0.5-1.6,0.1-2.1c0.6-0.5,1.6-0.5,2.1,0.1c0.2,0.2,0.4,0.5,0.6,0.7c0.6,0.6,0.6,1.5,0,2.1
		C62.6,68.7,62.2,68.9,61.8,68.9z M153.9,66.7c-0.5,0-1.1-0.3-1.3-0.8c-0.1-0.3-0.3-0.5-0.4-0.8c-0.4-0.7-0.2-1.6,0.5-2.1
		c0.7-0.4,1.6-0.2,2.1,0.5c0.2,0.3,0.4,0.6,0.5,1c0.4,0.7,0.1,1.6-0.6,2C154.3,66.6,154.1,66.7,153.9,66.7z M57.8,63.2
		c-0.6,0-1.1-0.3-1.3-0.8c-0.2-0.3-0.3-0.6-0.5-1c-0.3-0.8,0-1.6,0.8-2c0.8-0.3,1.6,0,2,0.8c0.1,0.3,0.3,0.6,0.4,0.8
		c0.4,0.7,0.1,1.6-0.7,2C58.3,63.1,58.1,63.2,57.8,63.2z M156.9,62.7c-0.5,0-0.9-0.2-1.2-0.6c-0.5-0.7-0.4-1.6,0.3-2.1
		c0.2-0.2,0.4-0.3,0.6-0.5c0.6-0.6,1.5-0.6,2.1,0c0.6,0.6,0.6,1.5,0,2.1c-0.3,0.3-0.6,0.5-0.9,0.8C157.5,62.6,157.2,62.7,156.9,62.7
		z M159.2,56.5c-0.7,0-1.3-0.5-1.5-1.2c-0.1-0.3-0.1-0.5-0.2-0.8c-0.3-0.8,0.2-1.6,0.9-1.9c0.8-0.3,1.6,0.2,1.9,0.9
		c0.1,0.4,0.2,0.7,0.3,1.1c0.2,0.8-0.3,1.6-1.1,1.8C159.4,56.5,159.3,56.5,159.2,56.5z M55.7,56.5c-0.7,0-1.4-0.5-1.5-1.3
		c-0.1-0.4-0.1-0.7-0.1-1.1c-0.1-0.8,0.5-1.6,1.3-1.7c0.8-0.1,1.6,0.5,1.7,1.3c0,0.3,0.1,0.6,0.1,0.9c0.1,0.8-0.4,1.6-1.2,1.7
		C55.8,56.5,55.8,56.5,55.7,56.5z M155.9,50.4c-0.4,0-0.9-0.2-1.2-0.6c-0.2-0.2-0.4-0.5-0.6-0.7c-0.5-0.6-0.5-1.6,0.2-2.1
		c0.6-0.5,1.6-0.5,2.1,0.2c0.2,0.3,0.4,0.5,0.7,0.8c0.5,0.7,0.4,1.6-0.2,2.1C156.6,50.3,156.3,50.4,155.9,50.4z M55.3,49.6
		c-0.5,0-0.9-0.2-1.2-0.6c-0.2-0.3-0.4-0.6-0.6-0.9c-0.4-0.7-0.2-1.6,0.5-2.1c0.7-0.4,1.6-0.2,2.1,0.5c0.2,0.3,0.3,0.5,0.5,0.8
		c0.5,0.7,0.3,1.6-0.3,2.1C55.9,49.6,55.6,49.6,55.3,49.6z M151.1,45.3c-0.4,0-0.7-0.1-1-0.4c-0.2-0.2-0.5-0.4-0.7-0.7
		c-0.6-0.5-0.7-1.5-0.1-2.1c0.5-0.6,1.5-0.7,2.1-0.1c0.3,0.2,0.5,0.5,0.8,0.7c0.6,0.6,0.7,1.5,0.1,2.1
		C151.9,45.2,151.5,45.3,151.1,45.3z M52.5,43.3c-0.7,0-1.3-0.5-1.5-1.2c-0.1-0.4-0.1-0.7-0.2-1.1c-0.1-0.8,0.4-1.6,1.3-1.7
		c0.8-0.1,1.6,0.4,1.7,1.3c0,0.3,0.1,0.6,0.2,0.9c0.2,0.8-0.4,1.6-1.2,1.8C52.7,43.3,52.6,43.3,52.5,43.3z M145.7,40.9
		c-0.3,0-0.6-0.1-0.9-0.3l-0.5-0.3l-0.2-0.3c-0.1-0.2-0.2-0.4-0.4-0.6c-0.4-0.7-0.2-1.6,0.5-2.1c0.7-0.4,1.6-0.2,2.1,0.5
		c0.1,0.1,0.2,0.3,0.3,0.4c0.6,0.5,0.8,1.4,0.3,2.1C146.6,40.7,146.2,40.9,145.7,40.9z M52.5,36.3c-0.1,0-0.2,0-0.3,0
		c-0.8-0.2-1.3-1-1.2-1.8c0.1-0.4,0.2-0.7,0.2-1.1c0.2-0.8,1-1.3,1.8-1.1c0.8,0.2,1.3,1,1.1,1.8c-0.1,0.3-0.1,0.6-0.2,0.9
		C53.8,35.8,53.2,36.3,52.5,36.3z M141.2,35.6c-0.3,0-0.7-0.1-1-0.4c-0.2-0.2-0.5-0.4-0.7-0.6c-0.7-0.5-0.8-1.4-0.3-2.1
		c0.5-0.7,1.4-0.8,2.1-0.3c0.3,0.2,0.6,0.4,0.8,0.7c0.6,0.5,0.7,1.5,0.2,2.1C142,35.4,141.6,35.6,141.2,35.6z M135.2,32.1
		c-0.2,0-0.4,0-0.5-0.1c-0.3-0.1-0.6-0.2-0.9-0.3c-0.8-0.3-1.2-1.1-1-1.9s1.1-1.2,1.9-1c0.3,0.1,0.7,0.2,1,0.4
		c0.8,0.3,1.2,1.2,0.9,1.9C136.4,31.7,135.8,32.1,135.2,32.1z M120.4,30.9c-0.7,0-1.3-0.5-1.5-1.2c-0.2-0.8,0.3-1.6,1.1-1.8
		c0,0,0.4-0.1,1.1-0.2c0.8-0.1,1.6,0.4,1.7,1.3c0.1,0.8-0.4,1.6-1.3,1.7c-0.5,0.1-0.9,0.1-0.9,0.2C120.6,30.9,120.5,30.9,120.4,30.9
		z M128.4,30.6c0,0-0.1,0-0.1,0c-0.3,0-0.6,0-0.9-0.1c-0.8,0-1.5-0.7-1.4-1.6c0-0.8,0.8-1.5,1.6-1.4c0.3,0,0.7,0,1.1,0.1
		c0.8,0.1,1.4,0.8,1.4,1.6C129.8,30,129.1,30.6,128.4,30.6z M55.2,30c-0.3,0-0.6-0.1-0.9-0.3c-0.7-0.5-0.8-1.4-0.3-2.1
		c0.2-0.3,0.4-0.6,0.7-0.9c0.5-0.6,1.5-0.7,2.1-0.2c0.6,0.5,0.7,1.5,0.2,2.1c-0.2,0.2-0.4,0.5-0.6,0.7C56.2,29.7,55.7,30,55.2,30z
		 M60.3,25.2c-0.5,0-1-0.2-1.3-0.7c-0.4-0.7-0.2-1.6,0.5-2.1c0.3-0.2,0.6-0.4,0.9-0.5c0.7-0.4,1.6-0.1,2,0.6c0.4,0.7,0.1,1.6-0.6,2
		c-0.3,0.2-0.5,0.3-0.8,0.5C60.9,25.2,60.6,25.2,60.3,25.2z M66.8,22.6c-0.7,0-1.3-0.5-1.5-1.1c-0.2-0.8,0.3-1.6,1.1-1.8
		c0.3-0.1,0.7-0.2,1-0.2c0.8-0.2,1.6,0.3,1.8,1.2c0.2,0.8-0.3,1.6-1.2,1.8c-0.3,0.1-0.6,0.1-0.9,0.2C67,22.5,66.9,22.6,66.8,22.6z"
		/>
	<g>
		<path fill-rule="evenodd" clip-rule="evenodd" fill="#B5191D" d="M117.9,115.5c0-3,2.4-5.4,5.4-5.4c3,0,5.4,2.4,5.4,5.4
			c0,3-2.4,5.4-5.4,5.4C120.3,120.9,117.9,118.5,117.9,115.5L117.9,115.5z"/>
		<path fill="#FFFFFF" d="M123.3,121.9c-3.6,0-6.4-2.9-6.4-6.4c0-3.6,2.9-6.4,6.4-6.4s6.4,2.9,6.4,6.4
			C129.7,119,126.9,121.9,123.3,121.9z M123.3,111c-2.5,0-4.4,2-4.4,4.4c0,2.5,2,4.4,4.4,4.4s4.4-2,4.4-4.4
			C127.7,113,125.8,111,123.3,111z"/>
	</g>
	<g>
		<path fill-rule="evenodd" clip-rule="evenodd" fill="#0089CE" d="M132,91.6c0-3,2.4-5.4,5.4-5.4c3,0,5.4,2.4,5.4,5.4
			c0,3-2.4,5.4-5.4,5.4C134.4,97,132,94.6,132,91.6L132,91.6z"/>
		<path fill="#FFFFFF" d="M137.4,98c-3.6,0-6.4-2.9-6.4-6.4c0-3.6,2.9-6.4,6.4-6.4s6.4,2.9,6.4,6.4C143.9,95.1,141,98,137.4,98z
			 M137.4,87.1c-2.5,0-4.4,2-4.4,4.4c0,2.5,2,4.4,4.4,4.4s4.4-2,4.4-4.4C141.9,89.1,139.9,87.1,137.4,87.1z"/>
	</g>
	<g>
		<path fill-rule="evenodd" clip-rule="evenodd" fill="#B5191D" d="M115.4,165.7c0-3,2.4-5.4,5.4-5.4c3,0,5.4,2.4,5.4,5.4
			c0,3-2.4,5.4-5.4,5.4C117.8,171.2,115.4,168.7,115.4,165.7L115.4,165.7z"/>
		<path fill="#FFFFFF" d="M120.8,172.2c-3.6,0-6.4-2.9-6.4-6.4c0-3.6,2.9-6.4,6.4-6.4c3.6,0,6.4,2.9,6.4,6.4
			C127.3,169.3,124.4,172.2,120.8,172.2z M120.8,161.3c-2.5,0-4.4,2-4.4,4.4c0,2.5,2,4.4,4.4,4.4c2.5,0,4.4-2,4.4-4.4
			C125.3,163.3,123.3,161.3,120.8,161.3z"/>
	</g>
	<g>
		<path fill-rule="evenodd" clip-rule="evenodd" fill="#B5191D" d="M85.1,144.5c0-3,2.4-5.4,5.4-5.4c3,0,5.4,2.4,5.4,5.4
			c0,3-2.4,5.4-5.4,5.4C87.6,150,85.1,147.5,85.1,144.5L85.1,144.5z"/>
		<path fill="#FFFFFF" d="M90.6,151c-3.6,0-6.4-2.9-6.4-6.4c0-3.6,2.9-6.4,6.4-6.4c3.6,0,6.4,2.9,6.4,6.4
			C97,148.1,94.1,151,90.6,151z M90.6,140.1c-2.5,0-4.4,2-4.4,4.4c0,2.5,2,4.4,4.4,4.4c2.5,0,4.4-2,4.4-4.4
			C95,142.1,93,140.1,90.6,140.1z"/>
	</g>
	<g>
		<path fill-rule="evenodd" clip-rule="evenodd" fill="#0089CE" d="M80.7,108.5c0-3,2.4-5.4,5.4-5.4c3,0,5.4,2.4,5.4,5.4
			c0,3-2.4,5.4-5.4,5.4C83.2,113.9,80.7,111.5,80.7,108.5L80.7,108.5z"/>
		<path fill="#FFFFFF" d="M86.2,114.9c-3.6,0-6.4-2.9-6.4-6.4c0-3.6,2.9-6.4,6.4-6.4c3.6,0,6.4,2.9,6.4,6.4
			C92.6,112,89.7,114.9,86.2,114.9z M86.2,104c-2.5,0-4.4,2-4.4,4.4c0,2.5,2,4.4,4.4,4.4c2.5,0,4.4-2,4.4-4.4
			C90.6,106,88.6,104,86.2,104z"/>
	</g>
	<g>
		<path fill-rule="evenodd" clip-rule="evenodd" fill="#B5191D" d="M48.3,47.3c0-3,2.4-5.4,5.4-5.4c3,0,5.4,2.4,5.4,5.4
			c0,3-2.4,5.4-5.4,5.4C50.7,52.8,48.3,50.3,48.3,47.3L48.3,47.3z"/>
		<path fill="#FFFFFF" d="M53.8,53.8c-3.6,0-6.4-2.9-6.4-6.4s2.9-6.4,6.4-6.4c3.6,0,6.4,2.9,6.4,6.4S57.3,53.8,53.8,53.8z
			 M53.8,42.9c-2.5,0-4.4,2-4.4,4.4s2,4.4,4.4,4.4c2.5,0,4.4-2,4.4-4.4S56.2,42.9,53.8,42.9z"/>
	</g>
	<g>
		<path fill-rule="evenodd" clip-rule="evenodd" fill="#B5191D" d="M71.9,73.9c0-3,2.4-5.4,5.4-5.4c3,0,5.4,2.4,5.4,5.4
			c0,3-2.4,5.4-5.4,5.4C74.3,79.4,71.9,77,71.9,73.9L71.9,73.9z"/>
		<path fill="#FFFFFF" d="M77.3,80.4c-3.6,0-6.4-2.9-6.4-6.4s2.9-6.4,6.4-6.4s6.4,2.9,6.4,6.4S80.9,80.4,77.3,80.4z M77.3,69.5
			c-2.5,0-4.4,2-4.4,4.4s2,4.4,4.4,4.4s4.4-2,4.4-4.4S79.8,69.5,77.3,69.5z"/>
	</g>
	<g>
		<path fill="#F1CA12" d="M115,28.2c0-3,2.4-5.5,5.4-5.5c3,0,5.4,2.5,5.4,5.5s-2.4,5.5-5.4,5.5C117.4,33.7,115,31.2,115,28.2
			L115,28.2z"/>
		<path fill="#FFFFFF" d="M120.4,34.7c-3.6,0-6.4-2.9-6.4-6.5c0-3.6,2.9-6.5,6.4-6.5s6.4,2.9,6.4,6.5
			C126.9,31.8,124,34.7,120.4,34.7z M120.4,23.7c-2.5,0-4.4,2-4.4,4.5s2,4.5,4.4,4.5s4.4-2,4.4-4.5S122.9,23.7,120.4,23.7z"/>
	</g>
	<g>
		<path fill="#F1CA12" d="M140,39.3c0-3,2.4-5.4,5.4-5.4c3,0,5.4,2.4,5.4,5.4s-2.4,5.4-5.4,5.4C142.5,44.8,140,42.3,140,39.3
			L140,39.3z"/>
		<path fill="#FFFFFF" d="M145.5,45.8c-3.6,0-6.4-2.9-6.4-6.4s2.9-6.4,6.4-6.4c3.6,0,6.4,2.9,6.4,6.4S149,45.8,145.5,45.8z
			 M145.5,34.9c-2.5,0-4.4,2-4.4,4.4s2,4.4,4.4,4.4c2.5,0,4.4-2,4.4-4.4S147.9,34.9,145.5,34.9z"/>
	</g>
	<g>
		<path fill="#75AC40" d="M146.1,64.2c0-3,2.4-5.4,5.4-5.4s5.4,2.4,5.4,5.4c0,3-2.4,5.4-5.4,5.4S146.1,67.2,146.1,64.2L146.1,64.2z"
			/>
		<path fill="#FFFFFF" d="M151.6,70.7c-3.6,0-6.4-2.9-6.4-6.4c0-3.6,2.9-6.4,6.4-6.4c3.6,0,6.4,2.9,6.4,6.4
			C158,67.8,155.1,70.7,151.6,70.7z M151.6,59.8c-2.5,0-4.4,2-4.4,4.4c0,2.5,2,4.4,4.4,4.4c2.5,0,4.4-2,4.4-4.4
			C156,61.8,154,59.8,151.6,59.8z"/>
	</g>
	<g>
		<path fill="#FFFFFF" d="M124.1,6.2c-0.3,0.1-0.9,0.3-1.6,0.3c-1.7,0-3-1.1-3-3.1c0-1.9,1.3-3.2,3.2-3.2c0.8,0,1.2,0.2,1.4,0.3
			L124,1.1c-0.3-0.1-0.7-0.3-1.2-0.3c-1.4,0-2.4,0.9-2.4,2.5c0,1.5,0.9,2.4,2.3,2.4c0.5,0,1-0.1,1.3-0.3L124.1,6.2z"/>
		<path fill="#FFFFFF" d="M128.6,5.2c0,0.5,0,0.8,0,1.2H128l0-0.7h0c-0.2,0.4-0.7,0.8-1.4,0.8c-0.7,0-1.5-0.4-1.5-1.9V2h0.8v2.4
			c0,0.8,0.3,1.4,1,1.4c0.5,0,0.9-0.4,1-0.7c0-0.1,0.1-0.3,0.1-0.4V2h0.8V5.2z"/>
		<path fill="#FFFFFF" d="M129.9,0h0.8v6.4h-0.8V0z"/>
		<path fill="#FFFFFF" d="M133,0.8V2h1.1v0.6H133V5c0,0.5,0.2,0.8,0.6,0.8c0.2,0,0.4,0,0.5-0.1l0,0.6c-0.2,0.1-0.4,0.1-0.7,0.1
			c-0.4,0-0.7-0.1-0.9-0.3c-0.2-0.2-0.3-0.6-0.3-1.1V2.6h-0.7V2h0.7V1L133,0.8z"/>
		<path fill="#FFFFFF" d="M138.7,5.2c0,0.5,0,0.8,0,1.2H138l0-0.7h0c-0.2,0.4-0.7,0.8-1.4,0.8c-0.7,0-1.5-0.4-1.5-1.9V2h0.8v2.4
			c0,0.8,0.3,1.4,1,1.4c0.5,0,0.9-0.4,1-0.7c0-0.1,0.1-0.3,0.1-0.4V2h0.8V5.2z"/>
		<path fill="#FFFFFF" d="M140,3.4c0-0.5,0-1,0-1.4h0.7l0,0.9h0c0.2-0.6,0.7-1,1.2-1c0.1,0,0.2,0,0.2,0v0.7c-0.1,0-0.2,0-0.3,0
			c-0.6,0-1,0.4-1.1,1c0,0.1,0,0.2,0,0.4v2.3H140V3.4z"/>
		<path fill="#FFFFFF" d="M145.3,6.4l-0.1-0.5h0c-0.2,0.3-0.7,0.6-1.3,0.6c-0.9,0-1.3-0.6-1.3-1.3c0-1.1,0.9-1.6,2.6-1.6V3.5
			c0-0.4-0.1-1-1-1c-0.4,0-0.8,0.1-1.1,0.3l-0.2-0.5c0.4-0.2,0.9-0.4,1.4-0.4c1.3,0,1.7,0.9,1.7,1.8v1.6c0,0.4,0,0.7,0.1,1H145.3z
			 M145.2,4.2c-0.9,0-1.8,0.1-1.8,1c0,0.5,0.3,0.8,0.7,0.8c0.6,0,0.9-0.4,1.1-0.7c0-0.1,0-0.2,0-0.3V4.2z"/>
		<path fill="#FFFFFF" d="M114.6,9.4c0.4-0.1,1-0.1,1.5-0.1c0.8,0,1.4,0.2,1.8,0.5c0.3,0.3,0.5,0.7,0.5,1.2c0,0.8-0.5,1.3-1.1,1.5v0
			c0.5,0.2,0.7,0.6,0.9,1.2c0.2,0.8,0.3,1.4,0.5,1.7h-0.8c-0.1-0.2-0.2-0.7-0.4-1.4c-0.2-0.8-0.5-1.2-1.2-1.2h-0.7v2.6h-0.8V9.4z
			 M115.4,12.2h0.8c0.8,0,1.4-0.5,1.4-1.2c0-0.8-0.6-1.1-1.4-1.1c-0.4,0-0.6,0-0.8,0.1V12.2z"/>
		<path fill="#FFFFFF" d="M123.4,13.2c0,1.6-1.1,2.3-2.2,2.3c-1.2,0-2.1-0.9-2.1-2.2c0-1.5,1-2.3,2.2-2.3
			C122.5,10.9,123.4,11.8,123.4,13.2z M119.9,13.2c0,1,0.5,1.7,1.3,1.7c0.8,0,1.3-0.7,1.3-1.7c0-0.7-0.4-1.7-1.3-1.7
			C120.3,11.5,119.9,12.4,119.9,13.2z"/>
		<path fill="#FFFFFF" d="M128.1,9v5.3c0,0.4,0,0.8,0,1.1h-0.7l0-0.8h0c-0.2,0.5-0.8,0.9-1.5,0.9c-1.1,0-1.9-0.9-1.9-2.2
			c0-1.5,0.9-2.3,2-2.3c0.7,0,1.1,0.3,1.3,0.7h0V9H128.1z M127.3,12.8c0-0.1,0-0.2,0-0.3c-0.1-0.5-0.5-0.9-1.1-0.9
			c-0.8,0-1.3,0.7-1.3,1.7c0,0.9,0.4,1.6,1.3,1.6c0.5,0,1-0.4,1.2-0.9c0-0.1,0-0.2,0-0.3V12.8z"/>
		<path fill="#FFFFFF" d="M133.4,13.2c0,1.6-1.1,2.3-2.2,2.3c-1.2,0-2.1-0.9-2.1-2.2c0-1.5,1-2.3,2.2-2.3
			C132.5,10.9,133.4,11.8,133.4,13.2z M129.9,13.2c0,1,0.5,1.7,1.3,1.7c0.8,0,1.3-0.7,1.3-1.7c0-0.7-0.4-1.7-1.3-1.7
			C130.3,11.5,129.9,12.4,129.9,13.2z"/>
		<path fill="#FFFFFF" d="M134.3,15.4c0-0.3,0-0.7,0-1.1V9h0.8v2.7h0c0.3-0.5,0.8-0.8,1.5-0.8c1.1,0,1.8,0.9,1.8,2.2
			c0,1.6-1,2.3-2,2.3c-0.6,0-1.1-0.2-1.5-0.8h0l0,0.7H134.3z M135.2,13.6c0,0.1,0,0.2,0,0.3c0.2,0.5,0.6,0.9,1.2,0.9
			c0.8,0,1.3-0.7,1.3-1.7c0-0.9-0.5-1.6-1.3-1.6c-0.5,0-1,0.4-1.2,1c0,0.1,0,0.2,0,0.3V13.6z"/>
		<path fill="#FFFFFF" d="M139.9,13.4c0,1.1,0.7,1.5,1.5,1.5c0.6,0,0.9-0.1,1.2-0.2l0.1,0.6c-0.3,0.1-0.8,0.3-1.4,0.3
			c-1.3,0-2.1-0.9-2.1-2.2s0.8-2.3,2-2.3c1.4,0,1.8,1.3,1.8,2.1c0,0.2,0,0.3,0,0.4H139.9z M142.3,12.8c0-0.5-0.2-1.3-1.1-1.3
			c-0.8,0-1.2,0.7-1.2,1.3H142.3z"/>
		<path fill="#FFFFFF" d="M144,12.2c0-0.5,0-0.8,0-1.2h0.7l0,0.7h0c0.2-0.4,0.7-0.8,1.4-0.8c0.6,0,1.5,0.4,1.5,1.9v2.6h-0.8v-2.5
			c0-0.7-0.3-1.3-1-1.3c-0.5,0-0.9,0.4-1.1,0.8c0,0.1-0.1,0.2-0.1,0.4v2.6H144V12.2z"/>
		<path fill="#FFFFFF" d="M148.9,14.6c0.2,0.2,0.6,0.3,1,0.3c0.6,0,0.8-0.3,0.8-0.6c0-0.4-0.2-0.6-0.8-0.8c-0.8-0.3-1.2-0.7-1.2-1.2
			c0-0.7,0.6-1.3,1.5-1.3c0.4,0,0.8,0.1,1.1,0.3l-0.2,0.6c-0.2-0.1-0.5-0.3-0.9-0.3c-0.5,0-0.7,0.3-0.7,0.6c0,0.4,0.3,0.5,0.8,0.7
			c0.8,0.3,1.1,0.7,1.1,1.3c0,0.8-0.6,1.3-1.6,1.3c-0.5,0-0.9-0.1-1.2-0.3L148.9,14.6z"/>
	</g>
	<g>
		<path fill="#FFFFFF" d="M159.8,27.7c0.4,0.2,0.9,0.4,1.4,0.4c0.8,0,1.3-0.4,1.3-1c0-0.6-0.3-0.9-1.1-1.2c-1-0.4-1.6-0.9-1.6-1.7
			c0-0.9,0.8-1.6,2-1.6c0.6,0,1.1,0.1,1.3,0.3l-0.2,0.6c-0.2-0.1-0.6-0.3-1.2-0.3c-0.8,0-1.1,0.5-1.1,0.9c0,0.6,0.4,0.8,1.2,1.2
			c1,0.4,1.5,0.9,1.5,1.8c0,0.9-0.7,1.7-2.1,1.7c-0.6,0-1.2-0.2-1.5-0.4L159.8,27.7z"/>
		<path fill="#FFFFFF" d="M165.2,23c0,0.3-0.2,0.5-0.5,0.5c-0.3,0-0.5-0.2-0.5-0.5c0-0.3,0.2-0.5,0.5-0.5
			C165,22.5,165.2,22.8,165.2,23z M164.3,28.6v-4.4h0.8v4.4H164.3z"/>
		<path fill="#FFFFFF" d="M166.4,25.4c0-0.5,0-0.8,0-1.2h0.7l0,0.7h0c0.2-0.4,0.7-0.8,1.4-0.8c0.6,0,1.5,0.4,1.5,1.9v2.6h-0.8v-2.5
			c0-0.7-0.3-1.3-1-1.3c-0.5,0-0.9,0.4-1.1,0.8c0,0.1-0.1,0.2-0.1,0.4v2.6h-0.8V25.4z"/>
		<path fill="#FFFFFF" d="M171.8,26.6c0,1.1,0.7,1.5,1.5,1.5c0.6,0,0.9-0.1,1.2-0.2l0.1,0.6c-0.3,0.1-0.8,0.3-1.4,0.3
			c-1.3,0-2.1-0.9-2.1-2.2s0.8-2.3,2-2.3c1.4,0,1.8,1.3,1.8,2.1c0,0.2,0,0.3,0,0.4H171.8z M174.2,26c0-0.5-0.2-1.3-1.1-1.3
			c-0.8,0-1.2,0.7-1.2,1.3H174.2z"/>
		<path fill="#FFFFFF" d="M175.9,25.6c0-0.5,0-1,0-1.4h0.7l0,0.9h0c0.2-0.6,0.7-1,1.2-1c0.1,0,0.2,0,0.2,0v0.7c-0.1,0-0.2,0-0.3,0
			c-0.6,0-1,0.4-1.1,1c0,0.1,0,0.2,0,0.4v2.3h-0.8V25.6z"/>
		<path fill="#FFFFFF" d="M182.5,24.3c0,0.3,0,0.7,0,1.2V28c0,1-0.2,1.6-0.6,2c-0.4,0.4-1,0.5-1.6,0.5c-0.5,0-1.1-0.1-1.4-0.4
			l0.2-0.6c0.3,0.2,0.7,0.3,1.3,0.3c0.8,0,1.4-0.4,1.4-1.5v-0.5h0c-0.2,0.4-0.7,0.7-1.4,0.7c-1.1,0-1.9-0.9-1.9-2.1
			c0-1.5,1-2.3,2-2.3c0.8,0,1.2,0.4,1.4,0.8h0l0-0.7H182.5z M181.7,26c0-0.1,0-0.3,0-0.4c-0.1-0.5-0.5-0.8-1.1-0.8
			c-0.8,0-1.3,0.6-1.3,1.6c0,0.9,0.4,1.6,1.3,1.6c0.5,0,0.9-0.3,1.1-0.8c0-0.1,0.1-0.3,0.1-0.4V26z"/>
		<path fill="#FFFFFF" d="M184.6,23c0,0.3-0.2,0.5-0.5,0.5c-0.3,0-0.5-0.2-0.5-0.5c0-0.3,0.2-0.5,0.5-0.5
			C184.5,22.5,184.6,22.8,184.6,23z M183.8,28.6v-4.4h0.8v4.4H183.8z"/>
		<path fill="#FFFFFF" d="M188.3,28.6l-0.1-0.5h0c-0.2,0.3-0.7,0.6-1.3,0.6c-0.9,0-1.3-0.6-1.3-1.3c0-1.1,0.9-1.6,2.6-1.6v-0.1
			c0-0.4-0.1-1-1-1c-0.4,0-0.8,0.1-1.1,0.3l-0.2-0.5c0.4-0.2,0.9-0.4,1.4-0.4c1.3,0,1.7,0.9,1.7,1.8v1.6c0,0.4,0,0.7,0.1,1H188.3z
			 M188.2,26.4c-0.9,0-1.8,0.1-1.8,1c0,0.5,0.3,0.8,0.7,0.8c0.6,0,0.9-0.4,1.1-0.7c0-0.1,0-0.2,0-0.3V26.4z"/>
		<path fill="#FFFFFF" d="M192.6,26.6c0,1.1,0.7,1.5,1.5,1.5c0.6,0,0.9-0.1,1.2-0.2l0.1,0.6c-0.3,0.1-0.8,0.3-1.4,0.3
			c-1.3,0-2.1-0.9-2.1-2.2s0.8-2.3,2-2.3c1.4,0,1.8,1.3,1.8,2.1c0,0.2,0,0.3,0,0.4H192.6z M194.9,26c0-0.5-0.2-1.3-1.1-1.3
			c-0.8,0-1.2,0.7-1.2,1.3H194.9z"/>
		<path fill="#FFFFFF" d="M159.9,37.4c-0.3,0.1-0.9,0.3-1.6,0.3c-1.7,0-3-1.1-3-3.1c0-1.9,1.3-3.2,3.2-3.2c0.8,0,1.2,0.2,1.4,0.3
			l-0.2,0.6c-0.3-0.1-0.7-0.3-1.2-0.3c-1.4,0-2.4,0.9-2.4,2.5c0,1.5,0.9,2.4,2.3,2.4c0.5,0,1-0.1,1.3-0.3L159.9,37.4z"/>
		<path fill="#FFFFFF" d="M164.7,35.4c0,1.6-1.1,2.3-2.2,2.3c-1.2,0-2.1-0.9-2.1-2.2c0-1.5,1-2.3,2.2-2.3
			C163.9,33.2,164.7,34.1,164.7,35.4z M161.2,35.4c0,1,0.5,1.7,1.3,1.7c0.8,0,1.3-0.7,1.3-1.7c0-0.7-0.4-1.7-1.3-1.7
			C161.6,33.8,161.2,34.6,161.2,35.4z"/>
		<path fill="#FFFFFF" d="M165.7,31.2h0.8v6.4h-0.8V31.2z"/>
		<path fill="#FFFFFF" d="M170.2,37.6l-0.1-0.5h0c-0.2,0.3-0.7,0.6-1.3,0.6c-0.9,0-1.3-0.6-1.3-1.3c0-1.1,0.9-1.6,2.6-1.6v-0.1
			c0-0.4-0.1-1-1-1c-0.4,0-0.8,0.1-1.1,0.3l-0.2-0.5c0.4-0.2,0.9-0.4,1.4-0.4c1.3,0,1.7,0.9,1.7,1.8v1.6c0,0.4,0,0.7,0.1,1H170.2z
			 M170.1,35.4c-0.9,0-1.8,0.1-1.8,1c0,0.5,0.3,0.8,0.7,0.8c0.6,0,0.9-0.4,1.1-0.7c0-0.1,0-0.2,0-0.3V35.4z"/>
		<path fill="#FFFFFF" d="M172.1,37.6c0-0.3,0-0.7,0-1.1v-5.3h0.8V34h0c0.3-0.5,0.8-0.8,1.5-0.8c1.1,0,1.8,0.9,1.8,2.2
			c0,1.6-1,2.3-2,2.3c-0.6,0-1.1-0.2-1.5-0.8h0l0,0.7H172.1z M172.9,35.9c0,0.1,0,0.2,0,0.3c0.2,0.5,0.6,0.9,1.2,0.9
			c0.8,0,1.3-0.7,1.3-1.7c0-0.9-0.5-1.6-1.3-1.6c-0.5,0-1,0.4-1.2,1c0,0.1,0,0.2,0,0.3V35.9z"/>
		<path fill="#FFFFFF" d="M181.2,35.4c0,1.6-1.1,2.3-2.2,2.3c-1.2,0-2.1-0.9-2.1-2.2c0-1.5,1-2.3,2.2-2.3
			C180.4,33.2,181.2,34.1,181.2,35.4z M177.8,35.4c0,1,0.5,1.7,1.3,1.7c0.8,0,1.3-0.7,1.3-1.7c0-0.7-0.4-1.7-1.3-1.7
			C178.2,33.8,177.8,34.6,177.8,35.4z"/>
		<path fill="#FFFFFF" d="M182.2,34.6c0-0.5,0-1,0-1.4h0.7l0,0.9h0c0.2-0.6,0.7-1,1.2-1c0.1,0,0.2,0,0.2,0v0.7c-0.1,0-0.2,0-0.3,0
			c-0.6,0-1,0.4-1.1,1c0,0.1,0,0.2,0,0.4v2.3h-0.8V34.6z"/>
		<path fill="#FFFFFF" d="M187.5,37.6l-0.1-0.5h0c-0.2,0.3-0.7,0.6-1.3,0.6c-0.9,0-1.3-0.6-1.3-1.3c0-1.1,0.9-1.6,2.6-1.6v-0.1
			c0-0.4-0.1-1-1-1c-0.4,0-0.8,0.1-1.1,0.3l-0.2-0.5c0.4-0.2,0.9-0.4,1.4-0.4c1.3,0,1.7,0.9,1.7,1.8v1.6c0,0.4,0,0.7,0.1,1H187.5z
			 M187.4,35.4c-0.9,0-1.8,0.1-1.8,1c0,0.5,0.3,0.8,0.7,0.8c0.6,0,0.9-0.4,1.1-0.7c0-0.1,0-0.2,0-0.3V35.4z"/>
		<path fill="#FFFFFF" d="M192.6,37.5c-0.2,0.1-0.6,0.2-1.1,0.3l-0.2,0.4c0.3,0,0.6,0.3,0.6,0.6c0,0.5-0.4,0.7-0.9,0.7
			c-0.2,0-0.5-0.1-0.6-0.2l0.1-0.4c0.1,0.1,0.3,0.1,0.5,0.1c0.2,0,0.4-0.1,0.4-0.3c0-0.2-0.3-0.3-0.7-0.4l0.4-0.7
			c-1.1-0.1-1.8-1-1.8-2.2c0-1.3,0.9-2.3,2.3-2.3c0.5,0,0.9,0.1,1.1,0.2l-0.2,0.6c-0.2-0.1-0.5-0.2-0.9-0.2c-1,0-1.5,0.7-1.5,1.6
			c0,1,0.6,1.6,1.5,1.6c0.5,0,0.7-0.1,1-0.2L192.6,37.5z"/>
		<path fill="#FFFFFF" d="M195.9,37.6l-0.1-0.5h0c-0.2,0.3-0.7,0.6-1.3,0.6c-0.9,0-1.3-0.6-1.3-1.3c0-1.1,0.9-1.6,2.6-1.6v-0.1
			c0-0.4-0.1-1-1-1c-0.4,0-0.8,0.1-1.1,0.3l-0.2-0.5c0.4-0.2,0.9-0.4,1.4-0.4c1.3,0,1.7,0.9,1.7,1.8v1.6c0,0.4,0,0.7,0.1,1H195.9z
			 M193.9,32.5c0-0.6,0.2-0.9,0.6-0.9c0.2,0,0.4,0.1,0.6,0.2c0.1,0.1,0.3,0.2,0.4,0.2c0.1,0,0.2-0.1,0.3-0.4h0.4
			c0,0.6-0.2,0.9-0.6,0.9c-0.2,0-0.4-0.1-0.5-0.2c-0.2-0.1-0.3-0.2-0.4-0.2c-0.1,0-0.2,0.2-0.2,0.4H193.9z M195.8,35.4
			c-0.9,0-1.8,0.1-1.8,1c0,0.5,0.3,0.8,0.7,0.8c0.6,0,0.9-0.4,1.1-0.7c0-0.1,0-0.2,0-0.3V35.4z"/>
		<path fill="#FFFFFF" d="M201.8,35.4c0,1.6-1.1,2.3-2.2,2.3c-1.2,0-2.1-0.9-2.1-2.2c0-1.5,1-2.3,2.2-2.3
			C200.9,33.2,201.8,34.1,201.8,35.4z M198.3,35.4c0,1,0.5,1.7,1.3,1.7c0.8,0,1.3-0.7,1.3-1.7c0-0.7-0.4-1.7-1.3-1.7
			C198.7,33.8,198.3,34.6,198.3,35.4z"/>
	</g>
	<g>
		<path fill="#FFFFFF" d="M149.5,95.8h3.3v0.7h-2.5v2h2.3v0.6h-2.3v2.7h-0.8V95.8z"/>
		<path fill="#FFFFFF" d="M157.2,100.7c0,0.5,0,0.8,0,1.2h-0.7l0-0.7h0c-0.2,0.4-0.7,0.8-1.4,0.8c-0.7,0-1.5-0.4-1.5-1.9v-2.5h0.8
			v2.4c0,0.8,0.3,1.4,1,1.4c0.5,0,0.9-0.4,1-0.7c0-0.1,0.1-0.3,0.1-0.4v-2.7h0.8V100.7z"/>
		<path fill="#FFFFFF" d="M158.5,98.7c0-0.5,0-0.8,0-1.2h0.7l0,0.7h0c0.2-0.4,0.7-0.8,1.4-0.8c0.6,0,1.5,0.4,1.5,1.9v2.6h-0.8v-2.5
			c0-0.7-0.3-1.3-1-1.3c-0.5,0-0.9,0.4-1.1,0.8c0,0.1-0.1,0.2-0.1,0.4v2.6h-0.8V98.7z"/>
		<path fill="#FFFFFF" d="M167.3,95.5v5.3c0,0.4,0,0.8,0,1.1h-0.7l0-0.8h0c-0.2,0.5-0.8,0.9-1.5,0.9c-1.1,0-1.9-0.9-1.9-2.2
			c0-1.5,0.9-2.3,2-2.3c0.7,0,1.1,0.3,1.3,0.7h0v-2.6H167.3z M166.5,99.3c0-0.1,0-0.2,0-0.3c-0.1-0.5-0.5-0.9-1.1-0.9
			c-0.8,0-1.3,0.7-1.3,1.7c0,0.9,0.4,1.6,1.3,1.6c0.5,0,1-0.4,1.2-0.9c0-0.1,0-0.2,0-0.3V99.3z"/>
		<path fill="#FFFFFF" d="M171,101.9l-0.1-0.5h0c-0.2,0.3-0.7,0.6-1.3,0.6c-0.9,0-1.3-0.6-1.3-1.3c0-1.1,0.9-1.6,2.6-1.6V99
			c0-0.4-0.1-1-1-1c-0.4,0-0.8,0.1-1.1,0.3l-0.2-0.5c0.4-0.2,0.9-0.4,1.4-0.4c1.3,0,1.7,0.9,1.7,1.8v1.6c0,0.4,0,0.7,0.1,1H171z
			 M170.9,99.6c-0.9,0-1.8,0.1-1.8,1c0,0.5,0.3,0.8,0.7,0.8c0.6,0,0.9-0.4,1.1-0.7c0-0.1,0-0.2,0-0.3V99.6z"/>
		<path fill="#FFFFFF" d="M172.9,98.7c0-0.5,0-0.8,0-1.2h0.7l0,0.7h0c0.2-0.4,0.6-0.8,1.4-0.8c0.6,0,1,0.4,1.2,0.9h0
			c0.1-0.2,0.3-0.4,0.5-0.6c0.3-0.2,0.5-0.3,1-0.3c0.6,0,1.4,0.4,1.4,1.9v2.6h-0.8v-2.5c0-0.8-0.3-1.3-0.9-1.3
			c-0.5,0-0.8,0.3-0.9,0.7c0,0.1-0.1,0.3-0.1,0.4v2.7h-0.8v-2.6c0-0.7-0.3-1.2-0.9-1.2c-0.5,0-0.9,0.4-1,0.8c0,0.1-0.1,0.3-0.1,0.4
			v2.6h-0.8V98.7z"/>
		<path fill="#FFFFFF" d="M180.9,99.8c0,1.1,0.7,1.5,1.5,1.5c0.6,0,0.9-0.1,1.2-0.2l0.1,0.6c-0.3,0.1-0.8,0.3-1.4,0.3
			c-1.3,0-2.1-0.9-2.1-2.2s0.8-2.3,2-2.3c1.4,0,1.8,1.3,1.8,2.1c0,0.2,0,0.3,0,0.4H180.9z M183.2,99.3c0-0.5-0.2-1.3-1.1-1.3
			c-0.8,0-1.2,0.7-1.2,1.3H183.2z"/>
		<path fill="#FFFFFF" d="M184.9,98.7c0-0.5,0-0.8,0-1.2h0.7l0,0.7h0c0.2-0.4,0.7-0.8,1.4-0.8c0.6,0,1.5,0.4,1.5,1.9v2.6h-0.8v-2.5
			c0-0.7-0.3-1.3-1-1.3c-0.5,0-0.9,0.4-1.1,0.8c0,0.1-0.1,0.2-0.1,0.4v2.6h-0.8V98.7z"/>
		<path fill="#FFFFFF" d="M190.8,96.3v1.3h1.1v0.6h-1.1v2.3c0,0.5,0.2,0.8,0.6,0.8c0.2,0,0.4,0,0.5-0.1l0,0.6
			c-0.2,0.1-0.4,0.1-0.7,0.1c-0.4,0-0.7-0.1-0.9-0.3c-0.2-0.2-0.3-0.6-0.3-1.1v-2.4h-0.7v-0.6h0.7v-1L190.8,96.3z"/>
		<path fill="#FFFFFF" d="M196.8,99.7c0,1.6-1.1,2.3-2.2,2.3c-1.2,0-2.1-0.9-2.1-2.2c0-1.5,1-2.3,2.2-2.3
			C195.9,97.4,196.8,98.3,196.8,99.7z M193.3,99.7c0,1,0.5,1.7,1.3,1.7c0.8,0,1.3-0.7,1.3-1.7c0-0.7-0.4-1.7-1.3-1.7
			C193.7,98,193.3,98.9,193.3,99.7z"/>
		<path fill="#FFFFFF" d="M197.7,101.1c0.2,0.2,0.6,0.3,1,0.3c0.6,0,0.8-0.3,0.8-0.6c0-0.4-0.2-0.6-0.8-0.8
			c-0.8-0.3-1.2-0.7-1.2-1.2c0-0.7,0.6-1.3,1.5-1.3c0.4,0,0.8,0.1,1.1,0.3l-0.2,0.6c-0.2-0.1-0.5-0.3-0.9-0.3
			c-0.5,0-0.7,0.3-0.7,0.6c0,0.4,0.3,0.5,0.8,0.7c0.8,0.3,1.1,0.7,1.1,1.3c0,0.8-0.6,1.3-1.6,1.3c-0.5,0-0.9-0.1-1.2-0.3
			L197.7,101.1z"/>
		<path fill="#FFFFFF" d="M157.2,104.5v5.3c0,0.4,0,0.8,0,1.1h-0.7l0-0.8h0c-0.2,0.5-0.8,0.9-1.5,0.9c-1.1,0-1.9-0.9-1.9-2.2
			c0-1.5,0.9-2.3,2-2.3c0.7,0,1.1,0.3,1.3,0.7h0v-2.6H157.2z M156.4,108.3c0-0.1,0-0.2,0-0.3c-0.1-0.5-0.5-0.9-1.1-0.9
			c-0.8,0-1.3,0.7-1.3,1.7c0,0.9,0.4,1.6,1.3,1.6c0.5,0,1-0.4,1.2-0.9c0-0.1,0-0.2,0-0.3V108.3z"/>
		<path fill="#FFFFFF" d="M158.9,108.8c0,1.1,0.7,1.5,1.5,1.5c0.6,0,0.9-0.1,1.2-0.2l0.1,0.6c-0.3,0.1-0.8,0.3-1.4,0.3
			c-1.3,0-2.1-0.9-2.1-2.2s0.8-2.3,2-2.3c1.4,0,1.8,1.3,1.8,2.1c0,0.2,0,0.3,0,0.4H158.9z M161.2,108.3c0-0.5-0.2-1.3-1.1-1.3
			c-0.8,0-1.2,0.7-1.2,1.3H161.2z"/>
		<path fill="#FFFFFF" d="M164.9,104.8h3.3v0.7h-2.5v2h2.3v0.6h-2.3v2.7h-0.8V104.8z"/>
		<path fill="#FFFFFF" d="M169.9,105.3c0,0.3-0.2,0.5-0.5,0.5c-0.3,0-0.5-0.2-0.5-0.5c0-0.3,0.2-0.5,0.5-0.5
			C169.7,104.8,169.9,105,169.9,105.3z M169,110.9v-4.4h0.8v4.4H169z"/>
		<path fill="#FFFFFF" d="M171.1,107.7c0-0.5,0-0.8,0-1.2h0.7l0,0.7h0c0.2-0.4,0.7-0.8,1.4-0.8c0.6,0,1.5,0.4,1.5,1.9v2.6h-0.8v-2.5
			c0-0.7-0.3-1.3-1-1.3c-0.5,0-0.9,0.4-1.1,0.8c0,0.1-0.1,0.2-0.1,0.4v2.6h-0.8V107.7z"/>
		<path fill="#FFFFFF" d="M178.6,110.9l-0.1-0.5h0c-0.2,0.3-0.7,0.6-1.3,0.6c-0.9,0-1.3-0.6-1.3-1.3c0-1.1,0.9-1.6,2.6-1.6V108
			c0-0.4-0.1-1-1-1c-0.4,0-0.8,0.1-1.1,0.3l-0.2-0.5c0.4-0.2,0.9-0.4,1.4-0.4c1.3,0,1.7,0.9,1.7,1.8v1.6c0,0.4,0,0.7,0.1,1H178.6z
			 M178.4,108.6c-0.9,0-1.8,0.1-1.8,1c0,0.5,0.3,0.8,0.7,0.8c0.6,0,0.9-0.4,1.1-0.7c0-0.1,0-0.2,0-0.3V108.6z"/>
		<path fill="#FFFFFF" d="M180.5,107.7c0-0.5,0-0.8,0-1.2h0.7l0,0.7h0c0.2-0.4,0.7-0.8,1.4-0.8c0.6,0,1.5,0.4,1.5,1.9v2.6h-0.8v-2.5
			c0-0.7-0.3-1.3-1-1.3c-0.5,0-0.9,0.4-1.1,0.8c0,0.1-0.1,0.2-0.1,0.4v2.6h-0.8V107.7z"/>
		<path fill="#FFFFFF" d="M188.6,110.7c-0.2,0.1-0.6,0.2-1.1,0.3l-0.2,0.4c0.3,0,0.6,0.3,0.6,0.6c0,0.5-0.4,0.7-0.9,0.7
			c-0.2,0-0.5-0.1-0.6-0.2l0.1-0.4c0.1,0.1,0.3,0.1,0.5,0.1c0.2,0,0.4-0.1,0.4-0.3c0-0.2-0.3-0.3-0.7-0.4l0.4-0.7
			c-1.1-0.1-1.8-1-1.8-2.2c0-1.3,0.9-2.3,2.3-2.3c0.5,0,0.9,0.1,1.1,0.2l-0.2,0.6c-0.2-0.1-0.5-0.2-0.9-0.2c-1,0-1.5,0.7-1.5,1.6
			c0,1,0.6,1.6,1.5,1.6c0.5,0,0.7-0.1,1-0.2L188.6,110.7z"/>
		<path fill="#FFFFFF" d="M191.9,110.9l-0.1-0.5h0c-0.2,0.3-0.7,0.6-1.3,0.6c-0.9,0-1.3-0.6-1.3-1.3c0-1.1,0.9-1.6,2.6-1.6V108
			c0-0.4-0.1-1-1-1c-0.4,0-0.8,0.1-1.1,0.3l-0.2-0.5c0.4-0.2,0.9-0.4,1.4-0.4c1.3,0,1.7,0.9,1.7,1.8v1.6c0,0.4,0,0.7,0.1,1H191.9z
			 M191.8,108.6c-0.9,0-1.8,0.1-1.8,1c0,0.5,0.3,0.8,0.7,0.8c0.6,0,0.9-0.4,1.1-0.7c0-0.1,0-0.2,0-0.3V108.6z"/>
		<path fill="#FFFFFF" d="M193.7,110.1c0.2,0.2,0.6,0.3,1,0.3c0.6,0,0.8-0.3,0.8-0.6c0-0.4-0.2-0.6-0.8-0.8
			c-0.8-0.3-1.2-0.7-1.2-1.2c0-0.7,0.6-1.3,1.5-1.3c0.4,0,0.8,0.1,1.1,0.3l-0.2,0.6c-0.2-0.1-0.5-0.3-0.9-0.3
			c-0.5,0-0.7,0.3-0.7,0.6c0,0.4,0.3,0.5,0.8,0.7c0.8,0.3,1.1,0.7,1.1,1.3c0,0.8-0.6,1.3-1.6,1.3c-0.5,0-0.9-0.1-1.2-0.3
			L193.7,110.1z"/>
	</g>
	<g>
		<path fill="#FFFFFF" d="M165,58.4h3.3v0.7h-2.5v2h2.3v0.6h-2.3v2.7H165V58.4z"/>
		<path fill="#FFFFFF" d="M173,62.3c0,1.6-1.1,2.3-2.2,2.3c-1.2,0-2.1-0.9-2.1-2.2c0-1.5,1-2.3,2.2-2.3C172.1,60.1,173,61,173,62.3z
			 M169.5,62.3c0,1,0.5,1.7,1.3,1.7c0.8,0,1.3-0.7,1.3-1.7c0-0.7-0.4-1.7-1.3-1.7C169.9,60.7,169.5,61.5,169.5,62.3z"/>
		<path fill="#FFFFFF" d="M177.1,64.4c-0.2,0.1-0.7,0.3-1.3,0.3c-1.3,0-2.2-0.9-2.2-2.2c0-1.3,0.9-2.3,2.3-2.3
			c0.5,0,0.9,0.1,1.1,0.2l-0.2,0.6c-0.2-0.1-0.5-0.2-0.9-0.2c-1,0-1.5,0.7-1.5,1.6c0,1,0.6,1.6,1.5,1.6c0.5,0,0.7-0.1,1-0.2
			L177.1,64.4z"/>
		<path fill="#FFFFFF" d="M181.9,62.3c0,1.6-1.1,2.3-2.2,2.3c-1.2,0-2.1-0.9-2.1-2.2c0-1.5,1-2.3,2.2-2.3
			C181.1,60.1,181.9,61,181.9,62.3z M178.5,62.3c0,1,0.5,1.7,1.3,1.7c0.8,0,1.3-0.7,1.3-1.7c0-0.7-0.4-1.7-1.3-1.7
			C178.9,60.7,178.5,61.5,178.5,62.3z"/>
		<path fill="#FFFFFF" d="M184.8,61.3c0-0.5,0-0.8,0-1.2h0.7l0,0.7h0c0.2-0.4,0.7-0.8,1.4-0.8c0.6,0,1.5,0.4,1.5,1.9v2.6h-0.8V62
			c0-0.7-0.3-1.3-1-1.3c-0.5,0-0.9,0.4-1.1,0.8c0,0.1-0.1,0.2-0.1,0.4v2.6h-0.8V61.3z"/>
		<path fill="#FFFFFF" d="M193.8,62.3c0,1.6-1.1,2.3-2.2,2.3c-1.2,0-2.1-0.9-2.1-2.2c0-1.5,1-2.3,2.2-2.3
			C192.9,60.1,193.8,61,193.8,62.3z M190.3,62.3c0,1,0.5,1.7,1.3,1.7c0.8,0,1.3-0.7,1.3-1.7c0-0.7-0.4-1.7-1.3-1.7
			C190.7,60.7,190.3,61.5,190.3,62.3z"/>
		<path fill="#FFFFFF" d="M170.9,73.3c-0.3,0.1-0.9,0.3-1.6,0.3c-1.7,0-3-1.1-3-3.1c0-1.9,1.3-3.2,3.2-3.2c0.8,0,1.2,0.2,1.4,0.3
			l-0.2,0.6c-0.3-0.1-0.7-0.3-1.2-0.3c-1.4,0-2.4,0.9-2.4,2.5c0,1.5,0.9,2.4,2.3,2.4c0.5,0,1-0.1,1.3-0.3L170.9,73.3z"/>
		<path fill="#FFFFFF" d="M171.9,67.1h0.8v6.4h-0.8V67.1z"/>
		<path fill="#FFFFFF" d="M174.9,67.9c0,0.3-0.2,0.5-0.5,0.5c-0.3,0-0.5-0.2-0.5-0.5c0-0.3,0.2-0.5,0.5-0.5
			C174.7,67.4,174.9,67.7,174.9,67.9z M174,73.5v-4.4h0.8v4.4H174z"/>
		<path fill="#FFFFFF" d="M176.6,71.5c0,1.1,0.7,1.5,1.5,1.5c0.6,0,0.9-0.1,1.2-0.2l0.1,0.6c-0.3,0.1-0.8,0.3-1.4,0.3
			c-1.3,0-2.1-0.9-2.1-2.2s0.8-2.3,2-2.3c1.4,0,1.8,1.3,1.8,2.1c0,0.2,0,0.3,0,0.4H176.6z M178.9,70.9c0-0.5-0.2-1.3-1.1-1.3
			c-0.8,0-1.2,0.7-1.2,1.3H178.9z"/>
		<path fill="#FFFFFF" d="M180.6,70.3c0-0.5,0-0.8,0-1.2h0.7l0,0.7h0c0.2-0.4,0.7-0.8,1.4-0.8c0.6,0,1.5,0.4,1.5,1.9v2.6h-0.8V71
			c0-0.7-0.3-1.3-1-1.3c-0.5,0-0.9,0.4-1.1,0.8c0,0.1-0.1,0.2-0.1,0.4v2.6h-0.8V70.3z"/>
		<path fill="#FFFFFF" d="M186.5,67.9v1.3h1.1v0.6h-1.1v2.3c0,0.5,0.2,0.8,0.6,0.8c0.2,0,0.4,0,0.5-0.1l0,0.6
			c-0.2,0.1-0.4,0.1-0.7,0.1c-0.4,0-0.7-0.1-0.9-0.3c-0.2-0.2-0.3-0.6-0.3-1.1v-2.4h-0.7v-0.6h0.7v-1L186.5,67.9z"/>
		<path fill="#FFFFFF" d="M189,71.5c0,1.1,0.7,1.5,1.5,1.5c0.6,0,0.9-0.1,1.2-0.2l0.1,0.6c-0.3,0.1-0.8,0.3-1.4,0.3
			c-1.3,0-2.1-0.9-2.1-2.2s0.8-2.3,2-2.3c1.4,0,1.8,1.3,1.8,2.1c0,0.2,0,0.3,0,0.4H189z M191.3,70.9c0-0.5-0.2-1.3-1.1-1.3
			c-0.8,0-1.2,0.7-1.2,1.3H191.3z"/>
	</g>
	<g>
		<path fill="#FFFFFF" d="M138.3,118.7h0.8v5.4h2.6v0.7h-3.4V118.7z"/>
		<path fill="#FFFFFF" d="M143.4,119.2c0,0.3-0.2,0.5-0.5,0.5c-0.3,0-0.5-0.2-0.5-0.5c0-0.3,0.2-0.5,0.5-0.5
			C143.2,118.7,143.4,118.9,143.4,119.2z M142.5,124.8v-4.4h0.8v4.4H142.5z"/>
		<path fill="#FFFFFF" d="M148.3,118.4v5.3c0,0.4,0,0.8,0,1.1h-0.7l0-0.8h0c-0.2,0.5-0.8,0.9-1.5,0.9c-1.1,0-1.9-0.9-1.9-2.2
			c0-1.5,0.9-2.3,2-2.3c0.7,0,1.1,0.3,1.3,0.7h0v-2.6H148.3z M147.5,122.2c0-0.1,0-0.2,0-0.3c-0.1-0.5-0.5-0.9-1.1-0.9
			c-0.8,0-1.3,0.7-1.3,1.7c0,0.9,0.4,1.6,1.3,1.6c0.5,0,1-0.4,1.2-0.9c0-0.1,0-0.2,0-0.3V122.2z"/>
		<path fill="#FFFFFF" d="M150.1,122.8c0,1.1,0.7,1.5,1.5,1.5c0.6,0,0.9-0.1,1.2-0.2l0.1,0.6c-0.3,0.1-0.8,0.3-1.4,0.3
			c-1.3,0-2.1-0.9-2.1-2.2s0.8-2.3,2-2.3c1.4,0,1.8,1.3,1.8,2.1c0,0.2,0,0.3,0,0.4H150.1z M152.4,122.2c0-0.5-0.2-1.3-1.1-1.3
			c-0.8,0-1.2,0.7-1.2,1.3H152.4z"/>
		<path fill="#FFFFFF" d="M154.2,121.8c0-0.5,0-1,0-1.4h0.7l0,0.9h0c0.2-0.6,0.7-1,1.2-1c0.1,0,0.2,0,0.2,0v0.7c-0.1,0-0.2,0-0.3,0
			c-0.6,0-1,0.4-1.1,1c0,0.1,0,0.2,0,0.4v2.3h-0.8V121.8z"/>
		<path fill="#FFFFFF" d="M159.5,124.8l-0.1-0.5h0c-0.2,0.3-0.7,0.6-1.3,0.6c-0.9,0-1.3-0.6-1.3-1.3c0-1.1,0.9-1.6,2.6-1.6v-0.1
			c0-0.4-0.1-1-1-1c-0.4,0-0.8,0.1-1.1,0.3l-0.2-0.5c0.4-0.2,0.9-0.4,1.4-0.4c1.3,0,1.7,0.9,1.7,1.8v1.6c0,0.4,0,0.7,0.1,1H159.5z
			 M159.4,122.6c-0.9,0-1.8,0.1-1.8,1c0,0.5,0.3,0.8,0.7,0.8c0.6,0,0.9-0.4,1.1-0.7c0-0.1,0-0.2,0-0.3V122.6z"/>
		<path fill="#FFFFFF" d="M161.4,121.6c0-0.5,0-0.8,0-1.2h0.7l0,0.7h0c0.2-0.4,0.7-0.8,1.4-0.8c0.6,0,1.5,0.4,1.5,1.9v2.6h-0.8v-2.5
			c0-0.7-0.3-1.3-1-1.3c-0.5,0-0.9,0.4-1.1,0.8c0,0.1-0.1,0.2-0.1,0.4v2.6h-0.8V121.6z"/>
		<path fill="#FFFFFF" d="M169.5,124.6c-0.2,0.1-0.6,0.2-1.1,0.3l-0.2,0.4c0.3,0,0.6,0.3,0.6,0.6c0,0.5-0.4,0.7-0.9,0.7
			c-0.2,0-0.5-0.1-0.6-0.2l0.1-0.4c0.1,0.1,0.3,0.1,0.5,0.1c0.2,0,0.4-0.1,0.4-0.3c0-0.2-0.3-0.3-0.7-0.4l0.4-0.7
			c-1.1-0.1-1.8-1-1.8-2.2c0-1.3,0.9-2.3,2.3-2.3c0.5,0,0.9,0.1,1.1,0.2l-0.2,0.6c-0.2-0.1-0.5-0.2-0.9-0.2c-1,0-1.5,0.7-1.5,1.6
			c0,1,0.6,1.6,1.5,1.6c0.5,0,0.7-0.1,1-0.2L169.5,124.6z"/>
		<path fill="#FFFFFF" d="M172.8,124.8l-0.1-0.5h0c-0.2,0.3-0.7,0.6-1.3,0.6c-0.9,0-1.3-0.6-1.3-1.3c0-1.1,0.9-1.6,2.6-1.6v-0.1
			c0-0.4-0.1-1-1-1c-0.4,0-0.8,0.1-1.1,0.3l-0.2-0.5c0.4-0.2,0.9-0.4,1.4-0.4c1.3,0,1.7,0.9,1.7,1.8v1.6c0,0.4,0,0.7,0.1,1H172.8z
			 M172.7,122.6c-0.9,0-1.8,0.1-1.8,1c0,0.5,0.3,0.8,0.7,0.8c0.6,0,0.9-0.4,1.1-0.7c0-0.1,0-0.2,0-0.3V122.6z"/>
		<path fill="#FFFFFF" d="M133.3,127.7v6.1h-0.8v-6.1H133.3z"/>
		<path fill="#FFFFFF" d="M134.7,130.6c0-0.5,0-0.8,0-1.2h0.7l0,0.7h0c0.2-0.4,0.7-0.8,1.4-0.8c0.6,0,1.5,0.4,1.5,1.9v2.6h-0.8v-2.5
			c0-0.7-0.3-1.3-1-1.3c-0.5,0-0.9,0.4-1.1,0.8c0,0.1-0.1,0.2-0.1,0.4v2.6h-0.8V130.6z"/>
		<path fill="#FFFFFF" d="M139.6,133c0.2,0.2,0.6,0.3,1,0.3c0.6,0,0.8-0.3,0.8-0.6c0-0.4-0.2-0.6-0.8-0.8c-0.8-0.3-1.2-0.7-1.2-1.2
			c0-0.7,0.6-1.3,1.5-1.3c0.4,0,0.8,0.1,1.1,0.3l-0.2,0.6c-0.2-0.1-0.5-0.3-0.9-0.3c-0.5,0-0.7,0.3-0.7,0.6c0,0.4,0.3,0.5,0.8,0.7
			c0.8,0.3,1.1,0.7,1.1,1.3c0,0.8-0.6,1.3-1.6,1.3c-0.5,0-0.9-0.1-1.2-0.3L139.6,133z"/>
		<path fill="#FFFFFF" d="M144.2,128.2v1.3h1.1v0.6h-1.1v2.3c0,0.5,0.2,0.8,0.6,0.8c0.2,0,0.4,0,0.5-0.1l0,0.6
			c-0.2,0.1-0.4,0.1-0.7,0.1c-0.4,0-0.7-0.1-0.9-0.3c-0.2-0.2-0.3-0.6-0.3-1.1V130h-0.7v-0.6h0.7v-1L144.2,128.2z"/>
		<path fill="#FFFFFF" d="M146.2,130.8c0-0.5,0-1,0-1.4h0.7l0,0.9h0c0.2-0.6,0.7-1,1.2-1c0.1,0,0.2,0,0.2,0v0.7c-0.1,0-0.2,0-0.3,0
			c-0.6,0-1,0.4-1.1,1c0,0.1,0,0.2,0,0.4v2.3h-0.8V130.8z"/>
		<path fill="#FFFFFF" d="M152.8,132.6c0,0.5,0,0.8,0,1.2h-0.7l0-0.7h0c-0.2,0.4-0.7,0.8-1.4,0.8c-0.7,0-1.5-0.4-1.5-1.9v-2.5h0.8
			v2.4c0,0.8,0.3,1.4,1,1.4c0.5,0,0.9-0.4,1-0.7c0-0.1,0.1-0.3,0.1-0.4v-2.7h0.8V132.6z"/>
		<path fill="#FFFFFF" d="M154.1,130.6c0-0.5,0-0.8,0-1.2h0.7l0,0.7h0c0.2-0.4,0.6-0.8,1.4-0.8c0.6,0,1,0.4,1.2,0.9h0
			c0.1-0.2,0.3-0.4,0.5-0.6c0.3-0.2,0.5-0.3,1-0.3c0.6,0,1.4,0.4,1.4,1.9v2.6h-0.8v-2.5c0-0.8-0.3-1.3-0.9-1.3
			c-0.5,0-0.8,0.3-0.9,0.7c0,0.1-0.1,0.3-0.1,0.4v2.7h-0.8v-2.6c0-0.7-0.3-1.2-0.9-1.2c-0.5,0-0.9,0.4-1,0.8c0,0.1-0.1,0.3-0.1,0.4
			v2.6h-0.8V130.6z"/>
		<path fill="#FFFFFF" d="M162.1,131.8c0,1.1,0.7,1.5,1.5,1.5c0.6,0,0.9-0.1,1.2-0.2l0.1,0.6c-0.3,0.1-0.8,0.3-1.4,0.3
			c-1.3,0-2.1-0.9-2.1-2.2s0.8-2.3,2-2.3c1.4,0,1.8,1.3,1.8,2.1c0,0.2,0,0.3,0,0.4H162.1z M164.4,131.2c0-0.5-0.2-1.3-1.1-1.3
			c-0.8,0-1.2,0.7-1.2,1.3H164.4z"/>
		<path fill="#FFFFFF" d="M166.1,130.6c0-0.5,0-0.8,0-1.2h0.7l0,0.7h0c0.2-0.4,0.7-0.8,1.4-0.8c0.6,0,1.5,0.4,1.5,1.9v2.6h-0.8v-2.5
			c0-0.7-0.3-1.3-1-1.3c-0.5,0-0.9,0.4-1.1,0.8c0,0.1-0.1,0.2-0.1,0.4v2.6h-0.8V130.6z"/>
		<path fill="#FFFFFF" d="M172.1,128.2v1.3h1.1v0.6h-1.1v2.3c0,0.5,0.2,0.8,0.6,0.8c0.2,0,0.4,0,0.5-0.1l0,0.6
			c-0.2,0.1-0.4,0.1-0.7,0.1c-0.4,0-0.7-0.1-0.9-0.3c-0.2-0.2-0.3-0.6-0.3-1.1V130h-0.7v-0.6h0.7v-1L172.1,128.2z"/>
		<path fill="#FFFFFF" d="M176.5,133.8l-0.1-0.5h0c-0.2,0.3-0.7,0.6-1.3,0.6c-0.9,0-1.3-0.6-1.3-1.3c0-1.1,0.9-1.6,2.6-1.6v-0.1
			c0-0.4-0.1-1-1-1c-0.4,0-0.8,0.1-1.1,0.3l-0.2-0.5c0.4-0.2,0.9-0.4,1.4-0.4c1.3,0,1.7,0.9,1.7,1.8v1.6c0,0.4,0,0.7,0.1,1H176.5z
			 M176.4,131.6c-0.9,0-1.8,0.1-1.8,1c0,0.5,0.3,0.8,0.7,0.8c0.6,0,0.9-0.4,1.1-0.7c0-0.1,0-0.2,0-0.3V131.6z"/>
		<path fill="#FFFFFF" d="M178.4,127.4h0.8v6.4h-0.8V127.4z"/>
	</g>
	<g>
		<path fill="#FFFFFF" d="M133.5,164l-0.6,1.9h-0.8l2.1-6.1h0.9l2.1,6.1h-0.8l-0.6-1.9H133.5z M135.5,163.4l-0.6-1.7
			c-0.1-0.4-0.2-0.8-0.3-1.1h0c-0.1,0.4-0.2,0.7-0.3,1.1l-0.6,1.8H135.5z"/>
		<path fill="#FFFFFF" d="M138.1,161.5l0.9,2.4c0.1,0.4,0.3,0.8,0.4,1.1h0c0.1-0.4,0.2-0.7,0.4-1.1l0.8-2.4h0.8l-1.7,4.4H139
			l-1.7-4.4H138.1z"/>
		<path fill="#FFFFFF" d="M144.5,165.9l-0.1-0.5h0c-0.2,0.3-0.7,0.6-1.3,0.6c-0.9,0-1.3-0.6-1.3-1.3c0-1.1,0.9-1.6,2.6-1.6V163
			c0-0.4-0.1-1-1-1c-0.4,0-0.8,0.1-1.1,0.3l-0.2-0.5c0.4-0.2,0.9-0.4,1.4-0.4c1.3,0,1.7,0.9,1.7,1.8v1.6c0,0.4,0,0.7,0.1,1H144.5z
			 M144.4,163.7c-0.9,0-1.8,0.1-1.8,1c0,0.5,0.3,0.8,0.7,0.8c0.6,0,0.9-0.4,1.1-0.7c0-0.1,0-0.2,0-0.3V163.7z"/>
		<path fill="#FFFFFF" d="M146.5,159.5h0.8v6.4h-0.8V159.5z"/>
		<path fill="#FFFFFF" d="M149.5,160.3c0,0.3-0.2,0.5-0.5,0.5c-0.3,0-0.5-0.2-0.5-0.5c0-0.3,0.2-0.5,0.5-0.5
			C149.3,159.8,149.5,160,149.5,160.3z M148.6,165.9v-4.4h0.8v4.4H148.6z"/>
		<path fill="#FFFFFF" d="M153.1,165.9l-0.1-0.5h0c-0.2,0.3-0.7,0.6-1.3,0.6c-0.9,0-1.3-0.6-1.3-1.3c0-1.1,0.9-1.6,2.6-1.6V163
			c0-0.4-0.1-1-1-1c-0.4,0-0.8,0.1-1.1,0.3l-0.2-0.5c0.4-0.2,0.9-0.4,1.4-0.4c1.3,0,1.7,0.9,1.7,1.8v1.6c0,0.4,0,0.7,0.1,1H153.1z
			 M153,163.7c-0.9,0-1.8,0.1-1.8,1c0,0.5,0.3,0.8,0.7,0.8c0.6,0,0.9-0.4,1.1-0.7c0-0.1,0-0.2,0-0.3V163.7z"/>
		<path fill="#FFFFFF" d="M158.1,165.7c-0.2,0.1-0.6,0.2-1.1,0.3l-0.2,0.4c0.3,0,0.6,0.3,0.6,0.6c0,0.5-0.4,0.7-0.9,0.7
			c-0.2,0-0.5-0.1-0.6-0.2l0.1-0.4c0.1,0.1,0.3,0.1,0.5,0.1c0.2,0,0.4-0.1,0.4-0.3c0-0.2-0.3-0.3-0.7-0.4l0.4-0.7
			c-1.1-0.1-1.8-1-1.8-2.2c0-1.3,0.9-2.3,2.3-2.3c0.5,0,0.9,0.1,1.1,0.2l-0.2,0.6c-0.2-0.1-0.5-0.2-0.9-0.2c-1,0-1.5,0.7-1.5,1.6
			c0,1,0.6,1.6,1.5,1.6c0.5,0,0.7-0.1,1-0.2L158.1,165.7z"/>
		<path fill="#FFFFFF" d="M161.5,165.9l-0.1-0.5h0c-0.2,0.3-0.7,0.6-1.3,0.6c-0.9,0-1.3-0.6-1.3-1.3c0-1.1,0.9-1.6,2.6-1.6V163
			c0-0.4-0.1-1-1-1c-0.4,0-0.8,0.1-1.1,0.3l-0.2-0.5c0.4-0.2,0.9-0.4,1.4-0.4c1.3,0,1.7,0.9,1.7,1.8v1.6c0,0.4,0,0.7,0.1,1H161.5z
			 M159.4,160.8c0-0.6,0.2-0.9,0.6-0.9c0.2,0,0.4,0.1,0.6,0.2c0.1,0.1,0.3,0.2,0.4,0.2c0.1,0,0.2-0.1,0.3-0.4h0.4
			c0,0.6-0.2,0.9-0.6,0.9c-0.2,0-0.4-0.1-0.5-0.2c-0.2-0.1-0.3-0.2-0.4-0.2c-0.1,0-0.2,0.2-0.2,0.4H159.4z M161.4,163.7
			c-0.9,0-1.8,0.1-1.8,1c0,0.5,0.3,0.8,0.7,0.8c0.6,0,0.9-0.4,1.1-0.7c0-0.1,0-0.2,0-0.3V163.7z"/>
		<path fill="#FFFFFF" d="M167.3,163.7c0,1.6-1.1,2.3-2.2,2.3c-1.2,0-2.1-0.9-2.1-2.2c0-1.5,1-2.3,2.2-2.3
			C166.5,161.4,167.3,162.3,167.3,163.7z M163.9,163.7c0,1,0.5,1.7,1.3,1.7c0.8,0,1.3-0.7,1.3-1.7c0-0.7-0.4-1.7-1.3-1.7
			C164.3,162,163.9,162.9,163.9,163.7z"/>
		<path fill="#FFFFFF" d="M174,159.5v5.3c0,0.4,0,0.8,0,1.1h-0.7l0-0.8h0c-0.2,0.5-0.8,0.9-1.5,0.9c-1.1,0-1.9-0.9-1.9-2.2
			c0-1.5,0.9-2.3,2-2.3c0.7,0,1.1,0.3,1.3,0.7h0v-2.6H174z M173.2,163.3c0-0.1,0-0.2,0-0.3c-0.1-0.5-0.5-0.9-1.1-0.9
			c-0.8,0-1.3,0.7-1.3,1.7c0,0.9,0.4,1.6,1.3,1.6c0.5,0,1-0.4,1.2-0.9c0-0.1,0-0.2,0-0.3V163.3z"/>
		<path fill="#FFFFFF" d="M175.8,163.9c0,1.1,0.7,1.5,1.5,1.5c0.6,0,0.9-0.1,1.2-0.2l0.1,0.6c-0.3,0.1-0.8,0.3-1.4,0.3
			c-1.3,0-2.1-0.9-2.1-2.2s0.8-2.3,2-2.3c1.4,0,1.8,1.3,1.8,2.1c0,0.2,0,0.3,0,0.4H175.8z M178.1,163.3c0-0.5-0.2-1.3-1.1-1.3
			c-0.8,0-1.2,0.7-1.2,1.3H178.1z"/>
		<path fill="#FFFFFF" d="M133.4,168.9c0.5-0.1,1-0.1,1.7-0.1c1.1,0,1.9,0.3,2.5,0.8c0.5,0.5,0.9,1.2,0.9,2.2c0,1-0.3,1.8-0.9,2.4
			c-0.6,0.6-1.5,0.9-2.7,0.9c-0.6,0-1,0-1.4-0.1V168.9z M134.1,174.3c0.2,0,0.5,0,0.8,0c1.7,0,2.6-0.9,2.6-2.6
			c0-1.4-0.8-2.3-2.5-2.3c-0.4,0-0.7,0-0.9,0.1V174.3z"/>
		<path fill="#FFFFFF" d="M139.8,172.9c0,1.1,0.7,1.5,1.5,1.5c0.6,0,0.9-0.1,1.2-0.2l0.1,0.6c-0.3,0.1-0.8,0.3-1.4,0.3
			c-1.3,0-2.1-0.9-2.1-2.2s0.8-2.3,2-2.3c1.4,0,1.8,1.3,1.8,2.1c0,0.2,0,0.3,0,0.4H139.8z M142.1,172.3c0-0.5-0.2-1.3-1.1-1.3
			c-0.8,0-1.2,0.7-1.2,1.3H142.1z"/>
		<path fill="#FFFFFF" d="M143.8,174.1c0.2,0.2,0.6,0.3,1,0.3c0.6,0,0.8-0.3,0.8-0.6c0-0.4-0.2-0.6-0.8-0.8
			c-0.8-0.3-1.2-0.7-1.2-1.2c0-0.7,0.6-1.3,1.5-1.3c0.4,0,0.8,0.1,1.1,0.3l-0.2,0.6c-0.2-0.1-0.5-0.3-0.9-0.3
			c-0.5,0-0.7,0.3-0.7,0.6c0,0.4,0.3,0.5,0.8,0.7c0.8,0.3,1.1,0.7,1.1,1.3c0,0.8-0.6,1.3-1.6,1.3c-0.5,0-0.9-0.1-1.2-0.3
			L143.8,174.1z"/>
		<path fill="#FFFFFF" d="M147.9,172.9c0,1.1,0.7,1.5,1.5,1.5c0.6,0,0.9-0.1,1.2-0.2l0.1,0.6c-0.3,0.1-0.8,0.3-1.4,0.3
			c-1.3,0-2.1-0.9-2.1-2.2s0.8-2.3,2-2.3c1.4,0,1.8,1.3,1.8,2.1c0,0.2,0,0.3,0,0.4H147.9z M150.2,172.3c0-0.5-0.2-1.3-1.1-1.3
			c-0.8,0-1.2,0.7-1.2,1.3H150.2z"/>
		<path fill="#FFFFFF" d="M151.9,171.7c0-0.5,0-0.8,0-1.2h0.7l0,0.7h0c0.2-0.4,0.6-0.8,1.4-0.8c0.6,0,1,0.4,1.2,0.9h0
			c0.1-0.2,0.3-0.4,0.5-0.6c0.3-0.2,0.5-0.3,1-0.3c0.6,0,1.4,0.4,1.4,1.9v2.6h-0.8v-2.5c0-0.8-0.3-1.3-0.9-1.3
			c-0.5,0-0.8,0.3-0.9,0.7c0,0.1-0.1,0.3-0.1,0.4v2.7h-0.8v-2.6c0-0.7-0.3-1.2-0.9-1.2c-0.5,0-0.9,0.4-1,0.8c0,0.1-0.1,0.3-0.1,0.4
			v2.6h-0.8V171.7z"/>
		<path fill="#FFFFFF" d="M159.5,172c0-0.6,0-1,0-1.4h0.7l0,0.7h0c0.3-0.5,0.8-0.8,1.5-0.8c1.1,0,1.8,0.9,1.8,2.2c0,1.6-1,2.3-2,2.3
			c-0.6,0-1.1-0.3-1.3-0.7h0v2.4h-0.8V172z M160.2,173.1c0,0.1,0,0.2,0,0.3c0.1,0.5,0.6,0.9,1.2,0.9c0.8,0,1.3-0.7,1.3-1.7
			c0-0.9-0.5-1.6-1.3-1.6c-0.5,0-1,0.4-1.2,1c0,0.1-0.1,0.2-0.1,0.3V173.1z"/>
		<path fill="#FFFFFF" d="M165,172.9c0,1.1,0.7,1.5,1.5,1.5c0.6,0,0.9-0.1,1.2-0.2l0.1,0.6c-0.3,0.1-0.8,0.3-1.4,0.3
			c-1.3,0-2.1-0.9-2.1-2.2s0.8-2.3,2-2.3c1.4,0,1.8,1.3,1.8,2.1c0,0.2,0,0.3,0,0.4H165z M167.3,172.3c0-0.5-0.2-1.3-1.1-1.3
			c-0.8,0-1.2,0.7-1.2,1.3H167.3z"/>
		<path fill="#FFFFFF" d="M169.1,168.5h0.8v2.7h0c0.1-0.2,0.3-0.4,0.6-0.6c0.2-0.1,0.5-0.2,0.8-0.2c0.6,0,1.5,0.4,1.5,1.9v2.6H172
			v-2.5c0-0.7-0.3-1.3-1-1.3c-0.5,0-0.9,0.4-1.1,0.8c0,0.1-0.1,0.2-0.1,0.4v2.6h-0.8V168.5z"/>
		<path fill="#FFFFFF" d="M178,172.7c0,1.6-1.1,2.3-2.2,2.3c-1.2,0-2.1-0.9-2.1-2.2c0-1.5,1-2.3,2.2-2.3
			C177.2,170.4,178,171.3,178,172.7z M174.6,172.7c0,1,0.5,1.7,1.3,1.7c0.8,0,1.3-0.7,1.3-1.7c0-0.7-0.4-1.7-1.3-1.7
			C175,171,174.6,171.9,174.6,172.7z"/>
	</g>
	<g>
		<path fill="#FFFFFF" d="M48,148.9h3.3v0.7h-2.5v2h2.3v0.6h-2.3v2.7H48V148.9z"/>
		<path fill="#FFFFFF" d="M52.5,152.9c0,1.1,0.7,1.5,1.5,1.5c0.6,0,0.9-0.1,1.2-0.2l0.1,0.6c-0.3,0.1-0.8,0.3-1.4,0.3
			c-1.3,0-2.1-0.9-2.1-2.2s0.8-2.3,2-2.3c1.4,0,1.8,1.3,1.8,2.1c0,0.2,0,0.3,0,0.4H52.5z M54.8,152.3c0-0.5-0.2-1.3-1.1-1.3
			c-0.8,0-1.2,0.7-1.2,1.3H54.8z"/>
		<path fill="#FFFFFF" d="M57,152.9c0,1.1,0.7,1.5,1.5,1.5c0.6,0,0.9-0.1,1.2-0.2l0.1,0.6c-0.3,0.1-0.8,0.3-1.4,0.3
			c-1.3,0-2.1-0.9-2.1-2.2s0.8-2.3,2-2.3c1.4,0,1.8,1.3,1.8,2.1c0,0.2,0,0.3,0,0.4H57z M59.3,152.3c0-0.5-0.2-1.3-1.1-1.3
			c-0.8,0-1.2,0.7-1.2,1.3H59.3z"/>
		<path fill="#FFFFFF" d="M64.8,148.5v5.3c0,0.4,0,0.8,0,1.1h-0.7l0-0.8h0c-0.2,0.5-0.8,0.9-1.5,0.9c-1.1,0-1.9-0.9-1.9-2.2
			c0-1.5,0.9-2.3,2-2.3c0.7,0,1.1,0.3,1.3,0.7h0v-2.6H64.8z M64,152.4c0-0.1,0-0.2,0-0.3c-0.1-0.5-0.5-0.9-1.1-0.9
			c-0.8,0-1.3,0.7-1.3,1.7c0,0.9,0.4,1.6,1.3,1.6c0.5,0,1-0.4,1.2-0.9c0-0.1,0-0.2,0-0.3V152.4z"/>
		<path fill="#FFFFFF" d="M66.1,154.9c0-0.3,0-0.7,0-1.1v-5.3h0.8v2.7h0c0.3-0.5,0.8-0.8,1.5-0.8c1.1,0,1.8,0.9,1.8,2.2
			c0,1.6-1,2.3-2,2.3c-0.6,0-1.1-0.2-1.5-0.8h0l0,0.7H66.1z M66.9,153.2c0,0.1,0,0.2,0,0.3c0.2,0.5,0.6,0.9,1.2,0.9
			c0.8,0,1.3-0.7,1.3-1.7c0-0.9-0.5-1.6-1.3-1.6c-0.5,0-1,0.4-1.2,1c0,0.1,0,0.2,0,0.3V153.2z"/>
		<path fill="#FFFFFF" d="M73.7,154.9l-0.1-0.5h0c-0.2,0.3-0.7,0.6-1.3,0.6c-0.9,0-1.3-0.6-1.3-1.3c0-1.1,0.9-1.6,2.6-1.6v-0.1
			c0-0.4-0.1-1-1-1c-0.4,0-0.8,0.1-1.1,0.3l-0.2-0.5c0.4-0.2,0.9-0.4,1.4-0.4c1.3,0,1.7,0.9,1.7,1.8v1.6c0,0.4,0,0.7,0.1,1H73.7z
			 M73.6,152.7c-0.9,0-1.8,0.1-1.8,1c0,0.5,0.3,0.8,0.7,0.8c0.6,0,0.9-0.4,1.1-0.7c0-0.1,0-0.2,0-0.3V152.7z"/>
		<path fill="#FFFFFF" d="M78.7,154.8c-0.2,0.1-0.7,0.3-1.3,0.3c-1.3,0-2.2-0.9-2.2-2.2c0-1.3,0.9-2.3,2.3-2.3
			c0.5,0,0.9,0.1,1.1,0.2l-0.2,0.6c-0.2-0.1-0.5-0.2-0.9-0.2c-1,0-1.5,0.7-1.5,1.6c0,1,0.6,1.6,1.5,1.6c0.5,0,0.7-0.1,1-0.2
			L78.7,154.8z"/>
		<path fill="#FFFFFF" d="M80.4,152.6L80.4,152.6c0.1-0.2,0.3-0.3,0.4-0.5l1.3-1.5h1l-1.7,1.8l1.9,2.6h-1l-1.5-2.1l-0.4,0.5v1.6
			h-0.8v-6.4h0.8V152.6z"/>
	</g>
	<g>
		<path fill="#FFFFFF" d="M21.4,108.7c-0.4,0.1-1,0.3-1.9,0.3c-0.9,0-1.7-0.2-2.3-0.8c-0.5-0.5-0.8-1.3-0.8-2.3
			c0-1.8,1.3-3.1,3.3-3.1c0.7,0,1.3,0.2,1.5,0.3l-0.2,0.6c-0.3-0.1-0.7-0.3-1.3-0.3c-1.5,0-2.4,0.9-2.4,2.4c0,1.5,0.9,2.4,2.3,2.4
			c0.5,0,0.9-0.1,1-0.2v-1.8h-1.2v-0.6h2V108.7z"/>
		<path fill="#FFFFFF" d="M23.1,106.9c0,1.1,0.7,1.5,1.5,1.5c0.6,0,0.9-0.1,1.2-0.2l0.1,0.6c-0.3,0.1-0.8,0.3-1.4,0.3
			c-1.3,0-2.1-0.9-2.1-2.2s0.8-2.3,2-2.3c1.4,0,1.8,1.3,1.8,2.1c0,0.2,0,0.3,0,0.4H23.1z M25.4,106.4c0-0.5-0.2-1.3-1.1-1.3
			c-0.8,0-1.2,0.7-1.2,1.3H25.4z"/>
		<path fill="#FFFFFF" d="M27.1,108.2c0.2,0.2,0.6,0.3,1,0.3c0.6,0,0.8-0.3,0.8-0.6c0-0.4-0.2-0.6-0.8-0.8c-0.8-0.3-1.2-0.7-1.2-1.2
			c0-0.7,0.6-1.3,1.5-1.3c0.4,0,0.8,0.1,1.1,0.3l-0.2,0.6c-0.2-0.1-0.5-0.3-0.9-0.3c-0.5,0-0.7,0.3-0.7,0.6c0,0.4,0.3,0.5,0.8,0.7
			c0.8,0.3,1.1,0.7,1.1,1.3c0,0.8-0.6,1.3-1.6,1.3c-0.5,0-0.9-0.1-1.2-0.3L27.1,108.2z"/>
		<path fill="#FFFFFF" d="M31.7,103.4v1.3h1.1v0.6h-1.1v2.3c0,0.5,0.2,0.8,0.6,0.8c0.2,0,0.4,0,0.5-0.1l0,0.6
			c-0.2,0.1-0.4,0.1-0.7,0.1c-0.4,0-0.7-0.1-0.9-0.3c-0.2-0.2-0.3-0.6-0.3-1.1v-2.4h-0.7v-0.6h0.7v-1L31.7,103.4z"/>
		<path fill="#FFFFFF" d="M36.1,109l-0.1-0.5h0c-0.2,0.3-0.7,0.6-1.3,0.6c-0.9,0-1.3-0.6-1.3-1.3c0-1.1,0.9-1.6,2.6-1.6v-0.1
			c0-0.4-0.1-1-1-1c-0.4,0-0.8,0.1-1.1,0.3l-0.2-0.5c0.4-0.2,0.9-0.4,1.4-0.4c1.3,0,1.7,0.9,1.7,1.8v1.6c0,0.4,0,0.7,0.1,1H36.1z
			 M34.1,103.9c0-0.6,0.2-0.9,0.6-0.9c0.2,0,0.4,0.1,0.6,0.2c0.1,0.1,0.3,0.2,0.4,0.2c0.1,0,0.2-0.1,0.3-0.4h0.4
			c0,0.6-0.2,0.9-0.6,0.9c-0.2,0-0.4-0.1-0.5-0.2c-0.2-0.1-0.3-0.2-0.4-0.2c-0.1,0-0.2,0.2-0.2,0.4H34.1z M36,106.8
			c-0.9,0-1.8,0.1-1.8,1c0,0.5,0.3,0.8,0.7,0.8c0.6,0,0.9-0.4,1.1-0.7c0-0.1,0-0.2,0-0.3V106.8z"/>
		<path fill="#FFFFFF" d="M42,106.8c0,1.6-1.1,2.3-2.2,2.3c-1.2,0-2.1-0.9-2.1-2.2c0-1.5,1-2.3,2.2-2.3
			C41.1,104.5,42,105.4,42,106.8z M38.5,106.8c0,1,0.5,1.7,1.3,1.7c0.8,0,1.3-0.7,1.3-1.7c0-0.7-0.4-1.7-1.3-1.7
			C38.9,105.1,38.5,106,38.5,106.8z"/>
		<path fill="#FFFFFF" d="M48.1,106.1h-2.4v2.2h2.6v0.7h-3.4v-6.1h3.3v0.7h-2.5v1.9h2.4V106.1z"/>
		<path fill="#FFFFFF" d="M49.4,109v-3.8h-0.6v-0.6h0.6v-0.2c0-1.2,0.7-1.9,1.9-1.9c0.4,0,0.9,0.1,1.1,0.3l-0.2,0.6
			c-0.2-0.1-0.5-0.3-0.9-0.3c-0.8,0-1.1,0.6-1.1,1.3v0.2h2.5v4.4h-0.8v-3.8h-1.7v3.8H49.4z"/>
		<path fill="#FFFFFF" d="M57.1,108.8c-0.2,0.1-0.7,0.3-1.3,0.3c-1.3,0-2.2-0.9-2.2-2.2c0-1.3,0.9-2.3,2.3-2.3
			c0.5,0,0.9,0.1,1.1,0.2l-0.2,0.6c-0.2-0.1-0.5-0.2-0.9-0.2c-1,0-1.5,0.7-1.5,1.6c0,1,0.6,1.6,1.5,1.6c0.5,0,0.7-0.1,1-0.2
			L57.1,108.8z"/>
		<path fill="#FFFFFF" d="M58.9,103.4c0,0.3-0.2,0.5-0.5,0.5c-0.3,0-0.5-0.2-0.5-0.5c0-0.3,0.2-0.5,0.5-0.5
			C58.7,102.9,58.9,103.1,58.9,103.4z M58.1,109v-4.4h0.8v4.4H58.1z"/>
		<path fill="#FFFFFF" d="M60.6,106.9c0,1.1,0.7,1.5,1.5,1.5c0.6,0,0.9-0.1,1.2-0.2l0.1,0.6c-0.3,0.1-0.8,0.3-1.4,0.3
			c-1.3,0-2.1-0.9-2.1-2.2s0.8-2.3,2-2.3c1.4,0,1.8,1.3,1.8,2.1c0,0.2,0,0.3,0,0.4H60.6z M62.9,106.4c0-0.5-0.2-1.3-1.1-1.3
			c-0.8,0-1.2,0.7-1.2,1.3H62.9z"/>
		<path fill="#FFFFFF" d="M64.7,105.8c0-0.5,0-0.8,0-1.2h0.7l0,0.7h0c0.2-0.4,0.7-0.8,1.4-0.8c0.6,0,1.5,0.4,1.5,1.9v2.6h-0.8v-2.5
			c0-0.7-0.3-1.3-1-1.3c-0.5,0-0.9,0.4-1.1,0.8c0,0.1-0.1,0.2-0.1,0.4v2.6h-0.8V105.8z"/>
		<path fill="#FFFFFF" d="M70.6,103.4v1.3h1.1v0.6h-1.1v2.3c0,0.5,0.2,0.8,0.6,0.8c0.2,0,0.4,0,0.5-0.1l0,0.6
			c-0.2,0.1-0.4,0.1-0.7,0.1c-0.4,0-0.7-0.1-0.9-0.3c-0.2-0.2-0.3-0.6-0.3-1.1v-2.4h-0.7v-0.6h0.7v-1L70.6,103.4z"/>
		<path fill="#FFFFFF" d="M73,106.9c0,1.1,0.7,1.5,1.5,1.5c0.6,0,0.9-0.1,1.2-0.2l0.1,0.6c-0.3,0.1-0.8,0.3-1.4,0.3
			c-1.3,0-2.1-0.9-2.1-2.2s0.8-2.3,2-2.3c1.4,0,1.8,1.3,1.8,2.1c0,0.2,0,0.3,0,0.4H73z M75.3,106.4c0-0.5-0.2-1.3-1.1-1.3
			c-0.8,0-1.2,0.7-1.2,1.3H75.3z"/>
		<path fill="#FFFFFF" d="M28.2,111.6v5.3c0,0.4,0,0.8,0,1.1h-0.7l0-0.8h0c-0.2,0.5-0.8,0.9-1.5,0.9c-1.1,0-1.9-0.9-1.9-2.2
			c0-1.5,0.9-2.3,2-2.3c0.7,0,1.1,0.3,1.3,0.7h0v-2.6H28.2z M27.5,115.4c0-0.1,0-0.2,0-0.3c-0.1-0.5-0.5-0.9-1.1-0.9
			c-0.8,0-1.3,0.7-1.3,1.7c0,0.9,0.4,1.6,1.3,1.6c0.5,0,1-0.4,1.2-0.9c0-0.1,0-0.2,0-0.3V115.4z"/>
		<path fill="#FFFFFF" d="M30,115.9c0,1.1,0.7,1.5,1.5,1.5c0.6,0,0.9-0.1,1.2-0.2l0.1,0.6c-0.3,0.1-0.8,0.3-1.4,0.3
			c-1.3,0-2.1-0.9-2.1-2.2s0.8-2.3,2-2.3c1.4,0,1.8,1.3,1.8,2.1c0,0.2,0,0.3,0,0.4H30z M32.3,115.4c0-0.5-0.2-1.3-1.1-1.3
			c-0.8,0-1.2,0.7-1.2,1.3H32.3z"/>
		<path fill="#FFFFFF" d="M36,112c0.4-0.1,1-0.1,1.5-0.1c0.8,0,1.4,0.2,1.8,0.5c0.3,0.3,0.5,0.7,0.5,1.2c0,0.8-0.5,1.3-1.1,1.5v0
			c0.5,0.2,0.7,0.6,0.9,1.2c0.2,0.8,0.3,1.4,0.5,1.7h-0.8c-0.1-0.2-0.2-0.7-0.4-1.4c-0.2-0.8-0.5-1.2-1.2-1.2h-0.7v2.6H36V112z
			 M36.8,114.8h0.8c0.8,0,1.4-0.5,1.4-1.2c0-0.8-0.6-1.1-1.4-1.1c-0.4,0-0.6,0-0.8,0.1V114.8z"/>
		<path fill="#FFFFFF" d="M41.3,115.9c0,1.1,0.7,1.5,1.5,1.5c0.6,0,0.9-0.1,1.2-0.2l0.1,0.6c-0.3,0.1-0.8,0.3-1.4,0.3
			c-1.3,0-2.1-0.9-2.1-2.2s0.8-2.3,2-2.3c1.4,0,1.8,1.3,1.8,2.1c0,0.2,0,0.3,0,0.4H41.3z M43.6,115.4c0-0.5-0.2-1.3-1.1-1.3
			c-0.8,0-1.2,0.7-1.2,1.3H43.6z"/>
		<path fill="#FFFFFF" d="M48.5,117.8c-0.2,0.1-0.7,0.3-1.3,0.3c-1.3,0-2.2-0.9-2.2-2.2c0-1.3,0.9-2.3,2.3-2.3
			c0.5,0,0.9,0.1,1.1,0.2l-0.2,0.6c-0.2-0.1-0.5-0.2-0.9-0.2c-1,0-1.5,0.7-1.5,1.6c0,1,0.6,1.6,1.5,1.6c0.5,0,0.7-0.1,1-0.2
			L48.5,117.8z"/>
		<path fill="#FFFFFF" d="M53,116.8c0,0.5,0,0.8,0,1.2h-0.7l0-0.7h0c-0.2,0.4-0.7,0.8-1.4,0.8c-0.7,0-1.5-0.4-1.5-1.9v-2.5h0.8v2.4
			c0,0.8,0.3,1.4,1,1.4c0.5,0,0.9-0.4,1-0.7c0-0.1,0.1-0.3,0.1-0.4v-2.7H53V116.8z"/>
		<path fill="#FFFFFF" d="M54.4,115c0-0.5,0-1,0-1.4H55l0,0.9h0c0.2-0.6,0.7-1,1.2-1c0.1,0,0.2,0,0.2,0v0.7c-0.1,0-0.2,0-0.3,0
			c-0.6,0-1,0.4-1.1,1c0,0.1,0,0.2,0,0.4v2.3h-0.8V115z"/>
		<path fill="#FFFFFF" d="M57.2,117.2c0.2,0.2,0.6,0.3,1,0.3c0.6,0,0.8-0.3,0.8-0.6c0-0.4-0.2-0.6-0.8-0.8c-0.8-0.3-1.2-0.7-1.2-1.2
			c0-0.7,0.6-1.3,1.5-1.3c0.4,0,0.8,0.1,1.1,0.3l-0.2,0.6c-0.2-0.1-0.5-0.3-0.9-0.3c-0.5,0-0.7,0.3-0.7,0.6c0,0.4,0.3,0.5,0.8,0.7
			c0.8,0.3,1.1,0.7,1.1,1.3c0,0.8-0.6,1.3-1.6,1.3c-0.5,0-0.9-0.1-1.2-0.3L57.2,117.2z"/>
		<path fill="#FFFFFF" d="M64.8,115.8c0,1.6-1.1,2.3-2.2,2.3c-1.2,0-2.1-0.9-2.1-2.2c0-1.5,1-2.3,2.2-2.3
			C64,113.5,64.8,114.4,64.8,115.8z M61.3,115.8c0,1,0.5,1.7,1.3,1.7c0.8,0,1.3-0.7,1.3-1.7c0-0.7-0.4-1.7-1.3-1.7
			C61.8,114.1,61.3,115,61.3,115.8z"/>
		<path fill="#FFFFFF" d="M65.7,117.2c0.2,0.2,0.6,0.3,1,0.3c0.6,0,0.8-0.3,0.8-0.6c0-0.4-0.2-0.6-0.8-0.8c-0.8-0.3-1.2-0.7-1.2-1.2
			c0-0.7,0.6-1.3,1.5-1.3c0.4,0,0.8,0.1,1.1,0.3l-0.2,0.6c-0.2-0.1-0.5-0.3-0.9-0.3c-0.5,0-0.7,0.3-0.7,0.6c0,0.4,0.3,0.5,0.8,0.7
			c0.8,0.3,1.1,0.7,1.1,1.3c0,0.8-0.6,1.3-1.6,1.3c-0.5,0-0.9-0.1-1.2-0.3L65.7,117.2z"/>
	</g>
	<g>
		<path fill="#FFFFFF" d="M14.5,81c-0.3,0.1-0.9,0.3-1.6,0.3c-1.7,0-3-1.1-3-3.1c0-1.9,1.3-3.2,3.2-3.2c0.8,0,1.2,0.2,1.4,0.3
			L14.3,76c-0.3-0.1-0.7-0.3-1.2-0.3c-1.4,0-2.4,0.9-2.4,2.5c0,1.5,0.9,2.4,2.3,2.4c0.5,0,1-0.1,1.3-0.3L14.5,81z"/>
		<path fill="#FFFFFF" d="M19.3,79c0,1.6-1.1,2.3-2.2,2.3c-1.2,0-2.1-0.9-2.1-2.2c0-1.5,1-2.3,2.2-2.3C18.4,76.8,19.3,77.7,19.3,79z
			 M15.8,79c0,1,0.5,1.7,1.3,1.7c0.8,0,1.3-0.7,1.3-1.7c0-0.7-0.4-1.7-1.3-1.7C16.2,77.4,15.8,78.2,15.8,79z"/>
		<path fill="#FFFFFF" d="M20.3,78c0-0.5,0-0.8,0-1.2h0.7l0,0.7h0c0.2-0.4,0.6-0.8,1.4-0.8c0.6,0,1,0.4,1.2,0.9h0
			c0.1-0.2,0.3-0.4,0.5-0.6c0.3-0.2,0.5-0.3,1-0.3c0.6,0,1.4,0.4,1.4,1.9v2.6h-0.8v-2.5c0-0.8-0.3-1.3-0.9-1.3
			c-0.5,0-0.8,0.3-0.9,0.7c0,0.1-0.1,0.3-0.1,0.4v2.7H23v-2.6c0-0.7-0.3-1.2-0.9-1.2c-0.5,0-0.9,0.4-1,0.8c0,0.1-0.1,0.3-0.1,0.4
			v2.6h-0.8V78z"/>
		<path fill="#FFFFFF" d="M31.4,80c0,0.5,0,0.8,0,1.2h-0.7l0-0.7h0c-0.2,0.4-0.7,0.8-1.4,0.8c-0.7,0-1.5-0.4-1.5-1.9v-2.5h0.8v2.4
			c0,0.8,0.3,1.4,1,1.4c0.5,0,0.9-0.4,1-0.7c0-0.1,0.1-0.3,0.1-0.4v-2.7h0.8V80z"/>
		<path fill="#FFFFFF" d="M32.7,78c0-0.5,0-0.8,0-1.2h0.7l0,0.7h0c0.2-0.4,0.7-0.8,1.4-0.8c0.6,0,1.5,0.4,1.5,1.9v2.6h-0.8v-2.5
			c0-0.7-0.3-1.3-1-1.3c-0.5,0-0.9,0.4-1.1,0.8c0,0.1-0.1,0.2-0.1,0.4v2.6h-0.8V78z"/>
		<path fill="#FFFFFF" d="M38.6,75.6c0,0.3-0.2,0.5-0.5,0.5c-0.3,0-0.5-0.2-0.5-0.5c0-0.3,0.2-0.5,0.5-0.5
			C38.4,75.1,38.6,75.4,38.6,75.6z M37.7,81.2v-4.4h0.8v4.4H37.7z"/>
		<path fill="#FFFFFF" d="M42.9,81.1c-0.2,0.1-0.7,0.3-1.3,0.3c-1.3,0-2.2-0.9-2.2-2.2c0-1.3,0.9-2.3,2.3-2.3c0.5,0,0.9,0.1,1.1,0.2
			l-0.2,0.6c-0.2-0.1-0.5-0.2-0.9-0.2c-1,0-1.5,0.7-1.5,1.6c0,1,0.6,1.6,1.5,1.6c0.5,0,0.7-0.1,1-0.2L42.9,81.1z"/>
		<path fill="#FFFFFF" d="M46.3,81.2l-0.1-0.5h0c-0.2,0.3-0.7,0.6-1.3,0.6c-0.9,0-1.3-0.6-1.3-1.3c0-1.1,0.9-1.6,2.6-1.6v-0.1
			c0-0.4-0.1-1-1-1c-0.4,0-0.8,0.1-1.1,0.3l-0.2-0.5c0.4-0.2,0.9-0.4,1.4-0.4c1.3,0,1.7,0.9,1.7,1.8v1.6c0,0.4,0,0.7,0.1,1H46.3z
			 M46.1,79c-0.9,0-1.8,0.1-1.8,1c0,0.5,0.3,0.8,0.7,0.8c0.6,0,0.9-0.4,1.1-0.7c0-0.1,0-0.2,0-0.3V79z"/>
		<path fill="#FFFFFF" d="M51.3,81.1c-0.2,0.1-0.6,0.2-1.1,0.3l-0.2,0.4c0.3,0,0.6,0.3,0.6,0.6c0,0.5-0.4,0.7-0.9,0.7
			c-0.2,0-0.5-0.1-0.6-0.2l0.1-0.4c0.1,0.1,0.3,0.1,0.5,0.1c0.2,0,0.4-0.1,0.4-0.3c0-0.2-0.3-0.3-0.7-0.4l0.4-0.7
			c-1.1-0.1-1.8-1-1.8-2.2c0-1.3,0.9-2.3,2.3-2.3c0.5,0,0.9,0.1,1.1,0.2l-0.2,0.6c-0.2-0.1-0.5-0.2-0.9-0.2c-1,0-1.5,0.7-1.5,1.6
			c0,1,0.6,1.6,1.5,1.6c0.5,0,0.7-0.1,1-0.2L51.3,81.1z"/>
		<path fill="#FFFFFF" d="M54.6,81.2l-0.1-0.5h0c-0.2,0.3-0.7,0.6-1.3,0.6c-0.9,0-1.3-0.6-1.3-1.3c0-1.1,0.9-1.6,2.6-1.6v-0.1
			c0-0.4-0.1-1-1-1c-0.4,0-0.8,0.1-1.1,0.3l-0.2-0.5c0.4-0.2,0.9-0.4,1.4-0.4c1.3,0,1.7,0.9,1.7,1.8v1.6c0,0.4,0,0.7,0.1,1H54.6z
			 M52.6,76.1c0-0.6,0.2-0.9,0.6-0.9c0.2,0,0.4,0.1,0.6,0.2c0.1,0.1,0.3,0.2,0.4,0.2c0.1,0,0.2-0.1,0.3-0.4h0.4
			c0,0.6-0.2,0.9-0.6,0.9c-0.2,0-0.4-0.1-0.5-0.2c-0.2-0.1-0.3-0.2-0.4-0.2c-0.1,0-0.2,0.2-0.2,0.4H52.6z M54.5,79
			c-0.9,0-1.8,0.1-1.8,1c0,0.5,0.3,0.8,0.7,0.8c0.6,0,0.9-0.4,1.1-0.7c0-0.1,0-0.2,0-0.3V79z"/>
		<path fill="#FFFFFF" d="M60.5,79c0,1.6-1.1,2.3-2.2,2.3c-1.2,0-2.1-0.9-2.1-2.2c0-1.5,1-2.3,2.2-2.3C59.7,76.8,60.5,77.7,60.5,79z
			 M57,79c0,1,0.5,1.7,1.3,1.7c0.8,0,1.3-0.7,1.3-1.7c0-0.7-0.4-1.7-1.3-1.7C57.5,77.4,57,78.2,57,79z"/>
		<path fill="#FFFFFF" d="M63.9,79.2c0,1.1,0.7,1.5,1.5,1.5c0.6,0,0.9-0.1,1.2-0.2l0.1,0.6c-0.3,0.1-0.8,0.3-1.4,0.3
			c-1.3,0-2.1-0.9-2.1-2.2s0.8-2.3,2-2.3c1.4,0,1.8,1.3,1.8,2.1c0,0.2,0,0.3,0,0.4H63.9z M66.2,78.6c0-0.5-0.2-1.3-1.1-1.3
			c-0.8,0-1.2,0.7-1.2,1.3H66.2z"/>
		<path fill="#FFFFFF" d="M21.4,84.1v6.1h-0.8v-6.1H21.4z"/>
		<path fill="#FFFFFF" d="M22.9,87c0-0.5,0-0.8,0-1.2h0.7l0,0.7h0c0.2-0.4,0.7-0.8,1.4-0.8c0.6,0,1.5,0.4,1.5,1.9v2.6h-0.8v-2.5
			c0-0.7-0.3-1.3-1-1.3c-0.5,0-0.9,0.4-1.1,0.8c0,0.1-0.1,0.2-0.1,0.4v2.6h-0.8V87z"/>
		<path fill="#FFFFFF" d="M27.9,90.2v-3.8h-0.6v-0.6h0.6v-0.2c0-0.6,0.2-1.1,0.6-1.5c0.3-0.3,0.8-0.4,1.4-0.4c0.5,0,1,0.1,1.3,0.3
			v6.2h-0.8v-5.8c-0.1-0.1-0.3-0.1-0.6-0.1c-0.8,0-1.1,0.6-1.1,1.3v0.2h1v0.6h-1v3.8H27.9z"/>
		<path fill="#FFFFFF" d="M36.2,89c0,0.5,0,0.8,0,1.2h-0.7l0-0.7h0c-0.2,0.4-0.7,0.8-1.4,0.8c-0.7,0-1.5-0.4-1.5-1.9v-2.5h0.8v2.4
			c0,0.8,0.3,1.4,1,1.4c0.5,0,0.9-0.4,1-0.7c0-0.1,0.1-0.3,0.1-0.4v-2.7h0.8V89z"/>
		<path fill="#FFFFFF" d="M38,88.2c0,1.1,0.7,1.5,1.5,1.5c0.6,0,0.9-0.1,1.2-0.2l0.1,0.6c-0.3,0.1-0.8,0.3-1.4,0.3
			c-1.3,0-2.1-0.9-2.1-2.2s0.8-2.3,2-2.3c1.4,0,1.8,1.3,1.8,2.1c0,0.2,0,0.3,0,0.4H38z M40.3,87.6c0-0.5-0.2-1.3-1.1-1.3
			c-0.8,0-1.2,0.7-1.2,1.3H40.3z M39.5,84l0.9,1.3h-0.6l-0.5-0.9h0l-0.5,0.9h-0.6l0.9-1.3H39.5z"/>
		<path fill="#FFFFFF" d="M42,87c0-0.5,0-0.8,0-1.2h0.7l0,0.7h0c0.2-0.4,0.7-0.8,1.4-0.8c0.6,0,1.5,0.4,1.5,1.9v2.6h-0.8v-2.5
			c0-0.7-0.3-1.3-1-1.3c-0.5,0-0.9,0.4-1.1,0.8c0,0.1-0.1,0.2-0.1,0.4v2.6H42V87z"/>
		<path fill="#FFFFFF" d="M50.1,90.1c-0.2,0.1-0.7,0.3-1.3,0.3c-1.3,0-2.2-0.9-2.2-2.2c0-1.3,0.9-2.3,2.3-2.3c0.5,0,0.9,0.1,1.1,0.2
			L50,86.6c-0.2-0.1-0.5-0.2-0.9-0.2c-1,0-1.5,0.7-1.5,1.6c0,1,0.6,1.6,1.5,1.6c0.5,0,0.7-0.1,1-0.2L50.1,90.1z"/>
		<path fill="#FFFFFF" d="M51.9,84.6c0,0.3-0.2,0.5-0.5,0.5c-0.3,0-0.5-0.2-0.5-0.5c0-0.3,0.2-0.5,0.5-0.5
			C51.7,84.1,51.9,84.4,51.9,84.6z M51.1,90.2v-4.4h0.8v4.4H51.1z"/>
		<path fill="#FFFFFF" d="M55.6,90.2l-0.1-0.5h0c-0.2,0.3-0.7,0.6-1.3,0.6c-0.9,0-1.3-0.6-1.3-1.3c0-1.1,0.9-1.6,2.6-1.6v-0.1
			c0-0.4-0.1-1-1-1c-0.4,0-0.8,0.1-1.1,0.3l-0.2-0.5c0.4-0.2,0.9-0.4,1.4-0.4c1.3,0,1.7,0.9,1.7,1.8v1.6c0,0.4,0,0.7,0.1,1H55.6z
			 M55.5,88c-0.9,0-1.8,0.1-1.8,1c0,0.5,0.3,0.8,0.7,0.8c0.6,0,0.9-0.4,1.1-0.7c0-0.1,0-0.2,0-0.3V88z"/>
	</g>
	<g>
		<path fill="#FFFFFF" d="M0,36.7c0.5-0.1,1-0.1,1.7-0.1c1.1,0,1.9,0.3,2.5,0.8C4.7,37.9,5,38.6,5,39.6c0,1-0.3,1.8-0.9,2.4
			c-0.6,0.6-1.5,0.9-2.7,0.9c-0.6,0-1,0-1.4-0.1V36.7z M0.8,42.1c0.2,0,0.5,0,0.8,0c1.7,0,2.6-0.9,2.6-2.6c0-1.4-0.8-2.3-2.5-2.3
			c-0.4,0-0.7,0-0.9,0.1V42.1z"/>
		<path fill="#FFFFFF" d="M6.4,40.7c0,1.1,0.7,1.5,1.5,1.5c0.6,0,0.9-0.1,1.2-0.2l0.1,0.6c-0.3,0.1-0.8,0.3-1.4,0.3
			c-1.3,0-2.1-0.9-2.1-2.2s0.8-2.3,2-2.3c1.4,0,1.8,1.3,1.8,2.1c0,0.2,0,0.3,0,0.4H6.4z M8.8,40.1c0-0.5-0.2-1.3-1.1-1.3
			c-0.8,0-1.2,0.7-1.2,1.3H8.8z"/>
		<path fill="#FFFFFF" d="M10.5,36.3h0.8v6.4h-0.8V36.3z"/>
		<path fill="#FFFFFF" d="M13.1,40.7c0,1.1,0.7,1.5,1.5,1.5c0.6,0,0.9-0.1,1.2-0.2l0.1,0.6c-0.3,0.1-0.8,0.3-1.4,0.3
			c-1.3,0-2.1-0.9-2.1-2.2s0.8-2.3,2-2.3c1.4,0,1.8,1.3,1.8,2.1c0,0.2,0,0.3,0,0.4H13.1z M15.4,40.1c0-0.5-0.2-1.3-1.1-1.3
			c-0.8,0-1.2,0.7-1.2,1.3H15.4z"/>
		<path fill="#FFFFFF" d="M20.9,38.4c0,0.3,0,0.7,0,1.2v2.5c0,1-0.2,1.6-0.6,2c-0.4,0.4-1,0.5-1.6,0.5c-0.5,0-1.1-0.1-1.4-0.4
			l0.2-0.6c0.3,0.2,0.7,0.3,1.3,0.3c0.8,0,1.4-0.4,1.4-1.5V42h0c-0.2,0.4-0.7,0.7-1.4,0.7c-1.1,0-1.9-0.9-1.9-2.1c0-1.5,1-2.3,2-2.3
			c0.8,0,1.2,0.4,1.4,0.8h0l0-0.7H20.9z M20.1,40.1c0-0.1,0-0.3,0-0.4c-0.1-0.5-0.5-0.8-1.1-0.8c-0.8,0-1.3,0.6-1.3,1.6
			c0,0.9,0.4,1.6,1.3,1.6c0.5,0,0.9-0.3,1.1-0.8c0-0.1,0.1-0.3,0.1-0.4V40.1z"/>
		<path fill="#FFFFFF" d="M24.6,42.7l-0.1-0.5h0c-0.2,0.3-0.7,0.6-1.3,0.6c-0.9,0-1.3-0.6-1.3-1.3c0-1.1,0.9-1.6,2.6-1.6v-0.1
			c0-0.4-0.1-1-1-1c-0.4,0-0.8,0.1-1.1,0.3l-0.2-0.5c0.4-0.2,0.9-0.4,1.4-0.4c1.3,0,1.7,0.9,1.7,1.8v1.6c0,0.4,0,0.7,0.1,1H24.6z
			 M24.5,40.5c-0.9,0-1.8,0.1-1.8,1c0,0.5,0.3,0.8,0.7,0.8c0.6,0,0.9-0.4,1.1-0.7c0-0.1,0-0.2,0-0.3V40.5z"/>
		<path fill="#FFFFFF" d="M29.6,42.6c-0.2,0.1-0.6,0.2-1.1,0.3l-0.2,0.4c0.3,0,0.6,0.3,0.6,0.6c0,0.5-0.4,0.7-0.9,0.7
			c-0.2,0-0.5-0.1-0.6-0.2l0.1-0.4c0.1,0.1,0.3,0.1,0.5,0.1c0.2,0,0.4-0.1,0.4-0.3c0-0.2-0.3-0.3-0.7-0.4l0.4-0.7
			c-1.1-0.1-1.8-1-1.8-2.2c0-1.3,0.9-2.3,2.3-2.3c0.5,0,0.9,0.1,1.1,0.2l-0.2,0.6c-0.2-0.1-0.5-0.2-0.9-0.2c-1,0-1.5,0.7-1.5,1.6
			c0,1,0.6,1.6,1.5,1.6c0.5,0,0.7-0.1,1-0.2L29.6,42.6z"/>
		<path fill="#FFFFFF" d="M33,42.7l-0.1-0.5h0c-0.2,0.3-0.7,0.6-1.3,0.6c-0.9,0-1.3-0.6-1.3-1.3c0-1.1,0.9-1.6,2.6-1.6v-0.1
			c0-0.4-0.1-1-1-1c-0.4,0-0.8,0.1-1.1,0.3l-0.2-0.5c0.4-0.2,0.9-0.4,1.4-0.4c1.3,0,1.7,0.9,1.7,1.8v1.6c0,0.4,0,0.7,0.1,1H33z
			 M30.9,37.6c0-0.6,0.2-0.9,0.6-0.9c0.2,0,0.4,0.1,0.6,0.2c0.1,0.1,0.3,0.2,0.4,0.2c0.1,0,0.2-0.1,0.3-0.4h0.4
			c0,0.6-0.2,0.9-0.6,0.9c-0.2,0-0.4-0.1-0.5-0.2c-0.2-0.1-0.3-0.2-0.4-0.2c-0.1,0-0.2,0.2-0.2,0.4H30.9z M32.8,40.5
			c-0.9,0-1.8,0.1-1.8,1c0,0.5,0.3,0.8,0.7,0.8c0.6,0,0.9-0.4,1.1-0.7c0-0.1,0-0.2,0-0.3V40.5z"/>
		<path fill="#FFFFFF" d="M38.8,40.5c0,1.6-1.1,2.3-2.2,2.3c-1.2,0-2.1-0.9-2.1-2.2c0-1.5,1-2.3,2.2-2.3
			C38,38.3,38.8,39.2,38.8,40.5z M35.4,40.6c0,1,0.5,1.7,1.3,1.7c0.8,0,1.3-0.7,1.3-1.7c0-0.7-0.4-1.7-1.3-1.7
			C35.8,38.9,35.4,39.7,35.4,40.6z"/>
		<path fill="#FFFFFF" d="M42.2,40.7c0,1.1,0.7,1.5,1.5,1.5c0.6,0,0.9-0.1,1.2-0.2l0.1,0.6c-0.3,0.1-0.8,0.3-1.4,0.3
			c-1.3,0-2.1-0.9-2.1-2.2s0.8-2.3,2-2.3c1.4,0,1.8,1.3,1.8,2.1c0,0.2,0,0.3,0,0.4H42.2z M44.5,40.1c0-0.5-0.2-1.3-1.1-1.3
			c-0.8,0-1.2,0.7-1.2,1.3H44.5z"/>
		<path fill="#FFFFFF" d="M4.9,45.7h0.8v5.4h2.6v0.7H4.9V45.7z"/>
		<path fill="#FFFFFF" d="M10,46.1c0,0.3-0.2,0.5-0.5,0.5c-0.3,0-0.5-0.2-0.5-0.5c0-0.3,0.2-0.5,0.5-0.5C9.8,45.7,10,45.9,10,46.1z
			 M9.1,51.7v-4.4h0.8v4.4H9.1z"/>
		<path fill="#FFFFFF" d="M15,45.3v5.3c0,0.4,0,0.8,0,1.1h-0.7l0-0.8h0c-0.2,0.5-0.8,0.9-1.5,0.9c-1.1,0-1.9-0.9-1.9-2.2
			c0-1.5,0.9-2.3,2-2.3c0.7,0,1.1,0.3,1.3,0.7h0v-2.6H15z M14.2,49.1c0-0.1,0-0.2,0-0.3c-0.1-0.5-0.5-0.9-1.1-0.9
			c-0.8,0-1.3,0.7-1.3,1.7c0,0.9,0.4,1.6,1.3,1.6c0.5,0,1-0.4,1.2-0.9c0-0.1,0-0.2,0-0.3V49.1z"/>
		<path fill="#FFFFFF" d="M16.7,49.7c0,1.1,0.7,1.5,1.5,1.5c0.6,0,0.9-0.1,1.2-0.2l0.1,0.6c-0.3,0.1-0.8,0.3-1.4,0.3
			c-1.3,0-2.1-0.9-2.1-2.2s0.8-2.3,2-2.3c1.4,0,1.8,1.3,1.8,2.1c0,0.2,0,0.3,0,0.4H16.7z M19,49.1c0-0.5-0.2-1.3-1.1-1.3
			c-0.8,0-1.2,0.7-1.2,1.3H19z"/>
		<path fill="#FFFFFF" d="M20.8,48.7c0-0.5,0-1,0-1.4h0.7l0,0.9h0c0.2-0.6,0.7-1,1.2-1c0.1,0,0.2,0,0.2,0V48c-0.1,0-0.2,0-0.3,0
			c-0.6,0-1,0.4-1.1,1c0,0.1,0,0.2,0,0.4v2.3h-0.8V48.7z"/>
		<path fill="#FFFFFF" d="M26.1,51.7L26,51.2h0c-0.2,0.3-0.7,0.6-1.3,0.6c-0.9,0-1.3-0.6-1.3-1.3c0-1.1,0.9-1.6,2.6-1.6v-0.1
			c0-0.4-0.1-1-1-1c-0.4,0-0.8,0.1-1.1,0.3l-0.2-0.5c0.4-0.2,0.9-0.4,1.4-0.4c1.3,0,1.7,0.9,1.7,1.8v1.6c0,0.4,0,0.7,0.1,1H26.1z
			 M26,49.5c-0.9,0-1.8,0.1-1.8,1c0,0.5,0.3,0.8,0.7,0.8c0.6,0,0.9-0.4,1.1-0.7c0-0.1,0-0.2,0-0.3V49.5z"/>
		<path fill="#FFFFFF" d="M28,48.6c0-0.5,0-0.8,0-1.2h0.7l0,0.7h0c0.2-0.4,0.7-0.8,1.4-0.8c0.6,0,1.5,0.4,1.5,1.9v2.6h-0.8v-2.5
			c0-0.7-0.3-1.3-1-1.3c-0.5,0-0.9,0.4-1.1,0.8c0,0.1-0.1,0.2-0.1,0.4v2.6H28V48.6z"/>
		<path fill="#FFFFFF" d="M36.1,51.6c-0.2,0.1-0.6,0.2-1.1,0.3l-0.2,0.4c0.3,0,0.6,0.3,0.6,0.6c0,0.5-0.4,0.7-0.9,0.7
			c-0.2,0-0.5-0.1-0.6-0.2L34,53c0.1,0.1,0.3,0.1,0.5,0.1c0.2,0,0.4-0.1,0.4-0.3c0-0.2-0.3-0.3-0.7-0.4l0.4-0.7
			c-1.1-0.1-1.8-1-1.8-2.2c0-1.3,0.9-2.3,2.3-2.3c0.5,0,0.9,0.1,1.1,0.2L36,48.1c-0.2-0.1-0.5-0.2-0.9-0.2c-1,0-1.5,0.7-1.5,1.6
			c0,1,0.6,1.6,1.5,1.6c0.5,0,0.7-0.1,1-0.2L36.1,51.6z"/>
		<path fill="#FFFFFF" d="M39.5,51.7l-0.1-0.5h0c-0.2,0.3-0.7,0.6-1.3,0.6c-0.9,0-1.3-0.6-1.3-1.3c0-1.1,0.9-1.6,2.6-1.6v-0.1
			c0-0.4-0.1-1-1-1c-0.4,0-0.8,0.1-1.1,0.3L37,47.7c0.4-0.2,0.9-0.4,1.4-0.4c1.3,0,1.7,0.9,1.7,1.8v1.6c0,0.4,0,0.7,0.1,1H39.5z
			 M39.3,49.5c-0.9,0-1.8,0.1-1.8,1c0,0.5,0.3,0.8,0.7,0.8c0.6,0,0.9-0.4,1.1-0.7c0-0.1,0-0.2,0-0.3V49.5z"/>
	</g>
</g>
</svg>