<!-- Generator: Adobe Illustrator 17.1.0, SVG Export Plug-In  -->
<svg version="1.1"
	 xmlns="http://www.w3.org/2000/svg" xmlns:xlink="http://www.w3.org/1999/xlink" xmlns:a="http://ns.adobe.com/AdobeSVGViewerExtensions/3.0/"
	 x="0px" y="0px" width="242.7px" height="31.4px" viewBox="0 0 242.7 31.4" enable-background="new 0 0 242.7 31.4"
	 xml:space="preserve">
<defs>
</defs>
<g>
	<path fill="#FFFFFF" d="M1.5,5.2l0.9,0h2.9c0,0.2,0.1,0.4,0.1,0.6c0,0.2,0,0.4-0.1,0.6H2.4c-0.4,0-0.7,0-0.9,0v2.6
		c0,0.1,0,0.2,0,0.4c0,0.2,0,0.3,0,0.4c0.3,0,0.6,0,1,0h3.9c0,0.3,0,0.5,0,0.6c-0.1,0.5-0.4,0.7-1,0.7H0.9c-0.3,0-0.5-0.1-0.6-0.2
		S0,10.4,0,10.1V0.9l0.1-0.1h6c0,0.2,0,0.3,0,0.6s0,0.5-0.1,0.7H2.4c-0.4,0-0.7,0-0.9,0l0,1V5.2z"/>
	<path fill="#FFFFFF" d="M7.6,10.5c0-0.2,0.1-0.4,0.2-0.6c0.1-0.2,0.2-0.4,0.3-0.5c0.8,0.5,1.5,0.7,2,0.7c0.5,0,0.9-0.1,1.1-0.3
		c0.3-0.2,0.4-0.4,0.4-0.7c0-0.5-0.3-0.8-1-1.1L9.8,7.7C8.5,7.3,7.8,6.6,7.8,5.6C7.8,5,8.1,4.4,8.6,4c0.5-0.4,1.1-0.6,2-0.6
		s1.6,0.2,2.3,0.5c0,0.2,0,0.4-0.1,0.6S12.6,4.9,12.5,5c-0.7-0.3-1.4-0.5-2-0.5c-0.3,0-0.6,0.1-0.8,0.2S9.3,5.2,9.3,5.4
		S9.4,5.9,9.5,6c0.2,0.1,0.4,0.3,0.7,0.4l0.9,0.3C12.5,7.3,13.1,8,13.1,9c0,0.7-0.3,1.2-0.8,1.6c-0.5,0.4-1.2,0.6-2.1,0.6
		S8.4,11,7.6,10.5z"/>
	<path fill="#FFFFFF" d="M14.1,10.5c0-0.2,0.1-0.4,0.2-0.6c0.1-0.2,0.2-0.4,0.3-0.5c0.8,0.5,1.5,0.7,2,0.7c0.5,0,0.9-0.1,1.1-0.3
		c0.3-0.2,0.4-0.4,0.4-0.7c0-0.5-0.3-0.8-1-1.1l-0.8-0.3c-1.3-0.5-1.9-1.2-1.9-2.1c0-0.7,0.2-1.2,0.7-1.6c0.5-0.4,1.1-0.6,2-0.6
		s1.6,0.2,2.3,0.5c0,0.2,0,0.4-0.1,0.6S19.1,4.9,19,5c-0.7-0.3-1.4-0.5-2-0.5c-0.3,0-0.6,0.1-0.8,0.2s-0.3,0.4-0.3,0.6
		s0.1,0.4,0.2,0.6c0.2,0.1,0.4,0.3,0.7,0.4l0.9,0.3C19,7.3,19.6,8,19.6,9c0,0.7-0.3,1.2-0.8,1.6c-0.5,0.4-1.2,0.6-2.1,0.6
		S15,11,14.1,10.5z"/>
	<path fill="#FFFFFF" d="M27.1,10.4c-0.1,0.3-0.3,0.6-0.6,0.8c-0.5-0.1-0.9-0.4-1.1-1c-0.7,0.7-1.5,1.1-2.2,1.1s-1.3-0.2-1.7-0.7
		c-0.4-0.4-0.6-1-0.6-1.5c0-0.8,0.3-1.4,0.8-1.9c0.5-0.4,1.2-0.6,2.1-0.6c0.5,0,1,0,1.5,0.1V6c0-0.9-0.4-1.4-1.3-1.4
		c-0.6,0-1.4,0.2-2.4,0.6c-0.3-0.3-0.4-0.6-0.4-1.1c1-0.5,2.1-0.7,3.1-0.7c0.8,0,1.4,0.2,1.8,0.6s0.6,1,0.6,1.9v3.1
		C26.7,9.7,26.8,10.1,27.1,10.4z M23.4,10.1c0.7,0,1.3-0.3,1.8-1V7.6c-0.4,0-0.8-0.1-1.4-0.1S23,7.7,22.7,7.9
		c-0.3,0.2-0.4,0.6-0.4,0.9s0.1,0.7,0.3,0.9C22.8,9.9,23.1,10.1,23.4,10.1z"/>
	<path fill="#FFFFFF" d="M37.7,7.8h-4.5c0,0.7,0.2,1.3,0.4,1.7C34,9.8,34.5,10,35.1,10s1.3-0.2,2.1-0.6c0.3,0.2,0.4,0.6,0.5,0.9
		c-0.8,0.6-1.7,0.8-2.8,0.8s-1.9-0.4-2.3-1.1c-0.5-0.7-0.7-1.7-0.7-2.8c0-1.2,0.3-2.1,0.8-2.8c0.5-0.7,1.3-1.1,2.3-1.1
		s1.7,0.3,2.2,0.9c0.5,0.6,0.8,1.4,0.8,2.3C37.8,7,37.8,7.4,37.7,7.8z M36.1,5.1c-0.3-0.4-0.6-0.6-1.1-0.6c-0.5,0-0.9,0.2-1.2,0.6
		c-0.3,0.4-0.4,0.9-0.4,1.6h3.1V6.5C36.4,5.9,36.3,5.5,36.1,5.1z M33.8,2.4L36,0c0.2,0.1,0.4,0.2,0.6,0.4C36.8,0.6,36.9,0.8,37,1
		l-2.5,2C34.2,2.9,33.9,2.7,33.8,2.4z"/>
	<path fill="#FFFFFF" d="M48.8,10.4c-0.1,0.3-0.3,0.6-0.6,0.8c-0.5-0.1-0.9-0.4-1.1-1c-0.7,0.7-1.5,1.1-2.2,1.1s-1.3-0.2-1.7-0.7
		c-0.4-0.4-0.6-1-0.6-1.5c0-0.8,0.3-1.4,0.8-1.9c0.5-0.4,1.2-0.6,2.1-0.6c0.5,0,1,0,1.5,0.1V6c0-0.9-0.4-1.4-1.3-1.4
		c-0.6,0-1.4,0.2-2.4,0.6C43,5,42.9,4.6,42.9,4.2c1-0.5,2.1-0.7,3.1-0.7c0.8,0,1.4,0.2,1.8,0.6s0.6,1,0.6,1.9v3.1
		C48.4,9.7,48.5,10.1,48.8,10.4z M45.1,10.1c0.7,0,1.3-0.3,1.8-1V7.6c-0.4,0-0.8-0.1-1.4-0.1s-0.9,0.1-1.2,0.4
		C44.2,8.2,44,8.5,44,8.9s0.1,0.7,0.3,0.9C44.5,9.9,44.8,10.1,45.1,10.1z"/>
	<path fill="#FFFFFF" d="M59.8,5.9v3.6c0,0.6,0.1,1,0.2,1.3c-0.3,0.2-0.6,0.3-0.9,0.3c-0.5,0-0.8-0.3-0.8-0.9V6.3
		c0-0.5-0.1-0.9-0.2-1.1c-0.1-0.2-0.4-0.3-0.7-0.3c-0.3,0-0.7,0.1-1.1,0.3c-0.4,0.2-0.7,0.4-1,0.7V11c-0.2,0-0.4,0.1-0.7,0.1
		s-0.6,0-0.7-0.1V3.7l0.1-0.1h0.5c0.5,0,0.8,0.3,0.8,0.9c0.8-0.7,1.6-1,2.4-1c0.7,0,1.2,0.2,1.5,0.7C59.7,4.6,59.8,5.2,59.8,5.9z"/>
	<path fill="#FFFFFF" d="M67,4.3C67.7,5,68.1,6,68.1,7.3s-0.4,2.4-1.1,3.1c-0.5,0.5-1.3,0.8-2.2,0.8c-0.9,0-1.6-0.3-2.2-0.8
		c-0.7-0.7-1-1.7-1-3.1s0.3-2.4,1-3.1c0.5-0.5,1.3-0.8,2.2-0.8C65.8,3.4,66.5,3.7,67,4.3z M63.2,7.3c0,1.8,0.6,2.8,1.7,2.8
		c1.1,0,1.7-0.9,1.7-2.8c0-0.5,0-1-0.1-1.4c-0.1-0.4-0.3-0.7-0.5-1c-0.3-0.3-0.6-0.4-1-0.4s-0.8,0.1-1,0.4c-0.3,0.3-0.4,0.6-0.5,1
		C63.2,6.4,63.2,6.8,63.2,7.3z"/>
	<path fill="#FFFFFF" d="M69.3,10.5c0-0.2,0.1-0.4,0.2-0.6c0.1-0.2,0.2-0.4,0.3-0.5c0.8,0.5,1.5,0.7,2,0.7c0.5,0,0.9-0.1,1.1-0.3
		c0.3-0.2,0.4-0.4,0.4-0.7c0-0.5-0.3-0.8-1-1.1l-0.8-0.3c-1.3-0.5-1.9-1.2-1.9-2.1c0-0.7,0.2-1.2,0.7-1.6c0.5-0.4,1.1-0.6,2-0.6
		s1.6,0.2,2.3,0.5c0,0.2,0,0.4-0.1,0.6S74.3,4.9,74.1,5c-0.7-0.3-1.4-0.5-2-0.5c-0.3,0-0.6,0.1-0.8,0.2S71,5.2,71,5.4
		s0.1,0.4,0.2,0.6c0.2,0.1,0.4,0.3,0.7,0.4l0.9,0.3C74.1,7.3,74.8,8,74.8,9c0,0.7-0.3,1.2-0.8,1.6c-0.5,0.4-1.2,0.6-2.1,0.6
		S70.1,11,69.3,10.5z"/>
	<path fill="#FFFFFF" d="M75.8,10.5c0-0.2,0.1-0.4,0.2-0.6c0.1-0.2,0.2-0.4,0.3-0.5c0.8,0.5,1.5,0.7,2,0.7c0.5,0,0.9-0.1,1.1-0.3
		c0.3-0.2,0.4-0.4,0.4-0.7c0-0.5-0.3-0.8-1-1.1L78,7.7c-1.3-0.5-1.9-1.2-1.9-2.1c0-0.7,0.2-1.2,0.7-1.6c0.5-0.4,1.1-0.6,2-0.6
		s1.6,0.2,2.3,0.5c0,0.2,0,0.4-0.1,0.6S80.8,4.9,80.7,5c-0.7-0.3-1.4-0.5-2-0.5c-0.3,0-0.6,0.1-0.8,0.2s-0.3,0.4-0.3,0.6
		s0.1,0.4,0.2,0.6c0.2,0.1,0.4,0.3,0.7,0.4l0.9,0.3C80.7,7.3,81.3,8,81.3,9c0,0.7-0.3,1.2-0.8,1.6c-0.5,0.4-1.2,0.6-2.1,0.6
		S76.7,11,75.8,10.5z"/>
	<path fill="#FFFFFF" d="M88.8,10.4c-0.1,0.3-0.3,0.6-0.6,0.8c-0.5-0.1-0.9-0.4-1.1-1c-0.7,0.7-1.5,1.1-2.2,1.1s-1.3-0.2-1.7-0.7
		c-0.4-0.4-0.6-1-0.6-1.5c0-0.8,0.3-1.4,0.8-1.9c0.5-0.4,1.2-0.6,2.1-0.6c0.5,0,1,0,1.5,0.1V6c0-0.9-0.4-1.4-1.3-1.4
		c-0.6,0-1.4,0.2-2.4,0.6C83,5,82.9,4.6,82.8,4.2c1-0.5,2.1-0.7,3.1-0.7c0.8,0,1.4,0.2,1.8,0.6s0.6,1,0.6,1.9v3.1
		C88.3,9.7,88.5,10.1,88.8,10.4z M85.1,10.1c0.7,0,1.3-0.3,1.8-1V7.6c-0.4,0-0.8-0.1-1.4-0.1s-0.9,0.1-1.2,0.4
		C84.2,8.2,84,8.5,84,8.9s0.1,0.7,0.3,0.9C84.5,9.9,84.7,10.1,85.1,10.1z"/>
	<path fill="#FFFFFF" d="M98.1,6.3c0-0.5-0.1-0.9-0.2-1.1c-0.1-0.2-0.4-0.3-0.7-0.3c-0.6,0-1.1,0.3-1.7,1V11c-0.2,0-0.4,0.1-0.7,0.1
		s-0.6,0-0.7-0.1V3.7l0.1-0.1h0.5c0.5,0,0.8,0.3,0.8,0.9c0.7-0.7,1.4-1,2.2-1s1.3,0.4,1.7,1.1c0.8-0.7,1.6-1.1,2.4-1.1
		c0.6,0,1.1,0.2,1.4,0.7c0.3,0.4,0.5,1,0.5,1.7v3.6c0,0.6,0.1,1,0.2,1.3c-0.2,0.2-0.5,0.3-0.9,0.3c-0.5,0-0.8-0.3-0.8-0.9V6.3
		c0-0.5-0.1-0.9-0.2-1.1c-0.1-0.2-0.4-0.3-0.7-0.3c-0.6,0-1.2,0.3-1.7,1V11c-0.2,0-0.4,0.1-0.7,0.1c-0.3,0-0.5,0-0.7-0.1V6.3z"/>
	<path fill="#FFFFFF" d="M107.6,4.9V11c-0.2,0-0.4,0.1-0.7,0.1c-0.3,0-0.6,0-0.7-0.1V5.5c0-0.3,0-0.5-0.1-0.6
		c-0.1-0.1-0.3-0.2-0.5-0.2h-0.2c0-0.2-0.1-0.3-0.1-0.5c0-0.2,0-0.4,0.1-0.5c0.3,0,0.6-0.1,0.9-0.1h0.2c0.4,0,0.6,0.1,0.8,0.3
		S107.6,4.5,107.6,4.9z M105.7,1.6c0-0.3,0-0.5,0.1-0.6c0.2-0.1,0.5-0.2,0.8-0.2s0.6,0.1,0.8,0.2c0.1,0.2,0.1,0.4,0.1,0.6
		s0,0.5-0.1,0.6c-0.2,0.1-0.4,0.2-0.8,0.2c-0.4,0-0.6-0.1-0.8-0.2C105.7,2,105.7,1.8,105.7,1.6z"/>
	<path fill="#FFFFFF" d="M109.2,10.5c0-0.2,0.1-0.4,0.2-0.6c0.1-0.2,0.2-0.4,0.3-0.5c0.8,0.5,1.5,0.7,2,0.7c0.5,0,0.9-0.1,1.1-0.3
		c0.3-0.2,0.4-0.4,0.4-0.7c0-0.5-0.3-0.8-1-1.1l-0.8-0.3c-1.3-0.5-1.9-1.2-1.9-2.1c0-0.7,0.2-1.2,0.7-1.6c0.5-0.4,1.1-0.6,2-0.6
		s1.6,0.2,2.3,0.5c0,0.2,0,0.4-0.1,0.6s-0.2,0.4-0.3,0.5c-0.7-0.3-1.4-0.5-2-0.5c-0.3,0-0.6,0.1-0.8,0.2S111,5.2,111,5.4
		s0.1,0.4,0.2,0.6c0.2,0.1,0.4,0.3,0.7,0.4l0.9,0.3c1.3,0.5,1.9,1.2,1.9,2.3c0,0.7-0.3,1.2-0.8,1.6c-0.5,0.4-1.2,0.6-2.1,0.6
		S110.1,11,109.2,10.5z"/>
	<path fill="#FFFFFF" d="M115.8,10.5c0-0.2,0.1-0.4,0.2-0.6c0.1-0.2,0.2-0.4,0.3-0.5c0.8,0.5,1.5,0.7,2,0.7c0.5,0,0.9-0.1,1.1-0.3
		c0.3-0.2,0.4-0.4,0.4-0.7c0-0.5-0.3-0.8-1-1.1L118,7.7c-1.3-0.5-1.9-1.2-1.9-2.1c0-0.7,0.2-1.2,0.7-1.6c0.5-0.4,1.1-0.6,2-0.6
		s1.6,0.2,2.3,0.5c0,0.2,0,0.4-0.1,0.6s-0.2,0.4-0.3,0.5c-0.7-0.3-1.4-0.5-2-0.5c-0.3,0-0.6,0.1-0.8,0.2s-0.3,0.4-0.3,0.6
		s0.1,0.4,0.2,0.6c0.2,0.1,0.4,0.3,0.7,0.4l0.9,0.3c1.3,0.5,1.9,1.2,1.9,2.3c0,0.7-0.3,1.2-0.8,1.6c-0.5,0.4-1.2,0.6-2.1,0.6
		S116.6,11,115.8,10.5z"/>
	<path fill="#FFFFFF" d="M128.7,10.4c-0.1,0.3-0.3,0.6-0.6,0.8c-0.5-0.1-0.9-0.4-1.1-1c-0.7,0.7-1.5,1.1-2.2,1.1s-1.3-0.2-1.7-0.7
		c-0.4-0.4-0.6-1-0.6-1.5c0-0.8,0.3-1.4,0.8-1.9c0.5-0.4,1.2-0.6,2.1-0.6c0.5,0,1,0,1.5,0.1V6c0-0.9-0.4-1.4-1.3-1.4
		c-0.6,0-1.4,0.2-2.4,0.6c-0.3-0.3-0.4-0.6-0.4-1.1c1-0.5,2.1-0.7,3.1-0.7c0.8,0,1.4,0.2,1.8,0.6s0.6,1,0.6,1.9v3.1
		C128.3,9.7,128.4,10.1,128.7,10.4z M125.7,2.5L124.9,2c-0.2-0.1-0.4-0.1-0.5-0.1S124,2,123.8,2.3l-0.2,0.2c-0.1,0-0.3,0-0.4-0.1
		c-0.1-0.1-0.2-0.2-0.3-0.3l0.1-0.3c0.1-0.3,0.3-0.6,0.6-0.8c0.3-0.2,0.5-0.3,0.8-0.3c0.3,0,0.6,0.1,0.9,0.2l0.8,0.4
		c0.2,0.1,0.3,0.1,0.5,0.1s0.4-0.1,0.6-0.4l0.2-0.2c0.1,0,0.3,0.1,0.4,0.1c0.1,0.1,0.2,0.2,0.3,0.3L128,1.6
		c-0.2,0.3-0.4,0.6-0.6,0.8c-0.3,0.2-0.5,0.3-0.8,0.3S126,2.6,125.7,2.5z M125,10.1c0.7,0,1.3-0.3,1.8-1V7.6c-0.4,0-0.8-0.1-1.4-0.1
		s-0.9,0.1-1.2,0.4c-0.3,0.2-0.4,0.6-0.4,0.9s0.1,0.7,0.3,0.9C124.4,9.9,124.7,10.1,125,10.1z"/>
	<path fill="#FFFFFF" d="M135.5,4.3c0.7,0.7,1.1,1.7,1.1,3.1s-0.4,2.4-1.1,3.1c-0.5,0.5-1.3,0.8-2.2,0.8c-0.9,0-1.6-0.3-2.2-0.8
		c-0.7-0.7-1-1.7-1-3.1s0.3-2.4,1-3.1c0.5-0.5,1.3-0.8,2.2-0.8C134.2,3.4,135,3.7,135.5,4.3z M131.6,7.3c0,1.8,0.6,2.8,1.7,2.8
		c1.1,0,1.7-0.9,1.7-2.8c0-0.5,0-1-0.1-1.4c-0.1-0.4-0.3-0.7-0.5-1c-0.3-0.3-0.6-0.4-1-0.4s-0.8,0.1-1,0.4c-0.3,0.3-0.4,0.6-0.5,1
		C131.7,6.4,131.6,6.8,131.6,7.3z"/>
	<path fill="#FFFFFF" d="M147.2,7.8h-4.5c0,0.7,0.2,1.3,0.4,1.7c0.3,0.4,0.7,0.6,1.4,0.6s1.3-0.2,2.1-0.6c0.3,0.2,0.4,0.6,0.5,0.9
		c-0.8,0.6-1.7,0.8-2.8,0.8s-1.9-0.4-2.3-1.1c-0.5-0.7-0.7-1.7-0.7-2.8c0-1.2,0.3-2.1,0.8-2.8c0.5-0.7,1.3-1.1,2.3-1.1
		s1.7,0.3,2.2,0.9c0.5,0.6,0.8,1.4,0.8,2.3C147.3,7,147.3,7.4,147.2,7.8z M145.5,5.1c-0.3-0.4-0.6-0.6-1.1-0.6
		c-0.5,0-0.9,0.2-1.2,0.6c-0.3,0.4-0.4,0.9-0.4,1.6h3.1V6.5C145.9,5.9,145.8,5.5,145.5,5.1z"/>
	<path fill="#FFFFFF" d="M156.5,6.4c0,0,0-0.1,0-0.2c0-1.1-0.5-1.7-1.4-1.7c-0.5,0-0.9,0.2-1.2,0.7c-0.3,0.5-0.4,1.2-0.4,2.1
		c0,1.8,0.6,2.6,1.7,2.6c0.5,0,1.1-0.3,1.8-0.8c0.1,0.1,0.3,0.2,0.4,0.4s0.2,0.3,0.2,0.5c-0.7,0.7-1.6,1.1-2.7,1.1s-1.8-0.4-2.3-1.1
		c-0.5-0.7-0.8-1.7-0.8-2.9s0.3-2.1,0.9-2.8c0.6-0.7,1.3-1,2.2-1c0.9,0,1.5,0.2,2,0.7c0.5,0.5,0.7,1,0.7,1.5c0,0.6-0.3,0.8-0.8,0.8
		C156.9,6.5,156.7,6.5,156.5,6.4z"/>
	<path fill="#FFFFFF" d="M164.5,4.3c0.7,0.7,1.1,1.7,1.1,3.1s-0.4,2.4-1.1,3.1c-0.5,0.5-1.3,0.8-2.2,0.8c-0.9,0-1.6-0.3-2.2-0.8
		c-0.7-0.7-1-1.7-1-3.1s0.3-2.4,1-3.1c0.5-0.5,1.3-0.8,2.2-0.8C163.2,3.4,163.9,3.7,164.5,4.3z M160.6,7.3c0,1.8,0.6,2.8,1.7,2.8
		c1.1,0,1.7-0.9,1.7-2.8c0-0.5,0-1-0.1-1.4c-0.1-0.4-0.3-0.7-0.5-1c-0.3-0.3-0.6-0.4-1-0.4s-0.8,0.1-1,0.4c-0.3,0.3-0.4,0.6-0.5,1
		C160.7,6.4,160.6,6.8,160.6,7.3z"/>
	<path fill="#FFFFFF" d="M173.3,5.9v3.6c0,0.6,0.1,1,0.2,1.3c-0.3,0.2-0.6,0.3-0.9,0.3c-0.5,0-0.8-0.3-0.8-0.9V6.3
		c0-0.5-0.1-0.9-0.2-1.1c-0.1-0.2-0.4-0.3-0.7-0.3c-0.3,0-0.7,0.1-1.1,0.3c-0.4,0.2-0.7,0.4-1,0.7V11c-0.2,0-0.4,0.1-0.7,0.1
		s-0.6,0-0.7-0.1V3.7l0.1-0.1h0.5c0.5,0,0.8,0.3,0.8,0.9c0.8-0.7,1.6-1,2.4-1c0.7,0,1.2,0.2,1.5,0.7C173.1,4.6,173.3,5.2,173.3,5.9z
		"/>
	<path fill="#FFFFFF" d="M179.2,3.6c0,0.2,0.1,0.4,0.1,0.5c0,0.2,0,0.4-0.1,0.5l-1.9,0v4.6c0,0.4,0.2,0.6,0.6,0.6h1
		c0.1,0.2,0.1,0.4,0.1,0.6c0,0.2,0,0.4,0,0.4c-0.6,0.1-1.1,0.1-1.7,0.1c-1,0-1.5-0.5-1.5-1.5V4.7l-1.1,0c0-0.2-0.1-0.3-0.1-0.5
		c0-0.2,0-0.4,0.1-0.5l1.1,0V2.3c0-0.3,0.1-0.6,0.2-0.7c0.1-0.1,0.3-0.2,0.6-0.2h0.5l0.1,0.1v2.2L179.2,3.6z"/>
	<path fill="#FFFFFF" d="M186.5,10.4c-0.1,0.3-0.3,0.6-0.6,0.8c-0.5-0.1-0.9-0.4-1.1-1c-0.7,0.7-1.5,1.1-2.2,1.1s-1.3-0.2-1.7-0.7
		c-0.4-0.4-0.6-1-0.6-1.5c0-0.8,0.3-1.4,0.8-1.9c0.5-0.4,1.2-0.6,2.1-0.6c0.5,0,1,0,1.5,0.1V6c0-0.9-0.4-1.4-1.3-1.4
		c-0.6,0-1.4,0.2-2.4,0.6c-0.3-0.3-0.4-0.6-0.4-1.1c1-0.5,2.1-0.7,3.1-0.7c0.8,0,1.4,0.2,1.8,0.6s0.6,1,0.6,1.9v3.1
		C186.1,9.7,186.2,10.1,186.5,10.4z M182.8,10.1c0.7,0,1.3-0.3,1.8-1V7.6c-0.4,0-0.8-0.1-1.4-0.1s-0.9,0.1-1.2,0.4
		c-0.3,0.2-0.4,0.6-0.4,0.9s0.1,0.7,0.3,0.9C182.2,9.9,182.5,10.1,182.8,10.1z"/>
	<path fill="#FFFFFF" d="M192.5,6.3c0-0.5-0.1-0.9-0.2-1.1c-0.1-0.2-0.4-0.3-0.7-0.3c-0.6,0-1.1,0.3-1.7,1V11
		c-0.2,0-0.4,0.1-0.7,0.1s-0.6,0-0.7-0.1V3.7l0.1-0.1h0.5c0.5,0,0.8,0.3,0.8,0.9c0.7-0.7,1.4-1,2.2-1s1.3,0.4,1.7,1.1
		c0.8-0.7,1.6-1.1,2.4-1.1c0.6,0,1.1,0.2,1.4,0.7c0.3,0.4,0.5,1,0.5,1.7v3.6c0,0.6,0.1,1,0.2,1.3c-0.2,0.2-0.5,0.3-0.9,0.3
		c-0.5,0-0.8-0.3-0.8-0.9V6.3c0-0.5-0.1-0.9-0.2-1.1c-0.1-0.2-0.4-0.3-0.7-0.3c-0.6,0-1.2,0.3-1.7,1V11c-0.2,0-0.4,0.1-0.7,0.1
		c-0.3,0-0.5,0-0.7-0.1V6.3z"/>
	<path fill="#FFFFFF" d="M205.2,4.3c0.7,0.7,1.1,1.7,1.1,3.1s-0.4,2.4-1.1,3.1c-0.5,0.5-1.3,0.8-2.2,0.8c-0.9,0-1.6-0.3-2.2-0.8
		c-0.7-0.7-1-1.7-1-3.1s0.3-2.4,1-3.1c0.5-0.5,1.3-0.8,2.2-0.8C204,3.4,204.7,3.7,205.2,4.3z M201.4,7.3c0,1.8,0.6,2.8,1.7,2.8
		c1.1,0,1.7-0.9,1.7-2.8c0-0.5,0-1-0.1-1.4c-0.1-0.4-0.3-0.7-0.5-1c-0.3-0.3-0.6-0.4-1-0.4s-0.8,0.1-1,0.4c-0.3,0.3-0.4,0.6-0.5,1
		C201.4,6.4,201.4,6.8,201.4,7.3z"/>
	<path fill="#FFFFFF" d="M207.4,10.5c0-0.2,0.1-0.4,0.2-0.6c0.1-0.2,0.2-0.4,0.3-0.5c0.8,0.5,1.5,0.7,2,0.7c0.5,0,0.9-0.1,1.1-0.3
		c0.3-0.2,0.4-0.4,0.4-0.7c0-0.5-0.3-0.8-1-1.1l-0.8-0.3c-1.3-0.5-1.9-1.2-1.9-2.1c0-0.7,0.2-1.2,0.7-1.6c0.5-0.4,1.1-0.6,2-0.6
		s1.6,0.2,2.3,0.5c0,0.2,0,0.4-0.1,0.6s-0.2,0.4-0.3,0.5c-0.7-0.3-1.4-0.5-2-0.5c-0.3,0-0.6,0.1-0.8,0.2s-0.3,0.4-0.3,0.6
		s0.1,0.4,0.2,0.6c0.2,0.1,0.4,0.3,0.7,0.4l0.9,0.3c1.3,0.5,1.9,1.2,1.9,2.3c0,0.7-0.3,1.2-0.8,1.6c-0.5,0.4-1.2,0.6-2.1,0.6
		S208.3,11,207.4,10.5z"/>
	<path fill="#FFFFFF" d="M222,6.4c0,0,0-0.1,0-0.2c0-1.1-0.5-1.7-1.4-1.7c-0.5,0-0.9,0.2-1.2,0.7c-0.3,0.5-0.4,1.2-0.4,2.1
		c0,1.8,0.6,2.6,1.7,2.6c0.5,0,1.1-0.3,1.8-0.8c0.1,0.1,0.3,0.2,0.4,0.4s0.2,0.3,0.2,0.5c-0.7,0.7-1.6,1.1-2.7,1.1s-1.8-0.4-2.3-1.1
		c-0.5-0.7-0.8-1.7-0.8-2.9s0.3-2.1,0.9-2.8c0.6-0.7,1.3-1,2.2-1c0.9,0,1.5,0.2,2,0.7c0.5,0.5,0.7,1,0.7,1.5c0,0.6-0.3,0.8-0.8,0.8
		C222.3,6.5,222.1,6.5,222,6.4z"/>
	<path fill="#FFFFFF" d="M229.9,4.3C230.6,5,231,6,231,7.3s-0.4,2.4-1.1,3.1c-0.5,0.5-1.3,0.8-2.2,0.8c-0.9,0-1.6-0.3-2.2-0.8
		c-0.7-0.7-1-1.7-1-3.1s0.3-2.4,1-3.1c0.5-0.5,1.3-0.8,2.2-0.8C228.7,3.4,229.4,3.7,229.9,4.3z M226.1,7.3c0,1.8,0.6,2.8,1.7,2.8
		c1.1,0,1.7-0.9,1.7-2.8c0-0.5,0-1-0.1-1.4c-0.1-0.4-0.3-0.7-0.5-1c-0.3-0.3-0.6-0.4-1-0.4s-0.8,0.1-1,0.4c-0.3,0.3-0.4,0.6-0.5,1
		C226.1,6.4,226.1,6.8,226.1,7.3z"/>
	<path fill="#FFFFFF" d="M237,6.3c0-0.5-0.1-0.9-0.2-1.1c-0.1-0.2-0.4-0.3-0.7-0.3c-0.6,0-1.1,0.3-1.7,1V11c-0.2,0-0.4,0.1-0.7,0.1
		s-0.6,0-0.7-0.1V3.7l0.1-0.1h0.5c0.5,0,0.8,0.3,0.8,0.9c0.7-0.7,1.4-1,2.2-1s1.3,0.4,1.7,1.1c0.8-0.7,1.6-1.1,2.4-1.1
		c0.6,0,1.1,0.2,1.4,0.7c0.3,0.4,0.5,1,0.5,1.7v3.6c0,0.6,0.1,1,0.2,1.3c-0.2,0.2-0.5,0.3-0.9,0.3c-0.5,0-0.8-0.3-0.8-0.9V6.3
		c0-0.5-0.1-0.9-0.2-1.1c-0.1-0.2-0.4-0.3-0.7-0.3c-0.6,0-1.2,0.3-1.7,1V11c-0.2,0-0.4,0.1-0.7,0.1c-0.3,0-0.5,0-0.7-0.1V6.3z"/>
	<path fill="#FFFFFF" d="M9.9,27.8l1.8-6.2c0.1,0,0.3-0.1,0.6-0.1s0.5,0,0.7,0.1l0,0.1c-1,3.2-1.8,5.6-2.4,7.3
		c-0.3,0-0.6,0.1-0.9,0.1S9.1,29,8.9,28.9c-0.1-0.1-0.3-0.3-0.4-0.7l-2.1-6.5c0.3-0.1,0.6-0.2,0.8-0.2c0.4,0,0.7,0.2,0.8,0.6
		l1.1,3.4c0.2,0.7,0.4,1.5,0.6,2.2C9.7,27.8,9.8,27.8,9.9,27.8z"/>
	<path fill="#FFFFFF" d="M19.2,22.3c0.7,0.7,1.1,1.7,1.1,3.1s-0.4,2.4-1.1,3.1c-0.5,0.5-1.3,0.8-2.2,0.8c-0.9,0-1.6-0.3-2.2-0.8
		c-0.7-0.7-1-1.7-1-3.1s0.3-2.4,1-3.1c0.5-0.5,1.3-0.8,2.2-0.8C17.9,21.4,18.6,21.7,19.2,22.3z M15.3,25.3c0,1.8,0.6,2.8,1.7,2.8
		c1.1,0,1.7-0.9,1.7-2.8c0-0.5,0-1-0.1-1.4c-0.1-0.4-0.3-0.7-0.5-1c-0.3-0.3-0.6-0.4-1-0.4s-0.8,0.1-1,0.4c-0.3,0.3-0.4,0.6-0.5,1
		C15.4,24.4,15.3,24.8,15.3,25.3z"/>
	<path fill="#FFFFFF" d="M26.1,24.4c0,0,0-0.1,0-0.2c0-1.1-0.5-1.7-1.4-1.7c-0.5,0-0.9,0.2-1.2,0.7c-0.3,0.5-0.4,1.2-0.4,2.1
		c0,1.8,0.6,2.6,1.7,2.6c0.5,0,1.1-0.3,1.8-0.8c0.1,0.1,0.3,0.2,0.4,0.4s0.2,0.3,0.2,0.5c-0.7,0.7-1.6,1.1-2.7,1.1s-1.8-0.4-2.3-1.1
		c-0.5-0.7-0.8-1.7-0.8-2.9s0.3-2.1,0.9-2.8c0.6-0.7,1.3-1,2.2-1c0.9,0,1.5,0.2,2,0.7c0.5,0.5,0.7,1,0.7,1.5c0,0.6-0.3,0.8-0.8,0.8
		C26.4,24.5,26.2,24.5,26.1,24.4z"/>
	<path fill="#FFFFFF" d="M34.6,25.8h-4.5c0,0.7,0.2,1.3,0.4,1.7c0.3,0.4,0.7,0.6,1.4,0.6s1.3-0.2,2.1-0.6c0.3,0.2,0.4,0.6,0.5,0.9
		c-0.8,0.6-1.7,0.8-2.8,0.8s-1.9-0.4-2.3-1.1c-0.5-0.7-0.7-1.7-0.7-2.8c0-1.2,0.3-2.1,0.8-2.8c0.5-0.7,1.3-1.1,2.3-1.1
		s1.7,0.3,2.2,0.9c0.5,0.6,0.8,1.4,0.8,2.3C34.7,25,34.7,25.4,34.6,25.8z M33.2,20.8l-1.4-1.4l-1.5,1.5c-0.3-0.1-0.5-0.3-0.7-0.6
		l1.6-2c0.2-0.1,0.3-0.1,0.5-0.1s0.4,0,0.7,0.1l1.5,1.9C33.8,20.5,33.6,20.7,33.2,20.8z M33,23.1c-0.3-0.4-0.6-0.6-1.1-0.6
		c-0.5,0-0.9,0.2-1.2,0.6c-0.3,0.4-0.4,0.9-0.4,1.6h3.1v-0.2C33.3,23.9,33.2,23.5,33,23.1z"/>
	<path fill="#FFFFFF" d="M36.4,31.4c-0.3-0.1-0.4-0.4-0.4-0.6c0,0,0-0.1,0-0.1c0.3-0.2,0.6-0.4,0.9-0.6c0.2-0.3,0.3-0.6,0.4-0.9
		C37,29.1,36.8,29,36.7,29c-0.1-0.2-0.1-0.4-0.1-0.7s0-0.6,0.1-0.7c0.2-0.1,0.5-0.2,0.9-0.2s0.7,0.1,0.8,0.2c0.1,0.2,0.1,0.5,0.1,1
		c0,0.6-0.2,1.2-0.6,1.8S37.1,31.2,36.4,31.4z"/>
	<path fill="#043A63" d="M46,27.9h0.6c0.1,0.2,0.1,0.4,0.1,0.6s0,0.3,0,0.5c-0.4,0.1-0.8,0.1-1.2,0.1c-1,0-1.4-0.5-1.4-1.5v-9.5
		l0.1-0.1h0.5c0.3,0,0.5,0.1,0.6,0.2c0.1,0.1,0.2,0.4,0.2,0.7v8.3C45.4,27.7,45.6,27.9,46,27.9z"/>
	<path fill="#043A63" d="M50,22.9V29c-0.2,0-0.4,0.1-0.7,0.1s-0.5,0-0.7-0.1v-5.6c0-0.3,0-0.5-0.1-0.6c-0.1-0.1-0.3-0.2-0.5-0.2
		h-0.2c0-0.2-0.1-0.3-0.1-0.5c0-0.2,0-0.4,0.1-0.5c0.3,0,0.6-0.1,0.9-0.1h0.2c0.4,0,0.6,0.1,0.8,0.3S50,22.5,50,22.9z M47.9,20.4
		L50,18c0.2,0.1,0.4,0.2,0.6,0.4c0.2,0.2,0.3,0.4,0.4,0.6l-2.5,2C48.2,20.9,48,20.7,47.9,20.4z"/>
	<path fill="#043A63" d="M54.4,29.2c-0.8,0-1.5-0.3-1.9-1c-0.4-0.7-0.7-1.6-0.7-2.8s0.3-2.1,0.8-2.8c0.6-0.7,1.2-1,2-1
		c0.6,0,1.1,0.2,1.7,0.5v-3.9l0.1-0.1h0.6c0.3,0,0.5,0.1,0.6,0.2c0.1,0.1,0.2,0.4,0.2,0.7v8c0,0.7,0.1,1.2,0.4,1.5
		c-0.1,0.3-0.3,0.6-0.6,0.8c-0.5-0.1-0.9-0.4-1.1-0.9C56,28.9,55.3,29.2,54.4,29.2z M54.7,28c0.7,0,1.2-0.3,1.7-1v-3.8
		c-0.6-0.4-1.1-0.6-1.5-0.6s-0.8,0.2-1.1,0.7s-0.4,1.1-0.4,2s0.1,1.5,0.4,2C54,27.8,54.3,28,54.7,28z"/>
	<path fill="#043A63" d="M65.7,25.8h-4.5c0,0.7,0.2,1.3,0.4,1.7c0.3,0.4,0.7,0.6,1.4,0.6s1.3-0.2,2.1-0.6c0.3,0.2,0.4,0.6,0.5,0.9
		c-0.8,0.6-1.7,0.8-2.8,0.8s-1.9-0.4-2.3-1.1c-0.5-0.7-0.7-1.7-0.7-2.8c0-1.2,0.3-2.1,0.8-2.8c0.5-0.7,1.3-1.1,2.3-1.1
		s1.7,0.3,2.2,0.9c0.5,0.6,0.8,1.4,0.8,2.3C65.8,25,65.8,25.4,65.7,25.8z M64,23.1c-0.3-0.4-0.6-0.6-1.1-0.6c-0.5,0-0.9,0.2-1.2,0.6
		c-0.3,0.4-0.4,0.9-0.4,1.6h3.1v-0.2C64.4,23.9,64.3,23.5,64,23.1z"/>
	<path fill="#043A63" d="M67.4,22.3c0.1-0.3,0.3-0.6,0.5-0.8c0.7,0.2,1.1,0.6,1.3,1.3c0.4-0.9,1.1-1.3,2-1.3c0.2,0,0.5,0,0.8,0.1
		c0,0.5-0.1,1-0.3,1.4c-0.1,0-0.3,0-0.6-0.1c-0.7,0-1.3,0.4-1.7,1.2V29c-0.2,0-0.4,0.1-0.7,0.1s-0.6,0-0.7-0.1v-5.2
		C67.9,23.2,67.7,22.6,67.4,22.3z"/>
	<path fill="#043A63" d="M76.9,18.8l3.2,0c1,0,1.9,0.3,2.5,0.8c0.6,0.5,0.9,1.3,0.9,2.3c0,0.7-0.2,1.2-0.5,1.7
		c-0.4,0.5-0.8,0.8-1.4,1c0.4,0.2,0.8,0.6,1,1.3l0.7,1.8c0.2,0.5,0.4,0.9,0.7,1.1c-0.2,0.3-0.5,0.5-1,0.5c-0.3,0-0.5-0.1-0.6-0.2
		c-0.1-0.1-0.3-0.4-0.4-0.7l-0.8-2.1c-0.1-0.4-0.3-0.7-0.6-0.9c-0.2-0.2-0.6-0.3-1-0.3h-1.3V29c-0.2,0-0.5,0.1-0.8,0.1
		s-0.5,0-0.8-0.1V18.9L76.9,18.8z M78.2,19.9v3.8c0.6,0,1.2,0,1.8,0s1.1-0.2,1.4-0.5c0.3-0.4,0.4-0.8,0.4-1.3c0-1.2-0.6-1.9-1.9-1.9
		C79.2,19.9,78.6,19.9,78.2,19.9z"/>
	<path fill="#043A63" d="M90.4,22.3c0.7,0.7,1.1,1.7,1.1,3.1s-0.4,2.4-1.1,3.1c-0.5,0.5-1.3,0.8-2.2,0.8c-0.9,0-1.6-0.3-2.2-0.8
		c-0.7-0.7-1-1.7-1-3.1s0.3-2.4,1-3.1c0.5-0.5,1.3-0.8,2.2-0.8C89.1,21.4,89.9,21.7,90.4,22.3z M86.5,25.3c0,1.8,0.6,2.8,1.7,2.8
		c1.1,0,1.7-0.9,1.7-2.8c0-0.5,0-1-0.1-1.4c-0.1-0.4-0.3-0.7-0.5-1c-0.3-0.3-0.6-0.4-1-0.4s-0.8,0.1-1,0.4c-0.3,0.3-0.4,0.6-0.5,1
		C86.6,24.4,86.5,24.8,86.5,25.3z"/>
	<path fill="#043A63" d="M95.4,29.2c-0.8,0-1.5-0.3-1.9-1c-0.4-0.7-0.7-1.6-0.7-2.8s0.3-2.1,0.8-2.8c0.6-0.7,1.2-1,2-1
		c0.6,0,1.1,0.2,1.7,0.5v-3.9l0.1-0.1h0.6c0.3,0,0.5,0.1,0.6,0.2c0.1,0.1,0.2,0.4,0.2,0.7v8c0,0.7,0.1,1.2,0.4,1.5
		c-0.1,0.3-0.3,0.6-0.6,0.8c-0.5-0.1-0.9-0.4-1.1-0.9C97,28.9,96.3,29.2,95.4,29.2z M95.7,28c0.7,0,1.2-0.3,1.7-1v-3.8
		c-0.6-0.4-1.1-0.6-1.5-0.6s-0.8,0.2-1.1,0.7s-0.4,1.1-0.4,2s0.1,1.5,0.4,2C95,27.8,95.3,28,95.7,28z"/>
	<path fill="#043A63" d="M106.1,22.3c0.7,0.7,1.1,1.7,1.1,3.1s-0.4,2.4-1.1,3.1c-0.5,0.5-1.3,0.8-2.2,0.8c-0.9,0-1.6-0.3-2.2-0.8
		c-0.7-0.7-1-1.7-1-3.1s0.3-2.4,1-3.1c0.5-0.5,1.3-0.8,2.2-0.8C104.9,21.4,105.6,21.7,106.1,22.3z M102.3,25.3
		c0,1.8,0.6,2.8,1.7,2.8c1.1,0,1.7-0.9,1.7-2.8c0-0.5,0-1-0.1-1.4c-0.1-0.4-0.3-0.7-0.5-1c-0.3-0.3-0.6-0.4-1-0.4s-0.8,0.1-1,0.4
		c-0.3,0.3-0.4,0.6-0.5,1C102.3,24.4,102.3,24.8,102.3,25.3z"/>
	<path fill="#043A63" d="M112.6,21.5c0.8,0,1.4,0.3,1.8,1c0.5,0.7,0.7,1.6,0.7,2.8c0,1.2-0.3,2.1-0.9,2.8s-1.4,1-2.4,1
		c-0.9,0-1.8-0.2-2.7-0.5V18.1l0.1-0.1h0.5c0.3,0,0.5,0.1,0.6,0.2c0.1,0.1,0.2,0.4,0.2,0.7v3.4C111.1,21.8,111.8,21.5,112.6,21.5z
		 M112.2,22.7c-0.7,0-1.2,0.3-1.7,0.9v4.2c0.4,0.1,0.8,0.2,1.3,0.2c0.5,0,0.9-0.2,1.3-0.7c0.3-0.5,0.5-1.2,0.5-2
		c0-0.9-0.1-1.5-0.4-1.9C113,22.9,112.6,22.7,112.2,22.7z"/>
	<path fill="#043A63" d="M122.4,25.8H118c0,0.7,0.2,1.3,0.4,1.7c0.3,0.4,0.7,0.6,1.4,0.6s1.3-0.2,2.1-0.6c0.3,0.2,0.4,0.6,0.5,0.9
		c-0.8,0.6-1.7,0.8-2.8,0.8s-1.9-0.4-2.3-1.1c-0.5-0.7-0.7-1.7-0.7-2.8c0-1.2,0.3-2.1,0.8-2.8c0.5-0.7,1.3-1.1,2.3-1.1
		s1.7,0.3,2.2,0.9c0.5,0.6,0.8,1.4,0.8,2.3C122.5,25,122.5,25.4,122.4,25.8z M120.7,23.1c-0.3-0.4-0.6-0.6-1.1-0.6
		c-0.5,0-0.9,0.2-1.2,0.6c-0.3,0.4-0.4,0.9-0.4,1.6h3.1v-0.2C121.1,23.9,121,23.5,120.7,23.1z"/>
	<path fill="#043A63" d="M130.4,23.9v3.6c0,0.6,0.1,1,0.2,1.3c-0.3,0.2-0.6,0.3-0.9,0.3c-0.5,0-0.8-0.3-0.8-0.9v-3.9
		c0-0.5-0.1-0.9-0.2-1.1c-0.1-0.2-0.4-0.3-0.7-0.3c-0.3,0-0.7,0.1-1.1,0.3c-0.4,0.2-0.7,0.4-1,0.7V29c-0.2,0-0.4,0.1-0.7,0.1
		s-0.6,0-0.7-0.1v-7.4l0.1-0.1h0.5c0.5,0,0.8,0.3,0.8,0.9c0.8-0.7,1.6-1,2.4-1c0.7,0,1.2,0.2,1.5,0.7
		C130.2,22.6,130.4,23.2,130.4,23.9z"/>
	<path fill="#043A63" d="M132,28.5c0-0.2,0.1-0.4,0.2-0.6c0.1-0.2,0.2-0.4,0.3-0.5c0.8,0.5,1.5,0.7,2,0.7c0.5,0,0.9-0.1,1.1-0.3
		c0.3-0.2,0.4-0.4,0.4-0.7c0-0.5-0.3-0.8-1-1.1l-0.8-0.3c-1.3-0.5-1.9-1.2-1.9-2.1c0-0.7,0.2-1.2,0.7-1.6c0.5-0.4,1.1-0.6,2-0.6
		s1.6,0.2,2.3,0.5c0,0.2,0,0.4-0.1,0.6s-0.2,0.4-0.3,0.5c-0.7-0.3-1.4-0.5-2-0.5c-0.3,0-0.6,0.1-0.8,0.2s-0.3,0.4-0.3,0.6
		s0.1,0.4,0.2,0.6c0.2,0.1,0.4,0.3,0.7,0.4l0.9,0.3c1.3,0.5,1.9,1.2,1.9,2.3c0,0.7-0.3,1.2-0.8,1.6c-0.5,0.4-1.2,0.6-2.1,0.6
		S132.8,29,132,28.5z"/>
	<path fill="#FFFFFF" d="M138.9,31.4c-0.3-0.1-0.4-0.4-0.4-0.6c0,0,0-0.1,0-0.1c0.3-0.2,0.6-0.4,0.9-0.6c0.2-0.3,0.3-0.6,0.4-0.9
		c-0.3-0.1-0.5-0.1-0.6-0.2c-0.1-0.2-0.1-0.4-0.1-0.7s0-0.6,0.1-0.7c0.2-0.1,0.5-0.2,0.9-0.2s0.7,0.1,0.8,0.2c0.1,0.2,0.1,0.5,0.1,1
		c0,0.6-0.2,1.2-0.6,1.8S139.6,31.2,138.9,31.4z"/>
	<path fill="#FFFFFF" d="M152.4,23.9v3.6c0,0.6,0.1,1,0.2,1.3c-0.3,0.2-0.6,0.3-0.9,0.3c-0.5,0-0.8-0.3-0.8-0.9v-3.9
		c0-0.5-0.1-0.9-0.2-1.1c-0.1-0.2-0.4-0.3-0.7-0.3c-0.3,0-0.7,0.1-1.1,0.3c-0.4,0.2-0.7,0.4-1,0.7V29c-0.2,0-0.4,0.1-0.7,0.1
		s-0.6,0-0.7-0.1v-7.4l0.1-0.1h0.5c0.5,0,0.8,0.3,0.8,0.9c0.8-0.7,1.6-1,2.4-1c0.7,0,1.2,0.2,1.5,0.7
		C152.2,22.6,152.4,23.2,152.4,23.9z"/>
	<path fill="#FFFFFF" d="M160.2,25.8h-4.5c0,0.7,0.2,1.3,0.4,1.7c0.3,0.4,0.7,0.6,1.4,0.6s1.3-0.2,2.1-0.6c0.3,0.2,0.4,0.6,0.5,0.9
		c-0.8,0.6-1.7,0.8-2.8,0.8s-1.9-0.4-2.3-1.1c-0.5-0.7-0.7-1.7-0.7-2.8c0-1.2,0.3-2.1,0.8-2.8c0.5-0.7,1.3-1.1,2.3-1.1
		s1.7,0.3,2.2,0.9c0.5,0.6,0.8,1.4,0.8,2.3C160.3,25,160.2,25.4,160.2,25.8z M158.5,23.1c-0.3-0.4-0.6-0.6-1.1-0.6
		c-0.5,0-0.9,0.2-1.2,0.6c-0.3,0.4-0.4,0.9-0.4,1.6h3.1v-0.2C158.9,23.9,158.7,23.5,158.5,23.1z"/>
	<path fill="#FFFFFF" d="M161.5,28.5c0-0.2,0.1-0.4,0.2-0.6c0.1-0.2,0.2-0.4,0.3-0.5c0.8,0.5,1.5,0.7,2,0.7c0.5,0,0.9-0.1,1.1-0.3
		c0.3-0.2,0.4-0.4,0.4-0.7c0-0.5-0.3-0.8-1-1.1l-0.8-0.3c-1.3-0.5-1.9-1.2-1.9-2.1c0-0.7,0.2-1.2,0.7-1.6c0.5-0.4,1.1-0.6,2-0.6
		s1.6,0.2,2.3,0.5c0,0.2,0,0.4-0.1,0.6s-0.2,0.4-0.3,0.5c-0.7-0.3-1.4-0.5-2-0.5c-0.3,0-0.6,0.1-0.8,0.2s-0.3,0.4-0.3,0.6
		s0.1,0.4,0.2,0.6c0.2,0.1,0.4,0.3,0.7,0.4l0.9,0.3c1.3,0.5,1.9,1.2,1.9,2.3c0,0.7-0.3,1.2-0.8,1.6c-0.5,0.4-1.2,0.6-2.1,0.6
		S162.4,29,161.5,28.5z"/>
	<path fill="#FFFFFF" d="M168.1,28.5c0-0.2,0.1-0.4,0.2-0.6c0.1-0.2,0.2-0.4,0.3-0.5c0.8,0.5,1.5,0.7,2,0.7c0.5,0,0.9-0.1,1.1-0.3
		c0.3-0.2,0.4-0.4,0.4-0.7c0-0.5-0.3-0.8-1-1.1l-0.8-0.3c-1.3-0.5-1.9-1.2-1.9-2.1c0-0.7,0.2-1.2,0.7-1.6c0.5-0.4,1.1-0.6,2-0.6
		s1.6,0.2,2.3,0.5c0,0.2,0,0.4-0.1,0.6s-0.2,0.4-0.3,0.5c-0.7-0.3-1.4-0.5-2-0.5c-0.3,0-0.6,0.1-0.8,0.2s-0.3,0.4-0.3,0.6
		s0.1,0.4,0.2,0.6c0.2,0.1,0.4,0.3,0.7,0.4l0.9,0.3c1.3,0.5,1.9,1.2,1.9,2.3c0,0.7-0.3,1.2-0.8,1.6c-0.5,0.4-1.2,0.6-2.1,0.6
		S168.9,29,168.1,28.5z"/>
	<path fill="#FFFFFF" d="M180.8,25.8h-4.5c0,0.7,0.2,1.3,0.4,1.7c0.3,0.4,0.7,0.6,1.4,0.6s1.3-0.2,2.1-0.6c0.3,0.2,0.4,0.6,0.5,0.9
		c-0.8,0.6-1.7,0.8-2.8,0.8s-1.9-0.4-2.3-1.1c-0.5-0.7-0.7-1.7-0.7-2.8c0-1.2,0.3-2.1,0.8-2.8c0.5-0.7,1.3-1.1,2.3-1.1
		s1.7,0.3,2.2,0.9c0.5,0.6,0.8,1.4,0.8,2.3C180.9,25,180.9,25.4,180.8,25.8z M179.1,23.1c-0.3-0.4-0.6-0.6-1.1-0.6
		c-0.5,0-0.9,0.2-1.2,0.6c-0.3,0.4-0.4,0.9-0.4,1.6h3.1v-0.2C179.5,23.9,179.4,23.5,179.1,23.1z"/>
	<path fill="#FFFFFF" d="M188.2,29.2c-0.8,0-1.5-0.3-1.9-1c-0.4-0.7-0.7-1.6-0.7-2.8s0.3-2.1,0.8-2.8c0.6-0.7,1.2-1,2-1
		c0.6,0,1.1,0.2,1.7,0.5v-3.9l0.1-0.1h0.6c0.3,0,0.5,0.1,0.6,0.2c0.1,0.1,0.2,0.4,0.2,0.7v8c0,0.7,0.1,1.2,0.4,1.5
		c-0.1,0.3-0.3,0.6-0.6,0.8c-0.5-0.1-0.9-0.4-1.1-0.9C189.8,28.9,189.1,29.2,188.2,29.2z M188.5,28c0.7,0,1.2-0.3,1.7-1v-3.8
		c-0.6-0.4-1.1-0.6-1.5-0.6s-0.8,0.2-1.1,0.7s-0.4,1.1-0.4,2s0.1,1.5,0.4,2C187.8,27.8,188.1,28,188.5,28z"/>
	<path fill="#FFFFFF" d="M199.5,25.8h-4.5c0,0.7,0.2,1.3,0.4,1.7c0.3,0.4,0.7,0.6,1.4,0.6s1.3-0.2,2.1-0.6c0.3,0.2,0.4,0.6,0.5,0.9
		c-0.8,0.6-1.7,0.8-2.8,0.8s-1.9-0.4-2.3-1.1c-0.5-0.7-0.7-1.7-0.7-2.8c0-1.2,0.3-2.1,0.8-2.8c0.5-0.7,1.3-1.1,2.3-1.1
		s1.7,0.3,2.2,0.9c0.5,0.6,0.8,1.4,0.8,2.3C199.7,25,199.6,25.4,199.5,25.8z M197.9,23.1c-0.3-0.4-0.6-0.6-1.1-0.6
		c-0.5,0-0.9,0.2-1.2,0.6c-0.3,0.4-0.4,0.9-0.4,1.6h3.1v-0.2C198.2,23.9,198.1,23.5,197.9,23.1z"/>
	<path fill="#FFFFFF" d="M200.9,28.5c0-0.2,0.1-0.4,0.2-0.6c0.1-0.2,0.2-0.4,0.3-0.5c0.8,0.5,1.5,0.7,2,0.7c0.5,0,0.9-0.1,1.1-0.3
		c0.3-0.2,0.4-0.4,0.4-0.7c0-0.5-0.3-0.8-1-1.1l-0.8-0.3c-1.3-0.5-1.9-1.2-1.9-2.1c0-0.7,0.2-1.2,0.7-1.6c0.5-0.4,1.1-0.6,2-0.6
		s1.6,0.2,2.3,0.5c0,0.2,0,0.4-0.1,0.6s-0.2,0.4-0.3,0.5c-0.7-0.3-1.4-0.5-2-0.5c-0.3,0-0.6,0.1-0.8,0.2s-0.3,0.4-0.3,0.6
		s0.1,0.4,0.2,0.6c0.2,0.1,0.4,0.3,0.7,0.4l0.9,0.3c1.3,0.5,1.9,1.2,1.9,2.3c0,0.7-0.3,1.2-0.8,1.6c-0.5,0.4-1.2,0.6-2.1,0.6
		S201.7,29,200.9,28.5z"/>
	<path fill="#FFFFFF" d="M213.8,28.4c-0.1,0.3-0.3,0.6-0.6,0.8c-0.5-0.1-0.9-0.4-1.1-1c-0.7,0.7-1.5,1.1-2.2,1.1s-1.3-0.2-1.7-0.7
		c-0.4-0.4-0.6-1-0.6-1.5c0-0.8,0.3-1.4,0.8-1.9c0.5-0.4,1.2-0.6,2.1-0.6c0.5,0,1,0,1.5,0.1V24c0-0.9-0.4-1.4-1.3-1.4
		c-0.6,0-1.4,0.2-2.4,0.6c-0.3-0.3-0.4-0.6-0.4-1.1c1-0.5,2.1-0.7,3.1-0.7c0.8,0,1.4,0.2,1.8,0.6s0.6,1,0.6,1.9v3.1
		C213.4,27.7,213.6,28.1,213.8,28.4z M210.2,28.1c0.7,0,1.3-0.3,1.8-1v-1.4c-0.4,0-0.8-0.1-1.4-0.1s-0.9,0.1-1.2,0.4
		c-0.3,0.2-0.4,0.6-0.4,0.9s0.1,0.7,0.3,0.9C209.6,27.9,209.8,28.1,210.2,28.1z"/>
	<path fill="#FFFFFF" d="M216.1,29v-6.3l-1.3,0c0-0.2-0.1-0.4-0.1-0.5c0-0.1,0-0.3,0.1-0.6l1.2,0c-0.1-0.6-0.1-1-0.1-1.4
		c0-0.7,0.2-1.2,0.6-1.7c0.4-0.4,1-0.6,1.6-0.6c0.7,0,1.3,0.1,1.9,0.3c0,0.4-0.1,0.7-0.3,1c-0.5-0.2-0.9-0.2-1.3-0.2
		c-0.4,0-0.6,0.1-0.8,0.3c-0.2,0.2-0.3,0.5-0.3,0.9c0,0.4,0,0.8,0.1,1.3l2.1,0c0,0.2,0.1,0.4,0.1,0.6c0,0.1,0,0.3-0.1,0.5l-2,0V29
		c-0.2,0-0.4,0.1-0.7,0.1S216.3,29.1,216.1,29z"/>
	<path fill="#FFFFFF" d="M223,22.9V29c-0.2,0-0.4,0.1-0.7,0.1c-0.3,0-0.6,0-0.7-0.1v-5.6c0-0.3,0-0.5-0.1-0.6
		c-0.1-0.1-0.3-0.2-0.5-0.2h-0.2c0-0.2-0.1-0.3-0.1-0.5c0-0.2,0-0.4,0.1-0.5c0.3,0,0.6-0.1,0.9-0.1h0.2c0.4,0,0.6,0.1,0.8,0.3
		S223,22.5,223,22.9z M221.1,19.6c0-0.3,0-0.5,0.1-0.6c0.2-0.1,0.5-0.2,0.8-0.2s0.6,0.1,0.8,0.2c0.1,0.2,0.1,0.4,0.1,0.6
		s0,0.5-0.1,0.6c-0.2,0.1-0.4,0.2-0.8,0.2c-0.4,0-0.6-0.1-0.8-0.2C221.2,20,221.1,19.8,221.1,19.6z"/>
	<path fill="#FFFFFF" d="M230.3,22.3c0.7,0.7,1.1,1.7,1.1,3.1s-0.4,2.4-1.1,3.1c-0.5,0.5-1.3,0.8-2.2,0.8c-0.9,0-1.6-0.3-2.2-0.8
		c-0.7-0.7-1-1.7-1-3.1s0.3-2.4,1-3.1c0.5-0.5,1.3-0.8,2.2-0.8C229,21.4,229.7,21.7,230.3,22.3z M226.4,25.3c0,1.8,0.6,2.8,1.7,2.8
		c1.1,0,1.7-0.9,1.7-2.8c0-0.5,0-1-0.1-1.4c-0.1-0.4-0.3-0.7-0.5-1c-0.3-0.3-0.6-0.4-1-0.4s-0.8,0.1-1,0.4c-0.3,0.3-0.4,0.6-0.5,1
		C226.4,24.4,226.4,24.8,226.4,25.3z"/>
	<path fill="#FFFFFF" d="M232.9,28.2c0-0.3,0-0.6,0.1-0.7c0.2-0.1,0.5-0.2,0.9-0.2s0.7,0.1,0.9,0.2c0.1,0.2,0.1,0.4,0.1,0.7
		s0,0.6-0.1,0.7c-0.2,0.1-0.5,0.2-0.9,0.2s-0.7-0.1-0.9-0.2C233,28.8,232.9,28.5,232.9,28.2z"/>
</g>
</svg>