<!-- Generator: Adobe Illustrator 17.1.0, SVG Export Plug-In  -->
<svg version="1.1"
	 xmlns="http://www.w3.org/2000/svg" xmlns:xlink="http://www.w3.org/1999/xlink" xmlns:a="http://ns.adobe.com/AdobeSVGViewerExtensions/3.0/"
	 x="0px" y="0px" width="116.5px" height="10.5px" viewBox="0 0 116.5 10.5" enable-background="new 0 0 116.5 10.5"
	 xml:space="preserve">
<defs>
</defs>
<g>
	<path fill="#FFFFFF" d="M5.3,8L4.3,8H2.6L1.7,8l-0.8,2.4c-0.1,0-0.2,0-0.4,0c-0.2,0-0.3,0-0.5-0.1l0,0l3-8.8c0.1,0,0.3,0,0.5,0
		s0.4,0,0.5,0l3,8.8c-0.1,0.1-0.3,0.1-0.5,0.1s-0.3,0-0.4-0.1C6,10.2,6,10.1,5.9,9.9L5.3,8z M1.9,7.2l0.8,0h1.5c0,0,0.1,0,0.3,0
		c0.2,0,0.4,0,0.4,0L4.1,4.6C3.9,3.7,3.6,3,3.5,2.4H3.4C3.3,3,3.1,3.5,3,3.9L1.9,7.2z"/>
	<path fill="#A9D42D" d="M17.9,3.6c0,0.6-0.2,1.2-0.5,1.6c-0.3,0.5-0.8,0.8-1.3,0.9c0.5,0.2,0.8,0.6,1,1.2l0.5,1.5
		c0.2,0.5,0.4,0.8,0.7,1c-0.3,0.4-0.7,0.5-1.2,0.5c-0.3,0-0.5-0.1-0.7-0.2c-0.2-0.2-0.3-0.4-0.4-0.8l-0.6-1.7
		C15.3,7.3,15.1,7,15,6.9c-0.2-0.2-0.5-0.3-0.9-0.3h-0.9v3.7c-0.2,0-0.5,0.1-0.9,0.1c-0.4,0-0.7,0-0.9-0.1V0.8l0.1-0.1
		c1.5,0,2.5-0.1,3.1-0.1c1,0,1.8,0.3,2.4,0.8S17.9,2.7,17.9,3.6z M13.2,2v3.1c0.7,0,1.1,0,1.4,0c1,0,1.6-0.5,1.6-1.6
		c0-1-0.5-1.6-1.6-1.6C13.9,2.1,13.5,2.1,13.2,2z"/>
	<path fill="#A9D42D" d="M25.4,6.8c0,1.3-0.3,2.2-1,2.9c-0.5,0.5-1.2,0.8-2.1,0.8c-0.9,0-1.6-0.3-2.1-0.8c-0.7-0.7-1-1.6-1-2.9
		s0.3-2.2,1-2.9c0.5-0.5,1.2-0.8,2.1-0.8c0.9,0,1.6,0.3,2.1,0.8C25.1,4.6,25.4,5.6,25.4,6.8z M22.3,4.5c-0.9,0-1.3,0.8-1.3,2.4
		c0,1.6,0.4,2.4,1.3,2.4c0.9,0,1.3-0.8,1.3-2.4C23.7,5.3,23.2,4.5,22.3,4.5z"/>
	<path fill="#A9D42D" d="M26.4,9.8c0-0.2,0.1-0.4,0.2-0.6c0.1-0.2,0.2-0.4,0.4-0.6c0.7,0.4,1.4,0.6,2,0.6c0.3,0,0.6-0.1,0.8-0.2
		c0.2-0.1,0.3-0.3,0.3-0.5c0-0.4-0.3-0.6-0.8-0.8l-0.8-0.3c-1.2-0.4-1.8-1.1-1.8-2c0-0.7,0.2-1.2,0.7-1.6c0.5-0.4,1.1-0.6,1.9-0.6
		s1.6,0.2,2.4,0.5c0,0.2,0,0.4-0.1,0.7c-0.1,0.2-0.2,0.4-0.4,0.5c-0.7-0.3-1.3-0.5-1.9-0.5c-0.3,0-0.5,0.1-0.6,0.2
		c-0.2,0.1-0.2,0.3-0.2,0.5c0,0.3,0.2,0.5,0.7,0.7l0.9,0.3c1.2,0.4,1.8,1.2,1.8,2.2c0,0.7-0.2,1.2-0.7,1.6c-0.5,0.4-1.2,0.6-2.1,0.6
		S27.2,10.3,26.4,9.8z"/>
	<path fill="#A9D42D" d="M38.7,9.5c0,0.2-0.1,0.3-0.2,0.5c-0.1,0.2-0.2,0.3-0.4,0.4c-0.6-0.1-1-0.3-1.3-0.8c-0.6,0.6-1.3,0.9-2,0.9
		s-1.3-0.2-1.6-0.6S32.7,9,32.7,8.4c0-0.8,0.3-1.4,0.8-1.8s1.2-0.6,2-0.6c0.4,0,0.8,0,1.2,0.1V5.7c0-0.7-0.4-1.1-1.1-1.1
		c-0.5,0-1.2,0.2-2.1,0.5C33.1,4.8,33,4.4,33,3.8c1-0.4,2-0.6,3-0.6c0.7,0,1.3,0.2,1.7,0.6c0.4,0.4,0.7,1,0.7,1.8v2.9
		C38.3,8.9,38.5,9.3,38.7,9.5z M35.2,9.2c0.5,0,1-0.2,1.4-0.7V7.3c-0.3,0-0.7-0.1-1.1-0.1c-0.4,0-0.7,0.1-0.9,0.3
		c-0.2,0.2-0.3,0.4-0.3,0.7c0,0.3,0.1,0.5,0.2,0.7S35,9.2,35.2,9.2z"/>
	<path fill="#A9D42D" d="M45.4,10.5c-0.8,0-1.4-0.3-1.8-1c-0.4-0.6-0.6-1.5-0.6-2.7c0-1.1,0.3-2,0.8-2.7c0.5-0.6,1.2-1,1.9-1
		c0.5,0,1,0.1,1.5,0.4V0.1L47.2,0h0.7c0.3,0,0.6,0.1,0.7,0.2c0.1,0.2,0.2,0.4,0.2,0.8v7.2c0,0.6,0.1,1,0.4,1.2
		c0,0.2-0.1,0.3-0.2,0.5c-0.1,0.2-0.2,0.3-0.4,0.4c-0.6-0.1-1-0.4-1.2-0.8C46.8,10.2,46.1,10.5,45.4,10.5z M45.8,9.1
		c0.5,0,1-0.3,1.3-0.8V5c-0.5-0.3-0.9-0.4-1.2-0.4S45.2,4.8,45,5.2c-0.2,0.4-0.3,1-0.3,1.7s0.1,1.3,0.3,1.6S45.5,9.1,45.8,9.1z"/>
	<path fill="#A9D42D" d="M56.6,6.8c0,1.3-0.3,2.2-1,2.9c-0.5,0.5-1.2,0.8-2.1,0.8c-0.9,0-1.6-0.3-2.1-0.8c-0.7-0.7-1-1.6-1-2.9
		s0.3-2.2,1-2.9c0.5-0.5,1.2-0.8,2.1-0.8c0.9,0,1.6,0.3,2.1,0.8C56.2,4.6,56.6,5.6,56.6,6.8z M53.5,4.5c-0.9,0-1.3,0.8-1.3,2.4
		c0,1.6,0.4,2.4,1.3,2.4c0.9,0,1.3-0.8,1.3-2.4C54.8,5.3,54.4,4.5,53.5,4.5z"/>
	<path fill="#A9D42D" d="M57.5,9.8c0-0.2,0.1-0.4,0.2-0.6c0.1-0.2,0.2-0.4,0.4-0.6c0.7,0.4,1.4,0.6,2,0.6c0.3,0,0.6-0.1,0.8-0.2
		c0.2-0.1,0.3-0.3,0.3-0.5c0-0.4-0.3-0.6-0.8-0.8l-0.8-0.3c-1.2-0.4-1.8-1.1-1.8-2c0-0.7,0.2-1.2,0.7-1.6c0.5-0.4,1.1-0.6,1.9-0.6
		s1.6,0.2,2.4,0.5c0,0.2,0,0.4-0.1,0.7c-0.1,0.2-0.2,0.4-0.4,0.5c-0.7-0.3-1.3-0.5-1.9-0.5c-0.3,0-0.5,0.1-0.6,0.2
		c-0.2,0.1-0.2,0.3-0.2,0.5c0,0.3,0.2,0.5,0.7,0.7L61,6.2c1.2,0.4,1.8,1.2,1.8,2.2c0,0.7-0.2,1.2-0.7,1.6c-0.5,0.4-1.2,0.6-2.1,0.6
		S58.3,10.3,57.5,9.8z"/>
	<path fill="#A9D42D" d="M70.6,8.8l2.1-8c0.2,0,0.4-0.1,0.8-0.1s0.6,0,0.8,0.1l0.1,0.1l-2.7,9.4c-0.4,0-0.8,0.1-1.2,0.1
		c-0.5,0-0.8-0.1-1-0.2c-0.2-0.1-0.3-0.3-0.4-0.7l-2.5-8.7c0.4-0.2,0.8-0.3,1-0.3c0.3,0,0.5,0.1,0.7,0.2c0.1,0.1,0.3,0.4,0.3,0.7
		l1.3,4.6c0.1,0.5,0.3,1.3,0.6,2.5C70.5,8.7,70.6,8.8,70.6,8.8z"/>
	<path fill="#A9D42D" d="M80.8,7.4h-3.9c0,0.6,0.2,1,0.4,1.3c0.2,0.3,0.6,0.5,1.2,0.5s1.2-0.2,1.8-0.5c0.3,0.3,0.4,0.6,0.5,1.1
		c-0.7,0.5-1.6,0.8-2.7,0.8s-1.8-0.3-2.3-1c-0.5-0.7-0.7-1.6-0.7-2.6c0-1.1,0.3-2,0.8-2.6c0.5-0.7,1.2-1,2.2-1
		c0.9,0,1.7,0.3,2.2,0.8S81,5.3,81,6.1C81,6.6,80.9,7,80.8,7.4z M78.1,4.4c-0.8,0-1.2,0.6-1.2,1.7h2.4V6c0-0.5-0.1-0.8-0.3-1.1
		C78.8,4.6,78.5,4.4,78.1,4.4z"/>
	<path fill="#A9D42D" d="M88.3,5.6v3.1c0,0.6,0.1,1,0.3,1.3c-0.3,0.2-0.7,0.4-1,0.4s-0.6-0.1-0.8-0.3c-0.1-0.2-0.2-0.5-0.2-0.8V6
		c0-0.4-0.1-0.7-0.2-0.9c-0.1-0.2-0.3-0.3-0.6-0.3c-0.5,0-1,0.2-1.5,0.7v4.8c-0.3,0-0.5,0.1-0.9,0.1s-0.6,0-0.9-0.1V3.4l0.1-0.1h0.6
		c0.5,0,0.8,0.3,1,0.8c0.7-0.6,1.4-0.9,2-0.9s1.2,0.2,1.5,0.7C88.1,4.3,88.3,4.9,88.3,5.6z"/>
	<path fill="#A9D42D" d="M93.9,3.3c0,0.2,0.1,0.4,0.1,0.6c0,0.2,0,0.4-0.1,0.6l-1.7,0v3.8c0,0.4,0.2,0.6,0.6,0.6h0.9
		c0.1,0.3,0.1,0.5,0.1,0.7s0,0.4,0,0.5c-0.6,0.1-1.1,0.1-1.7,0.1c-1.1,0-1.6-0.5-1.6-1.6V4.6l-1,0c0-0.2-0.1-0.4-0.1-0.6
		c0-0.2,0-0.5,0.1-0.6l1,0V2.3c0-0.4,0.1-0.7,0.2-0.8c0.1-0.2,0.4-0.2,0.7-0.2h0.7l0.1,0.1v2L93.9,3.3z"/>
	<path fill="#A9D42D" d="M101,6.8c0,1.3-0.3,2.2-1,2.9c-0.5,0.5-1.2,0.8-2.1,0.8c-0.9,0-1.6-0.3-2.1-0.8c-0.7-0.7-1-1.6-1-2.9
		s0.3-2.2,1-2.9c0.5-0.5,1.2-0.8,2.1-0.8c0.9,0,1.6,0.3,2.1,0.8C100.7,4.6,101,5.6,101,6.8z M97.9,4.5c-0.9,0-1.3,0.8-1.3,2.4
		c0,1.6,0.4,2.4,1.3,2.4c0.9,0,1.3-0.8,1.3-2.4C99.2,5.3,98.8,4.5,97.9,4.5z"/>
	<path fill="#A9D42D" d="M101.9,9.8c0-0.2,0.1-0.4,0.2-0.6c0.1-0.2,0.2-0.4,0.4-0.6c0.7,0.4,1.4,0.6,2,0.6c0.3,0,0.6-0.1,0.8-0.2
		c0.2-0.1,0.3-0.3,0.3-0.5c0-0.4-0.3-0.6-0.8-0.8l-0.8-0.3c-1.2-0.4-1.8-1.1-1.8-2c0-0.7,0.2-1.2,0.7-1.6c0.5-0.4,1.1-0.6,1.9-0.6
		s1.6,0.2,2.4,0.5c0,0.2,0,0.4-0.1,0.7c-0.1,0.2-0.2,0.4-0.4,0.5c-0.7-0.3-1.3-0.5-1.9-0.5c-0.3,0-0.5,0.1-0.6,0.2
		c-0.2,0.1-0.2,0.3-0.2,0.5c0,0.3,0.2,0.5,0.7,0.7l0.9,0.3c1.2,0.4,1.8,1.2,1.8,2.2c0,0.7-0.2,1.2-0.7,1.6c-0.5,0.4-1.2,0.6-2.1,0.6
		S102.7,10.3,101.9,9.8z"/>
	<path fill="#FFFFFF" d="M108.7,10.3c-0.1-0.1-0.1-0.3-0.1-0.6s0-0.4,0.1-0.5c0.2-0.1,0.4-0.1,0.7-0.1c0.3,0,0.5,0,0.6,0.1
		c0.1,0.1,0.1,0.3,0.1,0.5s0,0.5-0.1,0.6c-0.1,0.1-0.3,0.1-0.6,0.1C109,10.4,108.8,10.4,108.7,10.3z"/>
	<path fill="#FFFFFF" d="M111.9,10.3c-0.1-0.1-0.1-0.3-0.1-0.6s0-0.4,0.1-0.5c0.2-0.1,0.4-0.1,0.7-0.1c0.3,0,0.5,0,0.6,0.1
		c0.1,0.1,0.1,0.3,0.1,0.5s0,0.5-0.1,0.6c-0.1,0.1-0.3,0.1-0.6,0.1C112.3,10.4,112,10.4,111.9,10.3z"/>
	<path fill="#FFFFFF" d="M115.1,10.3C115,10.2,115,10,115,9.7s0-0.4,0.1-0.5c0.2-0.1,0.4-0.1,0.7-0.1c0.3,0,0.5,0,0.6,0.1
		c0.1,0.1,0.1,0.3,0.1,0.5s0,0.5-0.1,0.6c-0.1,0.1-0.3,0.1-0.6,0.1C115.5,10.4,115.2,10.4,115.1,10.3z"/>
</g>
</svg>