<!-- Generator: Adobe Illustrator 17.1.0, SVG Export Plug-In  -->
<svg version="1.1"
	 xmlns="http://www.w3.org/2000/svg" xmlns:xlink="http://www.w3.org/1999/xlink" xmlns:a="http://ns.adobe.com/AdobeSVGViewerExtensions/3.0/"
	 x="0px" y="0px" width="221px" height="221px" viewBox="0 0 221 221" enable-background="new 0 0 221 221" xml:space="preserve">
<defs>
</defs>
<path fill="#043A63" d="M110.5,216.5c-58.5,0-106-47.5-106-106s47.5-106,106-106c58.5,0,106,47.5,106,106S169,216.5,110.5,216.5"/>
<circle fill="none" stroke="#FFFFFF" stroke-width="9" stroke-miterlimit="10" cx="110.5" cy="110.5" r="106"/>
<g>
	<path fill="#FFFFFF" d="M42.1,79.6l1,0h3.1c0.1,0.2,0.1,0.5,0.1,0.7c0,0.2,0,0.4-0.1,0.7h-3.1c-0.4,0-0.7,0-1,0v2.8
		c0,0.1,0,0.2,0,0.4c0,0.2,0,0.3,0,0.4c0.3,0,0.6,0,1,0h4.2c0,0.3,0,0.5,0,0.6c-0.1,0.5-0.4,0.8-1,0.8h-4.8c-0.3,0-0.5-0.1-0.7-0.3
		s-0.2-0.4-0.2-0.7v-9.9l0.1-0.1H47c0,0.2,0,0.4,0,0.6s0,0.5-0.1,0.7h-3.9c-0.4,0-0.8,0-1,0l0,1V79.6z"/>
	<path fill="#FFFFFF" d="M56.6,77.7c0.9,0,1.5,0.4,2,1.1c0.5,0.7,0.7,1.8,0.7,3c0,1.3-0.3,2.3-0.9,3c-0.6,0.7-1.3,1.1-2.1,1.1
		c-0.6,0-1.3-0.2-1.9-0.6v2.9c0,0.4-0.1,0.6-0.2,0.8s-0.3,0.2-0.7,0.2H53l-0.1-0.1V77.9l0.1-0.1h0.5c0.5,0,0.8,0.3,0.9,0.8
		C55,78,55.8,77.7,56.6,77.7z M56.3,79c-0.7,0-1.4,0.4-1.9,1.1V84c0.6,0.4,1.1,0.6,1.6,0.6c0.5,0,0.9-0.2,1.2-0.7
		c0.3-0.5,0.5-1.2,0.5-2.2s-0.1-1.6-0.4-2.1C57.1,79.2,56.7,79,56.3,79z"/>
	<path fill="#FFFFFF" d="M67.4,85.1c-0.1,0.4-0.3,0.6-0.6,0.8c-0.6-0.1-1-0.5-1.2-1C64.8,85.6,64,86,63.2,86c-0.8,0-1.4-0.2-1.8-0.7
		c-0.4-0.5-0.6-1-0.6-1.6c0-0.9,0.3-1.5,0.8-2c0.6-0.4,1.3-0.7,2.2-0.7c0.5,0,1.1,0,1.6,0.1v-0.7c0-1-0.4-1.5-1.3-1.5
		c-0.7,0-1.5,0.2-2.5,0.6c-0.3-0.3-0.4-0.7-0.5-1.2c1.1-0.5,2.2-0.7,3.3-0.7c0.8,0,1.5,0.2,1.9,0.7c0.5,0.4,0.7,1.1,0.7,2v3.3
		C67,84.3,67.1,84.8,67.4,85.1z M63.5,84.7c0.7,0,1.4-0.3,2-1v-1.5c-0.4-0.1-0.9-0.1-1.4-0.1c-0.5,0-1,0.1-1.2,0.4
		c-0.3,0.3-0.4,0.6-0.4,1c0,0.4,0.1,0.7,0.3,0.9C62.9,84.6,63.1,84.7,63.5,84.7z"/>
	<path fill="#FFFFFF" d="M69,78.6c0.1-0.4,0.3-0.6,0.6-0.8c0.7,0.2,1.2,0.6,1.4,1.4c0.4-0.9,1.1-1.4,2.1-1.4c0.3,0,0.5,0,0.8,0.1
		c0,0.6-0.1,1.1-0.4,1.5c-0.1,0-0.3,0-0.6-0.1c-0.7,0-1.3,0.4-1.8,1.2v5.3c-0.2,0-0.4,0.1-0.8,0.1s-0.6,0-0.8-0.1v-5.5
		C69.6,79.5,69.4,79,69,78.6z"/>
	<path fill="#FFFFFF" d="M81.2,85.1c-0.1,0.4-0.3,0.6-0.6,0.8c-0.6-0.1-1-0.5-1.2-1c-0.8,0.7-1.6,1.1-2.4,1.1
		c-0.8,0-1.4-0.2-1.8-0.7c-0.4-0.5-0.6-1-0.6-1.6c0-0.9,0.3-1.5,0.8-2c0.6-0.4,1.3-0.7,2.2-0.7c0.5,0,1.1,0,1.6,0.1v-0.7
		c0-1-0.4-1.5-1.3-1.5c-0.7,0-1.5,0.2-2.5,0.6c-0.3-0.3-0.4-0.7-0.5-1.2c1.1-0.5,2.2-0.7,3.3-0.7c0.8,0,1.5,0.2,1.9,0.7
		c0.5,0.4,0.7,1.1,0.7,2v3.3C80.8,84.3,80.9,84.8,81.2,85.1z M77.3,84.7c0.7,0,1.4-0.3,2-1v-1.5c-0.4-0.1-0.9-0.1-1.4-0.1
		s-1,0.1-1.2,0.4c-0.3,0.3-0.4,0.6-0.4,1c0,0.4,0.1,0.7,0.3,0.9C76.7,84.6,77,84.7,77.3,84.7z"/>
	<path fill="#FFFFFF" d="M92.9,85.1c-0.1,0.4-0.3,0.6-0.6,0.8c-0.6-0.1-1-0.5-1.2-1c-0.8,0.7-1.6,1.1-2.4,1.1
		c-0.8,0-1.4-0.2-1.8-0.7c-0.4-0.5-0.6-1-0.6-1.6c0-0.9,0.3-1.5,0.8-2c0.6-0.4,1.3-0.7,2.2-0.7c0.5,0,1.1,0,1.6,0.1v-0.7
		c0-1-0.4-1.5-1.3-1.5c-0.7,0-1.5,0.2-2.5,0.6c-0.3-0.3-0.4-0.7-0.5-1.2c1.1-0.5,2.2-0.7,3.3-0.7c0.8,0,1.5,0.2,1.9,0.7
		c0.5,0.4,0.7,1.1,0.7,2v3.3C92.4,84.3,92.6,84.8,92.9,85.1z M88.9,84.7c0.7,0,1.4-0.3,2-1v-1.5c-0.4-0.1-0.9-0.1-1.4-0.1
		s-1,0.1-1.2,0.4c-0.3,0.3-0.4,0.6-0.4,1c0,0.4,0.1,0.7,0.3,0.9C88.3,84.6,88.6,84.7,88.9,84.7z"/>
	<path fill="#FFFFFF" d="M97.7,85.2c0-0.2,0.1-0.4,0.2-0.6c0.1-0.2,0.2-0.4,0.4-0.5c0.9,0.5,1.6,0.7,2.1,0.7c0.5,0,0.9-0.1,1.2-0.3
		s0.4-0.5,0.4-0.8c0-0.5-0.3-0.9-1-1.1l-0.9-0.4c-1.4-0.5-2-1.3-2-2.3c0-0.7,0.3-1.3,0.8-1.7c0.5-0.4,1.2-0.6,2.1-0.6
		s1.7,0.2,2.5,0.6c0,0.2,0,0.4-0.1,0.6c-0.1,0.2-0.2,0.4-0.3,0.5c-0.8-0.3-1.5-0.5-2.1-0.5c-0.4,0-0.7,0.1-0.9,0.3s-0.3,0.4-0.3,0.7
		s0.1,0.5,0.2,0.6c0.2,0.2,0.4,0.3,0.8,0.4l1,0.4c1.3,0.5,2,1.3,2,2.4c0,0.7-0.3,1.3-0.8,1.7s-1.3,0.6-2.3,0.6
		C99.5,86,98.5,85.7,97.7,85.2z"/>
	<path fill="#FFFFFF" d="M105.4,83.3v-3.8c0-0.6-0.1-1.1-0.3-1.4c0.2-0.2,0.5-0.3,0.9-0.3c0.4,0,0.6,0.1,0.7,0.2
		c0.1,0.2,0.2,0.4,0.2,0.8v4.1c0,0.6,0.1,1,0.2,1.2c0.1,0.2,0.4,0.4,0.8,0.4s0.7-0.1,1.1-0.3c0.4-0.2,0.7-0.4,1-0.8v-5.6
		c0.3,0,0.5-0.1,0.8-0.1s0.5,0,0.8,0.1v5.7c0,0.8,0.1,1.3,0.4,1.6c-0.1,0.4-0.3,0.6-0.6,0.8c-0.7-0.1-1.1-0.5-1.3-1.2
		c-0.8,0.8-1.7,1.2-2.7,1.2c-0.7,0-1.2-0.2-1.6-0.7C105.5,84.7,105.4,84.1,105.4,83.3z"/>
	<path fill="#FFFFFF" d="M120.2,85.1c-0.1,0.4-0.3,0.6-0.6,0.8c-0.6-0.1-1-0.5-1.2-1c-0.8,0.7-1.6,1.1-2.4,1.1
		c-0.8,0-1.4-0.2-1.8-0.7c-0.4-0.5-0.6-1-0.6-1.6c0-0.9,0.3-1.5,0.8-2c0.6-0.4,1.3-0.7,2.2-0.7c0.5,0,1.1,0,1.6,0.1v-0.7
		c0-1-0.4-1.5-1.3-1.5c-0.7,0-1.5,0.2-2.5,0.6c-0.3-0.3-0.4-0.7-0.5-1.2c1.1-0.5,2.2-0.7,3.3-0.7c0.8,0,1.5,0.2,1.9,0.7
		c0.5,0.4,0.7,1.1,0.7,2v3.3C119.8,84.3,119.9,84.8,120.2,85.1z M116.3,84.7c0.7,0,1.4-0.3,2-1v-1.5c-0.4-0.1-0.9-0.1-1.4-0.1
		s-1,0.1-1.2,0.4c-0.3,0.3-0.4,0.6-0.4,1c0,0.4,0.1,0.7,0.3,0.9C115.7,84.6,115.9,84.7,116.3,84.7z"/>
	<path fill="#FFFFFF" d="M129.6,77.9c0,0.2,0.1,0.4,0.1,0.6s0,0.4-0.1,0.6l-2,0v4.9c0,0.5,0.2,0.7,0.7,0.7h1.1
		c0.1,0.2,0.1,0.4,0.1,0.7s0,0.4,0,0.5c-0.6,0.1-1.2,0.1-1.8,0.1c-1.1,0-1.6-0.5-1.6-1.6V79l-1.2,0c0-0.2-0.1-0.4-0.1-0.6
		s0-0.4,0.1-0.6l1.2,0v-1.5c0-0.4,0.1-0.6,0.2-0.8s0.3-0.2,0.7-0.2h0.6l0.1,0.1v2.4L129.6,77.9z"/>
	<path fill="#FFFFFF" d="M130.9,78.6c0.1-0.4,0.3-0.6,0.6-0.8c0.7,0.2,1.2,0.6,1.4,1.4c0.4-0.9,1.1-1.4,2.1-1.4c0.3,0,0.5,0,0.8,0.1
		c0,0.6-0.1,1.1-0.4,1.5c-0.1,0-0.3,0-0.6-0.1c-0.7,0-1.3,0.4-1.8,1.2v5.3c-0.2,0-0.4,0.1-0.8,0.1s-0.6,0-0.8-0.1v-5.5
		C131.5,79.5,131.3,79,130.9,78.6z"/>
	<path fill="#FFFFFF" d="M139.2,79.2v6.6c-0.2,0-0.4,0.1-0.8,0.1s-0.6,0-0.8-0.1v-5.9c0-0.3-0.1-0.5-0.2-0.6
		c-0.1-0.1-0.3-0.2-0.5-0.2h-0.2c0-0.2-0.1-0.3-0.1-0.5c0-0.2,0-0.4,0.1-0.6c0.3,0,0.7-0.1,1-0.1h0.2c0.4,0,0.7,0.1,0.9,0.4
		C139.1,78.4,139.2,78.8,139.2,79.2z M137.2,75.7c0-0.3,0-0.5,0.1-0.7c0.2-0.1,0.5-0.2,0.9-0.2s0.6,0.1,0.8,0.2
		c0.1,0.2,0.1,0.4,0.1,0.7s0,0.5-0.1,0.7c-0.2,0.1-0.5,0.2-0.8,0.2c-0.4,0-0.7-0.1-0.9-0.2C137.2,76.2,137.2,75.9,137.2,75.7z"/>
	<path fill="#FFFFFF" d="M143.9,84.6h0.6c0.1,0.2,0.1,0.4,0.1,0.6c0,0.2,0,0.4,0,0.5c-0.4,0.1-0.9,0.1-1.3,0.1c-1,0-1.5-0.5-1.5-1.6
		V74.1l0.1-0.1h0.6c0.3,0,0.5,0.1,0.7,0.2s0.2,0.4,0.2,0.8v8.9C143.2,84.4,143.4,84.6,143.9,84.6z"/>
	<path fill="#FFFFFF" d="M152.6,80.3v3.8c0,0.6,0.1,1.1,0.3,1.4c-0.3,0.2-0.6,0.3-1,0.3c-0.5,0-0.8-0.3-0.8-1v-4.1
		c0-0.6-0.1-1-0.2-1.2s-0.4-0.4-0.8-0.4s-0.7,0.1-1.1,0.3c-0.4,0.2-0.7,0.4-1,0.8v5.6c-0.2,0-0.4,0.1-0.7,0.1s-0.6,0-0.8-0.1V74.1
		l0.1-0.1h0.6c0.3,0,0.5,0.1,0.7,0.2c0.1,0.2,0.2,0.4,0.2,0.8v3.8c0.8-0.7,1.6-1.1,2.6-1.1c0.7,0,1.2,0.2,1.6,0.7
		C152.4,78.9,152.6,79.6,152.6,80.3z"/>
	<path fill="#FFFFFF" d="M161.2,85.1c-0.1,0.4-0.3,0.6-0.6,0.8c-0.6-0.1-1-0.5-1.2-1c-0.8,0.7-1.6,1.1-2.4,1.1
		c-0.8,0-1.4-0.2-1.8-0.7c-0.4-0.5-0.6-1-0.6-1.6c0-0.9,0.3-1.5,0.8-2c0.6-0.4,1.3-0.7,2.2-0.7c0.5,0,1.1,0,1.6,0.1v-0.7
		c0-1-0.4-1.5-1.3-1.5c-0.7,0-1.5,0.2-2.5,0.6c-0.3-0.3-0.4-0.7-0.5-1.2c1.1-0.5,2.2-0.7,3.3-0.7c0.8,0,1.5,0.2,1.9,0.7
		c0.5,0.4,0.7,1.1,0.7,2v3.3C160.7,84.3,160.9,84.8,161.2,85.1z M157.2,84.7c0.7,0,1.4-0.3,2-1v-1.5c-0.4-0.1-0.9-0.1-1.4-0.1
		s-1,0.1-1.2,0.4c-0.3,0.3-0.4,0.6-0.4,1c0,0.4,0.1,0.7,0.3,0.9C156.6,84.6,156.9,84.7,157.2,84.7z"/>
	<path fill="#FFFFFF" d="M168.9,86c-0.9,0-1.6-0.4-2.1-1.1c-0.5-0.7-0.7-1.7-0.7-3s0.3-2.3,0.9-3c0.6-0.7,1.3-1.1,2.1-1.1
		c0.6,0,1.2,0.2,1.9,0.5v-4.2l0.1-0.1h0.6c0.3,0,0.5,0.1,0.7,0.2c0.1,0.2,0.2,0.4,0.2,0.8v8.5c0,0.8,0.1,1.3,0.4,1.6
		c-0.1,0.4-0.3,0.6-0.6,0.8c-0.6-0.1-1-0.5-1.2-1C170.6,85.6,169.8,86,168.9,86z M169.3,84.7c0.7,0,1.3-0.4,1.8-1.1v-4
		c-0.6-0.4-1.1-0.6-1.6-0.6s-0.9,0.2-1.2,0.7c-0.3,0.5-0.5,1.2-0.5,2.2s0.1,1.6,0.4,2.1C168.5,84.4,168.8,84.7,169.3,84.7z"/>
	<path fill="#FFFFFF" d="M181,82.3h-4.8c0,0.8,0.2,1.3,0.5,1.8c0.3,0.4,0.8,0.6,1.4,0.6s1.4-0.2,2.2-0.6c0.3,0.3,0.4,0.6,0.5,1
		c-0.9,0.6-1.9,0.9-3,0.9s-2-0.4-2.5-1.2c-0.5-0.8-0.8-1.8-0.8-3c0-1.2,0.3-2.2,0.9-3c0.6-0.8,1.4-1.2,2.4-1.2s1.8,0.3,2.4,1
		s0.8,1.5,0.8,2.5C181.1,81.5,181.1,81.9,181,82.3z M179.2,79.4c-0.3-0.4-0.7-0.6-1.2-0.6c-0.5,0-1,0.2-1.2,0.6
		c-0.3,0.4-0.4,1-0.5,1.7h3.4V81C179.6,80.3,179.5,79.8,179.2,79.4z"/>
	<path fill="#FFFFFF" d="M32.2,100.1c0-0.1,0-0.1,0-0.2c0-1.2-0.5-1.8-1.5-1.8c-0.5,0-0.9,0.3-1.2,0.8c-0.3,0.5-0.4,1.3-0.4,2.2
		c0,1.9,0.6,2.8,1.9,2.8c0.6,0,1.2-0.3,2-0.8c0.1,0.1,0.3,0.2,0.4,0.4s0.2,0.4,0.3,0.5c-0.8,0.8-1.7,1.2-2.8,1.2s-1.9-0.4-2.5-1.2
		c-0.5-0.8-0.8-1.8-0.8-3.1s0.3-2.3,1-3c0.6-0.7,1.4-1.1,2.3-1.1c0.9,0,1.6,0.2,2.1,0.7c0.5,0.5,0.8,1,0.8,1.6s-0.3,0.9-0.8,0.9
		C32.6,100.1,32.4,100.1,32.2,100.1z"/>
	<path fill="#FFFFFF" d="M40.7,97.7c0.7,0.8,1.1,1.8,1.1,3.3c0,1.4-0.4,2.5-1.1,3.3c-0.6,0.6-1.4,0.9-2.3,0.9s-1.7-0.3-2.3-0.9
		c-0.7-0.8-1.1-1.8-1.1-3.3c0-1.4,0.4-2.5,1.1-3.3c0.6-0.6,1.4-0.9,2.3-0.9S40.2,97.2,40.7,97.7z M36.6,101c0,2,0.6,2.9,1.8,2.9
		s1.8-1,1.8-2.9c0-0.6-0.1-1-0.2-1.5s-0.3-0.8-0.6-1.1S38.9,98,38.4,98s-0.8,0.1-1.1,0.4c-0.3,0.3-0.5,0.7-0.6,1.1
		C36.7,100,36.6,100.5,36.6,101z"/>
	<path fill="#FFFFFF" d="M50.1,99.5v3.8c0,0.6,0.1,1.1,0.2,1.4c-0.3,0.2-0.6,0.3-1,0.3c-0.6,0-0.8-0.3-0.8-1v-4.2
		c0-0.6-0.1-1-0.2-1.2c-0.1-0.2-0.4-0.4-0.8-0.4c-0.4,0-0.7,0.1-1.1,0.3c-0.4,0.2-0.7,0.4-1,0.8v5.6c-0.2,0-0.4,0.1-0.8,0.1
		c-0.3,0-0.6,0-0.8-0.1v-7.9L44,97h0.6c0.5,0,0.8,0.3,0.9,1c0.8-0.7,1.7-1.1,2.6-1.1c0.7,0,1.2,0.2,1.6,0.7
		C49.9,98.1,50.1,98.8,50.1,99.5z"/>
	<path fill="#FFFFFF" d="M58.8,99.5v3.8c0,0.6,0.1,1.1,0.3,1.4c-0.3,0.2-0.6,0.3-1,0.3c-0.5,0-0.8-0.3-0.8-1v-4.1
		c0-0.6-0.1-1-0.2-1.2s-0.4-0.4-0.8-0.4s-0.7,0.1-1.1,0.3c-0.4,0.2-0.7,0.4-1,0.8v5.6c-0.2,0-0.4,0.1-0.7,0.1s-0.6,0-0.8-0.1V93.3
		l0.1-0.1h0.6c0.3,0,0.5,0.1,0.7,0.2c0.1,0.2,0.2,0.4,0.2,0.8V98c0.8-0.7,1.6-1.1,2.6-1.1c0.7,0,1.2,0.2,1.6,0.7
		C58.6,98.1,58.8,98.8,58.8,99.5z"/>
	<path fill="#FFFFFF" d="M67.1,101.5h-4.8c0,0.8,0.2,1.3,0.5,1.8c0.3,0.4,0.8,0.6,1.4,0.6c0.7,0,1.4-0.2,2.2-0.6
		c0.3,0.3,0.4,0.6,0.5,1c-0.9,0.6-1.9,0.9-3,0.9c-1.1,0-2-0.4-2.5-1.2c-0.5-0.8-0.8-1.8-0.8-3c0-1.2,0.3-2.2,0.9-3
		c0.6-0.8,1.4-1.2,2.4-1.2c1,0,1.8,0.3,2.4,1s0.8,1.5,0.8,2.5C67.2,100.7,67.2,101.1,67.1,101.5z M65.3,98.6
		c-0.3-0.4-0.7-0.6-1.2-0.6c-0.5,0-1,0.2-1.2,0.6c-0.3,0.4-0.4,1-0.5,1.7h3.4v-0.2C65.7,99.5,65.6,99,65.3,98.6z"/>
	<path fill="#FFFFFF" d="M73.5,100.1c0-0.1,0-0.1,0-0.2c0-1.2-0.5-1.8-1.5-1.8c-0.5,0-0.9,0.3-1.2,0.8c-0.3,0.5-0.4,1.3-0.4,2.2
		c0,1.9,0.6,2.8,1.9,2.8c0.6,0,1.2-0.3,2-0.8c0.1,0.1,0.3,0.2,0.4,0.4s0.2,0.4,0.3,0.5c-0.8,0.8-1.7,1.2-2.8,1.2s-1.9-0.4-2.5-1.2
		c-0.5-0.8-0.8-1.8-0.8-3.1s0.3-2.3,1-3c0.6-0.7,1.4-1.1,2.3-1.1c0.9,0,1.6,0.2,2.1,0.7c0.5,0.5,0.8,1,0.8,1.6s-0.3,0.9-0.8,0.9
		C73.9,100.1,73.7,100.1,73.5,100.1z"/>
	<path fill="#FFFFFF" d="M78.8,98.4v6.6c-0.2,0-0.4,0.1-0.8,0.1s-0.6,0-0.8-0.1V99c0-0.3-0.1-0.5-0.2-0.6c-0.1-0.1-0.3-0.2-0.5-0.2
		h-0.2c0-0.2-0.1-0.3-0.1-0.5c0-0.2,0-0.4,0.1-0.6c0.3,0,0.7-0.1,1-0.1h0.2c0.4,0,0.7,0.1,0.9,0.4C78.7,97.6,78.8,98,78.8,98.4z
		 M76.7,94.9c0-0.3,0-0.5,0.1-0.7c0.2-0.1,0.5-0.2,0.9-0.2s0.6,0.1,0.8,0.2c0.1,0.2,0.1,0.4,0.1,0.7s0,0.5-0.1,0.7
		c-0.2,0.1-0.5,0.2-0.8,0.2c-0.4,0-0.7-0.1-0.9-0.2C76.8,95.4,76.7,95.1,76.7,94.9z"/>
	<path fill="#FFFFFF" d="M85.7,99.9c0-0.6-0.1-1-0.2-1.2c-0.2-0.2-0.4-0.4-0.8-0.4c-0.6,0-1.2,0.3-1.8,1v5.6c-0.2,0-0.4,0.1-0.8,0.1
		c-0.3,0-0.6,0-0.8-0.1v-7.8l0.1-0.1H82c0.5,0,0.8,0.3,0.9,1c0.7-0.7,1.5-1.1,2.3-1.1c0.8,0,1.4,0.4,1.8,1.2
		c0.8-0.8,1.7-1.2,2.6-1.2c0.7,0,1.2,0.2,1.5,0.7c0.3,0.5,0.5,1.1,0.5,1.8v3.9c0,0.6,0.1,1.1,0.3,1.4c-0.3,0.2-0.6,0.3-1,0.3
		c-0.5,0-0.8-0.3-0.8-1v-4.2c0-0.6-0.1-1-0.2-1.2c-0.2-0.2-0.4-0.4-0.8-0.4c-0.6,0-1.2,0.3-1.8,1v5.6c-0.2,0-0.4,0.1-0.8,0.1
		c-0.3,0-0.6,0-0.8-0.1V99.9z"/>
	<path fill="#FFFFFF" d="M99.9,101.5h-4.8c0,0.8,0.2,1.3,0.5,1.8c0.3,0.4,0.8,0.6,1.4,0.6s1.4-0.2,2.2-0.6c0.3,0.3,0.4,0.6,0.5,1
		c-0.9,0.6-1.9,0.9-3,0.9s-2-0.4-2.5-1.2c-0.5-0.8-0.8-1.8-0.8-3c0-1.2,0.3-2.2,0.9-3c0.6-0.8,1.4-1.2,2.4-1.2s1.8,0.3,2.4,1
		s0.8,1.5,0.8,2.5C100,100.7,99.9,101.1,99.9,101.5z M98.1,98.6c-0.3-0.4-0.7-0.6-1.2-0.6c-0.5,0-1,0.2-1.2,0.6
		c-0.3,0.4-0.4,1-0.5,1.7h3.4v-0.2C98.5,99.5,98.3,99,98.1,98.6z"/>
	<path fill="#FFFFFF" d="M108.3,99.5v3.8c0,0.6,0.1,1.1,0.2,1.4c-0.3,0.2-0.6,0.3-1,0.3c-0.6,0-0.8-0.3-0.8-1v-4.2
		c0-0.6-0.1-1-0.2-1.2c-0.1-0.2-0.4-0.4-0.8-0.4c-0.4,0-0.7,0.1-1.1,0.3c-0.4,0.2-0.7,0.4-1,0.8v5.6c-0.2,0-0.4,0.1-0.8,0.1
		c-0.3,0-0.6,0-0.8-0.1v-7.9l0.1-0.1h0.6c0.5,0,0.8,0.3,0.9,1c0.8-0.7,1.7-1.1,2.6-1.1c0.7,0,1.2,0.2,1.6,0.7
		C108.1,98.1,108.3,98.8,108.3,99.5z"/>
	<path fill="#FFFFFF" d="M114.6,97.1c0,0.2,0.1,0.4,0.1,0.6s0,0.4-0.1,0.6l-2,0v4.9c0,0.5,0.2,0.7,0.7,0.7h1.1
		c0.1,0.2,0.1,0.4,0.1,0.7s0,0.4,0,0.5c-0.6,0.1-1.2,0.1-1.8,0.1c-1.1,0-1.6-0.5-1.6-1.6v-5.3l-1.2,0c0-0.2-0.1-0.4-0.1-0.6
		s0-0.4,0.1-0.6l1.2,0v-1.5c0-0.4,0.1-0.6,0.2-0.8s0.3-0.2,0.7-0.2h0.6l0.1,0.1v2.4L114.6,97.1z"/>
	<path fill="#FFFFFF" d="M121.6,97.7c0.7,0.8,1.1,1.8,1.1,3.3c0,1.4-0.4,2.5-1.1,3.3c-0.6,0.6-1.4,0.9-2.3,0.9s-1.7-0.3-2.3-0.9
		c-0.7-0.8-1.1-1.8-1.1-3.3c0-1.4,0.4-2.5,1.1-3.3c0.6-0.6,1.4-0.9,2.3-0.9S121,97.2,121.6,97.7z M117.4,101c0,2,0.6,2.9,1.8,2.9
		s1.8-1,1.8-2.9c0-0.6-0.1-1-0.2-1.5s-0.3-0.8-0.6-1.1s-0.6-0.4-1.1-0.4s-0.8,0.1-1.1,0.4c-0.3,0.3-0.5,0.7-0.6,1.1
		C117.5,100,117.4,100.5,117.4,101z"/>
	<path fill="#FFFFFF" d="M124.4,107.5c-0.3-0.1-0.4-0.4-0.4-0.7c0,0,0-0.1,0-0.1c0.4-0.2,0.7-0.4,0.9-0.7c0.2-0.3,0.4-0.6,0.4-0.9
		c-0.3-0.1-0.5-0.2-0.6-0.2c-0.1-0.2-0.1-0.4-0.1-0.8s0-0.6,0.1-0.7c0.3-0.1,0.6-0.2,1-0.2c0.4,0,0.7,0.1,0.9,0.2
		c0.1,0.2,0.2,0.6,0.2,1c0,0.7-0.2,1.3-0.6,1.9S125.1,107.2,124.4,107.5z"/>
	<path fill="#FFFFFF" d="M136.3,97.1c0,0.2,0.1,0.4,0.1,0.6s0,0.4-0.1,0.6l-2,0v4.9c0,0.5,0.2,0.7,0.7,0.7h1.1
		c0.1,0.2,0.1,0.4,0.1,0.7s0,0.4,0,0.5c-0.6,0.1-1.2,0.1-1.8,0.1c-1.1,0-1.6-0.5-1.6-1.6v-5.3l-1.2,0c0-0.2-0.1-0.4-0.1-0.6
		s0-0.4,0.1-0.6l1.2,0v-1.5c0-0.4,0.1-0.6,0.2-0.8s0.3-0.2,0.7-0.2h0.6l0.1,0.1v2.4L136.3,97.1z"/>
	<path fill="#FFFFFF" d="M137.6,97.8c0.1-0.4,0.3-0.6,0.6-0.8c0.7,0.2,1.2,0.6,1.4,1.4c0.4-0.9,1.1-1.4,2.1-1.4c0.3,0,0.5,0,0.8,0.1
		c0,0.6-0.1,1.1-0.4,1.5c-0.1,0-0.3,0-0.6-0.1c-0.7,0-1.3,0.4-1.8,1.2v5.3c-0.2,0-0.4,0.1-0.8,0.1s-0.6,0-0.8-0.1v-5.5
		C138.2,98.7,138,98.2,137.6,97.8z"/>
	<path fill="#FFFFFF" d="M149.8,104.3c-0.1,0.4-0.3,0.6-0.6,0.8c-0.6-0.1-1-0.5-1.2-1c-0.8,0.7-1.6,1.1-2.4,1.1
		c-0.8,0-1.4-0.2-1.8-0.7c-0.4-0.5-0.6-1-0.6-1.6c0-0.9,0.3-1.5,0.8-2c0.6-0.4,1.3-0.7,2.2-0.7c0.5,0,1.1,0,1.6,0.1v-0.7
		c0-1-0.4-1.5-1.3-1.5c-0.7,0-1.5,0.2-2.5,0.6c-0.3-0.3-0.4-0.7-0.5-1.2c1.1-0.5,2.2-0.7,3.3-0.7c0.8,0,1.5,0.2,1.9,0.7
		c0.5,0.4,0.7,1.1,0.7,2v3.3C149.4,103.5,149.5,104,149.8,104.3z M145.9,103.9c0.7,0,1.4-0.3,2-1v-1.5c-0.4-0.1-0.9-0.1-1.4-0.1
		s-1,0.1-1.2,0.4c-0.3,0.3-0.4,0.6-0.4,1c0,0.4,0.1,0.7,0.3,0.9C145.3,103.8,145.5,103.9,145.9,103.9z"/>
	<path fill="#FFFFFF" d="M153.7,106.1c0.1-0.3,0.2-0.6,0.3-1c-0.9-0.1-1.6-0.6-2.1-1.3c-0.5-0.8-0.7-1.7-0.7-2.8
		c0-1.4,0.3-2.4,1-3.1c0.6-0.7,1.4-1.1,2.3-1.1c0.9,0,1.6,0.2,2.1,0.7c0.5,0.5,0.8,1,0.8,1.6s-0.3,0.9-0.8,0.9c-0.2,0-0.5,0-0.6-0.1
		c0-0.1,0-0.1,0-0.2c0-1.2-0.5-1.8-1.5-1.8c-0.5,0-0.9,0.3-1.2,0.8c-0.3,0.5-0.4,1.3-0.4,2.2c0,1.9,0.6,2.8,1.9,2.8
		c0.6,0,1.2-0.3,2-0.8c0.1,0.1,0.3,0.2,0.4,0.4s0.2,0.4,0.3,0.5c-0.7,0.7-1.5,1-2.4,1.2c-0.1,0.2-0.2,0.3-0.2,0.4
		c0.4,0,0.8,0.2,1.1,0.4c0.3,0.3,0.4,0.6,0.4,1s-0.2,0.8-0.5,1.1s-0.8,0.4-1.3,0.4s-0.9-0.1-1.3-0.3c0-0.3,0.1-0.6,0.3-0.8
		c0.2,0.1,0.5,0.2,0.8,0.2c0.3,0,0.5-0.1,0.6-0.2c0.1-0.1,0.2-0.3,0.2-0.5c0-0.2-0.1-0.3-0.2-0.5c-0.1-0.1-0.3-0.2-0.4-0.2
		s-0.3,0-0.5,0.1C153.8,106.4,153.7,106.3,153.7,106.1z"/>
	<path fill="#FFFFFF" d="M165.4,104.3c-0.1,0.4-0.3,0.6-0.6,0.8c-0.6-0.1-1-0.5-1.2-1c-0.8,0.7-1.6,1.1-2.4,1.1
		c-0.8,0-1.4-0.2-1.8-0.7c-0.4-0.5-0.6-1-0.6-1.6c0-0.9,0.3-1.5,0.8-2c0.6-0.4,1.3-0.7,2.2-0.7c0.5,0,1.1,0,1.6,0.1v-0.7
		c0-1-0.4-1.5-1.3-1.5c-0.7,0-1.5,0.2-2.5,0.6c-0.3-0.3-0.4-0.7-0.5-1.2c1.1-0.5,2.2-0.7,3.3-0.7c0.8,0,1.5,0.2,1.9,0.7
		c0.5,0.4,0.7,1.1,0.7,2v3.3C165,103.5,165.1,104,165.4,104.3z M161.5,103.9c0.7,0,1.4-0.3,2-1v-1.5c-0.4-0.1-0.9-0.1-1.4-0.1
		s-1,0.1-1.2,0.4c-0.3,0.3-0.4,0.6-0.4,1c0,0.4,0.1,0.7,0.3,0.9C160.9,103.8,161.2,103.9,161.5,103.9z"/>
	<path fill="#FFFFFF" d="M171.8,99.9c0-0.6-0.1-1-0.2-1.2c-0.2-0.2-0.4-0.4-0.8-0.4c-0.6,0-1.2,0.3-1.8,1v5.6
		c-0.2,0-0.4,0.1-0.8,0.1c-0.3,0-0.6,0-0.8-0.1v-7.8l0.1-0.1h0.6c0.5,0,0.8,0.3,0.9,1c0.7-0.7,1.5-1.1,2.3-1.1
		c0.8,0,1.4,0.4,1.8,1.2c0.8-0.8,1.7-1.2,2.6-1.2c0.7,0,1.2,0.2,1.5,0.7c0.3,0.5,0.5,1.1,0.5,1.8v3.9c0,0.6,0.1,1.1,0.3,1.4
		c-0.3,0.2-0.6,0.3-1,0.3c-0.5,0-0.8-0.3-0.8-1v-4.2c0-0.6-0.1-1-0.2-1.2c-0.2-0.2-0.4-0.4-0.8-0.4c-0.6,0-1.2,0.3-1.8,1v5.6
		c-0.2,0-0.4,0.1-0.8,0.1c-0.3,0-0.6,0-0.8-0.1V99.9z"/>
	<path fill="#FFFFFF" d="M185.4,97.7c0.7,0.8,1.1,1.8,1.1,3.3c0,1.4-0.4,2.5-1.1,3.3c-0.6,0.6-1.4,0.9-2.3,0.9s-1.7-0.3-2.3-0.9
		c-0.7-0.8-1.1-1.8-1.1-3.3c0-1.4,0.4-2.5,1.1-3.3c0.6-0.6,1.4-0.9,2.3-0.9S184.8,97.2,185.4,97.7z M181.3,101c0,2,0.6,2.9,1.8,2.9
		s1.8-1,1.8-2.9c0-0.6-0.1-1-0.2-1.5s-0.3-0.8-0.6-1.1s-0.6-0.4-1.1-0.4s-0.8,0.1-1.1,0.4c-0.3,0.3-0.5,0.7-0.6,1.1
		C181.3,100,181.3,100.5,181.3,101z"/>
	<path fill="#FFFFFF" d="M187.8,104.4c0-0.2,0.1-0.4,0.2-0.6c0.1-0.2,0.2-0.4,0.4-0.5c0.9,0.5,1.6,0.7,2.1,0.7
		c0.5,0,0.9-0.1,1.2-0.3s0.4-0.5,0.4-0.8c0-0.5-0.3-0.9-1-1.1l-0.9-0.4c-1.4-0.5-2-1.3-2-2.3c0-0.7,0.3-1.3,0.8-1.7
		c0.5-0.4,1.2-0.6,2.1-0.6s1.7,0.2,2.5,0.6c0,0.2,0,0.4-0.1,0.6c-0.1,0.2-0.2,0.4-0.3,0.5c-0.8-0.3-1.5-0.5-2.1-0.5
		c-0.4,0-0.7,0.1-0.9,0.3s-0.3,0.4-0.3,0.7s0.1,0.5,0.2,0.6c0.2,0.2,0.4,0.3,0.8,0.4l1,0.4c1.3,0.5,2,1.3,2,2.4
		c0,0.7-0.3,1.3-0.8,1.7s-1.3,0.6-2.3,0.6C189.6,105.2,188.7,104.9,187.8,104.4z"/>
	<path fill="#FFFFFF" d="M38.1,121.7v-3.8c0-0.6-0.1-1.1-0.3-1.4c0.2-0.2,0.5-0.3,0.9-0.3c0.4,0,0.6,0.1,0.7,0.2
		c0.1,0.2,0.2,0.4,0.2,0.8v4.1c0,0.6,0.1,1,0.2,1.2c0.1,0.2,0.4,0.4,0.8,0.4s0.7-0.1,1.1-0.3c0.4-0.2,0.7-0.4,1-0.8v-5.6
		c0.3,0,0.5-0.1,0.8-0.1s0.5,0,0.8,0.1v5.7c0,0.8,0.1,1.3,0.4,1.6c-0.1,0.4-0.3,0.6-0.6,0.8c-0.7-0.1-1.1-0.5-1.3-1.2
		c-0.8,0.8-1.7,1.2-2.7,1.2c-0.7,0-1.2-0.2-1.6-0.7C38.3,123.1,38.1,122.5,38.1,121.7z"/>
	<path fill="#FFFFFF" d="M51.3,119.1c0-0.6-0.1-1-0.2-1.2c-0.2-0.2-0.4-0.4-0.8-0.4c-0.6,0-1.2,0.3-1.8,1v5.6
		c-0.2,0-0.4,0.1-0.8,0.1c-0.3,0-0.6,0-0.8-0.1v-7.8l0.1-0.1h0.6c0.5,0,0.8,0.3,0.9,1c0.7-0.7,1.5-1.1,2.3-1.1
		c0.8,0,1.4,0.4,1.8,1.2c0.8-0.8,1.7-1.2,2.6-1.2c0.7,0,1.2,0.2,1.5,0.7c0.3,0.5,0.5,1.1,0.5,1.8v3.9c0,0.6,0.1,1.1,0.3,1.4
		c-0.3,0.2-0.6,0.3-1,0.3c-0.5,0-0.8-0.3-0.8-1v-4.2c0-0.6-0.1-1-0.2-1.2c-0.2-0.2-0.4-0.4-0.8-0.4c-0.6,0-1.2,0.3-1.8,1v5.6
		c-0.2,0-0.4,0.1-0.8,0.1c-0.3,0-0.6,0-0.8-0.1V119.1z"/>
	<path fill="#FFFFFF" d="M65.7,123.5c-0.1,0.4-0.3,0.6-0.6,0.8c-0.6-0.1-1-0.5-1.2-1c-0.8,0.7-1.6,1.1-2.4,1.1
		c-0.8,0-1.4-0.2-1.8-0.7c-0.4-0.5-0.6-1-0.6-1.6c0-0.9,0.3-1.5,0.8-2c0.6-0.4,1.3-0.7,2.2-0.7c0.5,0,1.1,0,1.6,0.1v-0.7
		c0-1-0.4-1.5-1.3-1.5c-0.7,0-1.5,0.2-2.5,0.6c-0.3-0.3-0.4-0.7-0.5-1.2c1.1-0.5,2.2-0.7,3.3-0.7c0.8,0,1.5,0.2,1.9,0.7
		c0.5,0.4,0.7,1.1,0.7,2v3.3C65.3,122.7,65.5,123.2,65.7,123.5z M61.8,123.1c0.7,0,1.4-0.3,2-1v-1.5c-0.4-0.1-0.9-0.1-1.4-0.1
		s-1,0.1-1.2,0.4c-0.3,0.3-0.4,0.6-0.4,1c0,0.4,0.1,0.7,0.3,0.9C61.2,123,61.5,123.1,61.8,123.1z"/>
	<path fill="#FFFFFF" d="M70.9,117c0.1-0.4,0.3-0.6,0.6-0.8c0.7,0.2,1.2,0.6,1.4,1.4c0.4-0.9,1.1-1.4,2.1-1.4c0.3,0,0.5,0,0.8,0.1
		c0,0.6-0.1,1.1-0.4,1.5c-0.1,0-0.3,0-0.6-0.1c-0.7,0-1.3,0.4-1.8,1.2v5.3c-0.2,0-0.4,0.1-0.8,0.1s-0.6,0-0.8-0.1v-5.5
		C71.5,117.9,71.3,117.4,70.9,117z"/>
	<path fill="#FFFFFF" d="M82.3,116.9c0.7,0.8,1.1,1.8,1.1,3.3c0,1.4-0.4,2.5-1.1,3.3c-0.6,0.6-1.4,0.9-2.3,0.9s-1.7-0.3-2.3-0.9
		c-0.7-0.8-1.1-1.8-1.1-3.3c0-1.4,0.4-2.5,1.1-3.3c0.6-0.6,1.4-0.9,2.3-0.9S81.8,116.4,82.3,116.9z M78.2,120.2c0,2,0.6,2.9,1.8,2.9
		s1.8-1,1.8-2.9c0-0.6-0.1-1-0.2-1.5s-0.3-0.8-0.6-1.1s-0.6-0.4-1.1-0.4s-0.8,0.1-1.1,0.4c-0.3,0.3-0.5,0.7-0.6,1.1
		C78.3,119.2,78.2,119.7,78.2,120.2z"/>
	<path fill="#FFFFFF" d="M89.1,116.3c0,0.2,0.1,0.4,0.1,0.6s0,0.4-0.1,0.6l-2,0v4.9c0,0.5,0.2,0.7,0.7,0.7h1.1
		c0.1,0.2,0.1,0.4,0.1,0.7s0,0.4,0,0.5c-0.6,0.1-1.2,0.1-1.8,0.1c-1.1,0-1.6-0.5-1.6-1.6v-5.3l-1.2,0c0-0.2-0.1-0.4-0.1-0.6
		s0-0.4,0.1-0.6l1.2,0v-1.5c0-0.4,0.1-0.6,0.2-0.8s0.3-0.2,0.7-0.2H87l0.1,0.1v2.4L89.1,116.3z"/>
	<path fill="#FFFFFF" d="M96.9,123.5c-0.1,0.4-0.3,0.6-0.6,0.8c-0.6-0.1-1-0.5-1.2-1c-0.8,0.7-1.6,1.1-2.4,1.1
		c-0.8,0-1.4-0.2-1.8-0.7c-0.4-0.5-0.6-1-0.6-1.6c0-0.9,0.3-1.5,0.8-2c0.6-0.4,1.3-0.7,2.2-0.7c0.5,0,1.1,0,1.6,0.1v-0.7
		c0-1-0.4-1.5-1.3-1.5c-0.7,0-1.5,0.2-2.5,0.6c-0.3-0.3-0.4-0.7-0.5-1.2c1.1-0.5,2.2-0.7,3.3-0.7c0.8,0,1.5,0.2,1.9,0.7
		c0.5,0.4,0.7,1.1,0.7,2v3.3C96.5,122.7,96.6,123.2,96.9,123.5z M93,123.1c0.7,0,1.4-0.3,2-1v-1.5c-0.4-0.1-0.9-0.1-1.4-0.1
		s-1,0.1-1.2,0.4c-0.3,0.3-0.4,0.6-0.4,1c0,0.4,0.1,0.7,0.3,0.9C92.4,123,92.6,123.1,93,123.1z"/>
	<path fill="#FFFFFF" d="M102.9,124.2v-6.8l-1.4,0c0-0.2-0.1-0.4-0.1-0.6s0-0.3,0.1-0.6l1.3,0c-0.1-0.6-0.1-1.1-0.1-1.5
		c0-0.7,0.2-1.3,0.6-1.8c0.4-0.5,1-0.7,1.8-0.7c0.7,0,1.4,0.1,2,0.4c0,0.4-0.1,0.8-0.4,1c-0.5-0.2-1-0.2-1.4-0.2
		c-0.4,0-0.7,0.1-0.9,0.4c-0.2,0.2-0.3,0.6-0.3,1c0,0.4,0,0.9,0.1,1.4l2.3,0c0,0.3,0.1,0.5,0.1,0.6s0,0.3-0.1,0.6l-2.2,0v6.8
		c-0.2,0-0.5,0.1-0.8,0.1C103.3,124.2,103.1,124.2,102.9,124.2z"/>
	<path fill="#FFFFFF" d="M113,116.9c0.7,0.8,1.1,1.8,1.1,3.3c0,1.4-0.4,2.5-1.1,3.3c-0.6,0.6-1.4,0.9-2.3,0.9s-1.7-0.3-2.3-0.9
		c-0.7-0.8-1.1-1.8-1.1-3.3c0-1.4,0.4-2.5,1.1-3.3c0.6-0.6,1.4-0.9,2.3-0.9S112.4,116.4,113,116.9z M108.9,120.2
		c0,2,0.6,2.9,1.8,2.9s1.8-1,1.8-2.9c0-0.6-0.1-1-0.2-1.5s-0.3-0.8-0.6-1.1s-0.6-0.4-1.1-0.4s-0.8,0.1-1.1,0.4
		c-0.3,0.3-0.5,0.7-0.6,1.1C108.9,119.2,108.9,119.7,108.9,120.2z"/>
	<path fill="#FFFFFF" d="M115.7,117c0.1-0.4,0.3-0.6,0.6-0.8c0.7,0.2,1.2,0.6,1.4,1.4c0.4-0.9,1.1-1.4,2.1-1.4c0.3,0,0.5,0,0.8,0.1
		c0,0.6-0.1,1.1-0.4,1.5c-0.1,0-0.3,0-0.6-0.1c-0.7,0-1.3,0.4-1.8,1.2v5.3c-0.2,0-0.4,0.1-0.8,0.1s-0.6,0-0.8-0.1v-5.5
		C116.3,117.9,116.1,117.4,115.7,117z"/>
	<path fill="#FFFFFF" d="M126.3,119.1c0-0.6-0.1-1-0.2-1.2c-0.2-0.2-0.4-0.4-0.8-0.4c-0.6,0-1.2,0.3-1.8,1v5.6
		c-0.2,0-0.4,0.1-0.8,0.1c-0.3,0-0.6,0-0.8-0.1v-7.8l0.1-0.1h0.6c0.5,0,0.8,0.3,0.9,1c0.7-0.7,1.5-1.1,2.3-1.1
		c0.8,0,1.4,0.4,1.8,1.2c0.8-0.8,1.7-1.2,2.6-1.2c0.7,0,1.2,0.2,1.5,0.7c0.3,0.5,0.5,1.1,0.5,1.8v3.9c0,0.6,0.1,1.1,0.3,1.4
		c-0.3,0.2-0.6,0.3-1,0.3c-0.5,0-0.8-0.3-0.8-1v-4.2c0-0.6-0.1-1-0.2-1.2c-0.2-0.2-0.4-0.4-0.8-0.4c-0.6,0-1.2,0.3-1.8,1v5.6
		c-0.2,0-0.4,0.1-0.8,0.1c-0.3,0-0.6,0-0.8-0.1V119.1z"/>
	<path fill="#FFFFFF" d="M140.7,123.5c-0.1,0.4-0.3,0.6-0.6,0.8c-0.6-0.1-1-0.5-1.2-1c-0.8,0.7-1.6,1.1-2.4,1.1
		c-0.8,0-1.4-0.2-1.8-0.7c-0.4-0.5-0.6-1-0.6-1.6c0-0.9,0.3-1.5,0.8-2c0.6-0.4,1.3-0.7,2.2-0.7c0.5,0,1.1,0,1.6,0.1v-0.7
		c0-1-0.4-1.5-1.3-1.5c-0.7,0-1.5,0.2-2.5,0.6c-0.3-0.3-0.4-0.7-0.5-1.2c1.1-0.5,2.2-0.7,3.3-0.7c0.8,0,1.5,0.2,1.9,0.7
		c0.5,0.4,0.7,1.1,0.7,2v3.3C140.3,122.7,140.4,123.2,140.7,123.5z M136.8,123.1c0.7,0,1.4-0.3,2-1v-1.5c-0.4-0.1-0.9-0.1-1.4-0.1
		s-1,0.1-1.2,0.4c-0.3,0.3-0.4,0.6-0.4,1c0,0.4,0.1,0.7,0.3,0.9C136.2,123,136.5,123.1,136.8,123.1z"/>
	<path fill="#FFFFFF" d="M144.9,124.4c-0.9,0-1.6-0.4-2.1-1.1c-0.5-0.7-0.7-1.7-0.7-3s0.3-2.3,0.9-3c0.6-0.7,1.3-1.1,2.1-1.1
		c0.6,0,1.2,0.2,1.9,0.5v-4.2l0.1-0.1h0.6c0.3,0,0.5,0.1,0.7,0.2c0.1,0.2,0.2,0.4,0.2,0.8v8.5c0,0.8,0.1,1.3,0.4,1.6
		c-0.1,0.4-0.3,0.6-0.6,0.8c-0.6-0.1-1-0.5-1.2-1C146.5,124,145.8,124.4,144.9,124.4z M145.2,123.1c0.7,0,1.3-0.4,1.8-1.1v-4
		c-0.6-0.4-1.1-0.6-1.6-0.6s-0.9,0.2-1.2,0.7c-0.3,0.5-0.5,1.2-0.5,2.2s0.1,1.6,0.4,2.1C144.4,122.8,144.7,123.1,145.2,123.1z"/>
	<path fill="#FFFFFF" d="M157.2,123.5c-0.1,0.4-0.3,0.6-0.6,0.8c-0.6-0.1-1-0.5-1.2-1c-0.8,0.7-1.6,1.1-2.4,1.1
		c-0.8,0-1.4-0.2-1.8-0.7c-0.4-0.5-0.6-1-0.6-1.6c0-0.9,0.3-1.5,0.8-2c0.6-0.4,1.3-0.7,2.2-0.7c0.5,0,1.1,0,1.6,0.1v-0.7
		c0-1-0.4-1.5-1.3-1.5c-0.7,0-1.5,0.2-2.5,0.6c-0.3-0.3-0.4-0.7-0.5-1.2c1.1-0.5,2.2-0.7,3.3-0.7c0.8,0,1.5,0.2,1.9,0.7
		c0.5,0.4,0.7,1.1,0.7,2v3.3C156.7,122.7,156.9,123.2,157.2,123.5z M153.2,123.1c0.7,0,1.4-0.3,2-1v-1.5c-0.4-0.1-0.9-0.1-1.4-0.1
		s-1,0.1-1.2,0.4c-0.3,0.3-0.4,0.6-0.4,1c0,0.4,0.1,0.7,0.3,0.9C152.6,123,152.9,123.1,153.2,123.1z"/>
	<path fill="#FFFFFF" d="M166.5,116.1c0.9,0,1.5,0.4,2,1.1c0.5,0.7,0.7,1.8,0.7,3c0,1.3-0.3,2.3-0.9,3c-0.6,0.7-1.3,1.1-2.1,1.1
		c-0.6,0-1.3-0.2-1.9-0.6v2.9c0,0.4-0.1,0.6-0.2,0.8s-0.3,0.2-0.7,0.2h-0.6l-0.1-0.1v-11.2l0.1-0.1h0.5c0.5,0,0.8,0.3,0.9,0.8
		C164.8,116.4,165.6,116.1,166.5,116.1z M166.1,117.4c-0.7,0-1.4,0.4-1.9,1.1v3.9c0.6,0.4,1.1,0.6,1.6,0.6c0.5,0,0.9-0.2,1.2-0.7
		c0.3-0.5,0.5-1.2,0.5-2.2s-0.1-1.6-0.4-2.1C166.9,117.6,166.5,117.4,166.1,117.4z"/>
	<path fill="#FFFFFF" d="M176.4,116.9c0.7,0.8,1.1,1.8,1.1,3.3c0,1.4-0.4,2.5-1.1,3.3c-0.6,0.6-1.4,0.9-2.3,0.9s-1.7-0.3-2.3-0.9
		c-0.7-0.8-1.1-1.8-1.1-3.3c0-1.4,0.4-2.5,1.1-3.3c0.6-0.6,1.4-0.9,2.3-0.9S175.8,116.4,176.4,116.9z M172.2,120.2
		c0,2,0.6,2.9,1.8,2.9s1.8-1,1.8-2.9c0-0.6-0.1-1-0.2-1.5s-0.3-0.8-0.6-1.1s-0.6-0.4-1.1-0.4s-0.8,0.1-1.1,0.4
		c-0.3,0.3-0.5,0.7-0.6,1.1C172.3,119.2,172.2,119.7,172.2,120.2z"/>
	<path fill="#FFFFFF" d="M179.1,117c0.1-0.4,0.3-0.6,0.6-0.8c0.7,0.2,1.2,0.6,1.4,1.4c0.4-0.9,1.1-1.4,2.1-1.4c0.3,0,0.5,0,0.8,0.1
		c0,0.6-0.1,1.1-0.4,1.5c-0.1,0-0.3,0-0.6-0.1c-0.7,0-1.3,0.4-1.8,1.2v5.3c-0.2,0-0.4,0.1-0.8,0.1s-0.6,0-0.8-0.1v-5.5
		C179.7,117.9,179.5,117.4,179.1,117z"/>
	<path fill="#CAD92A" d="M41.4,141.4l0-1.2v-2.3c0-0.2,0-0.5,0-0.9c0-0.5,0.1-0.8,0.1-0.9c-0.6,0.7-1.3,1.2-2.1,1.5
		c-0.2-0.1-0.5-0.3-0.7-0.5c-0.2-0.3-0.3-0.5-0.4-0.8c1.5-0.9,2.5-2,3.1-3.2c0.3-0.1,0.7-0.1,1.1-0.1s0.8,0,1.1,0.1v7.3l0,1.2l1.1,0
		h0.9c0.1,0.3,0.1,0.6,0.1,1c0,0.4,0,0.7-0.1,1h-6.6c-0.1-0.4-0.1-0.7-0.1-1c0-0.3,0-0.6,0.1-1h1.3L41.4,141.4z"/>
	<path fill="#CAD92A" d="M47.1,140.8c-0.1-0.7-0.2-1.6-0.2-2.6c0-1,0.1-1.9,0.2-2.6c0.1-0.7,0.5-1.3,0.9-1.8c0.7-0.7,1.6-1,2.6-1
		c0.6,0,1.1,0.1,1.5,0.3s0.8,0.4,1.1,0.8c0.5,0.5,0.8,1.1,0.9,1.8c0.1,0.7,0.2,1.6,0.2,2.6c0,1-0.1,1.9-0.2,2.6
		c-0.1,0.7-0.5,1.3-0.9,1.8c-0.7,0.7-1.6,1-2.6,1c-1,0-1.9-0.3-2.6-1C47.5,142.1,47.2,141.5,47.1,140.8z M49.6,135.2
		c-0.2,0.4-0.3,1.4-0.3,2.9s0.1,2.5,0.3,2.9s0.5,0.7,1,0.7c0.5,0,0.8-0.2,0.9-0.6c0.2-0.5,0.3-1.5,0.3-3c0-1.5-0.1-2.5-0.3-2.9
		s-0.5-0.7-1-0.7C50.1,134.6,49.8,134.8,49.6,135.2z"/>
	<path fill="#CAD92A" d="M61.7,143.6c-0.9,0-1.6-0.4-2.1-1.1s-0.7-1.8-0.7-3.1s0.3-2.3,0.9-3.1c0.6-0.7,1.4-1.1,2.3-1.1
		c0.5,0,1,0.1,1.5,0.4v-3.9l0.1-0.1h0.9c0.5,0,0.8,0.1,1,0.3c0.2,0.2,0.3,0.6,0.3,1.1v8c0,0.6,0.1,1,0.4,1.2c0,0.2-0.1,0.4-0.3,0.7
		c-0.1,0.2-0.3,0.4-0.5,0.6c-0.7,0-1.3-0.3-1.7-0.9C63.3,143.3,62.6,143.6,61.7,143.6z M62.3,141.7c0.5,0,0.9-0.2,1.2-0.7v-3.6
		c-0.5-0.3-0.8-0.4-1.1-0.4c-0.8,0-1.2,0.8-1.2,2.5c0,0.7,0.1,1.3,0.3,1.6C61.8,141.5,62,141.7,62.3,141.7z"/>
	<path fill="#CAD92A" d="M74.1,140.1h-4.2c0,0.5,0.2,0.9,0.4,1.2c0.2,0.3,0.6,0.4,1.2,0.4s1.2-0.2,2-0.5c0.3,0.3,0.5,0.8,0.7,1.4
		c-0.9,0.6-1.9,0.9-3.1,0.9c-0.7,0-1.2-0.1-1.7-0.3c-0.5-0.2-0.8-0.5-1.1-1c-0.5-0.8-0.7-1.8-0.7-3s0.3-2.2,0.9-3
		c0.6-0.8,1.4-1.2,2.5-1.2s2,0.3,2.6,1s0.9,1.4,0.9,2.4C74.3,139.1,74.2,139.6,74.1,140.1z M71.8,137.3c-0.2-0.3-0.5-0.4-0.8-0.4
		c-0.4,0-0.7,0.1-0.8,0.4c-0.2,0.3-0.3,0.7-0.3,1.2h2.3v-0.2C72.1,137.9,72,137.5,71.8,137.3z"/>
	<path fill="#CAD92A" d="M75.2,142.8c0-0.3,0.1-0.5,0.2-0.9c0.1-0.3,0.3-0.6,0.5-0.7c0.8,0.4,1.6,0.7,2.2,0.7c0.3,0,0.6-0.1,0.7-0.2
		c0.2-0.1,0.3-0.3,0.3-0.4c0-0.3-0.3-0.6-0.8-0.8l-0.9-0.3c-1.3-0.5-2-1.3-2-2.4c0-0.8,0.3-1.4,0.8-1.9s1.3-0.7,2.2-0.7
		c0.5,0,1,0.1,1.5,0.2c0.6,0.1,1,0.3,1.4,0.5c0,0.3-0.1,0.6-0.2,0.9c-0.1,0.3-0.3,0.6-0.5,0.7c-0.9-0.4-1.6-0.6-2.2-0.6
		c-0.2,0-0.4,0.1-0.5,0.2c-0.1,0.1-0.2,0.2-0.2,0.4c0,0.3,0.2,0.5,0.7,0.7l1,0.4c1.4,0.5,2.1,1.4,2.1,2.5c0,0.8-0.3,1.4-0.9,1.9
		c-0.6,0.5-1.4,0.7-2.5,0.7S76.1,143.3,75.2,142.8z"/>
	<path fill="#CAD92A" d="M87.5,135.4c0.1,0.3,0.1,0.6,0.1,0.8s0,0.6-0.1,0.8l-1.9,0v3.8c0,0.5,0.2,0.8,0.7,0.8h0.9
		c0.1,0.4,0.2,0.7,0.2,1s0,0.5-0.1,0.6c-0.8,0.1-1.5,0.2-2.1,0.2c-1.3,0-2-0.7-2-2.1v-4.2l-1.2,0c-0.1-0.2-0.1-0.5-0.1-0.8
		c0-0.3,0-0.6,0.1-0.8l1.2,0v-1c0-0.5,0.1-0.9,0.3-1.1c0.2-0.2,0.5-0.3,1-0.3h0.9l0.1,0.1v2.3L87.5,135.4z"/>
	<path fill="#CAD92A" d="M91.9,137.2v6.2c-0.3,0.1-0.7,0.1-1.2,0.1c-0.5,0-0.9,0-1.2-0.1V138c0-0.6-0.3-0.9-0.8-0.9h-0.2
		c-0.1-0.3-0.1-0.5-0.1-0.8s0-0.6,0.1-0.8c0.5-0.1,1-0.1,1.4-0.1h0.3c0.5,0,0.9,0.2,1.2,0.5C91.7,136.2,91.9,136.6,91.9,137.2z
		 M89,133.1c0-0.3,0.1-0.6,0.2-0.9c0.3-0.2,0.7-0.2,1.2-0.2s0.9,0.1,1.1,0.2c0.1,0.3,0.2,0.6,0.2,0.9s-0.1,0.6-0.2,0.9
		c-0.3,0.2-0.7,0.2-1.2,0.2c-0.5,0-0.9-0.1-1.1-0.2C89.1,133.7,89,133.4,89,133.1z"/>
	<path fill="#CAD92A" d="M100.7,138.1v3.3c0,0.7,0.1,1.2,0.4,1.6c-0.4,0.3-0.9,0.5-1.4,0.5c-0.5,0-0.9-0.1-1.1-0.4s-0.3-0.6-0.3-1.1
		v-3.5c0-0.4-0.1-0.7-0.2-0.9s-0.3-0.3-0.6-0.3c-0.5,0-0.9,0.2-1.3,0.6v5.4c-0.3,0.1-0.7,0.1-1.2,0.1c-0.5,0-0.9,0-1.2-0.1v-8
		l0.1-0.1h0.9c0.7,0,1.1,0.3,1.3,1c0.8-0.7,1.5-1,2.3-1s1.3,0.3,1.7,0.8C100.5,136.5,100.7,137.2,100.7,138.1z"/>
	<path fill="#CAD92A" d="M108.3,136.1c0.8,0.8,1.2,1.9,1.2,3.3s-0.4,2.5-1.2,3.3c-0.6,0.6-1.5,0.9-2.5,0.9c-1,0-1.9-0.3-2.5-0.9
		c-0.8-0.8-1.2-1.9-1.2-3.3s0.4-2.5,1.2-3.3c0.6-0.6,1.5-0.9,2.5-0.9C106.8,135.2,107.7,135.5,108.3,136.1z M104.8,137.6
		c-0.2,0.4-0.2,1-0.2,1.8c0,0.8,0.1,1.4,0.2,1.8c0.2,0.4,0.5,0.6,1,0.6c0.5,0,0.8-0.2,1-0.6c0.2-0.4,0.2-1,0.2-1.8
		c0-0.8-0.1-1.4-0.2-1.8c-0.2-0.4-0.5-0.6-1-0.6C105.3,136.9,105,137.1,104.8,137.6z"/>
	<path fill="#CAD92A" d="M110.3,142.8c0-0.3,0.1-0.5,0.2-0.9c0.1-0.3,0.3-0.6,0.5-0.7c0.8,0.4,1.6,0.7,2.2,0.7
		c0.3,0,0.6-0.1,0.7-0.2c0.2-0.1,0.3-0.3,0.3-0.4c0-0.3-0.3-0.6-0.8-0.8l-0.9-0.3c-1.3-0.5-2-1.3-2-2.4c0-0.8,0.3-1.4,0.8-1.9
		s1.3-0.7,2.2-0.7c0.5,0,1,0.1,1.5,0.2c0.6,0.1,1,0.3,1.4,0.5c0,0.3-0.1,0.6-0.2,0.9c-0.1,0.3-0.3,0.6-0.5,0.7
		c-0.9-0.4-1.6-0.6-2.2-0.6c-0.2,0-0.4,0.1-0.5,0.2c-0.1,0.1-0.2,0.2-0.2,0.4c0,0.3,0.2,0.5,0.7,0.7l1,0.4c1.4,0.5,2.1,1.4,2.1,2.5
		c0,0.8-0.3,1.4-0.9,1.9c-0.6,0.5-1.4,0.7-2.5,0.7S111.3,143.3,110.3,142.8z"/>
	<path fill="#CAD92A" d="M117.1,144.5l5-13.4c0.8,0.1,1.5,0.4,2,0.8l-5,13.4C118.3,145.2,117.6,144.9,117.1,144.5z"/>
	<path fill="#CAD92A" d="M128.8,138.5c0-0.8-0.3-1.2-0.8-1.2c-0.4,0-0.7,0.2-1.2,0.6v5.4c-0.3,0.1-0.7,0.1-1.2,0.1
		c-0.5,0-0.9,0-1.2-0.1v-8l0.1-0.1h0.9c0.7,0,1.1,0.3,1.3,1c0.8-0.7,1.5-1,2.2-1c0.9,0,1.5,0.4,1.9,1.1c0.8-0.7,1.6-1.1,2.4-1.1
		c0.8,0,1.3,0.2,1.7,0.7c0.4,0.5,0.5,1.1,0.5,1.8v3.6c0,0.7,0.1,1.2,0.4,1.6c-0.4,0.3-0.9,0.5-1.4,0.5c-0.5,0-0.9-0.1-1.1-0.4
		c-0.2-0.2-0.3-0.6-0.3-1.1v-3.5c0-0.8-0.3-1.1-0.8-1.1c-0.3,0-0.7,0.2-1.1,0.6v5.4c-0.3,0.1-0.7,0.1-1.2,0.1c-0.4,0-0.8,0-1.2-0.1
		V138.5z"/>
	<path fill="#CAD92A" d="M143.1,136.1c0.8,0.8,1.2,1.9,1.2,3.3s-0.4,2.5-1.2,3.3c-0.6,0.6-1.5,0.9-2.5,0.9c-1,0-1.9-0.3-2.5-0.9
		c-0.8-0.8-1.2-1.9-1.2-3.3s0.4-2.5,1.2-3.3c0.6-0.6,1.5-0.9,2.5-0.9C141.6,135.2,142.5,135.5,143.1,136.1z M139.1,133.8l2.5-2.7
		c0.3,0.1,0.6,0.3,0.9,0.5c0.3,0.3,0.5,0.5,0.6,0.8l-2.9,2.2c-0.2-0.1-0.4-0.2-0.6-0.4C139.3,134.2,139.2,134,139.1,133.8z
		 M139.6,137.6c-0.2,0.4-0.2,1-0.2,1.8c0,0.8,0.1,1.4,0.2,1.8c0.2,0.4,0.5,0.6,1,0.6c0.5,0,0.8-0.2,1-0.6c0.2-0.4,0.2-1,0.2-1.8
		c0-0.8-0.1-1.4-0.2-1.8c-0.2-0.4-0.5-0.6-1-0.6C140.1,136.9,139.8,137.1,139.6,137.6z"/>
	<path fill="#CAD92A" d="M148.1,143.6c-0.9,0-1.6-0.4-2.1-1.1s-0.7-1.8-0.7-3.1s0.3-2.3,0.9-3.1c0.6-0.7,1.4-1.1,2.3-1.1
		c0.5,0,1,0.1,1.5,0.4v-3.9l0.1-0.1h0.9c0.5,0,0.8,0.1,1,0.3c0.2,0.2,0.3,0.6,0.3,1.1v8c0,0.6,0.1,1,0.4,1.2c0,0.2-0.1,0.4-0.3,0.7
		c-0.1,0.2-0.3,0.4-0.5,0.6c-0.7,0-1.3-0.3-1.7-0.9C149.7,143.3,149,143.6,148.1,143.6z M148.8,141.7c0.5,0,0.9-0.2,1.2-0.7v-3.6
		c-0.5-0.3-0.8-0.4-1.1-0.4c-0.8,0-1.2,0.8-1.2,2.5c0,0.7,0.1,1.3,0.3,1.6C148.2,141.5,148.5,141.7,148.8,141.7z"/>
	<path fill="#CAD92A" d="M154.3,140.7v-3.3c0-0.7-0.1-1.2-0.4-1.6c0.4-0.3,0.9-0.5,1.4-0.5s0.9,0.1,1.1,0.4c0.2,0.2,0.3,0.6,0.3,1.1
		v3.5c0,0.4,0.1,0.7,0.2,0.9c0.1,0.2,0.3,0.3,0.6,0.3c0.5,0,0.9-0.2,1.3-0.6v-5.4c0.3-0.1,0.7-0.1,1.2-0.1s0.9,0,1.2,0.1v5.7
		c0,0.6,0.1,1,0.4,1.2c0,0.2-0.1,0.4-0.3,0.7s-0.3,0.4-0.5,0.5c-0.9,0-1.5-0.4-1.8-1.1c-0.8,0.8-1.6,1.1-2.4,1.1
		c-0.8,0-1.3-0.3-1.7-0.8S154.3,141.5,154.3,140.7z"/>
	<path fill="#CAD92A" d="M166.1,141.6h0.5c0.1,0.3,0.2,0.7,0.2,1s0,0.5,0,0.7c-0.6,0.1-1.3,0.2-1.8,0.2s-1-0.2-1.3-0.5
		c-0.3-0.3-0.4-0.9-0.4-1.6v-9.6l0.1-0.1h0.9c0.5,0,0.8,0.1,1,0.3c0.2,0.2,0.3,0.6,0.3,1.1v7.8C165.4,141.4,165.7,141.6,166.1,141.6
		z"/>
	<path fill="#CAD92A" d="M173.8,136.1c0.8,0.8,1.2,1.9,1.2,3.3s-0.4,2.5-1.2,3.3c-0.6,0.6-1.5,0.9-2.5,0.9c-1,0-1.9-0.3-2.5-0.9
		c-0.8-0.8-1.2-1.9-1.2-3.3s0.4-2.5,1.2-3.3c0.6-0.6,1.5-0.9,2.5-0.9C172.3,135.2,173.2,135.5,173.8,136.1z M170.3,137.6
		c-0.2,0.4-0.2,1-0.2,1.8c0,0.8,0.1,1.4,0.2,1.8c0.2,0.4,0.5,0.6,1,0.6c0.5,0,0.8-0.2,1-0.6c0.2-0.4,0.2-1,0.2-1.8
		c0-0.8-0.1-1.4-0.2-1.8c-0.2-0.4-0.5-0.6-1-0.6C170.8,136.9,170.5,137.1,170.3,137.6z"/>
	<path fill="#CAD92A" d="M175.8,142.8c0-0.3,0.1-0.5,0.2-0.9c0.1-0.3,0.3-0.6,0.5-0.7c0.8,0.4,1.6,0.7,2.2,0.7
		c0.3,0,0.6-0.1,0.7-0.2c0.2-0.1,0.3-0.3,0.3-0.4c0-0.3-0.3-0.6-0.8-0.8l-0.9-0.3c-1.3-0.5-2-1.3-2-2.4c0-0.8,0.3-1.4,0.8-1.9
		s1.3-0.7,2.2-0.7c0.5,0,1,0.1,1.5,0.2c0.6,0.1,1,0.3,1.4,0.5c0,0.3-0.1,0.6-0.2,0.9c-0.1,0.3-0.3,0.6-0.5,0.7
		c-0.9-0.4-1.6-0.6-2.2-0.6c-0.2,0-0.4,0.1-0.5,0.2c-0.1,0.1-0.2,0.2-0.2,0.4c0,0.3,0.2,0.5,0.7,0.7l1,0.4c1.4,0.5,2.1,1.4,2.1,2.5
		c0,0.8-0.3,1.4-0.9,1.9c-0.6,0.5-1.4,0.7-2.5,0.7S176.7,143.3,175.8,142.8z"/>
	<path fill="#FFFFFF" d="M183.5,142.5c0-0.3,0-0.6,0.1-0.8c0.2-0.1,0.6-0.2,1-0.2c0.4,0,0.7,0.1,0.9,0.2c0.1,0.2,0.1,0.5,0.1,0.8
		c0,0.3,0,0.6-0.1,0.8c-0.2,0.1-0.5,0.2-0.9,0.2c-0.4,0-0.7-0.1-1-0.2C183.6,143.1,183.5,142.8,183.5,142.5z"/>
</g>
</svg>