<!-- Generator: Adobe Illustrator 17.1.0, SVG Export Plug-In  -->
<svg version="1.1"
	 xmlns="http://www.w3.org/2000/svg" xmlns:xlink="http://www.w3.org/1999/xlink" xmlns:a="http://ns.adobe.com/AdobeSVGViewerExtensions/3.0/"
	 x="0px" y="0px" width="285.5px" height="221px" viewBox="0 0 285.5 221" enable-background="new 0 0 285.5 221"
	 xml:space="preserve">
<defs>
</defs>
<g>
	<path fill="#FFFFFF" d="M15.1,187.4L15.1,187.4c-0.8-0.8-0.7-2.1,0.1-2.8l0,0c0.8-0.8,2.1-0.7,2.8,0.1l0,0c0.8,0.8,0.7,2.1-0.1,2.8
		l0,0c-0.4,0.4-0.9,0.5-1.4,0.5l0,0C16,188.1,15.5,187.8,15.1,187.4z M9.8,180.7L9.8,180.7c-0.6-0.9-0.3-2.2,0.6-2.8l0,0
		c0.9-0.6,2.2-0.3,2.8,0.6l0,0c0,0,0,0,0,0l0,0c0.6,0.9,0.3,2.2-0.6,2.8l0,0c-0.3,0.2-0.7,0.3-1.1,0.3l0,0
		C10.8,181.6,10.2,181.3,9.8,180.7z M5.7,173.2c-0.5-1,0-2.2,1-2.6l0,0c1-0.5,2.2,0,2.6,1l0,0c0.5,1,0,2.2-1,2.6l0,0
		c-0.3,0.1-0.5,0.2-0.8,0.2l0,0C6.8,174.4,6.1,173.9,5.7,173.2z M2.8,165.2c-0.3-1.1,0.3-2.2,1.3-2.5l0,0c1.1-0.3,2.2,0.3,2.5,1.3
		l0,0c0.3,1.1-0.3,2.2-1.3,2.5l0,0c-0.2,0.1-0.4,0.1-0.6,0.1l0,0C3.8,166.7,3,166.1,2.8,165.2z M0.9,157c-0.2-1.1,0.6-2.1,1.6-2.3
		l0,0c1.1-0.2,2.1,0.6,2.3,1.6l0,0c0.2,1.1-0.6,2.1-1.6,2.3l0,0c-0.1,0-0.2,0-0.3,0l0,0C1.9,158.7,1,158,0.9,157z M0,148.6L0,148.6
		c0-1.1,0.8-2,1.9-2.1l0,0c1.1,0,2,0.8,2.1,1.9l0,0l0,0l0,0c0,1.1-0.8,2-1.9,2.1l0,0c0,0,0,0-0.1,0l0,0C0.9,150.5,0,149.6,0,148.6z
		 M2.1,142.3c-1.1-0.1-1.9-1.1-1.8-2.2l0,0c0.1-1.1,1.1-1.9,2.2-1.8l0,0c1.1,0.1,1.9,1.1,1.8,2.2l0,0c-0.1,1-1,1.8-2,1.8l0,0
		C2.2,142.3,2.1,142.3,2.1,142.3z M3.2,134.1c-1.1-0.3-1.7-1.4-1.4-2.4h0c0.3-1.1,1.4-1.7,2.4-1.4l0,0c1.1,0.3,1.7,1.4,1.4,2.4l0,0
		c-0.2,0.9-1.1,1.5-1.9,1.5l0,0C3.6,134.2,3.4,134.2,3.2,134.1z M5.6,126.3c-1-0.5-1.5-1.6-1-2.6l0,0c0.4-1,1.6-1.5,2.6-1l0,0
		c1,0.5,1.5,1.6,1,2.6l0,0c-0.3,0.8-1.1,1.2-1.8,1.2l0,0C6.1,126.4,5.9,126.4,5.6,126.3z M9.2,118.9c-0.9-0.6-1.1-1.9-0.5-2.8l0,0
		c0.6-0.9,1.8-1.2,2.8-0.5l0,0c0.9,0.6,1.2,1.9,0.5,2.8l0,0c-0.4,0.6-1,0.9-1.7,0.9l0,0C10,119.3,9.6,119.1,9.2,118.9z M14.2,112.3
		c-0.8-0.8-0.8-2,0-2.8l0,0c0.8-0.8,2-0.8,2.8,0l0,0c0.8,0.8,0.8,2,0,2.8l0,0c-0.4,0.4-0.9,0.6-1.4,0.6l0,0
		C15.1,112.9,14.5,112.7,14.2,112.3z M20.2,106.8c-0.6-0.9-0.4-2.2,0.5-2.8l0,0c0.9-0.6,2.2-0.4,2.8,0.5l0,0
		c0.6,0.9,0.4,2.2-0.5,2.8l0,0c-0.4,0.3-0.8,0.4-1.2,0.4l0,0C21.2,107.6,20.6,107.3,20.2,106.8z M27.1,102.3c-0.5-1-0.1-2.2,0.9-2.7
		l0,0c1-0.5,2.2-0.1,2.7,0.9l0,0c0.5,1,0.1,2.2-0.9,2.7l0,0c-0.3,0.1-0.6,0.2-0.9,0.2l0,0C28.1,103.4,27.4,103,27.1,102.3z M34.6,99
		c-0.4-1.1,0.2-2.2,1.3-2.5l0,0c1.1-0.3,2.2,0.2,2.5,1.3l0,0c0.3,1.1-0.2,2.2-1.3,2.5l0,0c-0.2,0.1-0.4,0.1-0.6,0.1l0,0
		C35.6,100.3,34.8,99.8,34.6,99z M42.5,96.7c-0.2-1.1,0.5-2.1,1.6-2.4l0,0c1.1-0.2,2.1,0.5,2.4,1.6l0,0c0.2,1.1-0.5,2.1-1.6,2.4l0,0
		c-0.1,0-0.3,0-0.4,0l0,0C43.5,98.3,42.6,97.6,42.5,96.7z M50.5,95.3c-0.1-1.1,0.7-2.1,1.8-2.2l0,0c1.1-0.1,2.1,0.7,2.2,1.8l0,0
		c0.1,1.1-0.7,2.1-1.8,2.2l0,0c-0.1,0-0.1,0-0.2,0l0,0C51.5,97.1,50.7,96.3,50.5,95.3z M68.8,96.8L68.8,96.8L68.8,96.8
		c-1.1-0.1-2-1-1.9-2.1l0,0c0.1-1.1,1-1.9,2.1-1.9l0,0c1.1,0.1,2,1,1.9,2.1l0,0c-0.1,1.1-0.9,1.9-2,1.9l0,0
		C68.9,96.8,68.9,96.8,68.8,96.8z M58.7,94.7c0-1.1,0.9-2,2-2l0,0c1.1,0,2,0.9,2,2l0,0c0,1.1-0.9,2-2,2l0,0c0,0,0,0,0,0l0,0
		C59.6,96.7,58.8,95.8,58.7,94.7z"/>
</g>
<g>
	<radialGradient id="SVGID_1_" cx="17.483" cy="185.9639" r="9.2077" gradientUnits="userSpaceOnUse">
		<stop  offset="0" style="stop-color:#008A93"/>
		<stop  offset="0.2693" style="stop-color:#008691"/>
		<stop  offset="0.5233" style="stop-color:#007B8D"/>
		<stop  offset="0.7704" style="stop-color:#006885"/>
		<stop  offset="1" style="stop-color:#004F7A"/>
	</radialGradient>
	<path fill="url(#SVGID_1_)" d="M26.2,186.9c0,4.8-3.9,8.7-8.7,8.7s-8.7-3.9-8.7-8.7s3.9-10.6,8.7-10.6S26.2,182.1,26.2,186.9z"/>
	<path fill="#043A63" d="M10.8,180.5c0,0,2.4,3.6,6.7,3.2c4.3-0.3,6-3.1,6.2-3.9c0,0-1.6-0.8-2.6-0.9C20,178.9,13,176.7,10.8,180.5z
		"/>
	<radialGradient id="SVGID_2_" cx="17.483" cy="175.8833" r="7.1662" gradientUnits="userSpaceOnUse">
		<stop  offset="0" style="stop-color:#008A93"/>
		<stop  offset="0.2693" style="stop-color:#008691"/>
		<stop  offset="0.5233" style="stop-color:#007B8D"/>
		<stop  offset="0.7704" style="stop-color:#006885"/>
		<stop  offset="1" style="stop-color:#004F7A"/>
	</radialGradient>
	<circle fill="url(#SVGID_2_)" cx="17.5" cy="175.9" r="7.2"/>
	<polygon fill="#CAD92A" points="16.6,184 15.8,185.1 17,186.6 15.8,190.3 17.5,192.5 18.8,190.3 17.9,186.6 18.8,185 18.2,184 	"/>
</g>
<path fill="#E6A84C" stroke="#FFFFFF" stroke-width="2" stroke-miterlimit="10" d="M175,216.5c-58.5,0-106-47.5-106-106
	s47.5-106,106-106c58.5,0,106,47.5,106,106S233.5,216.5,175,216.5"/>
<circle fill="none" stroke="#FFFFFF" stroke-width="9" stroke-miterlimit="10" cx="175" cy="110.5" r="106"/>
<g>
	<path fill="#043A63" d="M110.8,61.6l-0.7,0h-1.9l-0.7,0l-0.7,2.2c-0.2,0-0.5,0.1-0.8,0.1c-0.3,0-0.6,0-0.8-0.1l-0.1-0.1l3.1-9.4
		c0.3,0,0.7-0.1,1.1-0.1s0.7,0,1,0.1l3.1,9.4c-0.3,0.1-0.6,0.2-0.9,0.2c-0.3,0-0.6-0.1-0.8-0.2c-0.2-0.1-0.3-0.4-0.4-0.7L110.8,61.6
		z M107.9,60.2l0.7,0h1.2c0,0,0.1,0,0.3,0s0.3,0,0.3,0l-0.5-1.6c-0.3-0.8-0.5-1.7-0.8-2.7h-0.1c-0.1,0.6-0.3,1.3-0.6,2.3L107.9,60.2
		z"/>
	<path fill="#043A63" d="M116.5,58.2v5.6c-0.3,0-0.5,0.1-0.9,0.1c-0.3,0-0.6,0-0.9-0.1v-4.9c0-0.5-0.2-0.8-0.6-0.8H114
		c0-0.2-0.1-0.4-0.1-0.6c0-0.2,0-0.5,0.1-0.6c0.3,0,0.7-0.1,1-0.1h0.2c0.4,0,0.7,0.1,0.9,0.4S116.5,57.8,116.5,58.2z M114.5,55.6
		c-0.1-0.2-0.1-0.4-0.1-0.7c0-0.2,0-0.5,0.1-0.7c0.2-0.1,0.5-0.2,0.9-0.2s0.6,0.1,0.9,0.2c0.1,0.2,0.1,0.4,0.1,0.7
		c0,0.2,0,0.5-0.1,0.7c-0.2,0.1-0.5,0.2-0.9,0.2S114.7,55.7,114.5,55.6z"/>
	<path fill="#043A63" d="M124.2,59.1v3.1c0,0.6,0.1,1,0.3,1.3c-0.3,0.2-0.7,0.4-1,0.4s-0.6-0.1-0.8-0.3c-0.1-0.2-0.2-0.5-0.2-0.8
		v-3.3c0-0.4-0.1-0.7-0.2-0.9c-0.1-0.2-0.3-0.3-0.6-0.3c-0.5,0-1,0.2-1.5,0.7v4.8c-0.3,0-0.5,0.1-0.9,0.1s-0.6,0-0.9-0.1v-6.9
		l0.1-0.1h0.6c0.5,0,0.8,0.3,1,0.8c0.7-0.6,1.4-0.9,2-0.9s1.2,0.2,1.5,0.7C124.1,57.8,124.2,58.4,124.2,59.1z"/>
	<path fill="#043A63" d="M128.2,64c-0.8,0-1.4-0.3-1.8-1c-0.4-0.6-0.6-1.5-0.6-2.7c0-1.1,0.3-2,0.8-2.7c0.5-0.6,1.2-1,1.9-1
		c0.5,0,1,0.1,1.5,0.4v-3.5l0.1-0.1h0.7c0.3,0,0.6,0.1,0.7,0.2c0.1,0.2,0.2,0.4,0.2,0.8v7.2c0,0.6,0.1,1,0.4,1.2
		c0,0.2-0.1,0.3-0.2,0.5c-0.1,0.2-0.2,0.3-0.4,0.4c-0.6-0.1-1-0.4-1.2-0.8C129.6,63.7,128.9,64,128.2,64z M128.6,62.6
		c0.5,0,1-0.3,1.3-0.8v-3.3c-0.5-0.3-0.9-0.4-1.2-0.4s-0.6,0.2-0.9,0.6c-0.2,0.4-0.3,1-0.3,1.7s0.1,1.3,0.3,1.6
		S128.3,62.6,128.6,62.6z"/>
	<path fill="#043A63" d="M139.2,63c0,0.2-0.1,0.3-0.2,0.5c-0.1,0.2-0.2,0.3-0.4,0.4c-0.6-0.1-1-0.3-1.3-0.8c-0.6,0.6-1.3,0.9-2,0.9
		s-1.3-0.2-1.6-0.6s-0.5-0.9-0.5-1.5c0-0.8,0.3-1.4,0.8-1.8s1.2-0.6,2-0.6c0.4,0,0.8,0,1.2,0.1v-0.4c0-0.7-0.4-1.1-1.1-1.1
		c-0.5,0-1.2,0.2-2.1,0.5c-0.3-0.3-0.4-0.7-0.5-1.2c1-0.4,2-0.6,3-0.6c0.7,0,1.3,0.2,1.7,0.6c0.4,0.4,0.7,1,0.7,1.8v2.9
		C138.8,62.4,138.9,62.8,139.2,63z M135.7,62.7c0.5,0,1-0.2,1.4-0.7v-1.2c-0.3,0-0.7-0.1-1.1-0.1c-0.4,0-0.7,0.1-0.9,0.3
		c-0.2,0.2-0.3,0.4-0.3,0.7c0,0.3,0.1,0.5,0.2,0.7S135.4,62.7,135.7,62.7z"/>
	<path fill="#043A63" d="M149.5,59.1v3.1c0,0.6,0.1,1,0.3,1.3c-0.3,0.2-0.7,0.4-1,0.4s-0.6-0.1-0.8-0.3c-0.1-0.2-0.2-0.5-0.2-0.8
		v-3.3c0-0.4-0.1-0.7-0.2-0.9c-0.1-0.2-0.3-0.3-0.6-0.3c-0.5,0-1,0.2-1.5,0.7v4.8c-0.3,0-0.5,0.1-0.9,0.1s-0.6,0-0.9-0.1v-6.9
		l0.1-0.1h0.6c0.5,0,0.8,0.3,1,0.8c0.7-0.6,1.4-0.9,2-0.9s1.2,0.2,1.5,0.7C149.4,57.8,149.5,58.4,149.5,59.1z"/>
	<path fill="#043A63" d="M157.2,60.3c0,1.3-0.3,2.2-1,2.9c-0.5,0.5-1.2,0.8-2.1,0.8c-0.9,0-1.6-0.3-2.1-0.8c-0.7-0.7-1-1.6-1-2.9
		s0.3-2.2,1-2.9c0.5-0.5,1.2-0.8,2.1-0.8c0.9,0,1.6,0.3,2.1,0.8C156.9,58.1,157.2,59.1,157.2,60.3z M154.1,58
		c-0.9,0-1.3,0.8-1.3,2.4c0,1.6,0.4,2.4,1.3,2.4c0.9,0,1.3-0.8,1.3-2.4C155.4,58.8,155,58,154.1,58z"/>
	<path fill="#043A63" d="M165.4,56.7c0.8,0,1.3,0.3,1.8,1s0.6,1.5,0.6,2.7c0,1.1-0.3,2-0.8,2.7c-0.5,0.6-1.2,1-1.9,1
		c-0.5,0-1-0.1-1.5-0.4v2.2c0,0.4-0.1,0.7-0.2,0.8c-0.1,0.2-0.4,0.2-0.7,0.2h-0.7l-0.1-0.1v-9.9l0.1-0.1h0.5c0.5,0,0.8,0.2,1,0.7
		C164,56.9,164.6,56.7,165.4,56.7z M164.9,58.1c-0.5,0-1,0.3-1.3,0.8v3.3c0.4,0.3,0.9,0.4,1.2,0.4c0.4,0,0.7-0.2,0.9-0.6
		c0.2-0.4,0.3-1,0.3-1.7s-0.1-1.3-0.3-1.6S165.2,58.1,164.9,58.1z"/>
	<path fill="#043A63" d="M171.3,58.2v5.6c-0.3,0-0.5,0.1-0.9,0.1c-0.3,0-0.6,0-0.9-0.1v-4.9c0-0.5-0.2-0.8-0.6-0.8h-0.2
		c0-0.2-0.1-0.4-0.1-0.6c0-0.2,0-0.5,0.1-0.6c0.3,0,0.7-0.1,1-0.1h0.2c0.4,0,0.7,0.1,0.9,0.4S171.3,57.8,171.3,58.2z M169.2,55.6
		c-0.1-0.2-0.1-0.4-0.1-0.7c0-0.2,0-0.5,0.1-0.7c0.2-0.1,0.5-0.2,0.9-0.2s0.6,0.1,0.9,0.2c0.1,0.2,0.1,0.4,0.1,0.7
		c0,0.2,0,0.5-0.1,0.7c-0.2,0.1-0.5,0.2-0.9,0.2S169.4,55.7,169.2,55.6z"/>
	<path fill="#043A63" d="M175.5,62.5h0.5c0.1,0.3,0.1,0.5,0.1,0.7s0,0.4,0,0.5c-0.5,0.1-1,0.1-1.3,0.1c-1,0-1.5-0.5-1.5-1.6v-8.6
		l0.1-0.1h0.7c0.3,0,0.6,0.1,0.7,0.2c0.1,0.2,0.2,0.4,0.2,0.8v7.3C174.9,62.3,175.1,62.5,175.5,62.5z"/>
	<path fill="#043A63" d="M183.1,63c0,0.2-0.1,0.3-0.2,0.5c-0.1,0.2-0.2,0.3-0.4,0.4c-0.6-0.1-1-0.3-1.3-0.8c-0.6,0.6-1.3,0.9-2,0.9
		s-1.3-0.2-1.6-0.6s-0.5-0.9-0.5-1.5c0-0.8,0.3-1.4,0.8-1.8s1.2-0.6,2-0.6c0.4,0,0.8,0,1.2,0.1v-0.4c0-0.7-0.4-1.1-1.1-1.1
		c-0.5,0-1.2,0.2-2.1,0.5c-0.3-0.3-0.4-0.7-0.5-1.2c1-0.4,2-0.6,3-0.6c0.7,0,1.3,0.2,1.7,0.6c0.4,0.4,0.7,1,0.7,1.8v2.9
		C182.7,62.4,182.8,62.8,183.1,63z M179.5,62.7c0.5,0,1-0.2,1.4-0.7v-1.2c-0.3,0-0.7-0.1-1.1-0.1c-0.4,0-0.7,0.1-0.9,0.3
		c-0.2,0.2-0.3,0.4-0.3,0.7c0,0.3,0.1,0.5,0.2,0.7S179.3,62.7,179.5,62.7z"/>
	<path fill="#043A63" d="M184.2,57.7c0-0.2,0.1-0.3,0.2-0.5c0.1-0.2,0.2-0.3,0.4-0.4c0.7,0.1,1.2,0.5,1.5,1.2c0.4-0.8,1-1.2,1.8-1.2
		c0.2,0,0.5,0,0.8,0.1c0,0.6-0.1,1.1-0.4,1.6c-0.1,0-0.3-0.1-0.6-0.1c-0.6,0-1,0.3-1.4,0.9v4.5c-0.3,0-0.5,0.1-0.9,0.1
		c-0.3,0-0.6,0-0.9-0.1v-4.7C184.7,58.4,184.5,58,184.2,57.7z"/>
	<path fill="#043A63" d="M198.3,57.7c0,0,0-0.1,0-0.1c0-0.6-0.1-1.1-0.4-1.5c-0.3-0.4-0.7-0.6-1.4-0.6c-1.3,0-2,1.2-2,3.6
		c0,1.1,0.2,1.9,0.6,2.5c0.4,0.6,0.9,0.9,1.6,0.9s1.5-0.3,2.4-1c0.2,0.1,0.4,0.3,0.5,0.5c0.2,0.2,0.3,0.4,0.3,0.6
		c-0.4,0.4-1,0.8-1.6,1c-0.6,0.3-1.3,0.4-2,0.4c-0.7,0-1.3-0.1-1.8-0.4c-0.5-0.3-0.9-0.7-1.2-1.1c-0.5-0.9-0.8-2-0.8-3.4
		c0-1.7,0.4-2.9,1.1-3.7c0.7-0.8,1.7-1.3,2.7-1.3s1.9,0.3,2.6,0.8c0.6,0.5,1,1.2,1,2c0,0.7-0.3,1-1,1
		C198.7,57.8,198.5,57.8,198.3,57.7z"/>
	<path fill="#043A63" d="M201.3,61.6v-3.1c0-0.6-0.1-1-0.3-1.3c0.3-0.3,0.6-0.4,1-0.4s0.7,0.1,0.8,0.3c0.1,0.2,0.2,0.5,0.2,0.8v3.3
		c0,0.4,0.1,0.7,0.2,0.9c0.1,0.2,0.3,0.3,0.6,0.3c0.5,0,1-0.2,1.5-0.7v-4.8c0.3,0,0.6-0.1,0.9-0.1s0.6,0,0.9,0.1v5
		c0,0.6,0.1,1,0.4,1.2c-0.1,0.4-0.3,0.7-0.6,0.9c-0.7-0.1-1.1-0.4-1.4-1c-0.7,0.7-1.5,1-2.3,1c-0.6,0-1.1-0.2-1.4-0.7
		C201.5,62.8,201.3,62.3,201.3,61.6z"/>
	<path fill="#043A63" d="M211.3,62.5h0.5c0.1,0.3,0.1,0.5,0.1,0.7s0,0.4,0,0.5c-0.5,0.1-1,0.1-1.3,0.1c-1,0-1.5-0.5-1.5-1.6v-8.6
		l0.1-0.1h0.7c0.3,0,0.6,0.1,0.7,0.2c0.1,0.2,0.2,0.4,0.2,0.8v7.3C210.7,62.3,210.9,62.5,211.3,62.5z"/>
	<path fill="#043A63" d="M216.7,56.9c0,0.2,0.1,0.4,0.1,0.6c0,0.2,0,0.4-0.1,0.6l-1.7,0v3.8c0,0.4,0.2,0.6,0.6,0.6h0.9
		c0.1,0.3,0.1,0.5,0.1,0.7s0,0.4,0,0.5c-0.6,0.1-1.1,0.1-1.7,0.1c-1.1,0-1.6-0.5-1.6-1.6v-4.1l-1,0c0-0.2-0.1-0.4-0.1-0.6
		c0-0.2,0-0.5,0.1-0.6l1,0v-1.1c0-0.4,0.1-0.7,0.2-0.8c0.1-0.2,0.4-0.2,0.7-0.2h0.7l0.1,0.1v2L216.7,56.9z"/>
	<path fill="#043A63" d="M218.1,61.6v-3.1c0-0.6-0.1-1-0.3-1.3c0.3-0.3,0.6-0.4,1-0.4s0.7,0.1,0.8,0.3c0.1,0.2,0.2,0.5,0.2,0.8v3.3
		c0,0.4,0.1,0.7,0.2,0.9c0.1,0.2,0.3,0.3,0.6,0.3c0.5,0,1-0.2,1.5-0.7v-4.8c0.3,0,0.6-0.1,0.9-0.1s0.6,0,0.9,0.1v5
		c0,0.6,0.1,1,0.4,1.2c-0.1,0.4-0.3,0.7-0.6,0.9c-0.7-0.1-1.1-0.4-1.4-1c-0.7,0.7-1.5,1-2.3,1c-0.6,0-1.1-0.2-1.4-0.7
		C218.2,62.8,218.1,62.3,218.1,61.6z"/>
	<path fill="#043A63" d="M225.4,57.7c0-0.2,0.1-0.3,0.2-0.5c0.1-0.2,0.2-0.3,0.4-0.4c0.7,0.1,1.2,0.5,1.5,1.2c0.4-0.8,1-1.2,1.8-1.2
		c0.2,0,0.5,0,0.8,0.1c0,0.6-0.1,1.1-0.4,1.6c-0.1,0-0.3-0.1-0.6-0.1c-0.6,0-1,0.3-1.4,0.9v4.5c-0.3,0-0.5,0.1-0.9,0.1
		c-0.3,0-0.6,0-0.9-0.1v-4.7C225.9,58.4,225.7,58,225.4,57.7z"/>
	<path fill="#043A63" d="M236.6,63c0,0.2-0.1,0.3-0.2,0.5c-0.1,0.2-0.2,0.3-0.4,0.4c-0.6-0.1-1-0.3-1.3-0.8c-0.6,0.6-1.3,0.9-2,0.9
		s-1.3-0.2-1.6-0.6s-0.5-0.9-0.5-1.5c0-0.8,0.3-1.4,0.8-1.8s1.2-0.6,2-0.6c0.4,0,0.8,0,1.2,0.1v-0.4c0-0.7-0.4-1.1-1.1-1.1
		c-0.5,0-1.2,0.2-2.1,0.5c-0.3-0.3-0.4-0.7-0.5-1.2c1-0.4,2-0.6,3-0.6c0.7,0,1.3,0.2,1.7,0.6c0.4,0.4,0.7,1,0.7,1.8v2.9
		C236.2,62.4,236.3,62.8,236.6,63z M233,62.7c0.5,0,1-0.2,1.4-0.7v-1.2c-0.3,0-0.7-0.1-1.1-0.1c-0.4,0-0.7,0.1-0.9,0.3
		c-0.2,0.2-0.3,0.4-0.3,0.7c0,0.3,0.1,0.5,0.2,0.7S232.8,62.7,233,62.7z"/>
	<path fill="#043A63" d="M240,62.2c0.1,0.3,0.2,0.6,0.2,1c0,0.6-0.2,1.2-0.6,1.8c-0.4,0.5-0.9,0.9-1.7,1.2c-0.1-0.1-0.3-0.2-0.3-0.3
		c-0.1-0.1-0.1-0.3-0.1-0.3s0-0.1,0-0.2c0.3-0.1,0.6-0.3,0.8-0.6c0.2-0.2,0.3-0.5,0.4-0.8c-0.3,0-0.4-0.1-0.6-0.2
		c-0.1-0.2-0.1-0.5-0.1-0.8s0-0.6,0.1-0.7c0.3-0.1,0.6-0.2,1-0.2C239.5,62,239.8,62.1,240,62.2z"/>
	<path fill="#043A63" d="M106.7,80.1c0-0.2,0.1-0.4,0.2-0.6c0.1-0.2,0.2-0.4,0.4-0.6c0.7,0.4,1.4,0.6,2,0.6c0.3,0,0.6-0.1,0.8-0.2
		c0.2-0.1,0.3-0.3,0.3-0.5c0-0.4-0.3-0.6-0.8-0.8l-0.8-0.3c-1.2-0.4-1.8-1.1-1.8-2c0-0.7,0.2-1.2,0.7-1.6c0.5-0.4,1.1-0.6,1.9-0.6
		s1.6,0.2,2.4,0.5c0,0.2,0,0.4-0.1,0.7c-0.1,0.2-0.2,0.4-0.4,0.5c-0.7-0.3-1.3-0.5-1.9-0.5c-0.3,0-0.5,0.1-0.6,0.2
		c-0.2,0.1-0.2,0.3-0.2,0.5c0,0.3,0.2,0.5,0.7,0.7l0.9,0.3c1.2,0.4,1.8,1.2,1.8,2.2c0,0.7-0.2,1.2-0.7,1.6c-0.5,0.4-1.2,0.6-2.1,0.6
		S107.5,80.6,106.7,80.1z"/>
	<path fill="#043A63" d="M118.7,77.7h-3.9c0,0.6,0.2,1,0.4,1.3c0.2,0.3,0.6,0.5,1.2,0.5s1.2-0.2,1.8-0.5c0.3,0.3,0.4,0.6,0.5,1.1
		c-0.7,0.5-1.6,0.8-2.7,0.8s-1.8-0.3-2.3-1c-0.5-0.7-0.7-1.6-0.7-2.6c0-1.1,0.3-2,0.8-2.6c0.5-0.7,1.2-1,2.2-1
		c0.9,0,1.7,0.3,2.2,0.8s0.8,1.3,0.8,2.1C118.9,76.9,118.8,77.3,118.7,77.7z M116,74.7c-0.8,0-1.2,0.6-1.2,1.7h2.4v-0.2
		c0-0.5-0.1-0.8-0.3-1.1C116.7,74.9,116.4,74.7,116,74.7z"/>
	<path fill="#043A63" d="M120.7,79.8c-0.4-0.6-0.6-1.5-0.6-2.7s0.3-2,0.8-2.7c0.5-0.6,1.2-1,1.9-1c0.7,0,1.4,0.2,1.9,0.7
		c0.3-0.3,0.6-0.5,1.1-0.6c0.1,0.1,0.3,0.2,0.4,0.4c0.1,0.2,0.2,0.3,0.2,0.5c-0.3,0.2-0.4,0.6-0.4,1.2v4c0,1.5-0.2,2.5-0.7,3.2
		s-1.3,0.9-2.4,0.9c-0.9,0-1.7-0.2-2.5-0.5c0-0.5,0.1-0.9,0.4-1.3c0.6,0.3,1.3,0.4,1.9,0.4s1-0.2,1.3-0.5c0.2-0.3,0.4-0.7,0.4-1.3
		v-0.6c-0.5,0.4-1.1,0.7-1.8,0.7C121.7,80.7,121.1,80.4,120.7,79.8z M124.3,78.6v-3.2c-0.4-0.4-0.8-0.6-1.2-0.6
		c-0.4,0-0.7,0.2-0.9,0.6c-0.2,0.4-0.3,1-0.3,1.7c0,0.7,0.1,1.3,0.3,1.7c0.2,0.4,0.5,0.5,0.8,0.5C123.4,79.3,123.9,79.1,124.3,78.6z
		"/>
	<path fill="#043A63" d="M127.9,78.4v-3.1c0-0.6-0.1-1-0.3-1.3c0.3-0.3,0.6-0.4,1-0.4s0.7,0.1,0.8,0.3c0.1,0.2,0.2,0.5,0.2,0.8V78
		c0,0.4,0.1,0.7,0.2,0.9c0.1,0.2,0.3,0.3,0.6,0.3c0.5,0,1-0.2,1.5-0.7v-4.8c0.3,0,0.6-0.1,0.9-0.1s0.6,0,0.9,0.1v5
		c0,0.6,0.1,1,0.4,1.2c-0.1,0.4-0.3,0.7-0.6,0.9c-0.7-0.1-1.1-0.4-1.4-1c-0.7,0.7-1.5,1-2.3,1c-0.6,0-1.1-0.2-1.4-0.7
		C128,79.6,127.9,79.1,127.9,78.4z"/>
	<path fill="#043A63" d="M137.5,75v5.6c-0.3,0-0.5,0.1-0.9,0.1c-0.3,0-0.6,0-0.9-0.1v-4.9c0-0.5-0.2-0.8-0.6-0.8H135
		c0-0.2-0.1-0.4-0.1-0.6c0-0.2,0-0.5,0.1-0.6c0.3,0,0.7-0.1,1-0.1h0.2c0.4,0,0.7,0.1,0.9,0.4S137.5,74.6,137.5,75z M135.5,72.4
		c-0.1-0.2-0.1-0.4-0.1-0.7c0-0.2,0-0.5,0.1-0.7c0.2-0.1,0.5-0.2,0.9-0.2s0.6,0.1,0.9,0.2c0.1,0.2,0.1,0.4,0.1,0.7
		c0,0.2,0,0.5-0.1,0.7c-0.2,0.1-0.5,0.2-0.9,0.2S135.7,72.5,135.5,72.4z"/>
	<path fill="#043A63" d="M143.3,76.3c0-0.8-0.3-1.2-0.8-1.2c-0.4,0-0.8,0.2-1.3,0.7v4.8c-0.3,0-0.5,0.1-0.9,0.1s-0.6,0-0.9-0.1v-6.9
		l0.1-0.1h0.6c0.5,0,0.9,0.3,1,0.9c0.6-0.6,1.3-0.9,2-0.9c0.7,0,1.2,0.3,1.5,1c0.7-0.7,1.5-1,2.2-1c0.6,0,1,0.2,1.4,0.6
		c0.3,0.4,0.5,0.9,0.5,1.6V79c0,0.6,0.1,1,0.3,1.3c-0.3,0.2-0.6,0.4-1,0.4c-0.4,0-0.7-0.1-0.8-0.3S147,80,147,79.6v-3.3
		c0-0.8-0.3-1.2-0.8-1.2c-0.4,0-0.8,0.2-1.3,0.7v4.8c-0.3,0-0.5,0.1-0.9,0.1c-0.3,0-0.6,0-0.9-0.1V76.3z"/>
	<path fill="#043A63" d="M156.5,77.1c0,1.3-0.3,2.2-1,2.9c-0.5,0.5-1.2,0.8-2.1,0.8c-0.9,0-1.6-0.3-2.1-0.8c-0.7-0.7-1-1.6-1-2.9
		s0.3-2.2,1-2.9c0.5-0.5,1.2-0.8,2.1-0.8c0.9,0,1.6,0.3,2.1,0.8C156.1,74.9,156.5,75.9,156.5,77.1z M153.4,74.8
		c-0.9,0-1.3,0.8-1.3,2.4c0,1.6,0.4,2.4,1.3,2.4c0.9,0,1.3-0.8,1.3-2.4C154.7,75.6,154.2,74.8,153.4,74.8z"/>
	<path fill="#043A63" d="M157.4,80.1c0-0.2,0.1-0.4,0.2-0.6c0.1-0.2,0.2-0.4,0.4-0.6c0.7,0.4,1.4,0.6,2,0.6c0.3,0,0.6-0.1,0.8-0.2
		c0.2-0.1,0.3-0.3,0.3-0.5c0-0.4-0.3-0.6-0.8-0.8l-0.8-0.3c-1.2-0.4-1.8-1.1-1.8-2c0-0.7,0.2-1.2,0.7-1.6c0.5-0.4,1.1-0.6,1.9-0.6
		s1.6,0.2,2.4,0.5c0,0.2,0,0.4-0.1,0.7c-0.1,0.2-0.2,0.4-0.4,0.5c-0.7-0.3-1.3-0.5-1.9-0.5c-0.3,0-0.5,0.1-0.6,0.2
		c-0.2,0.1-0.2,0.3-0.2,0.5c0,0.3,0.2,0.5,0.7,0.7l0.9,0.3c1.2,0.4,1.8,1.2,1.8,2.2c0,0.7-0.2,1.2-0.7,1.6c-0.5,0.4-1.2,0.6-2.1,0.6
		S158.2,80.6,157.4,80.1z"/>
	<path fill="#043A63" d="M170.8,73.5c0.8,0,1.3,0.3,1.8,1s0.6,1.5,0.6,2.7c0,1.1-0.3,2-0.8,2.7c-0.5,0.6-1.2,1-1.9,1
		c-0.5,0-1-0.1-1.5-0.4v2.2c0,0.4-0.1,0.7-0.2,0.8c-0.1,0.2-0.4,0.2-0.7,0.2h-0.7l-0.1-0.1v-9.9l0.1-0.1h0.5c0.5,0,0.8,0.2,1,0.7
		C169.4,73.7,170,73.5,170.8,73.5z M170.3,74.9c-0.5,0-1,0.3-1.3,0.8V79c0.4,0.3,0.9,0.4,1.2,0.4c0.4,0,0.7-0.2,0.9-0.6
		c0.2-0.4,0.3-1,0.3-1.7s-0.1-1.3-0.3-1.6S170.6,74.9,170.3,74.9z"/>
	<path fill="#043A63" d="M180.5,77.1c0,1.3-0.3,2.2-1,2.9c-0.5,0.5-1.2,0.8-2.1,0.8c-0.9,0-1.6-0.3-2.1-0.8c-0.7-0.7-1-1.6-1-2.9
		s0.3-2.2,1-2.9c0.5-0.5,1.2-0.8,2.1-0.8c0.9,0,1.6,0.3,2.1,0.8C180.1,74.9,180.5,75.9,180.5,77.1z M177.4,74.8
		c-0.9,0-1.3,0.8-1.3,2.4c0,1.6,0.4,2.4,1.3,2.4c0.9,0,1.3-0.8,1.3-2.4C178.7,75.6,178.2,74.8,177.4,74.8z"/>
	<path fill="#043A63" d="M181.6,74.5c0-0.2,0.1-0.3,0.2-0.5c0.1-0.2,0.2-0.3,0.4-0.4c0.7,0.1,1.2,0.5,1.5,1.2c0.4-0.8,1-1.2,1.8-1.2
		c0.2,0,0.5,0,0.8,0.1c0,0.6-0.1,1.1-0.4,1.6c-0.1,0-0.3-0.1-0.6-0.1c-0.6,0-1,0.3-1.4,0.9v4.5c-0.3,0-0.5,0.1-0.9,0.1
		c-0.3,0-0.6,0-0.9-0.1v-4.7C182.1,75.2,181.9,74.8,181.6,74.5z"/>
	<path fill="#043A63" d="M189.7,79.8c0.1-0.6,0.3-1,0.7-1.3c1,0.6,1.9,0.9,2.8,0.9c0.5,0,0.9-0.1,1.1-0.3s0.4-0.5,0.4-0.8
		c0-0.6-0.4-1-1.1-1.3l-1.7-0.7c-1.3-0.6-1.9-1.4-1.9-2.5c0-0.8,0.3-1.5,0.9-2s1.4-0.8,2.4-0.8s2,0.3,3,0.8c0,0.6-0.2,1-0.6,1.4
		c-0.9-0.4-1.7-0.7-2.5-0.7c-0.5,0-0.8,0.1-1.1,0.3c-0.3,0.2-0.4,0.5-0.4,0.8c0,0.5,0.3,0.8,1,1.1l1.7,0.7c1.4,0.6,2.1,1.5,2.1,2.7
		c0,0.9-0.3,1.6-0.9,2.1c-0.6,0.5-1.5,0.8-2.7,0.8C191.9,80.8,190.8,80.5,189.7,79.8z"/>
	<path fill="#043A63" d="M200.1,75v5.6c-0.3,0-0.5,0.1-0.9,0.1c-0.3,0-0.6,0-0.9-0.1v-4.9c0-0.5-0.2-0.8-0.6-0.8h-0.2
		c0-0.2-0.1-0.4-0.1-0.6c0-0.2,0-0.5,0.1-0.6c0.3,0,0.7-0.1,1-0.1h0.2c0.4,0,0.7,0.1,0.9,0.4S200.1,74.6,200.1,75z M198.1,72.4
		c-0.1-0.2-0.1-0.4-0.1-0.7c0-0.2,0-0.5,0.1-0.7c0.2-0.1,0.5-0.2,0.9-0.2s0.6,0.1,0.9,0.2c0.1,0.2,0.1,0.4,0.1,0.7
		c0,0.2,0,0.5-0.1,0.7c-0.2,0.1-0.5,0.2-0.9,0.2S198.3,72.5,198.1,72.4z"/>
	<path fill="#043A63" d="M207.8,75.9V79c0,0.6,0.1,1,0.3,1.3c-0.3,0.2-0.7,0.4-1,0.4s-0.6-0.1-0.8-0.3c-0.1-0.2-0.2-0.5-0.2-0.8
		v-3.3c0-0.4-0.1-0.7-0.2-0.9c-0.1-0.2-0.3-0.3-0.6-0.3c-0.5,0-1,0.2-1.5,0.7v4.8c-0.3,0-0.5,0.1-0.9,0.1s-0.6,0-0.9-0.1v-6.9
		l0.1-0.1h0.6c0.5,0,0.8,0.3,1,0.8c0.7-0.6,1.4-0.9,2-0.9s1.2,0.2,1.5,0.7C207.7,74.6,207.8,75.2,207.8,75.9z"/>
	<path fill="#043A63" d="M215,77.7h-3.9c0,0.6,0.2,1,0.4,1.3c0.2,0.3,0.6,0.5,1.2,0.5s1.2-0.2,1.8-0.5c0.3,0.3,0.4,0.6,0.5,1.1
		c-0.7,0.5-1.6,0.8-2.7,0.8s-1.8-0.3-2.3-1c-0.5-0.7-0.7-1.6-0.7-2.6c0-1.1,0.3-2,0.8-2.6c0.5-0.7,1.2-1,2.2-1
		c0.9,0,1.7,0.3,2.2,0.8s0.8,1.3,0.8,2.1C215.2,76.9,215.1,77.3,215,77.7z M212.3,74.7c-0.8,0-1.2,0.6-1.2,1.7h2.4v-0.2
		c0-0.5-0.1-0.8-0.3-1.1C213,74.9,212.7,74.7,212.3,74.7z"/>
	<path fill="#043A63" d="M216.3,74.5c0-0.2,0.1-0.3,0.2-0.5c0.1-0.2,0.2-0.3,0.4-0.4c0.7,0.1,1.2,0.5,1.5,1.2c0.4-0.8,1-1.2,1.8-1.2
		c0.2,0,0.5,0,0.8,0.1c0,0.6-0.1,1.1-0.4,1.6c-0.1,0-0.3-0.1-0.6-0.1c-0.6,0-1,0.3-1.4,0.9v4.5c-0.3,0-0.5,0.1-0.9,0.1
		c-0.3,0-0.6,0-0.9-0.1v-4.7C216.9,75.2,216.7,74.8,216.3,74.5z"/>
	<path fill="#043A63" d="M222.2,79.8c-0.4-0.6-0.6-1.5-0.6-2.7s0.3-2,0.8-2.7c0.5-0.6,1.2-1,1.9-1c0.7,0,1.4,0.2,1.9,0.7
		c0.3-0.3,0.6-0.5,1.1-0.6c0.1,0.1,0.3,0.2,0.4,0.4c0.1,0.2,0.2,0.3,0.2,0.5c-0.3,0.2-0.4,0.6-0.4,1.2v4c0,1.5-0.2,2.5-0.7,3.2
		s-1.3,0.9-2.4,0.9c-0.9,0-1.7-0.2-2.5-0.5c0-0.5,0.1-0.9,0.4-1.3c0.6,0.3,1.3,0.4,1.9,0.4s1-0.2,1.3-0.5c0.2-0.3,0.4-0.7,0.4-1.3
		v-0.6c-0.5,0.4-1.1,0.7-1.8,0.7C223.3,80.7,222.7,80.4,222.2,79.8z M225.8,78.6v-3.2c-0.4-0.4-0.8-0.6-1.2-0.6
		c-0.4,0-0.7,0.2-0.9,0.6c-0.2,0.4-0.3,1-0.3,1.7c0,0.7,0.1,1.3,0.3,1.7c0.2,0.4,0.5,0.5,0.8,0.5C225,79.3,225.4,79.1,225.8,78.6z"
		/>
	<path fill="#043A63" d="M231.4,75v5.6c-0.3,0-0.5,0.1-0.9,0.1c-0.3,0-0.6,0-0.9-0.1v-4.9c0-0.5-0.2-0.8-0.6-0.8h-0.2
		c0-0.2-0.1-0.4-0.1-0.6c0-0.2,0-0.5,0.1-0.6c0.3,0,0.7-0.1,1-0.1h0.2c0.4,0,0.7,0.1,0.9,0.4S231.4,74.6,231.4,75z M229.4,72.4
		c-0.1-0.2-0.1-0.4-0.1-0.7c0-0.2,0-0.5,0.1-0.7c0.2-0.1,0.5-0.2,0.9-0.2s0.6,0.1,0.9,0.2c0.1,0.2,0.1,0.4,0.1,0.7
		c0,0.2,0,0.5-0.1,0.7c-0.2,0.1-0.5,0.2-0.9,0.2S229.6,72.5,229.4,72.4z"/>
	<path fill="#043A63" d="M239,79.8c0,0.2-0.1,0.3-0.2,0.5c-0.1,0.2-0.2,0.3-0.4,0.4c-0.6-0.1-1-0.3-1.3-0.8c-0.6,0.6-1.3,0.9-2,0.9
		s-1.3-0.2-1.6-0.6s-0.5-0.9-0.5-1.5c0-0.8,0.3-1.4,0.8-1.8s1.2-0.6,2-0.6c0.4,0,0.8,0,1.2,0.1V76c0-0.7-0.4-1.1-1.1-1.1
		c-0.5,0-1.2,0.2-2.1,0.5c-0.3-0.3-0.4-0.7-0.5-1.2c1-0.4,2-0.6,3-0.6c0.7,0,1.3,0.2,1.7,0.6c0.4,0.4,0.7,1,0.7,1.8v2.9
		C238.6,79.2,238.7,79.6,239,79.8z M235.5,79.5c0.5,0,1-0.2,1.4-0.7v-1.2c-0.3,0-0.7-0.1-1.1-0.1c-0.4,0-0.7,0.1-0.9,0.3
		c-0.2,0.2-0.3,0.4-0.3,0.7c0,0.3,0.1,0.5,0.2,0.7S235.2,79.5,235.5,79.5z"/>
	<path fill="#043A63" d="M134.6,94.5h-3.9c0,0.6,0.2,1,0.4,1.3c0.2,0.3,0.6,0.5,1.2,0.5s1.2-0.2,1.8-0.5c0.3,0.3,0.4,0.6,0.5,1.1
		c-0.7,0.5-1.6,0.8-2.7,0.8s-1.8-0.3-2.3-1c-0.5-0.7-0.7-1.6-0.7-2.6c0-1.1,0.3-2,0.8-2.6c0.5-0.7,1.2-1,2.2-1
		c0.9,0,1.7,0.3,2.2,0.8s0.8,1.3,0.8,2.1C134.8,93.7,134.7,94.1,134.6,94.5z M131.9,91.5c-0.8,0-1.2,0.6-1.2,1.7h2.4v-0.2
		c0-0.5-0.1-0.8-0.3-1.1C132.7,91.7,132.4,91.5,131.9,91.5z"/>
	<path fill="#043A63" d="M144.8,91.3c0,0,0-0.1,0-0.1c0-0.6-0.1-1.1-0.4-1.5c-0.3-0.4-0.7-0.6-1.4-0.6c-1.3,0-2,1.2-2,3.6
		c0,1.1,0.2,1.9,0.6,2.5c0.4,0.6,0.9,0.9,1.6,0.9s1.5-0.3,2.4-1c0.2,0.1,0.4,0.3,0.5,0.5c0.2,0.2,0.3,0.4,0.3,0.6
		c-0.4,0.4-1,0.8-1.6,1c-0.6,0.3-1.3,0.4-2,0.4c-0.7,0-1.3-0.1-1.8-0.4c-0.5-0.3-0.9-0.7-1.2-1.1c-0.5-0.9-0.8-2-0.8-3.4
		c0-1.7,0.4-2.9,1.1-3.7c0.7-0.8,1.7-1.3,2.7-1.3s1.9,0.3,2.6,0.8c0.6,0.5,1,1.2,1,2c0,0.7-0.3,1-1,1
		C145.2,91.4,145,91.4,144.8,91.3z"/>
	<path fill="#043A63" d="M153.7,93.9c0,1.3-0.3,2.2-1,2.9c-0.5,0.5-1.2,0.8-2.1,0.8c-0.9,0-1.6-0.3-2.1-0.8c-0.7-0.7-1-1.6-1-2.9
		s0.3-2.2,1-2.9c0.5-0.5,1.2-0.8,2.1-0.8c0.9,0,1.6,0.3,2.1,0.8C153.4,91.7,153.7,92.7,153.7,93.9z M150.6,91.6
		c-0.9,0-1.3,0.8-1.3,2.4c0,1.6,0.4,2.4,1.3,2.4c0.9,0,1.3-0.8,1.3-2.4C151.9,92.4,151.5,91.6,150.6,91.6z"/>
	<path fill="#043A63" d="M157.5,96.1h0.5c0.1,0.3,0.1,0.5,0.1,0.7s0,0.4,0,0.5c-0.5,0.1-1,0.1-1.3,0.1c-1,0-1.5-0.5-1.5-1.6v-8.6
		l0.1-0.1h0.7c0.3,0,0.6,0.1,0.7,0.2c0.1,0.2,0.2,0.4,0.2,0.8v7.3C156.9,95.9,157.1,96.1,157.5,96.1z"/>
	<path fill="#043A63" d="M165,96.6c0,0.2-0.1,0.3-0.2,0.5c-0.1,0.2-0.2,0.3-0.4,0.4c-0.6-0.1-1-0.3-1.3-0.8c-0.6,0.6-1.3,0.9-2,0.9
		s-1.3-0.2-1.6-0.6s-0.5-0.9-0.5-1.5c0-0.8,0.3-1.4,0.8-1.8s1.2-0.6,2-0.6c0.4,0,0.8,0,1.2,0.1v-0.4c0-0.7-0.4-1.1-1.1-1.1
		c-0.5,0-1.2,0.2-2.1,0.5c-0.3-0.3-0.4-0.7-0.5-1.2c1-0.4,2-0.6,3-0.6c0.7,0,1.3,0.2,1.7,0.6c0.4,0.4,0.7,1,0.7,1.8v2.9
		C164.6,96,164.8,96.4,165,96.6z M161.5,96.3c0.5,0,1-0.2,1.4-0.7v-1.2c-0.3,0-0.7-0.1-1.1-0.1c-0.4,0-0.7,0.1-0.9,0.3
		c-0.2,0.2-0.3,0.4-0.3,0.7c0,0.3,0.1,0.5,0.2,0.7S161.3,96.3,161.5,96.3z"/>
	<path fill="#043A63" d="M171.8,91.3c0.4,0.6,0.6,1.5,0.6,2.6s-0.3,2-0.9,2.6c-0.6,0.6-1.4,1-2.3,1c-1,0-1.8-0.2-2.6-0.5v-9.9
		l0.1-0.1h0.6c0.3,0,0.6,0.1,0.7,0.2c0.1,0.2,0.2,0.4,0.2,0.8V91c0.5-0.4,1.1-0.6,1.8-0.6C170.8,90.3,171.4,90.7,171.8,91.3z
		 M169.6,91.8c-0.5,0-0.9,0.2-1.3,0.7v3.7c0.3,0.1,0.6,0.1,1,0.1c0.5,0,0.8-0.2,1.1-0.6c0.3-0.4,0.4-1,0.4-1.8
		C170.7,92.5,170.3,91.8,169.6,91.8z"/>
	<path fill="#043A63" d="M179.8,93.9c0,1.3-0.3,2.2-1,2.9c-0.5,0.5-1.2,0.8-2.1,0.8c-0.9,0-1.6-0.3-2.1-0.8c-0.7-0.7-1-1.6-1-2.9
		s0.3-2.2,1-2.9c0.5-0.5,1.2-0.8,2.1-0.8c0.9,0,1.6,0.3,2.1,0.8C179.4,91.7,179.8,92.7,179.8,93.9z M176.7,91.6
		c-0.9,0-1.3,0.8-1.3,2.4c0,1.6,0.4,2.4,1.3,2.4c0.9,0,1.3-0.8,1.3-2.4C178,92.4,177.6,91.6,176.7,91.6z"/>
	<path fill="#043A63" d="M180.9,91.3c0-0.2,0.1-0.3,0.2-0.5c0.1-0.2,0.2-0.3,0.4-0.4c0.7,0.1,1.2,0.5,1.5,1.2c0.4-0.8,1-1.2,1.8-1.2
		c0.2,0,0.5,0,0.8,0.1c0,0.6-0.1,1.1-0.4,1.6c-0.1,0-0.3-0.1-0.6-0.1c-0.6,0-1,0.3-1.4,0.9v4.5c-0.3,0-0.5,0.1-0.9,0.1
		c-0.3,0-0.6,0-0.9-0.1v-4.7C181.4,92,181.2,91.6,180.9,91.3z"/>
	<path fill="#043A63" d="M192.1,96.6c0,0.2-0.1,0.3-0.2,0.5c-0.1,0.2-0.2,0.3-0.4,0.4c-0.6-0.1-1-0.3-1.3-0.8
		c-0.6,0.6-1.3,0.9-2,0.9s-1.3-0.2-1.6-0.6s-0.5-0.9-0.5-1.5c0-0.8,0.3-1.4,0.8-1.8s1.2-0.6,2-0.6c0.4,0,0.8,0,1.2,0.1v-0.4
		c0-0.7-0.4-1.1-1.1-1.1c-0.5,0-1.2,0.2-2.1,0.5c-0.3-0.3-0.4-0.7-0.5-1.2c1-0.4,2-0.6,3-0.6c0.7,0,1.3,0.2,1.7,0.6
		c0.4,0.4,0.7,1,0.7,1.8v2.9C191.7,96,191.8,96.4,192.1,96.6z M188.6,96.3c0.5,0,1-0.2,1.4-0.7v-1.2c-0.3,0-0.7-0.1-1.1-0.1
		c-0.4,0-0.7,0.1-0.9,0.3c-0.2,0.2-0.3,0.4-0.3,0.7c0,0.3,0.1,0.5,0.2,0.7S188.3,96.3,188.6,96.3z"/>
	<path fill="#043A63" d="M195.3,98.5c0.1-0.4,0.2-0.7,0.3-0.9c-0.8-0.1-1.4-0.5-1.8-1.2c-0.4-0.6-0.6-1.5-0.6-2.4
		c0-1.2,0.3-2.2,0.9-2.8s1.3-0.9,2.1-0.9c0.8,0,1.5,0.2,1.9,0.7c0.5,0.4,0.7,1,0.7,1.6c0,0.6-0.3,0.9-0.9,0.9c-0.2,0-0.5,0-0.7-0.1
		c0-0.1,0-0.1,0-0.2c0-0.5-0.1-0.8-0.2-1.1c-0.1-0.3-0.4-0.4-0.8-0.4c-0.8,0-1.2,0.8-1.2,2.3s0.5,2.3,1.4,2.3c0.5,0,1-0.2,1.6-0.7
		c0.1,0.1,0.3,0.2,0.4,0.4c0.1,0.2,0.2,0.4,0.3,0.6c-0.6,0.6-1.3,0.9-2.1,1c-0.1,0.1-0.1,0.2-0.1,0.3c0.4,0,0.7,0.1,1,0.4
		c0.2,0.2,0.4,0.5,0.4,0.9c0,0.4-0.2,0.7-0.5,1c-0.3,0.3-0.7,0.4-1.2,0.4c-0.5,0-0.9-0.1-1.2-0.3c0-0.3,0.1-0.6,0.3-0.8
		c0.2,0.1,0.4,0.2,0.7,0.2c0.4,0,0.6-0.2,0.6-0.5c0-0.1,0-0.3-0.1-0.3c-0.1-0.1-0.2-0.1-0.3-0.1c-0.1,0-0.3,0-0.4,0.1
		C195.4,98.7,195.4,98.6,195.3,98.5z"/>
	<path fill="#043A63" d="M205.8,96.6c0,0.2-0.1,0.3-0.2,0.5c-0.1,0.2-0.2,0.3-0.4,0.4c-0.6-0.1-1-0.3-1.3-0.8
		c-0.6,0.6-1.3,0.9-2,0.9s-1.3-0.2-1.6-0.6s-0.5-0.9-0.5-1.5c0-0.8,0.3-1.4,0.8-1.8s1.2-0.6,2-0.6c0.4,0,0.8,0,1.2,0.1v-0.4
		c0-0.7-0.4-1.1-1.1-1.1c-0.5,0-1.2,0.2-2.1,0.5c-0.3-0.3-0.4-0.7-0.5-1.2c1-0.4,2-0.6,3-0.6c0.7,0,1.3,0.2,1.7,0.6
		c0.4,0.4,0.7,1,0.7,1.8v2.9C205.4,96,205.6,96.4,205.8,96.6z M202.8,89.4l-0.7-0.4c-0.1-0.1-0.3-0.1-0.5-0.1
		c-0.2,0-0.3,0.1-0.5,0.4l-0.1,0.2c-0.2,0-0.3-0.1-0.5-0.2c-0.2-0.1-0.3-0.2-0.3-0.4l0.1-0.3c0.1-0.3,0.4-0.6,0.6-0.8
		c0.3-0.2,0.5-0.3,0.8-0.3c0.3,0,0.6,0.1,0.9,0.2l0.7,0.4c0.2,0.1,0.3,0.1,0.5,0.1s0.3-0.1,0.5-0.4l0.1-0.2c0.2,0,0.3,0.1,0.5,0.2
		c0.2,0.1,0.3,0.2,0.3,0.4l-0.1,0.3c-0.1,0.3-0.4,0.6-0.6,0.8c-0.3,0.2-0.5,0.3-0.8,0.3S203.1,89.6,202.8,89.4z M202.3,96.3
		c0.5,0,1-0.2,1.4-0.7v-1.2c-0.3,0-0.7-0.1-1.1-0.1c-0.4,0-0.7,0.1-0.9,0.3c-0.2,0.2-0.3,0.4-0.3,0.7c0,0.3,0.1,0.5,0.2,0.7
		S202.1,96.3,202.3,96.3z"/>
	<path fill="#043A63" d="M213.1,93.9c0,1.3-0.3,2.2-1,2.9c-0.5,0.5-1.2,0.8-2.1,0.8c-0.9,0-1.6-0.3-2.1-0.8c-0.7-0.7-1-1.6-1-2.9
		s0.3-2.2,1-2.9c0.5-0.5,1.2-0.8,2.1-0.8c0.9,0,1.6,0.3,2.1,0.8C212.8,91.7,213.1,92.7,213.1,93.9z M210,91.6
		c-0.9,0-1.3,0.8-1.3,2.4c0,1.6,0.4,2.4,1.3,2.4c0.9,0,1.3-0.8,1.3-2.4C211.3,92.4,210.9,91.6,210,91.6z"/>
	<path fill="#043A63" d="M214.6,97.3c-0.1-0.2-0.1-0.4-0.1-0.7s0-0.6,0.1-0.8c0.3-0.1,0.6-0.2,1-0.2s0.7,0.1,0.9,0.2
		c0.1,0.2,0.1,0.5,0.1,0.8s0,0.6-0.1,0.7c-0.2,0.1-0.5,0.2-0.9,0.2S214.8,97.5,214.6,97.3z"/>
</g>
<g>
	<path fill="#FFFFFF" d="M84.9,116.8v-9.6c0.2,0,0.4-0.1,0.7-0.1c0.3,0,0.5,0,0.7,0.1v9.6c-0.2,0-0.4,0.1-0.7,0.1
		C85.3,116.9,85,116.8,84.9,116.8z"/>
	<path fill="#FFFFFF" d="M90.7,117c-0.8,0-1.4-0.3-1.8-1c-0.4-0.6-0.6-1.5-0.6-2.7c0-1.1,0.3-2,0.8-2.6s1.2-0.9,1.9-0.9
		c0.5,0,1.1,0.2,1.6,0.5v-3.7l0.1-0.1h0.5c0.3,0,0.5,0.1,0.6,0.2c0.1,0.1,0.2,0.4,0.2,0.7v7.5c0,0.7,0.1,1.1,0.4,1.4
		c-0.1,0.3-0.3,0.6-0.5,0.7c-0.5-0.1-0.8-0.4-1-0.9C92.1,116.7,91.5,117,90.7,117z M90.9,115.8c0.6,0,1.1-0.3,1.6-0.9v-3.5
		c-0.5-0.4-1-0.5-1.4-0.5c-0.4,0-0.8,0.2-1.1,0.7c-0.3,0.4-0.4,1.1-0.4,1.9s0.1,1.4,0.4,1.8S90.6,115.8,90.9,115.8z"/>
	<path fill="#FFFFFF" d="M101.2,113.8h-4.2c0,0.7,0.2,1.2,0.4,1.5c0.3,0.4,0.7,0.5,1.3,0.5s1.2-0.2,1.9-0.5c0.2,0.2,0.4,0.5,0.4,0.9
		c-0.7,0.5-1.6,0.8-2.6,0.8c-1,0-1.7-0.3-2.2-1s-0.7-1.5-0.7-2.6s0.3-2,0.7-2.6c0.5-0.7,1.2-1,2.1-1c0.9,0,1.6,0.3,2.1,0.8
		c0.5,0.6,0.7,1.3,0.7,2.1C101.3,113.1,101.3,113.4,101.2,113.8z M99.6,111.2c-0.2-0.4-0.6-0.5-1.1-0.5c-0.5,0-0.8,0.2-1.1,0.5
		s-0.4,0.9-0.4,1.5h2.9v-0.2C100,112,99.9,111.6,99.6,111.2z"/>
	<path fill="#FFFFFF" d="M108.6,112v3.3c0,0.6,0.1,1,0.2,1.2c-0.2,0.2-0.5,0.3-0.8,0.3c-0.5,0-0.7-0.3-0.7-0.9v-3.6
		c0-0.5-0.1-0.9-0.2-1.1s-0.4-0.3-0.7-0.3c-0.3,0-0.7,0.1-1,0.3s-0.6,0.4-0.9,0.7v4.9c-0.2,0-0.4,0.1-0.7,0.1c-0.3,0-0.5,0-0.7-0.1
		v-6.9l0.1-0.1h0.5c0.5,0,0.7,0.3,0.8,0.9c0.7-0.6,1.5-1,2.3-1c0.6,0,1.1,0.2,1.4,0.6C108.5,110.8,108.6,111.4,108.6,112z"/>
	<path fill="#FFFFFF" d="M114.1,109.9c0,0.2,0.1,0.3,0.1,0.5c0,0.2,0,0.3-0.1,0.5l-1.8,0v4.3c0,0.4,0.2,0.6,0.6,0.6h1
		c0.1,0.2,0.1,0.4,0.1,0.6s0,0.3,0,0.4c-0.5,0.1-1.1,0.1-1.5,0.1c-1,0-1.4-0.5-1.4-1.4v-4.6l-1,0c0-0.1-0.1-0.3-0.1-0.5
		c0-0.2,0-0.4,0.1-0.5l1,0v-1.3c0-0.3,0.1-0.5,0.2-0.7s0.3-0.2,0.6-0.2h0.5l0.1,0.1v2.1L114.1,109.9z"/>
	<path fill="#FFFFFF" d="M117.4,111v5.8c-0.2,0-0.4,0.1-0.7,0.1c-0.3,0-0.5,0-0.7-0.1v-5.2c0-0.3,0-0.4-0.1-0.5
		c-0.1-0.1-0.2-0.2-0.5-0.2h-0.2c0-0.1-0.1-0.3-0.1-0.5c0-0.2,0-0.3,0.1-0.5c0.3,0,0.6-0.1,0.8-0.1h0.2c0.3,0,0.6,0.1,0.8,0.3
		C117.3,110.4,117.4,110.7,117.4,111z M115.6,108c0-0.2,0-0.4,0.1-0.6c0.2-0.1,0.5-0.2,0.8-0.2s0.6,0.1,0.7,0.2
		c0.1,0.2,0.1,0.4,0.1,0.6c0,0.2,0,0.4-0.1,0.6c-0.2,0.1-0.4,0.2-0.7,0.2c-0.3,0-0.6-0.1-0.8-0.2C115.7,108.4,115.6,108.2,115.6,108
		z"/>
	<path fill="#FFFFFF" d="M119.9,116.8v-5.9l-1.2,0c0-0.2-0.1-0.4-0.1-0.5c0-0.1,0-0.3,0.1-0.5l1.1,0c-0.1-0.5-0.1-1-0.1-1.3
		c0-0.6,0.2-1.1,0.6-1.5s0.9-0.6,1.5-0.6s1.2,0.1,1.8,0.3c0,0.4-0.1,0.7-0.3,0.9c-0.5-0.1-0.9-0.2-1.2-0.2s-0.6,0.1-0.8,0.3
		s-0.3,0.5-0.3,0.9c0,0.4,0,0.8,0.1,1.3l2,0c0,0.2,0.1,0.4,0.1,0.5c0,0.1,0,0.3-0.1,0.5l-1.9,0v5.9c-0.2,0-0.4,0.1-0.7,0.1
		C120.3,116.9,120,116.8,119.9,116.8z"/>
	<path fill="#FFFFFF" d="M126.3,111v5.8c-0.2,0-0.4,0.1-0.7,0.1c-0.3,0-0.5,0-0.7-0.1v-5.2c0-0.3,0-0.4-0.1-0.5
		c-0.1-0.1-0.2-0.2-0.5-0.2h-0.2c0-0.1-0.1-0.3-0.1-0.5c0-0.2,0-0.3,0.1-0.5c0.3,0,0.6-0.1,0.8-0.1h0.2c0.3,0,0.6,0.1,0.8,0.3
		C126.2,110.4,126.3,110.7,126.3,111z M124.5,108c0-0.2,0-0.4,0.1-0.6c0.2-0.1,0.5-0.2,0.8-0.2s0.6,0.1,0.7,0.2
		c0.1,0.2,0.1,0.4,0.1,0.6c0,0.2,0,0.4-0.1,0.6c-0.2,0.1-0.4,0.2-0.7,0.2c-0.3,0-0.6-0.1-0.8-0.2C124.6,108.4,124.5,108.2,124.5,108
		z"/>
	<path fill="#FFFFFF" d="M132.2,112.5c0,0,0-0.1,0-0.1c0-1.1-0.4-1.6-1.3-1.6c-0.5,0-0.8,0.2-1.1,0.7c-0.3,0.4-0.4,1.1-0.4,2
		c0,1.6,0.5,2.5,1.6,2.5c0.5,0,1.1-0.2,1.7-0.7c0.1,0.1,0.3,0.2,0.4,0.3c0.1,0.2,0.2,0.3,0.2,0.5c-0.7,0.7-1.5,1-2.5,1
		s-1.7-0.3-2.1-1c-0.5-0.7-0.7-1.6-0.7-2.7s0.3-2,0.8-2.6c0.6-0.6,1.2-0.9,2-0.9s1.4,0.2,1.9,0.7c0.4,0.4,0.7,0.9,0.7,1.4
		c0,0.5-0.2,0.8-0.7,0.8C132.6,112.6,132.4,112.5,132.2,112.5z"/>
	<path fill="#FFFFFF" d="M140.4,116.2c-0.1,0.3-0.3,0.6-0.5,0.7c-0.5-0.1-0.9-0.4-1.1-0.9c-0.7,0.7-1.4,1-2.1,1s-1.2-0.2-1.6-0.6
		c-0.4-0.4-0.5-0.9-0.5-1.4c0-0.8,0.2-1.3,0.7-1.7c0.5-0.4,1.1-0.6,1.9-0.6c0.5,0,0.9,0,1.4,0.1v-0.6c0-0.8-0.4-1.3-1.2-1.3
		c-0.6,0-1.3,0.2-2.2,0.5c-0.3-0.3-0.4-0.6-0.4-1c1-0.4,1.9-0.6,2.9-0.6c0.7,0,1.3,0.2,1.7,0.6c0.4,0.4,0.6,1,0.6,1.8v2.9
		C140,115.6,140.2,116,140.4,116.2z M137,115.9c0.6,0,1.2-0.3,1.7-0.9v-1.3c-0.4,0-0.8-0.1-1.3-0.1c-0.5,0-0.8,0.1-1.1,0.3
		c-0.2,0.2-0.4,0.5-0.4,0.9c0,0.4,0.1,0.6,0.3,0.8S136.7,115.9,137,115.9z"/>
	<path fill="#FFFFFF" d="M147.7,112v3.3c0,0.6,0.1,1,0.2,1.2c-0.2,0.2-0.5,0.3-0.8,0.3c-0.5,0-0.7-0.3-0.7-0.9v-3.6
		c0-0.5-0.1-0.9-0.2-1.1s-0.4-0.3-0.7-0.3c-0.3,0-0.7,0.1-1,0.3s-0.6,0.4-0.9,0.7v4.9c-0.2,0-0.4,0.1-0.7,0.1c-0.3,0-0.5,0-0.7-0.1
		v-6.9l0.1-0.1h0.5c0.5,0,0.7,0.3,0.8,0.9c0.7-0.6,1.5-1,2.3-1c0.6,0,1.1,0.2,1.4,0.6C147.5,110.8,147.7,111.4,147.7,112z"/>
	<path fill="#FFFFFF" d="M151.8,117c-0.8,0-1.4-0.3-1.8-1c-0.4-0.6-0.6-1.5-0.6-2.7c0-1.1,0.3-2,0.8-2.6s1.2-0.9,1.9-0.9
		c0.5,0,1.1,0.2,1.6,0.5v-3.7l0.1-0.1h0.5c0.3,0,0.5,0.1,0.6,0.2c0.1,0.1,0.2,0.4,0.2,0.7v7.5c0,0.7,0.1,1.1,0.4,1.4
		c-0.1,0.3-0.3,0.6-0.5,0.7c-0.5-0.1-0.8-0.4-1-0.9C153.3,116.7,152.6,117,151.8,117z M152.1,115.8c0.6,0,1.1-0.3,1.6-0.9v-3.5
		c-0.5-0.4-1-0.5-1.4-0.5c-0.4,0-0.8,0.2-1.1,0.7c-0.3,0.4-0.4,1.1-0.4,1.9s0.1,1.4,0.4,1.8S151.7,115.8,152.1,115.8z"/>
	<path fill="#FFFFFF" d="M161.8,110.5c0.7,0.7,1,1.6,1,2.9s-0.3,2.2-1,2.9c-0.5,0.5-1.2,0.8-2,0.8c-0.8,0-1.5-0.3-2-0.8
		c-0.7-0.7-1-1.6-1-2.9s0.3-2.2,1-2.9c0.5-0.5,1.2-0.8,2-0.8C160.6,109.7,161.3,110,161.8,110.5z M158.2,113.4
		c0,1.7,0.5,2.6,1.6,2.6c1.1,0,1.6-0.9,1.6-2.6c0-0.5,0-0.9-0.1-1.3c-0.1-0.4-0.3-0.7-0.5-0.9c-0.2-0.3-0.6-0.4-1-0.4
		c-0.4,0-0.7,0.1-1,0.4c-0.2,0.3-0.4,0.6-0.5,0.9S158.2,112.9,158.2,113.4z"/>
	<path fill="#FFFFFF" d="M172.9,116.2c-0.1,0.3-0.3,0.6-0.5,0.7c-0.5-0.1-0.9-0.4-1.1-0.9c-0.7,0.7-1.4,1-2.1,1s-1.2-0.2-1.6-0.6
		c-0.4-0.4-0.5-0.9-0.5-1.4c0-0.8,0.2-1.3,0.7-1.7c0.5-0.4,1.1-0.6,1.9-0.6c0.5,0,0.9,0,1.4,0.1v-0.6c0-0.8-0.4-1.3-1.2-1.3
		c-0.6,0-1.3,0.2-2.2,0.5c-0.3-0.3-0.4-0.6-0.4-1c1-0.4,1.9-0.6,2.9-0.6c0.7,0,1.3,0.2,1.7,0.6c0.4,0.4,0.6,1,0.6,1.8v2.9
		C172.5,115.6,172.7,116,172.9,116.2z M169.5,115.9c0.6,0,1.2-0.3,1.7-0.9v-1.3c-0.4,0-0.8-0.1-1.3-0.1c-0.5,0-0.8,0.1-1.1,0.3
		c-0.2,0.2-0.4,0.5-0.4,0.9c0,0.4,0.1,0.6,0.3,0.8S169.2,115.9,169.5,115.9z"/>
	<path fill="#FFFFFF" d="M179.3,111v5.8c-0.2,0-0.4,0.1-0.7,0.1c-0.3,0-0.5,0-0.7-0.1v-5.2c0-0.3,0-0.4-0.1-0.5
		c-0.1-0.1-0.2-0.2-0.5-0.2h-0.2c0-0.1-0.1-0.3-0.1-0.5c0-0.2,0-0.3,0.1-0.5c0.3,0,0.6-0.1,0.8-0.1h0.2c0.3,0,0.6,0.1,0.8,0.3
		C179.2,110.4,179.3,110.7,179.3,111z M177.6,108c0-0.2,0-0.4,0.1-0.6c0.2-0.1,0.5-0.2,0.8-0.2s0.6,0.1,0.7,0.2
		c0.1,0.2,0.1,0.4,0.1,0.6c0,0.2,0,0.4-0.1,0.6c-0.2,0.1-0.4,0.2-0.7,0.2c-0.3,0-0.6-0.1-0.8-0.2C177.6,108.4,177.6,108.2,177.6,108
		z"/>
	<path fill="#FFFFFF" d="M185.4,112.4c0-0.5-0.1-0.8-0.2-1.1c-0.1-0.2-0.4-0.3-0.7-0.3c-0.5,0-1.1,0.3-1.6,0.9v4.9
		c-0.2,0-0.4,0.1-0.7,0.1c-0.3,0-0.5,0-0.7-0.1v-6.9l0.1-0.1h0.5c0.5,0,0.7,0.3,0.8,0.9c0.6-0.6,1.3-1,2-1s1.3,0.3,1.6,1
		c0.7-0.7,1.5-1,2.2-1c0.6,0,1,0.2,1.3,0.6c0.3,0.4,0.5,0.9,0.5,1.6v3.4c0,0.5,0.1,1,0.2,1.2c-0.2,0.2-0.5,0.3-0.9,0.3
		c-0.5,0-0.7-0.3-0.7-0.9v-3.7c0-0.5-0.1-0.8-0.2-1.1c-0.1-0.2-0.4-0.3-0.7-0.3c-0.6,0-1.1,0.3-1.6,0.9v4.9c-0.2,0-0.4,0.1-0.7,0.1
		c-0.3,0-0.5,0-0.7-0.1V112.4z"/>
	<path fill="#FFFFFF" d="M196,109.7c0.8,0,1.3,0.3,1.8,1c0.4,0.6,0.6,1.5,0.6,2.7c0,1.1-0.3,2-0.8,2.6s-1.2,0.9-1.9,0.9
		c-0.6,0-1.1-0.2-1.7-0.5v2.5c0,0.3-0.1,0.5-0.2,0.7c-0.1,0.1-0.3,0.2-0.6,0.2h-0.5l-0.1-0.1v-9.8l0.1-0.1h0.4
		c0.4,0,0.7,0.2,0.8,0.7C194.6,110,195.2,109.7,196,109.7z M195.7,110.9c-0.7,0-1.2,0.3-1.6,1v3.4c0.5,0.4,1,0.5,1.4,0.5
		c0.4,0,0.8-0.2,1.1-0.7c0.3-0.4,0.4-1.1,0.4-1.9s-0.1-1.4-0.4-1.8C196.3,111.1,196,110.9,195.7,110.9z"/>
	<path fill="#FFFFFF" d="M204.6,110.5c0.7,0.7,1,1.6,1,2.9s-0.3,2.2-1,2.9c-0.5,0.5-1.2,0.8-2,0.8c-0.8,0-1.5-0.3-2-0.8
		c-0.7-0.7-1-1.6-1-2.9s0.3-2.2,1-2.9c0.5-0.5,1.2-0.8,2-0.8C203.5,109.7,204.1,110,204.6,110.5z M201,113.4c0,1.7,0.5,2.6,1.6,2.6
		c1.1,0,1.6-0.9,1.6-2.6c0-0.5,0-0.9-0.1-1.3c-0.1-0.4-0.3-0.7-0.5-0.9c-0.2-0.3-0.6-0.4-1-0.4c-0.4,0-0.7,0.1-1,0.4
		c-0.2,0.3-0.4,0.6-0.5,0.9S201,112.9,201,113.4z"/>
	<path fill="#FFFFFF" d="M207,110.5c0.1-0.3,0.2-0.6,0.5-0.7c0.6,0.1,1,0.6,1.2,1.2c0.4-0.8,1-1.2,1.8-1.2c0.2,0,0.5,0,0.7,0.1
		c0,0.5-0.1,0.9-0.3,1.3c-0.1,0-0.2,0-0.6-0.1c-0.7,0-1.2,0.4-1.5,1.1v4.6c-0.2,0-0.4,0.1-0.7,0.1s-0.5,0-0.7-0.1V112
		C207.5,111.3,207.3,110.8,207,110.5z"/>
	<path fill="#FFFFFF" d="M216.1,109.9c0,0.2,0.1,0.3,0.1,0.5c0,0.2,0,0.3-0.1,0.5l-1.8,0v4.3c0,0.4,0.2,0.6,0.6,0.6h1
		c0.1,0.2,0.1,0.4,0.1,0.6s0,0.3,0,0.4c-0.5,0.1-1.1,0.1-1.5,0.1c-1,0-1.4-0.5-1.4-1.4v-4.6l-1,0c0-0.1-0.1-0.3-0.1-0.5
		c0-0.2,0-0.4,0.1-0.5l1,0v-1.3c0-0.3,0.1-0.5,0.2-0.7s0.3-0.2,0.6-0.2h0.5l0.1,0.1v2.1L216.1,109.9z"/>
	<path fill="#FFFFFF" d="M222.9,116.2c-0.1,0.3-0.3,0.6-0.5,0.7c-0.5-0.1-0.9-0.4-1.1-0.9c-0.7,0.7-1.4,1-2.1,1s-1.2-0.2-1.6-0.6
		c-0.4-0.4-0.5-0.9-0.5-1.4c0-0.8,0.2-1.3,0.7-1.7c0.5-0.4,1.1-0.6,1.9-0.6c0.5,0,0.9,0,1.4,0.1v-0.6c0-0.8-0.4-1.3-1.2-1.3
		c-0.6,0-1.3,0.2-2.2,0.5c-0.3-0.3-0.4-0.6-0.4-1c1-0.4,1.9-0.6,2.9-0.6c0.7,0,1.3,0.2,1.7,0.6c0.4,0.4,0.6,1,0.6,1.8v2.9
		C222.5,115.6,222.7,116,222.9,116.2z M221.3,109.2l-1.3-1.3l-1.4,1.4c-0.3-0.1-0.5-0.3-0.6-0.6l1.5-1.9c0.1,0,0.3-0.1,0.5-0.1
		s0.4,0,0.7,0.1l1.4,1.8C221.8,108.9,221.6,109.1,221.3,109.2z M219.5,115.9c0.6,0,1.2-0.3,1.7-0.9v-1.3c-0.4,0-0.8-0.1-1.3-0.1
		c-0.5,0-0.8,0.1-1.1,0.3c-0.2,0.2-0.4,0.5-0.4,0.9c0,0.4,0.1,0.6,0.3,0.8S219.2,115.9,219.5,115.9z"/>
	<path fill="#FFFFFF" d="M230.2,112v3.3c0,0.6,0.1,1,0.2,1.2c-0.2,0.2-0.5,0.3-0.8,0.3c-0.5,0-0.7-0.3-0.7-0.9v-3.6
		c0-0.5-0.1-0.9-0.2-1.1s-0.4-0.3-0.7-0.3c-0.3,0-0.7,0.1-1,0.3s-0.6,0.4-0.9,0.7v4.9c-0.2,0-0.4,0.1-0.7,0.1c-0.3,0-0.5,0-0.7-0.1
		v-6.9l0.1-0.1h0.5c0.5,0,0.7,0.3,0.8,0.9c0.7-0.6,1.5-1,2.3-1c0.6,0,1.1,0.2,1.4,0.6C230,110.8,230.2,111.4,230.2,112z"/>
	<path fill="#FFFFFF" d="M236,112.5c0,0,0-0.1,0-0.1c0-1.1-0.4-1.6-1.3-1.6c-0.5,0-0.8,0.2-1.1,0.7c-0.3,0.4-0.4,1.1-0.4,2
		c0,1.6,0.5,2.5,1.6,2.5c0.5,0,1.1-0.2,1.7-0.7c0.1,0.1,0.3,0.2,0.4,0.3c0.1,0.2,0.2,0.3,0.2,0.5c-0.7,0.7-1.5,1-2.5,1
		s-1.7-0.3-2.1-1c-0.5-0.7-0.7-1.6-0.7-2.7s0.3-2,0.8-2.6c0.6-0.6,1.2-0.9,2-0.9s1.4,0.2,1.9,0.7c0.4,0.4,0.7,0.9,0.7,1.4
		c0,0.5-0.2,0.8-0.7,0.8C236.4,112.6,236.2,112.5,236,112.5z"/>
	<path fill="#FFFFFF" d="M240.6,111v5.8c-0.2,0-0.4,0.1-0.7,0.1c-0.3,0-0.5,0-0.7-0.1v-5.2c0-0.3,0-0.4-0.1-0.5
		c-0.1-0.1-0.2-0.2-0.5-0.2h-0.2c0-0.1-0.1-0.3-0.1-0.5c0-0.2,0-0.3,0.1-0.5c0.3,0,0.6-0.1,0.8-0.1h0.2c0.3,0,0.6,0.1,0.8,0.3
		C240.5,110.4,240.6,110.7,240.6,111z M238.8,108c0-0.2,0-0.4,0.1-0.6c0.2-0.1,0.5-0.2,0.8-0.2s0.6,0.1,0.7,0.2
		c0.1,0.2,0.1,0.4,0.1,0.6c0,0.2,0,0.4-0.1,0.6c-0.2,0.1-0.4,0.2-0.7,0.2c-0.3,0-0.6-0.1-0.8-0.2C238.9,108.4,238.8,108.2,238.8,108
		z"/>
	<path fill="#FFFFFF" d="M248.1,116.2c-0.1,0.3-0.3,0.6-0.5,0.7c-0.5-0.1-0.9-0.4-1.1-0.9c-0.7,0.7-1.4,1-2.1,1s-1.2-0.2-1.6-0.6
		c-0.4-0.4-0.5-0.9-0.5-1.4c0-0.8,0.2-1.3,0.7-1.7c0.5-0.4,1.1-0.6,1.9-0.6c0.5,0,0.9,0,1.4,0.1v-0.6c0-0.8-0.4-1.3-1.2-1.3
		c-0.6,0-1.3,0.2-2.2,0.5c-0.3-0.3-0.4-0.6-0.4-1c1-0.4,1.9-0.6,2.9-0.6c0.7,0,1.3,0.2,1.7,0.6c0.4,0.4,0.6,1,0.6,1.8v2.9
		C247.7,115.6,247.9,116,248.1,116.2z M244.7,115.9c0.6,0,1.2-0.3,1.7-0.9v-1.3c-0.4,0-0.8-0.1-1.3-0.1c-0.5,0-0.8,0.1-1.1,0.3
		c-0.2,0.2-0.4,0.5-0.4,0.9c0,0.4,0.1,0.6,0.3,0.8S244.4,115.9,244.7,115.9z"/>
	<path fill="#FFFFFF" d="M254.9,117c-0.8,0-1.4-0.3-1.8-1c-0.4-0.6-0.6-1.5-0.6-2.7c0-1.1,0.3-2,0.8-2.6s1.2-0.9,1.9-0.9
		c0.5,0,1.1,0.2,1.6,0.5v-3.7l0.1-0.1h0.5c0.3,0,0.5,0.1,0.6,0.2c0.1,0.1,0.2,0.4,0.2,0.7v7.5c0,0.7,0.1,1.1,0.4,1.4
		c-0.1,0.3-0.3,0.6-0.5,0.7c-0.5-0.1-0.8-0.4-1-0.9C256.4,116.7,255.7,117,254.9,117z M255.2,115.8c0.6,0,1.1-0.3,1.6-0.9v-3.5
		c-0.5-0.4-1-0.5-1.4-0.5c-0.4,0-0.8,0.2-1.1,0.7c-0.3,0.4-0.4,1.1-0.4,1.9s0.1,1.4,0.4,1.8S254.8,115.8,255.2,115.8z"/>
	<path fill="#FFFFFF" d="M265.7,116.2c-0.1,0.3-0.3,0.6-0.5,0.7c-0.5-0.1-0.9-0.4-1.1-0.9c-0.7,0.7-1.4,1-2.1,1s-1.2-0.2-1.6-0.6
		c-0.4-0.4-0.5-0.9-0.5-1.4c0-0.8,0.2-1.3,0.7-1.7c0.5-0.4,1.1-0.6,1.9-0.6c0.5,0,0.9,0,1.4,0.1v-0.6c0-0.8-0.4-1.3-1.2-1.3
		c-0.6,0-1.3,0.2-2.2,0.5c-0.3-0.3-0.4-0.6-0.4-1c1-0.4,1.9-0.6,2.9-0.6c0.7,0,1.3,0.2,1.7,0.6c0.4,0.4,0.6,1,0.6,1.8v2.9
		C265.3,115.6,265.4,116,265.7,116.2z M262.3,115.9c0.6,0,1.2-0.3,1.7-0.9v-1.3c-0.4,0-0.8-0.1-1.3-0.1c-0.5,0-0.8,0.1-1.1,0.3
		c-0.2,0.2-0.4,0.5-0.4,0.9c0,0.4,0.1,0.6,0.3,0.8S262,115.9,262.3,115.9z"/>
	<path fill="#FFFFFF" d="M88,129.3c0,0,0-0.1,0-0.1c0-1.1-0.4-1.6-1.3-1.6c-0.5,0-0.8,0.2-1.1,0.7c-0.3,0.4-0.4,1.1-0.4,2
		c0,1.6,0.5,2.5,1.6,2.5c0.5,0,1.1-0.2,1.7-0.7c0.1,0.1,0.3,0.2,0.4,0.3c0.1,0.2,0.2,0.3,0.2,0.5c-0.7,0.7-1.5,1-2.5,1
		s-1.7-0.3-2.1-1c-0.5-0.7-0.7-1.6-0.7-2.7s0.3-2,0.8-2.6c0.6-0.6,1.2-0.9,2-0.9s1.4,0.2,1.9,0.7c0.4,0.4,0.7,0.9,0.7,1.4
		c0,0.5-0.2,0.8-0.7,0.8C88.3,129.4,88.1,129.3,88,129.3z"/>
	<path fill="#FFFFFF" d="M95.4,127.3c0.7,0.7,1,1.6,1,2.9s-0.3,2.2-1,2.9c-0.5,0.5-1.2,0.8-2,0.8c-0.8,0-1.5-0.3-2-0.8
		c-0.7-0.7-1-1.6-1-2.9s0.3-2.2,1-2.9c0.5-0.5,1.2-0.8,2-0.8C94.2,126.5,94.9,126.8,95.4,127.3z M91.8,130.1c0,1.7,0.5,2.6,1.6,2.6
		c1.1,0,1.6-0.9,1.6-2.6c0-0.5,0-0.9-0.1-1.3c-0.1-0.4-0.3-0.7-0.5-0.9c-0.2-0.3-0.6-0.4-1-0.4c-0.4,0-0.7,0.1-1,0.4
		c-0.2,0.3-0.4,0.6-0.5,0.9S91.8,129.7,91.8,130.1z"/>
	<path fill="#FFFFFF" d="M100,132.6h0.5c0.1,0.2,0.1,0.4,0.1,0.6s0,0.3,0,0.4c-0.4,0.1-0.8,0.1-1.2,0.1c-0.9,0-1.3-0.5-1.3-1.4v-8.9
		l0.1-0.1h0.5c0.3,0,0.5,0.1,0.6,0.2s0.2,0.4,0.2,0.7v7.8C99.5,132.4,99.6,132.6,100,132.6z"/>
	<path fill="#FFFFFF" d="M107.5,133c-0.1,0.3-0.3,0.6-0.5,0.7c-0.5-0.1-0.9-0.4-1.1-0.9c-0.7,0.7-1.4,1-2.1,1s-1.2-0.2-1.6-0.6
		c-0.4-0.4-0.5-0.9-0.5-1.4c0-0.8,0.2-1.3,0.7-1.7c0.5-0.4,1.1-0.6,1.9-0.6c0.5,0,0.9,0,1.4,0.1v-0.6c0-0.8-0.4-1.3-1.2-1.3
		c-0.6,0-1.3,0.2-2.2,0.5c-0.3-0.3-0.4-0.6-0.4-1c1-0.4,1.9-0.6,2.9-0.6c0.7,0,1.3,0.2,1.7,0.6c0.4,0.4,0.6,1,0.6,1.8v2.9
		C107.1,132.4,107.3,132.8,107.5,133z M104.1,132.7c0.6,0,1.2-0.3,1.7-0.9v-1.3c-0.4,0-0.8-0.1-1.3-0.1c-0.5,0-0.8,0.1-1.1,0.3
		c-0.2,0.2-0.4,0.5-0.4,0.9c0,0.4,0.1,0.6,0.3,0.8S103.8,132.7,104.1,132.7z"/>
	<path fill="#FFFFFF" d="M112.6,126.6c0.7,0,1.3,0.3,1.7,1s0.6,1.5,0.6,2.6c0,1.1-0.3,2-0.9,2.6s-1.3,0.9-2.2,0.9s-1.7-0.2-2.5-0.5
		v-9.9l0.1-0.1h0.5c0.3,0,0.5,0.1,0.6,0.2s0.2,0.4,0.2,0.7v3.1C111.2,126.8,111.9,126.6,112.6,126.6z M112.2,127.7
		c-0.6,0-1.1,0.3-1.6,0.8v3.9c0.4,0.1,0.8,0.2,1.3,0.2s0.9-0.2,1.2-0.7c0.3-0.4,0.5-1.1,0.5-1.9s-0.1-1.4-0.4-1.8
		C112.9,127.9,112.6,127.7,112.2,127.7z"/>
	<path fill="#FFFFFF" d="M121.2,127.3c0.7,0.7,1,1.6,1,2.9s-0.3,2.2-1,2.9c-0.5,0.5-1.2,0.8-2,0.8c-0.8,0-1.5-0.3-2-0.8
		c-0.7-0.7-1-1.6-1-2.9s0.3-2.2,1-2.9c0.5-0.5,1.2-0.8,2-0.8C120,126.5,120.7,126.8,121.2,127.3z M117.6,130.1
		c0,1.7,0.5,2.6,1.6,2.6c1.1,0,1.6-0.9,1.6-2.6c0-0.5,0-0.9-0.1-1.3c-0.1-0.4-0.3-0.7-0.5-0.9c-0.2-0.3-0.6-0.4-1-0.4
		c-0.4,0-0.7,0.1-1,0.4c-0.2,0.3-0.4,0.6-0.5,0.9S117.6,129.7,117.6,130.1z"/>
	<path fill="#FFFFFF" d="M123.6,127.3c0.1-0.3,0.2-0.6,0.5-0.7c0.6,0.1,1,0.6,1.2,1.2c0.4-0.8,1-1.2,1.8-1.2c0.2,0,0.5,0,0.7,0.1
		c0,0.5-0.1,0.9-0.3,1.3c-0.1,0-0.2,0-0.6-0.1c-0.7,0-1.2,0.4-1.5,1.1v4.6c-0.2,0-0.4,0.1-0.7,0.1s-0.5,0-0.7-0.1v-4.8
		C124.1,128.1,123.9,127.6,123.6,127.3z"/>
	<path fill="#FFFFFF" d="M134.3,133c-0.1,0.3-0.3,0.6-0.5,0.7c-0.5-0.1-0.9-0.4-1.1-0.9c-0.7,0.7-1.4,1-2.1,1s-1.2-0.2-1.6-0.6
		c-0.4-0.4-0.5-0.9-0.5-1.4c0-0.8,0.2-1.3,0.7-1.7c0.5-0.4,1.1-0.6,1.9-0.6c0.5,0,0.9,0,1.4,0.1v-0.6c0-0.8-0.4-1.3-1.2-1.3
		c-0.6,0-1.3,0.2-2.2,0.5c-0.3-0.3-0.4-0.6-0.4-1c1-0.4,1.9-0.6,2.9-0.6c0.7,0,1.3,0.2,1.7,0.6c0.4,0.4,0.6,1,0.6,1.8v2.9
		C133.9,132.4,134,132.8,134.3,133z M130.8,132.7c0.6,0,1.2-0.3,1.7-0.9v-1.3c-0.4,0-0.8-0.1-1.3-0.1c-0.5,0-0.8,0.1-1.1,0.3
		c-0.2,0.2-0.4,0.5-0.4,0.9c0,0.4,0.1,0.6,0.3,0.8S130.5,132.7,130.8,132.7z"/>
	<path fill="#FFFFFF" d="M137.7,134.6c0.1-0.2,0.2-0.5,0.3-0.9c-0.8-0.1-1.4-0.5-1.8-1.1c-0.4-0.7-0.6-1.5-0.6-2.4
		c0-1.2,0.3-2.1,0.8-2.8c0.6-0.6,1.2-0.9,2-0.9s1.4,0.2,1.9,0.7c0.4,0.4,0.7,0.9,0.7,1.4c0,0.5-0.2,0.8-0.7,0.8
		c-0.2,0-0.4,0-0.6-0.1c0,0,0-0.1,0-0.1c0-1.1-0.4-1.6-1.3-1.6c-0.5,0-0.8,0.2-1.1,0.7c-0.3,0.4-0.4,1.1-0.4,2
		c0,1.6,0.5,2.5,1.6,2.5c0.5,0,1.1-0.2,1.7-0.7c0.1,0.1,0.3,0.2,0.4,0.3c0.1,0.2,0.2,0.3,0.2,0.5c-0.6,0.6-1.3,0.9-2.1,1
		c-0.1,0.2-0.1,0.3-0.2,0.4c0.4,0,0.7,0.2,0.9,0.4c0.2,0.2,0.4,0.5,0.4,0.9s-0.2,0.7-0.5,0.9c-0.3,0.3-0.7,0.4-1.1,0.4
		s-0.8-0.1-1.1-0.3c0-0.3,0.1-0.5,0.3-0.7c0.2,0.1,0.4,0.2,0.7,0.2s0.4-0.1,0.5-0.2s0.2-0.2,0.2-0.4c0-0.2-0.1-0.3-0.2-0.4
		s-0.2-0.2-0.4-0.2s-0.3,0-0.4,0.1C137.8,134.8,137.7,134.7,137.7,134.6z"/>
	<path fill="#FFFFFF" d="M147.9,133c-0.1,0.3-0.3,0.6-0.5,0.7c-0.5-0.1-0.9-0.4-1.1-0.9c-0.7,0.7-1.4,1-2.1,1s-1.2-0.2-1.6-0.6
		c-0.4-0.4-0.5-0.9-0.5-1.4c0-0.8,0.2-1.3,0.7-1.7c0.5-0.4,1.1-0.6,1.9-0.6c0.5,0,0.9,0,1.4,0.1v-0.6c0-0.8-0.4-1.3-1.2-1.3
		c-0.6,0-1.3,0.2-2.2,0.5c-0.3-0.3-0.4-0.6-0.4-1c1-0.4,1.9-0.6,2.9-0.6c0.7,0,1.3,0.2,1.7,0.6c0.4,0.4,0.6,1,0.6,1.8v2.9
		C147.6,132.4,147.7,132.8,147.9,133z M145.1,125.6l-0.8-0.4c-0.2-0.1-0.4-0.1-0.5-0.1s-0.3,0.1-0.5,0.3l-0.2,0.2
		c-0.1,0-0.3,0-0.4-0.1c-0.1-0.1-0.2-0.2-0.3-0.3l0.1-0.3c0.1-0.3,0.3-0.6,0.6-0.7c0.2-0.2,0.5-0.3,0.8-0.3c0.3,0,0.5,0.1,0.8,0.2
		l0.8,0.4c0.1,0.1,0.3,0.1,0.5,0.1s0.3-0.1,0.5-0.4l0.2-0.2c0.1,0,0.3,0.1,0.4,0.1c0.1,0.1,0.2,0.2,0.3,0.3l-0.1,0.3
		c-0.1,0.3-0.3,0.6-0.6,0.7c-0.2,0.2-0.5,0.3-0.7,0.3S145.4,125.7,145.1,125.6z M144.5,132.7c0.6,0,1.2-0.3,1.7-0.9v-1.3
		c-0.4,0-0.8-0.1-1.3-0.1c-0.5,0-0.8,0.1-1.1,0.3c-0.2,0.2-0.4,0.5-0.4,0.9c0,0.4,0.1,0.6,0.3,0.8S144.2,132.7,144.5,132.7z"/>
	<path fill="#FFFFFF" d="M154.3,127.3c0.7,0.7,1,1.6,1,2.9s-0.3,2.2-1,2.9c-0.5,0.5-1.2,0.8-2,0.8c-0.8,0-1.5-0.3-2-0.8
		c-0.7-0.7-1-1.6-1-2.9s0.3-2.2,1-2.9c0.5-0.5,1.2-0.8,2-0.8C153.1,126.5,153.8,126.8,154.3,127.3z M150.7,130.1
		c0,1.7,0.5,2.6,1.6,2.6c1.1,0,1.6-0.9,1.6-2.6c0-0.5,0-0.9-0.1-1.3c-0.1-0.4-0.3-0.7-0.5-0.9c-0.2-0.3-0.6-0.4-1-0.4
		c-0.4,0-0.7,0.1-1,0.4c-0.2,0.3-0.4,0.6-0.5,0.9S150.7,129.7,150.7,130.1z"/>
	<path fill="#FFFFFF" d="M156.7,135.8c-0.2-0.1-0.3-0.3-0.3-0.6c0,0,0-0.1,0-0.1c0.3-0.1,0.6-0.3,0.8-0.6s0.3-0.5,0.3-0.8
		c-0.3-0.1-0.5-0.1-0.5-0.2c-0.1-0.1-0.1-0.4-0.1-0.7s0-0.5,0.1-0.7c0.2-0.1,0.5-0.2,0.9-0.2c0.3,0,0.6,0.1,0.8,0.2
		c0.1,0.2,0.1,0.5,0.1,0.9c0,0.6-0.2,1.2-0.5,1.7C157.9,135.2,157.4,135.6,156.7,135.8z"/>
	<path fill="#FFFFFF" d="M167.1,126.6c0.7,0,1.3,0.3,1.7,1s0.6,1.5,0.6,2.6c0,1.1-0.3,2-0.9,2.6s-1.3,0.9-2.2,0.9s-1.7-0.2-2.5-0.5
		v-9.9l0.1-0.1h0.5c0.3,0,0.5,0.1,0.6,0.2s0.2,0.4,0.2,0.7v3.1C165.7,126.8,166.4,126.6,167.1,126.6z M166.7,127.7
		c-0.6,0-1.1,0.3-1.6,0.8v3.9c0.4,0.1,0.8,0.2,1.3,0.2s0.9-0.2,1.2-0.7c0.3-0.4,0.5-1.1,0.5-1.9s-0.1-1.4-0.4-1.8
		C167.5,127.9,167.1,127.7,166.7,127.7z"/>
	<path fill="#FFFFFF" d="M171.1,131.5v-3.3c0-0.5-0.1-1-0.2-1.2c0.2-0.2,0.5-0.3,0.8-0.3s0.5,0.1,0.6,0.2c0.1,0.1,0.2,0.4,0.2,0.7
		v3.6c0,0.5,0.1,0.9,0.2,1.1c0.1,0.2,0.4,0.3,0.7,0.3s0.7-0.1,1-0.3c0.3-0.2,0.6-0.4,0.9-0.7v-4.9c0.2,0,0.5-0.1,0.7-0.1
		s0.4,0,0.7,0.1v5c0,0.7,0.1,1.1,0.4,1.4c-0.1,0.3-0.3,0.5-0.5,0.7c-0.6-0.1-0.9-0.5-1.1-1c-0.7,0.7-1.5,1-2.4,1
		c-0.6,0-1.1-0.2-1.4-0.6C171.3,132.7,171.1,132.1,171.1,131.5z"/>
	<path fill="#FFFFFF" d="M178.2,133.1c0-0.2,0.1-0.3,0.1-0.5s0.2-0.3,0.3-0.4c0.8,0.4,1.4,0.6,1.9,0.6c0.5,0,0.8-0.1,1.1-0.3
		s0.4-0.4,0.4-0.7c0-0.4-0.3-0.8-0.9-1l-0.8-0.3c-1.2-0.4-1.8-1.1-1.8-2c0-0.6,0.2-1.1,0.7-1.5c0.5-0.4,1.1-0.6,1.8-0.6
		s1.5,0.2,2.2,0.5c0,0.2,0,0.4-0.1,0.6s-0.2,0.3-0.3,0.4c-0.7-0.3-1.3-0.4-1.9-0.4c-0.3,0-0.6,0.1-0.8,0.2c-0.2,0.2-0.3,0.3-0.3,0.6
		s0.1,0.4,0.2,0.6c0.1,0.1,0.4,0.3,0.7,0.4l0.8,0.3c1.2,0.5,1.8,1.2,1.8,2.1c0,0.6-0.2,1.1-0.7,1.5c-0.5,0.4-1.2,0.6-2,0.6
		C179.8,133.8,179,133.5,178.2,133.1z"/>
	<path fill="#FFFFFF" d="M188.7,129.3c0,0,0-0.1,0-0.1c0-1.1-0.4-1.6-1.3-1.6c-0.5,0-0.8,0.2-1.1,0.7c-0.3,0.4-0.4,1.1-0.4,2
		c0,1.6,0.5,2.5,1.6,2.5c0.5,0,1.1-0.2,1.7-0.7c0.1,0.1,0.3,0.2,0.4,0.3c0.1,0.2,0.2,0.3,0.2,0.5c-0.7,0.7-1.5,1-2.5,1
		s-1.7-0.3-2.1-1c-0.5-0.7-0.7-1.6-0.7-2.7s0.3-2,0.8-2.6c0.6-0.6,1.2-0.9,2-0.9s1.4,0.2,1.9,0.7c0.4,0.4,0.7,0.9,0.7,1.4
		c0,0.5-0.2,0.8-0.7,0.8C189,129.4,188.8,129.3,188.7,129.3z"/>
	<path fill="#FFFFFF" d="M196.9,133c-0.1,0.3-0.3,0.6-0.5,0.7c-0.5-0.1-0.9-0.4-1.1-0.9c-0.7,0.7-1.4,1-2.1,1s-1.2-0.2-1.6-0.6
		c-0.4-0.4-0.5-0.9-0.5-1.4c0-0.8,0.2-1.3,0.7-1.7c0.5-0.4,1.1-0.6,1.9-0.6c0.5,0,0.9,0,1.4,0.1v-0.6c0-0.8-0.4-1.3-1.2-1.3
		c-0.6,0-1.3,0.2-2.2,0.5c-0.3-0.3-0.4-0.6-0.4-1c1-0.4,1.9-0.6,2.9-0.6c0.7,0,1.3,0.2,1.7,0.6c0.4,0.4,0.6,1,0.6,1.8v2.9
		C196.5,132.4,196.6,132.8,196.9,133z M193.4,132.7c0.6,0,1.2-0.3,1.7-0.9v-1.3c-0.4,0-0.8-0.1-1.3-0.1c-0.5,0-0.8,0.1-1.1,0.3
		c-0.2,0.2-0.4,0.5-0.4,0.9c0,0.4,0.1,0.6,0.3,0.8S193.1,132.7,193.4,132.7z"/>
	<path fill="#FFFFFF" d="M204.1,128.8v3.3c0,0.6,0.1,1,0.2,1.2c-0.2,0.2-0.5,0.3-0.8,0.3c-0.5,0-0.7-0.3-0.7-0.9v-3.6
		c0-0.5-0.1-0.9-0.2-1.1s-0.4-0.3-0.7-0.3c-0.3,0-0.7,0.1-1,0.3s-0.6,0.4-0.9,0.7v4.9c-0.2,0-0.4,0.1-0.7,0.1c-0.3,0-0.5,0-0.7-0.1
		v-6.9l0.1-0.1h0.5c0.5,0,0.7,0.3,0.8,0.9c0.7-0.6,1.5-1,2.3-1c0.6,0,1.1,0.2,1.4,0.6C204,127.6,204.1,128.2,204.1,128.8z"/>
	<path fill="#FFFFFF" d="M208.2,133.8c-0.8,0-1.4-0.3-1.8-1c-0.4-0.6-0.6-1.5-0.6-2.7c0-1.1,0.3-2,0.8-2.6s1.2-0.9,1.9-0.9
		c0.5,0,1.1,0.2,1.6,0.5v-3.7l0.1-0.1h0.5c0.3,0,0.5,0.1,0.6,0.2c0.1,0.1,0.2,0.4,0.2,0.7v7.5c0,0.7,0.1,1.1,0.4,1.4
		c-0.1,0.3-0.3,0.6-0.5,0.7c-0.5-0.1-0.8-0.4-1-0.9C209.7,133.5,209,133.8,208.2,133.8z M208.5,132.6c0.6,0,1.1-0.3,1.6-0.9v-3.5
		c-0.5-0.4-1-0.5-1.4-0.5c-0.4,0-0.8,0.2-1.1,0.7c-0.3,0.4-0.4,1.1-0.4,1.9s0.1,1.4,0.4,1.8S208.1,132.6,208.5,132.6z"/>
	<path fill="#FFFFFF" d="M218.2,127.3c0.7,0.7,1,1.6,1,2.9s-0.3,2.2-1,2.9c-0.5,0.5-1.2,0.8-2,0.8c-0.8,0-1.5-0.3-2-0.8
		c-0.7-0.7-1-1.6-1-2.9s0.3-2.2,1-2.9c0.5-0.5,1.2-0.8,2-0.8C217.1,126.5,217.7,126.8,218.2,127.3z M214.6,130.1
		c0,1.7,0.5,2.6,1.6,2.6c1.1,0,1.6-0.9,1.6-2.6c0-0.5,0-0.9-0.1-1.3c-0.1-0.4-0.3-0.7-0.5-0.9c-0.2-0.3-0.6-0.4-1-0.4
		c-0.4,0-0.7,0.1-1,0.4c-0.2,0.3-0.4,0.6-0.5,0.9S214.6,129.7,214.6,130.1z"/>
	<path fill="#FFFFFF" d="M223.4,133.1c0-0.2,0.1-0.3,0.1-0.5s0.2-0.3,0.3-0.4c0.8,0.4,1.4,0.6,1.9,0.6c0.5,0,0.8-0.1,1.1-0.3
		s0.4-0.4,0.4-0.7c0-0.4-0.3-0.8-0.9-1l-0.8-0.3c-1.2-0.4-1.8-1.1-1.8-2c0-0.6,0.2-1.1,0.7-1.5c0.5-0.4,1.1-0.6,1.8-0.6
		s1.5,0.2,2.2,0.5c0,0.2,0,0.4-0.1,0.6s-0.2,0.3-0.3,0.4c-0.7-0.3-1.3-0.4-1.9-0.4c-0.3,0-0.6,0.1-0.8,0.2c-0.2,0.2-0.3,0.3-0.3,0.6
		s0.1,0.4,0.2,0.6c0.1,0.1,0.4,0.3,0.7,0.4l0.8,0.3c1.2,0.5,1.8,1.2,1.8,2.1c0,0.6-0.2,1.1-0.7,1.5c-0.5,0.4-1.2,0.6-2,0.6
		C225,133.8,224.2,133.5,223.4,133.1z"/>
	<path fill="#FFFFFF" d="M235.3,130.6h-4.2c0,0.7,0.2,1.2,0.4,1.5c0.3,0.4,0.7,0.5,1.3,0.5s1.2-0.2,1.9-0.5c0.2,0.2,0.4,0.5,0.4,0.9
		c-0.7,0.5-1.6,0.8-2.6,0.8c-1,0-1.7-0.3-2.2-1s-0.7-1.5-0.7-2.6s0.3-2,0.7-2.6c0.5-0.7,1.2-1,2.1-1c0.9,0,1.6,0.3,2.1,0.8
		c0.5,0.6,0.7,1.3,0.7,2.1C235.4,129.9,235.3,130.2,235.3,130.6z M233.7,128c-0.2-0.4-0.6-0.5-1.1-0.5c-0.5,0-0.8,0.2-1.1,0.5
		s-0.4,0.9-0.4,1.5h2.9v-0.2C234,128.8,233.9,128.4,233.7,128z"/>
	<path fill="#FFFFFF" d="M241,129.2c0-0.5-0.1-0.8-0.2-1.1c-0.1-0.2-0.4-0.3-0.7-0.3c-0.5,0-1.1,0.3-1.6,0.9v4.9
		c-0.2,0-0.4,0.1-0.7,0.1c-0.3,0-0.5,0-0.7-0.1v-6.9l0.1-0.1h0.5c0.5,0,0.7,0.3,0.8,0.9c0.6-0.6,1.3-1,2-1s1.3,0.3,1.6,1
		c0.7-0.7,1.5-1,2.2-1c0.6,0,1,0.2,1.3,0.6c0.3,0.4,0.5,0.9,0.5,1.6v3.4c0,0.5,0.1,1,0.2,1.2c-0.2,0.2-0.5,0.3-0.9,0.3
		c-0.5,0-0.7-0.3-0.7-0.9v-3.7c0-0.5-0.1-0.8-0.2-1.1c-0.1-0.2-0.4-0.3-0.7-0.3c-0.6,0-1.1,0.3-1.6,0.9v4.9c-0.2,0-0.4,0.1-0.7,0.1
		c-0.3,0-0.5,0-0.7-0.1V129.2z"/>
	<path fill="#FFFFFF" d="M251.6,126.5c0.8,0,1.3,0.3,1.8,1c0.4,0.6,0.6,1.5,0.6,2.7c0,1.1-0.3,2-0.8,2.6s-1.2,0.9-1.9,0.9
		c-0.6,0-1.1-0.2-1.7-0.5v2.5c0,0.3-0.1,0.5-0.2,0.7c-0.1,0.1-0.3,0.2-0.6,0.2h-0.5l-0.1-0.1v-9.8l0.1-0.1h0.4
		c0.4,0,0.7,0.2,0.8,0.7C250.2,126.8,250.8,126.5,251.6,126.5z M251.3,127.7c-0.7,0-1.2,0.3-1.6,1v3.4c0.5,0.4,1,0.5,1.4,0.5
		c0.4,0,0.8-0.2,1.1-0.7c0.3-0.4,0.4-1.1,0.4-1.9s-0.1-1.4-0.4-1.8C252,127.9,251.7,127.7,251.3,127.7z"/>
	<path fill="#FFFFFF" d="M255.4,127.3c0.1-0.3,0.2-0.6,0.5-0.7c0.6,0.1,1,0.6,1.2,1.2c0.4-0.8,1-1.2,1.8-1.2c0.2,0,0.5,0,0.7,0.1
		c0,0.5-0.1,0.9-0.3,1.3c-0.1,0-0.2,0-0.6-0.1c-0.7,0-1.2,0.4-1.5,1.1v4.6c-0.2,0-0.4,0.1-0.7,0.1s-0.5,0-0.7-0.1v-4.8
		C255.9,128.1,255.7,127.6,255.4,127.3z"/>
	<path fill="#FFFFFF" d="M265.9,130.6h-4.2c0,0.7,0.2,1.2,0.4,1.5c0.3,0.4,0.7,0.5,1.3,0.5s1.2-0.2,1.9-0.5c0.2,0.2,0.4,0.5,0.4,0.9
		c-0.7,0.5-1.6,0.8-2.6,0.8c-1,0-1.7-0.3-2.2-1s-0.7-1.5-0.7-2.6s0.3-2,0.7-2.6c0.5-0.7,1.2-1,2.1-1c0.9,0,1.6,0.3,2.1,0.8
		c0.5,0.6,0.7,1.3,0.7,2.1C266,129.9,266,130.2,265.9,130.6z M264.4,128c-0.2-0.4-0.6-0.5-1.1-0.5c-0.5,0-0.8,0.2-1.1,0.5
		s-0.4,0.9-0.4,1.5h2.9v-0.2C264.7,128.8,264.6,128.4,264.4,128z"/>
	<path fill="#FFFFFF" d="M104.1,144.1c0.7,0.7,1,1.6,1,2.9s-0.3,2.2-1,2.9c-0.5,0.5-1.2,0.8-2,0.8c-0.8,0-1.5-0.3-2-0.8
		c-0.7-0.7-1-1.6-1-2.9s0.3-2.2,1-2.9c0.5-0.5,1.2-0.8,2-0.8C102.9,143.3,103.6,143.6,104.1,144.1z M100.5,146.9
		c0,1.7,0.5,2.6,1.6,2.6c1.1,0,1.6-0.9,1.6-2.6c0-0.5,0-0.9-0.1-1.3c-0.1-0.4-0.3-0.7-0.5-0.9c-0.2-0.3-0.6-0.4-1-0.4
		c-0.4,0-0.7,0.1-1,0.4c-0.2,0.3-0.4,0.6-0.5,0.9S100.5,146.5,100.5,146.9z"/>
	<path fill="#FFFFFF" d="M110.1,143.3c0.8,0,1.3,0.3,1.8,1c0.4,0.6,0.6,1.5,0.6,2.7c0,1.1-0.3,2-0.8,2.6s-1.2,0.9-1.9,0.9
		c-0.6,0-1.1-0.2-1.7-0.5v2.5c0,0.3-0.1,0.5-0.2,0.7c-0.1,0.1-0.3,0.2-0.6,0.2H107l-0.1-0.1v-9.8l0.1-0.1h0.4c0.4,0,0.7,0.2,0.8,0.7
		C108.7,143.6,109.4,143.3,110.1,143.3z M109.8,144.5c-0.7,0-1.2,0.3-1.6,1v3.4c0.5,0.4,1,0.5,1.4,0.5c0.4,0,0.8-0.2,1.1-0.7
		c0.3-0.4,0.4-1.1,0.4-1.9s-0.1-1.4-0.4-1.8C110.5,144.7,110.2,144.5,109.8,144.5z"/>
	<path fill="#FFFFFF" d="M118.8,144.1c0.7,0.7,1,1.6,1,2.9s-0.3,2.2-1,2.9c-0.5,0.5-1.2,0.8-2,0.8c-0.8,0-1.5-0.3-2-0.8
		c-0.7-0.7-1-1.6-1-2.9s0.3-2.2,1-2.9c0.5-0.5,1.2-0.8,2-0.8C117.6,143.3,118.3,143.6,118.8,144.1z M115.2,146.9
		c0,1.7,0.5,2.6,1.6,2.6c1.1,0,1.6-0.9,1.6-2.6c0-0.5,0-0.9-0.1-1.3c-0.1-0.4-0.3-0.7-0.5-0.9c-0.2-0.3-0.6-0.4-1-0.4
		c-0.4,0-0.7,0.1-1,0.4c-0.2,0.3-0.4,0.6-0.5,0.9S115.2,146.5,115.2,146.9z"/>
	<path fill="#FFFFFF" d="M121.2,144.1c0.1-0.3,0.2-0.6,0.5-0.7c0.6,0.1,1,0.6,1.2,1.2c0.4-0.8,1-1.2,1.8-1.2c0.2,0,0.5,0,0.7,0.1
		c0,0.5-0.1,0.9-0.3,1.3c-0.1,0-0.2,0-0.6-0.1c-0.7,0-1.2,0.4-1.5,1.1v4.6c-0.2,0-0.4,0.1-0.7,0.1s-0.5,0-0.7-0.1v-4.8
		C121.7,144.9,121.5,144.4,121.2,144.1z"/>
	<path fill="#FFFFFF" d="M130.3,143.5c0,0.2,0.1,0.3,0.1,0.5c0,0.2,0,0.3-0.1,0.5l-1.8,0v4.3c0,0.4,0.2,0.6,0.6,0.6h1
		c0.1,0.2,0.1,0.4,0.1,0.6s0,0.3,0,0.4c-0.5,0.1-1.1,0.1-1.5,0.1c-1,0-1.4-0.5-1.4-1.4v-4.6l-1,0c0-0.1-0.1-0.3-0.1-0.5
		c0-0.2,0-0.4,0.1-0.5l1,0v-1.3c0-0.3,0.1-0.5,0.2-0.7s0.3-0.2,0.6-0.2h0.5l0.1,0.1v2.1L130.3,143.5z"/>
	<path fill="#FFFFFF" d="M131.7,148.3v-3.3c0-0.5-0.1-1-0.2-1.2c0.2-0.2,0.5-0.3,0.8-0.3s0.5,0.1,0.6,0.2c0.1,0.1,0.2,0.4,0.2,0.7
		v3.6c0,0.5,0.1,0.9,0.2,1.1c0.1,0.2,0.4,0.3,0.7,0.3s0.7-0.1,1-0.3c0.3-0.2,0.6-0.4,0.9-0.7v-4.9c0.2,0,0.5-0.1,0.7-0.1
		s0.4,0,0.7,0.1v5c0,0.7,0.1,1.1,0.4,1.4c-0.1,0.3-0.3,0.5-0.5,0.7c-0.6-0.1-0.9-0.5-1.1-1c-0.7,0.7-1.5,1-2.4,1
		c-0.6,0-1.1-0.2-1.4-0.6C131.9,149.5,131.7,148.9,131.7,148.3z"/>
	<path fill="#FFFFFF" d="M144.9,145.6v3.3c0,0.6,0.1,1,0.2,1.2c-0.2,0.2-0.5,0.3-0.8,0.3c-0.5,0-0.7-0.3-0.7-0.9V146
		c0-0.5-0.1-0.9-0.2-1.1s-0.4-0.3-0.7-0.3c-0.3,0-0.7,0.1-1,0.3s-0.6,0.4-0.9,0.7v4.9c-0.2,0-0.4,0.1-0.7,0.1c-0.3,0-0.5,0-0.7-0.1
		v-6.9l0.1-0.1h0.5c0.5,0,0.7,0.3,0.8,0.9c0.7-0.6,1.5-1,2.3-1c0.6,0,1.1,0.2,1.4,0.6C144.8,144.4,144.9,145,144.9,145.6z"/>
	<path fill="#FFFFFF" d="M148.6,144.6v5.8c-0.2,0-0.4,0.1-0.7,0.1c-0.3,0-0.5,0-0.7-0.1v-5.2c0-0.3,0-0.4-0.1-0.5
		c-0.1-0.1-0.2-0.2-0.5-0.2h-0.2c0-0.1-0.1-0.3-0.1-0.5c0-0.2,0-0.3,0.1-0.5c0.3,0,0.6-0.1,0.8-0.1h0.2c0.3,0,0.6,0.1,0.8,0.3
		C148.5,144,148.6,144.3,148.6,144.6z M146.8,141.6c0-0.2,0-0.4,0.1-0.6c0.2-0.1,0.5-0.2,0.8-0.2s0.6,0.1,0.7,0.2
		c0.1,0.2,0.1,0.4,0.1,0.6c0,0.2,0,0.4-0.1,0.6c-0.2,0.1-0.4,0.2-0.7,0.2c-0.3,0-0.6-0.1-0.8-0.2C146.9,142,146.8,141.8,146.8,141.6
		z"/>
	<path fill="#FFFFFF" d="M152.8,150.6c-0.8,0-1.4-0.3-1.8-1c-0.4-0.6-0.6-1.5-0.6-2.7c0-1.1,0.3-2,0.8-2.6s1.2-0.9,1.9-0.9
		c0.5,0,1.1,0.2,1.6,0.5v-3.7l0.1-0.1h0.5c0.3,0,0.5,0.1,0.6,0.2c0.1,0.1,0.2,0.4,0.2,0.7v7.5c0,0.7,0.1,1.1,0.4,1.4
		c-0.1,0.3-0.3,0.6-0.5,0.7c-0.5-0.1-0.8-0.4-1-0.9C154.2,150.3,153.6,150.6,152.8,150.6z M153.1,149.4c0.6,0,1.1-0.3,1.6-0.9V145
		c-0.5-0.4-1-0.5-1.4-0.5c-0.4,0-0.8,0.2-1.1,0.7c-0.3,0.4-0.4,1.1-0.4,1.9s0.1,1.4,0.4,1.8S152.7,149.4,153.1,149.4z"/>
	<path fill="#FFFFFF" d="M163.5,149.8c-0.1,0.3-0.3,0.6-0.5,0.7c-0.5-0.1-0.9-0.4-1.1-0.9c-0.7,0.7-1.4,1-2.1,1s-1.2-0.2-1.6-0.6
		c-0.4-0.4-0.5-0.9-0.5-1.4c0-0.8,0.2-1.3,0.7-1.7c0.5-0.4,1.1-0.6,1.9-0.6c0.5,0,0.9,0,1.4,0.1v-0.6c0-0.8-0.4-1.3-1.2-1.3
		c-0.6,0-1.3,0.2-2.2,0.5c-0.3-0.3-0.4-0.6-0.4-1c1-0.4,1.9-0.6,2.9-0.6c0.7,0,1.3,0.2,1.7,0.6c0.4,0.4,0.6,1,0.6,1.8v2.9
		C163.2,149.2,163.3,149.6,163.5,149.8z M160.1,149.5c0.6,0,1.2-0.3,1.7-0.9v-1.3c-0.4,0-0.8-0.1-1.3-0.1c-0.5,0-0.8,0.1-1.1,0.3
		c-0.2,0.2-0.4,0.5-0.4,0.9c0,0.4,0.1,0.6,0.3,0.8S159.8,149.5,160.1,149.5z"/>
	<path fill="#FFFFFF" d="M167.2,150.6c-0.8,0-1.4-0.3-1.8-1c-0.4-0.6-0.6-1.5-0.6-2.7c0-1.1,0.3-2,0.8-2.6s1.2-0.9,1.9-0.9
		c0.5,0,1.1,0.2,1.6,0.5v-3.7l0.1-0.1h0.5c0.3,0,0.5,0.1,0.6,0.2c0.1,0.1,0.2,0.4,0.2,0.7v7.5c0,0.7,0.1,1.1,0.4,1.4
		c-0.1,0.3-0.3,0.6-0.5,0.7c-0.5-0.1-0.8-0.4-1-0.9C168.6,150.3,167.9,150.6,167.2,150.6z M167.4,149.4c0.6,0,1.1-0.3,1.6-0.9V145
		c-0.5-0.4-1-0.5-1.4-0.5c-0.4,0-0.8,0.2-1.1,0.7c-0.3,0.4-0.4,1.1-0.4,1.9s0.1,1.4,0.4,1.8S167,149.4,167.4,149.4z"/>
	<path fill="#FFFFFF" d="M177.7,147.4h-4.2c0,0.7,0.2,1.2,0.4,1.5c0.3,0.4,0.7,0.5,1.3,0.5s1.2-0.2,1.9-0.5c0.2,0.2,0.4,0.5,0.4,0.9
		c-0.7,0.5-1.6,0.8-2.6,0.8c-1,0-1.7-0.3-2.2-1s-0.7-1.5-0.7-2.6s0.3-2,0.7-2.6c0.5-0.7,1.2-1,2.1-1c0.9,0,1.6,0.3,2.1,0.8
		c0.5,0.6,0.7,1.3,0.7,2.1C177.8,146.7,177.8,147,177.7,147.4z M176.1,144.8c-0.2-0.4-0.6-0.5-1.1-0.5c-0.5,0-0.8,0.2-1.1,0.5
		s-0.4,0.9-0.4,1.5h2.9v-0.2C176.5,145.6,176.4,145.2,176.1,144.8z"/>
	<path fill="#FFFFFF" d="M179,149.9c0-0.2,0.1-0.3,0.1-0.5s0.2-0.3,0.3-0.4c0.8,0.4,1.4,0.6,1.9,0.6c0.5,0,0.8-0.1,1.1-0.3
		s0.4-0.4,0.4-0.7c0-0.4-0.3-0.8-0.9-1l-0.8-0.3c-1.2-0.4-1.8-1.1-1.8-2c0-0.6,0.2-1.1,0.7-1.5c0.5-0.4,1.1-0.6,1.8-0.6
		s1.5,0.2,2.2,0.5c0,0.2,0,0.4-0.1,0.6s-0.2,0.3-0.3,0.4c-0.7-0.3-1.3-0.4-1.9-0.4c-0.3,0-0.6,0.1-0.8,0.2c-0.2,0.2-0.3,0.3-0.3,0.6
		s0.1,0.4,0.2,0.6c0.1,0.1,0.4,0.3,0.7,0.4l0.8,0.3c1.2,0.5,1.8,1.2,1.8,2.1c0,0.6-0.2,1.1-0.7,1.5c-0.5,0.4-1.2,0.6-2,0.6
		C180.5,150.6,179.7,150.3,179,149.9z"/>
	<path fill="#FFFFFF" d="M190.8,150.6c-0.8,0-1.4-0.3-1.8-1c-0.4-0.6-0.6-1.5-0.6-2.7c0-1.1,0.3-2,0.8-2.6s1.2-0.9,1.9-0.9
		c0.5,0,1.1,0.2,1.6,0.5v-3.7l0.1-0.1h0.5c0.3,0,0.5,0.1,0.6,0.2c0.1,0.1,0.2,0.4,0.2,0.7v7.5c0,0.7,0.1,1.1,0.4,1.4
		c-0.1,0.3-0.3,0.6-0.5,0.7c-0.5-0.1-0.8-0.4-1-0.9C192.2,150.3,191.6,150.6,190.8,150.6z M191,149.4c0.6,0,1.1-0.3,1.6-0.9V145
		c-0.5-0.4-1-0.5-1.4-0.5c-0.4,0-0.8,0.2-1.1,0.7c-0.3,0.4-0.4,1.1-0.4,1.9s0.1,1.4,0.4,1.8S190.7,149.4,191,149.4z"/>
	<path fill="#FFFFFF" d="M201.3,147.4h-4.2c0,0.7,0.2,1.2,0.4,1.5c0.3,0.4,0.7,0.5,1.3,0.5s1.2-0.2,1.9-0.5c0.2,0.2,0.4,0.5,0.4,0.9
		c-0.7,0.5-1.6,0.8-2.6,0.8c-1,0-1.7-0.3-2.2-1s-0.7-1.5-0.7-2.6s0.3-2,0.7-2.6c0.5-0.7,1.2-1,2.1-1c0.9,0,1.6,0.3,2.1,0.8
		c0.5,0.6,0.7,1.3,0.7,2.1C201.4,146.7,201.4,147,201.3,147.4z M199.7,144.8c-0.2-0.4-0.6-0.5-1.1-0.5c-0.5,0-0.8,0.2-1.1,0.5
		s-0.4,0.9-0.4,1.5h2.9v-0.2C200.1,145.6,200,145.2,199.7,144.8z"/>
	<path fill="#FFFFFF" d="M211.8,145.6v3.3c0,0.6,0.1,1,0.2,1.2c-0.2,0.2-0.5,0.3-0.8,0.3c-0.5,0-0.7-0.3-0.7-0.9V146
		c0-0.5-0.1-0.9-0.2-1.1s-0.4-0.3-0.7-0.3c-0.3,0-0.7,0.1-1,0.3s-0.6,0.4-0.9,0.7v4.9c-0.2,0-0.4,0.1-0.7,0.1c-0.3,0-0.5,0-0.7-0.1
		v-6.9l0.1-0.1h0.5c0.5,0,0.7,0.3,0.8,0.9c0.7-0.6,1.5-1,2.3-1c0.6,0,1.1,0.2,1.4,0.6C211.6,144.4,211.8,145,211.8,145.6z"/>
	<path fill="#FFFFFF" d="M218.9,147.4h-4.2c0,0.7,0.2,1.2,0.4,1.5c0.3,0.4,0.7,0.5,1.3,0.5s1.2-0.2,1.9-0.5c0.2,0.2,0.4,0.5,0.4,0.9
		c-0.7,0.5-1.6,0.8-2.6,0.8c-1,0-1.7-0.3-2.2-1s-0.7-1.5-0.7-2.6s0.3-2,0.7-2.6c0.5-0.7,1.2-1,2.1-1c0.9,0,1.6,0.3,2.1,0.8
		c0.5,0.6,0.7,1.3,0.7,2.1C219,146.7,219,147,218.9,147.4z M217.3,144.8c-0.2-0.4-0.6-0.5-1.1-0.5c-0.5,0-0.8,0.2-1.1,0.5
		s-0.4,0.9-0.4,1.5h2.9v-0.2C217.7,145.6,217.6,145.2,217.3,144.8z"/>
	<path fill="#FFFFFF" d="M222.6,150.5c-0.7,0-1.3-0.3-1.7-1c-0.4-0.6-0.6-1.5-0.6-2.7s0.3-2,0.8-2.6s1.2-0.9,1.9-0.9
		c0.7,0,1.4,0.2,1.9,0.7c0.2-0.3,0.5-0.6,0.9-0.7c0.3,0.1,0.4,0.4,0.5,0.7c-0.3,0.2-0.4,0.7-0.4,1.4v4.2c0,1.4-0.2,2.4-0.7,2.9
		c-0.5,0.6-1.3,0.9-2.3,0.9c-0.8,0-1.6-0.2-2.4-0.5c0-0.4,0.1-0.8,0.4-1c0.6,0.3,1.3,0.4,1.9,0.4c0.7,0,1.1-0.2,1.4-0.5
		s0.4-0.9,0.4-1.5v-0.7C224,150.3,223.3,150.5,222.6,150.5z M224.6,148.5v-3.4c-0.5-0.4-1-0.7-1.4-0.7s-0.8,0.2-1.1,0.6
		s-0.4,1.1-0.4,1.9s0.1,1.4,0.4,1.8c0.2,0.4,0.6,0.6,0.9,0.6C223.5,149.4,224.1,149.1,224.6,148.5z"/>
	<path fill="#FFFFFF" d="M232.5,144.1c0.7,0.7,1,1.6,1,2.9s-0.3,2.2-1,2.9c-0.5,0.5-1.2,0.8-2,0.8c-0.8,0-1.5-0.3-2-0.8
		c-0.7-0.7-1-1.6-1-2.9s0.3-2.2,1-2.9c0.5-0.5,1.2-0.8,2-0.8C231.3,143.3,232,143.6,232.5,144.1z M228.9,146.9
		c0,1.7,0.5,2.6,1.6,2.6c1.1,0,1.6-0.9,1.6-2.6c0-0.5,0-0.9-0.1-1.3c-0.1-0.4-0.3-0.7-0.5-0.9c-0.2-0.3-0.6-0.4-1-0.4
		c-0.4,0-0.7,0.1-1,0.4c-0.2,0.3-0.4,0.6-0.5,0.9S228.9,146.5,228.9,146.9z M229.4,142.3l2-2.2c0.2,0.1,0.4,0.2,0.6,0.4
		c0.2,0.2,0.3,0.4,0.4,0.6l-2.4,1.9C229.7,142.8,229.5,142.6,229.4,142.3z"/>
	<path fill="#FFFFFF" d="M238.8,146.1c0,0,0-0.1,0-0.1c0-1.1-0.4-1.6-1.3-1.6c-0.5,0-0.8,0.2-1.1,0.7c-0.3,0.4-0.4,1.1-0.4,2
		c0,1.6,0.5,2.5,1.6,2.5c0.5,0,1.1-0.2,1.7-0.7c0.1,0.1,0.3,0.2,0.4,0.3c0.1,0.2,0.2,0.3,0.2,0.5c-0.7,0.7-1.5,1-2.5,1
		s-1.7-0.3-2.1-1c-0.5-0.7-0.7-1.6-0.7-2.7s0.3-2,0.8-2.6c0.6-0.6,1.2-0.9,2-0.9s1.4,0.2,1.9,0.7c0.4,0.4,0.7,0.9,0.7,1.4
		c0,0.5-0.2,0.8-0.7,0.8C239.1,146.2,238.9,146.1,238.8,146.1z"/>
	<path fill="#FFFFFF" d="M243.2,144.6v5.8c-0.2,0-0.4,0.1-0.7,0.1c-0.3,0-0.5,0-0.7-0.1v-5.2c0-0.3,0-0.4-0.1-0.5
		c-0.1-0.1-0.2-0.2-0.5-0.2h-0.2c0-0.1-0.1-0.3-0.1-0.5c0-0.2,0-0.3,0.1-0.5c0.3,0,0.6-0.1,0.8-0.1h0.2c0.3,0,0.6,0.1,0.8,0.3
		C243.1,144,243.2,144.3,243.2,144.6z M241.4,141.6c0-0.2,0-0.4,0.1-0.6c0.2-0.1,0.5-0.2,0.8-0.2s0.6,0.1,0.7,0.2
		c0.1,0.2,0.1,0.4,0.1,0.6c0,0.2,0,0.4-0.1,0.6c-0.2,0.1-0.4,0.2-0.7,0.2c-0.3,0-0.6-0.1-0.8-0.2C241.5,142,241.4,141.8,241.4,141.6
		z"/>
	<path fill="#FFFFFF" d="M249.8,144.1c0.7,0.7,1,1.6,1,2.9s-0.3,2.2-1,2.9c-0.5,0.5-1.2,0.8-2,0.8c-0.8,0-1.5-0.3-2-0.8
		c-0.7-0.7-1-1.6-1-2.9s0.3-2.2,1-2.9c0.5-0.5,1.2-0.8,2-0.8C248.6,143.3,249.3,143.6,249.8,144.1z M246.2,146.9
		c0,1.7,0.5,2.6,1.6,2.6c1.1,0,1.6-0.9,1.6-2.6c0-0.5,0-0.9-0.1-1.3c-0.1-0.4-0.3-0.7-0.5-0.9c-0.2-0.3-0.6-0.4-1-0.4
		c-0.4,0-0.7,0.1-1,0.4c-0.2,0.3-0.4,0.6-0.5,0.9S246.2,146.5,246.2,146.9z"/>
	<path fill="#FFFFFF" d="M118.7,160.1c0.8,0,1.3,0.3,1.8,1c0.4,0.6,0.6,1.5,0.6,2.7c0,1.1-0.3,2-0.8,2.6s-1.2,0.9-1.9,0.9
		c-0.6,0-1.1-0.2-1.7-0.5v2.5c0,0.3-0.1,0.5-0.2,0.7c-0.1,0.1-0.3,0.2-0.6,0.2h-0.5l-0.1-0.1v-9.8l0.1-0.1h0.4
		c0.4,0,0.7,0.2,0.8,0.7C117.2,160.4,117.9,160.1,118.7,160.1z M118.3,161.3c-0.7,0-1.2,0.3-1.6,1v3.4c0.5,0.4,1,0.5,1.4,0.5
		c0.4,0,0.8-0.2,1.1-0.7c0.3-0.4,0.4-1.1,0.4-1.9s-0.1-1.4-0.4-1.8C119,161.5,118.7,161.3,118.3,161.3z"/>
	<path fill="#FFFFFF" d="M127.2,160.9c0.7,0.7,1,1.6,1,2.9s-0.3,2.2-1,2.9c-0.5,0.5-1.2,0.8-2,0.8c-0.8,0-1.5-0.3-2-0.8
		c-0.7-0.7-1-1.6-1-2.9s0.3-2.2,1-2.9c0.5-0.5,1.2-0.8,2-0.8C126,160.1,126.7,160.4,127.2,160.9z M123.6,163.7
		c0,1.7,0.5,2.6,1.6,2.6c1.1,0,1.6-0.9,1.6-2.6c0-0.5,0-0.9-0.1-1.3c-0.1-0.4-0.3-0.7-0.5-0.9c-0.2-0.3-0.6-0.4-1-0.4
		c-0.4,0-0.7,0.1-1,0.4c-0.2,0.3-0.4,0.6-0.5,0.9S123.6,163.3,123.6,163.7z"/>
	<path fill="#FFFFFF" d="M129.4,160.9c0.1-0.3,0.2-0.6,0.5-0.7c0.6,0.1,1,0.6,1.2,1.2c0.4-0.8,1-1.2,1.8-1.2c0.2,0,0.5,0,0.7,0.1
		c0,0.5-0.1,0.9-0.3,1.3c-0.1,0-0.2,0-0.6-0.1c-0.7,0-1.2,0.4-1.5,1.1v4.6c-0.2,0-0.4,0.1-0.7,0.1s-0.5,0-0.7-0.1v-4.8
		C129.9,161.7,129.8,161.2,129.4,160.9z"/>
	<path fill="#FFFFFF" d="M141.5,162.8c0-0.5-0.1-0.8-0.2-1.1c-0.1-0.2-0.4-0.3-0.7-0.3c-0.5,0-1.1,0.3-1.6,0.9v4.9
		c-0.2,0-0.4,0.1-0.7,0.1c-0.3,0-0.5,0-0.7-0.1v-6.9l0.1-0.1h0.5c0.5,0,0.7,0.3,0.8,0.9c0.6-0.6,1.3-1,2-1s1.3,0.3,1.6,1
		c0.7-0.7,1.5-1,2.2-1c0.6,0,1,0.2,1.3,0.6c0.3,0.4,0.5,0.9,0.5,1.6v3.4c0,0.5,0.1,1,0.2,1.2c-0.2,0.2-0.5,0.3-0.9,0.3
		c-0.5,0-0.7-0.3-0.7-0.9v-3.7c0-0.5-0.1-0.8-0.2-1.1c-0.1-0.2-0.4-0.3-0.7-0.3c-0.6,0-1.1,0.3-1.6,0.9v4.9c-0.2,0-0.4,0.1-0.7,0.1
		c-0.3,0-0.5,0-0.7-0.1V162.8z"/>
	<path fill="#FFFFFF" d="M153.8,164.2h-4.2c0,0.7,0.2,1.2,0.4,1.5c0.3,0.4,0.7,0.5,1.3,0.5s1.2-0.2,1.9-0.5c0.2,0.2,0.4,0.5,0.4,0.9
		c-0.7,0.5-1.6,0.8-2.6,0.8c-1,0-1.7-0.3-2.2-1s-0.7-1.5-0.7-2.6s0.3-2,0.7-2.6c0.5-0.7,1.2-1,2.1-1c0.9,0,1.6,0.3,2.1,0.8
		c0.5,0.6,0.7,1.3,0.7,2.1C153.9,163.5,153.9,163.8,153.8,164.2z M152.2,161.6c-0.2-0.4-0.6-0.5-1.1-0.5c-0.5,0-0.8,0.2-1.1,0.5
		s-0.4,0.9-0.4,1.5h2.9V163C152.6,162.4,152.5,162,152.2,161.6z"/>
	<path fill="#FFFFFF" d="M157.1,161.4v5.8c-0.2,0-0.4,0.1-0.7,0.1c-0.3,0-0.5,0-0.7-0.1V162c0-0.3,0-0.4-0.1-0.5
		c-0.1-0.1-0.2-0.2-0.5-0.2H155c0-0.1-0.1-0.3-0.1-0.5c0-0.2,0-0.3,0.1-0.5c0.3,0,0.6-0.1,0.8-0.1h0.2c0.3,0,0.6,0.1,0.8,0.3
		C157,160.8,157.1,161.1,157.1,161.4z M155.3,158.4c0-0.2,0-0.4,0.1-0.6c0.2-0.1,0.5-0.2,0.8-0.2s0.6,0.1,0.7,0.2
		c0.1,0.2,0.1,0.4,0.1,0.6c0,0.2,0,0.4-0.1,0.6c-0.2,0.1-0.4,0.2-0.7,0.2c-0.3,0-0.6-0.1-0.8-0.2
		C155.4,158.8,155.3,158.6,155.3,158.4z"/>
	<path fill="#FFFFFF" d="M163.7,160.9c0.7,0.7,1,1.6,1,2.9s-0.3,2.2-1,2.9c-0.5,0.5-1.2,0.8-2,0.8c-0.8,0-1.5-0.3-2-0.8
		c-0.7-0.7-1-1.6-1-2.9s0.3-2.2,1-2.9c0.5-0.5,1.2-0.8,2-0.8C162.5,160.1,163.2,160.4,163.7,160.9z M160.1,163.7
		c0,1.7,0.5,2.6,1.6,2.6c1.1,0,1.6-0.9,1.6-2.6c0-0.5,0-0.9-0.1-1.3c-0.1-0.4-0.3-0.7-0.5-0.9c-0.2-0.3-0.6-0.4-1-0.4
		c-0.4,0-0.7,0.1-1,0.4c-0.2,0.3-0.4,0.6-0.5,0.9S160.1,163.3,160.1,163.7z"/>
	<path fill="#FFFFFF" d="M171.2,167.4c-0.8,0-1.4-0.3-1.8-1c-0.4-0.6-0.6-1.5-0.6-2.7c0-1.1,0.3-2,0.8-2.6s1.2-0.9,1.9-0.9
		c0.5,0,1.1,0.2,1.6,0.5V157l0.1-0.1h0.5c0.3,0,0.5,0.1,0.6,0.2c0.1,0.1,0.2,0.4,0.2,0.7v7.5c0,0.7,0.1,1.1,0.4,1.4
		c-0.1,0.3-0.3,0.6-0.5,0.7c-0.5-0.1-0.8-0.4-1-0.9C172.7,167.1,172,167.4,171.2,167.4z M171.5,166.2c0.6,0,1.1-0.3,1.6-0.9v-3.5
		c-0.5-0.4-1-0.5-1.4-0.5c-0.4,0-0.8,0.2-1.1,0.7c-0.3,0.4-0.4,1.1-0.4,1.9s0.1,1.4,0.4,1.8S171.1,166.2,171.5,166.2z"/>
	<path fill="#FFFFFF" d="M181.8,166.6c-0.1,0.3-0.3,0.6-0.5,0.7c-0.5-0.1-0.9-0.4-1.1-0.9c-0.7,0.7-1.4,1-2.1,1s-1.2-0.2-1.6-0.6
		c-0.4-0.4-0.5-0.9-0.5-1.4c0-0.8,0.2-1.3,0.7-1.7c0.5-0.4,1.1-0.6,1.9-0.6c0.5,0,0.9,0,1.4,0.1v-0.6c0-0.8-0.4-1.3-1.2-1.3
		c-0.6,0-1.3,0.2-2.2,0.5c-0.3-0.3-0.4-0.6-0.4-1c1-0.4,1.9-0.6,2.9-0.6c0.7,0,1.3,0.2,1.7,0.6c0.4,0.4,0.6,1,0.6,1.8v2.9
		C181.4,166,181.6,166.4,181.8,166.6z M178.4,166.3c0.6,0,1.2-0.3,1.7-0.9V164c-0.4,0-0.8-0.1-1.3-0.1c-0.5,0-0.8,0.1-1.1,0.3
		c-0.2,0.2-0.4,0.5-0.4,0.9c0,0.4,0.1,0.6,0.3,0.8S178.1,166.3,178.4,166.3z"/>
	<path fill="#FFFFFF" d="M185.8,166.7c0-0.2,0.1-0.3,0.1-0.5s0.2-0.3,0.3-0.4c0.8,0.4,1.4,0.6,1.9,0.6c0.5,0,0.8-0.1,1.1-0.3
		s0.4-0.4,0.4-0.7c0-0.4-0.3-0.8-0.9-1l-0.8-0.3c-1.2-0.4-1.8-1.1-1.8-2c0-0.6,0.2-1.1,0.7-1.5c0.5-0.4,1.1-0.6,1.8-0.6
		s1.5,0.2,2.2,0.5c0,0.2,0,0.4-0.1,0.6s-0.2,0.3-0.3,0.4c-0.7-0.3-1.3-0.4-1.9-0.4c-0.3,0-0.6,0.1-0.8,0.2c-0.2,0.2-0.3,0.3-0.3,0.6
		s0.1,0.4,0.2,0.6c0.1,0.1,0.4,0.3,0.7,0.4l0.8,0.3c1.2,0.5,1.8,1.2,1.8,2.1c0,0.6-0.2,1.1-0.7,1.5c-0.5,0.4-1.2,0.6-2,0.6
		C187.3,167.4,186.5,167.1,185.8,166.7z"/>
	<path fill="#FFFFFF" d="M193.9,161.4v5.8c-0.2,0-0.4,0.1-0.7,0.1c-0.3,0-0.5,0-0.7-0.1V162c0-0.3,0-0.4-0.1-0.5
		c-0.1-0.1-0.2-0.2-0.5-0.2h-0.2c0-0.1-0.1-0.3-0.1-0.5c0-0.2,0-0.3,0.1-0.5c0.3,0,0.6-0.1,0.8-0.1h0.2c0.3,0,0.6,0.1,0.8,0.3
		C193.8,160.8,193.9,161.1,193.9,161.4z M192.2,158.4c0-0.2,0-0.4,0.1-0.6c0.2-0.1,0.5-0.2,0.8-0.2s0.6,0.1,0.7,0.2
		c0.1,0.2,0.1,0.4,0.1,0.6c0,0.2,0,0.4-0.1,0.6c-0.2,0.1-0.4,0.2-0.7,0.2c-0.3,0-0.6-0.1-0.8-0.2
		C192.2,158.8,192.2,158.6,192.2,158.4z"/>
	<path fill="#FFFFFF" d="M201.5,162.4v3.3c0,0.6,0.1,1,0.2,1.2c-0.2,0.2-0.5,0.3-0.8,0.3c-0.5,0-0.7-0.3-0.7-0.9v-3.6
		c0-0.5-0.1-0.9-0.2-1.1s-0.4-0.3-0.7-0.3c-0.3,0-0.7,0.1-1,0.3s-0.6,0.4-0.9,0.7v4.9c-0.2,0-0.4,0.1-0.7,0.1c-0.3,0-0.5,0-0.7-0.1
		v-6.9l0.1-0.1h0.5c0.5,0,0.7,0.3,0.8,0.9c0.7-0.6,1.5-1,2.3-1c0.6,0,1.1,0.2,1.4,0.6C201.3,161.2,201.5,161.8,201.5,162.4z"/>
	<path fill="#FFFFFF" d="M208.6,164.2h-4.2c0,0.7,0.2,1.2,0.4,1.5c0.3,0.4,0.7,0.5,1.3,0.5s1.2-0.2,1.9-0.5c0.2,0.2,0.4,0.5,0.4,0.9
		c-0.7,0.5-1.6,0.8-2.6,0.8c-1,0-1.7-0.3-2.2-1s-0.7-1.5-0.7-2.6s0.3-2,0.7-2.6c0.5-0.7,1.2-1,2.1-1c0.9,0,1.6,0.3,2.1,0.8
		c0.5,0.6,0.7,1.3,0.7,2.1C208.7,163.5,208.7,163.8,208.6,164.2z M207,161.6c-0.2-0.4-0.6-0.5-1.1-0.5c-0.5,0-0.8,0.2-1.1,0.5
		s-0.4,0.9-0.4,1.5h2.9V163C207.4,162.4,207.3,162,207,161.6z"/>
	<path fill="#FFFFFF" d="M210,160.9c0.1-0.3,0.2-0.6,0.5-0.7c0.6,0.1,1,0.6,1.2,1.2c0.4-0.8,1-1.2,1.8-1.2c0.2,0,0.5,0,0.7,0.1
		c0,0.5-0.1,0.9-0.3,1.3c-0.1,0-0.2,0-0.6-0.1c-0.7,0-1.2,0.4-1.5,1.1v4.6c-0.2,0-0.4,0.1-0.7,0.1s-0.5,0-0.7-0.1v-4.8
		C210.5,161.7,210.4,161.2,210,160.9z"/>
	<path fill="#FFFFFF" d="M217.3,167.3c-0.7,0-1.3-0.3-1.7-1c-0.4-0.6-0.6-1.5-0.6-2.7s0.3-2,0.8-2.6s1.2-0.9,1.9-0.9
		c0.7,0,1.4,0.2,1.9,0.7c0.2-0.3,0.5-0.6,0.9-0.7c0.3,0.1,0.4,0.4,0.5,0.7c-0.3,0.2-0.4,0.7-0.4,1.4v4.2c0,1.4-0.2,2.4-0.7,2.9
		c-0.5,0.6-1.3,0.9-2.3,0.9c-0.8,0-1.6-0.2-2.4-0.5c0-0.4,0.1-0.8,0.4-1c0.6,0.3,1.3,0.4,1.9,0.4c0.7,0,1.1-0.2,1.4-0.5
		s0.4-0.9,0.4-1.5v-0.7C218.7,167.1,218,167.3,217.3,167.3z M219.2,165.3v-3.4c-0.5-0.4-1-0.7-1.4-0.7s-0.8,0.2-1.1,0.6
		s-0.4,1.1-0.4,1.9s0.1,1.4,0.4,1.8c0.2,0.4,0.6,0.6,0.9,0.6C218.2,166.2,218.8,165.9,219.2,165.3z"/>
	<path fill="#FFFFFF" d="M224.1,161.4v5.8c-0.2,0-0.4,0.1-0.7,0.1c-0.3,0-0.5,0-0.7-0.1V162c0-0.3,0-0.4-0.1-0.5
		c-0.1-0.1-0.2-0.2-0.5-0.2H222c0-0.1-0.1-0.3-0.1-0.5c0-0.2,0-0.3,0.1-0.5c0.3,0,0.6-0.1,0.8-0.1h0.2c0.3,0,0.6,0.1,0.8,0.3
		C224,160.8,224.1,161.1,224.1,161.4z M222.3,158.4c0-0.2,0-0.4,0.1-0.6c0.2-0.1,0.5-0.2,0.8-0.2s0.6,0.1,0.7,0.2
		c0.1,0.2,0.1,0.4,0.1,0.6c0,0.2,0,0.4-0.1,0.6c-0.2,0.1-0.4,0.2-0.7,0.2c-0.3,0-0.6-0.1-0.8-0.2
		C222.3,158.8,222.3,158.6,222.3,158.4z"/>
	<path fill="#FFFFFF" d="M231.5,166.6c-0.1,0.3-0.3,0.6-0.5,0.7c-0.5-0.1-0.9-0.4-1.1-0.9c-0.7,0.7-1.4,1-2.1,1s-1.2-0.2-1.6-0.6
		c-0.4-0.4-0.5-0.9-0.5-1.4c0-0.8,0.2-1.3,0.7-1.7c0.5-0.4,1.1-0.6,1.9-0.6c0.5,0,0.9,0,1.4,0.1v-0.6c0-0.8-0.4-1.3-1.2-1.3
		c-0.6,0-1.3,0.2-2.2,0.5c-0.3-0.3-0.4-0.6-0.4-1c1-0.4,1.9-0.6,2.9-0.6c0.7,0,1.3,0.2,1.7,0.6c0.4,0.4,0.6,1,0.6,1.8v2.9
		C231.1,166,231.2,166.4,231.5,166.6z M228,166.3c0.6,0,1.2-0.3,1.7-0.9V164c-0.4,0-0.8-0.1-1.3-0.1c-0.5,0-0.8,0.1-1.1,0.3
		c-0.2,0.2-0.4,0.5-0.4,0.9c0,0.4,0.1,0.6,0.3,0.8S227.7,166.3,228,166.3z"/>
	<path fill="#FFFFFF" d="M232.9,166.5c0-0.3,0-0.5,0.1-0.7c0.2-0.1,0.5-0.2,0.8-0.2c0.3,0,0.6,0.1,0.8,0.2c0.1,0.2,0.1,0.4,0.1,0.7
		c0,0.3,0,0.5-0.1,0.7c-0.2,0.1-0.4,0.2-0.8,0.2s-0.6-0.1-0.8-0.2C232.9,167,232.9,166.7,232.9,166.5z"/>
</g>
</svg>