<!-- Generator: Adobe Illustrator 17.1.0, SVG Export Plug-In  -->
<svg version="1.1"
	 xmlns="http://www.w3.org/2000/svg" xmlns:xlink="http://www.w3.org/1999/xlink" xmlns:a="http://ns.adobe.com/AdobeSVGViewerExtensions/3.0/"
	 x="0px" y="0px" width="252.3px" height="43.7px" viewBox="0 0 252.3 43.7" enable-background="new 0 0 252.3 43.7"
	 xml:space="preserve">
<defs>
</defs>
<rect y="0.5" fill="#A9D42D" width="4" height="43"/>
<g>
	<path fill="#FFFFFF" d="M13.4,9C12.5,8.2,12,6.9,12,5.1s0.5-3,1.4-3.8c0.6-0.5,1.3-0.8,2.2-0.8s1.6,0.3,2.2,0.8
		c0.9,0.8,1.4,2.1,1.4,3.8s-0.5,3-1.4,3.8c-0.6,0.5-1.3,0.8-2.2,0.8S14,9.5,13.4,9z M13.5,3.9c-0.1,0.4-0.1,0.8-0.1,1.2
		c0,0.5,0,0.9,0.1,1.2c0.1,0.4,0.2,0.8,0.3,1.1s0.4,0.7,0.7,0.9c0.3,0.2,0.7,0.3,1.1,0.3c0.4,0,0.7-0.1,1-0.2
		c0.3-0.1,0.5-0.3,0.7-0.6c0.2-0.2,0.3-0.5,0.4-0.8c0.2-0.6,0.3-1.1,0.3-1.7c0-0.6,0-1.1-0.1-1.5s-0.2-0.8-0.3-1.1
		c-0.2-0.4-0.4-0.7-0.7-0.9c-0.3-0.2-0.7-0.3-1.1-0.3c-0.4,0-0.8,0.1-1.1,0.3c-0.3,0.2-0.5,0.5-0.7,0.9S13.6,3.5,13.5,3.9z"/>
	<path fill="#FFFFFF" d="M20.3,9.1c0-0.1,0.1-0.3,0.1-0.5c0.1-0.2,0.2-0.3,0.3-0.4c0.7,0.4,1.3,0.6,1.7,0.6s0.8-0.1,1-0.2
		s0.3-0.4,0.3-0.6c0-0.4-0.3-0.7-0.8-0.9l-0.7-0.3c-1.1-0.4-1.7-1-1.7-1.8c0-0.6,0.2-1,0.6-1.4c0.4-0.3,1-0.5,1.7-0.5s1.4,0.2,2,0.5
		c0,0.2,0,0.3-0.1,0.5c-0.1,0.2-0.2,0.3-0.3,0.4C23.9,4.1,23.3,4,22.8,4c-0.3,0-0.5,0.1-0.7,0.2c-0.2,0.1-0.3,0.3-0.3,0.5
		s0.1,0.4,0.2,0.5c0.1,0.1,0.3,0.2,0.6,0.4l0.8,0.3c1.1,0.4,1.6,1.1,1.6,2c0,0.6-0.2,1-0.7,1.4s-1.1,0.5-1.8,0.5S21,9.5,20.3,9.1z"
		/>
	<path fill="#A9D42D" d="M32.6,2.9c0.7,0,1.2,0.3,1.6,0.9s0.6,1.4,0.6,2.5s-0.2,1.9-0.7,2.5c-0.5,0.6-1.1,0.9-1.8,0.9
		c-0.5,0-0.9-0.1-1.4-0.4v2.1c0,0.4-0.1,0.6-0.2,0.8c-0.1,0.2-0.4,0.2-0.7,0.2h-0.6l-0.1-0.1V3.1l0.1-0.1h0.5c0.5,0,0.8,0.2,0.9,0.6
		C31.3,3.2,31.9,2.9,32.6,2.9z M32.2,4.3c-0.5,0-0.9,0.2-1.2,0.7V8c0.4,0.3,0.8,0.4,1.1,0.4c0.3,0,0.6-0.2,0.8-0.6
		c0.2-0.4,0.3-0.9,0.3-1.6c0-0.7-0.1-1.2-0.3-1.5C32.7,4.4,32.5,4.3,32.2,4.3z"/>
	<path fill="#A9D42D" d="M41.6,6.3c0,1.2-0.3,2-0.9,2.7c-0.5,0.5-1.1,0.7-2,0.7c-0.8,0-1.5-0.2-2-0.7c-0.6-0.6-0.9-1.5-0.9-2.7
		c0-1.2,0.3-2,0.9-2.7c0.5-0.5,1.1-0.7,2-0.7c0.8,0,1.5,0.2,2,0.7C41.3,4.3,41.6,5.2,41.6,6.3z M38.8,4.2c-0.8,0-1.2,0.7-1.2,2.2
		s0.4,2.2,1.2,2.2c0.8,0,1.2-0.7,1.2-2.2S39.6,4.2,38.8,4.2z"/>
	<path fill="#A9D42D" d="M48.4,5.2v2.9c0,0.5,0.1,0.9,0.3,1.2c-0.3,0.2-0.6,0.3-1,0.3c-0.4,0-0.6-0.1-0.7-0.2
		c-0.1-0.2-0.2-0.4-0.2-0.8V5.6c0-0.4-0.1-0.7-0.2-0.8c-0.1-0.2-0.3-0.3-0.6-0.3c-0.5,0-0.9,0.2-1.4,0.7v4.5c-0.2,0-0.5,0.1-0.8,0.1
		s-0.6,0-0.8-0.1V3.1l0.1-0.1h0.6c0.5,0,0.8,0.3,0.9,0.8C45.3,3.3,45.9,3,46.5,3c0.6,0,1.1,0.2,1.4,0.6S48.4,4.6,48.4,5.2z"/>
	<path fill="#A9D42D" d="M53.6,3.1c0,0.2,0.1,0.4,0.1,0.6c0,0.2,0,0.4-0.1,0.6l-1.6,0v3.5c0,0.4,0.2,0.6,0.6,0.6h0.8
		c0.1,0.3,0.1,0.5,0.1,0.7s0,0.4,0,0.5c-0.5,0.1-1.1,0.1-1.5,0.1c-1,0-1.5-0.5-1.5-1.5V4.3l-1,0c0-0.2-0.1-0.4-0.1-0.6
		c0-0.2,0-0.4,0.1-0.6l1,0v-1c0-0.4,0.1-0.6,0.2-0.8s0.4-0.2,0.7-0.2h0.6L52,1.2v1.9L53.6,3.1z"/>
	<path fill="#A9D42D" d="M60.2,6.3c0,1.2-0.3,2-0.9,2.7c-0.5,0.5-1.1,0.7-2,0.7c-0.8,0-1.5-0.2-2-0.7c-0.6-0.6-0.9-1.5-0.9-2.7
		c0-1.2,0.3-2,0.9-2.7c0.5-0.5,1.1-0.7,2-0.7c0.8,0,1.5,0.2,2,0.7C59.9,4.3,60.2,5.2,60.2,6.3z M57.3,4.2c-0.8,0-1.2,0.7-1.2,2.2
		s0.4,2.2,1.2,2.2c0.8,0,1.2-0.7,1.2-2.2S58.1,4.2,57.3,4.2z"/>
	<path fill="#A9D42D" d="M61,9.1c0-0.2,0.1-0.4,0.2-0.6c0.1-0.2,0.2-0.4,0.3-0.5c0.7,0.4,1.3,0.6,1.8,0.6c0.3,0,0.6-0.1,0.7-0.2
		c0.2-0.1,0.3-0.3,0.3-0.5c0-0.3-0.2-0.6-0.7-0.8l-0.7-0.3c-1.1-0.4-1.6-1-1.6-1.9c0-0.6,0.2-1.1,0.7-1.5c0.4-0.4,1-0.6,1.8-0.6
		s1.5,0.2,2.2,0.5c0,0.2,0,0.4-0.1,0.6c-0.1,0.2-0.2,0.4-0.3,0.5c-0.6-0.3-1.2-0.4-1.8-0.4c-0.2,0-0.4,0.1-0.6,0.2
		c-0.1,0.1-0.2,0.3-0.2,0.5c0,0.3,0.2,0.5,0.7,0.7l0.8,0.3c1.1,0.4,1.7,1.1,1.7,2c0,0.6-0.2,1.1-0.7,1.5c-0.5,0.4-1.1,0.5-1.9,0.5
		C62.6,9.8,61.8,9.5,61,9.1z"/>
	<path fill="#A9D42D" d="M75.5,6.3c0,1.2-0.3,2-0.9,2.7c-0.5,0.5-1.1,0.7-2,0.7c-0.8,0-1.5-0.2-2-0.7c-0.6-0.6-0.9-1.5-0.9-2.7
		c0-1.2,0.3-2,0.9-2.7c0.5-0.5,1.1-0.7,2-0.7c0.8,0,1.5,0.2,2,0.7C75.2,4.3,75.5,5.2,75.5,6.3z M72.7,4.2c-0.8,0-1.2,0.7-1.2,2.2
		s0.4,2.2,1.2,2.2c0.8,0,1.2-0.7,1.2-2.2S73.5,4.2,72.7,4.2z"/>
	<path fill="#A9D42D" d="M81.9,3.9c0.4,0.6,0.6,1.4,0.6,2.4c0,1-0.3,1.9-0.8,2.4c-0.6,0.6-1.3,0.9-2.2,0.9S77.7,9.5,77,9.2V0.1
		L77.1,0h0.6c0.3,0,0.5,0.1,0.7,0.2c0.1,0.2,0.2,0.4,0.2,0.8v2.6C79,3.2,79.6,3,80.2,3C80.9,3,81.5,3.3,81.9,3.9z M79.8,4.3
		c-0.5,0-0.9,0.2-1.2,0.6v3.5c0.3,0.1,0.6,0.1,0.9,0.1c0.4,0,0.8-0.2,1-0.6c0.2-0.4,0.4-0.9,0.4-1.6C80.8,5,80.5,4.3,79.8,4.3z"/>
	<path fill="#A9D42D" d="M87.3,3.1c0,0.2,0.1,0.4,0.1,0.6c0,0.2,0,0.4-0.1,0.6l-1.6,0v3.5c0,0.4,0.2,0.6,0.6,0.6h0.8
		c0.1,0.3,0.1,0.5,0.1,0.7s0,0.4,0,0.5c-0.5,0.1-1.1,0.1-1.5,0.1c-1,0-1.5-0.5-1.5-1.5V4.3l-1,0c0-0.2-0.1-0.4-0.1-0.6
		c0-0.2,0-0.4,0.1-0.6l1,0v-1c0-0.4,0.1-0.6,0.2-0.8s0.4-0.2,0.7-0.2h0.6l0.1,0.1v1.9L87.3,3.1z"/>
	<path fill="#A9D42D" d="M90.6,4.4v5.2c-0.2,0-0.5,0.1-0.8,0.1s-0.6,0-0.8-0.1V5c0-0.5-0.2-0.7-0.6-0.7h-0.2c0-0.1-0.1-0.3-0.1-0.6
		c0-0.2,0-0.4,0.1-0.6c0.3,0,0.6-0.1,0.9-0.1h0.2c0.4,0,0.7,0.1,0.9,0.4C90.5,3.7,90.6,4,90.6,4.4z M88.7,2
		c-0.1-0.2-0.1-0.4-0.1-0.6s0-0.4,0.1-0.6c0.2-0.1,0.5-0.2,0.8-0.2c0.3,0,0.6,0.1,0.8,0.2c0.1,0.2,0.1,0.4,0.1,0.6s0,0.4-0.1,0.6
		c-0.2,0.1-0.5,0.2-0.8,0.2C89.2,2.1,88.9,2.1,88.7,2z"/>
	<path fill="#A9D42D" d="M94.3,9.8c-0.7,0-1.3-0.3-1.7-0.9C92.2,8.2,92,7.4,92,6.4c0-1,0.2-1.9,0.7-2.5C93.3,3.3,93.9,3,94.6,3
		c0.4,0,0.9,0.1,1.4,0.4V0.1L96,0h0.6c0.3,0,0.5,0.1,0.7,0.2c0.1,0.2,0.2,0.4,0.2,0.8v6.7c0,0.5,0.1,0.9,0.4,1.1
		c0,0.1-0.1,0.3-0.2,0.5c-0.1,0.2-0.2,0.3-0.3,0.4c-0.5-0.1-0.9-0.3-1.2-0.8C95.6,9.5,95,9.8,94.3,9.8z M94.7,8.4
		c0.5,0,0.9-0.2,1.2-0.7V4.7c-0.4-0.3-0.8-0.4-1.2-0.4S94.2,4.4,94,4.8c-0.2,0.4-0.3,0.9-0.3,1.6s0.1,1.2,0.3,1.5
		C94.2,8.3,94.4,8.4,94.7,8.4z"/>
	<path fill="#A9D42D" d="M104.7,6.3c0,1.2-0.3,2-0.9,2.7c-0.5,0.5-1.1,0.7-2,0.7c-0.8,0-1.5-0.2-2-0.7C99.3,8.4,99,7.5,99,6.3
		c0-1.2,0.3-2,0.9-2.7c0.5-0.5,1.1-0.7,2-0.7c0.8,0,1.5,0.2,2,0.7C104.4,4.3,104.7,5.2,104.7,6.3z M101.8,4.2
		c-0.8,0-1.2,0.7-1.2,2.2s0.4,2.2,1.2,2.2c0.8,0,1.2-0.7,1.2-2.2S102.7,4.2,101.8,4.2z"/>
	<path fill="#A9D42D" d="M105.6,9.1c0-0.2,0.1-0.4,0.2-0.6c0.1-0.2,0.2-0.4,0.3-0.5c0.7,0.4,1.3,0.6,1.8,0.6c0.3,0,0.6-0.1,0.7-0.2
		c0.2-0.1,0.3-0.3,0.3-0.5c0-0.3-0.2-0.6-0.7-0.8l-0.7-0.3c-1.1-0.4-1.6-1-1.6-1.9c0-0.6,0.2-1.1,0.7-1.5c0.4-0.4,1-0.6,1.8-0.6
		s1.5,0.2,2.2,0.5c0,0.2,0,0.4-0.1,0.6c-0.1,0.2-0.2,0.4-0.3,0.5c-0.6-0.3-1.2-0.4-1.8-0.4c-0.2,0-0.4,0.1-0.6,0.2
		c-0.1,0.1-0.2,0.3-0.2,0.5c0,0.3,0.2,0.5,0.7,0.7l0.8,0.3c1.1,0.4,1.7,1.1,1.7,2c0,0.6-0.2,1.1-0.7,1.5c-0.5,0.4-1.1,0.5-1.9,0.5
		C107.1,9.8,106.3,9.5,105.6,9.1z"/>
	<path fill="#FFFFFF" d="M119.9,5.1v3.1c0,0.5,0.1,0.9,0.2,1.2c-0.2,0.2-0.5,0.3-0.8,0.3c-0.5,0-0.7-0.3-0.7-0.8V5.5
		c0-0.5-0.1-0.8-0.2-1c-0.1-0.2-0.3-0.3-0.6-0.3s-0.6,0.1-0.9,0.2c-0.3,0.2-0.6,0.4-0.8,0.6v4.5c-0.1,0-0.4,0.1-0.6,0.1
		s-0.5,0-0.6-0.1V3.2l0.1-0.1h0.5c0.4,0,0.7,0.3,0.7,0.8c0.7-0.6,1.3-0.9,2.1-0.9c0.6,0,1,0.2,1.3,0.6C119.8,4,119.9,4.5,119.9,5.1z
		"/>
	<path fill="#FFFFFF" d="M126.9,9c-0.1,0.3-0.3,0.5-0.5,0.6c-0.5-0.1-0.8-0.4-1-0.8c-0.6,0.6-1.3,0.9-1.9,0.9
		c-0.6,0-1.1-0.2-1.5-0.6c-0.3-0.4-0.5-0.8-0.5-1.3c0-0.7,0.2-1.2,0.7-1.6c0.5-0.4,1.1-0.5,1.8-0.5c0.4,0,0.9,0,1.3,0.1V5.2
		c0-0.8-0.4-1.2-1.1-1.2c-0.6,0-1.3,0.2-2.1,0.5c-0.2-0.2-0.4-0.5-0.4-0.9c0.9-0.4,1.8-0.6,2.7-0.6c0.7,0,1.2,0.2,1.6,0.5
		c0.4,0.4,0.6,0.9,0.6,1.6v2.7C126.5,8.4,126.6,8.8,126.9,9z M123.7,8.7c0.6,0,1.1-0.3,1.6-0.8V6.6c-0.3,0-0.7-0.1-1.2-0.1
		c-0.4,0-0.8,0.1-1,0.3c-0.2,0.2-0.3,0.5-0.3,0.8s0.1,0.6,0.2,0.8C123.1,8.6,123.4,8.7,123.7,8.7z"/>
	<path fill="#FFFFFF" d="M127.9,9.1c0-0.1,0.1-0.3,0.1-0.5c0.1-0.2,0.2-0.3,0.3-0.4c0.7,0.4,1.3,0.6,1.7,0.6s0.8-0.1,1-0.2
		s0.3-0.4,0.3-0.6c0-0.4-0.3-0.7-0.8-0.9l-0.7-0.3c-1.1-0.4-1.7-1-1.7-1.8c0-0.6,0.2-1,0.6-1.4c0.4-0.3,1-0.5,1.7-0.5s1.4,0.2,2,0.5
		c0,0.2,0,0.3-0.1,0.5c-0.1,0.2-0.2,0.3-0.3,0.4c-0.6-0.3-1.2-0.4-1.7-0.4c-0.3,0-0.5,0.1-0.7,0.2c-0.2,0.1-0.3,0.3-0.3,0.5
		s0.1,0.4,0.2,0.5c0.1,0.1,0.3,0.2,0.6,0.4l0.8,0.3c1.1,0.4,1.6,1.1,1.6,2c0,0.6-0.2,1-0.7,1.4s-1.1,0.5-1.8,0.5
		S128.6,9.5,127.9,9.1z"/>
	<path fill="#FFFFFF" d="M142,9c-0.1,0.3-0.3,0.5-0.5,0.6c-0.5-0.1-0.8-0.4-1-0.8c-0.6,0.6-1.3,0.9-1.9,0.9c-0.6,0-1.1-0.2-1.5-0.6
		c-0.3-0.4-0.5-0.8-0.5-1.3c0-0.7,0.2-1.2,0.7-1.6c0.5-0.4,1.1-0.5,1.8-0.5c0.4,0,0.9,0,1.3,0.1V5.2c0-0.8-0.4-1.2-1.1-1.2
		c-0.6,0-1.3,0.2-2.1,0.5c-0.2-0.2-0.4-0.5-0.4-0.9c0.9-0.4,1.8-0.6,2.7-0.6c0.7,0,1.2,0.2,1.6,0.5c0.4,0.4,0.6,0.9,0.6,1.6v2.7
		C141.6,8.4,141.7,8.8,142,9z M138.8,8.7c0.6,0,1.1-0.3,1.6-0.8V6.6c-0.3,0-0.7-0.1-1.2-0.1c-0.4,0-0.8,0.1-1,0.3
		c-0.2,0.2-0.3,0.5-0.3,0.8s0.1,0.6,0.2,0.8C138.3,8.6,138.5,8.7,138.8,8.7z"/>
	<path fill="#FFFFFF" d="M146.6,3.1c0,0.1,0.1,0.3,0.1,0.5s0,0.3-0.1,0.5l-1.6,0v4c0,0.4,0.2,0.6,0.5,0.6h0.9
		c0.1,0.2,0.1,0.3,0.1,0.5c0,0.2,0,0.3,0,0.4c-0.5,0.1-1,0.1-1.4,0.1c-0.9,0-1.3-0.4-1.3-1.3V4.1l-0.9,0c0-0.1-0.1-0.3-0.1-0.5
		s0-0.3,0.1-0.5l0.9,0V2c0-0.3,0-0.5,0.1-0.6c0.1-0.1,0.3-0.2,0.5-0.2h0.5l0.1,0.1v1.9L146.6,3.1z"/>
	<path fill="#FFFFFF" d="M149.6,4.2v5.3c-0.1,0-0.4,0.1-0.6,0.1s-0.5,0-0.6-0.1V4.7c0-0.2,0-0.4-0.1-0.5c-0.1-0.1-0.2-0.2-0.4-0.2
		h-0.1c0-0.1-0.1-0.3-0.1-0.4c0-0.2,0-0.3,0.1-0.5c0.3,0,0.5-0.1,0.8-0.1h0.2c0.3,0,0.6,0.1,0.7,0.3C149.5,3.6,149.6,3.9,149.6,4.2z
		 M148,1.4c0-0.2,0-0.4,0.1-0.6c0.2-0.1,0.4-0.2,0.7-0.2s0.5,0.1,0.7,0.2c0.1,0.2,0.1,0.3,0.1,0.6c0,0.2,0,0.4-0.1,0.6
		c-0.1,0.1-0.4,0.2-0.7,0.2c-0.3,0-0.5-0.1-0.7-0.2C148,1.8,148,1.6,148,1.4z"/>
	<path fill="#FFFFFF" d="M153.6,8.5l1.6-5.4c0.1,0,0.3-0.1,0.5-0.1s0.4,0,0.6,0.1l0,0.1c-0.9,2.8-1.5,4.9-2,6.3
		c-0.2,0-0.5,0.1-0.8,0.1s-0.5,0-0.7-0.1c-0.1-0.1-0.2-0.3-0.3-0.6l-1.8-5.7c0.3-0.1,0.5-0.2,0.7-0.2c0.4,0,0.6,0.2,0.7,0.5l0.9,2.9
		c0.2,0.6,0.4,1.3,0.5,1.9C153.5,8.5,153.5,8.5,153.6,8.5z"/>
	<path fill="#FFFFFF" d="M158.9,4.2v5.3c-0.1,0-0.4,0.1-0.6,0.1s-0.5,0-0.6-0.1V4.7c0-0.2,0-0.4-0.1-0.5c-0.1-0.1-0.2-0.2-0.4-0.2
		H157c0-0.1-0.1-0.3-0.1-0.4c0-0.2,0-0.3,0.1-0.5c0.3,0,0.5-0.1,0.8-0.1h0.2c0.3,0,0.6,0.1,0.7,0.3C158.9,3.6,158.9,3.9,158.9,4.2z
		 M157.3,1.4c0-0.2,0-0.4,0.1-0.6c0.2-0.1,0.4-0.2,0.7-0.2s0.5,0.1,0.7,0.2c0.1,0.2,0.1,0.3,0.1,0.6c0,0.2,0,0.4-0.1,0.6
		c-0.1,0.1-0.4,0.2-0.7,0.2c-0.3,0-0.5-0.1-0.7-0.2C157.3,1.8,157.3,1.6,157.3,1.4z"/>
	<path fill="#FFFFFF" d="M162.8,9.7c-0.7,0-1.3-0.3-1.7-0.9c-0.4-0.6-0.6-1.4-0.6-2.5s0.2-1.9,0.7-2.4c0.5-0.6,1.1-0.9,1.7-0.9
		c0.5,0,1,0.1,1.5,0.4V0.1l0.1-0.1h0.5c0.3,0,0.4,0.1,0.5,0.2c0.1,0.1,0.1,0.3,0.1,0.6v6.9c0,0.6,0.1,1,0.4,1.3
		c-0.1,0.3-0.3,0.5-0.5,0.6c-0.5-0.1-0.8-0.4-1-0.8C164.2,9.4,163.5,9.7,162.8,9.7z M163.1,8.7c0.6,0,1.1-0.3,1.5-0.9V4.6
		c-0.5-0.3-0.9-0.5-1.3-0.5c-0.4,0-0.7,0.2-1,0.6c-0.3,0.4-0.4,1-0.4,1.7c0,0.8,0.1,1.3,0.3,1.7C162.4,8.5,162.7,8.7,163.1,8.7z"/>
	<path fill="#FFFFFF" d="M172.8,9c-0.1,0.3-0.3,0.5-0.5,0.6c-0.5-0.1-0.8-0.4-1-0.8c-0.6,0.6-1.3,0.9-1.9,0.9
		c-0.6,0-1.1-0.2-1.5-0.6c-0.3-0.4-0.5-0.8-0.5-1.3c0-0.7,0.2-1.2,0.7-1.6c0.5-0.4,1.1-0.5,1.8-0.5c0.4,0,0.9,0,1.3,0.1V5.2
		c0-0.8-0.4-1.2-1.1-1.2c-0.6,0-1.3,0.2-2.1,0.5c-0.2-0.2-0.4-0.5-0.4-0.9c0.9-0.4,1.8-0.6,2.7-0.6c0.7,0,1.2,0.2,1.6,0.5
		c0.4,0.4,0.6,0.9,0.6,1.6v2.7C172.4,8.4,172.6,8.8,172.8,9z M169.6,8.7c0.6,0,1.1-0.3,1.6-0.8V6.6c-0.3,0-0.7-0.1-1.2-0.1
		c-0.4,0-0.8,0.1-1,0.3c-0.2,0.2-0.3,0.5-0.3,0.8s0.1,0.6,0.2,0.8C169.1,8.6,169.3,8.7,169.6,8.7z"/>
	<path fill="#FFFFFF" d="M176.2,9.7c-0.7,0-1.3-0.3-1.7-0.9c-0.4-0.6-0.6-1.4-0.6-2.5s0.2-1.9,0.7-2.4c0.5-0.6,1.1-0.9,1.7-0.9
		c0.5,0,1,0.1,1.5,0.4V0.1L178,0h0.5c0.3,0,0.4,0.1,0.5,0.2c0.1,0.1,0.1,0.3,0.1,0.6v6.9c0,0.6,0.1,1,0.4,1.3
		c-0.1,0.3-0.3,0.5-0.5,0.6c-0.5-0.1-0.8-0.4-1-0.8C177.5,9.4,176.9,9.7,176.2,9.7z M176.4,8.7c0.6,0,1.1-0.3,1.5-0.9V4.6
		c-0.5-0.3-0.9-0.5-1.3-0.5c-0.4,0-0.7,0.2-1,0.6c-0.3,0.4-0.4,1-0.4,1.7c0,0.8,0.1,1.3,0.3,1.7C175.8,8.5,176,8.7,176.4,8.7z"/>
	<path fill="#FFFFFF" d="M185.9,6.8h-3.9c0,0.6,0.2,1.1,0.4,1.4s0.6,0.5,1.2,0.5s1.1-0.2,1.8-0.5c0.2,0.2,0.4,0.5,0.4,0.8
		c-0.7,0.5-1.5,0.7-2.4,0.7s-1.6-0.3-2-0.9c-0.4-0.6-0.6-1.4-0.6-2.4s0.2-1.8,0.7-2.4c0.5-0.6,1.1-0.9,1.9-0.9
		c0.8,0,1.5,0.3,1.9,0.8c0.5,0.5,0.7,1.2,0.7,2C186,6.1,186,6.4,185.9,6.8z M184.5,4.4c-0.2-0.3-0.6-0.5-1-0.5c-0.4,0-0.8,0.2-1,0.5
		c-0.2,0.3-0.4,0.8-0.4,1.4h2.7V5.7C184.8,5.2,184.7,4.7,184.5,4.4z"/>
	<path fill="#FFFFFF" d="M187.1,9.1c0-0.1,0.1-0.3,0.1-0.5c0.1-0.2,0.2-0.3,0.3-0.4c0.7,0.4,1.3,0.6,1.7,0.6s0.8-0.1,1-0.2
		s0.3-0.4,0.3-0.6c0-0.4-0.3-0.7-0.8-0.9L189,6.7c-1.1-0.4-1.7-1-1.7-1.8c0-0.6,0.2-1,0.6-1.4c0.4-0.3,1-0.5,1.7-0.5s1.4,0.2,2,0.5
		c0,0.2,0,0.3-0.1,0.5c-0.1,0.2-0.2,0.3-0.3,0.4c-0.6-0.3-1.2-0.4-1.7-0.4c-0.3,0-0.5,0.1-0.7,0.2c-0.2,0.1-0.3,0.3-0.3,0.5
		s0.1,0.4,0.2,0.5c0.1,0.1,0.3,0.2,0.6,0.4l0.8,0.3c1.1,0.4,1.6,1.1,1.6,2c0,0.6-0.2,1-0.7,1.4s-1.1,0.5-1.8,0.5
		S187.8,9.5,187.1,9.1z"/>
	<path fill="#FFFFFF" d="M193.2,11.6c-0.2-0.1-0.3-0.3-0.3-0.6c0,0,0-0.1,0-0.1c0.3-0.1,0.6-0.3,0.7-0.6c0.2-0.2,0.3-0.5,0.3-0.7
		c-0.3-0.1-0.4-0.1-0.5-0.2c-0.1-0.1-0.1-0.4-0.1-0.6c0-0.3,0-0.5,0.1-0.6c0.2-0.1,0.5-0.2,0.8-0.2s0.6,0.1,0.7,0.2
		c0.1,0.2,0.1,0.5,0.1,0.8c0,0.6-0.2,1.1-0.5,1.5C194.2,11.1,193.8,11.4,193.2,11.6z"/>
	<path fill="#FFFFFF" d="M199.1,9.1c0-0.1,0.1-0.3,0.1-0.5c0.1-0.2,0.2-0.3,0.3-0.4c0.7,0.4,1.3,0.6,1.7,0.6s0.8-0.1,1-0.2
		s0.3-0.4,0.3-0.6c0-0.4-0.3-0.7-0.8-0.9L201,6.7c-1.1-0.4-1.7-1-1.7-1.8c0-0.6,0.2-1,0.6-1.4c0.4-0.3,1-0.5,1.7-0.5s1.4,0.2,2,0.5
		c0,0.2,0,0.3-0.1,0.5c-0.1,0.2-0.2,0.3-0.3,0.4c-0.6-0.3-1.2-0.4-1.7-0.4c-0.3,0-0.5,0.1-0.7,0.2c-0.2,0.1-0.3,0.3-0.3,0.5
		s0.1,0.4,0.2,0.5c0.1,0.1,0.3,0.2,0.6,0.4l0.8,0.3c1.1,0.4,1.6,1.1,1.6,2c0,0.6-0.2,1-0.7,1.4s-1.1,0.5-1.8,0.5
		S199.8,9.5,199.1,9.1z"/>
	<path fill="#FFFFFF" d="M209.6,3.7c0.6,0.6,0.9,1.5,0.9,2.7c0,1.2-0.3,2-0.9,2.7c-0.5,0.5-1.1,0.7-1.9,0.7s-1.4-0.2-1.9-0.7
		c-0.6-0.6-0.9-1.5-0.9-2.7c0-1.2,0.3-2,0.9-2.7c0.5-0.5,1.1-0.7,1.9-0.7S209.2,3.2,209.6,3.7z M206.3,6.4c0,1.6,0.5,2.4,1.5,2.4
		s1.5-0.8,1.5-2.4c0-0.5,0-0.8-0.1-1.2s-0.2-0.6-0.5-0.9c-0.2-0.2-0.5-0.4-0.9-0.4s-0.7,0.1-0.9,0.4c-0.2,0.2-0.4,0.5-0.5,0.9
		S206.3,5.9,206.3,6.4z"/>
	<path fill="#FFFFFF" d="M215.7,5.5c0-0.5-0.1-0.8-0.2-1s-0.3-0.3-0.6-0.3c-0.5,0-1,0.3-1.5,0.8v4.5c-0.1,0-0.4,0.1-0.6,0.1
		s-0.5,0-0.6-0.1V3.2l0.1-0.1h0.5c0.4,0,0.7,0.3,0.7,0.8c0.6-0.6,1.2-0.9,1.9-0.9s1.2,0.3,1.4,1c0.7-0.6,1.4-1,2.1-1
		c0.5,0,0.9,0.2,1.2,0.6c0.3,0.4,0.4,0.9,0.4,1.5v3.2c0,0.5,0.1,0.9,0.2,1.2c-0.2,0.2-0.5,0.3-0.8,0.3c-0.4,0-0.7-0.3-0.7-0.8V5.5
		c0-0.5-0.1-0.8-0.2-1c-0.1-0.2-0.3-0.3-0.6-0.3c-0.5,0-1,0.3-1.5,0.8v4.5c-0.1,0-0.4,0.1-0.6,0.1s-0.5,0-0.6-0.1V5.5z"/>
	<path fill="#FFFFFF" d="M227.4,9c-0.1,0.3-0.3,0.5-0.5,0.6c-0.5-0.1-0.8-0.4-1-0.8c-0.6,0.6-1.3,0.9-1.9,0.9
		c-0.6,0-1.1-0.2-1.5-0.6c-0.3-0.4-0.5-0.8-0.5-1.3c0-0.7,0.2-1.2,0.7-1.6c0.5-0.4,1.1-0.5,1.8-0.5c0.4,0,0.9,0,1.3,0.1V5.2
		c0-0.8-0.4-1.2-1.1-1.2c-0.6,0-1.3,0.2-2.1,0.5c-0.2-0.2-0.4-0.5-0.4-0.9c0.9-0.4,1.8-0.6,2.7-0.6c0.7,0,1.2,0.2,1.6,0.5
		c0.4,0.4,0.6,0.9,0.6,1.6v2.7C227.1,8.4,227.2,8.8,227.4,9z M224.2,8.7c0.6,0,1.1-0.3,1.6-0.8V6.6c-0.3,0-0.7-0.1-1.2-0.1
		c-0.4,0-0.8,0.1-1,0.3c-0.2,0.2-0.3,0.5-0.3,0.8s0.1,0.6,0.2,0.8C223.7,8.6,224,8.7,224.2,8.7z"/>
	<path fill="#FFFFFF" d="M230.8,9.7c-0.7,0-1.3-0.3-1.7-0.9c-0.4-0.6-0.6-1.4-0.6-2.5s0.2-1.9,0.7-2.4c0.5-0.6,1.1-0.9,1.7-0.9
		c0.5,0,1,0.1,1.5,0.4V0.1l0.1-0.1h0.5c0.3,0,0.4,0.1,0.5,0.2c0.1,0.1,0.1,0.3,0.1,0.6v6.9c0,0.6,0.1,1,0.4,1.3
		c-0.1,0.3-0.3,0.5-0.5,0.6c-0.5-0.1-0.8-0.4-1-0.8C232.1,9.4,231.5,9.7,230.8,9.7z M231,8.7c0.6,0,1.1-0.3,1.5-0.9V4.6
		c-0.5-0.3-0.9-0.5-1.3-0.5c-0.4,0-0.7,0.2-1,0.6c-0.3,0.4-0.4,1-0.4,1.7c0,0.8,0.1,1.3,0.3,1.7C230.4,8.5,230.7,8.7,231,8.7z"/>
	<path fill="#FFFFFF" d="M240.1,3.7c0.6,0.6,0.9,1.5,0.9,2.7c0,1.2-0.3,2-0.9,2.7c-0.5,0.5-1.1,0.7-1.9,0.7s-1.4-0.2-1.9-0.7
		c-0.6-0.6-0.9-1.5-0.9-2.7c0-1.2,0.3-2,0.9-2.7c0.5-0.5,1.1-0.7,1.9-0.7S239.6,3.2,240.1,3.7z M236.7,6.4c0,1.6,0.5,2.4,1.5,2.4
		s1.5-0.8,1.5-2.4c0-0.5,0-0.8-0.1-1.2s-0.2-0.6-0.5-0.9c-0.2-0.2-0.5-0.4-0.9-0.4s-0.7,0.1-0.9,0.4c-0.2,0.2-0.4,0.5-0.5,0.9
		S236.7,5.9,236.7,6.4z"/>
	<path fill="#FFFFFF" d="M242,9.1c0-0.1,0.1-0.3,0.1-0.5c0.1-0.2,0.2-0.3,0.3-0.4c0.7,0.4,1.3,0.6,1.7,0.6s0.8-0.1,1-0.2
		s0.3-0.4,0.3-0.6c0-0.4-0.3-0.7-0.8-0.9l-0.7-0.3c-1.1-0.4-1.7-1-1.7-1.8c0-0.6,0.2-1,0.6-1.4c0.4-0.3,1-0.5,1.7-0.5s1.4,0.2,2,0.5
		c0,0.2,0,0.3-0.1,0.5c-0.1,0.2-0.2,0.3-0.3,0.4C245.6,4.1,245,4,244.5,4c-0.3,0-0.5,0.1-0.7,0.2c-0.2,0.1-0.3,0.3-0.3,0.5
		s0.1,0.4,0.2,0.5c0.1,0.1,0.3,0.2,0.6,0.4l0.8,0.3c1.1,0.4,1.6,1.1,1.6,2c0,0.6-0.2,1-0.7,1.4s-1.1,0.5-1.8,0.5S242.7,9.5,242,9.1z
		"/>
	<path fill="#FFFFFF" d="M17.3,24.6c-0.1,0.3-0.3,0.5-0.5,0.6c-0.5-0.1-0.8-0.4-1-0.8c-0.6,0.6-1.3,0.9-1.9,0.9
		c-0.6,0-1.1-0.2-1.5-0.6c-0.3-0.4-0.5-0.8-0.5-1.3c0-0.7,0.2-1.2,0.7-1.6c0.5-0.4,1.1-0.5,1.8-0.5c0.4,0,0.9,0,1.3,0.1v-0.5
		c0-0.8-0.4-1.2-1.1-1.2c-0.6,0-1.3,0.2-2.1,0.5c-0.2-0.2-0.4-0.5-0.4-0.9c0.9-0.4,1.8-0.6,2.7-0.6c0.7,0,1.2,0.2,1.6,0.5
		c0.4,0.4,0.6,0.9,0.6,1.6v2.7C17,24,17.1,24.4,17.3,24.6z M14.1,24.3c0.6,0,1.1-0.3,1.6-0.8v-1.2c-0.3,0-0.7-0.1-1.2-0.1
		c-0.4,0-0.8,0.1-1,0.3c-0.2,0.2-0.3,0.5-0.3,0.8s0.1,0.6,0.2,0.8C13.6,24.2,13.8,24.3,14.1,24.3z"/>
	<path fill="#FFFFFF" d="M23.2,19.3c0.6,0.6,0.9,1.5,0.9,2.7c0,1.2-0.3,2-0.9,2.7c-0.5,0.5-1.1,0.7-1.9,0.7s-1.4-0.2-1.9-0.7
		c-0.6-0.6-0.9-1.5-0.9-2.7c0-1.2,0.3-2,0.9-2.7c0.5-0.5,1.1-0.7,1.9-0.7S22.7,18.8,23.2,19.3z M19.8,22c0,1.6,0.5,2.4,1.5,2.4
		s1.5-0.8,1.5-2.4c0-0.5,0-0.8-0.1-1.2s-0.2-0.6-0.5-0.9c-0.2-0.2-0.5-0.4-0.9-0.4s-0.7,0.1-0.9,0.4c-0.2,0.2-0.4,0.5-0.5,0.9
		S19.8,21.5,19.8,22z"/>
	<path fill="#FFFFFF" d="M33.3,22.4h-3.9c0,0.6,0.2,1.1,0.4,1.4s0.6,0.5,1.2,0.5s1.1-0.2,1.8-0.5c0.2,0.2,0.4,0.5,0.4,0.8
		c-0.7,0.5-1.5,0.7-2.4,0.7s-1.6-0.3-2-0.9c-0.4-0.6-0.6-1.4-0.6-2.4s0.2-1.8,0.7-2.4c0.5-0.6,1.1-0.9,1.9-0.9
		c0.8,0,1.5,0.3,1.9,0.8c0.5,0.5,0.7,1.2,0.7,2C33.4,21.7,33.4,22,33.3,22.4z M31.9,20c-0.2-0.3-0.6-0.5-1-0.5c-0.4,0-0.8,0.2-1,0.5
		c-0.2,0.3-0.4,0.8-0.4,1.4h2.7v-0.2C32.2,20.8,32.1,20.3,31.9,20z"/>
	<path fill="#FFFFFF" d="M38.4,18.8c0.1,0,0.3-0.1,0.5-0.1c0.2,0,0.4,0,0.6,0.1l0,0.1l-1.8,2.9l2.1,3.2c-0.3,0.2-0.6,0.3-0.9,0.3
		s-0.5-0.1-0.6-0.4L37,22.8l-1.5,2.4c-0.1,0-0.3,0.1-0.5,0.1s-0.5,0-0.6-0.1L34.3,25l2.1-3.2l-1.9-2.9c0.3-0.2,0.6-0.3,0.8-0.3
		s0.5,0.1,0.7,0.4l1.2,1.8L38.4,18.8z"/>
	<path fill="#FFFFFF" d="M45.8,22.4h-3.9c0,0.6,0.2,1.1,0.4,1.4s0.6,0.5,1.2,0.5s1.1-0.2,1.8-0.5c0.2,0.2,0.4,0.5,0.4,0.8
		c-0.7,0.5-1.5,0.7-2.4,0.7s-1.6-0.3-2-0.9c-0.4-0.6-0.6-1.4-0.6-2.4s0.2-1.8,0.7-2.4c0.5-0.6,1.1-0.9,1.9-0.9
		c0.8,0,1.5,0.3,1.9,0.8c0.5,0.5,0.7,1.2,0.7,2C45.9,21.7,45.8,22,45.8,22.4z M44.3,20c-0.2-0.3-0.6-0.5-1-0.5c-0.4,0-0.8,0.2-1,0.5
		c-0.2,0.3-0.4,0.8-0.4,1.4h2.7v-0.2C44.7,20.8,44.5,20.3,44.3,20z"/>
	<path fill="#FFFFFF" d="M47.2,19.3c0.1-0.3,0.2-0.5,0.5-0.7c0.6,0.1,0.9,0.5,1.1,1.2c0.4-0.8,0.9-1.2,1.7-1.2c0.2,0,0.4,0,0.7,0.1
		c0,0.5-0.1,0.9-0.3,1.2c-0.1,0-0.2,0-0.5-0.1c-0.6,0-1.1,0.3-1.4,1v4.3c-0.1,0-0.4,0.1-0.6,0.1c-0.3,0-0.5,0-0.6-0.1v-4.5
		C47.7,20.1,47.5,19.6,47.2,19.3z"/>
	<path fill="#FFFFFF" d="M55.5,21.2c0,0,0-0.1,0-0.1c0-1-0.4-1.5-1.2-1.5c-0.4,0-0.8,0.2-1,0.6c-0.2,0.4-0.4,1-0.4,1.8
		c0,1.5,0.5,2.3,1.5,2.3c0.5,0,1-0.2,1.6-0.7c0.1,0.1,0.2,0.2,0.3,0.3c0.1,0.1,0.2,0.3,0.2,0.4c-0.6,0.6-1.4,1-2.3,1s-1.6-0.3-2-0.9
		c-0.4-0.6-0.7-1.5-0.7-2.5s0.3-1.8,0.8-2.4c0.5-0.6,1.2-0.9,1.9-0.9c0.7,0,1.3,0.2,1.7,0.6c0.4,0.4,0.6,0.8,0.6,1.3
		s-0.2,0.7-0.7,0.7C55.8,21.2,55.6,21.2,55.5,21.2z"/>
	<path fill="#FFFFFF" d="M59.6,19.8v5.3c-0.1,0-0.4,0.1-0.6,0.1s-0.5,0-0.6-0.1v-4.8c0-0.2,0-0.4-0.1-0.5c-0.1-0.1-0.2-0.2-0.4-0.2
		h-0.1c0-0.1-0.1-0.3-0.1-0.4c0-0.2,0-0.3,0.1-0.5c0.3,0,0.5-0.1,0.8-0.1h0.2c0.3,0,0.6,0.1,0.7,0.3C59.5,19.2,59.6,19.5,59.6,19.8z
		 M57.8,17.7l1.8-2.1c0.2,0.1,0.4,0.2,0.5,0.3c0.2,0.2,0.3,0.3,0.4,0.5l-2.2,1.7C58,18.1,57.9,17.9,57.8,17.7z"/>
	<path fill="#FFFFFF" d="M65.1,21.2c0,0,0-0.1,0-0.1c0-1-0.4-1.5-1.2-1.5c-0.4,0-0.8,0.2-1,0.6c-0.2,0.4-0.4,1-0.4,1.8
		c0,1.5,0.5,2.3,1.5,2.3c0.5,0,1-0.2,1.6-0.7c0.1,0.1,0.2,0.2,0.3,0.3c0.1,0.1,0.2,0.3,0.2,0.4c-0.6,0.6-1.4,1-2.3,1s-1.6-0.3-2-0.9
		c-0.4-0.6-0.7-1.5-0.7-2.5s0.3-1.8,0.8-2.4c0.5-0.6,1.2-0.9,1.9-0.9c0.7,0,1.3,0.2,1.7,0.6c0.4,0.4,0.6,0.8,0.6,1.3
		s-0.2,0.7-0.7,0.7C65.4,21.2,65.2,21.2,65.1,21.2z"/>
	<path fill="#FFFFFF" d="M69.3,19.8v5.3c-0.1,0-0.4,0.1-0.6,0.1s-0.5,0-0.6-0.1v-4.8c0-0.2,0-0.4-0.1-0.5c-0.1-0.1-0.2-0.2-0.4-0.2
		h-0.1c0-0.1-0.1-0.3-0.1-0.4c0-0.2,0-0.3,0.1-0.5c0.3,0,0.5-0.1,0.8-0.1h0.2c0.3,0,0.6,0.1,0.7,0.3C69.2,19.2,69.3,19.5,69.3,19.8z
		 M67.7,17c0-0.2,0-0.4,0.1-0.6c0.2-0.1,0.4-0.2,0.7-0.2s0.5,0.1,0.7,0.2c0.1,0.2,0.1,0.3,0.1,0.6c0,0.2,0,0.4-0.1,0.6
		c-0.1,0.1-0.4,0.2-0.7,0.2c-0.3,0-0.5-0.1-0.7-0.2C67.7,17.4,67.7,17.2,67.7,17z"/>
	<path fill="#FFFFFF" d="M75.6,19.3c0.6,0.6,0.9,1.5,0.9,2.7c0,1.2-0.3,2-0.9,2.7c-0.5,0.5-1.1,0.7-1.9,0.7s-1.4-0.2-1.9-0.7
		c-0.6-0.6-0.9-1.5-0.9-2.7c0-1.2,0.3-2,0.9-2.7c0.5-0.5,1.1-0.7,1.9-0.7S75.1,18.8,75.6,19.3z M72.2,22c0,1.6,0.5,2.4,1.5,2.4
		s1.5-0.8,1.5-2.4c0-0.5,0-0.8-0.1-1.2s-0.2-0.6-0.5-0.9c-0.2-0.2-0.5-0.4-0.9-0.4s-0.7,0.1-0.9,0.4c-0.2,0.2-0.4,0.5-0.5,0.9
		S72.2,21.5,72.2,22z"/>
	<path fill="#FFFFFF" d="M81.3,25.2v-5.5l-1.1,0c0-0.2-0.1-0.3-0.1-0.5c0-0.1,0-0.3,0.1-0.5l1.1,0c-0.1-0.5-0.1-0.9-0.1-1.2
		c0-0.6,0.2-1.1,0.5-1.4c0.4-0.4,0.8-0.6,1.4-0.6c0.6,0,1.1,0.1,1.7,0.3c0,0.4-0.1,0.6-0.3,0.8c-0.4-0.1-0.8-0.2-1.1-0.2
		c-0.3,0-0.6,0.1-0.7,0.3c-0.2,0.2-0.3,0.5-0.3,0.8c0,0.3,0,0.7,0.1,1.2l1.8,0c0,0.2,0.1,0.4,0.1,0.5c0,0.1,0,0.3-0.1,0.5l-1.8,0
		v5.5c-0.2,0-0.4,0.1-0.6,0.1C81.7,25.2,81.4,25.2,81.3,25.2z"/>
	<path fill="#FFFFFF" d="M87.3,19.8v5.3c-0.1,0-0.4,0.1-0.6,0.1s-0.5,0-0.6-0.1v-4.8c0-0.2,0-0.4-0.1-0.5c-0.1-0.1-0.2-0.2-0.4-0.2
		h-0.1c0-0.1-0.1-0.3-0.1-0.4c0-0.2,0-0.3,0.1-0.5c0.3,0,0.5-0.1,0.8-0.1h0.2c0.3,0,0.6,0.1,0.7,0.3C87.2,19.2,87.3,19.5,87.3,19.8z
		 M85.6,17c0-0.2,0-0.4,0.1-0.6c0.2-0.1,0.4-0.2,0.7-0.2s0.5,0.1,0.7,0.2c0.1,0.2,0.1,0.3,0.1,0.6c0,0.2,0,0.4-0.1,0.6
		c-0.1,0.1-0.4,0.2-0.7,0.2c-0.3,0-0.5-0.1-0.7-0.2C85.7,17.4,85.6,17.2,85.6,17z"/>
	<path fill="#FFFFFF" d="M94.4,20.7v3.1c0,0.5,0.1,0.9,0.2,1.2c-0.2,0.2-0.5,0.3-0.8,0.3c-0.5,0-0.7-0.3-0.7-0.8v-3.4
		c0-0.5-0.1-0.8-0.2-1c-0.1-0.2-0.3-0.3-0.6-0.3s-0.6,0.1-0.9,0.2c-0.3,0.2-0.6,0.4-0.8,0.6v4.5c-0.1,0-0.4,0.1-0.6,0.1
		s-0.5,0-0.6-0.1v-6.4l0.1-0.1h0.5c0.4,0,0.7,0.3,0.7,0.8c0.7-0.6,1.3-0.9,2.1-0.9c0.6,0,1,0.2,1.3,0.6
		C94.3,19.6,94.4,20.1,94.4,20.7z"/>
	<path fill="#FFFFFF" d="M101.4,24.6c-0.1,0.3-0.3,0.5-0.5,0.6c-0.5-0.1-0.8-0.4-1-0.8c-0.6,0.6-1.3,0.9-1.9,0.9
		c-0.6,0-1.1-0.2-1.5-0.6c-0.3-0.4-0.5-0.8-0.5-1.3c0-0.7,0.2-1.2,0.7-1.6c0.5-0.4,1.1-0.5,1.8-0.5c0.4,0,0.9,0,1.3,0.1v-0.5
		c0-0.8-0.4-1.2-1.1-1.2c-0.6,0-1.3,0.2-2.1,0.5c-0.2-0.2-0.4-0.5-0.4-0.9c0.9-0.4,1.8-0.6,2.7-0.6c0.7,0,1.2,0.2,1.6,0.5
		c0.4,0.4,0.6,0.9,0.6,1.6v2.7C101,24,101.1,24.4,101.4,24.6z M98.2,24.3c0.6,0,1.1-0.3,1.6-0.8v-1.2c-0.3,0-0.7-0.1-1.2-0.1
		c-0.4,0-0.8,0.1-1,0.3c-0.2,0.2-0.3,0.5-0.3,0.8s0.1,0.6,0.2,0.8C97.7,24.2,97.9,24.3,98.2,24.3z"/>
	<path fill="#FFFFFF" d="M104.7,24.2h0.5c0.1,0.2,0.1,0.4,0.1,0.5c0,0.2,0,0.3,0,0.4c-0.3,0.1-0.7,0.1-1.1,0.1
		c-0.8,0-1.2-0.4-1.2-1.3v-8.3l0.1-0.1h0.5c0.3,0,0.4,0.1,0.5,0.2c0.1,0.1,0.1,0.3,0.1,0.6v7.2C104.2,24,104.4,24.2,104.7,24.2z"/>
	<path fill="#FFFFFF" d="M111.5,25.3c-0.7,0-1.3-0.3-1.7-0.9c-0.4-0.6-0.6-1.4-0.6-2.5s0.2-1.9,0.7-2.4c0.5-0.6,1.1-0.9,1.7-0.9
		c0.5,0,1,0.1,1.5,0.4v-3.4l0.1-0.1h0.5c0.3,0,0.4,0.1,0.5,0.2c0.1,0.1,0.1,0.3,0.1,0.6v6.9c0,0.6,0.1,1,0.4,1.3
		c-0.1,0.3-0.3,0.5-0.5,0.6c-0.5-0.1-0.8-0.4-1-0.8C112.8,25,112.2,25.3,111.5,25.3z M111.7,24.3c0.6,0,1.1-0.3,1.5-0.9v-3.3
		c-0.5-0.3-0.9-0.5-1.3-0.5c-0.4,0-0.7,0.2-1,0.6c-0.3,0.4-0.4,1-0.4,1.7c0,0.8,0.1,1.3,0.3,1.7C111.1,24.1,111.4,24.3,111.7,24.3z"
		/>
	<path fill="#FFFFFF" d="M121.3,22.4h-3.9c0,0.6,0.2,1.1,0.4,1.4s0.6,0.5,1.2,0.5s1.1-0.2,1.8-0.5c0.2,0.2,0.4,0.5,0.4,0.8
		c-0.7,0.5-1.5,0.7-2.4,0.7s-1.6-0.3-2-0.9c-0.4-0.6-0.6-1.4-0.6-2.4s0.2-1.8,0.7-2.4c0.5-0.6,1.1-0.9,1.9-0.9
		c0.8,0,1.5,0.3,1.9,0.8c0.5,0.5,0.7,1.2,0.7,2C121.4,21.7,121.3,22,121.3,22.4z M119.8,20c-0.2-0.3-0.6-0.5-1-0.5
		c-0.4,0-0.8,0.2-1,0.5c-0.2,0.3-0.4,0.8-0.4,1.4h2.7v-0.2C120.1,20.8,120,20.3,119.8,20z"/>
	<path fill="#FFFFFF" d="M129.3,21.2c0,0,0-0.1,0-0.1c0-1-0.4-1.5-1.2-1.5c-0.4,0-0.8,0.2-1,0.6c-0.2,0.4-0.4,1-0.4,1.8
		c0,1.5,0.5,2.3,1.5,2.3c0.5,0,1-0.2,1.6-0.7c0.1,0.1,0.2,0.2,0.3,0.3c0.1,0.1,0.2,0.3,0.2,0.4c-0.6,0.6-1.4,1-2.3,1s-1.6-0.3-2-0.9
		c-0.4-0.6-0.7-1.5-0.7-2.5s0.3-1.8,0.8-2.4c0.5-0.6,1.2-0.9,1.9-0.9c0.7,0,1.3,0.2,1.7,0.6c0.4,0.4,0.6,0.8,0.6,1.3
		s-0.2,0.7-0.7,0.7C129.7,21.2,129.5,21.2,129.3,21.2z"/>
	<path fill="#FFFFFF" d="M137,24.6c-0.1,0.3-0.3,0.5-0.5,0.6c-0.5-0.1-0.8-0.4-1-0.8c-0.6,0.6-1.3,0.9-1.9,0.9
		c-0.6,0-1.1-0.2-1.5-0.6c-0.3-0.4-0.5-0.8-0.5-1.3c0-0.7,0.2-1.2,0.7-1.6c0.5-0.4,1.1-0.5,1.8-0.5c0.4,0,0.9,0,1.3,0.1v-0.5
		c0-0.8-0.4-1.2-1.1-1.2c-0.6,0-1.3,0.2-2.1,0.5c-0.2-0.2-0.4-0.5-0.4-0.9c0.9-0.4,1.8-0.6,2.7-0.6c0.7,0,1.2,0.2,1.6,0.5
		c0.4,0.4,0.6,0.9,0.6,1.6v2.7C136.6,24,136.7,24.4,137,24.6z M133.8,24.3c0.6,0,1.1-0.3,1.6-0.8v-1.2c-0.3,0-0.7-0.1-1.2-0.1
		c-0.4,0-0.8,0.1-1,0.3c-0.2,0.2-0.3,0.5-0.3,0.8s0.1,0.6,0.2,0.8C133.2,24.2,133.5,24.3,133.8,24.3z"/>
	<path fill="#FFFFFF" d="M140.3,25.3c-0.7,0-1.3-0.3-1.7-0.9c-0.4-0.6-0.6-1.4-0.6-2.5s0.2-1.9,0.7-2.4c0.5-0.6,1.1-0.9,1.7-0.9
		c0.5,0,1,0.1,1.5,0.4v-3.4l0.1-0.1h0.5c0.3,0,0.4,0.1,0.5,0.2c0.1,0.1,0.1,0.3,0.1,0.6v6.9c0,0.6,0.1,1,0.4,1.3
		c-0.1,0.3-0.3,0.5-0.5,0.6c-0.5-0.1-0.8-0.4-1-0.8C141.7,25,141,25.3,140.3,25.3z M140.6,24.3c0.6,0,1.1-0.3,1.5-0.9v-3.3
		c-0.5-0.3-0.9-0.5-1.3-0.5c-0.4,0-0.7,0.2-1,0.6c-0.3,0.4-0.4,1-0.4,1.7c0,0.8,0.1,1.3,0.3,1.7C139.9,24.1,140.2,24.3,140.6,24.3z"
		/>
	<path fill="#FFFFFF" d="M150.3,24.6c-0.1,0.3-0.3,0.5-0.5,0.6c-0.5-0.1-0.8-0.4-1-0.8c-0.6,0.6-1.3,0.9-1.9,0.9
		c-0.6,0-1.1-0.2-1.5-0.6c-0.3-0.4-0.5-0.8-0.5-1.3c0-0.7,0.2-1.2,0.7-1.6c0.5-0.4,1.1-0.5,1.8-0.5c0.4,0,0.9,0,1.3,0.1v-0.5
		c0-0.8-0.4-1.2-1.1-1.2c-0.6,0-1.3,0.2-2.1,0.5c-0.2-0.2-0.4-0.5-0.4-0.9c0.9-0.4,1.8-0.6,2.7-0.6c0.7,0,1.2,0.2,1.6,0.5
		c0.4,0.4,0.6,0.9,0.6,1.6v2.7C149.9,24,150,24.4,150.3,24.6z M147.1,24.3c0.6,0,1.1-0.3,1.6-0.8v-1.2c-0.3,0-0.7-0.1-1.2-0.1
		c-0.4,0-0.8,0.1-1,0.3c-0.2,0.2-0.3,0.5-0.3,0.8s0.1,0.6,0.2,0.8C146.6,24.2,146.8,24.3,147.1,24.3z"/>
	<path fill="#FFFFFF" d="M158.3,21.1c0-0.5-0.1-0.8-0.2-1s-0.3-0.3-0.6-0.3c-0.5,0-1,0.3-1.5,0.8v4.5c-0.1,0-0.4,0.1-0.6,0.1
		s-0.5,0-0.6-0.1v-6.4l0.1-0.1h0.5c0.4,0,0.7,0.3,0.7,0.8c0.6-0.6,1.2-0.9,1.9-0.9s1.2,0.3,1.4,1c0.7-0.6,1.4-1,2.1-1
		c0.5,0,0.9,0.2,1.2,0.6c0.3,0.4,0.4,0.9,0.4,1.5v3.2c0,0.5,0.1,0.9,0.2,1.2c-0.2,0.2-0.5,0.3-0.8,0.3c-0.4,0-0.7-0.3-0.7-0.8v-3.4
		c0-0.5-0.1-0.8-0.2-1c-0.1-0.2-0.3-0.3-0.6-0.3c-0.5,0-1,0.3-1.5,0.8v4.5c-0.1,0-0.4,0.1-0.6,0.1s-0.5,0-0.6-0.1V21.1z"/>
	<path fill="#FFFFFF" d="M169.4,19.3c0.6,0.6,0.9,1.5,0.9,2.7c0,1.2-0.3,2-0.9,2.7c-0.5,0.5-1.1,0.7-1.9,0.7s-1.4-0.2-1.9-0.7
		c-0.6-0.6-0.9-1.5-0.9-2.7c0-1.2,0.3-2,0.9-2.7c0.5-0.5,1.1-0.7,1.9-0.7S168.9,18.8,169.4,19.3z M166,22c0,1.6,0.5,2.4,1.5,2.4
		s1.5-0.8,1.5-2.4c0-0.5,0-0.8-0.1-1.2s-0.2-0.6-0.5-0.9c-0.2-0.2-0.5-0.4-0.9-0.4s-0.7,0.1-0.9,0.4c-0.2,0.2-0.4,0.5-0.5,0.9
		S166,21.5,166,22z M166.6,17.7l1.8-2.1c0.2,0.1,0.4,0.2,0.5,0.3c0.2,0.2,0.3,0.3,0.4,0.5l-2.2,1.7
		C166.8,18.1,166.6,17.9,166.6,17.7z"/>
	<path fill="#FFFFFF" d="M173.7,25.3c-0.7,0-1.3-0.3-1.7-0.9c-0.4-0.6-0.6-1.4-0.6-2.5s0.2-1.9,0.7-2.4c0.5-0.6,1.1-0.9,1.7-0.9
		c0.5,0,1,0.1,1.5,0.4v-3.4l0.1-0.1h0.5c0.3,0,0.4,0.1,0.5,0.2c0.1,0.1,0.1,0.3,0.1,0.6v6.9c0,0.6,0.1,1,0.4,1.3
		c-0.1,0.3-0.3,0.5-0.5,0.6c-0.5-0.1-0.8-0.4-1-0.8C175.1,25,174.5,25.3,173.7,25.3z M174,24.3c0.6,0,1.1-0.3,1.5-0.9v-3.3
		c-0.5-0.3-0.9-0.5-1.3-0.5c-0.4,0-0.7,0.2-1,0.6c-0.3,0.4-0.4,1-0.4,1.7c0,0.8,0.1,1.3,0.3,1.7C173.3,24.1,173.6,24.3,174,24.3z"/>
	<path fill="#FFFFFF" d="M178.7,23.2v-3.1c0-0.5-0.1-0.9-0.2-1.2c0.2-0.2,0.4-0.3,0.7-0.3s0.5,0.1,0.6,0.2c0.1,0.1,0.1,0.3,0.1,0.6
		v3.4c0,0.5,0.1,0.8,0.2,1c0.1,0.2,0.3,0.3,0.6,0.3c0.3,0,0.6-0.1,0.9-0.2c0.3-0.2,0.6-0.4,0.8-0.6v-4.5c0.2,0,0.4-0.1,0.6-0.1
		s0.4,0,0.6,0.1v4.6c0,0.6,0.1,1,0.4,1.3c-0.1,0.3-0.2,0.5-0.5,0.6c-0.5-0.1-0.9-0.4-1-0.9c-0.7,0.7-1.4,1-2.2,1
		c-0.6,0-1-0.2-1.3-0.6C178.9,24.3,178.7,23.8,178.7,23.2z"/>
	<path fill="#FFFFFF" d="M187.6,24.2h0.5c0.1,0.2,0.1,0.4,0.1,0.5c0,0.2,0,0.3,0,0.4c-0.3,0.1-0.7,0.1-1.1,0.1
		c-0.8,0-1.2-0.4-1.2-1.3v-8.3l0.1-0.1h0.5c0.3,0,0.4,0.1,0.5,0.2c0.1,0.1,0.1,0.3,0.1,0.6v7.2C187.1,24,187.3,24.2,187.6,24.2z"/>
	<path fill="#FFFFFF" d="M193.9,19.3c0.6,0.6,0.9,1.5,0.9,2.7c0,1.2-0.3,2-0.9,2.7c-0.5,0.5-1.1,0.7-1.9,0.7s-1.4-0.2-1.9-0.7
		c-0.6-0.6-0.9-1.5-0.9-2.7c0-1.2,0.3-2,0.9-2.7c0.5-0.5,1.1-0.7,1.9-0.7S193.4,18.8,193.9,19.3z M190.6,22c0,1.6,0.5,2.4,1.5,2.4
		s1.5-0.8,1.5-2.4c0-0.5,0-0.8-0.1-1.2s-0.2-0.6-0.5-0.9c-0.2-0.2-0.5-0.4-0.9-0.4s-0.7,0.1-0.9,0.4c-0.2,0.2-0.4,0.5-0.5,0.9
		S190.6,21.5,190.6,22z"/>
	<path fill="#FFFFFF" d="M196.2,27.2c-0.2-0.1-0.3-0.3-0.3-0.6c0,0,0-0.1,0-0.1c0.3-0.1,0.6-0.3,0.7-0.6c0.2-0.2,0.3-0.5,0.3-0.7
		c-0.3-0.1-0.4-0.1-0.5-0.2c-0.1-0.1-0.1-0.4-0.1-0.6c0-0.3,0-0.5,0.1-0.6c0.2-0.1,0.5-0.2,0.8-0.2s0.6,0.1,0.7,0.2
		c0.1,0.2,0.1,0.5,0.1,0.8c0,0.6-0.2,1.1-0.5,1.5C197.3,26.7,196.8,27,196.2,27.2z"/>
	<path fill="#FFFFFF" d="M204.5,24.2h0.5c0.1,0.2,0.1,0.4,0.1,0.5c0,0.2,0,0.3,0,0.4c-0.3,0.1-0.7,0.1-1.1,0.1
		c-0.8,0-1.2-0.4-1.2-1.3v-8.3l0.1-0.1h0.5c0.3,0,0.4,0.1,0.5,0.2c0.1,0.1,0.1,0.3,0.1,0.6v7.2C204,24,204.1,24.2,204.5,24.2z"/>
	<path fill="#FFFFFF" d="M211.6,20.8v3.1c0,0.5,0.1,0.9,0.2,1.2c-0.2,0.2-0.5,0.3-0.8,0.3c-0.4,0-0.7-0.3-0.7-0.8v-3.4
		c0-0.5-0.1-0.8-0.2-1c-0.1-0.2-0.3-0.3-0.6-0.3s-0.6,0.1-0.9,0.2c-0.3,0.2-0.6,0.4-0.8,0.6v4.5c-0.1,0-0.3,0.1-0.6,0.1
		c-0.3,0-0.5,0-0.6-0.1v-9.5l0.1-0.1h0.5c0.3,0,0.4,0.1,0.5,0.2c0.1,0.1,0.1,0.3,0.1,0.6v3.1c0.6-0.6,1.3-0.9,2.1-0.9
		c0.6,0,1,0.2,1.3,0.6C211.5,19.6,211.6,20.1,211.6,20.8z"/>
	<path fill="#FFFFFF" d="M218.3,22.4h-3.9c0,0.6,0.2,1.1,0.4,1.4s0.6,0.5,1.2,0.5s1.1-0.2,1.8-0.5c0.2,0.2,0.4,0.5,0.4,0.8
		c-0.7,0.5-1.5,0.7-2.4,0.7s-1.6-0.3-2-0.9c-0.4-0.6-0.6-1.4-0.6-2.4s0.2-1.8,0.7-2.4c0.5-0.6,1.1-0.9,1.9-0.9
		c0.8,0,1.5,0.3,1.9,0.8c0.5,0.5,0.7,1.2,0.7,2C218.4,21.7,218.4,22,218.3,22.4z M216.9,20c-0.2-0.3-0.6-0.5-1-0.5
		c-0.4,0-0.8,0.2-1,0.5c-0.2,0.3-0.4,0.8-0.4,1.4h2.7v-0.2C217.2,20.8,217.1,20.3,216.9,20z"/>
	<path fill="#FFFFFF" d="M15.8,36.8c0,0,0-0.1,0-0.1c0-1-0.4-1.5-1.2-1.5c-0.4,0-0.8,0.2-1,0.6c-0.2,0.4-0.4,1-0.4,1.8
		c0,1.5,0.5,2.3,1.5,2.3c0.5,0,1-0.2,1.6-0.7c0.1,0.1,0.2,0.2,0.3,0.3c0.1,0.1,0.2,0.3,0.2,0.4c-0.6,0.6-1.4,1-2.3,1s-1.6-0.3-2-0.9
		c-0.4-0.6-0.7-1.5-0.7-2.5s0.3-1.8,0.8-2.4c0.5-0.6,1.2-0.9,1.9-0.9c0.7,0,1.3,0.2,1.7,0.6c0.4,0.4,0.6,0.8,0.6,1.3
		s-0.2,0.7-0.7,0.7C16.1,36.8,16,36.8,15.8,36.8z"/>
	<path fill="#FFFFFF" d="M22.7,34.9c0.6,0.6,0.9,1.5,0.9,2.7c0,1.2-0.3,2-0.9,2.7c-0.5,0.5-1.1,0.7-1.9,0.7s-1.4-0.2-1.9-0.7
		c-0.6-0.6-0.9-1.5-0.9-2.7c0-1.2,0.3-2,0.9-2.7c0.5-0.5,1.1-0.7,1.9-0.7S22.3,34.4,22.7,34.9z M19.4,37.6c0,1.6,0.5,2.4,1.5,2.4
		s1.5-0.8,1.5-2.4c0-0.5,0-0.8-0.1-1.2s-0.2-0.6-0.5-0.9c-0.2-0.2-0.5-0.4-0.9-0.4s-0.7,0.1-0.9,0.4c-0.2,0.2-0.4,0.5-0.5,0.9
		S19.4,37.1,19.4,37.6z"/>
	<path fill="#FFFFFF" d="M30.4,36.3v3.1c0,0.5,0.1,0.9,0.2,1.2c-0.2,0.2-0.5,0.3-0.8,0.3c-0.5,0-0.7-0.3-0.7-0.8v-3.4
		c0-0.5-0.1-0.8-0.2-1c-0.1-0.2-0.3-0.3-0.6-0.3s-0.6,0.1-0.9,0.2c-0.3,0.2-0.6,0.4-0.8,0.6v4.5c-0.1,0-0.4,0.1-0.6,0.1
		s-0.5,0-0.6-0.1v-6.4l0.1-0.1h0.5c0.4,0,0.7,0.3,0.7,0.8c0.7-0.6,1.3-0.9,2.1-0.9c0.6,0,1,0.2,1.3,0.6
		C30.2,35.2,30.4,35.7,30.4,36.3z"/>
	<path fill="#FFFFFF" d="M35.8,36.8c0,0,0-0.1,0-0.1c0-1-0.4-1.5-1.2-1.5c-0.4,0-0.8,0.2-1,0.6c-0.2,0.4-0.4,1-0.4,1.8
		c0,1.5,0.5,2.3,1.5,2.3c0.5,0,1-0.2,1.6-0.7c0.1,0.1,0.2,0.2,0.3,0.3c0.1,0.1,0.2,0.3,0.2,0.4c-0.6,0.6-1.4,1-2.3,1s-1.6-0.3-2-0.9
		c-0.4-0.6-0.7-1.5-0.7-2.5s0.3-1.8,0.8-2.4c0.5-0.6,1.2-0.9,1.9-0.9c0.7,0,1.3,0.2,1.7,0.6c0.4,0.4,0.6,0.8,0.6,1.3
		s-0.2,0.7-0.7,0.7C36.1,36.8,36,36.8,35.8,36.8z"/>
	<path fill="#FFFFFF" d="M43.2,38h-3.9c0,0.6,0.2,1.1,0.4,1.4s0.6,0.5,1.2,0.5s1.1-0.2,1.8-0.5c0.2,0.2,0.4,0.5,0.4,0.8
		c-0.7,0.5-1.5,0.7-2.4,0.7s-1.6-0.3-2-0.9c-0.4-0.6-0.6-1.4-0.6-2.4s0.2-1.8,0.7-2.4c0.5-0.6,1.1-0.9,1.9-0.9
		c0.8,0,1.5,0.3,1.9,0.8c0.5,0.5,0.7,1.2,0.7,2C43.3,37.3,43.3,37.6,43.2,38z M41.8,35.6c-0.2-0.3-0.6-0.5-1-0.5
		c-0.4,0-0.8,0.2-1,0.5c-0.2,0.3-0.4,0.8-0.4,1.4h2.7v-0.2C42.1,36.4,42,35.9,41.8,35.6z"/>
	<path fill="#FFFFFF" d="M46.8,40.9c-0.7,0-1.3-0.3-1.7-0.9c-0.4-0.6-0.6-1.4-0.6-2.5s0.2-1.9,0.7-2.4c0.5-0.6,1.1-0.9,1.7-0.9
		c0.5,0,1,0.1,1.5,0.4v-3.4l0.1-0.1h0.5c0.3,0,0.4,0.1,0.5,0.2c0.1,0.1,0.1,0.3,0.1,0.6v6.9c0,0.6,0.1,1,0.4,1.3
		c-0.1,0.3-0.3,0.5-0.5,0.6c-0.5-0.1-0.8-0.4-1-0.8C48.2,40.6,47.6,40.9,46.8,40.9z M47.1,39.9c0.6,0,1.1-0.3,1.5-0.9v-3.3
		c-0.5-0.3-0.9-0.5-1.3-0.5c-0.4,0-0.7,0.2-1,0.6c-0.3,0.4-0.4,1-0.4,1.7c0,0.8,0.1,1.3,0.3,1.7C46.4,39.7,46.7,39.9,47.1,39.9z"/>
	<path fill="#FFFFFF" d="M56.6,38h-3.9c0,0.6,0.2,1.1,0.4,1.4s0.6,0.5,1.2,0.5s1.1-0.2,1.8-0.5c0.2,0.2,0.4,0.5,0.4,0.8
		c-0.7,0.5-1.5,0.7-2.4,0.7s-1.6-0.3-2-0.9c-0.4-0.6-0.6-1.4-0.6-2.4s0.2-1.8,0.7-2.4c0.5-0.6,1.1-0.9,1.9-0.9
		c0.8,0,1.5,0.3,1.9,0.8c0.5,0.5,0.7,1.2,0.7,2C56.7,37.3,56.7,37.6,56.6,38z M55.2,35.6c-0.2-0.3-0.6-0.5-1-0.5
		c-0.4,0-0.8,0.2-1,0.5c-0.2,0.3-0.4,0.8-0.4,1.4h2.7v-0.2C55.5,36.4,55.4,35.9,55.2,35.6z"/>
	<path fill="#FFFFFF" d="M58.1,34.9c0.1-0.3,0.2-0.5,0.5-0.7c0.6,0.1,0.9,0.5,1.1,1.2c0.4-0.8,0.9-1.2,1.7-1.2c0.2,0,0.4,0,0.7,0.1
		c0,0.5-0.1,0.9-0.3,1.2c-0.1,0-0.2,0-0.5-0.1c-0.6,0-1.1,0.3-1.4,1v4.3c-0.1,0-0.4,0.1-0.6,0.1c-0.3,0-0.5,0-0.6-0.1v-4.5
		C58.5,35.7,58.4,35.2,58.1,34.9z"/>
	<path fill="#FFFFFF" d="M68.1,40.2c-0.1,0.3-0.3,0.5-0.5,0.6c-0.5-0.1-0.8-0.4-1-0.8c-0.6,0.6-1.3,0.9-1.9,0.9
		c-0.6,0-1.1-0.2-1.5-0.6c-0.3-0.4-0.5-0.8-0.5-1.3c0-0.7,0.2-1.2,0.7-1.6c0.5-0.4,1.1-0.5,1.8-0.5c0.4,0,0.9,0,1.3,0.1v-0.5
		c0-0.8-0.4-1.2-1.1-1.2c-0.6,0-1.3,0.2-2.1,0.5c-0.2-0.2-0.4-0.5-0.4-0.9c0.9-0.4,1.8-0.6,2.7-0.6c0.7,0,1.2,0.2,1.6,0.5
		c0.4,0.4,0.6,0.9,0.6,1.6v2.7C67.7,39.6,67.8,40,68.1,40.2z M65.4,33.3L64.7,33c-0.2-0.1-0.3-0.1-0.5-0.1S64,33,63.8,33.2l-0.1,0.2
		c-0.1,0-0.3,0-0.4-0.1c-0.1-0.1-0.2-0.2-0.2-0.3l0.1-0.3c0.1-0.3,0.3-0.5,0.5-0.7c0.2-0.2,0.5-0.3,0.7-0.3c0.2,0,0.5,0.1,0.8,0.2
		l0.7,0.4c0.1,0.1,0.3,0.1,0.4,0.1c0.2,0,0.3-0.1,0.5-0.3l0.1-0.2c0.1,0,0.3,0.1,0.4,0.1c0.1,0.1,0.2,0.2,0.2,0.3l-0.1,0.2
		c-0.1,0.3-0.3,0.5-0.5,0.7c-0.2,0.2-0.5,0.2-0.7,0.2S65.7,33.5,65.4,33.3z M64.9,39.9c0.6,0,1.1-0.3,1.6-0.8v-1.2
		c-0.3,0-0.7-0.1-1.2-0.1c-0.4,0-0.8,0.1-1,0.3c-0.2,0.2-0.3,0.5-0.3,0.8s0.1,0.6,0.2,0.8C64.4,39.8,64.6,39.9,64.9,39.9z"/>
	<path fill="#FFFFFF" d="M73.9,34.9c0.6,0.6,0.9,1.5,0.9,2.7c0,1.2-0.3,2-0.9,2.7c-0.5,0.5-1.1,0.7-1.9,0.7s-1.4-0.2-1.9-0.7
		c-0.6-0.6-0.9-1.5-0.9-2.7c0-1.2,0.3-2,0.9-2.7c0.5-0.5,1.1-0.7,1.9-0.7S73.5,34.4,73.9,34.9z M70.6,37.6c0,1.6,0.5,2.4,1.5,2.4
		s1.5-0.8,1.5-2.4c0-0.5,0-0.8-0.1-1.2s-0.2-0.6-0.5-0.9c-0.2-0.2-0.5-0.4-0.9-0.4s-0.7,0.1-0.9,0.4c-0.2,0.2-0.4,0.5-0.5,0.9
		S70.6,37.1,70.6,37.6z"/>
	<path fill="#FFFFFF" d="M79.3,38.8v-3.1c0-0.5-0.1-0.9-0.2-1.2c0.2-0.2,0.4-0.3,0.7-0.3s0.5,0.1,0.6,0.2c0.1,0.1,0.1,0.3,0.1,0.6
		v3.4c0,0.5,0.1,0.8,0.2,1c0.1,0.2,0.3,0.3,0.6,0.3c0.3,0,0.6-0.1,0.9-0.2c0.3-0.2,0.6-0.4,0.8-0.6v-4.5c0.2,0,0.4-0.1,0.6-0.1
		s0.4,0,0.6,0.1V39c0,0.6,0.1,1,0.4,1.3c-0.1,0.3-0.2,0.5-0.5,0.6c-0.5-0.1-0.9-0.4-1-0.9c-0.7,0.7-1.4,1-2.2,1
		c-0.6,0-1-0.2-1.3-0.6C79.4,39.9,79.3,39.4,79.3,38.8z"/>
	<path fill="#FFFFFF" d="M90,36.7c0-0.5-0.1-0.8-0.2-1s-0.3-0.3-0.6-0.3c-0.5,0-1,0.3-1.5,0.8v4.5c-0.1,0-0.4,0.1-0.6,0.1
		s-0.5,0-0.6-0.1v-6.4l0.1-0.1H87c0.4,0,0.7,0.3,0.7,0.8c0.6-0.6,1.2-0.9,1.9-0.9s1.2,0.3,1.4,1c0.7-0.6,1.4-1,2.1-1
		c0.5,0,0.9,0.2,1.2,0.6c0.3,0.4,0.4,0.9,0.4,1.5v3.2c0,0.5,0.1,0.9,0.2,1.2c-0.2,0.2-0.5,0.3-0.8,0.3c-0.4,0-0.7-0.3-0.7-0.8v-3.4
		c0-0.5-0.1-0.8-0.2-1c-0.1-0.2-0.3-0.3-0.6-0.3c-0.5,0-1,0.3-1.5,0.8v4.5c-0.1,0-0.4,0.1-0.6,0.1s-0.5,0-0.6-0.1V36.7z"/>
	<path fill="#FFFFFF" d="M101.7,40.2c-0.1,0.3-0.3,0.5-0.5,0.6c-0.5-0.1-0.8-0.4-1-0.8c-0.6,0.6-1.3,0.9-1.9,0.9
		c-0.6,0-1.1-0.2-1.5-0.6c-0.3-0.4-0.5-0.8-0.5-1.3c0-0.7,0.2-1.2,0.7-1.6c0.5-0.4,1.1-0.5,1.8-0.5c0.4,0,0.9,0,1.3,0.1v-0.5
		c0-0.8-0.4-1.2-1.1-1.2c-0.6,0-1.3,0.2-2.1,0.5c-0.2-0.2-0.4-0.5-0.4-0.9c0.9-0.4,1.8-0.6,2.7-0.6c0.7,0,1.2,0.2,1.6,0.5
		c0.4,0.4,0.6,0.9,0.6,1.6v2.7C101.4,39.6,101.5,40,101.7,40.2z M98.5,39.9c0.6,0,1.1-0.3,1.6-0.8v-1.2c-0.3,0-0.7-0.1-1.2-0.1
		c-0.4,0-0.8,0.1-1,0.3c-0.2,0.2-0.3,0.5-0.3,0.8s0.1,0.6,0.2,0.8C98,39.8,98.2,39.9,98.5,39.9z"/>
	<path fill="#A9D42D" d="M109.6,36.8c0-0.7-0.2-1.1-0.7-1.1c-0.4,0-0.8,0.2-1.2,0.7v4.5c-0.2,0-0.5,0.1-0.8,0.1s-0.6,0-0.8-0.1v-6.4
		l0.1-0.1h0.6c0.5,0,0.8,0.3,0.9,0.8c0.6-0.6,1.2-0.9,1.9-0.9s1.1,0.3,1.4,0.9c0.7-0.6,1.3-0.9,2-0.9c0.5,0,1,0.2,1.3,0.6
		c0.3,0.4,0.4,0.9,0.4,1.5v3c0,0.5,0.1,0.9,0.3,1.2c-0.3,0.2-0.6,0.3-0.9,0.3s-0.6-0.1-0.7-0.2c-0.1-0.2-0.2-0.4-0.2-0.8v-3.1
		c0-0.7-0.2-1.1-0.7-1.1c-0.4,0-0.8,0.2-1.2,0.7v4.4c-0.2,0-0.5,0.1-0.8,0.1s-0.6,0-0.8-0.1V36.8z"/>
	<path fill="#A9D42D" d="M121.4,38.1h-3.6c0,0.5,0.1,0.9,0.3,1.2c0.2,0.3,0.6,0.4,1.1,0.4c0.5,0,1.1-0.2,1.7-0.5
		c0.2,0.2,0.4,0.6,0.5,1c-0.7,0.5-1.5,0.7-2.5,0.7c-1,0-1.7-0.3-2.1-0.9c-0.4-0.6-0.6-1.5-0.6-2.5c0-1,0.2-1.8,0.7-2.5
		s1.1-0.9,2-0.9s1.5,0.3,2,0.8c0.5,0.5,0.7,1.2,0.7,2C121.6,37.3,121.5,37.7,121.4,38.1z M118.9,35.3c-0.7,0-1.1,0.5-1.1,1.6h2.3
		v-0.2c0-0.4-0.1-0.8-0.3-1.1C119.6,35.4,119.3,35.3,118.9,35.3z"/>
	<path fill="#A9D42D" d="M124.9,40.9c-0.7,0-1.3-0.3-1.7-0.9c-0.4-0.6-0.6-1.4-0.6-2.5c0-1,0.2-1.9,0.7-2.5c0.5-0.6,1.1-0.9,1.8-0.9
		c0.4,0,0.9,0.1,1.4,0.4v-3.3l0.1-0.1h0.6c0.3,0,0.5,0.1,0.7,0.2c0.1,0.2,0.2,0.4,0.2,0.8v6.7c0,0.5,0.1,0.9,0.4,1.1
		c0,0.1-0.1,0.3-0.2,0.5c-0.1,0.2-0.2,0.3-0.3,0.4c-0.5-0.1-0.9-0.3-1.2-0.8C126.3,40.7,125.6,40.9,124.9,40.9z M125.3,39.6
		c0.5,0,0.9-0.2,1.2-0.7v-3.1c-0.4-0.3-0.8-0.4-1.2-0.4s-0.6,0.2-0.8,0.6c-0.2,0.4-0.3,0.9-0.3,1.6s0.1,1.2,0.3,1.5
		C124.8,39.5,125,39.6,125.3,39.6z"/>
	<path fill="#A9D42D" d="M135.2,40c0,0.1-0.1,0.3-0.2,0.5s-0.2,0.3-0.3,0.4c-0.5-0.1-0.9-0.3-1.2-0.8c-0.6,0.6-1.2,0.8-1.9,0.8
		s-1.2-0.2-1.5-0.6c-0.3-0.4-0.5-0.8-0.5-1.4c0-0.7,0.2-1.3,0.7-1.6c0.5-0.4,1.1-0.6,1.8-0.6c0.4,0,0.8,0,1.1,0.1v-0.4
		c0-0.7-0.3-1-1-1c-0.5,0-1.1,0.2-2,0.5c-0.3-0.3-0.4-0.7-0.4-1.2c0.9-0.4,1.9-0.6,2.8-0.6c0.7,0,1.2,0.2,1.6,0.5s0.6,0.9,0.6,1.7
		V39C134.8,39.5,134.9,39.8,135.2,40z M131.9,39.7c0.5,0,0.9-0.2,1.3-0.6v-1.2c-0.3,0-0.6-0.1-1-0.1s-0.6,0.1-0.8,0.3
		c-0.2,0.2-0.3,0.4-0.3,0.7s0.1,0.5,0.2,0.6S131.7,39.7,131.9,39.7z"/>
	<path fill="#A9D42D" d="M138.7,39.6h0.4c0.1,0.3,0.1,0.5,0.1,0.7s0,0.4,0,0.5c-0.5,0.1-0.9,0.1-1.2,0.1c-0.9,0-1.4-0.5-1.4-1.5v-8
		l0.1-0.1h0.6c0.3,0,0.5,0.1,0.7,0.2c0.1,0.2,0.2,0.4,0.2,0.8V39C138.2,39.4,138.3,39.6,138.7,39.6z"/>
	<path fill="#A9D42D" d="M145.8,36.4v2.9c0,0.5,0.1,0.9,0.3,1.2c-0.3,0.2-0.6,0.3-0.9,0.3c-0.4,0-0.6-0.1-0.7-0.2
		c-0.1-0.2-0.2-0.4-0.2-0.8v-3.1c0-0.4,0-0.7-0.1-0.9s-0.3-0.3-0.6-0.3c-0.5,0-1,0.2-1.4,0.7v4.4c-0.2,0-0.5,0.1-0.8,0.1
		c-0.3,0-0.5,0-0.8-0.1v-9.5l0.1-0.1h0.6c0.3,0,0.6,0.1,0.7,0.2c0.1,0.2,0.2,0.4,0.2,0.8V35c0.6-0.5,1.2-0.8,1.9-0.8
		c0.6,0,1.1,0.2,1.4,0.6C145.6,35.2,145.8,35.8,145.8,36.4z"/>
	<path fill="#A9D42D" d="M152.7,40c0,0.1-0.1,0.3-0.2,0.5s-0.2,0.3-0.3,0.4c-0.5-0.1-0.9-0.3-1.2-0.8c-0.6,0.6-1.2,0.8-1.9,0.8
		s-1.2-0.2-1.5-0.6c-0.3-0.4-0.5-0.8-0.5-1.4c0-0.7,0.2-1.3,0.7-1.6c0.5-0.4,1.1-0.6,1.8-0.6c0.4,0,0.8,0,1.1,0.1v-0.4
		c0-0.7-0.3-1-1-1c-0.5,0-1.1,0.2-2,0.5c-0.3-0.3-0.4-0.7-0.4-1.2c0.9-0.4,1.9-0.6,2.8-0.6c0.7,0,1.2,0.2,1.6,0.5s0.6,0.9,0.6,1.7
		V39C152.4,39.5,152.5,39.8,152.7,40z M149.5,39.7c0.5,0,0.9-0.2,1.3-0.6v-1.2c-0.3,0-0.6-0.1-1-0.1s-0.6,0.1-0.8,0.3
		c-0.2,0.2-0.3,0.4-0.3,0.7s0.1,0.5,0.2,0.6S149.3,39.7,149.5,39.7z"/>
	<path fill="#A9D42D" d="M158.9,40.9c-0.7,0-1.3-0.3-1.7-0.9c-0.4-0.6-0.6-1.4-0.6-2.5c0-1,0.2-1.9,0.7-2.5c0.5-0.6,1.1-0.9,1.8-0.9
		c0.4,0,0.9,0.1,1.4,0.4v-3.3l0.1-0.1h0.6c0.3,0,0.5,0.1,0.7,0.2c0.1,0.2,0.2,0.4,0.2,0.8v6.7c0,0.5,0.1,0.9,0.4,1.1
		c0,0.1-0.1,0.3-0.2,0.5c-0.1,0.2-0.2,0.3-0.3,0.4c-0.5-0.1-0.9-0.3-1.2-0.8C160.2,40.7,159.6,40.9,158.9,40.9z M159.3,39.6
		c0.5,0,0.9-0.2,1.2-0.7v-3.1c-0.4-0.3-0.8-0.4-1.2-0.4s-0.6,0.2-0.8,0.6c-0.2,0.4-0.3,0.9-0.3,1.6s0.1,1.2,0.3,1.5
		C158.8,39.5,159,39.6,159.3,39.6z"/>
	<path fill="#A9D42D" d="M168.8,38.1h-3.6c0,0.5,0.1,0.9,0.3,1.2c0.2,0.3,0.6,0.4,1.1,0.4c0.5,0,1.1-0.2,1.7-0.5
		c0.2,0.2,0.4,0.6,0.5,1c-0.7,0.5-1.5,0.7-2.5,0.7c-1,0-1.7-0.3-2.1-0.9c-0.4-0.6-0.6-1.5-0.6-2.5c0-1,0.2-1.8,0.7-2.5
		s1.1-0.9,2-0.9s1.5,0.3,2,0.8c0.5,0.5,0.7,1.2,0.7,2C169,37.3,168.9,37.7,168.8,38.1z M166.3,35.3c-0.7,0-1.1,0.5-1.1,1.6h2.3v-0.2
		c0-0.4-0.1-0.8-0.3-1.1C167,35.4,166.7,35.3,166.3,35.3z"/>
	<path fill="#A9D42D" d="M176.6,37c0-0.1,0-0.1,0-0.2c0-0.4-0.1-0.8-0.2-1c-0.1-0.3-0.4-0.4-0.8-0.4c-0.7,0-1.1,0.7-1.1,2.2
		c0,1.4,0.4,2.2,1.3,2.2c0.5,0,1-0.2,1.5-0.6c0.1,0.1,0.3,0.2,0.4,0.4c0.1,0.2,0.2,0.4,0.2,0.5c-0.7,0.7-1.4,1-2.4,1
		c-0.9,0-1.6-0.3-2.1-0.9s-0.7-1.5-0.7-2.5c0-1.1,0.3-1.9,0.8-2.5c0.5-0.6,1.2-0.9,2-0.9s1.3,0.2,1.8,0.6s0.7,0.9,0.7,1.4
		c0,0.6-0.3,0.8-0.8,0.8C177.1,37,176.9,37,176.6,37z"/>
	<path fill="#A9D42D" d="M184.8,37.5c0,1.2-0.3,2-0.9,2.7c-0.5,0.5-1.1,0.7-2,0.7c-0.8,0-1.5-0.2-2-0.7c-0.6-0.6-0.9-1.5-0.9-2.7
		c0-1.2,0.3-2,0.9-2.7c0.5-0.5,1.1-0.7,2-0.7c0.8,0,1.5,0.2,2,0.7C184.5,35.5,184.8,36.4,184.8,37.5z M181.9,35.4
		c-0.8,0-1.2,0.7-1.2,2.2s0.4,2.2,1.2,2.2c0.8,0,1.2-0.7,1.2-2.2S182.7,35.4,181.9,35.4z"/>
	<path fill="#A9D42D" d="M191.5,36.4v2.9c0,0.5,0.1,0.9,0.3,1.2c-0.3,0.2-0.6,0.3-1,0.3c-0.4,0-0.6-0.1-0.7-0.2
		c-0.1-0.2-0.2-0.4-0.2-0.8v-3.1c0-0.4-0.1-0.7-0.2-0.8c-0.1-0.2-0.3-0.3-0.6-0.3c-0.5,0-0.9,0.2-1.4,0.7v4.5
		c-0.2,0-0.5,0.1-0.8,0.1s-0.6,0-0.8-0.1v-6.4l0.1-0.1h0.6c0.5,0,0.8,0.3,0.9,0.8c0.6-0.6,1.3-0.8,1.9-0.8c0.6,0,1.1,0.2,1.4,0.6
		S191.5,35.8,191.5,36.4z"/>
	<path fill="#A9D42D" d="M195.2,40.9c-0.7,0-1.3-0.3-1.7-0.9c-0.4-0.6-0.6-1.4-0.6-2.5c0-1,0.2-1.9,0.7-2.5c0.5-0.6,1.1-0.9,1.8-0.9
		c0.4,0,0.9,0.1,1.4,0.4v-3.3l0.1-0.1h0.6c0.3,0,0.5,0.1,0.7,0.2c0.1,0.2,0.2,0.4,0.2,0.8v6.7c0,0.5,0.1,0.9,0.4,1.1
		c0,0.1-0.1,0.3-0.2,0.5c-0.1,0.2-0.2,0.3-0.3,0.4c-0.5-0.1-0.9-0.3-1.2-0.8C196.5,40.7,195.9,40.9,195.2,40.9z M195.6,39.6
		c0.5,0,0.9-0.2,1.2-0.7v-3.1c-0.4-0.3-0.8-0.4-1.2-0.4s-0.6,0.2-0.8,0.6c-0.2,0.4-0.3,0.9-0.3,1.6s0.1,1.2,0.3,1.5
		C195,39.5,195.3,39.6,195.6,39.6z"/>
	<path fill="#A9D42D" d="M205.1,38.1h-3.6c0,0.5,0.1,0.9,0.3,1.2c0.2,0.3,0.6,0.4,1.1,0.4c0.5,0,1.1-0.2,1.7-0.5
		c0.2,0.2,0.4,0.6,0.5,1c-0.7,0.5-1.5,0.7-2.5,0.7c-1,0-1.7-0.3-2.1-0.9c-0.4-0.6-0.6-1.5-0.6-2.5c0-1,0.2-1.8,0.7-2.5
		s1.1-0.9,2-0.9s1.5,0.3,2,0.8c0.5,0.5,0.7,1.2,0.7,2C205.3,37.3,205.2,37.7,205.1,38.1z M202.6,35.3c-0.7,0-1.1,0.5-1.1,1.6h2.3
		v-0.2c0-0.4-0.1-0.8-0.3-1.1C203.3,35.4,203,35.3,202.6,35.3z"/>
	<path fill="#A9D42D" d="M210.1,37c0-0.1,0-0.1,0-0.2c0-0.4-0.1-0.8-0.2-1c-0.1-0.3-0.4-0.4-0.8-0.4c-0.7,0-1.1,0.7-1.1,2.2
		c0,1.4,0.4,2.2,1.3,2.2c0.5,0,1-0.2,1.5-0.6c0.1,0.1,0.3,0.2,0.4,0.4c0.1,0.2,0.2,0.4,0.2,0.5c-0.7,0.7-1.4,1-2.4,1
		c-0.9,0-1.6-0.3-2.1-0.9s-0.7-1.5-0.7-2.5c0-1.1,0.3-1.9,0.8-2.5c0.5-0.6,1.2-0.9,2-0.9s1.3,0.2,1.8,0.6s0.7,0.9,0.7,1.4
		c0,0.6-0.3,0.8-0.8,0.8C210.5,37,210.3,37,210.1,37z"/>
	<path fill="#A9D42D" d="M218.2,37.5c0,1.2-0.3,2-0.9,2.7c-0.5,0.5-1.1,0.7-2,0.7c-0.8,0-1.5-0.2-2-0.7c-0.6-0.6-0.9-1.5-0.9-2.7
		c0-1.2,0.3-2,0.9-2.7c0.5-0.5,1.1-0.7,2-0.7c0.8,0,1.5,0.2,2,0.7C217.9,35.5,218.2,36.4,218.2,37.5z M215.3,35.4
		c-0.8,0-1.2,0.7-1.2,2.2s0.4,2.2,1.2,2.2c0.8,0,1.2-0.7,1.2-2.2S216.2,35.4,215.3,35.4z"/>
	<path fill="#A9D42D" d="M219.3,35.1c0-0.1,0.1-0.3,0.2-0.5c0.1-0.2,0.2-0.3,0.3-0.4c0.7,0.1,1.1,0.5,1.4,1.2
		c0.3-0.8,0.9-1.2,1.7-1.2c0.2,0,0.5,0,0.8,0.1c0,0.6-0.1,1.1-0.4,1.5c-0.1,0-0.3-0.1-0.6-0.1c-0.5,0-1,0.3-1.3,0.8v4.2
		c-0.2,0-0.5,0.1-0.8,0.1s-0.6,0-0.8-0.1v-4.4C219.7,35.8,219.6,35.3,219.3,35.1z"/>
	<path fill="#A9D42D" d="M229.7,40c0,0.1-0.1,0.3-0.2,0.5s-0.2,0.3-0.3,0.4c-0.5-0.1-0.9-0.3-1.2-0.8c-0.6,0.6-1.2,0.8-1.9,0.8
		s-1.2-0.2-1.5-0.6c-0.3-0.4-0.5-0.8-0.5-1.4c0-0.7,0.2-1.3,0.7-1.6c0.5-0.4,1.1-0.6,1.8-0.6c0.4,0,0.8,0,1.1,0.1v-0.4
		c0-0.7-0.3-1-1-1c-0.5,0-1.1,0.2-2,0.5c-0.3-0.3-0.4-0.7-0.4-1.2c0.9-0.4,1.9-0.6,2.8-0.6c0.7,0,1.2,0.2,1.6,0.5s0.6,0.9,0.6,1.7
		V39C229.3,39.5,229.4,39.8,229.7,40z M226.4,39.7c0.5,0,0.9-0.2,1.3-0.6v-1.2c-0.3,0-0.6-0.1-1-0.1s-0.6,0.1-0.8,0.3
		c-0.2,0.2-0.3,0.4-0.3,0.7s0.1,0.5,0.2,0.6S226.2,39.7,226.4,39.7z"/>
	<path fill="#A9D42D" d="M232.6,41.7c0.1-0.3,0.2-0.6,0.3-0.8c-0.7-0.1-1.3-0.5-1.7-1.1c-0.4-0.6-0.6-1.4-0.6-2.3
		c0-1.1,0.3-2,0.8-2.6c0.5-0.6,1.2-0.9,2-0.9s1.3,0.2,1.8,0.6s0.7,0.9,0.7,1.4c0,0.6-0.3,0.8-0.8,0.8c-0.2,0-0.4,0-0.7-0.1
		c0-0.1,0-0.1,0-0.2c0-0.4-0.1-0.8-0.2-1c-0.1-0.3-0.4-0.4-0.8-0.4c-0.7,0-1.1,0.7-1.1,2.2c0,1.4,0.4,2.2,1.3,2.2
		c0.5,0,1-0.2,1.5-0.6c0.1,0.1,0.3,0.2,0.4,0.4c0.1,0.2,0.2,0.4,0.2,0.5c-0.5,0.5-1.2,0.8-2,0.9c-0.1,0.1-0.1,0.2-0.1,0.3
		c0.4,0,0.7,0.1,0.9,0.3c0.2,0.2,0.3,0.5,0.3,0.9s-0.2,0.7-0.5,0.9c-0.3,0.3-0.7,0.4-1.2,0.4c-0.5,0-0.8-0.1-1.1-0.3
		c0-0.3,0.1-0.5,0.3-0.8c0.2,0.1,0.4,0.2,0.6,0.2c0.4,0,0.5-0.2,0.5-0.5c0-0.1,0-0.2-0.1-0.3c-0.1-0.1-0.2-0.1-0.3-0.1
		s-0.2,0-0.3,0.1C232.8,42,232.7,41.9,232.6,41.7z"/>
	<path fill="#A9D42D" d="M242.4,40c0,0.1-0.1,0.3-0.2,0.5s-0.2,0.3-0.3,0.4c-0.5-0.1-0.9-0.3-1.2-0.8c-0.6,0.6-1.2,0.8-1.9,0.8
		s-1.2-0.2-1.5-0.6c-0.3-0.4-0.5-0.8-0.5-1.4c0-0.7,0.2-1.3,0.7-1.6c0.5-0.4,1.1-0.6,1.8-0.6c0.4,0,0.8,0,1.1,0.1v-0.4
		c0-0.7-0.3-1-1-1c-0.5,0-1.1,0.2-2,0.5c-0.3-0.3-0.4-0.7-0.4-1.2c0.9-0.4,1.9-0.6,2.8-0.6c0.7,0,1.2,0.2,1.6,0.5s0.6,0.9,0.6,1.7
		V39C242,39.5,242.2,39.8,242.4,40z M239.6,33.3L239,33c-0.1-0.1-0.3-0.1-0.4-0.1s-0.3,0.1-0.5,0.3l-0.1,0.2c-0.2,0-0.3-0.1-0.5-0.1
		c-0.2-0.1-0.3-0.2-0.3-0.3l0.1-0.3c0.1-0.3,0.3-0.6,0.6-0.7c0.2-0.2,0.5-0.3,0.8-0.3s0.5,0.1,0.8,0.2l0.6,0.3
		c0.2,0.1,0.3,0.1,0.4,0.1s0.3-0.1,0.5-0.3l0.1-0.2c0.2,0,0.3,0.1,0.5,0.1s0.3,0.2,0.3,0.3l-0.1,0.3c-0.1,0.3-0.3,0.6-0.6,0.8
		c-0.2,0.2-0.5,0.3-0.8,0.3C240.1,33.6,239.9,33.5,239.6,33.3z M239.1,39.7c0.5,0,0.9-0.2,1.3-0.6v-1.2c-0.3,0-0.6-0.1-1-0.1
		s-0.6,0.1-0.8,0.3c-0.2,0.2-0.3,0.4-0.3,0.7s0.1,0.5,0.2,0.6S238.9,39.7,239.1,39.7z"/>
	<path fill="#A9D42D" d="M249.2,37.5c0,1.2-0.3,2-0.9,2.7c-0.5,0.5-1.1,0.7-2,0.7c-0.8,0-1.5-0.2-2-0.7c-0.6-0.6-0.9-1.5-0.9-2.7
		c0-1.2,0.3-2,0.9-2.7c0.5-0.5,1.1-0.7,2-0.7c0.8,0,1.5,0.2,2,0.7C248.9,35.5,249.2,36.4,249.2,37.5z M246.3,35.4
		c-0.8,0-1.2,0.7-1.2,2.2s0.4,2.2,1.2,2.2c0.8,0,1.2-0.7,1.2-2.2S247.1,35.4,246.3,35.4z"/>
	<path fill="#FFFFFF" d="M250.5,40.1c0-0.3,0-0.5,0.1-0.6c0.2-0.1,0.4-0.2,0.8-0.2s0.6,0.1,0.8,0.2c0.1,0.2,0.1,0.4,0.1,0.6
		c0,0.3,0,0.5-0.1,0.6c-0.2,0.1-0.4,0.2-0.7,0.2c-0.3,0-0.6-0.1-0.8-0.2C250.5,40.6,250.5,40.3,250.5,40.1z"/>
</g>
</svg>