<!-- Generator: Adobe Illustrator 17.1.0, SVG Export Plug-In  -->
<svg version="1.1"
	 xmlns="http://www.w3.org/2000/svg" xmlns:xlink="http://www.w3.org/1999/xlink" xmlns:a="http://ns.adobe.com/AdobeSVGViewerExtensions/3.0/"
	 x="0px" y="0px" width="75.8px" height="36.8px" viewBox="0 0 75.8 36.8" enable-background="new 0 0 75.8 36.8"
	 xml:space="preserve">
<defs>
</defs>
<g>
	<path fill="#FFFFFF" d="M12.6,36.8c-0.1,0-0.2,0-0.3-0.1l-3.2-3l-4.3,0.7c-0.2,0-0.3,0-0.4-0.1c-0.1-0.1-0.1-0.3-0.1-0.4l1.9-6.8
		c0.1-0.2,0.3-0.4,0.6-0.3c0.2,0.1,0.4,0.3,0.3,0.6l-1.7,6.1l3.8-0.7c0.1,0,0.3,0,0.4,0.1l2.9,2.6l1.3-4.3c0.1-0.2,0.3-0.4,0.6-0.3
		c0.2,0.1,0.4,0.3,0.3,0.6l-1.5,5c0,0.1-0.2,0.3-0.3,0.3C12.7,36.8,12.6,36.8,12.6,36.8"/>
	<path fill="#FFFFFF" d="M16.9,36.8c0,0-0.1,0-0.1,0c-0.2,0-0.3-0.2-0.3-0.3l-1.5-5c-0.1-0.2,0.1-0.5,0.3-0.6
		c0.2-0.1,0.5,0.1,0.6,0.3l1.3,4.3l2.9-2.6c0.1-0.1,0.2-0.1,0.4-0.1l3.8,0.7l-1.8-6.1c-0.1-0.2,0.1-0.5,0.3-0.6
		c0.2-0.1,0.5,0.1,0.6,0.3l2,6.8c0,0.1,0,0.3-0.1,0.4c-0.1,0.1-0.3,0.2-0.4,0.1l-4.3-0.7l-3.2,3C17.2,36.8,17.1,36.8,16.9,36.8"/>
	<path fill="#FFFFFF" d="M14.7,29.9L10,26.4l-5.8-1l-0.8-5.8L0,14.7L3.5,10l1-5.8l5.8-0.8L15.2,0l4.7,3.5l5.8,1l0.8,5.8l3.4,4.8
		l-3.5,4.7l-1,5.8l-5.8,0.8L14.7,29.9z M5,24.6l5.4,1l4.4,3.3l4.5-3.1l5.4-0.8l1-5.4l3.3-4.4l-3.1-4.5l-0.8-5.4l-5.4-1l-4.4-3.3
		l-4.5,3.1L5.3,5l-1,5.4l-3.3,4.4l3.1,4.5L5,24.6z"/>
	<path fill="#FFFFFF" d="M14.9,24.3c-5.2,0-9.4-4.2-9.4-9.4c0-5.2,4.2-9.4,9.4-9.4c5.2,0,9.4,4.2,9.4,9.4
		C24.3,20.1,20.1,24.3,14.9,24.3 M14.9,6.4c-4.7,0-8.5,3.8-8.5,8.5c0,4.7,3.8,8.5,8.5,8.5c4.7,0,8.5-3.8,8.5-8.5
		C23.4,10.3,19.6,6.4,14.9,6.4"/>
	<polygon fill="#A9D42D" points="12.2,18.3 13.8,18.3 13.8,11.5 12.3,11.5 12.3,9.9 16.1,9.9 16.1,18.3 17.7,18.3 17.7,19.9 
		12.2,19.9 	"/>
</g>
<g>
	<path fill="#FFFFFF" d="M45.3,18c0,0,0-0.1,0-0.3c0-0.2,0-0.4-0.1-0.6c-0.1-0.3-0.3-0.5-0.5-0.7c-0.3-0.2-0.6-0.3-1-0.3
		c-0.6,0-1.1,0.3-1.5,0.8c-0.3,0.6-0.5,1.4-0.5,2.4s0.2,1.8,0.5,2.4c0.4,0.6,0.9,0.8,1.5,0.8s1.4-0.3,2.1-0.9
		c0.3,0.2,0.5,0.5,0.6,0.8c-0.3,0.4-0.8,0.6-1.3,0.9c-0.5,0.2-1.1,0.3-1.6,0.3c-0.6,0-1.1-0.1-1.5-0.4c-0.4-0.2-0.7-0.6-1-1
		c-0.5-0.8-0.7-1.8-0.7-2.9c0-1.4,0.3-2.5,0.9-3.2c0.6-0.7,1.4-1.1,2.3-1.1c0.9,0,1.6,0.2,2.1,0.7c0.5,0.5,0.8,1,0.8,1.6
		c0,0.5-0.2,0.7-0.7,0.7C45.6,18.1,45.4,18.1,45.3,18z"/>
	<path fill="#FFFFFF" d="M49.5,22.6h0.5c0.1,0.2,0.1,0.3,0.1,0.5c0,0.1,0,0.3,0,0.4c-0.3,0.1-0.7,0.1-1,0.1c-0.8,0-1.1-0.4-1.1-1.2
		v-7.6l0.1-0.1h0.4c0.2,0,0.4,0.1,0.5,0.2c0.1,0.1,0.1,0.3,0.1,0.6V22C49,22.4,49.2,22.6,49.5,22.6z"/>
	<path fill="#FFFFFF" d="M52.7,18.5v4.9c-0.1,0-0.3,0-0.6,0c-0.2,0-0.4,0-0.6,0V19c0-0.2,0-0.4-0.1-0.5s-0.2-0.1-0.4-0.1h-0.1
		c0-0.1,0-0.3,0-0.4c0-0.2,0-0.3,0-0.4c0.3,0,0.5,0,0.7,0h0.2c0.3,0,0.5,0.1,0.7,0.3C52.6,17.9,52.7,18.2,52.7,18.5z M51.2,15.9
		c0-0.2,0-0.4,0.1-0.5c0.2-0.1,0.4-0.1,0.7-0.1c0.3,0,0.5,0,0.6,0.1c0.1,0.1,0.1,0.3,0.1,0.5c0,0.2,0,0.4-0.1,0.5
		c-0.1,0.1-0.3,0.1-0.6,0.1c-0.3,0-0.5,0-0.6-0.1C51.2,16.3,51.2,16.1,51.2,15.9z"/>
	<path fill="#FFFFFF" d="M58.9,20.9h-3.6c0,0.6,0.1,1,0.4,1.3c0.2,0.3,0.6,0.5,1.1,0.5s1.1-0.2,1.7-0.5c0.2,0.2,0.3,0.4,0.4,0.8
		c-0.6,0.4-1.4,0.7-2.3,0.7c-0.9,0-1.5-0.3-1.9-0.9s-0.6-1.3-0.6-2.3s0.2-1.7,0.6-2.3c0.4-0.6,1-0.9,1.8-0.9c0.8,0,1.4,0.2,1.8,0.7
		c0.4,0.5,0.6,1.1,0.6,1.8C59,20.2,59,20.6,58.9,20.9z M57.6,18.7c-0.2-0.3-0.5-0.5-0.9-0.5s-0.7,0.2-0.9,0.5
		c-0.2,0.3-0.3,0.7-0.4,1.3h2.5v-0.2C57.9,19.4,57.8,19,57.6,18.7z"/>
	<path fill="#FFFFFF" d="M65.3,19.4v2.8c0,0.5,0.1,0.8,0.2,1.1c-0.2,0.2-0.4,0.3-0.7,0.3c-0.4,0-0.6-0.2-0.6-0.7v-3.1
		c0-0.4-0.1-0.7-0.2-0.9c-0.1-0.2-0.3-0.3-0.6-0.3c-0.3,0-0.6,0.1-0.9,0.2c-0.3,0.1-0.5,0.3-0.8,0.6v4.2c-0.1,0-0.3,0-0.6,0
		s-0.4,0-0.6,0v-5.9l0.1-0.1h0.4c0.4,0,0.6,0.3,0.6,0.8c0.6-0.5,1.2-0.8,1.9-0.8c0.5,0,0.9,0.2,1.2,0.5
		C65.2,18.3,65.3,18.8,65.3,19.4z"/>
	<path fill="#FFFFFF" d="M70,17.5c0,0.1,0,0.3,0,0.4s0,0.3,0,0.4l-1.5,0v3.7c0,0.3,0.2,0.5,0.5,0.5h0.8c0.1,0.2,0.1,0.3,0.1,0.5
		s0,0.3,0,0.3c-0.5,0.1-0.9,0.1-1.3,0.1c-0.8,0-1.2-0.4-1.2-1.2v-3.9l-0.9,0c0-0.1,0-0.3,0-0.4s0-0.3,0-0.4l0.9,0v-1.1
		c0-0.3,0-0.5,0.1-0.6c0.1-0.1,0.3-0.2,0.5-0.2h0.4l0.1,0.1v1.8L70,17.5z"/>
	<path fill="#FFFFFF" d="M75.7,20.9h-3.6c0,0.6,0.1,1,0.4,1.3c0.2,0.3,0.6,0.5,1.1,0.5s1.1-0.2,1.7-0.5c0.2,0.2,0.3,0.4,0.4,0.8
		c-0.6,0.4-1.4,0.7-2.3,0.7c-0.9,0-1.5-0.3-1.9-0.9s-0.6-1.3-0.6-2.3s0.2-1.7,0.6-2.3c0.4-0.6,1-0.9,1.8-0.9c0.8,0,1.4,0.2,1.8,0.7
		c0.4,0.5,0.6,1.1,0.6,1.8C75.8,20.2,75.7,20.6,75.7,20.9z M74.3,18.7c-0.2-0.3-0.5-0.5-0.9-0.5s-0.7,0.2-0.9,0.5
		c-0.2,0.3-0.3,0.7-0.4,1.3h2.5v-0.2C74.6,19.4,74.5,19,74.3,18.7z"/>
</g>
</svg>