<!-- Generator: Adobe Illustrator 17.1.0, SVG Export Plug-In  -->
<svg version="1.1"
	 xmlns="http://www.w3.org/2000/svg" xmlns:xlink="http://www.w3.org/1999/xlink" xmlns:a="http://ns.adobe.com/AdobeSVGViewerExtensions/3.0/"
	 x="0px" y="0px" width="252.9px" height="54.7px" viewBox="0 0 252.9 54.7" enable-background="new 0 0 252.9 54.7"
	 xml:space="preserve">
<defs>
</defs>
<g>
	<path fill="#FFFFFF" d="M17.3,6.8l-0.7,0h-1.6l-0.7,0l-0.6,2c-0.1,0-0.3,0-0.5,0c-0.2,0-0.4,0-0.6-0.1l0-0.1l2.7-8.1
		c0.2,0,0.4,0,0.7,0s0.5,0,0.7,0l2.7,8.1c-0.2,0.1-0.4,0.2-0.6,0.2s-0.4,0-0.5-0.1c-0.1-0.1-0.2-0.3-0.3-0.5L17.3,6.8z M14.5,5.8
		l0.6,0h1.2c0,0,0.1,0,0.3,0c0.2,0,0.3,0,0.3,0L16.4,4c-0.2-0.7-0.4-1.4-0.6-2.1h-0.1c-0.1,0.6-0.3,1.1-0.5,1.7L14.5,5.8z"/>
	<path fill="#FFFFFF" d="M22.4,8.4c0-0.1,0-0.3,0.1-0.4s0.2-0.3,0.3-0.4c0.7,0.4,1.2,0.5,1.6,0.5c0.4,0,0.7-0.1,0.9-0.2
		c0.2-0.1,0.3-0.3,0.3-0.6c0-0.4-0.3-0.7-0.8-0.9l-0.7-0.3c-1-0.4-1.5-0.9-1.5-1.7c0-0.5,0.2-1,0.6-1.3c0.4-0.3,0.9-0.5,1.6-0.5
		s1.3,0.1,1.9,0.4c0,0.2,0,0.3-0.1,0.5S26.4,3.9,26.3,4c-0.6-0.3-1.1-0.4-1.6-0.4c-0.3,0-0.5,0.1-0.7,0.2c-0.2,0.1-0.3,0.3-0.3,0.5
		c0,0.2,0.1,0.4,0.2,0.5s0.3,0.2,0.6,0.3l0.7,0.3c1,0.4,1.5,1,1.5,1.8c0,0.5-0.2,1-0.6,1.3c-0.4,0.3-1,0.5-1.7,0.5
		S23.1,8.8,22.4,8.4z"/>
	<path fill="#FFFFFF" d="M28.2,7V4.1c0-0.5-0.1-0.8-0.2-1.1c0.2-0.2,0.4-0.2,0.7-0.2c0.3,0,0.4,0.1,0.5,0.2c0.1,0.1,0.1,0.3,0.1,0.6
		v3.1c0,0.4,0.1,0.7,0.2,0.9c0.1,0.2,0.3,0.3,0.6,0.3c0.3,0,0.6-0.1,0.8-0.2c0.3-0.1,0.5-0.3,0.8-0.6V2.9c0.2,0,0.4,0,0.6,0
		s0.4,0,0.6,0v4.2c0,0.6,0.1,1,0.3,1.2c-0.1,0.3-0.2,0.5-0.4,0.6C32.3,8.8,32,8.5,31.8,8c-0.6,0.6-1.3,0.9-2,0.9
		c-0.5,0-0.9-0.2-1.2-0.5C28.3,8,28.2,7.6,28.2,7z"/>
	<path fill="#FFFFFF" d="M39.3,8.3c-0.1,0.3-0.2,0.5-0.5,0.6c-0.4-0.1-0.7-0.3-0.9-0.8C37.4,8.7,36.8,9,36.2,9
		c-0.6,0-1.1-0.2-1.4-0.5c-0.3-0.4-0.5-0.8-0.5-1.2c0-0.7,0.2-1.1,0.6-1.5s1-0.5,1.7-0.5c0.4,0,0.8,0,1.2,0.1V4.8
		c0-0.7-0.3-1.1-1-1.1c-0.5,0-1.2,0.2-1.9,0.5c-0.2-0.2-0.3-0.5-0.3-0.9c0.8-0.4,1.7-0.6,2.5-0.6c0.6,0,1.1,0.2,1.4,0.5
		C38.8,3.6,39,4.1,39,4.8v2.5C39,7.8,39.1,8.1,39.3,8.3z M36.4,8c0.5,0,1-0.3,1.5-0.8V6.1c-0.3,0-0.7-0.1-1.1-0.1
		c-0.4,0-0.7,0.1-0.9,0.3c-0.2,0.2-0.3,0.4-0.3,0.7c0,0.3,0.1,0.5,0.2,0.7C35.9,8,36.1,8,36.4,8z"/>
	<path fill="#FFFFFF" d="M46.7,5.1c0,0,0-0.1,0-0.1c0-0.9-0.4-1.4-1.1-1.4c-0.4,0-0.7,0.2-0.9,0.6c-0.2,0.4-0.3,0.9-0.3,1.7
		c0,1.4,0.5,2.1,1.4,2.1c0.4,0,0.9-0.2,1.5-0.6c0.1,0.1,0.2,0.2,0.3,0.3c0.1,0.1,0.2,0.3,0.2,0.4C47.1,8.7,46.4,9,45.6,9
		s-1.4-0.3-1.8-0.9c-0.4-0.6-0.6-1.4-0.6-2.3s0.2-1.7,0.7-2.2c0.5-0.5,1.1-0.8,1.8-0.8c0.7,0,1.2,0.2,1.6,0.6s0.6,0.8,0.6,1.2
		s-0.2,0.7-0.6,0.7C47,5.2,46.8,5.2,46.7,5.1z"/>
	<path fill="#FFFFFF" d="M53.7,8.3c-0.1,0.3-0.2,0.5-0.5,0.6c-0.4-0.1-0.7-0.3-0.9-0.8C51.8,8.7,51.2,9,50.6,9
		c-0.6,0-1.1-0.2-1.4-0.5c-0.3-0.4-0.5-0.8-0.5-1.2c0-0.7,0.2-1.1,0.6-1.5s1-0.5,1.7-0.5c0.4,0,0.8,0,1.2,0.1V4.8
		c0-0.7-0.3-1.1-1-1.1c-0.5,0-1.2,0.2-1.9,0.5C49.1,4,49,3.7,49,3.3c0.8-0.4,1.7-0.6,2.5-0.6c0.6,0,1.1,0.2,1.4,0.5
		c0.3,0.3,0.5,0.8,0.5,1.5v2.5C53.4,7.8,53.5,8.1,53.7,8.3z M50.8,8c0.5,0,1-0.3,1.5-0.8V6.1c-0.3,0-0.7-0.1-1.1-0.1
		c-0.4,0-0.7,0.1-0.9,0.3c-0.2,0.2-0.3,0.4-0.3,0.7c0,0.3,0.1,0.5,0.2,0.7C50.3,8,50.5,8,50.8,8z"/>
	<path fill="#FFFFFF" d="M58.1,2.7c0.7,0,1.2,0.3,1.5,0.8c0.4,0.6,0.5,1.3,0.5,2.3s-0.2,1.7-0.7,2.3s-1,0.8-1.6,0.8
		c-0.5,0-1-0.1-1.4-0.4v2.1c0,0.3,0,0.5-0.1,0.6c-0.1,0.1-0.3,0.2-0.5,0.2h-0.4l-0.1-0.1V2.9l0.1-0.1h0.4c0.4,0,0.6,0.2,0.7,0.6
		C56.8,3,57.4,2.7,58.1,2.7z M57.8,3.7c-0.6,0-1,0.3-1.4,0.8v3C56.8,7.8,57.2,8,57.6,8s0.7-0.2,0.9-0.6c0.2-0.4,0.4-0.9,0.4-1.6
		s-0.1-1.2-0.3-1.6S58.1,3.7,57.8,3.7z"/>
	<path fill="#FFFFFF" d="M66.1,8.3c-0.1,0.3-0.2,0.5-0.5,0.6c-0.4-0.1-0.7-0.3-0.9-0.8C64.2,8.7,63.6,9,63,9c-0.6,0-1.1-0.2-1.4-0.5
		c-0.3-0.4-0.5-0.8-0.5-1.2c0-0.7,0.2-1.1,0.6-1.5s1-0.5,1.7-0.5c0.4,0,0.8,0,1.2,0.1V4.8c0-0.7-0.3-1.1-1-1.1
		c-0.5,0-1.2,0.2-1.9,0.5c-0.2-0.2-0.3-0.5-0.3-0.9c0.8-0.4,1.7-0.6,2.5-0.6c0.6,0,1.1,0.2,1.4,0.5c0.3,0.3,0.5,0.8,0.5,1.5v2.5
		C65.8,7.8,65.9,8.1,66.1,8.3z M63.2,8c0.5,0,1-0.3,1.5-0.8V6.1C64.3,6.1,64,6,63.6,6c-0.4,0-0.7,0.1-0.9,0.3
		c-0.2,0.2-0.3,0.4-0.3,0.7c0,0.3,0.1,0.5,0.2,0.7C62.7,8,62.9,8,63.2,8z"/>
	<path fill="#FFFFFF" d="M70.7,5.1c0,0,0-0.1,0-0.1c0-0.9-0.4-1.4-1.1-1.4c-0.4,0-0.7,0.2-0.9,0.6c-0.2,0.4-0.3,0.9-0.3,1.7
		c0,1.4,0.5,2.1,1.4,2.1c0.4,0,0.9-0.2,1.5-0.6c0.1,0.1,0.2,0.2,0.3,0.3c0.1,0.1,0.2,0.3,0.2,0.4C71.1,8.7,70.4,9,69.5,9
		s-1.4-0.3-1.8-0.9c-0.4-0.6-0.6-1.4-0.6-2.3s0.2-1.7,0.7-2.2c0.5-0.5,1.1-0.8,1.8-0.8c0.7,0,1.2,0.2,1.6,0.6s0.6,0.8,0.6,1.2
		s-0.2,0.7-0.6,0.7C71,5.2,70.8,5.2,70.7,5.1z"/>
	<path fill="#FFFFFF" d="M74.6,3.9v4.9c-0.1,0-0.3,0-0.6,0c-0.2,0-0.4,0-0.6,0V4.4c0-0.2,0-0.4-0.1-0.5s-0.2-0.1-0.4-0.1h-0.1
		c0-0.1,0-0.3,0-0.4c0-0.2,0-0.3,0-0.4c0.3,0,0.5,0,0.7,0h0.2c0.3,0,0.5,0.1,0.7,0.3C74.5,3.3,74.6,3.6,74.6,3.9z M73.1,1.3
		c0-0.2,0-0.4,0.1-0.5c0.2-0.1,0.4-0.1,0.7-0.1c0.3,0,0.5,0,0.6,0.1c0.1,0.1,0.1,0.3,0.1,0.5c0,0.2,0,0.4-0.1,0.5
		c-0.1,0.1-0.3,0.1-0.6,0.1c-0.3,0-0.5,0-0.6-0.1C73.1,1.6,73.1,1.5,73.1,1.3z"/>
	<path fill="#FFFFFF" d="M79.3,2.9c0,0.1,0,0.3,0,0.4s0,0.3,0,0.4l-1.5,0v3.7c0,0.3,0.2,0.5,0.5,0.5h0.8c0.1,0.2,0.1,0.3,0.1,0.5
		s0,0.3,0,0.3c-0.5,0.1-0.9,0.1-1.3,0.1c-0.8,0-1.2-0.4-1.2-1.2V3.7l-0.9,0c0-0.1,0-0.3,0-0.4s0-0.3,0-0.4l0.9,0V1.8
		c0-0.3,0-0.5,0.1-0.6c0.1-0.1,0.3-0.2,0.5-0.2h0.4l0.1,0.1v1.8L79.3,2.9z"/>
	<path fill="#FFFFFF" d="M85.1,8.3c-0.1,0.3-0.2,0.5-0.5,0.6c-0.4-0.1-0.7-0.3-0.9-0.8C83.2,8.7,82.6,9,82,9c-0.6,0-1.1-0.2-1.4-0.5
		c-0.3-0.4-0.5-0.8-0.5-1.2c0-0.7,0.2-1.1,0.6-1.5s1-0.5,1.7-0.5c0.4,0,0.8,0,1.2,0.1V4.8c0-0.7-0.3-1.1-1-1.1
		c-0.5,0-1.2,0.2-1.9,0.5c-0.2-0.2-0.3-0.5-0.3-0.9c0.8-0.4,1.7-0.6,2.5-0.6c0.6,0,1.1,0.2,1.4,0.5c0.3,0.3,0.5,0.8,0.5,1.5v2.5
		C84.8,7.8,84.9,8.1,85.1,8.3z M82.2,8c0.5,0,1-0.3,1.5-0.8V6.1C83.4,6.1,83,6,82.6,6c-0.4,0-0.7,0.1-0.9,0.3
		c-0.2,0.2-0.3,0.4-0.3,0.7c0,0.3,0.1,0.5,0.2,0.7C81.7,8,81.9,8,82.2,8z"/>
	<path fill="#FFFFFF" d="M88.1,9.7c0-0.2,0.1-0.5,0.3-0.8c-0.7-0.1-1.2-0.4-1.5-1c-0.3-0.6-0.5-1.3-0.5-2.1c0-1,0.2-1.8,0.7-2.4
		c0.5-0.5,1.1-0.8,1.8-0.8c0.7,0,1.2,0.2,1.6,0.6s0.6,0.8,0.6,1.2s-0.2,0.7-0.6,0.7c-0.2,0-0.3,0-0.5,0c0,0,0-0.1,0-0.1
		c0-0.9-0.4-1.4-1.1-1.4c-0.4,0-0.7,0.2-0.9,0.6c-0.2,0.4-0.3,0.9-0.3,1.7c0,1.4,0.5,2.1,1.4,2.1c0.4,0,0.9-0.2,1.5-0.6
		c0.1,0.1,0.2,0.2,0.3,0.3c0.1,0.1,0.2,0.3,0.2,0.4c-0.5,0.5-1.1,0.8-1.8,0.9C89,9.1,89,9.2,88.9,9.3c0.3,0,0.6,0.1,0.8,0.3
		C89.9,9.8,90,10,90,10.4c0,0.3-0.1,0.6-0.4,0.8c-0.3,0.2-0.6,0.3-1,0.3c-0.4,0-0.7-0.1-1-0.2c0-0.2,0.1-0.4,0.2-0.6
		c0.2,0.1,0.4,0.2,0.6,0.2s0.3,0,0.4-0.1c0.1-0.1,0.1-0.2,0.1-0.3s0-0.3-0.1-0.3c-0.1-0.1-0.2-0.1-0.3-0.1c-0.1,0-0.2,0-0.3,0.1
		C88.2,9.9,88.1,9.8,88.1,9.7z"/>
	<path fill="#FFFFFF" d="M96.9,8.3c-0.1,0.3-0.2,0.5-0.5,0.6c-0.4-0.1-0.7-0.3-0.9-0.8C94.9,8.7,94.3,9,93.7,9
		c-0.6,0-1.1-0.2-1.4-0.5c-0.3-0.4-0.5-0.8-0.5-1.2c0-0.7,0.2-1.1,0.6-1.5s1-0.5,1.7-0.5c0.4,0,0.8,0,1.2,0.1V4.8
		c0-0.7-0.3-1.1-1-1.1c-0.5,0-1.2,0.2-1.9,0.5c-0.2-0.2-0.3-0.5-0.3-0.9C93,3,93.8,2.8,94.6,2.8c0.6,0,1.1,0.2,1.4,0.5
		c0.3,0.3,0.5,0.8,0.5,1.5v2.5C96.5,7.8,96.6,8.1,96.9,8.3z M94.4,2l-0.7-0.3c-0.2-0.1-0.3-0.1-0.4-0.1s-0.3,0.1-0.4,0.3L92.8,2
		c-0.1,0-0.2,0-0.3-0.1c-0.1-0.1-0.2-0.2-0.2-0.3l0.1-0.2c0.1-0.3,0.3-0.5,0.5-0.6s0.4-0.2,0.6-0.2c0.2,0,0.5,0.1,0.7,0.2l0.7,0.3
		c0.1,0.1,0.3,0.1,0.4,0.1c0.1,0,0.3-0.1,0.5-0.3l0.1-0.2c0.1,0,0.2,0,0.3,0.1c0.1,0.1,0.2,0.2,0.2,0.3l-0.1,0.2
		c-0.1,0.3-0.3,0.5-0.5,0.6c-0.2,0.2-0.4,0.2-0.6,0.2C94.9,2.1,94.7,2.1,94.4,2z M93.9,8c0.5,0,1-0.3,1.5-0.8V6.1
		c-0.3,0-0.7-0.1-1.1-0.1c-0.4,0-0.7,0.1-0.9,0.3c-0.2,0.2-0.3,0.4-0.3,0.7c0,0.3,0.1,0.5,0.2,0.7C93.4,8,93.7,8,93.9,8z"/>
	<path fill="#FFFFFF" d="M102.3,3.4c0.6,0.6,0.8,1.4,0.8,2.5s-0.3,1.9-0.8,2.5c-0.4,0.4-1,0.7-1.7,0.7s-1.3-0.2-1.7-0.7
		C98.3,7.7,98,6.9,98,5.9s0.3-1.9,0.8-2.5c0.4-0.4,1-0.7,1.7-0.7S101.9,3,102.3,3.4z M99.2,5.9c0,1.5,0.5,2.2,1.4,2.2
		s1.4-0.7,1.4-2.2c0-0.4,0-0.8-0.1-1.1c-0.1-0.3-0.2-0.6-0.4-0.8c-0.2-0.2-0.5-0.3-0.8-0.3S100,3.7,99.7,4c-0.2,0.2-0.4,0.5-0.4,0.8
		C99.2,5.1,99.2,5.5,99.2,5.9z"/>
	<path fill="#FFFFFF" d="M112,4.7v2.8c0,0.5,0.1,0.8,0.2,1.1c-0.2,0.2-0.4,0.3-0.7,0.3c-0.4,0-0.6-0.2-0.6-0.7V5
		c0-0.4-0.1-0.7-0.2-0.9c-0.1-0.2-0.3-0.3-0.6-0.3c-0.3,0-0.6,0.1-0.9,0.2c-0.3,0.1-0.5,0.3-0.8,0.6v4.2c-0.1,0-0.3,0-0.6,0
		s-0.4,0-0.6,0V2.9l0.1-0.1h0.4c0.4,0,0.6,0.3,0.6,0.8c0.6-0.5,1.2-0.8,1.9-0.8c0.5,0,0.9,0.2,1.2,0.5C111.8,3.7,112,4.2,112,4.7z"
		/>
	<path fill="#FFFFFF" d="M117.7,3.4c0.6,0.6,0.8,1.4,0.8,2.5s-0.3,1.9-0.8,2.5c-0.4,0.4-1,0.7-1.7,0.7s-1.3-0.2-1.7-0.7
		c-0.6-0.6-0.8-1.4-0.8-2.5s0.3-1.9,0.8-2.5c0.4-0.4,1-0.7,1.7-0.7S117.3,3,117.7,3.4z M114.6,5.9c0,1.5,0.5,2.2,1.4,2.2
		s1.4-0.7,1.4-2.2c0-0.4,0-0.8-0.1-1.1c-0.1-0.3-0.2-0.6-0.4-0.8c-0.2-0.2-0.5-0.3-0.8-0.3s-0.6,0.1-0.8,0.3
		c-0.2,0.2-0.4,0.5-0.4,0.8C114.7,5.1,114.6,5.5,114.6,5.9z"/>
	<path fill="#FFFFFF" d="M119.5,8.4c0-0.1,0-0.3,0.1-0.4s0.2-0.3,0.3-0.4c0.7,0.4,1.2,0.5,1.6,0.5c0.4,0,0.7-0.1,0.9-0.2
		c0.2-0.1,0.3-0.3,0.3-0.6c0-0.4-0.3-0.7-0.8-0.9l-0.7-0.3c-1-0.4-1.5-0.9-1.5-1.7c0-0.5,0.2-1,0.6-1.3c0.4-0.3,0.9-0.5,1.6-0.5
		s1.3,0.1,1.9,0.4c0,0.2,0,0.3-0.1,0.5s-0.2,0.3-0.3,0.4c-0.6-0.3-1.1-0.4-1.6-0.4c-0.3,0-0.5,0.1-0.7,0.2c-0.2,0.1-0.3,0.3-0.3,0.5
		c0,0.2,0.1,0.4,0.2,0.5s0.3,0.2,0.6,0.3l0.7,0.3c1,0.4,1.5,1,1.5,1.8c0,0.5-0.2,1-0.6,1.3c-0.4,0.3-1,0.5-1.7,0.5
		S120.2,8.8,119.5,8.4z"/>
	<path fill="#FFFFFF" d="M130.8,2.9c0,0.1,0,0.3,0,0.4s0,0.3,0,0.4l-1.5,0v3.7c0,0.3,0.2,0.5,0.5,0.5h0.8c0.1,0.2,0.1,0.3,0.1,0.5
		s0,0.3,0,0.3c-0.5,0.1-0.9,0.1-1.3,0.1c-0.8,0-1.2-0.4-1.2-1.2V3.7l-0.9,0c0-0.1,0-0.3,0-0.4s0-0.3,0-0.4l0.9,0V1.8
		c0-0.3,0-0.5,0.1-0.6c0.1-0.1,0.3-0.2,0.5-0.2h0.4l0.1,0.1v1.8L130.8,2.9z"/>
	<path fill="#FFFFFF" d="M136.5,6.2h-3.6c0,0.6,0.1,1,0.4,1.3c0.2,0.3,0.6,0.5,1.1,0.5s1.1-0.2,1.7-0.5c0.2,0.2,0.3,0.4,0.4,0.8
		C135.8,8.8,135,9,134.2,9c-0.9,0-1.5-0.3-1.9-0.9s-0.6-1.3-0.6-2.3s0.2-1.7,0.6-2.3c0.4-0.6,1-0.9,1.8-0.9c0.8,0,1.4,0.2,1.8,0.7
		c0.4,0.5,0.6,1.1,0.6,1.8C136.6,5.6,136.5,5.9,136.5,6.2z M135.1,4.1c-0.2-0.3-0.5-0.5-0.9-0.5s-0.7,0.2-0.9,0.5
		c-0.2,0.3-0.3,0.7-0.4,1.3h2.5V5.2C135.4,4.7,135.3,4.4,135.1,4.1z"/>
	<path fill="#FFFFFF" d="M141.4,5c0-0.4-0.1-0.7-0.2-0.9c-0.1-0.2-0.3-0.3-0.6-0.3c-0.5,0-0.9,0.3-1.4,0.8v4.2c-0.1,0-0.3,0-0.6,0
		s-0.4,0-0.6,0V2.9l0.1-0.1h0.4c0.4,0,0.6,0.3,0.6,0.8c0.5-0.5,1.1-0.8,1.7-0.8s1.1,0.3,1.3,0.9c0.6-0.6,1.3-0.9,1.9-0.9
		c0.5,0,0.9,0.2,1.1,0.5c0.3,0.4,0.4,0.8,0.4,1.3v2.9c0,0.5,0.1,0.8,0.2,1.1c-0.2,0.2-0.4,0.3-0.7,0.3c-0.4,0-0.6-0.2-0.6-0.7V5
		c0-0.4-0.1-0.7-0.2-0.9c-0.1-0.2-0.3-0.3-0.6-0.3c-0.5,0-0.9,0.3-1.4,0.8v4.2c-0.1,0-0.3,0-0.6,0s-0.4,0-0.6,0V5z"/>
	<path fill="#FFFFFF" d="M152.2,8.3c-0.1,0.3-0.2,0.5-0.5,0.6c-0.4-0.1-0.7-0.3-0.9-0.8c-0.6,0.6-1.2,0.8-1.8,0.8
		c-0.6,0-1.1-0.2-1.4-0.5c-0.3-0.4-0.5-0.8-0.5-1.2c0-0.7,0.2-1.1,0.6-1.5s1-0.5,1.7-0.5c0.4,0,0.8,0,1.2,0.1V4.8
		c0-0.7-0.3-1.1-1-1.1c-0.5,0-1.2,0.2-1.9,0.5c-0.2-0.2-0.3-0.5-0.3-0.9c0.8-0.4,1.7-0.6,2.5-0.6c0.6,0,1.1,0.2,1.4,0.5
		c0.3,0.3,0.5,0.8,0.5,1.5v2.5C151.9,7.8,152,8.1,152.2,8.3z M149.3,8c0.5,0,1-0.3,1.5-0.8V6.1c-0.3,0-0.7-0.1-1.1-0.1
		c-0.4,0-0.7,0.1-0.9,0.3c-0.2,0.2-0.3,0.4-0.3,0.7c0,0.3,0.1,0.5,0.2,0.7C148.8,8,149,8,149.3,8z"/>
	<path fill="#FFFFFF" d="M153.2,8.4c0-0.1,0-0.3,0.1-0.4s0.2-0.3,0.3-0.4c0.7,0.4,1.2,0.5,1.6,0.5c0.4,0,0.7-0.1,0.9-0.2
		c0.2-0.1,0.3-0.3,0.3-0.6c0-0.4-0.3-0.7-0.8-0.9l-0.7-0.3c-1-0.4-1.5-0.9-1.5-1.7c0-0.5,0.2-1,0.6-1.3c0.4-0.3,0.9-0.5,1.6-0.5
		s1.3,0.1,1.9,0.4c0,0.2,0,0.3-0.1,0.5s-0.2,0.3-0.3,0.4c-0.6-0.3-1.1-0.4-1.6-0.4c-0.3,0-0.5,0.1-0.7,0.2c-0.2,0.1-0.3,0.3-0.3,0.5
		c0,0.2,0.1,0.4,0.2,0.5s0.3,0.2,0.6,0.3l0.7,0.3c1,0.4,1.5,1,1.5,1.8c0,0.5-0.2,1-0.6,1.3c-0.4,0.3-1,0.5-1.7,0.5
		S153.9,8.8,153.2,8.4z"/>
	<path fill="#FFFFFF" d="M164.5,2.9c0,0.1,0,0.3,0,0.4s0,0.3,0,0.4l-1.5,0v3.7c0,0.3,0.2,0.5,0.5,0.5h0.8c0.1,0.2,0.1,0.3,0.1,0.5
		s0,0.3,0,0.3c-0.5,0.1-0.9,0.1-1.3,0.1c-0.8,0-1.2-0.4-1.2-1.2V3.7l-0.9,0c0-0.1,0-0.3,0-0.4s0-0.3,0-0.4l0.9,0V1.8
		c0-0.3,0-0.5,0.1-0.6c0.1-0.1,0.3-0.2,0.5-0.2h0.4l0.1,0.1v1.8L164.5,2.9z"/>
	<path fill="#FFFFFF" d="M165.5,3.4c0.1-0.3,0.2-0.5,0.4-0.6c0.5,0.1,0.9,0.5,1,1.1c0.3-0.7,0.9-1.1,1.6-1.1c0.2,0,0.4,0,0.6,0.1
		c0,0.4-0.1,0.8-0.3,1.1c0,0-0.2,0-0.5,0c-0.6,0-1,0.3-1.3,0.9v3.9c-0.1,0-0.3,0-0.6,0s-0.4,0-0.6,0V4.7
		C165.9,4.1,165.8,3.7,165.5,3.4z"/>
	<path fill="#FFFFFF" d="M174.7,8.3c-0.1,0.3-0.2,0.5-0.5,0.6c-0.4-0.1-0.7-0.3-0.9-0.8c-0.6,0.6-1.2,0.8-1.8,0.8
		c-0.6,0-1.1-0.2-1.4-0.5c-0.3-0.4-0.5-0.8-0.5-1.2c0-0.7,0.2-1.1,0.6-1.5s1-0.5,1.7-0.5c0.4,0,0.8,0,1.2,0.1V4.8
		c0-0.7-0.3-1.1-1-1.1c-0.5,0-1.2,0.2-1.9,0.5c-0.2-0.2-0.3-0.5-0.3-0.9c0.8-0.4,1.7-0.6,2.5-0.6c0.6,0,1.1,0.2,1.4,0.5
		c0.3,0.3,0.5,0.8,0.5,1.5v2.5C174.3,7.8,174.4,8.1,174.7,8.3z M171.7,8c0.5,0,1-0.3,1.5-0.8V6.1c-0.3,0-0.7-0.1-1.1-0.1
		c-0.4,0-0.7,0.1-0.9,0.3c-0.2,0.2-0.3,0.4-0.3,0.7c0,0.3,0.1,0.5,0.2,0.7C171.2,8,171.4,8,171.7,8z"/>
	<path fill="#FFFFFF" d="M177.6,9.7c0-0.2,0.1-0.5,0.3-0.8c-0.7-0.1-1.2-0.4-1.5-1c-0.3-0.6-0.5-1.3-0.5-2.1c0-1,0.2-1.8,0.7-2.4
		c0.5-0.5,1.1-0.8,1.8-0.8c0.7,0,1.2,0.2,1.6,0.6s0.6,0.8,0.6,1.2s-0.2,0.7-0.6,0.7c-0.2,0-0.3,0-0.5,0c0,0,0-0.1,0-0.1
		c0-0.9-0.4-1.4-1.1-1.4c-0.4,0-0.7,0.2-0.9,0.6c-0.2,0.4-0.3,0.9-0.3,1.7c0,1.4,0.5,2.1,1.4,2.1c0.4,0,0.9-0.2,1.5-0.6
		c0.1,0.1,0.2,0.2,0.3,0.3c0.1,0.1,0.2,0.3,0.2,0.4c-0.5,0.5-1.1,0.8-1.8,0.9c-0.1,0.1-0.1,0.2-0.1,0.3c0.3,0,0.6,0.1,0.8,0.3
		c0.2,0.2,0.3,0.4,0.3,0.8c0,0.3-0.1,0.6-0.4,0.8c-0.3,0.2-0.6,0.3-1,0.3c-0.4,0-0.7-0.1-1-0.2c0-0.2,0.1-0.4,0.2-0.6
		c0.2,0.1,0.4,0.2,0.6,0.2s0.3,0,0.4-0.1c0.1-0.1,0.1-0.2,0.1-0.3s0-0.3-0.1-0.3c-0.1-0.1-0.2-0.1-0.3-0.1c-0.1,0-0.2,0-0.3,0.1
		C177.7,9.9,177.6,9.8,177.6,9.7z"/>
	<path fill="#FFFFFF" d="M186.4,8.3c-0.1,0.3-0.2,0.5-0.5,0.6c-0.4-0.1-0.7-0.3-0.9-0.8c-0.6,0.6-1.2,0.8-1.8,0.8
		c-0.6,0-1.1-0.2-1.4-0.5c-0.3-0.4-0.5-0.8-0.5-1.2c0-0.7,0.2-1.1,0.6-1.5s1-0.5,1.7-0.5c0.4,0,0.8,0,1.2,0.1V4.8
		c0-0.7-0.3-1.1-1-1.1c-0.5,0-1.2,0.2-1.9,0.5c-0.2-0.2-0.3-0.5-0.3-0.9c0.8-0.4,1.7-0.6,2.5-0.6c0.6,0,1.1,0.2,1.4,0.5
		c0.3,0.3,0.5,0.8,0.5,1.5v2.5C186,7.8,186.2,8.1,186.4,8.3z M183.4,8c0.5,0,1-0.3,1.5-0.8V6.1c-0.3,0-0.7-0.1-1.1-0.1
		c-0.4,0-0.7,0.1-0.9,0.3c-0.2,0.2-0.3,0.4-0.3,0.7c0,0.3,0.1,0.5,0.2,0.7C183,8,183.2,8,183.4,8z"/>
	<path fill="#FFFFFF" d="M189.5,9c-0.7,0-1.2-0.3-1.5-0.8c-0.4-0.6-0.5-1.3-0.5-2.3c0-1,0.2-1.7,0.7-2.3c0.5-0.5,1-0.8,1.6-0.8
		c0.4,0,0.9,0.1,1.4,0.4V0.1l0.1-0.1h0.4c0.2,0,0.4,0.1,0.5,0.2c0.1,0.1,0.1,0.3,0.1,0.6v6.4c0,0.6,0.1,1,0.3,1.2
		c-0.1,0.3-0.2,0.5-0.5,0.6c-0.4-0.1-0.7-0.3-0.9-0.8C190.7,8.7,190.2,9,189.5,9z M189.7,8c0.5,0,1-0.3,1.4-0.8v-3
		c-0.4-0.3-0.9-0.5-1.2-0.5s-0.7,0.2-0.9,0.6c-0.2,0.4-0.4,0.9-0.4,1.6c0,0.7,0.1,1.2,0.3,1.6S189.4,8,189.7,8z"/>
	<path fill="#FFFFFF" d="M198,3.4c0.6,0.6,0.8,1.4,0.8,2.5s-0.3,1.9-0.8,2.5c-0.4,0.4-1,0.7-1.7,0.7s-1.3-0.2-1.7-0.7
		c-0.6-0.6-0.8-1.4-0.8-2.5s0.3-1.9,0.8-2.5c0.4-0.4,1-0.7,1.7-0.7S197.6,3,198,3.4z M195,5.9c0,1.5,0.5,2.2,1.4,2.2
		s1.4-0.7,1.4-2.2c0-0.4,0-0.8-0.1-1.1c-0.1-0.3-0.2-0.6-0.4-0.8c-0.2-0.2-0.5-0.3-0.8-0.3s-0.6,0.1-0.8,0.3
		c-0.2,0.2-0.4,0.5-0.4,0.8C195,5.1,195,5.5,195,5.9z"/>
	<path fill="#FFFFFF" d="M199.8,8.4c0-0.1,0-0.3,0.1-0.4s0.2-0.3,0.3-0.4c0.7,0.4,1.2,0.5,1.6,0.5c0.4,0,0.7-0.1,0.9-0.2
		c0.2-0.1,0.3-0.3,0.3-0.6c0-0.4-0.3-0.7-0.8-0.9l-0.7-0.3c-1-0.4-1.5-0.9-1.5-1.7c0-0.5,0.2-1,0.6-1.3c0.4-0.3,0.9-0.5,1.6-0.5
		s1.3,0.1,1.9,0.4c0,0.2,0,0.3-0.1,0.5s-0.2,0.3-0.3,0.4c-0.6-0.3-1.1-0.4-1.6-0.4c-0.3,0-0.5,0.1-0.7,0.2c-0.2,0.1-0.3,0.3-0.3,0.5
		c0,0.2,0.1,0.4,0.2,0.5s0.3,0.2,0.6,0.3l0.7,0.3c1,0.4,1.5,1,1.5,1.8c0,0.5-0.2,1-0.6,1.3c-0.4,0.3-1,0.5-1.7,0.5
		S200.5,8.8,199.8,8.4z"/>
	<path fill="#FFFFFF" d="M209.9,9c-0.7,0-1.2-0.3-1.5-0.8c-0.4-0.6-0.5-1.3-0.5-2.3c0-1,0.2-1.7,0.7-2.3c0.5-0.5,1-0.8,1.6-0.8
		c0.4,0,0.9,0.1,1.4,0.4V0.1l0.1-0.1h0.4c0.2,0,0.4,0.1,0.5,0.2c0.1,0.1,0.1,0.3,0.1,0.6v6.4c0,0.6,0.1,1,0.3,1.2
		c-0.1,0.3-0.2,0.5-0.5,0.6c-0.4-0.1-0.7-0.3-0.9-0.8C211.2,8.7,210.6,9,209.9,9z M210.2,8c0.5,0,1-0.3,1.4-0.8v-3
		c-0.4-0.3-0.9-0.5-1.2-0.5s-0.7,0.2-0.9,0.6c-0.2,0.4-0.4,0.9-0.4,1.6c0,0.7,0.1,1.2,0.3,1.6S209.9,8,210.2,8z"/>
	<path fill="#FFFFFF" d="M219,6.2h-3.6c0,0.6,0.1,1,0.4,1.3c0.2,0.3,0.6,0.5,1.1,0.5s1.1-0.2,1.7-0.5c0.2,0.2,0.3,0.4,0.4,0.8
		c-0.6,0.4-1.4,0.7-2.3,0.7c-0.9,0-1.5-0.3-1.9-0.9s-0.6-1.3-0.6-2.3s0.2-1.7,0.6-2.3c0.4-0.6,1-0.9,1.8-0.9c0.8,0,1.4,0.2,1.8,0.7
		c0.4,0.5,0.6,1.1,0.6,1.8C219.1,5.6,219,5.9,219,6.2z M217.6,4.1c-0.2-0.3-0.5-0.5-0.9-0.5s-0.7,0.2-0.9,0.5
		c-0.2,0.3-0.3,0.7-0.4,1.3h2.5V5.2C217.9,4.7,217.8,4.4,217.6,4.1z"/>
	<path fill="#FFFFFF" d="M225.3,4.7v2.8c0,0.5,0.1,0.8,0.2,1.1c-0.2,0.2-0.4,0.3-0.7,0.3c-0.4,0-0.6-0.2-0.6-0.7V5
		c0-0.4-0.1-0.7-0.2-0.9c-0.1-0.2-0.3-0.3-0.6-0.3c-0.3,0-0.6,0.1-0.9,0.2c-0.3,0.1-0.5,0.3-0.8,0.6v4.2c-0.1,0-0.3,0-0.6,0
		s-0.4,0-0.6,0V2.9l0.1-0.1h0.4c0.4,0,0.6,0.3,0.6,0.8c0.6-0.5,1.2-0.8,1.9-0.8c0.5,0,0.9,0.2,1.2,0.5
		C225.2,3.7,225.3,4.2,225.3,4.7z"/>
	<path fill="#FFFFFF" d="M230.1,2.9c0,0.1,0,0.3,0,0.4s0,0.3,0,0.4l-1.5,0v3.7c0,0.3,0.2,0.5,0.5,0.5h0.8c0.1,0.2,0.1,0.3,0.1,0.5
		s0,0.3,0,0.3c-0.5,0.1-0.9,0.1-1.3,0.1c-0.8,0-1.2-0.4-1.2-1.2V3.7l-0.9,0c0-0.1,0-0.3,0-0.4s0-0.3,0-0.4l0.9,0V1.8
		c0-0.3,0-0.5,0.1-0.6c0.1-0.1,0.3-0.2,0.5-0.2h0.4l0.1,0.1v1.8L230.1,2.9z"/>
	<path fill="#FFFFFF" d="M231,3.4c0.1-0.3,0.2-0.5,0.4-0.6c0.5,0.1,0.9,0.5,1,1.1c0.3-0.7,0.9-1.1,1.6-1.1c0.2,0,0.4,0,0.6,0.1
		c0,0.4-0.1,0.8-0.3,1.1c0,0-0.2,0-0.5,0c-0.6,0-1,0.3-1.3,0.9v3.9c-0.1,0-0.3,0-0.6,0s-0.4,0-0.6,0V4.7
		C231.5,4.1,231.3,3.7,231,3.4z"/>
	<path fill="#FFFFFF" d="M239.6,3.4c0.6,0.6,0.8,1.4,0.8,2.5s-0.3,1.9-0.8,2.5c-0.4,0.4-1,0.7-1.7,0.7s-1.3-0.2-1.7-0.7
		c-0.6-0.6-0.8-1.4-0.8-2.5s0.3-1.9,0.8-2.5c0.4-0.4,1-0.7,1.7-0.7S239.2,3,239.6,3.4z M236.5,5.9c0,1.5,0.5,2.2,1.4,2.2
		s1.4-0.7,1.4-2.2c0-0.4,0-0.8-0.1-1.1c-0.1-0.3-0.2-0.6-0.4-0.8c-0.2-0.2-0.5-0.3-0.8-0.3s-0.6,0.1-0.8,0.3
		c-0.2,0.2-0.4,0.5-0.4,0.8C236.6,5.1,236.5,5.5,236.5,5.9z"/>
	<path fill="#FFFFFF" d="M13.6,23.4c-0.7,0-1.2-0.3-1.5-0.8c-0.4-0.6-0.5-1.3-0.5-2.3c0-1,0.2-1.7,0.7-2.3c0.5-0.5,1-0.8,1.6-0.8
		c0.4,0,0.9,0.1,1.4,0.4v-3.1l0.1-0.1h0.4c0.2,0,0.4,0.1,0.5,0.2c0.1,0.1,0.1,0.3,0.1,0.6v6.4c0,0.6,0.1,1,0.3,1.2
		c-0.1,0.3-0.2,0.5-0.5,0.6c-0.4-0.1-0.7-0.3-0.9-0.8C14.8,23.1,14.2,23.4,13.6,23.4z M13.8,22.4c0.5,0,1-0.3,1.4-0.8v-3
		c-0.4-0.3-0.9-0.5-1.2-0.5s-0.7,0.2-0.9,0.6c-0.2,0.4-0.4,0.9-0.4,1.6c0,0.7,0.1,1.2,0.3,1.6S13.5,22.4,13.8,22.4z"/>
	<path fill="#FFFFFF" d="M22.1,17.8c0.6,0.6,0.8,1.4,0.8,2.5s-0.3,1.9-0.8,2.5c-0.4,0.4-1,0.7-1.7,0.7s-1.3-0.2-1.7-0.7
		c-0.6-0.6-0.8-1.4-0.8-2.5s0.3-1.9,0.8-2.5c0.4-0.4,1-0.7,1.7-0.7S21.7,17.4,22.1,17.8z M19,20.3c0,1.5,0.5,2.2,1.4,2.2
		s1.4-0.7,1.4-2.2c0-0.4,0-0.8-0.1-1.1c-0.1-0.3-0.2-0.6-0.4-0.8C21,18.1,20.7,18,20.4,18s-0.6,0.1-0.8,0.3
		c-0.2,0.2-0.4,0.5-0.4,0.8C19.1,19.5,19,19.9,19,20.3z"/>
	<path fill="#FFFFFF" d="M23.9,22.8c0-0.1,0-0.3,0.1-0.4s0.2-0.3,0.3-0.4c0.7,0.4,1.2,0.5,1.6,0.5c0.4,0,0.7-0.1,0.9-0.2
		c0.2-0.1,0.3-0.3,0.3-0.6c0-0.4-0.3-0.7-0.8-0.9l-0.7-0.3c-1-0.4-1.5-0.9-1.5-1.7c0-0.5,0.2-1,0.6-1.3c0.4-0.3,0.9-0.5,1.6-0.5
		s1.3,0.1,1.9,0.4c0,0.2,0,0.3-0.1,0.5s-0.2,0.3-0.3,0.4c-0.6-0.3-1.1-0.4-1.6-0.4c-0.3,0-0.5,0.1-0.7,0.2c-0.2,0.1-0.3,0.3-0.3,0.5
		c0,0.2,0.1,0.4,0.2,0.5s0.3,0.2,0.6,0.3l0.7,0.3c1,0.4,1.5,1,1.5,1.8c0,0.5-0.2,1-0.6,1.3c-0.4,0.3-1,0.5-1.7,0.5
		S24.6,23.2,23.9,22.8z"/>
	<path fill="#FFFFFF" d="M36.1,21.5l0,0.6v1.1c-0.2,0-0.3,0-0.6,0c-0.2,0-0.4,0-0.6,0v-1.1l0-0.6l-0.6,0h-2.2
		c-0.2-0.3-0.3-0.5-0.3-0.7c0-0.1,0.1-0.4,0.2-0.8l2-4.7c0.1,0,0.2,0,0.3,0c0.4,0,0.6,0.1,0.8,0.2l-1.5,3.3
		c-0.3,0.8-0.6,1.3-0.8,1.6l0,0c0.5,0,0.9,0,1.4,0h0.5c0-0.1,0-0.2,0-0.4v-1c0-0.3,0.1-0.5,0.2-0.7c0.1-0.2,0.3-0.2,0.6-0.2H36l0,0
		v1.6l0,0.6l0.5,0h0.7c0,0.1,0,0.3,0,0.4c0,0.2,0,0.4-0.1,0.5H36.1z"/>
	<path fill="#FFFFFF" d="M44.2,17.1c0.7,0,1.2,0.3,1.5,0.8c0.4,0.6,0.5,1.3,0.5,2.3S46,22,45.5,22.5s-1,0.8-1.6,0.8
		c-0.5,0-1-0.1-1.4-0.4v2.1c0,0.3,0,0.5-0.1,0.6c-0.1,0.1-0.3,0.2-0.5,0.2h-0.4l-0.1-0.1v-8.4l0.1-0.1h0.4c0.4,0,0.6,0.2,0.7,0.6
		C43,17.4,43.5,17.1,44.2,17.1z M43.9,18.1c-0.6,0-1,0.3-1.4,0.8v3c0.4,0.3,0.9,0.5,1.2,0.5s0.7-0.2,0.9-0.6
		c0.2-0.4,0.4-0.9,0.4-1.6s-0.1-1.2-0.3-1.6S44.2,18.1,43.9,18.1z"/>
	<path fill="#FFFFFF" d="M49,18.3v4.9c-0.1,0-0.3,0-0.6,0c-0.2,0-0.4,0-0.6,0v-4.5c0-0.2,0-0.4-0.1-0.5s-0.2-0.1-0.4-0.1h-0.1
		c0-0.1,0-0.3,0-0.4c0-0.2,0-0.3,0-0.4c0.3,0,0.5,0,0.7,0h0.2c0.3,0,0.5,0.1,0.7,0.3C48.9,17.7,49,18,49,18.3z M47.5,15.7
		c0-0.2,0-0.4,0.1-0.5C47.8,15,48,15,48.3,15c0.3,0,0.5,0,0.6,0.1c0.1,0.1,0.1,0.3,0.1,0.5c0,0.2,0,0.4-0.1,0.5
		c-0.1,0.1-0.3,0.1-0.6,0.1c-0.3,0-0.5,0-0.6-0.1C47.5,16,47.5,15.9,47.5,15.7z"/>
	<path fill="#FFFFFF" d="M52.5,22.3H53c0.1,0.2,0.1,0.3,0.1,0.5c0,0.1,0,0.3,0,0.4c-0.3,0.1-0.7,0.1-1,0.1c-0.8,0-1.1-0.4-1.1-1.2
		v-7.6l0.1-0.1h0.4c0.2,0,0.4,0.1,0.5,0.2c0.1,0.1,0.1,0.3,0.1,0.6v6.7C52,22.2,52.2,22.3,52.5,22.3z"/>
	<path fill="#FFFFFF" d="M59,22.7c-0.1,0.3-0.2,0.5-0.5,0.6c-0.4-0.1-0.7-0.3-0.9-0.8c-0.6,0.6-1.2,0.8-1.8,0.8
		c-0.6,0-1.1-0.2-1.4-0.5c-0.3-0.4-0.5-0.8-0.5-1.2c0-0.7,0.2-1.1,0.6-1.5s1-0.5,1.7-0.5c0.4,0,0.8,0,1.2,0.1v-0.5
		c0-0.7-0.3-1.1-1-1.1c-0.5,0-1.2,0.2-1.9,0.5c-0.2-0.2-0.3-0.5-0.3-0.9c0.8-0.4,1.7-0.6,2.5-0.6c0.6,0,1.1,0.2,1.4,0.5
		c0.3,0.3,0.5,0.8,0.5,1.5v2.5C58.6,22.2,58.7,22.5,59,22.7z M56,22.4c0.5,0,1-0.3,1.5-0.8v-1.2c-0.3,0-0.7-0.1-1.1-0.1
		c-0.4,0-0.7,0.1-0.9,0.3c-0.2,0.2-0.3,0.4-0.3,0.7c0,0.3,0.1,0.5,0.2,0.7C55.5,22.4,55.7,22.4,56,22.4z"/>
	<path fill="#FFFFFF" d="M60.2,17.8c0.1-0.3,0.2-0.5,0.4-0.6c0.5,0.1,0.9,0.5,1,1.1c0.3-0.7,0.9-1.1,1.6-1.1c0.2,0,0.4,0,0.6,0.1
		c0,0.4-0.1,0.8-0.3,1.1c0,0-0.2,0-0.5,0c-0.6,0-1,0.3-1.3,0.9v3.9c-0.1,0-0.3,0-0.6,0s-0.4,0-0.6,0v-4.2
		C60.6,18.5,60.5,18.1,60.2,17.8z"/>
	<path fill="#FFFFFF" d="M69.2,20.6h-3.6c0,0.6,0.1,1,0.4,1.3c0.2,0.3,0.6,0.5,1.1,0.5s1.1-0.2,1.7-0.5c0.2,0.2,0.3,0.4,0.4,0.8
		c-0.6,0.4-1.4,0.7-2.3,0.7c-0.9,0-1.5-0.3-1.9-0.9s-0.6-1.3-0.6-2.3s0.2-1.7,0.6-2.3c0.4-0.6,1-0.9,1.8-0.9c0.8,0,1.4,0.2,1.8,0.7
		c0.4,0.5,0.6,1.1,0.6,1.8C69.3,20,69.3,20.3,69.2,20.6z M67.9,18.5C67.7,18.2,67.4,18,67,18s-0.7,0.2-0.9,0.5
		c-0.2,0.3-0.3,0.7-0.4,1.3h2.5v-0.2C68.2,19.1,68.1,18.8,67.9,18.5z"/>
	<path fill="#FFFFFF" d="M70.3,22.8c0-0.1,0-0.3,0.1-0.4s0.2-0.3,0.3-0.4c0.7,0.4,1.2,0.5,1.6,0.5c0.4,0,0.7-0.1,0.9-0.2
		c0.2-0.1,0.3-0.3,0.3-0.6c0-0.4-0.3-0.7-0.8-0.9l-0.7-0.3c-1-0.4-1.5-0.9-1.5-1.7c0-0.5,0.2-1,0.6-1.3c0.4-0.3,0.9-0.5,1.6-0.5
		s1.3,0.1,1.9,0.4c0,0.2,0,0.3-0.1,0.5s-0.2,0.3-0.3,0.4c-0.6-0.3-1.1-0.4-1.6-0.4c-0.3,0-0.5,0.1-0.7,0.2c-0.2,0.1-0.3,0.3-0.3,0.5
		c0,0.2,0.1,0.4,0.2,0.5s0.3,0.2,0.6,0.3l0.7,0.3c1,0.4,1.5,1,1.5,1.8c0,0.5-0.2,1-0.6,1.3c-0.4,0.3-1,0.5-1.7,0.5
		S71,23.2,70.3,22.8z"/>
	<path fill="#FFFFFF" d="M75.9,25.1c-0.2-0.1-0.3-0.3-0.3-0.5c0,0,0-0.1,0-0.1c0.3-0.1,0.5-0.3,0.7-0.5c0.2-0.2,0.3-0.4,0.3-0.7
		c-0.2-0.1-0.4-0.1-0.5-0.2C76,23,76,22.8,76,22.6c0-0.3,0-0.5,0.1-0.6c0.2-0.1,0.4-0.2,0.7-0.2s0.5,0.1,0.7,0.2
		c0.1,0.2,0.1,0.4,0.1,0.8c0,0.5-0.1,1-0.4,1.4S76.4,24.9,75.9,25.1z"/>
	<path fill="#FFFFFF" d="M84.8,17.1c0.7,0,1.2,0.3,1.5,0.8c0.4,0.6,0.5,1.3,0.5,2.3s-0.2,1.7-0.7,2.3s-1,0.8-1.6,0.8
		c-0.5,0-1-0.1-1.4-0.4v2.1c0,0.3,0,0.5-0.1,0.6c-0.1,0.1-0.3,0.2-0.5,0.2H82L82,25.7v-8.4l0.1-0.1h0.4c0.4,0,0.6,0.2,0.7,0.6
		C83.5,17.4,84.1,17.1,84.8,17.1z M84.5,18.1c-0.6,0-1,0.3-1.4,0.8v3c0.4,0.3,0.9,0.5,1.2,0.5s0.7-0.2,0.9-0.6
		c0.2-0.4,0.4-0.9,0.4-1.6s-0.1-1.2-0.3-1.6S84.8,18.1,84.5,18.1z"/>
	<path fill="#FFFFFF" d="M92.2,17.8c0.6,0.6,0.8,1.4,0.8,2.5s-0.3,1.9-0.8,2.5c-0.4,0.4-1,0.7-1.7,0.7s-1.3-0.2-1.7-0.7
		c-0.6-0.6-0.8-1.4-0.8-2.5s0.3-1.9,0.8-2.5c0.4-0.4,1-0.7,1.7-0.7S91.8,17.4,92.2,17.8z M89.1,20.3c0,1.5,0.5,2.2,1.4,2.2
		s1.4-0.7,1.4-2.2c0-0.4,0-0.8-0.1-1.1c-0.1-0.3-0.2-0.6-0.4-0.8c-0.2-0.2-0.5-0.3-0.8-0.3s-0.6,0.1-0.8,0.3
		c-0.2,0.2-0.4,0.5-0.4,0.8C89.1,19.5,89.1,19.9,89.1,20.3z"/>
	<path fill="#FFFFFF" d="M94,22.8c0-0.1,0-0.3,0.1-0.4s0.2-0.3,0.3-0.4c0.7,0.4,1.2,0.5,1.6,0.5c0.4,0,0.7-0.1,0.9-0.2
		c0.2-0.1,0.3-0.3,0.3-0.6c0-0.4-0.3-0.7-0.8-0.9l-0.7-0.3c-1-0.4-1.5-0.9-1.5-1.7c0-0.5,0.2-1,0.6-1.3c0.4-0.3,0.9-0.5,1.6-0.5
		s1.3,0.1,1.9,0.4c0,0.2,0,0.3-0.1,0.5s-0.2,0.3-0.3,0.4c-0.6-0.3-1.1-0.4-1.6-0.4c-0.3,0-0.5,0.1-0.7,0.2c-0.2,0.1-0.3,0.3-0.3,0.5
		c0,0.2,0.1,0.4,0.2,0.5s0.3,0.2,0.6,0.3l0.7,0.3c1,0.4,1.5,1,1.5,1.8c0,0.5-0.2,1-0.6,1.3c-0.4,0.3-1,0.5-1.7,0.5
		S94.6,23.2,94,22.8z"/>
	<path fill="#FFFFFF" d="M99.2,22.8c0-0.1,0-0.3,0.1-0.4s0.2-0.3,0.3-0.4c0.7,0.4,1.2,0.5,1.6,0.5c0.4,0,0.7-0.1,0.9-0.2
		c0.2-0.1,0.3-0.3,0.3-0.6c0-0.4-0.3-0.7-0.8-0.9l-0.7-0.3c-1-0.4-1.5-0.9-1.5-1.7c0-0.5,0.2-1,0.6-1.3c0.4-0.3,0.9-0.5,1.6-0.5
		s1.3,0.1,1.9,0.4c0,0.2,0,0.3-0.1,0.5s-0.2,0.3-0.3,0.4c-0.6-0.3-1.1-0.4-1.6-0.4c-0.3,0-0.5,0.1-0.7,0.2c-0.2,0.1-0.3,0.3-0.3,0.5
		c0,0.2,0.1,0.4,0.2,0.5s0.3,0.2,0.6,0.3l0.7,0.3c1,0.4,1.5,1,1.5,1.8c0,0.5-0.2,1-0.6,1.3c-0.4,0.3-1,0.5-1.7,0.5
		S99.9,23.2,99.2,22.8z"/>
	<path fill="#FFFFFF" d="M106.4,18.3v4.9c-0.1,0-0.3,0-0.6,0c-0.2,0-0.4,0-0.6,0v-4.5c0-0.2,0-0.4-0.1-0.5s-0.2-0.1-0.4-0.1h-0.1
		c0-0.1,0-0.3,0-0.4c0-0.2,0-0.3,0-0.4c0.3,0,0.5,0,0.7,0h0.2c0.3,0,0.5,0.1,0.7,0.3C106.3,17.7,106.4,18,106.4,18.3z M104.8,15.7
		c0-0.2,0-0.4,0.1-0.5c0.2-0.1,0.4-0.1,0.7-0.1c0.3,0,0.5,0,0.6,0.1c0.1,0.1,0.1,0.3,0.1,0.5c0,0.2,0,0.4-0.1,0.5
		c-0.1,0.1-0.3,0.1-0.6,0.1c-0.3,0-0.5,0-0.6-0.1C104.9,16,104.8,15.9,104.8,15.7z"/>
	<path fill="#FFFFFF" d="M111.1,17.2c0.6,0,1.1,0.3,1.5,0.8c0.4,0.5,0.5,1.3,0.5,2.2s-0.3,1.7-0.8,2.2s-1.1,0.8-1.9,0.8
		s-1.5-0.1-2.2-0.4v-8.4l0.1-0.1h0.4c0.2,0,0.4,0.1,0.5,0.2c0.1,0.1,0.1,0.3,0.1,0.6v2.7C109.9,17.4,110.4,17.2,111.1,17.2z
		 M110.8,18.2c-0.5,0-1,0.2-1.4,0.7v3.4c0.3,0.1,0.7,0.2,1.1,0.2s0.8-0.2,1-0.6c0.3-0.4,0.4-0.9,0.4-1.6c0-0.7-0.1-1.2-0.3-1.6
		S111.1,18.2,110.8,18.2z"/>
	<path fill="#FFFFFF" d="M115.9,18.3v4.9c-0.1,0-0.3,0-0.6,0c-0.2,0-0.4,0-0.6,0v-4.5c0-0.2,0-0.4-0.1-0.5s-0.2-0.1-0.4-0.1h-0.1
		c0-0.1,0-0.3,0-0.4c0-0.2,0-0.3,0-0.4c0.3,0,0.5,0,0.7,0h0.2c0.3,0,0.5,0.1,0.7,0.3C115.8,17.7,115.9,18,115.9,18.3z M114.4,15.7
		c0-0.2,0-0.4,0.1-0.5c0.2-0.1,0.4-0.1,0.7-0.1c0.3,0,0.5,0,0.6,0.1c0.1,0.1,0.1,0.3,0.1,0.5c0,0.2,0,0.4-0.1,0.5
		c-0.1,0.1-0.3,0.1-0.6,0.1c-0.3,0-0.5,0-0.6-0.1C114.4,16,114.4,15.9,114.4,15.7z"/>
	<path fill="#FFFFFF" d="M119.4,22.3h0.5c0.1,0.2,0.1,0.3,0.1,0.5c0,0.1,0,0.3,0,0.4c-0.3,0.1-0.7,0.1-1,0.1c-0.8,0-1.1-0.4-1.1-1.2
		v-7.6l0.1-0.1h0.4c0.2,0,0.4,0.1,0.5,0.2c0.1,0.1,0.1,0.3,0.1,0.6v6.7C118.9,22.2,119.1,22.3,119.4,22.3z"/>
	<path fill="#FFFFFF" d="M122.6,18.3v4.9c-0.1,0-0.3,0-0.6,0c-0.2,0-0.4,0-0.6,0v-4.5c0-0.2,0-0.4-0.1-0.5s-0.2-0.1-0.4-0.1h-0.1
		c0-0.1,0-0.3,0-0.4c0-0.2,0-0.3,0-0.4c0.3,0,0.5,0,0.7,0h0.2c0.3,0,0.5,0.1,0.7,0.3C122.5,17.7,122.6,18,122.6,18.3z M121.1,15.7
		c0-0.2,0-0.4,0.1-0.5c0.2-0.1,0.4-0.1,0.7-0.1c0.3,0,0.5,0,0.6,0.1c0.1,0.1,0.1,0.3,0.1,0.5c0,0.2,0,0.4-0.1,0.5
		c-0.1,0.1-0.3,0.1-0.6,0.1c-0.3,0-0.5,0-0.6-0.1C121.1,16,121.1,15.9,121.1,15.7z"/>
	<path fill="#FFFFFF" d="M127.3,17.3c0,0.1,0,0.3,0,0.4s0,0.3,0,0.4l-1.5,0v3.7c0,0.3,0.2,0.5,0.5,0.5h0.8c0.1,0.2,0.1,0.3,0.1,0.5
		s0,0.3,0,0.3c-0.5,0.1-0.9,0.1-1.3,0.1c-0.8,0-1.2-0.4-1.2-1.2v-3.9l-0.9,0c0-0.1,0-0.3,0-0.4s0-0.3,0-0.4l0.9,0v-1.1
		c0-0.3,0-0.5,0.1-0.6c0.1-0.1,0.3-0.2,0.5-0.2h0.4l0.1,0.1v1.8L127.3,17.3z"/>
	<path fill="#FFFFFF" d="M133.2,22.7c-0.1,0.3-0.2,0.5-0.5,0.6c-0.4-0.1-0.7-0.3-0.9-0.8c-0.6,0.6-1.2,0.8-1.8,0.8
		c-0.6,0-1.1-0.2-1.4-0.5c-0.3-0.4-0.5-0.8-0.5-1.2c0-0.7,0.2-1.1,0.6-1.5s1-0.5,1.7-0.5c0.4,0,0.8,0,1.2,0.1v-0.5
		c0-0.7-0.3-1.1-1-1.1c-0.5,0-1.2,0.2-1.9,0.5c-0.2-0.2-0.3-0.5-0.3-0.9c0.8-0.4,1.7-0.6,2.5-0.6c0.6,0,1.1,0.2,1.4,0.5
		c0.3,0.3,0.5,0.8,0.5,1.5v2.5C132.8,22.2,132.9,22.5,133.2,22.7z M130.2,22.4c0.5,0,1-0.3,1.5-0.8v-1.2c-0.3,0-0.7-0.1-1.1-0.1
		c-0.4,0-0.7,0.1-0.9,0.3c-0.2,0.2-0.3,0.4-0.3,0.7c0,0.3,0.1,0.5,0.2,0.7C129.7,22.4,129.9,22.4,130.2,22.4z"/>
	<path fill="#FFFFFF" d="M134.4,17.8c0.1-0.3,0.2-0.5,0.4-0.6c0.5,0.1,0.9,0.5,1,1.1c0.3-0.7,0.9-1.1,1.6-1.1c0.2,0,0.4,0,0.6,0.1
		c0,0.4-0.1,0.8-0.3,1.1c0,0-0.2,0-0.5,0c-0.6,0-1,0.3-1.3,0.9v3.9c-0.1,0-0.3,0-0.6,0s-0.4,0-0.6,0v-4.2
		C134.8,18.5,134.7,18.1,134.4,17.8z"/>
	<path fill="#FFFFFF" d="M143.6,22.7c-0.1,0.3-0.2,0.5-0.5,0.6c-0.4-0.1-0.7-0.3-0.9-0.8c-0.6,0.6-1.2,0.8-1.8,0.8
		c-0.6,0-1.1-0.2-1.4-0.5c-0.3-0.4-0.5-0.8-0.5-1.2c0-0.7,0.2-1.1,0.6-1.5s1-0.5,1.7-0.5c0.4,0,0.8,0,1.2,0.1v-0.5
		c0-0.7-0.3-1.1-1-1.1c-0.5,0-1.2,0.2-1.9,0.5c-0.2-0.2-0.3-0.5-0.3-0.9c0.8-0.4,1.7-0.6,2.5-0.6c0.6,0,1.1,0.2,1.4,0.5
		c0.3,0.3,0.5,0.8,0.5,1.5v2.5C143.3,22.2,143.4,22.5,143.6,22.7z M140.7,22.4c0.5,0,1-0.3,1.5-0.8v-1.2c-0.3,0-0.7-0.1-1.1-0.1
		c-0.4,0-0.7,0.1-0.9,0.3c-0.2,0.2-0.3,0.4-0.3,0.7c0,0.3,0.1,0.5,0.2,0.7C140.2,22.4,140.4,22.4,140.7,22.4z M140.2,16.3l1.7-1.9
		c0.2,0.1,0.3,0.2,0.5,0.3c0.2,0.1,0.3,0.3,0.3,0.5l-2,1.6C140.4,16.7,140.3,16.5,140.2,16.3z"/>
	<path fill="#FFFFFF" d="M151.7,17.8c0.6,0.6,0.8,1.4,0.8,2.5s-0.3,1.9-0.8,2.5c-0.4,0.4-1,0.7-1.7,0.7s-1.3-0.2-1.7-0.7
		c-0.6-0.6-0.8-1.4-0.8-2.5s0.3-1.9,0.8-2.5c0.4-0.4,1-0.7,1.7-0.7S151.2,17.4,151.7,17.8z M148.6,20.3c0,1.5,0.5,2.2,1.4,2.2
		s1.4-0.7,1.4-2.2c0-0.4,0-0.8-0.1-1.1c-0.1-0.3-0.2-0.6-0.4-0.8c-0.2-0.2-0.5-0.3-0.8-0.3s-0.6,0.1-0.8,0.3
		c-0.2,0.2-0.4,0.5-0.4,0.8C148.6,19.5,148.6,19.9,148.6,20.3z"/>
	<path fill="#A9D42D" d="M158.3,23.4c-0.7,0-1.2-0.3-1.5-0.8c-0.4-0.6-0.5-1.3-0.5-2.3c0-1,0.2-1.7,0.7-2.3c0.5-0.5,1-0.8,1.6-0.8
		c0.4,0,0.9,0.1,1.4,0.4v-3.1l0.1-0.1h0.4c0.2,0,0.4,0.1,0.5,0.2c0.1,0.1,0.1,0.3,0.1,0.6v6.4c0,0.6,0.1,1,0.3,1.2
		c-0.1,0.3-0.2,0.5-0.5,0.6c-0.4-0.1-0.7-0.3-0.9-0.8C159.6,23.1,159,23.4,158.3,23.4z M158.6,22.4c0.5,0,1-0.3,1.4-0.8v-3
		c-0.4-0.3-0.9-0.5-1.2-0.5s-0.7,0.2-0.9,0.6c-0.2,0.4-0.4,0.9-0.4,1.6c0,0.7,0.1,1.2,0.3,1.6S158.2,22.4,158.6,22.4z"/>
	<path fill="#A9D42D" d="M167.4,20.6h-3.6c0,0.6,0.1,1,0.4,1.3c0.2,0.3,0.6,0.5,1.1,0.5s1.1-0.2,1.7-0.5c0.2,0.2,0.3,0.4,0.4,0.8
		c-0.6,0.4-1.4,0.7-2.3,0.7c-0.9,0-1.5-0.3-1.9-0.9s-0.6-1.3-0.6-2.3s0.2-1.7,0.6-2.3c0.4-0.6,1-0.9,1.8-0.9c0.8,0,1.4,0.2,1.8,0.7
		c0.4,0.5,0.6,1.1,0.6,1.8C167.5,20,167.4,20.3,167.4,20.6z M166,18.5c-0.2-0.3-0.5-0.5-0.9-0.5s-0.7,0.2-0.9,0.5
		c-0.2,0.3-0.3,0.7-0.4,1.3h2.5v-0.2C166.3,19.1,166.2,18.8,166,18.5z"/>
	<path fill="#A9D42D" d="M168.5,22.8c0-0.1,0-0.3,0.1-0.4s0.2-0.3,0.3-0.4c0.7,0.4,1.2,0.5,1.6,0.5c0.4,0,0.7-0.1,0.9-0.2
		c0.2-0.1,0.3-0.3,0.3-0.6c0-0.4-0.3-0.7-0.8-0.9l-0.7-0.3c-1-0.4-1.5-0.9-1.5-1.7c0-0.5,0.2-1,0.6-1.3c0.4-0.3,0.9-0.5,1.6-0.5
		s1.3,0.1,1.9,0.4c0,0.2,0,0.3-0.1,0.5s-0.2,0.3-0.3,0.4c-0.6-0.3-1.1-0.4-1.6-0.4c-0.3,0-0.5,0.1-0.7,0.2c-0.2,0.1-0.3,0.3-0.3,0.5
		c0,0.2,0.1,0.4,0.2,0.5s0.3,0.2,0.6,0.3l0.7,0.3c1,0.4,1.5,1,1.5,1.8c0,0.5-0.2,1-0.6,1.3c-0.4,0.3-1,0.5-1.7,0.5
		S169.1,23.2,168.5,22.8z"/>
	<path fill="#A9D42D" d="M178.6,20.6h-3.6c0,0.6,0.1,1,0.4,1.3c0.2,0.3,0.6,0.5,1.1,0.5s1.1-0.2,1.7-0.5c0.2,0.2,0.3,0.4,0.4,0.8
		c-0.6,0.4-1.4,0.7-2.3,0.7c-0.9,0-1.5-0.3-1.9-0.9s-0.6-1.3-0.6-2.3s0.2-1.7,0.6-2.3c0.4-0.6,1-0.9,1.8-0.9c0.8,0,1.4,0.2,1.8,0.7
		c0.4,0.5,0.6,1.1,0.6,1.8C178.7,20,178.7,20.3,178.6,20.6z M177.3,18.5c-0.2-0.3-0.5-0.5-0.9-0.5s-0.7,0.2-0.9,0.5
		c-0.2,0.3-0.3,0.7-0.4,1.3h2.5v-0.2C177.6,19.1,177.5,18.8,177.3,18.5z"/>
	<path fill="#A9D42D" d="M185,19.1V22c0,0.5,0.1,0.8,0.2,1.1c-0.2,0.2-0.4,0.3-0.7,0.3c-0.4,0-0.6-0.2-0.6-0.7v-3.1
		c0-0.4-0.1-0.7-0.2-0.9c-0.1-0.2-0.3-0.3-0.6-0.3c-0.3,0-0.6,0.1-0.9,0.2c-0.3,0.1-0.5,0.3-0.8,0.6v4.2c-0.1,0-0.3,0-0.6,0
		s-0.4,0-0.6,0v-5.9l0.1-0.1h0.4c0.4,0,0.6,0.3,0.6,0.8c0.6-0.5,1.2-0.8,1.9-0.8c0.5,0,0.9,0.2,1.2,0.5
		C184.8,18.1,185,18.6,185,19.1z"/>
	<path fill="#A9D42D" d="M188.7,22.3l1.5-5c0.1,0,0.3,0,0.5,0s0.4,0,0.6,0.1l0,0c-0.8,2.6-1.4,4.5-1.9,5.8c-0.2,0-0.5,0.1-0.8,0.1
		s-0.5,0-0.6-0.1s-0.2-0.3-0.3-0.5l-1.7-5.2c0.2-0.1,0.5-0.2,0.7-0.2c0.3,0,0.5,0.2,0.6,0.5l0.8,2.7c0.2,0.6,0.3,1.2,0.5,1.8
		C188.6,22.2,188.6,22.3,188.7,22.3z"/>
	<path fill="#A9D42D" d="M196.2,17.8c0.6,0.6,0.8,1.4,0.8,2.5s-0.3,1.9-0.8,2.5c-0.4,0.4-1,0.7-1.7,0.7s-1.3-0.2-1.7-0.7
		c-0.6-0.6-0.8-1.4-0.8-2.5s0.3-1.9,0.8-2.5c0.4-0.4,1-0.7,1.7-0.7S195.7,17.4,196.2,17.8z M193.1,20.3c0,1.5,0.5,2.2,1.4,2.2
		s1.4-0.7,1.4-2.2c0-0.4,0-0.8-0.1-1.1c-0.1-0.3-0.2-0.6-0.4-0.8c-0.2-0.2-0.5-0.3-0.8-0.3s-0.6,0.1-0.8,0.3
		c-0.2,0.2-0.4,0.5-0.4,0.8C193.1,19.5,193.1,19.9,193.1,20.3z"/>
	<path fill="#A9D42D" d="M200.1,22.3h0.5c0.1,0.2,0.1,0.3,0.1,0.5c0,0.1,0,0.3,0,0.4c-0.3,0.1-0.7,0.1-1,0.1c-0.8,0-1.1-0.4-1.1-1.2
		v-7.6l0.1-0.1h0.4c0.2,0,0.4,0.1,0.5,0.2c0.1,0.1,0.1,0.3,0.1,0.6v6.7C199.6,22.2,199.8,22.3,200.1,22.3z"/>
	<path fill="#A9D42D" d="M203.8,22.3l1.5-5c0.1,0,0.3,0,0.5,0s0.4,0,0.6,0.1l0,0c-0.8,2.6-1.4,4.5-1.9,5.8c-0.2,0-0.5,0.1-0.8,0.1
		s-0.5,0-0.6-0.1s-0.2-0.3-0.3-0.5l-1.7-5.2c0.2-0.1,0.5-0.2,0.7-0.2c0.3,0,0.5,0.2,0.6,0.5l0.8,2.7c0.2,0.6,0.3,1.2,0.5,1.8
		C203.7,22.2,203.7,22.3,203.8,22.3z"/>
	<path fill="#A9D42D" d="M208.7,18.3v4.9c-0.1,0-0.3,0-0.6,0c-0.2,0-0.4,0-0.6,0v-4.5c0-0.2,0-0.4-0.1-0.5s-0.2-0.1-0.4-0.1h-0.1
		c0-0.1,0-0.3,0-0.4c0-0.2,0-0.3,0-0.4c0.3,0,0.5,0,0.7,0h0.2c0.3,0,0.5,0.1,0.7,0.3C208.6,17.7,208.7,18,208.7,18.3z M207.2,15.7
		c0-0.2,0-0.4,0.1-0.5c0.2-0.1,0.4-0.1,0.7-0.1c0.3,0,0.5,0,0.6,0.1c0.1,0.1,0.1,0.3,0.1,0.5c0,0.2,0,0.4-0.1,0.5
		c-0.1,0.1-0.3,0.1-0.6,0.1c-0.3,0-0.5,0-0.6-0.1C207.2,16,207.2,15.9,207.2,15.7z"/>
	<path fill="#A9D42D" d="M213.9,19.4c0-0.4-0.1-0.7-0.2-0.9c-0.1-0.2-0.3-0.3-0.6-0.3c-0.5,0-0.9,0.3-1.4,0.8v4.2
		c-0.1,0-0.3,0-0.6,0s-0.4,0-0.6,0v-5.9l0.1-0.1h0.4c0.4,0,0.6,0.3,0.6,0.8c0.5-0.5,1.1-0.8,1.7-0.8s1.1,0.3,1.3,0.9
		c0.6-0.6,1.3-0.9,1.9-0.9c0.5,0,0.9,0.2,1.1,0.5c0.3,0.4,0.4,0.8,0.4,1.3V22c0,0.5,0.1,0.8,0.2,1.1c-0.2,0.2-0.4,0.3-0.7,0.3
		c-0.4,0-0.6-0.2-0.6-0.7v-3.1c0-0.4-0.1-0.7-0.2-0.9c-0.1-0.2-0.3-0.3-0.6-0.3c-0.5,0-0.9,0.3-1.4,0.8v4.2c-0.1,0-0.3,0-0.6,0
		s-0.4,0-0.6,0V19.4z"/>
	<path fill="#A9D42D" d="M224.5,20.6H221c0,0.6,0.1,1,0.4,1.3c0.2,0.3,0.6,0.5,1.1,0.5s1.1-0.2,1.7-0.5c0.2,0.2,0.3,0.4,0.4,0.8
		c-0.6,0.4-1.4,0.7-2.3,0.7c-0.9,0-1.5-0.3-1.9-0.9s-0.6-1.3-0.6-2.3s0.2-1.7,0.6-2.3c0.4-0.6,1-0.9,1.8-0.9c0.8,0,1.4,0.2,1.8,0.7
		c0.4,0.5,0.6,1.1,0.6,1.8C224.6,20,224.6,20.3,224.5,20.6z M223.2,18.5c-0.2-0.3-0.5-0.5-0.9-0.5s-0.7,0.2-0.9,0.5
		c-0.2,0.3-0.3,0.7-0.4,1.3h2.5v-0.2C223.5,19.1,223.4,18.8,223.2,18.5z"/>
	<path fill="#A9D42D" d="M230.9,19.1V22c0,0.5,0.1,0.8,0.2,1.1c-0.2,0.2-0.4,0.3-0.7,0.3c-0.4,0-0.6-0.2-0.6-0.7v-3.1
		c0-0.4-0.1-0.7-0.2-0.9c-0.1-0.2-0.3-0.3-0.6-0.3c-0.3,0-0.6,0.1-0.9,0.2c-0.3,0.1-0.5,0.3-0.8,0.6v4.2c-0.1,0-0.3,0-0.6,0
		s-0.4,0-0.6,0v-5.9l0.1-0.1h0.4c0.4,0,0.6,0.3,0.6,0.8c0.6-0.5,1.2-0.8,1.9-0.8c0.5,0,0.9,0.2,1.2,0.5
		C230.7,18.1,230.9,18.6,230.9,19.1z"/>
	<path fill="#A9D42D" d="M235.6,17.3c0,0.1,0,0.3,0,0.4s0,0.3,0,0.4l-1.5,0v3.7c0,0.3,0.2,0.5,0.5,0.5h0.8c0.1,0.2,0.1,0.3,0.1,0.5
		s0,0.3,0,0.3c-0.5,0.1-0.9,0.1-1.3,0.1c-0.8,0-1.2-0.4-1.2-1.2v-3.9l-0.9,0c0-0.1,0-0.3,0-0.4s0-0.3,0-0.4l0.9,0v-1.1
		c0-0.3,0-0.5,0.1-0.6c0.1-0.1,0.3-0.2,0.5-0.2h0.4l0.1,0.1v1.8L235.6,17.3z"/>
	<path fill="#A9D42D" d="M240.8,17.8c0.6,0.6,0.8,1.4,0.8,2.5s-0.3,1.9-0.8,2.5c-0.4,0.4-1,0.7-1.7,0.7s-1.3-0.2-1.7-0.7
		c-0.6-0.6-0.8-1.4-0.8-2.5s0.3-1.9,0.8-2.5c0.4-0.4,1-0.7,1.7-0.7S240.4,17.4,240.8,17.8z M237.7,20.3c0,1.5,0.5,2.2,1.4,2.2
		s1.4-0.7,1.4-2.2c0-0.4,0-0.8-0.1-1.1c-0.1-0.3-0.2-0.6-0.4-0.8c-0.2-0.2-0.5-0.3-0.8-0.3s-0.6,0.1-0.8,0.3
		c-0.2,0.2-0.4,0.5-0.4,0.8C237.8,19.5,237.7,19.9,237.7,20.3z"/>
	<path fill="#FFFFFF" d="M2.1,37.8c-0.7,0-1.2-0.3-1.5-0.8C0.2,36.4,0,35.6,0,34.7c0-1,0.2-1.7,0.7-2.3c0.5-0.5,1-0.8,1.6-0.8
		c0.4,0,0.9,0.1,1.4,0.4v-3.1l0.1-0.1h0.4c0.2,0,0.4,0.1,0.5,0.2c0.1,0.1,0.1,0.3,0.1,0.6v6.4c0,0.6,0.1,1,0.3,1.2
		c-0.1,0.3-0.2,0.5-0.5,0.6c-0.4-0.1-0.7-0.3-0.9-0.8C3.3,37.5,2.7,37.8,2.1,37.8z M2.3,36.8c0.5,0,1-0.3,1.4-0.8v-3
		c-0.4-0.3-0.9-0.5-1.2-0.5s-0.7,0.2-0.9,0.6c-0.2,0.4-0.4,0.9-0.4,1.6c0,0.7,0.1,1.2,0.3,1.6S2,36.8,2.3,36.8z"/>
	<path fill="#FFFFFF" d="M11.3,37.1c-0.1,0.3-0.2,0.5-0.5,0.6c-0.4-0.1-0.7-0.3-0.9-0.8c-0.6,0.6-1.2,0.8-1.8,0.8
		c-0.6,0-1.1-0.2-1.4-0.5c-0.3-0.4-0.5-0.8-0.5-1.2c0-0.7,0.2-1.1,0.6-1.5s1-0.5,1.7-0.5c0.4,0,0.8,0,1.2,0.1v-0.5
		c0-0.7-0.3-1.1-1-1.1c-0.5,0-1.2,0.2-1.9,0.5c-0.2-0.2-0.3-0.5-0.3-0.9c0.8-0.4,1.7-0.6,2.5-0.6c0.6,0,1.1,0.2,1.4,0.5
		c0.3,0.3,0.5,0.8,0.5,1.5V36C11,36.6,11.1,36.9,11.3,37.1z M8.3,36.8c0.5,0,1-0.3,1.5-0.8v-1.2c-0.3,0-0.7-0.1-1.1-0.1
		c-0.4,0-0.7,0.1-0.9,0.3c-0.2,0.2-0.3,0.4-0.3,0.7c0,0.3,0.1,0.5,0.2,0.7C7.9,36.8,8.1,36.8,8.3,36.8z"/>
	<path fill="#FFFFFF" d="M12.3,37.2c0-0.1,0-0.3,0.1-0.4s0.2-0.3,0.3-0.4c0.7,0.4,1.2,0.5,1.6,0.5c0.4,0,0.7-0.1,0.9-0.2
		c0.2-0.1,0.3-0.3,0.3-0.6c0-0.4-0.3-0.7-0.8-0.9L14,35c-1-0.4-1.5-0.9-1.5-1.7c0-0.5,0.2-1,0.6-1.3c0.4-0.3,0.9-0.5,1.6-0.5
		s1.3,0.1,1.9,0.4c0,0.2,0,0.3-0.1,0.5s-0.2,0.3-0.3,0.4c-0.6-0.3-1.1-0.4-1.6-0.4c-0.3,0-0.5,0.1-0.7,0.2c-0.2,0.1-0.3,0.3-0.3,0.5
		c0,0.2,0.1,0.4,0.2,0.5s0.3,0.2,0.6,0.3l0.7,0.3c1,0.4,1.5,1,1.5,1.8c0,0.5-0.2,1-0.6,1.3c-0.4,0.3-1,0.5-1.7,0.5
		S12.9,37.6,12.3,37.2z"/>
	<path fill="#FFFFFF" d="M20.1,37.2c0-0.1,0-0.3,0.1-0.4s0.2-0.3,0.3-0.4c0.7,0.4,1.2,0.5,1.6,0.5c0.4,0,0.7-0.1,0.9-0.2
		c0.2-0.1,0.3-0.3,0.3-0.6c0-0.4-0.3-0.7-0.8-0.9L21.9,35c-1-0.4-1.5-0.9-1.5-1.7c0-0.5,0.2-1,0.6-1.3c0.4-0.3,0.9-0.5,1.6-0.5
		s1.3,0.1,1.9,0.4c0,0.2,0,0.3-0.1,0.5s-0.2,0.3-0.3,0.4c-0.6-0.3-1.1-0.4-1.6-0.4c-0.3,0-0.5,0.1-0.7,0.2c-0.2,0.1-0.3,0.3-0.3,0.5
		c0,0.2,0.1,0.4,0.2,0.5s0.3,0.2,0.6,0.3l0.7,0.3c1,0.4,1.5,1,1.5,1.8c0,0.5-0.2,1-0.6,1.3c-0.4,0.3-1,0.5-1.7,0.5
		S20.8,37.6,20.1,37.2z"/>
	<path fill="#FFFFFF" d="M25.9,35.8v-2.8c0-0.5-0.1-0.8-0.2-1.1c0.2-0.2,0.4-0.2,0.7-0.2c0.3,0,0.4,0.1,0.5,0.2
		c0.1,0.1,0.1,0.3,0.1,0.6v3.1c0,0.4,0.1,0.7,0.2,0.9c0.1,0.2,0.3,0.3,0.6,0.3c0.3,0,0.6-0.1,0.8-0.2c0.3-0.1,0.5-0.3,0.8-0.6v-4.2
		c0.2,0,0.4,0,0.6,0s0.4,0,0.6,0V36c0,0.6,0.1,1,0.3,1.2c-0.1,0.3-0.2,0.5-0.4,0.6c-0.5-0.1-0.8-0.4-0.9-0.9c-0.6,0.6-1.3,0.9-2,0.9
		c-0.5,0-0.9-0.2-1.2-0.5C26,36.8,25.9,36.4,25.9,35.8z"/>
	<path fill="#FFFFFF" d="M37.1,37.1c-0.1,0.3-0.2,0.5-0.5,0.6c-0.4-0.1-0.7-0.3-0.9-0.8c-0.6,0.6-1.2,0.8-1.8,0.8
		c-0.6,0-1.1-0.2-1.4-0.5c-0.3-0.4-0.5-0.8-0.5-1.2c0-0.7,0.2-1.1,0.6-1.5s1-0.5,1.7-0.5c0.4,0,0.8,0,1.2,0.1v-0.5
		c0-0.7-0.3-1.1-1-1.1c-0.5,0-1.2,0.2-1.9,0.5c-0.2-0.2-0.3-0.5-0.3-0.9c0.8-0.4,1.7-0.6,2.5-0.6c0.6,0,1.1,0.2,1.4,0.5
		c0.3,0.3,0.5,0.8,0.5,1.5V36C36.7,36.6,36.8,36.9,37.1,37.1z M34.1,36.8c0.5,0,1-0.3,1.5-0.8v-1.2c-0.3,0-0.7-0.1-1.1-0.1
		c-0.4,0-0.7,0.1-0.9,0.3c-0.2,0.2-0.3,0.4-0.3,0.7c0,0.3,0.1,0.5,0.2,0.7C33.6,36.8,33.8,36.8,34.1,36.8z"/>
	<path fill="#FFFFFF" d="M38,37.2c0-0.1,0-0.3,0.1-0.4s0.2-0.3,0.3-0.4c0.7,0.4,1.2,0.5,1.6,0.5c0.4,0,0.7-0.1,0.9-0.2
		c0.2-0.1,0.3-0.3,0.3-0.6c0-0.4-0.3-0.7-0.8-0.9L39.8,35c-1-0.4-1.5-0.9-1.5-1.7c0-0.5,0.2-1,0.6-1.3c0.4-0.3,0.9-0.5,1.6-0.5
		s1.3,0.1,1.9,0.4c0,0.2,0,0.3-0.1,0.5s-0.2,0.3-0.3,0.4c-0.6-0.3-1.1-0.4-1.6-0.4c-0.3,0-0.5,0.1-0.7,0.2c-0.2,0.1-0.3,0.3-0.3,0.5
		c0,0.2,0.1,0.4,0.2,0.5s0.3,0.2,0.6,0.3l0.7,0.3c1,0.4,1.5,1,1.5,1.8c0,0.5-0.2,1-0.6,1.3c-0.4,0.3-1,0.5-1.7,0.5
		S38.7,37.6,38,37.2z"/>
	<path fill="#FFFFFF" d="M51.1,33.6v2.8c0,0.5,0.1,0.8,0.2,1.1c-0.2,0.2-0.5,0.3-0.7,0.3c-0.4,0-0.6-0.2-0.6-0.7v-3.1
		c0-0.4-0.1-0.7-0.2-0.9c-0.1-0.2-0.3-0.3-0.6-0.3c-0.3,0-0.6,0.1-0.9,0.2c-0.3,0.1-0.5,0.3-0.8,0.6v4.2c-0.1,0-0.3,0-0.6,0
		s-0.4,0-0.6,0v-8.7l0.1-0.1H47c0.2,0,0.4,0.1,0.5,0.2c0.1,0.1,0.1,0.3,0.1,0.6v2.9c0.6-0.5,1.2-0.8,1.9-0.8c0.5,0,0.9,0.2,1.2,0.5
		C51,32.5,51.1,33,51.1,33.6z"/>
	<path fill="#FFFFFF" d="M57.5,37.1c-0.1,0.3-0.2,0.5-0.5,0.6c-0.4-0.1-0.7-0.3-0.9-0.8c-0.6,0.6-1.2,0.8-1.8,0.8
		c-0.6,0-1.1-0.2-1.4-0.5c-0.3-0.4-0.5-0.8-0.5-1.2c0-0.7,0.2-1.1,0.6-1.5s1-0.5,1.7-0.5c0.4,0,0.8,0,1.2,0.1v-0.5
		c0-0.7-0.3-1.1-1-1.1c-0.5,0-1.2,0.2-1.9,0.5c-0.2-0.2-0.3-0.5-0.3-0.9c0.8-0.4,1.7-0.6,2.5-0.6c0.6,0,1.1,0.2,1.4,0.5
		c0.3,0.3,0.5,0.8,0.5,1.5V36C57.2,36.6,57.3,36.9,57.5,37.1z M54.6,36.8c0.5,0,1-0.3,1.5-0.8v-1.2c-0.3,0-0.7-0.1-1.1-0.1
		c-0.4,0-0.7,0.1-0.9,0.3c-0.2,0.2-0.3,0.4-0.3,0.7c0,0.3,0.1,0.5,0.2,0.7C54.1,36.8,54.3,36.8,54.6,36.8z"/>
	<path fill="#FFFFFF" d="M61.9,31.6c0.6,0,1.1,0.3,1.5,0.8c0.4,0.5,0.5,1.3,0.5,2.2s-0.3,1.7-0.8,2.2s-1.1,0.8-1.9,0.8
		s-1.5-0.1-2.2-0.4v-8.4l0.1-0.1h0.4c0.2,0,0.4,0.1,0.5,0.2c0.1,0.1,0.1,0.3,0.1,0.6v2.7C60.7,31.8,61.3,31.6,61.9,31.6z M61.6,32.6
		c-0.5,0-1,0.2-1.4,0.7v3.4c0.3,0.1,0.7,0.2,1.1,0.2s0.8-0.2,1-0.6c0.3-0.4,0.4-0.9,0.4-1.6c0-0.7-0.1-1.2-0.3-1.6
		S61.9,32.6,61.6,32.6z"/>
	<path fill="#FFFFFF" d="M66.7,32.7v4.9c-0.1,0-0.3,0-0.6,0c-0.2,0-0.4,0-0.6,0v-4.5c0-0.2,0-0.4-0.1-0.5s-0.2-0.1-0.4-0.1h-0.1
		c0-0.1,0-0.3,0-0.4c0-0.2,0-0.3,0-0.4c0.3,0,0.5,0,0.7,0h0.2c0.3,0,0.5,0.1,0.7,0.3C66.6,32.1,66.7,32.4,66.7,32.7z M65.2,30.1
		c0-0.2,0-0.4,0.1-0.5c0.2-0.1,0.4-0.1,0.7-0.1c0.3,0,0.5,0,0.6,0.1c0.1,0.1,0.1,0.3,0.1,0.5c0,0.2,0,0.4-0.1,0.5
		c-0.1,0.1-0.3,0.1-0.6,0.1c-0.3,0-0.5,0-0.6-0.1C65.2,30.4,65.2,30.3,65.2,30.1z"/>
	<path fill="#FFFFFF" d="M70.2,36.7h0.5c0.1,0.2,0.1,0.3,0.1,0.5c0,0.1,0,0.3,0,0.4c-0.3,0.1-0.7,0.1-1,0.1c-0.8,0-1.1-0.4-1.1-1.2
		v-7.6l0.1-0.1h0.4c0.2,0,0.4,0.1,0.5,0.2c0.1,0.1,0.1,0.3,0.1,0.6v6.7C69.7,36.6,69.9,36.7,70.2,36.7z"/>
	<path fill="#FFFFFF" d="M73.4,32.7v4.9c-0.1,0-0.3,0-0.6,0c-0.2,0-0.4,0-0.6,0v-4.5c0-0.2,0-0.4-0.1-0.5s-0.2-0.1-0.4-0.1h-0.1
		c0-0.1,0-0.3,0-0.4c0-0.2,0-0.3,0-0.4c0.3,0,0.5,0,0.7,0h0.2c0.3,0,0.5,0.1,0.7,0.3C73.3,32.1,73.4,32.4,73.4,32.7z M71.9,30.1
		c0-0.2,0-0.4,0.1-0.5c0.2-0.1,0.4-0.1,0.7-0.1c0.3,0,0.5,0,0.6,0.1c0.1,0.1,0.1,0.3,0.1,0.5c0,0.2,0,0.4-0.1,0.5
		c-0.1,0.1-0.3,0.1-0.6,0.1c-0.3,0-0.5,0-0.6-0.1C71.9,30.4,71.9,30.3,71.9,30.1z"/>
	<path fill="#FFFFFF" d="M77,37.8c-0.7,0-1.2-0.3-1.5-0.8c-0.4-0.6-0.5-1.3-0.5-2.3c0-1,0.2-1.7,0.7-2.3c0.5-0.5,1-0.8,1.6-0.8
		c0.4,0,0.9,0.1,1.4,0.4v-3.1l0.1-0.1h0.4c0.2,0,0.4,0.1,0.5,0.2c0.1,0.1,0.1,0.3,0.1,0.6v6.4c0,0.6,0.1,1,0.3,1.2
		c-0.1,0.3-0.2,0.5-0.5,0.6c-0.4-0.1-0.7-0.3-0.9-0.8C78.2,37.5,77.7,37.8,77,37.8z M77.2,36.8c0.5,0,1-0.3,1.4-0.8v-3
		c-0.4-0.3-0.9-0.5-1.2-0.5s-0.7,0.2-0.9,0.6c-0.2,0.4-0.4,0.9-0.4,1.6c0,0.7,0.1,1.2,0.3,1.6S76.9,36.8,77.2,36.8z"/>
	<path fill="#FFFFFF" d="M86.2,37.1c-0.1,0.3-0.2,0.5-0.5,0.6c-0.4-0.1-0.7-0.3-0.9-0.8c-0.6,0.6-1.2,0.8-1.8,0.8
		c-0.6,0-1.1-0.2-1.4-0.5c-0.3-0.4-0.5-0.8-0.5-1.2c0-0.7,0.2-1.1,0.6-1.5s1-0.5,1.7-0.5c0.4,0,0.8,0,1.2,0.1v-0.5
		c0-0.7-0.3-1.1-1-1.1c-0.5,0-1.2,0.2-1.9,0.5c-0.2-0.2-0.3-0.5-0.3-0.9c0.8-0.4,1.7-0.6,2.5-0.6c0.6,0,1.1,0.2,1.4,0.5
		c0.3,0.3,0.5,0.8,0.5,1.5V36C85.9,36.6,86,36.9,86.2,37.1z M83.3,36.8c0.5,0,1-0.3,1.5-0.8v-1.2c-0.3,0-0.7-0.1-1.1-0.1
		c-0.4,0-0.7,0.1-0.9,0.3c-0.2,0.2-0.3,0.4-0.3,0.7c0,0.3,0.1,0.5,0.2,0.7C82.8,36.8,83,36.8,83.3,36.8z"/>
	<path fill="#FFFFFF" d="M89.3,37.8c-0.7,0-1.2-0.3-1.5-0.8c-0.4-0.6-0.5-1.3-0.5-2.3c0-1,0.2-1.7,0.7-2.3c0.5-0.5,1-0.8,1.6-0.8
		c0.4,0,0.9,0.1,1.4,0.4v-3.1l0.1-0.1h0.4c0.2,0,0.4,0.1,0.5,0.2c0.1,0.1,0.1,0.3,0.1,0.6v6.4c0,0.6,0.1,1,0.3,1.2
		c-0.1,0.3-0.2,0.5-0.5,0.6c-0.4-0.1-0.7-0.3-0.9-0.8C90.6,37.5,90,37.8,89.3,37.8z M89.5,36.8c0.5,0,1-0.3,1.4-0.8v-3
		c-0.4-0.3-0.9-0.5-1.2-0.5s-0.7,0.2-0.9,0.6c-0.2,0.4-0.4,0.9-0.4,1.6c0,0.7,0.1,1.2,0.3,1.6S89.2,36.8,89.5,36.8z"/>
	<path fill="#FFFFFF" d="M98.3,35h-3.6c0,0.6,0.1,1,0.4,1.3c0.2,0.3,0.6,0.5,1.1,0.5s1.1-0.2,1.7-0.5c0.2,0.2,0.3,0.4,0.4,0.8
		c-0.6,0.4-1.4,0.7-2.3,0.7c-0.9,0-1.5-0.3-1.9-0.9s-0.6-1.3-0.6-2.3s0.2-1.7,0.6-2.3c0.4-0.6,1-0.9,1.8-0.9c0.8,0,1.4,0.2,1.8,0.7
		c0.4,0.5,0.6,1.1,0.6,1.8C98.4,34.4,98.4,34.7,98.3,35z M97,32.9c-0.2-0.3-0.5-0.5-0.9-0.5s-0.7,0.2-0.9,0.5
		c-0.2,0.3-0.3,0.7-0.4,1.3h2.5V34C97.3,33.5,97.2,33.2,97,32.9z"/>
	<path fill="#FFFFFF" d="M99.4,37.2c0-0.1,0-0.3,0.1-0.4s0.2-0.3,0.3-0.4c0.7,0.4,1.2,0.5,1.6,0.5c0.4,0,0.7-0.1,0.9-0.2
		c0.2-0.1,0.3-0.3,0.3-0.6c0-0.4-0.3-0.7-0.8-0.9l-0.7-0.3c-1-0.4-1.5-0.9-1.5-1.7c0-0.5,0.2-1,0.6-1.3c0.4-0.3,0.9-0.5,1.6-0.5
		s1.3,0.1,1.9,0.4c0,0.2,0,0.3-0.1,0.5s-0.2,0.3-0.3,0.4c-0.6-0.3-1.1-0.4-1.6-0.4c-0.3,0-0.5,0.1-0.7,0.2c-0.2,0.1-0.3,0.3-0.3,0.5
		c0,0.2,0.1,0.4,0.2,0.5s0.3,0.2,0.6,0.3l0.7,0.3c1,0.4,1.5,1,1.5,1.8c0,0.5-0.2,1-0.6,1.3c-0.4,0.3-1,0.5-1.7,0.5
		S100.1,37.6,99.4,37.2z"/>
	<path fill="#A9D42D" d="M110.7,31.7c0,0.1,0,0.3,0,0.4s0,0.3,0,0.4l-1.5,0v3.7c0,0.3,0.2,0.5,0.5,0.5h0.8c0.1,0.2,0.1,0.3,0.1,0.5
		s0,0.3,0,0.3c-0.5,0.1-0.9,0.1-1.3,0.1c-0.8,0-1.2-0.4-1.2-1.2v-3.9l-0.9,0c0-0.1,0-0.3,0-0.4s0-0.3,0-0.4l0.9,0v-1.1
		c0-0.3,0-0.5,0.1-0.6c0.1-0.1,0.3-0.2,0.5-0.2h0.4l0.1,0.1v1.8L110.7,31.7z"/>
	<path fill="#A9D42D" d="M116.4,35h-3.6c0,0.6,0.1,1,0.4,1.3c0.2,0.3,0.6,0.5,1.1,0.5s1.1-0.2,1.7-0.5c0.2,0.2,0.3,0.4,0.4,0.8
		c-0.6,0.4-1.4,0.7-2.3,0.7c-0.9,0-1.5-0.3-1.9-0.9s-0.6-1.3-0.6-2.3s0.2-1.7,0.6-2.3c0.4-0.6,1-0.9,1.8-0.9c0.8,0,1.4,0.2,1.8,0.7
		c0.4,0.5,0.6,1.1,0.6,1.8C116.5,34.4,116.5,34.7,116.4,35z M115.1,32.9c-0.2-0.3-0.5-0.5-0.9-0.5s-0.7,0.2-0.9,0.5
		c-0.2,0.3-0.3,0.7-0.4,1.3h2.5V34C115.4,33.5,115.3,33.2,115.1,32.9z M113.3,30.7l1.7-1.9c0.2,0.1,0.3,0.2,0.5,0.3
		c0.2,0.1,0.3,0.3,0.3,0.5l-2,1.6C113.6,31.1,113.4,30.9,113.3,30.7z"/>
	<path fill="#A9D42D" d="M121.2,33.9c0,0,0-0.1,0-0.1c0-0.9-0.4-1.4-1.1-1.4c-0.4,0-0.7,0.2-0.9,0.6c-0.2,0.4-0.3,0.9-0.3,1.7
		c0,1.4,0.5,2.1,1.4,2.1c0.4,0,0.9-0.2,1.5-0.6c0.1,0.1,0.2,0.2,0.3,0.3c0.1,0.1,0.2,0.3,0.2,0.4c-0.6,0.6-1.3,0.9-2.1,0.9
		s-1.4-0.3-1.8-0.9c-0.4-0.6-0.6-1.4-0.6-2.3s0.2-1.7,0.7-2.2c0.5-0.5,1.1-0.8,1.8-0.8c0.7,0,1.2,0.2,1.6,0.6s0.6,0.8,0.6,1.2
		s-0.2,0.7-0.6,0.7C121.5,34,121.4,34,121.2,33.9z"/>
	<path fill="#A9D42D" d="M128.4,33.5v2.8c0,0.5,0.1,0.8,0.2,1.1c-0.2,0.2-0.4,0.3-0.7,0.3c-0.4,0-0.6-0.2-0.6-0.7v-3.1
		c0-0.4-0.1-0.7-0.2-0.9c-0.1-0.2-0.3-0.3-0.6-0.3c-0.3,0-0.6,0.1-0.9,0.2c-0.3,0.1-0.5,0.3-0.8,0.6v4.2c-0.1,0-0.3,0-0.6,0
		s-0.4,0-0.6,0v-5.9l0.1-0.1h0.4c0.4,0,0.6,0.3,0.6,0.8c0.6-0.5,1.2-0.8,1.9-0.8c0.5,0,0.9,0.2,1.2,0.5
		C128.3,32.5,128.4,33,128.4,33.5z"/>
	<path fill="#A9D42D" d="M131.6,32.7v4.9c-0.1,0-0.3,0-0.6,0c-0.2,0-0.4,0-0.6,0v-4.5c0-0.2,0-0.4-0.1-0.5s-0.2-0.1-0.4-0.1h-0.1
		c0-0.1,0-0.3,0-0.4c0-0.2,0-0.3,0-0.4c0.3,0,0.5,0,0.7,0h0.2c0.3,0,0.5,0.1,0.7,0.3C131.5,32.1,131.6,32.4,131.6,32.7z M130.1,30.1
		c0-0.2,0-0.4,0.1-0.5c0.2-0.1,0.4-0.1,0.7-0.1c0.3,0,0.5,0,0.6,0.1c0.1,0.1,0.1,0.3,0.1,0.5c0,0.2,0,0.4-0.1,0.5
		c-0.1,0.1-0.3,0.1-0.6,0.1c-0.3,0-0.5,0-0.6-0.1C130.1,30.4,130.1,30.3,130.1,30.1z"/>
	<path fill="#A9D42D" d="M136.6,33.9c0,0,0-0.1,0-0.1c0-0.9-0.4-1.4-1.1-1.4c-0.4,0-0.7,0.2-0.9,0.6c-0.2,0.4-0.3,0.9-0.3,1.7
		c0,1.4,0.5,2.1,1.4,2.1c0.4,0,0.9-0.2,1.5-0.6c0.1,0.1,0.2,0.2,0.3,0.3c0.1,0.1,0.2,0.3,0.2,0.4c-0.6,0.6-1.3,0.9-2.1,0.9
		s-1.4-0.3-1.8-0.9c-0.4-0.6-0.6-1.4-0.6-2.3s0.2-1.7,0.7-2.2c0.5-0.5,1.1-0.8,1.8-0.8c0.7,0,1.2,0.2,1.6,0.6s0.6,0.8,0.6,1.2
		s-0.2,0.7-0.6,0.7C136.9,34,136.8,34,136.6,33.9z"/>
	<path fill="#A9D42D" d="M143.7,37.1c-0.1,0.3-0.2,0.5-0.5,0.6c-0.4-0.1-0.7-0.3-0.9-0.8c-0.6,0.6-1.2,0.8-1.8,0.8
		c-0.6,0-1.1-0.2-1.4-0.5c-0.3-0.4-0.5-0.8-0.5-1.2c0-0.7,0.2-1.1,0.6-1.5s1-0.5,1.7-0.5c0.4,0,0.8,0,1.2,0.1v-0.5
		c0-0.7-0.3-1.1-1-1.1c-0.5,0-1.2,0.2-1.9,0.5c-0.2-0.2-0.3-0.5-0.3-0.9c0.8-0.4,1.7-0.6,2.5-0.6c0.6,0,1.1,0.2,1.4,0.5
		c0.3,0.3,0.5,0.8,0.5,1.5V36C143.3,36.6,143.5,36.9,143.7,37.1z M140.7,36.8c0.5,0,1-0.3,1.5-0.8v-1.2c-0.3,0-0.7-0.1-1.1-0.1
		c-0.4,0-0.7,0.1-0.9,0.3c-0.2,0.2-0.3,0.4-0.3,0.7c0,0.3,0.1,0.5,0.2,0.7C140.3,36.8,140.5,36.8,140.7,36.8z"/>
	<path fill="#A9D42D" d="M144.6,37.2c0-0.1,0-0.3,0.1-0.4s0.2-0.3,0.3-0.4c0.7,0.4,1.2,0.5,1.6,0.5c0.4,0,0.7-0.1,0.9-0.2
		c0.2-0.1,0.3-0.3,0.3-0.6c0-0.4-0.3-0.7-0.8-0.9l-0.7-0.3c-1-0.4-1.5-0.9-1.5-1.7c0-0.5,0.2-1,0.6-1.3c0.4-0.3,0.9-0.5,1.6-0.5
		s1.3,0.1,1.9,0.4c0,0.2,0,0.3-0.1,0.5s-0.2,0.3-0.3,0.4c-0.6-0.3-1.1-0.4-1.6-0.4c-0.3,0-0.5,0.1-0.7,0.2c-0.2,0.1-0.3,0.3-0.3,0.5
		c0,0.2,0.1,0.4,0.2,0.5s0.3,0.2,0.6,0.3l0.7,0.3c1,0.4,1.5,1,1.5,1.8c0,0.5-0.2,1-0.6,1.3c-0.4,0.3-1,0.5-1.7,0.5
		S145.3,37.6,144.6,37.2z"/>
	<path fill="#A9D42D" d="M157.5,35h-3.6c0,0.6,0.1,1,0.4,1.3c0.2,0.3,0.6,0.5,1.1,0.5s1.1-0.2,1.7-0.5c0.2,0.2,0.3,0.4,0.4,0.8
		c-0.6,0.4-1.4,0.7-2.3,0.7c-0.9,0-1.5-0.3-1.9-0.9s-0.6-1.3-0.6-2.3s0.2-1.7,0.6-2.3c0.4-0.6,1-0.9,1.8-0.9c0.8,0,1.4,0.2,1.8,0.7
		c0.4,0.5,0.6,1.1,0.6,1.8C157.5,34.4,157.5,34.7,157.5,35z M156.1,32.9c-0.2-0.3-0.5-0.5-0.9-0.5s-0.7,0.2-0.9,0.5
		c-0.2,0.3-0.3,0.7-0.4,1.3h2.5V34C156.4,33.5,156.3,33.2,156.1,32.9z"/>
	<path fill="#A9D42D" d="M164.9,33.9c0,0,0-0.1,0-0.1c0-0.9-0.4-1.4-1.1-1.4c-0.4,0-0.7,0.2-0.9,0.6c-0.2,0.4-0.3,0.9-0.3,1.7
		c0,1.4,0.5,2.1,1.4,2.1c0.4,0,0.9-0.2,1.5-0.6c0.1,0.1,0.2,0.2,0.3,0.3c0.1,0.1,0.2,0.3,0.2,0.4c-0.6,0.6-1.3,0.9-2.1,0.9
		s-1.4-0.3-1.8-0.9c-0.4-0.6-0.6-1.4-0.6-2.3s0.2-1.7,0.7-2.2c0.5-0.5,1.1-0.8,1.8-0.8c0.7,0,1.2,0.2,1.6,0.6s0.6,0.8,0.6,1.2
		s-0.2,0.7-0.6,0.7C165.2,34,165,34,164.9,33.9z"/>
	<path fill="#A9D42D" d="M171.3,32.2c0.6,0.6,0.8,1.4,0.8,2.5s-0.3,1.9-0.8,2.5c-0.4,0.4-1,0.7-1.7,0.7s-1.3-0.2-1.7-0.7
		c-0.6-0.6-0.8-1.4-0.8-2.5s0.3-1.9,0.8-2.5c0.4-0.4,1-0.7,1.7-0.7S170.8,31.8,171.3,32.2z M168.2,34.7c0,1.5,0.5,2.2,1.4,2.2
		s1.4-0.7,1.4-2.2c0-0.4,0-0.8-0.1-1.1c-0.1-0.3-0.2-0.6-0.4-0.8c-0.2-0.2-0.5-0.3-0.8-0.3s-0.6,0.1-0.8,0.3
		c-0.2,0.2-0.4,0.5-0.4,0.8C168.2,33.9,168.2,34.3,168.2,34.7z"/>
	<path fill="#A9D42D" d="M176.9,33.8c0-0.4-0.1-0.7-0.2-0.9c-0.1-0.2-0.3-0.3-0.6-0.3c-0.5,0-0.9,0.3-1.4,0.8v4.2
		c-0.1,0-0.3,0-0.6,0s-0.4,0-0.6,0v-5.9l0.1-0.1h0.4c0.4,0,0.6,0.3,0.6,0.8c0.5-0.5,1.1-0.8,1.7-0.8s1.1,0.3,1.3,0.9
		c0.6-0.6,1.3-0.9,1.9-0.9c0.5,0,0.9,0.2,1.1,0.5c0.3,0.4,0.4,0.8,0.4,1.3v2.9c0,0.5,0.1,0.8,0.2,1.1c-0.2,0.2-0.4,0.3-0.7,0.3
		c-0.4,0-0.6-0.2-0.6-0.7v-3.1c0-0.4-0.1-0.7-0.2-0.9c-0.1-0.2-0.3-0.3-0.6-0.3c-0.5,0-0.9,0.3-1.4,0.8v4.2c-0.1,0-0.3,0-0.6,0
		s-0.4,0-0.6,0V33.8z"/>
	<path fill="#A9D42D" d="M186,31.5c0.7,0,1.2,0.3,1.5,0.8c0.4,0.6,0.5,1.3,0.5,2.3s-0.2,1.7-0.7,2.3s-1,0.8-1.6,0.8
		c-0.5,0-1-0.1-1.4-0.4v2.1c0,0.3,0,0.5-0.1,0.6c-0.1,0.1-0.3,0.2-0.5,0.2h-0.4l-0.1-0.1v-8.4l0.1-0.1h0.4c0.4,0,0.6,0.2,0.7,0.6
		C184.8,31.8,185.3,31.5,186,31.5z M185.7,32.5c-0.6,0-1,0.3-1.4,0.8v3c0.4,0.3,0.9,0.5,1.2,0.5s0.7-0.2,0.9-0.6
		c0.2-0.4,0.4-0.9,0.4-1.6s-0.1-1.2-0.3-1.6S186.1,32.5,185.7,32.5z"/>
	<path fill="#A9D42D" d="M193.4,32.2c0.6,0.6,0.8,1.4,0.8,2.5s-0.3,1.9-0.8,2.5c-0.4,0.4-1,0.7-1.7,0.7s-1.3-0.2-1.7-0.7
		c-0.6-0.6-0.8-1.4-0.8-2.5s0.3-1.9,0.8-2.5c0.4-0.4,1-0.7,1.7-0.7S193,31.8,193.4,32.2z M190.3,34.7c0,1.5,0.5,2.2,1.4,2.2
		s1.4-0.7,1.4-2.2c0-0.4,0-0.8-0.1-1.1c-0.1-0.3-0.2-0.6-0.4-0.8c-0.2-0.2-0.5-0.3-0.8-0.3s-0.6,0.1-0.8,0.3
		c-0.2,0.2-0.4,0.5-0.4,0.8C190.4,33.9,190.3,34.3,190.3,34.7z"/>
	<path fill="#A9D42D" d="M195.5,32.2c0.1-0.3,0.2-0.5,0.4-0.6c0.5,0.1,0.9,0.5,1,1.1c0.3-0.7,0.9-1.1,1.6-1.1c0.2,0,0.4,0,0.6,0.1
		c0,0.4-0.1,0.8-0.3,1.1c0,0-0.2,0-0.5,0c-0.6,0-1,0.3-1.3,0.9v3.9c-0.1,0-0.3,0-0.6,0s-0.4,0-0.6,0v-4.2
		C195.9,32.9,195.7,32.5,195.5,32.2z"/>
	<path fill="#A9D42D" d="M203.2,31.7c0,0.1,0,0.3,0,0.4s0,0.3,0,0.4l-1.5,0v3.7c0,0.3,0.2,0.5,0.5,0.5h0.8c0.1,0.2,0.1,0.3,0.1,0.5
		s0,0.3,0,0.3c-0.5,0.1-0.9,0.1-1.3,0.1c-0.8,0-1.2-0.4-1.2-1.2v-3.9l-0.9,0c0-0.1,0-0.3,0-0.4s0-0.3,0-0.4l0.9,0v-1.1
		c0-0.3,0-0.5,0.1-0.6c0.1-0.1,0.3-0.2,0.5-0.2h0.4l0.1,0.1v1.8L203.2,31.7z"/>
	<path fill="#A9D42D" d="M209.1,37.1c-0.1,0.3-0.2,0.5-0.5,0.6c-0.4-0.1-0.7-0.3-0.9-0.8c-0.6,0.6-1.2,0.8-1.8,0.8
		c-0.6,0-1.1-0.2-1.4-0.5c-0.3-0.4-0.5-0.8-0.5-1.2c0-0.7,0.2-1.1,0.6-1.5s1-0.5,1.7-0.5c0.4,0,0.8,0,1.2,0.1v-0.5
		c0-0.7-0.3-1.1-1-1.1c-0.5,0-1.2,0.2-1.9,0.5c-0.2-0.2-0.3-0.5-0.3-0.9c0.8-0.4,1.7-0.6,2.5-0.6c0.6,0,1.1,0.2,1.4,0.5
		c0.3,0.3,0.5,0.8,0.5,1.5V36C208.8,36.6,208.9,36.9,209.1,37.1z M206.1,36.8c0.5,0,1-0.3,1.5-0.8v-1.2c-0.3,0-0.7-0.1-1.1-0.1
		c-0.4,0-0.7,0.1-0.9,0.3c-0.2,0.2-0.3,0.4-0.3,0.7c0,0.3,0.1,0.5,0.2,0.7C205.7,36.8,205.9,36.8,206.1,36.8z"/>
	<path fill="#A9D42D" d="M213.9,33.8c0-0.4-0.1-0.7-0.2-0.9c-0.1-0.2-0.3-0.3-0.6-0.3c-0.5,0-0.9,0.3-1.4,0.8v4.2
		c-0.1,0-0.3,0-0.6,0s-0.4,0-0.6,0v-5.9l0.1-0.1h0.4c0.4,0,0.6,0.3,0.6,0.8c0.5-0.5,1.1-0.8,1.7-0.8s1.1,0.3,1.3,0.9
		c0.6-0.6,1.3-0.9,1.9-0.9c0.5,0,0.9,0.2,1.1,0.5c0.3,0.4,0.4,0.8,0.4,1.3v2.9c0,0.5,0.1,0.8,0.2,1.1c-0.2,0.2-0.4,0.3-0.7,0.3
		c-0.4,0-0.6-0.2-0.6-0.7v-3.1c0-0.4-0.1-0.7-0.2-0.9c-0.1-0.2-0.3-0.3-0.6-0.3c-0.5,0-0.9,0.3-1.4,0.8v4.2c-0.1,0-0.3,0-0.6,0
		s-0.4,0-0.6,0V33.8z"/>
	<path fill="#A9D42D" d="M224.5,35H221c0,0.6,0.1,1,0.4,1.3c0.2,0.3,0.6,0.5,1.1,0.5s1.1-0.2,1.7-0.5c0.2,0.2,0.3,0.4,0.4,0.8
		c-0.6,0.4-1.4,0.7-2.3,0.7c-0.9,0-1.5-0.3-1.9-0.9s-0.6-1.3-0.6-2.3s0.2-1.7,0.6-2.3c0.4-0.6,1-0.9,1.8-0.9c0.8,0,1.4,0.2,1.8,0.7
		c0.4,0.5,0.6,1.1,0.6,1.8C224.6,34.4,224.6,34.7,224.5,35z M223.2,32.9c-0.2-0.3-0.5-0.5-0.9-0.5s-0.7,0.2-0.9,0.5
		c-0.2,0.3-0.3,0.7-0.4,1.3h2.5V34C223.5,33.5,223.4,33.2,223.2,32.9z"/>
	<path fill="#A9D42D" d="M230.9,33.5v2.8c0,0.5,0.1,0.8,0.2,1.1c-0.2,0.2-0.4,0.3-0.7,0.3c-0.4,0-0.6-0.2-0.6-0.7v-3.1
		c0-0.4-0.1-0.7-0.2-0.9c-0.1-0.2-0.3-0.3-0.6-0.3c-0.3,0-0.6,0.1-0.9,0.2c-0.3,0.1-0.5,0.3-0.8,0.6v4.2c-0.1,0-0.3,0-0.6,0
		s-0.4,0-0.6,0v-5.9l0.1-0.1h0.4c0.4,0,0.6,0.3,0.6,0.8c0.6-0.5,1.2-0.8,1.9-0.8c0.5,0,0.9,0.2,1.2,0.5
		C230.7,32.5,230.9,33,230.9,33.5z"/>
	<path fill="#A9D42D" d="M235.6,31.7c0,0.1,0,0.3,0,0.4s0,0.3,0,0.4l-1.5,0v3.7c0,0.3,0.2,0.5,0.5,0.5h0.8c0.1,0.2,0.1,0.3,0.1,0.5
		s0,0.3,0,0.3c-0.5,0.1-0.9,0.1-1.3,0.1c-0.8,0-1.2-0.4-1.2-1.2v-3.9l-0.9,0c0-0.1,0-0.3,0-0.4s0-0.3,0-0.4l0.9,0v-1.1
		c0-0.3,0-0.5,0.1-0.6c0.1-0.1,0.3-0.2,0.5-0.2h0.4l0.1,0.1v1.8L235.6,31.7z"/>
	<path fill="#A9D42D" d="M241.5,37.1c-0.1,0.3-0.2,0.5-0.5,0.6c-0.4-0.1-0.7-0.3-0.9-0.8c-0.6,0.6-1.2,0.8-1.8,0.8
		c-0.6,0-1.1-0.2-1.4-0.5c-0.3-0.4-0.5-0.8-0.5-1.2c0-0.7,0.2-1.1,0.6-1.5s1-0.5,1.7-0.5c0.4,0,0.8,0,1.2,0.1v-0.5
		c0-0.7-0.3-1.1-1-1.1c-0.5,0-1.2,0.2-1.9,0.5c-0.2-0.2-0.3-0.5-0.3-0.9c0.8-0.4,1.7-0.6,2.5-0.6c0.6,0,1.1,0.2,1.4,0.5
		c0.3,0.3,0.5,0.8,0.5,1.5V36C241.1,36.6,241.2,36.9,241.5,37.1z M238.5,36.8c0.5,0,1-0.3,1.5-0.8v-1.2c-0.3,0-0.7-0.1-1.1-0.1
		c-0.4,0-0.7,0.1-0.9,0.3c-0.2,0.2-0.3,0.4-0.3,0.7c0,0.3,0.1,0.5,0.2,0.7C238,36.8,238.2,36.8,238.5,36.8z"/>
	<path fill="#A9D42D" d="M244.3,32.7v4.9c-0.1,0-0.3,0-0.6,0c-0.2,0-0.4,0-0.6,0v-4.5c0-0.2,0-0.4-0.1-0.5s-0.2-0.1-0.4-0.1h-0.1
		c0-0.1,0-0.3,0-0.4c0-0.2,0-0.3,0-0.4c0.3,0,0.5,0,0.7,0h0.2c0.3,0,0.5,0.1,0.7,0.3C244.2,32.1,244.3,32.4,244.3,32.7z M242.8,30.1
		c0-0.2,0-0.4,0.1-0.5c0.2-0.1,0.4-0.1,0.7-0.1c0.3,0,0.5,0,0.6,0.1c0.1,0.1,0.1,0.3,0.1,0.5c0,0.2,0,0.4-0.1,0.5
		c-0.1,0.1-0.3,0.1-0.6,0.1c-0.3,0-0.5,0-0.6-0.1C242.8,30.4,242.8,30.3,242.8,30.1z"/>
	<path fill="#A9D42D" d="M245.6,37.2c0-0.1,0-0.3,0.1-0.4s0.2-0.3,0.3-0.4c0.7,0.4,1.2,0.5,1.6,0.5c0.4,0,0.7-0.1,0.9-0.2
		c0.2-0.1,0.3-0.3,0.3-0.6c0-0.4-0.3-0.7-0.8-0.9l-0.7-0.3c-1-0.4-1.5-0.9-1.5-1.7c0-0.5,0.2-1,0.6-1.3c0.4-0.3,0.9-0.5,1.6-0.5
		s1.3,0.1,1.9,0.4c0,0.2,0,0.3-0.1,0.5s-0.2,0.3-0.3,0.4c-0.6-0.3-1.1-0.4-1.6-0.4c-0.3,0-0.5,0.1-0.7,0.2c-0.2,0.1-0.3,0.3-0.3,0.5
		c0,0.2,0.1,0.4,0.2,0.5s0.3,0.2,0.6,0.3l0.7,0.3c1,0.4,1.5,1,1.5,1.8c0,0.5-0.2,1-0.6,1.3c-0.4,0.3-1,0.5-1.7,0.5
		S246.3,37.6,245.6,37.2z"/>
	<path fill="#FFFFFF" d="M251.2,39.5c-0.2-0.1-0.3-0.3-0.3-0.5c0,0,0-0.1,0-0.1c0.3-0.1,0.5-0.3,0.7-0.5c0.2-0.2,0.3-0.4,0.3-0.7
		c-0.2-0.1-0.4-0.1-0.5-0.2c-0.1-0.1-0.1-0.3-0.1-0.6c0-0.3,0-0.5,0.1-0.6c0.2-0.1,0.4-0.2,0.7-0.2s0.5,0.1,0.7,0.2
		c0.1,0.2,0.1,0.4,0.1,0.8c0,0.5-0.1,1-0.4,1.4S251.8,39.3,251.2,39.5z"/>
	<path fill="#FFFFFF" d="M2.5,52v-5.1l-1,0c0-0.2,0-0.3,0-0.4c0-0.1,0-0.3,0-0.4l1,0c-0.1-0.4-0.1-0.8-0.1-1.1c0-0.5,0.2-1,0.5-1.3
		c0.3-0.3,0.8-0.5,1.3-0.5c0.6,0,1.1,0.1,1.5,0.3c0,0.3-0.1,0.6-0.3,0.8C5,44.1,4.6,44,4.4,44s-0.5,0.1-0.7,0.3
		c-0.2,0.2-0.2,0.4-0.2,0.7c0,0.3,0,0.7,0.1,1.1l1.7,0c0,0.2,0,0.3,0,0.4c0,0.1,0,0.2,0,0.4l-1.6,0V52c-0.2,0-0.3,0-0.6,0
		S2.6,52.1,2.5,52z"/>
	<path fill="#FFFFFF" d="M10.1,46.6c0.6,0.6,0.8,1.4,0.8,2.5s-0.3,1.9-0.8,2.5c-0.4,0.4-1,0.7-1.7,0.7S7,52,6.6,51.5
		c-0.6-0.6-0.8-1.4-0.8-2.5s0.3-1.9,0.8-2.5c0.4-0.4,1-0.7,1.7-0.7S9.6,46.2,10.1,46.6z M7,49.1c0,1.5,0.5,2.2,1.4,2.2
		s1.4-0.7,1.4-2.2c0-0.4,0-0.8-0.1-1.1c-0.1-0.3-0.2-0.6-0.4-0.8c-0.2-0.2-0.5-0.3-0.8-0.3s-0.6,0.1-0.8,0.3
		c-0.2,0.2-0.4,0.5-0.4,0.8C7,48.3,7,48.7,7,49.1z"/>
	<path fill="#FFFFFF" d="M12.1,46.6c0.1-0.3,0.2-0.5,0.4-0.6c0.5,0.1,0.9,0.5,1,1.1c0.3-0.7,0.9-1.1,1.6-1.1c0.2,0,0.4,0,0.6,0.1
		c0,0.4-0.1,0.8-0.3,1.1c0,0-0.2,0-0.5,0c-0.6,0-1,0.3-1.3,0.9V52c-0.1,0-0.3,0-0.6,0s-0.4,0-0.6,0v-4.2
		C12.5,47.3,12.4,46.9,12.1,46.6z"/>
	<path fill="#FFFFFF" d="M19.9,46.1c0,0.1,0,0.3,0,0.4s0,0.3,0,0.4l-1.5,0v3.7c0,0.3,0.2,0.5,0.5,0.5h0.8c0.1,0.2,0.1,0.3,0.1,0.5
		s0,0.3,0,0.3c-0.5,0.1-0.9,0.1-1.3,0.1c-0.8,0-1.2-0.4-1.2-1.2v-3.9l-0.9,0c0-0.1,0-0.3,0-0.4s0-0.3,0-0.4l0.9,0V45
		c0-0.3,0-0.5,0.1-0.6c0.1-0.1,0.3-0.2,0.5-0.2h0.4l0.1,0.1v1.8L19.9,46.1z"/>
	<path fill="#FFFFFF" d="M25.7,51.5c-0.1,0.3-0.2,0.5-0.5,0.6c-0.4-0.1-0.7-0.3-0.9-0.8c-0.6,0.6-1.2,0.8-1.8,0.8
		c-0.6,0-1.1-0.2-1.4-0.5c-0.3-0.4-0.5-0.8-0.5-1.2c0-0.7,0.2-1.1,0.6-1.5s1-0.5,1.7-0.5c0.4,0,0.8,0,1.2,0.1V48
		c0-0.7-0.3-1.1-1-1.1c-0.5,0-1.2,0.2-1.9,0.5c-0.2-0.2-0.3-0.5-0.3-0.9c0.8-0.4,1.7-0.6,2.5-0.6c0.6,0,1.1,0.2,1.4,0.5
		c0.3,0.3,0.5,0.8,0.5,1.5v2.5C25.4,51,25.5,51.3,25.7,51.5z M22.8,51.2c0.5,0,1-0.3,1.5-0.8v-1.2c-0.3,0-0.7-0.1-1.1-0.1
		c-0.4,0-0.7,0.1-0.9,0.3c-0.2,0.2-0.3,0.4-0.3,0.7c0,0.3,0.1,0.5,0.2,0.7C22.3,51.2,22.5,51.2,22.8,51.2z"/>
	<path fill="#FFFFFF" d="M28.9,51.1h0.5c0.1,0.2,0.1,0.3,0.1,0.5c0,0.1,0,0.3,0,0.4c-0.3,0.1-0.7,0.1-1,0.1c-0.8,0-1.1-0.4-1.1-1.2
		v-7.6l0.1-0.1h0.4c0.2,0,0.4,0.1,0.5,0.2c0.1,0.1,0.1,0.3,0.1,0.6v6.7C28.4,51,28.5,51.1,28.9,51.1z"/>
	<path fill="#FFFFFF" d="M35.1,49.4h-3.6c0,0.6,0.1,1,0.4,1.3c0.2,0.3,0.6,0.5,1.1,0.5s1.1-0.2,1.7-0.5c0.2,0.2,0.3,0.4,0.4,0.8
		c-0.6,0.4-1.4,0.7-2.3,0.7c-0.9,0-1.5-0.3-1.9-0.9s-0.6-1.3-0.6-2.3s0.2-1.7,0.6-2.3c0.4-0.6,1-0.9,1.8-0.9c0.8,0,1.4,0.2,1.8,0.7
		c0.4,0.5,0.6,1.1,0.6,1.8C35.2,48.8,35.2,49.1,35.1,49.4z M33.8,47.3c-0.2-0.3-0.5-0.5-0.9-0.5s-0.7,0.2-0.9,0.5
		c-0.2,0.3-0.3,0.7-0.4,1.3h2.5v-0.2C34.1,47.9,34,47.6,33.8,47.3z"/>
	<path fill="#FFFFFF" d="M39.9,48.3c0,0,0-0.1,0-0.1c0-0.9-0.4-1.4-1.1-1.4c-0.4,0-0.7,0.2-0.9,0.6c-0.2,0.4-0.3,0.9-0.3,1.7
		c0,1.4,0.5,2.1,1.4,2.1c0.4,0,0.9-0.2,1.5-0.6c0.1,0.1,0.2,0.2,0.3,0.3c0.1,0.1,0.2,0.3,0.2,0.4c-0.6,0.6-1.3,0.9-2.1,0.9
		s-1.4-0.3-1.8-0.9c-0.4-0.6-0.6-1.4-0.6-2.3s0.2-1.7,0.7-2.2c0.5-0.5,1.1-0.8,1.8-0.8c0.7,0,1.2,0.2,1.6,0.6s0.6,0.8,0.6,1.2
		s-0.2,0.7-0.6,0.7C40.2,48.4,40.1,48.4,39.9,48.3z"/>
	<path fill="#FFFFFF" d="M46.8,49.4h-3.6c0,0.6,0.1,1,0.4,1.3c0.2,0.3,0.6,0.5,1.1,0.5s1.1-0.2,1.7-0.5c0.2,0.2,0.3,0.4,0.4,0.8
		c-0.6,0.4-1.4,0.7-2.3,0.7c-0.9,0-1.5-0.3-1.9-0.9S42,50,42,49.1s0.2-1.7,0.6-2.3c0.4-0.6,1-0.9,1.8-0.9c0.8,0,1.4,0.2,1.8,0.7
		c0.4,0.5,0.6,1.1,0.6,1.8C46.9,48.8,46.8,49.1,46.8,49.4z M45.4,47.3c-0.2-0.3-0.5-0.5-0.9-0.5s-0.7,0.2-0.9,0.5
		c-0.2,0.3-0.3,0.7-0.4,1.3h2.5v-0.2C45.7,47.9,45.6,47.6,45.4,47.3z"/>
	<path fill="#FFFFFF" d="M53.1,47.9v2.8c0,0.5,0.1,0.8,0.2,1.1c-0.2,0.2-0.4,0.3-0.7,0.3c-0.4,0-0.6-0.2-0.6-0.7v-3.1
		c0-0.4-0.1-0.7-0.2-0.9c-0.1-0.2-0.3-0.3-0.6-0.3c-0.3,0-0.6,0.1-0.9,0.2c-0.3,0.1-0.5,0.3-0.8,0.6V52c-0.1,0-0.3,0-0.6,0
		s-0.4,0-0.6,0v-5.9l0.1-0.1H49c0.4,0,0.6,0.3,0.6,0.8c0.6-0.5,1.2-0.8,1.9-0.8c0.5,0,0.9,0.2,1.2,0.5C53,46.9,53.1,47.4,53.1,47.9z
		"/>
	<path fill="#FFFFFF" d="M56.7,52.2c-0.7,0-1.2-0.3-1.5-0.8c-0.4-0.6-0.5-1.3-0.5-2.3c0-1,0.2-1.7,0.7-2.3c0.5-0.5,1-0.8,1.6-0.8
		c0.4,0,0.9,0.1,1.4,0.4v-3.1l0.1-0.1h0.4c0.2,0,0.4,0.1,0.5,0.2c0.1,0.1,0.1,0.3,0.1,0.6v6.4c0,0.6,0.1,1,0.3,1.2
		c-0.1,0.3-0.2,0.5-0.5,0.6c-0.4-0.1-0.7-0.3-0.9-0.8C57.9,51.9,57.3,52.2,56.7,52.2z M56.9,51.2c0.5,0,1-0.3,1.4-0.8v-3
		c-0.4-0.3-0.9-0.5-1.2-0.5s-0.7,0.2-0.9,0.6c-0.2,0.4-0.4,0.9-0.4,1.6c0,0.7,0.1,1.2,0.3,1.6S56.6,51.2,56.9,51.2z"/>
	<path fill="#FFFFFF" d="M65.2,46.6c0.6,0.6,0.8,1.4,0.8,2.5s-0.3,1.9-0.8,2.5c-0.4,0.4-1,0.7-1.7,0.7s-1.3-0.2-1.7-0.7
		c-0.6-0.6-0.8-1.4-0.8-2.5s0.3-1.9,0.8-2.5c0.4-0.4,1-0.7,1.7-0.7S64.8,46.2,65.2,46.6z M62.1,49.1c0,1.5,0.5,2.2,1.4,2.2
		s1.4-0.7,1.4-2.2c0-0.4,0-0.8-0.1-1.1c-0.1-0.3-0.2-0.6-0.4-0.8c-0.2-0.2-0.5-0.3-0.8-0.3s-0.6,0.1-0.8,0.3
		c-0.2,0.2-0.4,0.5-0.4,0.8C62.2,48.3,62.1,48.7,62.1,49.1z"/>
	<path fill="#FFFFFF" d="M69.6,51.6c0-0.1,0-0.3,0.1-0.4s0.2-0.3,0.3-0.4c0.7,0.4,1.2,0.5,1.6,0.5c0.4,0,0.7-0.1,0.9-0.2
		c0.2-0.1,0.3-0.3,0.3-0.6c0-0.4-0.3-0.7-0.8-0.9l-0.7-0.3c-1-0.4-1.5-0.9-1.5-1.7c0-0.5,0.2-1,0.6-1.3c0.4-0.3,0.9-0.5,1.6-0.5
		s1.3,0.1,1.9,0.4c0,0.2,0,0.3-0.1,0.5s-0.2,0.3-0.3,0.4c-0.6-0.3-1.1-0.4-1.6-0.4c-0.3,0-0.5,0.1-0.7,0.2c-0.2,0.1-0.3,0.3-0.3,0.5
		c0,0.2,0.1,0.4,0.2,0.5s0.3,0.2,0.6,0.3l0.7,0.3c1,0.4,1.5,1,1.5,1.8c0,0.5-0.2,1-0.6,1.3c-0.4,0.3-1,0.5-1.7,0.5
		S70.3,52,69.6,51.6z"/>
	<path fill="#FFFFFF" d="M75.4,50.2v-2.8c0-0.5-0.1-0.8-0.2-1.1c0.2-0.2,0.4-0.2,0.7-0.2c0.3,0,0.4,0.1,0.5,0.2
		c0.1,0.1,0.1,0.3,0.1,0.6v3.1c0,0.4,0.1,0.7,0.2,0.9c0.1,0.2,0.3,0.3,0.6,0.3c0.3,0,0.6-0.1,0.8-0.2c0.3-0.1,0.5-0.3,0.8-0.6v-4.2
		c0.2,0,0.4,0,0.6,0s0.4,0,0.6,0v4.2c0,0.6,0.1,1,0.3,1.2c-0.1,0.3-0.2,0.5-0.4,0.6c-0.5-0.1-0.8-0.4-0.9-0.9
		c-0.6,0.6-1.3,0.9-2,0.9c-0.5,0-0.9-0.2-1.2-0.5C75.5,51.2,75.4,50.8,75.4,50.2z"/>
	<path fill="#FFFFFF" d="M86.6,51.5c-0.1,0.3-0.2,0.5-0.5,0.6c-0.4-0.1-0.7-0.3-0.9-0.8c-0.6,0.6-1.2,0.8-1.8,0.8
		c-0.6,0-1.1-0.2-1.4-0.5c-0.3-0.4-0.5-0.8-0.5-1.2c0-0.7,0.2-1.1,0.6-1.5s1-0.5,1.7-0.5c0.4,0,0.8,0,1.2,0.1V48
		c0-0.7-0.3-1.1-1-1.1c-0.5,0-1.2,0.2-1.9,0.5c-0.2-0.2-0.3-0.5-0.3-0.9c0.8-0.4,1.7-0.6,2.5-0.6c0.6,0,1.1,0.2,1.4,0.5
		c0.3,0.3,0.5,0.8,0.5,1.5v2.5C86.2,51,86.3,51.3,86.6,51.5z M83.6,51.2c0.5,0,1-0.3,1.5-0.8v-1.2c-0.3,0-0.7-0.1-1.1-0.1
		c-0.4,0-0.7,0.1-0.9,0.3c-0.2,0.2-0.3,0.4-0.3,0.7c0,0.3,0.1,0.5,0.2,0.7C83.1,51.2,83.3,51.2,83.6,51.2z"/>
	<path fill="#FFFFFF" d="M87.5,51.6c0-0.1,0-0.3,0.1-0.4s0.2-0.3,0.3-0.4c0.7,0.4,1.2,0.5,1.6,0.5c0.4,0,0.7-0.1,0.9-0.2
		c0.2-0.1,0.3-0.3,0.3-0.6c0-0.4-0.3-0.7-0.8-0.9l-0.7-0.3c-1-0.4-1.5-0.9-1.5-1.7c0-0.5,0.2-1,0.6-1.3c0.4-0.3,0.9-0.5,1.6-0.5
		s1.3,0.1,1.9,0.4c0,0.2,0,0.3-0.1,0.5s-0.2,0.3-0.3,0.4c-0.6-0.3-1.1-0.4-1.6-0.4c-0.3,0-0.5,0.1-0.7,0.2c-0.2,0.1-0.3,0.3-0.3,0.5
		c0,0.2,0.1,0.4,0.2,0.5s0.3,0.2,0.6,0.3l0.7,0.3c1,0.4,1.5,1,1.5,1.8c0,0.5-0.2,1-0.6,1.3c-0.4,0.3-1,0.5-1.7,0.5
		S88.2,52,87.5,51.6z"/>
	<path fill="#FFFFFF" d="M100.5,51.5c-0.1,0.3-0.2,0.5-0.5,0.6c-0.4-0.1-0.7-0.3-0.9-0.8c-0.6,0.6-1.2,0.8-1.8,0.8
		c-0.6,0-1.1-0.2-1.4-0.5c-0.3-0.4-0.5-0.8-0.5-1.2c0-0.7,0.2-1.1,0.6-1.5s1-0.5,1.7-0.5c0.4,0,0.8,0,1.2,0.1V48
		c0-0.7-0.3-1.1-1-1.1c-0.5,0-1.2,0.2-1.9,0.5c-0.2-0.2-0.3-0.5-0.3-0.9c0.8-0.4,1.7-0.6,2.5-0.6c0.6,0,1.1,0.2,1.4,0.5
		c0.3,0.3,0.5,0.8,0.5,1.5v2.5C100.2,51,100.3,51.3,100.5,51.5z M97.6,51.2c0.5,0,1-0.3,1.5-0.8v-1.2c-0.3,0-0.7-0.1-1.1-0.1
		c-0.4,0-0.7,0.1-0.9,0.3c-0.2,0.2-0.3,0.4-0.3,0.7c0,0.3,0.1,0.5,0.2,0.7C97.1,51.2,97.3,51.2,97.6,51.2z"/>
	<path fill="#FFFFFF" d="M103.4,52.9c0-0.2,0.1-0.5,0.3-0.8c-0.7-0.1-1.2-0.4-1.5-1c-0.3-0.6-0.5-1.3-0.5-2.1c0-1,0.2-1.8,0.7-2.4
		c0.5-0.5,1.1-0.8,1.8-0.8c0.7,0,1.2,0.2,1.6,0.6s0.6,0.8,0.6,1.2s-0.2,0.7-0.6,0.7c-0.2,0-0.3,0-0.5,0c0,0,0-0.1,0-0.1
		c0-0.9-0.4-1.4-1.1-1.4c-0.4,0-0.7,0.2-0.9,0.6c-0.2,0.4-0.3,0.9-0.3,1.7c0,1.4,0.5,2.1,1.4,2.1c0.4,0,0.9-0.2,1.5-0.6
		c0.1,0.1,0.2,0.2,0.3,0.3c0.1,0.1,0.2,0.3,0.2,0.4c-0.5,0.5-1.1,0.8-1.8,0.9c-0.1,0.1-0.1,0.2-0.1,0.3c0.3,0,0.6,0.1,0.8,0.3
		c0.2,0.2,0.3,0.4,0.3,0.8c0,0.3-0.1,0.6-0.4,0.8c-0.3,0.2-0.6,0.3-1,0.3c-0.4,0-0.7-0.1-1-0.2c0-0.2,0.1-0.4,0.2-0.6
		c0.2,0.1,0.4,0.2,0.6,0.2s0.3,0,0.4-0.1c0.1-0.1,0.1-0.2,0.1-0.3s0-0.3-0.1-0.3c-0.1-0.1-0.2-0.1-0.3-0.1c-0.1,0-0.2,0-0.3,0.1
		C103.5,53.1,103.5,53,103.4,52.9z"/>
	<path fill="#FFFFFF" d="M111.6,46.6c0.6,0.6,0.8,1.4,0.8,2.5s-0.3,1.9-0.8,2.5c-0.4,0.4-1,0.7-1.7,0.7s-1.3-0.2-1.7-0.7
		c-0.6-0.6-0.8-1.4-0.8-2.5s0.3-1.9,0.8-2.5c0.4-0.4,1-0.7,1.7-0.7S111.2,46.2,111.6,46.6z M110,45.2l-0.7-0.3
		c-0.2-0.1-0.3-0.1-0.4-0.1s-0.3,0.1-0.4,0.3l-0.1,0.2c-0.1,0-0.2,0-0.3-0.1s-0.2-0.2-0.2-0.3l0.1-0.2c0.1-0.3,0.3-0.5,0.5-0.6
		c0.2-0.2,0.4-0.2,0.6-0.2s0.5,0.1,0.7,0.2l0.7,0.3c0.1,0.1,0.3,0.1,0.4,0.1c0.1,0,0.3-0.1,0.5-0.3l0.1-0.2c0.1,0,0.2,0,0.3,0.1
		c0.1,0.1,0.2,0.2,0.2,0.3l-0.1,0.2c-0.1,0.3-0.3,0.5-0.5,0.6c-0.2,0.2-0.4,0.2-0.6,0.2C110.5,45.3,110.3,45.3,110,45.2z
		 M108.5,49.1c0,1.5,0.5,2.2,1.4,2.2s1.4-0.7,1.4-2.2c0-0.4,0-0.8-0.1-1.1c-0.1-0.3-0.2-0.6-0.4-0.8c-0.2-0.2-0.5-0.3-0.8-0.3
		s-0.6,0.1-0.8,0.3c-0.2,0.2-0.4,0.5-0.4,0.8C108.5,48.3,108.5,48.7,108.5,49.1z"/>
	<path fill="#FFFFFF" d="M118.3,49.4h-3.6c0,0.6,0.1,1,0.4,1.3c0.2,0.3,0.6,0.5,1.1,0.5s1.1-0.2,1.7-0.5c0.2,0.2,0.3,0.4,0.4,0.8
		c-0.6,0.4-1.4,0.7-2.3,0.7c-0.9,0-1.5-0.3-1.9-0.9s-0.6-1.3-0.6-2.3s0.2-1.7,0.6-2.3c0.4-0.6,1-0.9,1.8-0.9c0.8,0,1.4,0.2,1.8,0.7
		c0.4,0.5,0.6,1.1,0.6,1.8C118.4,48.8,118.4,49.1,118.3,49.4z M117,47.3c-0.2-0.3-0.5-0.5-0.9-0.5s-0.7,0.2-0.9,0.5
		c-0.2,0.3-0.3,0.7-0.4,1.3h2.5v-0.2C117.3,47.9,117.2,47.6,117,47.3z"/>
	<path fill="#FFFFFF" d="M119.4,51.6c0-0.1,0-0.3,0.1-0.4s0.2-0.3,0.3-0.4c0.7,0.4,1.2,0.5,1.6,0.5c0.4,0,0.7-0.1,0.9-0.2
		c0.2-0.1,0.3-0.3,0.3-0.6c0-0.4-0.3-0.7-0.8-0.9l-0.7-0.3c-1-0.4-1.5-0.9-1.5-1.7c0-0.5,0.2-1,0.6-1.3c0.4-0.3,0.9-0.5,1.6-0.5
		s1.3,0.1,1.9,0.4c0,0.2,0,0.3-0.1,0.5s-0.2,0.3-0.3,0.4c-0.6-0.3-1.1-0.4-1.6-0.4c-0.3,0-0.5,0.1-0.7,0.2c-0.2,0.1-0.3,0.3-0.3,0.5
		c0,0.2,0.1,0.4,0.2,0.5s0.3,0.2,0.6,0.3l0.7,0.3c1,0.4,1.5,1,1.5,1.8c0,0.5-0.2,1-0.6,1.3c-0.4,0.3-1,0.5-1.7,0.5
		S120,52,119.4,51.6z"/>
	<path fill="#FFFFFF" d="M125,53.9c-0.2-0.1-0.3-0.3-0.3-0.5c0,0,0-0.1,0-0.1c0.3-0.1,0.5-0.3,0.7-0.5c0.2-0.2,0.3-0.4,0.3-0.7
		c-0.2-0.1-0.4-0.1-0.5-0.2c-0.1-0.1-0.1-0.3-0.1-0.6c0-0.3,0-0.5,0.1-0.6c0.2-0.1,0.4-0.2,0.7-0.2s0.5,0.1,0.7,0.2
		c0.1,0.2,0.1,0.4,0.1,0.8c0,0.5-0.1,1-0.4,1.4S125.5,53.7,125,53.9z"/>
	<path fill="#FFFFFF" d="M135.7,47.9v2.8c0,0.5,0.1,0.8,0.2,1.1c-0.2,0.2-0.4,0.3-0.7,0.3c-0.4,0-0.6-0.2-0.6-0.7v-3.1
		c0-0.4-0.1-0.7-0.2-0.9c-0.1-0.2-0.3-0.3-0.6-0.3c-0.3,0-0.6,0.1-0.9,0.2c-0.3,0.1-0.5,0.3-0.8,0.6V52c-0.1,0-0.3,0-0.6,0
		s-0.4,0-0.6,0v-5.9l0.1-0.1h0.4c0.4,0,0.6,0.3,0.6,0.8c0.6-0.5,1.2-0.8,1.9-0.8c0.5,0,0.9,0.2,1.2,0.5
		C135.6,46.9,135.7,47.4,135.7,47.9z"/>
	<path fill="#FFFFFF" d="M142.1,51.5c-0.1,0.3-0.2,0.5-0.5,0.6c-0.4-0.1-0.7-0.3-0.9-0.8c-0.6,0.6-1.2,0.8-1.8,0.8
		c-0.6,0-1.1-0.2-1.4-0.5c-0.3-0.4-0.5-0.8-0.5-1.2c0-0.7,0.2-1.1,0.6-1.5s1-0.5,1.7-0.5c0.4,0,0.8,0,1.2,0.1V48
		c0-0.7-0.3-1.1-1-1.1c-0.5,0-1.2,0.2-1.9,0.5c-0.2-0.2-0.3-0.5-0.3-0.9c0.8-0.4,1.7-0.6,2.5-0.6c0.6,0,1.1,0.2,1.4,0.5
		c0.3,0.3,0.5,0.8,0.5,1.5v2.5C141.8,51,141.9,51.3,142.1,51.5z M139.2,51.2c0.5,0,1-0.3,1.5-0.8v-1.2c-0.3,0-0.7-0.1-1.1-0.1
		c-0.4,0-0.7,0.1-0.9,0.3c-0.2,0.2-0.3,0.4-0.3,0.7c0,0.3,0.1,0.5,0.2,0.7C138.7,51.2,138.9,51.2,139.2,51.2z"/>
	<path fill="#FFFFFF" d="M149.5,47.7h1.8c0.3,0,0.5,0.1,0.7,0.2c0.1,0.1,0.2,0.3,0.2,0.6v3.1c-0.9,0.3-1.9,0.5-2.9,0.5
		c-0.6,0-1.1-0.1-1.6-0.3c-0.4-0.2-0.8-0.5-1-0.9c-0.5-0.8-0.8-1.8-0.8-2.9c0-0.7,0.1-1.4,0.3-2s0.5-1,0.8-1.3c0.7-0.7,1.5-1,2.4-1
		c1.1,0,2,0.3,2.8,0.9c-0.1,0.4-0.3,0.7-0.6,0.9c-0.6-0.5-1.4-0.8-2.2-0.8c-0.7,0-1.2,0.3-1.6,0.8c-0.4,0.5-0.6,1.4-0.6,2.5
		c0,2.1,0.8,3.2,2.3,3.2c0.6,0,1.1-0.1,1.6-0.2v-1.4c0-0.4,0-0.6,0-0.8H150c-0.4,0-0.6-0.2-0.6-0.5
		C149.5,48.1,149.5,47.9,149.5,47.7z"/>
	<path fill="#FFFFFF" d="M158.4,49.4h-3.6c0,0.6,0.1,1,0.4,1.3c0.2,0.3,0.6,0.5,1.1,0.5s1.1-0.2,1.7-0.5c0.2,0.2,0.3,0.4,0.4,0.8
		c-0.6,0.4-1.4,0.7-2.3,0.7c-0.9,0-1.5-0.3-1.9-0.9s-0.6-1.3-0.6-2.3s0.2-1.7,0.6-2.3c0.4-0.6,1-0.9,1.8-0.9c0.8,0,1.4,0.2,1.8,0.7
		c0.4,0.5,0.6,1.1,0.6,1.8C158.4,48.8,158.4,49.1,158.4,49.4z M157,47.3c-0.2-0.3-0.5-0.5-0.9-0.5s-0.7,0.2-0.9,0.5
		c-0.2,0.3-0.3,0.7-0.4,1.3h2.5v-0.2C157.3,47.9,157.2,47.6,157,47.3z"/>
	<path fill="#FFFFFF" d="M159.4,51.6c0-0.1,0-0.3,0.1-0.4s0.2-0.3,0.3-0.4c0.7,0.4,1.2,0.5,1.6,0.5c0.4,0,0.7-0.1,0.9-0.2
		c0.2-0.1,0.3-0.3,0.3-0.6c0-0.4-0.3-0.7-0.8-0.9l-0.7-0.3c-1-0.4-1.5-0.9-1.5-1.7c0-0.5,0.2-1,0.6-1.3c0.4-0.3,0.9-0.5,1.6-0.5
		s1.3,0.1,1.9,0.4c0,0.2,0,0.3-0.1,0.5s-0.2,0.3-0.3,0.4c-0.6-0.3-1.1-0.4-1.6-0.4c-0.3,0-0.5,0.1-0.7,0.2c-0.2,0.1-0.3,0.3-0.3,0.5
		c0,0.2,0.1,0.4,0.2,0.5s0.3,0.2,0.6,0.3l0.7,0.3c1,0.4,1.5,1,1.5,1.8c0,0.5-0.2,1-0.6,1.3c-0.4,0.3-1,0.5-1.7,0.5
		S160.1,52,159.4,51.6z"/>
	<path fill="#FFFFFF" d="M168.1,46.1c0,0.1,0,0.3,0,0.4s0,0.3,0,0.4l-1.5,0v3.7c0,0.3,0.2,0.5,0.5,0.5h0.8c0.1,0.2,0.1,0.3,0.1,0.5
		s0,0.3,0,0.3c-0.5,0.1-0.9,0.1-1.3,0.1c-0.8,0-1.2-0.4-1.2-1.2v-3.9l-0.9,0c0-0.1,0-0.3,0-0.4s0-0.3,0-0.4l0.9,0V45
		c0-0.3,0-0.5,0.1-0.6c0.1-0.1,0.3-0.2,0.5-0.2h0.4l0.1,0.1v1.8L168.1,46.1z"/>
	<path fill="#FFFFFF" d="M174,51.5c-0.1,0.3-0.2,0.5-0.5,0.6c-0.4-0.1-0.7-0.3-0.9-0.8c-0.6,0.6-1.2,0.8-1.8,0.8
		c-0.6,0-1.1-0.2-1.4-0.5c-0.3-0.4-0.5-0.8-0.5-1.2c0-0.7,0.2-1.1,0.6-1.5s1-0.5,1.7-0.5c0.4,0,0.8,0,1.2,0.1V48
		c0-0.7-0.3-1.1-1-1.1c-0.5,0-1.2,0.2-1.9,0.5c-0.2-0.2-0.3-0.5-0.3-0.9c0.8-0.4,1.7-0.6,2.5-0.6c0.6,0,1.1,0.2,1.4,0.5
		c0.3,0.3,0.5,0.8,0.5,1.5v2.5C173.6,51,173.7,51.3,174,51.5z M171.5,45.2l-0.7-0.3c-0.2-0.1-0.3-0.1-0.4-0.1s-0.3,0.1-0.4,0.3
		l-0.1,0.2c-0.1,0-0.2,0-0.3-0.1c-0.1-0.1-0.2-0.2-0.2-0.3l0.1-0.2c0.1-0.3,0.3-0.5,0.5-0.6s0.4-0.2,0.6-0.2c0.2,0,0.5,0.1,0.7,0.2
		l0.7,0.3c0.1,0.1,0.3,0.1,0.4,0.1c0.1,0,0.3-0.1,0.5-0.3l0.1-0.2c0.1,0,0.2,0,0.3,0.1c0.1,0.1,0.2,0.2,0.2,0.3l-0.1,0.2
		c-0.1,0.3-0.3,0.5-0.5,0.6c-0.2,0.2-0.4,0.2-0.6,0.2C172,45.3,171.8,45.3,171.5,45.2z M171,51.2c0.5,0,1-0.3,1.5-0.8v-1.2
		c-0.3,0-0.7-0.1-1.1-0.1c-0.4,0-0.7,0.1-0.9,0.3c-0.2,0.2-0.3,0.4-0.3,0.7c0,0.3,0.1,0.5,0.2,0.7C170.5,51.2,170.8,51.2,171,51.2z"
		/>
	<path fill="#FFFFFF" d="M179.4,46.6c0.6,0.6,0.8,1.4,0.8,2.5s-0.3,1.9-0.8,2.5c-0.4,0.4-1,0.7-1.7,0.7s-1.3-0.2-1.7-0.7
		c-0.6-0.6-0.8-1.4-0.8-2.5s0.3-1.9,0.8-2.5c0.4-0.4,1-0.7,1.7-0.7S179,46.2,179.4,46.6z M176.3,49.1c0,1.5,0.5,2.2,1.4,2.2
		s1.4-0.7,1.4-2.2c0-0.4,0-0.8-0.1-1.1c-0.1-0.3-0.2-0.6-0.4-0.8c-0.2-0.2-0.5-0.3-0.8-0.3s-0.6,0.1-0.8,0.3
		c-0.2,0.2-0.4,0.5-0.4,0.8C176.3,48.3,176.3,48.7,176.3,49.1z"/>
	<path fill="#FFFFFF" d="M186,52.2c-0.7,0-1.2-0.3-1.5-0.8c-0.4-0.6-0.5-1.3-0.5-2.3c0-1,0.2-1.7,0.7-2.3c0.5-0.5,1-0.8,1.6-0.8
		c0.4,0,0.9,0.1,1.4,0.4v-3.1l0.1-0.1h0.4c0.2,0,0.4,0.1,0.5,0.2c0.1,0.1,0.1,0.3,0.1,0.6v6.4c0,0.6,0.1,1,0.3,1.2
		c-0.1,0.3-0.2,0.5-0.5,0.6c-0.4-0.1-0.7-0.3-0.9-0.8C187.3,51.9,186.7,52.2,186,52.2z M186.3,51.2c0.5,0,1-0.3,1.4-0.8v-3
		c-0.4-0.3-0.9-0.5-1.2-0.5s-0.7,0.2-0.9,0.6c-0.2,0.4-0.4,0.9-0.4,1.6c0,0.7,0.1,1.2,0.3,1.6S186,51.2,186.3,51.2z"/>
	<path fill="#FFFFFF" d="M195.1,49.4h-3.6c0,0.6,0.1,1,0.4,1.3c0.2,0.3,0.6,0.5,1.1,0.5s1.1-0.2,1.7-0.5c0.2,0.2,0.3,0.4,0.4,0.8
		c-0.6,0.4-1.4,0.7-2.3,0.7c-0.9,0-1.5-0.3-1.9-0.9s-0.6-1.3-0.6-2.3s0.2-1.7,0.6-2.3c0.4-0.6,1-0.9,1.8-0.9c0.8,0,1.4,0.2,1.8,0.7
		c0.4,0.5,0.6,1.1,0.6,1.8C195.2,48.8,195.1,49.1,195.1,49.4z M193.7,47.3c-0.2-0.3-0.5-0.5-0.9-0.5s-0.7,0.2-0.9,0.5
		c-0.2,0.3-0.3,0.7-0.4,1.3h2.5v-0.2C194,47.9,193.9,47.6,193.7,47.3z"/>
	<path fill="#FFFFFF" d="M201.8,51h2.4c0,0.2,0,0.4,0,0.5c-0.1,0.4-0.3,0.6-0.8,0.6h-3.2c-0.2,0-0.4-0.1-0.5-0.2
		c-0.1-0.1-0.2-0.3-0.2-0.6v-7.4l0.1-0.1h0.5c0.2,0,0.4,0.1,0.5,0.2c0.1,0.1,0.1,0.3,0.1,0.6V51C201.1,51,201.5,51,201.8,51z"/>
	<path fill="#FFFFFF" d="M206.8,47.1V52c-0.1,0-0.3,0-0.6,0c-0.2,0-0.4,0-0.6,0v-4.5c0-0.2,0-0.4-0.1-0.5s-0.2-0.1-0.4-0.1H205
		c0-0.1,0-0.3,0-0.4c0-0.2,0-0.3,0-0.4c0.3,0,0.5,0,0.7,0h0.2c0.3,0,0.5,0.1,0.7,0.3C206.7,46.5,206.8,46.8,206.8,47.1z M205.3,44.5
		c0-0.2,0-0.4,0.1-0.5c0.2-0.1,0.4-0.1,0.7-0.1c0.3,0,0.5,0,0.6,0.1c0.1,0.1,0.1,0.3,0.1,0.5c0,0.2,0,0.4-0.1,0.5
		c-0.1,0.1-0.3,0.1-0.6,0.1c-0.3,0-0.5,0-0.6-0.1C205.3,44.8,205.3,44.7,205.3,44.5z"/>
	<path fill="#FFFFFF" d="M210.4,52.2c-0.7,0-1.2-0.3-1.5-0.8c-0.4-0.6-0.5-1.3-0.5-2.3c0-1,0.2-1.7,0.7-2.3c0.5-0.5,1-0.8,1.6-0.8
		c0.4,0,0.9,0.1,1.4,0.4v-3.1l0.1-0.1h0.4c0.2,0,0.4,0.1,0.5,0.2c0.1,0.1,0.1,0.3,0.1,0.6v6.4c0,0.6,0.1,1,0.3,1.2
		c-0.1,0.3-0.2,0.5-0.5,0.6c-0.4-0.1-0.7-0.3-0.9-0.8C211.6,51.9,211.1,52.2,210.4,52.2z M210.6,51.2c0.5,0,1-0.3,1.4-0.8v-3
		c-0.4-0.3-0.9-0.5-1.2-0.5s-0.7,0.2-0.9,0.6c-0.2,0.4-0.4,0.9-0.4,1.6c0,0.7,0.1,1.2,0.3,1.6S210.3,51.2,210.6,51.2z"/>
	<path fill="#FFFFFF" d="M219.4,49.4h-3.6c0,0.6,0.1,1,0.4,1.3c0.2,0.3,0.6,0.5,1.1,0.5s1.1-0.2,1.7-0.5c0.2,0.2,0.3,0.4,0.4,0.8
		c-0.6,0.4-1.4,0.7-2.3,0.7c-0.9,0-1.5-0.3-1.9-0.9s-0.6-1.3-0.6-2.3s0.2-1.7,0.6-2.3c0.4-0.6,1-0.9,1.8-0.9c0.8,0,1.4,0.2,1.8,0.7
		c0.4,0.5,0.6,1.1,0.6,1.8C219.5,48.8,219.5,49.1,219.4,49.4z M218.1,47.3c-0.2-0.3-0.5-0.5-0.9-0.5s-0.7,0.2-0.9,0.5
		c-0.2,0.3-0.3,0.7-0.4,1.3h2.5v-0.2C218.4,47.9,218.3,47.6,218.1,47.3z"/>
	<path fill="#FFFFFF" d="M220.8,46.6c0.1-0.3,0.2-0.5,0.4-0.6c0.5,0.1,0.9,0.5,1,1.1c0.3-0.7,0.9-1.1,1.6-1.1c0.2,0,0.4,0,0.6,0.1
		c0,0.4-0.1,0.8-0.3,1.1c0,0-0.2,0-0.5,0c-0.6,0-1,0.3-1.3,0.9V52c-0.1,0-0.3,0-0.6,0s-0.4,0-0.6,0v-4.2
		C221.2,47.3,221.1,46.9,220.8,46.6z"/>
	<path fill="#FFFFFF" d="M229.9,51.5c-0.1,0.3-0.2,0.5-0.5,0.6c-0.4-0.1-0.7-0.3-0.9-0.8c-0.6,0.6-1.2,0.8-1.8,0.8
		c-0.6,0-1.1-0.2-1.4-0.5c-0.3-0.4-0.5-0.8-0.5-1.2c0-0.7,0.2-1.1,0.6-1.5s1-0.5,1.7-0.5c0.4,0,0.8,0,1.2,0.1V48
		c0-0.7-0.3-1.1-1-1.1c-0.5,0-1.2,0.2-1.9,0.5c-0.2-0.2-0.3-0.5-0.3-0.9c0.8-0.4,1.7-0.6,2.5-0.6c0.6,0,1.1,0.2,1.4,0.5
		c0.3,0.3,0.5,0.8,0.5,1.5v2.5C229.6,51,229.7,51.3,229.9,51.5z M227,51.2c0.5,0,1-0.3,1.5-0.8v-1.2c-0.3,0-0.7-0.1-1.1-0.1
		c-0.4,0-0.7,0.1-0.9,0.3c-0.2,0.2-0.3,0.4-0.3,0.7c0,0.3,0.1,0.5,0.2,0.7C226.5,51.2,226.7,51.2,227,51.2z"/>
	<path fill="#FFFFFF" d="M236.1,47.9v2.8c0,0.5,0.1,0.8,0.2,1.1c-0.2,0.2-0.4,0.3-0.7,0.3c-0.4,0-0.6-0.2-0.6-0.7v-3.1
		c0-0.4-0.1-0.7-0.2-0.9c-0.1-0.2-0.3-0.3-0.6-0.3c-0.3,0-0.6,0.1-0.9,0.2c-0.3,0.1-0.5,0.3-0.8,0.6V52c-0.1,0-0.3,0-0.6,0
		s-0.4,0-0.6,0v-5.9l0.1-0.1h0.4c0.4,0,0.6,0.3,0.6,0.8c0.6-0.5,1.2-0.8,1.9-0.8c0.5,0,0.9,0.2,1.2,0.5
		C236,46.9,236.1,47.4,236.1,47.9z"/>
	<path fill="#FFFFFF" d="M239.4,52.9c0-0.2,0.1-0.5,0.3-0.8c-0.7-0.1-1.2-0.4-1.5-1c-0.3-0.6-0.5-1.3-0.5-2.1c0-1,0.2-1.8,0.7-2.4
		c0.5-0.5,1.1-0.8,1.8-0.8c0.7,0,1.2,0.2,1.6,0.6s0.6,0.8,0.6,1.2s-0.2,0.7-0.6,0.7c-0.2,0-0.3,0-0.5,0c0,0,0-0.1,0-0.1
		c0-0.9-0.4-1.4-1.1-1.4c-0.4,0-0.7,0.2-0.9,0.6c-0.2,0.4-0.3,0.9-0.3,1.7c0,1.4,0.5,2.1,1.4,2.1c0.4,0,0.9-0.2,1.5-0.6
		c0.1,0.1,0.2,0.2,0.3,0.3c0.1,0.1,0.2,0.3,0.2,0.4c-0.5,0.5-1.1,0.8-1.8,0.9c-0.1,0.1-0.1,0.2-0.1,0.3c0.3,0,0.6,0.1,0.8,0.3
		c0.2,0.2,0.3,0.4,0.3,0.8c0,0.3-0.1,0.6-0.4,0.8c-0.3,0.2-0.6,0.3-1,0.3c-0.4,0-0.7-0.1-1-0.2c0-0.2,0.1-0.4,0.2-0.6
		c0.2,0.1,0.4,0.2,0.6,0.2s0.3,0,0.4-0.1c0.1-0.1,0.1-0.2,0.1-0.3s0-0.3-0.1-0.3c-0.1-0.1-0.2-0.1-0.3-0.1c-0.1,0-0.2,0-0.3,0.1
		C239.5,53.1,239.4,53,239.4,52.9z"/>
	<path fill="#FFFFFF" d="M248.2,51.5c-0.1,0.3-0.2,0.5-0.5,0.6c-0.4-0.1-0.7-0.3-0.9-0.8c-0.6,0.6-1.2,0.8-1.8,0.8
		c-0.6,0-1.1-0.2-1.4-0.5c-0.3-0.4-0.5-0.8-0.5-1.2c0-0.7,0.2-1.1,0.6-1.5s1-0.5,1.7-0.5c0.4,0,0.8,0,1.2,0.1V48
		c0-0.7-0.3-1.1-1-1.1c-0.5,0-1.2,0.2-1.9,0.5c-0.2-0.2-0.3-0.5-0.3-0.9c0.8-0.4,1.7-0.6,2.5-0.6c0.6,0,1.1,0.2,1.4,0.5
		c0.3,0.3,0.5,0.8,0.5,1.5v2.5C247.9,51,248,51.3,248.2,51.5z M245.2,51.2c0.5,0,1-0.3,1.5-0.8v-1.2c-0.3,0-0.7-0.1-1.1-0.1
		c-0.4,0-0.7,0.1-0.9,0.3c-0.2,0.2-0.3,0.4-0.3,0.7c0,0.3,0.1,0.5,0.2,0.7C244.8,51.2,245,51.2,245.2,51.2z"/>
	<path fill="#FFFFFF" d="M249.5,51.4c0-0.2,0-0.4,0.1-0.6c0.2-0.1,0.4-0.1,0.7-0.1c0.3,0,0.5,0,0.7,0.1c0.1,0.1,0.1,0.3,0.1,0.6
		s0,0.4-0.1,0.6c-0.2,0.1-0.4,0.1-0.7,0.1c-0.3,0-0.5,0-0.7-0.1C249.6,51.8,249.5,51.6,249.5,51.4z"/>
</g>
</svg>