<!-- Generator: Adobe Illustrator 17.1.0, SVG Export Plug-In  -->
<svg version="1.1"
	 xmlns="http://www.w3.org/2000/svg" xmlns:xlink="http://www.w3.org/1999/xlink" xmlns:a="http://ns.adobe.com/AdobeSVGViewerExtensions/3.0/"
	 x="0px" y="0px" width="81.6px" height="26.5px" viewBox="0 0 81.6 26.5" enable-background="new 0 0 81.6 26.5"
	 xml:space="preserve">
<defs>
</defs>
<g>
	<g>
		<path fill="#A9D42D" d="M5.3,3.9c0,0,0-0.1,0-0.1c0-0.5-0.1-1-0.4-1.4C4.7,2,4.3,1.8,3.7,1.8c-1.2,0-1.9,1.1-1.9,3.3
			c0,1,0.2,1.8,0.5,2.3C2.7,8,3.2,8.3,3.8,8.3c0.7,0,1.4-0.3,2.2-1c0.2,0.1,0.3,0.3,0.5,0.5C6.7,8,6.8,8.2,6.9,8.4
			C6.5,8.8,6,9.1,5.4,9.4C4.8,9.6,4.2,9.8,3.5,9.8S2.3,9.6,1.9,9.4C1.4,9.1,1.1,8.7,0.8,8.3C0.3,7.4,0.1,6.4,0.1,5.2
			c0-1.5,0.3-2.7,1-3.5c0.7-0.8,1.5-1.2,2.5-1.2c1,0,1.8,0.3,2.4,0.8c0.6,0.5,0.9,1.1,0.9,1.8C6.9,3.7,6.6,4,6,4
			C5.8,4,5.5,4,5.3,3.9z"/>
		<path fill="#A9D42D" d="M10.4,8.4h0.4c0.1,0.3,0.1,0.5,0.1,0.7s0,0.4,0,0.5C10.4,9.6,10,9.6,9.7,9.6c-0.9,0-1.4-0.5-1.4-1.5v-8
			L8.3,0H9c0.3,0,0.5,0.1,0.7,0.2C9.8,0.4,9.8,0.6,9.8,1v6.8C9.8,8.2,10,8.4,10.4,8.4z"/>
		<path fill="#A9D42D" d="M14,4.4v5.2c-0.2,0-0.5,0.1-0.8,0.1s-0.6,0-0.8-0.1V5c0-0.5-0.2-0.7-0.6-0.7h-0.2c0-0.1-0.1-0.3-0.1-0.6
			c0-0.2,0-0.4,0.1-0.6c0.3,0,0.6-0.1,0.9-0.1h0.2c0.4,0,0.7,0.1,0.9,0.4C13.9,3.7,14,4,14,4.4z M12.1,2C12.1,1.8,12,1.5,12,1.3
			s0-0.4,0.1-0.6c0.2-0.1,0.5-0.2,0.8-0.2c0.3,0,0.6,0.1,0.8,0.2c0.1,0.2,0.1,0.4,0.1,0.6s0,0.4-0.1,0.6c-0.2,0.1-0.5,0.2-0.8,0.2
			C12.6,2.1,12.3,2.1,12.1,2z"/>
		<path fill="#A9D42D" d="M19.4,11.4V9.1c-0.5,0.4-1,0.6-1.6,0.6c-0.8,0-1.3-0.3-1.7-0.9c-0.4-0.6-0.6-1.4-0.6-2.5
			c0-1.1,0.2-1.9,0.7-2.5c0.5-0.6,1.1-0.9,1.8-0.9c0.7,0,1.3,0.2,1.8,0.6c0.3-0.3,0.6-0.5,1-0.5c0.1,0.1,0.2,0.2,0.3,0.4
			s0.2,0.3,0.2,0.5c-0.2,0.2-0.4,0.6-0.4,1.1v7.3l-0.1,0.1h-0.6c-0.3,0-0.5-0.1-0.7-0.2C19.4,12,19.4,11.7,19.4,11.4z M18.1,8.4
			c0.5,0,0.9-0.2,1.2-0.6v-3c-0.4-0.3-0.8-0.5-1.1-0.5c-0.4,0-0.6,0.2-0.8,0.6c-0.2,0.4-0.3,0.9-0.3,1.6s0.1,1.2,0.3,1.5
			C17.6,8.2,17.8,8.4,18.1,8.4z"/>
		<path fill="#A9D42D" d="M22.7,7.5V4.6c0-0.5-0.1-0.9-0.2-1.2C22.8,3.1,23.1,3,23.4,3c0.4,0,0.6,0.1,0.7,0.2
			c0.1,0.2,0.2,0.4,0.2,0.8v3.1c0,0.4,0.1,0.7,0.2,0.9c0.1,0.2,0.3,0.3,0.6,0.3c0.5,0,0.9-0.2,1.4-0.6V3.1c0.2,0,0.5-0.1,0.8-0.1
			c0.3,0,0.6,0,0.8,0.1v4.6c0,0.6,0.1,0.9,0.4,1.1c-0.1,0.3-0.3,0.6-0.5,0.8c-0.6-0.1-1-0.4-1.3-0.9c-0.7,0.6-1.4,0.9-2.1,0.9
			c-0.6,0-1-0.2-1.3-0.6C22.9,8.7,22.7,8.1,22.7,7.5z"/>
		<path fill="#A9D42D" d="M34.8,6.9h-3.6c0,0.5,0.1,0.9,0.3,1.2c0.2,0.3,0.6,0.4,1.1,0.4c0.5,0,1.1-0.2,1.7-0.5
			c0.2,0.2,0.4,0.6,0.5,1c-0.7,0.5-1.5,0.7-2.5,0.7c-1,0-1.7-0.3-2.1-0.9c-0.4-0.6-0.6-1.5-0.6-2.5c0-1,0.2-1.8,0.7-2.5
			s1.1-0.9,2-0.9s1.5,0.3,2,0.8c0.5,0.5,0.7,1.2,0.7,2C34.9,6.1,34.9,6.5,34.8,6.9z M32.3,4.1c-0.7,0-1.1,0.5-1.1,1.6h2.3V5.6
			c0-0.4-0.1-0.8-0.3-1.1C32.9,4.2,32.7,4.1,32.3,4.1z"/>
		<path fill="#A9D42D" d="M44.6,5.2v2.9c0,0.5,0.1,0.9,0.3,1.2c-0.3,0.2-0.6,0.3-1,0.3c-0.4,0-0.6-0.1-0.7-0.2C43,9.2,43,9,43,8.6
			V5.6c0-0.4-0.1-0.7-0.2-0.8c-0.1-0.2-0.3-0.3-0.6-0.3c-0.5,0-0.9,0.2-1.4,0.7v4.5c-0.2,0-0.5,0.1-0.8,0.1s-0.6,0-0.8-0.1V3.1
			l0.1-0.1H40c0.5,0,0.8,0.3,0.9,0.8C41.5,3.3,42.1,3,42.7,3c0.6,0,1.1,0.2,1.4,0.6S44.6,4.6,44.6,5.2z"/>
		<path fill="#A9D42D" d="M51.5,8.8c0,0.1-0.1,0.3-0.2,0.5S51.1,9.6,51,9.7c-0.5-0.1-0.9-0.3-1.2-0.8c-0.6,0.6-1.2,0.8-1.9,0.8
			s-1.2-0.2-1.5-0.6c-0.3-0.4-0.5-0.8-0.5-1.4c0-0.7,0.2-1.3,0.7-1.6c0.5-0.4,1.1-0.6,1.8-0.6c0.4,0,0.8,0,1.1,0.1V5.3
			c0-0.7-0.3-1-1-1c-0.5,0-1.1,0.2-2,0.5c-0.3-0.3-0.4-0.7-0.4-1.2C47.1,3.2,48,3,49,3c0.7,0,1.2,0.2,1.6,0.5s0.6,0.9,0.6,1.7v2.7
			C51.2,8.3,51.3,8.6,51.5,8.8z M48.3,8.5c0.5,0,0.9-0.2,1.3-0.6V6.7c-0.3,0-0.6-0.1-1-0.1S48,6.8,47.8,7c-0.2,0.2-0.3,0.4-0.3,0.7
			s0.1,0.5,0.2,0.6S48,8.5,48.3,8.5z"/>
		<path fill="#A9D42D" d="M62.1,3.4c0,0.6-0.2,1.1-0.5,1.5c-0.3,0.4-0.7,0.7-1.2,0.9c0.4,0.1,0.7,0.5,0.9,1.1l0.5,1.4
			C62,8.7,62.2,9,62.5,9.2c-0.2,0.3-0.6,0.5-1.1,0.5c-0.3,0-0.5-0.1-0.6-0.2c-0.1-0.2-0.3-0.4-0.4-0.8l-0.6-1.6
			c-0.1-0.3-0.3-0.5-0.4-0.7c-0.2-0.2-0.4-0.2-0.8-0.2h-0.9v3.4c-0.2,0-0.5,0.1-0.8,0.1c-0.3,0-0.6,0-0.8-0.1V0.8l0.1-0.1
			c1.4,0,2.3-0.1,2.9-0.1c0.9,0,1.7,0.2,2.2,0.7C61.8,1.8,62.1,2.5,62.1,3.4z M57.7,1.9v2.9c0.6,0,1,0,1.3,0c1,0,1.4-0.5,1.4-1.4
			s-0.5-1.4-1.4-1.4C58.4,1.9,57.9,1.9,57.7,1.9z"/>
		<path fill="#A9D42D" d="M69.1,6.3c0,1.2-0.3,2-0.9,2.7c-0.5,0.5-1.1,0.7-2,0.7c-0.8,0-1.5-0.2-2-0.7c-0.6-0.6-0.9-1.5-0.9-2.7
			c0-1.2,0.3-2,0.9-2.7c0.5-0.5,1.1-0.7,2-0.7c0.8,0,1.5,0.2,2,0.7C68.7,4.3,69.1,5.2,69.1,6.3z M66.2,4.2c-0.8,0-1.2,0.7-1.2,2.2
			s0.4,2.2,1.2,2.2c0.8,0,1.2-0.7,1.2-2.2S67,4.2,66.2,4.2z"/>
		<path fill="#A9D42D" d="M69.9,9.1c0-0.2,0.1-0.4,0.2-0.6c0.1-0.2,0.2-0.4,0.3-0.5c0.7,0.4,1.3,0.6,1.8,0.6c0.3,0,0.6-0.1,0.7-0.2
			c0.2-0.1,0.3-0.3,0.3-0.5c0-0.3-0.2-0.6-0.7-0.8l-0.7-0.3c-1.1-0.4-1.6-1-1.6-1.9c0-0.6,0.2-1.1,0.7-1.5c0.4-0.4,1-0.6,1.8-0.6
			s1.5,0.2,2.2,0.5c0,0.2,0,0.4-0.1,0.6c-0.1,0.2-0.2,0.4-0.3,0.5c-0.6-0.3-1.2-0.4-1.8-0.4c-0.2,0-0.4,0.1-0.6,0.2
			c-0.1,0.1-0.2,0.3-0.2,0.5c0,0.3,0.2,0.5,0.7,0.7l0.8,0.3c1.1,0.4,1.7,1.1,1.7,2c0,0.6-0.2,1.1-0.7,1.5c-0.5,0.4-1.1,0.5-1.9,0.5
			C71.4,9.8,70.7,9.5,69.9,9.1z"/>
		<path fill="#A9D42D" d="M81.4,8.8c0,0.1-0.1,0.3-0.2,0.5s-0.2,0.3-0.3,0.4c-0.5-0.1-0.9-0.3-1.2-0.8c-0.6,0.6-1.2,0.8-1.9,0.8
			s-1.2-0.2-1.5-0.6c-0.3-0.4-0.5-0.8-0.5-1.4c0-0.7,0.2-1.3,0.7-1.6c0.5-0.4,1.1-0.6,1.8-0.6c0.4,0,0.8,0,1.1,0.1V5.3
			c0-0.7-0.3-1-1-1c-0.5,0-1.1,0.2-2,0.5c-0.3-0.3-0.4-0.7-0.4-1.2C77,3.2,77.9,3,78.8,3c0.7,0,1.2,0.2,1.6,0.5S81,4.4,81,5.2v2.7
			C81,8.3,81.2,8.6,81.4,8.8z M78.1,8.5c0.5,0,0.9-0.2,1.3-0.6V6.7c-0.3,0-0.6-0.1-1-0.1S77.8,6.8,77.6,7c-0.2,0.2-0.3,0.4-0.3,0.7
			s0.1,0.5,0.2,0.6S77.9,8.5,78.1,8.5z"/>
		<path fill="#FFFFFF" d="M2.8,17.9c0.7,0,1.2,0.3,1.5,0.8C4.7,19.3,4.8,20,4.8,21s-0.2,1.7-0.7,2.3s-1,0.8-1.6,0.8
			c-0.5,0-1-0.1-1.4-0.4v2.1c0,0.3,0,0.5-0.1,0.6c-0.1,0.1-0.3,0.2-0.5,0.2H0.1L0,26.5v-8.4L0.1,18h0.4c0.4,0,0.6,0.2,0.7,0.6
			C1.6,18.1,2.2,17.9,2.8,17.9z M2.5,18.9c-0.6,0-1,0.3-1.4,0.8v3C1.6,23,2,23.1,2.4,23.1s0.7-0.2,0.9-0.6c0.2-0.4,0.4-0.9,0.4-1.6
			s-0.1-1.2-0.3-1.6S2.9,18.9,2.5,18.9z"/>
		<path fill="#FFFFFF" d="M10.9,23.5c-0.1,0.3-0.2,0.5-0.5,0.6C10,24,9.7,23.7,9.5,23.3c-0.6,0.6-1.2,0.8-1.8,0.8
			c-0.6,0-1.1-0.2-1.4-0.5c-0.3-0.4-0.5-0.8-0.5-1.2c0-0.7,0.2-1.1,0.6-1.5s1-0.5,1.7-0.5c0.4,0,0.8,0,1.2,0.1V20
			c0-0.7-0.3-1.1-1-1.1c-0.5,0-1.2,0.2-1.9,0.5c-0.2-0.2-0.3-0.5-0.3-0.9c0.8-0.4,1.7-0.6,2.5-0.6c0.6,0,1.1,0.2,1.4,0.5
			c0.3,0.3,0.5,0.8,0.5,1.5v2.5C10.5,22.9,10.7,23.3,10.9,23.5z M7.9,23.2c0.5,0,1-0.3,1.5-0.8v-1.2c-0.3,0-0.7-0.1-1.1-0.1
			c-0.4,0-0.7,0.1-0.9,0.3c-0.2,0.2-0.3,0.4-0.3,0.7c0,0.3,0.1,0.5,0.2,0.7C7.5,23.1,7.7,23.2,7.9,23.2z"/>
		<path fill="#FFFFFF" d="M12.1,18.6c0.1-0.3,0.2-0.5,0.4-0.6c0.5,0.1,0.9,0.5,1,1.1c0.3-0.7,0.9-1.1,1.6-1.1c0.2,0,0.4,0,0.6,0.1
			c0,0.4-0.1,0.8-0.3,1.1c0,0-0.2,0-0.5,0c-0.6,0-1,0.3-1.3,0.9V24c-0.1,0-0.3,0-0.6,0s-0.4,0-0.6,0v-4.2
			C12.5,19.3,12.4,18.9,12.1,18.6z"/>
		<path fill="#FFFFFF" d="M21.3,23.5c-0.1,0.3-0.2,0.5-0.5,0.6c-0.4-0.1-0.7-0.3-0.9-0.8c-0.6,0.6-1.2,0.8-1.8,0.8
			c-0.6,0-1.1-0.2-1.4-0.5c-0.3-0.4-0.5-0.8-0.5-1.2c0-0.7,0.2-1.1,0.6-1.5s1-0.5,1.7-0.5c0.4,0,0.8,0,1.2,0.1V20
			c0-0.7-0.3-1.1-1-1.1c-0.5,0-1.2,0.2-1.9,0.5c-0.2-0.2-0.3-0.5-0.3-0.9c0.8-0.4,1.7-0.6,2.5-0.6c0.6,0,1.1,0.2,1.4,0.5
			c0.3,0.3,0.5,0.8,0.5,1.5v2.5C20.9,22.9,21,23.3,21.3,23.5z M18.3,23.2c0.5,0,1-0.3,1.5-0.8v-1.2c-0.3,0-0.7-0.1-1.1-0.1
			c-0.4,0-0.7,0.1-0.9,0.3c-0.2,0.2-0.3,0.4-0.3,0.7c0,0.3,0.1,0.5,0.2,0.7C17.8,23.1,18,23.2,18.3,23.2z"/>
		<path fill="#FFFFFF" d="M24.9,23.5c0-0.1,0-0.3,0.1-0.4s0.2-0.3,0.3-0.4c0.7,0.4,1.2,0.5,1.6,0.5c0.4,0,0.7-0.1,0.9-0.2
			c0.2-0.1,0.3-0.3,0.3-0.6c0-0.4-0.3-0.7-0.8-0.9l-0.7-0.3c-1-0.4-1.5-0.9-1.5-1.7c0-0.5,0.2-1,0.6-1.3c0.4-0.3,0.9-0.5,1.6-0.5
			s1.3,0.1,1.9,0.4c0,0.2,0,0.3-0.1,0.5s-0.2,0.3-0.3,0.4c-0.6-0.3-1.1-0.4-1.6-0.4c-0.3,0-0.5,0.1-0.7,0.2
			c-0.2,0.1-0.3,0.3-0.3,0.5c0,0.2,0.1,0.4,0.2,0.5s0.3,0.2,0.6,0.3l0.7,0.3c1,0.4,1.5,1,1.5,1.8c0,0.5-0.2,1-0.6,1.3
			c-0.4,0.3-1,0.5-1.7,0.5S25.5,23.9,24.9,23.5z"/>
		<path fill="#FFFFFF" d="M35.2,23.5c-0.1,0.3-0.2,0.5-0.5,0.6c-0.4-0.1-0.7-0.3-0.9-0.8c-0.6,0.6-1.2,0.8-1.8,0.8
			c-0.6,0-1.1-0.2-1.4-0.5c-0.3-0.4-0.5-0.8-0.5-1.2c0-0.7,0.2-1.1,0.6-1.5s1-0.5,1.7-0.5c0.4,0,0.8,0,1.2,0.1V20
			c0-0.7-0.3-1.1-1-1.1c-0.5,0-1.2,0.2-1.9,0.5c-0.2-0.2-0.3-0.5-0.3-0.9c0.8-0.4,1.7-0.6,2.5-0.6c0.6,0,1.1,0.2,1.4,0.5
			c0.3,0.3,0.5,0.8,0.5,1.5v2.5C34.9,22.9,35,23.3,35.2,23.5z M32.3,23.2c0.5,0,1-0.3,1.5-0.8v-1.2c-0.3,0-0.7-0.1-1.1-0.1
			c-0.4,0-0.7,0.1-0.9,0.3c-0.2,0.2-0.3,0.4-0.3,0.7c0,0.3,0.1,0.5,0.2,0.7C31.8,23.1,32,23.2,32.3,23.2z"/>
		<path fill="#FFFFFF" d="M39.6,18c0.6,0,1.1,0.3,1.5,0.8c0.4,0.5,0.5,1.3,0.5,2.2s-0.3,1.7-0.8,2.2s-1.1,0.8-1.9,0.8
			s-1.5-0.1-2.2-0.4v-8.4l0.1-0.1h0.4c0.2,0,0.4,0.1,0.5,0.2c0.1,0.1,0.1,0.3,0.1,0.6v2.7C38.4,18.2,38.9,18,39.6,18z M39.3,18.9
			c-0.5,0-1,0.2-1.4,0.7V23c0.3,0.1,0.7,0.2,1.1,0.2s0.8-0.2,1-0.6c0.3-0.4,0.4-0.9,0.4-1.6c0-0.7-0.1-1.2-0.3-1.6
			S39.6,18.9,39.3,18.9z"/>
		<path fill="#FFFFFF" d="M47.4,21.4h-3.6c0,0.6,0.1,1,0.4,1.3c0.2,0.3,0.6,0.5,1.1,0.5s1.1-0.2,1.7-0.5c0.2,0.2,0.3,0.4,0.4,0.8
			c-0.6,0.4-1.4,0.7-2.3,0.7c-0.9,0-1.5-0.3-1.9-0.9s-0.6-1.3-0.6-2.3s0.2-1.7,0.6-2.3c0.4-0.6,1-0.9,1.8-0.9c0.8,0,1.4,0.2,1.8,0.7
			c0.4,0.5,0.6,1.1,0.6,1.8C47.5,20.8,47.5,21.1,47.4,21.4z M46.1,19.2c-0.2-0.3-0.5-0.5-0.9-0.5s-0.7,0.2-0.9,0.5
			c-0.2,0.3-0.3,0.7-0.4,1.3h2.5v-0.2C46.4,19.9,46.3,19.5,46.1,19.2z"/>
		<path fill="#FFFFFF" d="M48.8,18.6c0.1-0.3,0.2-0.5,0.4-0.6c0.5,0.1,0.9,0.5,1,1.1c0.3-0.7,0.9-1.1,1.6-1.1c0.2,0,0.4,0,0.6,0.1
			c0,0.4-0.1,0.8-0.3,1.1c0,0-0.2,0-0.5,0c-0.6,0-1,0.3-1.3,0.9V24c-0.1,0-0.3,0-0.6,0s-0.4,0-0.6,0v-4.2
			C49.2,19.3,49,18.9,48.8,18.6z"/>
		<path fill="#FFFFFF" d="M59.4,20.2c0-0.4-0.1-0.7-0.2-0.9c-0.1-0.2-0.3-0.3-0.6-0.3c-0.5,0-0.9,0.3-1.4,0.8V24c-0.1,0-0.3,0-0.6,0
			s-0.4,0-0.6,0v-5.9l0.1-0.1h0.4c0.4,0,0.6,0.3,0.6,0.8c0.5-0.5,1.1-0.8,1.7-0.8s1.1,0.3,1.3,0.9c0.6-0.6,1.3-0.9,1.9-0.9
			c0.5,0,0.9,0.2,1.1,0.5c0.3,0.4,0.4,0.8,0.4,1.3v2.9c0,0.5,0.1,0.8,0.2,1.1c-0.2,0.2-0.4,0.3-0.7,0.3c-0.4,0-0.6-0.2-0.6-0.7v-3.1
			c0-0.4-0.1-0.7-0.2-0.9c-0.1-0.2-0.3-0.3-0.6-0.3c-0.5,0-0.9,0.3-1.4,0.8V24c-0.1,0-0.3,0-0.6,0s-0.4,0-0.6,0V20.2z"/>
		<path fill="#FFFFFF" d="M70.2,23.5c-0.1,0.3-0.2,0.5-0.5,0.6c-0.4-0.1-0.7-0.3-0.9-0.8c-0.6,0.6-1.2,0.8-1.8,0.8
			c-0.6,0-1.1-0.2-1.4-0.5c-0.3-0.4-0.5-0.8-0.5-1.2c0-0.7,0.2-1.1,0.6-1.5s1-0.5,1.7-0.5c0.4,0,0.8,0,1.2,0.1V20
			c0-0.7-0.3-1.1-1-1.1c-0.5,0-1.2,0.2-1.9,0.5c-0.2-0.2-0.3-0.5-0.3-0.9c0.8-0.4,1.7-0.6,2.5-0.6c0.6,0,1.1,0.2,1.4,0.5
			c0.3,0.3,0.5,0.8,0.5,1.5v2.5C69.9,22.9,70,23.3,70.2,23.5z M67.2,23.2c0.5,0,1-0.3,1.5-0.8v-1.2c-0.3,0-0.7-0.1-1.1-0.1
			c-0.4,0-0.7,0.1-0.9,0.3c-0.2,0.2-0.3,0.4-0.3,0.7c0,0.3,0.1,0.5,0.2,0.7C66.8,23.1,67,23.2,67.2,23.2z"/>
		<path fill="#FFFFFF" d="M73,19V24c-0.1,0-0.3,0-0.6,0c-0.2,0-0.4,0-0.6,0v-4.5c0-0.2,0-0.4-0.1-0.5s-0.2-0.1-0.4-0.1h-0.1
			c0-0.1,0-0.3,0-0.4c0-0.2,0-0.3,0-0.4c0.3,0,0.5,0,0.7,0h0.2c0.3,0,0.5,0.1,0.7,0.3C72.9,18.5,73,18.7,73,19z M71.5,16.4
			c0-0.2,0-0.4,0.1-0.5c0.2-0.1,0.4-0.1,0.7-0.1c0.3,0,0.5,0,0.6,0.1c0.1,0.1,0.1,0.3,0.1,0.5c0,0.2,0,0.4-0.1,0.5
			c-0.1,0.1-0.3,0.1-0.6,0.1c-0.3,0-0.5,0-0.6-0.1C71.5,16.8,71.5,16.6,71.5,16.4z"/>
		<path fill="#FFFFFF" d="M74.4,23.5c0-0.1,0-0.3,0.1-0.4s0.2-0.3,0.3-0.4c0.7,0.4,1.2,0.5,1.6,0.5c0.4,0,0.7-0.1,0.9-0.2
			c0.2-0.1,0.3-0.3,0.3-0.6c0-0.4-0.3-0.7-0.8-0.9l-0.7-0.3c-1-0.4-1.5-0.9-1.5-1.7c0-0.5,0.2-1,0.6-1.3c0.4-0.3,0.9-0.5,1.6-0.5
			s1.3,0.1,1.9,0.4c0,0.2,0,0.3-0.1,0.5s-0.2,0.3-0.3,0.4c-0.6-0.3-1.1-0.4-1.6-0.4c-0.3,0-0.5,0.1-0.7,0.2
			c-0.2,0.1-0.3,0.3-0.3,0.5c0,0.2,0.1,0.4,0.2,0.5s0.3,0.2,0.6,0.3l0.7,0.3c1,0.4,1.5,1,1.5,1.8c0,0.5-0.2,1-0.6,1.3
			c-0.4,0.3-1,0.5-1.7,0.5S75,23.9,74.4,23.5z"/>
		<path fill="#FFFFFF" d="M80,23.3c0-0.2,0-0.4,0.1-0.6c0.2-0.1,0.4-0.1,0.7-0.1c0.3,0,0.5,0,0.7,0.1c0.1,0.1,0.1,0.3,0.1,0.6
			s0,0.4-0.1,0.6c-0.2,0.1-0.4,0.1-0.7,0.1c-0.3,0-0.5,0-0.7-0.1C80,23.8,80,23.6,80,23.3z"/>
	</g>
</g>
</svg>