<!-- Generator: Adobe Illustrator 17.1.0, SVG Export Plug-In  -->
<svg version="1.1"
	 xmlns="http://www.w3.org/2000/svg" xmlns:xlink="http://www.w3.org/1999/xlink" xmlns:a="http://ns.adobe.com/AdobeSVGViewerExtensions/3.0/"
	 x="0px" y="0px" width="182.3px" height="186.6px" viewBox="0 0 182.3 186.6" enable-background="new 0 0 182.3 186.6"
	 xml:space="preserve">
<defs>
</defs>
<g>
	<g>
		<radialGradient id="SVGID_1_" cx="91.166" cy="91.166" r="91.166" gradientUnits="userSpaceOnUse">
			<stop  offset="0" style="stop-color:#008B94"/>
			<stop  offset="0.4984" style="stop-color:#008993"/>
			<stop  offset="0.6778" style="stop-color:#008290"/>
			<stop  offset="0.8058" style="stop-color:#00778B"/>
			<stop  offset="0.9085" style="stop-color:#006684"/>
			<stop  offset="0.9961" style="stop-color:#00507A"/>
			<stop  offset="1" style="stop-color:#004F7A"/>
		</radialGradient>
		<circle fill-rule="evenodd" clip-rule="evenodd" fill="url(#SVGID_1_)" cx="91.2" cy="91.2" r="91.2"/>
		<radialGradient id="SVGID_2_" cx="91.166" cy="91.166" r="82.2388" gradientUnits="userSpaceOnUse">
			<stop  offset="0" style="stop-color:#008B94"/>
			<stop  offset="0.4984" style="stop-color:#008993"/>
			<stop  offset="0.6778" style="stop-color:#008290"/>
			<stop  offset="0.8058" style="stop-color:#00778B"/>
			<stop  offset="0.9085" style="stop-color:#006684"/>
			<stop  offset="0.9961" style="stop-color:#00507A"/>
			<stop  offset="1" style="stop-color:#004F7A"/>
		</radialGradient>
		<circle fill-rule="evenodd" clip-rule="evenodd" fill="url(#SVGID_2_)" cx="91.2" cy="91.2" r="82.2"/>
	</g>
	<g>
		<g>
			<path fill="#CBDA2A" d="M157.1,131.8c0.1,0.1,0.2,0.1,0.2,0.2c0.7,1.8,1.8,3.4,2.1,5.4c0.1,0.7,0,1.3-0.4,1.9
				c-0.2,0.3-0.3,0.5-0.5,0.8l-0.5,0.8c-0.3,0.6-0.7,1.2-1,1.7c-0.3,0.5-0.7,0.9-1.1,1.4c-0.2-0.4-0.3-0.6-0.4-0.8
				c-0.6-1.3-1.2-2.7-1.8-4c-0.3-0.8-0.5-1.7,0.1-2.6c0.4-0.7,0.9-1.5,1.3-2.2l0.6-1c0.2-0.4,0.5-0.7,0.7-1.1
				C156.8,132.1,157,132,157.1,131.8"/>
			<path fill="#CBDA2A" d="M160.7,136.7c-0.7-1.3-1.3-2.5-1.8-3.8c-0.2-0.6-0.4-1.1-0.6-1.7c-0.2-0.6-0.1-1.2,0.2-1.7
				c0.8-1.5,1.7-3,2.5-4.5c0.1-0.1,0.2-0.2,0.3-0.4c0.2,0.3,0.4,0.4,0.5,0.7c0.3,0.5,0.5,1.1,0.7,1.6c0.3,0.8,0.7,1.6,1,2.5
				c0.4,1.1,0.5,2.3-0.2,3.3c-0.8,1.3-1.6,2.5-2.3,3.8C161,136.6,160.9,136.6,160.7,136.7"/>
			<path fill="#CBDA2A" d="M165.1,129.6c-0.3-0.3-0.5-0.5-0.6-0.7c-0.5-1.1-1-2.3-1.5-3.4c-0.1-0.2-0.2-0.4-0.3-0.6
				c-0.5-0.8-0.5-1.5-0.1-2.2c0.7-1.5,1.4-2.9,2-4.5c0.3-0.6,0.6-0.7,1.1-0.1c0.9,1.3,1.7,2.7,2.2,4.3c0.3,0.9-0.1,1.8-0.4,2.6
				c-0.5,1.3-1.2,2.6-1.8,3.9C165.6,129,165.4,129.2,165.1,129.6"/>
			<path fill="#CBDA2A" d="M167.7,110c0.2,0.1,0.2,0.1,0.3,0.1c1.2,1.4,2.6,2.8,3.4,4.6c0.3,0.7,0.3,1.3,0.1,1.9
				c-0.2,0.7-0.5,1.3-0.7,2c-0.2,0.7-0.5,1.3-0.8,1.9c-0.2,0.5-0.5,1-0.9,1.6c-0.2-0.3-0.4-0.5-0.5-0.8c-0.7-1.3-1.5-2.5-2.3-3.8
				c-0.5-0.8-0.8-1.6-0.5-2.5c0.5-1.5,0.9-3.1,1.5-4.6C167.5,110.4,167.6,110.2,167.7,110"/>
			<path fill="#CBDA2A" d="M172.4,113.9c-1-1-1.9-2.2-2.7-3.3c-0.4-0.5-0.7-1-1-1.5c-0.4-0.5-0.5-1-0.4-1.6c0.3-1.6,0.6-3.3,0.8-4.9
				c0-0.1,0.1-0.2,0.1-0.5c0.3,0.2,0.5,0.3,0.7,0.4c0.4,0.4,0.8,0.8,1.2,1.2c0.6,0.7,1.2,1.3,1.8,2c0.8,0.9,1.2,2,0.9,3.3
				c-0.2,0.8-0.4,1.5-0.6,2.2l-0.7,2.2C172.7,113.7,172.6,113.7,172.4,113.9"/>
			<path fill="#CBDA2A" d="M174.6,105.5c-0.4-0.2-0.6-0.3-0.8-0.5c-0.9-0.9-1.7-1.8-2.6-2.6c-0.1-0.1-0.3-0.3-0.5-0.4
				c-0.8-0.5-1-1.2-0.9-2.1c0.1-1.6,0.2-3.2,0.2-4.9c0-0.7,0.3-0.9,0.9-0.5c1.3,0.9,2.6,1.9,3.6,3.2c0.6,0.7,0.6,1.7,0.6,2.6
				c0,1.4-0.1,2.9-0.3,4.3C174.8,104.8,174.7,105,174.6,105.5"/>
			<path fill="#CBDA2A" d="M170,86.1c0.2,0,0.2,0,0.3,0c1.6,0.9,3.4,1.8,4.8,3.1c0.5,0.5,0.8,1.1,0.8,1.8c0,0.7,0,1.4,0.1,2.1
				c0,0.7,0,1.4,0,2.1c0,0.6-0.1,1.2-0.2,1.9c-0.3-0.2-0.5-0.4-0.7-0.5c-1.2-0.9-2.4-1.8-3.5-2.7c-0.7-0.5-1.3-1.2-1.3-2.1
				c-0.1-1.6-0.3-3.3-0.2-4.9C169.9,86.5,170,86.3,170,86.1"/>
			<path fill="#CBDA2A" d="M175.8,88c-1.3-0.6-2.5-1.3-3.6-2.1c-0.5-0.3-1-0.7-1.5-1c-0.5-0.3-0.8-0.8-0.9-1.4
				c-0.3-1.7-0.5-3.3-0.8-5c0-0.1,0-0.2,0-0.5c0.3,0.1,0.6,0.1,0.8,0.2c0.5,0.2,1,0.5,1.5,0.8c0.8,0.4,1.6,0.8,2.3,1.3
				c1.1,0.6,1.8,1.5,1.9,2.8l0.2,2.3l0.1,2.3C175.9,87.8,175.8,87.8,175.8,88"/>
			<path fill="#CBDA2A" d="M175,79.5c-0.4-0.1-0.7-0.1-0.9-0.2c-1.1-0.6-2.2-1.1-3.3-1.7c-0.2-0.1-0.4-0.2-0.6-0.3
				c-0.9-0.3-1.3-0.9-1.5-1.7c-0.4-1.6-0.8-3.2-1.3-4.7c-0.2-0.7,0-1,0.7-0.7c1.5,0.5,3,1,4.3,2c0.7,0.5,1.1,1.4,1.3,2.3
				c0.4,1.4,0.7,2.7,1.1,4.1C175,78.8,175,79,175,79.5"/>
			<path fill="#CBDA2A" d="M164.8,62.6c0.2-0.1,0.2-0.1,0.3-0.1c1.8,0.3,3.8,0.6,5.5,1.4c0.6,0.3,1.1,0.8,1.3,1.5
				c0.4,1.3,0.9,2.6,1.2,4c0.1,0.6,0.2,1.1,0.3,1.8c-0.4-0.1-0.6-0.2-0.9-0.3c-1.4-0.5-2.8-1-4.1-1.5c-0.8-0.3-1.6-0.8-1.9-1.7
				c-0.5-1.5-1.2-3-1.6-4.5C164.9,63,164.9,62.8,164.8,62.6"/>
			<path fill="#CBDA2A" d="M170.9,62.6c-1.5-0.2-2.8-0.5-4.1-0.9c-0.6-0.2-1.2-0.3-1.7-0.5c-0.6-0.2-1-0.5-1.3-1l-0.6-1.1l-0.6-1.1
				l-1.3-2.2c-0.1-0.1-0.1-0.2-0.2-0.5c0.3,0,0.6-0.1,0.9-0.1c0.6,0,1.1,0.2,1.7,0.2c0.9,0.1,1.8,0.2,2.6,0.4
				c0.6,0.1,1.1,0.3,1.6,0.6c0.5,0.3,0.9,0.8,1.2,1.4c0.7,1.4,1.3,2.9,1.9,4.3C171,62.4,170.9,62.4,170.9,62.6"/>
			<path fill="#CBDA2A" d="M167.2,54.7c-0.4,0-0.7,0.1-0.9,0.1c-1.2-0.1-2.4-0.3-3.7-0.4c-0.2,0-0.4-0.1-0.6-0.1
				c-0.9,0.1-1.5-0.4-2-1.1c-0.9-1.4-1.8-2.8-2.8-4.1c-0.4-0.6-0.3-0.9,0.5-1c1.6,0,3.2,0,4.8,0.5c0.9,0.3,1.5,1,2,1.7
				c0.9,1.1,1.6,2.3,2.4,3.5C167,54.1,167.1,54.3,167.2,54.7"/>
			<path fill="#CBDA2A" d="M151.9,41.9c0.1-0.1,0.2-0.2,0.2-0.2c1.8-0.3,3.7-0.7,5.7-0.5c0.7,0.1,1.3,0.4,1.7,1
				c0.9,1.1,1.7,2.2,2.5,3.3c0.3,0.5,0.6,1,0.9,1.6c-0.4,0-0.7,0-0.9,0c-1.5-0.1-3-0.1-4.4-0.1c-0.9,0-1.8-0.2-2.3-0.9
				c-1-1.3-2.1-2.4-3.1-3.7C152,42.3,152,42.1,151.9,41.9"/>
			<path fill="#CBDA2A" d="M151.9,42c0.1-0.1,0.2-0.2,0.2-0.2c1.9-0.3,3.7-0.7,5.7-0.5c0.7,0.1,1.3,0.4,1.7,1
				c0.9,1.1,1.7,2.2,2.5,3.3c0.3,0.5,0.6,1,0.9,1.6c-0.4,0-0.7,0-0.9,0c-1.5-0.1-3-0.1-4.4-0.1c-0.9,0-1.8-0.2-2.3-0.9
				c-1-1.3-2.1-2.4-3.1-3.7C152.1,42.3,152,42.2,151.9,42"/>
			<path fill="#CBDA2A" d="M151.9,42c0.1-0.1,0.2-0.2,0.2-0.2c1.9-0.3,3.7-0.7,5.7-0.5c0.7,0.1,1.3,0.4,1.7,1
				c0.9,1.1,1.7,2.2,2.5,3.3c0.3,0.5,0.6,1,0.9,1.6c-0.4,0-0.7,0-0.9,0c-1.5-0.1-3-0.1-4.4-0.1c-0.9,0-1.8-0.2-2.3-0.9
				c-1-1.3-2.1-2.4-3.1-3.7C152.1,42.3,152,42.2,151.9,42"/>
			<path fill="#CBDA2A" d="M157.6,40c-1.4,0.3-2.8,0.4-4.2,0.5c-0.6,0-1.2,0.1-1.8,0.1c-0.6,0-1.1-0.1-1.5-0.5
				c-1.2-1.1-2.5-2.2-3.8-3.3c-0.1-0.1-0.2-0.2-0.3-0.4c0.3-0.1,0.5-0.3,0.8-0.4c0.6-0.1,1.1-0.2,1.7-0.4c0.9-0.2,1.7-0.4,2.6-0.5
				c1.2-0.2,2.3,0,3.3,0.9c1.1,1.1,2.2,2.3,3.2,3.5C157.6,39.7,157.6,39.8,157.6,40"/>
			<path fill="#CBDA2A" d="M151.6,33.7c-0.4,0.2-0.6,0.3-0.8,0.4c-1.2,0.3-2.4,0.5-3.6,0.8c-0.2,0-0.4,0.1-0.6,0.2
				c-0.9,0.4-1.6,0.1-2.3-0.4l-4-3.1c-0.6-0.4-0.5-0.8,0.2-1.1c1.5-0.5,3.1-0.9,4.7-0.9c0.9,0,1.7,0.5,2.4,1
				c1.2,0.8,2.3,1.6,3.4,2.5C151.1,33.2,151.3,33.4,151.6,33.7"/>
			<path fill="#CBDA2A" d="M133.5,25.8c0.1-0.1,0.1-0.2,0.2-0.2c0.9-0.3,1.8-0.7,2.7-1c0.9-0.3,1.8-0.6,2.8-0.7
				c0.7-0.1,1.3,0.1,1.8,0.6c1,0.9,2.1,1.7,3.1,2.5c0.4,0.4,0.8,0.8,1.3,1.3c-0.4,0.1-0.6,0.2-0.9,0.3c-1.4,0.4-2.8,0.8-4.2,1.1
				c-0.9,0.2-1.8,0.2-2.5-0.4c-0.7-0.5-1.3-1-2-1.5c-0.6-0.5-1.3-1-1.9-1.5C133.8,26.2,133.7,26,133.5,25.8"/>
			<path fill="#CBDA2A" d="M138.7,22.7c-1.3,0.6-2.7,1-4,1.4c-0.6,0.2-1.2,0.3-1.7,0.5c-0.6,0.2-1.1,0.1-1.6-0.2
				c-1.4-0.8-2.9-1.6-4.4-2.4c-0.1-0.1-0.2-0.1-0.4-0.3c0.2-0.2,0.4-0.4,0.7-0.6c0.5-0.3,1-0.5,1.5-0.7c0.8-0.4,1.6-0.8,2.5-1.1
				c1.1-0.4,2.3-0.5,3.4,0.2c0.7,0.4,1.3,0.9,1.9,1.3c0.6,0.5,1.3,0.9,1.9,1.4C138.6,22.4,138.6,22.5,138.7,22.7"/>
			<path fill="#CBDA2A" d="M131.5,17.8c-0.3,0.3-0.5,0.5-0.7,0.6c-1.1,0.5-2.2,1.1-3.3,1.6c-0.2,0.1-0.4,0.2-0.5,0.3
				c-0.7,0.6-1.5,0.5-2.2,0.2c-1.5-0.6-3-1.2-4.6-1.8c-0.7-0.2-0.8-0.6-0.2-1c1.3-0.9,2.6-1.8,4.2-2.4c0.9-0.3,1.8,0,2.6,0.3
				c1.4,0.5,2.7,1,4,1.7C130.9,17.4,131.1,17.6,131.5,17.8"/>
			<path fill="#CBDA2A" d="M111.6,15.9c0.1-0.2,0.1-0.2,0.1-0.3c1.4-1.2,2.8-2.6,4.5-3.5c0.6-0.3,1.3-0.4,1.9-0.2
				c1.3,0.4,2.6,0.8,3.9,1.3c0.5,0.2,1,0.5,1.7,0.8c-0.3,0.2-0.5,0.4-0.7,0.5c-1.3,0.8-2.5,1.7-3.7,2.5c-0.8,0.5-1.6,0.8-2.5,0.6
				c-1.6-0.5-3.2-0.8-4.7-1.4C112,16.1,111.8,16,111.6,15.9"/>
			<path fill="#CBDA2A" d="M115.3,11.1c-1,1-2.1,1.9-3.2,2.7c-0.5,0.4-1,0.7-1.5,1c-0.5,0.4-1,0.5-1.6,0.4c-1.6-0.3-3.3-0.6-4.9-0.8
				c-0.1,0-0.2-0.1-0.5-0.1c0.2-0.3,0.3-0.5,0.4-0.7c0.4-0.4,0.8-0.8,1.2-1.2c0.6-0.6,1.3-1.2,2-1.8c0.9-0.8,2-1.2,3.3-0.9
				c1.5,0.3,3,0.8,4.5,1.2C115.1,10.9,115.2,11,115.3,11.1"/>
			<path fill="#CBDA2A" d="M106.9,9.1c-0.2,0.4-0.3,0.6-0.5,0.8c-0.9,0.9-1.7,1.7-2.6,2.6c-0.1,0.2-0.3,0.3-0.4,0.5
				c-0.5,0.8-1.2,1-2,0.9c-1.6-0.1-3.3-0.2-4.9-0.2c-0.7,0-0.9-0.3-0.5-0.9c0.9-1.3,1.9-2.6,3.2-3.6c0.7-0.6,1.7-0.6,2.5-0.6
				c1.4,0,2.9,0.1,4.3,0.2C106.3,8.9,106.5,9,106.9,9.1"/>
			<path fill="#CBDA2A" d="M87.8,13.9c0-0.2,0-0.2,0-0.3c0.9-1.7,1.6-3.5,3-4.9c0.5-0.5,1-0.8,1.8-0.8c1.4-0.1,2.8-0.1,4.2-0.1
				c0.6,0,1.2,0.1,1.9,0.2c-0.2,0.3-0.4,0.5-0.5,0.7c-0.9,1.2-1.8,2.3-2.7,3.5c-0.5,0.7-1.2,1.3-2.1,1.3c-1.6,0.1-3.2,0.3-4.8,0.3
				C88.3,13.9,88.1,13.9,87.8,13.9"/>
			<path fill="#CBDA2A" d="M89.6,8.1c-0.6,1.3-1.3,2.5-2,3.7c-0.3,0.5-0.6,1-1,1.5c-0.3,0.5-0.8,0.8-1.3,0.9c-1.6,0.3-3.3,0.7-4.9,1
				c-0.1,0-0.2,0-0.5,0c0.1-0.3,0.1-0.6,0.2-0.8c0.2-0.5,0.5-1,0.7-1.6c0.4-0.8,0.8-1.6,1.2-2.4c0.6-1.1,1.4-1.8,2.7-2
				c1.5-0.2,3.1-0.4,4.6-0.5C89.3,8,89.4,8,89.6,8.1"/>
			<path fill="#CBDA2A" d="M81,9.2c-0.1,0.4-0.1,0.7-0.2,0.9c-0.5,1.1-1,2.2-1.5,3.4c-0.1,0.2-0.2,0.4-0.2,0.6
				c-0.2,0.9-0.8,1.3-1.6,1.6c-1.6,0.4-3.2,0.9-4.8,1.4c-0.7,0.2-1,0-0.8-0.7c0.5-1.5,1-3,1.9-4.4c0.5-0.7,1.4-1.1,2.2-1.4
				c1.3-0.5,2.7-0.9,4.1-1.2C80.3,9.2,80.6,9.2,81,9.2"/>
			<path fill="#CBDA2A" d="M63.7,19.6c0-0.2-0.1-0.2-0.1-0.3c0.4-1.8,0.8-3.7,1.7-5.5c0.3-0.6,0.8-1,1.5-1.2
				c1.3-0.4,2.6-0.8,3.9-1.2c0.5-0.1,1.1-0.2,1.8-0.3c-0.1,0.4-0.2,0.6-0.3,0.9c-0.5,1.4-1,2.8-1.5,4.2C70.4,17,69.9,17.8,69,18
				c-1.6,0.5-3.1,1.1-4.7,1.5C64.1,19.6,63.9,19.6,63.7,19.6"/>
			<path fill="#CBDA2A" d="M63.8,19.6c0-0.2-0.1-0.2-0.1-0.3c0.4-1.8,0.8-3.7,1.7-5.5c0.3-0.6,0.8-1,1.5-1.2
				c1.3-0.4,2.6-0.8,3.9-1.2c0.5-0.1,1.1-0.2,1.8-0.3c-0.1,0.4-0.2,0.6-0.3,0.9c-0.5,1.4-1,2.8-1.5,4.2C70.5,17,70,17.7,69.1,18
				c-1.6,0.5-3.1,1.1-4.7,1.5C64.2,19.5,64,19.5,63.8,19.6"/>
			<path fill="#CBDA2A" d="M63.8,19.6c0-0.2-0.1-0.2-0.1-0.3c0.4-1.8,0.8-3.7,1.7-5.5c0.3-0.6,0.8-1,1.5-1.2
				c1.3-0.4,2.6-0.8,3.9-1.2c0.5-0.1,1.1-0.2,1.8-0.3c-0.1,0.4-0.2,0.6-0.3,0.9c-0.5,1.4-1,2.8-1.5,4.2C70.5,17,70,17.7,69.1,18
				c-1.6,0.5-3.1,1.1-4.7,1.5C64.2,19.5,64,19.5,63.8,19.6"/>
			<path fill="#CBDA2A" d="M64.1,13.5c-0.3,1.4-0.7,2.8-1.1,4.1c-0.2,0.6-0.4,1.1-0.6,1.7c-0.2,0.6-0.5,1-1,1.2
				c-1.4,0.7-2.8,1.5-4.3,2.4C57.1,23,57,23,56.7,23.1c0-0.3-0.1-0.6-0.1-0.9c0-0.6,0.1-1.1,0.2-1.7c0.1-0.9,0.2-1.8,0.4-2.6
				c0.2-1.2,0.9-2.2,2.1-2.8c1.5-0.7,3-1.2,4.4-1.6C63.9,13.4,64,13.5,64.1,13.5"/>
			<path fill="#CBDA2A" d="M56,16.9c0,0.4,0.1,0.7,0.1,0.9c-0.1,1.2-0.3,2.4-0.4,3.7c0,0.2-0.1,0.4-0.1,0.6c0.1,0.9-0.4,1.5-1.2,2
				l-2.1,1.3c-0.7,0.4-1.4,0.9-2,1.3c-0.6,0.4-0.9,0.2-0.9-0.5c0-1.6,0.1-3.2,0.6-4.7c0.3-0.9,1.1-1.4,1.7-1.9
				c1.1-0.8,2.2-1.6,3.4-2.3C55.3,17.2,55.6,17.1,56,16.9"/>
			<path fill="#CBDA2A" d="M43.1,31.7c-0.1-0.2-0.1-0.2-0.2-0.2c-0.2-1.9-0.5-3.8-0.2-5.7c0.1-0.7,0.4-1.2,1-1.7
				c1.1-0.8,2.2-1.6,3.4-2.4c0.5-0.3,1-0.5,1.7-0.8c0,0.4,0,0.7,0,0.9c-0.1,1.5-0.2,3-0.2,4.4c0,0.9-0.3,1.8-1,2.3
				c-1.3,1-2.5,2.1-3.9,2.9C43.4,31.6,43.3,31.6,43.1,31.7"/>
			<path fill="#CBDA2A" d="M41.4,25.9c0.2,1.4,0.3,2.8,0.3,4.2c0,0.6,0,1.2,0,1.8c0,0.6-0.2,1.1-0.6,1.5c-1.2,1.1-2.5,2.3-3.7,3.5
				c-0.1,0.1-0.2,0.1-0.4,0.3c-0.1-0.3-0.3-0.5-0.3-0.8c-0.1-0.6-0.1-1.1-0.2-1.7c-0.1-0.9-0.2-1.8-0.2-2.7
				c-0.1-1.2,0.2-2.3,1.2-3.2c1.2-1,2.4-2,3.6-2.9C41.1,25.9,41.2,25.9,41.4,25.9"/>
			<path fill="#CBDA2A" d="M34.8,31.4c0.2,0.4,0.3,0.6,0.3,0.9c0.2,1.2,0.3,2.4,0.5,3.7c0,0.2,0,0.4,0.1,0.6c0.3,0.9,0,1.6-0.6,2.2
				c-1.1,1.2-2.2,2.4-3.2,3.7c-0.4,0.5-0.8,0.5-1-0.2c-0.5-1.5-0.8-3.1-0.8-4.7c0-0.9,0.6-1.7,1.1-2.4C32.1,34,33.1,33,34,32
				C34.2,31.8,34.4,31.7,34.8,31.4"/>
			<path fill="#CBDA2A" d="M26.5,49.4c-0.1-0.1-0.2-0.1-0.2-0.2c-0.7-1.7-1.6-3.4-1.9-5.4c-0.1-0.7,0-1.3,0.5-1.9
				c0.8-1.1,1.7-2.2,2.6-3.3c0.4-0.4,0.8-0.8,1.4-1.3c0.1,0.4,0.2,0.6,0.2,0.9c0.3,1.5,0.7,2.9,1.1,4.3c0.2,0.9,0.2,1.8-0.3,2.5
				c-1,1.3-1.8,2.7-2.8,4C26.8,49.1,26.7,49.2,26.5,49.4"/>
			<path fill="#CBDA2A" d="M23.1,44.3c0.6,1.3,1.2,2.6,1.6,3.9c0.2,0.6,0.4,1.1,0.6,1.7c0.2,0.6,0.2,1.1-0.1,1.6
				c-0.8,1.5-1.5,3-2.2,4.5c0,0.1-0.1,0.2-0.3,0.4c-0.2-0.2-0.4-0.4-0.6-0.6c-0.3-0.5-0.5-1-0.8-1.5c-0.4-0.8-0.8-1.6-1.2-2.4
				c-0.5-1.1-0.5-2.3,0.1-3.4c0.8-1.4,1.6-2.6,2.5-3.9C22.9,44.5,22.9,44.5,23.1,44.3"/>
			<path fill="#CBDA2A" d="M18.6,51.8c0.3,0.3,0.5,0.5,0.6,0.7c0.6,1.1,1.1,2.2,1.7,3.3c0.1,0.2,0.2,0.4,0.3,0.5
				c0.6,0.7,0.6,1.4,0.3,2.2c-0.6,1.5-1.1,3.1-1.6,4.7c-0.2,0.7-0.6,0.8-1,0.2c-1-1.3-1.9-2.6-2.5-4.1c-0.3-0.9-0.1-1.8,0.2-2.6
				c0.4-1.4,0.9-2.7,1.5-4C18.2,52.4,18.4,52.2,18.6,51.8"/>
			<path fill="#CBDA2A" d="M17.1,71.6c-0.2-0.1-0.2-0.1-0.3-0.1c-1.2-1.5-2.6-2.8-3.5-4.5c-0.3-0.6-0.4-1.2-0.2-1.9
				c0.4-1.3,0.8-2.6,1.2-3.9c0.2-0.5,0.5-1,0.8-1.7c0.2,0.3,0.4,0.5,0.5,0.7c0.8,1.2,1.7,2.4,2.5,3.6c0.5,0.7,0.8,1.6,0.6,2.5
				c-0.5,1.6-0.8,3.2-1.4,4.8C17.3,71.2,17.2,71.4,17.1,71.6"/>
			<path fill="#CBDA2A" d="M12.3,67.8c1,1,1.9,2.1,2.7,3.2c0.4,0.5,0.7,1,1.1,1.4c0.4,0.5,0.5,1,0.4,1.6c-0.3,1.6-0.5,3.3-0.7,5
				c0,0.1-0.1,0.2-0.1,0.5c-0.3-0.2-0.5-0.3-0.7-0.4c-0.4-0.4-0.8-0.8-1.2-1.2c-0.6-0.6-1.3-1.3-1.9-1.9c-0.8-0.9-1.3-2-1-3.3
				c0.2-0.8,0.3-1.5,0.6-2.3c0.2-0.8,0.4-1.5,0.6-2.2C12.1,68,12.2,68,12.3,67.8"/>
			<path fill="#CBDA2A" d="M10.3,76.3c0.4,0.2,0.6,0.3,0.8,0.5c0.9,0.9,1.8,1.7,2.7,2.5c0.2,0.1,0.3,0.3,0.5,0.4
				c0.8,0.5,1,1.2,0.9,2.1c-0.1,1.6-0.2,3.3-0.3,4.9c0,0.7-0.3,0.9-0.9,0.5c-1.3-0.9-2.5-2-3.5-3.3c-0.5-0.7-0.5-1.7-0.5-2.5
				c0-1.4,0.1-2.8,0.2-4.2C10.1,77,10.2,76.7,10.3,76.3"/>
			<path fill="#CBDA2A" d="M14.8,95.8c-0.2,0-0.2,0-0.3,0c-1.7-0.9-3.4-1.7-4.8-3c-0.5-0.5-0.8-1.1-0.8-1.8c0-1.4,0-2.8,0-4.2
				c0-0.6,0.2-1.2,0.3-1.8c0.3,0.2,0.5,0.4,0.7,0.6c1.1,1,2.3,1.8,3.5,2.8c0.7,0.6,1.3,1.3,1.3,2.2c0,1.6,0.2,3.2,0.2,4.8
				C14.9,95.4,14.8,95.6,14.8,95.8"/>
			<path fill="#CBDA2A" d="M14.8,95.7c-0.2,0-0.2,0-0.3,0c-1.7-0.9-3.4-1.7-4.8-3c-0.5-0.5-0.8-1.1-0.8-1.8c0-1.4,0-2.8,0-4.2
				c0-0.6,0.2-1.1,0.3-1.8c0.3,0.2,0.5,0.4,0.7,0.6c1.1,1,2.3,1.9,3.4,2.8c0.7,0.6,1.3,1.3,1.3,2.2c0,1.6,0.2,3.2,0.2,4.8
				C14.8,95.3,14.8,95.5,14.8,95.7"/>
			<path fill="#CBDA2A" d="M14.8,95.7c-0.2,0-0.2,0-0.3,0c-1.7-0.9-3.4-1.7-4.8-3c-0.5-0.5-0.8-1.1-0.8-1.8c0-1.4,0-2.8,0-4.2
				c0-0.6,0.2-1.1,0.3-1.8c0.3,0.2,0.5,0.4,0.7,0.6c1.1,1,2.3,1.9,3.4,2.8c0.7,0.6,1.3,1.3,1.3,2.2c0,1.6,0.2,3.2,0.2,4.8
				C14.8,95.3,14.8,95.5,14.8,95.7"/>
			<path fill="#CBDA2A" d="M9,93.9c1.3,0.6,2.5,1.4,3.7,2.1c0.5,0.3,1,0.6,1.5,1c0.5,0.3,0.8,0.8,0.9,1.3c0.3,1.6,0.7,3.3,1.1,5
				c0,0.1,0,0.2,0,0.5c-0.3-0.1-0.6-0.1-0.8-0.2c-0.5-0.2-1-0.5-1.6-0.7c-0.8-0.4-1.6-0.8-2.4-1.2c-1.1-0.6-1.9-1.4-2.1-2.7
				c-0.3-1.6-0.4-3.1-0.5-4.7C8.9,94.1,8.9,94,9,93.9"/>
			<path fill="#CBDA2A" d="M10.1,102.5c0.4,0.1,0.7,0.1,0.9,0.2c1.1,0.5,2.2,1,3.4,1.5c0.2,0.1,0.4,0.2,0.6,0.2
				c0.9,0.2,1.3,0.8,1.6,1.6c0.4,1.6,0.9,3.2,1.5,4.7c0.2,0.7,0,1-0.7,0.8c-1.5-0.4-3.1-0.9-4.4-1.8c-0.7-0.5-1.1-1.4-1.4-2.2
				c-0.5-1.3-0.9-2.7-1.3-4.1C10.2,103.2,10.2,103,10.1,102.5"/>
			<path fill="#CBDA2A" d="M20.8,119.1c-0.2,0.1-0.2,0.1-0.3,0.1c-1.8-0.4-3.8-0.6-5.5-1.5c-0.6-0.3-1.1-0.8-1.3-1.4
				c-0.5-1.3-0.9-2.6-1.3-3.9c-0.2-0.6-0.2-1.1-0.4-1.8c0.4,0.1,0.6,0.2,0.9,0.3c1.4,0.5,2.8,0.9,4.2,1.4c0.9,0.3,1.6,0.8,1.9,1.6
				c0.6,1.5,1.3,3,1.7,4.6C20.8,118.7,20.8,118.9,20.8,119.1"/>
			<path fill="#CBDA2A" d="M14.7,119.1c1.4,0.2,2.8,0.5,4.1,0.9c0.6,0.2,1.2,0.4,1.7,0.5c0.6,0.2,1,0.6,1.3,1.1
				c0.7,1.5,1.5,3,2.3,4.5c0.1,0.1,0.1,0.2,0.2,0.5c-0.3,0-0.6,0.1-0.9,0.1c-0.6-0.1-1.1-0.2-1.7-0.3c-0.9-0.2-1.8-0.3-2.6-0.5
				c-1.2-0.3-2.2-0.9-2.7-2.1c-0.6-1.4-1.2-2.8-1.7-4.3C14.7,119.3,14.7,119.2,14.7,119.1"/>
			<path fill="#CBDA2A" d="M18.1,127c0.4,0,0.7-0.1,0.9-0.1c1.2,0.2,2.4,0.4,3.6,0.6c0.2,0,0.4,0.1,0.6,0.1c0.9,0,1.5,0.4,1.9,1.2
				c0.8,1.4,1.7,2.8,2.6,4.2c0.4,0.6,0.2,0.9-0.5,0.9c-1.6,0-3.2-0.1-4.7-0.6c-0.9-0.3-1.4-1-1.9-1.8c-0.8-1.2-1.5-2.4-2.2-3.6
				C18.3,127.6,18.2,127.4,18.1,127"/>
			<path fill="#CBDA2A" d="M32.8,140.3c-0.2,0.1-0.2,0.1-0.2,0.2c-1.9,0.2-3.8,0.5-5.7,0.2c-0.7-0.1-1.2-0.4-1.7-1
				c-0.8-1.1-1.6-2.2-2.3-3.4c-0.3-0.5-0.5-1-0.8-1.7c0.4,0,0.7,0,0.9,0c1.5,0.1,3,0.2,4.4,0.2c0.9,0.1,1.8,0.3,2.3,1
				c1,1.3,2,2.5,2.9,3.9C32.6,139.9,32.7,140.1,32.8,140.3"/>
			<path fill="#CBDA2A" d="M27,141.9c1.4-0.2,2.8-0.3,4.2-0.3c0.6,0,1.2,0,1.8,0c0.6,0,1.1,0.2,1.5,0.6l0.9,0.9l0.5,0.5
				c0.1,0.1,0.4,0.4,0.5,0.6l1.7,2c0.1,0.1,0.1,0.2,0.2,0.4c-0.3,0.1-0.5,0.2-0.8,0.3c-0.6,0.1-1.1,0.1-1.7,0.1
				c-0.9,0-1.8,0-2.7,0.1c-1.1,0.1-2.2-0.2-3.1-1.1c-1-1.2-2-2.4-2.9-3.6C27,142.2,27,142.1,27,141.9"/>
			<path fill="#CBDA2A" d="M32.3,148.4c0.4-0.1,0.6-0.2,0.9-0.3c1.2-0.1,2.5-0.1,3.7-0.2c0.2,0,0.4,0,0.6-0.1
				c0.4-0.1,0.8-0.2,1.1-0.1c0.2,0,0.3,0.1,0.4,0.1c0.1,0,0.1,0.1,0.2,0.1c0.1,0.1,0.2,0.1,0.3,0.2c1.3,1,2.7,2.1,4,3.1
				c0.6,0.4,0.6,0.8-0.1,1.1c-1.5,0.5-3.1,1-4.7,1c-0.9,0-1.7-0.5-2.4-0.9l-0.4-0.3c-0.1-0.1-0.3-0.2-0.5-0.4
				c-0.3-0.3-0.7-0.6-0.9-0.8c-0.6-0.6-1.1-1.1-1.6-1.7C32.6,149,32.5,148.7,32.3,148.4"/>
			<path fill="#CBDA2A" d="M50.5,156.4c-0.1,0.1-0.1,0.2-0.2,0.2c-1.7,0.8-3.4,1.7-5.3,2.1c-0.7,0.1-1.3,0-1.9-0.4
				c-1.1-0.8-2.2-1.6-3.3-2.4c-0.4-0.4-0.8-0.8-1.3-1.3c0.4-0.1,0.6-0.2,0.9-0.3c1.4-0.4,2.8-0.8,4.2-1.2c0.9-0.2,1.8-0.3,2.5,0.2
				c1.3,0.9,2.7,1.7,4,2.7C50.2,156.1,50.3,156.2,50.5,156.4"/>
			<path fill="#CBDA2A" d="M45.5,159.9c1.3-0.7,2.6-1.2,3.9-1.7c0.6-0.2,1.1-0.4,1.7-0.6c0.6-0.2,1.1-0.2,1.6,0
				c1.5,0.7,2.9,1.3,4.5,1.8c0.1,0,0.2,0.1,0.4,0.2c-0.2,0.2-0.4,0.5-0.6,0.6c-0.4,0.3-0.9,0.7-1.4,1c-0.7,0.5-1.5,0.9-2.3,1.3
				c-1.1,0.6-2.3,0.7-3.5,0.1c-1.4-0.7-2.7-1.6-4.1-2.4C45.7,160.2,45.6,160.1,45.5,159.9"/>
			<path fill="#CBDA2A" d="M53.3,164.2c0.3-0.3,0.5-0.5,0.7-0.7c1.1-0.6,2.1-1.3,3.1-2.1c0.2-0.1,0.4-0.2,0.6-0.3
				c0.8-0.6,1.8-0.4,2.4-0.2l4.7,1.8c0.7,0.3,0.8,0.6,0.2,1.1c-1.3,0.9-2.7,1.8-4.2,2.3c-0.8,0.3-1.7,0-2.5-0.2
				c-0.8-0.3-1.5-0.5-1.9-0.7l-0.3-0.1l-0.5-0.2c-0.4-0.1-0.7-0.2-1.1-0.3C53.9,164.5,53.7,164.4,53.3,164.2"/>
			<path fill="#CBDA2A" d="M73.2,165.9c-0.1,0.2-0.1,0.2-0.1,0.3c-1.4,1.3-2.8,2.6-4.5,3.5c-0.7,0.3-1.3,0.3-2,0.1
				c-1.3-0.5-2.6-0.9-3.8-1.4c-0.5-0.2-1-0.5-1.6-0.8c0.3-0.2,0.5-0.4,0.7-0.5c1.2-0.8,2.5-1.6,3.7-2.4c0.8-0.5,1.6-0.8,2.5-0.5
				c1.5,0.5,3.1,0.9,4.6,1.5C72.8,165.7,73,165.8,73.2,165.9"/>
			<path fill="#CBDA2A" d="M73.1,165.9c-0.1,0.2-0.1,0.2-0.1,0.3c-1.4,1.3-2.8,2.6-4.5,3.5c-0.6,0.3-1.3,0.3-2,0.1
				c-1.3-0.5-2.6-0.9-3.8-1.4c-0.5-0.2-1-0.5-1.6-0.8c0.3-0.2,0.5-0.4,0.7-0.5c1.2-0.8,2.5-1.6,3.7-2.4c0.8-0.5,1.6-0.7,2.5-0.5
				c1.5,0.5,3.1,0.9,4.6,1.5C72.8,165.7,72.9,165.8,73.1,165.9"/>
			<path fill="#CBDA2A" d="M73.1,165.9c-0.1,0.2-0.1,0.2-0.1,0.3c-1.4,1.3-2.8,2.6-4.5,3.5c-0.6,0.3-1.3,0.3-2,0.1
				c-1.3-0.5-2.6-0.9-3.8-1.4c-0.5-0.2-1-0.5-1.6-0.8c0.3-0.2,0.5-0.4,0.7-0.5c1.2-0.8,2.5-1.6,3.7-2.4c0.8-0.5,1.6-0.7,2.5-0.5
				c1.5,0.5,3.1,0.9,4.6,1.5C72.8,165.7,72.9,165.8,73.1,165.9"/>
			<path fill="#CBDA2A" d="M69.3,170.7c1.1-1,2.2-1.9,3.2-2.7c0.5-0.4,1-0.7,1.4-1.1c0.5-0.4,1-0.5,1.5-0.4c1.6,0.2,3.3,0.4,5,0.6
				c0.1,0,0.2,0.1,0.5,0.1c-0.2,0.3-0.3,0.5-0.4,0.7c-0.4,0.4-0.8,0.8-1.2,1.2c-0.6,0.6-1.2,1.3-1.9,1.9c-0.9,0.8-1.9,1.3-3.2,1.1
				c-1.6-0.3-3.1-0.7-4.6-1.2C69.5,170.9,69.5,170.8,69.3,170.7"/>
			<path fill="#CBDA2A" d="M77.9,172.5c0.2-0.4,0.3-0.6,0.5-0.8c0.8-0.9,1.7-1.8,2.5-2.7c0.1-0.2,0.3-0.3,0.4-0.5
				c0.5-0.8,1.2-1,2.1-0.9c1.7,0.1,3.3,0.2,5,0.3c0.7,0,0.9,0.4,0.5,0.9c-1,1.3-2,2.5-3.3,3.5c-0.7,0.5-1.7,0.6-2.5,0.6
				c-1.4,0-2.8-0.1-4.2-0.2C78.6,172.7,78.4,172.6,77.9,172.5"/>
			<path fill="#CBDA2A" d="M97.1,168.3c0,0.2,0,0.2,0,0.3c-0.9,1.6-1.8,3.3-3.3,4.7c-0.5,0.5-1.2,0.7-1.8,0.7
				c-1.3-0.1-2.7-0.1-4-0.2c-0.6,0-1.1-0.2-1.8-0.3c0.2-0.3,0.4-0.5,0.5-0.7c0.9-1.1,1.8-2.3,2.8-3.4c0.6-0.7,1.3-1.2,2.3-1.2l1.2,0
				l1.2,0c0.8,0,1.6,0,2.4,0.1C96.7,168.2,96.9,168.3,97.1,168.3"/>
			<path fill="#CBDA2A" d="M95,174c0.7-1.3,1.5-2.4,2.3-3.6c0.3-0.5,0.7-1,1-1.5c0.3-0.5,0.8-0.8,1.3-0.9c1.6-0.3,3.2-0.6,4.8-1
				c0.1,0,0.2,0,0.5,0c0,0.3,0,0.6-0.1,0.8c-0.2,0.5-0.5,1-0.7,1.6c-0.4,0.8-0.8,1.6-1.2,2.4c-0.6,1.1-1.5,1.8-2.8,2
				c-1.6,0.2-3.2,0.3-4.7,0.3C95.2,174.1,95.2,174.1,95,174"/>
			<path fill="#CBDA2A" d="M103.8,173.2c0.1-0.4,0.1-0.7,0.2-0.9c0.5-1.1,1-2.3,1.5-3.4c0.1-0.2,0.2-0.4,0.2-0.6
				c0.2-0.9,0.8-1.4,1.5-1.6c1.5-0.5,3.1-1.1,4.6-1.7c0.6-0.3,1-0.1,0.8,0.7c-0.3,1.5-0.7,3.1-1.6,4.5c-0.5,0.8-1.3,1.2-2.2,1.5
				c-1.3,0.5-2.7,1-4.1,1.3C104.5,173.1,104.2,173.1,103.8,173.2"/>
			<path fill="#CBDA2A" d="M120.5,161.8c0,0.2,0.1,0.2,0.1,0.3c-0.5,1.9-0.8,3.8-1.5,5.5c-0.3,0.7-0.7,1.1-1.3,1.3
				c-1.2,0.5-2.5,1-3.7,1.5c-0.5,0.2-1.1,0.3-1.8,0.5c0.1-0.4,0.1-0.6,0.2-0.9c0.4-1.4,0.8-2.9,1.1-4.3c0.2-0.9,0.7-1.7,1.6-2
				c1.6-0.7,3.1-1.4,4.8-1.9C120.1,161.9,120.3,161.9,120.5,161.8"/>
			<path fill="#CBDA2A" d="M120.3,167.9c0.2-1.4,0.5-2.8,0.9-4.1c0.2-0.6,0.4-1.1,0.7-1.7c0.2-0.6,0.7-1,1.2-1.2
				c1.5-0.6,3.1-1.2,4.6-1.9c0.1-0.1,0.2-0.1,0.5-0.1c0,0.3,0.1,0.6,0,0.9c-0.1,0.6-0.2,1.1-0.4,1.7c-0.2,0.9-0.4,1.7-0.7,2.6
				c-0.4,1.2-1.1,2.1-2.3,2.5c-1.4,0.5-2.7,0.9-4.1,1.4C120.6,168,120.5,167.9,120.3,167.9"/>
			<path fill="#CBDA2A" d="M128.2,165.1c0-0.4,0-0.7,0-0.9c0.3-1.2,0.6-2.4,0.8-3.6c0-0.2,0.1-0.4,0.1-0.6c0-0.9,0.5-1.5,1.2-1.9
				c1.4-0.8,2.8-1.6,4.1-2.5c0.6-0.4,0.9-0.3,0.9,0.5c0,1.6-0.1,3.2-0.6,4.7c-0.3,0.9-1.1,1.4-1.8,1.9c-1.2,0.8-2.5,1.5-3.8,2.1
				C128.9,164.9,128.6,165,128.2,165.1"/>
			<path fill="#CBDA2A" d="M141.5,150.4c0.1,0.2,0.2,0.2,0.2,0.2c0.2,1.9,0.5,3.8,0.3,5.7c-0.1,0.7-0.4,1.2-1,1.7
				c-1.1,0.9-2.2,1.7-3.4,2.5c-0.5,0.3-1,0.5-1.7,0.9c0-0.4,0-0.7,0-0.9c0.1-1.5,0.2-3,0.2-4.4c0-0.9,0.3-1.7,1-2.3
				c1.2-1,2.5-2.2,3.9-3.1C141.1,150.6,141.3,150.5,141.5,150.4"/>
			<path fill="#CBDA2A" d="M143.2,156.2c-0.3-1.4-0.4-2.8-0.4-4.2c0-0.6,0-1.2,0-1.8c0-0.6,0.2-1.1,0.6-1.5c1.2-1.2,2.4-2.3,3.6-3.5
				c0.1-0.1,0.2-0.2,0.4-0.3c0.1,0.3,0.3,0.5,0.3,0.8c0.1,0.6,0.2,1.1,0.3,1.7c0.1,0.9,0.2,1.8,0.3,2.7c0.1,1.2-0.2,2.3-1.2,3.2
				c-1.1,1-2.3,2-3.5,2.9C143.5,156.2,143.4,156.2,143.2,156.2"/>
			<path fill="#CBDA2A" d="M149.8,150.6c-0.2-0.4-0.3-0.6-0.3-0.9c-0.2-1.2-0.4-2.4-0.6-3.6c0-0.2-0.1-0.4-0.1-0.6
				c-0.3-0.9-0.1-1.5,0.4-2.2c1-1.2,2-2.5,2.8-3.8c0.4-0.6,0.8-0.6,1,0.1c0.3,0.7,0.6,1.5,0.8,2.2c0.2,0.8,0.4,1.6,0.4,2.4
				c0,0.9-0.5,1.7-1,2.5c-0.8,1.2-1.8,2.3-2.8,3.4C150.3,150.2,150.1,150.4,149.8,150.6"/>
			<path fill="#CBDA2A" d="M157.1,131.6c0.1,0.1,0.2,0.1,0.2,0.2c0.8,1.7,1.8,3.4,2.2,5.3c0.2,0.7,0.1,1.3-0.3,1.9l-1,1.7
				c-0.4,0.6-0.7,1.2-1.1,1.8c-0.3,0.5-0.8,0.9-1.2,1.5c-0.1-0.4-0.2-0.6-0.3-0.9c-0.4-1.4-1-2.8-1.5-4.1c-0.3-0.8-0.5-1.7,0-2.5
				c0.8-1.5,1.6-3,2.6-4.4C156.7,131.9,156.9,131.8,157.1,131.6"/>
			<path fill="#CBDA2A" d="M157,131.7c0.1,0.1,0.2,0.1,0.2,0.2c0.8,1.7,1.8,3.4,2.2,5.3c0.2,0.7,0.1,1.3-0.3,1.9
				c-0.3,0.6-0.6,1.1-1,1.8c-0.4,0.6-0.7,1.2-1.1,1.8c-0.3,0.5-0.8,0.9-1.2,1.5c-0.1-0.4-0.2-0.6-0.3-0.9c-0.4-1.4-1-2.8-1.5-4.2
				c-0.3-0.8-0.5-1.7,0-2.5c0.8-1.5,1.6-3,2.6-4.4C156.7,132,156.8,131.9,157,131.7"/>
		</g>
	</g>
</g>
<g>
	<defs>
		<circle id="SVGID_3_" cx="92.6" cy="90.4" r="77.1"/>
	</defs>
	<clipPath id="SVGID_4_">
		<use xlink:href="#SVGID_3_"  overflow="visible"/>
	</clipPath>
	<g clip-path="url(#SVGID_4_)">
		<path fill="#2C446C" d="M123.8,183.9h-1.9c-7.5,0-13.7-6.2-13.7-13.7v-45.4c0-7.5,6.2-13.7,13.7-13.7h1.9
			c7.5,0,13.7,6.2,13.7,13.7v45.4C137.5,177.7,131.4,183.9,123.8,183.9z"/>
		<g>
			<path fill="#2C446C" d="M160,133.6L160,133.6c-5.6,0-10.1,5.9-10.1,13v19.6c0,7.2,4.5,13,10.1,13h0c0.2,0,0.4,0,0.6,0v-45.6
				C160.5,133.6,160.3,133.6,160,133.6z"/>
			<path fill="#233955" d="M160.7,133.6v45.6c5.3-0.4,9.5-6.1,9.5-13v-19.6C170.1,139.7,165.9,134,160.7,133.6z"/>
			<path fill="#2C446C" d="M160.7,113.1c-2.9,0-5.2,3-5.2,6.8v6.7c0,3.7,2.4,6.8,5.2,6.8l0,0V113.1L160.7,113.1z"/>
			<path fill="#233955" d="M165.9,126.6v-6.7c0-3.7-2.4-6.8-5.2-6.8h0v20.2h0C163.6,133.3,165.9,130.3,165.9,126.6z"/>
		</g>
		<g>
			<path fill="#2C446C" d="M142,124.9L142,124.9c-7.5,0-13.6,7.9-13.6,17.6v26.4c0,9.7,6.1,17.6,13.6,17.6h0c0.3,0,0.6,0,0.8,0V125
				C142.6,124.9,142.3,124.9,142,124.9z"/>
			<path fill="#233955" d="M142.9,125v61.6c7.1-0.6,12.8-8.3,12.8-17.6v-26.4C155.7,133.2,150,125.5,142.9,125z"/>
			<path fill="#233955" d="M149.9,115.6v-11.8c0-4.3-2.7-7.8-6-7.8h-1.1v27.3h1.1C147.2,123.4,149.9,119.9,149.9,115.6z"/>
			<path fill="#2C446C" d="M141.8,96.1c-3.3,0-6,3.5-6,7.8v11.8c0,4.3,2.7,7.8,6,7.8h1.1V96.1H141.8z"/>
		</g>
		<g>
			<path fill="#2C446C" d="M78.1,130.3L78.1,130.3c5.5,0,9.9,5.9,9.9,13v19.6c0,7.2-4.5,13-9.9,13h0c-0.2,0-0.4,0-0.6,0v-45.6
				C77.7,130.3,77.9,130.3,78.1,130.3z"/>
			<path fill="#233955" d="M77.5,130.3v45.6c-5.2-0.4-9.3-6.1-9.3-13v-19.6C68.1,136.4,72.3,130.7,77.5,130.3z"/>
			<path fill="#2C446C" d="M77.5,109.8c2.8,0,5.2,3,5.2,6.8v6.7c0,3.7-2.3,6.8-5.2,6.8l0,0V109.8L77.5,109.8z"/>
			<path fill="#233955" d="M72.3,123.3v-6.7c0-3.7,2.3-6.8,5.2-6.8h0V130h0C74.6,130,72.3,127,72.3,123.3z"/>
		</g>
		<g>
			<path fill="#2C446C" d="M95.8,121.6L95.8,121.6c7.4,0,13.4,7.9,13.4,17.6v26.4c0,9.7-6,17.6-13.4,17.6h0c-0.3,0-0.6,0-0.8,0
				v-61.6C95.3,121.6,95.5,121.6,95.8,121.6z"/>
			<path fill="#233955" d="M95,121.6v61.6c-7-0.6-12.6-8.3-12.6-17.6v-26.4C82.4,129.9,88,122.2,95,121.6z"/>
			<path fill="#233955" d="M88,112.3v-11.8c0-4.3,2.7-7.8,5.9-7.8H95v27.3h-1.1C90.7,120.1,88,116.6,88,112.3z"/>
			<path fill="#2C446C" d="M96.1,92.8c3.3,0,5.9,3.5,5.9,7.8v11.8c0,4.3-2.7,7.8-5.9,7.8H95V92.8H96.1z"/>
		</g>
		<g>
			<path fill="#2C446C" d="M43.4,128.2L43.4,128.2c5.5,0,9.9,5.9,9.9,13v19.6c0,7.2-4.5,13-9.9,13h0c-0.2,0-0.4,0-0.6,0v-45.6
				C43,128.2,43.2,128.2,43.4,128.2z"/>
			<path fill="#233955" d="M42.8,128.2v45.6c-5.2-0.4-9.3-6.1-9.3-13v-19.6C33.5,134.3,37.6,128.6,42.8,128.2z"/>
			<path fill="#2C446C" d="M42.8,107.7c2.8,0,5.2,3,5.2,6.8v6.7c0,3.7-2.3,6.8-5.2,6.8h0L42.8,107.7L42.8,107.7z"/>
			<path fill="#233955" d="M37.6,121.1v-6.7c0-3.7,2.3-6.8,5.2-6.8h0v20.2h0C40,127.9,37.6,124.9,37.6,121.1z"/>
		</g>
		<g>
			<path fill="#2C446C" d="M61.2,119.5L61.2,119.5c7.4,0,13.4,7.9,13.4,17.6v26.4c0,9.7-6,17.6-13.4,17.6h0c-0.3,0-0.6,0-0.8,0
				v-61.6C60.6,119.5,60.9,119.5,61.2,119.5z"/>
			<path fill="#233955" d="M60.3,119.5v61.6c-7-0.6-12.6-8.3-12.6-17.6v-26.4C47.7,127.8,53.3,120.1,60.3,119.5z"/>
			<path fill="#233955" d="M53.4,110.2V98.4c0-4.3,2.7-7.8,5.9-7.8h1.1V118h-1.1C56,118,53.4,114.5,53.4,110.2z"/>
			<path fill="#2C446C" d="M61.4,90.7c3.3,0,5.9,3.5,5.9,7.8v11.8c0,4.3-2.7,7.8-5.9,7.8h-1.1V90.7H61.4z"/>
		</g>
		<g>
			<path fill="#2C446C" d="M19.7,140.4L19.7,140.4c3.9,0,7.2,4.2,7.2,9.4v14.1c0,5.2-3.2,9.4-7.2,9.4h0c-0.1,0-0.3,0-0.4,0v-32.8
				C19.4,140.4,19.5,140.4,19.7,140.4z"/>
			<path fill="#233955" d="M19.2,140.4v32.8c-3.7-0.3-6.7-4.4-6.7-9.4v-14.1C12.5,144.8,15.5,140.7,19.2,140.4z"/>
			<path fill="#2C446C" d="M19.2,125.7c2,0,3.7,2.2,3.7,4.9v4.8c0,2.7-1.7,4.9-3.7,4.9h0L19.2,125.7L19.2,125.7z"/>
			<path fill="#233955" d="M15.5,135.3v-4.8c0-2.7,1.7-4.9,3.7-4.9h0v14.5h0C17.2,140.2,15.5,138,15.5,135.3z"/>
		</g>
		<g>
			<path fill="#2C446C" d="M32.5,134.1L32.5,134.1c5.3,0,9.7,5.7,9.7,12.7v19c0,7-4.3,12.7-9.7,12.7h0c-0.2,0-0.4,0-0.6,0v-44.3
				C32.1,134.1,32.3,134.1,32.5,134.1z"/>
			<path fill="#233955" d="M31.9,134.2v44.3c-5-0.4-9.1-5.9-9.1-12.6v-19C22.8,140.1,26.8,134.6,31.9,134.2z"/>
			<path fill="#233955" d="M26.8,127.5V119c0-3.1,1.9-5.6,4.3-5.6h0.8V133h-0.8C28.8,133,26.8,130.5,26.8,127.5z"/>
			<path fill="#2C446C" d="M32.6,113.4c2.3,0,4.3,2.5,4.3,5.6v8.5c0,3.1-1.9,5.6-4.3,5.6h-0.8v-19.6H32.6z"/>
		</g>
	</g>
	<path clip-path="url(#SVGID_4_)" fill="#008C95" d="M71.1,136.9l0.9,1.9c0,0,2.4,0.2,2.7,0s0.7,0,0.7,0v-1.9H71.1z"/>
	<path clip-path="url(#SVGID_4_)" fill="#8FA2AC" d="M86.6,139.7l0.9,1.9c0,0,2.4,0.2,2.7,0c0.4-0.2,0.7,0,0.7,0l0.6-1.9H86.6z"/>
	<path clip-path="url(#SVGID_4_)" fill="#DFA780" d="M74.7,140.4c0,0,0.8,3.6,0.3,5c-0.4,1.4-1.2,2.6-1.2,2.6H73l-0.8,0.7
		c-0.8-0.5,0-1.4,0-1.4s1.1-1.4,0.8-2.8c-0.1-0.4-1.1-0.7-1.1,0c-0.1,0.8,0,1.5,0,1.5l-0.6,0.2c0,0-0.4-1.5-0.6-2.8
		c-0.1-1.3,1.1-3.3,1.4-3.8c0.2-0.5,0.9-2.1,0.9-2.1s1.3,0.4,1.6,0.9S74.7,140.4,74.7,140.4z"/>
	<path clip-path="url(#SVGID_4_)" fill="#DFA780" d="M87.6,141.8c0,0-0.8,3.6-0.3,5c0.4,1.4,1.2,2.6,1.2,2.6h0.9l0.8,0.7
		c0.8-0.5,0-1.4,0-1.4s-1.1-1.4-0.8-2.8c0.1-0.4,1.1-0.7,1.1,0c0.1,0.8,0,1.5,0,1.5l0.6,0.2c0,0,0.4-1.5,0.6-2.8
		c0.1-1.3-1.1-3.3-1.4-3.8c-0.2-0.5-0.9-2.1-0.9-2.1s-1.3,0.4-1.6,0.9S87.6,141.8,87.6,141.8z"/>
	<polygon clip-path="url(#SVGID_4_)" fill="#32383C" points="121.3,139.2 123.8,169.5 116.9,169.5 112.1,149 109.8,148.7 109.5,176 
		102.6,176 100.5,138.8 	"/>
	<path clip-path="url(#SVGID_4_)" fill="#B7C7D3" d="M91.6,119.8c0,0-1.2,20.7-1.5,21.1c-0.3,0.4-2.8,0-2.8,0l-1.5-21.3
		c0,0,1.8-2.7,3.9-2.3C91.7,117.7,91.6,119.8,91.6,119.8z"/>
	<path clip-path="url(#SVGID_4_)" fill="#B7C7D3" d="M85.9,118.9c0.4-0.8,8-23.2,8-23.2s6.2-0.1,7,5.4s-9.2,19.3-11,20.6
		S85.3,120.1,85.9,118.9z"/>
	<path clip-path="url(#SVGID_4_)" fill="#008C95" d="M70.5,120.9c0,0,1.5,17.4,1.8,17.8c0.3,0.4,2.8,0,2.8,0l0.4-17.4
		c0,0-1-3.3-3.1-2.9C70.3,118.8,70.5,120.9,70.5,120.9z"/>
	<path clip-path="url(#SVGID_4_)" fill="#008C95" d="M75.2,120.6c-0.4-0.8-5-18.6-5-18.6s-3.5-2.2-4.4,3.3
		c-0.9,5.5,4.3,16.5,6.1,17.8C73.7,124.4,75.8,121.8,75.2,120.6z"/>
	<path clip-path="url(#SVGID_4_)" fill="#32383C" d="M53.4,129.4c0,0-6.4,4-6.3,10.1c0.1,10.6,5.6,22.1,5.6,22.1l16.2,10.1
		c0,0,1.6-28.4,1.6-31.6c0-3.2-5.5-10.2-5.5-10.2L53.4,129.4z"/>
	<path clip-path="url(#SVGID_4_)" fill="#573631" d="M53.5,69.4c0,0-11.2,4.3-7.3,16.9c1.4,4.4,6.1,6.7,8.7,6.6
		c0,0,9.1,0.5,19.3-3.3c-5.9-1.5-3.8-9.1-3.8-9.1L53.5,69.4z"/>
	<path clip-path="url(#SVGID_4_)" fill="#008C95" d="M52.8,99.7c0,0,5.8,4.9,6.4,4.7c0.6-0.1,3.4-3.8,3.4-3.8s-0.9-1.6-1-1.7
		c0-0.1,7.4,2.8,7.4,2.8l-2.3,4.5c0,0,3.4,6.1,2.4,8.1c-1,2-4,15.8-4,15.8s-3.2,1.7-6.2,1.2c-3-0.5-5.4-1.8-5.4-1.8s-0.7-3-1.6-7.1
		c-1.9-8.4-4.8-21.3-4.7-21.2C47.2,101.3,52.8,99.7,52.8,99.7z"/>
	<path clip-path="url(#SVGID_4_)" fill="#037F82" d="M59.2,104.4c0,0,3.7,5.3,3.5,8.2c-0.2,2.9-2,18.7-2,18.7l4.4-1.3
		c0,0,5.3-15.2,4.8-17.8c-0.6-2.6-2.5-6.2-2.5-6.2l1.7-4.4c0,0-7.7-3.5-7.6-3.1S59.2,104.4,59.2,104.4z"/>
	<path clip-path="url(#SVGID_4_)" fill="#DFA780" d="M54,90.9l-0.5,9.2c0,0,4.3,4.2,5.6,4.3s2.5-2.7,2.5-2.7S61.3,99,61,97.1
		c-0.3-1.8-0.4-4.2-0.4-4.2L54,90.9z"/>
	<path clip-path="url(#SVGID_4_)" fill="#573631" d="M70.5,78.8c0,5.9-5.9,10.8-11.8,10.8s-10.8-4.8-10.8-10.7
		c0-5.9,4.9-10.7,10.8-10.7S70.5,72.9,70.5,78.8z"/>
	<g clip-path="url(#SVGID_4_)">
		<defs>
			<path id="SVGID_5_" d="M61.9,94.8c0.6,0,5.9-3.8,5.9-8.5c0-1.1-0.9-3.4-0.9-3.4l-0.2-5.7c-0.2-1.7-2.5-4.8-4.8-5.5
				c-4.8-1.4-11.2,1.2-11.2,3.7c0,0-0.2,6,1.3,12.8C53.4,94.7,61.9,94.8,61.9,94.8z"/>
		</defs>
		<clipPath id="SVGID_6_">
			<use xlink:href="#SVGID_5_"  overflow="visible"/>
		</clipPath>
		<path clip-path="url(#SVGID_6_)" fill="#DFA780" d="M58.9,96.1l4.4-0.3c3.4,0,5.4-5.1,5.4-9.1V75.1c0-4-2.8-7.3-6.3-7.3h-3.9
			c-3.4,0-6.3,3.3-6.3,7.3v9.7C52.2,88.9,55.4,96.1,58.9,96.1z"/>
		<path clip-path="url(#SVGID_6_)" fill="#F3D8C1" d="M61.4,68.7c0,0,0,12,0,16.1c0,4.2-0.2,11.2-0.2,11.2s-3.2,0.5-4.9-0.3
			c-1.6-0.8-6.1-5.3-6.1-5.3S48,74,50,72.2s2.7-3.9,5.8-3.9S61.4,68.7,61.4,68.7z"/>
		<path clip-path="url(#SVGID_6_)" fill="#F3D8C1" d="M69.7,84.5C69.7,84.5,69.7,84.5,69.7,84.5c0.2,0,0.3-0.1,0.3-0.2
			c0-0.1-0.1-0.2-0.2-0.2c0,0,0,0,0,0c-0.1,0-0.2,0.1-0.2,0.2C69.5,84.4,69.6,84.5,69.7,84.5L69.7,84.5z"/>
	</g>
	<path clip-path="url(#SVGID_4_)" fill="#C68C6A" d="M62.1,82.7C62,82.4,62,82.1,62,81.8c0-1.7,0.8-3.1,2.6-3c1.4,0.1,2.1,1.3,2.1,3
		c0,0.3,0,0.6-0.1,0.9H62.1z"/>
	<path clip-path="url(#SVGID_4_)" fill="#FFFFFF" d="M64.1,84L64.1,84c0.7,0,1.2-0.6,1.2-1.2v-0.5c0-0.7-0.6-1.2-1.2-1.2h0
		c-0.7,0-1.2,0.6-1.2,1.2v0.5C62.9,83.5,63.4,84,64.1,84z"/>
	<g clip-path="url(#SVGID_4_)">
		<path fill="#6D7B6E" d="M64.5,82.4c0,0.6-0.4,1.2-0.8,1.2v-2.3C64.2,81.3,64.5,81.8,64.5,82.4z"/>
		<path fill="#4C574D" d="M63.7,81.3v2.3c-0.5,0-0.8-0.5-0.8-1.2C62.9,81.8,63.3,81.3,63.7,81.3z"/>
	</g>
	<path clip-path="url(#SVGID_4_)" fill="#573631" d="M64.4,84.1v-0.4c0.4,0,0.8-0.5,0.8-1.2c0-0.6-0.4-1.2-0.8-1.2h-0.5
		c-0.4,0-0.8,0.5-0.8,1.2h-0.4c0-0.9,0.5-1.6,1.2-1.6h0.5c0.6,0,1.2,0.7,1.2,1.6C65.6,83.4,65.1,84.1,64.4,84.1z"/>
	<path clip-path="url(#SVGID_4_)" fill="#573631" d="M65.3,82.1C65.3,82.1,65.3,82.1,65.3,82.1L65.2,82l0.3-0.1
		c0-0.1-0.1-0.1-0.1-0.1c0.1,0,0.5-0.2,0.9-0.3l0.1,0.3C65.6,82,65.4,82.1,65.3,82.1z"/>
	<path clip-path="url(#SVGID_4_)" fill="#573631" d="M62.8,79.3c0.3-0.5,1-0.5,1.2-0.5h0.8c0.5,0,0.8,0.1,1.1,0.5H62.8z"/>
	<path clip-path="url(#SVGID_4_)" fill="#DFA780" d="M59.8,82.7c0.1-0.3,0.2-0.6,0.2-1c0-1.8-1.3-3.3-3.9-3.3
		c-2.2,0.1-3.2,1.5-3.2,3.3c0,0.3,0,0.7,0.1,1H59.8z"/>
	<path clip-path="url(#SVGID_4_)" fill="#FFFFFF" d="M57.1,84.1h-0.5c-0.9,0-1.6-0.7-1.6-1.6l0,0c0-0.9,0.7-1.6,1.6-1.6h0.5
		c0.9,0,1.6,0.7,1.6,1.6l0,0C58.7,83.4,57.9,84.1,57.1,84.1z"/>
	<path clip-path="url(#SVGID_4_)" fill="#D7E2ED" d="M120.4,91.4c0.5-0.5,14.8,8.6,14.8,8.6s-11.1,21.5-13.2,27.1
		c-2.1,5.7-0.7,12-0.7,12l-13.7,1l-6.7,0.2l-6.2-26.2l-0.9-18.4l0.7-0.2l16.3-4.9L120.4,91.4z"/>
	<path clip-path="url(#SVGID_4_)" fill="#DFA780" d="M120.4,76.4c0.1,0-0.7,13.5-0.7,13.5s1.3,2.7,1.2,2.7
		c-0.3,0.1-10.1,7.4-10.1,7.4l-3.8-6.2l1.4-16.7L120.4,76.4z"/>
	<ellipse clip-path="url(#SVGID_4_)" fill="#6B6B6B" cx="111.5" cy="64.8" rx="8.9" ry="5.8"/>
	<g clip-path="url(#SVGID_4_)">
		<defs>
			<path id="SVGID_7_" d="M114.4,85.7c-0.1,0.1-0.8,0.9-1.5,1.3s-3.4,0.3-3.4,0.3c-0.6,0-1.6-1.8-1.6-1.8s-3.1-3.1-3.8-4
				c-0.4-0.5-0.6-1.9-0.6-2.1V67.1c0.5-5.6,17.4-4.1,17.4-0.3l-0.4,12.6C120.5,82.7,115.6,84.5,114.4,85.7z"/>
		</defs>
		<clipPath id="SVGID_8_">
			<use xlink:href="#SVGID_7_"  overflow="visible"/>
		</clipPath>
		<path clip-path="url(#SVGID_8_)" fill="#F3D8C1" d="M112,88.9l-4.6-0.3c-3.7,0-5.7-5.4-5.7-9.7V66.6c0-4.3,3-7.8,6.7-7.8h4.1
			c3.7,0,6.7,3.5,6.7,7.8v10.3C119,81.2,115.6,88.9,112,88.9z"/>
		<path clip-path="url(#SVGID_8_)" fill="#DFA780" d="M109.5,59.7c0,0,0,12.7,0,17.2c0,4.5,0.2,11.9,0.2,11.9s3.4,0.5,5.2-0.3
			c1.7-0.8,5.7-9.2,5.7-9.2s3.2-14,1.1-15.9c-2.1-1.9-2.8-4.2-6.1-4.2C112.2,59.3,109.5,59.7,109.5,59.7z"/>
		<path clip-path="url(#SVGID_8_)" fill="#CB8D69" d="M121.2,75.5c0.1-0.2-3.9,1.7-4.4,4.3c-0.3,1.7-1.7,7.4-1.7,7.4
			s6.4-6.7,6.4-8.1C121.4,77.8,121.2,75.5,121.2,75.5z"/>
		<path clip-path="url(#SVGID_8_)" fill="#CB8D69" d="M103.2,77.8c0,0,2.2,2.4,3.2,3.6s1.7,5.7,1.7,5.7s-4.1-3.5-4.3-3.8
			S103.2,77.8,103.2,77.8z"/>
		<path clip-path="url(#SVGID_8_)" fill="#F3D8C1" d="M100.7,76C100.7,76,100.7,76,100.7,76c-0.2,0-0.3,0.1-0.3,0.2s0.1,0.2,0.2,0.2
			c0,0,0,0,0,0c0.1,0,0.2-0.1,0.2-0.2S100.8,76,100.7,76L100.7,76z"/>
	</g>
	<path clip-path="url(#SVGID_4_)" fill="#CB8D69" d="M111.2,70.9l-0.3,1.6v0.9l5.5-0.1c0,0,0.8-1.2,1-1.8c0.2-0.6,0-1.4,0-1.4
		L111.2,70.9z"/>
	<polygon clip-path="url(#SVGID_4_)" fill="#CB8D69" points="109.2,72.7 108.7,70.9 103.5,70.9 104.2,72.8 	"/>
	<path clip-path="url(#SVGID_4_)" fill="#D1806D" d="M112.3,83.5h-3.8c-0.3,0-0.6-0.3-0.6-0.6v-0.3c0-0.3,0.3-0.6,0.6-0.6h3.8
		c0.3,0,0.6,0.3,0.6,0.6V83C112.9,83.3,112.6,83.5,112.3,83.5z"/>
	<path clip-path="url(#SVGID_4_)" fill="#D15568" d="M106.7,79.8"/>
	<polygon clip-path="url(#SVGID_4_)" fill="#FFFFFF" points="112.8,82.6 107.9,82.6 107,80.7 113.4,80.7 114,80.2 	"/>
	<path clip-path="url(#SVGID_4_)" fill="#C47164" d="M109.2,80.6c0,0-0.4-0.5-1.2-0.4c-0.8,0.1-1.2,0.4-1.2,0.4H109.2z"/>
	<path clip-path="url(#SVGID_4_)" fill="#C47164" d="M109.5,80.6c0,0,0.7-0.5,1.9-0.4c1.3,0.1,2,0.4,2,0.4H109.5z"/>
	<path clip-path="url(#SVGID_4_)" fill="#50232C" d="M113.5,80.9H107c-0.4,0-0.5-0.5-0.5-0.6l0.3,0c0,0.1,0.1,0.4,0.2,0.4h6.4
		c0.1-0.1,0.4-0.3,0.5-0.4l0.3,0.1C114,80.6,113.6,80.8,113.5,80.9L113.5,80.9z"/>
	<path clip-path="url(#SVGID_4_)" fill="#E7B4AC" d="M111.1,83h-2.3c-0.1,0-0.1,0-0.1-0.1l0,0c0-0.1,0-0.1,0.1-0.1h2.3
		c0.1,0,0.1,0,0.1,0.1l0,0C111.2,83,111.1,83,111.1,83z"/>
	<path clip-path="url(#SVGID_4_)" fill="#6B6B6B" d="M116.5,71l0-0.4c0-0.7-0.7-1.3-1.5-1.3l-3,0c-0.8,0-1.5,0.6-1.4,1.3l0,0.4
		L116.5,71z"/>
	<path clip-path="url(#SVGID_4_)" fill="#6B6B6B" d="M108.9,83.5l0,0.2c0,0.3,0.3,0.6,0.7,0.6l1.5,0c0.4,0,0.7-0.3,0.7-0.6l0-0.2
		L108.9,83.5z"/>
	<g clip-path="url(#SVGID_4_)">
		<path fill="#FFFFFF" d="M115.6,73.4V73c0-0.7-0.6-1.3-1.2-1.3h-1c-0.7,0-1.2,0.6-1.2,1.3v0.4H115.6z"/>
		<path fill="#FFFFFF" d="M115.6,73.5h-3.6V73c0-0.8,0.6-1.4,1.3-1.4h1c0.7,0,1.3,0.6,1.3,1.4V73.5z M112.2,73.4h3.4V73
			c0-0.7-0.5-1.3-1.2-1.3h-1c-0.7,0-1.2,0.6-1.2,1.3V73.4z"/>
	</g>
	<path clip-path="url(#SVGID_4_)" fill="#573631" d="M115.7,73.3h-0.3v-0.4c0-0.7-0.5-1.2-1.1-1.2h-1c-0.6,0-1.1,0.5-1.1,1.2H112
		c0-0.8,0.6-1.5,1.4-1.5h1c0.8,0,1.4,0.7,1.4,1.5V73.3z"/>
	<path clip-path="url(#SVGID_4_)" fill="#6B6B6B" d="M108.1,71v-0.4c0-0.7-0.6-1.3-1.3-1.3h-2.7c-0.7,0-1.3,0.6-1.3,1.3V71H108.1z"
		/>
	<g clip-path="url(#SVGID_4_)">
		<path fill="#6D7B6E" d="M113.4,72.6c0,0.5,0.4,1,1,1v-1.9C113.8,71.7,113.4,72.1,113.4,72.6z"/>
		<path fill="#4C574D" d="M114.4,71.7v1.9c0.5,0,1-0.4,1-1S114.9,71.7,114.4,71.7z"/>
	</g>
	<g clip-path="url(#SVGID_4_)">
		<path fill="#6D7B6E" d="M55.1,82.5c0,0.7,0.6,1.3,1.3,1.3v-2.5C55.6,81.2,55.1,81.8,55.1,82.5z"/>
		<path fill="#4C574D" d="M56.3,81.2v2.5c0.7,0,1.3-0.6,1.3-1.3C57.6,81.8,57,81.2,56.3,81.2z"/>
	</g>
	<g clip-path="url(#SVGID_4_)">
		<path fill="#FFFFFF" d="M108.3,73.4V73c0-0.7-0.6-1.3-1.2-1.3h-1c-0.7,0-1.2,0.6-1.2,1.3v0.4H108.3z"/>
		<path fill="#FFFFFF" d="M108.4,73.4h-3.6V73c0-0.8,0.6-1.4,1.3-1.4h1c0.7,0,1.3,0.6,1.3,1.4V73.4z M104.9,73.3h3.4V73
			c0-0.7-0.5-1.3-1.2-1.3h-1c-0.7,0-1.2,0.6-1.2,1.3V73.3z"/>
	</g>
	<path clip-path="url(#SVGID_4_)" fill="#573631" d="M108.4,73.3h-0.3v-0.4c0-0.7-0.5-1.2-1.1-1.2h-1c-0.6,0-1.1,0.5-1.1,1.2h-0.3
		c0-0.8,0.6-1.5,1.4-1.5h1c0.8,0,1.4,0.7,1.4,1.5V73.3z"/>
	<g clip-path="url(#SVGID_4_)">
		<path fill="#6D7B6E" d="M106,72.6c0,0.5,0.4,1,1,1v-1.9C106.4,71.7,106,72.1,106,72.6z"/>
		<path fill="#4C574D" d="M106.9,71.7v1.9c0.5,0,1-0.4,1-1S107.5,71.7,106.9,71.7z"/>
	</g>
	<path clip-path="url(#SVGID_4_)" fill="#CB8D69" d="M115.5,73.8H112c-0.2,0-0.3-0.1-0.3-0.3v-0.3h4v0.3
		C115.7,73.7,115.6,73.8,115.5,73.8z"/>
	<path clip-path="url(#SVGID_4_)" fill="#CB8D69" d="M108.1,73.8H105c-0.2,0-0.3-0.1-0.3-0.3v-0.3h3.7v0.3
		C108.4,73.7,108.3,73.8,108.1,73.8z"/>
	<path clip-path="url(#SVGID_4_)" fill="#6B6B6B" d="M118.7,58.9c-1-1.3-2.6-2.2-4.4-2.2c-2.9,0-5.2,2.2-5.6,5L118.7,58.9z"/>
	<path clip-path="url(#SVGID_4_)" fill="#6B6B6B" d="M107.6,61.7c0,0,1.8,3,3.3,4.1c1.4,1.1,3.5,1.4,3.5,1.4s-2.3-4.3-2.7-5.8
		L107.6,61.7z"/>
	<path clip-path="url(#SVGID_4_)" fill="#6B6B6B" d="M109.7,61.6c0,0,3.4,3.6,5.2,3.8c1.8,0.3,3.8-0.2,3.8-0.2s-4-1.7-5-2.8
		L109.7,61.6z"/>
	<path clip-path="url(#SVGID_4_)" fill="#CB8D69" d="M121.6,70.1c0,0-1.4-0.1-1.4,2.1c0,2.2-0.5,5-0.5,5h1.3c0.6,0,1.4-0.7,1.4-1.3
		l0.3-4.6C122.7,70.6,122.2,70.1,121.6,70.1z"/>
	<path clip-path="url(#SVGID_4_)" fill="#6B6B6B" d="M118.7,75c0,0,1.9,0,1.8,0s0-3,0-3.6s0.5-1.3,0.5-1.3l1,0.1
		c0,0,0.9-3.2,0.5-4.8c-0.4-1.6-1.2-2.8-1.2-2.8l1.3,0.6c0,0-0.7-1.7-2.3-2.8c-2.8-2-6.6-2.2-6.6-2.2l-6.2,3.5l8,3
		c0,0,2.8-0.1,3.5,1c0.9,1.5-0.6,3.4-0.6,3.4L118.7,75z"/>
	<path clip-path="url(#SVGID_4_)" fill="#6B6B6B" d="M114.1,78.9c-0.9,0-2.1,0-2.3,0l-3.2-0.5l-0.6,0.4l-1.5,0c-0.5,0-1,0.4-1,1V80
		l-0.1,3.1l2.1,2.3c0,0,0.4,0.5,1.1,1.4c0.7,1,2.3,1,3.8,0.6c1.5-0.4,1.7-1.3,2.2-1.8c0.4-0.5,0.7-0.5,0.7-0.5v-3.2v-0.9v-0.8
		C115.3,79.5,114.8,78.9,114.1,78.9z M112.2,85.9c-1.2,1.1-1.5,0-1.5,0v-2.1l-0.9,0.1c0,0,0.2,1.3-0.1,2c-0.3,0.7-1.3-0.5-1.3-0.5
		l-2.3-4.7c-0.1-0.3,0.1-0.6,0.4-0.6h7.5c0.4,0,0.7,0.4,0.5,0.7C113.9,82.3,112.7,85.4,112.2,85.9z"/>
	<path clip-path="url(#SVGID_4_)" fill="#C77265" d="M111.2,76.3c0,0,1.1,0,1,1.7c0,0.5-2.8,1.9-2.8,1.9L111.2,76.3z"/>
	<path clip-path="url(#SVGID_4_)" fill="#B4625B" d="M108.4,76.3c0,0-1.1,0-1,1.7c0,0.5,2.6,1.3,2.6,1.3L108.4,76.3z"/>
	<path clip-path="url(#SVGID_4_)" fill="#C77265" d="M109,72.5h1.9l0.5,5.3c0,0-0.7,2.1-1.9,2.1c-1.9,0-1.9-1.6-1.9-1.6L109,72.5z"
		/>
	<path clip-path="url(#SVGID_4_)" fill="#E19E9B" d="M109.2,72.5c0,0-0.7,4.1-1,6.2c-0.1,0.6,0.8,0.9,0.9,0.3
		c0.3-2.1,1.3-6.4,0.8-6.4C109.5,72.5,109.3,71.9,109.2,72.5L109.2,72.5z"/>
	<g clip-path="url(#SVGID_4_)">
		<path fill="#50232C" d="M110.5,79.2c0.1,0,0.1-0.7,0.5-0.8c0.4-0.2,0.7,0.1,0.4,0.1c0,0-0.4,0-0.5,0.2S110.6,79.2,110.5,79.2
			L110.5,79.2z"/>
	</g>
	<path clip-path="url(#SVGID_4_)" fill="#ECF6FC" d="M107.3,90.9c0,0,0.2,3.8,1.6,6c0.9,1.3,2.3,3.5,2.3,3.5l-2.3-1.6l-0.8,2.3
		c0,0-3.5-8.7-3.4-8.7S107.3,90.9,107.3,90.9z"/>
	<polygon clip-path="url(#SVGID_4_)" fill="#B7C7D3" points="111.2,100.4 108.4,115.7 107.6,140.2 121.3,139.5 123,128.4 
		135.3,100.1 122,91.8 	"/>
	<polygon clip-path="url(#SVGID_4_)" fill="#ECF6FC" points="120.4,90.6 110.9,100.1 112.9,99.6 114.2,102.2 122,91.8 	"/>
	<path clip-path="url(#SVGID_4_)" fill="#D7E2ED" d="M130.2,99.7c0,0-4.3,4.3-2.3,9.4c2,5.1,9.1,17.3,9.1,17.3s6.9,0.2,7-0.2
		c0.1-0.4-4.7-18.7-5-19.6C138.6,105.8,135.9,95.8,130.2,99.7z"/>
	<path clip-path="url(#SVGID_4_)" fill="#573631" d="M56.3,84.2c-0.9,0-1.7-0.7-1.7-1.7s0.7-1.7,1.7-1.7h0.8c0.9,0,1.7,0.7,1.7,1.7
		h-0.4c0-0.7-0.6-1.3-1.3-1.3h-0.8c-0.7,0-1.3,0.6-1.3,1.3s0.6,1.3,1.3,1.3V84.2z"/>
	<path clip-path="url(#SVGID_4_)" fill="#573631" d="M55,82c-0.2,0-0.5-0.1-1.5-0.4l0.1-0.3c0.6,0.2,1.3,0.3,1.4,0.3
		c0,0-0.1,0-0.1,0.1l0.3,0.1C55.1,82,55,82,55,82z"/>
	<polygon clip-path="url(#SVGID_4_)" fill="#C77265" points="62.3,81.2 63.2,86.6 60.7,86.7 60.7,81.2 	"/>
	<ellipse clip-path="url(#SVGID_4_)" fill="#C77265" cx="62.3" cy="86" rx="1.4" ry="1.2"/>
	<ellipse clip-path="url(#SVGID_4_)" fill="#C77265" cx="60.4" cy="86.2" rx="0.5" ry="0.7"/>
	<path clip-path="url(#SVGID_4_)" fill="#573631" d="M58.7,79.1c-0.5-0.5-1.5-0.6-1.8-0.6h-1.2c-0.8,0-1.2,0.1-1.6,0.6H58.7z"/>
	<path clip-path="url(#SVGID_4_)" fill="#B95748" d="M63.4,91.1h-3c-0.3,0-1-0.2-1.4-0.7l-1.1-1.3c0-0.3,1.6,0.6,1.9,0.6h3.6
		c0.3,0,0.5,0.2,0.5,0.5v0.3C63.9,90.8,63.7,91.1,63.4,91.1z"/>
	<path clip-path="url(#SVGID_4_)" fill="#E7B4AC" d="M63.2,90.6h-1.1c-0.1,0-0.2-0.1-0.2-0.2l0,0c0-0.1,0.1-0.2,0.2-0.2h1.1
		c0.1,0,0.2,0.1,0.2,0.2l0,0C63.5,90.5,63.4,90.6,63.2,90.6z"/>
	<path clip-path="url(#SVGID_4_)" fill="#9E4038" d="M57.5,88.6c0,0.4,1.6,1.2,1.6,1.2h4.8l0.6-0.9h-1.7l-0.9,0.4
		c0,0-0.4-0.3-0.5-0.4C61.3,88.7,58.7,89.3,57.5,88.6z"/>
	<circle clip-path="url(#SVGID_4_)" fill="#DC8A83" cx="62.5" cy="85.7" r="0.6"/>
	<path clip-path="url(#SVGID_4_)" fill="#F3D8C1" d="M51.2,86.4l-0.5,0.1c-0.6,0.1-1.2-0.2-1.4-0.8L48.6,83
		c-0.1-0.6,0.2-1.2,0.8-1.4l0.5-0.1c0.6-0.1,1.2,0.2,1.4,0.8l0.7,2.7C52.1,85.7,51.8,86.3,51.2,86.4z"/>
	<path clip-path="url(#SVGID_4_)" fill="#573631" d="M62.3,71c0,0-0.9,3.9-4.8,5.8s-8.6,0.3-8.6,0.3l1.1-3.7
		C50.1,73.4,55.3,68.8,62.3,71z"/>
	<path clip-path="url(#SVGID_4_)" fill="#573631" d="M52.8,76.7c0,0-1,4.2-1.1,5.5c-0.1,1.3,0,1.9,0,1.9l-0.6-0.3l-1.4-6.4
		L52.8,76.7z"/>
	<g clip-path="url(#SVGID_4_)">
		<path fill="#C43C2F" d="M49.8,87.1c0-0.6,0.5-1.2,1.2-1.2c0,0,0,0,0,0c-0.2-0.1-0.4-0.2-0.7-0.2c-0.6,0-1.2,0.5-1.2,1.2
			c0,0.6,0.5,1.1,1.1,1.2C50,87.8,49.8,87.5,49.8,87.1z"/>
		<path fill="#A2262A" d="M51.5,86.9c0-0.4-0.2-0.7-0.5-0.9c0,0,0,0,0,0c-0.6,0-1.2,0.5-1.2,1.2c0,0.4,0.2,0.7,0.5,0.9c0,0,0,0,0,0
			C50.9,88,51.5,87.5,51.5,86.9z"/>
	</g>
	<path clip-path="url(#SVGID_4_)" fill="#573631" d="M61.9,71.5c0,0.2,0.4,2.8,2.2,4.5c1.8,1.8,4.4,1.9,4.4,1.9s-0.6-4.1-2.2-5.5
		C64.6,71,61.9,71.5,61.9,71.5z"/>
	<path clip-path="url(#SVGID_4_)" fill="#08ABAF" d="M49.6,100.7c0,0,1.8,7.1-0.3,10.3c-2,3.2-8.7,11.6-8.7,11.6l-3.4-2.1
		c0,0,3.1-12.2,7.8-18.2C46.9,99.9,48.7,100.5,49.6,100.7z"/>
	<polygon clip-path="url(#SVGID_4_)" fill="#08ABAF" points="53.5,98.8 59.2,104.4 57.9,104.4 57.5,106.3 51.3,100.1 	"/>
	<path clip-path="url(#SVGID_4_)" fill="#08ABAF" d="M59.2,104.4c0,0,1.6-2.2,1.9-3.3c0.3-1.1,0.4-2.6,0.4-2.6l0.9,0.3l-0.3,6
		l-2-0.6l-0.4,0.8L59.2,104.4z"/>
	<circle clip-path="url(#SVGID_4_)" fill="#B7C7D3" cx="61.6" cy="111.7" r="0.6"/>
	<circle clip-path="url(#SVGID_4_)" fill="#B7C7D3" cx="61" cy="118.9" r="0.6"/>
	<circle clip-path="url(#SVGID_4_)" fill="#B7C7D3" cx="108.7" cy="104.4" r="0.6"/>
	<circle clip-path="url(#SVGID_4_)" fill="#B7C7D3" cx="108.1" cy="111.6" r="0.6"/>
	<circle clip-path="url(#SVGID_4_)" fill="#B7C7D3" cx="107" cy="124.3" r="0.6"/>
	<circle clip-path="url(#SVGID_4_)" fill="#B7C7D3" cx="60.4" cy="127.3" r="0.6"/>
	<circle opacity="0.34" clip-path="url(#SVGID_4_)" fill="#DC8A83" cx="54.4" cy="85.6" r="0.8"/>
	<circle opacity="0.66" clip-path="url(#SVGID_4_)" fill="#DC8A83" cx="66.2" cy="85.7" r="0.8"/>
	<g clip-path="url(#SVGID_4_)">
		<path fill="#DFA780" d="M121.6,137.6c0,0,1.2,0,2.1,0c0.9,0,3,1.7,3,1.7l-5.3,0.8L121.6,137.6z"/>
		<path fill="#CB8D69" d="M118,140.5c0,0.2,0.2,0.9,0.2,0.9s2,0,2-0.1s-0.1-2-0.1-2L118,140.5z"/>
		<path fill="#CB8D69" d="M119,141.5c0,0.2,0.4,0.9,0.4,0.9s2,0,2-0.1c0-0.2-0.4-1.7-0.4-1.7L119,141.5z"/>
		<path fill="#CB8D69" d="M119.4,142.3c0,0.2,1.8,2.3,1.8,2.3s2-0.1,2-0.3s-2.1-2.7-2.1-2.7L119.4,142.3z"/>
		<path fill="#DFA780" d="M120.1,139.3c0.1,0.1-0.2,2,0.6,3.2c0.8,1.2,2.2,2.1,2.2,2.1s3.5-2.2,4-2.9s0.1-2.4-0.5-2.8
			C125.8,138.4,120.1,139.3,120.1,139.3z"/>
		<path fill="#DFA780" d="M124.5,139.1l3.4-1.5c0,0,1.1,0.9,1.1,1.9s0.3,0.8,0,1c-0.3,0.2-2.7,1.4-2.7,1.4L124.5,139.1z"/>
	</g>
	<g clip-path="url(#SVGID_4_)">
		<path fill="#D7E2ED" d="M127.9,136.8c0,0,5.4-11,6.6-12.5c1.2-1.5,5-1.1,6.2-0.9c1.2,0.2,2.2,1.2,2.2,1.2s1.6,0.3,0.7,2.5
			c-0.9,2.3-14.1,13-14.1,13L127.9,136.8z"/>
		<path fill="#ECF6FC" d="M127.1,137.9c0,0,1,0,1.4,1s0.1,1.4,0.1,1.4l-0.2,0.5l2.2-0.6c0,0-0.1-1.3-0.9-2.5
			c-0.8-1.2-2.2-1.2-2.2-1.2L127.1,137.9z"/>
	</g>
	<g clip-path="url(#SVGID_4_)">
		<path fill="#DFA780" d="M49.6,133.5c0,0-0.6,0.2-1.4,0.2c-0.9,0-2.5,1.8-2.5,1.8l3-0.1L49.6,133.5z"/>
		<path fill="#CB8D69" d="M54.2,136.2c0,0.2-0.1,0.9-0.1,0.9s-2,0.2-2,0.1c0-0.2-0.1-2-0.1-2L54.2,136.2z"/>
		<path fill="#CB8D69" d="M53,138.1c0,0.2-1.6,2.5-1.6,2.5s-2,0.1-2-0.1c0-0.1,1.9-2.8,1.9-2.8L53,138.1z"/>
		<path fill="#DFA780" d="M52,135.1c-0.1,0.1,0.4,1.9-0.3,3.2c-0.7,1.3-1.9,2.3-1.9,2.3s-3.7-1.8-4.3-2.5c-0.6-0.6-0.3-2.4,0.2-2.9
			C46.3,134.8,52,135.1,52,135.1z"/>
		<path fill="#DFA780" d="M46.1,134.9l-1-1.6c0,0-2,1.9-1.9,2.9c0.1,1-0.3-0.2,0,0c0.3,0.2,2.3,1.9,2.3,1.9L46.1,134.9z"/>
		<path fill="#08ABAF" d="M45.2,134.1c0,0-1.7-9.6-2.5-11.3s-1.5-4.5-2.7-4.7c-1.2-0.2-2.4,0.6-2.4,0.6s-0.9,2.7-0.2,5
			c1.1,3.6,5.8,12.5,5.8,12.5L45.2,134.1z"/>
		<path fill="#08ABAF" d="M46.2,134.8c0,0-1-0.3-1.6,0.5c-0.7,0.8-0.8,1.3-0.8,1.3l0.2,0.7l-1.8-1.4c0,0,0.4-1.2,1.5-2.1
			c1.1-0.9,2.5-0.5,2.5-0.5L46.2,134.8z"/>
	</g>
	<path clip-path="url(#SVGID_4_)" fill="#939494" d="M116.5,58.7c1.3,0.1,2.4,0.6,3.3,1.4l0.1,0c-1-1.3-2.6-2.2-4.4-2.2
		c-2.9,0-5.2,2.2-5.6,5l0,0C110.7,60.2,113.4,58.4,116.5,58.7z"/>
	<path clip-path="url(#SVGID_4_)" fill="#858585" d="M122.6,63.2C122.5,63.2,122.5,63.1,122.6,63.2c-0.6-0.3-4-1.7-7-1.7
		c-3.8,0-5.7,1.3-5.7,1.3s0.2-3.2,3.4-4c3.2-0.7,5.3,0.1,7.2,1.8"/>
	<path clip-path="url(#SVGID_4_)" fill="#858585" d="M109.5,61.5c0,0-0.7-1.3-2.4-1.1s-1.9,0.4-1.9,0.4s-1.4,0.9-1.9,1.9
		c-0.4,1-0.6,1.4-0.6,1.4s1.2-2.2,3.2-2.7C107.8,60.9,109.5,61.5,109.5,61.5z"/>
	<path clip-path="url(#SVGID_4_)" fill="#858585" d="M109.9,62.7c0,0-0.5,1.6,1.2,2.8c1.7,1.2,3.1,1.7,3.1,1.7l-1-2.2L109.9,62.7z"
		/>
	<path clip-path="url(#SVGID_4_)" fill="#939494" d="M111.8,62.7c0,0,4.4-0.8,7.9,0.6c2.7,1.1,3,2.4,3,2.4s-0.3,2.2-0.3,2.2
		c0,0,0.3-2.5-4.2-3.9C114,62.8,111.8,62.7,111.8,62.7z"/>
	<path clip-path="url(#SVGID_4_)" fill="#939494" d="M109.7,60.4c0,0,0.5-1.7,1.9-2.5c1.3-0.8,3-1.2,3-1.2s-1.5-0.2-3.2,0.8
		C109.6,58.6,109.7,60.4,109.7,60.4z"/>
	<path clip-path="url(#SVGID_4_)" fill="#6A4845" d="M61,70.7c0,0-7.8-1.3-11.7,5c-3.9,6.3-1,13-1,13.5c0,0.5-4.3-2.4-2-11.5
		C49.1,66.8,61,70.7,61,70.7z"/>
	<path clip-path="url(#SVGID_4_)" fill="#6A4845" d="M61.4,70c0,0-0.4-1.8-1.5-1.9s-3.5,0-3.5,0s2.2,0,3.6,0.9
		C61.4,70,61.4,70,61.4,70z"/>
	<path clip-path="url(#SVGID_4_)" fill="#6A4845" d="M61.6,71.4c0,0-3.6-0.6-6,0.9c-2.4,1.5-3.4,5-3.4,5s3.9-1.3,6.4-3.3
		S61.6,71.4,61.6,71.4z"/>
	<path clip-path="url(#SVGID_4_)" fill="#6A4845" d="M63.2,71c0,0,0.8-0.4,2.8,0.4c1.9,0.8,2.8,2,2.8,2l-2.8-2.8
		C65.9,70.6,64.3,70,63.2,71z"/>
</g>
</svg>