<!-- Generator: Adobe Illustrator 17.1.0, SVG Export Plug-In  -->
<svg version="1.1"
	 xmlns="http://www.w3.org/2000/svg" xmlns:xlink="http://www.w3.org/1999/xlink" xmlns:a="http://ns.adobe.com/AdobeSVGViewerExtensions/3.0/"
	 x="0px" y="0px" width="19.7px" height="27.6px" viewBox="0 0 19.7 27.6" enable-background="new 0 0 19.7 27.6"
	 xml:space="preserve">
<defs>
</defs>
<path fill="#FFFFFF" d="M12.1,25.7c-2.7,0-4.6-0.6-5.8-1.8c-1.8-1.8-1.7-4.5-1.7-7.1c0-2.7,0-4,0-5.7c0-1,0-2.1,0-3.8
	c0-3.5,2.8-5.4,7.8-5.4c4.6,0,7.2,1.8,7.2,5.2c0,1.9,0,3.1,0.1,4.2c0,1.3,0.1,2.6,0,4.8c0.1,1.5,0.1,5.1-2.1,7.4
	C16.2,25,14.4,25.7,12.1,25.7z M12.4,2.9c-3.1,0-6.8,0.8-6.8,4.4c0,1.6,0,2.8,0,3.8c0,1.7,0,3,0,5.6c0,2.5,0,4.9,1.4,6.4
	c1,1,2.7,1.5,5.1,1.5c2,0,3.6-0.6,4.7-1.8c1.9-2,1.9-5.3,1.9-6.6l0-0.1c0-2.2,0-3.4,0-4.8c0-1.1-0.1-2.3-0.1-4.3
	C18.6,3.6,15.2,2.9,12.4,2.9z"/>
<rect x="5.1" y="10.4" fill="#FFFFFF" width="14" height="1"/>
<rect x="12.1" y="2.4" fill="#FFFFFF" width="1" height="9"/>
<g>
	<path fill="#CBDA2A" d="M13.1,9c0,0.4,0,1.4-0.4,1.4h-0.2c-0.5,0-1.4-1-1.4-1.4V5.6c0-0.4,0.9-0.2,1.4-0.2h0.2
		c0.5,0,0.4-0.2,0.4,0.2V9z"/>
	<path fill="#FFFFFF" d="M12.6,10.4h-0.2c-0.7,0-1.4-0.8-1.4-1.4V5.6c0-0.7,0.6-1.2,1.4-1.2h0.2c0.7,0,1.4,0.5,1.4,1.2V9
		C14.1,9.6,13.4,10.4,12.6,10.4z M12.5,5.4c-0.2,0-0.4,0.1-0.4,0.2V9c0,0.1,0.2,0.4,0.4,0.4h0.2c0.2,0,0.4-0.3,0.4-0.4V5.6
		c0-0.1-0.2-0.2-0.4-0.2H12.5z"/>
</g>
<path fill="#CBDA2A" d="M2.6,27.6L0,24.4h2.1V6.3C2.1,1.4,7.7,0,7.8,0L8,1C7.8,1,3.1,2.2,3.1,6.3v18.1h2L2.6,27.6z M2.1,25.4L2.6,26
	l0.4-0.6H2.1z"/>
</svg>