<!-- Generator: Adobe Illustrator 17.1.0, SVG Export Plug-In  -->
<svg version="1.1"
	 xmlns="http://www.w3.org/2000/svg" xmlns:xlink="http://www.w3.org/1999/xlink" xmlns:a="http://ns.adobe.com/AdobeSVGViewerExtensions/3.0/"
	 x="0px" y="0px" width="612.2px" height="117.4px" viewBox="0 0 612.2 117.4" enable-background="new 0 0 612.2 117.4"
	 xml:space="preserve">
<defs>
</defs>
<polygon fill="#043A63" points="23.8,117.4 0,59.6 23.8,0 612.2,0 612.2,117.4 "/>
<g>
	<path fill="#FFFFFF" d="M60.3,34.8c0,0,0-0.1,0-0.1c0-0.5-0.1-1-0.4-1.4c-0.3-0.4-0.7-0.6-1.3-0.6c-1.2,0-1.9,1.1-1.9,3.3
		c0,1,0.2,1.8,0.5,2.3c0.4,0.5,0.9,0.8,1.5,0.8c0.7,0,1.4-0.3,2.2-1c0.2,0.1,0.3,0.3,0.5,0.5c0.2,0.2,0.3,0.4,0.3,0.6
		c-0.4,0.4-0.9,0.7-1.5,1c-0.6,0.3-1.2,0.4-1.9,0.4s-1.2-0.1-1.7-0.4c-0.5-0.3-0.8-0.6-1.1-1.1c-0.5-0.9-0.8-1.9-0.8-3.1
		c0-1.5,0.3-2.7,1-3.5c0.7-0.8,1.5-1.2,2.5-1.2c1,0,1.8,0.3,2.4,0.8c0.6,0.5,0.9,1.1,0.9,1.8c0,0.6-0.3,0.9-0.9,0.9
		C60.8,34.9,60.5,34.8,60.3,34.8z"/>
	<path fill="#FFFFFF" d="M68.4,39.7c0,0.1-0.1,0.3-0.2,0.5s-0.2,0.3-0.3,0.4c-0.5-0.1-0.9-0.3-1.2-0.8c-0.6,0.6-1.2,0.8-1.9,0.8
		s-1.2-0.2-1.5-0.6c-0.3-0.4-0.5-0.8-0.5-1.4c0-0.7,0.2-1.3,0.7-1.6c0.5-0.4,1.1-0.6,1.8-0.6c0.4,0,0.8,0,1.1,0.1v-0.4
		c0-0.7-0.3-1-1-1c-0.5,0-1.1,0.2-2,0.5c-0.3-0.3-0.4-0.7-0.4-1.2c0.9-0.4,1.9-0.6,2.8-0.6c0.7,0,1.2,0.2,1.6,0.5s0.6,0.9,0.6,1.7
		v2.7C68.1,39.1,68.2,39.5,68.4,39.7z M65.2,39.3c0.5,0,0.9-0.2,1.3-0.6v-1.2c-0.3,0-0.6-0.1-1-0.1s-0.6,0.1-0.8,0.3
		c-0.2,0.2-0.3,0.4-0.3,0.7s0.1,0.5,0.2,0.6S64.9,39.3,65.2,39.3z"/>
	<path fill="#FFFFFF" d="M71.6,40.6c-0.7,0-1.3-0.3-1.7-0.9c-0.4-0.6-0.6-1.4-0.6-2.5c0-1,0.2-1.9,0.7-2.5c0.5-0.6,1.1-0.9,1.8-0.9
		c0.4,0,0.9,0.1,1.4,0.4v-3.3l0.1-0.1h0.6c0.3,0,0.5,0.1,0.7,0.2c0.1,0.2,0.2,0.4,0.2,0.8v6.7c0,0.5,0.1,0.9,0.4,1.1
		c0,0.1-0.1,0.3-0.2,0.5c-0.1,0.2-0.2,0.3-0.3,0.4c-0.5-0.1-0.9-0.3-1.2-0.8C72.9,40.3,72.3,40.6,71.6,40.6z M72,39.3
		c0.5,0,0.9-0.2,1.2-0.7v-3.1c-0.4-0.3-0.8-0.4-1.2-0.4s-0.6,0.2-0.8,0.6C71.1,36,71,36.6,71,37.2s0.1,1.2,0.3,1.5
		C71.4,39.1,71.7,39.3,72,39.3z"/>
	<path fill="#FFFFFF" d="M81.8,39.7c0,0.1-0.1,0.3-0.2,0.5s-0.2,0.3-0.3,0.4c-0.5-0.1-0.9-0.3-1.2-0.8c-0.6,0.6-1.2,0.8-1.9,0.8
		s-1.2-0.2-1.5-0.6c-0.3-0.4-0.5-0.8-0.5-1.4c0-0.7,0.2-1.3,0.7-1.6c0.5-0.4,1.1-0.6,1.8-0.6c0.4,0,0.8,0,1.1,0.1v-0.4
		c0-0.7-0.3-1-1-1c-0.5,0-1.1,0.2-2,0.5c-0.3-0.3-0.4-0.7-0.4-1.2c0.9-0.4,1.9-0.6,2.8-0.6c0.7,0,1.2,0.2,1.6,0.5s0.6,0.9,0.6,1.7
		v2.7C81.5,39.1,81.6,39.5,81.8,39.7z M78.6,39.3c0.5,0,0.9-0.2,1.3-0.6v-1.2c-0.3,0-0.6-0.1-1-0.1s-0.6,0.1-0.8,0.3
		c-0.2,0.2-0.3,0.4-0.3,0.7s0.1,0.5,0.2,0.6S78.4,39.3,78.6,39.3z"/>
	<path fill="#FFFFFF" d="M89.6,36.4c0-0.7-0.2-1.1-0.7-1.1c-0.4,0-0.8,0.2-1.2,0.7v4.5c-0.2,0-0.5,0.1-0.8,0.1s-0.6,0-0.8-0.1V34
		l0.1-0.1h0.6c0.5,0,0.8,0.3,0.9,0.8c0.6-0.6,1.2-0.9,1.9-0.9s1.1,0.3,1.4,0.9c0.7-0.6,1.3-0.9,2-0.9c0.5,0,1,0.2,1.3,0.6
		c0.3,0.4,0.4,0.9,0.4,1.5v3c0,0.5,0.1,0.9,0.3,1.2c-0.3,0.2-0.6,0.3-0.9,0.3s-0.6-0.1-0.7-0.2c-0.1-0.2-0.2-0.4-0.2-0.8v-3.1
		c0-0.7-0.2-1.1-0.7-1.1c-0.4,0-0.8,0.2-1.2,0.7v4.4c-0.2,0-0.5,0.1-0.8,0.1s-0.6,0-0.8-0.1V36.4z"/>
	<path fill="#FFFFFF" d="M101.9,37.2c0,1.2-0.3,2-0.9,2.7c-0.5,0.5-1.1,0.7-2,0.7c-0.8,0-1.5-0.2-2-0.7c-0.6-0.6-0.9-1.5-0.9-2.7
		c0-1.2,0.3-2,0.9-2.7c0.5-0.5,1.1-0.7,2-0.7c0.8,0,1.5,0.2,2,0.7C101.6,35.1,101.9,36,101.9,37.2z M99,35c-0.8,0-1.2,0.7-1.2,2.2
		s0.4,2.2,1.2,2.2c0.8,0,1.2-0.7,1.2-2.2S99.8,35,99,35z M98,32.8l1.9-2.1c0.2,0.1,0.4,0.2,0.6,0.4c0.2,0.2,0.3,0.4,0.4,0.6
		l-2.3,1.8C98.3,33.3,98.1,33.1,98,32.8z"/>
	<path fill="#FFFFFF" d="M105.2,40.6c-0.7,0-1.3-0.3-1.7-0.9c-0.4-0.6-0.6-1.4-0.6-2.5c0-1,0.2-1.9,0.7-2.5c0.5-0.6,1.1-0.9,1.8-0.9
		c0.4,0,0.9,0.1,1.4,0.4v-3.3l0.1-0.1h0.6c0.3,0,0.5,0.1,0.7,0.2c0.1,0.2,0.2,0.4,0.2,0.8v6.7c0,0.5,0.1,0.9,0.4,1.1
		c0,0.1-0.1,0.3-0.2,0.5c-0.1,0.2-0.2,0.3-0.3,0.4c-0.5-0.1-0.9-0.3-1.2-0.8C106.5,40.3,105.9,40.6,105.2,40.6z M105.6,39.3
		c0.5,0,0.9-0.2,1.2-0.7v-3.1c-0.4-0.3-0.8-0.4-1.2-0.4s-0.6,0.2-0.8,0.6c-0.2,0.4-0.3,0.9-0.3,1.6s0.1,1.2,0.3,1.5
		C105,39.1,105.3,39.3,105.6,39.3z"/>
	<path fill="#FFFFFF" d="M110.2,38.3v-2.9c0-0.5-0.1-0.9-0.2-1.2c0.3-0.2,0.6-0.4,0.9-0.4c0.4,0,0.6,0.1,0.7,0.2
		c0.1,0.2,0.2,0.4,0.2,0.8V38c0,0.4,0.1,0.7,0.2,0.9c0.1,0.2,0.3,0.3,0.6,0.3c0.5,0,0.9-0.2,1.4-0.6V34c0.2,0,0.5-0.1,0.8-0.1
		c0.3,0,0.6,0,0.8,0.1v4.6c0,0.6,0.1,0.9,0.4,1.1c-0.1,0.3-0.3,0.6-0.5,0.8c-0.6-0.1-1-0.4-1.3-0.9c-0.7,0.6-1.4,0.9-2.1,0.9
		c-0.6,0-1-0.2-1.3-0.6C110.4,39.5,110.2,39,110.2,38.3z"/>
	<path fill="#FFFFFF" d="M119.5,39.2h0.4c0.1,0.3,0.1,0.5,0.1,0.7s0,0.4,0,0.5c-0.5,0.1-0.9,0.1-1.2,0.1c-0.9,0-1.4-0.5-1.4-1.5v-8
		l0.1-0.1h0.6c0.3,0,0.5,0.1,0.7,0.2c0.1,0.2,0.2,0.4,0.2,0.8v6.8C118.9,39,119.1,39.2,119.5,39.2z"/>
	<path fill="#FFFFFF" d="M126.6,37.2c0,1.2-0.3,2-0.9,2.7c-0.5,0.5-1.1,0.7-2,0.7c-0.8,0-1.5-0.2-2-0.7c-0.6-0.6-0.9-1.5-0.9-2.7
		c0-1.2,0.3-2,0.9-2.7c0.5-0.5,1.1-0.7,2-0.7c0.8,0,1.5,0.2,2,0.7C126.3,35.1,126.6,36,126.6,37.2z M123.8,35
		c-0.8,0-1.2,0.7-1.2,2.2s0.4,2.2,1.2,2.2c0.8,0,1.2-0.7,1.2-2.2S124.6,35,123.8,35z"/>
	<path fill="#FFFFFF" d="M131.3,40.4v-5.5l-1.1,0c0-0.2-0.1-0.3-0.1-0.5c0-0.1,0-0.3,0.1-0.5l1.1,0c-0.1-0.5-0.1-0.9-0.1-1.2
		c0-0.6,0.2-1.1,0.5-1.4c0.4-0.4,0.8-0.6,1.4-0.6c0.6,0,1.1,0.1,1.7,0.3c0,0.4-0.1,0.6-0.3,0.8c-0.4-0.1-0.8-0.2-1.1-0.2
		c-0.3,0-0.6,0.1-0.7,0.3c-0.2,0.2-0.3,0.5-0.3,0.8c0,0.3,0,0.7,0.1,1.2l1.8,0c0,0.2,0.1,0.4,0.1,0.5c0,0.1,0,0.3-0.1,0.5l-1.8,0
		v5.5c-0.2,0-0.4,0.1-0.6,0.1C131.7,40.5,131.5,40.4,131.3,40.4z"/>
	<path fill="#FFFFFF" d="M139.6,34.5c0.6,0.6,0.9,1.5,0.9,2.7c0,1.2-0.3,2-0.9,2.7c-0.5,0.5-1.1,0.7-1.9,0.7s-1.4-0.2-1.9-0.7
		c-0.6-0.6-0.9-1.5-0.9-2.7c0-1.2,0.3-2,0.9-2.7c0.5-0.5,1.1-0.7,1.9-0.7S139.1,34.1,139.6,34.5z M136.2,37.2c0,1.6,0.5,2.4,1.5,2.4
		s1.5-0.8,1.5-2.4c0-0.5,0-0.8-0.1-1.2s-0.2-0.6-0.5-0.9c-0.2-0.2-0.5-0.4-0.9-0.4s-0.7,0.1-0.9,0.4c-0.2,0.2-0.4,0.5-0.5,0.9
		S136.2,36.8,136.2,37.2z"/>
	<path fill="#FFFFFF" d="M143.5,35.1v5.3c-0.1,0-0.4,0.1-0.6,0.1s-0.5,0-0.6-0.1v-4.8c0-0.2,0-0.4-0.1-0.5c-0.1-0.1-0.2-0.2-0.4-0.2
		h-0.1c0-0.1-0.1-0.3-0.1-0.4c0-0.2,0-0.3,0.1-0.5c0.3,0,0.5-0.1,0.8-0.1h0.2c0.3,0,0.6,0.1,0.7,0.3
		C143.4,34.4,143.5,34.7,143.5,35.1z M141.9,32.2c0-0.2,0-0.4,0.1-0.6c0.2-0.1,0.4-0.2,0.7-0.2s0.5,0.1,0.7,0.2
		c0.1,0.2,0.1,0.3,0.1,0.6c0,0.2,0,0.4-0.1,0.6c-0.1,0.1-0.4,0.2-0.7,0.2c-0.3,0-0.5-0.1-0.7-0.2C141.9,32.6,141.9,32.4,141.9,32.2z
		"/>
	<path fill="#FFFFFF" d="M150.3,40.6c-0.7,0-1.3-0.3-1.7-0.9c-0.4-0.6-0.6-1.4-0.6-2.5s0.2-1.9,0.7-2.4c0.5-0.6,1.1-0.9,1.7-0.9
		c0.5,0,1,0.1,1.5,0.4v-3.4l0.1-0.1h0.5c0.3,0,0.4,0.1,0.5,0.2c0.1,0.1,0.1,0.3,0.1,0.6v6.9c0,0.6,0.1,1,0.4,1.3
		c-0.1,0.3-0.3,0.5-0.5,0.6c-0.5-0.1-0.8-0.4-1-0.8C151.6,40.3,151,40.6,150.3,40.6z M150.5,39.5c0.6,0,1.1-0.3,1.5-0.9v-3.3
		c-0.5-0.3-0.9-0.5-1.3-0.5c-0.4,0-0.7,0.2-1,0.6c-0.3,0.4-0.4,1-0.4,1.7c0,0.8,0.1,1.3,0.3,1.7C149.9,39.3,150.2,39.5,150.5,39.5z"
		/>
	<path fill="#FFFFFF" d="M160.1,37.6h-3.9c0,0.6,0.2,1.1,0.4,1.4s0.6,0.5,1.2,0.5s1.1-0.2,1.8-0.5c0.2,0.2,0.4,0.5,0.4,0.8
		c-0.7,0.5-1.5,0.7-2.4,0.7s-1.6-0.3-2-0.9c-0.4-0.6-0.6-1.4-0.6-2.4s0.2-1.8,0.7-2.4c0.5-0.6,1.1-0.9,1.9-0.9
		c0.8,0,1.5,0.3,1.9,0.8c0.5,0.5,0.7,1.2,0.7,2C160.1,36.9,160.1,37.3,160.1,37.6z M158.6,35.2c-0.2-0.3-0.6-0.5-1-0.5
		c-0.4,0-0.8,0.2-1,0.5c-0.2,0.3-0.4,0.8-0.4,1.4h2.7v-0.2C158.9,36,158.8,35.6,158.6,35.2z"/>
	<path fill="#FFFFFF" d="M161.2,39.9c0-0.1,0.1-0.3,0.1-0.5c0.1-0.2,0.2-0.3,0.3-0.4c0.7,0.4,1.3,0.6,1.7,0.6s0.8-0.1,1-0.2
		s0.3-0.4,0.3-0.6c0-0.4-0.3-0.7-0.8-0.9l-0.7-0.3c-1.1-0.4-1.7-1-1.7-1.8c0-0.6,0.2-1,0.6-1.4c0.4-0.3,1-0.5,1.7-0.5s1.4,0.2,2,0.5
		c0,0.2,0,0.3-0.1,0.5c-0.1,0.2-0.2,0.3-0.3,0.4c-0.6-0.3-1.2-0.4-1.7-0.4c-0.3,0-0.5,0.1-0.7,0.2c-0.2,0.1-0.3,0.3-0.3,0.5
		s0.1,0.4,0.2,0.5c0.1,0.1,0.3,0.2,0.6,0.4l0.8,0.3c1.1,0.4,1.6,1.1,1.6,2c0,0.6-0.2,1-0.7,1.4s-1.1,0.5-1.8,0.5
		S161.9,40.4,161.2,39.9z"/>
	<path fill="#FFFFFF" d="M172.2,37.6h-3.9c0,0.6,0.2,1.1,0.4,1.4s0.6,0.5,1.2,0.5s1.1-0.2,1.8-0.5c0.2,0.2,0.4,0.5,0.4,0.8
		c-0.7,0.5-1.5,0.7-2.4,0.7s-1.6-0.3-2-0.9c-0.4-0.6-0.6-1.4-0.6-2.4s0.2-1.8,0.7-2.4c0.5-0.6,1.1-0.9,1.9-0.9
		c0.8,0,1.5,0.3,1.9,0.8c0.5,0.5,0.7,1.2,0.7,2C172.3,36.9,172.3,37.3,172.2,37.6z M170.8,35.2c-0.2-0.3-0.6-0.5-1-0.5
		c-0.4,0-0.8,0.2-1,0.5c-0.2,0.3-0.4,0.8-0.4,1.4h2.7v-0.2C171.1,36,171,35.6,170.8,35.2z"/>
	<path fill="#FFFFFF" d="M179.1,36v3.1c0,0.5,0.1,0.9,0.2,1.2c-0.2,0.2-0.5,0.3-0.8,0.3c-0.5,0-0.7-0.3-0.7-0.8v-3.4
		c0-0.5-0.1-0.8-0.2-1c-0.1-0.2-0.3-0.3-0.6-0.3s-0.6,0.1-0.9,0.2c-0.3,0.2-0.6,0.4-0.8,0.6v4.5c-0.1,0-0.4,0.1-0.6,0.1
		s-0.5,0-0.6-0.1V34l0.1-0.1h0.5c0.4,0,0.7,0.3,0.7,0.8c0.7-0.6,1.3-0.9,2.1-0.9c0.6,0,1,0.2,1.3,0.6C179,34.8,179.1,35.4,179.1,36z
		"/>
	<path fill="#FFFFFF" d="M183.2,39.4l1.6-5.4c0.1,0,0.3-0.1,0.5-0.1s0.4,0,0.6,0.1l0,0.1c-0.9,2.8-1.5,4.9-2,6.3
		c-0.2,0-0.5,0.1-0.8,0.1s-0.5,0-0.7-0.1c-0.1-0.1-0.2-0.3-0.3-0.6l-1.8-5.7c0.3-0.1,0.5-0.2,0.7-0.2c0.4,0,0.6,0.2,0.7,0.5l0.9,2.9
		c0.2,0.6,0.4,1.3,0.5,1.9C183,39.3,183.1,39.4,183.2,39.4z"/>
	<path fill="#FFFFFF" d="M191.2,34.5c0.6,0.6,0.9,1.5,0.9,2.7c0,1.2-0.3,2-0.9,2.7c-0.5,0.5-1.1,0.7-1.9,0.7s-1.4-0.2-1.9-0.7
		c-0.6-0.6-0.9-1.5-0.9-2.7c0-1.2,0.3-2,0.9-2.7c0.5-0.5,1.1-0.7,1.9-0.7S190.8,34.1,191.2,34.5z M187.9,37.2c0,1.6,0.5,2.4,1.5,2.4
		s1.5-0.8,1.5-2.4c0-0.5,0-0.8-0.1-1.2s-0.2-0.6-0.5-0.9c-0.2-0.2-0.5-0.4-0.9-0.4s-0.7,0.1-0.9,0.4c-0.2,0.2-0.4,0.5-0.5,0.9
		S187.9,36.8,187.9,37.2z"/>
	<path fill="#FFFFFF" d="M195.5,39.4h0.5c0.1,0.2,0.1,0.4,0.1,0.5c0,0.2,0,0.3,0,0.4c-0.3,0.1-0.7,0.1-1.1,0.1
		c-0.8,0-1.2-0.4-1.2-1.3v-8.3l0.1-0.1h0.5c0.3,0,0.4,0.1,0.5,0.2c0.1,0.1,0.1,0.3,0.1,0.6v7.2C195,39.3,195.2,39.4,195.5,39.4z"/>
	<path fill="#FFFFFF" d="M199.5,39.4L201,34c0.1,0,0.3-0.1,0.5-0.1s0.4,0,0.6,0.1l0,0.1c-0.9,2.8-1.5,4.9-2,6.3
		c-0.2,0-0.5,0.1-0.8,0.1s-0.5,0-0.7-0.1c-0.1-0.1-0.2-0.3-0.3-0.6l-1.8-5.7c0.3-0.1,0.5-0.2,0.7-0.2c0.4,0,0.6,0.2,0.7,0.5l0.9,2.9
		c0.2,0.6,0.4,1.3,0.5,1.9C199.4,39.3,199.4,39.4,199.5,39.4z"/>
	<path fill="#FFFFFF" d="M204.8,35.1v5.3c-0.1,0-0.4,0.1-0.6,0.1s-0.5,0-0.6-0.1v-4.8c0-0.2,0-0.4-0.1-0.5c-0.1-0.1-0.2-0.2-0.4-0.2
		h-0.1c0-0.1-0.1-0.3-0.1-0.4c0-0.2,0-0.3,0.1-0.5c0.3,0,0.5-0.1,0.8-0.1h0.2c0.3,0,0.6,0.1,0.7,0.3
		C204.8,34.4,204.8,34.7,204.8,35.1z M203.2,32.2c0-0.2,0-0.4,0.1-0.6c0.2-0.1,0.4-0.2,0.7-0.2s0.5,0.1,0.7,0.2
		c0.1,0.2,0.1,0.3,0.1,0.6c0,0.2,0,0.4-0.1,0.6c-0.1,0.1-0.4,0.2-0.7,0.2c-0.3,0-0.5-0.1-0.7-0.2C203.2,32.6,203.2,32.4,203.2,32.2z
		"/>
	<path fill="#FFFFFF" d="M208.7,40.6c-0.7,0-1.3-0.3-1.7-0.9c-0.4-0.6-0.6-1.4-0.6-2.5s0.2-1.9,0.7-2.4c0.5-0.6,1.1-0.9,1.7-0.9
		c0.5,0,1,0.1,1.5,0.4v-3.4l0.1-0.1h0.5c0.3,0,0.4,0.1,0.5,0.2c0.1,0.1,0.1,0.3,0.1,0.6v6.9c0,0.6,0.1,1,0.4,1.3
		c-0.1,0.3-0.3,0.5-0.5,0.6c-0.5-0.1-0.8-0.4-1-0.8C210.1,40.3,209.4,40.6,208.7,40.6z M209,39.5c0.6,0,1.1-0.3,1.5-0.9v-3.3
		c-0.5-0.3-0.9-0.5-1.3-0.5c-0.4,0-0.7,0.2-1,0.6c-0.3,0.4-0.4,1-0.4,1.7c0,0.8,0.1,1.3,0.3,1.7C208.3,39.3,208.6,39.5,209,39.5z"/>
	<path fill="#FFFFFF" d="M218,34.5c0.6,0.6,0.9,1.5,0.9,2.7c0,1.2-0.3,2-0.9,2.7c-0.5,0.5-1.1,0.7-1.9,0.7s-1.4-0.2-1.9-0.7
		c-0.6-0.6-0.9-1.5-0.9-2.7c0-1.2,0.3-2,0.9-2.7c0.5-0.5,1.1-0.7,1.9-0.7S217.5,34.1,218,34.5z M214.6,37.2c0,1.6,0.5,2.4,1.5,2.4
		s1.5-0.8,1.5-2.4c0-0.5,0-0.8-0.1-1.2s-0.2-0.6-0.5-0.9c-0.2-0.2-0.5-0.4-0.9-0.4s-0.7,0.1-0.9,0.4c-0.2,0.2-0.4,0.5-0.5,0.9
		S214.6,36.8,214.6,37.2z"/>
	<path fill="#FFFFFF" d="M225.2,40.6c-0.7,0-1.3-0.3-1.7-0.9c-0.4-0.6-0.6-1.4-0.6-2.5s0.2-1.9,0.7-2.4c0.5-0.6,1.1-0.9,1.7-0.9
		c0.5,0,1,0.1,1.5,0.4v-3.4l0.1-0.1h0.5c0.3,0,0.4,0.1,0.5,0.2c0.1,0.1,0.1,0.3,0.1,0.6v6.9c0,0.6,0.1,1,0.4,1.3
		c-0.1,0.3-0.3,0.5-0.5,0.6c-0.5-0.1-0.8-0.4-1-0.8C226.6,40.3,225.9,40.6,225.2,40.6z M225.5,39.5c0.6,0,1.1-0.3,1.5-0.9v-3.3
		c-0.5-0.3-0.9-0.5-1.3-0.5c-0.4,0-0.7,0.2-1,0.6c-0.3,0.4-0.4,1-0.4,1.7c0,0.8,0.1,1.3,0.3,1.7C224.8,39.3,225.1,39.5,225.5,39.5z"
		/>
	<path fill="#FFFFFF" d="M235,37.6h-3.9c0,0.6,0.2,1.1,0.4,1.4s0.6,0.5,1.2,0.5s1.1-0.2,1.8-0.5c0.2,0.2,0.4,0.5,0.4,0.8
		c-0.7,0.5-1.5,0.7-2.4,0.7s-1.6-0.3-2-0.9c-0.4-0.6-0.6-1.4-0.6-2.4s0.2-1.8,0.7-2.4c0.5-0.6,1.1-0.9,1.9-0.9
		c0.8,0,1.5,0.3,1.9,0.8c0.5,0.5,0.7,1.2,0.7,2C235.1,36.9,235.1,37.3,235,37.6z M233.5,35.2c-0.2-0.3-0.6-0.5-1-0.5
		c-0.4,0-0.8,0.2-1,0.5c-0.2,0.3-0.4,0.8-0.4,1.4h2.7v-0.2C233.9,36,233.8,35.6,233.5,35.2z"/>
	<path fill="#FFFFFF" d="M60.4,55.4c-0.1,0.3-0.3,0.5-0.5,0.6c-0.5-0.1-0.8-0.4-1-0.8c-0.6,0.6-1.3,0.9-1.9,0.9
		c-0.6,0-1.1-0.2-1.5-0.6c-0.3-0.4-0.5-0.8-0.5-1.3c0-0.7,0.2-1.2,0.7-1.6c0.5-0.4,1.1-0.5,1.8-0.5c0.4,0,0.9,0,1.3,0.1v-0.5
		c0-0.8-0.4-1.2-1.1-1.2c-0.6,0-1.3,0.2-2.1,0.5c-0.2-0.2-0.4-0.5-0.4-0.9c0.9-0.4,1.8-0.6,2.7-0.6c0.7,0,1.2,0.2,1.6,0.5
		c0.4,0.4,0.6,0.9,0.6,1.6v2.7C60.1,54.9,60.2,55.2,60.4,55.4z M57.2,55.2c0.6,0,1.1-0.3,1.6-0.8v-1.2c-0.3,0-0.7-0.1-1.2-0.1
		c-0.4,0-0.8,0.1-1,0.3c-0.2,0.2-0.3,0.5-0.3,0.8s0.1,0.6,0.2,0.8C56.7,55.1,57,55.2,57.2,55.2z"/>
	<path fill="#FFFFFF" d="M65.3,52c0,0,0-0.1,0-0.1c0-1-0.4-1.5-1.2-1.5c-0.4,0-0.8,0.2-1,0.6c-0.2,0.4-0.4,1-0.4,1.8
		c0,1.5,0.5,2.3,1.5,2.3c0.5,0,1-0.2,1.6-0.7c0.1,0.1,0.2,0.2,0.3,0.3c0.1,0.1,0.2,0.3,0.2,0.4c-0.6,0.6-1.4,1-2.3,1
		c-0.9,0-1.6-0.3-2-0.9c-0.4-0.6-0.7-1.5-0.7-2.5s0.3-1.8,0.8-2.4c0.5-0.6,1.2-0.9,1.9-0.9c0.7,0,1.3,0.2,1.7,0.6
		c0.4,0.4,0.6,0.8,0.6,1.3s-0.2,0.7-0.7,0.7C65.7,52.1,65.5,52.1,65.3,52z"/>
	<path fill="#FFFFFF" d="M72.3,50.1c0.6,0.6,0.9,1.5,0.9,2.7c0,1.2-0.3,2-0.9,2.7c-0.5,0.5-1.1,0.7-1.9,0.7s-1.4-0.2-1.9-0.7
		c-0.6-0.6-0.9-1.5-0.9-2.7c0-1.2,0.3-2,0.9-2.7c0.5-0.5,1.1-0.7,1.9-0.7S71.8,49.7,72.3,50.1z M68.9,52.8c0,1.6,0.5,2.4,1.5,2.4
		s1.5-0.8,1.5-2.4c0-0.5,0-0.8-0.1-1.2s-0.2-0.6-0.5-0.9c-0.2-0.2-0.5-0.4-0.9-0.4s-0.7,0.1-0.9,0.4c-0.2,0.2-0.4,0.5-0.5,0.9
		S68.9,52.4,68.9,52.8z"/>
	<path fill="#FFFFFF" d="M74.5,50.2c0.1-0.3,0.2-0.5,0.5-0.7c0.6,0.1,0.9,0.5,1.1,1.2c0.4-0.8,0.9-1.2,1.7-1.2c0.2,0,0.4,0,0.7,0.1
		c0,0.5-0.1,0.9-0.3,1.2c-0.1,0-0.2,0-0.5-0.1c-0.6,0-1.1,0.3-1.4,1V56c-0.1,0-0.4,0.1-0.6,0.1c-0.3,0-0.5,0-0.6-0.1v-4.5
		C74.9,50.9,74.8,50.5,74.5,50.2z"/>
	<path fill="#FFFFFF" d="M81.2,56.2c-0.7,0-1.3-0.3-1.7-0.9c-0.4-0.6-0.6-1.4-0.6-2.5s0.2-1.9,0.7-2.4c0.5-0.6,1.1-0.9,1.7-0.9
		c0.5,0,1,0.1,1.5,0.4v-3.4l0.1-0.1h0.5c0.3,0,0.4,0.1,0.5,0.2c0.1,0.1,0.1,0.3,0.1,0.6v6.9c0,0.6,0.1,1,0.4,1.3
		c-0.1,0.3-0.3,0.5-0.5,0.6c-0.5-0.1-0.8-0.4-1-0.8C82.6,55.9,82,56.2,81.2,56.2z M81.5,55.1c0.6,0,1.1-0.3,1.5-0.9V51
		c-0.5-0.3-0.9-0.5-1.3-0.5c-0.4,0-0.7,0.2-1,0.6c-0.3,0.4-0.4,1-0.4,1.7c0,0.8,0.1,1.3,0.3,1.7C80.8,54.9,81.1,55.1,81.5,55.1z"/>
	<path fill="#FFFFFF" d="M90.5,50.1c0.6,0.6,0.9,1.5,0.9,2.7c0,1.2-0.3,2-0.9,2.7c-0.5,0.5-1.1,0.7-1.9,0.7s-1.4-0.2-1.9-0.7
		c-0.6-0.6-0.9-1.5-0.9-2.7c0-1.2,0.3-2,0.9-2.7c0.5-0.5,1.1-0.7,1.9-0.7S90,49.7,90.5,50.1z M87.2,52.8c0,1.6,0.5,2.4,1.5,2.4
		s1.5-0.8,1.5-2.4c0-0.5,0-0.8-0.1-1.2s-0.2-0.6-0.5-0.9c-0.2-0.2-0.5-0.4-0.9-0.4s-0.7,0.1-0.9,0.4c-0.2,0.2-0.4,0.5-0.5,0.9
		S87.2,52.4,87.2,52.8z"/>
	<path fill="#FFFFFF" d="M99.3,52c0,0,0-0.1,0-0.1c0-1-0.4-1.5-1.2-1.5c-0.4,0-0.8,0.2-1,0.6c-0.2,0.4-0.4,1-0.4,1.8
		c0,1.5,0.5,2.3,1.5,2.3c0.5,0,1-0.2,1.6-0.7c0.1,0.1,0.2,0.2,0.3,0.3c0.1,0.1,0.2,0.3,0.2,0.4c-0.6,0.6-1.4,1-2.3,1s-1.6-0.3-2-0.9
		c-0.4-0.6-0.7-1.5-0.7-2.5s0.3-1.8,0.8-2.4c0.5-0.6,1.2-0.9,1.9-0.9c0.7,0,1.3,0.2,1.7,0.6c0.4,0.4,0.6,0.8,0.6,1.3
		s-0.2,0.7-0.7,0.7C99.7,52.1,99.5,52.1,99.3,52z"/>
	<path fill="#FFFFFF" d="M106.3,50.1c0.6,0.6,0.9,1.5,0.9,2.7c0,1.2-0.3,2-0.9,2.7c-0.5,0.5-1.1,0.7-1.9,0.7s-1.4-0.2-1.9-0.7
		c-0.6-0.6-0.9-1.5-0.9-2.7c0-1.2,0.3-2,0.9-2.7c0.5-0.5,1.1-0.7,1.9-0.7S105.8,49.7,106.3,50.1z M102.9,52.8c0,1.6,0.5,2.4,1.5,2.4
		s1.5-0.8,1.5-2.4c0-0.5,0-0.8-0.1-1.2s-0.2-0.6-0.5-0.9c-0.2-0.2-0.5-0.4-0.9-0.4s-0.7,0.1-0.9,0.4c-0.2,0.2-0.4,0.5-0.5,0.9
		S102.9,52.4,102.9,52.8z"/>
	<path fill="#FFFFFF" d="M112.3,51.9c0-0.5-0.1-0.8-0.2-1s-0.3-0.3-0.6-0.3c-0.5,0-1,0.3-1.5,0.8V56c-0.1,0-0.4,0.1-0.6,0.1
		s-0.5,0-0.6-0.1v-6.4l0.1-0.1h0.5c0.4,0,0.7,0.3,0.7,0.8c0.6-0.6,1.2-0.9,1.9-0.9s1.2,0.3,1.4,1c0.7-0.6,1.4-1,2.1-1
		c0.5,0,0.9,0.2,1.2,0.6c0.3,0.4,0.4,0.9,0.4,1.5v3.2c0,0.5,0.1,0.9,0.2,1.2c-0.2,0.2-0.5,0.3-0.8,0.3c-0.4,0-0.7-0.3-0.7-0.8v-3.4
		c0-0.5-0.1-0.8-0.2-1c-0.1-0.2-0.3-0.3-0.6-0.3c-0.5,0-1,0.3-1.5,0.8V56c-0.1,0-0.4,0.1-0.6,0.1s-0.5,0-0.6-0.1V51.9z"/>
	<path fill="#FFFFFF" d="M126.9,55.4c-0.1,0.3-0.3,0.5-0.5,0.6c-0.5-0.1-0.8-0.4-1-0.8c-0.6,0.6-1.3,0.9-1.9,0.9
		c-0.6,0-1.1-0.2-1.5-0.6c-0.3-0.4-0.5-0.8-0.5-1.3c0-0.7,0.2-1.2,0.7-1.6c0.5-0.4,1.1-0.5,1.8-0.5c0.4,0,0.9,0,1.3,0.1v-0.5
		c0-0.8-0.4-1.2-1.1-1.2c-0.6,0-1.3,0.2-2.1,0.5c-0.2-0.2-0.4-0.5-0.4-0.9c0.9-0.4,1.8-0.6,2.7-0.6c0.7,0,1.2,0.2,1.6,0.5
		c0.4,0.4,0.6,0.9,0.6,1.6v2.7C126.6,54.9,126.7,55.2,126.9,55.4z M123.7,55.2c0.6,0,1.1-0.3,1.6-0.8v-1.2c-0.3,0-0.7-0.1-1.2-0.1
		c-0.4,0-0.8,0.1-1,0.3c-0.2,0.2-0.3,0.5-0.3,0.8s0.1,0.6,0.2,0.8C123.2,55.1,123.4,55.2,123.7,55.2z"/>
	<path fill="#FFFFFF" d="M128,55.5c0-0.1,0.1-0.3,0.1-0.5c0.1-0.2,0.2-0.3,0.3-0.4c0.7,0.4,1.3,0.6,1.7,0.6s0.8-0.1,1-0.2
		s0.3-0.4,0.3-0.6c0-0.4-0.3-0.7-0.8-0.9l-0.7-0.3c-1.1-0.4-1.7-1-1.7-1.8c0-0.6,0.2-1,0.6-1.4c0.4-0.3,1-0.5,1.7-0.5s1.4,0.2,2,0.5
		c0,0.2,0,0.3-0.1,0.5c-0.1,0.2-0.2,0.3-0.3,0.4c-0.6-0.3-1.2-0.4-1.7-0.4c-0.3,0-0.5,0.1-0.7,0.2c-0.2,0.1-0.3,0.3-0.3,0.5
		s0.1,0.4,0.2,0.5c0.1,0.1,0.3,0.2,0.6,0.4l0.8,0.3c1.1,0.4,1.6,1.1,1.6,2c0,0.6-0.2,1-0.7,1.4s-1.1,0.5-1.8,0.5S128.7,56,128,55.5z
		"/>
	<path fill="#FFFFFF" d="M142.3,51.6v2.9c0,0.5,0.1,0.9,0.3,1.2c-0.3,0.2-0.6,0.3-1,0.3c-0.4,0-0.6-0.1-0.7-0.2
		c-0.1-0.2-0.2-0.4-0.2-0.8V52c0-0.4-0.1-0.7-0.2-0.8c-0.1-0.2-0.3-0.3-0.6-0.3c-0.5,0-0.9,0.2-1.4,0.7V56c-0.2,0-0.5,0.1-0.8,0.1
		s-0.6,0-0.8-0.1v-6.4l0.1-0.1h0.6c0.5,0,0.8,0.3,0.9,0.8c0.6-0.6,1.3-0.8,1.9-0.8c0.6,0,1.1,0.2,1.4,0.6S142.3,51,142.3,51.6z"/>
	<path fill="#FFFFFF" d="M149,53.3h-3.6c0,0.5,0.1,0.9,0.3,1.2c0.2,0.3,0.6,0.4,1.1,0.4c0.5,0,1.1-0.2,1.7-0.5
		c0.2,0.2,0.4,0.6,0.5,1c-0.7,0.5-1.5,0.7-2.5,0.7c-1,0-1.7-0.3-2.1-0.9c-0.4-0.6-0.6-1.5-0.6-2.5c0-1,0.2-1.8,0.7-2.5
		s1.1-0.9,2-0.9s1.5,0.3,2,0.8c0.5,0.5,0.7,1.2,0.7,2C149.1,52.5,149.1,52.9,149,53.3z M146.5,50.5c-0.7,0-1.1,0.5-1.1,1.6h2.3V52
		c0-0.4-0.1-0.8-0.3-1.1C147.1,50.7,146.9,50.5,146.5,50.5z"/>
	<path fill="#FFFFFF" d="M153.9,52.2c0-0.1,0-0.1,0-0.2c0-0.4-0.1-0.8-0.2-1c-0.1-0.3-0.4-0.4-0.8-0.4c-0.7,0-1.1,0.7-1.1,2.2
		c0,1.4,0.4,2.2,1.3,2.2c0.5,0,1-0.2,1.5-0.6c0.1,0.1,0.3,0.2,0.4,0.4c0.1,0.2,0.2,0.4,0.2,0.5c-0.7,0.7-1.4,1-2.4,1
		c-0.9,0-1.6-0.3-2.1-0.9s-0.7-1.5-0.7-2.5c0-1.1,0.3-1.9,0.8-2.5c0.5-0.6,1.2-0.9,2-0.9s1.3,0.2,1.8,0.6s0.7,0.9,0.7,1.4
		c0,0.6-0.3,0.8-0.8,0.8C154.4,52.3,154.2,52.2,153.9,52.2z"/>
	<path fill="#FFFFFF" d="M161.6,53.3H158c0,0.5,0.1,0.9,0.3,1.2c0.2,0.3,0.6,0.4,1.1,0.4c0.5,0,1.1-0.2,1.7-0.5
		c0.2,0.2,0.4,0.6,0.5,1c-0.7,0.5-1.5,0.7-2.5,0.7c-1,0-1.7-0.3-2.1-0.9c-0.4-0.6-0.6-1.5-0.6-2.5c0-1,0.2-1.8,0.7-2.5
		s1.1-0.9,2-0.9s1.5,0.3,2,0.8c0.5,0.5,0.7,1.2,0.7,2C161.7,52.5,161.7,52.9,161.6,53.3z M159.1,50.5c-0.7,0-1.1,0.5-1.1,1.6h2.3V52
		c0-0.4-0.1-0.8-0.3-1.1C159.8,50.7,159.5,50.5,159.1,50.5z"/>
	<path fill="#FFFFFF" d="M162.6,55.5c0-0.2,0.1-0.4,0.2-0.6c0.1-0.2,0.2-0.4,0.3-0.5c0.7,0.4,1.3,0.6,1.8,0.6c0.3,0,0.6-0.1,0.7-0.2
		c0.2-0.1,0.3-0.3,0.3-0.5c0-0.3-0.2-0.6-0.7-0.8l-0.7-0.3c-1.1-0.4-1.6-1-1.6-1.9c0-0.6,0.2-1.1,0.7-1.5c0.4-0.4,1-0.6,1.8-0.6
		s1.5,0.2,2.2,0.5c0,0.2,0,0.4-0.1,0.6c-0.1,0.2-0.2,0.4-0.3,0.5c-0.6-0.3-1.2-0.4-1.8-0.4c-0.2,0-0.4,0.1-0.6,0.2
		c-0.1,0.1-0.2,0.3-0.2,0.5c0,0.3,0.2,0.5,0.7,0.7l0.8,0.3c1.1,0.4,1.7,1.1,1.7,2c0,0.6-0.2,1.1-0.7,1.5c-0.5,0.4-1.1,0.5-1.9,0.5
		C164.2,56.2,163.4,56,162.6,55.5z"/>
	<path fill="#FFFFFF" d="M168.4,55.5c0-0.2,0.1-0.4,0.2-0.6c0.1-0.2,0.2-0.4,0.3-0.5c0.7,0.4,1.3,0.6,1.8,0.6c0.3,0,0.6-0.1,0.7-0.2
		c0.2-0.1,0.3-0.3,0.3-0.5c0-0.3-0.2-0.6-0.7-0.8l-0.7-0.3c-1.1-0.4-1.6-1-1.6-1.9c0-0.6,0.2-1.1,0.7-1.5c0.4-0.4,1-0.6,1.8-0.6
		s1.5,0.2,2.2,0.5c0,0.2,0,0.4-0.1,0.6c-0.1,0.2-0.2,0.4-0.3,0.5c-0.6-0.3-1.2-0.4-1.8-0.4c-0.2,0-0.4,0.1-0.6,0.2
		c-0.1,0.1-0.2,0.3-0.2,0.5c0,0.3,0.2,0.5,0.7,0.7l0.8,0.3c1.1,0.4,1.7,1.1,1.7,2c0,0.6-0.2,1.1-0.7,1.5c-0.5,0.4-1.1,0.5-1.9,0.5
		C169.9,56.2,169.1,56,168.4,55.5z"/>
	<path fill="#FFFFFF" d="M176.5,50.8V56c-0.2,0-0.5,0.1-0.8,0.1s-0.6,0-0.8-0.1v-4.6c0-0.5-0.2-0.7-0.6-0.7h-0.2
		c0-0.1-0.1-0.3-0.1-0.6c0-0.2,0-0.4,0.1-0.6c0.3,0,0.6-0.1,0.9-0.1h0.2c0.4,0,0.7,0.1,0.9,0.4C176.4,50.1,176.5,50.4,176.5,50.8z
		 M174.7,48.4c-0.1-0.2-0.1-0.4-0.1-0.6s0-0.4,0.1-0.6c0.2-0.1,0.5-0.2,0.8-0.2c0.3,0,0.6,0.1,0.8,0.2c0.1,0.2,0.1,0.4,0.1,0.6
		s0,0.4-0.1,0.6c-0.2,0.1-0.5,0.2-0.8,0.2C175.1,48.6,174.8,48.5,174.7,48.4z"/>
	<path fill="#FFFFFF" d="M180.2,56.2c-0.7,0-1.3-0.3-1.7-0.9c-0.4-0.6-0.6-1.4-0.6-2.5c0-1,0.2-1.9,0.7-2.5c0.5-0.6,1.1-0.9,1.8-0.9
		c0.4,0,0.9,0.1,1.4,0.4v-3.3l0.1-0.1h0.6c0.3,0,0.5,0.1,0.7,0.2c0.1,0.2,0.2,0.4,0.2,0.8v6.7c0,0.5,0.1,0.9,0.4,1.1
		c0,0.1-0.1,0.3-0.2,0.5c-0.1,0.2-0.2,0.3-0.3,0.4c-0.5-0.1-0.9-0.3-1.2-0.8C181.6,55.9,181,56.2,180.2,56.2z M180.6,54.9
		c0.5,0,0.9-0.2,1.2-0.7v-3.1c-0.4-0.3-0.8-0.4-1.2-0.4s-0.6,0.2-0.8,0.6c-0.2,0.4-0.3,0.9-0.3,1.6s0.1,1.2,0.3,1.5
		C180.1,54.7,180.3,54.9,180.6,54.9z"/>
	<path fill="#FFFFFF" d="M190.5,55.3c0,0.1-0.1,0.3-0.2,0.5s-0.2,0.3-0.3,0.4c-0.5-0.1-0.9-0.3-1.2-0.8c-0.6,0.6-1.2,0.8-1.9,0.8
		s-1.2-0.2-1.5-0.6c-0.3-0.4-0.5-0.8-0.5-1.4c0-0.7,0.2-1.3,0.7-1.6c0.5-0.4,1.1-0.6,1.8-0.6c0.4,0,0.8,0,1.1,0.1v-0.4
		c0-0.7-0.3-1-1-1c-0.5,0-1.1,0.2-2,0.5c-0.3-0.3-0.4-0.7-0.4-1.2c0.9-0.4,1.9-0.6,2.8-0.6c0.7,0,1.2,0.2,1.6,0.5s0.6,0.9,0.6,1.7
		v2.7C190.1,54.7,190.2,55.1,190.5,55.3z M187.2,54.9c0.5,0,0.9-0.2,1.3-0.6v-1.2c-0.3,0-0.6-0.1-1-0.1s-0.6,0.1-0.8,0.3
		c-0.2,0.2-0.3,0.4-0.3,0.7s0.1,0.5,0.2,0.6S187,54.9,187.2,54.9z"/>
	<path fill="#FFFFFF" d="M193.7,56.2c-0.7,0-1.3-0.3-1.7-0.9c-0.4-0.6-0.6-1.4-0.6-2.5c0-1,0.2-1.9,0.7-2.5c0.5-0.6,1.1-0.9,1.8-0.9
		c0.4,0,0.9,0.1,1.4,0.4v-3.3l0.1-0.1h0.6c0.3,0,0.5,0.1,0.7,0.2c0.1,0.2,0.2,0.4,0.2,0.8v6.7c0,0.5,0.1,0.9,0.4,1.1
		c0,0.1-0.1,0.3-0.2,0.5c-0.1,0.2-0.2,0.3-0.3,0.4c-0.5-0.1-0.9-0.3-1.2-0.8C195,55.9,194.4,56.2,193.7,56.2z M194.1,54.9
		c0.5,0,0.9-0.2,1.2-0.7v-3.1c-0.4-0.3-0.8-0.4-1.2-0.4s-0.6,0.2-0.8,0.6c-0.2,0.4-0.3,0.9-0.3,1.6s0.1,1.2,0.3,1.5
		C193.5,54.7,193.8,54.9,194.1,54.9z"/>
	<path fill="#FFFFFF" d="M203.6,53.3H200c0,0.5,0.1,0.9,0.3,1.2c0.2,0.3,0.6,0.4,1.1,0.4c0.5,0,1.1-0.2,1.7-0.5
		c0.2,0.2,0.4,0.6,0.5,1c-0.7,0.5-1.5,0.7-2.5,0.7c-1,0-1.7-0.3-2.1-0.9c-0.4-0.6-0.6-1.5-0.6-2.5c0-1,0.2-1.8,0.7-2.5
		s1.1-0.9,2-0.9s1.5,0.3,2,0.8c0.5,0.5,0.7,1.2,0.7,2C203.7,52.5,203.7,52.9,203.6,53.3z M201.1,50.5c-0.7,0-1.1,0.5-1.1,1.6h2.3V52
		c0-0.4-0.1-0.8-0.3-1.1C201.8,50.7,201.5,50.5,201.1,50.5z"/>
	<path fill="#FFFFFF" d="M204.6,55.5c0-0.2,0.1-0.4,0.2-0.6c0.1-0.2,0.2-0.4,0.3-0.5c0.7,0.4,1.3,0.6,1.8,0.6c0.3,0,0.6-0.1,0.7-0.2
		c0.2-0.1,0.3-0.3,0.3-0.5c0-0.3-0.2-0.6-0.7-0.8l-0.7-0.3c-1.1-0.4-1.6-1-1.6-1.9c0-0.6,0.2-1.1,0.7-1.5c0.4-0.4,1-0.6,1.8-0.6
		s1.5,0.2,2.2,0.5c0,0.2,0,0.4-0.1,0.6c-0.1,0.2-0.2,0.4-0.3,0.5c-0.6-0.3-1.2-0.4-1.8-0.4c-0.2,0-0.4,0.1-0.6,0.2
		c-0.1,0.1-0.2,0.3-0.2,0.5c0,0.3,0.2,0.5,0.7,0.7l0.8,0.3c1.1,0.4,1.7,1.1,1.7,2c0,0.6-0.2,1.1-0.7,1.5c-0.5,0.4-1.1,0.5-1.9,0.5
		C206.2,56.2,205.4,56,204.6,55.5z"/>
	<path fill="#FFFFFF" d="M215.6,56.2c-0.7,0-1.3-0.3-1.7-0.9c-0.4-0.6-0.6-1.4-0.6-2.5c0-1,0.2-1.9,0.7-2.5c0.5-0.6,1.1-0.9,1.8-0.9
		c0.4,0,0.9,0.1,1.4,0.4v-3.3l0.1-0.1h0.6c0.3,0,0.5,0.1,0.7,0.2c0.1,0.2,0.2,0.4,0.2,0.8v6.7c0,0.5,0.1,0.9,0.4,1.1
		c0,0.1-0.1,0.3-0.2,0.5c-0.1,0.2-0.2,0.3-0.3,0.4c-0.5-0.1-0.9-0.3-1.2-0.8C217,55.9,216.4,56.2,215.6,56.2z M216.1,54.9
		c0.5,0,0.9-0.2,1.2-0.7v-3.1c-0.4-0.3-0.8-0.4-1.2-0.4s-0.6,0.2-0.8,0.6c-0.2,0.4-0.3,0.9-0.3,1.6s0.1,1.2,0.3,1.5
		C215.5,54.7,215.8,54.9,216.1,54.9z"/>
	<path fill="#FFFFFF" d="M226.1,52.8c0,1.2-0.3,2-0.9,2.7c-0.5,0.5-1.1,0.7-2,0.7c-0.8,0-1.5-0.2-2-0.7c-0.6-0.6-0.9-1.5-0.9-2.7
		c0-1.2,0.3-2,0.9-2.7c0.5-0.5,1.1-0.7,2-0.7c0.8,0,1.5,0.2,2,0.7C225.8,50.7,226.1,51.6,226.1,52.8z M223.2,50.6
		c-0.8,0-1.2,0.7-1.2,2.2s0.4,2.2,1.2,2.2c0.8,0,1.2-0.7,1.2-2.2S224,50.6,223.2,50.6z"/>
	<path fill="#FFFFFF" d="M54.8,71.1c0-0.2,0.1-0.4,0.2-0.6c0.1-0.2,0.2-0.4,0.3-0.5c0.7,0.4,1.3,0.6,1.8,0.6c0.3,0,0.6-0.1,0.7-0.2
		c0.2-0.1,0.3-0.3,0.3-0.5c0-0.3-0.2-0.6-0.7-0.8l-0.7-0.3c-1.1-0.4-1.6-1-1.6-1.9c0-0.6,0.2-1.1,0.7-1.5c0.4-0.4,1-0.6,1.8-0.6
		s1.5,0.2,2.2,0.5c0,0.2,0,0.4-0.1,0.6c-0.1,0.2-0.2,0.4-0.3,0.5c-0.6-0.3-1.2-0.4-1.8-0.4c-0.2,0-0.4,0.1-0.6,0.2
		c-0.1,0.1-0.2,0.3-0.2,0.5c0,0.3,0.2,0.5,0.7,0.7l0.8,0.3c1.1,0.4,1.7,1.1,1.7,2c0,0.6-0.2,1.1-0.7,1.5c-0.5,0.4-1.1,0.5-1.9,0.5
		C56.4,71.8,55.6,71.6,54.8,71.1z"/>
	<path fill="#FFFFFF" d="M66,68.9h-3.6c0,0.5,0.1,0.9,0.3,1.2c0.2,0.3,0.6,0.4,1.1,0.4c0.5,0,1.1-0.2,1.7-0.5c0.2,0.2,0.4,0.6,0.5,1
		c-0.7,0.5-1.5,0.7-2.5,0.7c-1,0-1.7-0.3-2.1-0.9c-0.4-0.6-0.6-1.5-0.6-2.5c0-1,0.2-1.8,0.7-2.5s1.1-0.9,2-0.9c0.9,0,1.5,0.3,2,0.8
		c0.5,0.5,0.7,1.2,0.7,2C66.1,68.1,66.1,68.5,66,68.9z M63.5,66.1c-0.7,0-1.1,0.5-1.1,1.6h2.3v-0.2c0-0.4-0.1-0.8-0.3-1.1
		C64.2,66.3,63.9,66.1,63.5,66.1z"/>
	<path fill="#FFFFFF" d="M67.6,69.5v-2.9c0-0.5-0.1-0.9-0.2-1.2c0.3-0.2,0.6-0.4,0.9-0.4c0.4,0,0.6,0.1,0.7,0.2
		c0.1,0.2,0.2,0.4,0.2,0.8v3.1c0,0.4,0.1,0.7,0.2,0.9c0.1,0.2,0.3,0.3,0.6,0.3c0.5,0,0.9-0.2,1.4-0.6v-4.5c0.2,0,0.5-0.1,0.8-0.1
		c0.3,0,0.6,0,0.8,0.1v4.6c0,0.6,0.1,0.9,0.4,1.1c-0.1,0.3-0.3,0.6-0.5,0.8c-0.6-0.1-1-0.4-1.3-0.9c-0.7,0.6-1.4,0.9-2.1,0.9
		c-0.6,0-1-0.2-1.3-0.6C67.7,70.7,67.6,70.2,67.6,69.5z"/>
	<path fill="#FFFFFF" d="M79.4,71.8c-0.7,0-1.3-0.3-1.7-0.9c-0.4-0.6-0.6-1.4-0.6-2.5c0-1,0.2-1.9,0.7-2.5c0.5-0.6,1.1-0.9,1.8-0.9
		c0.4,0,0.9,0.1,1.4,0.4v-3.3l0.1-0.1h0.6c0.3,0,0.5,0.1,0.7,0.2c0.1,0.2,0.2,0.4,0.2,0.8v6.7c0,0.5,0.1,0.9,0.4,1.1
		c0,0.1-0.1,0.3-0.2,0.5c-0.1,0.2-0.2,0.3-0.3,0.4c-0.5-0.1-0.9-0.3-1.2-0.8C80.8,71.5,80.2,71.8,79.4,71.8z M79.9,70.5
		c0.5,0,0.9-0.2,1.2-0.7v-3.1c-0.4-0.3-0.8-0.4-1.2-0.4s-0.6,0.2-0.8,0.6c-0.2,0.4-0.3,0.9-0.3,1.6s0.1,1.2,0.3,1.5
		C79.3,70.3,79.6,70.5,79.9,70.5z"/>
	<path fill="#FFFFFF" d="M86.3,66.4v5.2c-0.2,0-0.5,0.1-0.8,0.1s-0.6,0-0.8-0.1V67c0-0.5-0.2-0.7-0.6-0.7H84c0-0.1-0.1-0.3-0.1-0.6
		c0-0.2,0-0.4,0.1-0.6c0.3,0,0.6-0.1,0.9-0.1h0.2c0.4,0,0.7,0.1,0.9,0.4C86.2,65.7,86.3,66,86.3,66.4z M84.4,64
		c-0.1-0.2-0.1-0.4-0.1-0.6s0-0.4,0.1-0.6c0.2-0.1,0.5-0.2,0.8-0.2c0.3,0,0.6,0.1,0.8,0.2c0.1,0.2,0.1,0.4,0.1,0.6s0,0.4-0.1,0.6
		c-0.2,0.1-0.5,0.2-0.8,0.2C84.9,64.2,84.6,64.1,84.4,64z"/>
	<path fill="#FFFFFF" d="M93.4,70.9c0,0.1-0.1,0.3-0.2,0.5s-0.2,0.3-0.3,0.4c-0.5-0.1-0.9-0.3-1.2-0.8c-0.6,0.6-1.2,0.8-1.9,0.8
		s-1.2-0.2-1.5-0.6c-0.3-0.4-0.5-0.8-0.5-1.4c0-0.7,0.2-1.3,0.7-1.6c0.5-0.4,1.1-0.6,1.8-0.6c0.4,0,0.8,0,1.1,0.1v-0.4
		c0-0.7-0.3-1-1-1c-0.5,0-1.1,0.2-2,0.5c-0.3-0.3-0.4-0.7-0.4-1.2c0.9-0.4,1.9-0.6,2.8-0.6c0.7,0,1.2,0.2,1.6,0.5s0.6,0.9,0.6,1.7
		v2.7C93,70.3,93.1,70.7,93.4,70.9z M90.1,70.5c0.5,0,0.9-0.2,1.3-0.6v-1.2c-0.3,0-0.6-0.1-1-0.1s-0.6,0.1-0.8,0.3
		c-0.2,0.2-0.3,0.4-0.3,0.7s0.1,0.5,0.2,0.6S89.9,70.5,90.1,70.5z"/>
	<path fill="#FFFFFF" d="M102.8,70.9c0,0.1-0.1,0.3-0.2,0.5s-0.2,0.3-0.3,0.4c-0.5-0.1-0.9-0.3-1.2-0.8c-0.6,0.6-1.2,0.8-1.9,0.8
		s-1.2-0.2-1.5-0.6c-0.3-0.4-0.5-0.8-0.5-1.4c0-0.7,0.2-1.3,0.7-1.6c0.5-0.4,1.1-0.6,1.8-0.6c0.4,0,0.8,0,1.1,0.1v-0.4
		c0-0.7-0.3-1-1-1c-0.5,0-1.1,0.2-2,0.5c-0.3-0.3-0.4-0.7-0.4-1.2c0.9-0.4,1.9-0.6,2.8-0.6c0.7,0,1.2,0.2,1.6,0.5s0.6,0.9,0.6,1.7
		v2.7C102.5,70.3,102.6,70.7,102.8,70.9z M99.6,70.5c0.5,0,0.9-0.2,1.3-0.6v-1.2c-0.3,0-0.6-0.1-1-0.1s-0.6,0.1-0.8,0.3
		c-0.2,0.2-0.3,0.4-0.3,0.7s0.1,0.5,0.2,0.6S99.3,70.5,99.6,70.5z"/>
	<path fill="#FFFFFF" d="M109,71.8c-0.7,0-1.3-0.3-1.7-0.9c-0.4-0.6-0.6-1.4-0.6-2.5c0-1,0.2-1.9,0.7-2.5c0.5-0.6,1.1-0.9,1.8-0.9
		c0.4,0,0.9,0.1,1.4,0.4v-3.3l0.1-0.1h0.6c0.3,0,0.5,0.1,0.7,0.2c0.1,0.2,0.2,0.4,0.2,0.8v6.7c0,0.5,0.1,0.9,0.4,1.1
		c0,0.1-0.1,0.3-0.2,0.5c-0.1,0.2-0.2,0.3-0.3,0.4c-0.5-0.1-0.9-0.3-1.2-0.8C110.3,71.5,109.7,71.8,109,71.8z M109.4,70.5
		c0.5,0,0.9-0.2,1.2-0.7v-3.1c-0.4-0.3-0.8-0.4-1.2-0.4s-0.6,0.2-0.8,0.6c-0.2,0.4-0.3,0.9-0.3,1.6s0.1,1.2,0.3,1.5
		C108.8,70.3,109.1,70.5,109.4,70.5z"/>
	<path fill="#FFFFFF" d="M115.9,66.4v5.2c-0.2,0-0.5,0.1-0.8,0.1s-0.6,0-0.8-0.1V67c0-0.5-0.2-0.7-0.6-0.7h-0.2
		c0-0.1-0.1-0.3-0.1-0.6c0-0.2,0-0.4,0.1-0.6c0.3,0,0.6-0.1,0.9-0.1h0.2c0.4,0,0.7,0.1,0.9,0.4C115.7,65.7,115.9,66,115.9,66.4z
		 M114,64c-0.1-0.2-0.1-0.4-0.1-0.6s0-0.4,0.1-0.6c0.2-0.1,0.5-0.2,0.8-0.2c0.3,0,0.6,0.1,0.8,0.2c0.1,0.2,0.1,0.4,0.1,0.6
		s0,0.4-0.1,0.6c-0.2,0.1-0.5,0.2-0.8,0.2C114.4,64.2,114.1,64.1,114,64z"/>
	<path fill="#FFFFFF" d="M122.9,70.9c0,0.1-0.1,0.3-0.2,0.5s-0.2,0.3-0.3,0.4c-0.5-0.1-0.9-0.3-1.2-0.8c-0.6,0.6-1.2,0.8-1.9,0.8
		s-1.2-0.2-1.5-0.6c-0.3-0.4-0.5-0.8-0.5-1.4c0-0.7,0.2-1.3,0.7-1.6c0.5-0.4,1.1-0.6,1.8-0.6c0.4,0,0.8,0,1.1,0.1v-0.4
		c0-0.7-0.3-1-1-1c-0.5,0-1.1,0.2-2,0.5c-0.3-0.3-0.4-0.7-0.4-1.2c0.9-0.4,1.9-0.6,2.8-0.6c0.7,0,1.2,0.2,1.6,0.5s0.6,0.9,0.6,1.7
		v2.7C122.5,70.3,122.6,70.7,122.9,70.9z M119.6,70.5c0.5,0,0.9-0.2,1.3-0.6v-1.2c-0.3,0-0.6-0.1-1-0.1s-0.6,0.1-0.8,0.3
		c-0.2,0.2-0.3,0.4-0.3,0.7s0.1,0.5,0.2,0.6S119.4,70.5,119.6,70.5z"/>
	<path fill="#FFFFFF" d="M124.2,73.7c-0.2-0.1-0.3-0.3-0.3-0.6c0,0,0-0.1,0-0.1c0.3-0.1,0.6-0.3,0.7-0.6c0.2-0.2,0.3-0.5,0.3-0.7
		c-0.3-0.1-0.4-0.1-0.5-0.2c-0.1-0.1-0.1-0.4-0.1-0.6c0-0.3,0-0.5,0.1-0.6c0.2-0.1,0.5-0.2,0.8-0.2s0.6,0.1,0.7,0.2
		c0.1,0.2,0.1,0.5,0.1,0.8c0,0.6-0.2,1.1-0.5,1.5C125.2,73.1,124.8,73.4,124.2,73.7z"/>
	<path fill="#FFFFFF" d="M132.5,71.8c-0.7,0-1.3-0.3-1.7-0.9c-0.4-0.6-0.6-1.4-0.6-2.5s0.2-1.9,0.7-2.4c0.5-0.6,1.1-0.9,1.7-0.9
		c0.5,0,1,0.1,1.5,0.4v-3.4l0.1-0.1h0.5c0.3,0,0.4,0.1,0.5,0.2c0.1,0.1,0.1,0.3,0.1,0.6v6.9c0,0.6,0.1,1,0.4,1.3
		c-0.1,0.3-0.3,0.5-0.5,0.6c-0.5-0.1-0.8-0.4-1-0.8C133.9,71.5,133.3,71.8,132.5,71.8z M132.8,70.7c0.6,0,1.1-0.3,1.5-0.9v-3.3
		c-0.5-0.3-0.9-0.5-1.3-0.5c-0.4,0-0.7,0.2-1,0.6c-0.3,0.4-0.4,1-0.4,1.7c0,0.8,0.1,1.3,0.3,1.7C132.1,70.5,132.4,70.7,132.8,70.7z"
		/>
	<path fill="#FFFFFF" d="M142.3,68.8h-3.9c0,0.6,0.2,1.1,0.4,1.4s0.6,0.5,1.2,0.5s1.1-0.2,1.8-0.5c0.2,0.2,0.4,0.5,0.4,0.8
		c-0.7,0.5-1.5,0.7-2.4,0.7s-1.6-0.3-2-0.9c-0.4-0.6-0.6-1.4-0.6-2.4s0.2-1.8,0.7-2.4c0.5-0.6,1.1-0.9,1.9-0.9
		c0.8,0,1.5,0.3,1.9,0.8c0.5,0.5,0.7,1.2,0.7,2C142.4,68.1,142.4,68.5,142.3,68.8z M140.9,66.4c-0.2-0.3-0.6-0.5-1-0.5
		c-0.4,0-0.8,0.2-1,0.5c-0.2,0.3-0.4,0.8-0.4,1.4h2.7v-0.2C141.2,67.2,141.1,66.8,140.9,66.4z"/>
	<path fill="#FFFFFF" d="M149.2,67.2v3.1c0,0.5,0.1,0.9,0.2,1.2c-0.2,0.2-0.5,0.3-0.8,0.3c-0.5,0-0.7-0.3-0.7-0.8v-3.4
		c0-0.5-0.1-0.8-0.2-1c-0.1-0.2-0.3-0.3-0.6-0.3s-0.6,0.1-0.9,0.2c-0.3,0.2-0.6,0.4-0.8,0.6v4.5c-0.1,0-0.4,0.1-0.6,0.1
		s-0.5,0-0.6-0.1v-6.4l0.1-0.1h0.5c0.4,0,0.7,0.3,0.7,0.8c0.7-0.6,1.3-0.9,2.1-0.9c0.6,0,1,0.2,1.3,0.6
		C149.1,66,149.2,66.6,149.2,67.2z"/>
	<path fill="#FFFFFF" d="M154.3,65.2c0,0.1,0.1,0.3,0.1,0.5s0,0.3-0.1,0.5l-1.6,0v4c0,0.4,0.2,0.6,0.5,0.6h0.9
		c0.1,0.2,0.1,0.3,0.1,0.5c0,0.2,0,0.3,0,0.4c-0.5,0.1-1,0.1-1.4,0.1c-0.9,0-1.3-0.4-1.3-1.3v-4.3l-0.9,0c0-0.1-0.1-0.3-0.1-0.5
		s0-0.3,0.1-0.5l0.9,0V64c0-0.3,0-0.5,0.1-0.6c0.1-0.1,0.3-0.2,0.5-0.2h0.5l0.1,0.1v1.9L154.3,65.2z"/>
	<path fill="#FFFFFF" d="M155.4,65.8c0.1-0.3,0.2-0.5,0.5-0.7c0.6,0.1,0.9,0.5,1.1,1.2c0.4-0.8,0.9-1.2,1.7-1.2c0.2,0,0.4,0,0.7,0.1
		c0,0.5-0.1,0.9-0.3,1.2c-0.1,0-0.2,0-0.5-0.1c-0.6,0-1.1,0.3-1.4,1v4.3c-0.1,0-0.4,0.1-0.6,0.1c-0.3,0-0.5,0-0.6-0.1v-4.5
		C155.9,66.5,155.7,66.1,155.4,65.8z"/>
	<path fill="#FFFFFF" d="M164.7,65.7c0.6,0.6,0.9,1.5,0.9,2.7c0,1.2-0.3,2-0.9,2.7c-0.5,0.5-1.1,0.7-1.9,0.7s-1.4-0.2-1.9-0.7
		c-0.6-0.6-0.9-1.5-0.9-2.7c0-1.2,0.3-2,0.9-2.7c0.5-0.5,1.1-0.7,1.9-0.7S164.2,65.3,164.7,65.7z M161.4,68.4c0,1.6,0.5,2.4,1.5,2.4
		s1.5-0.8,1.5-2.4c0-0.5,0-0.8-0.1-1.2s-0.2-0.6-0.5-0.9c-0.2-0.2-0.5-0.4-0.9-0.4s-0.7,0.1-0.9,0.4c-0.2,0.2-0.4,0.5-0.5,0.9
		S161.4,67.9,161.4,68.4z"/>
	<path fill="#FFFFFF" d="M171.9,71.8c-0.7,0-1.3-0.3-1.7-0.9c-0.4-0.6-0.6-1.4-0.6-2.5s0.2-1.9,0.7-2.4c0.5-0.6,1.1-0.9,1.7-0.9
		c0.5,0,1,0.1,1.5,0.4v-3.4l0.1-0.1h0.5c0.3,0,0.4,0.1,0.5,0.2c0.1,0.1,0.1,0.3,0.1,0.6v6.9c0,0.6,0.1,1,0.4,1.3
		c-0.1,0.3-0.3,0.5-0.5,0.6c-0.5-0.1-0.8-0.4-1-0.8C173.3,71.5,172.6,71.8,171.9,71.8z M172.2,70.7c0.6,0,1.1-0.3,1.5-0.9v-3.3
		c-0.5-0.3-0.9-0.5-1.3-0.5c-0.4,0-0.7,0.2-1,0.6c-0.3,0.4-0.4,1-0.4,1.7c0,0.8,0.1,1.3,0.3,1.7C171.5,70.5,171.8,70.7,172.2,70.7z"
		/>
	<path fill="#FFFFFF" d="M181.2,65.7c0.6,0.6,0.9,1.5,0.9,2.7c0,1.2-0.3,2-0.9,2.7c-0.5,0.5-1.1,0.7-1.9,0.7s-1.4-0.2-1.9-0.7
		c-0.6-0.6-0.9-1.5-0.9-2.7c0-1.2,0.3-2,0.9-2.7c0.5-0.5,1.1-0.7,1.9-0.7S180.7,65.3,181.2,65.7z M177.8,68.4c0,1.6,0.5,2.4,1.5,2.4
		s1.5-0.8,1.5-2.4c0-0.5,0-0.8-0.1-1.2s-0.2-0.6-0.5-0.9c-0.2-0.2-0.5-0.4-0.9-0.4s-0.7,0.1-0.9,0.4c-0.2,0.2-0.4,0.5-0.5,0.9
		S177.8,67.9,177.8,68.4z"/>
	<path fill="#FFFFFF" d="M183.1,71.1c0-0.1,0.1-0.3,0.1-0.5c0.1-0.2,0.2-0.3,0.3-0.4c0.7,0.4,1.3,0.6,1.7,0.6s0.8-0.1,1-0.2
		s0.3-0.4,0.3-0.6c0-0.4-0.3-0.7-0.8-0.9l-0.7-0.3c-1.1-0.4-1.7-1-1.7-1.8c0-0.6,0.2-1,0.6-1.4c0.4-0.3,1-0.5,1.7-0.5s1.4,0.2,2,0.5
		c0,0.2,0,0.3-0.1,0.5c-0.1,0.2-0.2,0.3-0.3,0.4c-0.6-0.3-1.2-0.4-1.7-0.4c-0.3,0-0.5,0.1-0.7,0.2c-0.2,0.1-0.3,0.3-0.3,0.5
		s0.1,0.4,0.2,0.5c0.1,0.1,0.3,0.2,0.6,0.4l0.8,0.3c1.1,0.4,1.6,1.1,1.6,2c0,0.6-0.2,1-0.7,1.4s-1.1,0.5-1.8,0.5
		S183.8,71.6,183.1,71.1z"/>
	<path fill="#FFFFFF" d="M196.3,69.8l0,0.7v1.2c-0.2,0-0.4,0.1-0.6,0.1s-0.4,0-0.6-0.1v-1.2l0-0.7l-0.7,0h-2.4
		c-0.2-0.3-0.3-0.6-0.3-0.7c0-0.2,0.1-0.4,0.3-0.9l2.2-5.1c0.1,0,0.2,0,0.3,0c0.4,0,0.7,0.1,0.9,0.3l-1.6,3.6
		c-0.4,0.8-0.6,1.4-0.8,1.8l0,0c0.5,0,1,0,1.5,0h0.6c0-0.1,0-0.2,0-0.4v-1.1c0-0.3,0.1-0.5,0.2-0.7s0.4-0.3,0.6-0.3h0.4l0.1,0.1V68
		l0,0.7l0.6,0h0.7c0,0.1,0,0.3,0,0.5s0,0.4-0.1,0.6H196.3z"/>
	<path fill="#FFFFFF" d="M205.1,65c0.7,0,1.3,0.3,1.6,0.9c0.4,0.6,0.6,1.4,0.6,2.5s-0.2,1.9-0.7,2.5c-0.5,0.6-1.1,0.9-1.7,0.9
		c-0.5,0-1-0.2-1.5-0.5v2.3c0,0.3,0,0.5-0.1,0.6s-0.3,0.2-0.5,0.2h-0.5l-0.1-0.1v-9.1l0.1-0.1h0.4c0.4,0,0.7,0.2,0.7,0.7
		C203.8,65.3,204.4,65,205.1,65z M204.8,66.1c-0.6,0-1.1,0.3-1.5,0.9v3.2c0.5,0.3,0.9,0.5,1.3,0.5s0.8-0.2,1-0.6
		c0.3-0.4,0.4-1,0.4-1.7s-0.1-1.3-0.3-1.7C205.4,66.3,205.1,66.1,204.8,66.1z"/>
	<path fill="#FFFFFF" d="M210.3,66.3v5.3c-0.1,0-0.4,0.1-0.6,0.1s-0.5,0-0.6-0.1v-4.8c0-0.2,0-0.4-0.1-0.5c-0.1-0.1-0.2-0.2-0.4-0.2
		h-0.1c0-0.1-0.1-0.3-0.1-0.4c0-0.2,0-0.3,0.1-0.5c0.3,0,0.5-0.1,0.8-0.1h0.2c0.3,0,0.6,0.1,0.7,0.3
		C210.2,65.6,210.3,65.9,210.3,66.3z M208.7,63.4c0-0.2,0-0.4,0.1-0.6c0.2-0.1,0.4-0.2,0.7-0.2s0.5,0.1,0.7,0.2
		c0.1,0.2,0.1,0.3,0.1,0.6c0,0.2,0,0.4-0.1,0.6c-0.1,0.1-0.4,0.2-0.7,0.2c-0.3,0-0.5-0.1-0.7-0.2C208.7,63.8,208.7,63.6,208.7,63.4z
		"/>
	<path fill="#FFFFFF" d="M214.1,70.6h0.5c0.1,0.2,0.1,0.4,0.1,0.5c0,0.2,0,0.3,0,0.4c-0.3,0.1-0.7,0.1-1.1,0.1
		c-0.8,0-1.2-0.4-1.2-1.3v-8.3l0.1-0.1h0.5c0.3,0,0.4,0.1,0.5,0.2c0.1,0.1,0.1,0.3,0.1,0.6v7.2C213.6,70.5,213.8,70.6,214.1,70.6z"
		/>
	<path fill="#FFFFFF" d="M221.1,71c-0.1,0.3-0.3,0.5-0.5,0.6c-0.5-0.1-0.8-0.4-1-0.8c-0.6,0.6-1.3,0.9-1.9,0.9
		c-0.6,0-1.1-0.2-1.5-0.6c-0.3-0.4-0.5-0.8-0.5-1.3c0-0.7,0.2-1.2,0.7-1.6c0.5-0.4,1.1-0.5,1.8-0.5c0.4,0,0.9,0,1.3,0.1v-0.5
		c0-0.8-0.4-1.2-1.1-1.2c-0.6,0-1.3,0.2-2.1,0.5c-0.2-0.2-0.4-0.5-0.4-0.9c0.9-0.4,1.8-0.6,2.7-0.6c0.7,0,1.2,0.2,1.6,0.5
		c0.4,0.4,0.6,0.9,0.6,1.6v2.7C220.7,70.4,220.9,70.8,221.1,71z M217.9,70.8c0.6,0,1.1-0.3,1.6-0.8v-1.2c-0.3,0-0.7-0.1-1.2-0.1
		c-0.4,0-0.8,0.1-1,0.3c-0.2,0.2-0.3,0.5-0.3,0.8s0.1,0.6,0.2,0.8C217.4,70.7,217.6,70.8,217.9,70.8z"/>
	<path fill="#FFFFFF" d="M222.4,65.8c0.1-0.3,0.2-0.5,0.5-0.7c0.6,0.1,0.9,0.5,1.1,1.2c0.4-0.8,0.9-1.2,1.7-1.2c0.2,0,0.4,0,0.7,0.1
		c0,0.5-0.1,0.9-0.3,1.2c-0.1,0-0.2,0-0.5-0.1c-0.6,0-1.1,0.3-1.4,1v4.3c-0.1,0-0.4,0.1-0.6,0.1c-0.3,0-0.5,0-0.6-0.1v-4.5
		C222.9,66.5,222.7,66.1,222.4,65.8z"/>
	<path fill="#FFFFFF" d="M232.2,68.8h-3.9c0,0.6,0.2,1.1,0.4,1.4s0.6,0.5,1.2,0.5s1.1-0.2,1.8-0.5c0.2,0.2,0.4,0.5,0.4,0.8
		c-0.7,0.5-1.5,0.7-2.4,0.7s-1.6-0.3-2-0.9c-0.4-0.6-0.6-1.4-0.6-2.4s0.2-1.8,0.7-2.4c0.5-0.6,1.1-0.9,1.9-0.9
		c0.8,0,1.5,0.3,1.9,0.8c0.5,0.5,0.7,1.2,0.7,2C232.3,68.1,232.3,68.5,232.2,68.8z M230.8,66.4c-0.2-0.3-0.6-0.5-1-0.5
		c-0.4,0-0.8,0.2-1,0.5c-0.2,0.3-0.4,0.8-0.4,1.4h2.7v-0.2C231.1,67.2,231,66.8,230.8,66.4z"/>
	<path fill="#FFFFFF" d="M233.4,71.1c0-0.1,0.1-0.3,0.1-0.5c0.1-0.2,0.2-0.3,0.3-0.4c0.7,0.4,1.3,0.6,1.7,0.6s0.8-0.1,1-0.2
		s0.3-0.4,0.3-0.6c0-0.4-0.3-0.7-0.8-0.9l-0.7-0.3c-1.1-0.4-1.7-1-1.7-1.8c0-0.6,0.2-1,0.6-1.4c0.4-0.3,1-0.5,1.7-0.5s1.4,0.2,2,0.5
		c0,0.2,0,0.3-0.1,0.5c-0.1,0.2-0.2,0.3-0.3,0.4c-0.6-0.3-1.2-0.4-1.7-0.4c-0.3,0-0.5,0.1-0.7,0.2c-0.2,0.1-0.3,0.3-0.3,0.5
		s0.1,0.4,0.2,0.5c0.1,0.1,0.3,0.2,0.6,0.4l0.8,0.3c1.1,0.4,1.6,1.1,1.6,2c0,0.6-0.2,1-0.7,1.4s-1.1,0.5-1.8,0.5
		S234.1,71.6,233.4,71.1z"/>
	<path fill="#FFFFFF" d="M57.3,87.4c-0.7,0-1.3-0.3-1.7-0.9c-0.4-0.6-0.6-1.4-0.6-2.5s0.2-1.9,0.7-2.4c0.5-0.6,1.1-0.9,1.7-0.9
		c0.5,0,1,0.1,1.5,0.4v-3.4l0.1-0.1h0.5c0.3,0,0.4,0.1,0.5,0.2c0.1,0.1,0.1,0.3,0.1,0.6v6.9c0,0.6,0.1,1,0.4,1.3
		c-0.1,0.3-0.3,0.5-0.5,0.6c-0.5-0.1-0.8-0.4-1-0.8C58.7,87.1,58.1,87.4,57.3,87.4z M57.6,86.3c0.6,0,1.1-0.3,1.5-0.9v-3.3
		c-0.5-0.3-0.9-0.5-1.3-0.5c-0.4,0-0.7,0.2-1,0.6c-0.3,0.4-0.4,1-0.4,1.7c0,0.8,0.1,1.3,0.3,1.7C56.9,86.1,57.2,86.3,57.6,86.3z"/>
	<path fill="#FFFFFF" d="M66.6,81.3c0.6,0.6,0.9,1.5,0.9,2.7c0,1.2-0.3,2-0.9,2.7c-0.5,0.5-1.1,0.7-1.9,0.7c-0.8,0-1.4-0.2-1.9-0.7
		C62.3,86,62,85.2,62,84c0-1.2,0.3-2,0.9-2.7c0.5-0.5,1.1-0.7,1.9-0.7C65.5,80.6,66.1,80.9,66.6,81.3z M63.3,84
		c0,1.6,0.5,2.4,1.5,2.4c1,0,1.5-0.8,1.5-2.4c0-0.5,0-0.8-0.1-1.2s-0.2-0.6-0.5-0.9c-0.2-0.2-0.5-0.4-0.9-0.4s-0.7,0.1-0.9,0.4
		c-0.2,0.2-0.4,0.5-0.5,0.9S63.3,83.6,63.3,84z"/>
	<path fill="#FFFFFF" d="M75.1,80.6c0.7,0,1.3,0.3,1.6,0.9c0.4,0.6,0.6,1.4,0.6,2.5s-0.2,1.9-0.7,2.5c-0.5,0.6-1.1,0.9-1.7,0.9
		c-0.5,0-1-0.2-1.5-0.5v2.3c0,0.3,0,0.5-0.1,0.6S72.8,90,72.6,90h-0.5L72,89.9v-9.1l0.1-0.1h0.4c0.4,0,0.7,0.2,0.7,0.7
		C73.7,80.9,74.3,80.6,75.1,80.6z M74.8,81.7c-0.6,0-1.1,0.3-1.5,0.9v3.2c0.5,0.3,0.9,0.5,1.3,0.5s0.8-0.2,1-0.6
		c0.3-0.4,0.4-1,0.4-1.7s-0.1-1.3-0.3-1.7C75.4,81.9,75.1,81.7,74.8,81.7z"/>
	<path fill="#FFFFFF" d="M78.5,81.4c0.1-0.3,0.2-0.5,0.5-0.7c0.6,0.1,0.9,0.5,1.1,1.2c0.4-0.8,0.9-1.2,1.7-1.2c0.2,0,0.4,0,0.7,0.1
		c0,0.5-0.1,0.9-0.3,1.2c-0.1,0-0.2,0-0.5-0.1c-0.6,0-1.1,0.3-1.4,1v4.3c-0.1,0-0.4,0.1-0.6,0.1c-0.3,0-0.5,0-0.6-0.1v-4.5
		C79,82.1,78.9,81.7,78.5,81.4z"/>
	<path fill="#FFFFFF" d="M87.9,81.3c0.6,0.6,0.9,1.5,0.9,2.7c0,1.2-0.3,2-0.9,2.7c-0.5,0.5-1.1,0.7-1.9,0.7s-1.4-0.2-1.9-0.7
		c-0.6-0.6-0.9-1.5-0.9-2.7c0-1.2,0.3-2,0.9-2.7c0.5-0.5,1.1-0.7,1.9-0.7S87.4,80.9,87.9,81.3z M84.5,84c0,1.6,0.5,2.4,1.5,2.4
		s1.5-0.8,1.5-2.4c0-0.5,0-0.8-0.1-1.2s-0.2-0.6-0.5-0.9c-0.2-0.2-0.5-0.4-0.9-0.4s-0.7,0.1-0.9,0.4c-0.2,0.2-0.4,0.5-0.5,0.9
		S84.5,83.6,84.5,84z"/>
	<path fill="#FFFFFF" d="M92.1,87.3c-0.7,0-1.2-0.3-1.6-0.9S90,85,90,84c0-1.1,0.2-1.9,0.7-2.5c0.5-0.6,1.1-0.9,1.7-0.9
		s1.3,0.2,1.8,0.7c0.2-0.3,0.5-0.5,0.8-0.6c0.2,0.1,0.4,0.3,0.5,0.7c-0.2,0.2-0.4,0.6-0.4,1.3v3.9c0,1.3-0.2,2.2-0.6,2.7
		c-0.5,0.6-1.2,0.8-2.1,0.8c-0.8,0-1.5-0.1-2.2-0.4c0-0.4,0.1-0.7,0.3-1c0.6,0.3,1.2,0.4,1.8,0.4s1-0.2,1.3-0.5
		c0.2-0.3,0.4-0.8,0.4-1.4v-0.6C93.4,87.1,92.8,87.3,92.1,87.3z M94,85.4v-3.2c-0.5-0.4-0.9-0.6-1.3-0.6s-0.8,0.2-1,0.6
		c-0.3,0.4-0.4,1-0.4,1.7c0,0.8,0.1,1.3,0.3,1.7c0.2,0.4,0.5,0.6,0.9,0.6C93,86.2,93.5,86,94,85.4z"/>
	<path fill="#FFFFFF" d="M96.9,81.4c0.1-0.3,0.2-0.5,0.5-0.7c0.6,0.1,0.9,0.5,1.1,1.2c0.4-0.8,0.9-1.2,1.7-1.2c0.2,0,0.4,0,0.7,0.1
		c0,0.5-0.1,0.9-0.3,1.2c-0.1,0-0.2,0-0.5-0.1c-0.6,0-1.1,0.3-1.4,1v4.3c-0.1,0-0.4,0.1-0.6,0.1c-0.3,0-0.5,0-0.6-0.1v-4.5
		C97.4,82.1,97.2,81.7,96.9,81.4z"/>
	<path fill="#FFFFFF" d="M106.8,86.6c-0.1,0.3-0.3,0.5-0.5,0.6c-0.5-0.1-0.8-0.4-1-0.8c-0.6,0.6-1.3,0.9-1.9,0.9
		c-0.6,0-1.1-0.2-1.5-0.6c-0.3-0.4-0.5-0.8-0.5-1.3c0-0.7,0.2-1.2,0.7-1.6c0.5-0.4,1.1-0.5,1.8-0.5c0.4,0,0.9,0,1.3,0.1v-0.5
		c0-0.8-0.4-1.2-1.1-1.2c-0.6,0-1.3,0.2-2.1,0.5c-0.2-0.2-0.4-0.5-0.4-0.9c0.9-0.4,1.8-0.6,2.7-0.6c0.7,0,1.2,0.2,1.6,0.5
		c0.4,0.4,0.6,0.9,0.6,1.6v2.7C106.5,86.1,106.6,86.4,106.8,86.6z M103.6,86.4c0.6,0,1.1-0.3,1.6-0.8v-1.2c-0.3,0-0.7-0.1-1.2-0.1
		c-0.4,0-0.8,0.1-1,0.3c-0.2,0.2-0.3,0.5-0.3,0.8s0.1,0.6,0.2,0.8C103.1,86.3,103.3,86.4,103.6,86.4z"/>
	<path fill="#FFFFFF" d="M112,83.1c0-0.5-0.1-0.8-0.2-1s-0.3-0.3-0.6-0.3c-0.5,0-1,0.3-1.5,0.8v4.5c-0.1,0-0.4,0.1-0.6,0.1
		s-0.5,0-0.6-0.1v-6.4l0.1-0.1h0.5c0.4,0,0.7,0.3,0.7,0.8c0.6-0.6,1.2-0.9,1.9-0.9s1.2,0.3,1.4,1c0.7-0.6,1.4-1,2.1-1
		c0.5,0,0.9,0.2,1.2,0.6c0.3,0.4,0.4,0.9,0.4,1.5v3.2c0,0.5,0.1,0.9,0.2,1.2c-0.2,0.2-0.5,0.3-0.8,0.3c-0.4,0-0.7-0.3-0.7-0.8v-3.4
		c0-0.5-0.1-0.8-0.2-1c-0.1-0.2-0.3-0.3-0.6-0.3c-0.5,0-1,0.3-1.5,0.8v4.5c-0.1,0-0.4,0.1-0.6,0.1s-0.5,0-0.6-0.1V83.1z"/>
	<path fill="#FFFFFF" d="M123.7,86.6c-0.1,0.3-0.3,0.5-0.5,0.6c-0.5-0.1-0.8-0.4-1-0.8c-0.6,0.6-1.3,0.9-1.9,0.9
		c-0.6,0-1.1-0.2-1.5-0.6c-0.3-0.4-0.5-0.8-0.5-1.3c0-0.7,0.2-1.2,0.7-1.6c0.5-0.4,1.1-0.5,1.8-0.5c0.4,0,0.9,0,1.3,0.1v-0.5
		c0-0.8-0.4-1.2-1.1-1.2c-0.6,0-1.3,0.2-2.1,0.5c-0.2-0.2-0.4-0.5-0.4-0.9c0.9-0.4,1.8-0.6,2.7-0.6c0.7,0,1.2,0.2,1.6,0.5
		c0.4,0.4,0.6,0.9,0.6,1.6v2.7C123.4,86.1,123.5,86.4,123.7,86.6z M120.5,86.4c0.6,0,1.1-0.3,1.6-0.8v-1.2c-0.3,0-0.7-0.1-1.2-0.1
		c-0.4,0-0.8,0.1-1,0.3c-0.2,0.2-0.3,0.5-0.3,0.8s0.1,0.6,0.2,0.8C120,86.3,120.3,86.4,120.5,86.4z"/>
	<path fill="#FFFFFF" d="M125.2,86.5c0-0.3,0-0.5,0.1-0.6c0.2-0.1,0.4-0.2,0.8-0.2s0.6,0.1,0.8,0.2c0.1,0.2,0.1,0.4,0.1,0.6
		c0,0.3,0,0.5-0.1,0.6c-0.2,0.1-0.4,0.2-0.7,0.2c-0.3,0-0.6-0.1-0.8-0.2C125.2,87,125.2,86.8,125.2,86.5z"/>
</g>
</svg>