<!-- Generator: Adobe Illustrator 17.1.0, SVG Export Plug-In  -->
<svg version="1.1"
	 xmlns="http://www.w3.org/2000/svg" xmlns:xlink="http://www.w3.org/1999/xlink" xmlns:a="http://ns.adobe.com/AdobeSVGViewerExtensions/3.0/"
	 x="0px" y="0px" width="373.9px" height="370.2px" viewBox="0 0 373.9 370.2" enable-background="new 0 0 373.9 370.2"
	 xml:space="preserve">
<defs>
</defs>
<g>
	<path fill="#FFFFFF" d="M228.9,200c-0.5,0-1-0.4-1-1v-15.1c0-0.5,0.4-1,1-1c0.5,0,1,0.4,1,1v15.1C229.8,199.6,229.4,200,228.9,200"
		/>
	<path fill="#FFFFFF" d="M239.7,197c-0.5,0-1-0.4-1-0.9v-11.8c0-0.5,0.4-0.9,1-0.9c0.5,0,1,0.4,1,0.9v11.8
		C240.7,196.6,240.2,197,239.7,197"/>
	<path fill="#FFFFFF" d="M250.5,194.7c-0.5,0-1-0.4-1-0.9v-9.9c0-0.5,0.4-0.9,1-0.9c0.5,0,1,0.4,1,0.9v9.9
		C251.5,194.3,251.1,194.7,250.5,194.7"/>
	<path fill="#FFFFFF" d="M261.4,191.6c-0.6,0-1.2-0.5-1.2-1v-6.8c0-0.6,0.5-1,1.2-1c0.6,0,1.2,0.5,1.2,1v6.8
		C262.6,191.1,262,191.6,261.4,191.6"/>
	<path fill="#FFFFFF" d="M273.3,188.8c-0.7,0-1.3-0.4-1.3-0.9v-4.2c0-0.5,0.6-0.9,1.3-0.9c0.7,0,1.3,0.4,1.3,0.9v4.2
		C274.6,188.4,274,188.8,273.3,188.8"/>
	<path fill="#FFFFFF" d="M187.6,143.4c-0.5,0-1-0.4-1-1c0-0.5,0.4-1,1-1l15.1,0h0c0.5,0,1,0.4,1,1c0,0.5-0.4,1-1,1L187.6,143.4
		L187.6,143.4z"/>
	<path fill="#FFFFFF" d="M187.5,132.6c-0.5,0-0.9-0.4-0.9-1c0-0.5,0.4-1,0.9-1l11.9,0h0c0.5,0,0.9,0.4,0.9,1c0,0.5-0.4,1-0.9,1
		L187.5,132.6L187.5,132.6z"/>
	<path fill="#FFFFFF" d="M187.5,121.7c-0.5,0-1-0.4-1-1c0-0.5,0.4-1,1-1l10.4,0c0.5,0,1,0.4,1,1c0,0.5-0.4,1-1,1L187.5,121.7
		L187.5,121.7z"/>
	<path fill="#FFFFFF" d="M187.5,110.9c-0.5,0-1-0.4-1-1c0-0.5,0.4-1,1-1l7.6,0h0c0.5,0,1,0.4,1,1c0,0.5-0.4,1-1,1L187.5,110.9
		L187.5,110.9z"/>
	<path fill="#FFFFFF" d="M187.4,100c-0.5,0-0.9-0.4-0.9-1c0-0.5,0.4-1,0.9-1l4.7,0c0.5,0,0.9,0.4,0.9,1c0,0.5-0.4,1-0.9,1L187.4,100
		L187.4,100z"/>
	<path fill="#FFFFFF" d="M146.8,184.6c-0.5,0-1-0.4-1-1l-0.1-15.1c0-0.5,0.4-1,1-1h0c0.5,0,1,0.4,1,1l0.1,15.1
		C147.8,184.2,147.3,184.6,146.8,184.6L146.8,184.6z"/>
	<path fill="#FFFFFF" d="M135.9,184.7c-0.5,0-1-0.4-1-1l-0.1-13.2c0-0.5,0.4-1,1-1h0c0.5,0,1,0.4,1,1l0.1,13.2
		C136.9,184.2,136.5,184.7,135.9,184.7L135.9,184.7z"/>
	<path fill="#FFFFFF" d="M125.1,183.9c-0.5,0-1-0.4-1-0.9l0-9.7c0-0.5,0.4-0.9,1-0.9h0c0.5,0,1,0.4,1,0.9l0,9.7
		C126.1,183.5,125.6,183.9,125.1,183.9L125.1,183.9z"/>
	<path fill="#FFFFFF" d="M114.2,183.7c-0.5,0-1-0.4-1-0.9l0-6.7c0-0.5,0.4-0.9,1-0.9h0c0.5,0,1,0.4,1,0.9l0,6.7
		C115.2,183.3,114.8,183.7,114.2,183.7L114.2,183.7z"/>
	<path fill="#FFFFFF" d="M103.4,184.1c-0.5,0-1-0.4-1-0.9l0-4.9c0-0.5,0.4-0.9,1-0.9h0c0.5,0,1,0.4,1,0.9l0,4.9
		C104.4,183.7,103.9,184.1,103.4,184.1L103.4,184.1z"/>
	<path fill="#FFFFFF" d="M186.9,227L186.9,227l-13.7-0.1c-0.5,0-1-0.4-1-1c0-0.5,0.4-1,1-1h0l13.7,0.1c0.5,0,1,0.4,1,1
		C187.8,226.6,187.4,227,186.9,227"/>
	<path fill="#FFFFFF" d="M186.8,237.8L186.8,237.8l-12.1-0.1c-0.5,0-1-0.4-1-1c0-0.5,0.4-1,1-1l12.1,0.1c0.5,0,1,0.4,1,1
		C187.8,237.4,187.3,237.8,186.8,237.8"/>
	<path fill="#FFFFFF" d="M186.7,248.7L186.7,248.7l-8.8-0.1c-0.5,0-1-0.4-1-1c0-0.5,0.4-1,1-1h0l8.8,0.1c0.5,0,1,0.4,1,1
		C187.7,248.3,187.2,248.7,186.7,248.7"/>
	<path fill="#FFFFFF" d="M186.6,259.5L186.6,259.5l-5.9,0c-0.5,0-1-0.4-1-1c0-0.5,0.4-1,1-1l5.9,0c0.5,0,1,0.4,1,1
		C187.6,259.1,187.1,259.5,186.6,259.5"/>
	<path fill="#A9D42D" d="M187.5,207.5c-13.1,0-23.7-10.6-23.7-23.7c0-13.1,10.6-23.7,23.7-23.7c13.1,0,23.7,10.6,23.7,23.7
		C211.2,196.8,200.6,207.5,187.5,207.5 M187.5,162c-12,0-21.7,9.7-21.7,21.7c0,12,9.7,21.7,21.7,21.7c12,0,21.7-9.7,21.7-21.7
		C209.3,171.8,199.5,162,187.5,162"/>
	<path fill="#A9D42D" d="M187.5,190.4c-3.6,0-6.6-3-6.6-6.6c0-3.6,3-6.6,6.6-6.6c3.6,0,6.6,3,6.6,6.6
		C194.1,187.4,191.2,190.4,187.5,190.4 M187.5,179.1c-2.6,0-4.6,2.1-4.6,4.6c0,2.6,2.1,4.6,4.6,4.6c2.6,0,4.6-2.1,4.6-4.6
		C192.1,181.2,190.1,179.1,187.5,179.1"/>
	<rect x="222.5" y="183.9" fill="#A9D42D" width="2" height="16.9"/>
	<rect x="233.3" y="183.9" fill="#A9D42D" width="2" height="13.7"/>
	<rect x="244.1" y="183.9" fill="#A9D42D" width="2" height="12.1"/>
	<rect x="255" y="183.9" fill="#A9D42D" width="2" height="8.8"/>
	<rect x="266.6" y="183.9" fill="#A9D42D" width="2.3" height="5.9"/>
	
		<rect x="195" y="139.4" transform="matrix(2.852988e-003 1 -1 2.852988e-003 343.3032 -48.6024)" fill="#A9D42D" width="2" height="16.9"/>
	<rect x="187.6" y="136" fill="#A9D42D" width="13.7" height="2"/>
	<rect x="187.5" y="125.2" fill="#A9D42D" width="12.1" height="2"/>
	<rect x="187.5" y="114.3" fill="#A9D42D" width="8.8" height="2"/>
	<rect x="187.5" y="103.5" fill="#A9D42D" width="5.9" height="2"/>
	
		<rect x="143.7" y="174.2" transform="matrix(3.964370e-003 1 -1 3.964370e-003 326.725 22.3239)" fill="#A9D42D" width="16.9" height="2"/>
	
		<rect x="134.4" y="175.8" transform="matrix(3.854817e-003 1 -1 3.854817e-003 317.5548 34.7823)" fill="#A9D42D" width="13.7" height="2"/>
	
		<rect x="124.5" y="176.7" transform="matrix(3.928250e-003 1 -1 3.928250e-003 307.6326 46.4887)" fill="#A9D42D" width="12.1" height="2"/>
	
		<rect x="115.2" y="178.3" transform="matrix(4.093354e-003 1 -1 4.093354e-003 298.4722 58.9443)" fill="#A9D42D" width="8.8" height="2"/>
	<polygon fill="#A9D42D" points="107.8,183.8 107.8,177 109.8,177 109.8,183.8 	"/>
	<polygon fill="#A9D42D" points="186.9,221.6 170.6,221.5 170.6,219.5 186.9,219.6 	"/>
	
		<rect x="173.6" y="230.4" transform="matrix(1 7.807834e-003 -7.807834e-003 1 1.8121 -1.4001)" fill="#A9D42D" width="13.2" height="2"/>
	
		<rect x="176.4" y="241.3" transform="matrix(1 7.774298e-003 -7.774298e-003 1 1.8887 -1.4041)" fill="#A9D42D" width="10.4" height="2"/>
	
		<rect x="179.1" y="252.1" transform="matrix(1 7.713121e-003 -7.713121e-003 1 1.9576 -1.4029)" fill="#A9D42D" width="7.6" height="2"/>
	
		<rect x="181.2" y="263" transform="matrix(1 7.828187e-003 -7.828187e-003 1 2.0719 -1.4315)" fill="#A9D42D" width="5.3" height="2"/>
	<path fill="#FFFFFF" d="M187.6,291.8c-0.5,0-0.8-0.3-1-0.8l-19.2-79.8l-17.3,10.6c-0.4,0.2-0.9,0.2-1.2-0.1
		c-0.3-0.3-0.4-0.8-0.1-1.2l11.3-17.9L80,184.7c-0.4-0.1-0.8-0.5-0.8-0.9c0-0.5,0.3-0.9,0.8-1l80.3-19.3l-10.8-17.7
		c-0.2-0.4-0.2-0.9,0.2-1.2c0.3-0.3,0.8-0.4,1.2-0.1l17.7,11.2l17.8-79.6c0.1-0.4,0.5-0.8,1-0.8h0c0.5,0,0.9,0.3,1,0.8l19.6,81.3
		l16.9-10.7c0.4-0.2,0.9-0.2,1.2,0.1c0.3,0.3,0.4,0.8,0.1,1.2l-10.2,16.7l79,17.7c0.4,0.1,0.8,0.5,0.8,1c0,0.5-0.3,0.9-0.8,1
		l-80.7,19.5l10.9,17.2c0.2,0.4,0.2,0.9-0.1,1.2c-0.3,0.3-0.8,0.4-1.2,0.1l-17.4-10.7l-17.7,79.3
		C188.5,291.5,188.1,291.8,187.6,291.8L187.6,291.8z M168.1,208.7c0.1,0,0.3,0,0.4,0.1c0.3,0.1,0.5,0.4,0.6,0.7l18.6,77l17.1-76.5
		c0.1-0.3,0.3-0.6,0.6-0.7c0.3-0.1,0.6-0.1,0.9,0.1l15,9.2l-9.4-14.8c-0.2-0.3-0.2-0.6-0.1-0.9c0.1-0.3,0.4-0.5,0.7-0.6l78-18.8
		l-76.2-17.1c-0.3-0.1-0.6-0.3-0.7-0.6c-0.1-0.3-0.1-0.6,0.1-0.9l8.7-14.3l-14.5,9.2c-0.3,0.2-0.6,0.2-0.9,0.1
		c-0.3-0.1-0.5-0.4-0.6-0.7l-18.9-78.6l-17.2,76.8c-0.1,0.3-0.3,0.6-0.6,0.7c-0.3,0.1-0.6,0.1-0.9-0.1l-15.3-9.7l9.3,15.2
		c0.2,0.3,0.2,0.6,0.1,0.9c-0.1,0.3-0.4,0.5-0.7,0.6l-77.5,18.7l77.3,17.3c0.3,0.1,0.6,0.3,0.7,0.6c0.1,0.3,0.1,0.6-0.1,0.9
		l-9.8,15.5l14.8-9.1C167.7,208.8,167.9,208.7,168.1,208.7"/>
	<path fill="#FFFFFF" d="M187.5,215.9c-17.7,0-32.1-14.4-32.1-32.1c0-17.7,14.4-32.1,32.1-32.1c17.7,0,32.1,14.4,32.1,32.1
		C219.6,201.5,205.2,215.9,187.5,215.9 M187.5,153.6c-16.6,0-30.1,13.5-30.1,30.1s13.5,30.1,30.1,30.1c16.6,0,30.1-13.5,30.1-30.1
		S204.1,153.6,187.5,153.6"/>
	<path fill="#FFFFFF" d="M187.4,153.2c-0.5,0-1-0.4-1-1V79.5c0-0.5,0.4-1,1-1c0.5,0,1,0.4,1,1v72.7
		C188.4,152.7,187.9,153.2,187.4,153.2"/>
	<path fill="#FFFFFF" d="M291.6,184.5h-72.4c-0.5,0-1-0.4-1-1c0-0.5,0.4-1,1-1h72.4c0.5,0,1,0.4,1,1
		C292.5,184.1,292.1,184.5,291.6,184.5"/>
	<path fill="#FFFFFF" d="M187.5,288.7c-0.5,0-1-0.4-1-1v-72.8c0-0.5,0.4-1,1-1c0.5,0,1,0.4,1,1v72.8
		C188.4,288.3,188,288.7,187.5,288.7"/>
	<path fill="#FFFFFF" d="M155.9,184.6H83.3c-0.5,0-1-0.4-1-1c0-0.5,0.4-1,1-1h72.7c0.5,0,1,0.4,1,1
		C156.9,184.2,156.5,184.6,155.9,184.6"/>
	<path fill="#A9D42D" d="M187.5,370.2c-18.4,0-33.4-15-33.4-33.4c0-18.4,15-33.4,33.4-33.4c18.4,0,33.4,15,33.4,33.4
		C221,355.2,206,370.2,187.5,370.2"/>
	<path fill="#A9D42D" d="M187.5,66.9c-18.4,0-33.4-15-33.4-33.4c0-18.4,15-33.4,33.4-33.4C206,0,221,15,221,33.4
		C221,51.9,206,66.9,187.5,66.9"/>
	<path fill="#A9D42D" d="M340.5,215c-18.4,0-33.4-15-33.4-33.4c0-18.4,15-33.4,33.4-33.4c18.4,0,33.4,15,33.4,33.4
		C373.9,200,358.9,215,340.5,215"/>
	<path fill="#A9D42D" d="M294.4,105.9c-18.4,0-33.4-15-33.4-33.4c0-18.4,15-33.4,33.4-33.4c18.4,0,33.4,15,33.4,33.4
		C327.8,90.9,312.8,105.9,294.4,105.9"/>
	<path fill="#A9D42D" d="M294.4,329.7c-18.4,0-33.4-15-33.4-33.4c0-18.4,15-33.4,33.4-33.4c18.4,0,33.4,15,33.4,33.4
		C327.8,314.7,312.8,329.7,294.4,329.7"/>
	<path fill="#A9D42D" d="M79.6,105.9c-18.4,0-33.4-15-33.4-33.4C46.1,54,61.1,39,79.6,39C98,39,113,54,113,72.4
		C113,90.9,98,105.9,79.6,105.9"/>
	<path fill="#A9D42D" d="M79.6,329.7c-18.4,0-33.4-15-33.4-33.4c0-18.4,15-33.4,33.4-33.4c18.4,0,33.4,15,33.4,33.4
		C113,314.7,98,329.7,79.6,329.7"/>
	<path fill="#A9D42D" d="M33.4,215C15,215,0,200,0,181.5c0-18.4,15-33.4,33.4-33.4c18.4,0,33.4,15,33.4,33.4
		C66.9,200,51.9,215,33.4,215"/>
	<polygon fill="#043A63" points="202.1,353.6 175.2,353.6 175.2,322.1 179.7,322.1 179.7,324.4 177.4,324.4 177.4,351.3 
		199.9,351.3 199.9,324.4 197.6,324.4 197.6,322.1 202.1,322.1 	"/>
	<path fill="#043A63" d="M195.4,326.6h-13.4v-6.8h3.5c0.5-1.3,1.7-2.3,3.2-2.3c1.5,0,2.7,0.9,3.2,2.3h3.5V326.6z M184.2,324.4h8.9
		v-2.3h-3.3V321c0-0.6-0.5-1.1-1.1-1.1c-0.6,0-1.1,0.5-1.1,1.1v1.1h-3.3V324.4z"/>
	<rect x="181.9" y="335.6" fill="#043A63" width="13.5" height="2.3"/>
	<rect x="181.9" y="340.1" fill="#043A63" width="13.5" height="2.3"/>
	<rect x="181.9" y="344.6" fill="#043A63" width="13.5" height="2.3"/>
	<rect x="181.9" y="331.1" fill="#043A63" width="5.6" height="2.3"/>
	<path fill="#043A63" d="M339.4,196.1c-4.6,0-9.2-1.8-12.7-5.3l1.6-1.6c6.1,6.1,16.1,6.1,22.3,0c6.1-6.1,6.1-16.1,0-22.3l1.6-1.6
		c7,7,7,18.4,0,25.4C348.6,194.4,344,196.1,339.4,196.1"/>
	<path fill="#043A63" d="M339.4,191.6c-7.4,0-13.5-6.1-13.5-13.5c0-7.4,6.1-13.5,13.5-13.5c7.4,0,13.5,6.1,13.5,13.5
		C352.8,185.6,346.8,191.6,339.4,191.6 M339.4,166.9c-6.2,0-11.2,5-11.2,11.2c0,6.2,5,11.2,11.2,11.2c6.2,0,11.2-5,11.2-11.2
		C350.6,171.9,345.6,166.9,339.4,166.9"/>
	<rect x="333.7" y="198.4" fill="#043A63" width="11.2" height="2.3"/>
	<polygon fill="#043A63" points="339.9,188 341,180 336.2,177.3 338.9,173.6 338.5,173.4 334.6,174.4 332.1,172.3 333.5,170.5 
		335.1,171.9 338.6,171 342.5,172.5 339.5,176.6 343.4,178.8 343,181.8 344.7,180.2 346.1,174.3 348.3,174.9 346.7,181.4 	"/>
	<polygon fill="#043A63" points="335.7,184.3 333.5,183.9 333.9,181.5 331.4,181.3 331.6,179 336.5,179.6 	"/>
	<polygon fill="#043A63" points="51.4,196.1 15.4,196.1 15.4,178.2 17.7,178.2 17.7,193.9 49.2,193.9 49.2,178.2 51.4,178.2 	"/>
	<path fill="#043A63" d="M51.4,175.9h-36v-9h36V175.9z M17.7,173.7h31.5v-4.5H17.7V173.7z"/>
	<rect x="19.9" y="170.3" fill="#043A63" width="2.3" height="2.3"/>
	<rect x="23.3" y="170.3" fill="#043A63" width="2.3" height="2.3"/>
	<rect x="26.7" y="170.3" fill="#043A63" width="2.3" height="2.3"/>
	<path fill="#043A63" d="M28.9,191.6h-9v-13.5h9V191.6z M22.2,189.4h4.5v-9h-4.5V189.4z"/>
	<path fill="#043A63" d="M46.9,191.6H31.2v-13.5h15.7V191.6z M33.4,189.4h11.2v-9H33.4V189.4z"/>
	<polygon fill="#043A63" points="192,45.6 169.5,45.6 169.5,27.7 185.2,27.7 185.2,29.9 171.8,29.9 171.8,43.4 189.8,43.4 
		189.8,25.2 177.2,23.1 177.6,20.9 192,23.3 	"/>
	<rect x="174" y="32.2" fill="#043A63" width="11.2" height="2.3"/>
	<polygon fill="#043A63" points="205.5,46 195.1,43.4 195.7,41.2 203.3,43.1 203.3,30.2 195.7,32.1 195.1,29.9 205.5,27.3 	"/>
	<path fill="#043A63" d="M280.7,62.6L280.7,62.6c-0.9,0-1.7-0.4-2.4-1l-1.6-1.6l4.8-4.8l1.6,1.6c0.6,0.6,1,1.5,1,2.4
		c0,0.9-0.4,1.7-1,2.4C282.5,62.3,281.6,62.6,280.7,62.6 M279.9,60c0.2,0.2,0.5,0.3,0.8,0.3c0.3,0,0.6-0.1,0.8-0.3
		c0.2-0.2,0.3-0.5,0.3-0.8c0-0.3-0.1-0.6-0.3-0.8v0L279.9,60z"/>
	
		<rect x="280.9" y="63.1" transform="matrix(-0.7198 -0.6942 0.6942 -0.7198 447.0128 308.9843)" fill="#043A63" width="9.9" height="2.3"/>
	
		<rect x="298.9" y="80.4" transform="matrix(-0.7071 -0.7071 0.7071 -0.7071 460.0052 353.5438)" fill="#043A63" width="8.7" height="2.2"/>
	<path fill="#043A63" d="M306.3,90.2c-1.4,0-2.9-0.5-4-1.6l-6.8-6.8l1.6-1.6l6.8,6.8c1.3,1.3,3.4,1.3,4.8,0c1.3-1.3,1.3-3.5,0-4.8
		l-6.8-6.8l1.6-1.6l6.8,6.8c2.2,2.2,2.2,5.8,0,8C309.2,89.6,307.7,90.2,306.3,90.2"/>
	<path fill="#043A63" d="M302.7,72.2L302.7,72.2c-2.1,0-4.1-0.8-5.6-2.3c-1.5-1.5-2.3-3.5-2.3-5.6c0-2.1,0.8-4.1,2.3-5.6l2.1-2.1
		l1.6,1.6l-2.1,2.1c-1.1,1.1-1.6,2.5-1.6,4c0,1.5,0.6,2.9,1.6,4c1.1,1.1,2.5,1.6,4,1.6c1.5,0,2.9-0.6,4-1.6l2.1-2.1l1.6,1.6
		l-2.1,2.1C306.7,71.3,304.8,72.2,302.7,72.2"/>
	<path fill="#043A63" d="M310.3,67.8l-2.4-2.4l-0.8,0.8c-0.9,0.9-2,1.3-3.2,1.3c-1.2,0-2.3-0.5-3.2-1.3c-0.8-0.8-1.3-2-1.3-3.2
		c0-1.2,0.5-2.3,1.3-3.2l0.8-0.8l-2.4-2.4l1.6-1.6l4,4l-2.4,2.4c-0.4,0.4-0.7,1-0.7,1.6c0,0.6,0.2,1.2,0.7,1.6
		c0.4,0.4,1,0.7,1.6,0.7c0.6,0,1.2-0.2,1.6-0.7l2.4-2.4l4,4L310.3,67.8z"/>
	<rect x="280.8" y="84" fill="#043A63" width="2.3" height="2.3"/>
	
		<rect x="290.9" y="71.1" transform="matrix(-0.7111 -0.7031 0.7031 -0.7111 452.3383 330.3654)" fill="#043A63" width="6.3" height="2.2"/>
	<path fill="#043A63" d="M281.8,90.7c-1.5,0-2.9-0.6-4-1.6c-1.1-1.1-1.6-2.5-1.6-4c0-1.5,0.6-2.9,1.6-4L278,81l11.6-8.5l1.3,1.8
		l-11.6,8.4c-0.6,0.6-0.9,1.5-0.9,2.3c0,0.9,0.4,1.7,1,2.4c1.3,1.3,3.4,1.3,4.7,0.1l8.4-11.6l1.8,1.3l-8.6,11.8
		C284.8,90.2,283.3,90.7,281.8,90.7"/>
	<rect x="293.2" y="282.7" fill="#043A63" width="2.3" height="4.5"/>
	<rect x="303.4" y="295.1" fill="#043A63" width="4.5" height="2.3"/>
	<rect x="280.9" y="295.1" fill="#043A63" width="4.5" height="2.3"/>
	
		<rect x="284.2" y="287.2" transform="matrix(-0.7071 -0.7071 0.7071 -0.7071 285.0787 694.6612)" fill="#043A63" width="4.5" height="2.2"/>
	
		<rect x="297.8" y="284.6" transform="matrix(-0.7003 -0.7139 0.7139 -0.7003 300.1079 709.1621)" fill="#043A63" width="2.2" height="13.9"/>
	<path fill="#043A63" d="M294.4,314.2c-9.9,0-18-8.1-18-18c0-9.9,8.1-18,18-18c4.4,0,8.6,1.6,11.8,4.5l-1.5,1.7
		c-2.9-2.5-6.5-3.9-10.4-3.9c-8.7,0-15.7,7.1-15.7,15.7c0,8.7,7.1,15.7,15.7,15.7c8.7,0,15.7-7.1,15.7-15.7c0-3.8-1.4-7.5-3.9-10.4
		l1.7-1.5c2.9,3.3,4.5,7.5,4.5,11.8C312.4,306.2,304.3,314.2,294.4,314.2"/>
	<path fill="#043A63" d="M288.7,307.3l-1.9-1.2c1.6-2.6,4.5-4.2,7.6-4.2c3.1,0,6,1.6,7.6,4.2l-1.9,1.2c-1.2-2-3.4-3.1-5.7-3.1
		C292,304.1,289.9,305.3,288.7,307.3"/>
	<path fill="#043A63" d="M97.5,310.9h-36v-29.2h36V310.9z M63.8,308.6h31.5v-24.7H63.8V308.6z"/>
	<polygon fill="#043A63" points="84.3,307.1 72.8,294.5 66.9,300.4 65.3,298.8 72.8,291.2 86,305.6 	"/>
	<polygon fill="#043A63" points="92.3,303.8 87.5,299 83.2,303.6 81.6,302 87.4,295.7 93.8,302.2 	"/>
	<path fill="#043A63" d="M81.8,295.1c-1.9,0-3.4-1.5-3.4-3.4c0-1.9,1.5-3.4,3.4-3.4c1.9,0,3.4,1.5,3.4,3.4
		C85.2,293.6,83.7,295.1,81.8,295.1 M81.8,290.6c-0.6,0-1.1,0.5-1.1,1.1c0,0.6,0.5,1.1,1.1,1.1c0.6,0,1.1-0.5,1.1-1.1
		C82.9,291.1,82.4,290.6,81.8,290.6"/>
	
		<rect x="67.6" y="76.8" transform="matrix(-0.6864 -0.7272 0.7272 -0.6864 54.9539 191.264)" fill="#043A63" width="2.2" height="13.9"/>
	<path fill="#043A63" d="M76,81.3c-2.5,0-4.5-2-4.5-4.5s2-4.5,4.5-4.5c2.5,0,4.5,2,4.5,4.5S78.5,81.3,76,81.3 M76,74.5
		c-1.2,0-2.3,1-2.3,2.3s1,2.2,2.3,2.2c1.2,0,2.3-1,2.3-2.2S77.3,74.5,76,74.5"/>
	<path fill="#043A63" d="M87.3,73.4c-2.4,0-4.7-0.9-6.4-2.6c-1.7-1.7-2.6-4-2.6-6.4s0.9-4.7,2.6-6.4l3.1-3.1l12.8,12.7l-3.1,3.1
		C91.9,72.4,89.7,73.4,87.3,73.4 M84,58.1l-1.5,1.5c-1.3,1.3-2,3-2,4.8c0,1.8,0.7,3.5,2,4.8c1.3,1.3,3,2,4.8,2c1.8,0,3.5-0.7,4.8-2
		l1.5-1.5L84,58.1z"/>
	<polygon fill="#043A63" points="62.4,89.9 64.9,68.2 75.5,62.3 76.6,64.2 67,69.6 64.9,87.2 84.2,83.6 87.3,75.2 89.5,76 
		85.9,85.6 	"/>
</g>
</svg>