<!-- Generator: Adobe Illustrator 17.1.0, SVG Export Plug-In  -->
<svg version="1.1"
	 xmlns="http://www.w3.org/2000/svg" xmlns:xlink="http://www.w3.org/1999/xlink" xmlns:a="http://ns.adobe.com/AdobeSVGViewerExtensions/3.0/"
	 x="0px" y="0px" width="279.5px" height="249.8px" viewBox="0 0 279.5 249.8" enable-background="new 0 0 279.5 249.8"
	 xml:space="preserve">
<defs>
</defs>
<g>
	<path fill="#FFFFFF" d="M28.1,241.4c-1.1-0.3-1.7-1.4-1.4-2.4l0,0c0.3-1.1,1.4-1.7,2.4-1.4l0,0c1.1,0.3,1.7,1.4,1.4,2.4l0,0
		c-0.2,0.9-1,1.5-1.9,1.5l0,0C28.4,241.5,28.2,241.5,28.1,241.4z M30.3,233.5c-1-0.4-1.6-1.5-1.3-2.5l0,0c0.4-1.1,1.5-1.6,2.5-1.3
		l0,0c1,0.4,1.6,1.5,1.3,2.5l0,0c-0.3,0.8-1.1,1.4-1.9,1.4l0,0C30.7,233.6,30.5,233.6,30.3,233.5z M33,225.8c-1-0.4-1.5-1.6-1.1-2.6
		l0,0c0.4-1,1.6-1.5,2.6-1.1l0,0c1,0.4,1.5,1.6,1.1,2.6l0,0c-0.3,0.8-1.1,1.2-1.9,1.2l0,0C33.6,225.9,33.3,225.9,33,225.8z
		 M36.4,218.3c-1-0.5-1.4-1.7-0.9-2.7l0,0c0.5-1,1.7-1.4,2.7-0.9l0,0c1,0.5,1.4,1.7,0.8,2.7l0,0c-0.3,0.7-1,1.1-1.8,1.1l0,0
		C37,218.5,36.7,218.4,36.4,218.3z M40.3,211c-0.9-0.6-1.2-1.8-0.6-2.8l0,0c0.6-0.9,1.8-1.2,2.8-0.6l0,0c0.9,0.6,1.2,1.8,0.6,2.8
		l0,0c-0.4,0.6-1,0.9-1.7,0.9l0,0C41,211.4,40.7,211.3,40.3,211z M44.9,204.2c-0.9-0.7-1-1.9-0.4-2.8l0,0c0.7-0.9,1.9-1,2.8-0.4l0,0
		c0.9,0.7,1,1.9,0.4,2.8l0,0c-0.4,0.5-1,0.8-1.6,0.8l0,0C45.7,204.6,45.2,204.5,44.9,204.2z M50,197.8c-0.8-0.8-0.9-2-0.1-2.8l0,0
		c0.8-0.8,2-0.9,2.8-0.1l0,0c0.8,0.8,0.9,2,0.1,2.8l0,0c-0.4,0.4-0.9,0.6-1.5,0.6l0,0C50.9,198.3,50.4,198.2,50,197.8z M55.8,191.9
		c-0.7-0.8-0.7-2.1,0.1-2.8l0,0c0.8-0.7,2.1-0.7,2.8,0.1l0,0c0.7,0.8,0.7,2.1-0.2,2.8l0,0l0,0l0,0c-0.4,0.3-0.9,0.5-1.3,0.5l0,0
		C56.7,192.6,56.1,192.4,55.8,191.9z M62,186.6c-0.6-0.9-0.5-2.1,0.4-2.8l0,0c0.9-0.7,2.1-0.5,2.8,0.4l0,0c0.7,0.9,0.5,2.1-0.4,2.8
		l0,0c-0.4,0.3-0.8,0.4-1.2,0.4l0,0C63,187.4,62.4,187.1,62,186.6z M68.7,181.8c-0.6-0.9-0.3-2.2,0.7-2.8l0,0
		c0.9-0.6,2.2-0.3,2.8,0.7l0,0c0.6,0.9,0.3,2.2-0.7,2.8l0,0c-0.3,0.2-0.7,0.3-1,0.3l0,0C69.7,182.8,69.1,182.4,68.7,181.8z
		 M75.8,177.6c-0.5-1-0.1-2.2,0.9-2.7l0,0c1-0.5,2.2-0.1,2.7,0.9l0,0c0.5,1,0.1,2.2-0.9,2.7l0,0c-0.3,0.1-0.6,0.2-0.9,0.2l0,0
		C76.8,178.7,76.1,178.3,75.8,177.6z M83.1,174c-0.4-1,0.1-2.2,1.1-2.6l0,0c1-0.4,2.2,0.1,2.6,1.1l0,0c0.4,1-0.1,2.2-1.1,2.6l0,0
		l0,0l0,0c-0.3,0.1-0.5,0.2-0.8,0.2l0,0C84.2,175.3,83.5,174.8,83.1,174z M90.8,171c-0.4-1,0.2-2.2,1.2-2.5l0,0
		c1-0.4,2.2,0.2,2.5,1.2l0,0c0.4,1.1-0.2,2.2-1.3,2.5l0,0c-0.2,0.1-0.4,0.1-0.6,0.1l0,0C91.8,172.4,91.1,171.8,90.8,171z"/>
</g>
<g>
	<g>
		<path fill="#AEB1B1" d="M0.4,216c0,0,10.4,1.4,17.5,5.9c7.1,4.5,25.7,14.5,25.7,14.5v1.6c0,0-37.5-16.7-39.4-17.8
			C1.1,218.4,0.4,216,0.4,216z"/>
	</g>
	<g>
		<path fill="#D5DDDD" d="M42.9,236.8l-27.6-15.7c0,0-6.8-3.9-11.9-4.2l-2.5-0.6L0.4,216c0,0,6.9,0.9,10.7,2.5
			c3.7,1.7,3.8,1.7,8.1,4.1s24.5,13.8,24.5,13.8L42.9,236.8z"/>
	</g>
	<g>
		<path fill="#BF582B" d="M43.6,238L32,244.7L3.1,228c0,0-2.9-5.6-1.5-10.5c0,0,5.4-0.4,12.8,3.7C21.9,225.4,43.6,238,43.6,238z"/>
	</g>
	<g>
		<polygon fill="#E6E6E5" points="43.6,236.4 32,243.1 32,249.8 43.6,243.2 		"/>
	</g>
	<g>
		<polygon fill="#993D1C" points="0.9,222.8 33.3,241.2 33,241.4 0.9,223.1 		"/>
	</g>
	<g>
		<polygon fill="#993D1C" points="11.8,220.4 40.9,236.9 40.5,237.1 10.5,219.8 		"/>
	</g>
	<g>
		<polygon fill="#993D1C" points="0.9,220.3 35.5,240 35.2,240.2 0.8,220.5 		"/>
	</g>
	<g>
		<polygon fill="#993D1C" points="0.9,218.3 37.4,239 37,239.2 0.9,218.5 		"/>
	</g>
	<g>
		<polygon fill="#993D1C" points="3.9,217.9 39.2,237.9 38.8,238.1 3.4,217.8 		"/>
	</g>
	<g>
		<polygon fill="#96725A" points="2.4,225.5 32.7,242.7 32.4,242.9 2.6,225.8 		"/>
	</g>
	<g>
		<path fill="#4D5050" d="M10.8,205.4c0,0,3.1,14.1,3.2,14.7c0,0,0.5,0.2,0.5,0.2c0,0-3.6-15-3.6-15L10.8,205.4z"/>
	</g>
	<g>
		<path fill="#4D5050" d="M11.1,205.3c0,0,4.4,15.1,4.6,15.7c0,0,0.3,0.2,0.3,0.2c0,0-4.8-15.9-4.8-15.9H11.1z"/>
	</g>
	<g>
		<path fill="#4D5050" d="M11.4,205.3c0,0,6.7,16.6,6.9,17.2c0,0,0.2,0.1,0.4,0.2c0,0-7.1-17.5-7.1-17.5H11.4z"/>
	</g>
	<g>
		<g>
			<polygon fill="#8E9595" points="10.2,224 11.8,224 11.5,205.3 10.5,205.3 			"/>
		</g>
		<g>
			<path fill="#8E9595" d="M11.8,224.1c0,0,0,0.5-0.8,0.5c-0.8,0-0.8-0.6-0.8-0.6l1.6-0.1V224.1z"/>
		</g>
	</g>
	<g>
		<path fill="#B5BCBC" d="M11.2,205.7L11,224c0,0,0.3,0.3,0.6-0.1c0.2-0.4-0.1-18.3-0.1-18.3H11.2z"/>
	</g>
	<g>
		<path fill="#C7C7C7" d="M32,243.1L3.3,226.8c0,0-2-6.2-1.8-8.3l0.3-1L0.4,216c0,0-0.5,2.4-0.3,4.5c0.1,1.4-0.1,5.3,2.8,12.9
			L32,249.8V243.1z"/>
	</g>
	<g>
		<polygon fill="#D5DDDD" points="43,236.1 31.5,242.8 32,243.2 43.6,236.4 		"/>
	</g>
	<g>
		<path fill="#D5DDDD" d="M32.4,242.5L3.2,225.9c0,0-1.5-2.5-1.7-4.9c-0.2-2.5,0-3.4,0-3.4l-1.2-0.3c0,0,0.1,6.9,2.9,9.5L32,243.1
			L32.4,242.5z"/>
	</g>
	<g>
		<path fill="#4D5050" d="M11,205.3c0,0-0.3,24.1-0.5,25c0,0-0.5-0.3-0.5-0.3c0,0,0.8-24.8,0.8-24.8H11z"/>
	</g>
	<g>
		<path fill="#4D5050" d="M10.6,205.3c0,0-2.1,23-2.3,24c0,0-0.5-0.3-0.5-0.3c0,0,2.6-23.7,2.6-23.7H10.6z"/>
	</g>
	<g>
		<path fill="#4D5050" d="M10.6,205.3c0,0-4.2,21.7-4.4,22.7c0,0-0.5-0.3-0.5-0.3c0,0,4.7-22.4,4.7-22.4H10.6z"/>
	</g>
	<g>
		<g>
			<polygon fill="#D5DDDD" points="36.5,237.2 36.5,230.5 30.4,234 30.4,240.7 			"/>
		</g>
		<g>
			<path fill="#CFD1D2" d="M18.7,234l11.7,6.7V234c0,0-11.9-6.9-11.7-6.7C18.9,227.6,18.7,234,18.7,234z"/>
		</g>
		<g>
			<g>
				<polygon fill="#8DB33C" points="39.7,230.7 39.7,229.5 31.1,234.4 31.1,235.6 				"/>
			</g>
			<g>
				<path fill="#94C73D" d="M14.6,226.1l16.6,9.5v-1.1l-16.6-9.5C14.6,225.2,14.6,226.1,14.6,226.1z"/>
			</g>
			<g>
				<polygon fill="#A9D42D" points="39.7,229.5 23.2,220.2 14.6,224.9 31.1,234.4 				"/>
			</g>
		</g>
		<g>
			<g>
				<path fill="#898989" d="M26.6,234.4l0.4-0.2c0,0,0.4-0.3,1.1,0.4c0.7,0.6,0.8,1.4,0.6,1.9c0,0-0.1,0.2-0.1,0.3l-0.4,0.2
					L26.6,234.4z"/>
			</g>
			<g>
				<path fill="#A5A4A4" d="M27.3,237c0.3,0.1,1.2,0.2,1.2-0.8c0-1.1-0.8-1.7-1.2-1.9c-0.2-0.1-1.1-0.1-1.1,0.7
					C26.2,235.6,26.3,236.5,27.3,237z"/>
			</g>
			<g>
				<path fill="#008A93" d="M27.3,236.7c0.2,0.1,0.9,0.1,0.9-0.6c0-0.9-0.6-1.4-0.9-1.5c-0.2-0.1-0.8-0.1-0.9,0.6
					C26.4,235.2,26.4,236.3,27.3,236.7z"/>
			</g>
			<g>
				<path fill="#043A63" d="M27.3,234.6c0,0-0.7,0-0.7,0.6c0,0.6,0.2,1.1,0.3,1.1c0,0-0.2-0.2-0.4-0.9
					C26.3,234.9,26.8,234.6,27.3,234.6z"/>
			</g>
			<g>
				<path fill="#00D1D2" d="M27.2,234.8c0,0,0.6,0.4,0.7,0.9c0.1,0.5,0,0.8-0.2,0.8c0,0-0.8-1-0.8-1.3
					C27,234.9,27.2,234.8,27.2,234.8z"/>
			</g>
		</g>
		<g>
			<g>
				<path fill="#898989" d="M19.8,230.7l0.4-0.2c0,0,0.4-0.3,1.1,0.4c0.7,0.6,0.8,1.4,0.6,1.9c0,0-0.1,0.2-0.1,0.3l-0.4,0.2
					L19.8,230.7z"/>
			</g>
			<g>
				<path fill="#A5A4A4" d="M20.6,233.2c0.3,0.1,1.2,0.2,1.2-0.8c0-1.1-0.8-1.7-1.2-1.9c-0.2-0.1-1.1-0.1-1.1,0.7
					C19.4,231.9,19.6,232.8,20.6,233.2z"/>
			</g>
			<g>
				<path fill="#008A93" d="M20.5,233c0.2,0.1,0.9,0.1,0.9-0.6c0-0.9-0.6-1.4-0.9-1.5c-0.2-0.1-0.8-0.1-0.9,0.6
					C19.7,231.5,19.7,232.6,20.5,233z"/>
			</g>
			<g>
				<path fill="#043A63" d="M20.5,230.9c0,0-0.7,0-0.7,0.6c0,0.6,0.2,1.1,0.3,1.1c0,0-0.2-0.2-0.4-0.9
					C19.6,231.1,20,230.8,20.5,230.9z"/>
			</g>
			<g>
				<path fill="#00D1D2" d="M20.4,231.1c0,0,0.6,0.4,0.7,0.9c0.1,0.5,0,0.8-0.2,0.8c0,0-0.8-1-0.8-1.3S20.4,231.1,20.4,231.1z"/>
			</g>
		</g>
		<g>
			<polygon fill="#043A63" points="35.2,238 35.3,234 32.9,235.4 32.9,239.4 			"/>
		</g>
	</g>
	<g>
		<ellipse fill="#B5BCBC" cx="11.1" cy="205.4" rx="0.6" ry="0.3"/>
	</g>
	<g>
		<polygon fill="#4D5050" points="11.1,205.3 11.1,200.3 10.9,200.3 10.9,205.3 		"/>
	</g>
	<g>
		<path fill="#F9AE40" d="M11,204.1c0,0,1.8,0.3,2.2,0.9c0.4,0.8,2,0.6,2.1,0.6c0.1-0.1,0-3.5,0-3.5s-1.7,0.1-1.8-0.4
			c-0.1-0.5-2.4-1.1-2.4-1.1"/>
	</g>
	<g>
		<polygon fill="#B8700F" points="13,204.8 13.3,205.2 13.5,201.6 13.2,201.4 		"/>
	</g>
	<g>
		<polygon fill="#AEB1B1" points="34.6,234.3 35.1,234 35.1,238 34.5,238.3 		"/>
	</g>
	<g>
		<g>
			<path fill="#941D26" d="M24.5,241.7c0.7-0.5,0.7-1.7-0.1-2.8c-0.7-1.1-1.9-1.7-2.6-1.2c-0.7,0.5-1.5,1.1-0.2,3
				C22.9,242.7,23.8,242.1,24.5,241.7z M23.2,241.2c-0.3,0.2-0.9-0.1-1.3-0.7c-0.4-0.6-0.4-1.3-0.1-1.5c0.3-0.2,0.9,0.1,1.3,0.7
				C23.5,240.3,23.6,241,23.2,241.2z"/>
		</g>
		<g>
			<path fill="#941D26" d="M22.1,238.9c0,0-0.4,0.4,0.2,1.3c0.6,0.9,1.1,0.8,1.1,0.8s0.1,0.9-0.6,0.7c-0.7-0.3-2.1-2.2-1.6-2.6
				C21.7,238.7,22.1,238.9,22.1,238.9z"/>
		</g>
		<g>
			<path fill="#DB404B" d="M24,242c0.7-0.5,0.7-1.7-0.1-2.8c-0.7-1.1-1.9-1.7-2.6-1.2c-0.7,0.5-0.7,1.7,0.1,2.8
				C22.2,241.9,23.3,242.4,24,242z M23.2,241.2c-0.3,0.2-0.9-0.1-1.3-0.7c-0.4-0.6-0.4-1.3-0.1-1.5c0.3-0.2,0.9,0.1,1.3,0.7
				C23.5,240.3,23.6,241,23.2,241.2z"/>
		</g>
		<g>
			<path fill="#FFFFFF" d="M24.2,239.6c0,0-0.1-0.2-0.3-0.5c-0.1-0.1-0.4-0.5-0.4-0.5l-0.7,0.8l0.3,0.5L24.2,239.6z"/>
		</g>
		<g>
			<path fill="#FFFFFF" d="M21.8,241.2c0,0-0.2-0.2-0.3-0.5c-0.1-0.1-0.3-0.5-0.3-0.5l0.6,0l0.3,0.5L21.8,241.2z"/>
		</g>
		<g>
			<path fill="#D1D1D1" d="M24,238.4l-0.4,0.3c0,0,0.5,0.5,0.6,1l0.4-0.3C24.7,239.3,24.3,238.6,24,238.4z"/>
		</g>
		<g>
			<path fill="#D1D1D1" d="M22.2,239.9l-0.4,0.3c0,0,0,0.1,0.3,0.5l0.4-0.3C22.5,240.5,22.4,240.3,22.2,239.9z"/>
		</g>
		<g>
			<path fill="#FFFFFF" d="M21.7,239.1l-0.6-0.7c0,0,0.3-0.5,0.8-0.6l0.2,1.1C22,238.9,21.7,238.9,21.7,239.1z"/>
		</g>
		<g>
			<path fill="#FFFFFF" d="M23,241.2c0,0,0.2,0,0.3-0.2s0,0,0,0l0.8,0.8c0,0-0.4,0.4-0.7,0.3L23,241.2z"/>
		</g>
	</g>
	<g>
		<g>
			<path fill="#941D26" d="M19.1,239c0.7-0.5,0.7-1.7-0.1-2.8c-0.7-1.1-1.9-1.7-2.6-1.2c-0.7,0.5-1.5,1.1-0.2,3
				C17.5,239.9,18.4,239.4,19.1,239z M17.9,238.4c-0.3,0.2-0.9-0.1-1.3-0.7s-0.4-1.3-0.1-1.5c0.3-0.2,0.9,0.1,1.3,0.7
				C18.2,237.6,18.2,238.2,17.9,238.4z"/>
		</g>
		<g>
			<path fill="#941D26" d="M16.8,236.2c0,0-0.4,0.4,0.2,1.3c0.6,0.9,1.1,0.8,1.1,0.8s0.1,0.9-0.6,0.7c-0.7-0.3-2.1-2.2-1.6-2.6
				S16.8,236.2,16.8,236.2z"/>
		</g>
		<g>
			<path fill="#DB404B" d="M18.7,239.2c0.7-0.5,0.7-1.7-0.1-2.8c-0.7-1.1-1.9-1.7-2.6-1.2c-0.7,0.5-0.7,1.7,0.1,2.8
				C16.8,239.1,18,239.7,18.7,239.2z M17.9,238.4c-0.3,0.2-0.9-0.1-1.3-0.7s-0.4-1.3-0.1-1.5c0.3-0.2,0.9,0.1,1.3,0.7
				C18.2,237.6,18.2,238.2,17.9,238.4z"/>
		</g>
		<g>
			<path fill="#FFFFFF" d="M18.9,236.9c0,0-0.1-0.2-0.3-0.5c-0.1-0.1-0.4-0.5-0.4-0.5l-0.7,0.8l0.3,0.5L18.9,236.9z"/>
		</g>
		<g>
			<path fill="#FFFFFF" d="M16.4,238.5c0,0-0.2-0.2-0.3-0.5c-0.1-0.1-0.3-0.5-0.3-0.5l0.6,0l0.3,0.5L16.4,238.5z"/>
		</g>
		<g>
			<path fill="#D1D1D1" d="M18.7,235.6l-0.4,0.3c0,0,0.5,0.5,0.6,1l0.4-0.3C19.3,236.6,18.9,235.8,18.7,235.6z"/>
		</g>
		<g>
			<path fill="#D1D1D1" d="M16.8,237.1l-0.4,0.3c0,0,0,0.1,0.3,0.5l0.4-0.3C17.2,237.7,17,237.5,16.8,237.1z"/>
		</g>
		<g>
			<path fill="#FFFFFF" d="M16.3,236.3l-0.6-0.7c0,0,0.3-0.5,0.8-0.6l0.2,1.1C16.7,236.2,16.3,236.2,16.3,236.3z"/>
		</g>
		<g>
			<path fill="#FFFFFF" d="M17.7,238.5c0,0,0.2,0,0.3-0.2s0,0,0,0l0.8,0.8c0,0-0.4,0.4-0.7,0.3L17.7,238.5z"/>
		</g>
	</g>
	<g>
		<g>
			<path fill="#941D26" d="M14.2,236.1c0.7-0.5,0.7-1.7-0.1-2.8c-0.7-1.1-1.9-1.7-2.6-1.2c-0.7,0.5-1.5,1.1-0.2,3
				C12.6,237,13.5,236.5,14.2,236.1z M13,235.5c-0.3,0.2-0.9-0.1-1.3-0.7c-0.4-0.6-0.4-1.3-0.1-1.5c0.3-0.2,0.9,0.1,1.3,0.7
				S13.3,235.3,13,235.5z"/>
		</g>
		<g>
			<path fill="#941D26" d="M11.9,233.3c0,0-0.4,0.4,0.2,1.3s1.1,0.8,1.1,0.8s0.1,0.9-0.6,0.7c-0.7-0.3-2.1-2.2-1.6-2.6
				S11.9,233.3,11.9,233.3z"/>
		</g>
		<g>
			<path fill="#DB404B" d="M13.8,236.3c0.7-0.5,0.7-1.7-0.1-2.8c-0.7-1.1-1.9-1.7-2.6-1.2s-0.7,1.7,0.1,2.8
				C11.9,236.3,13.1,236.8,13.8,236.3z M13,235.5c-0.3,0.2-0.9-0.1-1.3-0.7c-0.4-0.6-0.4-1.3-0.1-1.5c0.3-0.2,0.9,0.1,1.3,0.7
				S13.3,235.3,13,235.5z"/>
		</g>
		<g>
			<path fill="#FFFFFF" d="M14,234c0,0-0.1-0.2-0.3-0.5c-0.1-0.1-0.4-0.5-0.4-0.5l-0.7,0.8l0.3,0.5L14,234z"/>
		</g>
		<g>
			<path fill="#FFFFFF" d="M11.5,235.6c0,0-0.2-0.2-0.3-0.5c-0.1-0.1-0.3-0.5-0.3-0.5l0.6,0l0.3,0.5L11.5,235.6z"/>
		</g>
		<g>
			<path fill="#D1D1D1" d="M13.8,232.7l-0.4,0.3c0,0,0.5,0.5,0.6,1l0.4-0.3C14.4,233.7,14,232.9,13.8,232.7z"/>
		</g>
		<g>
			<path fill="#D1D1D1" d="M11.9,234.2l-0.4,0.3c0,0,0,0.1,0.3,0.5l0.4-0.3C12.3,234.8,12.1,234.7,11.9,234.2z"/>
		</g>
		<g>
			<path fill="#FFFFFF" d="M11.4,233.4l-0.6-0.7c0,0,0.3-0.5,0.8-0.6l0.2,1.1C11.8,233.3,11.4,233.3,11.4,233.4z"/>
		</g>
		<g>
			<path fill="#FFFFFF" d="M12.8,235.6c0,0,0.2,0,0.3-0.2c0.1-0.2,0,0,0,0l0.8,0.8c0,0-0.4,0.4-0.7,0.3L12.8,235.6z"/>
		</g>
	</g>
</g>
<g>
	<g>
		<path fill="#008FC7" d="M166.7,221.2c-59.8,0-108.3-48.5-108.3-108.3S106.9,4.5,166.7,4.5S275,53,275,112.8
			S226.5,221.2,166.7,221.2"/>
	</g>
	<g>
		<path fill="#FFFFFF" d="M166.7,222.2c-60.3,0-109.3-49-109.3-109.3S106.4,3.5,166.7,3.5C227,3.5,276,52.5,276,112.8
			S227,222.2,166.7,222.2z M166.7,5.5c-59.2,0-107.3,48.1-107.3,107.3c0,59.2,48.1,107.3,107.3,107.3c59.2,0,107.3-48.1,107.3-107.3
			C274,53.6,225.9,5.5,166.7,5.5z"/>
	</g>
</g>
<g>
	<path fill="#FFFFFF" d="M166.7,225.7c-62.2,0-112.8-50.6-112.8-112.8C53.9,50.6,104.5,0,166.7,0s112.8,50.6,112.8,112.8
		C279.5,175,228.9,225.7,166.7,225.7z M166.7,9C109.4,9,62.9,55.6,62.9,112.8s46.6,103.8,103.8,103.8s103.8-46.6,103.8-103.8
		S223.9,9,166.7,9z"/>
</g>
<g>
	<path fill="#043A63" d="M86,84.4l2.2,0c0,0,0,0,0,0c0.8,0,1.2,0.4,1.2,1.1v3.7c-1.1,0.4-2.3,0.6-3.6,0.6c-1.3,0-2.3-0.5-3-1.4
		c-0.7-0.9-1-2.1-1-3.7s0.4-2.8,1.3-3.6c0.8-0.9,1.9-1.3,3.1-1.3c1.2,0,2.3,0.3,3.3,1c0,0.3-0.1,0.5-0.3,0.7
		c-0.2,0.2-0.3,0.4-0.5,0.6c-0.8-0.6-1.6-0.8-2.4-0.8c-0.8,0-1.4,0.3-1.9,0.9c-0.4,0.6-0.7,1.5-0.7,2.7c0,2.3,0.8,3.5,2.5,3.5
		c0.5,0,1-0.1,1.6-0.2v-1.3c0-0.4,0-0.7,0-0.9h-1c-0.3,0-0.5-0.1-0.6-0.2c-0.1-0.1-0.2-0.3-0.2-0.6S86,84.7,86,84.4z"/>
	<path fill="#043A63" d="M96.4,86.7h-3.9c0,0.6,0.2,1,0.4,1.3s0.6,0.5,1.2,0.5s1.2-0.2,1.8-0.5c0.3,0.3,0.4,0.6,0.5,1.1
		c-0.7,0.5-1.6,0.8-2.7,0.8c-1.1,0-1.8-0.3-2.3-1c-0.5-0.7-0.7-1.6-0.7-2.6c0-1.1,0.3-2,0.8-2.6c0.5-0.7,1.2-1,2.2-1
		c0.9,0,1.7,0.3,2.2,0.8s0.8,1.3,0.8,2.1C96.5,85.9,96.5,86.3,96.4,86.7z M93.7,83.7c-0.8,0-1.2,0.6-1.2,1.7h2.4v-0.2
		c0-0.5-0.1-0.8-0.3-1.1C94.4,83.9,94.1,83.7,93.7,83.7z"/>
	<path fill="#043A63" d="M97.3,89.1c0-0.2,0.1-0.4,0.2-0.6c0.1-0.2,0.2-0.4,0.4-0.6c0.7,0.4,1.4,0.6,2,0.6c0.3,0,0.6-0.1,0.8-0.2
		c0.2-0.1,0.3-0.3,0.3-0.5c0-0.4-0.3-0.6-0.8-0.8l-0.8-0.3c-1.2-0.4-1.8-1.1-1.8-2c0-0.7,0.2-1.2,0.7-1.6s1.1-0.6,1.9-0.6
		s1.6,0.2,2.4,0.5c0,0.2,0,0.4-0.1,0.7c-0.1,0.2-0.2,0.4-0.4,0.5c-0.7-0.3-1.3-0.5-1.9-0.5c-0.3,0-0.5,0.1-0.6,0.2
		c-0.2,0.1-0.2,0.3-0.2,0.5c0,0.3,0.2,0.5,0.7,0.7l0.9,0.3c1.2,0.4,1.8,1.2,1.8,2.2c0,0.7-0.3,1.2-0.8,1.6c-0.5,0.4-1.2,0.6-2.1,0.6
		C99,89.8,98.1,89.6,97.3,89.1z"/>
	<path fill="#043A63" d="M107.7,82.7c0,0.2,0.1,0.4,0.1,0.6c0,0.2,0,0.4-0.1,0.6l-1.7,0v3.8c0,0.4,0.2,0.6,0.6,0.6h0.9
		c0.1,0.3,0.1,0.5,0.1,0.7s0,0.4,0,0.5c-0.6,0.1-1.1,0.1-1.7,0.1c-1.1,0-1.6-0.5-1.6-1.6v-4.1l-1.1,0c0-0.2-0.1-0.4-0.1-0.6
		c0-0.2,0-0.5,0.1-0.6l1.1,0v-1.1c0-0.4,0.1-0.7,0.2-0.8c0.1-0.2,0.4-0.2,0.7-0.2h0.7l0.1,0.1v2L107.7,82.7z"/>
	<path fill="#043A63" d="M114.5,88.8c0,0.2-0.1,0.3-0.2,0.5s-0.2,0.3-0.4,0.4c-0.6-0.1-1-0.3-1.3-0.8c-0.6,0.6-1.3,0.9-2,0.9
		s-1.3-0.2-1.6-0.6c-0.4-0.4-0.5-0.9-0.5-1.5c0-0.8,0.3-1.4,0.8-1.8c0.5-0.4,1.2-0.6,2-0.6c0.4,0,0.8,0,1.2,0.1V85
		c0-0.7-0.4-1.1-1.1-1.1c-0.5,0-1.2,0.2-2.1,0.5c-0.3-0.3-0.4-0.7-0.5-1.2c1-0.4,2-0.6,3-0.6c0.7,0,1.3,0.2,1.7,0.6
		c0.4,0.4,0.7,1,0.7,1.8v2.9C114.1,88.3,114.2,88.6,114.5,88.8z M111.4,81.6l-0.7-0.4c-0.1-0.1-0.3-0.1-0.5-0.1
		c-0.2,0-0.3,0.1-0.5,0.4l-0.1,0.2c-0.2,0-0.3-0.1-0.5-0.2c-0.2-0.1-0.3-0.2-0.3-0.4l0.1-0.3c0.2-0.3,0.4-0.6,0.6-0.8
		c0.3-0.2,0.5-0.3,0.8-0.3c0.3,0,0.6,0.1,0.9,0.2l0.7,0.4c0.2,0.1,0.3,0.1,0.5,0.1c0.2,0,0.3-0.1,0.5-0.4l0.1-0.2
		c0.2,0,0.3,0.1,0.5,0.2c0.2,0.1,0.3,0.2,0.3,0.4l-0.1,0.3c-0.1,0.3-0.4,0.6-0.6,0.8c-0.3,0.2-0.5,0.3-0.8,0.3
		C112,81.9,111.7,81.8,111.4,81.6z M111,88.5c0.5,0,1-0.2,1.4-0.7v-1.2c-0.3,0-0.7-0.1-1.1-0.1c-0.4,0-0.7,0.1-0.9,0.3
		c-0.2,0.2-0.3,0.4-0.3,0.7c0,0.3,0.1,0.5,0.2,0.7C110.5,88.4,110.7,88.5,111,88.5z"/>
	<path fill="#043A63" d="M121.6,86.2c0,1.3-0.3,2.2-1,2.9c-0.5,0.5-1.2,0.8-2.1,0.8c-0.9,0-1.6-0.3-2.1-0.8c-0.7-0.7-1-1.6-1-2.9
		s0.3-2.2,1-2.9c0.5-0.5,1.2-0.8,2.1-0.8c0.9,0,1.6,0.3,2.1,0.8C121.3,83.9,121.6,84.9,121.6,86.2z M118.5,83.8
		c-0.9,0-1.3,0.8-1.3,2.4c0,1.6,0.4,2.4,1.3,2.4c0.9,0,1.3-0.8,1.3-2.4C119.8,84.6,119.4,83.8,118.5,83.8z"/>
	<path fill="#043A63" d="M127.9,87.3l0,0.8c0.4,0,0.7,0,1,0h3.5c0,0.3,0,0.5,0,0.7c-0.1,0.6-0.5,0.9-1.1,0.9h-4
		c-0.3,0-0.6-0.1-0.8-0.3s-0.3-0.5-0.3-0.8v-8.4l0.1-0.1h5.8c0,0.2,0.1,0.5,0.1,0.7s0,0.5-0.1,0.8h-4.1l0,1v1.6c0.2,0,0.5,0,0.9,0
		h2.4c0.1,0.2,0.1,0.5,0.1,0.7c0,0.3,0,0.5-0.1,0.7h-2.4c-0.4,0-0.7,0-0.9,0V87.3z"/>
	<path fill="#043A63" d="M134.1,89.6v-5.7l-1.2,0c0-0.2-0.1-0.4-0.1-0.6c0-0.2,0-0.4,0.1-0.6l1.1,0c-0.1-0.5-0.1-0.9-0.1-1.1
		c0-0.7,0.2-1.2,0.6-1.6c0.4-0.4,1-0.6,1.6-0.6c0.7,0,1.3,0.1,2,0.4c0,0.5-0.1,0.9-0.4,1.2c-0.4-0.1-0.8-0.2-1.1-0.2
		c-0.3,0-0.6,0.1-0.8,0.3c-0.2,0.2-0.3,0.4-0.3,0.8c0,0.3,0,0.7,0.1,1.1l1.9,0c0,0.2,0.1,0.4,0.1,0.6c0,0.3,0,0.5-0.1,0.6l-1.8,0
		v5.7c-0.3,0-0.6,0.1-0.9,0.1S134.4,89.7,134.1,89.6z"/>
	<path fill="#043A63" d="M141.1,84v5.6c-0.3,0-0.5,0.1-0.9,0.1c-0.3,0-0.6,0-0.9-0.1v-4.9c0-0.5-0.2-0.8-0.6-0.8h-0.2
		c0-0.2-0.1-0.4-0.1-0.6c0-0.2,0-0.5,0.1-0.6c0.3,0,0.7-0.1,1-0.1h0.2c0.4,0,0.7,0.1,0.9,0.4S141.1,83.6,141.1,84z M139.1,81.4
		c-0.1-0.2-0.1-0.4-0.1-0.7c0-0.2,0-0.5,0.1-0.7c0.2-0.1,0.5-0.2,0.9-0.2s0.6,0.1,0.9,0.2c0.1,0.2,0.1,0.4,0.1,0.7
		c0,0.2,0,0.5-0.1,0.7c-0.2,0.1-0.5,0.2-0.9,0.2C139.5,81.6,139.3,81.6,139.1,81.4z"/>
	<path fill="#043A63" d="M146.5,85.5c0-0.1,0-0.1,0-0.2c0-0.5-0.1-0.8-0.2-1.1c-0.1-0.3-0.4-0.4-0.8-0.4c-0.8,0-1.2,0.8-1.2,2.3
		s0.5,2.3,1.4,2.3c0.5,0,1-0.2,1.6-0.7c0.1,0.1,0.3,0.2,0.4,0.4c0.1,0.2,0.2,0.4,0.3,0.6c-0.7,0.7-1.5,1-2.5,1c-1,0-1.7-0.3-2.2-1
		c-0.5-0.7-0.8-1.6-0.8-2.7s0.3-2,0.9-2.7s1.3-0.9,2.1-0.9s1.5,0.2,1.9,0.7c0.5,0.4,0.7,1,0.7,1.6c0,0.6-0.3,0.9-0.9,0.9
		C147,85.6,146.8,85.6,146.5,85.5z"/>
	<path fill="#043A63" d="M151.5,84v5.6c-0.3,0-0.5,0.1-0.9,0.1s-0.6,0-0.9-0.1v-4.9c0-0.5-0.2-0.8-0.6-0.8H149
		c0-0.2-0.1-0.4-0.1-0.6c0-0.2,0-0.5,0.1-0.6c0.3,0,0.7-0.1,1-0.1h0.2c0.4,0,0.7,0.1,0.9,0.4S151.5,83.6,151.5,84z M149.5,81.4
		c-0.1-0.2-0.1-0.4-0.1-0.7c0-0.2,0-0.5,0.1-0.7c0.2-0.1,0.5-0.2,0.9-0.2s0.6,0.1,0.9,0.2c0.1,0.2,0.1,0.4,0.1,0.7
		c0,0.2,0,0.5-0.1,0.7c-0.2,0.1-0.5,0.2-0.9,0.2C150,81.6,149.7,81.6,149.5,81.4z"/>
	<path fill="#043A63" d="M158.6,86.7h-3.9c0,0.6,0.2,1,0.4,1.3c0.2,0.3,0.6,0.5,1.2,0.5s1.2-0.2,1.8-0.5c0.3,0.3,0.4,0.6,0.5,1.1
		c-0.7,0.5-1.6,0.8-2.7,0.8c-1,0-1.8-0.3-2.3-1c-0.5-0.7-0.7-1.6-0.7-2.6c0-1.1,0.3-2,0.8-2.6c0.5-0.7,1.2-1,2.2-1s1.7,0.3,2.2,0.8
		s0.8,1.3,0.8,2.1C158.7,85.9,158.7,86.3,158.6,86.7z M155.9,83.7c-0.8,0-1.2,0.6-1.2,1.7h2.4v-0.2c0-0.5-0.1-0.8-0.3-1.1
		C156.6,83.9,156.3,83.7,155.9,83.7z"/>
	<path fill="#043A63" d="M165.9,84.9V88c0,0.6,0.1,1,0.3,1.3c-0.3,0.2-0.7,0.4-1,0.4c-0.4,0-0.6-0.1-0.8-0.3s-0.2-0.5-0.2-0.8v-3.3
		c0-0.4-0.1-0.7-0.2-0.9c-0.1-0.2-0.3-0.3-0.6-0.3c-0.5,0-1,0.2-1.5,0.7v4.8c-0.3,0-0.5,0.1-0.9,0.1c-0.3,0-0.6,0-0.9-0.1v-6.9
		l0.1-0.1h0.6c0.5,0,0.8,0.3,1,0.8c0.7-0.6,1.4-0.9,2-0.9c0.7,0,1.2,0.2,1.5,0.7S165.9,84.2,165.9,84.9z"/>
	<path fill="#043A63" d="M171.4,82.7c0,0.2,0.1,0.4,0.1,0.6c0,0.2,0,0.4-0.1,0.6l-1.7,0v3.8c0,0.4,0.2,0.6,0.6,0.6h0.9
		c0.1,0.3,0.1,0.5,0.1,0.7s0,0.4,0,0.5c-0.6,0.1-1.1,0.1-1.7,0.1c-1.1,0-1.6-0.5-1.6-1.6v-4.1l-1.1,0c0-0.2-0.1-0.4-0.1-0.6
		c0-0.2,0-0.5,0.1-0.6l1.1,0v-1.1c0-0.4,0.1-0.7,0.2-0.8c0.1-0.2,0.4-0.2,0.7-0.2h0.7l0.1,0.1v2L171.4,82.7z"/>
	<path fill="#043A63" d="M177.8,86.7h-3.9c0,0.6,0.2,1,0.4,1.3c0.2,0.3,0.6,0.5,1.2,0.5s1.2-0.2,1.8-0.5c0.3,0.3,0.4,0.6,0.5,1.1
		c-0.7,0.5-1.6,0.8-2.7,0.8c-1,0-1.8-0.3-2.3-1c-0.5-0.7-0.7-1.6-0.7-2.6c0-1.1,0.3-2,0.8-2.6c0.5-0.7,1.2-1,2.2-1s1.7,0.3,2.2,0.8
		s0.8,1.3,0.8,2.1C178,85.9,177.9,86.3,177.8,86.7z M175.1,83.7c-0.8,0-1.2,0.6-1.2,1.7h2.4v-0.2c0-0.5-0.1-0.8-0.3-1.1
		C175.9,83.9,175.6,83.7,175.1,83.7z"/>
	<path fill="#043A63" d="M184.4,89.8c-0.8,0-1.4-0.3-1.8-1c-0.4-0.6-0.6-1.5-0.6-2.7c0-1.1,0.3-2,0.8-2.7c0.5-0.6,1.2-1,1.9-1
		c0.5,0,1,0.1,1.5,0.4v-3.5l0.1-0.1h0.7c0.3,0,0.6,0.1,0.7,0.2c0.1,0.2,0.2,0.4,0.2,0.8v7.2c0,0.6,0.1,1,0.4,1.2
		c0,0.2-0.1,0.3-0.2,0.5s-0.2,0.3-0.4,0.4c-0.6-0.1-1-0.4-1.2-0.8C185.8,89.5,185.2,89.8,184.4,89.8z M184.8,88.4
		c0.5,0,1-0.3,1.3-0.8v-3.3c-0.5-0.3-0.9-0.4-1.2-0.4c-0.4,0-0.6,0.2-0.9,0.6c-0.2,0.4-0.3,1-0.3,1.7s0.1,1.3,0.3,1.6
		S184.5,88.4,184.8,88.4z"/>
	<path fill="#043A63" d="M195,86.7H191c0,0.6,0.2,1,0.4,1.3s0.6,0.5,1.2,0.5s1.2-0.2,1.8-0.5c0.3,0.3,0.4,0.6,0.5,1.1
		c-0.7,0.5-1.6,0.8-2.7,0.8c-1.1,0-1.8-0.3-2.3-1c-0.5-0.7-0.7-1.6-0.7-2.6c0-1.1,0.3-2,0.8-2.6c0.5-0.7,1.2-1,2.2-1
		c0.9,0,1.7,0.3,2.2,0.8s0.8,1.3,0.8,2.1C195.1,85.9,195,86.3,195,86.7z M192.3,83.7c-0.8,0-1.2,0.6-1.2,1.7h2.4v-0.2
		c0-0.5-0.1-0.8-0.3-1.1C193,83.9,192.7,83.7,192.3,83.7z"/>
	<path fill="#043A63" d="M206.2,82.9c0,0.6-0.2,1.2-0.5,1.6c-0.3,0.5-0.8,0.8-1.3,0.9c0.5,0.2,0.8,0.6,1,1.2l0.5,1.5
		c0.2,0.5,0.4,0.8,0.7,1c-0.3,0.4-0.7,0.5-1.2,0.5c-0.3,0-0.5-0.1-0.7-0.2c-0.2-0.2-0.3-0.4-0.4-0.8l-0.6-1.7
		c-0.1-0.3-0.3-0.6-0.5-0.8c-0.2-0.2-0.5-0.3-0.9-0.3h-0.9v3.7c-0.2,0-0.5,0.1-0.9,0.1s-0.7,0-0.9-0.1v-9.5l0.1-0.1
		c1.5,0,2.5-0.1,3.1-0.1c1,0,1.8,0.3,2.4,0.8C205.9,81.3,206.2,82,206.2,82.9z M201.5,81.4v3.1c0.7,0,1.1,0,1.4,0
		c1,0,1.6-0.5,1.6-1.6c0-1-0.5-1.6-1.6-1.6C202.2,81.4,201.7,81.4,201.5,81.4z"/>
	<path fill="#043A63" d="M213.1,86.7h-3.9c0,0.6,0.2,1,0.4,1.3s0.6,0.5,1.2,0.5s1.2-0.2,1.8-0.5c0.3,0.3,0.4,0.6,0.5,1.1
		c-0.7,0.5-1.6,0.8-2.7,0.8c-1.1,0-1.8-0.3-2.3-1c-0.5-0.7-0.7-1.6-0.7-2.6c0-1.1,0.3-2,0.8-2.6c0.5-0.7,1.2-1,2.2-1
		c0.9,0,1.7,0.3,2.2,0.8s0.8,1.3,0.8,2.1C213.2,85.9,213.2,86.3,213.1,86.7z M210.4,83.7c-0.8,0-1.2,0.6-1.2,1.7h2.4v-0.2
		c0-0.5-0.1-0.8-0.3-1.1C211.1,83.9,210.8,83.7,210.4,83.7z"/>
	<path fill="#043A63" d="M218.3,85.5c0-0.1,0-0.1,0-0.2c0-0.5-0.1-0.8-0.2-1.1c-0.1-0.3-0.4-0.4-0.8-0.4c-0.8,0-1.2,0.8-1.2,2.3
		s0.5,2.3,1.4,2.3c0.5,0,1-0.2,1.6-0.7c0.1,0.1,0.3,0.2,0.4,0.4c0.1,0.2,0.2,0.4,0.3,0.6c-0.7,0.7-1.5,1-2.5,1c-1,0-1.7-0.3-2.2-1
		c-0.5-0.7-0.8-1.6-0.8-2.7s0.3-2,0.9-2.7s1.3-0.9,2.1-0.9s1.5,0.2,1.9,0.7c0.5,0.4,0.7,1,0.7,1.6c0,0.6-0.3,0.9-0.9,0.9
		C218.8,85.6,218.5,85.6,218.3,85.5z"/>
	<path fill="#043A63" d="M221.1,87.4v-3.1c0-0.6-0.1-1-0.3-1.3c0.3-0.3,0.6-0.4,1-0.4c0.4,0,0.7,0.1,0.8,0.3
		c0.1,0.2,0.2,0.5,0.2,0.8V87c0,0.4,0.1,0.7,0.2,0.9c0.1,0.2,0.3,0.3,0.6,0.3c0.5,0,1-0.2,1.5-0.7v-4.8c0.3,0,0.6-0.1,0.9-0.1
		c0.3,0,0.6,0,0.9,0.1v5c0,0.6,0.1,1,0.4,1.2c-0.1,0.4-0.3,0.7-0.6,0.9c-0.7-0.1-1.1-0.4-1.4-1c-0.7,0.7-1.5,1-2.3,1
		c-0.6,0-1.1-0.2-1.4-0.7C221.3,88.7,221.1,88.1,221.1,87.4z"/>
	<path fill="#043A63" d="M228.3,83.5c0-0.2,0.1-0.3,0.2-0.5c0.1-0.2,0.2-0.3,0.4-0.4c0.7,0.1,1.2,0.5,1.5,1.2c0.4-0.8,1-1.2,1.8-1.2
		c0.2,0,0.5,0,0.8,0.1c0,0.6-0.1,1.1-0.4,1.6c-0.1,0-0.3-0.1-0.6-0.1c-0.6,0-1,0.3-1.4,0.9v4.5c-0.3,0-0.5,0.1-0.9,0.1
		s-0.6,0-0.9-0.1v-4.7C228.8,84.3,228.6,83.8,228.3,83.5z"/>
	<path fill="#043A63" d="M233.2,89.1c0-0.2,0.1-0.4,0.2-0.6c0.1-0.2,0.2-0.4,0.4-0.6c0.7,0.4,1.4,0.6,2,0.6c0.3,0,0.6-0.1,0.8-0.2
		c0.2-0.1,0.3-0.3,0.3-0.5c0-0.4-0.3-0.6-0.8-0.8l-0.8-0.3c-1.2-0.4-1.8-1.1-1.8-2c0-0.7,0.2-1.2,0.7-1.6s1.1-0.6,1.9-0.6
		s1.6,0.2,2.4,0.5c0,0.2,0,0.4-0.1,0.7c-0.1,0.2-0.2,0.4-0.4,0.5c-0.7-0.3-1.3-0.5-1.9-0.5c-0.3,0-0.5,0.1-0.6,0.2
		c-0.2,0.1-0.2,0.3-0.2,0.5c0,0.3,0.2,0.5,0.7,0.7l0.9,0.3c1.2,0.4,1.8,1.2,1.8,2.2c0,0.7-0.3,1.2-0.8,1.6c-0.5,0.4-1.2,0.6-2.1,0.6
		C234.9,89.8,234,89.6,233.2,89.1z"/>
	<path fill="#043A63" d="M245.6,86.2c0,1.3-0.3,2.2-1,2.9c-0.5,0.5-1.2,0.8-2.1,0.8s-1.6-0.3-2.1-0.8c-0.7-0.7-1-1.6-1-2.9
		s0.3-2.2,1-2.9c0.5-0.5,1.2-0.8,2.1-0.8s1.6,0.3,2.1,0.8C245.3,83.9,245.6,84.9,245.6,86.2z M242.5,83.8c-0.9,0-1.3,0.8-1.3,2.4
		c0,1.6,0.4,2.4,1.3,2.4s1.3-0.8,1.3-2.4C243.8,84.6,243.4,83.8,242.5,83.8z"/>
	<path fill="#043A63" d="M246.4,89.1c0-0.2,0.1-0.4,0.2-0.6c0.1-0.2,0.2-0.4,0.4-0.6c0.7,0.4,1.4,0.6,2,0.6c0.3,0,0.6-0.1,0.8-0.2
		c0.2-0.1,0.3-0.3,0.3-0.5c0-0.4-0.3-0.6-0.8-0.8l-0.8-0.3c-1.2-0.4-1.8-1.1-1.8-2c0-0.7,0.2-1.2,0.7-1.6s1.1-0.6,1.9-0.6
		s1.6,0.2,2.4,0.5c0,0.2,0,0.4-0.1,0.7c-0.1,0.2-0.2,0.4-0.4,0.5c-0.7-0.3-1.3-0.5-1.9-0.5c-0.3,0-0.5,0.1-0.6,0.2
		c-0.2,0.1-0.2,0.3-0.2,0.5c0,0.3,0.2,0.5,0.7,0.7l0.9,0.3c1.2,0.4,1.8,1.2,1.8,2.2c0,0.7-0.3,1.2-0.8,1.6c-0.5,0.4-1.2,0.6-2.1,0.6
		C248,89.8,247.2,89.6,246.4,89.1z"/>
	<path fill="#043A63" d="M73.1,103.5h-3.9c0,0.6,0.2,1,0.4,1.3s0.6,0.5,1.2,0.5s1.2-0.2,1.8-0.5c0.3,0.3,0.4,0.6,0.5,1.1
		c-0.7,0.5-1.6,0.8-2.7,0.8c-1.1,0-1.8-0.3-2.3-1c-0.5-0.7-0.7-1.6-0.7-2.6c0-1.1,0.3-2,0.8-2.6c0.5-0.7,1.2-1,2.2-1
		c0.9,0,1.7,0.3,2.2,0.8s0.8,1.3,0.8,2.1C73.2,102.7,73.2,103.1,73.1,103.5z M70.4,100.5c-0.8,0-1.2,0.6-1.2,1.7h2.4v-0.2
		c0-0.5-0.1-0.8-0.3-1.1C71.1,100.7,70.8,100.5,70.4,100.5z"/>
	<path fill="#043A63" d="M78.5,102.1c0-0.8-0.3-1.2-0.8-1.2c-0.4,0-0.8,0.2-1.3,0.7v4.8c-0.3,0-0.5,0.1-0.9,0.1
		c-0.3,0-0.6,0-0.9-0.1v-6.9l0.1-0.1h0.6c0.5,0,0.9,0.3,1,0.9c0.6-0.6,1.3-0.9,2-0.9s1.2,0.3,1.5,1c0.7-0.7,1.5-1,2.2-1
		c0.6,0,1,0.2,1.4,0.6c0.3,0.4,0.5,0.9,0.5,1.6v3.3c0,0.6,0.1,1,0.3,1.3c-0.3,0.2-0.6,0.4-1,0.4c-0.4,0-0.7-0.1-0.8-0.3
		c-0.1-0.2-0.2-0.5-0.2-0.8v-3.3c0-0.8-0.3-1.2-0.8-1.2c-0.4,0-0.8,0.2-1.3,0.7v4.8c-0.3,0-0.5,0.1-0.9,0.1c-0.3,0-0.6,0-0.9-0.1
		V102.1z"/>
	<path fill="#043A63" d="M92.6,101.2l2.2,0c0,0,0,0,0,0c0.8,0,1.2,0.4,1.2,1.1v3.7c-1.1,0.4-2.3,0.6-3.6,0.6c-1.3,0-2.3-0.5-3-1.4
		c-0.7-0.9-1-2.1-1-3.7s0.4-2.8,1.3-3.6c0.8-0.9,1.9-1.3,3.1-1.3c1.2,0,2.3,0.3,3.3,1c0,0.3-0.1,0.5-0.3,0.7
		c-0.2,0.2-0.3,0.4-0.5,0.6c-0.8-0.6-1.6-0.8-2.4-0.8c-0.8,0-1.4,0.3-1.9,0.9c-0.4,0.6-0.7,1.5-0.7,2.7c0,2.3,0.8,3.5,2.5,3.5
		c0.5,0,1-0.1,1.6-0.2v-1.3c0-0.4,0-0.7,0-0.9h-1c-0.3,0-0.5-0.1-0.6-0.2c-0.1-0.1-0.2-0.3-0.2-0.6S92.5,101.5,92.6,101.2z"/>
	<path fill="#043A63" d="M102.9,103.5H99c0,0.6,0.2,1,0.4,1.3s0.6,0.5,1.2,0.5s1.2-0.2,1.8-0.5c0.3,0.3,0.4,0.6,0.5,1.1
		c-0.7,0.5-1.6,0.8-2.7,0.8c-1.1,0-1.8-0.3-2.3-1c-0.5-0.7-0.7-1.6-0.7-2.6c0-1.1,0.3-2,0.8-2.6c0.5-0.7,1.2-1,2.2-1
		c0.9,0,1.7,0.3,2.2,0.8s0.8,1.3,0.8,2.1C103.1,102.7,103,103.1,102.9,103.5z M100.2,100.5c-0.8,0-1.2,0.6-1.2,1.7h2.4v-0.2
		c0-0.5-0.1-0.8-0.3-1.1C100.9,100.7,100.6,100.5,100.2,100.5z"/>
	<path fill="#043A63" d="M103.9,105.9c0-0.2,0.1-0.4,0.2-0.6c0.1-0.2,0.2-0.4,0.4-0.6c0.7,0.4,1.4,0.6,2,0.6c0.3,0,0.6-0.1,0.8-0.2
		c0.2-0.1,0.3-0.3,0.3-0.5c0-0.4-0.3-0.6-0.8-0.8l-0.8-0.3c-1.2-0.4-1.8-1.1-1.8-2c0-0.7,0.2-1.2,0.7-1.6s1.1-0.6,1.9-0.6
		s1.6,0.2,2.4,0.5c0,0.2,0,0.4-0.1,0.7c-0.1,0.2-0.2,0.4-0.4,0.5c-0.7-0.3-1.3-0.5-1.9-0.5c-0.3,0-0.5,0.1-0.6,0.2
		c-0.2,0.1-0.2,0.3-0.2,0.5c0,0.3,0.2,0.5,0.7,0.7l0.9,0.3c1.2,0.4,1.8,1.2,1.8,2.2c0,0.7-0.3,1.2-0.8,1.6c-0.5,0.4-1.2,0.6-2.1,0.6
		C105.5,106.6,104.7,106.4,103.9,105.9z"/>
	<path fill="#043A63" d="M114.2,99.5c0,0.2,0.1,0.4,0.1,0.6c0,0.2,0,0.4-0.1,0.6l-1.7,0v3.8c0,0.4,0.2,0.6,0.6,0.6h0.9
		c0.1,0.3,0.1,0.5,0.1,0.7s0,0.4,0,0.5c-0.6,0.1-1.1,0.1-1.7,0.1c-1.1,0-1.6-0.5-1.6-1.6v-4.1l-1.1,0c0-0.2-0.1-0.4-0.1-0.6
		c0-0.2,0-0.5,0.1-0.6l1.1,0v-1.1c0-0.4,0.1-0.7,0.2-0.8c0.1-0.2,0.4-0.2,0.7-0.2h0.7l0.1,0.1v2L114.2,99.5z"/>
	<path fill="#043A63" d="M121,105.6c0,0.2-0.1,0.3-0.2,0.5c-0.1,0.2-0.2,0.3-0.4,0.4c-0.6-0.1-1-0.3-1.3-0.8c-0.6,0.6-1.3,0.9-2,0.9
		s-1.3-0.2-1.6-0.6c-0.4-0.4-0.5-0.9-0.5-1.5c0-0.8,0.3-1.4,0.8-1.8c0.5-0.4,1.2-0.6,2-0.6c0.4,0,0.8,0,1.2,0.1v-0.4
		c0-0.7-0.4-1.1-1.1-1.1c-0.5,0-1.2,0.2-2.1,0.5c-0.3-0.3-0.4-0.7-0.5-1.2c1-0.4,2-0.6,3-0.6c0.7,0,1.3,0.2,1.7,0.6
		c0.4,0.4,0.7,1,0.7,1.8v2.9C120.6,105.1,120.8,105.4,121,105.6z M118,98.4l-0.7-0.4c-0.2-0.1-0.3-0.1-0.5-0.1s-0.3,0.1-0.5,0.4
		l-0.1,0.2c-0.2,0-0.3-0.1-0.5-0.2c-0.2-0.1-0.3-0.2-0.3-0.4l0.1-0.3c0.1-0.3,0.4-0.6,0.6-0.8c0.3-0.2,0.5-0.3,0.8-0.3
		s0.6,0.1,0.9,0.2l0.7,0.4c0.2,0.1,0.3,0.1,0.5,0.1c0.1,0,0.3-0.1,0.5-0.4l0.1-0.2c0.2,0,0.3,0.1,0.5,0.2c0.2,0.1,0.3,0.2,0.3,0.4
		l-0.1,0.3c-0.2,0.3-0.4,0.6-0.6,0.8c-0.3,0.2-0.5,0.3-0.8,0.3C118.6,98.7,118.3,98.6,118,98.4z M117.5,105.3c0.5,0,1-0.2,1.4-0.7
		v-1.2c-0.3,0-0.7-0.1-1.1-0.1s-0.7,0.1-0.9,0.3c-0.2,0.2-0.3,0.4-0.3,0.7c0,0.3,0.1,0.5,0.2,0.7C117,105.2,117.2,105.3,117.5,105.3
		z"/>
	<path fill="#043A63" d="M128.2,103c0,1.3-0.3,2.2-1,2.9c-0.5,0.5-1.2,0.8-2.1,0.8c-0.9,0-1.6-0.3-2.1-0.8c-0.7-0.7-1-1.6-1-2.9
		s0.3-2.2,1-2.9c0.5-0.5,1.2-0.8,2.1-0.8c0.9,0,1.6,0.3,2.1,0.8C127.8,100.7,128.2,101.7,128.2,103z M125.1,100.6
		c-0.9,0-1.3,0.8-1.3,2.4c0,1.6,0.4,2.4,1.3,2.4c0.9,0,1.3-0.8,1.3-2.4C126.4,101.4,125.9,100.6,125.1,100.6z"/>
	<path fill="#043A63" d="M134.5,98.4l0,1.4v1.1h3.2c0.1,0.2,0.1,0.5,0.1,0.7s0,0.5-0.1,0.7h-3.2v4.1c-0.2,0-0.5,0.1-0.9,0.1
		c-0.4,0-0.6,0-0.9-0.1v-9.5l0.1-0.1h5.7c0.1,0.2,0.1,0.4,0.1,0.7c0,0.6-0.3,0.8-1,0.8h-1.9C135.1,98.4,134.7,98.4,134.5,98.4z"/>
	<path fill="#043A63" d="M141.7,100.8v5.6c-0.3,0-0.5,0.1-0.9,0.1c-0.3,0-0.6,0-0.9-0.1v-4.9c0-0.5-0.2-0.8-0.6-0.8h-0.2
		c0-0.2-0.1-0.4-0.1-0.6c0-0.2,0-0.5,0.1-0.6c0.3,0,0.7-0.1,1-0.1h0.2c0.4,0,0.7,0.1,0.9,0.4S141.7,100.4,141.7,100.8z M139.7,98.2
		c-0.1-0.2-0.1-0.4-0.1-0.7c0-0.2,0-0.5,0.1-0.7c0.2-0.1,0.5-0.2,0.9-0.2s0.6,0.1,0.9,0.2c0.1,0.2,0.1,0.4,0.1,0.7
		c0,0.2,0,0.5-0.1,0.7c-0.2,0.1-0.5,0.2-0.9,0.2C140.2,98.4,139.9,98.4,139.7,98.2z"/>
	<path fill="#043A63" d="M149.3,101.7v3.1c0,0.6,0.1,1,0.3,1.3c-0.3,0.2-0.7,0.4-1,0.4c-0.4,0-0.6-0.1-0.8-0.3
		c-0.1-0.2-0.2-0.5-0.2-0.8v-3.3c0-0.4-0.1-0.7-0.2-0.9c-0.1-0.2-0.3-0.3-0.6-0.3c-0.5,0-1,0.2-1.5,0.7v4.8c-0.3,0-0.5,0.1-0.9,0.1
		c-0.3,0-0.6,0-0.9-0.1v-6.9l0.1-0.1h0.6c0.5,0,0.8,0.3,1,0.8c0.7-0.6,1.4-0.9,2-0.9c0.7,0,1.2,0.2,1.5,0.7
		C149.1,100.5,149.3,101,149.3,101.7z"/>
	<path fill="#043A63" d="M156.6,105.6c0,0.2-0.1,0.3-0.2,0.5s-0.2,0.3-0.4,0.4c-0.6-0.1-1-0.3-1.3-0.8c-0.6,0.6-1.3,0.9-2,0.9
		s-1.3-0.2-1.6-0.6c-0.4-0.4-0.5-0.9-0.5-1.5c0-0.8,0.3-1.4,0.8-1.8c0.5-0.4,1.2-0.6,2-0.6c0.4,0,0.8,0,1.2,0.1v-0.4
		c0-0.7-0.4-1.1-1.1-1.1c-0.5,0-1.2,0.2-2.1,0.5c-0.3-0.3-0.4-0.7-0.5-1.2c1-0.4,2-0.6,3-0.6c0.7,0,1.3,0.2,1.7,0.6
		c0.4,0.4,0.7,1,0.7,1.8v2.9C156.3,105.1,156.4,105.4,156.6,105.6z M153.1,105.3c0.5,0,1-0.2,1.4-0.7v-1.2c-0.3,0-0.7-0.1-1.1-0.1
		c-0.4,0-0.7,0.1-0.9,0.3c-0.2,0.2-0.3,0.4-0.3,0.7c0,0.3,0.1,0.5,0.2,0.7C152.7,105.2,152.9,105.3,153.1,105.3z"/>
	<path fill="#043A63" d="M163.8,101.7v3.1c0,0.6,0.1,1,0.3,1.3c-0.3,0.2-0.7,0.4-1,0.4c-0.4,0-0.6-0.1-0.8-0.3s-0.2-0.5-0.2-0.8
		v-3.3c0-0.4-0.1-0.7-0.2-0.9c-0.1-0.2-0.3-0.3-0.6-0.3c-0.5,0-1,0.2-1.5,0.7v4.8c-0.3,0-0.5,0.1-0.9,0.1c-0.3,0-0.6,0-0.9-0.1v-6.9
		l0.1-0.1h0.6c0.5,0,0.8,0.3,1,0.8c0.7-0.6,1.4-0.9,2-0.9c0.7,0,1.2,0.2,1.5,0.7S163.8,101,163.8,101.7z"/>
	<path fill="#043A63" d="M169.1,102.3c0-0.1,0-0.1,0-0.2c0-0.5-0.1-0.8-0.2-1.1c-0.1-0.3-0.4-0.4-0.8-0.4c-0.8,0-1.2,0.8-1.2,2.3
		s0.5,2.3,1.4,2.3c0.5,0,1-0.2,1.6-0.7c0.1,0.1,0.3,0.2,0.4,0.4c0.1,0.2,0.2,0.4,0.3,0.6c-0.7,0.7-1.5,1-2.5,1c-1,0-1.7-0.3-2.2-1
		c-0.5-0.7-0.8-1.6-0.8-2.7s0.3-2,0.9-2.7s1.3-0.9,2.1-0.9s1.5,0.2,1.9,0.7c0.5,0.4,0.7,1,0.7,1.6c0,0.6-0.3,0.9-0.9,0.9
		C169.6,102.4,169.4,102.4,169.1,102.3z"/>
	<path fill="#043A63" d="M177.3,103.5h-3.9c0,0.6,0.2,1,0.4,1.3c0.2,0.3,0.6,0.5,1.2,0.5s1.2-0.2,1.8-0.5c0.3,0.3,0.4,0.6,0.5,1.1
		c-0.7,0.5-1.6,0.8-2.7,0.8c-1,0-1.8-0.3-2.3-1c-0.5-0.7-0.7-1.6-0.7-2.6c0-1.1,0.3-2,0.8-2.6c0.5-0.7,1.2-1,2.2-1s1.7,0.3,2.2,0.8
		s0.8,1.3,0.8,2.1C177.4,102.7,177.4,103.1,177.3,103.5z M174.6,100.5c-0.8,0-1.2,0.6-1.2,1.7h2.4v-0.2c0-0.5-0.1-0.8-0.3-1.1
		C175.3,100.7,175,100.5,174.6,100.5z"/>
	<path fill="#043A63" d="M180.8,100.8v5.6c-0.3,0-0.5,0.1-0.9,0.1c-0.3,0-0.6,0-0.9-0.1v-4.9c0-0.5-0.2-0.8-0.6-0.8h-0.2
		c0-0.2-0.1-0.4-0.1-0.6c0-0.2,0-0.5,0.1-0.6c0.3,0,0.7-0.1,1-0.1h0.2c0.4,0,0.7,0.1,0.9,0.4S180.8,100.4,180.8,100.8z M178.8,98.2
		c-0.1-0.2-0.1-0.4-0.1-0.7c0-0.2,0-0.5,0.1-0.7c0.2-0.1,0.5-0.2,0.9-0.2s0.6,0.1,0.9,0.2c0.1,0.2,0.1,0.4,0.1,0.7
		c0,0.2,0,0.5-0.1,0.7c-0.2,0.1-0.5,0.2-0.9,0.2C179.3,98.4,179,98.4,178.8,98.2z"/>
	<path fill="#043A63" d="M182.3,100.3c0-0.2,0.1-0.3,0.2-0.5c0.1-0.2,0.2-0.3,0.4-0.4c0.7,0.1,1.2,0.5,1.5,1.2
		c0.4-0.8,1-1.2,1.8-1.2c0.2,0,0.5,0,0.8,0.1c0,0.6-0.1,1.1-0.4,1.6c-0.1,0-0.3-0.1-0.6-0.1c-0.6,0-1,0.3-1.4,0.9v4.5
		c-0.3,0-0.5,0.1-0.9,0.1s-0.6,0-0.9-0.1v-4.7C182.8,101.1,182.6,100.6,182.3,100.3z"/>
	<path fill="#043A63" d="M193.3,105.6c0,0.2-0.1,0.3-0.2,0.5c-0.1,0.2-0.2,0.3-0.4,0.4c-0.6-0.1-1-0.3-1.3-0.8
		c-0.6,0.6-1.3,0.9-2,0.9s-1.3-0.2-1.6-0.6c-0.4-0.4-0.5-0.9-0.5-1.5c0-0.8,0.3-1.4,0.8-1.8c0.5-0.4,1.2-0.6,2-0.6
		c0.4,0,0.8,0,1.2,0.1v-0.4c0-0.7-0.4-1.1-1.1-1.1c-0.5,0-1.2,0.2-2.1,0.5c-0.3-0.3-0.4-0.7-0.5-1.2c1-0.4,2-0.6,3-0.6
		c0.7,0,1.3,0.2,1.7,0.6c0.4,0.4,0.7,1,0.7,1.8v2.9C192.9,105.1,193,105.4,193.3,105.6z M189.8,105.3c0.5,0,1-0.2,1.4-0.7v-1.2
		c-0.3,0-0.7-0.1-1.1-0.1s-0.7,0.1-0.9,0.3c-0.2,0.2-0.3,0.4-0.3,0.7c0,0.3,0.1,0.5,0.2,0.7C189.3,105.2,189.5,105.3,189.8,105.3z"
		/>
	<path fill="#043A63" d="M201.1,100.6h2.6c0.6,0,1-0.1,1.4-0.3c0.2,0.2,0.2,0.5,0.2,0.8c0,0.6-0.4,0.9-1.2,0.9h-0.4
		c0,0.2,0,0.5,0,0.9v1.3c0,0.7,0,1.4,0.1,2.2c-0.2,0.1-0.5,0.1-0.8,0.1s-0.6,0-0.8-0.1l-0.1-0.6c-0.6,0.5-1.4,0.8-2.2,0.8
		c-0.8,0-1.5-0.3-2-0.8c-0.5-0.5-0.7-1.1-0.7-1.8c0-0.7,0.2-1.3,0.5-1.8c0.4-0.5,0.8-0.8,1.3-0.9c-0.4-0.1-0.8-0.4-1-0.8
		c-0.3-0.4-0.4-0.8-0.4-1.3c0-0.7,0.3-1.3,0.8-1.8c0.5-0.5,1.3-0.7,2.2-0.7s1.8,0.1,2.7,0.4c0,0,0,0.1,0,0.1c0,0.5-0.1,0.9-0.4,1.3
		c-0.8-0.3-1.5-0.4-2-0.4c-0.5,0-0.9,0.1-1.1,0.4c-0.2,0.2-0.4,0.5-0.4,0.9C199.5,100.2,200.1,100.6,201.1,100.6z M202.1,103
		c0-0.4,0-0.7,0-0.9H201c-0.6,0-1.1,0.2-1.4,0.5c-0.3,0.3-0.5,0.7-0.5,1.2c0,0.5,0.1,0.8,0.4,1.1s0.6,0.4,1,0.4
		c0.7,0,1.2-0.2,1.7-0.6V103z"/>
	<path fill="#043A63" d="M216.7,96.8L216.7,96.8l0.1,9.6c-0.3,0.1-0.6,0.1-1,0.1s-0.8,0-1.1-0.1l-2.7-5.5c-0.2-0.5-0.5-1.1-0.9-1.9
		l-0.1,0c0.1,1.2,0.1,2.4,0.1,3.7v3.8c-0.2,0-0.5,0.1-0.8,0.1s-0.6,0-0.8-0.1v-9.5c0.3-0.1,0.6-0.1,1-0.1c0.4,0,0.8,0,1.1,0.1
		l2.6,5.5c0.2,0.5,0.6,1.2,0.9,2.1l0,0c-0.1-1.3-0.1-2.6-0.1-3.8v-2.8c0-0.4,0.1-0.7,0.2-0.8s0.4-0.3,0.8-0.3H216.7z"/>
	<path fill="#043A63" d="M224.1,103.5h-3.9c0,0.6,0.2,1,0.4,1.3s0.6,0.5,1.2,0.5s1.2-0.2,1.8-0.5c0.3,0.3,0.4,0.6,0.5,1.1
		c-0.7,0.5-1.6,0.8-2.7,0.8c-1.1,0-1.8-0.3-2.3-1c-0.5-0.7-0.7-1.6-0.7-2.6c0-1.1,0.3-2,0.8-2.6c0.5-0.7,1.2-1,2.2-1
		c0.9,0,1.7,0.3,2.2,0.8s0.8,1.3,0.8,2.1C224.2,102.7,224.2,103.1,224.1,103.5z M221.4,100.5c-0.8,0-1.2,0.6-1.2,1.7h2.4v-0.2
		c0-0.5-0.1-0.8-0.3-1.1C222.1,100.7,221.8,100.5,221.4,100.5z"/>
	<path fill="#043A63" d="M225.8,105.6c-0.4-0.6-0.6-1.5-0.6-2.7s0.3-2,0.8-2.7c0.5-0.6,1.2-1,1.9-1s1.4,0.2,1.9,0.7
		c0.3-0.3,0.6-0.5,1.1-0.6c0.1,0.1,0.3,0.2,0.4,0.4c0.1,0.2,0.2,0.3,0.2,0.5c-0.3,0.2-0.4,0.6-0.4,1.2v4c0,1.5-0.2,2.5-0.7,3.2
		c-0.5,0.6-1.3,0.9-2.4,0.9c-0.9,0-1.7-0.2-2.5-0.5c0-0.5,0.1-0.9,0.4-1.3c0.6,0.3,1.3,0.4,1.9,0.4s1-0.2,1.3-0.5
		c0.2-0.3,0.3-0.7,0.3-1.3v-0.6c-0.5,0.4-1.1,0.7-1.8,0.7C226.9,106.6,226.3,106.2,225.8,105.6z M229.4,104.5v-3.2
		c-0.4-0.4-0.8-0.6-1.2-0.6c-0.4,0-0.7,0.2-0.9,0.6c-0.2,0.4-0.3,1-0.3,1.7c0,0.7,0.1,1.3,0.3,1.7c0.2,0.4,0.5,0.5,0.8,0.5
		C228.6,105.1,229,104.9,229.4,104.5z"/>
	<path fill="#043A63" d="M238.7,103c0,1.3-0.3,2.2-1,2.9c-0.5,0.5-1.2,0.8-2.1,0.8c-0.9,0-1.6-0.3-2.1-0.8c-0.7-0.7-1-1.6-1-2.9
		s0.3-2.2,1-2.9c0.5-0.5,1.2-0.8,2.1-0.8c0.9,0,1.6,0.3,2.1,0.8C238.4,100.7,238.7,101.7,238.7,103z M235.6,100.6
		c-0.9,0-1.3,0.8-1.3,2.4c0,1.6,0.4,2.4,1.3,2.4c0.9,0,1.3-0.8,1.3-2.4C236.9,101.4,236.5,100.6,235.6,100.6z M234.5,98.2l2.1-2.3
		c0.2,0.1,0.5,0.2,0.7,0.4c0.2,0.2,0.4,0.4,0.4,0.7l-2.5,1.9C234.8,98.8,234.6,98.5,234.5,98.2z"/>
	<path fill="#043A63" d="M243.7,102.3c0-0.1,0-0.1,0-0.2c0-0.5-0.1-0.8-0.2-1.1c-0.1-0.3-0.4-0.4-0.8-0.4c-0.8,0-1.2,0.8-1.2,2.3
		s0.5,2.3,1.4,2.3c0.5,0,1-0.2,1.6-0.7c0.1,0.1,0.3,0.2,0.4,0.4c0.1,0.2,0.2,0.4,0.3,0.6c-0.7,0.7-1.5,1-2.5,1c-1,0-1.7-0.3-2.2-1
		c-0.5-0.7-0.8-1.6-0.8-2.7s0.3-2,0.9-2.7s1.3-0.9,2.1-0.9s1.5,0.2,1.9,0.7c0.5,0.4,0.7,1,0.7,1.6c0,0.6-0.3,0.9-0.9,0.9
		C244.2,102.4,244,102.4,243.7,102.3z"/>
	<path fill="#043A63" d="M248.7,100.8v5.6c-0.3,0-0.5,0.1-0.9,0.1c-0.3,0-0.6,0-0.9-0.1v-4.9c0-0.5-0.2-0.8-0.6-0.8h-0.2
		c0-0.2-0.1-0.4-0.1-0.6c0-0.2,0-0.5,0.1-0.6c0.3,0,0.7-0.1,1-0.1h0.2c0.4,0,0.7,0.1,0.9,0.4S248.7,100.4,248.7,100.8z M246.7,98.2
		c-0.1-0.2-0.1-0.4-0.1-0.7c0-0.2,0-0.5,0.1-0.7c0.2-0.1,0.5-0.2,0.9-0.2s0.6,0.1,0.9,0.2c0.1,0.2,0.1,0.4,0.1,0.7
		c0,0.2,0,0.5-0.1,0.7c-0.2,0.1-0.5,0.2-0.9,0.2C247.1,98.4,246.8,98.4,246.7,98.2z"/>
	<path fill="#043A63" d="M256.3,103c0,1.3-0.3,2.2-1,2.9c-0.5,0.5-1.2,0.8-2.1,0.8c-0.9,0-1.6-0.3-2.1-0.8c-0.7-0.7-1-1.6-1-2.9
		s0.3-2.2,1-2.9c0.5-0.5,1.2-0.8,2.1-0.8c0.9,0,1.6,0.3,2.1,0.8C256,100.7,256.3,101.7,256.3,103z M253.2,100.6
		c-0.9,0-1.3,0.8-1.3,2.4c0,1.6,0.4,2.4,1.3,2.4c0.9,0,1.3-0.8,1.3-2.4C254.5,101.4,254.1,100.6,253.2,100.6z"/>
	<path fill="#043A63" d="M257.1,105.9c0-0.2,0.1-0.4,0.2-0.6c0.1-0.2,0.2-0.4,0.4-0.6c0.7,0.4,1.4,0.6,2,0.6c0.3,0,0.6-0.1,0.8-0.2
		s0.3-0.3,0.3-0.5c0-0.4-0.3-0.6-0.8-0.8l-0.8-0.3c-1.2-0.4-1.8-1.1-1.8-2c0-0.7,0.2-1.2,0.7-1.6c0.5-0.4,1.1-0.6,1.9-0.6
		s1.6,0.2,2.4,0.5c0,0.2,0,0.4-0.1,0.7c-0.1,0.2-0.2,0.4-0.4,0.5c-0.7-0.3-1.3-0.5-1.9-0.5c-0.3,0-0.5,0.1-0.6,0.2
		c-0.2,0.1-0.2,0.3-0.2,0.5c0,0.3,0.2,0.5,0.7,0.7l0.9,0.3c1.2,0.4,1.8,1.2,1.8,2.2c0,0.7-0.2,1.2-0.7,1.6c-0.5,0.4-1.2,0.6-2.1,0.6
		C258.7,106.6,257.9,106.4,257.1,105.9z"/>
	<path fill="#043A63" d="M263.7,106.3c-0.1-0.2-0.1-0.4-0.1-0.7s0-0.6,0.1-0.8c0.3-0.1,0.6-0.2,1-0.2c0.4,0,0.7,0.1,0.9,0.2
		c0.1,0.2,0.1,0.5,0.1,0.8s0,0.6-0.1,0.7c-0.2,0.1-0.5,0.2-0.9,0.2S263.9,106.5,263.7,106.3z"/>
</g>
<g>
	<path fill="#FFFFFF" d="M66.9,124.3v-9.6c0.2,0,0.4-0.1,0.7-0.1c0.3,0,0.5,0,0.7,0.1v9.6c-0.2,0-0.4,0.1-0.7,0.1
		C67.3,124.3,67.1,124.3,66.9,124.3z"/>
	<path fill="#FFFFFF" d="M72.6,124.5c-0.8,0-1.4-0.3-1.8-1c-0.4-0.6-0.6-1.5-0.6-2.7c0-1.1,0.3-2,0.8-2.6s1.2-0.9,1.9-0.9
		c0.5,0,1.1,0.2,1.6,0.5v-3.7l0.1-0.1H75c0.3,0,0.5,0.1,0.6,0.2c0.1,0.1,0.2,0.4,0.2,0.7v7.5c0,0.7,0.1,1.1,0.4,1.4
		c-0.1,0.3-0.3,0.6-0.5,0.7c-0.5-0.1-0.8-0.4-1-0.9C74,124.1,73.4,124.5,72.6,124.5z M72.8,123.3c0.6,0,1.1-0.3,1.6-0.9v-3.5
		c-0.5-0.4-1-0.5-1.4-0.5c-0.4,0-0.8,0.2-1.1,0.7c-0.3,0.4-0.4,1.1-0.4,1.9s0.1,1.4,0.4,1.8S72.5,123.3,72.8,123.3z"/>
	<path fill="#FFFFFF" d="M83,121.3h-4.2c0,0.7,0.2,1.2,0.4,1.5c0.3,0.4,0.7,0.5,1.3,0.5s1.2-0.2,1.9-0.5c0.2,0.2,0.4,0.5,0.4,0.9
		c-0.7,0.5-1.6,0.8-2.6,0.8c-1,0-1.7-0.3-2.2-1s-0.7-1.5-0.7-2.6s0.3-2,0.7-2.6c0.5-0.7,1.2-1,2.1-1c0.9,0,1.6,0.3,2.1,0.8
		c0.5,0.6,0.7,1.3,0.7,2.1C83.1,120.6,83,120.9,83,121.3z M81.4,118.7c-0.2-0.4-0.6-0.5-1.1-0.5c-0.5,0-0.8,0.2-1.1,0.5
		s-0.4,0.9-0.4,1.5h2.9v-0.2C81.8,119.5,81.6,119.1,81.4,118.7z"/>
	<path fill="#FFFFFF" d="M90.2,119.5v3.3c0,0.6,0.1,1,0.2,1.2c-0.2,0.2-0.5,0.3-0.8,0.3c-0.5,0-0.7-0.3-0.7-0.9v-3.6
		c0-0.5-0.1-0.9-0.2-1.1s-0.4-0.3-0.7-0.3c-0.3,0-0.7,0.1-1,0.3s-0.6,0.4-0.9,0.7v4.9c-0.2,0-0.4,0.1-0.7,0.1c-0.3,0-0.5,0-0.7-0.1
		v-6.9l0.1-0.1h0.5c0.5,0,0.7,0.3,0.8,0.9c0.7-0.6,1.5-1,2.3-1c0.6,0,1.1,0.2,1.4,0.6C90.1,118.3,90.2,118.9,90.2,119.5z"/>
	<path fill="#FFFFFF" d="M95.6,117.4c0,0.2,0.1,0.3,0.1,0.5c0,0.2,0,0.3-0.1,0.5l-1.8,0v4.3c0,0.4,0.2,0.6,0.6,0.6h1
		c0.1,0.2,0.1,0.4,0.1,0.6s0,0.3,0,0.4c-0.5,0.1-1.1,0.1-1.5,0.1c-1,0-1.4-0.5-1.4-1.4v-4.6l-1,0c0-0.1-0.1-0.3-0.1-0.5
		c0-0.2,0-0.4,0.1-0.5l1,0v-1.3c0-0.3,0.1-0.5,0.2-0.7s0.3-0.2,0.6-0.2h0.5l0.1,0.1v2.1L95.6,117.4z"/>
	<path fill="#FFFFFF" d="M98.7,118.5v5.8c-0.2,0-0.4,0.1-0.7,0.1c-0.3,0-0.5,0-0.7-0.1v-5.2c0-0.3,0-0.4-0.1-0.5
		c-0.1-0.1-0.2-0.2-0.5-0.2h-0.2c0-0.1-0.1-0.3-0.1-0.5c0-0.2,0-0.3,0.1-0.5c0.3,0,0.6-0.1,0.8-0.1h0.2c0.3,0,0.6,0.1,0.8,0.3
		C98.6,117.9,98.7,118.2,98.7,118.5z M96.9,115.5c0-0.2,0-0.4,0.1-0.6c0.2-0.1,0.5-0.2,0.8-0.2s0.6,0.1,0.7,0.2
		c0.1,0.2,0.1,0.4,0.1,0.6c0,0.2,0,0.4-0.1,0.6c-0.2,0.1-0.4,0.2-0.7,0.2c-0.3,0-0.6-0.1-0.8-0.2C97,115.9,96.9,115.7,96.9,115.5z"
		/>
	<path fill="#FFFFFF" d="M101.1,124.3v-5.9l-1.2,0c0-0.2-0.1-0.4-0.1-0.5c0-0.1,0-0.3,0.1-0.5l1.1,0c-0.1-0.5-0.1-1-0.1-1.3
		c0-0.6,0.2-1.1,0.6-1.5s0.9-0.6,1.5-0.6s1.2,0.1,1.8,0.3c0,0.4-0.1,0.7-0.3,0.9c-0.5-0.1-0.9-0.2-1.2-0.2s-0.6,0.1-0.8,0.3
		s-0.3,0.5-0.3,0.9c0,0.4,0,0.8,0.1,1.3l2,0c0,0.2,0.1,0.4,0.1,0.5c0,0.1,0,0.3-0.1,0.5l-1.9,0v5.9c-0.2,0-0.4,0.1-0.7,0.1
		C101.5,124.3,101.2,124.3,101.1,124.3z"/>
	<path fill="#FFFFFF" d="M107.4,118.5v5.8c-0.2,0-0.4,0.1-0.7,0.1c-0.3,0-0.5,0-0.7-0.1v-5.2c0-0.3,0-0.4-0.1-0.5
		c-0.1-0.1-0.2-0.2-0.5-0.2h-0.2c0-0.1-0.1-0.3-0.1-0.5c0-0.2,0-0.3,0.1-0.5c0.3,0,0.6-0.1,0.8-0.1h0.2c0.3,0,0.6,0.1,0.8,0.3
		C107.3,117.9,107.4,118.2,107.4,118.5z M105.6,115.5c0-0.2,0-0.4,0.1-0.6c0.2-0.1,0.5-0.2,0.8-0.2s0.6,0.1,0.7,0.2
		c0.1,0.2,0.1,0.4,0.1,0.6c0,0.2,0,0.4-0.1,0.6c-0.2,0.1-0.4,0.2-0.7,0.2c-0.3,0-0.6-0.1-0.8-0.2
		C105.6,115.9,105.6,115.7,105.6,115.5z"/>
	<path fill="#FFFFFF" d="M113.1,120c0,0,0-0.1,0-0.1c0-1.1-0.4-1.6-1.3-1.6c-0.5,0-0.8,0.2-1.1,0.7c-0.3,0.4-0.4,1.1-0.4,2
		c0,1.6,0.5,2.5,1.6,2.5c0.5,0,1.1-0.2,1.7-0.7c0.1,0.1,0.3,0.2,0.4,0.3c0.1,0.2,0.2,0.3,0.2,0.5c-0.7,0.7-1.5,1-2.5,1
		s-1.7-0.3-2.1-1c-0.5-0.7-0.7-1.6-0.7-2.7s0.3-2,0.8-2.6c0.6-0.6,1.2-0.9,2-0.9s1.4,0.2,1.9,0.7c0.4,0.4,0.7,0.9,0.7,1.4
		c0,0.5-0.2,0.8-0.7,0.8C113.5,120.1,113.3,120,113.1,120z"/>
	<path fill="#FFFFFF" d="M121.2,123.7c-0.1,0.3-0.3,0.6-0.5,0.7c-0.5-0.1-0.9-0.4-1.1-0.9c-0.7,0.7-1.4,1-2.1,1s-1.2-0.2-1.6-0.6
		c-0.4-0.4-0.5-0.9-0.5-1.4c0-0.8,0.2-1.3,0.7-1.7c0.5-0.4,1.1-0.6,1.9-0.6c0.5,0,0.9,0,1.4,0.1v-0.6c0-0.8-0.4-1.3-1.2-1.3
		c-0.6,0-1.3,0.2-2.2,0.5c-0.3-0.3-0.4-0.6-0.4-1c1-0.4,1.9-0.6,2.9-0.6c0.7,0,1.3,0.2,1.7,0.6c0.4,0.4,0.6,1,0.6,1.8v2.9
		C120.8,123.1,120.9,123.5,121.2,123.7z M117.8,123.4c0.6,0,1.2-0.3,1.7-0.9v-1.3c-0.4,0-0.8-0.1-1.3-0.1c-0.5,0-0.8,0.1-1.1,0.3
		c-0.2,0.2-0.4,0.5-0.4,0.9c0,0.4,0.1,0.6,0.3,0.8S117.5,123.4,117.8,123.4z"/>
	<path fill="#FFFFFF" d="M122.5,118c0.1-0.3,0.2-0.6,0.5-0.7c0.6,0.1,1,0.6,1.2,1.2c0.4-0.8,1-1.2,1.8-1.2c0.2,0,0.5,0,0.7,0.1
		c0,0.5-0.1,0.9-0.3,1.3c-0.1,0-0.2,0-0.6-0.1c-0.7,0-1.2,0.4-1.5,1.1v4.6c-0.2,0-0.4,0.1-0.7,0.1s-0.5,0-0.7-0.1v-4.8
		C123,118.8,122.8,118.3,122.5,118z"/>
	<path fill="#FFFFFF" d="M135.9,121.3h-4.2c0,0.7,0.2,1.2,0.4,1.5c0.3,0.4,0.7,0.5,1.3,0.5s1.2-0.2,1.9-0.5c0.2,0.2,0.4,0.5,0.4,0.9
		c-0.7,0.5-1.6,0.8-2.6,0.8c-1,0-1.7-0.3-2.2-1s-0.7-1.5-0.7-2.6s0.3-2,0.7-2.6c0.5-0.7,1.2-1,2.1-1c0.9,0,1.6,0.3,2.1,0.8
		c0.5,0.6,0.7,1.3,0.7,2.1C136,120.6,135.9,120.9,135.9,121.3z M134.3,118.7c-0.2-0.4-0.6-0.5-1.1-0.5c-0.5,0-0.8,0.2-1.1,0.5
		s-0.4,0.9-0.4,1.5h2.9v-0.2C134.6,119.5,134.5,119.1,134.3,118.7z"/>
	<path fill="#FFFFFF" d="M145.7,121.3h-4.2c0,0.7,0.2,1.2,0.4,1.5c0.3,0.4,0.7,0.5,1.3,0.5s1.2-0.2,1.9-0.5c0.2,0.2,0.4,0.5,0.4,0.9
		c-0.7,0.5-1.6,0.8-2.6,0.8c-1,0-1.7-0.3-2.2-1s-0.7-1.5-0.7-2.6s0.3-2,0.7-2.6c0.5-0.7,1.2-1,2.1-1c0.9,0,1.6,0.3,2.1,0.8
		c0.5,0.6,0.7,1.3,0.7,2.1C145.8,120.6,145.7,120.9,145.7,121.3z M144.1,118.7c-0.2-0.4-0.6-0.5-1.1-0.5c-0.5,0-0.8,0.2-1.1,0.5
		s-0.4,0.9-0.4,1.5h2.9v-0.2C144.4,119.5,144.3,119.1,144.1,118.7z"/>
	<path fill="#FFFFFF" d="M149.3,123.3h0.5c0.1,0.2,0.1,0.4,0.1,0.6s0,0.3,0,0.4c-0.4,0.1-0.8,0.1-1.2,0.1c-0.9,0-1.3-0.5-1.3-1.4
		v-8.9l0.1-0.1h0.5c0.3,0,0.5,0.1,0.6,0.2s0.2,0.4,0.2,0.7v7.8C148.8,123.1,148.9,123.3,149.3,123.3z"/>
	<path fill="#FFFFFF" d="M152.9,118.5v5.8c-0.2,0-0.4,0.1-0.7,0.1c-0.3,0-0.5,0-0.7-0.1v-5.2c0-0.3,0-0.4-0.1-0.5
		c-0.1-0.1-0.2-0.2-0.5-0.2h-0.2c0-0.1-0.1-0.3-0.1-0.5c0-0.2,0-0.3,0.1-0.5c0.3,0,0.6-0.1,0.8-0.1h0.2c0.3,0,0.6,0.1,0.8,0.3
		C152.8,117.9,152.9,118.2,152.9,118.5z M151.1,115.5c0-0.2,0-0.4,0.1-0.6c0.2-0.1,0.5-0.2,0.8-0.2s0.6,0.1,0.7,0.2
		c0.1,0.2,0.1,0.4,0.1,0.6c0,0.2,0,0.4-0.1,0.6c-0.2,0.1-0.4,0.2-0.7,0.2c-0.3,0-0.6-0.1-0.8-0.2
		C151.2,115.9,151.1,115.7,151.1,115.5z"/>
	<path fill="#FFFFFF" d="M158.8,119.9c0-0.5-0.1-0.8-0.2-1.1c-0.1-0.2-0.4-0.3-0.7-0.3c-0.5,0-1.1,0.3-1.6,0.9v4.9
		c-0.2,0-0.4,0.1-0.7,0.1c-0.3,0-0.5,0-0.7-0.1v-6.9l0.1-0.1h0.5c0.5,0,0.7,0.3,0.8,0.9c0.6-0.6,1.3-1,2-1s1.3,0.3,1.6,1
		c0.7-0.7,1.5-1,2.2-1c0.6,0,1,0.2,1.3,0.6c0.3,0.4,0.5,0.9,0.5,1.6v3.4c0,0.5,0.1,1,0.2,1.2c-0.2,0.2-0.5,0.3-0.9,0.3
		c-0.5,0-0.7-0.3-0.7-0.9v-3.7c0-0.5-0.1-0.8-0.2-1.1c-0.1-0.2-0.4-0.3-0.7-0.3c-0.6,0-1.1,0.3-1.6,0.9v4.9c-0.2,0-0.4,0.1-0.7,0.1
		c-0.3,0-0.5,0-0.7-0.1V119.9z"/>
	<path fill="#FFFFFF" d="M167.5,118.5v5.8c-0.2,0-0.4,0.1-0.7,0.1c-0.3,0-0.5,0-0.7-0.1v-5.2c0-0.3,0-0.4-0.1-0.5
		c-0.1-0.1-0.2-0.2-0.5-0.2h-0.2c0-0.1-0.1-0.3-0.1-0.5c0-0.2,0-0.3,0.1-0.5c0.3,0,0.6-0.1,0.8-0.1h0.2c0.3,0,0.6,0.1,0.8,0.3
		C167.4,117.9,167.5,118.2,167.5,118.5z M165.8,115.5c0-0.2,0-0.4,0.1-0.6c0.2-0.1,0.5-0.2,0.8-0.2s0.6,0.1,0.7,0.2
		c0.1,0.2,0.1,0.4,0.1,0.6c0,0.2,0,0.4-0.1,0.6c-0.2,0.1-0.4,0.2-0.7,0.2c-0.3,0-0.6-0.1-0.8-0.2
		C165.8,115.9,165.8,115.7,165.8,115.5z"/>
	<path fill="#FFFFFF" d="M175.1,119.5v3.3c0,0.6,0.1,1,0.2,1.2c-0.2,0.2-0.5,0.3-0.8,0.3c-0.5,0-0.7-0.3-0.7-0.9v-3.6
		c0-0.5-0.1-0.9-0.2-1.1s-0.4-0.3-0.7-0.3c-0.3,0-0.7,0.1-1,0.3s-0.6,0.4-0.9,0.7v4.9c-0.2,0-0.4,0.1-0.7,0.1c-0.3,0-0.5,0-0.7-0.1
		v-6.9l0.1-0.1h0.5c0.5,0,0.7,0.3,0.8,0.9c0.7-0.6,1.5-1,2.3-1c0.6,0,1.1,0.2,1.4,0.6C174.9,118.3,175.1,118.9,175.1,119.5z"/>
	<path fill="#FFFFFF" d="M182.4,123.7c-0.1,0.3-0.3,0.6-0.5,0.7c-0.5-0.1-0.9-0.4-1.1-0.9c-0.7,0.7-1.4,1-2.1,1s-1.2-0.2-1.6-0.6
		c-0.4-0.4-0.5-0.9-0.5-1.4c0-0.8,0.2-1.3,0.7-1.7c0.5-0.4,1.1-0.6,1.9-0.6c0.5,0,0.9,0,1.4,0.1v-0.6c0-0.8-0.4-1.3-1.2-1.3
		c-0.6,0-1.3,0.2-2.2,0.5c-0.3-0.3-0.4-0.6-0.4-1c1-0.4,1.9-0.6,2.9-0.6c0.7,0,1.3,0.2,1.7,0.6c0.4,0.4,0.6,1,0.6,1.8v2.9
		C182,123.1,182.2,123.5,182.4,123.7z M179,123.4c0.6,0,1.2-0.3,1.7-0.9v-1.3c-0.4,0-0.8-0.1-1.3-0.1c-0.5,0-0.8,0.1-1.1,0.3
		c-0.2,0.2-0.4,0.5-0.4,0.9c0,0.4,0.1,0.6,0.3,0.8S178.7,123.4,179,123.4z"/>
	<path fill="#FFFFFF" d="M183.7,118c0.1-0.3,0.2-0.6,0.5-0.7c0.6,0.1,1,0.6,1.2,1.2c0.4-0.8,1-1.2,1.8-1.2c0.2,0,0.5,0,0.7,0.1
		c0,0.5-0.1,0.9-0.3,1.3c-0.1,0-0.2,0-0.6-0.1c-0.7,0-1.2,0.4-1.5,1.1v4.6c-0.2,0-0.4,0.1-0.7,0.1s-0.5,0-0.7-0.1v-4.8
		C184.2,118.8,184,118.3,183.7,118z"/>
	<path fill="#FFFFFF" d="M193.9,124.5c-0.8,0-1.4-0.3-1.8-1c-0.4-0.6-0.6-1.5-0.6-2.7c0-1.1,0.3-2,0.8-2.6s1.2-0.9,1.9-0.9
		c0.5,0,1.1,0.2,1.6,0.5v-3.7l0.1-0.1h0.5c0.3,0,0.5,0.1,0.6,0.2c0.1,0.1,0.2,0.4,0.2,0.7v7.5c0,0.7,0.1,1.1,0.4,1.4
		c-0.1,0.3-0.3,0.6-0.5,0.7c-0.5-0.1-0.8-0.4-1-0.9C195.4,124.1,194.7,124.5,193.9,124.5z M194.2,123.3c0.6,0,1.1-0.3,1.6-0.9v-3.5
		c-0.5-0.4-1-0.5-1.4-0.5c-0.4,0-0.8,0.2-1.1,0.7c-0.3,0.4-0.4,1.1-0.4,1.9s0.1,1.4,0.4,1.8S193.8,123.3,194.2,123.3z"/>
	<path fill="#FFFFFF" d="M204.3,121.3h-4.2c0,0.7,0.2,1.2,0.4,1.5c0.3,0.4,0.7,0.5,1.3,0.5s1.2-0.2,1.9-0.5c0.2,0.2,0.4,0.5,0.4,0.9
		c-0.7,0.5-1.6,0.8-2.6,0.8c-1,0-1.7-0.3-2.2-1s-0.7-1.5-0.7-2.6s0.3-2,0.7-2.6c0.5-0.7,1.2-1,2.1-1c0.9,0,1.6,0.3,2.1,0.8
		c0.5,0.6,0.7,1.3,0.7,2.1C204.4,120.6,204.4,120.9,204.3,121.3z M202.8,118.7c-0.2-0.4-0.6-0.5-1.1-0.5c-0.5,0-0.8,0.2-1.1,0.5
		s-0.4,0.9-0.4,1.5h2.9v-0.2C203.1,119.5,203,119.1,202.8,118.7z"/>
	<path fill="#FFFFFF" d="M205.4,123.8c0-0.2,0.1-0.3,0.1-0.5s0.2-0.3,0.3-0.4c0.8,0.4,1.4,0.6,1.9,0.6c0.5,0,0.8-0.1,1.1-0.3
		s0.4-0.4,0.4-0.7c0-0.4-0.3-0.8-0.9-1l-0.8-0.3c-1.2-0.4-1.8-1.1-1.8-2c0-0.6,0.2-1.1,0.7-1.5c0.5-0.4,1.1-0.6,1.8-0.6
		s1.5,0.2,2.2,0.5c0,0.2,0,0.4-0.1,0.6s-0.2,0.3-0.3,0.4c-0.7-0.3-1.3-0.4-1.9-0.4c-0.3,0-0.6,0.1-0.8,0.2c-0.2,0.2-0.3,0.3-0.3,0.6
		s0.1,0.4,0.2,0.6c0.1,0.1,0.4,0.3,0.7,0.4l0.8,0.3c1.2,0.5,1.8,1.2,1.8,2.1c0,0.6-0.2,1.1-0.7,1.5c-0.5,0.4-1.2,0.6-2,0.6
		C207,124.5,206.2,124.2,205.4,123.8z"/>
	<path fill="#FFFFFF" d="M215.4,117.2c0.8,0,1.3,0.3,1.8,1c0.4,0.6,0.6,1.5,0.6,2.7c0,1.1-0.3,2-0.8,2.6s-1.2,0.9-1.9,0.9
		c-0.6,0-1.1-0.2-1.7-0.5v2.5c0,0.3-0.1,0.5-0.2,0.7c-0.1,0.1-0.3,0.2-0.6,0.2h-0.5l-0.1-0.1v-9.8l0.1-0.1h0.4
		c0.4,0,0.7,0.2,0.8,0.7C213.9,117.5,214.6,117.2,215.4,117.2z M215.1,118.4c-0.7,0-1.2,0.3-1.6,1v3.4c0.5,0.4,1,0.5,1.4,0.5
		c0.4,0,0.8-0.2,1.1-0.7c0.3-0.4,0.4-1.1,0.4-1.9s-0.1-1.4-0.4-1.8C215.7,118.6,215.4,118.4,215.1,118.4z"/>
	<path fill="#FFFFFF" d="M224.4,121.3h-4.2c0,0.7,0.2,1.2,0.4,1.5c0.3,0.4,0.7,0.5,1.3,0.5s1.2-0.2,1.9-0.5c0.2,0.2,0.4,0.5,0.4,0.9
		c-0.7,0.5-1.6,0.8-2.6,0.8c-1,0-1.7-0.3-2.2-1s-0.7-1.5-0.7-2.6s0.3-2,0.7-2.6c0.5-0.7,1.2-1,2.1-1c0.9,0,1.6,0.3,2.1,0.8
		c0.5,0.6,0.7,1.3,0.7,2.1C224.5,120.6,224.5,120.9,224.4,121.3z M222.9,118.7c-0.2-0.4-0.6-0.5-1.1-0.5c-0.5,0-0.8,0.2-1.1,0.5
		s-0.4,0.9-0.4,1.5h2.9v-0.2C223.2,119.5,223.1,119.1,222.9,118.7z"/>
	<path fill="#FFFFFF" d="M225.9,118c0.1-0.3,0.2-0.6,0.5-0.7c0.6,0.1,1,0.6,1.2,1.2c0.4-0.8,1-1.2,1.8-1.2c0.2,0,0.5,0,0.7,0.1
		c0,0.5-0.1,0.9-0.3,1.3c-0.1,0-0.2,0-0.6-0.1c-0.7,0-1.2,0.4-1.5,1.1v4.6c-0.2,0-0.4,0.1-0.7,0.1s-0.5,0-0.7-0.1v-4.8
		C226.4,118.8,226.2,118.3,225.9,118z"/>
	<path fill="#FFFFFF" d="M233,124.5c-0.8,0-1.4-0.3-1.8-1c-0.4-0.6-0.6-1.5-0.6-2.7c0-1.1,0.3-2,0.8-2.6s1.2-0.9,1.9-0.9
		c0.5,0,1.1,0.2,1.6,0.5v-3.7l0.1-0.1h0.5c0.3,0,0.5,0.1,0.6,0.2c0.1,0.1,0.2,0.4,0.2,0.7v7.5c0,0.7,0.1,1.1,0.4,1.4
		c-0.1,0.3-0.3,0.6-0.5,0.7c-0.5-0.1-0.8-0.4-1-0.9C234.5,124.1,233.8,124.5,233,124.5z M233.3,123.3c0.6,0,1.1-0.3,1.6-0.9v-3.5
		c-0.5-0.4-1-0.5-1.4-0.5c-0.4,0-0.8,0.2-1.1,0.7c-0.3,0.4-0.4,1.1-0.4,1.9s0.1,1.4,0.4,1.8S232.9,123.3,233.3,123.3z"/>
	<path fill="#FFFFFF" d="M239.8,118.5v5.8c-0.2,0-0.4,0.1-0.7,0.1c-0.3,0-0.5,0-0.7-0.1v-5.2c0-0.3,0-0.4-0.1-0.5
		c-0.1-0.1-0.2-0.2-0.5-0.2h-0.2c0-0.1-0.1-0.3-0.1-0.5c0-0.2,0-0.3,0.1-0.5c0.3,0,0.6-0.1,0.8-0.1h0.2c0.3,0,0.6,0.1,0.8,0.3
		S239.8,118.2,239.8,118.5z M237.9,116.2l2-2.2c0.2,0.1,0.4,0.2,0.6,0.4c0.2,0.2,0.3,0.4,0.4,0.6l-2.4,1.9
		C238.2,116.7,238,116.5,237.9,116.2z"/>
	<path fill="#FFFFFF" d="M245.6,120c0,0,0-0.1,0-0.1c0-1.1-0.4-1.6-1.3-1.6c-0.5,0-0.8,0.2-1.1,0.7c-0.3,0.4-0.4,1.1-0.4,2
		c0,1.6,0.5,2.5,1.6,2.5c0.5,0,1.1-0.2,1.7-0.7c0.1,0.1,0.3,0.2,0.4,0.3c0.1,0.2,0.2,0.3,0.2,0.5c-0.7,0.7-1.5,1-2.5,1
		s-1.7-0.3-2.1-1c-0.5-0.7-0.7-1.6-0.7-2.7s0.3-2,0.8-2.6c0.6-0.6,1.2-0.9,2-0.9s1.4,0.2,1.9,0.7c0.4,0.4,0.7,0.9,0.7,1.4
		c0,0.5-0.2,0.8-0.7,0.8C245.9,120.1,245.8,120,245.6,120z"/>
	<path fill="#FFFFFF" d="M250,118.5v5.8c-0.2,0-0.4,0.1-0.7,0.1c-0.3,0-0.5,0-0.7-0.1v-5.2c0-0.3,0-0.4-0.1-0.5
		c-0.1-0.1-0.2-0.2-0.5-0.2h-0.2c0-0.1-0.1-0.3-0.1-0.5c0-0.2,0-0.3,0.1-0.5c0.3,0,0.6-0.1,0.8-0.1h0.2c0.3,0,0.6,0.1,0.8,0.3
		C249.9,117.9,250,118.2,250,118.5z M248.3,115.5c0-0.2,0-0.4,0.1-0.6c0.2-0.1,0.5-0.2,0.8-0.2s0.6,0.1,0.7,0.2
		c0.1,0.2,0.1,0.4,0.1,0.6c0,0.2,0,0.4-0.1,0.6c-0.2,0.1-0.4,0.2-0.7,0.2c-0.3,0-0.6-0.1-0.8-0.2
		C248.3,115.9,248.3,115.7,248.3,115.5z"/>
	<path fill="#FFFFFF" d="M256.7,118c0.7,0.7,1,1.6,1,2.9s-0.3,2.2-1,2.9c-0.5,0.5-1.2,0.8-2,0.8c-0.8,0-1.5-0.3-2-0.8
		c-0.7-0.7-1-1.6-1-2.9s0.3-2.2,1-2.9c0.5-0.5,1.2-0.8,2-0.8C255.5,117.2,256.1,117.5,256.7,118z M253,120.8c0,1.7,0.5,2.6,1.6,2.6
		c1.1,0,1.6-0.9,1.6-2.6c0-0.5,0-0.9-0.1-1.3c-0.1-0.4-0.3-0.7-0.5-0.9c-0.2-0.3-0.6-0.4-1-0.4c-0.4,0-0.7,0.1-1,0.4
		c-0.2,0.3-0.4,0.6-0.5,0.9S253,120.4,253,120.8z"/>
	<path fill="#FFFFFF" d="M258.6,123.8c0-0.2,0.1-0.3,0.1-0.5s0.2-0.3,0.3-0.4c0.8,0.4,1.4,0.6,1.9,0.6c0.5,0,0.8-0.1,1.1-0.3
		s0.4-0.4,0.4-0.7c0-0.4-0.3-0.8-0.9-1l-0.8-0.3c-1.2-0.4-1.8-1.1-1.8-2c0-0.6,0.2-1.1,0.7-1.5c0.5-0.4,1.1-0.6,1.8-0.6
		s1.5,0.2,2.2,0.5c0,0.2,0,0.4-0.1,0.6s-0.2,0.3-0.3,0.4c-0.7-0.3-1.3-0.4-1.9-0.4c-0.3,0-0.6,0.1-0.8,0.2c-0.2,0.2-0.3,0.3-0.3,0.6
		s0.1,0.4,0.2,0.6c0.1,0.1,0.4,0.3,0.7,0.4l0.8,0.3c1.2,0.5,1.8,1.2,1.8,2.1c0,0.6-0.2,1.1-0.7,1.5c-0.5,0.4-1.2,0.6-2,0.6
		C260.2,124.5,259.4,124.2,258.6,123.8z"/>
	<path fill="#FFFFFF" d="M265,126.5c-0.2-0.1-0.3-0.3-0.3-0.6c0,0,0-0.1,0-0.1c0.3-0.1,0.6-0.3,0.8-0.6s0.3-0.5,0.3-0.8
		c-0.3-0.1-0.5-0.1-0.5-0.2c-0.1-0.1-0.1-0.4-0.1-0.7s0-0.5,0.1-0.7c0.2-0.1,0.5-0.2,0.9-0.2c0.3,0,0.6,0.1,0.8,0.2
		c0.1,0.2,0.1,0.5,0.1,0.9c0,0.6-0.2,1.2-0.5,1.7C266.1,125.9,265.6,126.3,265,126.5z"/>
	<path fill="#FFFFFF" d="M82.8,140l1.7-5.8c0.1,0,0.3-0.1,0.5-0.1c0.2,0,0.5,0,0.7,0.1l0,0.1c-0.9,3-1.7,5.2-2.2,6.8
		c-0.2,0-0.5,0.1-0.9,0.1c-0.3,0-0.6,0-0.7-0.1c-0.1-0.1-0.3-0.3-0.4-0.6l-2-6.1c0.3-0.1,0.6-0.2,0.8-0.2c0.4,0,0.6,0.2,0.7,0.6
		l1,3.1c0.2,0.7,0.4,1.4,0.6,2.1C82.6,139.9,82.7,140,82.8,140z"/>
	<path fill="#FFFFFF" d="M88.4,135.3v5.8c-0.2,0-0.4,0.1-0.7,0.1c-0.3,0-0.5,0-0.7-0.1v-5.2c0-0.3,0-0.4-0.1-0.5
		c-0.1-0.1-0.2-0.2-0.5-0.2h-0.2c0-0.1-0.1-0.3-0.1-0.5c0-0.2,0-0.3,0.1-0.5c0.3,0,0.6-0.1,0.8-0.1h0.2c0.3,0,0.6,0.1,0.8,0.3
		C88.3,134.7,88.4,135,88.4,135.3z M86.6,132.3c0-0.2,0-0.4,0.1-0.6c0.2-0.1,0.5-0.2,0.8-0.2s0.6,0.1,0.7,0.2
		c0.1,0.2,0.1,0.4,0.1,0.6c0,0.2,0,0.4-0.1,0.6c-0.2,0.1-0.4,0.2-0.7,0.2c-0.3,0-0.6-0.1-0.8-0.2C86.7,132.7,86.6,132.5,86.6,132.3z
		"/>
	<path fill="#FFFFFF" d="M89.8,140.6c0-0.2,0.1-0.3,0.1-0.5s0.2-0.3,0.3-0.4c0.8,0.4,1.4,0.6,1.9,0.6c0.5,0,0.8-0.1,1.1-0.3
		s0.4-0.4,0.4-0.7c0-0.4-0.3-0.8-0.9-1l-0.8-0.3c-1.2-0.4-1.8-1.1-1.8-2c0-0.6,0.2-1.1,0.7-1.5c0.5-0.4,1.1-0.6,1.8-0.6
		s1.5,0.2,2.2,0.5c0,0.2,0,0.4-0.1,0.6s-0.2,0.3-0.3,0.4c-0.7-0.3-1.3-0.4-1.9-0.4c-0.3,0-0.6,0.1-0.8,0.2c-0.2,0.2-0.3,0.3-0.3,0.6
		s0.1,0.4,0.2,0.6c0.1,0.1,0.4,0.3,0.7,0.4l0.8,0.3c1.2,0.5,1.8,1.2,1.8,2.1c0,0.6-0.2,1.1-0.7,1.5c-0.5,0.4-1.2,0.6-2,0.6
		C91.4,141.3,90.6,141,89.8,140.6z"/>
	<path fill="#FFFFFF" d="M101.8,140.5c-0.1,0.3-0.3,0.6-0.5,0.7c-0.5-0.1-0.9-0.4-1.1-0.9c-0.7,0.7-1.4,1-2.1,1s-1.2-0.2-1.6-0.6
		c-0.4-0.4-0.5-0.9-0.5-1.4c0-0.8,0.2-1.3,0.7-1.7c0.5-0.4,1.1-0.6,1.9-0.6c0.5,0,0.9,0,1.4,0.1v-0.6c0-0.8-0.4-1.3-1.2-1.3
		c-0.6,0-1.3,0.2-2.2,0.5c-0.3-0.3-0.4-0.6-0.4-1c1-0.4,1.9-0.6,2.9-0.6c0.7,0,1.3,0.2,1.7,0.6c0.4,0.4,0.6,1,0.6,1.8v2.9
		C101.4,139.9,101.5,140.3,101.8,140.5z M98.3,140.2c0.6,0,1.2-0.3,1.7-0.9v-1.3c-0.4,0-0.8-0.1-1.3-0.1c-0.5,0-0.8,0.1-1.1,0.3
		c-0.2,0.2-0.4,0.5-0.4,0.9c0,0.4,0.1,0.6,0.3,0.8S98,140.2,98.3,140.2z"/>
	<path fill="#FFFFFF" d="M108.9,136.3v3.3c0,0.6,0.1,1,0.2,1.2c-0.2,0.2-0.5,0.3-0.8,0.3c-0.5,0-0.7-0.3-0.7-0.9v-3.6
		c0-0.5-0.1-0.9-0.2-1.1s-0.4-0.3-0.7-0.3c-0.3,0-0.7,0.1-1,0.3s-0.6,0.4-0.9,0.7v4.9c-0.2,0-0.4,0.1-0.7,0.1c-0.3,0-0.5,0-0.7-0.1
		v-6.9l0.1-0.1h0.5c0.5,0,0.7,0.3,0.8,0.9c0.7-0.6,1.5-1,2.3-1c0.6,0,1.1,0.2,1.4,0.6C108.7,135.1,108.9,135.7,108.9,136.3z"/>
	<path fill="#FFFFFF" d="M112.9,141.3c-0.8,0-1.4-0.3-1.8-1c-0.4-0.6-0.6-1.5-0.6-2.7c0-1.1,0.3-2,0.8-2.6s1.2-0.9,1.9-0.9
		c0.5,0,1.1,0.2,1.6,0.5v-3.7l0.1-0.1h0.5c0.3,0,0.5,0.1,0.6,0.2c0.1,0.1,0.2,0.4,0.2,0.7v7.5c0,0.7,0.1,1.1,0.4,1.4
		c-0.1,0.3-0.3,0.6-0.5,0.7c-0.5-0.1-0.8-0.4-1-0.9C114.3,140.9,113.7,141.3,112.9,141.3z M113.1,140.1c0.6,0,1.1-0.3,1.6-0.9v-3.5
		c-0.5-0.4-1-0.5-1.4-0.5c-0.4,0-0.8,0.2-1.1,0.7c-0.3,0.4-0.4,1.1-0.4,1.9s0.1,1.4,0.4,1.8S112.8,140.1,113.1,140.1z"/>
	<path fill="#FFFFFF" d="M122.7,134.8c0.7,0.7,1,1.6,1,2.9s-0.3,2.2-1,2.9c-0.5,0.5-1.2,0.8-2,0.8c-0.8,0-1.5-0.3-2-0.8
		c-0.7-0.7-1-1.6-1-2.9s0.3-2.2,1-2.9c0.5-0.5,1.2-0.8,2-0.8C121.5,134,122.2,134.3,122.7,134.8z M119.1,137.6
		c0,1.7,0.5,2.6,1.6,2.6c1.1,0,1.6-0.9,1.6-2.6c0-0.5,0-0.9-0.1-1.3c-0.1-0.4-0.3-0.7-0.5-0.9c-0.2-0.3-0.6-0.4-1-0.4
		c-0.4,0-0.7,0.1-1,0.4c-0.2,0.3-0.4,0.6-0.5,0.9S119.1,137.2,119.1,137.6z"/>
	<path fill="#FFFFFF" d="M133.6,140.5c-0.1,0.3-0.3,0.6-0.5,0.7c-0.5-0.1-0.9-0.4-1.1-0.9c-0.7,0.7-1.4,1-2.1,1s-1.2-0.2-1.6-0.6
		c-0.4-0.4-0.5-0.9-0.5-1.4c0-0.8,0.2-1.3,0.7-1.7c0.5-0.4,1.1-0.6,1.9-0.6c0.5,0,0.9,0,1.4,0.1v-0.6c0-0.8-0.4-1.3-1.2-1.3
		c-0.6,0-1.3,0.2-2.2,0.5c-0.3-0.3-0.4-0.6-0.4-1c1-0.4,1.9-0.6,2.9-0.6c0.7,0,1.3,0.2,1.7,0.6c0.4,0.4,0.6,1,0.6,1.8v2.9
		C133.2,139.9,133.3,140.3,133.6,140.5z M130.1,140.2c0.6,0,1.2-0.3,1.7-0.9v-1.3c-0.4,0-0.8-0.1-1.3-0.1c-0.5,0-0.8,0.1-1.1,0.3
		c-0.2,0.2-0.4,0.5-0.4,0.9c0,0.4,0.1,0.6,0.3,0.8S129.8,140.2,130.1,140.2z"/>
	<path fill="#FFFFFF" d="M135.2,138.9v-3.3c0-0.5-0.1-1-0.2-1.2c0.2-0.2,0.5-0.3,0.8-0.3s0.5,0.1,0.6,0.2c0.1,0.1,0.2,0.4,0.2,0.7
		v3.6c0,0.5,0.1,0.9,0.2,1.1c0.1,0.2,0.4,0.3,0.7,0.3s0.7-0.1,1-0.3c0.3-0.2,0.6-0.4,0.9-0.7v-4.9c0.2,0,0.5-0.1,0.7-0.1
		s0.4,0,0.7,0.1v5c0,0.7,0.1,1.1,0.4,1.4c-0.1,0.3-0.3,0.5-0.5,0.7c-0.6-0.1-0.9-0.5-1.1-1c-0.7,0.7-1.5,1-2.4,1
		c-0.6,0-1.1-0.2-1.4-0.6C135.3,140.2,135.2,139.6,135.2,138.9z"/>
	<path fill="#FFFFFF" d="M146.5,136.7c0-0.5-0.1-0.8-0.2-1.1c-0.1-0.2-0.4-0.3-0.7-0.3c-0.5,0-1.1,0.3-1.6,0.9v4.9
		c-0.2,0-0.4,0.1-0.7,0.1c-0.3,0-0.5,0-0.7-0.1v-6.9l0.1-0.1h0.5c0.5,0,0.7,0.3,0.8,0.9c0.6-0.6,1.3-1,2-1s1.3,0.3,1.6,1
		c0.7-0.7,1.5-1,2.2-1c0.6,0,1,0.2,1.3,0.6c0.3,0.4,0.5,0.9,0.5,1.6v3.4c0,0.5,0.1,1,0.2,1.2c-0.2,0.2-0.5,0.3-0.9,0.3
		c-0.5,0-0.7-0.3-0.7-0.9v-3.7c0-0.5-0.1-0.8-0.2-1.1c-0.1-0.2-0.4-0.3-0.7-0.3c-0.6,0-1.1,0.3-1.6,0.9v4.9c-0.2,0-0.4,0.1-0.7,0.1
		c-0.3,0-0.5,0-0.7-0.1V136.7z"/>
	<path fill="#FFFFFF" d="M158.8,138.1h-4.2c0,0.7,0.2,1.2,0.4,1.5c0.3,0.4,0.7,0.5,1.3,0.5s1.2-0.2,1.9-0.5c0.2,0.2,0.4,0.5,0.4,0.9
		c-0.7,0.5-1.6,0.8-2.6,0.8c-1,0-1.7-0.3-2.2-1s-0.7-1.5-0.7-2.6s0.3-2,0.7-2.6c0.5-0.7,1.2-1,2.1-1c0.9,0,1.6,0.3,2.1,0.8
		c0.5,0.6,0.7,1.3,0.7,2.1C158.9,137.4,158.9,137.7,158.8,138.1z M157.2,135.5c-0.2-0.4-0.6-0.5-1.1-0.5c-0.5,0-0.8,0.2-1.1,0.5
		s-0.4,0.9-0.4,1.5h2.9v-0.2C157.6,136.3,157.5,135.9,157.2,135.5z"/>
	<path fill="#FFFFFF" d="M166.1,136.3v3.3c0,0.6,0.1,1,0.2,1.2c-0.2,0.2-0.5,0.3-0.8,0.3c-0.5,0-0.7-0.3-0.7-0.9v-3.6
		c0-0.5-0.1-0.9-0.2-1.1s-0.4-0.3-0.7-0.3c-0.3,0-0.7,0.1-1,0.3s-0.6,0.4-0.9,0.7v4.9c-0.2,0-0.4,0.1-0.7,0.1c-0.3,0-0.5,0-0.7-0.1
		v-6.9l0.1-0.1h0.5c0.5,0,0.7,0.3,0.8,0.9c0.7-0.6,1.5-1,2.3-1c0.6,0,1.1,0.2,1.4,0.6C165.9,135.1,166.1,135.7,166.1,136.3z"/>
	<path fill="#FFFFFF" d="M171.4,134.2c0,0.2,0.1,0.3,0.1,0.5c0,0.2,0,0.3-0.1,0.5l-1.8,0v4.3c0,0.4,0.2,0.6,0.6,0.6h1
		c0.1,0.2,0.1,0.4,0.1,0.6s0,0.3,0,0.4c-0.5,0.1-1.1,0.1-1.5,0.1c-1,0-1.4-0.5-1.4-1.4v-4.6l-1,0c0-0.1-0.1-0.3-0.1-0.5
		c0-0.2,0-0.4,0.1-0.5l1,0v-1.3c0-0.3,0.1-0.5,0.2-0.7s0.3-0.2,0.6-0.2h0.5l0.1,0.1v2.1L171.4,134.2z"/>
	<path fill="#FFFFFF" d="M178.1,140.5c-0.1,0.3-0.3,0.6-0.5,0.7c-0.5-0.1-0.9-0.4-1.1-0.9c-0.7,0.7-1.4,1-2.1,1s-1.2-0.2-1.6-0.6
		c-0.4-0.4-0.5-0.9-0.5-1.4c0-0.8,0.2-1.3,0.7-1.7c0.5-0.4,1.1-0.6,1.9-0.6c0.5,0,0.9,0,1.4,0.1v-0.6c0-0.8-0.4-1.3-1.2-1.3
		c-0.6,0-1.3,0.2-2.2,0.5c-0.3-0.3-0.4-0.6-0.4-1c1-0.4,1.9-0.6,2.9-0.6c0.7,0,1.3,0.2,1.7,0.6c0.4,0.4,0.6,1,0.6,1.8v2.9
		C177.7,139.9,177.9,140.3,178.1,140.5z M174.7,140.2c0.6,0,1.2-0.3,1.7-0.9v-1.3c-0.4,0-0.8-0.1-1.3-0.1c-0.5,0-0.8,0.1-1.1,0.3
		c-0.2,0.2-0.4,0.5-0.4,0.9c0,0.4,0.1,0.6,0.3,0.8S174.4,140.2,174.7,140.2z"/>
	<path fill="#FFFFFF" d="M179.4,134.8c0.1-0.3,0.2-0.6,0.5-0.7c0.6,0.1,1,0.6,1.2,1.2c0.4-0.8,1-1.2,1.8-1.2c0.2,0,0.5,0,0.7,0.1
		c0,0.5-0.1,0.9-0.3,1.3c-0.1,0-0.2,0-0.6-0.1c-0.7,0-1.2,0.4-1.5,1.1v4.6c-0.2,0-0.4,0.1-0.7,0.1s-0.5,0-0.7-0.1v-4.8
		C179.9,135.6,179.8,135.1,179.4,134.8z"/>
	<path fill="#FFFFFF" d="M193,140.5c-0.1,0.3-0.3,0.6-0.5,0.7c-0.5-0.1-0.9-0.4-1.1-0.9c-0.7,0.7-1.4,1-2.1,1s-1.2-0.2-1.6-0.6
		c-0.4-0.4-0.5-0.9-0.5-1.4c0-0.8,0.2-1.3,0.7-1.7c0.5-0.4,1.1-0.6,1.9-0.6c0.5,0,0.9,0,1.4,0.1v-0.6c0-0.8-0.4-1.3-1.2-1.3
		c-0.6,0-1.3,0.2-2.2,0.5c-0.3-0.3-0.4-0.6-0.4-1c1-0.4,1.9-0.6,2.9-0.6c0.7,0,1.3,0.2,1.7,0.6c0.4,0.4,0.6,1,0.6,1.8v2.9
		C192.6,139.9,192.7,140.3,193,140.5z M189.6,140.2c0.6,0,1.2-0.3,1.7-0.9v-1.3c-0.4,0-0.8-0.1-1.3-0.1c-0.5,0-0.8,0.1-1.1,0.3
		c-0.2,0.2-0.4,0.5-0.4,0.9c0,0.4,0.1,0.6,0.3,0.8S189.2,140.2,189.6,140.2z"/>
	<path fill="#FFFFFF" d="M202.7,138.1h-4.2c0,0.7,0.2,1.2,0.4,1.5c0.3,0.4,0.7,0.5,1.3,0.5s1.2-0.2,1.9-0.5c0.2,0.2,0.4,0.5,0.4,0.9
		c-0.7,0.5-1.6,0.8-2.6,0.8c-1,0-1.7-0.3-2.2-1s-0.7-1.5-0.7-2.6s0.3-2,0.7-2.6c0.5-0.7,1.2-1,2.1-1c0.9,0,1.6,0.3,2.1,0.8
		c0.5,0.6,0.7,1.3,0.7,2.1C202.8,137.4,202.7,137.7,202.7,138.1z M201.1,135.5c-0.2-0.4-0.6-0.5-1.1-0.5c-0.5,0-0.8,0.2-1.1,0.5
		s-0.4,0.9-0.4,1.5h2.9v-0.2C201.5,136.3,201.3,135.9,201.1,135.5z"/>
	<path fill="#FFFFFF" d="M204.8,141.1v-5.9l-1.2,0c0-0.2-0.1-0.4-0.1-0.5c0-0.1,0-0.3,0.1-0.5l1.1,0c-0.1-0.5-0.1-1-0.1-1.3
		c0-0.6,0.2-1.1,0.6-1.5s0.9-0.6,1.5-0.6s1.2,0.1,1.8,0.3c0,0.4-0.1,0.7-0.3,0.9c-0.5-0.1-0.9-0.2-1.2-0.2s-0.6,0.1-0.8,0.3
		s-0.3,0.5-0.3,0.9c0,0.4,0,0.8,0.1,1.3l2,0c0,0.2,0.1,0.4,0.1,0.5c0,0.1,0,0.3-0.1,0.5l-1.9,0v5.9c-0.2,0-0.4,0.1-0.7,0.1
		C205.2,141.1,205,141.1,204.8,141.1z"/>
	<path fill="#FFFFFF" d="M211.1,135.3v5.8c-0.2,0-0.4,0.1-0.7,0.1c-0.3,0-0.5,0-0.7-0.1v-5.2c0-0.3,0-0.4-0.1-0.5
		c-0.1-0.1-0.2-0.2-0.5-0.2H209c0-0.1-0.1-0.3-0.1-0.5c0-0.2,0-0.3,0.1-0.5c0.3,0,0.6-0.1,0.8-0.1h0.2c0.3,0,0.6,0.1,0.8,0.3
		C211,134.7,211.1,135,211.1,135.3z M209.3,132.3c0-0.2,0-0.4,0.1-0.6c0.2-0.1,0.5-0.2,0.8-0.2s0.6,0.1,0.7,0.2
		c0.1,0.2,0.1,0.4,0.1,0.6c0,0.2,0,0.4-0.1,0.6c-0.2,0.1-0.4,0.2-0.7,0.2c-0.3,0-0.6-0.1-0.8-0.2
		C209.4,132.7,209.3,132.5,209.3,132.3z"/>
	<path fill="#FFFFFF" d="M216.9,136.8c0,0,0-0.1,0-0.1c0-1.1-0.4-1.6-1.3-1.6c-0.5,0-0.8,0.2-1.1,0.7c-0.3,0.4-0.4,1.1-0.4,2
		c0,1.6,0.5,2.5,1.6,2.5c0.5,0,1.1-0.2,1.7-0.7c0.1,0.1,0.3,0.2,0.4,0.3c0.1,0.2,0.2,0.3,0.2,0.5c-0.7,0.7-1.5,1-2.5,1
		s-1.7-0.3-2.1-1c-0.5-0.7-0.7-1.6-0.7-2.7s0.3-2,0.8-2.6c0.6-0.6,1.2-0.9,2-0.9s1.4,0.2,1.9,0.7c0.4,0.4,0.7,0.9,0.7,1.4
		c0,0.5-0.2,0.8-0.7,0.8C217.2,136.9,217,136.8,216.9,136.8z"/>
	<path fill="#FFFFFF" d="M221.3,135.3v5.8c-0.2,0-0.4,0.1-0.7,0.1c-0.3,0-0.5,0-0.7-0.1v-5.2c0-0.3,0-0.4-0.1-0.5
		c-0.1-0.1-0.2-0.2-0.5-0.2h-0.2c0-0.1-0.1-0.3-0.1-0.5c0-0.2,0-0.3,0.1-0.5c0.3,0,0.6-0.1,0.8-0.1h0.2c0.3,0,0.6,0.1,0.8,0.3
		C221.2,134.7,221.3,135,221.3,135.3z M219.5,132.3c0-0.2,0-0.4,0.1-0.6c0.2-0.1,0.5-0.2,0.8-0.2s0.6,0.1,0.7,0.2
		c0.1,0.2,0.1,0.4,0.1,0.6c0,0.2,0,0.4-0.1,0.6c-0.2,0.1-0.4,0.2-0.7,0.2c-0.3,0-0.6-0.1-0.8-0.2
		C219.6,132.7,219.5,132.5,219.5,132.3z"/>
	<path fill="#FFFFFF" d="M228.5,138.1h-4.2c0,0.7,0.2,1.2,0.4,1.5c0.3,0.4,0.7,0.5,1.3,0.5s1.2-0.2,1.9-0.5c0.2,0.2,0.4,0.5,0.4,0.9
		c-0.7,0.5-1.6,0.8-2.6,0.8c-1,0-1.7-0.3-2.2-1s-0.7-1.5-0.7-2.6s0.3-2,0.7-2.6c0.5-0.7,1.2-1,2.1-1c0.9,0,1.6,0.3,2.1,0.8
		c0.5,0.6,0.7,1.3,0.7,2.1C228.6,137.4,228.5,137.7,228.5,138.1z M227.2,133.4l-1.3-1.3l-1.4,1.4c-0.3-0.1-0.5-0.3-0.6-0.6l1.5-1.9
		c0.1,0,0.3-0.1,0.5-0.1s0.4,0,0.7,0.1l1.4,1.8C227.7,133.2,227.5,133.4,227.2,133.4z M226.9,135.5c-0.2-0.4-0.6-0.5-1.1-0.5
		c-0.5,0-0.8,0.2-1.1,0.5s-0.4,0.9-0.4,1.5h2.9v-0.2C227.3,136.3,227.1,135.9,226.9,135.5z"/>
	<path fill="#FFFFFF" d="M235.7,136.3v3.3c0,0.6,0.1,1,0.2,1.2c-0.2,0.2-0.5,0.3-0.8,0.3c-0.5,0-0.7-0.3-0.7-0.9v-3.6
		c0-0.5-0.1-0.9-0.2-1.1s-0.4-0.3-0.7-0.3c-0.3,0-0.7,0.1-1,0.3s-0.6,0.4-0.9,0.7v4.9c-0.2,0-0.4,0.1-0.7,0.1c-0.3,0-0.5,0-0.7-0.1
		v-6.9l0.1-0.1h0.5c0.5,0,0.7,0.3,0.8,0.9c0.7-0.6,1.5-1,2.3-1c0.6,0,1.1,0.2,1.4,0.6C235.6,135.1,235.7,135.7,235.7,136.3z"/>
	<path fill="#FFFFFF" d="M241.4,136.8c0,0,0-0.1,0-0.1c0-1.1-0.4-1.6-1.3-1.6c-0.5,0-0.8,0.2-1.1,0.7c-0.3,0.4-0.4,1.1-0.4,2
		c0,1.6,0.5,2.5,1.6,2.5c0.5,0,1.1-0.2,1.7-0.7c0.1,0.1,0.3,0.2,0.4,0.3c0.1,0.2,0.2,0.3,0.2,0.5c-0.7,0.7-1.5,1-2.5,1
		s-1.7-0.3-2.1-1c-0.5-0.7-0.7-1.6-0.7-2.7s0.3-2,0.8-2.6c0.6-0.6,1.2-0.9,2-0.9s1.4,0.2,1.9,0.7c0.4,0.4,0.7,0.9,0.7,1.4
		c0,0.5-0.2,0.8-0.7,0.8C241.8,136.9,241.6,136.8,241.4,136.8z"/>
	<path fill="#FFFFFF" d="M245.9,135.3v5.8c-0.2,0-0.4,0.1-0.7,0.1c-0.3,0-0.5,0-0.7-0.1v-5.2c0-0.3,0-0.4-0.1-0.5
		c-0.1-0.1-0.2-0.2-0.5-0.2h-0.2c0-0.1-0.1-0.3-0.1-0.5c0-0.2,0-0.3,0.1-0.5c0.3,0,0.6-0.1,0.8-0.1h0.2c0.3,0,0.6,0.1,0.8,0.3
		C245.8,134.7,245.9,135,245.9,135.3z M244.1,132.3c0-0.2,0-0.4,0.1-0.6c0.2-0.1,0.5-0.2,0.8-0.2s0.6,0.1,0.7,0.2
		c0.1,0.2,0.1,0.4,0.1,0.6c0,0.2,0,0.4-0.1,0.6c-0.2,0.1-0.4,0.2-0.7,0.2c-0.3,0-0.6-0.1-0.8-0.2
		C244.1,132.7,244.1,132.5,244.1,132.3z"/>
	<path fill="#FFFFFF" d="M253.3,140.5c-0.1,0.3-0.3,0.6-0.5,0.7c-0.5-0.1-0.9-0.4-1.1-0.9c-0.7,0.7-1.4,1-2.1,1s-1.2-0.2-1.6-0.6
		c-0.4-0.4-0.5-0.9-0.5-1.4c0-0.8,0.2-1.3,0.7-1.7c0.5-0.4,1.1-0.6,1.9-0.6c0.5,0,0.9,0,1.4,0.1v-0.6c0-0.8-0.4-1.3-1.2-1.3
		c-0.6,0-1.3,0.2-2.2,0.5c-0.3-0.3-0.4-0.6-0.4-1c1-0.4,1.9-0.6,2.9-0.6c0.7,0,1.3,0.2,1.7,0.6c0.4,0.4,0.6,1,0.6,1.8v2.9
		C252.9,139.9,253,140.3,253.3,140.5z M249.8,140.2c0.6,0,1.2-0.3,1.7-0.9v-1.3c-0.4,0-0.8-0.1-1.3-0.1c-0.5,0-0.8,0.1-1.1,0.3
		c-0.2,0.2-0.4,0.5-0.4,0.9c0,0.4,0.1,0.6,0.3,0.8S249.5,140.2,249.8,140.2z"/>
	<path fill="#FFFFFF" d="M115.8,154.9h-4.2c0,0.7,0.2,1.2,0.4,1.5c0.3,0.4,0.7,0.5,1.3,0.5s1.2-0.2,1.9-0.5c0.2,0.2,0.4,0.5,0.4,0.9
		c-0.7,0.5-1.6,0.8-2.6,0.8c-1,0-1.7-0.3-2.2-1s-0.7-1.5-0.7-2.6s0.3-2,0.7-2.6c0.5-0.7,1.2-1,2.1-1c0.9,0,1.6,0.3,2.1,0.8
		c0.5,0.6,0.7,1.3,0.7,2.1C115.9,154.2,115.9,154.5,115.8,154.9z M114.2,152.3c-0.2-0.4-0.6-0.5-1.1-0.5c-0.5,0-0.8,0.2-1.1,0.5
		s-0.4,0.9-0.4,1.5h2.9v-0.2C114.6,153.1,114.5,152.7,114.2,152.3z"/>
	<path fill="#FFFFFF" d="M120.8,157.9V152l-1.2,0c0-0.2-0.1-0.4-0.1-0.5c0-0.1,0-0.3,0.1-0.5l1.1,0c-0.1-0.5-0.1-1-0.1-1.3
		c0-0.6,0.2-1.1,0.6-1.5s0.9-0.6,1.5-0.6s1.2,0.1,1.8,0.3c0,0.4-0.1,0.7-0.3,0.9c-0.5-0.1-0.9-0.2-1.2-0.2s-0.6,0.1-0.8,0.3
		s-0.3,0.5-0.3,0.9c0,0.4,0,0.8,0.1,1.3l2,0c0,0.2,0.1,0.4,0.1,0.5c0,0.1,0,0.3-0.1,0.5l-1.9,0v5.9c-0.2,0-0.4,0.1-0.7,0.1
		C121.3,157.9,121,157.9,120.8,157.9z"/>
	<path fill="#FFFFFF" d="M129.6,151.6c0.7,0.7,1,1.6,1,2.9s-0.3,2.2-1,2.9c-0.5,0.5-1.2,0.8-2,0.8c-0.8,0-1.5-0.3-2-0.8
		c-0.7-0.7-1-1.6-1-2.9s0.3-2.2,1-2.9c0.5-0.5,1.2-0.8,2-0.8C128.4,150.8,129.1,151.1,129.6,151.6z M126,154.4
		c0,1.7,0.5,2.6,1.6,2.6c1.1,0,1.6-0.9,1.6-2.6c0-0.5,0-0.9-0.1-1.3c-0.1-0.4-0.3-0.7-0.5-0.9c-0.2-0.3-0.6-0.4-1-0.4
		c-0.4,0-0.7,0.1-1,0.4c-0.2,0.3-0.4,0.6-0.5,0.9S126,154,126,154.4z"/>
	<path fill="#FFFFFF" d="M135.9,153.6c0,0,0-0.1,0-0.1c0-1.1-0.4-1.6-1.3-1.6c-0.5,0-0.8,0.2-1.1,0.7c-0.3,0.4-0.4,1.1-0.4,2
		c0,1.6,0.5,2.5,1.6,2.5c0.5,0,1.1-0.2,1.7-0.7c0.1,0.1,0.3,0.2,0.4,0.3c0.1,0.2,0.2,0.3,0.2,0.5c-0.7,0.7-1.5,1-2.5,1
		s-1.7-0.3-2.1-1c-0.5-0.7-0.7-1.6-0.7-2.7s0.3-2,0.8-2.6c0.6-0.6,1.2-0.9,2-0.9s1.4,0.2,1.9,0.7c0.4,0.4,0.7,0.9,0.7,1.4
		c0,0.5-0.2,0.8-0.7,0.8C136.2,153.7,136,153.6,135.9,153.6z"/>
	<path fill="#FFFFFF" d="M143.2,151.6c0.7,0.7,1,1.6,1,2.9s-0.3,2.2-1,2.9c-0.5,0.5-1.2,0.8-2,0.8c-0.8,0-1.5-0.3-2-0.8
		c-0.7-0.7-1-1.6-1-2.9s0.3-2.2,1-2.9c0.5-0.5,1.2-0.8,2-0.8C142,150.8,142.6,151.1,143.2,151.6z M139.5,154.4
		c0,1.7,0.5,2.6,1.6,2.6c1.1,0,1.6-0.9,1.6-2.6c0-0.5,0-0.9-0.1-1.3c-0.1-0.4-0.3-0.7-0.5-0.9c-0.2-0.3-0.6-0.4-1-0.4
		c-0.4,0-0.7,0.1-1,0.4c-0.2,0.3-0.4,0.6-0.5,0.9S139.5,154,139.5,154.4z"/>
	<path fill="#FFFFFF" d="M154.2,153.1v3.3c0,0.6,0.1,1,0.2,1.2c-0.2,0.2-0.5,0.3-0.8,0.3c-0.5,0-0.7-0.3-0.7-0.9v-3.6
		c0-0.5-0.1-0.9-0.2-1.1s-0.4-0.3-0.7-0.3c-0.3,0-0.7,0.1-1,0.3s-0.6,0.4-0.9,0.7v4.9c-0.2,0-0.4,0.1-0.7,0.1c-0.3,0-0.5,0-0.7-0.1
		V151l0.1-0.1h0.5c0.5,0,0.7,0.3,0.8,0.9c0.7-0.6,1.5-1,2.3-1c0.6,0,1.1,0.2,1.4,0.6C154,151.9,154.2,152.5,154.2,153.1z"/>
	<path fill="#FFFFFF" d="M160.7,151.6c0.7,0.7,1,1.6,1,2.9s-0.3,2.2-1,2.9c-0.5,0.5-1.2,0.8-2,0.8c-0.8,0-1.5-0.3-2-0.8
		c-0.7-0.7-1-1.6-1-2.9s0.3-2.2,1-2.9c0.5-0.5,1.2-0.8,2-0.8C159.6,150.8,160.2,151.1,160.7,151.6z M157.1,154.4
		c0,1.7,0.5,2.6,1.6,2.6c1.1,0,1.6-0.9,1.6-2.6c0-0.5,0-0.9-0.1-1.3c-0.1-0.4-0.3-0.7-0.5-0.9c-0.2-0.3-0.6-0.4-1-0.4
		c-0.4,0-0.7,0.1-1,0.4c-0.2,0.3-0.4,0.6-0.5,0.9S157.1,154,157.1,154.4z"/>
	<path fill="#FFFFFF" d="M165.9,151.6c0.1-0.3,0.2-0.6,0.5-0.7c0.6,0.1,1,0.6,1.2,1.2c0.4-0.8,1-1.2,1.8-1.2c0.2,0,0.5,0,0.7,0.1
		c0,0.5-0.1,0.9-0.3,1.3c-0.1,0-0.2,0-0.6-0.1c-0.7,0-1.2,0.4-1.5,1.1v4.6c-0.2,0-0.4,0.1-0.7,0.1s-0.5,0-0.7-0.1V153
		C166.4,152.4,166.2,151.9,165.9,151.6z"/>
	<path fill="#FFFFFF" d="M176.3,154.9h-4.2c0,0.7,0.2,1.2,0.4,1.5c0.3,0.4,0.7,0.5,1.3,0.5s1.2-0.2,1.9-0.5c0.2,0.2,0.4,0.5,0.4,0.9
		c-0.7,0.5-1.6,0.8-2.6,0.8c-1,0-1.7-0.3-2.2-1s-0.7-1.5-0.7-2.6s0.3-2,0.7-2.6c0.5-0.7,1.2-1,2.1-1c0.9,0,1.6,0.3,2.1,0.8
		c0.5,0.6,0.7,1.3,0.7,2.1C176.4,154.2,176.4,154.5,176.3,154.9z M174.8,152.3c-0.2-0.4-0.6-0.5-1.1-0.5c-0.5,0-0.8,0.2-1.1,0.5
		s-0.4,0.9-0.4,1.5h2.9v-0.2C175.1,153.1,175,152.7,174.8,152.3z"/>
	<path fill="#FFFFFF" d="M177.5,157.4c0-0.2,0.1-0.3,0.1-0.5s0.2-0.3,0.3-0.4c0.8,0.4,1.4,0.6,1.9,0.6c0.5,0,0.8-0.1,1.1-0.3
		s0.4-0.4,0.4-0.7c0-0.4-0.3-0.8-0.9-1l-0.8-0.3c-1.2-0.4-1.8-1.1-1.8-2c0-0.6,0.2-1.1,0.7-1.5c0.5-0.4,1.1-0.6,1.8-0.6
		s1.5,0.2,2.2,0.5c0,0.2,0,0.4-0.1,0.6s-0.2,0.3-0.3,0.4c-0.7-0.3-1.3-0.4-1.9-0.4c-0.3,0-0.6,0.1-0.8,0.2c-0.2,0.2-0.3,0.3-0.3,0.6
		s0.1,0.4,0.2,0.6c0.1,0.1,0.4,0.3,0.7,0.4l0.8,0.3c1.2,0.5,1.8,1.2,1.8,2.1c0,0.6-0.2,1.1-0.7,1.5c-0.5,0.4-1.2,0.6-2,0.6
		C179,158.1,178.2,157.8,177.5,157.4z"/>
	<path fill="#FFFFFF" d="M184.1,155.7v-3.3c0-0.5-0.1-1-0.2-1.2c0.2-0.2,0.5-0.3,0.8-0.3s0.5,0.1,0.6,0.2c0.1,0.1,0.2,0.4,0.2,0.7
		v3.6c0,0.5,0.1,0.9,0.2,1.1c0.1,0.2,0.4,0.3,0.7,0.3s0.7-0.1,1-0.3c0.3-0.2,0.6-0.4,0.9-0.7V151c0.2,0,0.5-0.1,0.7-0.1
		s0.4,0,0.7,0.1v5c0,0.7,0.1,1.1,0.4,1.4c-0.1,0.3-0.3,0.5-0.5,0.7c-0.6-0.1-0.9-0.5-1.1-1c-0.7,0.7-1.5,1-2.4,1
		c-0.6,0-1.1-0.2-1.4-0.6C184.2,157,184.1,156.4,184.1,155.7z"/>
	<path fill="#FFFFFF" d="M193.5,156.9h0.5c0.1,0.2,0.1,0.4,0.1,0.6s0,0.3,0,0.4c-0.4,0.1-0.8,0.1-1.2,0.1c-0.9,0-1.3-0.5-1.3-1.4
		v-8.9l0.1-0.1h0.5c0.3,0,0.5,0.1,0.6,0.2s0.2,0.4,0.2,0.7v7.8C192.9,156.7,193.1,156.9,193.5,156.9z"/>
	<path fill="#FFFFFF" d="M198.7,151c0,0.2,0.1,0.3,0.1,0.5c0,0.2,0,0.3-0.1,0.5l-1.8,0v4.3c0,0.4,0.2,0.6,0.6,0.6h1
		c0.1,0.2,0.1,0.4,0.1,0.6s0,0.3,0,0.4c-0.5,0.1-1.1,0.1-1.5,0.1c-1,0-1.4-0.5-1.4-1.4V152l-1,0c0-0.1-0.1-0.3-0.1-0.5
		c0-0.2,0-0.4,0.1-0.5l1,0v-1.3c0-0.3,0.1-0.5,0.2-0.7s0.3-0.2,0.6-0.2h0.5l0.1,0.1v2.1L198.7,151z"/>
	<path fill="#FFFFFF" d="M205.3,157.3c-0.1,0.3-0.3,0.6-0.5,0.7c-0.5-0.1-0.9-0.4-1.1-0.9c-0.7,0.7-1.4,1-2.1,1s-1.2-0.2-1.6-0.6
		c-0.4-0.4-0.5-0.9-0.5-1.4c0-0.8,0.2-1.3,0.7-1.7c0.5-0.4,1.1-0.6,1.9-0.6c0.5,0,0.9,0,1.4,0.1v-0.6c0-0.8-0.4-1.3-1.2-1.3
		c-0.6,0-1.3,0.2-2.2,0.5c-0.3-0.3-0.4-0.6-0.4-1c1-0.4,1.9-0.6,2.9-0.6c0.7,0,1.3,0.2,1.7,0.6c0.4,0.4,0.6,1,0.6,1.8v2.9
		C205,156.7,205.1,157.1,205.3,157.3z M201.9,157c0.6,0,1.2-0.3,1.7-0.9v-1.3c-0.4,0-0.8-0.1-1.3-0.1c-0.5,0-0.8,0.1-1.1,0.3
		c-0.2,0.2-0.4,0.5-0.4,0.9c0,0.4,0.1,0.6,0.3,0.8S201.6,157,201.9,157z"/>
	<path fill="#FFFFFF" d="M208.8,158.1c-0.8,0-1.4-0.3-1.8-1c-0.4-0.6-0.6-1.5-0.6-2.7c0-1.1,0.3-2,0.8-2.6s1.2-0.9,1.9-0.9
		c0.5,0,1.1,0.2,1.6,0.5v-3.7l0.1-0.1h0.5c0.3,0,0.5,0.1,0.6,0.2c0.1,0.1,0.2,0.4,0.2,0.7v7.5c0,0.7,0.1,1.1,0.4,1.4
		c-0.1,0.3-0.3,0.6-0.5,0.7c-0.5-0.1-0.8-0.4-1-0.9C210.3,157.7,209.6,158.1,208.8,158.1z M209.1,156.9c0.6,0,1.1-0.3,1.6-0.9v-3.5
		c-0.5-0.4-1-0.5-1.4-0.5c-0.4,0-0.8,0.2-1.1,0.7c-0.3,0.4-0.4,1.1-0.4,1.9s0.1,1.4,0.4,1.8S208.7,156.9,209.1,156.9z"/>
	<path fill="#FFFFFF" d="M218.7,151.6c0.7,0.7,1,1.6,1,2.9s-0.3,2.2-1,2.9c-0.5,0.5-1.2,0.8-2,0.8c-0.8,0-1.5-0.3-2-0.8
		c-0.7-0.7-1-1.6-1-2.9s0.3-2.2,1-2.9c0.5-0.5,1.2-0.8,2-0.8C217.5,150.8,218.2,151.1,218.7,151.6z M215.1,154.4
		c0,1.7,0.5,2.6,1.6,2.6c1.1,0,1.6-0.9,1.6-2.6c0-0.5,0-0.9-0.1-1.3c-0.1-0.4-0.3-0.7-0.5-0.9c-0.2-0.3-0.6-0.4-1-0.4
		c-0.4,0-0.7,0.1-1,0.4c-0.2,0.3-0.4,0.6-0.5,0.9S215.1,154,215.1,154.4z"/>
	<path fill="#FFFFFF" d="M221,157.1c0-0.3,0-0.5,0.1-0.7c0.2-0.1,0.5-0.2,0.8-0.2c0.3,0,0.6,0.1,0.8,0.2c0.1,0.2,0.1,0.4,0.1,0.7
		c0,0.3,0,0.5-0.1,0.7c-0.2,0.1-0.4,0.2-0.8,0.2s-0.6-0.1-0.8-0.2C221.1,157.7,221,157.4,221,157.1z"/>
</g>
</svg>