<!-- Generator: Adobe Illustrator 17.1.0, SVG Export Plug-In  -->
<svg version="1.1"
	 xmlns="http://www.w3.org/2000/svg" xmlns:xlink="http://www.w3.org/1999/xlink" xmlns:a="http://ns.adobe.com/AdobeSVGViewerExtensions/3.0/"
	 x="0px" y="0px" width="258.8px" height="66.6px" viewBox="0 0 258.8 66.6" enable-background="new 0 0 258.8 66.6"
	 xml:space="preserve">
<defs>
</defs>
<g>
	<path fill="#FFFFFF" d="M3.1,7.8h2.4c0,0.2,0,0.4,0,0.5C5.4,8.7,5.2,8.9,4.7,8.9H1.5C1.3,8.9,1.2,8.8,1,8.7
		C0.9,8.6,0.8,8.4,0.8,8.1V0.7l0.1-0.1h0.5c0.2,0,0.4,0.1,0.5,0.2C2,0.9,2,1.1,2,1.4v6.5C2.4,7.9,2.8,7.8,3.1,7.8z"/>
	<path fill="#FFFFFF" d="M8.1,3.9v4.9c-0.1,0-0.3,0-0.6,0c-0.2,0-0.4,0-0.6,0V4.4c0-0.2,0-0.4-0.1-0.5S6.7,3.8,6.5,3.8H6.3
		c0-0.1,0-0.3,0-0.4c0-0.2,0-0.3,0-0.4c0.3,0,0.5,0,0.7,0h0.2c0.3,0,0.5,0.1,0.7,0.3C8.1,3.4,8.1,3.6,8.1,3.9z M6.6,1.3
		c0-0.2,0-0.4,0.1-0.5c0.2-0.1,0.4-0.1,0.7-0.1c0.3,0,0.5,0,0.6,0.1C8,0.9,8.1,1.1,8.1,1.3c0,0.2,0,0.4-0.1,0.5C7.8,1.9,7.6,2,7.4,2
		c-0.3,0-0.5,0-0.6-0.1C6.6,1.7,6.6,1.5,6.6,1.3z"/>
	<path fill="#FFFFFF" d="M11.7,9c-0.7,0-1.2-0.3-1.5-0.8C9.8,7.7,9.6,6.9,9.6,5.9c0-1,0.2-1.7,0.7-2.3c0.5-0.5,1-0.8,1.6-0.8
		c0.4,0,0.9,0.1,1.4,0.4V0.1l0.1-0.1h0.4c0.2,0,0.4,0.1,0.5,0.2c0.1,0.1,0.1,0.3,0.1,0.6v6.4c0,0.6,0.1,1,0.3,1.2
		c-0.1,0.3-0.2,0.5-0.5,0.6c-0.4-0.1-0.7-0.3-0.9-0.8C13,8.8,12.4,9,11.7,9z M11.9,8.1c0.5,0,1-0.3,1.4-0.8v-3
		c-0.4-0.3-0.9-0.5-1.2-0.5S11.4,4,11.2,4.4c-0.2,0.4-0.4,0.9-0.4,1.6c0,0.7,0.1,1.2,0.3,1.6S11.6,8.1,11.9,8.1z"/>
	<path fill="#FFFFFF" d="M20.7,6.3h-3.6c0,0.6,0.1,1,0.4,1.3c0.2,0.3,0.6,0.5,1.1,0.5s1.1-0.2,1.7-0.5c0.2,0.2,0.3,0.4,0.4,0.8
		C20,8.8,19.3,9,18.4,9c-0.9,0-1.5-0.3-1.9-0.9S16,6.8,16,5.9s0.2-1.7,0.6-2.3c0.4-0.6,1-0.9,1.8-0.9c0.8,0,1.4,0.2,1.8,0.7
		c0.4,0.5,0.6,1.1,0.6,1.8C20.8,5.7,20.8,6,20.7,6.3z M19.4,4.1c-0.2-0.3-0.5-0.5-0.9-0.5s-0.7,0.2-0.9,0.5
		c-0.2,0.3-0.3,0.7-0.4,1.3h2.5V5.3C19.7,4.8,19.6,4.4,19.4,4.1z"/>
	<path fill="#FFFFFF" d="M22.1,3.5c0.1-0.3,0.2-0.5,0.4-0.6c0.5,0.1,0.9,0.5,1,1.1c0.3-0.7,0.9-1.1,1.6-1.1c0.2,0,0.4,0,0.6,0.1
		c0,0.4-0.1,0.8-0.3,1.1c0,0-0.2,0-0.5,0c-0.6,0-1,0.3-1.3,0.9v3.9c-0.1,0-0.3,0-0.6,0s-0.4,0-0.6,0V4.7C22.5,4.2,22.4,3.8,22.1,3.5
		z"/>
	<path fill="#FFFFFF" d="M31.2,8.4C31.2,8.6,31,8.8,30.8,9c-0.4-0.1-0.7-0.3-0.9-0.8C29.3,8.8,28.7,9,28.1,9c-0.6,0-1.1-0.2-1.4-0.5
		c-0.3-0.4-0.5-0.8-0.5-1.2c0-0.7,0.2-1.1,0.6-1.5s1-0.5,1.7-0.5c0.4,0,0.8,0,1.2,0.1V4.9c0-0.7-0.3-1.1-1-1.1
		c-0.5,0-1.2,0.2-1.9,0.5c-0.2-0.2-0.3-0.5-0.3-0.9C27.3,3,28.2,2.8,29,2.8c0.6,0,1.1,0.2,1.4,0.5c0.3,0.3,0.5,0.8,0.5,1.5v2.5
		C30.9,7.8,31,8.2,31.2,8.4z M28.3,8.1c0.5,0,1-0.3,1.5-0.8V6.2c-0.3,0-0.7-0.1-1.1-0.1c-0.4,0-0.7,0.1-0.9,0.3
		c-0.2,0.2-0.3,0.4-0.3,0.7c0,0.3,0.1,0.5,0.2,0.7C27.8,8,28,8.1,28.3,8.1z"/>
	<path fill="#FFFFFF" d="M32.4,3.5c0.1-0.3,0.2-0.5,0.4-0.6c0.5,0.1,0.9,0.5,1,1.1c0.3-0.7,0.9-1.1,1.6-1.1c0.2,0,0.4,0,0.6,0.1
		c0,0.4-0.1,0.8-0.3,1.1c0,0-0.2,0-0.5,0c-0.6,0-1,0.3-1.3,0.9v3.9c-0.1,0-0.3,0-0.6,0s-0.4,0-0.6,0V4.7C32.9,4.2,32.7,3.8,32.4,3.5
		z"/>
	<path fill="#FFFFFF" d="M44.1,6.3h-3.6c0,0.6,0.1,1,0.4,1.3c0.2,0.3,0.6,0.5,1.1,0.5s1.1-0.2,1.7-0.5c0.2,0.2,0.3,0.4,0.4,0.8
		C43.4,8.8,42.7,9,41.8,9C41,9,40.3,8.7,40,8.2s-0.6-1.3-0.6-2.3s0.2-1.7,0.6-2.3c0.4-0.6,1-0.9,1.8-0.9c0.8,0,1.4,0.2,1.8,0.7
		C44,4,44.2,4.6,44.2,5.4C44.2,5.7,44.2,6,44.1,6.3z M42.8,4.1c-0.2-0.3-0.5-0.5-0.9-0.5s-0.7,0.2-0.9,0.5c-0.2,0.3-0.3,0.7-0.4,1.3
		h2.5V5.3C43.1,4.8,43,4.4,42.8,4.1z"/>
	<path fill="#FFFFFF" d="M48.8,3c0.1,0,0.3,0,0.5,0s0.4,0,0.5,0.1l0,0.1l-1.7,2.7l1.9,3C49.9,8.9,49.6,9,49.4,9s-0.4-0.1-0.6-0.4
		l-1.2-1.9l-1.3,2.2c-0.1,0-0.3,0-0.5,0c-0.2,0-0.4,0-0.6-0.1l0-0.1l1.9-3l-1.7-2.7C45.4,3,45.7,2.9,46,2.9s0.5,0.1,0.6,0.3l1.1,1.6
		L48.8,3z"/>
	<path fill="#FFFFFF" d="M52.6,3.9v4.9c-0.1,0-0.3,0-0.6,0c-0.2,0-0.4,0-0.6,0V4.4c0-0.2,0-0.4-0.1-0.5S51.2,3.8,51,3.8h-0.1
		c0-0.1,0-0.3,0-0.4c0-0.2,0-0.3,0-0.4c0.3,0,0.5,0,0.7,0h0.2c0.3,0,0.5,0.1,0.7,0.3C52.6,3.4,52.6,3.6,52.6,3.9z M51.1,1.3
		c0-0.2,0-0.4,0.1-0.5c0.2-0.1,0.4-0.1,0.7-0.1c0.3,0,0.5,0,0.6,0.1c0.1,0.1,0.1,0.3,0.1,0.5c0,0.2,0,0.4-0.1,0.5
		C52.4,1.9,52.1,2,51.9,2c-0.3,0-0.5,0-0.6-0.1C51.2,1.7,51.1,1.5,51.1,1.3z"/>
	<path fill="#FFFFFF" d="M56.2,9c-0.6,0-1.1-0.3-1.5-0.8c-0.4-0.5-0.5-1.3-0.5-2.3s0.2-1.7,0.7-2.3c0.5-0.5,1-0.8,1.6-0.8
		s1.2,0.2,1.7,0.6c0.2-0.3,0.4-0.5,0.8-0.6c0.2,0.1,0.4,0.3,0.5,0.6C59.1,3.7,59,4.1,59,4.6v3.6c0,1.2-0.2,2-0.6,2.5
		c-0.4,0.5-1.1,0.8-2,0.8c-0.7,0-1.4-0.1-2.1-0.4c0-0.4,0.1-0.7,0.3-0.9c0.5,0.3,1.1,0.4,1.6,0.4s1-0.2,1.2-0.5
		c0.2-0.3,0.3-0.7,0.3-1.3V8.3C57.4,8.8,56.8,9,56.2,9z M57.9,7.2V4.3c-0.4-0.4-0.8-0.6-1.2-0.6c-0.4,0-0.7,0.2-1,0.6
		c-0.2,0.4-0.4,0.9-0.4,1.6s0.1,1.2,0.3,1.6S56.1,8,56.4,8C57,8,57.5,7.8,57.9,7.2z"/>
	<path fill="#FFFFFF" d="M65.2,6.3h-3.6c0,0.6,0.1,1,0.4,1.3c0.2,0.3,0.6,0.5,1.1,0.5s1.1-0.2,1.7-0.5c0.2,0.2,0.3,0.4,0.4,0.8
		C64.5,8.8,63.8,9,62.9,9C62,9,61.4,8.7,61,8.2s-0.6-1.3-0.6-2.3s0.2-1.7,0.6-2.3c0.4-0.6,1-0.9,1.8-0.9c0.8,0,1.4,0.2,1.8,0.7
		c0.4,0.5,0.6,1.1,0.6,1.8C65.3,5.7,65.3,6,65.2,6.3z M63.9,4.1c-0.2-0.3-0.5-0.5-0.9-0.5S62.2,3.8,62,4.1c-0.2,0.3-0.3,0.7-0.4,1.3
		h2.5V5.3C64.2,4.8,64.1,4.4,63.9,4.1z"/>
	<path fill="#A9D42D" d="M74.2,8.2c0,0.1-0.1,0.3-0.2,0.4c-0.1,0.1-0.2,0.3-0.3,0.3c-0.5-0.1-0.9-0.3-1.1-0.7
		C72.1,8.8,71.5,9,70.9,9c-0.6,0-1.1-0.2-1.4-0.5C69.2,8.1,69,7.7,69,7.3c0-0.7,0.2-1.2,0.7-1.5c0.4-0.3,1-0.5,1.7-0.5
		c0.4,0,0.7,0,1,0V4.9c0-0.6-0.3-0.9-0.9-0.9c-0.4,0-1,0.1-1.8,0.4c-0.2-0.2-0.4-0.6-0.4-1.1C70.1,3,71,2.8,71.8,2.8
		c0.6,0,1.1,0.2,1.5,0.5s0.6,0.8,0.6,1.5v2.4C73.9,7.7,74,8,74.2,8.2z M71.2,7.9c0.4,0,0.8-0.2,1.2-0.6V6.3c-0.3,0-0.6,0-0.9,0
		s-0.6,0.1-0.7,0.3s-0.3,0.4-0.3,0.6c0,0.3,0.1,0.5,0.2,0.6C70.8,7.8,71,7.9,71.2,7.9z"/>
	<path fill="#A9D42D" d="M77.1,9c-0.7,0-1.2-0.3-1.6-0.8C75.2,7.7,75,6.9,75,5.9s0.2-1.7,0.7-2.3c0.5-0.6,1-0.8,1.7-0.8
		c0.4,0,0.8,0.1,1.3,0.3v-3L78.7,0h0.6c0.3,0,0.5,0.1,0.6,0.2C80,0.4,80.1,0.6,80.1,1v6.2c0,0.5,0.1,0.8,0.3,1
		c0,0.1-0.1,0.3-0.2,0.4C80.1,8.8,80,8.9,79.9,9c-0.5-0.1-0.9-0.3-1.1-0.7C78.4,8.8,77.8,9,77.1,9z M77.5,7.8c0.4,0,0.8-0.2,1.1-0.6
		V4.3C78.2,4.1,77.9,4,77.6,4c-0.3,0-0.5,0.2-0.7,0.5c-0.2,0.3-0.3,0.8-0.3,1.5s0.1,1.1,0.3,1.4C77,7.7,77.2,7.8,77.5,7.8z"/>
	<path fill="#A9D42D" d="M86.6,8.2c0,0.1-0.1,0.3-0.2,0.4c-0.1,0.1-0.2,0.3-0.3,0.3c-0.5-0.1-0.9-0.3-1.1-0.7
		C84.5,8.8,83.9,9,83.3,9c-0.6,0-1.1-0.2-1.4-0.5c-0.3-0.4-0.5-0.8-0.5-1.2c0-0.7,0.2-1.2,0.7-1.5c0.4-0.3,1-0.5,1.7-0.5
		c0.4,0,0.7,0,1,0V4.9c0-0.6-0.3-0.9-0.9-0.9c-0.4,0-1,0.1-1.8,0.4c-0.2-0.2-0.4-0.6-0.4-1.1c0.9-0.4,1.7-0.5,2.6-0.5
		c0.6,0,1.1,0.2,1.5,0.5s0.6,0.8,0.6,1.5v2.4C86.3,7.7,86.4,8,86.6,8.2z M83.6,7.9c0.4,0,0.8-0.2,1.2-0.6V6.3c-0.3,0-0.6,0-0.9,0
		s-0.6,0.1-0.7,0.3s-0.3,0.4-0.3,0.6c0,0.3,0.1,0.5,0.2,0.6C83.2,7.8,83.4,7.9,83.6,7.9z"/>
	<path fill="#A9D42D" d="M90.9,2.8c0.6,0,1.2,0.3,1.5,0.8C92.8,4.2,93,4.9,93,5.9s-0.2,1.7-0.7,2.3c-0.5,0.6-1,0.8-1.7,0.8
		c-0.4,0-0.8-0.1-1.3-0.3v1.9c0,0.3-0.1,0.6-0.2,0.7s-0.3,0.2-0.6,0.2H88l-0.1-0.1V2.9L88,2.9h0.4c0.4,0,0.7,0.2,0.9,0.6
		C89.7,3,90.3,2.8,90.9,2.8z M90.5,4c-0.4,0-0.8,0.2-1.1,0.6v2.8c0.4,0.2,0.7,0.4,1,0.4c0.3,0,0.6-0.2,0.8-0.5
		c0.2-0.3,0.3-0.8,0.3-1.5c0-0.6-0.1-1.1-0.3-1.4C91,4.1,90.8,4,90.5,4z"/>
	<path fill="#A9D42D" d="M97.5,2.9c0,0.2,0.1,0.3,0.1,0.5s0,0.4-0.1,0.5L96,4v3.3c0,0.4,0.2,0.5,0.5,0.5h0.8
		c0.1,0.2,0.1,0.5,0.1,0.6c0,0.2,0,0.3,0,0.4c-0.5,0.1-1,0.1-1.4,0.1c-0.9,0-1.4-0.5-1.4-1.4V4l-0.9,0c0-0.2-0.1-0.3-0.1-0.5
		s0-0.4,0.1-0.5l0.9,0V2c0-0.3,0.1-0.6,0.2-0.7c0.1-0.1,0.3-0.2,0.6-0.2h0.6L96,1.2v1.8L97.5,2.9z"/>
	<path fill="#A9D42D" d="M103.4,8.2c0,0.1-0.1,0.3-0.2,0.4c-0.1,0.1-0.2,0.3-0.3,0.3c-0.5-0.1-0.9-0.3-1.1-0.7
		c-0.5,0.5-1.1,0.8-1.7,0.8c-0.6,0-1.1-0.2-1.4-0.5c-0.3-0.4-0.5-0.8-0.5-1.2c0-0.7,0.2-1.2,0.7-1.5c0.4-0.3,1-0.5,1.7-0.5
		c0.4,0,0.7,0,1,0V4.9c0-0.6-0.3-0.9-0.9-0.9c-0.4,0-1,0.1-1.8,0.4c-0.2-0.2-0.4-0.6-0.4-1.1c0.9-0.4,1.7-0.5,2.6-0.5
		c0.6,0,1.1,0.2,1.5,0.5s0.6,0.8,0.6,1.5v2.4C103.1,7.7,103.2,8,103.4,8.2z M100.4,7.9c0.4,0,0.8-0.2,1.2-0.6V6.3
		c-0.3,0-0.6,0-0.9,0s-0.6,0.1-0.7,0.3s-0.3,0.4-0.3,0.6c0,0.3,0.1,0.5,0.2,0.6C100,7.8,100.2,7.9,100.4,7.9z"/>
	<path fill="#A9D42D" d="M106.2,9.8c0.1-0.3,0.2-0.6,0.3-0.8c-0.7-0.1-1.2-0.4-1.5-1c-0.4-0.6-0.5-1.3-0.5-2.1
		c0-1.1,0.3-1.8,0.8-2.4s1.1-0.8,1.8-0.8c0.7,0,1.2,0.2,1.6,0.6c0.4,0.4,0.6,0.8,0.6,1.3c0,0.5-0.2,0.8-0.7,0.8
		c-0.2,0-0.4,0-0.6-0.1c0,0,0-0.1,0-0.1c0-0.4-0.1-0.7-0.2-1s-0.4-0.4-0.7-0.4c-0.7,0-1,0.7-1,2s0.4,2,1.2,2c0.4,0,0.9-0.2,1.4-0.6
		c0.1,0.1,0.2,0.2,0.4,0.4c0.1,0.2,0.2,0.3,0.2,0.5c-0.5,0.5-1.1,0.8-1.8,0.9c-0.1,0.1-0.1,0.2-0.1,0.3c0.3,0,0.6,0.1,0.8,0.3
		c0.2,0.2,0.3,0.5,0.3,0.8s-0.1,0.6-0.4,0.8c-0.3,0.2-0.6,0.3-1.1,0.3s-0.8-0.1-1-0.3c0-0.3,0.1-0.5,0.3-0.7
		c0.2,0.1,0.4,0.2,0.6,0.2c0.3,0,0.5-0.1,0.5-0.4c0-0.1,0-0.2-0.1-0.3s-0.2-0.1-0.3-0.1s-0.2,0-0.3,0C106.3,10,106.2,9.9,106.2,9.8z
		"/>
	<path fill="#A9D42D" d="M115.2,8.2c0,0.1-0.1,0.3-0.2,0.4c-0.1,0.1-0.2,0.3-0.3,0.3c-0.5-0.1-0.9-0.3-1.1-0.7
		c-0.5,0.5-1.1,0.8-1.7,0.8c-0.6,0-1.1-0.2-1.4-0.5c-0.3-0.4-0.5-0.8-0.5-1.2c0-0.7,0.2-1.2,0.7-1.5c0.4-0.3,1-0.5,1.7-0.5
		c0.4,0,0.7,0,1,0V4.9c0-0.6-0.3-0.9-0.9-0.9c-0.4,0-1,0.1-1.8,0.4c-0.2-0.2-0.4-0.6-0.4-1.1c0.9-0.4,1.7-0.5,2.6-0.5
		c0.6,0,1.1,0.2,1.5,0.5s0.6,0.8,0.6,1.5v2.4C114.9,7.7,115,8,115.2,8.2z M112.6,2L112,1.7c-0.1-0.1-0.3-0.1-0.4-0.1
		s-0.3,0.1-0.4,0.3l-0.1,0.2c-0.1,0-0.3-0.1-0.4-0.1c-0.1-0.1-0.2-0.2-0.3-0.3l0.1-0.2c0.1-0.3,0.3-0.5,0.5-0.7
		c0.2-0.2,0.5-0.3,0.7-0.3s0.5,0.1,0.8,0.2l0.6,0.3c0.1,0.1,0.3,0.1,0.4,0.1s0.3-0.1,0.4-0.3l0.1-0.2c0.1,0,0.3,0.1,0.4,0.1
		c0.1,0.1,0.2,0.2,0.3,0.3l-0.1,0.2c-0.1,0.3-0.3,0.5-0.5,0.7c-0.2,0.2-0.5,0.3-0.7,0.3S112.8,2.2,112.6,2z M112.2,7.9
		c0.4,0,0.8-0.2,1.2-0.6V6.3c-0.3,0-0.6,0-0.9,0s-0.6,0.1-0.7,0.3s-0.3,0.4-0.3,0.6c0,0.3,0.1,0.5,0.2,0.6
		C111.8,7.8,112,7.9,112.2,7.9z"/>
	<path fill="#A9D42D" d="M121.4,5.9c0,1.1-0.3,1.9-0.9,2.5c-0.5,0.5-1.1,0.7-1.8,0.7s-1.3-0.2-1.8-0.7c-0.6-0.6-0.9-1.4-0.9-2.5
		c0-1.1,0.3-1.9,0.9-2.5c0.5-0.5,1.1-0.7,1.8-0.7s1.3,0.2,1.8,0.7C121.2,4,121.4,4.8,121.4,5.9z M118.8,3.9c-0.8,0-1.1,0.7-1.1,2
		c0,1.3,0.4,2,1.1,2s1.1-0.7,1.1-2C119.9,4.6,119.5,3.9,118.8,3.9z"/>
	<path fill="#A9D42D" d="M127.1,9c-0.7,0-1.2-0.3-1.6-0.8c-0.4-0.6-0.5-1.3-0.5-2.3s0.2-1.7,0.7-2.3c0.5-0.6,1-0.8,1.7-0.8
		c0.4,0,0.8,0.1,1.3,0.3v-3l0.1-0.1h0.6c0.3,0,0.5,0.1,0.6,0.2c0.1,0.1,0.2,0.4,0.2,0.7v6.2c0,0.5,0.1,0.8,0.3,1
		c0,0.1-0.1,0.3-0.2,0.4c-0.1,0.1-0.2,0.3-0.3,0.3c-0.5-0.1-0.9-0.3-1.1-0.7C128.4,8.8,127.8,9,127.1,9z M127.5,7.8
		c0.4,0,0.8-0.2,1.1-0.6V4.3c-0.4-0.2-0.8-0.4-1.1-0.4c-0.3,0-0.5,0.2-0.7,0.5c-0.2,0.3-0.3,0.8-0.3,1.5s0.1,1.1,0.3,1.4
		C127,7.7,127.2,7.8,127.5,7.8z"/>
	<path fill="#A9D42D" d="M133.5,4.1v4.8c-0.2,0-0.5,0.1-0.7,0.1c-0.3,0-0.5,0-0.8-0.1V4.6c0-0.4-0.2-0.6-0.5-0.6h-0.1
		c0-0.1-0.1-0.3-0.1-0.5c0-0.2,0-0.4,0.1-0.5c0.3,0,0.6,0,0.9,0h0.2c0.3,0,0.6,0.1,0.8,0.3S133.5,3.7,133.5,4.1z M131.7,1.8
		c-0.1-0.2-0.1-0.4-0.1-0.6s0-0.4,0.1-0.6c0.2-0.1,0.5-0.2,0.8-0.2c0.3,0,0.6,0.1,0.7,0.2c0.1,0.2,0.1,0.4,0.1,0.6s0,0.4-0.1,0.6
		C133.1,2,132.8,2,132.5,2S131.9,2,131.7,1.8z"/>
	<path fill="#A9D42D" d="M140,8.2c0,0.1-0.1,0.3-0.2,0.4c-0.1,0.1-0.2,0.3-0.3,0.3c-0.5-0.1-0.9-0.3-1.1-0.7
		c-0.5,0.5-1.1,0.8-1.7,0.8c-0.6,0-1.1-0.2-1.4-0.5c-0.3-0.4-0.5-0.8-0.5-1.2c0-0.7,0.2-1.2,0.7-1.5c0.4-0.3,1-0.5,1.7-0.5
		c0.4,0,0.7,0,1,0V4.9c0-0.6-0.3-0.9-0.9-0.9c-0.4,0-1,0.1-1.8,0.4c-0.2-0.2-0.4-0.6-0.4-1.1c0.9-0.4,1.7-0.5,2.6-0.5
		c0.6,0,1.1,0.2,1.5,0.5s0.6,0.8,0.6,1.5v2.4C139.6,7.7,139.7,8,140,8.2z M136.9,7.9c0.4,0,0.8-0.2,1.2-0.6V6.3c-0.3,0-0.6,0-0.9,0
		s-0.6,0.1-0.7,0.3s-0.3,0.4-0.3,0.6c0,0.3,0.1,0.5,0.2,0.6C136.6,7.8,136.7,7.9,136.9,7.9z"/>
	<path fill="#A9D42D" d="M146.2,4.9v2.7c0,0.5,0.1,0.9,0.2,1.1c-0.3,0.2-0.6,0.3-0.9,0.3c-0.3,0-0.5-0.1-0.7-0.2
		c-0.1-0.2-0.2-0.4-0.2-0.7V5.2c0-0.4,0-0.6-0.1-0.8c-0.1-0.2-0.3-0.2-0.5-0.2c-0.5,0-0.9,0.2-1.3,0.6v4.1c-0.2,0-0.5,0.1-0.7,0.1
		c-0.3,0-0.5,0-0.8-0.1V2.9l0.1-0.1h0.6c0.5,0,0.7,0.2,0.8,0.7c0.6-0.5,1.2-0.8,1.7-0.8s1,0.2,1.3,0.6S146.2,4.3,146.2,4.9z"/>
	<path fill="#A9D42D" d="M151,2.9c0,0.2,0.1,0.3,0.1,0.5s0,0.4-0.1,0.5l-1.5,0v3.3c0,0.4,0.2,0.5,0.5,0.5h0.8
		c0.1,0.2,0.1,0.5,0.1,0.6c0,0.2,0,0.3,0,0.4c-0.5,0.1-1,0.1-1.4,0.1c-0.9,0-1.4-0.5-1.4-1.4V4l-0.9,0c0-0.2-0.1-0.3-0.1-0.5
		s0-0.4,0.1-0.5l0.9,0V2c0-0.3,0.1-0.6,0.2-0.7c0.1-0.1,0.3-0.2,0.6-0.2h0.6l0.1,0.1v1.8L151,2.9z"/>
	<path fill="#A9D42D" d="M156.6,6.4h-3.4c0,0.5,0.1,0.8,0.3,1.1c0.2,0.3,0.5,0.4,1,0.4s1-0.1,1.6-0.4c0.2,0.2,0.4,0.5,0.4,0.9
		C156,8.8,155.2,9,154.3,9c-0.9,0-1.5-0.3-1.9-0.9c-0.4-0.6-0.6-1.3-0.6-2.3c0-0.9,0.2-1.7,0.6-2.3c0.4-0.6,1-0.9,1.9-0.9
		c0.8,0,1.4,0.2,1.9,0.7c0.4,0.5,0.6,1.1,0.6,1.8C156.8,5.7,156.7,6,156.6,6.4z M154.3,3.8c-0.7,0-1,0.5-1.1,1.5h2.1V5.2
		c0-0.4-0.1-0.7-0.3-1S154.7,3.8,154.3,3.8z"/>
	<path fill="#A9D42D" d="M162.5,9c-0.7,0-1.2-0.3-1.6-0.8c-0.4-0.6-0.5-1.3-0.5-2.3s0.2-1.7,0.7-2.3c0.5-0.6,1-0.8,1.7-0.8
		c0.4,0,0.8,0.1,1.3,0.3v-3l0.1-0.1h0.6c0.3,0,0.5,0.1,0.6,0.2c0.1,0.1,0.2,0.4,0.2,0.7v6.2c0,0.5,0.1,0.8,0.3,1
		c0,0.1-0.1,0.3-0.2,0.4c-0.1,0.1-0.2,0.3-0.3,0.3c-0.5-0.1-0.9-0.3-1.1-0.7C163.7,8.8,163.2,9,162.5,9z M162.9,7.8
		c0.4,0,0.8-0.2,1.1-0.6V4.3c-0.4-0.2-0.8-0.4-1.1-0.4c-0.3,0-0.5,0.2-0.7,0.5c-0.2,0.3-0.3,0.8-0.3,1.5s0.1,1.1,0.3,1.4
		C162.3,7.7,162.6,7.8,162.9,7.8z"/>
	<path fill="#A9D42D" d="M172.1,5.9c0,1.1-0.3,1.9-0.9,2.5c-0.5,0.5-1.1,0.7-1.8,0.7s-1.3-0.2-1.8-0.7c-0.6-0.6-0.9-1.4-0.9-2.5
		c0-1.1,0.3-1.9,0.9-2.5c0.5-0.5,1.1-0.7,1.8-0.7s1.3,0.2,1.8,0.7C171.8,4,172.1,4.8,172.1,5.9z M169.4,3.9c-0.8,0-1.1,0.7-1.1,2
		c0,1.3,0.4,2,1.1,2s1.1-0.7,1.1-2C170.6,4.6,170.2,3.9,169.4,3.9z"/>
	<path fill="#A9D42D" d="M172.9,8.4c0-0.2,0.1-0.3,0.1-0.5c0.1-0.2,0.2-0.4,0.3-0.5c0.6,0.3,1.2,0.5,1.7,0.5c0.3,0,0.5-0.1,0.7-0.2
		c0.2-0.1,0.2-0.3,0.2-0.4c0-0.3-0.2-0.6-0.7-0.7l-0.7-0.3c-1-0.4-1.5-1-1.5-1.7c0-0.6,0.2-1,0.6-1.4c0.4-0.3,1-0.5,1.6-0.5
		s1.3,0.2,2,0.5c0,0.2,0,0.4-0.1,0.6c-0.1,0.2-0.2,0.4-0.3,0.5c-0.6-0.3-1.1-0.4-1.6-0.4c-0.2,0-0.4,0.1-0.5,0.2
		c-0.1,0.1-0.2,0.2-0.2,0.4c0,0.3,0.2,0.5,0.6,0.6l0.7,0.3c1,0.4,1.5,1,1.5,1.8c0,0.6-0.2,1-0.6,1.4c-0.4,0.3-1,0.5-1.8,0.5
		S173.6,8.8,172.9,8.4z"/>
	<path fill="#A9D42D" d="M186.2,4.9v2.7c0,0.5,0.1,0.9,0.2,1.1c-0.3,0.2-0.6,0.3-0.9,0.3c-0.3,0-0.5-0.1-0.7-0.2
		c-0.1-0.2-0.2-0.4-0.2-0.7V5.2c0-0.4,0-0.6-0.1-0.8c-0.1-0.2-0.3-0.2-0.5-0.2c-0.5,0-0.9,0.2-1.3,0.6v4.1c-0.2,0-0.5,0.1-0.7,0.1
		c-0.3,0-0.5,0-0.8-0.1V2.9l0.1-0.1h0.6c0.5,0,0.7,0.2,0.8,0.7c0.6-0.5,1.2-0.8,1.7-0.8s1,0.2,1.3,0.6S186.2,4.3,186.2,4.9z"/>
	<path fill="#A9D42D" d="M192.8,5.9c0,1.1-0.3,1.9-0.9,2.5c-0.5,0.5-1.1,0.7-1.8,0.7s-1.3-0.2-1.8-0.7c-0.6-0.6-0.9-1.4-0.9-2.5
		c0-1.1,0.3-1.9,0.9-2.5c0.5-0.5,1.1-0.7,1.8-0.7s1.3,0.2,1.8,0.7C192.5,4,192.8,4.8,192.8,5.9z M190.2,3.9c-0.8,0-1.1,0.7-1.1,2
		c0,1.3,0.4,2,1.1,2s1.1-0.7,1.1-2C191.3,4.6,190.9,3.9,190.2,3.9z"/>
	<path fill="#A9D42D" d="M196.1,7.7l1.3-4.8c0.2,0,0.4,0,0.6,0s0.5,0,0.7,0.1l0,0.1c-0.8,2.6-1.4,4.6-1.8,5.8c-0.3,0-0.7,0.1-1,0.1
		c-0.4,0-0.6-0.1-0.8-0.2c-0.2-0.1-0.3-0.3-0.4-0.6L193.2,3c0.3-0.1,0.6-0.2,0.8-0.2c0.4,0,0.7,0.2,0.8,0.7l0.7,2.5
		c0.1,0.2,0.2,0.8,0.4,1.6C196,7.7,196,7.7,196.1,7.7z"/>
	<path fill="#A9D42D" d="M204.6,5.9c0,1.1-0.3,1.9-0.9,2.5c-0.5,0.5-1.1,0.7-1.8,0.7s-1.3-0.2-1.8-0.7c-0.6-0.6-0.9-1.4-0.9-2.5
		c0-1.1,0.3-1.9,0.9-2.5c0.5-0.5,1.1-0.7,1.8-0.7s1.3,0.2,1.8,0.7C204.3,4,204.6,4.8,204.6,5.9z M201.9,3.9c-0.8,0-1.1,0.7-1.1,2
		c0,1.3,0.4,2,1.1,2s1.1-0.7,1.1-2C203,4.6,202.7,3.9,201.9,3.9z"/>
	<path fill="#A9D42D" d="M205.3,8.4c0-0.2,0.1-0.3,0.1-0.5c0.1-0.2,0.2-0.4,0.3-0.5c0.6,0.3,1.2,0.5,1.7,0.5c0.3,0,0.5-0.1,0.7-0.2
		c0.2-0.1,0.2-0.3,0.2-0.4c0-0.3-0.2-0.6-0.7-0.7l-0.7-0.3c-1-0.4-1.5-1-1.5-1.7c0-0.6,0.2-1,0.6-1.4c0.4-0.3,1-0.5,1.6-0.5
		s1.3,0.2,2,0.5c0,0.2,0,0.4-0.1,0.6c-0.1,0.2-0.2,0.4-0.3,0.5c-0.6-0.3-1.1-0.4-1.6-0.4c-0.2,0-0.4,0.1-0.5,0.2
		c-0.1,0.1-0.2,0.2-0.2,0.4c0,0.3,0.2,0.5,0.6,0.6l0.7,0.3c1,0.4,1.5,1,1.5,1.8c0,0.6-0.2,1-0.6,1.4c-0.4,0.3-1,0.5-1.8,0.5
		S206,8.8,205.3,8.4z"/>
	<path fill="#A9D42D" d="M215.5,9c-0.7,0-1.2-0.3-1.6-0.8c-0.4-0.6-0.5-1.3-0.5-2.3s0.2-1.7,0.7-2.3c0.5-0.6,1-0.8,1.7-0.8
		c0.4,0,0.8,0.1,1.3,0.3v-3l0.1-0.1h0.6c0.3,0,0.5,0.1,0.6,0.2c0.1,0.1,0.2,0.4,0.2,0.7v6.2c0,0.5,0.1,0.8,0.3,1
		c0,0.1-0.1,0.3-0.2,0.4c-0.1,0.1-0.2,0.3-0.3,0.3c-0.5-0.1-0.9-0.3-1.1-0.7C216.8,8.8,216.2,9,215.5,9z M215.9,7.8
		c0.4,0,0.8-0.2,1.1-0.6V4.3C216.6,4.1,216.3,4,216,4c-0.3,0-0.5,0.2-0.7,0.5c-0.2,0.3-0.3,0.8-0.3,1.5s0.1,1.1,0.3,1.4
		C215.4,7.7,215.6,7.8,215.9,7.8z"/>
	<path fill="#A9D42D" d="M224.7,6.4h-3.4c0,0.5,0.1,0.8,0.3,1.1c0.2,0.3,0.5,0.4,1,0.4s1-0.1,1.6-0.4c0.2,0.2,0.4,0.5,0.4,0.9
		C224,8.8,223.2,9,222.3,9c-0.9,0-1.5-0.3-1.9-0.9c-0.4-0.6-0.6-1.3-0.6-2.3c0-0.9,0.2-1.7,0.6-2.3c0.4-0.6,1-0.9,1.9-0.9
		c0.8,0,1.4,0.2,1.9,0.7c0.4,0.5,0.6,1.1,0.6,1.8C224.8,5.7,224.8,6,224.7,6.4z M222.4,3.8c-0.7,0-1,0.5-1.1,1.5h2.1V5.2
		c0-0.4-0.1-0.7-0.3-1S222.7,3.8,222.4,3.8z"/>
	<path fill="#A9D42D" d="M225.6,8.4c0-0.2,0.1-0.3,0.1-0.5c0.1-0.2,0.2-0.4,0.3-0.5c0.6,0.3,1.2,0.5,1.7,0.5c0.3,0,0.5-0.1,0.7-0.2
		c0.2-0.1,0.2-0.3,0.2-0.4c0-0.3-0.2-0.6-0.7-0.7l-0.7-0.3c-1-0.4-1.5-1-1.5-1.7c0-0.6,0.2-1,0.6-1.4c0.4-0.3,1-0.5,1.6-0.5
		s1.3,0.2,2,0.5c0,0.2,0,0.4-0.1,0.6c-0.1,0.2-0.2,0.4-0.3,0.5c-0.6-0.3-1.1-0.4-1.6-0.4c-0.2,0-0.4,0.1-0.5,0.2
		c-0.1,0.1-0.2,0.2-0.2,0.4c0,0.3,0.2,0.5,0.6,0.6l0.7,0.3c1,0.4,1.5,1,1.5,1.8c0,0.6-0.2,1-0.6,1.4c-0.4,0.3-1,0.5-1.8,0.5
		S226.3,8.8,225.6,8.4z"/>
	<path fill="#A9D42D" d="M236.2,8.2c0,0.1-0.1,0.3-0.2,0.4c-0.1,0.1-0.2,0.3-0.3,0.3c-0.5-0.1-0.9-0.3-1.1-0.7
		c-0.5,0.5-1.1,0.8-1.7,0.8c-0.6,0-1.1-0.2-1.4-0.5c-0.3-0.4-0.5-0.8-0.5-1.2c0-0.7,0.2-1.2,0.7-1.5c0.4-0.3,1-0.5,1.7-0.5
		c0.4,0,0.7,0,1,0V4.9c0-0.6-0.3-0.9-0.9-0.9c-0.4,0-1,0.1-1.8,0.4c-0.2-0.2-0.4-0.6-0.4-1.1c0.9-0.4,1.7-0.5,2.6-0.5
		c0.6,0,1.1,0.2,1.5,0.5s0.6,0.8,0.6,1.5v2.4C235.9,7.7,236,8,236.2,8.2z M233.2,7.9c0.4,0,0.8-0.2,1.2-0.6V6.3c-0.3,0-0.6,0-0.9,0
		s-0.6,0.1-0.7,0.3s-0.3,0.4-0.3,0.6c0,0.3,0.1,0.5,0.2,0.6C232.8,7.8,233,7.9,233.2,7.9z"/>
	<path fill="#A9D42D" d="M237.9,8.9V4l-1,0c0-0.2-0.1-0.4-0.1-0.5s0-0.4,0.1-0.6l1,0c0-0.4-0.1-0.8-0.1-1c0-0.6,0.2-1,0.5-1.4
		c0.4-0.4,0.8-0.6,1.4-0.6s1.1,0.1,1.7,0.3c0,0.4-0.1,0.8-0.3,1c-0.4-0.1-0.7-0.2-1-0.2s-0.5,0.1-0.6,0.2c-0.2,0.2-0.2,0.4-0.2,0.7
		s0,0.6,0.1,0.9l1.6,0c0,0.2,0.1,0.3,0.1,0.6s0,0.4-0.1,0.5l-1.5,0v4.9c-0.3,0-0.5,0.1-0.7,0.1C238.3,8.9,238.1,8.9,237.9,8.9z"/>
	<path fill="#A9D42D" d="M244,4.1v4.8c-0.2,0-0.5,0.1-0.7,0.1c-0.3,0-0.5,0-0.8-0.1V4.6c0-0.4-0.2-0.6-0.5-0.6h-0.1
		c0-0.1-0.1-0.3-0.1-0.5c0-0.2,0-0.4,0.1-0.5c0.3,0,0.6,0,0.9,0h0.2c0.3,0,0.6,0.1,0.8,0.3S244,3.7,244,4.1z M242.2,1.8
		c-0.1-0.2-0.1-0.4-0.1-0.6s0-0.4,0.1-0.6c0.2-0.1,0.5-0.2,0.8-0.2c0.3,0,0.6,0.1,0.7,0.2c0.1,0.2,0.1,0.4,0.1,0.6s0,0.4-0.1,0.6
		C243.5,2,243.3,2,243,2S242.4,2,242.2,1.8z"/>
	<path fill="#A9D42D" d="M250.6,5.9c0,1.1-0.3,1.9-0.9,2.5c-0.5,0.5-1.1,0.7-1.8,0.7s-1.3-0.2-1.8-0.7c-0.6-0.6-0.9-1.4-0.9-2.5
		c0-1.1,0.3-1.9,0.9-2.5c0.5-0.5,1.1-0.7,1.8-0.7s1.3,0.2,1.8,0.7C250.3,4,250.6,4.8,250.6,5.9z M247.9,3.9c-0.8,0-1.1,0.7-1.1,2
		c0,1.3,0.4,2,1.1,2s1.1-0.7,1.1-2C249.1,4.6,248.7,3.9,247.9,3.9z"/>
	<path fill="#A9D42D" d="M251.4,8.4c0-0.2,0.1-0.3,0.1-0.5c0.1-0.2,0.2-0.4,0.3-0.5c0.6,0.3,1.2,0.5,1.7,0.5c0.3,0,0.5-0.1,0.7-0.2
		c0.2-0.1,0.2-0.3,0.2-0.4c0-0.3-0.2-0.6-0.7-0.7l-0.7-0.3c-1-0.4-1.5-1-1.5-1.7c0-0.6,0.2-1,0.6-1.4c0.4-0.3,1-0.5,1.6-0.5
		s1.3,0.2,2,0.5c0,0.2,0,0.4-0.1,0.6c-0.1,0.2-0.2,0.4-0.3,0.5c-0.6-0.3-1.1-0.4-1.6-0.4c-0.2,0-0.4,0.1-0.5,0.2
		c-0.1,0.1-0.2,0.2-0.2,0.4c0,0.3,0.2,0.5,0.6,0.6l0.7,0.3c1,0.4,1.5,1,1.5,1.8c0,0.6-0.2,1-0.6,1.4c-0.4,0.3-1,0.5-1.8,0.5
		S252.1,8.8,251.4,8.4z"/>
	<path fill="#FFFFFF" d="M257,10.8c-0.2-0.1-0.3-0.3-0.3-0.5c0,0,0-0.1,0-0.1c0.3-0.1,0.5-0.3,0.7-0.5c0.2-0.2,0.3-0.4,0.3-0.7
		c-0.2-0.1-0.4-0.1-0.5-0.2c-0.1-0.1-0.1-0.3-0.1-0.6c0-0.3,0-0.5,0.1-0.6c0.2-0.1,0.4-0.2,0.7-0.2s0.5,0.1,0.7,0.2
		c0.1,0.2,0.1,0.4,0.1,0.8c0,0.5-0.1,1-0.4,1.4S257.6,10.6,257,10.8z"/>
	<path fill="#FFFFFF" d="M3.6,17.4c0,0.1,0,0.3,0,0.4s0,0.3,0,0.4l-1.5,0v3.7c0,0.3,0.2,0.5,0.5,0.5h0.8c0.1,0.2,0.1,0.3,0.1,0.5
		s0,0.3,0,0.3c-0.5,0.1-0.9,0.1-1.3,0.1c-0.8,0-1.2-0.4-1.2-1.2v-3.9l-0.9,0c0-0.1,0-0.3,0-0.4s0-0.3,0-0.4l0.9,0v-1.1
		c0-0.3,0-0.5,0.1-0.6c0.1-0.1,0.3-0.2,0.5-0.2H2l0.1,0.1v1.8L3.6,17.4z"/>
	<path fill="#FFFFFF" d="M4.5,17.9c0.1-0.3,0.2-0.5,0.4-0.6c0.5,0.1,0.9,0.5,1,1.1c0.3-0.7,0.9-1.1,1.6-1.1c0.2,0,0.4,0,0.6,0.1
		c0,0.4-0.1,0.8-0.3,1.1c0,0-0.2,0-0.5,0c-0.6,0-1,0.3-1.3,0.9v3.9c-0.1,0-0.3,0-0.6,0s-0.4,0-0.6,0v-4.2C5,18.6,4.8,18.2,4.5,17.9z
		"/>
	<path fill="#FFFFFF" d="M13.7,22.8c-0.1,0.3-0.2,0.5-0.5,0.6c-0.4-0.1-0.7-0.3-0.9-0.8c-0.6,0.6-1.2,0.8-1.8,0.8
		c-0.6,0-1.1-0.2-1.4-0.5c-0.3-0.4-0.5-0.8-0.5-1.2c0-0.7,0.2-1.1,0.6-1.5s1-0.5,1.7-0.5c0.4,0,0.8,0,1.2,0.1v-0.5
		c0-0.7-0.3-1.1-1-1.1c-0.5,0-1.2,0.2-1.9,0.5C9.1,18.4,9,18.2,9,17.8c0.8-0.4,1.7-0.6,2.5-0.6c0.6,0,1.1,0.2,1.4,0.5
		c0.3,0.3,0.5,0.8,0.5,1.5v2.5C13.4,22.2,13.5,22.6,13.7,22.8z M10.8,22.5c0.5,0,1-0.3,1.5-0.8v-1.2c-0.3,0-0.7-0.1-1.1-0.1
		c-0.4,0-0.7,0.1-0.9,0.3C10,21,9.9,21.2,9.9,21.5c0,0.3,0.1,0.5,0.2,0.7C10.3,22.4,10.5,22.5,10.8,22.5z"/>
	<path fill="#FFFFFF" d="M19.9,19.2V22c0,0.5,0.1,0.8,0.2,1.1c-0.2,0.2-0.4,0.3-0.7,0.3c-0.4,0-0.6-0.2-0.6-0.7v-3.1
		c0-0.4-0.1-0.7-0.2-0.9c-0.1-0.2-0.3-0.3-0.6-0.3c-0.3,0-0.6,0.1-0.9,0.2c-0.3,0.1-0.5,0.3-0.8,0.6v4.2c-0.1,0-0.3,0-0.6,0
		s-0.4,0-0.6,0v-5.9l0.1-0.1h0.4c0.4,0,0.6,0.3,0.6,0.8c0.6-0.5,1.2-0.8,1.9-0.8c0.5,0,0.9,0.2,1.2,0.5
		C19.8,18.2,19.9,18.6,19.9,19.2z"/>
	<path fill="#FFFFFF" d="M21.2,22.8c0-0.1,0-0.3,0.1-0.4s0.2-0.3,0.3-0.4c0.7,0.4,1.2,0.5,1.6,0.5c0.4,0,0.7-0.1,0.9-0.2
		c0.2-0.1,0.3-0.3,0.3-0.6c0-0.4-0.3-0.7-0.8-0.9L23,20.7c-1-0.4-1.5-0.9-1.5-1.7c0-0.5,0.2-1,0.6-1.3c0.4-0.3,0.9-0.5,1.6-0.5
		s1.3,0.1,1.9,0.4c0,0.2,0,0.3-0.1,0.5s-0.2,0.3-0.3,0.4c-0.6-0.3-1.1-0.4-1.6-0.4c-0.3,0-0.5,0.1-0.7,0.2c-0.2,0.1-0.3,0.3-0.3,0.5
		c0,0.2,0.1,0.4,0.2,0.5s0.3,0.2,0.6,0.3l0.7,0.3c1,0.4,1.5,1,1.5,1.8c0,0.5-0.2,1-0.6,1.3c-0.4,0.3-1,0.5-1.7,0.5
		S21.9,23.2,21.2,22.8z"/>
	<path fill="#FFFFFF" d="M27.3,23.3v-5.1l-1,0c0-0.2,0-0.3,0-0.4c0-0.1,0-0.3,0-0.4l1,0c-0.1-0.4-0.1-0.8-0.1-1.1
		c0-0.5,0.2-1,0.5-1.3c0.3-0.3,0.8-0.5,1.3-0.5c0.6,0,1.1,0.1,1.5,0.3c0,0.3-0.1,0.6-0.3,0.8c-0.4-0.1-0.8-0.2-1-0.2
		s-0.5,0.1-0.7,0.3c-0.2,0.2-0.2,0.4-0.2,0.7c0,0.3,0,0.7,0.1,1.1l1.7,0c0,0.2,0,0.3,0,0.4c0,0.1,0,0.2,0,0.4l-1.6,0v5.1
		c-0.2,0-0.3,0-0.6,0S27.5,23.3,27.3,23.3z"/>
	<path fill="#FFFFFF" d="M34.9,17.9c0.6,0.6,0.8,1.4,0.8,2.5s-0.3,1.9-0.8,2.5c-0.4,0.4-1,0.7-1.7,0.7s-1.3-0.2-1.7-0.7
		c-0.6-0.6-0.8-1.4-0.8-2.5s0.3-1.9,0.8-2.5c0.4-0.4,1-0.7,1.7-0.7S34.5,17.4,34.9,17.9z M31.8,20.3c0,1.5,0.5,2.2,1.4,2.2
		s1.4-0.7,1.4-2.2c0-0.4,0-0.8-0.1-1.1c-0.1-0.3-0.2-0.6-0.4-0.8c-0.2-0.2-0.5-0.3-0.8-0.3s-0.6,0.1-0.8,0.3
		c-0.2,0.2-0.4,0.5-0.4,0.8C31.8,19.5,31.8,19.9,31.8,20.3z"/>
	<path fill="#FFFFFF" d="M36.9,17.9c0.1-0.3,0.2-0.5,0.4-0.6c0.5,0.1,0.9,0.5,1,1.1c0.3-0.7,0.9-1.1,1.6-1.1c0.2,0,0.4,0,0.6,0.1
		c0,0.4-0.1,0.8-0.3,1.1c0,0-0.2,0-0.5,0c-0.6,0-1,0.3-1.3,0.9v3.9c-0.1,0-0.3,0-0.6,0s-0.4,0-0.6,0v-4.2
		C37.4,18.6,37.2,18.2,36.9,17.9z"/>
	<path fill="#FFFFFF" d="M44.9,19.5c0-0.4-0.1-0.7-0.2-0.9c-0.1-0.2-0.3-0.3-0.6-0.3c-0.5,0-0.9,0.3-1.4,0.8v4.2c-0.1,0-0.3,0-0.6,0
		s-0.4,0-0.6,0v-5.9l0.1-0.1h0.4c0.4,0,0.6,0.3,0.6,0.8c0.5-0.5,1.1-0.8,1.7-0.8s1.1,0.3,1.3,0.9c0.6-0.6,1.3-0.9,1.9-0.9
		c0.5,0,0.9,0.2,1.1,0.5c0.3,0.4,0.4,0.8,0.4,1.3V22c0,0.5,0.1,0.8,0.2,1.1c-0.2,0.2-0.4,0.3-0.7,0.3c-0.4,0-0.6-0.2-0.6-0.7v-3.1
		c0-0.4-0.1-0.7-0.2-0.9c-0.1-0.2-0.3-0.3-0.6-0.3c-0.5,0-0.9,0.3-1.4,0.8v4.2c-0.1,0-0.3,0-0.6,0s-0.4,0-0.6,0V19.5z"/>
	<path fill="#FFFFFF" d="M55.7,22.8c-0.1,0.3-0.2,0.5-0.5,0.6c-0.4-0.1-0.7-0.3-0.9-0.8c-0.6,0.6-1.2,0.8-1.8,0.8
		c-0.6,0-1.1-0.2-1.4-0.5c-0.3-0.4-0.5-0.8-0.5-1.2c0-0.7,0.2-1.1,0.6-1.5s1-0.5,1.7-0.5c0.4,0,0.8,0,1.2,0.1v-0.5
		c0-0.7-0.3-1.1-1-1.1c-0.5,0-1.2,0.2-1.9,0.5c-0.2-0.2-0.3-0.5-0.3-0.9c0.8-0.4,1.7-0.6,2.5-0.6c0.6,0,1.1,0.2,1.4,0.5
		c0.3,0.3,0.5,0.8,0.5,1.5v2.5C55.4,22.2,55.5,22.6,55.7,22.8z M52.8,22.5c0.5,0,1-0.3,1.5-0.8v-1.2c-0.3,0-0.7-0.1-1.1-0.1
		c-0.4,0-0.7,0.1-0.9,0.3c-0.2,0.2-0.3,0.4-0.3,0.7c0,0.3,0.1,0.5,0.2,0.7C52.3,22.4,52.5,22.5,52.8,22.5z"/>
	<path fill="#FFFFFF" d="M61.9,19.2V22c0,0.5,0.1,0.8,0.2,1.1c-0.2,0.2-0.4,0.3-0.7,0.3c-0.4,0-0.6-0.2-0.6-0.7v-3.1
		c0-0.4-0.1-0.7-0.2-0.9c-0.1-0.2-0.3-0.3-0.6-0.3c-0.3,0-0.6,0.1-0.9,0.2c-0.3,0.1-0.5,0.3-0.8,0.6v4.2c-0.1,0-0.3,0-0.6,0
		s-0.4,0-0.6,0v-5.9l0.1-0.1h0.4c0.4,0,0.6,0.3,0.6,0.8c0.6-0.5,1.2-0.8,1.9-0.8c0.5,0,0.9,0.2,1.2,0.5
		C61.8,18.2,61.9,18.6,61.9,19.2z"/>
	<path fill="#FFFFFF" d="M65.5,23.4c-0.7,0-1.2-0.3-1.5-0.8c-0.4-0.6-0.5-1.3-0.5-2.3c0-1,0.2-1.7,0.7-2.3c0.5-0.5,1-0.8,1.6-0.8
		c0.4,0,0.9,0.1,1.4,0.4v-3.1l0.1-0.1h0.4c0.2,0,0.4,0.1,0.5,0.2c0.1,0.1,0.1,0.3,0.1,0.6v6.4c0,0.6,0.1,1,0.3,1.2
		c-0.1,0.3-0.2,0.5-0.5,0.6c-0.4-0.1-0.7-0.3-0.9-0.8C66.7,23.2,66.1,23.4,65.5,23.4z M65.7,22.5c0.5,0,1-0.3,1.4-0.8v-3
		c-0.4-0.3-0.9-0.5-1.2-0.5s-0.7,0.2-0.9,0.6c-0.2,0.4-0.4,0.9-0.4,1.6c0,0.7,0.1,1.2,0.3,1.6S65.4,22.5,65.7,22.5z"/>
	<path fill="#FFFFFF" d="M74,17.9c0.6,0.6,0.8,1.4,0.8,2.5s-0.3,1.9-0.8,2.5c-0.4,0.4-1,0.7-1.7,0.7s-1.3-0.2-1.7-0.7
		c-0.6-0.6-0.8-1.4-0.8-2.5s0.3-1.9,0.8-2.5c0.4-0.4,1-0.7,1.7-0.7S73.6,17.4,74,17.9z M70.9,20.3c0,1.5,0.5,2.2,1.4,2.2
		s1.4-0.7,1.4-2.2c0-0.4,0-0.8-0.1-1.1c-0.1-0.3-0.2-0.6-0.4-0.8c-0.2-0.2-0.5-0.3-0.8-0.3s-0.6,0.1-0.8,0.3
		c-0.2,0.2-0.4,0.5-0.4,0.8C71,19.5,70.9,19.9,70.9,20.3z"/>
	<path fill="#FFFFFF" d="M83.6,22.8c-0.1,0.3-0.2,0.5-0.5,0.6c-0.4-0.1-0.7-0.3-0.9-0.8c-0.6,0.6-1.2,0.8-1.8,0.8
		c-0.6,0-1.1-0.2-1.4-0.5c-0.3-0.4-0.5-0.8-0.5-1.2c0-0.7,0.2-1.1,0.6-1.5s1-0.5,1.7-0.5c0.4,0,0.8,0,1.2,0.1v-0.5
		c0-0.7-0.3-1.1-1-1.1c-0.5,0-1.2,0.2-1.9,0.5c-0.2-0.2-0.3-0.5-0.3-0.9c0.8-0.4,1.7-0.6,2.5-0.6c0.6,0,1.1,0.2,1.4,0.5
		c0.3,0.3,0.5,0.8,0.5,1.5v2.5C83.2,22.2,83.3,22.6,83.6,22.8z M80.6,22.5c0.5,0,1-0.3,1.5-0.8v-1.2c-0.3,0-0.7-0.1-1.1-0.1
		c-0.4,0-0.7,0.1-0.9,0.3c-0.2,0.2-0.3,0.4-0.3,0.7c0,0.3,0.1,0.5,0.2,0.7C80.1,22.4,80.4,22.5,80.6,22.5z"/>
	<path fill="#FFFFFF" d="M84.5,22.8c0-0.1,0-0.3,0.1-0.4s0.2-0.3,0.3-0.4c0.7,0.4,1.2,0.5,1.6,0.5c0.4,0,0.7-0.1,0.9-0.2
		c0.2-0.1,0.3-0.3,0.3-0.6c0-0.4-0.3-0.7-0.8-0.9l-0.7-0.3c-1-0.4-1.5-0.9-1.5-1.7c0-0.5,0.2-1,0.6-1.3c0.4-0.3,0.9-0.5,1.6-0.5
		s1.3,0.1,1.9,0.4c0,0.2,0,0.3-0.1,0.5s-0.2,0.3-0.3,0.4c-0.6-0.3-1.1-0.4-1.6-0.4c-0.3,0-0.5,0.1-0.7,0.2c-0.2,0.1-0.3,0.3-0.3,0.5
		c0,0.2,0.1,0.4,0.2,0.5s0.3,0.2,0.6,0.3l0.7,0.3c1,0.4,1.5,1,1.5,1.8c0,0.5-0.2,1-0.6,1.3c-0.4,0.3-1,0.5-1.7,0.5
		S85.2,23.2,84.5,22.8z"/>
	<path fill="#FFFFFF" d="M95.8,17.2c0.7,0,1.2,0.3,1.5,0.8c0.4,0.6,0.5,1.3,0.5,2.3s-0.2,1.7-0.7,2.3s-1,0.8-1.6,0.8
		c-0.5,0-1-0.1-1.4-0.4v2.1c0,0.3,0,0.5-0.1,0.6c-0.1,0.1-0.3,0.2-0.5,0.2h-0.4L93,25.8v-8.4l0.1-0.1h0.4c0.4,0,0.6,0.2,0.7,0.6
		C94.6,17.5,95.1,17.2,95.8,17.2z M95.5,18.2c-0.6,0-1,0.3-1.4,0.8v3c0.4,0.3,0.9,0.5,1.2,0.5s0.7-0.2,0.9-0.6
		c0.2-0.4,0.4-0.9,0.4-1.6s-0.1-1.2-0.3-1.6S95.8,18.2,95.5,18.2z"/>
	<path fill="#FFFFFF" d="M99,17.9c0.1-0.3,0.2-0.5,0.4-0.6c0.5,0.1,0.9,0.5,1,1.1c0.3-0.7,0.9-1.1,1.6-1.1c0.2,0,0.4,0,0.6,0.1
		c0,0.4-0.1,0.8-0.3,1.1c0,0-0.2,0-0.5,0c-0.6,0-1,0.3-1.3,0.9v3.9c-0.1,0-0.3,0-0.6,0s-0.4,0-0.6,0v-4.2
		C99.4,18.6,99.3,18.2,99,17.9z"/>
	<path fill="#FFFFFF" d="M107.6,17.9c0.6,0.6,0.8,1.4,0.8,2.5s-0.3,1.9-0.8,2.5c-0.4,0.4-1,0.7-1.7,0.7s-1.3-0.2-1.7-0.7
		c-0.6-0.6-0.8-1.4-0.8-2.5s0.3-1.9,0.8-2.5c0.4-0.4,1-0.7,1.7-0.7S107.2,17.4,107.6,17.9z M104.5,20.3c0,1.5,0.5,2.2,1.4,2.2
		s1.4-0.7,1.4-2.2c0-0.4,0-0.8-0.1-1.1c-0.1-0.3-0.2-0.6-0.4-0.8c-0.2-0.2-0.5-0.3-0.8-0.3s-0.6,0.1-0.8,0.3
		c-0.2,0.2-0.4,0.5-0.4,0.8C104.5,19.5,104.5,19.9,104.5,20.3z M105,16.4l1.7-1.9c0.2,0.1,0.3,0.2,0.5,0.3c0.2,0.1,0.3,0.3,0.3,0.5
		l-2,1.6C105.3,16.7,105.1,16.6,105,16.4z"/>
	<path fill="#FFFFFF" d="M112.8,17.2c0.7,0,1.2,0.3,1.5,0.8c0.4,0.6,0.5,1.3,0.5,2.3s-0.2,1.7-0.7,2.3s-1,0.8-1.6,0.8
		c-0.5,0-1-0.1-1.4-0.4v2.1c0,0.3,0,0.5-0.1,0.6c-0.1,0.1-0.3,0.2-0.5,0.2H110l-0.1-0.1v-8.4l0.1-0.1h0.4c0.4,0,0.6,0.2,0.7,0.6
		C111.5,17.5,112.1,17.2,112.8,17.2z M112.5,18.2c-0.6,0-1,0.3-1.4,0.8v3c0.4,0.3,0.9,0.5,1.2,0.5s0.7-0.2,0.9-0.6
		c0.2-0.4,0.4-0.9,0.4-1.6s-0.1-1.2-0.3-1.6S112.8,18.2,112.5,18.2z"/>
	<path fill="#FFFFFF" d="M116,17.9c0.1-0.3,0.2-0.5,0.4-0.6c0.5,0.1,0.9,0.5,1,1.1c0.3-0.7,0.9-1.1,1.6-1.1c0.2,0,0.4,0,0.6,0.1
		c0,0.4-0.1,0.8-0.3,1.1c0,0-0.2,0-0.5,0c-0.6,0-1,0.3-1.3,0.9v3.9c-0.1,0-0.3,0-0.6,0s-0.4,0-0.6,0v-4.2
		C116.4,18.6,116.3,18.2,116,17.9z"/>
	<path fill="#FFFFFF" d="M122.2,18.3v4.9c-0.1,0-0.3,0-0.6,0c-0.2,0-0.4,0-0.6,0v-4.5c0-0.2,0-0.4-0.1-0.5s-0.2-0.1-0.4-0.1h-0.1
		c0-0.1,0-0.3,0-0.4c0-0.2,0-0.3,0-0.4c0.3,0,0.5,0,0.7,0h0.2c0.3,0,0.5,0.1,0.7,0.3C122.1,17.8,122.2,18,122.2,18.3z M120.7,15.7
		c0-0.2,0-0.4,0.1-0.5c0.2-0.1,0.4-0.1,0.7-0.1c0.3,0,0.5,0,0.6,0.1c0.1,0.1,0.1,0.3,0.1,0.5c0,0.2,0,0.4-0.1,0.5
		c-0.1,0.1-0.3,0.1-0.6,0.1c-0.3,0-0.5,0-0.6-0.1C120.7,16.1,120.7,15.9,120.7,15.7z"/>
	<path fill="#FFFFFF" d="M128.6,22.8c-0.1,0.3-0.2,0.5-0.5,0.6c-0.4-0.1-0.7-0.3-0.9-0.8c-0.6,0.6-1.2,0.8-1.8,0.8
		c-0.6,0-1.1-0.2-1.4-0.5c-0.3-0.4-0.5-0.8-0.5-1.2c0-0.7,0.2-1.1,0.6-1.5s1-0.5,1.7-0.5c0.4,0,0.8,0,1.2,0.1v-0.5
		c0-0.7-0.3-1.1-1-1.1c-0.5,0-1.2,0.2-1.9,0.5c-0.2-0.2-0.3-0.5-0.3-0.9c0.8-0.4,1.7-0.6,2.5-0.6c0.6,0,1.1,0.2,1.4,0.5
		c0.3,0.3,0.5,0.8,0.5,1.5v2.5C128.3,22.2,128.4,22.6,128.6,22.8z M125.7,22.5c0.5,0,1-0.3,1.5-0.8v-1.2c-0.3,0-0.7-0.1-1.1-0.1
		c-0.4,0-0.7,0.1-0.9,0.3c-0.2,0.2-0.3,0.4-0.3,0.7c0,0.3,0.1,0.5,0.2,0.7C125.2,22.4,125.4,22.5,125.7,22.5z"/>
	<path fill="#FFFFFF" d="M129.6,22.8c0-0.1,0-0.3,0.1-0.4s0.2-0.3,0.3-0.4c0.7,0.4,1.2,0.5,1.6,0.5c0.4,0,0.7-0.1,0.9-0.2
		c0.2-0.1,0.3-0.3,0.3-0.6c0-0.4-0.3-0.7-0.8-0.9l-0.7-0.3c-1-0.4-1.5-0.9-1.5-1.7c0-0.5,0.2-1,0.6-1.3c0.4-0.3,0.9-0.5,1.6-0.5
		s1.3,0.1,1.9,0.4c0,0.2,0,0.3-0.1,0.5s-0.2,0.3-0.3,0.4c-0.6-0.3-1.1-0.4-1.6-0.4c-0.3,0-0.5,0.1-0.7,0.2c-0.2,0.1-0.3,0.3-0.3,0.5
		c0,0.2,0.1,0.4,0.2,0.5s0.3,0.2,0.6,0.3l0.7,0.3c1,0.4,1.5,1,1.5,1.8c0,0.5-0.2,1-0.6,1.3c-0.4,0.3-1,0.5-1.7,0.5
		S130.3,23.2,129.6,22.8z"/>
	<path fill="#FFFFFF" d="M142.6,22.8c-0.1,0.3-0.2,0.5-0.5,0.6c-0.4-0.1-0.7-0.3-0.9-0.8c-0.6,0.6-1.2,0.8-1.8,0.8
		c-0.6,0-1.1-0.2-1.4-0.5c-0.3-0.4-0.5-0.8-0.5-1.2c0-0.7,0.2-1.1,0.6-1.5s1-0.5,1.7-0.5c0.4,0,0.8,0,1.2,0.1v-0.5
		c0-0.7-0.3-1.1-1-1.1c-0.5,0-1.2,0.2-1.9,0.5c-0.2-0.2-0.3-0.5-0.3-0.9c0.8-0.4,1.7-0.6,2.5-0.6c0.6,0,1.1,0.2,1.4,0.5
		c0.3,0.3,0.5,0.8,0.5,1.5v2.5C142.3,22.2,142.4,22.6,142.6,22.8z M139.6,22.5c0.5,0,1-0.3,1.5-0.8v-1.2c-0.3,0-0.7-0.1-1.1-0.1
		c-0.4,0-0.7,0.1-0.9,0.3c-0.2,0.2-0.3,0.4-0.3,0.7c0,0.3,0.1,0.5,0.2,0.7C139.2,22.4,139.4,22.5,139.6,22.5z"/>
	<path fill="#FFFFFF" d="M146.9,17.4c0,0.1,0,0.3,0,0.4s0,0.3,0,0.4l-1.5,0v3.7c0,0.3,0.2,0.5,0.5,0.5h0.8c0.1,0.2,0.1,0.3,0.1,0.5
		s0,0.3,0,0.3c-0.5,0.1-0.9,0.1-1.3,0.1c-0.8,0-1.2-0.4-1.2-1.2v-3.9l-0.9,0c0-0.1,0-0.3,0-0.4s0-0.3,0-0.4l0.9,0v-1.1
		c0-0.3,0-0.5,0.1-0.6c0.1-0.1,0.3-0.2,0.5-0.2h0.4l0.1,0.1v1.8L146.9,17.4z"/>
	<path fill="#FFFFFF" d="M149.7,18.3v4.9c-0.1,0-0.3,0-0.6,0c-0.2,0-0.4,0-0.6,0v-4.5c0-0.2,0-0.4-0.1-0.5s-0.2-0.1-0.4-0.1h-0.1
		c0-0.1,0-0.3,0-0.4c0-0.2,0-0.3,0-0.4c0.3,0,0.5,0,0.7,0h0.2c0.3,0,0.5,0.1,0.7,0.3C149.6,17.8,149.7,18,149.7,18.3z M148.1,15.7
		c0-0.2,0-0.4,0.1-0.5c0.2-0.1,0.4-0.1,0.7-0.1c0.3,0,0.5,0,0.6,0.1c0.1,0.1,0.1,0.3,0.1,0.5c0,0.2,0,0.4-0.1,0.5
		c-0.1,0.1-0.3,0.1-0.6,0.1c-0.3,0-0.5,0-0.6-0.1C148.2,16.1,148.1,15.9,148.1,15.7z"/>
	<path fill="#FFFFFF" d="M154.4,17.4c0,0.1,0,0.3,0,0.4s0,0.3,0,0.4l-1.5,0v3.7c0,0.3,0.2,0.5,0.5,0.5h0.8c0.1,0.2,0.1,0.3,0.1,0.5
		s0,0.3,0,0.3c-0.5,0.1-0.9,0.1-1.3,0.1c-0.8,0-1.2-0.4-1.2-1.2v-3.9l-0.9,0c0-0.1,0-0.3,0-0.4s0-0.3,0-0.4l0.9,0v-1.1
		c0-0.3,0-0.5,0.1-0.6c0.1-0.1,0.3-0.2,0.5-0.2h0.4l0.1,0.1v1.8L154.4,17.4z"/>
	<path fill="#FFFFFF" d="M155.6,21.4v-2.8c0-0.5-0.1-0.8-0.2-1.1c0.2-0.2,0.4-0.2,0.7-0.2c0.3,0,0.4,0.1,0.5,0.2
		c0.1,0.1,0.1,0.3,0.1,0.6v3.1c0,0.4,0.1,0.7,0.2,0.9c0.1,0.2,0.3,0.3,0.6,0.3c0.3,0,0.6-0.1,0.8-0.2c0.3-0.1,0.5-0.3,0.8-0.6v-4.2
		c0.2,0,0.4,0,0.6,0s0.4,0,0.6,0v4.2c0,0.6,0.1,1,0.3,1.2c-0.1,0.3-0.2,0.5-0.4,0.6c-0.5-0.1-0.8-0.4-0.9-0.9
		c-0.6,0.6-1.3,0.9-2,0.9c-0.5,0-0.9-0.2-1.2-0.5C155.8,22.5,155.6,22,155.6,21.4z"/>
	<path fill="#FFFFFF" d="M163.9,23.4c-0.7,0-1.2-0.3-1.5-0.8c-0.4-0.6-0.5-1.3-0.5-2.3c0-1,0.2-1.7,0.7-2.3c0.5-0.5,1-0.8,1.6-0.8
		c0.4,0,0.9,0.1,1.4,0.4v-3.1l0.1-0.1h0.4c0.2,0,0.4,0.1,0.5,0.2c0.1,0.1,0.1,0.3,0.1,0.6v6.4c0,0.6,0.1,1,0.3,1.2
		c-0.1,0.3-0.2,0.5-0.5,0.6c-0.4-0.1-0.7-0.3-0.9-0.8C165.2,23.2,164.6,23.4,163.9,23.4z M164.1,22.5c0.5,0,1-0.3,1.4-0.8v-3
		c-0.4-0.3-0.9-0.5-1.2-0.5s-0.7,0.2-0.9,0.6c-0.2,0.4-0.4,0.9-0.4,1.6c0,0.7,0.1,1.2,0.3,1.6S163.8,22.5,164.1,22.5z"/>
	<path fill="#FFFFFF" d="M172.9,20.7h-3.6c0,0.6,0.1,1,0.4,1.3c0.2,0.3,0.6,0.5,1.1,0.5s1.1-0.2,1.7-0.5c0.2,0.2,0.3,0.4,0.4,0.8
		c-0.6,0.4-1.4,0.7-2.3,0.7c-0.9,0-1.5-0.3-1.9-0.9s-0.6-1.3-0.6-2.3s0.2-1.7,0.6-2.3c0.4-0.6,1-0.9,1.8-0.9c0.8,0,1.4,0.2,1.8,0.7
		c0.4,0.5,0.6,1.1,0.6,1.8C173,20.1,173,20.4,172.9,20.7z M171.6,18.5c-0.2-0.3-0.5-0.5-0.9-0.5s-0.7,0.2-0.9,0.5
		c-0.2,0.3-0.3,0.7-0.4,1.3h2.5v-0.2C171.9,19.2,171.8,18.8,171.6,18.5z"/>
	<path fill="#FFFFFF" d="M174,22.8c0-0.1,0-0.3,0.1-0.4s0.2-0.3,0.3-0.4c0.7,0.4,1.2,0.5,1.6,0.5c0.4,0,0.7-0.1,0.9-0.2
		c0.2-0.1,0.3-0.3,0.3-0.6c0-0.4-0.3-0.7-0.8-0.9l-0.7-0.3c-1-0.4-1.5-0.9-1.5-1.7c0-0.5,0.2-1,0.6-1.3c0.4-0.3,0.9-0.5,1.6-0.5
		s1.3,0.1,1.9,0.4c0,0.2,0,0.3-0.1,0.5s-0.2,0.3-0.3,0.4c-0.6-0.3-1.1-0.4-1.6-0.4c-0.3,0-0.5,0.1-0.7,0.2c-0.2,0.1-0.3,0.3-0.3,0.5
		c0,0.2,0.1,0.4,0.2,0.5s0.3,0.2,0.6,0.3l0.7,0.3c1,0.4,1.5,1,1.5,1.8c0,0.5-0.2,1-0.6,1.3c-0.4,0.3-1,0.5-1.7,0.5
		S174.7,23.2,174,22.8z"/>
	<path fill="#FFFFFF" d="M179.6,25.2c-0.2-0.1-0.3-0.3-0.3-0.5c0,0,0-0.1,0-0.1c0.3-0.1,0.5-0.3,0.7-0.5c0.2-0.2,0.3-0.4,0.3-0.7
		c-0.2-0.1-0.4-0.1-0.5-0.2c-0.1-0.1-0.1-0.3-0.1-0.6c0-0.3,0-0.5,0.1-0.6c0.2-0.1,0.4-0.2,0.7-0.2s0.5,0.1,0.7,0.2
		c0.1,0.2,0.1,0.4,0.1,0.8c0,0.5-0.1,1-0.4,1.4S180.2,25,179.6,25.2z"/>
	<path fill="#FFFFFF" d="M187.3,23.4c-0.6,0-1.1-0.3-1.5-0.8c-0.4-0.5-0.5-1.3-0.5-2.3s0.2-1.7,0.7-2.3c0.5-0.5,1-0.8,1.6-0.8
		s1.2,0.2,1.7,0.6c0.2-0.3,0.4-0.5,0.8-0.6c0.2,0.1,0.4,0.3,0.5,0.6c-0.2,0.2-0.3,0.6-0.3,1.2v3.6c0,1.2-0.2,2-0.6,2.5
		c-0.4,0.5-1.1,0.8-2,0.8c-0.7,0-1.4-0.1-2.1-0.4c0-0.4,0.1-0.7,0.3-0.9c0.5,0.3,1.1,0.4,1.6,0.4s1-0.2,1.2-0.5
		c0.2-0.3,0.3-0.7,0.3-1.3v-0.6C188.5,23.2,187.9,23.4,187.3,23.4z M189,21.6v-2.9c-0.4-0.4-0.8-0.6-1.2-0.6c-0.4,0-0.7,0.2-1,0.6
		c-0.2,0.4-0.4,0.9-0.4,1.6s0.1,1.2,0.3,1.6s0.5,0.5,0.8,0.5C188.1,22.4,188.6,22.2,189,21.6z"/>
	<path fill="#FFFFFF" d="M196.4,20.7h-3.6c0,0.6,0.1,1,0.4,1.3c0.2,0.3,0.6,0.5,1.1,0.5s1.1-0.2,1.7-0.5c0.2,0.2,0.3,0.4,0.4,0.8
		c-0.6,0.4-1.4,0.7-2.3,0.7c-0.9,0-1.5-0.3-1.9-0.9s-0.6-1.3-0.6-2.3s0.2-1.7,0.6-2.3c0.4-0.6,1-0.9,1.8-0.9c0.8,0,1.4,0.2,1.8,0.7
		c0.4,0.5,0.6,1.1,0.6,1.8C196.4,20.1,196.4,20.4,196.4,20.7z M195,18.5c-0.2-0.3-0.5-0.5-0.9-0.5s-0.7,0.2-0.9,0.5
		c-0.2,0.3-0.3,0.7-0.4,1.3h2.5v-0.2C195.3,19.2,195.2,18.8,195,18.5z"/>
	<path fill="#FFFFFF" d="M197.7,17.9c0.1-0.3,0.2-0.5,0.4-0.6c0.5,0.1,0.9,0.5,1,1.1c0.3-0.7,0.9-1.1,1.6-1.1c0.2,0,0.4,0,0.6,0.1
		c0,0.4-0.1,0.8-0.3,1.1c0,0-0.2,0-0.5,0c-0.6,0-1,0.3-1.3,0.9v3.9c-0.1,0-0.3,0-0.6,0s-0.4,0-0.6,0v-4.2
		C198.1,18.6,198,18.2,197.7,17.9z"/>
	<path fill="#FFFFFF" d="M206.7,20.7h-3.6c0,0.6,0.1,1,0.4,1.3c0.2,0.3,0.6,0.5,1.1,0.5s1.1-0.2,1.7-0.5c0.2,0.2,0.3,0.4,0.4,0.8
		c-0.6,0.4-1.4,0.7-2.3,0.7c-0.9,0-1.5-0.3-1.9-0.9s-0.6-1.3-0.6-2.3s0.2-1.7,0.6-2.3c0.4-0.6,1-0.9,1.8-0.9c0.8,0,1.4,0.2,1.8,0.7
		c0.4,0.5,0.6,1.1,0.6,1.8C206.8,20.1,206.8,20.4,206.7,20.7z M205.4,18.5c-0.2-0.3-0.5-0.5-0.9-0.5s-0.7,0.2-0.9,0.5
		c-0.2,0.3-0.3,0.7-0.4,1.3h2.5v-0.2C205.7,19.2,205.6,18.8,205.4,18.5z"/>
	<path fill="#FFFFFF" d="M213.1,19.2V22c0,0.5,0.1,0.8,0.2,1.1c-0.2,0.2-0.4,0.3-0.7,0.3c-0.4,0-0.6-0.2-0.6-0.7v-3.1
		c0-0.4-0.1-0.7-0.2-0.9c-0.1-0.2-0.3-0.3-0.6-0.3c-0.3,0-0.6,0.1-0.9,0.2c-0.3,0.1-0.5,0.3-0.8,0.6v4.2c-0.1,0-0.3,0-0.6,0
		s-0.4,0-0.6,0v-5.9l0.1-0.1h0.4c0.4,0,0.6,0.3,0.6,0.8c0.6-0.5,1.2-0.8,1.9-0.8c0.5,0,0.9,0.2,1.2,0.5
		C213,18.2,213.1,18.6,213.1,19.2z"/>
	<path fill="#FFFFFF" d="M218.1,19.6c0,0,0-0.1,0-0.1c0-0.9-0.4-1.4-1.1-1.4c-0.4,0-0.7,0.2-0.9,0.6c-0.2,0.4-0.3,0.9-0.3,1.7
		c0,1.4,0.5,2.1,1.4,2.1c0.4,0,0.9-0.2,1.5-0.6c0.1,0.1,0.2,0.2,0.3,0.3c0.1,0.1,0.2,0.3,0.2,0.4c-0.6,0.6-1.3,0.9-2.1,0.9
		s-1.4-0.3-1.8-0.9c-0.4-0.6-0.6-1.4-0.6-2.3s0.2-1.7,0.7-2.2c0.5-0.5,1.1-0.8,1.8-0.8c0.7,0,1.2,0.2,1.6,0.6s0.6,0.8,0.6,1.2
		s-0.2,0.7-0.6,0.7C218.4,19.7,218.2,19.6,218.1,19.6z"/>
	<path fill="#FFFFFF" d="M222,18.3v4.9c-0.1,0-0.3,0-0.6,0c-0.2,0-0.4,0-0.6,0v-4.5c0-0.2,0-0.4-0.1-0.5s-0.2-0.1-0.4-0.1h-0.1
		c0-0.1,0-0.3,0-0.4c0-0.2,0-0.3,0-0.4c0.3,0,0.5,0,0.7,0h0.2c0.3,0,0.5,0.1,0.7,0.3C221.9,17.8,222,18,222,18.3z M220.5,15.7
		c0-0.2,0-0.4,0.1-0.5c0.2-0.1,0.4-0.1,0.7-0.1c0.3,0,0.5,0,0.6,0.1c0.1,0.1,0.1,0.3,0.1,0.5c0,0.2,0,0.4-0.1,0.5
		c-0.1,0.1-0.3,0.1-0.6,0.1c-0.3,0-0.5,0-0.6-0.1C220.5,16.1,220.5,15.9,220.5,15.7z"/>
	<path fill="#FFFFFF" d="M228.5,22.8c-0.1,0.3-0.2,0.5-0.5,0.6c-0.4-0.1-0.7-0.3-0.9-0.8c-0.6,0.6-1.2,0.8-1.8,0.8
		c-0.6,0-1.1-0.2-1.4-0.5c-0.3-0.4-0.5-0.8-0.5-1.2c0-0.7,0.2-1.1,0.6-1.5s1-0.5,1.7-0.5c0.4,0,0.8,0,1.2,0.1v-0.5
		c0-0.7-0.3-1.1-1-1.1c-0.5,0-1.2,0.2-1.9,0.5c-0.2-0.2-0.3-0.5-0.3-0.9c0.8-0.4,1.7-0.6,2.5-0.6c0.6,0,1.1,0.2,1.4,0.5
		c0.3,0.3,0.5,0.8,0.5,1.5v2.5C228.1,22.2,228.3,22.6,228.5,22.8z M225.5,22.5c0.5,0,1-0.3,1.5-0.8v-1.2c-0.3,0-0.7-0.1-1.1-0.1
		c-0.4,0-0.7,0.1-0.9,0.3c-0.2,0.2-0.3,0.4-0.3,0.7c0,0.3,0.1,0.5,0.2,0.7C225.1,22.4,225.3,22.5,225.5,22.5z"/>
	<path fill="#FFFFFF" d="M234.7,19.2V22c0,0.5,0.1,0.8,0.2,1.1c-0.2,0.2-0.4,0.3-0.7,0.3c-0.4,0-0.6-0.2-0.6-0.7v-3.1
		c0-0.4-0.1-0.7-0.2-0.9c-0.1-0.2-0.3-0.3-0.6-0.3c-0.3,0-0.6,0.1-0.9,0.2c-0.3,0.1-0.5,0.3-0.8,0.6v4.2c-0.1,0-0.3,0-0.6,0
		s-0.4,0-0.6,0v-5.9l0.1-0.1h0.4c0.4,0,0.6,0.3,0.6,0.8c0.6-0.5,1.2-0.8,1.9-0.8c0.5,0,0.9,0.2,1.2,0.5
		C234.6,18.2,234.7,18.6,234.7,19.2z"/>
	<path fill="#FFFFFF" d="M238.2,23.4c-0.7,0-1.2-0.3-1.5-0.8c-0.4-0.6-0.5-1.3-0.5-2.3c0-1,0.2-1.7,0.7-2.3c0.5-0.5,1-0.8,1.6-0.8
		c0.4,0,0.9,0.1,1.4,0.4v-3.1l0.1-0.1h0.4c0.2,0,0.4,0.1,0.5,0.2c0.1,0.1,0.1,0.3,0.1,0.6v6.4c0,0.6,0.1,1,0.3,1.2
		c-0.1,0.3-0.2,0.5-0.5,0.6c-0.4-0.1-0.7-0.3-0.9-0.8C239.5,23.2,238.9,23.4,238.2,23.4z M238.5,22.5c0.5,0,1-0.3,1.4-0.8v-3
		c-0.4-0.3-0.9-0.5-1.2-0.5s-0.7,0.2-0.9,0.6c-0.2,0.4-0.4,0.9-0.4,1.6c0,0.7,0.1,1.2,0.3,1.6S238.1,22.5,238.5,22.5z"/>
	<path fill="#FFFFFF" d="M246.8,17.9c0.6,0.6,0.8,1.4,0.8,2.5s-0.3,1.9-0.8,2.5c-0.4,0.4-1,0.7-1.7,0.7s-1.3-0.2-1.7-0.7
		c-0.6-0.6-0.8-1.4-0.8-2.5s0.3-1.9,0.8-2.5c0.4-0.4,1-0.7,1.7-0.7S246.4,17.4,246.8,17.9z M243.7,20.3c0,1.5,0.5,2.2,1.4,2.2
		s1.4-0.7,1.4-2.2c0-0.4,0-0.8-0.1-1.1c-0.1-0.3-0.2-0.6-0.4-0.8c-0.2-0.2-0.5-0.3-0.8-0.3s-0.6,0.1-0.8,0.3
		c-0.2,0.2-0.4,0.5-0.4,0.8C243.7,19.5,243.7,19.9,243.7,20.3z"/>
	<path fill="#FFFFFF" d="M3.9,34c0,0,0-0.1,0-0.1c0-0.9-0.4-1.4-1.1-1.4c-0.4,0-0.7,0.2-0.9,0.6c-0.2,0.4-0.3,0.9-0.3,1.7
		c0,1.4,0.5,2.1,1.4,2.1c0.4,0,0.9-0.2,1.5-0.6c0.1,0.1,0.2,0.2,0.3,0.3c0.1,0.1,0.2,0.3,0.2,0.4c-0.6,0.6-1.3,0.9-2.1,0.9
		S1.3,37.5,0.9,37c-0.4-0.6-0.6-1.4-0.6-2.3s0.2-1.7,0.7-2.2c0.5-0.5,1.1-0.8,1.8-0.8c0.7,0,1.2,0.2,1.6,0.6s0.6,0.8,0.6,1.2
		s-0.2,0.7-0.6,0.7C4.1,34.1,4,34,3.9,34z"/>
	<path fill="#FFFFFF" d="M10.2,32.3c0.6,0.6,0.8,1.4,0.8,2.5s-0.3,1.9-0.8,2.5c-0.4,0.4-1,0.7-1.7,0.7s-1.3-0.2-1.7-0.7
		c-0.6-0.6-0.8-1.4-0.8-2.5s0.3-1.9,0.8-2.5c0.4-0.4,1-0.7,1.7-0.7S9.8,31.8,10.2,32.3z M7.1,34.7c0,1.5,0.5,2.2,1.4,2.2
		s1.4-0.7,1.4-2.2c0-0.4,0-0.8-0.1-1.1c-0.1-0.3-0.2-0.6-0.4-0.8c-0.2-0.2-0.5-0.3-0.8-0.3s-0.6,0.1-0.8,0.3
		c-0.2,0.2-0.4,0.5-0.4,0.8C7.2,33.9,7.1,34.3,7.1,34.7z"/>
	<path fill="#FFFFFF" d="M17.3,33.6v2.8c0,0.5,0.1,0.8,0.2,1.1c-0.2,0.2-0.4,0.3-0.7,0.3c-0.4,0-0.6-0.2-0.6-0.7v-3.1
		c0-0.4-0.1-0.7-0.2-0.9c-0.1-0.2-0.3-0.3-0.6-0.3c-0.3,0-0.6,0.1-0.9,0.2c-0.3,0.1-0.5,0.3-0.8,0.6v4.2c-0.1,0-0.3,0-0.6,0
		s-0.4,0-0.6,0v-5.9l0.1-0.1h0.4c0.4,0,0.6,0.3,0.6,0.8c0.6-0.5,1.2-0.8,1.9-0.8c0.5,0,0.9,0.2,1.2,0.5C17.1,32.6,17.3,33,17.3,33.6
		z"/>
	<path fill="#FFFFFF" d="M19.4,37.7v-5.1l-1,0c0-0.2,0-0.3,0-0.4c0-0.1,0-0.3,0-0.4l1,0c-0.1-0.4-0.1-0.8-0.1-1.1
		c0-0.5,0.2-1,0.5-1.3c0.3-0.3,0.8-0.5,1.3-0.5c0.6,0,1.1,0.1,1.5,0.3c0,0.3-0.1,0.6-0.3,0.8c-0.4-0.1-0.8-0.2-1-0.2
		s-0.5,0.1-0.7,0.3c-0.2,0.2-0.2,0.4-0.2,0.7c0,0.3,0,0.7,0.1,1.1l1.7,0c0,0.2,0,0.3,0,0.4c0,0.1,0,0.2,0,0.4l-1.6,0v5.1
		c-0.2,0-0.3,0-0.6,0S19.6,37.7,19.4,37.7z"/>
	<path fill="#FFFFFF" d="M24.7,36.8h0.5c0.1,0.2,0.1,0.3,0.1,0.5c0,0.1,0,0.3,0,0.4c-0.3,0.1-0.7,0.1-1,0.1c-0.8,0-1.1-0.4-1.1-1.2
		v-7.6l0.1-0.1h0.4c0.2,0,0.4,0.1,0.5,0.2c0.1,0.1,0.1,0.3,0.1,0.6v6.7C24.2,36.6,24.4,36.8,24.7,36.8z"/>
	<path fill="#FFFFFF" d="M27.9,32.7v4.9c-0.1,0-0.3,0-0.6,0c-0.2,0-0.4,0-0.6,0v-4.5c0-0.2,0-0.4-0.1-0.5s-0.2-0.1-0.4-0.1h-0.1
		c0-0.1,0-0.3,0-0.4c0-0.2,0-0.3,0-0.4c0.3,0,0.5,0,0.7,0H27c0.3,0,0.5,0.1,0.7,0.3C27.8,32.2,27.9,32.4,27.9,32.7z M26.4,30.1
		c0-0.2,0-0.4,0.1-0.5c0.2-0.1,0.4-0.1,0.7-0.1c0.3,0,0.5,0,0.6,0.1c0.1,0.1,0.1,0.3,0.1,0.5c0,0.2,0,0.4-0.1,0.5
		c-0.1,0.1-0.3,0.1-0.6,0.1c-0.3,0-0.5,0-0.6-0.1C26.4,30.5,26.4,30.3,26.4,30.1z"/>
	<path fill="#FFFFFF" d="M32.6,31.8c0,0.1,0,0.3,0,0.4s0,0.3,0,0.4l-1.5,0v3.7c0,0.3,0.2,0.5,0.5,0.5h0.8c0.1,0.2,0.1,0.3,0.1,0.5
		s0,0.3,0,0.3c-0.5,0.1-0.9,0.1-1.3,0.1c-0.8,0-1.2-0.4-1.2-1.2v-3.9l-0.9,0c0-0.1,0-0.3,0-0.4s0-0.3,0-0.4l0.9,0v-1.1
		c0-0.3,0-0.5,0.1-0.6c0.1-0.1,0.3-0.2,0.5-0.2H31l0.1,0.1v1.8L32.6,31.8z"/>
	<path fill="#FFFFFF" d="M37.8,32.3c0.6,0.6,0.8,1.4,0.8,2.5s-0.3,1.9-0.8,2.5c-0.4,0.4-1,0.7-1.7,0.7s-1.3-0.2-1.7-0.7
		c-0.6-0.6-0.8-1.4-0.8-2.5s0.3-1.9,0.8-2.5c0.4-0.4,1-0.7,1.7-0.7S37.4,31.8,37.8,32.3z M34.7,34.7c0,1.5,0.5,2.2,1.4,2.2
		s1.4-0.7,1.4-2.2c0-0.4,0-0.8-0.1-1.1c-0.1-0.3-0.2-0.6-0.4-0.8c-0.2-0.2-0.5-0.3-0.8-0.3s-0.6,0.1-0.8,0.3
		c-0.2,0.2-0.4,0.5-0.4,0.8C34.8,33.9,34.7,34.3,34.7,34.7z"/>
	<path fill="#FFFFFF" d="M39.6,37.2c0-0.1,0-0.3,0.1-0.4s0.2-0.3,0.3-0.4c0.7,0.4,1.2,0.5,1.6,0.5c0.4,0,0.7-0.1,0.9-0.2
		c0.2-0.1,0.3-0.3,0.3-0.6c0-0.4-0.3-0.7-0.8-0.9l-0.7-0.3c-1-0.4-1.5-0.9-1.5-1.7c0-0.5,0.2-1,0.6-1.3c0.4-0.3,0.9-0.5,1.6-0.5
		s1.3,0.1,1.9,0.4c0,0.2,0,0.3-0.1,0.5s-0.2,0.3-0.3,0.4c-0.6-0.3-1.1-0.4-1.6-0.4c-0.3,0-0.5,0.1-0.7,0.2C41.1,32.8,41,33,41,33.2
		c0,0.2,0.1,0.4,0.2,0.5s0.3,0.2,0.6,0.3l0.7,0.3c1,0.4,1.5,1,1.5,1.8c0,0.5-0.2,1-0.6,1.3c-0.4,0.3-1,0.5-1.7,0.5
		S40.3,37.6,39.6,37.2z"/>
	<path fill="#FFFFFF" d="M52.4,35.1h-3.6c0,0.6,0.1,1,0.4,1.3c0.2,0.3,0.6,0.5,1.1,0.5s1.1-0.2,1.7-0.5c0.2,0.2,0.3,0.4,0.4,0.8
		c-0.6,0.4-1.4,0.7-2.3,0.7c-0.9,0-1.5-0.3-1.9-0.9s-0.6-1.3-0.6-2.3s0.2-1.7,0.6-2.3c0.4-0.6,1-0.9,1.8-0.9c0.8,0,1.4,0.2,1.8,0.7
		c0.4,0.5,0.6,1.1,0.6,1.8C52.5,34.5,52.5,34.8,52.4,35.1z M51.1,32.9c-0.2-0.3-0.5-0.5-0.9-0.5s-0.7,0.2-0.9,0.5
		c-0.2,0.3-0.3,0.7-0.4,1.3h2.5v-0.2C51.4,33.6,51.3,33.2,51.1,32.9z"/>
	<path fill="#FFFFFF" d="M60,33.9c0-0.4-0.1-0.7-0.2-0.9c-0.1-0.2-0.3-0.3-0.6-0.3c-0.5,0-0.9,0.3-1.4,0.8v4.2c-0.1,0-0.3,0-0.6,0
		s-0.4,0-0.6,0v-5.9l0.1-0.1h0.4c0.4,0,0.6,0.3,0.6,0.8c0.5-0.5,1.1-0.8,1.7-0.8s1.1,0.3,1.3,0.9c0.6-0.6,1.3-0.9,1.9-0.9
		c0.5,0,0.9,0.2,1.1,0.5c0.3,0.4,0.4,0.8,0.4,1.3v2.9c0,0.5,0.1,0.8,0.2,1.1c-0.2,0.2-0.4,0.3-0.7,0.3c-0.4,0-0.6-0.2-0.6-0.7v-3.1
		c0-0.4-0.1-0.7-0.2-0.9c-0.1-0.2-0.3-0.3-0.6-0.3c-0.5,0-0.9,0.3-1.4,0.8v4.2c-0.1,0-0.3,0-0.6,0s-0.4,0-0.6,0V33.9z"/>
	<path fill="#FFFFFF" d="M66.2,35.8V33c0-0.5-0.1-0.8-0.2-1.1c0.2-0.2,0.4-0.2,0.7-0.2c0.3,0,0.4,0.1,0.5,0.2
		c0.1,0.1,0.1,0.3,0.1,0.6v3.1c0,0.4,0.1,0.7,0.2,0.9c0.1,0.2,0.3,0.3,0.6,0.3c0.3,0,0.6-0.1,0.8-0.2c0.3-0.1,0.5-0.3,0.8-0.6v-4.2
		c0.2,0,0.4,0,0.6,0s0.4,0,0.6,0V36c0,0.6,0.1,1,0.3,1.2c-0.1,0.3-0.2,0.5-0.4,0.6c-0.5-0.1-0.8-0.4-0.9-0.9c-0.6,0.6-1.3,0.9-2,0.9
		c-0.5,0-0.9-0.2-1.2-0.5C66.3,36.9,66.2,36.4,66.2,35.8z"/>
	<path fill="#FFFFFF" d="M74.5,37.8c-0.7,0-1.2-0.3-1.5-0.8c-0.4-0.6-0.5-1.3-0.5-2.3c0-1,0.2-1.7,0.7-2.3c0.5-0.5,1-0.8,1.6-0.8
		c0.4,0,0.9,0.1,1.4,0.4v-3.1l0.1-0.1h0.4c0.2,0,0.4,0.1,0.5,0.2c0.1,0.1,0.1,0.3,0.1,0.6V36c0,0.6,0.1,1,0.3,1.2
		c-0.1,0.3-0.2,0.5-0.5,0.6c-0.4-0.1-0.7-0.3-0.9-0.8C75.7,37.6,75.2,37.8,74.5,37.8z M74.7,36.9c0.5,0,1-0.3,1.4-0.8v-3
		c-0.4-0.3-0.9-0.5-1.2-0.5s-0.7,0.2-0.9,0.6c-0.2,0.4-0.4,0.9-0.4,1.6c0,0.7,0.1,1.2,0.3,1.6S74.4,36.9,74.7,36.9z"/>
	<path fill="#FFFFFF" d="M83.7,37.2c-0.1,0.3-0.2,0.5-0.5,0.6c-0.4-0.1-0.7-0.3-0.9-0.8c-0.6,0.6-1.2,0.8-1.8,0.8
		c-0.6,0-1.1-0.2-1.4-0.5c-0.3-0.4-0.5-0.8-0.5-1.2c0-0.7,0.2-1.1,0.6-1.5s1-0.5,1.7-0.5c0.4,0,0.8,0,1.2,0.1v-0.5
		c0-0.7-0.3-1.1-1-1.1c-0.5,0-1.2,0.2-1.9,0.5c-0.2-0.2-0.3-0.5-0.3-0.9c0.8-0.4,1.7-0.6,2.5-0.6c0.6,0,1.1,0.2,1.4,0.5
		c0.3,0.3,0.5,0.8,0.5,1.5v2.5C83.4,36.6,83.5,37,83.7,37.2z M80.8,36.9c0.5,0,1-0.3,1.5-0.8V35c-0.3,0-0.7-0.1-1.1-0.1
		c-0.4,0-0.7,0.1-0.9,0.3c-0.2,0.2-0.3,0.4-0.3,0.7c0,0.3,0.1,0.5,0.2,0.7C80.3,36.8,80.5,36.9,80.8,36.9z"/>
	<path fill="#FFFFFF" d="M89.9,33.6v2.8c0,0.5,0.1,0.8,0.2,1.1c-0.2,0.2-0.4,0.3-0.7,0.3c-0.4,0-0.6-0.2-0.6-0.7v-3.1
		c0-0.4-0.1-0.7-0.2-0.9c-0.1-0.2-0.3-0.3-0.6-0.3c-0.3,0-0.6,0.1-0.9,0.2c-0.3,0.1-0.5,0.3-0.8,0.6v4.2c-0.1,0-0.3,0-0.6,0
		s-0.4,0-0.6,0v-5.9l0.1-0.1h0.4c0.4,0,0.6,0.3,0.6,0.8c0.6-0.5,1.2-0.8,1.9-0.8c0.5,0,0.9,0.2,1.2,0.5C89.8,32.6,89.9,33,89.9,33.6
		z"/>
	<path fill="#FFFFFF" d="M93.2,38.6c0-0.2,0.1-0.5,0.3-0.8c-0.7-0.1-1.2-0.4-1.5-1c-0.3-0.6-0.5-1.3-0.5-2.1c0-1,0.2-1.8,0.7-2.4
		c0.5-0.5,1.1-0.8,1.8-0.8c0.7,0,1.2,0.2,1.6,0.6s0.6,0.8,0.6,1.2s-0.2,0.7-0.6,0.7c-0.2,0-0.3,0-0.5,0c0,0,0-0.1,0-0.1
		c0-0.9-0.4-1.4-1.1-1.4c-0.4,0-0.7,0.2-0.9,0.6c-0.2,0.4-0.3,0.9-0.3,1.7c0,1.4,0.5,2.1,1.4,2.1c0.4,0,0.9-0.2,1.5-0.6
		c0.1,0.1,0.2,0.2,0.3,0.3c0.1,0.1,0.2,0.3,0.2,0.4c-0.5,0.5-1.1,0.8-1.8,0.9c-0.1,0.1-0.1,0.2-0.1,0.3c0.3,0,0.6,0.1,0.8,0.3
		c0.2,0.2,0.3,0.4,0.3,0.8c0,0.3-0.1,0.6-0.4,0.8c-0.3,0.2-0.6,0.3-1,0.3c-0.4,0-0.7-0.1-1-0.2c0-0.2,0.1-0.4,0.2-0.6
		c0.2,0.1,0.4,0.2,0.6,0.2s0.3,0,0.4-0.1c0.1-0.1,0.1-0.2,0.1-0.3s0-0.3-0.1-0.3c-0.1-0.1-0.2-0.1-0.3-0.1c-0.1,0-0.2,0-0.3,0.1
		C93.3,38.7,93.2,38.7,93.2,38.6z"/>
	<path fill="#FFFFFF" d="M102,37.2c-0.1,0.3-0.2,0.5-0.5,0.6c-0.4-0.1-0.7-0.3-0.9-0.8c-0.6,0.6-1.2,0.8-1.8,0.8
		c-0.6,0-1.1-0.2-1.4-0.5C97.2,37,97,36.5,97,36.1c0-0.7,0.2-1.1,0.6-1.5s1-0.5,1.7-0.5c0.4,0,0.8,0,1.2,0.1v-0.5
		c0-0.7-0.3-1.1-1-1.1c-0.5,0-1.2,0.2-1.9,0.5c-0.2-0.2-0.3-0.5-0.3-0.9c0.8-0.4,1.7-0.6,2.5-0.6c0.6,0,1.1,0.2,1.4,0.5
		c0.3,0.3,0.5,0.8,0.5,1.5v2.5C101.7,36.6,101.8,37,102,37.2z M99,36.9c0.5,0,1-0.3,1.5-0.8V35c-0.3,0-0.7-0.1-1.1-0.1
		c-0.4,0-0.7,0.1-0.9,0.3c-0.2,0.2-0.3,0.4-0.3,0.7c0,0.3,0.1,0.5,0.2,0.7C98.6,36.8,98.8,36.9,99,36.9z"/>
	<path fill="#FFFFFF" d="M102.9,37.2c0-0.1,0-0.3,0.1-0.4s0.2-0.3,0.3-0.4c0.7,0.4,1.2,0.5,1.6,0.5c0.4,0,0.7-0.1,0.9-0.2
		c0.2-0.1,0.3-0.3,0.3-0.6c0-0.4-0.3-0.7-0.8-0.9l-0.7-0.3c-1-0.4-1.5-0.9-1.5-1.7c0-0.5,0.2-1,0.6-1.3c0.4-0.3,0.9-0.5,1.6-0.5
		s1.3,0.1,1.9,0.4c0,0.2,0,0.3-0.1,0.5s-0.2,0.3-0.3,0.4c-0.6-0.3-1.1-0.4-1.6-0.4c-0.3,0-0.5,0.1-0.7,0.2c-0.2,0.1-0.3,0.3-0.3,0.5
		c0,0.2,0.1,0.4,0.2,0.5s0.3,0.2,0.6,0.3l0.7,0.3c1,0.4,1.5,1,1.5,1.8c0,0.5-0.2,1-0.6,1.3c-0.4,0.3-1,0.5-1.7,0.5
		S103.6,37.6,102.9,37.2z"/>
	<path fill="#FFFFFF" d="M108.5,39.6c-0.2-0.1-0.3-0.3-0.3-0.5c0,0,0-0.1,0-0.1c0.3-0.1,0.5-0.3,0.7-0.5c0.2-0.2,0.3-0.4,0.3-0.7
		c-0.2-0.1-0.4-0.1-0.5-0.2c-0.1-0.1-0.1-0.3-0.1-0.6c0-0.3,0-0.5,0.1-0.6c0.2-0.1,0.4-0.2,0.7-0.2s0.5,0.1,0.7,0.2
		c0.1,0.2,0.1,0.4,0.1,0.8c0,0.5-0.1,1-0.4,1.4S109.1,39.4,108.5,39.6z"/>
	<path fill="#FFFFFF" d="M117.4,31.6c0.7,0,1.2,0.3,1.5,0.8c0.4,0.6,0.5,1.3,0.5,2.3s-0.2,1.7-0.7,2.3s-1,0.8-1.6,0.8
		c-0.5,0-1-0.1-1.4-0.4v2.1c0,0.3,0,0.5-0.1,0.6c-0.1,0.1-0.3,0.2-0.5,0.2h-0.4l-0.1-0.1v-8.4l0.1-0.1h0.4c0.4,0,0.6,0.2,0.7,0.6
		C116.2,31.9,116.8,31.6,117.4,31.6z M117.1,32.6c-0.6,0-1,0.3-1.4,0.8v3c0.4,0.3,0.9,0.5,1.2,0.5s0.7-0.2,0.9-0.6
		c0.2-0.4,0.4-0.9,0.4-1.6s-0.1-1.2-0.3-1.6S117.5,32.6,117.1,32.6z"/>
	<path fill="#FFFFFF" d="M122.5,36.8h0.5c0.1,0.2,0.1,0.3,0.1,0.5c0,0.1,0,0.3,0,0.4c-0.3,0.1-0.7,0.1-1,0.1c-0.8,0-1.1-0.4-1.1-1.2
		v-7.6l0.1-0.1h0.4c0.2,0,0.4,0.1,0.5,0.2c0.1,0.1,0.1,0.3,0.1,0.6v6.7C122.1,36.6,122.2,36.8,122.5,36.8z"/>
	<path fill="#FFFFFF" d="M129,37.2c-0.1,0.3-0.2,0.5-0.5,0.6c-0.4-0.1-0.7-0.3-0.9-0.8c-0.6,0.6-1.2,0.8-1.8,0.8
		c-0.6,0-1.1-0.2-1.4-0.5c-0.3-0.4-0.5-0.8-0.5-1.2c0-0.7,0.2-1.1,0.6-1.5s1-0.5,1.7-0.5c0.4,0,0.8,0,1.2,0.1v-0.5
		c0-0.7-0.3-1.1-1-1.1c-0.5,0-1.2,0.2-1.9,0.5c-0.2-0.2-0.3-0.5-0.3-0.9c0.8-0.4,1.7-0.6,2.5-0.6c0.6,0,1.1,0.2,1.4,0.5
		c0.3,0.3,0.5,0.8,0.5,1.5v2.5C128.6,36.6,128.8,37,129,37.2z M126,36.9c0.5,0,1-0.3,1.5-0.8V35c-0.3,0-0.7-0.1-1.1-0.1
		c-0.4,0-0.7,0.1-0.9,0.3c-0.2,0.2-0.3,0.4-0.3,0.7c0,0.3,0.1,0.5,0.2,0.7C125.6,36.8,125.8,36.9,126,36.9z"/>
	<path fill="#FFFFFF" d="M135.2,33.6v2.8c0,0.5,0.1,0.8,0.2,1.1c-0.2,0.2-0.4,0.3-0.7,0.3c-0.4,0-0.6-0.2-0.6-0.7v-3.1
		c0-0.4-0.1-0.7-0.2-0.9c-0.1-0.2-0.3-0.3-0.6-0.3c-0.3,0-0.6,0.1-0.9,0.2c-0.3,0.1-0.5,0.3-0.8,0.6v4.2c-0.1,0-0.3,0-0.6,0
		s-0.4,0-0.6,0v-5.9l0.1-0.1h0.4c0.4,0,0.6,0.3,0.6,0.8c0.6-0.5,1.2-0.8,1.9-0.8c0.5,0,0.9,0.2,1.2,0.5
		C135.1,32.6,135.2,33,135.2,33.6z"/>
	<path fill="#FFFFFF" d="M141.4,35.1h-3.6c0,0.6,0.1,1,0.4,1.3c0.2,0.3,0.6,0.5,1.1,0.5s1.1-0.2,1.7-0.5c0.2,0.2,0.3,0.4,0.4,0.8
		c-0.6,0.4-1.4,0.7-2.3,0.7c-0.9,0-1.5-0.3-1.9-0.9s-0.6-1.3-0.6-2.3s0.2-1.7,0.6-2.3c0.4-0.6,1-0.9,1.8-0.9c0.8,0,1.4,0.2,1.8,0.7
		c0.4,0.5,0.6,1.1,0.6,1.8C141.5,34.5,141.5,34.8,141.4,35.1z M140.1,32.9c-0.2-0.3-0.5-0.5-0.9-0.5s-0.7,0.2-0.9,0.5
		c-0.2,0.3-0.3,0.7-0.4,1.3h2.5v-0.2C140.4,33.6,140.3,33.2,140.1,32.9z"/>
	<path fill="#FFFFFF" d="M144.5,32.7v4.7c0,0.7,0,1.2-0.1,1.5s-0.2,0.5-0.3,0.7c-0.3,0.3-0.7,0.6-1.3,0.7c-0.2-0.2-0.3-0.4-0.3-0.7
		c0.3-0.2,0.6-0.4,0.7-0.6c0.1-0.2,0.2-0.5,0.2-0.9v-4.9c0-0.2,0-0.4-0.1-0.5s-0.2-0.1-0.4-0.1h-0.2c0-0.2,0-0.3,0-0.4s0-0.2,0-0.4
		c0.3,0,0.6,0,0.9,0h0.1c0.3,0,0.5,0.1,0.7,0.3C144.4,32.2,144.5,32.4,144.5,32.7z M142.9,30.1c0-0.2,0-0.4,0.1-0.5
		c0.2-0.1,0.4-0.1,0.7-0.1c0.3,0,0.5,0,0.6,0.1c0.1,0.1,0.1,0.3,0.1,0.5c0,0.2,0,0.4-0.1,0.5c-0.1,0.1-0.3,0.1-0.6,0.1
		c-0.3,0-0.5,0-0.6-0.1C143,30.5,142.9,30.3,142.9,30.1z"/>
	<path fill="#FFFFFF" d="M150.9,37.2c-0.1,0.3-0.2,0.5-0.5,0.6c-0.4-0.1-0.7-0.3-0.9-0.8c-0.6,0.6-1.2,0.8-1.8,0.8
		c-0.6,0-1.1-0.2-1.4-0.5c-0.3-0.4-0.5-0.8-0.5-1.2c0-0.7,0.2-1.1,0.6-1.5s1-0.5,1.7-0.5c0.4,0,0.8,0,1.2,0.1v-0.5
		c0-0.7-0.3-1.1-1-1.1c-0.5,0-1.2,0.2-1.9,0.5c-0.2-0.2-0.3-0.5-0.3-0.9c0.8-0.4,1.7-0.6,2.5-0.6c0.6,0,1.1,0.2,1.4,0.5
		c0.3,0.3,0.5,0.8,0.5,1.5v2.5C150.6,36.6,150.7,37,150.9,37.2z M148,36.9c0.5,0,1-0.3,1.5-0.8V35c-0.3,0-0.7-0.1-1.1-0.1
		c-0.4,0-0.7,0.1-0.9,0.3c-0.2,0.2-0.3,0.4-0.3,0.7c0,0.3,0.1,0.5,0.2,0.7C147.5,36.8,147.7,36.9,148,36.9z"/>
	<path fill="#FFFFFF" d="M157.1,33.6v2.8c0,0.5,0.1,0.8,0.2,1.1c-0.2,0.2-0.4,0.3-0.7,0.3c-0.4,0-0.6-0.2-0.6-0.7v-3.1
		c0-0.4-0.1-0.7-0.2-0.9c-0.1-0.2-0.3-0.3-0.6-0.3c-0.3,0-0.6,0.1-0.9,0.2c-0.3,0.1-0.5,0.3-0.8,0.6v4.2c-0.1,0-0.3,0-0.6,0
		s-0.4,0-0.6,0v-5.9l0.1-0.1h0.4c0.4,0,0.6,0.3,0.6,0.8c0.6-0.5,1.2-0.8,1.9-0.8c0.5,0,0.9,0.2,1.2,0.5
		C157,32.6,157.1,33,157.1,33.6z"/>
	<path fill="#FFFFFF" d="M160.7,37.8c-0.7,0-1.2-0.3-1.5-0.8c-0.4-0.6-0.5-1.3-0.5-2.3c0-1,0.2-1.7,0.7-2.3c0.5-0.5,1-0.8,1.6-0.8
		c0.4,0,0.9,0.1,1.4,0.4v-3.1l0.1-0.1h0.4c0.2,0,0.4,0.1,0.5,0.2c0.1,0.1,0.1,0.3,0.1,0.6V36c0,0.6,0.1,1,0.3,1.2
		c-0.1,0.3-0.2,0.5-0.5,0.6c-0.4-0.1-0.7-0.3-0.9-0.8C161.9,37.6,161.3,37.8,160.7,37.8z M160.9,36.9c0.5,0,1-0.3,1.4-0.8v-3
		c-0.4-0.3-0.9-0.5-1.2-0.5s-0.7,0.2-0.9,0.6c-0.2,0.4-0.4,0.9-0.4,1.6c0,0.7,0.1,1.2,0.3,1.6S160.6,36.9,160.9,36.9z"/>
	<path fill="#FFFFFF" d="M169.2,32.3c0.6,0.6,0.8,1.4,0.8,2.5s-0.3,1.9-0.8,2.5c-0.4,0.4-1,0.7-1.7,0.7s-1.3-0.2-1.7-0.7
		c-0.6-0.6-0.8-1.4-0.8-2.5s0.3-1.9,0.8-2.5c0.4-0.4,1-0.7,1.7-0.7S168.8,31.8,169.2,32.3z M166.1,34.7c0,1.5,0.5,2.2,1.4,2.2
		s1.4-0.7,1.4-2.2c0-0.4,0-0.8-0.1-1.1c-0.1-0.3-0.2-0.6-0.4-0.8c-0.2-0.2-0.5-0.3-0.8-0.3s-0.6,0.1-0.8,0.3
		c-0.2,0.2-0.4,0.5-0.4,0.8C166.2,33.9,166.1,34.3,166.1,34.7z"/>
	<path fill="#FFFFFF" d="M178.6,35.1H175c0,0.6,0.1,1,0.4,1.3c0.2,0.3,0.6,0.5,1.1,0.5s1.1-0.2,1.7-0.5c0.2,0.2,0.3,0.4,0.4,0.8
		c-0.6,0.4-1.4,0.7-2.3,0.7c-0.9,0-1.5-0.3-1.9-0.9s-0.6-1.3-0.6-2.3s0.2-1.7,0.6-2.3c0.4-0.6,1-0.9,1.8-0.9c0.8,0,1.4,0.2,1.8,0.7
		c0.4,0.5,0.6,1.1,0.6,1.8C178.7,34.5,178.6,34.8,178.6,35.1z M177.2,32.9c-0.2-0.3-0.5-0.5-0.9-0.5s-0.7,0.2-0.9,0.5
		c-0.2,0.3-0.3,0.7-0.4,1.3h2.5v-0.2C177.5,33.6,177.4,33.2,177.2,32.9z"/>
	<path fill="#FFFFFF" d="M186.1,33.9c0-0.4-0.1-0.7-0.2-0.9c-0.1-0.2-0.3-0.3-0.6-0.3c-0.5,0-0.9,0.3-1.4,0.8v4.2
		c-0.1,0-0.3,0-0.6,0s-0.4,0-0.6,0v-5.9l0.1-0.1h0.4c0.4,0,0.6,0.3,0.6,0.8c0.5-0.5,1.1-0.8,1.7-0.8s1.1,0.3,1.3,0.9
		c0.6-0.6,1.3-0.9,1.9-0.9c0.5,0,0.9,0.2,1.1,0.5c0.3,0.4,0.4,0.8,0.4,1.3v2.9c0,0.5,0.1,0.8,0.2,1.1c-0.2,0.2-0.4,0.3-0.7,0.3
		c-0.4,0-0.6-0.2-0.6-0.7v-3.1c0-0.4-0.1-0.7-0.2-0.9c-0.1-0.2-0.3-0.3-0.6-0.3c-0.5,0-0.9,0.3-1.4,0.8v4.2c-0.1,0-0.3,0-0.6,0
		s-0.4,0-0.6,0V33.9z"/>
	<path fill="#FFFFFF" d="M196.3,32.3c0.6,0.6,0.8,1.4,0.8,2.5s-0.3,1.9-0.8,2.5c-0.4,0.4-1,0.7-1.7,0.7s-1.3-0.2-1.7-0.7
		c-0.6-0.6-0.8-1.4-0.8-2.5s0.3-1.9,0.8-2.5c0.4-0.4,1-0.7,1.7-0.7S195.9,31.8,196.3,32.3z M193.2,34.7c0,1.5,0.5,2.2,1.4,2.2
		s1.4-0.7,1.4-2.2c0-0.4,0-0.8-0.1-1.1c-0.1-0.3-0.2-0.6-0.4-0.8c-0.2-0.2-0.5-0.3-0.8-0.3s-0.6,0.1-0.8,0.3
		c-0.2,0.2-0.4,0.5-0.4,0.8C193.3,33.9,193.2,34.3,193.2,34.7z"/>
	<path fill="#FFFFFF" d="M203.4,33.6v2.8c0,0.5,0.1,0.8,0.2,1.1c-0.2,0.2-0.4,0.3-0.7,0.3c-0.4,0-0.6-0.2-0.6-0.7v-3.1
		c0-0.4-0.1-0.7-0.2-0.9c-0.1-0.2-0.3-0.3-0.6-0.3c-0.3,0-0.6,0.1-0.9,0.2c-0.3,0.1-0.5,0.3-0.8,0.6v4.2c-0.1,0-0.3,0-0.6,0
		s-0.4,0-0.6,0v-5.9l0.1-0.1h0.4c0.4,0,0.6,0.3,0.6,0.8c0.6-0.5,1.2-0.8,1.9-0.8c0.5,0,0.9,0.2,1.2,0.5
		C203.2,32.6,203.4,33,203.4,33.6z"/>
	<path fill="#FFFFFF" d="M206.5,32.7v4.9c-0.1,0-0.3,0-0.6,0c-0.2,0-0.4,0-0.6,0v-4.5c0-0.2,0-0.4-0.1-0.5s-0.2-0.1-0.4-0.1h-0.1
		c0-0.1,0-0.3,0-0.4c0-0.2,0-0.3,0-0.4c0.3,0,0.5,0,0.7,0h0.2c0.3,0,0.5,0.1,0.7,0.3C206.4,32.2,206.5,32.4,206.5,32.7z M205,30.1
		c0-0.2,0-0.4,0.1-0.5c0.2-0.1,0.4-0.1,0.7-0.1c0.3,0,0.5,0,0.6,0.1c0.1,0.1,0.1,0.3,0.1,0.5c0,0.2,0,0.4-0.1,0.5
		c-0.1,0.1-0.3,0.1-0.6,0.1c-0.3,0-0.5,0-0.6-0.1C205,30.5,205,30.3,205,30.1z"/>
	<path fill="#FFFFFF" d="M211.2,31.8c0,0.1,0,0.3,0,0.4s0,0.3,0,0.4l-1.5,0v3.7c0,0.3,0.2,0.5,0.5,0.5h0.8c0.1,0.2,0.1,0.3,0.1,0.5
		s0,0.3,0,0.3c-0.5,0.1-0.9,0.1-1.3,0.1c-0.8,0-1.2-0.4-1.2-1.2v-3.9l-0.9,0c0-0.1,0-0.3,0-0.4s0-0.3,0-0.4l0.9,0v-1.1
		c0-0.3,0-0.5,0.1-0.6c0.1-0.1,0.3-0.2,0.5-0.2h0.4l0.1,0.1v1.8L211.2,31.8z"/>
	<path fill="#FFFFFF" d="M216.4,32.3c0.6,0.6,0.8,1.4,0.8,2.5s-0.3,1.9-0.8,2.5c-0.4,0.4-1,0.7-1.7,0.7s-1.3-0.2-1.7-0.7
		c-0.6-0.6-0.8-1.4-0.8-2.5s0.3-1.9,0.8-2.5c0.4-0.4,1-0.7,1.7-0.7S216,31.8,216.4,32.3z M213.3,34.7c0,1.5,0.5,2.2,1.4,2.2
		s1.4-0.7,1.4-2.2c0-0.4,0-0.8-0.1-1.1c-0.1-0.3-0.2-0.6-0.4-0.8c-0.2-0.2-0.5-0.3-0.8-0.3s-0.6,0.1-0.8,0.3
		c-0.2,0.2-0.4,0.5-0.4,0.8C213.4,33.9,213.3,34.3,213.3,34.7z"/>
	<path fill="#FFFFFF" d="M218.5,32.3c0.1-0.3,0.2-0.5,0.4-0.6c0.5,0.1,0.9,0.5,1,1.1c0.3-0.7,0.9-1.1,1.6-1.1c0.2,0,0.4,0,0.6,0.1
		c0,0.4-0.1,0.8-0.3,1.1c0,0-0.2,0-0.5,0c-0.6,0-1,0.3-1.3,0.9v3.9c-0.1,0-0.3,0-0.6,0s-0.4,0-0.6,0v-4.2
		C218.9,33,218.8,32.6,218.5,32.3z"/>
	<path fill="#FFFFFF" d="M227.6,37.2c-0.1,0.3-0.2,0.5-0.5,0.6c-0.4-0.1-0.7-0.3-0.9-0.8c-0.6,0.6-1.2,0.8-1.8,0.8
		c-0.6,0-1.1-0.2-1.4-0.5c-0.3-0.4-0.5-0.8-0.5-1.2c0-0.7,0.2-1.1,0.6-1.5s1-0.5,1.7-0.5c0.4,0,0.8,0,1.2,0.1v-0.5
		c0-0.7-0.3-1.1-1-1.1c-0.5,0-1.2,0.2-1.9,0.5c-0.2-0.2-0.3-0.5-0.3-0.9c0.8-0.4,1.7-0.6,2.5-0.6c0.6,0,1.1,0.2,1.4,0.5
		c0.3,0.3,0.5,0.8,0.5,1.5v2.5C227.3,36.6,227.4,37,227.6,37.2z M224.7,36.9c0.5,0,1-0.3,1.5-0.8V35c-0.3,0-0.7-0.1-1.1-0.1
		c-0.4,0-0.7,0.1-0.9,0.3c-0.2,0.2-0.3,0.4-0.3,0.7c0,0.3,0.1,0.5,0.2,0.7C224.2,36.8,224.4,36.9,224.7,36.9z"/>
	<path fill="#FFFFFF" d="M233.8,33.6v2.8c0,0.5,0.1,0.8,0.2,1.1c-0.2,0.2-0.4,0.3-0.7,0.3c-0.4,0-0.6-0.2-0.6-0.7v-3.1
		c0-0.4-0.1-0.7-0.2-0.9c-0.1-0.2-0.3-0.3-0.6-0.3c-0.3,0-0.6,0.1-0.9,0.2c-0.3,0.1-0.5,0.3-0.8,0.6v4.2c-0.1,0-0.3,0-0.6,0
		s-0.4,0-0.6,0v-5.9l0.1-0.1h0.4c0.4,0,0.6,0.3,0.6,0.8c0.6-0.5,1.2-0.8,1.9-0.8c0.5,0,0.9,0.2,1.2,0.5
		C233.7,32.6,233.8,33,233.8,33.6z"/>
	<path fill="#FFFFFF" d="M237.4,37.8c-0.7,0-1.2-0.3-1.5-0.8c-0.4-0.6-0.5-1.3-0.5-2.3c0-1,0.2-1.7,0.7-2.3c0.5-0.5,1-0.8,1.6-0.8
		c0.4,0,0.9,0.1,1.4,0.4v-3.1l0.1-0.1h0.4c0.2,0,0.4,0.1,0.5,0.2c0.1,0.1,0.1,0.3,0.1,0.6V36c0,0.6,0.1,1,0.3,1.2
		c-0.1,0.3-0.2,0.5-0.5,0.6c-0.4-0.1-0.7-0.3-0.9-0.8C238.6,37.6,238.1,37.8,237.4,37.8z M237.6,36.9c0.5,0,1-0.3,1.4-0.8v-3
		c-0.4-0.3-0.9-0.5-1.2-0.5s-0.7,0.2-0.9,0.6c-0.2,0.4-0.4,0.9-0.4,1.6c0,0.7,0.1,1.2,0.3,1.6S237.3,36.9,237.6,36.9z"/>
	<path fill="#FFFFFF" d="M245.9,32.3c0.6,0.6,0.8,1.4,0.8,2.5s-0.3,1.9-0.8,2.5c-0.4,0.4-1,0.7-1.7,0.7s-1.3-0.2-1.7-0.7
		c-0.6-0.6-0.8-1.4-0.8-2.5s0.3-1.9,0.8-2.5c0.4-0.4,1-0.7,1.7-0.7S245.5,31.8,245.9,32.3z M242.9,34.7c0,1.5,0.5,2.2,1.4,2.2
		s1.4-0.7,1.4-2.2c0-0.4,0-0.8-0.1-1.1c-0.1-0.3-0.2-0.6-0.4-0.8c-0.2-0.2-0.5-0.3-0.8-0.3s-0.6,0.1-0.8,0.3
		c-0.2,0.2-0.4,0.5-0.4,0.8C242.9,33.9,242.9,34.3,242.9,34.7z"/>
	<path fill="#FFFFFF" d="M5.2,51.6C5.2,51.8,5,52,4.8,52.2c-0.4-0.1-0.7-0.3-0.9-0.8c-0.6,0.6-1.2,0.8-1.8,0.8
		c-0.6,0-1.1-0.2-1.4-0.5c-0.3-0.4-0.5-0.8-0.5-1.2c0-0.7,0.2-1.1,0.6-1.5s1-0.5,1.7-0.5c0.4,0,0.8,0,1.2,0.1v-0.5
		c0-0.7-0.3-1.1-1-1.1c-0.5,0-1.2,0.2-1.9,0.5c-0.2-0.2-0.3-0.5-0.3-0.9C1.3,46.2,2.2,46,3,46c0.6,0,1.1,0.2,1.4,0.5
		c0.3,0.3,0.5,0.8,0.5,1.5v2.5C4.9,51,5,51.4,5.2,51.6z M2.3,51.3c0.5,0,1-0.3,1.5-0.8v-1.2c-0.3,0-0.7-0.1-1.1-0.1
		c-0.4,0-0.7,0.1-0.9,0.3c-0.2,0.2-0.3,0.4-0.3,0.7c0,0.3,0.1,0.5,0.2,0.7C1.8,51.2,2,51.3,2.3,51.3z"/>
	<path fill="#FFFFFF" d="M6.2,51.6c0-0.1,0-0.3,0.1-0.4s0.2-0.3,0.3-0.4c0.7,0.4,1.2,0.5,1.6,0.5c0.4,0,0.7-0.1,0.9-0.2
		c0.2-0.1,0.3-0.3,0.3-0.6c0-0.4-0.3-0.7-0.8-0.9l-0.7-0.3c-1-0.4-1.5-0.9-1.5-1.7c0-0.5,0.2-1,0.6-1.3C7.4,46.2,7.9,46,8.6,46
		s1.3,0.1,1.9,0.4c0,0.2,0,0.3-0.1,0.5s-0.2,0.3-0.3,0.4C9.5,47,9,46.9,8.5,46.9c-0.3,0-0.5,0.1-0.7,0.2c-0.2,0.1-0.3,0.3-0.3,0.5
		c0,0.2,0.1,0.4,0.2,0.5s0.3,0.2,0.6,0.3l0.7,0.3c1,0.4,1.5,1,1.5,1.8c0,0.5-0.2,1-0.6,1.3c-0.4,0.3-1,0.5-1.7,0.5S6.9,52,6.2,51.6z
		"/>
	<path fill="#FFFFFF" d="M19.2,51.6c-0.1,0.3-0.2,0.5-0.5,0.6c-0.4-0.1-0.7-0.3-0.9-0.8c-0.6,0.6-1.2,0.8-1.8,0.8
		c-0.6,0-1.1-0.2-1.4-0.5c-0.3-0.4-0.5-0.8-0.5-1.2c0-0.7,0.2-1.1,0.6-1.5s1-0.5,1.7-0.5c0.4,0,0.8,0,1.2,0.1v-0.5
		c0-0.7-0.3-1.1-1-1.1c-0.5,0-1.2,0.2-1.9,0.5c-0.2-0.2-0.3-0.5-0.3-0.9c0.8-0.4,1.7-0.6,2.5-0.6c0.6,0,1.1,0.2,1.4,0.5
		c0.3,0.3,0.5,0.8,0.5,1.5v2.5C18.9,51,19,51.4,19.2,51.6z M16.2,51.3c0.5,0,1-0.3,1.5-0.8v-1.2c-0.3,0-0.7-0.1-1.1-0.1
		c-0.4,0-0.7,0.1-0.9,0.3c-0.2,0.2-0.3,0.4-0.3,0.7c0,0.3,0.1,0.5,0.2,0.7C15.8,51.2,16,51.3,16.2,51.3z"/>
	<path fill="#FFFFFF" d="M23.4,46.2c0,0.1,0,0.3,0,0.4s0,0.3,0,0.4l-1.5,0v3.7c0,0.3,0.2,0.5,0.5,0.5h0.8c0.1,0.2,0.1,0.3,0.1,0.5
		s0,0.3,0,0.3c-0.5,0.1-0.9,0.1-1.3,0.1c-0.8,0-1.2-0.4-1.2-1.2V47l-0.9,0c0-0.1,0-0.3,0-0.4s0-0.3,0-0.4l0.9,0v-1.1
		c0-0.3,0-0.5,0.1-0.6c0.1-0.1,0.3-0.2,0.5-0.2h0.4l0.1,0.1v1.8L23.4,46.2z"/>
	<path fill="#FFFFFF" d="M26.2,47.1v4.9c-0.1,0-0.3,0-0.6,0c-0.2,0-0.4,0-0.6,0v-4.5c0-0.2,0-0.4-0.1-0.5S24.8,47,24.6,47h-0.1
		c0-0.1,0-0.3,0-0.4c0-0.2,0-0.3,0-0.4c0.3,0,0.5,0,0.7,0h0.2c0.3,0,0.5,0.1,0.7,0.3C26.2,46.6,26.2,46.8,26.2,47.1z M24.7,44.5
		c0-0.2,0-0.4,0.1-0.5c0.2-0.1,0.4-0.1,0.7-0.1c0.3,0,0.5,0,0.6,0.1c0.1,0.1,0.1,0.3,0.1,0.5c0,0.2,0,0.4-0.1,0.5
		c-0.1,0.1-0.3,0.1-0.6,0.1c-0.3,0-0.5,0-0.6-0.1C24.8,44.9,24.7,44.7,24.7,44.5z"/>
	<path fill="#FFFFFF" d="M29.9,51.1l1.5-5c0.1,0,0.3,0,0.5,0s0.4,0,0.6,0.1l0,0c-0.8,2.6-1.4,4.5-1.9,5.8c-0.2,0-0.5,0.1-0.8,0.1
		s-0.5,0-0.6-0.1s-0.2-0.3-0.3-0.5l-1.7-5.2c0.2-0.1,0.5-0.2,0.7-0.2c0.3,0,0.5,0.2,0.6,0.5l0.8,2.7c0.2,0.6,0.3,1.2,0.5,1.8
		C29.8,51.1,29.8,51.1,29.9,51.1z"/>
	<path fill="#FFFFFF" d="M34.9,47.1v4.9c-0.1,0-0.3,0-0.6,0c-0.2,0-0.4,0-0.6,0v-4.5c0-0.2,0-0.4-0.1-0.5S33.4,47,33.2,47h-0.1
		c0-0.1,0-0.3,0-0.4c0-0.2,0-0.3,0-0.4c0.3,0,0.5,0,0.7,0h0.2c0.3,0,0.5,0.1,0.7,0.3C34.8,46.6,34.9,46.8,34.9,47.1z M33.3,44.5
		c0-0.2,0-0.4,0.1-0.5c0.2-0.1,0.4-0.1,0.7-0.1c0.3,0,0.5,0,0.6,0.1c0.1,0.1,0.1,0.3,0.1,0.5c0,0.2,0,0.4-0.1,0.5
		c-0.1,0.1-0.3,0.1-0.6,0.1c-0.3,0-0.5,0-0.6-0.1C33.4,44.9,33.3,44.7,33.3,44.5z"/>
	<path fill="#FFFFFF" d="M38.4,52.2c-0.7,0-1.2-0.3-1.5-0.8c-0.4-0.6-0.5-1.3-0.5-2.3c0-1,0.2-1.7,0.7-2.3c0.5-0.5,1-0.8,1.6-0.8
		c0.4,0,0.9,0.1,1.4,0.4v-3.1l0.1-0.1h0.4c0.2,0,0.4,0.1,0.5,0.2c0.1,0.1,0.1,0.3,0.1,0.6v6.4c0,0.6,0.1,1,0.3,1.2
		c-0.1,0.3-0.2,0.5-0.5,0.6c-0.4-0.1-0.7-0.3-0.9-0.8C39.7,52,39.1,52.2,38.4,52.2z M38.7,51.3c0.5,0,1-0.3,1.4-0.8v-3
		c-0.4-0.3-0.9-0.5-1.2-0.5s-0.7,0.2-0.9,0.6c-0.2,0.4-0.4,0.9-0.4,1.6c0,0.7,0.1,1.2,0.3,1.6S38.3,51.3,38.7,51.3z"/>
	<path fill="#FFFFFF" d="M47.7,51.6c-0.1,0.3-0.2,0.5-0.5,0.6c-0.4-0.1-0.7-0.3-0.9-0.8c-0.6,0.6-1.2,0.8-1.8,0.8
		c-0.6,0-1.1-0.2-1.4-0.5c-0.3-0.4-0.5-0.8-0.5-1.2c0-0.7,0.2-1.1,0.6-1.5s1-0.5,1.7-0.5c0.4,0,0.8,0,1.2,0.1v-0.5
		c0-0.7-0.3-1.1-1-1.1c-0.5,0-1.2,0.2-1.9,0.5c-0.2-0.2-0.3-0.5-0.3-0.9c0.8-0.4,1.7-0.6,2.5-0.6c0.6,0,1.1,0.2,1.4,0.5
		c0.3,0.3,0.5,0.8,0.5,1.5v2.5C47.3,51,47.4,51.4,47.7,51.6z M44.7,51.3c0.5,0,1-0.3,1.5-0.8v-1.2c-0.3,0-0.7-0.1-1.1-0.1
		c-0.4,0-0.7,0.1-0.9,0.3c-0.2,0.2-0.3,0.4-0.3,0.7c0,0.3,0.1,0.5,0.2,0.7C44.2,51.2,44.4,51.3,44.7,51.3z"/>
	<path fill="#FFFFFF" d="M50.7,52.2c-0.7,0-1.2-0.3-1.5-0.8c-0.4-0.6-0.5-1.3-0.5-2.3c0-1,0.2-1.7,0.7-2.3c0.5-0.5,1-0.8,1.6-0.8
		c0.4,0,0.9,0.1,1.4,0.4v-3.1l0.1-0.1h0.4c0.2,0,0.4,0.1,0.5,0.2c0.1,0.1,0.1,0.3,0.1,0.6v6.4c0,0.6,0.1,1,0.3,1.2
		c-0.1,0.3-0.2,0.5-0.5,0.6c-0.4-0.1-0.7-0.3-0.9-0.8C52,52,51.4,52.2,50.7,52.2z M51,51.3c0.5,0,1-0.3,1.4-0.8v-3
		c-0.4-0.3-0.9-0.5-1.2-0.5s-0.7,0.2-0.9,0.6c-0.2,0.4-0.4,0.9-0.4,1.6c0,0.7,0.1,1.2,0.3,1.6S50.6,51.3,51,51.3z"/>
	<path fill="#FFFFFF" d="M59.8,49.5h-3.6c0,0.6,0.1,1,0.4,1.3c0.2,0.3,0.6,0.5,1.1,0.5s1.1-0.2,1.7-0.5c0.2,0.2,0.3,0.4,0.4,0.8
		c-0.6,0.4-1.4,0.7-2.3,0.7c-0.9,0-1.5-0.3-1.9-0.9S55,50,55,49.1s0.2-1.7,0.6-2.3c0.4-0.6,1-0.9,1.8-0.9c0.8,0,1.4,0.2,1.8,0.7
		c0.4,0.5,0.6,1.1,0.6,1.8C59.9,48.9,59.8,49.2,59.8,49.5z M58.4,47.3c-0.2-0.3-0.5-0.5-0.9-0.5s-0.7,0.2-0.9,0.5
		c-0.2,0.3-0.3,0.7-0.4,1.3h2.5v-0.2C58.7,48,58.6,47.6,58.4,47.3z"/>
	<path fill="#FFFFFF" d="M60.9,51.6c0-0.1,0-0.3,0.1-0.4s0.2-0.3,0.3-0.4c0.7,0.4,1.2,0.5,1.6,0.5c0.4,0,0.7-0.1,0.9-0.2
		c0.2-0.1,0.3-0.3,0.3-0.6c0-0.4-0.3-0.7-0.8-0.9l-0.7-0.3c-1-0.4-1.5-0.9-1.5-1.7c0-0.5,0.2-1,0.6-1.3c0.4-0.3,0.9-0.5,1.6-0.5
		s1.3,0.1,1.9,0.4c0,0.2,0,0.3-0.1,0.5s-0.2,0.3-0.3,0.4c-0.6-0.3-1.1-0.4-1.6-0.4c-0.3,0-0.5,0.1-0.7,0.2c-0.2,0.1-0.3,0.3-0.3,0.5
		c0,0.2,0.1,0.4,0.2,0.5s0.3,0.2,0.6,0.3l0.7,0.3c1,0.4,1.5,1,1.5,1.8c0,0.5-0.2,1-0.6,1.3c-0.4,0.3-1,0.5-1.7,0.5
		S61.5,52,60.9,51.6z"/>
	<path fill="#FFFFFF" d="M66.4,54c-0.2-0.1-0.3-0.3-0.3-0.5c0,0,0-0.1,0-0.1c0.3-0.1,0.5-0.3,0.7-0.5c0.2-0.2,0.3-0.4,0.3-0.7
		c-0.2-0.1-0.4-0.1-0.5-0.2c-0.1-0.1-0.1-0.3-0.1-0.6c0-0.3,0-0.5,0.1-0.6c0.2-0.1,0.4-0.2,0.7-0.2s0.5,0.1,0.7,0.2
		c0.1,0.2,0.1,0.4,0.1,0.8c0,0.5-0.1,1-0.4,1.4S67,53.8,66.4,54z"/>
	<path fill="#FFFFFF" d="M76.9,49.5h-3.6c0,0.6,0.1,1,0.4,1.3c0.2,0.3,0.6,0.5,1.1,0.5s1.1-0.2,1.7-0.5c0.2,0.2,0.3,0.4,0.4,0.8
		c-0.6,0.4-1.4,0.7-2.3,0.7c-0.9,0-1.5-0.3-1.9-0.9s-0.6-1.3-0.6-2.3s0.2-1.7,0.6-2.3c0.4-0.6,1-0.9,1.8-0.9c0.8,0,1.4,0.2,1.8,0.7
		c0.4,0.5,0.6,1.1,0.6,1.8C77,48.9,76.9,49.2,76.9,49.5z M75.5,47.3c-0.2-0.3-0.5-0.5-0.9-0.5s-0.7,0.2-0.9,0.5
		c-0.2,0.3-0.3,0.7-0.4,1.3h2.5v-0.2C75.8,48,75.7,47.6,75.5,47.3z"/>
	<path fill="#FFFFFF" d="M81.6,46.2c0.1,0,0.3,0,0.5,0s0.4,0,0.5,0.1l0,0.1l-1.7,2.7l1.9,3c-0.3,0.2-0.6,0.3-0.8,0.3
		s-0.4-0.1-0.6-0.4l-1.2-1.9l-1.3,2.2c-0.1,0-0.3,0-0.5,0c-0.2,0-0.4,0-0.6-0.1l0-0.1l1.9-3l-1.7-2.7c0.3-0.2,0.5-0.3,0.8-0.3
		s0.5,0.1,0.6,0.3l1.1,1.6L81.6,46.2z"/>
	<path fill="#FFFFFF" d="M86.9,46.2c0,0.1,0,0.3,0,0.4s0,0.3,0,0.4l-1.5,0v3.7c0,0.3,0.2,0.5,0.5,0.5h0.8c0.1,0.2,0.1,0.3,0.1,0.5
		s0,0.3,0,0.3c-0.5,0.1-0.9,0.1-1.3,0.1c-0.8,0-1.2-0.4-1.2-1.2V47l-0.9,0c0-0.1,0-0.3,0-0.4s0-0.3,0-0.4l0.9,0v-1.1
		c0-0.3,0-0.5,0.1-0.6c0.1-0.1,0.3-0.2,0.5-0.2h0.4l0.1,0.1v1.8L86.9,46.2z"/>
	<path fill="#FFFFFF" d="M87.9,46.7c0.1-0.3,0.2-0.5,0.4-0.6c0.5,0.1,0.9,0.5,1,1.1c0.3-0.7,0.9-1.1,1.6-1.1c0.2,0,0.4,0,0.6,0.1
		c0,0.4-0.1,0.8-0.3,1.1c0,0-0.2,0-0.5,0c-0.6,0-1,0.3-1.3,0.9v3.9c-0.1,0-0.3,0-0.6,0s-0.4,0-0.6,0v-4.2
		C88.3,47.4,88.2,47,87.9,46.7z"/>
	<path fill="#FFFFFF" d="M97,51.6c-0.1,0.3-0.2,0.5-0.5,0.6c-0.4-0.1-0.7-0.3-0.9-0.8c-0.6,0.6-1.2,0.8-1.8,0.8
		c-0.6,0-1.1-0.2-1.4-0.5c-0.3-0.4-0.5-0.8-0.5-1.2c0-0.7,0.2-1.1,0.6-1.5s1-0.5,1.7-0.5c0.4,0,0.8,0,1.2,0.1v-0.5
		c0-0.7-0.3-1.1-1-1.1c-0.5,0-1.2,0.2-1.9,0.5c-0.2-0.2-0.3-0.5-0.3-0.9c0.8-0.4,1.7-0.6,2.5-0.6c0.6,0,1.1,0.2,1.4,0.5
		c0.3,0.3,0.5,0.8,0.5,1.5v2.5C96.7,51,96.8,51.4,97,51.6z M94.1,51.3c0.5,0,1-0.3,1.5-0.8v-1.2c-0.3,0-0.7-0.1-1.1-0.1
		c-0.4,0-0.7,0.1-0.9,0.3c-0.2,0.2-0.3,0.4-0.3,0.7c0,0.3,0.1,0.5,0.2,0.7C93.6,51.2,93.8,51.3,94.1,51.3z"/>
	<path fill="#FFFFFF" d="M99.9,47.1v4.9c-0.1,0-0.3,0-0.6,0c-0.2,0-0.4,0-0.6,0v-4.5c0-0.2,0-0.4-0.1-0.5S98.4,47,98.2,47h-0.1
		c0-0.1,0-0.3,0-0.4c0-0.2,0-0.3,0-0.4c0.3,0,0.5,0,0.7,0H99c0.3,0,0.5,0.1,0.7,0.3C99.8,46.6,99.9,46.8,99.9,47.1z M98.4,44.5
		c0-0.2,0-0.4,0.1-0.5c0.2-0.1,0.4-0.1,0.7-0.1c0.3,0,0.5,0,0.6,0.1c0.1,0.1,0.1,0.3,0.1,0.5c0,0.2,0,0.4-0.1,0.5
		c-0.1,0.1-0.3,0.1-0.6,0.1c-0.3,0-0.5,0-0.6-0.1C98.4,44.9,98.4,44.7,98.4,44.5z"/>
	<path fill="#FFFFFF" d="M106.5,48v2.8c0,0.5,0.1,0.8,0.2,1.1c-0.2,0.2-0.4,0.3-0.7,0.3c-0.4,0-0.6-0.2-0.6-0.7v-3.1
		c0-0.4-0.1-0.7-0.2-0.9c-0.1-0.2-0.3-0.3-0.6-0.3c-0.3,0-0.6,0.1-0.9,0.2c-0.3,0.1-0.5,0.3-0.8,0.6v4.2c-0.1,0-0.3,0-0.6,0
		s-0.4,0-0.6,0v-5.9l0.1-0.1h0.4c0.4,0,0.6,0.3,0.6,0.8c0.6-0.5,1.2-0.8,1.9-0.8c0.5,0,0.9,0.2,1.2,0.5
		C106.3,47,106.5,47.4,106.5,48z"/>
	<path fill="#FFFFFF" d="M110,52.2c-0.7,0-1.2-0.3-1.5-0.8c-0.4-0.6-0.5-1.3-0.5-2.3c0-1,0.2-1.7,0.7-2.3c0.5-0.5,1-0.8,1.6-0.8
		c0.4,0,0.9,0.1,1.4,0.4v-3.1l0.1-0.1h0.4c0.2,0,0.4,0.1,0.5,0.2c0.1,0.1,0.1,0.3,0.1,0.6v6.4c0,0.6,0.1,1,0.3,1.2
		c-0.1,0.3-0.2,0.5-0.5,0.6c-0.4-0.1-0.7-0.3-0.9-0.8C111.3,52,110.7,52.2,110,52.2z M110.2,51.3c0.5,0,1-0.3,1.4-0.8v-3
		c-0.4-0.3-0.9-0.5-1.2-0.5s-0.7,0.2-0.9,0.6c-0.2,0.4-0.4,0.9-0.4,1.6c0,0.7,0.1,1.2,0.3,1.6S109.9,51.3,110.2,51.3z"/>
	<path fill="#FFFFFF" d="M118.6,46.7c0.6,0.6,0.8,1.4,0.8,2.5s-0.3,1.9-0.8,2.5c-0.4,0.4-1,0.7-1.7,0.7s-1.3-0.2-1.7-0.7
		c-0.6-0.6-0.8-1.4-0.8-2.5s0.3-1.9,0.8-2.5c0.4-0.4,1-0.7,1.7-0.7S118.1,46.2,118.6,46.7z M115.5,49.1c0,1.5,0.5,2.2,1.4,2.2
		s1.4-0.7,1.4-2.2c0-0.4,0-0.8-0.1-1.1c-0.1-0.3-0.2-0.6-0.4-0.8c-0.2-0.2-0.5-0.3-0.8-0.3s-0.6,0.1-0.8,0.3
		c-0.2,0.2-0.4,0.5-0.4,0.8C115.5,48.3,115.5,48.7,115.5,49.1z"/>
	<path fill="#FFFFFF" d="M125.2,52.2c-0.7,0-1.2-0.3-1.5-0.8c-0.4-0.6-0.5-1.3-0.5-2.3c0-1,0.2-1.7,0.7-2.3c0.5-0.5,1-0.8,1.6-0.8
		c0.4,0,0.9,0.1,1.4,0.4v-3.1l0.1-0.1h0.4c0.2,0,0.4,0.1,0.5,0.2c0.1,0.1,0.1,0.3,0.1,0.6v6.4c0,0.6,0.1,1,0.3,1.2
		c-0.1,0.3-0.2,0.5-0.5,0.6c-0.4-0.1-0.7-0.3-0.9-0.8C126.5,52,125.9,52.2,125.2,52.2z M125.5,51.3c0.5,0,1-0.3,1.4-0.8v-3
		c-0.4-0.3-0.9-0.5-1.2-0.5s-0.7,0.2-0.9,0.6c-0.2,0.4-0.4,0.9-0.4,1.6c0,0.7,0.1,1.2,0.3,1.6S125.1,51.3,125.5,51.3z"/>
	<path fill="#FFFFFF" d="M134.3,49.5h-3.6c0,0.6,0.1,1,0.4,1.3c0.2,0.3,0.6,0.5,1.1,0.5s1.1-0.2,1.7-0.5c0.2,0.2,0.3,0.4,0.4,0.8
		c-0.6,0.4-1.4,0.7-2.3,0.7c-0.9,0-1.5-0.3-1.9-0.9s-0.6-1.3-0.6-2.3s0.2-1.7,0.6-2.3c0.4-0.6,1-0.9,1.8-0.9c0.8,0,1.4,0.2,1.8,0.7
		c0.4,0.5,0.6,1.1,0.6,1.8C134.4,48.9,134.3,49.2,134.3,49.5z M132.9,47.3c-0.2-0.3-0.5-0.5-0.9-0.5s-0.7,0.2-0.9,0.5
		c-0.2,0.3-0.3,0.7-0.4,1.3h2.5v-0.2C133.2,48,133.1,47.6,132.9,47.3z"/>
	<path fill="#FFFFFF" d="M138,51.6c0-0.1,0-0.3,0.1-0.4s0.2-0.3,0.3-0.4c0.7,0.4,1.2,0.5,1.6,0.5c0.4,0,0.7-0.1,0.9-0.2
		c0.2-0.1,0.3-0.3,0.3-0.6c0-0.4-0.3-0.7-0.8-0.9l-0.7-0.3c-1-0.4-1.5-0.9-1.5-1.7c0-0.5,0.2-1,0.6-1.3c0.4-0.3,0.9-0.5,1.6-0.5
		s1.3,0.1,1.9,0.4c0,0.2,0,0.3-0.1,0.5s-0.2,0.3-0.3,0.4c-0.6-0.3-1.1-0.4-1.6-0.4c-0.3,0-0.5,0.1-0.7,0.2c-0.2,0.1-0.3,0.3-0.3,0.5
		c0,0.2,0.1,0.4,0.2,0.5s0.3,0.2,0.6,0.3l0.7,0.3c1,0.4,1.5,1,1.5,1.8c0,0.5-0.2,1-0.6,1.3c-0.4,0.3-1,0.5-1.7,0.5
		S138.6,52,138,51.6z"/>
	<path fill="#FFFFFF" d="M143.8,50.2v-2.8c0-0.5-0.1-0.8-0.2-1.1c0.2-0.2,0.4-0.2,0.7-0.2c0.3,0,0.4,0.1,0.5,0.2
		c0.1,0.1,0.1,0.3,0.1,0.6v3.1c0,0.4,0.1,0.7,0.2,0.9c0.1,0.2,0.3,0.3,0.6,0.3c0.3,0,0.6-0.1,0.8-0.2c0.3-0.1,0.5-0.3,0.8-0.6v-4.2
		c0.2,0,0.4,0,0.6,0s0.4,0,0.6,0v4.2c0,0.6,0.1,1,0.3,1.2c-0.1,0.3-0.2,0.5-0.4,0.6c-0.5-0.1-0.8-0.4-0.9-0.9
		c-0.6,0.6-1.3,0.9-2,0.9c-0.5,0-0.9-0.2-1.2-0.5C143.9,51.3,143.8,50.8,143.8,50.2z"/>
	<path fill="#FFFFFF" d="M154.9,51.6c-0.1,0.3-0.2,0.5-0.5,0.6c-0.4-0.1-0.7-0.3-0.9-0.8c-0.6,0.6-1.2,0.8-1.8,0.8
		c-0.6,0-1.1-0.2-1.4-0.5c-0.3-0.4-0.5-0.8-0.5-1.2c0-0.7,0.2-1.1,0.6-1.5s1-0.5,1.7-0.5c0.4,0,0.8,0,1.2,0.1v-0.5
		c0-0.7-0.3-1.1-1-1.1c-0.5,0-1.2,0.2-1.9,0.5c-0.2-0.2-0.3-0.5-0.3-0.9c0.8-0.4,1.7-0.6,2.5-0.6c0.6,0,1.1,0.2,1.4,0.5
		c0.3,0.3,0.5,0.8,0.5,1.5v2.5C154.6,51,154.7,51.4,154.9,51.6z M152,51.3c0.5,0,1-0.3,1.5-0.8v-1.2c-0.3,0-0.7-0.1-1.1-0.1
		c-0.4,0-0.7,0.1-0.9,0.3c-0.2,0.2-0.3,0.4-0.3,0.7c0,0.3,0.1,0.5,0.2,0.7C151.5,51.2,151.7,51.3,152,51.3z"/>
	<path fill="#FFFFFF" d="M163.4,49.5h-3.6c0,0.6,0.1,1,0.4,1.3c0.2,0.3,0.6,0.5,1.1,0.5s1.1-0.2,1.7-0.5c0.2,0.2,0.3,0.4,0.4,0.8
		c-0.6,0.4-1.4,0.7-2.3,0.7c-0.9,0-1.5-0.3-1.9-0.9s-0.6-1.3-0.6-2.3s0.2-1.7,0.6-2.3c0.4-0.6,1-0.9,1.8-0.9c0.8,0,1.4,0.2,1.8,0.7
		c0.4,0.5,0.6,1.1,0.6,1.8C163.5,48.9,163.5,49.2,163.4,49.5z M162.1,47.3c-0.2-0.3-0.5-0.5-0.9-0.5s-0.7,0.2-0.9,0.5
		c-0.2,0.3-0.3,0.7-0.4,1.3h2.5v-0.2C162.4,48,162.3,47.6,162.1,47.3z"/>
	<path fill="#FFFFFF" d="M168.4,53.9v-2.4c-0.5,0.4-1,0.7-1.7,0.7s-1.1-0.3-1.5-0.8c-0.4-0.5-0.5-1.3-0.5-2.3s0.2-1.7,0.7-2.3
		c0.5-0.5,1-0.8,1.6-0.8s1.2,0.2,1.6,0.6c0.2-0.3,0.4-0.5,0.8-0.5c0.2,0.1,0.4,0.3,0.5,0.6c-0.2,0.2-0.3,0.6-0.3,1.2v6.7l-0.1,0.1
		H169c-0.2,0-0.4-0.1-0.5-0.2C168.4,54.4,168.4,54.2,168.4,53.9z M167,51.2c0.5,0,1-0.2,1.4-0.7v-3c-0.4-0.4-0.8-0.5-1.2-0.5
		c-0.4,0-0.7,0.2-0.9,0.6s-0.4,0.9-0.4,1.6s0.1,1.2,0.3,1.6C166.4,51,166.7,51.2,167,51.2z"/>
	<path fill="#FFFFFF" d="M171.4,50.2v-2.8c0-0.5-0.1-0.8-0.2-1.1c0.2-0.2,0.4-0.2,0.7-0.2c0.3,0,0.4,0.1,0.5,0.2
		c0.1,0.1,0.1,0.3,0.1,0.6v3.1c0,0.4,0.1,0.7,0.2,0.9c0.1,0.2,0.3,0.3,0.6,0.3c0.3,0,0.6-0.1,0.8-0.2c0.3-0.1,0.5-0.3,0.8-0.6v-4.2
		c0.2,0,0.4,0,0.6,0s0.4,0,0.6,0v4.2c0,0.6,0.1,1,0.3,1.2c-0.1,0.3-0.2,0.5-0.4,0.6c-0.5-0.1-0.8-0.4-0.9-0.9
		c-0.6,0.6-1.3,0.9-2,0.9c-0.5,0-0.9-0.2-1.2-0.5C171.5,51.3,171.4,50.8,171.4,50.2z"/>
	<path fill="#FFFFFF" d="M179.3,47.1v4.9c-0.1,0-0.3,0-0.6,0c-0.2,0-0.4,0-0.6,0v-4.5c0-0.2,0-0.4-0.1-0.5s-0.2-0.1-0.4-0.1h-0.1
		c0-0.1,0-0.3,0-0.4c0-0.2,0-0.3,0-0.4c0.3,0,0.5,0,0.7,0h0.2c0.3,0,0.5,0.1,0.7,0.3C179.2,46.6,179.3,46.8,179.3,47.1z M177.7,44.5
		c0-0.2,0-0.4,0.1-0.5c0.2-0.1,0.4-0.1,0.7-0.1c0.3,0,0.5,0,0.6,0.1c0.1,0.1,0.1,0.3,0.1,0.5c0,0.2,0,0.4-0.1,0.5
		c-0.1,0.1-0.3,0.1-0.6,0.1c-0.3,0-0.5,0-0.6-0.1C177.8,44.9,177.7,44.7,177.7,44.5z"/>
	<path fill="#FFFFFF" d="M184,46c0.7,0,1.2,0.3,1.5,0.8c0.4,0.6,0.5,1.3,0.5,2.3s-0.2,1.7-0.7,2.3s-1,0.8-1.6,0.8
		c-0.5,0-1-0.1-1.4-0.4v2.1c0,0.3,0,0.5-0.1,0.6c-0.1,0.1-0.3,0.2-0.5,0.2h-0.4l-0.1-0.1v-8.4l0.1-0.1h0.4c0.4,0,0.6,0.2,0.7,0.6
		C182.7,46.3,183.3,46,184,46z M183.7,47c-0.6,0-1,0.3-1.4,0.8v3c0.4,0.3,0.9,0.5,1.2,0.5s0.7-0.2,0.9-0.6c0.2-0.4,0.4-0.9,0.4-1.6
		s-0.1-1.2-0.3-1.6S184,47,183.7,47z"/>
	<path fill="#FFFFFF" d="M191.9,49.5h-3.6c0,0.6,0.1,1,0.4,1.3c0.2,0.3,0.6,0.5,1.1,0.5s1.1-0.2,1.7-0.5c0.2,0.2,0.3,0.4,0.4,0.8
		c-0.6,0.4-1.4,0.7-2.3,0.7c-0.9,0-1.5-0.3-1.9-0.9s-0.6-1.3-0.6-2.3s0.2-1.7,0.6-2.3c0.4-0.6,1-0.9,1.8-0.9c0.8,0,1.4,0.2,1.8,0.7
		c0.4,0.5,0.6,1.1,0.6,1.8C191.9,48.9,191.9,49.2,191.9,49.5z M190.5,47.3c-0.2-0.3-0.5-0.5-0.9-0.5s-0.7,0.2-0.9,0.5
		c-0.2,0.3-0.3,0.7-0.4,1.3h2.5v-0.2C190.8,48,190.7,47.6,190.5,47.3z"/>
	<path fill="#A9D42D" d="M195.5,51.6c0-0.2,0.1-0.3,0.1-0.5c0.1-0.2,0.2-0.4,0.3-0.5c0.6,0.3,1.2,0.5,1.7,0.5c0.3,0,0.5-0.1,0.7-0.2
		c0.2-0.1,0.2-0.3,0.2-0.4c0-0.3-0.2-0.6-0.7-0.7l-0.7-0.3c-1-0.4-1.5-1-1.5-1.7c0-0.6,0.2-1,0.6-1.4c0.4-0.3,1-0.5,1.6-0.5
		s1.3,0.2,2,0.5c0,0.2,0,0.4-0.1,0.6c-0.1,0.2-0.2,0.4-0.3,0.5c-0.6-0.3-1.1-0.4-1.6-0.4c-0.2,0-0.4,0.1-0.5,0.2
		c-0.1,0.1-0.2,0.2-0.2,0.4c0,0.3,0.2,0.5,0.6,0.6l0.7,0.3c1,0.4,1.5,1,1.5,1.8c0,0.6-0.2,1-0.6,1.4c-0.4,0.3-1,0.5-1.8,0.5
		S196.2,52,195.5,51.6z"/>
	<path fill="#A9D42D" d="M205.8,49.6h-3.4c0,0.5,0.1,0.8,0.3,1.1c0.2,0.3,0.5,0.4,1,0.4s1-0.1,1.6-0.4c0.2,0.2,0.4,0.5,0.4,0.9
		c-0.6,0.5-1.4,0.7-2.3,0.7c-0.9,0-1.5-0.3-1.9-0.9c-0.4-0.6-0.6-1.3-0.6-2.3c0-0.9,0.2-1.7,0.6-2.3c0.4-0.6,1-0.9,1.9-0.9
		c0.8,0,1.4,0.2,1.9,0.7c0.4,0.5,0.6,1.1,0.6,1.8C206,48.9,205.9,49.2,205.8,49.6z M203.5,47c-0.7,0-1,0.5-1.1,1.5h2.1v-0.1
		c0-0.4-0.1-0.7-0.3-1S203.9,47,203.5,47z"/>
	<path fill="#A9D42D" d="M210.5,48.4c0-0.7-0.2-1-0.6-1c-0.4,0-0.7,0.2-1.1,0.6v4.1c-0.2,0-0.5,0.1-0.7,0.1c-0.3,0-0.5,0-0.8-0.1
		v-5.9l0.1-0.1h0.6c0.5,0,0.7,0.2,0.8,0.7c0.6-0.5,1.1-0.8,1.7-0.8c0.6,0,1,0.3,1.3,0.9c0.6-0.6,1.2-0.9,1.9-0.9
		c0.5,0,0.9,0.2,1.2,0.5c0.3,0.4,0.4,0.8,0.4,1.4v2.8c0,0.5,0.1,0.9,0.2,1.1c-0.2,0.2-0.5,0.3-0.9,0.3s-0.6-0.1-0.7-0.2
		c-0.1-0.2-0.2-0.4-0.2-0.7v-2.9c0-0.7-0.2-1-0.7-1c-0.3,0-0.7,0.2-1.1,0.6v4.1c-0.2,0-0.5,0.1-0.7,0.1s-0.5,0-0.8-0.1V48.4z"/>
	<path fill="#A9D42D" d="M220,46c0.6,0,1.2,0.3,1.5,0.8c0.4,0.6,0.5,1.3,0.5,2.3s-0.2,1.7-0.7,2.3c-0.5,0.6-1,0.8-1.7,0.8
		c-0.4,0-0.8-0.1-1.3-0.3v1.9c0,0.3-0.1,0.6-0.2,0.7s-0.3,0.2-0.6,0.2H217l-0.1-0.1v-8.4l0.1-0.1h0.4c0.4,0,0.7,0.2,0.9,0.6
		C218.8,46.2,219.3,46,220,46z M219.5,47.2c-0.4,0-0.8,0.2-1.1,0.6v2.8c0.4,0.2,0.7,0.4,1,0.4c0.3,0,0.6-0.2,0.8-0.5
		c0.2-0.3,0.3-0.8,0.3-1.5c0-0.6-0.1-1.1-0.3-1.4C220.1,47.3,219.8,47.2,219.5,47.2z"/>
	<path fill="#A9D42D" d="M223,46.8c0-0.1,0.1-0.3,0.2-0.4c0.1-0.2,0.2-0.3,0.3-0.3c0.6,0.1,1,0.5,1.3,1.1c0.3-0.7,0.8-1.1,1.5-1.1
		c0.2,0,0.4,0,0.7,0.1c0,0.5-0.1,1-0.4,1.4c-0.1,0-0.3-0.1-0.5-0.1c-0.5,0-0.9,0.3-1.2,0.8v3.9c-0.2,0-0.5,0.1-0.7,0.1
		s-0.5,0-0.8-0.1v-4C223.4,47.5,223.3,47.1,223,46.8z"/>
	<path fill="#A9D42D" d="M232.4,49.6H229c0,0.5,0.1,0.8,0.3,1.1c0.2,0.3,0.5,0.4,1,0.4s1-0.1,1.6-0.4c0.2,0.2,0.4,0.5,0.4,0.9
		c-0.6,0.5-1.4,0.7-2.3,0.7c-0.9,0-1.5-0.3-1.9-0.9c-0.4-0.6-0.6-1.3-0.6-2.3c0-0.9,0.2-1.7,0.6-2.3c0.4-0.6,1-0.9,1.9-0.9
		c0.8,0,1.4,0.2,1.9,0.7c0.4,0.5,0.6,1.1,0.6,1.8C232.5,48.9,232.5,49.2,232.4,49.6z M230.1,47c-0.7,0-1,0.5-1.1,1.5h2.1v-0.1
		c0-0.4-0.1-0.7-0.3-1S230.4,47,230.1,47z"/>
	<path fill="#A9D42D" d="M241.4,49.1c0,1.1-0.3,1.9-0.9,2.5c-0.5,0.5-1.1,0.7-1.8,0.7s-1.3-0.2-1.8-0.7c-0.6-0.6-0.9-1.4-0.9-2.5
		c0-1.1,0.3-1.9,0.9-2.5c0.5-0.5,1.1-0.7,1.8-0.7s1.3,0.2,1.8,0.7C241.2,47.2,241.4,48,241.4,49.1z M238.8,47.1
		c-0.8,0-1.1,0.7-1.1,2c0,1.3,0.4,2,1.1,2s1.1-0.7,1.1-2C239.9,47.8,239.5,47.1,238.8,47.1z"/>
	<path fill="#A9D42D" d="M242.2,51.6c0-0.2,0.1-0.3,0.1-0.5c0.1-0.2,0.2-0.4,0.3-0.5c0.6,0.3,1.2,0.5,1.7,0.5c0.3,0,0.5-0.1,0.7-0.2
		c0.2-0.1,0.2-0.3,0.2-0.4c0-0.3-0.2-0.6-0.7-0.7l-0.7-0.3c-1-0.4-1.5-1-1.5-1.7c0-0.6,0.2-1,0.6-1.4c0.4-0.3,1-0.5,1.6-0.5
		s1.3,0.2,2,0.5c0,0.2,0,0.4-0.1,0.6c-0.1,0.2-0.2,0.4-0.3,0.5c-0.6-0.3-1.1-0.4-1.6-0.4c-0.2,0-0.4,0.1-0.5,0.2
		c-0.1,0.1-0.2,0.2-0.2,0.4c0,0.3,0.2,0.5,0.6,0.6l0.7,0.3c1,0.4,1.5,1,1.5,1.8c0,0.6-0.2,1-0.6,1.4c-0.4,0.3-1,0.5-1.8,0.5
		S242.9,52,242.2,51.6z"/>
	<path fill="#A9D42D" d="M3.8,62.8c0-0.7-0.2-1-0.6-1c-0.4,0-0.7,0.2-1.1,0.6v4.1c-0.2,0-0.5,0.1-0.7,0.1c-0.3,0-0.5,0-0.8-0.1v-5.9
		l0.1-0.1h0.6c0.5,0,0.7,0.2,0.8,0.7c0.6-0.5,1.1-0.8,1.7-0.8c0.6,0,1,0.3,1.3,0.9c0.6-0.6,1.2-0.9,1.9-0.9c0.5,0,0.9,0.2,1.2,0.5
		c0.3,0.4,0.4,0.8,0.4,1.4v2.8c0,0.5,0.1,0.9,0.2,1.1c-0.2,0.2-0.5,0.3-0.9,0.3s-0.6-0.1-0.7-0.2c-0.1-0.2-0.2-0.4-0.2-0.7v-2.9
		c0-0.7-0.2-1-0.7-1c-0.3,0-0.7,0.2-1.1,0.6v4.1c-0.2,0-0.5,0.1-0.7,0.1s-0.5,0-0.8-0.1V62.8z"/>
	<path fill="#A9D42D" d="M14.7,64h-3.4c0,0.5,0.1,0.8,0.3,1.1c0.2,0.3,0.5,0.4,1,0.4s1-0.1,1.6-0.4c0.2,0.2,0.4,0.5,0.4,0.9
		c-0.6,0.5-1.4,0.7-2.3,0.7c-0.9,0-1.5-0.3-1.9-0.9c-0.4-0.6-0.6-1.3-0.6-2.3c0-0.9,0.2-1.7,0.6-2.3c0.4-0.6,1-0.9,1.9-0.9
		c0.8,0,1.4,0.2,1.9,0.7c0.4,0.5,0.6,1.1,0.6,1.8C14.8,63.3,14.8,63.6,14.7,64z M12.4,61.4c-0.7,0-1,0.5-1.1,1.5h2.1v-0.1
		c0-0.4-0.1-0.7-0.3-1S12.7,61.4,12.4,61.4z"/>
	<path fill="#A9D42D" d="M18.1,65.4h0.4c0.1,0.2,0.1,0.5,0.1,0.6c0,0.2,0,0.3,0,0.4c-0.5,0.1-0.8,0.1-1.1,0.1
		c-0.9,0-1.3-0.5-1.3-1.4v-7.4l0.1-0.1h0.6c0.3,0,0.5,0.1,0.6,0.2s0.2,0.4,0.2,0.7v6.3C17.6,65.2,17.8,65.4,18.1,65.4z"/>
	<path fill="#A9D42D" d="M24.7,62.5v2.7c0,0.5,0.1,0.9,0.2,1.1c-0.2,0.2-0.5,0.3-0.9,0.3s-0.6-0.1-0.7-0.2c-0.1-0.2-0.2-0.4-0.2-0.7
		v-2.8c0-0.4,0-0.6-0.1-0.8c-0.1-0.2-0.3-0.2-0.5-0.2c-0.5,0-0.9,0.2-1.3,0.6v4.1c-0.2,0-0.5,0.1-0.7,0.1s-0.5,0-0.7-0.1v-8.7
		l0.1-0.1h0.6c0.3,0,0.5,0.1,0.6,0.2s0.2,0.4,0.2,0.7v2.6c0.6-0.5,1.1-0.7,1.7-0.7c0.6,0,1,0.2,1.3,0.6
		C24.5,61.4,24.7,61.9,24.7,62.5z"/>
	<path fill="#A9D42D" d="M31.3,63.5c0,1.1-0.3,1.9-0.9,2.5c-0.5,0.5-1.1,0.7-1.8,0.7s-1.3-0.2-1.8-0.7c-0.6-0.6-0.9-1.4-0.9-2.5
		c0-1.1,0.3-1.9,0.9-2.5c0.5-0.5,1.1-0.7,1.8-0.7s1.3,0.2,1.8,0.7C31,61.6,31.3,62.4,31.3,63.5z M28.6,61.5c-0.8,0-1.1,0.7-1.1,2
		c0,1.3,0.4,2,1.1,2s1.1-0.7,1.1-2C29.7,62.2,29.4,61.5,28.6,61.5z"/>
	<path fill="#A9D42D" d="M32.2,61.2c0-0.1,0.1-0.3,0.2-0.4c0.1-0.2,0.2-0.3,0.3-0.3c0.6,0.1,1,0.5,1.3,1.1c0.3-0.7,0.8-1.1,1.5-1.1
		c0.2,0,0.4,0,0.7,0.1c0,0.5-0.1,1-0.4,1.4c-0.1,0-0.3-0.1-0.5-0.1c-0.5,0-0.9,0.3-1.2,0.8v3.9c-0.2,0-0.5,0.1-0.7,0.1
		s-0.5,0-0.8-0.1v-4C32.7,61.9,32.5,61.5,32.2,61.2z"/>
	<path fill="#A9D42D" d="M41.6,64h-3.4c0,0.5,0.1,0.8,0.3,1.1c0.2,0.3,0.5,0.4,1,0.4s1-0.1,1.6-0.4c0.2,0.2,0.4,0.5,0.4,0.9
		c-0.6,0.5-1.4,0.7-2.3,0.7c-0.9,0-1.5-0.3-1.9-0.9c-0.4-0.6-0.6-1.3-0.6-2.3c0-0.9,0.2-1.7,0.6-2.3c0.4-0.6,1-0.9,1.9-0.9
		c0.8,0,1.4,0.2,1.9,0.7c0.4,0.5,0.6,1.1,0.6,1.8C41.7,63.3,41.7,63.6,41.6,64z M39.3,61.4c-0.7,0-1,0.5-1.1,1.5h2.1v-0.1
		c0-0.4-0.1-0.7-0.3-1S39.7,61.4,39.3,61.4z"/>
	<path fill="#A9D42D" d="M42.6,66c0-0.2,0.1-0.3,0.1-0.5c0.1-0.2,0.2-0.4,0.3-0.5c0.6,0.3,1.2,0.5,1.7,0.5c0.3,0,0.5-0.1,0.7-0.2
		c0.2-0.1,0.2-0.3,0.2-0.4c0-0.3-0.2-0.6-0.7-0.7L44.3,64c-1-0.4-1.5-1-1.5-1.7c0-0.6,0.2-1,0.6-1.4c0.4-0.3,1-0.5,1.6-0.5
		s1.3,0.2,2,0.5c0,0.2,0,0.4-0.1,0.6c-0.1,0.2-0.2,0.4-0.3,0.5c-0.6-0.3-1.1-0.4-1.6-0.4c-0.2,0-0.4,0.1-0.5,0.2
		c-0.1,0.1-0.2,0.2-0.2,0.4c0,0.3,0.2,0.5,0.6,0.6l0.7,0.3c1,0.4,1.5,1,1.5,1.8c0,0.6-0.2,1-0.6,1.4c-0.4,0.3-1,0.5-1.8,0.5
		S43.3,66.4,42.6,66z"/>
	<path fill="#A9D42D" d="M50.7,61.2c0-0.1,0.1-0.3,0.2-0.4c0.1-0.2,0.2-0.3,0.3-0.3c0.6,0.1,1,0.5,1.3,1.1c0.3-0.7,0.8-1.1,1.5-1.1
		c0.2,0,0.4,0,0.7,0.1c0,0.5-0.1,1-0.4,1.4c-0.1,0-0.3-0.1-0.5-0.1c-0.5,0-0.9,0.3-1.2,0.8v3.9c-0.2,0-0.5,0.1-0.7,0.1
		s-0.5,0-0.8-0.1v-4C51.1,61.9,51,61.5,50.7,61.2z"/>
	<path fill="#A9D42D" d="M60.1,64h-3.4c0,0.5,0.1,0.8,0.3,1.1c0.2,0.3,0.5,0.4,1,0.4s1-0.1,1.6-0.4c0.2,0.2,0.4,0.5,0.4,0.9
		c-0.6,0.5-1.4,0.7-2.3,0.7c-0.9,0-1.5-0.3-1.9-0.9c-0.4-0.6-0.6-1.3-0.6-2.3c0-0.9,0.2-1.7,0.6-2.3c0.4-0.6,1-0.9,1.9-0.9
		c0.8,0,1.4,0.2,1.9,0.7c0.4,0.5,0.6,1.1,0.6,1.8C60.2,63.3,60.2,63.6,60.1,64z M57.8,61.4c-0.7,0-1,0.5-1.1,1.5h2.1v-0.1
		c0-0.4-0.1-0.7-0.3-1S58.1,61.4,57.8,61.4z"/>
	<path fill="#A9D42D" d="M61,66c0-0.2,0.1-0.3,0.1-0.5c0.1-0.2,0.2-0.4,0.3-0.5c0.6,0.3,1.2,0.5,1.7,0.5c0.3,0,0.5-0.1,0.7-0.2
		c0.2-0.1,0.2-0.3,0.2-0.4c0-0.3-0.2-0.6-0.7-0.7L62.7,64c-1-0.4-1.5-1-1.5-1.7c0-0.6,0.2-1,0.6-1.4c0.4-0.3,1-0.5,1.6-0.5
		s1.3,0.2,2,0.5c0,0.2,0,0.4-0.1,0.6c-0.1,0.2-0.2,0.4-0.3,0.5c-0.6-0.3-1.1-0.4-1.6-0.4c-0.2,0-0.4,0.1-0.5,0.2
		c-0.1,0.1-0.2,0.2-0.2,0.4c0,0.3,0.2,0.5,0.6,0.6l0.7,0.3c1,0.4,1.5,1,1.5,1.8c0,0.6-0.2,1-0.6,1.4c-0.4,0.3-1,0.5-1.8,0.5
		S61.7,66.4,61,66z"/>
	<path fill="#A9D42D" d="M66.8,64.6v-2.7c0-0.5-0.1-0.9-0.2-1.1c0.2-0.2,0.5-0.3,0.9-0.3s0.6,0.1,0.7,0.2c0.1,0.2,0.2,0.4,0.2,0.7
		v2.9c0,0.4,0,0.6,0.1,0.8c0.1,0.2,0.3,0.2,0.5,0.2c0.5,0,0.9-0.2,1.3-0.6v-4.1c0.2,0,0.5-0.1,0.7-0.1c0.3,0,0.5,0,0.7,0.1v4.3
		c0,0.5,0.1,0.9,0.3,1c-0.1,0.3-0.2,0.6-0.5,0.8c-0.6-0.1-1-0.4-1.2-0.9c-0.6,0.6-1.3,0.9-1.9,0.9c-0.5,0-0.9-0.2-1.2-0.6
		C66.9,65.7,66.8,65.2,66.8,64.6z"/>
	<path fill="#A9D42D" d="M75.4,65.4h0.4c0.1,0.2,0.1,0.5,0.1,0.6c0,0.2,0,0.3,0,0.4c-0.5,0.1-0.8,0.1-1.1,0.1
		c-0.9,0-1.3-0.5-1.3-1.4v-7.4l0.1-0.1h0.6c0.3,0,0.5,0.1,0.6,0.2s0.2,0.4,0.2,0.7v6.3C74.9,65.2,75,65.4,75.4,65.4z"/>
	<path fill="#A9D42D" d="M80,60.5c0,0.2,0.1,0.3,0.1,0.5s0,0.4-0.1,0.5l-1.5,0v3.3c0,0.4,0.2,0.5,0.5,0.5h0.8
		c0.1,0.2,0.1,0.5,0.1,0.6c0,0.2,0,0.3,0,0.4c-0.5,0.1-1,0.1-1.4,0.1c-0.9,0-1.4-0.5-1.4-1.4v-3.6l-0.9,0c0-0.2-0.1-0.3-0.1-0.5
		s0-0.4,0.1-0.5l0.9,0v-0.9c0-0.3,0.1-0.6,0.2-0.7c0.1-0.1,0.3-0.2,0.6-0.2h0.6l0.1,0.1v1.8L80,60.5z"/>
	<path fill="#A9D42D" d="M86,65.8c0,0.1-0.1,0.3-0.2,0.4c-0.1,0.1-0.2,0.3-0.3,0.3c-0.5-0.1-0.9-0.3-1.1-0.7
		c-0.5,0.5-1.1,0.8-1.7,0.8c-0.6,0-1.1-0.2-1.4-0.5c-0.3-0.4-0.5-0.8-0.5-1.2c0-0.7,0.2-1.2,0.7-1.5c0.4-0.3,1-0.5,1.7-0.5
		c0.4,0,0.7,0,1,0v-0.4c0-0.6-0.3-0.9-0.9-0.9c-0.4,0-1,0.1-1.8,0.4c-0.2-0.2-0.4-0.6-0.4-1.1c0.9-0.4,1.7-0.5,2.6-0.5
		c0.6,0,1.1,0.2,1.5,0.5s0.6,0.8,0.6,1.5v2.4C85.6,65.3,85.7,65.6,86,65.8z M83,65.5c0.4,0,0.8-0.2,1.2-0.6v-1.1c-0.3,0-0.6,0-0.9,0
		s-0.6,0.1-0.7,0.3s-0.3,0.4-0.3,0.6c0,0.3,0.1,0.5,0.2,0.6C82.6,65.4,82.7,65.5,83,65.5z"/>
	<path fill="#A9D42D" d="M88.9,66.6c-0.7,0-1.2-0.3-1.6-0.8c-0.4-0.6-0.5-1.3-0.5-2.3s0.2-1.7,0.7-2.3c0.5-0.6,1-0.8,1.7-0.8
		c0.4,0,0.8,0.1,1.3,0.3v-3l0.1-0.1h0.6c0.3,0,0.5,0.1,0.6,0.2c0.1,0.1,0.2,0.4,0.2,0.7v6.2c0,0.5,0.1,0.8,0.3,1
		c0,0.1-0.1,0.3-0.2,0.4c-0.1,0.1-0.2,0.3-0.3,0.3c-0.5-0.1-0.9-0.3-1.1-0.7C90.1,66.4,89.6,66.6,88.9,66.6z M89.3,65.4
		c0.4,0,0.8-0.2,1.1-0.6v-2.8c-0.4-0.2-0.8-0.4-1.1-0.4c-0.3,0-0.5,0.2-0.7,0.5c-0.2,0.3-0.3,0.8-0.3,1.5s0.1,1.1,0.3,1.4
		C88.8,65.3,89,65.4,89.3,65.4z"/>
	<path fill="#A9D42D" d="M98.5,63.5c0,1.1-0.3,1.9-0.9,2.5c-0.5,0.5-1.1,0.7-1.8,0.7S94.5,66.4,94,66c-0.6-0.6-0.9-1.4-0.9-2.5
		c0-1.1,0.3-1.9,0.9-2.5c0.5-0.5,1.1-0.7,1.8-0.7s1.3,0.2,1.8,0.7C98.2,61.6,98.5,62.4,98.5,63.5z M95.9,61.5c-0.8,0-1.1,0.7-1.1,2
		c0,1.3,0.4,2,1.1,2s1.1-0.7,1.1-2C97,62.2,96.6,61.5,95.9,61.5z"/>
	<path fill="#A9D42D" d="M99.3,66c0-0.2,0.1-0.3,0.1-0.5c0.1-0.2,0.2-0.4,0.3-0.5c0.6,0.3,1.2,0.5,1.7,0.5c0.3,0,0.5-0.1,0.7-0.2
		c0.2-0.1,0.2-0.3,0.2-0.4c0-0.3-0.2-0.6-0.7-0.7L101,64c-1-0.4-1.5-1-1.5-1.7c0-0.6,0.2-1,0.6-1.4c0.4-0.3,1-0.5,1.6-0.5
		s1.3,0.2,2,0.5c0,0.2,0,0.4-0.1,0.6c-0.1,0.2-0.2,0.4-0.3,0.5c-0.6-0.3-1.1-0.4-1.6-0.4c-0.2,0-0.4,0.1-0.5,0.2
		c-0.1,0.1-0.2,0.2-0.2,0.4c0,0.3,0.2,0.5,0.6,0.6l0.7,0.3c1,0.4,1.5,1,1.5,1.8c0,0.6-0.2,1-0.6,1.4c-0.4,0.3-1,0.5-1.8,0.5
		S100,66.4,99.3,66z"/>
	<path fill="#FFFFFF" d="M105,65.8c0-0.2,0-0.4,0.1-0.6c0.2-0.1,0.4-0.1,0.7-0.1c0.3,0,0.5,0,0.7,0.1c0.1,0.1,0.1,0.3,0.1,0.6
		s0,0.4-0.1,0.6c-0.2,0.1-0.4,0.1-0.7,0.1c-0.3,0-0.5,0-0.7-0.1C105,66.3,105,66.1,105,65.8z"/>
</g>
</svg>