<!-- Generator: Adobe Illustrator 17.1.0, SVG Export Plug-In  -->
<svg version="1.1"
	 xmlns="http://www.w3.org/2000/svg" xmlns:xlink="http://www.w3.org/1999/xlink" xmlns:a="http://ns.adobe.com/AdobeSVGViewerExtensions/3.0/"
	 x="0px" y="0px" width="284.8px" height="262.8px" viewBox="0 0 284.8 262.8" enable-background="new 0 0 284.8 262.8"
	 xml:space="preserve">
<defs>
</defs>
<g>
	<path fill="#FFFFFF" d="M30.8,246c-0.4-1,0.1-2.2,1.1-2.6l0,0c1-0.4,2.2,0.1,2.6,1.1l0,0c0.4,1-0.1,2.2-1.1,2.6l0,0l0,0l0,0
		c-0.2,0.1-0.5,0.1-0.7,0.1l0,0C31.8,247.3,31.1,246.8,30.8,246z M38.4,242.9c-0.5-1,0-2.2,1-2.6l0,0c1-0.5,2.2,0,2.7,1l0,0
		c0.5,1,0,2.2-1,2.7l0,0c-0.3,0.1-0.5,0.2-0.8,0.2l0,0C39.4,244.1,38.7,243.7,38.4,242.9z M45.8,239.5c-0.5-1-0.1-2.2,0.9-2.7l0,0
		c1-0.5,2.2-0.1,2.7,0.9l0,0c0.5,1,0.1,2.2-0.9,2.7l0,0c-0.3,0.2-0.6,0.2-0.9,0.2l0,0C46.9,240.6,46.2,240.2,45.8,239.5z
		 M53.1,235.7c-0.5-1-0.2-2.2,0.8-2.7l0,0c1-0.5,2.2-0.2,2.7,0.8l0,0c0.5,1,0.2,2.2-0.8,2.7l0,0c-0.3,0.2-0.6,0.3-1,0.3l0,0
		C54.1,236.7,53.5,236.3,53.1,235.7z M60.2,231.5c-0.6-0.9-0.3-2.2,0.6-2.8l0,0c0.9-0.6,2.2-0.3,2.8,0.6l0,0
		c0.6,0.9,0.3,2.2-0.6,2.8l0,0c-0.3,0.2-0.7,0.3-1.1,0.3l0,0C61.2,232.5,60.6,232.1,60.2,231.5z M67.1,227.1
		c-0.6-0.9-0.4-2.2,0.5-2.8l0,0c0.9-0.6,2.1-0.4,2.8,0.5l0,0c0.6,0.9,0.4,2.1-0.5,2.8l0,0c-0.3,0.2-0.8,0.4-1.1,0.4l0,0
		C68.1,228,67.5,227.7,67.1,227.1z M73.8,222.3c-0.7-0.9-0.5-2.1,0.4-2.8l0,0c0.9-0.7,2.1-0.5,2.8,0.4l0,0c0.7,0.9,0.5,2.1-0.4,2.8
		l0,0l0,0l0,0c-0.4,0.3-0.8,0.4-1.2,0.4l0,0C74.8,223.1,74.2,222.9,73.8,222.3z M80.3,217.3c-0.7-0.9-0.6-2.1,0.3-2.8l0,0
		c0.8-0.7,2.1-0.6,2.8,0.3l0,0c0.7,0.9,0.6,2.1-0.3,2.8l0,0c-0.4,0.3-0.8,0.5-1.3,0.5l0,0C81.3,218,80.7,217.8,80.3,217.3z
		 M86.6,212c-0.7-0.8-0.7-2.1,0.1-2.8l0,0c0.8-0.7,2.1-0.7,2.8,0.1l0,0c0.7,0.8,0.7,2.1-0.1,2.8l0,0l0,0l0,0
		c-0.4,0.4-0.9,0.5-1.3,0.5l0,0C87.5,212.6,87,212.4,86.6,212z M92.6,206.4c-0.8-0.8-0.8-2.1,0-2.8l0,0c0.8-0.8,2.1-0.8,2.8,0l0,0
		c0.8,0.8,0.8,2,0,2.8l0,0l0,0l0,0c-0.4,0.4-0.9,0.6-1.4,0.6l0,0C93.5,207,93,206.8,92.6,206.4z M98.4,200.5c-0.8-0.8-0.9-2-0.1-2.8
		l0,0c0.8-0.8,2-0.9,2.8-0.1l0,0c0.8,0.8,0.9,2,0.1,2.8l0,0c-0.4,0.4-0.9,0.6-1.5,0.6l0,0C99.2,201.1,98.8,200.9,98.4,200.5z
		 M103.9,194.4c-0.8-0.7-0.9-2-0.2-2.8l0,0c0.7-0.9,2-0.9,2.8-0.2l0,0c0.8,0.7,0.9,2,0.2,2.8l0,0l0,0l0,0c-0.4,0.5-1,0.7-1.5,0.7
		l0,0C104.7,194.9,104.3,194.8,103.9,194.4z M109.1,188.1c-0.9-0.7-1-1.9-0.3-2.8l0,0c0.7-0.9,1.9-1,2.8-0.4l0,0
		c0.9,0.7,1,1.9,0.4,2.8l0,0l0,0l0,0c-0.4,0.5-1,0.8-1.6,0.8l0,0C109.9,188.5,109.5,188.4,109.1,188.1z M114.1,181.6
		c-0.9-0.6-1.1-1.9-0.5-2.8l0,0c0.6-0.9,1.9-1.1,2.8-0.5l0,0c0.9,0.6,1.1,1.9,0.5,2.8l0,0c-0.4,0.5-1,0.8-1.6,0.8l0,0
		C114.9,181.9,114.5,181.8,114.1,181.6z M118.8,174.8c-0.9-0.6-1.2-1.8-0.6-2.8l0,0c0.6-0.9,1.8-1.2,2.8-0.6l0,0
		c0.9,0.6,1.2,1.8,0.6,2.8l0,0l0,0l0,0c-0.4,0.6-1,0.9-1.7,0.9l0,0C119.5,175.1,119.2,175,118.8,174.8z M123.2,167.9
		c-1-0.6-1.3-1.8-0.7-2.7l0,0c0.6-1,1.8-1.3,2.7-0.7l0,0c1,0.6,1.3,1.8,0.7,2.7l0,0c-0.4,0.6-1.1,1-1.7,1l0,0
		C123.9,168.1,123.5,168,123.2,167.9z M127.3,160.7c-1-0.5-1.4-1.7-0.9-2.7l0,0c0.5-1,1.7-1.4,2.7-0.9l0,0c1,0.5,1.4,1.7,0.9,2.7
		l0,0l0,0l0,0c-0.4,0.7-1.1,1.1-1.8,1.1l0,0C127.9,160.9,127.5,160.8,127.3,160.7z M130.9,153.3c-1-0.4-1.5-1.6-1-2.6l0,0
		c0.4-1,1.6-1.5,2.6-1l0,0c1,0.4,1.5,1.6,1,2.6l0,0c-0.3,0.8-1.1,1.2-1.8,1.2l0,0C131.4,153.5,131.2,153.4,130.9,153.3z
		 M132.3,143.7c0-1.1,0.9-2,2-2l0,0c1.1,0,2,0.9,2,2l0,0l0,0l0,0c0,1.1-0.9,2-2,2l0,0C133.2,145.7,132.3,144.8,132.3,143.7z"/>
</g>
<g>
	<g>
		<path fill="#B74620" d="M174.3,216.5c-58.5,0-106-47.5-106-106s47.5-106,106-106s106,47.5,106,106S232.9,216.5,174.3,216.5"/>
	</g>
	<g>
		<path fill="#FFFFFF" d="M174.3,217.5c-59,0-107-48-107-107s48-107,107-107s107,48,107,107S233.3,217.5,174.3,217.5z M174.3,5.5
			c-57.9,0-105,47.1-105,105s47.1,105,105,105s105-47.1,105-105S232.2,5.5,174.3,5.5z"/>
	</g>
</g>
<g>
	<path fill="#FFFFFF" d="M174.3,221c-60.9,0-110.5-49.6-110.5-110.5S113.4,0,174.3,0s110.5,49.6,110.5,110.5S235.3,221,174.3,221z
		 M174.3,9c-56,0-101.5,45.5-101.5,101.5S118.4,212,174.3,212s101.5-45.5,101.5-101.5S230.3,9,174.3,9z"/>
</g>
<g>
	<path fill="#043A63" d="M138.2,73.6l0,1.4v1.1h3.2c0.1,0.2,0.1,0.5,0.1,0.7s0,0.5-0.1,0.7h-3.2v4.1c-0.2,0-0.5,0.1-0.9,0.1
		c-0.4,0-0.6,0-0.9-0.1v-9.5l0.1-0.1h5.7c0.1,0.2,0.1,0.4,0.1,0.7c0,0.6-0.3,0.8-1,0.8h-1.9C138.8,73.6,138.4,73.6,138.2,73.6z"/>
	<path fill="#043A63" d="M148.8,78.8h-3.9c0,0.6,0.2,1,0.4,1.3c0.2,0.3,0.6,0.5,1.2,0.5s1.2-0.2,1.8-0.5c0.3,0.3,0.4,0.6,0.5,1.1
		c-0.7,0.5-1.6,0.8-2.7,0.8s-1.8-0.3-2.3-1c-0.5-0.7-0.7-1.6-0.7-2.6c0-1.1,0.3-2,0.8-2.6c0.5-0.7,1.2-1,2.2-1
		c0.9,0,1.7,0.3,2.2,0.8s0.8,1.3,0.8,2.1C149,77.9,148.9,78.4,148.8,78.8z M146.1,75.8c-0.8,0-1.2,0.6-1.2,1.7h2.4v-0.2
		c0-0.5-0.1-0.8-0.3-1.1C146.8,75.9,146.5,75.8,146.1,75.8z"/>
	<path fill="#043A63" d="M155.8,78.8h-3.9c0,0.6,0.2,1,0.4,1.3c0.2,0.3,0.6,0.5,1.2,0.5s1.2-0.2,1.8-0.5c0.3,0.3,0.4,0.6,0.5,1.1
		c-0.7,0.5-1.6,0.8-2.7,0.8s-1.8-0.3-2.3-1c-0.5-0.7-0.7-1.6-0.7-2.6c0-1.1,0.3-2,0.8-2.6c0.5-0.7,1.2-1,2.2-1
		c0.9,0,1.7,0.3,2.2,0.8s0.8,1.3,0.8,2.1C156,77.9,155.9,78.4,155.8,78.8z M153.1,75.8c-0.8,0-1.2,0.6-1.2,1.7h2.4v-0.2
		c0-0.5-0.1-0.8-0.3-1.1C153.8,75.9,153.5,75.8,153.1,75.8z"/>
	<path fill="#043A63" d="M159.6,81.9c-0.8,0-1.4-0.3-1.8-1c-0.4-0.6-0.6-1.5-0.6-2.7c0-1.1,0.3-2,0.8-2.7c0.5-0.6,1.2-1,1.9-1
		c0.5,0,1,0.1,1.5,0.4v-3.5l0.1-0.1h0.7c0.3,0,0.6,0.1,0.7,0.2c0.1,0.2,0.2,0.4,0.2,0.8v7.2c0,0.6,0.1,1,0.4,1.2
		c0,0.2-0.1,0.3-0.2,0.5c-0.1,0.2-0.2,0.3-0.4,0.4c-0.6-0.1-1-0.4-1.2-0.8C161,81.6,160.3,81.9,159.6,81.9z M160,80.4
		c0.5,0,1-0.3,1.3-0.8v-3.3c-0.5-0.3-0.9-0.4-1.2-0.4s-0.6,0.2-0.9,0.6c-0.2,0.4-0.3,1-0.3,1.7s0.1,1.3,0.3,1.6S159.7,80.4,160,80.4
		z"/>
	<path fill="#043A63" d="M170.3,75.6c0.4,0.6,0.6,1.5,0.6,2.6s-0.3,2-0.9,2.6c-0.6,0.6-1.4,1-2.3,1c-1,0-1.8-0.2-2.6-0.5v-9.9
		l0.1-0.1h0.6c0.3,0,0.6,0.1,0.7,0.2c0.1,0.2,0.2,0.4,0.2,0.8v2.8c0.5-0.4,1.1-0.6,1.8-0.6C169.3,74.6,169.9,74.9,170.3,75.6z
		 M168,76c-0.5,0-0.9,0.2-1.3,0.7v3.7c0.3,0.1,0.6,0.1,1,0.1c0.5,0,0.8-0.2,1.1-0.6c0.3-0.4,0.4-1,0.4-1.8
		C169.2,76.7,168.8,76,168,76z"/>
	<path fill="#043A63" d="M178,80.9c0,0.2-0.1,0.3-0.2,0.5c-0.1,0.2-0.2,0.3-0.4,0.4c-0.6-0.1-1-0.3-1.3-0.8c-0.6,0.6-1.3,0.9-2,0.9
		s-1.3-0.2-1.6-0.6s-0.5-0.9-0.5-1.5c0-0.8,0.3-1.4,0.8-1.8s1.2-0.6,2-0.6c0.4,0,0.8,0,1.2,0.1v-0.4c0-0.7-0.4-1.1-1.1-1.1
		c-0.5,0-1.2,0.2-2.1,0.5c-0.3-0.3-0.4-0.7-0.5-1.2c1-0.4,2-0.6,3-0.6c0.7,0,1.3,0.2,1.7,0.6c0.4,0.4,0.7,1,0.7,1.8v2.9
		C177.6,80.3,177.8,80.7,178,80.9z M174.5,80.5c0.5,0,1-0.2,1.4-0.7v-1.2c-0.3,0-0.7-0.1-1.1-0.1c-0.4,0-0.7,0.1-0.9,0.3
		c-0.2,0.2-0.3,0.4-0.3,0.7c0,0.3,0.1,0.5,0.2,0.7S174.3,80.5,174.5,80.5z"/>
	<path fill="#043A63" d="M183,77.6c0-0.1,0-0.1,0-0.2c0-0.5-0.1-0.8-0.2-1.1c-0.1-0.3-0.4-0.4-0.8-0.4c-0.8,0-1.2,0.8-1.2,2.3
		s0.5,2.3,1.4,2.3c0.5,0,1-0.2,1.6-0.7c0.1,0.1,0.3,0.2,0.4,0.4c0.1,0.2,0.2,0.4,0.3,0.6c-0.7,0.7-1.5,1-2.5,1s-1.7-0.3-2.2-1
		c-0.5-0.7-0.7-1.6-0.7-2.7s0.3-2,0.9-2.7s1.3-0.9,2.1-0.9c0.8,0,1.5,0.2,1.9,0.7c0.5,0.4,0.7,1,0.7,1.6c0,0.6-0.3,0.9-0.9,0.9
		C183.5,77.6,183.2,77.6,183,77.6z"/>
	<path fill="#043A63" d="M190.9,79l0.4,1.1c0.2,0.6,0.4,1,0.7,1.1c-0.3,0.4-0.7,0.5-1.2,0.5c-0.3,0-0.5-0.1-0.6-0.2
		c-0.1-0.1-0.3-0.4-0.4-0.7l-0.5-1.3c-0.1-0.3-0.3-0.6-0.4-0.7c-0.1-0.1-0.3-0.2-0.5-0.2c-0.2,0-0.4,0-0.7,0v2.9
		c-0.3,0-0.5,0.1-0.8,0.1c-0.3,0-0.6,0-0.9-0.1V71.5l0.1-0.1h0.7c0.4,0,0.6,0.1,0.7,0.2c0.1,0.2,0.2,0.4,0.2,0.8v4.9l0.4,0
		c0.1,0,0.3-0.1,0.4-0.2l1-1.7c0.3-0.5,0.6-0.7,1-0.7c0.4,0,0.8,0,1,0l0.1,0.1l-1.4,2.3c-0.2,0.3-0.4,0.5-0.6,0.6
		C190.2,77.9,190.6,78.3,190.9,79z"/>
	<path fill="#043A63" d="M201.5,78.8h-3.9c0,0.6,0.2,1,0.4,1.3c0.2,0.3,0.6,0.5,1.2,0.5s1.2-0.2,1.8-0.5c0.3,0.3,0.4,0.6,0.5,1.1
		c-0.7,0.5-1.6,0.8-2.7,0.8s-1.8-0.3-2.3-1c-0.5-0.7-0.7-1.6-0.7-2.6c0-1.1,0.3-2,0.8-2.6c0.5-0.7,1.2-1,2.2-1
		c0.9,0,1.7,0.3,2.2,0.8s0.8,1.3,0.8,2.1C201.6,77.9,201.6,78.4,201.5,78.8z M198.8,75.8c-0.8,0-1.2,0.6-1.2,1.7h2.4v-0.2
		c0-0.5-0.1-0.8-0.3-1.1C199.5,75.9,199.2,75.8,198.8,75.8z"/>
	<path fill="#043A63" d="M207,77.4c0-0.8-0.3-1.2-0.8-1.2c-0.4,0-0.8,0.2-1.3,0.7v4.8c-0.3,0-0.5,0.1-0.9,0.1s-0.6,0-0.9-0.1v-6.9
		l0.1-0.1h0.6c0.5,0,0.9,0.3,1,0.9c0.6-0.6,1.3-0.9,2-0.9c0.7,0,1.2,0.3,1.5,1c0.7-0.7,1.5-1,2.2-1c0.6,0,1,0.2,1.4,0.6
		c0.3,0.4,0.5,0.9,0.5,1.6v3.3c0,0.6,0.1,1,0.3,1.3c-0.3,0.2-0.6,0.4-1,0.4c-0.4,0-0.7-0.1-0.8-0.3s-0.2-0.5-0.2-0.8v-3.3
		c0-0.8-0.3-1.2-0.8-1.2c-0.4,0-0.8,0.2-1.3,0.7v4.8c-0.3,0-0.5,0.1-0.9,0.1c-0.3,0-0.6,0-0.9-0.1V77.4z"/>
	<path fill="#043A63" d="M122.2,93.3l2.2,0c0,0,0,0,0,0c0.8,0,1.2,0.4,1.2,1.1v3.7c-1.1,0.4-2.3,0.6-3.6,0.6s-2.3-0.5-3-1.4
		c-0.7-0.9-1-2.1-1-3.7s0.4-2.8,1.3-3.6c0.8-0.9,1.9-1.3,3.1-1.3c1.2,0,2.3,0.3,3.3,1c0,0.3-0.1,0.5-0.3,0.7
		c-0.2,0.2-0.3,0.4-0.5,0.6c-0.8-0.6-1.6-0.8-2.4-0.8s-1.4,0.3-1.9,0.9c-0.4,0.6-0.7,1.5-0.7,2.7c0,2.3,0.8,3.5,2.5,3.5
		c0.5,0,1-0.1,1.6-0.2v-1.3c0-0.4,0-0.7,0-0.9h-1c-0.3,0-0.5-0.1-0.6-0.2c-0.1-0.1-0.2-0.3-0.2-0.6S122.1,93.5,122.2,93.3z"/>
	<path fill="#043A63" d="M132.6,95.6h-3.9c0,0.6,0.2,1,0.4,1.3c0.2,0.3,0.6,0.5,1.2,0.5s1.2-0.2,1.8-0.5c0.3,0.3,0.4,0.6,0.5,1.1
		c-0.7,0.5-1.6,0.8-2.7,0.8s-1.8-0.3-2.3-1c-0.5-0.7-0.7-1.6-0.7-2.6c0-1.1,0.3-2,0.8-2.6c0.5-0.7,1.2-1,2.2-1
		c0.9,0,1.7,0.3,2.2,0.8s0.8,1.3,0.8,2.1C132.8,94.7,132.7,95.2,132.6,95.6z M129.9,92.6c-0.8,0-1.2,0.6-1.2,1.7h2.4v-0.2
		c0-0.5-0.1-0.8-0.3-1.1C130.6,92.7,130.3,92.6,129.9,92.6z"/>
	<path fill="#043A63" d="M133.7,98c0-0.2,0.1-0.4,0.2-0.6c0.1-0.2,0.2-0.4,0.4-0.6c0.7,0.4,1.4,0.6,2,0.6c0.3,0,0.6-0.1,0.8-0.2
		c0.2-0.1,0.3-0.3,0.3-0.5c0-0.4-0.3-0.6-0.8-0.8l-0.8-0.3c-1.2-0.4-1.8-1.1-1.8-2c0-0.7,0.2-1.2,0.7-1.6c0.5-0.4,1.1-0.6,1.9-0.6
		s1.6,0.2,2.4,0.5c0,0.2,0,0.4-0.1,0.7c-0.1,0.2-0.2,0.4-0.4,0.5c-0.7-0.3-1.3-0.5-1.9-0.5c-0.3,0-0.5,0.1-0.6,0.2
		c-0.2,0.1-0.2,0.3-0.2,0.5c0,0.3,0.2,0.5,0.7,0.7l0.9,0.3c1.2,0.4,1.8,1.2,1.8,2.2c0,0.7-0.2,1.2-0.7,1.6c-0.5,0.4-1.2,0.6-2.1,0.6
		S134.5,98.4,133.7,98z"/>
	<path fill="#043A63" d="M144.2,91.5c0,0.2,0.1,0.4,0.1,0.6c0,0.2,0,0.4-0.1,0.6l-1.7,0v3.8c0,0.4,0.2,0.6,0.6,0.6h0.9
		c0.1,0.3,0.1,0.5,0.1,0.7s0,0.4,0,0.5c-0.6,0.1-1.1,0.1-1.7,0.1c-1.1,0-1.6-0.5-1.6-1.6v-4.1l-1,0c0-0.2-0.1-0.4-0.1-0.6
		c0-0.2,0-0.5,0.1-0.6l1,0v-1.1c0-0.4,0.1-0.7,0.2-0.8c0.1-0.2,0.4-0.2,0.7-0.2h0.7l0.1,0.1v2L144.2,91.5z"/>
	<path fill="#043A63" d="M151.1,97.7c0,0.2-0.1,0.3-0.2,0.5c-0.1,0.2-0.2,0.3-0.4,0.4c-0.6-0.1-1-0.3-1.3-0.8
		c-0.6,0.6-1.3,0.9-2,0.9s-1.3-0.2-1.6-0.6s-0.5-0.9-0.5-1.5c0-0.8,0.3-1.4,0.8-1.8s1.2-0.6,2-0.6c0.4,0,0.8,0,1.2,0.1v-0.4
		c0-0.7-0.4-1.1-1.1-1.1c-0.5,0-1.2,0.2-2.1,0.5c-0.3-0.3-0.4-0.7-0.5-1.2c1-0.4,2-0.6,3-0.6c0.7,0,1.3,0.2,1.7,0.6
		c0.4,0.4,0.7,1,0.7,1.8v2.9C150.8,97.1,150.9,97.5,151.1,97.7z M148.1,90.5l-0.7-0.4c-0.1-0.1-0.3-0.1-0.5-0.1
		c-0.2,0-0.3,0.1-0.5,0.4l-0.1,0.2c-0.2,0-0.3-0.1-0.5-0.2c-0.2-0.1-0.3-0.2-0.3-0.4l0.1-0.3c0.1-0.3,0.4-0.6,0.6-0.8
		c0.3-0.2,0.5-0.3,0.8-0.3c0.3,0,0.6,0.1,0.9,0.2l0.7,0.4c0.2,0.1,0.3,0.1,0.5,0.1s0.3-0.1,0.5-0.4l0.1-0.2c0.2,0,0.3,0.1,0.5,0.2
		c0.2,0.1,0.3,0.2,0.3,0.4l-0.1,0.3c-0.1,0.3-0.4,0.6-0.6,0.8c-0.3,0.2-0.5,0.3-0.8,0.3S148.4,90.6,148.1,90.5z M147.6,97.3
		c0.5,0,1-0.2,1.4-0.7v-1.2c-0.3,0-0.7-0.1-1.1-0.1c-0.4,0-0.7,0.1-0.9,0.3c-0.2,0.2-0.3,0.4-0.3,0.7c0,0.3,0.1,0.5,0.2,0.7
		S147.4,97.3,147.6,97.3z"/>
	<path fill="#043A63" d="M158.4,95c0,1.3-0.3,2.2-1,2.9c-0.5,0.5-1.2,0.8-2.1,0.8c-0.9,0-1.6-0.3-2.1-0.8c-0.7-0.7-1-1.6-1-2.9
		s0.3-2.2,1-2.9c0.5-0.5,1.2-0.8,2.1-0.8c0.9,0,1.6,0.3,2.1,0.8C158.1,92.8,158.4,93.8,158.4,95z M155.3,92.7
		c-0.9,0-1.3,0.8-1.3,2.4c0,1.6,0.4,2.4,1.3,2.4c0.9,0,1.3-0.8,1.3-2.4C156.7,93.4,156.2,92.7,155.3,92.7z"/>
	<path fill="#043A63" d="M165.1,98.7c-0.8,0-1.4-0.3-1.8-1c-0.4-0.6-0.6-1.5-0.6-2.7c0-1.1,0.3-2,0.8-2.7c0.5-0.6,1.2-1,1.9-1
		c0.5,0,1,0.1,1.5,0.4v-3.5l0.1-0.1h0.7c0.3,0,0.6,0.1,0.7,0.2c0.1,0.2,0.2,0.4,0.2,0.8v7.2c0,0.6,0.1,1,0.4,1.2
		c0,0.2-0.1,0.3-0.2,0.5c-0.1,0.2-0.2,0.3-0.4,0.4c-0.6-0.1-1-0.4-1.2-0.8C166.5,98.4,165.8,98.7,165.1,98.7z M165.5,97.2
		c0.5,0,1-0.3,1.3-0.8v-3.3c-0.5-0.3-0.9-0.4-1.2-0.4s-0.6,0.2-0.9,0.6c-0.2,0.4-0.3,1-0.3,1.7s0.1,1.3,0.3,1.6
		S165.2,97.2,165.5,97.2z"/>
	<path fill="#043A63" d="M175.8,95.6h-3.9c0,0.6,0.2,1,0.4,1.3c0.2,0.3,0.6,0.5,1.2,0.5s1.2-0.2,1.8-0.5c0.3,0.3,0.4,0.6,0.5,1.1
		c-0.7,0.5-1.6,0.8-2.7,0.8s-1.8-0.3-2.3-1c-0.5-0.7-0.7-1.6-0.7-2.6c0-1.1,0.3-2,0.8-2.6c0.5-0.7,1.2-1,2.2-1
		c0.9,0,1.7,0.3,2.2,0.8s0.8,1.3,0.8,2.1C175.9,94.7,175.9,95.2,175.8,95.6z M173.1,92.6c-0.8,0-1.2,0.6-1.2,1.7h2.4v-0.2
		c0-0.5-0.1-0.8-0.3-1.1C173.8,92.7,173.5,92.6,173.1,92.6z"/>
	<path fill="#043A63" d="M186.3,89.7c0.6,0.5,0.9,1.3,0.9,2.4s-0.3,1.8-0.9,2.4c-0.6,0.6-1.4,0.8-2.4,0.8h-1.3v3.2
		c-0.2,0-0.5,0.1-0.9,0.1c-0.4,0-0.7,0-0.9-0.1V89l0.1-0.1c1.5,0,2.5-0.1,3-0.1C184.9,88.8,185.7,89.1,186.3,89.7z M182.6,90.2v3.7
		c0.6,0,1,0,1.2,0c0.6,0,1-0.2,1.2-0.5s0.3-0.8,0.3-1.3c0-0.5-0.1-0.9-0.3-1.3c-0.2-0.4-0.6-0.5-1.2-0.5
		C183.3,90.2,182.9,90.2,182.6,90.2z"/>
	<path fill="#043A63" d="M193.9,95.6H190c0,0.6,0.2,1,0.4,1.3c0.2,0.3,0.6,0.5,1.2,0.5s1.2-0.2,1.8-0.5c0.3,0.3,0.4,0.6,0.5,1.1
		c-0.7,0.5-1.6,0.8-2.7,0.8s-1.8-0.3-2.3-1c-0.5-0.7-0.7-1.6-0.7-2.6c0-1.1,0.3-2,0.8-2.6c0.5-0.7,1.2-1,2.2-1
		c0.9,0,1.7,0.3,2.2,0.8s0.8,1.3,0.8,2.1C194,94.7,194,95.2,193.9,95.6z M191.2,92.6c-0.8,0-1.2,0.6-1.2,1.7h2.4v-0.2
		c0-0.5-0.1-0.8-0.3-1.1C191.9,92.7,191.6,92.6,191.2,92.6z"/>
	<path fill="#043A63" d="M195,98c0-0.2,0.1-0.4,0.2-0.6c0.1-0.2,0.2-0.4,0.4-0.6c0.7,0.4,1.4,0.6,2,0.6c0.3,0,0.6-0.1,0.8-0.2
		c0.2-0.1,0.3-0.3,0.3-0.5c0-0.4-0.3-0.6-0.8-0.8l-0.8-0.3c-1.2-0.4-1.8-1.1-1.8-2c0-0.7,0.2-1.2,0.7-1.6c0.5-0.4,1.1-0.6,1.9-0.6
		s1.6,0.2,2.4,0.5c0,0.2,0,0.4-0.1,0.7c-0.1,0.2-0.2,0.4-0.4,0.5c-0.7-0.3-1.3-0.5-1.9-0.5c-0.3,0-0.5,0.1-0.6,0.2
		c-0.2,0.1-0.2,0.3-0.2,0.5c0,0.3,0.2,0.5,0.7,0.7l0.9,0.3c1.2,0.4,1.8,1.2,1.8,2.2c0,0.7-0.2,1.2-0.7,1.6c-0.5,0.4-1.2,0.6-2.1,0.6
		S195.8,98.4,195,98z"/>
	<path fill="#043A63" d="M201.2,98c0-0.2,0.1-0.4,0.2-0.6c0.1-0.2,0.2-0.4,0.4-0.6c0.7,0.4,1.4,0.6,2,0.6c0.3,0,0.6-0.1,0.8-0.2
		c0.2-0.1,0.3-0.3,0.3-0.5c0-0.4-0.3-0.6-0.8-0.8l-0.8-0.3c-1.2-0.4-1.8-1.1-1.8-2c0-0.7,0.2-1.2,0.7-1.6c0.5-0.4,1.1-0.6,1.9-0.6
		s1.6,0.2,2.4,0.5c0,0.2,0,0.4-0.1,0.7c-0.1,0.2-0.2,0.4-0.4,0.5c-0.7-0.3-1.3-0.5-1.9-0.5c-0.3,0-0.5,0.1-0.6,0.2
		c-0.2,0.1-0.2,0.3-0.2,0.5c0,0.3,0.2,0.5,0.7,0.7l0.9,0.3c1.2,0.4,1.8,1.2,1.8,2.2c0,0.7-0.2,1.2-0.7,1.6c-0.5,0.4-1.2,0.6-2.1,0.6
		S202,98.4,201.2,98z"/>
	<path fill="#043A63" d="M213.7,95c0,1.3-0.3,2.2-1,2.9c-0.5,0.5-1.2,0.8-2.1,0.8c-0.9,0-1.6-0.3-2.1-0.8c-0.7-0.7-1-1.6-1-2.9
		s0.3-2.2,1-2.9c0.5-0.5,1.2-0.8,2.1-0.8c0.9,0,1.6,0.3,2.1,0.8C213.4,92.8,213.7,93.8,213.7,95z M210.6,92.7
		c-0.9,0-1.3,0.8-1.3,2.4c0,1.6,0.4,2.4,1.3,2.4c0.9,0,1.3-0.8,1.3-2.4C211.9,93.4,211.5,92.7,210.6,92.7z"/>
	<path fill="#043A63" d="M220.8,97.7c0,0.2-0.1,0.3-0.2,0.5c-0.1,0.2-0.2,0.3-0.4,0.4c-0.6-0.1-1-0.3-1.3-0.8
		c-0.6,0.6-1.3,0.9-2,0.9s-1.3-0.2-1.6-0.6s-0.5-0.9-0.5-1.5c0-0.8,0.3-1.4,0.8-1.8s1.2-0.6,2-0.6c0.4,0,0.8,0,1.2,0.1v-0.4
		c0-0.7-0.4-1.1-1.1-1.1c-0.5,0-1.2,0.2-2.1,0.5c-0.3-0.3-0.4-0.7-0.5-1.2c1-0.4,2-0.6,3-0.6c0.7,0,1.3,0.2,1.7,0.6
		c0.4,0.4,0.7,1,0.7,1.8v2.9C220.4,97.1,220.6,97.5,220.8,97.7z M217.3,97.3c0.5,0,1-0.2,1.4-0.7v-1.2c-0.3,0-0.7-0.1-1.1-0.1
		c-0.4,0-0.7,0.1-0.9,0.3c-0.2,0.2-0.3,0.4-0.3,0.7c0,0.3,0.1,0.5,0.2,0.7S217.1,97.3,217.3,97.3z"/>
	<path fill="#043A63" d="M221.8,98c0-0.2,0.1-0.4,0.2-0.6c0.1-0.2,0.2-0.4,0.4-0.6c0.7,0.4,1.4,0.6,2,0.6c0.3,0,0.6-0.1,0.8-0.2
		c0.2-0.1,0.3-0.3,0.3-0.5c0-0.4-0.3-0.6-0.8-0.8l-0.8-0.3c-1.2-0.4-1.8-1.1-1.8-2c0-0.7,0.2-1.2,0.7-1.6c0.5-0.4,1.1-0.6,1.9-0.6
		s1.6,0.2,2.4,0.5c0,0.2,0,0.4-0.1,0.7c-0.1,0.2-0.2,0.4-0.4,0.5c-0.7-0.3-1.3-0.5-1.9-0.5c-0.3,0-0.5,0.1-0.6,0.2
		c-0.2,0.1-0.2,0.3-0.2,0.5c0,0.3,0.2,0.5,0.7,0.7l0.9,0.3c1.2,0.4,1.8,1.2,1.8,2.2c0,0.7-0.2,1.2-0.7,1.6c-0.5,0.4-1.2,0.6-2.1,0.6
		S222.6,98.4,221.8,98z"/>
	<path fill="#043A63" d="M228.5,98.4c-0.1-0.2-0.1-0.4-0.1-0.7s0-0.6,0.1-0.8c0.3-0.1,0.6-0.2,1-0.2s0.7,0.1,0.9,0.2
		c0.1,0.2,0.1,0.5,0.1,0.8s0,0.6-0.1,0.7c-0.2,0.1-0.5,0.2-0.9,0.2S228.7,98.5,228.5,98.4z"/>
</g>
<g>
	<path fill="#FFFFFF" d="M92.3,110.3l0,1.6v1.2c0.1,0,0.3,0,0.6,0h2.7c0,0.2,0.1,0.4,0.1,0.6c0,0.2,0,0.4-0.1,0.6h-2.7
		c-0.3,0-0.5,0-0.6,0v4.1c-0.2,0-0.4,0.1-0.7,0.1s-0.5,0-0.7-0.1v-9.1l0.1-0.1h5.3c0.1,0.2,0.1,0.3,0.1,0.5c0,0.4-0.3,0.6-0.8,0.6
		h-2C93,110.3,92.6,110.3,92.3,110.3z"/>
	<path fill="#FFFFFF" d="M102.6,115.5h-4c0,0.6,0.2,1.1,0.4,1.5c0.2,0.4,0.6,0.5,1.2,0.5c0.6,0,1.2-0.2,1.9-0.5
		c0.2,0.2,0.4,0.5,0.4,0.9c-0.7,0.5-1.6,0.8-2.5,0.8s-1.7-0.3-2.1-1c-0.4-0.6-0.6-1.5-0.6-2.5c0-1,0.2-1.9,0.7-2.5
		c0.5-0.6,1.2-1,2-1s1.5,0.3,2,0.8c0.5,0.5,0.7,1.2,0.7,2.1C102.7,114.8,102.7,115.1,102.6,115.5z M101.1,113
		c-0.2-0.3-0.6-0.5-1-0.5s-0.8,0.2-1.1,0.5c-0.2,0.3-0.4,0.8-0.4,1.5h2.8v-0.2C101.4,113.8,101.3,113.4,101.1,113z"/>
	<path fill="#FFFFFF" d="M109.2,115.5h-4c0,0.6,0.2,1.1,0.4,1.5c0.2,0.4,0.6,0.5,1.2,0.5c0.6,0,1.2-0.2,1.9-0.5
		c0.2,0.2,0.4,0.5,0.4,0.9c-0.7,0.5-1.6,0.8-2.5,0.8s-1.7-0.3-2.1-1c-0.4-0.6-0.6-1.5-0.6-2.5c0-1,0.2-1.9,0.7-2.5
		c0.5-0.6,1.2-1,2-1s1.5,0.3,2,0.8c0.5,0.5,0.7,1.2,0.7,2.1C109.3,114.8,109.3,115.1,109.2,115.5z M107.7,113
		c-0.2-0.3-0.6-0.5-1-0.5s-0.8,0.2-1.1,0.5c-0.2,0.3-0.4,0.8-0.4,1.5h2.8v-0.2C108.1,113.8,107.9,113.4,107.7,113z"/>
	<path fill="#FFFFFF" d="M112.8,118.6c-0.8,0-1.3-0.3-1.7-0.9c-0.4-0.6-0.6-1.5-0.6-2.6c0-1.1,0.3-1.9,0.8-2.5s1.1-0.9,1.8-0.9
		c0.5,0,1,0.2,1.6,0.5v-3.5l0.1-0.1h0.5c0.3,0,0.5,0.1,0.6,0.2c0.1,0.1,0.1,0.3,0.1,0.6v7.2c0,0.6,0.1,1.1,0.4,1.3
		c-0.1,0.3-0.3,0.5-0.5,0.7c-0.5-0.1-0.8-0.4-1-0.9C114.2,118.3,113.6,118.6,112.8,118.6z M113.1,117.5c0.6,0,1.1-0.3,1.5-0.9v-3.4
		c-0.5-0.3-1-0.5-1.4-0.5c-0.4,0-0.8,0.2-1,0.6c-0.3,0.4-0.4,1-0.4,1.8s0.1,1.4,0.4,1.8C112.4,117.3,112.7,117.5,113.1,117.5z"/>
	<path fill="#FFFFFF" d="M121.1,111.6c0.7,0,1.3,0.3,1.7,0.9c0.4,0.6,0.6,1.5,0.6,2.5c0,1.1-0.3,1.9-0.9,2.5
		c-0.6,0.6-1.3,0.9-2.1,0.9s-1.7-0.1-2.5-0.4v-9.5l0.1-0.1h0.5c0.3,0,0.5,0.1,0.6,0.2s0.2,0.3,0.2,0.6v3
		C119.8,111.9,120.4,111.6,121.1,111.6z M120.8,112.7c-0.6,0-1.1,0.3-1.5,0.8v3.8c0.3,0.1,0.7,0.2,1.2,0.2c0.5,0,0.8-0.2,1.1-0.6
		c0.3-0.4,0.5-1,0.5-1.8s-0.1-1.4-0.4-1.7C121.5,112.9,121.2,112.7,120.8,112.7z"/>
	<path fill="#FFFFFF" d="M130,117.8c-0.1,0.3-0.3,0.5-0.5,0.7c-0.5-0.1-0.8-0.4-1-0.9c-0.6,0.6-1.3,0.9-2,0.9
		c-0.7,0-1.2-0.2-1.5-0.6c-0.3-0.4-0.5-0.9-0.5-1.4c0-0.7,0.2-1.3,0.7-1.7c0.5-0.4,1.1-0.6,1.9-0.6c0.5,0,0.9,0,1.3,0.1v-0.6
		c0-0.8-0.4-1.2-1.1-1.2c-0.6,0-1.3,0.2-2.1,0.5c-0.2-0.2-0.4-0.6-0.4-1c0.9-0.4,1.9-0.6,2.8-0.6c0.7,0,1.2,0.2,1.6,0.6
		c0.4,0.4,0.6,0.9,0.6,1.7v2.8C129.7,117.2,129.8,117.6,130,117.8z M126.7,117.5c0.6,0,1.2-0.3,1.7-0.9v-1.3c-0.4,0-0.8-0.1-1.2-0.1
		s-0.8,0.1-1,0.3c-0.2,0.2-0.4,0.5-0.4,0.8c0,0.3,0.1,0.6,0.3,0.8C126.2,117.4,126.4,117.5,126.7,117.5z"/>
	<path fill="#FFFFFF" d="M135,114.3c0,0,0-0.1,0-0.1c0-1-0.4-1.6-1.2-1.6c-0.5,0-0.8,0.2-1,0.6c-0.2,0.4-0.4,1.1-0.4,1.9
		c0,1.6,0.5,2.4,1.6,2.4c0.5,0,1-0.2,1.7-0.7c0.1,0.1,0.2,0.2,0.4,0.3c0.1,0.2,0.2,0.3,0.2,0.4c-0.7,0.7-1.5,1-2.4,1s-1.6-0.3-2.1-1
		c-0.5-0.7-0.7-1.5-0.7-2.6c0-1.1,0.3-1.9,0.8-2.5c0.5-0.6,1.2-0.9,2-0.9c0.8,0,1.4,0.2,1.8,0.6c0.4,0.4,0.6,0.9,0.6,1.4
		c0,0.5-0.2,0.7-0.7,0.7C135.3,114.3,135.2,114.3,135,114.3z"/>
	<path fill="#FFFFFF" d="M142,115.9l0.5,1.1c0.2,0.5,0.4,0.9,0.6,1.1c-0.2,0.3-0.5,0.4-0.9,0.4c-0.2,0-0.4-0.1-0.5-0.2
		c-0.1-0.1-0.2-0.3-0.3-0.6l-0.6-1.3c-0.2-0.4-0.3-0.6-0.5-0.7s-0.4-0.2-0.6-0.2c-0.3,0-0.5,0-0.7,0v2.9c-0.2,0-0.4,0.1-0.6,0.1
		s-0.5,0-0.7-0.1v-9.8l0.1-0.1h0.5c0.3,0,0.5,0.1,0.6,0.2s0.1,0.3,0.1,0.6v5.1l0.5,0c0.1,0,0.2-0.1,0.3-0.2l1.2-1.9
		c0.1-0.2,0.2-0.3,0.4-0.4s0.3-0.1,0.6-0.1c0.3,0,0.5,0,0.6,0l0.1,0.1l-1.5,2.4c-0.1,0.2-0.3,0.4-0.4,0.5
		C141.3,114.8,141.7,115.2,142,115.9z"/>
	<path fill="#FFFFFF" d="M150.7,114.3c0,0,0-0.1,0-0.1c0-1-0.4-1.6-1.2-1.6c-0.5,0-0.8,0.2-1,0.6c-0.2,0.4-0.4,1.1-0.4,1.9
		c0,1.6,0.5,2.4,1.6,2.4c0.5,0,1-0.2,1.7-0.7c0.1,0.1,0.2,0.2,0.4,0.3c0.1,0.2,0.2,0.3,0.2,0.4c-0.7,0.7-1.5,1-2.4,1s-1.6-0.3-2.1-1
		c-0.5-0.7-0.7-1.5-0.7-2.6c0-1.1,0.3-1.9,0.8-2.5c0.5-0.6,1.2-0.9,2-0.9c0.8,0,1.4,0.2,1.8,0.6c0.4,0.4,0.6,0.9,0.6,1.4
		c0,0.5-0.2,0.7-0.7,0.7C151,114.3,150.8,114.3,150.7,114.3z"/>
	<path fill="#FFFFFF" d="M157.7,112.3c0.6,0.6,0.9,1.6,0.9,2.8c0,1.2-0.3,2.1-0.9,2.8c-0.5,0.5-1.1,0.7-1.9,0.7s-1.4-0.2-1.9-0.7
		c-0.6-0.6-0.9-1.6-0.9-2.8c0-1.2,0.3-2.1,0.9-2.8c0.5-0.5,1.1-0.7,1.9-0.7S157.2,111.8,157.7,112.3z M154.2,115.1
		c0,1.7,0.5,2.5,1.5,2.5c1,0,1.5-0.8,1.5-2.5c0-0.5,0-0.9-0.1-1.2c-0.1-0.4-0.2-0.7-0.5-0.9s-0.5-0.4-0.9-0.4s-0.7,0.1-0.9,0.4
		s-0.4,0.6-0.5,0.9C154.3,114.2,154.2,114.6,154.2,115.1z"/>
	<path fill="#FFFFFF" d="M163.9,114.1c0-0.5-0.1-0.8-0.2-1c-0.1-0.2-0.3-0.3-0.6-0.3c-0.5,0-1,0.3-1.5,0.9v4.7
		c-0.2,0-0.4,0.1-0.6,0.1s-0.5,0-0.7-0.1v-6.6l0.1-0.1h0.5c0.5,0,0.7,0.3,0.7,0.9c0.6-0.6,1.2-0.9,2-0.9s1.2,0.3,1.5,1
		c0.7-0.7,1.4-1,2.2-1c0.6,0,1,0.2,1.3,0.6c0.3,0.4,0.4,0.9,0.4,1.5v3.3c0,0.5,0.1,0.9,0.2,1.2c-0.2,0.2-0.5,0.3-0.8,0.3
		c-0.5,0-0.7-0.3-0.7-0.8v-3.5c0-0.5-0.1-0.8-0.2-1s-0.3-0.3-0.6-0.3c-0.5,0-1,0.3-1.5,0.9v4.7c-0.2,0-0.4,0.1-0.6,0.1
		c-0.3,0-0.5,0-0.6-0.1V114.1z"/>
	<path fill="#FFFFFF" d="M175.2,112.3c0.6,0.6,0.9,1.6,0.9,2.8c0,1.2-0.3,2.1-0.9,2.8c-0.5,0.5-1.1,0.7-1.9,0.7s-1.4-0.2-1.9-0.7
		c-0.6-0.6-0.9-1.6-0.9-2.8c0-1.2,0.3-2.1,0.9-2.8c0.5-0.5,1.1-0.7,1.9-0.7S174.7,111.8,175.2,112.3z M171.7,115.1
		c0,1.7,0.5,2.5,1.5,2.5c1,0,1.5-0.8,1.5-2.5c0-0.5,0-0.9-0.1-1.2c-0.1-0.4-0.2-0.7-0.5-0.9s-0.5-0.4-0.9-0.4s-0.7,0.1-0.9,0.4
		s-0.4,0.6-0.5,0.9C171.8,114.2,171.7,114.6,171.7,115.1z"/>
	<path fill="#FFFFFF" d="M180.8,118.4v-5.7l-1.2,0c0-0.2-0.1-0.4-0.1-0.5c0-0.1,0-0.3,0.1-0.5l1.1,0c-0.1-0.5-0.1-0.9-0.1-1.3
		c0-0.6,0.2-1.1,0.5-1.5c0.4-0.4,0.9-0.6,1.5-0.6c0.6,0,1.2,0.1,1.7,0.3c0,0.4-0.1,0.7-0.3,0.9c-0.5-0.1-0.9-0.2-1.2-0.2
		c-0.3,0-0.6,0.1-0.8,0.3c-0.2,0.2-0.3,0.5-0.3,0.8c0,0.4,0,0.8,0.1,1.2l1.9,0c0,0.2,0.1,0.4,0.1,0.5c0,0.1,0,0.3-0.1,0.5l-1.8,0
		v5.7c-0.2,0-0.4,0.1-0.6,0.1C181.2,118.5,181,118.4,180.8,118.4z"/>
	<path fill="#FFFFFF" d="M189.8,115.5h-4c0,0.6,0.2,1.1,0.4,1.5c0.2,0.4,0.6,0.5,1.2,0.5c0.6,0,1.2-0.2,1.9-0.5
		c0.2,0.2,0.4,0.5,0.4,0.9c-0.7,0.5-1.6,0.8-2.5,0.8s-1.7-0.3-2.1-1c-0.4-0.6-0.6-1.5-0.6-2.5c0-1,0.2-1.9,0.7-2.5
		c0.5-0.6,1.2-1,2-1s1.5,0.3,2,0.8c0.5,0.5,0.7,1.2,0.7,2.1C189.9,114.8,189.8,115.1,189.8,115.5z M188.3,113
		c-0.2-0.3-0.6-0.5-1-0.5s-0.8,0.2-1.1,0.5c-0.2,0.3-0.4,0.8-0.4,1.5h2.8v-0.2C188.6,113.8,188.5,113.4,188.3,113z"/>
	<path fill="#FFFFFF" d="M191.1,112.4c0.1-0.3,0.2-0.5,0.5-0.7c0.6,0.1,1,0.5,1.2,1.2c0.4-0.8,1-1.2,1.8-1.2c0.2,0,0.5,0,0.7,0.1
		c0,0.5-0.1,0.9-0.3,1.2c-0.1,0-0.2,0-0.5-0.1c-0.6,0-1.1,0.4-1.5,1.1v4.4c-0.2,0-0.4,0.1-0.7,0.1c-0.3,0-0.5,0-0.7-0.1v-4.7
		C191.6,113.1,191.5,112.7,191.1,112.4z"/>
	<path fill="#FFFFFF" d="M195.9,112.4c0.1-0.3,0.2-0.5,0.5-0.7c0.6,0.1,1,0.5,1.2,1.2c0.4-0.8,1-1.2,1.8-1.2c0.2,0,0.5,0,0.7,0.1
		c0,0.5-0.1,0.9-0.3,1.2c-0.1,0-0.2,0-0.5-0.1c-0.6,0-1.1,0.4-1.5,1.1v4.4c-0.2,0-0.4,0.1-0.7,0.1c-0.3,0-0.5,0-0.7-0.1v-4.7
		C196.4,113.1,196.3,112.7,195.9,112.4z"/>
	<path fill="#FFFFFF" d="M206.1,117.8c-0.1,0.3-0.3,0.5-0.5,0.7c-0.5-0.1-0.8-0.4-1-0.9c-0.6,0.6-1.3,0.9-2,0.9
		c-0.7,0-1.2-0.2-1.5-0.6c-0.3-0.4-0.5-0.9-0.5-1.4c0-0.7,0.2-1.3,0.7-1.7c0.5-0.4,1.1-0.6,1.9-0.6c0.5,0,0.9,0,1.3,0.1v-0.6
		c0-0.8-0.4-1.2-1.1-1.2c-0.6,0-1.3,0.2-2.1,0.5c-0.2-0.2-0.4-0.6-0.4-1c0.9-0.4,1.9-0.6,2.8-0.6c0.7,0,1.2,0.2,1.6,0.6
		c0.4,0.4,0.6,0.9,0.6,1.7v2.8C205.7,117.2,205.9,117.6,206.1,117.8z M202.8,117.5c0.6,0,1.2-0.3,1.7-0.9v-1.3
		c-0.4,0-0.8-0.1-1.2-0.1s-0.8,0.1-1,0.3c-0.2,0.2-0.4,0.5-0.4,0.8c0,0.3,0.1,0.6,0.3,0.8C202.3,117.4,202.5,117.5,202.8,117.5z"/>
	<path fill="#FFFFFF" d="M211.4,114.1c0-0.5-0.1-0.8-0.2-1c-0.1-0.2-0.3-0.3-0.6-0.3c-0.5,0-1,0.3-1.5,0.9v4.7
		c-0.2,0-0.4,0.1-0.6,0.1s-0.5,0-0.7-0.1v-6.6l0.1-0.1h0.5c0.5,0,0.7,0.3,0.7,0.9c0.6-0.6,1.2-0.9,2-0.9s1.2,0.3,1.5,1
		c0.7-0.7,1.4-1,2.2-1c0.6,0,1,0.2,1.3,0.6c0.3,0.4,0.4,0.9,0.4,1.5v3.3c0,0.5,0.1,0.9,0.2,1.2c-0.2,0.2-0.5,0.3-0.8,0.3
		c-0.5,0-0.7-0.3-0.7-0.8v-3.5c0-0.5-0.1-0.8-0.2-1s-0.3-0.3-0.6-0.3c-0.5,0-1,0.3-1.5,0.9v4.7c-0.2,0-0.4,0.1-0.6,0.1
		c-0.3,0-0.5,0-0.6-0.1V114.1z"/>
	<path fill="#FFFFFF" d="M223.2,115.5h-4c0,0.6,0.2,1.1,0.4,1.5c0.2,0.4,0.6,0.5,1.2,0.5c0.6,0,1.2-0.2,1.9-0.5
		c0.2,0.2,0.4,0.5,0.4,0.9c-0.7,0.5-1.6,0.8-2.5,0.8s-1.7-0.3-2.1-1c-0.4-0.6-0.6-1.5-0.6-2.5c0-1,0.2-1.9,0.7-2.5
		c0.5-0.6,1.2-1,2-1s1.5,0.3,2,0.8c0.5,0.5,0.7,1.2,0.7,2.1C223.3,114.8,223.3,115.1,223.2,115.5z M221.7,113
		c-0.2-0.3-0.6-0.5-1-0.5s-0.8,0.2-1.1,0.5c-0.2,0.3-0.4,0.8-0.4,1.5h2.8v-0.2C222,113.8,221.9,113.4,221.7,113z"/>
	<path fill="#FFFFFF" d="M230.2,113.8v3.2c0,0.5,0.1,0.9,0.2,1.2c-0.2,0.2-0.5,0.3-0.8,0.3c-0.5,0-0.7-0.3-0.7-0.8v-3.5
		c0-0.5-0.1-0.8-0.2-1c-0.1-0.2-0.3-0.3-0.6-0.3s-0.6,0.1-1,0.2c-0.3,0.2-0.6,0.4-0.9,0.6v4.7c-0.2,0-0.4,0.1-0.6,0.1
		s-0.5,0-0.7-0.1v-6.6l0.1-0.1h0.5c0.5,0,0.7,0.3,0.7,0.9c0.7-0.6,1.4-0.9,2.2-0.9c0.6,0,1,0.2,1.3,0.6
		C230.1,112.6,230.2,113.2,230.2,113.8z"/>
	<path fill="#FFFFFF" d="M235.4,111.7c0,0.2,0.1,0.3,0.1,0.5c0,0.2,0,0.3-0.1,0.5l-1.7,0v4.1c0,0.4,0.2,0.6,0.6,0.6h0.9
		c0.1,0.2,0.1,0.4,0.1,0.6c0,0.2,0,0.3,0,0.4c-0.5,0.1-1,0.1-1.5,0.1c-0.9,0-1.4-0.4-1.4-1.3v-4.4l-1,0c0-0.1-0.1-0.3-0.1-0.5
		c0-0.2,0-0.3,0.1-0.5l1,0v-1.2c0-0.3,0-0.5,0.1-0.6c0.1-0.1,0.3-0.2,0.6-0.2h0.5l0.1,0.1v2L235.4,111.7z"/>
	<path fill="#FFFFFF" d="M241.8,117.8c-0.1,0.3-0.3,0.5-0.5,0.7c-0.5-0.1-0.8-0.4-1-0.9c-0.6,0.6-1.3,0.9-2,0.9
		c-0.7,0-1.2-0.2-1.5-0.6c-0.3-0.4-0.5-0.9-0.5-1.4c0-0.7,0.2-1.3,0.7-1.7c0.5-0.4,1.1-0.6,1.9-0.6c0.5,0,0.9,0,1.3,0.1v-0.6
		c0-0.8-0.4-1.2-1.1-1.2c-0.6,0-1.3,0.2-2.1,0.5c-0.2-0.2-0.4-0.6-0.4-1c0.9-0.4,1.9-0.6,2.8-0.6c0.7,0,1.2,0.2,1.6,0.6
		c0.4,0.4,0.6,0.9,0.6,1.7v2.8C241.5,117.2,241.6,117.6,241.8,117.8z M238.5,117.5c0.6,0,1.2-0.3,1.7-0.9v-1.3
		c-0.4,0-0.8-0.1-1.2-0.1s-0.8,0.1-1,0.3c-0.2,0.2-0.4,0.5-0.4,0.8c0,0.3,0.1,0.6,0.3,0.8C238,117.4,238.2,117.5,238.5,117.5z"/>
	<path fill="#FFFFFF" d="M248.1,118.6c-0.8,0-1.3-0.3-1.7-0.9c-0.4-0.6-0.6-1.5-0.6-2.6c0-1.1,0.3-1.9,0.8-2.5s1.1-0.9,1.8-0.9
		c0.5,0,1,0.2,1.6,0.5v-3.5l0.1-0.1h0.5c0.3,0,0.5,0.1,0.6,0.2c0.1,0.1,0.1,0.3,0.1,0.6v7.2c0,0.6,0.1,1.1,0.4,1.3
		c-0.1,0.3-0.3,0.5-0.5,0.7c-0.5-0.1-0.8-0.4-1-0.9C249.5,118.3,248.9,118.6,248.1,118.6z M248.4,117.5c0.6,0,1.1-0.3,1.5-0.9v-3.4
		c-0.5-0.3-1-0.5-1.4-0.5c-0.4,0-0.8,0.2-1,0.6c-0.3,0.4-0.4,1-0.4,1.8s0.1,1.4,0.4,1.8C247.7,117.3,248,117.5,248.4,117.5z"/>
	<path fill="#FFFFFF" d="M258.2,115.5h-4c0,0.6,0.2,1.1,0.4,1.5c0.2,0.4,0.6,0.5,1.2,0.5c0.6,0,1.2-0.2,1.9-0.5
		c0.2,0.2,0.4,0.5,0.4,0.9c-0.7,0.5-1.6,0.8-2.5,0.8c-1,0-1.7-0.3-2.1-1c-0.4-0.6-0.6-1.5-0.6-2.5c0-1,0.2-1.9,0.7-2.5
		c0.5-0.6,1.2-1,2-1c0.9,0,1.5,0.3,2,0.8c0.5,0.5,0.7,1.2,0.7,2.1C258.3,114.8,258.2,115.1,258.2,115.5z M256.7,113
		c-0.2-0.3-0.6-0.5-1-0.5c-0.5,0-0.8,0.2-1.1,0.5c-0.2,0.3-0.4,0.8-0.4,1.5h2.8v-0.2C257,113.8,256.9,113.4,256.7,113z"/>
	<path fill="#FFFFFF" d="M97.8,133.6c-0.8,0-1.3-0.3-1.7-0.9c-0.4-0.6-0.6-1.5-0.6-2.6c0-1.1,0.3-1.9,0.8-2.5s1.1-0.9,1.8-0.9
		c0.5,0,1,0.2,1.6,0.5v-3.5l0.1-0.1h0.5c0.3,0,0.5,0.1,0.6,0.2c0.1,0.1,0.1,0.3,0.1,0.6v7.2c0,0.6,0.1,1.1,0.4,1.3
		c-0.1,0.3-0.3,0.5-0.5,0.7c-0.5-0.1-0.8-0.4-1-0.9C99.2,133.3,98.6,133.6,97.8,133.6z M98.1,132.5c0.6,0,1.1-0.3,1.5-0.9v-3.4
		c-0.5-0.3-1-0.5-1.4-0.5c-0.4,0-0.8,0.2-1,0.6c-0.3,0.4-0.4,1-0.4,1.8s0.1,1.4,0.4,1.8C97.4,132.3,97.7,132.5,98.1,132.5z"/>
	<path fill="#FFFFFF" d="M107.8,130.5h-4c0,0.6,0.2,1.1,0.4,1.5c0.2,0.4,0.6,0.5,1.2,0.5c0.6,0,1.2-0.2,1.9-0.5
		c0.2,0.2,0.4,0.5,0.4,0.9c-0.7,0.5-1.6,0.8-2.5,0.8s-1.7-0.3-2.1-1c-0.4-0.6-0.6-1.5-0.6-2.5c0-1,0.2-1.9,0.7-2.5
		c0.5-0.6,1.2-1,2-1s1.5,0.3,2,0.8c0.5,0.5,0.7,1.2,0.7,2.1C107.9,129.8,107.9,130.1,107.8,130.5z M106.3,128
		c-0.2-0.3-0.6-0.5-1-0.5s-0.8,0.2-1.1,0.5c-0.2,0.3-0.4,0.8-0.4,1.5h2.8v-0.2C106.7,128.8,106.6,128.4,106.3,128z"/>
	<path fill="#FFFFFF" d="M108.9,132.9c0-0.2,0.1-0.3,0.1-0.5c0.1-0.2,0.2-0.3,0.3-0.4c0.7,0.4,1.3,0.6,1.8,0.6c0.5,0,0.8-0.1,1-0.3
		c0.2-0.2,0.3-0.4,0.4-0.6c0-0.4-0.3-0.7-0.9-1l-0.8-0.3c-1.2-0.4-1.7-1.1-1.7-1.9c0-0.6,0.2-1.1,0.7-1.4c0.4-0.4,1-0.5,1.8-0.5
		c0.7,0,1.4,0.2,2.1,0.5c0,0.2,0,0.4-0.1,0.5c-0.1,0.2-0.2,0.3-0.3,0.4c-0.7-0.3-1.3-0.4-1.8-0.4c-0.3,0-0.6,0.1-0.7,0.2
		c-0.2,0.1-0.3,0.3-0.3,0.6c0,0.2,0.1,0.4,0.2,0.5c0.1,0.1,0.4,0.3,0.7,0.4l0.8,0.3c1.1,0.4,1.7,1.1,1.7,2c0,0.6-0.2,1.1-0.7,1.4
		c-0.5,0.4-1.1,0.5-1.9,0.5S109.7,133.4,108.9,132.9z"/>
	<path fill="#FFFFFF" d="M120.2,130.5h-4c0,0.6,0.2,1.1,0.4,1.5c0.2,0.4,0.6,0.5,1.2,0.5c0.6,0,1.2-0.2,1.9-0.5
		c0.2,0.2,0.4,0.5,0.4,0.9c-0.7,0.5-1.6,0.8-2.5,0.8s-1.7-0.3-2.1-1c-0.4-0.6-0.6-1.5-0.6-2.5c0-1,0.2-1.9,0.7-2.5
		c0.5-0.6,1.2-1,2-1s1.5,0.3,2,0.8c0.5,0.5,0.7,1.2,0.7,2.1C120.3,129.8,120.3,130.1,120.2,130.5z M118.7,128
		c-0.2-0.3-0.6-0.5-1-0.5s-0.8,0.2-1.1,0.5c-0.2,0.3-0.4,0.8-0.4,1.5h2.8v-0.2C119.1,128.8,118.9,128.4,118.7,128z"/>
	<path fill="#FFFFFF" d="M127.2,128.8v3.2c0,0.5,0.1,0.9,0.2,1.2c-0.2,0.2-0.5,0.3-0.8,0.3c-0.5,0-0.7-0.3-0.7-0.8v-3.5
		c0-0.5-0.1-0.8-0.2-1c-0.1-0.2-0.3-0.3-0.6-0.3s-0.6,0.1-1,0.2c-0.3,0.2-0.6,0.4-0.9,0.6v4.7c-0.2,0-0.4,0.1-0.6,0.1
		s-0.5,0-0.7-0.1v-6.6l0.1-0.1h0.5c0.5,0,0.7,0.3,0.7,0.9c0.7-0.6,1.4-0.9,2.2-0.9c0.6,0,1,0.2,1.3,0.6
		C127.1,127.6,127.2,128.2,127.2,128.8z"/>
	<path fill="#FFFFFF" d="M131.3,132.3l1.6-5.6c0.1,0,0.3-0.1,0.5-0.1c0.2,0,0.4,0,0.6,0.1l0,0.1c-0.9,2.9-1.6,5.1-2.1,6.6
		c-0.2,0-0.5,0.1-0.9,0.1s-0.6,0-0.7-0.1c-0.1-0.1-0.2-0.3-0.3-0.6l-1.9-5.9c0.3-0.1,0.5-0.2,0.8-0.2c0.4,0,0.6,0.2,0.7,0.5l0.9,3
		c0.2,0.6,0.4,1.3,0.5,2C131.2,132.3,131.2,132.3,131.3,132.3z"/>
	<path fill="#FFFFFF" d="M139.6,127.3c0.6,0.6,0.9,1.6,0.9,2.8c0,1.2-0.3,2.1-0.9,2.8c-0.5,0.5-1.1,0.7-1.9,0.7s-1.4-0.2-1.9-0.7
		c-0.6-0.6-0.9-1.6-0.9-2.8c0-1.2,0.3-2.1,0.9-2.8c0.5-0.5,1.1-0.7,1.9-0.7S139.1,126.8,139.6,127.3z M136.1,130.1
		c0,1.7,0.5,2.5,1.5,2.5c1,0,1.5-0.8,1.5-2.5c0-0.5,0-0.9-0.1-1.2c-0.1-0.4-0.2-0.7-0.5-0.9s-0.5-0.4-0.9-0.4s-0.7,0.1-0.9,0.4
		s-0.4,0.6-0.5,0.9C136.1,129.2,136.1,129.6,136.1,130.1z"/>
	<path fill="#FFFFFF" d="M143.9,132.4h0.5c0.1,0.2,0.1,0.4,0.1,0.5s0,0.3,0,0.4c-0.4,0.1-0.7,0.1-1.1,0.1c-0.9,0-1.3-0.4-1.3-1.3
		v-8.6l0.1-0.1h0.5c0.3,0,0.5,0.1,0.6,0.2c0.1,0.1,0.1,0.3,0.1,0.6v7.5C143.3,132.2,143.5,132.4,143.9,132.4z"/>
	<path fill="#FFFFFF" d="M147.8,132.3l1.6-5.6c0.1,0,0.3-0.1,0.5-0.1c0.2,0,0.4,0,0.6,0.1l0,0.1c-0.9,2.9-1.6,5.1-2.1,6.6
		c-0.2,0-0.5,0.1-0.9,0.1s-0.6,0-0.7-0.1c-0.1-0.1-0.2-0.3-0.3-0.6l-1.9-5.9c0.3-0.1,0.5-0.2,0.8-0.2c0.4,0,0.6,0.2,0.7,0.5l0.9,3
		c0.2,0.6,0.4,1.3,0.5,2C147.7,132.3,147.8,132.3,147.8,132.3z"/>
	<path fill="#FFFFFF" d="M153.3,127.9v5.5c-0.2,0-0.4,0.1-0.6,0.1s-0.5,0-0.6-0.1v-5c0-0.2,0-0.4-0.1-0.5c-0.1-0.1-0.2-0.2-0.5-0.2
		h-0.1c0-0.1-0.1-0.3-0.1-0.5s0-0.3,0.1-0.5c0.3,0,0.6-0.1,0.8-0.1h0.2c0.3,0,0.6,0.1,0.8,0.3C153.2,127.2,153.3,127.5,153.3,127.9z
		 M151.6,124.9c0-0.2,0-0.4,0.1-0.6c0.2-0.1,0.4-0.2,0.7-0.2s0.5,0.1,0.7,0.2c0.1,0.2,0.1,0.4,0.1,0.6s0,0.4-0.1,0.6
		c-0.2,0.1-0.4,0.2-0.7,0.2s-0.6-0.1-0.7-0.2C151.6,125.3,151.6,125.1,151.6,124.9z"/>
	<path fill="#FFFFFF" d="M159,129.1c0-0.5-0.1-0.8-0.2-1c-0.1-0.2-0.3-0.3-0.6-0.3c-0.5,0-1,0.3-1.5,0.9v4.7c-0.2,0-0.4,0.1-0.6,0.1
		s-0.5,0-0.7-0.1v-6.6l0.1-0.1h0.5c0.5,0,0.7,0.3,0.7,0.9c0.6-0.6,1.2-0.9,2-0.9s1.2,0.3,1.5,1c0.7-0.7,1.4-1,2.2-1
		c0.6,0,1,0.2,1.3,0.6c0.3,0.4,0.4,0.9,0.4,1.5v3.3c0,0.5,0.1,0.9,0.2,1.2c-0.2,0.2-0.5,0.3-0.8,0.3c-0.5,0-0.7-0.3-0.7-0.8v-3.5
		c0-0.5-0.1-0.8-0.2-1s-0.3-0.3-0.6-0.3c-0.5,0-1,0.3-1.5,0.9v4.7c-0.2,0-0.4,0.1-0.6,0.1c-0.3,0-0.5,0-0.6-0.1V129.1z"/>
	<path fill="#FFFFFF" d="M170.8,130.5h-4c0,0.6,0.2,1.1,0.4,1.5c0.2,0.4,0.6,0.5,1.2,0.5c0.6,0,1.2-0.2,1.9-0.5
		c0.2,0.2,0.4,0.5,0.4,0.9c-0.7,0.5-1.6,0.8-2.5,0.8s-1.7-0.3-2.1-1c-0.4-0.6-0.6-1.5-0.6-2.5c0-1,0.2-1.9,0.7-2.5
		c0.5-0.6,1.2-1,2-1s1.5,0.3,2,0.8c0.5,0.5,0.7,1.2,0.7,2.1C170.9,129.8,170.9,130.1,170.8,130.5z M169.3,128
		c-0.2-0.3-0.6-0.5-1-0.5s-0.8,0.2-1.1,0.5c-0.2,0.3-0.4,0.8-0.4,1.5h2.8v-0.2C169.6,128.8,169.5,128.4,169.3,128z"/>
	<path fill="#FFFFFF" d="M177.8,128.8v3.2c0,0.5,0.1,0.9,0.2,1.2c-0.2,0.2-0.5,0.3-0.8,0.3c-0.5,0-0.7-0.3-0.7-0.8v-3.5
		c0-0.5-0.1-0.8-0.2-1c-0.1-0.2-0.3-0.3-0.6-0.3s-0.6,0.1-1,0.2c-0.3,0.2-0.6,0.4-0.9,0.6v4.7c-0.2,0-0.4,0.1-0.6,0.1
		s-0.5,0-0.7-0.1v-6.6l0.1-0.1h0.5c0.5,0,0.7,0.3,0.7,0.9c0.7-0.6,1.4-0.9,2.2-0.9c0.6,0,1,0.2,1.3,0.6
		C177.7,127.6,177.8,128.2,177.8,128.8z"/>
	<path fill="#FFFFFF" d="M183,126.7c0,0.2,0.1,0.3,0.1,0.5c0,0.2,0,0.3-0.1,0.5l-1.7,0v4.1c0,0.4,0.2,0.6,0.6,0.6h0.9
		c0.1,0.2,0.1,0.4,0.1,0.6c0,0.2,0,0.3,0,0.4c-0.5,0.1-1,0.1-1.5,0.1c-0.9,0-1.4-0.4-1.4-1.3v-4.4l-1,0c0-0.1-0.1-0.3-0.1-0.5
		c0-0.2,0-0.3,0.1-0.5l1,0v-1.2c0-0.3,0-0.5,0.1-0.6c0.1-0.1,0.3-0.2,0.6-0.2h0.5l0.1,0.1v2L183,126.7z"/>
	<path fill="#FFFFFF" d="M188.7,127.3c0.6,0.6,0.9,1.6,0.9,2.8c0,1.2-0.3,2.1-0.9,2.8c-0.5,0.5-1.1,0.7-1.9,0.7s-1.4-0.2-1.9-0.7
		c-0.6-0.6-0.9-1.6-0.9-2.8c0-1.2,0.3-2.1,0.9-2.8c0.5-0.5,1.1-0.7,1.9-0.7S188.2,126.8,188.7,127.3z M185.2,130.1
		c0,1.7,0.5,2.5,1.5,2.5c1,0,1.5-0.8,1.5-2.5c0-0.5,0-0.9-0.1-1.2c-0.1-0.4-0.2-0.7-0.5-0.9s-0.5-0.4-0.9-0.4s-0.7,0.1-0.9,0.4
		s-0.4,0.6-0.5,0.9C185.3,129.2,185.2,129.6,185.2,130.1z"/>
	<path fill="#FFFFFF" d="M191,128.2c0-0.3,0-0.5,0.1-0.7c0.2-0.1,0.5-0.2,0.8-0.2c0.3,0,0.6,0.1,0.8,0.2c0.1,0.2,0.1,0.4,0.1,0.7
		s0,0.5-0.1,0.7c-0.2,0.1-0.4,0.2-0.8,0.2s-0.6-0.1-0.8-0.2C191.1,128.7,191,128.5,191,128.2z M191,132.7c0-0.3,0-0.5,0.1-0.7
		c0.2-0.1,0.5-0.2,0.8-0.2c0.3,0,0.6,0.1,0.8,0.2c0.1,0.2,0.1,0.4,0.1,0.7c0,0.3,0,0.5-0.1,0.7c-0.2,0.1-0.4,0.2-0.8,0.2
		s-0.6-0.1-0.8-0.2C191.1,133.2,191,133,191,132.7z"/>
	<path fill="#FFFFFF" d="M201,129.3c0,0,0-0.1,0-0.1c0-1-0.4-1.6-1.2-1.6c-0.5,0-0.8,0.2-1,0.6c-0.2,0.4-0.4,1.1-0.4,1.9
		c0,1.6,0.5,2.4,1.6,2.4c0.5,0,1-0.2,1.7-0.7c0.1,0.1,0.2,0.2,0.4,0.3c0.1,0.2,0.2,0.3,0.2,0.4c-0.7,0.7-1.5,1-2.4,1s-1.6-0.3-2.1-1
		c-0.5-0.7-0.7-1.5-0.7-2.6c0-1.1,0.3-1.9,0.8-2.5c0.5-0.6,1.2-0.9,2-0.9c0.8,0,1.4,0.2,1.8,0.6c0.4,0.4,0.6,0.9,0.6,1.4
		c0,0.5-0.2,0.7-0.7,0.7C201.4,129.3,201.2,129.3,201,129.3z"/>
	<path fill="#FFFFFF" d="M208.1,127.3c0.6,0.6,0.9,1.6,0.9,2.8c0,1.2-0.3,2.1-0.9,2.8c-0.5,0.5-1.1,0.7-1.9,0.7s-1.4-0.2-1.9-0.7
		c-0.6-0.6-0.9-1.6-0.9-2.8c0-1.2,0.3-2.1,0.9-2.8c0.5-0.5,1.1-0.7,1.9-0.7S207.6,126.8,208.1,127.3z M204.6,130.1
		c0,1.7,0.5,2.5,1.5,2.5c1,0,1.5-0.8,1.5-2.5c0-0.5,0-0.9-0.1-1.2c-0.1-0.4-0.2-0.7-0.5-0.9s-0.5-0.4-0.9-0.4s-0.7,0.1-0.9,0.4
		s-0.4,0.6-0.5,0.9C204.7,129.2,204.6,129.6,204.6,130.1z"/>
	<path fill="#FFFFFF" d="M215.9,128.8v3.2c0,0.5,0.1,0.9,0.2,1.2c-0.2,0.2-0.5,0.3-0.8,0.3c-0.5,0-0.7-0.3-0.7-0.8v-3.5
		c0-0.5-0.1-0.8-0.2-1c-0.1-0.2-0.3-0.3-0.6-0.3s-0.6,0.1-1,0.2c-0.3,0.2-0.6,0.4-0.9,0.6v4.7c-0.2,0-0.4,0.1-0.6,0.1
		s-0.5,0-0.7-0.1v-6.6l0.1-0.1h0.5c0.5,0,0.7,0.3,0.7,0.9c0.7-0.6,1.4-0.9,2.2-0.9c0.6,0,1,0.2,1.3,0.6
		C215.7,127.6,215.9,128.2,215.9,128.8z"/>
	<path fill="#FFFFFF" d="M221.4,129.3c0,0,0-0.1,0-0.1c0-1-0.4-1.6-1.2-1.6c-0.5,0-0.8,0.2-1,0.6c-0.2,0.4-0.4,1.1-0.4,1.9
		c0,1.6,0.5,2.4,1.6,2.4c0.5,0,1-0.2,1.7-0.7c0.1,0.1,0.2,0.2,0.4,0.3c0.1,0.2,0.2,0.3,0.2,0.4c-0.7,0.7-1.5,1-2.4,1s-1.6-0.3-2.1-1
		c-0.5-0.7-0.7-1.5-0.7-2.6c0-1.1,0.3-1.9,0.8-2.5c0.5-0.6,1.2-0.9,2-0.9c0.8,0,1.4,0.2,1.8,0.6c0.4,0.4,0.6,0.9,0.6,1.4
		c0,0.5-0.2,0.7-0.7,0.7C221.7,129.3,221.5,129.3,221.4,129.3z"/>
	<path fill="#FFFFFF" d="M229,130.5h-4c0,0.6,0.2,1.1,0.4,1.5c0.2,0.4,0.6,0.5,1.2,0.5c0.6,0,1.2-0.2,1.9-0.5
		c0.2,0.2,0.4,0.5,0.4,0.9c-0.7,0.5-1.6,0.8-2.5,0.8s-1.7-0.3-2.1-1c-0.4-0.6-0.6-1.5-0.6-2.5c0-1,0.2-1.9,0.7-2.5
		c0.5-0.6,1.2-1,2-1s1.5,0.3,2,0.8c0.5,0.5,0.7,1.2,0.7,2.1C229.1,129.8,229,130.1,229,130.5z M227.4,128c-0.2-0.3-0.6-0.5-1-0.5
		s-0.8,0.2-1.1,0.5c-0.2,0.3-0.4,0.8-0.4,1.5h2.8v-0.2C227.8,128.8,227.7,128.4,227.4,128z"/>
	<path fill="#FFFFFF" d="M232.2,127.9v5.5c-0.2,0-0.4,0.1-0.6,0.1s-0.5,0-0.6-0.1v-5c0-0.2,0-0.4-0.1-0.5c-0.1-0.1-0.2-0.2-0.5-0.2
		h-0.1c0-0.1-0.1-0.3-0.1-0.5s0-0.3,0.1-0.5c0.3,0,0.6-0.1,0.8-0.1h0.2c0.3,0,0.6,0.1,0.8,0.3C232.1,127.2,232.2,127.5,232.2,127.9z
		 M230.5,124.9c0-0.2,0-0.4,0.1-0.6c0.2-0.1,0.4-0.2,0.7-0.2s0.5,0.1,0.7,0.2c0.1,0.2,0.1,0.4,0.1,0.6s0,0.4-0.1,0.6
		c-0.2,0.1-0.4,0.2-0.7,0.2s-0.6-0.1-0.7-0.2C230.5,125.3,230.5,125.1,230.5,124.9z"/>
	<path fill="#FFFFFF" d="M237.3,126.7c0,0.2,0.1,0.3,0.1,0.5c0,0.2,0,0.3-0.1,0.5l-1.7,0v4.1c0,0.4,0.2,0.6,0.6,0.6h0.9
		c0.1,0.2,0.1,0.4,0.1,0.6c0,0.2,0,0.3,0,0.4c-0.5,0.1-1,0.1-1.5,0.1c-0.9,0-1.4-0.4-1.4-1.3v-4.4l-1,0c0-0.1-0.1-0.3-0.1-0.5
		c0-0.2,0-0.3,0.1-0.5l1,0v-1.2c0-0.3,0-0.5,0.1-0.6c0.1-0.1,0.3-0.2,0.6-0.2h0.5l0.1,0.1v2L237.3,126.7z"/>
	<path fill="#FFFFFF" d="M243,127.3c0.6,0.6,0.9,1.6,0.9,2.8c0,1.2-0.3,2.1-0.9,2.8c-0.5,0.5-1.1,0.7-1.9,0.7s-1.4-0.2-1.9-0.7
		c-0.6-0.6-0.9-1.6-0.9-2.8c0-1.2,0.3-2.1,0.9-2.8c0.5-0.5,1.1-0.7,1.9-0.7S242.6,126.8,243,127.3z M239.6,130.1
		c0,1.7,0.5,2.5,1.5,2.5c1,0,1.5-0.8,1.5-2.5c0-0.5,0-0.9-0.1-1.2c-0.1-0.4-0.2-0.7-0.5-0.9s-0.5-0.4-0.9-0.4s-0.7,0.1-0.9,0.4
		s-0.4,0.6-0.5,0.9C239.6,129.2,239.6,129.6,239.6,130.1z"/>
	<path fill="#FFFFFF" d="M244.9,132.9c0-0.2,0.1-0.3,0.1-0.5c0.1-0.2,0.2-0.3,0.3-0.4c0.7,0.4,1.3,0.6,1.8,0.6c0.5,0,0.8-0.1,1-0.3
		c0.2-0.2,0.3-0.4,0.4-0.6c0-0.4-0.3-0.7-0.9-1l-0.8-0.3c-1.2-0.4-1.7-1.1-1.7-1.9c0-0.6,0.2-1.1,0.7-1.4c0.4-0.4,1-0.5,1.8-0.5
		c0.7,0,1.4,0.2,2.1,0.5c0,0.2,0,0.4-0.1,0.5c-0.1,0.2-0.2,0.3-0.3,0.4c-0.7-0.3-1.3-0.4-1.8-0.4c-0.3,0-0.6,0.1-0.7,0.2
		c-0.2,0.1-0.3,0.3-0.3,0.6c0,0.2,0.1,0.4,0.2,0.5c0.1,0.1,0.4,0.3,0.7,0.4l0.8,0.3c1.1,0.4,1.7,1.1,1.7,2c0,0.6-0.2,1.1-0.7,1.4
		c-0.5,0.4-1.1,0.5-1.9,0.5S245.7,133.4,244.9,132.9z"/>
	<path fill="#FFFFFF" d="M251.1,135.5c-0.2-0.1-0.3-0.3-0.3-0.6c0,0,0-0.1,0-0.1c0.3-0.1,0.6-0.3,0.8-0.6c0.2-0.2,0.3-0.5,0.3-0.8
		c-0.3-0.1-0.4-0.1-0.5-0.2c-0.1-0.1-0.1-0.4-0.1-0.7c0-0.3,0-0.5,0.1-0.6c0.2-0.1,0.5-0.2,0.8-0.2c0.3,0,0.6,0.1,0.7,0.2
		c0.1,0.2,0.1,0.5,0.1,0.9c0,0.6-0.2,1.1-0.5,1.6C252.2,135,251.7,135.3,251.1,135.5z"/>
	<path fill="#FFFFFF" d="M127.5,141.7c0,0.2,0.1,0.3,0.1,0.5c0,0.2,0,0.3-0.1,0.5l-1.7,0v4.1c0,0.4,0.2,0.6,0.6,0.6h0.9
		c0.1,0.2,0.1,0.4,0.1,0.6c0,0.2,0,0.3,0,0.4c-0.5,0.1-1,0.1-1.5,0.1c-0.9,0-1.4-0.4-1.4-1.3v-4.4l-1,0c0-0.1-0.1-0.3-0.1-0.5
		c0-0.2,0-0.3,0.1-0.5l1,0v-1.2c0-0.3,0-0.5,0.1-0.6c0.1-0.1,0.3-0.2,0.6-0.2h0.5l0.1,0.1v2L127.5,141.7z"/>
	<path fill="#FFFFFF" d="M133.8,145.5h-4c0,0.6,0.2,1.1,0.4,1.5c0.2,0.4,0.6,0.5,1.2,0.5c0.6,0,1.2-0.2,1.9-0.5
		c0.2,0.2,0.4,0.5,0.4,0.9c-0.7,0.5-1.6,0.8-2.5,0.8s-1.7-0.3-2.1-1c-0.4-0.6-0.6-1.5-0.6-2.5c0-1,0.2-1.9,0.7-2.5
		c0.5-0.6,1.2-1,2-1s1.5,0.3,2,0.8c0.5,0.5,0.7,1.2,0.7,2.1C133.8,144.8,133.8,145.1,133.8,145.5z M132.2,143
		c-0.2-0.3-0.6-0.5-1-0.5s-0.8,0.2-1.1,0.5c-0.2,0.3-0.4,0.8-0.4,1.5h2.8v-0.2C132.6,143.8,132.5,143.4,132.2,143z M130.2,140.6
		l1.9-2.1c0.2,0.1,0.4,0.2,0.6,0.3c0.2,0.2,0.3,0.3,0.4,0.5l-2.3,1.8C130.5,141.1,130.3,140.9,130.2,140.6z"/>
	<path fill="#FFFFFF" d="M139,144.3c0,0,0-0.1,0-0.1c0-1-0.4-1.6-1.2-1.6c-0.5,0-0.8,0.2-1,0.6c-0.2,0.4-0.4,1.1-0.4,1.9
		c0,1.6,0.5,2.4,1.6,2.4c0.5,0,1-0.2,1.7-0.7c0.1,0.1,0.2,0.2,0.4,0.3c0.1,0.2,0.2,0.3,0.2,0.4c-0.7,0.7-1.5,1-2.4,1s-1.6-0.3-2.1-1
		c-0.5-0.7-0.7-1.5-0.7-2.6c0-1.1,0.3-1.9,0.8-2.5c0.5-0.6,1.2-0.9,2-0.9c0.8,0,1.4,0.2,1.8,0.6c0.4,0.4,0.6,0.9,0.6,1.4
		c0,0.5-0.2,0.7-0.7,0.7C139.4,144.3,139.2,144.3,139,144.3z"/>
	<path fill="#FFFFFF" d="M147,143.8v3.2c0,0.5,0.1,0.9,0.2,1.2c-0.2,0.2-0.5,0.3-0.8,0.3c-0.5,0-0.7-0.3-0.7-0.8v-3.5
		c0-0.5-0.1-0.8-0.2-1c-0.1-0.2-0.3-0.3-0.6-0.3s-0.6,0.1-1,0.2c-0.3,0.2-0.6,0.4-0.9,0.6v4.7c-0.2,0-0.4,0.1-0.6,0.1
		s-0.5,0-0.7-0.1v-6.6l0.1-0.1h0.5c0.5,0,0.7,0.3,0.7,0.9c0.7-0.6,1.4-0.9,2.2-0.9c0.6,0,1,0.2,1.3,0.6
		C146.8,142.6,147,143.2,147,143.8z"/>
	<path fill="#FFFFFF" d="M150.4,142.9v5.5c-0.2,0-0.4,0.1-0.6,0.1s-0.5,0-0.6-0.1v-5c0-0.2,0-0.4-0.1-0.5c-0.1-0.1-0.2-0.2-0.5-0.2
		h-0.1c0-0.1-0.1-0.3-0.1-0.5s0-0.3,0.1-0.5c0.3,0,0.6-0.1,0.8-0.1h0.2c0.3,0,0.6,0.1,0.8,0.3C150.3,142.2,150.4,142.5,150.4,142.9z
		 M148.7,139.9c0-0.2,0-0.4,0.1-0.6c0.2-0.1,0.4-0.2,0.7-0.2s0.5,0.1,0.7,0.2c0.1,0.2,0.1,0.4,0.1,0.6s0,0.4-0.1,0.6
		c-0.2,0.1-0.4,0.2-0.7,0.2s-0.6-0.1-0.7-0.2C148.7,140.3,148.7,140.1,148.7,139.9z"/>
	<path fill="#FFFFFF" d="M156,144.3c0,0,0-0.1,0-0.1c0-1-0.4-1.6-1.2-1.6c-0.5,0-0.8,0.2-1,0.6c-0.2,0.4-0.4,1.1-0.4,1.9
		c0,1.6,0.5,2.4,1.6,2.4c0.5,0,1-0.2,1.7-0.7c0.1,0.1,0.2,0.2,0.4,0.3c0.1,0.2,0.2,0.3,0.2,0.4c-0.7,0.7-1.5,1-2.4,1s-1.6-0.3-2.1-1
		c-0.5-0.7-0.7-1.5-0.7-2.6c0-1.1,0.3-1.9,0.8-2.5c0.5-0.6,1.2-0.9,2-0.9c0.8,0,1.4,0.2,1.8,0.6c0.4,0.4,0.6,0.9,0.6,1.4
		c0,0.5-0.2,0.7-0.7,0.7C156.3,144.3,156.1,144.3,156,144.3z"/>
	<path fill="#FFFFFF" d="M163.7,147.8c-0.1,0.3-0.3,0.5-0.5,0.7c-0.5-0.1-0.8-0.4-1-0.9c-0.6,0.6-1.3,0.9-2,0.9
		c-0.7,0-1.2-0.2-1.5-0.6c-0.3-0.4-0.5-0.9-0.5-1.4c0-0.7,0.2-1.3,0.7-1.7c0.5-0.4,1.1-0.6,1.9-0.6c0.5,0,0.9,0,1.3,0.1v-0.6
		c0-0.8-0.4-1.2-1.1-1.2c-0.6,0-1.3,0.2-2.1,0.5c-0.2-0.2-0.4-0.6-0.4-1c0.9-0.4,1.9-0.6,2.8-0.6c0.7,0,1.2,0.2,1.6,0.6
		c0.4,0.4,0.6,0.9,0.6,1.7v2.8C163.4,147.2,163.5,147.6,163.7,147.8z M160.4,147.5c0.6,0,1.2-0.3,1.7-0.9v-1.3
		c-0.4,0-0.8-0.1-1.2-0.1s-0.8,0.1-1,0.3c-0.2,0.2-0.4,0.5-0.4,0.8c0,0.3,0.1,0.6,0.3,0.8C159.9,147.4,160.1,147.5,160.4,147.5z"/>
	<path fill="#FFFFFF" d="M164.7,147.9c0-0.2,0.1-0.3,0.1-0.5c0.1-0.2,0.2-0.3,0.3-0.4c0.7,0.4,1.3,0.6,1.8,0.6c0.5,0,0.8-0.1,1-0.3
		c0.2-0.2,0.3-0.4,0.4-0.6c0-0.4-0.3-0.7-0.9-1l-0.8-0.3c-1.2-0.4-1.7-1.1-1.7-1.9c0-0.6,0.2-1.1,0.7-1.4c0.4-0.4,1-0.5,1.8-0.5
		c0.7,0,1.4,0.2,2.1,0.5c0,0.2,0,0.4-0.1,0.5c-0.1,0.2-0.2,0.3-0.3,0.4c-0.7-0.3-1.3-0.4-1.8-0.4c-0.3,0-0.6,0.1-0.7,0.2
		c-0.2,0.1-0.3,0.3-0.3,0.6c0,0.2,0.1,0.4,0.2,0.5c0.1,0.1,0.4,0.3,0.7,0.4l0.8,0.3c1.1,0.4,1.7,1.1,1.7,2c0,0.6-0.2,1.1-0.7,1.4
		c-0.5,0.4-1.1,0.5-1.9,0.5S165.4,148.4,164.7,147.9z"/>
	<path fill="#FFFFFF" d="M178.8,145.5h-4c0,0.6,0.2,1.1,0.4,1.5c0.2,0.4,0.6,0.5,1.2,0.5c0.6,0,1.2-0.2,1.9-0.5
		c0.2,0.2,0.4,0.5,0.4,0.9c-0.7,0.5-1.6,0.8-2.5,0.8s-1.7-0.3-2.1-1c-0.4-0.6-0.6-1.5-0.6-2.5c0-1,0.2-1.9,0.7-2.5
		c0.5-0.6,1.2-1,2-1s1.5,0.3,2,0.8c0.5,0.5,0.7,1.2,0.7,2.1C178.9,144.8,178.9,145.1,178.8,145.5z M177.3,143
		c-0.2-0.3-0.6-0.5-1-0.5s-0.8,0.2-1.1,0.5c-0.2,0.3-0.4,0.8-0.4,1.5h2.8v-0.2C177.7,143.8,177.6,143.4,177.3,143z"/>
	<path fill="#FFFFFF" d="M186.6,141.6c0.7,0,1.3,0.3,1.7,0.9c0.4,0.6,0.6,1.5,0.6,2.6c0,1.1-0.3,1.9-0.8,2.5
		c-0.5,0.6-1.1,0.9-1.8,0.9c-0.5,0-1.1-0.2-1.6-0.5v2.4c0,0.3,0,0.5-0.1,0.6c-0.1,0.1-0.3,0.2-0.6,0.2h-0.5l-0.1-0.1v-9.5l0.1-0.1
		h0.4c0.4,0,0.7,0.2,0.8,0.7C185.2,141.8,185.8,141.6,186.6,141.6z M186.3,142.7c-0.6,0-1.2,0.3-1.6,0.9v3.3c0.5,0.4,1,0.5,1.4,0.5
		s0.8-0.2,1-0.6c0.3-0.4,0.4-1,0.4-1.8s-0.1-1.4-0.4-1.8C186.9,142.9,186.6,142.7,186.3,142.7z"/>
	<path fill="#FFFFFF" d="M190,142.4c0.1-0.3,0.2-0.5,0.5-0.7c0.6,0.1,1,0.5,1.2,1.2c0.4-0.8,1-1.2,1.8-1.2c0.2,0,0.5,0,0.7,0.1
		c0,0.5-0.1,0.9-0.3,1.2c-0.1,0-0.2,0-0.5-0.1c-0.6,0-1.1,0.4-1.5,1.1v4.4c-0.2,0-0.4,0.1-0.7,0.1c-0.3,0-0.5,0-0.7-0.1v-4.7
		C190.5,143.1,190.4,142.7,190,142.4z"/>
	<path fill="#FFFFFF" d="M200.3,147.8c-0.1,0.3-0.3,0.5-0.5,0.7c-0.5-0.1-0.8-0.4-1-0.9c-0.6,0.6-1.3,0.9-2,0.9
		c-0.7,0-1.2-0.2-1.5-0.6c-0.3-0.4-0.5-0.9-0.5-1.4c0-0.7,0.2-1.3,0.7-1.7c0.5-0.4,1.1-0.6,1.9-0.6c0.5,0,0.9,0,1.3,0.1v-0.6
		c0-0.8-0.4-1.2-1.1-1.2c-0.6,0-1.3,0.2-2.1,0.5c-0.2-0.2-0.4-0.6-0.4-1c0.9-0.4,1.9-0.6,2.8-0.6c0.7,0,1.2,0.2,1.6,0.6
		c0.4,0.4,0.6,0.9,0.6,1.7v2.8C199.9,147.2,200.1,147.6,200.3,147.8z M197,147.5c0.6,0,1.2-0.3,1.7-0.9v-1.3c-0.4,0-0.8-0.1-1.2-0.1
		s-0.8,0.1-1,0.3c-0.2,0.2-0.4,0.5-0.4,0.8c0,0.3,0.1,0.6,0.3,0.8C196.5,147.4,196.7,147.5,197,147.5z M196.4,140.6l1.9-2.1
		c0.2,0.1,0.4,0.2,0.6,0.3c0.2,0.2,0.3,0.3,0.4,0.5l-2.3,1.8C196.7,141.1,196.5,140.9,196.4,140.6z"/>
	<path fill="#FFFFFF" d="M205.1,141.7c0,0.2,0.1,0.3,0.1,0.5c0,0.2,0,0.3-0.1,0.5l-1.7,0v4.1c0,0.4,0.2,0.6,0.6,0.6h0.9
		c0.1,0.2,0.1,0.4,0.1,0.6c0,0.2,0,0.3,0,0.4c-0.5,0.1-1,0.1-1.5,0.1c-0.9,0-1.4-0.4-1.4-1.3v-4.4l-1,0c0-0.1-0.1-0.3-0.1-0.5
		c0-0.2,0-0.3,0.1-0.5l1,0v-1.2c0-0.3,0-0.5,0.1-0.6c0.1-0.1,0.3-0.2,0.6-0.2h0.5l0.1,0.1v2L205.1,141.7z"/>
	<path fill="#FFFFFF" d="M208.1,142.9v5.5c-0.2,0-0.4,0.1-0.6,0.1s-0.5,0-0.6-0.1v-5c0-0.2,0-0.4-0.1-0.5c-0.1-0.1-0.2-0.2-0.5-0.2
		h-0.1c0-0.1-0.1-0.3-0.1-0.5s0-0.3,0.1-0.5c0.3,0,0.6-0.1,0.8-0.1h0.2c0.3,0,0.6,0.1,0.8,0.3C208,142.2,208.1,142.5,208.1,142.9z
		 M206.4,139.9c0-0.2,0-0.4,0.1-0.6c0.2-0.1,0.4-0.2,0.7-0.2s0.5,0.1,0.7,0.2c0.1,0.2,0.1,0.4,0.1,0.6s0,0.4-0.1,0.6
		c-0.2,0.1-0.4,0.2-0.7,0.2s-0.6-0.1-0.7-0.2C206.4,140.3,206.4,140.1,206.4,139.9z"/>
	<path fill="#FFFFFF" d="M213.7,144.3c0,0,0-0.1,0-0.1c0-1-0.4-1.6-1.2-1.6c-0.5,0-0.8,0.2-1,0.6c-0.2,0.4-0.4,1.1-0.4,1.9
		c0,1.6,0.5,2.4,1.6,2.4c0.5,0,1-0.2,1.7-0.7c0.1,0.1,0.2,0.2,0.4,0.3c0.1,0.2,0.2,0.3,0.2,0.4c-0.7,0.7-1.5,1-2.4,1s-1.6-0.3-2.1-1
		c-0.5-0.7-0.7-1.5-0.7-2.6c0-1.1,0.3-1.9,0.8-2.5c0.5-0.6,1.2-0.9,2-0.9c0.8,0,1.4,0.2,1.8,0.6c0.4,0.4,0.6,0.9,0.6,1.4
		c0,0.5-0.2,0.7-0.7,0.7C214,144.3,213.8,144.3,213.7,144.3z"/>
	<path fill="#FFFFFF" d="M221.5,147.8c-0.1,0.3-0.3,0.5-0.5,0.7c-0.5-0.1-0.8-0.4-1-0.9c-0.6,0.6-1.3,0.9-2,0.9
		c-0.7,0-1.2-0.2-1.5-0.6c-0.3-0.4-0.5-0.9-0.5-1.4c0-0.7,0.2-1.3,0.7-1.7c0.5-0.4,1.1-0.6,1.9-0.6c0.5,0,0.9,0,1.3,0.1v-0.6
		c0-0.8-0.4-1.2-1.1-1.2c-0.6,0-1.3,0.2-2.1,0.5c-0.2-0.2-0.4-0.6-0.4-1c0.9-0.4,1.9-0.6,2.8-0.6c0.7,0,1.2,0.2,1.6,0.6
		c0.4,0.4,0.6,0.9,0.6,1.7v2.8C221.1,147.2,221.2,147.6,221.5,147.8z M218.1,147.5c0.6,0,1.2-0.3,1.7-0.9v-1.3
		c-0.4,0-0.8-0.1-1.2-0.1s-0.8,0.1-1,0.3c-0.2,0.2-0.4,0.5-0.4,0.8c0,0.3,0.1,0.6,0.3,0.8C217.6,147.4,217.8,147.5,218.1,147.5z"/>
	<path fill="#FFFFFF" d="M222.8,147.7c0-0.3,0-0.5,0.1-0.7c0.2-0.1,0.5-0.2,0.8-0.2s0.6,0.1,0.8,0.2c0.1,0.2,0.1,0.4,0.1,0.7
		c0,0.3,0,0.5-0.1,0.7c-0.2,0.1-0.4,0.2-0.8,0.2s-0.6-0.1-0.8-0.2C222.9,148.2,222.8,148,222.8,147.7z"/>
</g>
<g>
	<g>
		<path fill="#AEB1B1" d="M0.4,229c0,0,10.4,1.4,17.5,5.9c7.1,4.5,25.7,14.5,25.7,14.5v1.6c0,0-37.5-16.7-39.4-17.8
			C1.1,231.4,0.4,229,0.4,229z"/>
	</g>
	<g>
		<path fill="#D5DDDD" d="M42.9,249.8l-27.6-15.7c0,0-6.8-3.9-11.9-4.2l-2.5-0.6L0.4,229c0,0,6.9,0.9,10.7,2.5
			c3.7,1.7,3.8,1.7,8.1,4.1c4.3,2.5,24.5,13.8,24.5,13.8L42.9,249.8z"/>
	</g>
	<g>
		<path fill="#BF582B" d="M43.6,251L32,257.7L3.1,241c0,0-2.9-5.6-1.5-10.5c0,0,5.4-0.4,12.8,3.7C21.9,238.4,43.6,251,43.6,251z"/>
	</g>
	<g>
		<polygon fill="#E6E6E5" points="43.6,249.4 32,256.1 32,262.8 43.6,256.2 		"/>
	</g>
	<g>
		<polygon fill="#993D1C" points="0.9,235.8 33.3,254.2 33,254.4 0.9,236.1 		"/>
	</g>
	<g>
		<polygon fill="#993D1C" points="11.8,233.4 40.9,249.9 40.5,250.1 10.5,232.8 		"/>
	</g>
	<g>
		<polygon fill="#993D1C" points="0.9,233.3 35.5,253 35.2,253.2 0.8,233.5 		"/>
	</g>
	<g>
		<polygon fill="#993D1C" points="0.9,231.3 37.4,252 37,252.2 0.9,231.5 		"/>
	</g>
	<g>
		<polygon fill="#993D1C" points="3.9,230.9 39.2,250.9 38.8,251.1 3.4,230.8 		"/>
	</g>
	<g>
		<polygon fill="#96725A" points="2.4,238.5 32.7,255.7 32.4,255.9 2.6,238.8 		"/>
	</g>
	<g>
		<path fill="#4D5050" d="M10.8,218.4c0,0,3.1,14.1,3.2,14.7c0,0,0.5,0.2,0.5,0.2c0,0-3.6-15-3.6-15L10.8,218.4z"/>
	</g>
	<g>
		<path fill="#4D5050" d="M11.1,218.3c0,0,4.4,15.1,4.6,15.7c0,0,0.3,0.2,0.3,0.2c0,0-4.8-15.9-4.8-15.9H11.1z"/>
	</g>
	<g>
		<path fill="#4D5050" d="M11.4,218.3c0,0,6.7,16.6,6.9,17.2c0,0,0.2,0.1,0.4,0.2c0,0-7.1-17.5-7.1-17.5H11.4z"/>
	</g>
	<g>
		<g>
			<polygon fill="#8E9595" points="10.2,237 11.8,237 11.5,218.3 10.5,218.3 			"/>
		</g>
		<g>
			<path fill="#8E9595" d="M11.8,237.1c0,0,0,0.5-0.8,0.5c-0.8,0-0.8-0.6-0.8-0.6l1.6-0.1V237.1z"/>
		</g>
	</g>
	<g>
		<path fill="#B5BCBC" d="M11.2,218.7L11,237c0,0,0.3,0.3,0.6-0.1c0.2-0.4-0.1-18.3-0.1-18.3H11.2z"/>
	</g>
	<g>
		<path fill="#C7C7C7" d="M32,256.1L3.3,239.8c0,0-2-6.2-1.8-8.3l0.3-1L0.4,229c0,0-0.5,2.4-0.3,4.5c0.1,1.4-0.1,5.3,2.8,12.9
			L32,262.8V256.1z"/>
	</g>
	<g>
		<polygon fill="#D5DDDD" points="43,249.1 31.5,255.8 32,256.2 43.6,249.4 		"/>
	</g>
	<g>
		<path fill="#D5DDDD" d="M32.4,255.5L3.2,238.8c0,0-1.5-2.5-1.7-4.9c-0.2-2.5,0-3.4,0-3.4l-1.2-0.3c0,0,0.1,6.9,2.9,9.5L32,256.1
			L32.4,255.5z"/>
	</g>
	<g>
		<path fill="#4D5050" d="M11,218.3c0,0-0.3,24.1-0.5,25c0,0-0.5-0.3-0.5-0.3c0,0,0.8-24.8,0.8-24.8H11z"/>
	</g>
	<g>
		<path fill="#4D5050" d="M10.6,218.3c0,0-2.1,23-2.3,24c0,0-0.5-0.3-0.5-0.3c0,0,2.6-23.7,2.6-23.7H10.6z"/>
	</g>
	<g>
		<path fill="#4D5050" d="M10.6,218.3c0,0-4.2,21.7-4.4,22.7c0,0-0.5-0.3-0.5-0.3c0,0,4.7-22.4,4.7-22.4H10.6z"/>
	</g>
	<g>
		<g>
			<polygon fill="#D5DDDD" points="36.5,250.2 36.5,243.5 30.4,247 30.4,253.7 			"/>
		</g>
		<g>
			<path fill="#CFD1D2" d="M18.7,247l11.7,6.7V247c0,0-11.9-6.9-11.7-6.7C18.9,240.5,18.7,247,18.7,247z"/>
		</g>
		<g>
			<g>
				<polygon fill="#8DB33C" points="39.7,243.7 39.7,242.5 31.1,247.4 31.1,248.6 				"/>
			</g>
			<g>
				<path fill="#94C73D" d="M14.6,239.1l16.6,9.5v-1.1l-16.6-9.5C14.6,238.2,14.6,239.1,14.6,239.1z"/>
			</g>
			<g>
				<polygon fill="#A9D42D" points="39.7,242.5 23.2,233.2 14.6,237.9 31.1,247.4 				"/>
			</g>
		</g>
		<g>
			<g>
				<path fill="#898989" d="M26.6,247.4l0.4-0.2c0,0,0.4-0.3,1.1,0.4c0.7,0.6,0.8,1.4,0.6,1.9c0,0-0.1,0.2-0.1,0.3l-0.4,0.2
					L26.6,247.4z"/>
			</g>
			<g>
				<path fill="#A5A4A4" d="M27.3,250c0.3,0.1,1.2,0.2,1.2-0.8c0-1.1-0.8-1.7-1.2-1.9c-0.2-0.1-1.1-0.1-1.1,0.7
					C26.2,248.6,26.3,249.5,27.3,250z"/>
			</g>
			<g>
				<path fill="#008A93" d="M27.3,249.7c0.2,0.1,0.9,0.1,0.9-0.6c0-0.9-0.6-1.4-0.9-1.5c-0.2-0.1-0.8-0.1-0.9,0.6
					C26.4,248.2,26.4,249.3,27.3,249.7z"/>
			</g>
			<g>
				<path fill="#043A63" d="M27.3,247.6c0,0-0.7,0-0.7,0.6c0,0.6,0.2,1.1,0.3,1.1c0,0-0.2-0.2-0.4-0.9
					C26.3,247.9,26.8,247.6,27.3,247.6z"/>
			</g>
			<g>
				<path fill="#00D1D2" d="M27.2,247.8c0,0,0.6,0.4,0.7,0.9c0.1,0.5,0,0.8-0.2,0.8c0,0-0.8-1-0.8-1.3
					C27,247.9,27.2,247.8,27.2,247.8z"/>
			</g>
		</g>
		<g>
			<g>
				<path fill="#898989" d="M19.8,243.7l0.4-0.2c0,0,0.4-0.3,1.1,0.4c0.7,0.6,0.8,1.4,0.6,1.9c0,0-0.1,0.2-0.1,0.3l-0.4,0.2
					L19.8,243.7z"/>
			</g>
			<g>
				<path fill="#A5A4A4" d="M20.6,246.2c0.3,0.1,1.2,0.2,1.2-0.8c0-1.1-0.8-1.7-1.2-1.9c-0.2-0.1-1.1-0.1-1.1,0.7
					C19.4,244.9,19.6,245.8,20.6,246.2z"/>
			</g>
			<g>
				<path fill="#008A93" d="M20.5,246c0.2,0.1,0.9,0.1,0.9-0.6c0-0.9-0.6-1.4-0.9-1.5c-0.2-0.1-0.8-0.1-0.9,0.6
					C19.7,244.5,19.7,245.6,20.5,246z"/>
			</g>
			<g>
				<path fill="#043A63" d="M20.5,243.9c0,0-0.7,0-0.7,0.6c0,0.6,0.2,1.1,0.3,1.1c0,0-0.2-0.2-0.4-0.9
					C19.6,244.1,20,243.8,20.5,243.9z"/>
			</g>
			<g>
				<path fill="#00D1D2" d="M20.4,244.1c0,0,0.6,0.4,0.7,0.9c0.1,0.5,0,0.8-0.2,0.8c0,0-0.8-1-0.8-1.3S20.4,244.1,20.4,244.1z"/>
			</g>
		</g>
		<g>
			<polygon fill="#043A63" points="35.1,251 35.1,247 32.7,248.4 32.7,252.4 			"/>
		</g>
	</g>
	<g>
		<ellipse fill="#B5BCBC" cx="11.1" cy="218.4" rx="0.6" ry="0.3"/>
	</g>
	<g>
		<polygon fill="#4D5050" points="11.1,218.3 11.1,213.3 10.9,213.3 10.9,218.3 		"/>
	</g>
	<g>
		<path fill="#F9AE40" d="M11,217.1c0,0,1.8,0.3,2.2,0.9c0.4,0.8,2,0.6,2.1,0.6c0.1-0.1,0-3.5,0-3.5s-1.7,0.1-1.8-0.4
			c-0.1-0.5-2.4-1.1-2.4-1.1"/>
	</g>
	<g>
		<polygon fill="#B8700F" points="13,217.8 13.3,218.2 13.5,214.6 13.2,214.4 		"/>
	</g>
	<g>
		<polygon fill="#AEB1B1" points="34.6,247.3 35.1,247 35.1,251 34.5,251.3 		"/>
	</g>
	<g>
		<path fill="#898989" d="M4.2,242.9l0.5-0.2c0,0,0.5-0.1,0.9,0.4c0.7,0.6,0.6,1.1,0.6,1.6c0,0.1-0.1,0.4-0.2,0.5l-0.3,0.2
			L4.2,242.9z"/>
	</g>
	<g>
		<path fill="#A5A4A4" d="M4.9,245.5c0.3,0.1,1.2,0.2,1.2-0.8c0-1.1-0.8-1.7-1.2-1.8c-0.4-0.1-1.1-0.1-1.1,0.7
			C3.8,244.1,3.9,245,4.9,245.5z"/>
	</g>
	<g>
		<path fill="#0A293A" d="M4.9,245.2c0.2,0.1,0.9,0.1,0.9-0.6c0-0.9-0.6-1.4-0.9-1.5c-0.2-0.1-0.8-0.1-0.9,0.6
			C4,243.7,4,244.8,4.9,245.2z"/>
	</g>
	<g>
		<path fill="#000B11" d="M4.8,243.1c0,0-0.7,0-0.7,0.6c0,0.6,0.2,1.1,0.3,1.1c0,0-0.2-0.2-0.4-0.9C3.9,243.4,4.3,243,4.8,243.1z"/>
	</g>
	<g>
		<g>
			<path fill="#941D26" d="M24.5,254.7c0.7-0.5,0.7-1.7-0.1-2.8c-0.7-1.1-1.9-1.7-2.6-1.2c-0.7,0.5-1.5,1.1-0.2,3
				C22.9,255.7,23.8,255.1,24.5,254.7z M23.2,254.2c-0.3,0.2-0.9-0.1-1.3-0.7c-0.4-0.6-0.4-1.3-0.1-1.5c0.3-0.2,0.9,0.1,1.3,0.7
				C23.5,253.3,23.6,254,23.2,254.2z"/>
		</g>
		<g>
			<path fill="#941D26" d="M22.1,251.9c0,0-0.4,0.4,0.2,1.3c0.6,0.9,1.1,0.8,1.1,0.8s0.1,0.9-0.6,0.7c-0.7-0.3-2.1-2.2-1.6-2.6
				C21.7,251.7,22.1,251.9,22.1,251.9z"/>
		</g>
		<g>
			<path fill="#DB404B" d="M24,255c0.7-0.5,0.7-1.7-0.1-2.8c-0.7-1.1-1.9-1.7-2.6-1.2c-0.7,0.5-0.7,1.7,0.1,2.8
				C22.2,254.9,23.3,255.4,24,255z M23.2,254.2c-0.3,0.2-0.9-0.1-1.3-0.7c-0.4-0.6-0.4-1.3-0.1-1.5c0.3-0.2,0.9,0.1,1.3,0.7
				C23.5,253.3,23.6,254,23.2,254.2z"/>
		</g>
		<g>
			<path fill="#FFFFFF" d="M24.2,252.6c0,0-0.1-0.2-0.3-0.5c-0.1-0.1-0.4-0.5-0.4-0.5l-0.7,0.8l0.3,0.5L24.2,252.6z"/>
		</g>
		<g>
			<path fill="#FFFFFF" d="M21.8,254.2c0,0-0.2-0.2-0.3-0.5c-0.1-0.1-0.3-0.5-0.3-0.5l0.6,0l0.3,0.5L21.8,254.2z"/>
		</g>
		<g>
			<path fill="#D1D1D1" d="M24,251.4l-0.4,0.3c0,0,0.5,0.5,0.6,1l0.4-0.3C24.7,252.3,24.3,251.6,24,251.4z"/>
		</g>
		<g>
			<path fill="#D1D1D1" d="M22.2,252.9l-0.4,0.3c0,0,0,0.1,0.3,0.5l0.4-0.3C22.5,253.5,22.4,253.3,22.2,252.9z"/>
		</g>
		<g>
			<path fill="#FFFFFF" d="M21.7,252.1l-0.6-0.7c0,0,0.3-0.5,0.8-0.6l0.2,1.1C22,251.9,21.7,251.9,21.7,252.1z"/>
		</g>
		<g>
			<path fill="#FFFFFF" d="M23,254.2c0,0,0.2,0,0.3-0.2s0,0,0,0l0.8,0.8c0,0-0.4,0.4-0.7,0.3L23,254.2z"/>
		</g>
	</g>
	<g>
		<g>
			<path fill="#941D26" d="M19.1,252c0.7-0.5,0.7-1.7-0.1-2.8c-0.7-1.1-1.9-1.7-2.6-1.2c-0.7,0.5-1.5,1.1-0.2,3
				C17.5,252.9,18.4,252.4,19.1,252z M17.9,251.4c-0.3,0.2-0.9-0.1-1.3-0.7s-0.4-1.3-0.1-1.5c0.3-0.2,0.9,0.1,1.3,0.7
				C18.2,250.6,18.2,251.2,17.9,251.4z"/>
		</g>
		<g>
			<path fill="#941D26" d="M16.8,249.2c0,0-0.4,0.4,0.2,1.3c0.6,0.9,1.1,0.8,1.1,0.8s0.1,0.9-0.6,0.7c-0.7-0.3-2.1-2.2-1.6-2.6
				S16.8,249.2,16.8,249.2z"/>
		</g>
		<g>
			<path fill="#DB404B" d="M18.7,252.2c0.7-0.5,0.7-1.7-0.1-2.8c-0.7-1.1-1.9-1.7-2.6-1.2c-0.7,0.5-0.7,1.7,0.1,2.8
				C16.8,252.1,18,252.7,18.7,252.2z M17.9,251.4c-0.3,0.2-0.9-0.1-1.3-0.7s-0.4-1.3-0.1-1.5c0.3-0.2,0.9,0.1,1.3,0.7
				C18.2,250.6,18.2,251.2,17.9,251.4z"/>
		</g>
		<g>
			<path fill="#FFFFFF" d="M18.9,249.9c0,0-0.1-0.2-0.3-0.5c-0.1-0.1-0.4-0.5-0.4-0.5l-0.7,0.8l0.3,0.5L18.9,249.9z"/>
		</g>
		<g>
			<path fill="#FFFFFF" d="M16.4,251.5c0,0-0.2-0.2-0.3-0.5c-0.1-0.1-0.3-0.5-0.3-0.5l0.6,0l0.3,0.5L16.4,251.5z"/>
		</g>
		<g>
			<path fill="#D1D1D1" d="M18.7,248.6l-0.4,0.3c0,0,0.5,0.5,0.6,1l0.4-0.3C19.3,249.6,18.9,248.8,18.7,248.6z"/>
		</g>
		<g>
			<path fill="#D1D1D1" d="M16.8,250.1l-0.4,0.3c0,0,0,0.1,0.3,0.5l0.4-0.3C17.2,250.7,17,250.5,16.8,250.1z"/>
		</g>
		<g>
			<path fill="#FFFFFF" d="M16.3,249.3l-0.6-0.7c0,0,0.3-0.5,0.8-0.6l0.2,1.1C16.7,249.2,16.3,249.2,16.3,249.3z"/>
		</g>
		<g>
			<path fill="#FFFFFF" d="M17.7,251.5c0,0,0.2,0,0.3-0.2s0,0,0,0l0.8,0.8c0,0-0.4,0.4-0.7,0.3L17.7,251.5z"/>
		</g>
	</g>
	<g>
		<g>
			<path fill="#941D26" d="M14.2,249.1c0.7-0.5,0.7-1.7-0.1-2.8c-0.7-1.1-1.9-1.7-2.6-1.2s-1.5,1.1-0.2,3
				C12.6,250,13.5,249.5,14.2,249.1z M13,248.5c-0.3,0.2-0.9-0.1-1.3-0.7c-0.4-0.6-0.4-1.3-0.1-1.5c0.3-0.2,0.9,0.1,1.3,0.7
				S13.3,248.3,13,248.5z"/>
		</g>
		<g>
			<path fill="#941D26" d="M11.9,246.3c0,0-0.4,0.4,0.2,1.3s1.1,0.8,1.1,0.8s0.1,0.9-0.6,0.7c-0.7-0.3-2.1-2.2-1.6-2.6
				S11.9,246.3,11.9,246.3z"/>
		</g>
		<g>
			<path fill="#DB404B" d="M13.8,249.3c0.7-0.5,0.7-1.7-0.1-2.8c-0.7-1.1-1.9-1.7-2.6-1.2c-0.7,0.5-0.7,1.7,0.1,2.8
				C11.9,249.3,13.1,249.8,13.8,249.3z M13,248.5c-0.3,0.2-0.9-0.1-1.3-0.7c-0.4-0.6-0.4-1.3-0.1-1.5c0.3-0.2,0.9,0.1,1.3,0.7
				S13.3,248.3,13,248.5z"/>
		</g>
		<g>
			<path fill="#FFFFFF" d="M14,247c0,0-0.1-0.2-0.3-0.5c-0.1-0.1-0.4-0.5-0.4-0.5l-0.7,0.8l0.3,0.5L14,247z"/>
		</g>
		<g>
			<path fill="#FFFFFF" d="M11.5,248.6c0,0-0.2-0.2-0.3-0.5c-0.1-0.1-0.3-0.5-0.3-0.5l0.6,0l0.3,0.5L11.5,248.6z"/>
		</g>
		<g>
			<path fill="#D1D1D1" d="M13.8,245.7l-0.4,0.3c0,0,0.5,0.5,0.6,1l0.4-0.3C14.4,246.7,14,245.9,13.8,245.7z"/>
		</g>
		<g>
			<path fill="#D1D1D1" d="M11.9,247.2l-0.4,0.3c0,0,0,0.1,0.3,0.5l0.4-0.3C12.3,247.8,12.1,247.7,11.9,247.2z"/>
		</g>
		<g>
			<path fill="#FFFFFF" d="M11.4,246.4l-0.6-0.7c0,0,0.3-0.5,0.8-0.6l0.2,1.1C11.8,246.3,11.4,246.3,11.4,246.4z"/>
		</g>
		<g>
			<path fill="#FFFFFF" d="M12.8,248.6c0,0,0.2,0,0.3-0.2c0.1-0.2,0,0,0,0l0.8,0.8c0,0-0.4,0.4-0.7,0.3L12.8,248.6z"/>
		</g>
	</g>
	<g>
		<path fill="#A5A4A4" d="M4.6,245.1c0,0.2,0.2,0.3,0.3,0.3l0,0c0.2,0,0.3-0.2,0.3-0.3v-0.5c0-0.2-0.2-0.3-0.3-0.3l0,0
			c-0.2,0-0.3,0.2-0.3,0.3V245.1z"/>
	</g>
	<g>
		<path fill="#D5DDDD" d="M4.6,246.2c0,0.2,0.2,0.3,0.3,0.3l0,0c0.2,0,0.3-0.2,0.3-0.3v-0.5c0-0.2-0.2-0.3-0.3-0.3l0,0
			c-0.2,0-0.3,0.2-0.3,0.3V246.2z"/>
	</g>
	<g>
		<path fill="#A5A4A4" d="M4.6,247.3c0,0.2,0.2,0.3,0.3,0.3l0,0c0.2,0,0.3-0.2,0.3-0.3v-0.5c0-0.2-0.2-0.3-0.3-0.3l0,0
			c-0.2,0-0.3,0.2-0.3,0.3V247.3z"/>
	</g>
	<g>
		<path fill="#D5DDDD" d="M4.6,248.4c0,0.2,0.2,0.3,0.3,0.3l0,0c0.2,0,0.3-0.2,0.3-0.3v-0.5c0-0.2-0.2-0.3-0.3-0.3l0,0
			c-0.2,0-0.3,0.2-0.3,0.3V248.4z"/>
	</g>
	<g>
		<path fill="#A5A4A4" d="M4.6,249.5c0,0.2,0.2,0.3,0.3,0.3l0,0c0.2,0,0.3-0.2,0.3-0.3v-0.5c0-0.2-0.2-0.3-0.3-0.3l0,0
			c-0.2,0-0.3,0.2-0.3,0.3V249.5z"/>
	</g>
</g>
<g>
	<rect x="125.7" y="68.7" fill="#B74620" width="67" height="17"/>
</g>
<g>
	<rect x="85.7" y="106.7" fill="#B74620" width="59" height="15"/>
</g>
<g>
	<g>
		<path fill="#043A63" d="M133.6,73.6c-0.1,0.6-0.2,0.8-0.3,1.4c-0.1,0.4-0.2,0.6-0.3,1.1c1.4,0,2.1,0,3.5,0c0,0.2,0,0.5-0.1,0.7
			c-0.1,0.3-0.2,0.5-0.3,0.7c-1.4,0-2.1,0-3.5,0c-0.4,1.6-0.6,2.4-1,4c-0.3,0-0.6,0.1-1,0.1c-0.4,0-0.7,0-0.9-0.1
			c1-3.7,1.4-5.6,2.4-9.3c0.1,0,0.1-0.1,0.1-0.1c2.5,0,3.7,0,6.2,0c0,0.2,0,0.4-0.1,0.7c-0.1,0.5-0.6,0.8-1.3,0.8
			c-0.8,0-1.3,0-2.1,0C134.3,73.6,133.8,73.6,133.6,73.6z"/>
		<path fill="#043A63" d="M143.8,78.7c-1.7,0-2.5,0-4.2,0c-0.1,0.5-0.1,1,0.1,1.3c0.2,0.3,0.5,0.4,1.1,0.4c0.6,0,1.8-0.6,2.1-0.5
			c0.1,0,0.4,0.9,0.3,1c-0.3,0.5-2,0.8-3.1,0.8c-1.1,0-1.9-0.3-2.2-1c-0.3-0.7-0.3-1.5-0.1-2.6c0.3-1.1,0.8-1.9,1.5-2.6
			c0.7-0.7,1.6-1,2.6-1c1,0,1.7,0.3,2.1,0.8c0.4,0.6,0.5,1.3,0.3,2.1C144.1,77.9,144,78.3,143.8,78.7z M141.6,75.7
			c-0.8,0-1.4,0.6-1.8,1.7c1.1,0,1.6,0,2.6,0c0-0.1,0-0.1,0-0.2c0.1-0.5,0.1-0.8,0-1.1C142.4,75.9,142.1,75.7,141.6,75.7z"/>
		<path fill="#043A63" d="M151.3,78.7c-1.7,0-2.5,0-4.2,0c-0.1,0.5-0.1,1,0.1,1.3c0.2,0.3,0.5,0.4,1.1,0.4c0.6,0,1.8-0.6,2.1-0.5
			c0.1,0,0.4,0.9,0.3,1c-0.3,0.5-2,0.8-3.1,0.8c-1.1,0-1.9-0.3-2.2-1c-0.3-0.7-0.3-1.5-0.1-2.6c0.3-1.1,0.8-1.9,1.5-2.6
			c0.7-0.7,1.6-1,2.6-1c1,0,1.7,0.3,2.1,0.8c0.4,0.6,0.5,1.3,0.3,2.1C151.7,77.9,151.5,78.3,151.3,78.7z M149.2,75.7
			c-0.8,0-1.4,0.6-1.8,1.7c1.1,0,1.6,0,2.6,0c0-0.1,0-0.1,0-0.2c0.1-0.5,0.1-0.8,0-1.1C149.9,75.9,149.6,75.7,149.2,75.7z"/>
		<path fill="#043A63" d="M154.6,81.7c-0.9,0-1.4-0.3-1.7-1c-0.3-0.6-0.3-1.5,0-2.6c0.3-1.1,0.8-2,1.5-2.6c0.7-0.6,1.5-1,2.3-1
			c0.5,0,1,0.1,1.5,0.4c0.4-1.4,0.5-2.1,0.9-3.5c0,0,0.1-0.1,0.1-0.1c0.3,0,0.4,0,0.7,0c0.4,0,0.6,0.1,0.7,0.2
			c0.1,0.2,0.1,0.4,0,0.8c-0.7,2.9-1.1,4.3-1.8,7.1c-0.1,0.6,0.1,1.1,0.1,1.2c0,0.1-0.2,0.3-0.4,0.5c-0.2,0.2-0.4,0.4-0.5,0.4
			c-0.4,0.1-1.1-0.8-1.1-0.8C156.8,80.8,155.4,81.7,154.6,81.7z M155.4,80.3c0.6,0,1.1-0.2,1.6-0.7c0.3-1.3,0.5-2,0.8-3.3
			c-0.4-0.3-0.9-0.4-1.2-0.4c-0.4,0-0.7,0.2-1.1,0.6c-0.3,0.4-0.6,1-0.8,1.7c-0.2,0.7-0.2,1.3-0.1,1.6
			C154.8,80.1,155,80.3,155.4,80.3z"/>
		<path fill="#043A63" d="M167.7,75.5c0.3,0.6,0.3,1.5,0,2.6s-0.8,2-1.6,2.6c-0.8,0.6-1.7,0.9-2.8,0.9s-1.9-0.2-2.7-0.5
			c1-3.9,1.5-5.8,2.5-9.7c0.1,0,0.1-0.1,0.1-0.1c0.3,0,0.4,0,0.7,0c0.4,0,0.6,0.1,0.7,0.2c0.1,0.2,0.1,0.4,0,0.8
			c-0.3,1.1-0.4,1.6-0.7,2.7c0.7-0.4,1.4-0.6,2.1-0.6C166.9,74.6,167.4,74.9,167.7,75.5z M165.2,76c-0.5,0-1,0.2-1.6,0.6
			c-0.4,1.5-0.6,2.2-0.9,3.7c0.3,0.1,0.6,0.1,1,0.1c0.5,0,0.9-0.2,1.3-0.6c0.4-0.4,0.7-1,0.9-1.7C166.2,76.7,166,76,165.2,76z"/>
		<path fill="#043A63" d="M174.7,80.8c0,0.1-0.2,0.3-0.4,0.5c-0.2,0.2-0.4,0.4-0.5,0.4c-0.4,0.1-1.1-0.8-1.2-0.8
			c-0.2-0.1-1.6,0.9-2.4,0.9s-1.3-0.2-1.6-0.6c-0.3-0.4-0.4-0.9-0.2-1.4c0.2-0.8,0.6-1.4,1.3-1.7c0.6-0.4,1.4-0.6,2.3-0.6
			c0.5,0,0.9,0,1.3,0.1c0-0.2,0.1-0.2,0.1-0.4c0.2-0.7-0.1-1.1-0.9-1.1c-0.5,0-2,0.6-2.4,0.5c-0.1,0-0.4-1-0.2-1.2
			c0.4-0.5,2.3-0.6,3.4-0.6c0.8,0,1.3,0.2,1.7,0.6c0.4,0.4,0.5,1,0.3,1.8c-0.3,1.1-0.4,1.7-0.7,2.8
			C174.5,80.2,174.7,80.7,174.7,80.8z M171,80.4c0.5,0,1.1-0.2,1.7-0.7c0.1-0.5,0.2-0.7,0.3-1.2c-0.3,0-0.7-0.1-1.1-0.1
			c-0.4,0-0.7,0.1-1,0.3c-0.3,0.2-0.4,0.4-0.5,0.7c-0.1,0.3-0.1,0.5,0.1,0.7S170.8,80.4,171,80.4z"/>
		<path fill="#043A63" d="M180.9,77.5c0,0,0-0.1,0-0.2c0.1-0.5,0.1-0.8,0-1.1c-0.1-0.3-0.4-0.4-0.8-0.4c-0.9,0-1.5,0.8-1.9,2.3
			c-0.4,1.5-0.1,2.3,1,2.3c0.5,0,1.5-0.7,1.9-0.7c0.1,0,0.3,0.2,0.3,0.4c0.1,0.2,0.2,0.5,0.1,0.6c-0.3,0.6-1.9,1-3,1
			c-1.1,0-1.8-0.3-2.2-1c-0.4-0.7-0.4-1.6-0.1-2.7c0.3-1.1,0.8-2,1.6-2.6c0.8-0.6,1.6-0.9,2.5-0.9s1.5,0.2,1.9,0.6
			c0.4,0.4,0.5,0.9,0.4,1.5c-0.2,0.6-0.5,0.9-1.2,0.9C181.4,77.6,180.9,77.5,180.9,77.5z"/>
		<path fill="#043A63" d="M189.1,78.9c0.1,0.4,0.1,0.7,0.2,1.1c0.1,0.6,0.4,1.1,0.4,1.1c0,0.1-0.9,0.5-1.4,0.5
			c-0.3,0-0.5-0.1-0.6-0.2c-0.1-0.1-0.2-0.3-0.2-0.7c-0.1-0.5-0.1-0.8-0.2-1.3c-0.1-0.3-0.1-0.6-0.3-0.7c-0.1-0.1-0.3-0.2-0.5-0.2
			c-0.2,0-0.5,0-0.7,0c-0.3,1.1-0.4,1.7-0.7,2.9c-0.3,0-0.6,0.1-0.9,0.1c-0.3,0-0.6,0-0.9-0.1c1-4,1.5-6,2.6-10.1
			c0.1,0,0.1-0.1,0.1-0.1c0.3,0,0.4,0,0.7,0c0.4,0,0.6,0.1,0.7,0.2c0.1,0.2,0.1,0.4,0,0.8c-0.5,1.9-0.7,2.9-1.2,4.8
			c0.2,0,0.2,0,0.4,0c0.2,0,0.3-0.1,0.4-0.2c0.6-0.7,0.9-1,1.5-1.7c0.4-0.5,0.8-0.7,1.3-0.7s0.8,0,1,0c0,0,0,0.1,0.1,0.1
			c-0.8,0.9-1.2,1.4-2,2.3c-0.3,0.3-0.8,0.6-0.8,0.6C188,77.7,188.9,78.3,189.1,78.9z"/>
	</g>
</g>
<g>
	<g>
		<path fill="#FFFFFF" d="M86.2,110.5c-0.2,0.7-0.2,1-0.4,1.6c-0.1,0.5-0.2,0.7-0.3,1.2c0.2,0,0.4,0,0.7,0c1.2,0,1.8,0,3,0
			c0,0.2,0,0.4-0.1,0.6c0,0.2-0.1,0.4-0.2,0.6c-1.2,0-1.8,0-3,0c-0.3,0-0.5,0-0.7,0c-0.4,1.6-0.6,2.4-1,4.1c-0.2,0-0.5,0.1-0.8,0.1
			c-0.3,0-0.5,0-0.7-0.1c0.9-3.6,1.4-5.5,2.3-9.1c0.1,0,0.1,0,0.1-0.1c2.4,0,3.5,0,5.9,0c0,0.2,0,0.3,0,0.5c-0.1,0.4-0.4,0.6-1,0.6
			c-0.9,0-1.4,0-2.3,0C87,110.5,86.5,110.5,86.2,110.5z"/>
	</g>
	<g>
		<path fill="#FFFFFF" d="M96.4,115.6c-1.8,0-2.7,0-4.5,0c-0.1,0.6-0.1,1.1,0.1,1.5c0.2,0.3,0.6,0.5,1.2,0.5s1.9-0.6,2.2-0.5
			c0.1,0,0.3,0.7,0.3,0.8c-0.3,0.5-1.9,0.8-3,0.8c-1.1,0-1.8-0.3-2.1-1c-0.3-0.6-0.3-1.5-0.1-2.5c0.3-1,0.7-1.9,1.5-2.5
			c0.7-0.6,1.5-1,2.5-1c1,0,1.6,0.3,2,0.8c0.4,0.5,0.5,1.2,0.3,2.1C96.7,114.9,96.6,115.3,96.4,115.6z M95.3,113.2
			c-0.2-0.3-0.5-0.5-1-0.5c-0.5,0-0.9,0.2-1.3,0.5c-0.4,0.3-0.6,0.8-0.8,1.5c1.3,0,1.9,0,3.2,0c0-0.1,0-0.1,0-0.2
			C95.5,114,95.5,113.5,95.3,113.2z"/>
	</g>
	<g>
		<path fill="#FFFFFF" d="M103.8,115.6c-1.8,0-2.7,0-4.5,0c-0.1,0.6-0.1,1.1,0.1,1.5c0.2,0.3,0.6,0.5,1.2,0.5s1.9-0.6,2.2-0.5
			c0.1,0,0.3,0.7,0.3,0.8c-0.3,0.5-1.9,0.8-3,0.8s-1.8-0.3-2.1-1c-0.3-0.6-0.3-1.5-0.1-2.5c0.3-1,0.7-1.9,1.5-2.5
			c0.7-0.6,1.5-1,2.5-1c1,0,1.7,0.3,2,0.8c0.4,0.5,0.5,1.2,0.3,2.1C104.1,114.9,104,115.3,103.8,115.6z M102.7,113.2
			c-0.2-0.3-0.5-0.5-1-0.5s-0.9,0.2-1.3,0.5c-0.4,0.3-0.6,0.8-0.8,1.5c1.3,0,1.9,0,3.2,0c0-0.1,0-0.1,0-0.2
			C102.9,114,102.9,113.5,102.7,113.2z"/>
	</g>
	<g>
		<path fill="#FFFFFF" d="M107,118.7c-0.9,0-1.4-0.3-1.7-0.9c-0.3-0.6-0.3-1.5,0-2.5c0.3-1.1,0.8-1.9,1.5-2.5
			c0.7-0.6,1.5-0.9,2.2-0.9c0.6,0,1.1,0.2,1.6,0.5c0.4-1.4,0.5-2.1,0.9-3.5c0,0,0.1,0,0.1-0.1c0.2,0,0.3,0,0.6,0
			c0.3,0,0.5,0.1,0.6,0.2c0.1,0.1,0.1,0.3,0,0.6c-0.7,2.9-1.1,4.3-1.8,7.2c-0.2,0.6,0.1,1.2,0.1,1.3c0,0.1-0.5,0.6-0.7,0.7
			c-0.4,0-0.9-0.8-0.9-0.8C109.3,117.7,107.9,118.7,107,118.7z M107.6,117.6c0.7,0,1.3-0.3,1.9-0.9c0.3-1.4,0.5-2,0.9-3.4
			c-0.5-0.3-0.9-0.5-1.4-0.5c-0.5,0-0.9,0.2-1.3,0.6c-0.4,0.4-0.7,1-0.9,1.8c-0.2,0.8-0.2,1.4-0.1,1.8
			C106.9,117.4,107.2,117.6,107.6,117.6z"/>
	</g>
	<g>
		<path fill="#FFFFFF" d="M118.1,111.8c0.8,0,1.3,0.3,1.6,0.9c0.3,0.6,0.3,1.4,0,2.5c-0.3,1.1-0.8,1.9-1.6,2.5
			c-0.8,0.6-1.7,0.9-2.6,0.9c-0.9,0-1.8-0.1-2.6-0.4c1-3.8,1.5-5.7,2.4-9.5c0.1,0,0.1,0,0.1-0.1c0.2,0,0.3,0,0.5,0
			c0.3,0,0.5,0.1,0.6,0.2c0.1,0.1,0.1,0.3,0,0.6c-0.3,1.2-0.5,1.8-0.8,3C116.5,112,117.3,111.8,118.1,111.8z M117.4,112.9
			c-0.7,0-1.3,0.3-1.9,0.8c-0.4,1.5-0.6,2.3-1,3.8c0.4,0.1,0.8,0.2,1.3,0.2c0.5,0,1-0.2,1.4-0.6c0.4-0.4,0.8-1,1-1.8
			s0.2-1.4,0.1-1.7C118.1,113.1,117.8,112.9,117.4,112.9z"/>
	</g>
	<g>
		<path fill="#FFFFFF" d="M126.5,117.9c0,0.1-0.5,0.6-0.7,0.7c-0.4,0-0.9-0.9-0.9-0.9c-0.2-0.1-1.7,0.9-2.5,0.9
			c-0.8,0-1.3-0.2-1.6-0.6c-0.3-0.4-0.4-0.9-0.2-1.4c0.2-0.7,0.6-1.3,1.2-1.7c0.6-0.4,1.4-0.6,2.2-0.6c0.5,0,1,0,1.5,0.1
			c0.1-0.2,0.1-0.3,0.1-0.6c0.2-0.8-0.1-1.2-1-1.2c-0.7,0-2.1,0.6-2.5,0.5c-0.1,0-0.3-0.8-0.2-1c0.4-0.5,2.2-0.6,3.3-0.6
			c0.8,0,1.3,0.2,1.7,0.6c0.3,0.4,0.4,0.9,0.2,1.7c-0.3,1.1-0.4,1.7-0.7,2.8C126.2,117.3,126.5,117.8,126.5,117.9z M122.8,117.7
			c0.7,0,1.4-0.3,2.1-0.9c0.1-0.5,0.2-0.8,0.3-1.3c-0.4,0-0.8-0.1-1.3-0.1s-0.9,0.1-1.2,0.3s-0.5,0.5-0.6,0.8
			c-0.1,0.3-0.1,0.6,0.1,0.8C122.3,117.6,122.5,117.7,122.8,117.7z"/>
	</g>
	<g>
		<path fill="#FFFFFF" d="M132.9,114.4c0,0,0-0.1,0-0.1c0.3-1-0.1-1.5-1-1.5c-0.5,0-0.9,0.2-1.3,0.6s-0.7,1.1-0.9,1.9
			c-0.4,1.6,0,2.4,1.1,2.4c0.5,0,1.6-0.7,2-0.7c0.1,0,0.2,0.2,0.3,0.3c0.1,0.2,0.2,0.4,0.1,0.4c-0.3,0.5-1.9,1-2.9,1
			c-1,0-1.7-0.3-2.1-1c-0.3-0.7-0.4-1.5-0.1-2.6c0.3-1.1,0.8-1.9,1.5-2.5c0.8-0.6,1.6-0.9,2.4-0.9c0.9,0,1.5,0.2,1.9,0.6
			c0.4,0.4,0.5,0.9,0.4,1.4c-0.1,0.5-0.4,0.7-0.9,0.7C133.3,114.5,132.9,114.4,132.9,114.4z"/>
	</g>
	<g>
		<path fill="#FFFFFF" d="M140.3,116c0.1,0.5,0.1,0.7,0.2,1.1c0.1,0.5,0.5,1,0.5,1c0,0.1-0.7,0.4-1.1,0.4c-0.3,0-0.4-0.1-0.5-0.2
			c-0.1-0.1-0.2-0.3-0.2-0.6c-0.1-0.5-0.2-0.8-0.3-1.3c-0.1-0.4-0.2-0.6-0.3-0.7c-0.1-0.1-0.4-0.2-0.7-0.2c-0.3,0-0.6,0-0.8,0
			c-0.3,1.2-0.4,1.7-0.7,2.9c-0.2,0-0.4,0.1-0.7,0.1c-0.3,0-0.5,0-0.7-0.1c1-3.9,1.5-5.9,2.5-9.8c0.1,0,0.1,0,0.1-0.1
			c0.2,0,0.3,0,0.5,0c0.3,0,0.5,0.1,0.6,0.2c0.1,0.1,0.1,0.3,0,0.6c-0.5,2-0.8,3.1-1.3,5.1c0.2,0,0.3,0,0.6,0c0.1,0,0.3-0.1,0.4-0.2
			c0.8-0.8,1.1-1.1,1.9-1.9c0.2-0.2,0.4-0.3,0.5-0.4c0.2-0.1,0.4-0.1,0.7-0.1c0.3,0,0.5,0,0.7,0c0,0,0,0.1,0.1,0.1
			c-0.9,0.9-1.4,1.4-2.3,2.4c-0.2,0.2-0.6,0.5-0.6,0.5C139.2,114.9,140.1,115.4,140.3,116z"/>
	</g>
</g>
</svg>