<!-- Generator: Adobe Illustrator 17.1.0, SVG Export Plug-In  -->
<svg version="1.1"
	 xmlns="http://www.w3.org/2000/svg" xmlns:xlink="http://www.w3.org/1999/xlink" xmlns:a="http://ns.adobe.com/AdobeSVGViewerExtensions/3.0/"
	 x="0px" y="0px" width="260.7px" height="28.2px" viewBox="0 0 260.7 28.2" enable-background="new 0 0 260.7 28.2"
	 xml:space="preserve">
<defs>
</defs>
<g>
	<path fill="#FFFFFF" d="M4.9,5.3H1.2v3.4h4.1v1H0V0.3h5.1v1H1.2v3h3.7V5.3z"/>
	<path fill="#FFFFFF" d="M6.7,8.4c0.4,0.2,1,0.5,1.6,0.5c0.9,0,1.3-0.4,1.3-1c0-0.6-0.4-0.9-1.3-1.2C7.1,6.2,6.6,5.6,6.6,4.8
		c0-1.1,0.9-2,2.3-2c0.7,0,1.3,0.2,1.7,0.4l-0.3,0.9C10,3.9,9.5,3.7,8.9,3.7c-0.7,0-1.1,0.4-1.1,0.9c0,0.6,0.4,0.8,1.3,1.1
		c1.2,0.4,1.8,1,1.8,2c0,1.2-0.9,2-2.5,2c-0.7,0-1.4-0.2-1.9-0.5L6.7,8.4z"/>
	<path fill="#FFFFFF" d="M12.2,8.4c0.4,0.2,1,0.5,1.6,0.5c0.9,0,1.3-0.4,1.3-1c0-0.6-0.4-0.9-1.3-1.2c-1.2-0.4-1.8-1.1-1.8-1.9
		c0-1.1,0.9-2,2.3-2c0.7,0,1.3,0.2,1.7,0.4l-0.3,0.9c-0.3-0.2-0.8-0.4-1.4-0.4c-0.7,0-1.1,0.4-1.1,0.9c0,0.6,0.4,0.8,1.3,1.1
		c1.2,0.4,1.8,1,1.8,2c0,1.2-0.9,2-2.5,2c-0.7,0-1.4-0.2-1.9-0.5L12.2,8.4z"/>
	<path fill="#FFFFFF" d="M21.7,9.7l-0.1-0.9h0c-0.4,0.5-1.1,1-2.1,1c-1.4,0-2.1-1-2.1-1.9c0-1.6,1.5-2.5,4.1-2.5V5.3
		c0-0.6-0.2-1.6-1.5-1.6c-0.6,0-1.3,0.2-1.8,0.5l-0.3-0.8c0.6-0.4,1.4-0.6,2.2-0.6c2.1,0,2.6,1.4,2.6,2.8v2.5c0,0.6,0,1.2,0.1,1.6
		H21.7z M21.5,6.2c-1.3,0-2.9,0.2-2.9,1.5c0,0.8,0.5,1.2,1.2,1.2c0.9,0,1.4-0.6,1.6-1.1c0-0.1,0.1-0.3,0.1-0.4V6.2z"/>
	<path fill="#FFFFFF" d="M28.3,6.5c0,1.7,1.1,2.4,2.3,2.4c0.9,0,1.4-0.2,1.9-0.4l0.2,0.9c-0.4,0.2-1.2,0.4-2.3,0.4
		c-2.1,0-3.3-1.4-3.3-3.4c0-2,1.2-3.7,3.2-3.7c2.2,0,2.8,1.9,2.8,3.2c0,0.3,0,0.4,0,0.6H28.3z M31.9,5.7c0-0.8-0.3-2-1.7-2
		c-1.2,0-1.8,1.1-1.9,2H31.9z M32.2,0l-1.7,2h-0.9l1.2-2H32.2z"/>
	<path fill="#FFFFFF" d="M41.4,9.7l-0.1-0.9h0c-0.4,0.5-1.1,1-2.1,1c-1.4,0-2.1-1-2.1-1.9c0-1.6,1.5-2.5,4.1-2.5V5.3
		c0-0.6-0.2-1.6-1.5-1.6c-0.6,0-1.3,0.2-1.8,0.5l-0.3-0.8C38.1,3,39,2.8,39.8,2.8c2.1,0,2.6,1.4,2.6,2.8v2.5c0,0.6,0,1.2,0.1,1.6
		H41.4z M41.2,6.2c-1.3,0-2.9,0.2-2.9,1.5c0,0.8,0.5,1.2,1.2,1.2c0.9,0,1.4-0.6,1.6-1.1c0-0.1,0.1-0.3,0.1-0.4V6.2z"/>
	<path fill="#FFFFFF" d="M47.3,4.8c0-0.7,0-1.3-0.1-1.8h1.1L48.5,4h0c0.3-0.6,1.1-1.3,2.2-1.3c0.9,0,2.4,0.6,2.4,2.9v4h-1.2V5.8
		c0-1.1-0.4-2-1.6-2c-0.8,0-1.4,0.6-1.7,1.3c-0.1,0.2-0.1,0.4-0.1,0.6v4.1h-1.2V4.8z"/>
	<path fill="#FFFFFF" d="M61.3,6.3c0,2.5-1.7,3.6-3.4,3.6c-1.8,0-3.3-1.3-3.3-3.5c0-2.3,1.5-3.6,3.4-3.6C59.9,2.8,61.3,4.2,61.3,6.3
		z M55.9,6.3c0,1.5,0.9,2.6,2.1,2.6c1.2,0,2.1-1.1,2.1-2.6c0-1.1-0.6-2.6-2-2.6C56.5,3.7,55.9,5,55.9,6.3z"/>
	<path fill="#FFFFFF" d="M62.6,8.4c0.4,0.2,1,0.5,1.6,0.5c0.9,0,1.3-0.4,1.3-1c0-0.6-0.4-0.9-1.3-1.2c-1.2-0.4-1.8-1.1-1.8-1.9
		c0-1.1,0.9-2,2.3-2c0.7,0,1.3,0.2,1.7,0.4l-0.3,0.9c-0.3-0.2-0.8-0.4-1.4-0.4c-0.7,0-1.1,0.4-1.1,0.9c0,0.6,0.4,0.8,1.3,1.1
		c1.2,0.4,1.8,1,1.8,2c0,1.2-0.9,2-2.5,2c-0.7,0-1.4-0.2-1.9-0.5L62.6,8.4z"/>
	<path fill="#FFFFFF" d="M68.2,8.4c0.4,0.2,1,0.5,1.6,0.5c0.9,0,1.3-0.4,1.3-1c0-0.6-0.4-0.9-1.3-1.2c-1.2-0.4-1.8-1.1-1.8-1.9
		c0-1.1,0.9-2,2.3-2c0.7,0,1.3,0.2,1.7,0.4l-0.3,0.9c-0.3-0.2-0.8-0.4-1.4-0.4c-0.7,0-1.1,0.4-1.1,0.9c0,0.6,0.4,0.8,1.3,1.1
		c1.2,0.4,1.8,1,1.8,2c0,1.2-0.9,2-2.5,2c-0.7,0-1.4-0.2-1.9-0.5L68.2,8.4z"/>
	<path fill="#FFFFFF" d="M73.7,8.4c0.4,0.2,1,0.5,1.6,0.5c0.9,0,1.3-0.4,1.3-1c0-0.6-0.4-0.9-1.3-1.2c-1.2-0.4-1.8-1.1-1.8-1.9
		c0-1.1,0.9-2,2.3-2c0.7,0,1.3,0.2,1.7,0.4l-0.3,0.9c-0.3-0.2-0.8-0.4-1.4-0.4c-0.7,0-1.1,0.4-1.1,0.9c0,0.6,0.4,0.8,1.3,1.1
		c1.2,0.4,1.8,1,1.8,2c0,1.2-0.9,2-2.5,2c-0.7,0-1.4-0.2-1.9-0.5L73.7,8.4z"/>
	<path fill="#FFFFFF" d="M83.2,9.7l-0.1-0.9h0c-0.4,0.5-1.1,1-2.1,1c-1.4,0-2.1-1-2.1-1.9c0-1.6,1.5-2.5,4.1-2.5V5.3
		c0-0.6-0.2-1.6-1.5-1.6c-0.6,0-1.3,0.2-1.8,0.5l-0.3-0.8C80,3,80.8,2.8,81.6,2.8c2.1,0,2.6,1.4,2.6,2.8v2.5c0,0.6,0,1.2,0.1,1.6
		H83.2z M83,6.2c-1.3,0-2.9,0.2-2.9,1.5c0,0.8,0.5,1.2,1.2,1.2c0.9,0,1.4-0.6,1.6-1.1C83,7.7,83,7.5,83,7.4V6.2z"/>
	<path fill="#FFFFFF" d="M89.2,4.8c0-0.7,0-1.3-0.1-1.8h1.1L90.2,4h0c0.4-0.6,1-1.2,2.1-1.2c0.9,0,1.6,0.6,1.9,1.4h0
		c0.2-0.4,0.5-0.7,0.8-0.9c0.4-0.3,0.9-0.5,1.5-0.5c0.9,0,2.2,0.6,2.2,2.9v4h-1.2V5.9c0-1.3-0.5-2.1-1.5-2.1c-0.7,0-1.2,0.5-1.5,1.1
		c-0.1,0.2-0.1,0.4-0.1,0.6v4.2h-1.2V5.6c0-1.1-0.5-1.9-1.4-1.9c-0.8,0-1.3,0.6-1.5,1.2c-0.1,0.2-0.1,0.4-0.1,0.6v4.1h-1.2V4.8z"/>
	<path fill="#FFFFFF" d="M102.2,1c0,0.4-0.3,0.8-0.8,0.8c-0.4,0-0.7-0.3-0.7-0.8c0-0.4,0.3-0.8,0.8-0.8C101.9,0.3,102.2,0.6,102.2,1
		z M100.8,9.7V2.9h1.2v6.8H100.8z"/>
	<path fill="#FFFFFF" d="M103.9,8.4c0.4,0.2,1,0.5,1.6,0.5c0.9,0,1.3-0.4,1.3-1c0-0.6-0.4-0.9-1.3-1.2c-1.2-0.4-1.8-1.1-1.8-1.9
		c0-1.1,0.9-2,2.3-2c0.7,0,1.3,0.2,1.7,0.4l-0.3,0.9c-0.3-0.2-0.8-0.4-1.4-0.4c-0.7,0-1.1,0.4-1.1,0.9c0,0.6,0.4,0.8,1.3,1.1
		c1.2,0.4,1.8,1,1.8,2c0,1.2-0.9,2-2.5,2c-0.7,0-1.4-0.2-1.9-0.5L103.9,8.4z"/>
	<path fill="#FFFFFF" d="M109.5,8.4c0.4,0.2,1,0.5,1.6,0.5c0.9,0,1.3-0.4,1.3-1c0-0.6-0.4-0.9-1.3-1.2c-1.2-0.4-1.8-1.1-1.8-1.9
		c0-1.1,0.9-2,2.3-2c0.7,0,1.3,0.2,1.7,0.4l-0.3,0.9c-0.3-0.2-0.8-0.4-1.4-0.4c-0.7,0-1.1,0.4-1.1,0.9c0,0.6,0.4,0.8,1.3,1.1
		c1.2,0.4,1.8,1,1.8,2c0,1.2-0.9,2-2.5,2c-0.7,0-1.4-0.2-1.9-0.5L109.5,8.4z"/>
	<path fill="#FFFFFF" d="M118.9,9.7l-0.1-0.9h0c-0.4,0.5-1.1,1-2.1,1c-1.4,0-2.1-1-2.1-1.9c0-1.6,1.5-2.5,4.1-2.5V5.3
		c0-0.6-0.2-1.6-1.5-1.6c-0.6,0-1.3,0.2-1.8,0.5l-0.3-0.8c0.6-0.4,1.4-0.6,2.2-0.6c2.1,0,2.6,1.4,2.6,2.8v2.5c0,0.6,0,1.2,0.1,1.6
		H118.9z M115.8,1.8c0-0.9,0.4-1.5,1-1.5c0.3,0,0.5,0.1,0.9,0.3c0.2,0.1,0.4,0.2,0.6,0.2c0.2,0,0.4-0.1,0.4-0.6h0.6
		c0,0.9-0.3,1.4-1,1.4c-0.3,0-0.6-0.1-0.9-0.3c-0.3-0.2-0.4-0.3-0.6-0.3c-0.2,0-0.3,0.2-0.4,0.6H115.8z M118.8,6.2
		c-1.3,0-2.9,0.2-2.9,1.5c0,0.8,0.5,1.2,1.2,1.2c0.9,0,1.4-0.6,1.6-1.1c0-0.1,0.1-0.3,0.1-0.4V6.2z"/>
	<path fill="#FFFFFF" d="M128.1,6.3c0,2.5-1.7,3.6-3.4,3.6c-1.8,0-3.3-1.3-3.3-3.5c0-2.3,1.5-3.6,3.4-3.6
		C126.8,2.8,128.1,4.2,128.1,6.3z M122.7,6.3c0,1.5,0.9,2.6,2.1,2.6c1.2,0,2.1-1.1,2.1-2.6c0-1.1-0.6-2.6-2-2.6
		C123.3,3.7,122.7,5,122.7,6.3z"/>
	<path fill="#FFFFFF" d="M133.3,6.5c0,1.7,1.1,2.4,2.3,2.4c0.9,0,1.4-0.2,1.9-0.4l0.2,0.9c-0.4,0.2-1.2,0.4-2.3,0.4
		c-2.1,0-3.3-1.4-3.3-3.4c0-2,1.2-3.7,3.2-3.7c2.2,0,2.8,1.9,2.8,3.2c0,0.3,0,0.4,0,0.6H133.3z M136.9,5.7c0-0.8-0.3-2-1.7-2
		c-1.2,0-1.8,1.1-1.9,2H136.9z"/>
	<path fill="#FFFFFF" d="M147.4,9.5c-0.3,0.2-1,0.4-1.9,0.4c-2,0-3.4-1.4-3.4-3.5c0-2.1,1.4-3.6,3.6-3.6c0.7,0,1.4,0.2,1.7,0.4
		l-0.3,1c-0.3-0.2-0.8-0.3-1.4-0.3c-1.6,0-2.4,1.1-2.4,2.6c0,1.6,1,2.5,2.4,2.5c0.7,0,1.2-0.2,1.5-0.3L147.4,9.5z"/>
	<path fill="#FFFFFF" d="M154.9,6.3c0,2.5-1.7,3.6-3.4,3.6c-1.8,0-3.3-1.3-3.3-3.5c0-2.3,1.5-3.6,3.4-3.6
		C153.6,2.8,154.9,4.2,154.9,6.3z M149.5,6.3c0,1.5,0.9,2.6,2.1,2.6c1.2,0,2.1-1.1,2.1-2.6c0-1.1-0.6-2.6-2-2.6
		C150.1,3.7,149.5,5,149.5,6.3z"/>
	<path fill="#FFFFFF" d="M156.4,4.8c0-0.7,0-1.3-0.1-1.8h1.1l0.1,1.1h0c0.3-0.6,1.1-1.3,2.2-1.3c0.9,0,2.4,0.6,2.4,2.9v4H161V5.8
		c0-1.1-0.4-2-1.6-2c-0.8,0-1.4,0.6-1.7,1.3c-0.1,0.2-0.1,0.4-0.1,0.6v4.1h-1.2V4.8z"/>
	<path fill="#FFFFFF" d="M165.6,1v1.9h1.8v0.9h-1.8v3.7c0,0.8,0.2,1.3,0.9,1.3c0.3,0,0.6,0,0.7-0.1l0.1,0.9
		c-0.2,0.1-0.6,0.2-1.1,0.2c-0.6,0-1-0.2-1.3-0.5c-0.4-0.4-0.5-1-0.5-1.8V3.9h-1.1V2.9h1.1V1.3L165.6,1z"/>
	<path fill="#FFFFFF" d="M172.5,9.7l-0.1-0.9h0c-0.4,0.5-1.1,1-2.1,1c-1.4,0-2.1-1-2.1-1.9c0-1.6,1.5-2.5,4.1-2.5V5.3
		c0-0.6-0.2-1.6-1.5-1.6c-0.6,0-1.3,0.2-1.8,0.5l-0.3-0.8c0.6-0.4,1.4-0.6,2.2-0.6c2.1,0,2.6,1.4,2.6,2.8v2.5c0,0.6,0,1.2,0.1,1.6
		H172.5z M172.4,6.2c-1.3,0-2.9,0.2-2.9,1.5c0,0.8,0.5,1.2,1.2,1.2c0.9,0,1.4-0.6,1.6-1.1c0-0.1,0.1-0.3,0.1-0.4V6.2z"/>
	<path fill="#FFFFFF" d="M175.5,4.8c0-0.7,0-1.3-0.1-1.8h1.1l0.1,1.1h0c0.4-0.6,1-1.2,2.1-1.2c0.9,0,1.6,0.6,1.9,1.4h0
		c0.2-0.4,0.5-0.7,0.8-0.9c0.4-0.3,0.9-0.5,1.5-0.5c0.9,0,2.2,0.6,2.2,2.9v4H184V5.9c0-1.3-0.5-2.1-1.5-2.1c-0.7,0-1.2,0.5-1.5,1.1
		C181,5.1,181,5.3,181,5.5v4.2h-1.2V5.6c0-1.1-0.5-1.9-1.4-1.9c-0.8,0-1.3,0.6-1.5,1.2c-0.1,0.2-0.1,0.4-0.1,0.6v4.1h-1.2V4.8z"/>
	<path fill="#FFFFFF" d="M193.4,6.3c0,2.5-1.7,3.6-3.4,3.6c-1.8,0-3.3-1.3-3.3-3.5c0-2.3,1.5-3.6,3.4-3.6
		C192,2.8,193.4,4.2,193.4,6.3z M188,6.3c0,1.5,0.9,2.6,2.1,2.6c1.2,0,2.1-1.1,2.1-2.6c0-1.1-0.6-2.6-2-2.6C188.6,3.7,188,5,188,6.3
		z"/>
	<path fill="#FFFFFF" d="M194.7,8.4c0.4,0.2,1,0.5,1.6,0.5c0.9,0,1.3-0.4,1.3-1c0-0.6-0.3-0.9-1.3-1.2c-1.2-0.4-1.8-1.1-1.8-1.9
		c0-1.1,0.9-2,2.3-2c0.7,0,1.3,0.2,1.7,0.4l-0.3,0.9c-0.3-0.2-0.8-0.4-1.4-0.4c-0.7,0-1.1,0.4-1.1,0.9c0,0.6,0.4,0.8,1.3,1.1
		c1.2,0.4,1.8,1,1.8,2c0,1.2-0.9,2-2.5,2c-0.7,0-1.4-0.2-1.9-0.5L194.7,8.4z"/>
	<path fill="#FFFFFF" d="M208.2,9.5c-0.3,0.2-1,0.4-1.9,0.4c-2,0-3.4-1.4-3.4-3.5c0-2.1,1.4-3.6,3.6-3.6c0.7,0,1.4,0.2,1.7,0.4
		l-0.3,1c-0.3-0.2-0.8-0.3-1.4-0.3c-1.6,0-2.4,1.1-2.4,2.6c0,1.6,1,2.5,2.4,2.5c0.7,0,1.2-0.2,1.5-0.3L208.2,9.5z"/>
	<path fill="#FFFFFF" d="M215.7,6.3c0,2.5-1.7,3.6-3.4,3.6c-1.8,0-3.3-1.3-3.3-3.5c0-2.3,1.5-3.6,3.4-3.6
		C214.4,2.8,215.7,4.2,215.7,6.3z M210.4,6.3c0,1.5,0.9,2.6,2.1,2.6c1.2,0,2.1-1.1,2.1-2.6c0-1.1-0.6-2.6-2-2.6
		C211,3.7,210.4,5,210.4,6.3z"/>
	<path fill="#FFFFFF" d="M217.3,4.8c0-0.7,0-1.3-0.1-1.8h1.1l0.1,1.1h0c0.4-0.6,1-1.2,2.1-1.2c0.9,0,1.6,0.6,1.9,1.4h0
		c0.2-0.4,0.5-0.7,0.8-0.9c0.4-0.3,0.9-0.5,1.5-0.5c0.9,0,2.2,0.6,2.2,2.9v4h-1.2V5.9c0-1.3-0.5-2.1-1.5-2.1c-0.7,0-1.2,0.5-1.5,1.1
		c-0.1,0.2-0.1,0.4-0.1,0.6v4.2h-1.2V5.6c0-1.1-0.5-1.9-1.4-1.9c-0.8,0-1.3,0.6-1.5,1.2c-0.1,0.2-0.1,0.4-0.1,0.6v4.1h-1.2V4.8z"/>
	<path fill="#FFFFFF" d="M232.4,2.9l1.3,3.8c0.2,0.6,0.4,1.2,0.5,1.7h0c0.2-0.6,0.4-1.1,0.6-1.7l1.3-3.8h1.3l-2.7,6.8h-1.2l-2.6-6.8
		H232.4z"/>
	<path fill="#FFFFFF" d="M244.7,6.3c0,2.5-1.7,3.6-3.4,3.6c-1.8,0-3.3-1.3-3.3-3.5c0-2.3,1.5-3.6,3.4-3.6
		C243.3,2.8,244.7,4.2,244.7,6.3z M239.3,6.3c0,1.5,0.9,2.6,2.1,2.6c1.2,0,2.1-1.1,2.1-2.6c0-1.1-0.6-2.6-2-2.6S239.3,5,239.3,6.3z"
		/>
	<path fill="#FFFFFF" d="M251,9.5c-0.3,0.2-1,0.4-1.9,0.4c-2,0-3.4-1.4-3.4-3.5c0-2.1,1.4-3.6,3.6-3.6c0.7,0,1.4,0.2,1.7,0.4l-0.3,1
		c-0.3-0.2-0.8-0.3-1.4-0.3c-1.6,0-2.4,1.1-2.4,2.6c0,1.6,1,2.5,2.4,2.5c0.7,0,1.2-0.2,1.5-0.3L251,9.5z"/>
	<path fill="#FFFFFF" d="M253.1,6.5c0,1.7,1.1,2.4,2.3,2.4c0.9,0,1.4-0.2,1.9-0.4l0.2,0.9c-0.4,0.2-1.2,0.4-2.3,0.4
		c-2.1,0-3.3-1.4-3.3-3.4c0-2,1.2-3.7,3.2-3.7c2.2,0,2.8,1.9,2.8,3.2c0,0.3,0,0.4,0,0.6H253.1z M256.7,5.7c0-0.8-0.3-2-1.7-2
		c-1.2,0-1.8,1.1-1.9,2H256.7z M255.5,0l1.3,2h-0.9l-0.8-1.3h0L254.2,2h-0.9l1.3-2H255.5z"/>
	<path fill="#FFFFFF" d="M258.4,11.4c0.3-0.8,0.7-2.3,0.8-3.3l1.4-0.1c-0.3,1.2-0.9,2.7-1.3,3.4L258.4,11.4z"/>
	<path fill="#FFFFFF" d="M41.9,16.6h1.7v9.9h-1.7V16.6z"/>
	<path fill="#FFFFFF" d="M45.5,26.5v-6.8h1.7v6.8H45.5z M48.5,16.7l-1.7,2.1h-1.2l1.2-2.1H48.5z"/>
	<path fill="#FFFFFF" d="M55.4,16.6v8c0,0.7,0,1.5,0.1,1.9h-1.5l-0.1-1.1h0c-0.4,0.8-1.2,1.2-2.2,1.2c-1.6,0-2.9-1.4-2.9-3.5
		c0-2.3,1.4-3.6,3.1-3.6c0.9,0,1.6,0.4,1.9,0.9h0v-3.9H55.4z M53.6,22.5c0-0.1,0-0.3,0-0.4c-0.2-0.7-0.7-1.2-1.5-1.2
		c-1.1,0-1.7,1-1.7,2.3c0,1.2,0.6,2.2,1.7,2.2c0.7,0,1.3-0.5,1.5-1.2c0-0.2,0.1-0.3,0.1-0.5V22.5z"/>
	<path fill="#FFFFFF" d="M58.4,23.6c0,1.2,1,1.8,2.1,1.8c0.8,0,1.4-0.1,1.9-0.3l0.3,1.2c-0.6,0.2-1.4,0.4-2.4,0.4
		c-2.2,0-3.5-1.4-3.5-3.4c0-1.9,1.1-3.7,3.3-3.7c2.2,0,2.9,1.8,2.9,3.3c0,0.3,0,0.6-0.1,0.7H58.4z M61.4,22.4c0-0.6-0.3-1.7-1.4-1.7
		c-1.1,0-1.5,1-1.6,1.7H61.4z"/>
	<path fill="#FFFFFF" d="M64.4,21.9c0-0.9,0-1.6-0.1-2.2h1.5l0.1,1.3H66c0.3-1,1.1-1.5,1.9-1.5c0.2,0,0.3,0,0.4,0v1.6
		c-0.1,0-0.3-0.1-0.5-0.1c-0.8,0-1.4,0.5-1.5,1.3c0,0.2-0.1,0.3-0.1,0.5v3.5h-1.7V21.9z"/>
	<path fill="#FFFFFF" d="M72.4,17.2C73,17.1,74,17,75,17c1.4,0,2.3,0.2,2.9,0.8c0.5,0.4,0.8,1.1,0.8,1.9c0,1.2-0.8,2-1.7,2.4v0
		c0.7,0.3,1.1,0.9,1.3,1.8c0.3,1.2,0.5,2.3,0.7,2.6h-1.8c-0.1-0.3-0.4-1.1-0.6-2.2C76.4,23,76,22.7,75,22.6h-0.9v3.9h-1.7V17.2z
		 M74.1,21.4h1c1.2,0,1.9-0.6,1.9-1.6c0-1-0.7-1.5-1.8-1.5c-0.5,0-0.9,0-1.1,0.1V21.4z"/>
	<path fill="#FFFFFF" d="M86.8,23c0,2.5-1.8,3.6-3.5,3.6c-1.9,0-3.4-1.3-3.4-3.5c0-2.2,1.5-3.6,3.5-3.6C85.5,19.5,86.8,21,86.8,23z
		 M81.7,23.1c0,1.3,0.6,2.3,1.7,2.3c1,0,1.7-1,1.7-2.3c0-1.1-0.5-2.3-1.7-2.3C82.2,20.8,81.7,22,81.7,23.1z"/>
	<path fill="#FFFFFF" d="M94.5,16.6v8c0,0.7,0,1.5,0.1,1.9H93L93,25.4h0c-0.4,0.8-1.2,1.2-2.2,1.2c-1.6,0-2.9-1.4-2.9-3.5
		c0-2.3,1.4-3.6,3.1-3.6c0.9,0,1.6,0.4,1.9,0.9h0v-3.9H94.5z M92.8,22.5c0-0.1,0-0.3,0-0.4c-0.2-0.7-0.7-1.2-1.5-1.2
		c-1.1,0-1.7,1-1.7,2.3c0,1.2,0.6,2.2,1.7,2.2c0.7,0,1.3-0.5,1.5-1.2c0-0.2,0.1-0.3,0.1-0.5V22.5z"/>
	<path fill="#FFFFFF" d="M102.8,23c0,2.5-1.8,3.6-3.5,3.6c-1.9,0-3.4-1.3-3.4-3.5c0-2.2,1.5-3.6,3.5-3.6
		C101.5,19.5,102.8,21,102.8,23z M97.7,23.1c0,1.3,0.6,2.3,1.7,2.3c1,0,1.7-1,1.7-2.3c0-1.1-0.5-2.3-1.7-2.3
		C98.2,20.8,97.7,22,97.7,23.1z"/>
	<path fill="#FFFFFF" d="M104.2,26.5c0-0.5,0.1-1.2,0.1-1.9v-8h1.7v4.1h0c0.4-0.7,1.2-1.1,2.2-1.1c1.7,0,2.9,1.4,2.8,3.5
		c0,2.5-1.6,3.7-3.1,3.7c-0.9,0-1.7-0.3-2.2-1.2h0l-0.1,1H104.2z M106,23.7c0,0.1,0,0.3,0,0.4c0.2,0.7,0.8,1.2,1.5,1.2
		c1.1,0,1.7-0.9,1.7-2.2c0-1.2-0.6-2.2-1.7-2.2c-0.7,0-1.3,0.5-1.5,1.3c0,0.1-0.1,0.3-0.1,0.4V23.7z"/>
	<path fill="#FFFFFF" d="M113.7,23.6c0,1.2,1,1.8,2.1,1.8c0.8,0,1.4-0.1,1.9-0.3l0.3,1.2c-0.6,0.2-1.4,0.4-2.4,0.4
		c-2.2,0-3.5-1.4-3.5-3.4c0-1.9,1.1-3.7,3.3-3.7c2.2,0,2.9,1.8,2.9,3.3c0,0.3,0,0.6-0.1,0.7H113.7z M116.7,22.4
		c0-0.6-0.3-1.7-1.4-1.7c-1.1,0-1.5,1-1.6,1.7H116.7z"/>
	<path fill="#FFFFFF" d="M119.7,21.7c0-0.8,0-1.4-0.1-2h1.5l0.1,1h0c0.3-0.5,1-1.2,2.2-1.2c1.2,0,2.4,0.8,2.4,2.9v4h-1.7v-3.9
		c0-1-0.4-1.7-1.3-1.7c-0.7,0-1.2,0.5-1.3,1c-0.1,0.2-0.1,0.4-0.1,0.6v4h-1.7V21.7z"/>
	<path fill="#FFFFFF" d="M127.6,24.9c0.4,0.2,1.1,0.5,1.8,0.5c0.8,0,1.1-0.3,1.1-0.8c0-0.5-0.3-0.7-1.1-1c-1.3-0.5-1.9-1.2-1.9-2
		c0-1.2,1-2.1,2.6-2.1c0.8,0,1.4,0.2,1.8,0.4l-0.3,1.2c-0.3-0.2-0.8-0.4-1.4-0.4c-0.6,0-1,0.3-1,0.7c0,0.4,0.3,0.6,1.2,1
		c1.2,0.4,1.8,1.1,1.8,2.1c0,1.2-1,2.1-2.8,2.1c-0.8,0-1.6-0.2-2.1-0.5L127.6,24.9z"/>
	<path fill="#FFFFFF" d="M132.8,28.2c0.3-0.8,0.7-2.3,0.8-3.3l1.4-0.1c-0.3,1.2-0.9,2.7-1.3,3.4L132.8,28.2z"/>
	<path fill="#FFFFFF" d="M139.5,21.6c0-0.7,0-1.3-0.1-1.8h1.1l0.1,1.1h0c0.3-0.6,1.1-1.3,2.2-1.3c0.9,0,2.4,0.6,2.4,2.9v4H144v-3.9
		c0-1.1-0.4-2-1.6-2c-0.8,0-1.4,0.6-1.7,1.3c-0.1,0.2-0.1,0.4-0.1,0.6v4.1h-1.2V21.6z"/>
	<path fill="#FFFFFF" d="M147.9,23.3c0,1.7,1.1,2.4,2.3,2.4c0.9,0,1.4-0.2,1.9-0.4l0.2,0.9c-0.4,0.2-1.2,0.4-2.3,0.4
		c-2.1,0-3.3-1.4-3.3-3.4c0-2,1.2-3.7,3.2-3.7c2.2,0,2.8,1.9,2.8,3.2c0,0.3,0,0.4,0,0.6H147.9z M151.6,22.5c0-0.8-0.3-2-1.7-2
		c-1.2,0-1.8,1.1-1.9,2H151.6z"/>
	<path fill="#FFFFFF" d="M154.1,25.2c0.4,0.2,1,0.5,1.6,0.5c0.9,0,1.3-0.4,1.3-1c0-0.6-0.3-0.9-1.3-1.2c-1.2-0.4-1.8-1.1-1.8-1.9
		c0-1.1,0.9-2,2.3-2c0.7,0,1.3,0.2,1.7,0.4l-0.3,0.9c-0.3-0.2-0.8-0.4-1.4-0.4c-0.7,0-1.1,0.4-1.1,0.9c0,0.6,0.4,0.8,1.3,1.1
		c1.2,0.4,1.8,1,1.8,2c0,1.2-0.9,2-2.5,2c-0.7,0-1.4-0.2-1.9-0.5L154.1,25.2z"/>
	<path fill="#FFFFFF" d="M159.6,25.2c0.4,0.2,1,0.5,1.6,0.5c0.9,0,1.3-0.4,1.3-1c0-0.6-0.4-0.9-1.3-1.2c-1.2-0.4-1.8-1.1-1.8-1.9
		c0-1.1,0.9-2,2.3-2c0.7,0,1.3,0.2,1.7,0.4l-0.3,0.9c-0.3-0.2-0.8-0.4-1.4-0.4c-0.7,0-1.1,0.4-1.1,0.9c0,0.6,0.4,0.8,1.3,1.1
		c1.2,0.4,1.8,1,1.8,2c0,1.2-0.9,2-2.5,2c-0.7,0-1.4-0.2-1.9-0.5L159.6,25.2z"/>
	<path fill="#FFFFFF" d="M166,23.3c0,1.7,1.1,2.4,2.3,2.4c0.9,0,1.4-0.2,1.9-0.4l0.2,0.9c-0.4,0.2-1.2,0.4-2.3,0.4
		c-2.1,0-3.3-1.4-3.3-3.4c0-2,1.2-3.7,3.2-3.7c2.2,0,2.8,1.9,2.8,3.2c0,0.3,0,0.4,0,0.6H166z M169.7,22.5c0-0.8-0.3-2-1.7-2
		c-1.2,0-1.8,1.1-1.9,2H169.7z"/>
	<path fill="#FFFFFF" d="M181.2,16.6v8.2c0,0.6,0,1.3,0.1,1.8h-1.1l-0.1-1.2h0c-0.4,0.8-1.2,1.3-2.3,1.3c-1.6,0-2.9-1.4-2.9-3.4
		c0-2.3,1.4-3.6,3-3.6c1,0,1.7,0.5,2,1h0v-4H181.2z M180,22.5c0-0.2,0-0.4-0.1-0.5c-0.2-0.8-0.9-1.4-1.8-1.4c-1.3,0-2,1.1-2,2.6
		c0,1.4,0.7,2.5,2,2.5c0.8,0,1.6-0.5,1.8-1.5c0-0.2,0.1-0.3,0.1-0.5V22.5z"/>
	<path fill="#FFFFFF" d="M183.9,23.3c0,1.7,1.1,2.4,2.3,2.4c0.9,0,1.4-0.2,1.9-0.4l0.2,0.9c-0.4,0.2-1.2,0.4-2.3,0.4
		c-2.1,0-3.3-1.4-3.3-3.4c0-2,1.2-3.7,3.2-3.7c2.2,0,2.8,1.9,2.8,3.2c0,0.3,0,0.4,0,0.6H183.9z M187.5,22.5c0-0.8-0.3-2-1.7-2
		c-1.2,0-1.8,1.1-1.9,2H187.5z"/>
	<path fill="#FFFFFF" d="M190.1,25.2c0.4,0.2,1,0.5,1.6,0.5c0.9,0,1.3-0.4,1.3-1c0-0.6-0.3-0.9-1.3-1.2c-1.2-0.4-1.8-1.1-1.8-1.9
		c0-1.1,0.9-2,2.3-2c0.7,0,1.3,0.2,1.7,0.4l-0.3,0.9c-0.3-0.2-0.8-0.4-1.4-0.4c-0.7,0-1.1,0.4-1.1,0.9c0,0.6,0.4,0.8,1.3,1.1
		c1.2,0.4,1.8,1,1.8,2c0,1.2-0.9,2-2.5,2c-0.7,0-1.4-0.2-1.9-0.5L190.1,25.2z"/>
	<path fill="#FFFFFF" d="M199.5,26.5l-0.1-0.9h0c-0.4,0.5-1.1,1-2.1,1c-1.4,0-2.1-1-2.1-1.9c0-1.6,1.5-2.5,4.1-2.5v-0.1
		c0-0.6-0.2-1.6-1.5-1.6c-0.6,0-1.3,0.2-1.8,0.5l-0.3-0.8c0.6-0.4,1.4-0.6,2.2-0.6c2.1,0,2.6,1.4,2.6,2.8v2.5c0,0.6,0,1.2,0.1,1.6
		H199.5z M199.4,23c-1.3,0-2.9,0.2-2.9,1.5c0,0.8,0.5,1.2,1.2,1.2c0.9,0,1.4-0.6,1.6-1.1c0-0.1,0.1-0.3,0.1-0.4V23z"/>
	<path fill="#FFFFFF" d="M202.7,26.5v-5.8h-1v-0.9h1v-0.4c0-1.8,1.1-3,3-3c0.6,0,1.4,0.2,1.7,0.4l-0.4,0.9c-0.3-0.2-0.8-0.4-1.4-0.4
		c-1.3,0-1.7,0.9-1.7,2v0.3h3.9v6.8h-1.2v-5.8h-2.7v5.8H202.7z"/>
	<path fill="#FFFFFF" d="M216,23.1c0,2.5-1.7,3.6-3.4,3.6c-1.8,0-3.3-1.3-3.3-3.5c0-2.3,1.5-3.6,3.4-3.6C214.7,19.6,216,21,216,23.1
		z M210.6,23.1c0,1.5,0.9,2.6,2.1,2.6c1.2,0,2.1-1.1,2.1-2.6c0-1.1-0.6-2.6-2-2.6C211.2,20.5,210.6,21.8,210.6,23.1z"/>
	<path fill="#FFFFFF" d="M216.9,25.8c0-0.5,0.4-0.9,0.8-0.9s0.8,0.4,0.8,0.9c0,0.5-0.3,0.9-0.8,0.9
		C217.2,26.7,216.9,26.3,216.9,25.8z"/>
</g>
</svg>