<!-- Generator: Adobe Illustrator 17.1.0, SVG Export Plug-In  -->
<svg version="1.1"
	 xmlns="http://www.w3.org/2000/svg" xmlns:xlink="http://www.w3.org/1999/xlink" xmlns:a="http://ns.adobe.com/AdobeSVGViewerExtensions/3.0/"
	 x="0px" y="0px" width="262.7px" height="62.9px" viewBox="0 0 262.7 62.9" enable-background="new 0 0 262.7 62.9"
	 xml:space="preserve">
<defs>
</defs>
<g>
	<path fill="#9CCB65" d="M262.7,41.5c-0.7-0.2-0.4,0.4-0.5,0.6c-1,4.1-3.1,7.6-6.2,10.5c-3.7,3.4-8,5.7-12.5,7.6c-1,0.4-2,1-3.4,1.1
		c2.6-1.6,4.8-3.3,6.9-5.1c7-6.5,8.3-14.4,5.8-23.2c-2-7-6.7-12-12.5-16c-6.8-4.7-14.5-7.3-22.5-9.2c-7.8-1.8-15.8-2.6-23.8-2.8
		c-10.2-0.3-20.3,0.4-30.3,2c-6.2,1-12.2,3-18.3,4.8c-2.9,0.9-5.8,1.8-8.7,2.7c-0.2,0.1-0.5,0.1-0.8,0.2c0.1-0.4,0.4-0.5,0.7-0.6
		c10.5-5,21.3-9.2,32.8-11.5c5.3-1.1,10.7-1.7,16.2-2.1c0.4,0,0.8,0.1,1.2-0.2c0,0,0.1-0.1,0.1-0.1c-0.1-0.1-0.1-0.1-0.2-0.1
		c7.2,0,14.4,0,21.6,0c-0.1,0-0.1,0.1-0.2,0.1c0,0,0,0.1,0.1,0.1c0.2,0.3,0.5,0.2,0.7,0.2c4.1,0.3,8.2,0.8,12.3,1.6
		c8.4,1.6,16.6,4,24.1,8.3c8.6,4.9,15.4,11.2,17.2,21.5c0,0.1,0.1,0.5,0.4,0.2C262.7,35.2,262.7,38.3,262.7,41.5z"/>
	<path fill="#008996" d="M0,18.9c2.2-0.7,4.3-1.6,6.6-1.9c4-0.6,7.9-0.5,11.8,0.7c5,1.6,7.8,4.9,8.5,10.1c0.7,5-0.6,9.3-4.6,12.6
		c-1.1,0.9-2.4,1.5-3.9,1.9c1.3,0.8,2.1,1.8,2.8,3c3.2,5.4,6.3,10.8,9.5,16.1c0.1,0.2,0.2,0.3,0.2,0.5c-0.3,0.3-0.7,0.2-1,0.2
		c-2.3,0-4.5,0-6.8,0c-0.9,0-1.3-0.3-1.7-1c-2.7-4.9-5.5-9.7-8.1-14.6c-1-1.9-2.4-2.6-4.5-2.5c-0.9,0-1.2,0.2-1.2,1.2
		c0,4.9,0,9.8,0,14.7c0,2.3,0,2.3-2.2,2.3c-1.8,0-3.6,0-5.4,0C0,47.8,0,33.4,0,18.9z M7.6,30.9c0,2,0,4.1,0,6.1
		c0,0.6,0.1,0.9,0.8,0.9c1,0,2,0,2.9,0c2.8-0.2,5.3-1.1,6.8-3.7c2.5-4.4,0.4-9.2-4.3-10.1c-1.8-0.3-3.5-0.3-5.3,0
		C7.9,24,7.6,24.3,7.6,25C7.7,27,7.6,28.9,7.6,30.9z"/>
	<path fill="#008996" d="M132.4,62.9c0-0.6-0.5-0.4-0.8-0.5c-1.8-0.4-3.6-0.8-5.3-1.4c-0.5-0.2-0.7-0.5-0.7-1.1
		c0.5-11.7,0.2-23.4,0.2-35c0-3.9,1.4-6.5,4.9-8.2c2.5-1.2,2.5-1.3,2.5,1.5c0,3.6,0,7.3,0,10.9c0,0.9,0.1,1.1,1,0.7
		c7.9-3.4,15.6,0,18.4,8.1c1.5,4.4,1.8,8.8,0.4,13.3c-1.8,5.7-5.6,9.4-11.3,11.1c-0.3,0.1-0.9-0.1-0.8,0.5
		C137.9,62.9,135.1,62.9,132.4,62.9z M133.1,46.2c0,2.8,0,5.6,0,8.3c0,0.4-0.1,0.8,0.5,1c4.6,1.9,8.7,0.6,10.7-3.8
		c1.8-4,1.8-8.1,0.1-12.1c-1.9-4.4-6.5-5.7-10.5-3.1c-0.6,0.4-0.8,0.8-0.8,1.5C133.1,40.8,133.1,43.5,133.1,46.2z"/>
	<path fill="#008996" d="M74.2,62.9c0.2-0.4-0.2-0.4-0.4-0.4c-7.8-1.8-12.8-9-12.4-18.3c0.2-3.7,1.1-7.1,3.3-10.1
		c3.7-5.1,10.2-6.8,16.2-4.2c1.2,0.5,1.1,0.5,1.2-0.8c0.1-2.1-0.2-4.3,0-6.4c0.2-1.7,0.9-3.2,2.3-4.2c1.3-1,2.8-1.7,4.3-2.5
		c0.6-0.3,0.7,0,0.7,0.5c0,1.1,0,2.1,0,3.2c0,11.8,0,23.5,0,35.3c0,1.6,0.1,3.2,0.3,4.7c0.1,0.8-0.2,1.1-0.9,1.3
		c-1.9,0.6-3.8,1.1-5.8,1.6c-0.2,0-0.8-0.2-0.6,0.4C79.6,62.9,76.9,62.9,74.2,62.9z M82,46.4C82,46.4,82,46.4,82,46.4
		c0-2.7,0-5.5,0-8.2c0-0.8-0.3-1.3-1-1.7c-4.2-2.7-9.1-1-10.7,3.8c-1.1,3.2-1.1,6.4-0.3,9.6c1.4,5.4,5.9,7.7,11.1,5.9
		c0.6-0.2,0.8-0.4,0.8-1.1C82,51.9,82,49.2,82,46.4z"/>
	<path fill="#008996" d="M40.1,62.9c0.2-0.4-0.1-0.4-0.3-0.5c-7.2-2.2-10.3-7.5-11.1-14.6c-0.4-4.2,0.2-8.3,2.4-12
		c3-5.2,7.7-7.5,13.6-7.2c5.6,0.3,9.9,2.9,12.3,8c2.9,6.1,2.9,12.3,0,18.4c-1.8,3.7-4.7,6.1-8.7,7.3c-0.3,0.1-0.9-0.1-0.8,0.5
		C44.9,62.9,42.5,62.9,40.1,62.9z M36.7,45.8c0,2.2,0.3,4.4,1.2,6.5c0.8,1.8,2,3.2,3.9,3.8c3.3,1.1,6.6-0.4,8-4
		c1.6-4.2,1.6-8.5-0.1-12.7c-1.1-2.6-3-4.2-5.9-4.2c-2.9,0-4.8,1.6-5.9,4.2C37,41.5,36.7,43.6,36.7,45.8z"/>
	<path fill="#008996" d="M104,62.9c0.2-0.4-0.2-0.4-0.4-0.4c-6.9-2-10.1-7-11.1-13.7c-0.6-4.3-0.1-8.6,2.1-12.5
		c3-5.5,7.8-7.9,13.9-7.6c5.9,0.3,10.3,3.3,12.6,8.8c2.7,6.5,2.4,13-1.4,19.1c-1.8,2.9-4.5,4.8-7.8,5.8c-0.3,0.1-0.9-0.1-0.9,0.5
		C108.6,62.9,106.3,62.9,104,62.9z M100.3,45.5c0,2.8,0.3,5.1,1.5,7.3c1.2,2.3,3,3.6,5.6,3.6c2.7,0,4.6-1.3,5.6-3.6
		c2.1-4.7,2.1-9.5-0.2-14.2c-1.1-2.2-3-3.4-5.4-3.4c-2.5,0-4.3,1.2-5.5,3.4C100.7,40.9,100.4,43.3,100.3,45.5z"/>
	<path fill="#008996" d="M168.2,62.9c0.1-0.5-0.3-0.4-0.5-0.5c-6.6-1.7-10.4-7.2-11.2-13.9c-0.4-3.8-0.1-7.6,1.3-11.2
		c2.3-5.9,7.3-9.1,13.7-8.7c6,0.4,10.5,4.2,12,10.3c0.7,2.9,0.8,5.8,0.4,8.8c-0.1,0.8-0.4,0.9-1.1,0.9c-5.8,0-11.6,0-17.3,0
		c-1.1,0-1.2,0.4-1,1.3c0.9,4.5,4.8,7.1,9.2,6.3c0.8-0.1,1.6-0.3,2.4-0.6c1-0.4,1.7-0.2,2.5,0.6c1.1,1.1,2.1,2.3,3,3.5
		c0.5,0.6,0.5,1-0.4,1.3c-1.5,0.6-3,1.1-4.6,1.4c-0.2,0.1-0.8-0.1-0.7,0.5C173.3,62.9,170.8,62.9,168.2,62.9z M170.4,42.5
		c1.8,0,3.5,0,5.3,0c0.8,0,1-0.3,0.9-1c-0.2-1.5-0.6-2.9-1.4-4.1c-2-3-6.1-3.4-8.6-0.8c-1.3,1.4-2,3.1-2.3,4.9c-0.1,0.8,0.1,1,0.9,1
		C166.9,42.5,168.6,42.5,170.4,42.5z"/>
	<path fill="#008996" d="M222.1,62.9c0.1-0.6-0.4-0.4-0.6-0.5c-1.5-0.4-2.9-0.8-4.3-1.3c-0.7-0.2-0.8-0.5-0.4-1.1
		c0.9-1.4,2-2.7,3.2-4c0.5-0.5,1-0.5,1.6-0.3c1.8,0.6,3.5,1,5.4,0.6c1.4-0.3,2.6-0.9,3-2.3c0.4-1.5,0-2.8-1.2-3.8
		c-1-0.9-2.3-1.4-3.5-2c-1.9-0.9-3.9-1.8-5.5-3.3c-4.5-4.3-3.5-11.7,2-14.7c3.8-2.1,7.9-1.9,11.9-0.8c0.8,0.2,1.6,0.6,2.4,0.9
		c0.5,0.2,0.5,0.4,0.2,0.8c-1.3,1.5-2.7,3-4,4.5c-0.3,0.4-0.6,0.2-1,0.1c-1.4-0.3-2.8-0.5-4.2-0.3c-1.2,0.2-2.2,0.7-2.5,2
		c-0.3,1.3,0.2,2.4,1.2,3.2c1.1,0.8,2.3,1.3,3.5,1.8c1.5,0.6,3.1,1.2,4.5,2.1c3.8,2.4,4.9,5.9,4.4,10.1c-0.5,3.8-2.9,6.1-6.4,7.4
		c-0.7,0.2-1.4,0.3-2,0.7c0,0,0,0.1,0.1,0.2C227.2,62.9,224.7,62.9,222.1,62.9z"/>
	<path fill="#008996" d="M186.9,47.6c0-4.6,0.1-9.2-0.1-13.7c0-1.3,0.3-1.9,1.4-2.4c3.3-1.6,6.5-3.3,10.2-3.8
		c3.1-0.4,6.2-0.2,9.2,1.1c3.9,1.7,5.7,4.9,5.8,9c0.1,7.2,0.1,14.5,0.1,21.8c0,2.7,0,2.7-2.7,2.7c-1.2,0-2.3-0.1-3.5,0
		c-0.8,0.1-1.1-0.2-1.1-1.1c0-3.6,0-7.3,0-10.9c0-3.3,0-6.5,0-9.8c0-4.6-3.4-7.3-7.9-6.1c-0.4,0.1-0.7,0.2-1.1,0.4
		c-2.6,1-2.9,1.4-2.9,4.2c0,7.4,0,14.8,0,22.2c0,1-0.3,1.2-1.2,1.2c-1.7-0.1-3.4-0.1-5.1,0c-0.9,0-1.1-0.3-1.1-1.2
		C187.1,56.6,187,52.1,186.9,47.6C187,47.6,187,47.6,186.9,47.6z"/>
	<path fill="#9CCB65" d="M135.3,14.9c-0.1,0-0.1,0-0.2-0.1c0.1,0,0.1-0.1,0.2-0.1c0,0,0.1,0.1,0.2,0.1
		C135.4,14.8,135.3,14.8,135.3,14.9z"/>
</g>
</svg>