<!-- Generator: Adobe Illustrator 17.1.0, SVG Export Plug-In  -->
<svg version="1.1"
	 xmlns="http://www.w3.org/2000/svg" xmlns:xlink="http://www.w3.org/1999/xlink" xmlns:a="http://ns.adobe.com/AdobeSVGViewerExtensions/3.0/"
	 x="0px" y="0px" width="133.7px" height="40.3px" viewBox="0 0 133.7 40.3" enable-background="new 0 0 133.7 40.3"
	 xml:space="preserve">
<defs>
</defs>
<g>
	<path fill="#A9D42D" d="M38.9,2L38.9,2c0,1.1,0,2,0,2.9v3.9c-0.2,0-0.4,0-0.6,0c-0.2,0-0.4,0-0.6,0V0.6c0.2,0,0.5-0.1,0.7-0.1
		c0.3,0,0.5,0,0.7,0l2.6,5.1c0.1,0.2,0.3,0.6,0.5,1c0.2,0.4,0.3,0.7,0.4,0.8v0l0,0c-0.1-1-0.1-2-0.1-3V1.3c0-0.3,0-0.5,0.1-0.6
		s0.3-0.2,0.5-0.2h0.4l0.1,0.1v8.2c-0.2,0-0.5,0.1-0.7,0.1c-0.3,0-0.5,0-0.7,0l-2.6-5.1C39.5,3.2,39.2,2.7,38.9,2z"/>
	<path fill="#A9D42D" d="M50.4,8.3c-0.1,0.3-0.2,0.5-0.5,0.6c-0.4-0.1-0.7-0.3-0.9-0.8C48.5,8.7,47.9,9,47.3,9
		c-0.6,0-1.1-0.2-1.4-0.5c-0.3-0.4-0.5-0.8-0.5-1.2c0-0.7,0.2-1.1,0.6-1.5s1-0.5,1.7-0.5c0.4,0,0.8,0,1.2,0.1V4.8
		c0-0.7-0.3-1.1-1-1.1c-0.5,0-1.2,0.2-1.9,0.5c-0.2-0.2-0.3-0.5-0.3-0.9c0.8-0.4,1.7-0.6,2.5-0.6c0.6,0,1.1,0.2,1.4,0.5
		c0.3,0.3,0.5,0.8,0.5,1.5v2.5C50.1,7.8,50.2,8.1,50.4,8.3z M47.4,8c0.5,0,1-0.3,1.5-0.8V6.1c-0.3,0-0.7-0.1-1.1-0.1
		c-0.4,0-0.7,0.1-0.9,0.3s-0.3,0.4-0.3,0.7s0.1,0.5,0.2,0.7C47,8,47.2,8,47.4,8z"/>
	<path fill="#A9D42D" d="M53.6,7.9l1.5-5c0.1,0,0.3,0,0.5,0s0.4,0,0.6,0.1l0,0c-0.8,2.6-1.4,4.5-1.9,5.8c-0.2,0-0.5,0.1-0.8,0.1
		s-0.5,0-0.6-0.1s-0.2-0.3-0.3-0.5L50.9,3c0.2-0.1,0.5-0.2,0.7-0.2c0.3,0,0.5,0.2,0.6,0.5L53,6c0.2,0.6,0.3,1.2,0.5,1.8
		C53.5,7.8,53.6,7.9,53.6,7.9z"/>
	<path fill="#A9D42D" d="M61.5,6.2H58c0,0.6,0.1,1,0.4,1.3C58.6,7.9,58.9,8,59.4,8s1.1-0.2,1.7-0.5c0.2,0.2,0.3,0.4,0.4,0.8
		C60.8,8.8,60.1,9,59.2,9c-0.9,0-1.5-0.3-1.9-0.9s-0.6-1.3-0.6-2.3s0.2-1.7,0.6-2.3c0.4-0.6,1-0.9,1.8-0.9C60,2.7,60.6,3,61,3.5
		c0.4,0.5,0.6,1.1,0.6,1.8C61.6,5.6,61.6,5.9,61.5,6.2z M60.2,4.1c-0.2-0.3-0.5-0.5-0.9-0.5s-0.7,0.2-0.9,0.5S58,4.8,58,5.4h2.5V5.2
		C60.5,4.7,60.4,4.4,60.2,4.1z"/>
	<path fill="#A9D42D" d="M64.8,8.9c-0.6,0-1.1-0.3-1.5-0.8c-0.4-0.5-0.5-1.3-0.5-2.3c0-1,0.2-1.7,0.7-2.3c0.5-0.5,1-0.8,1.6-0.8
		s1.2,0.2,1.7,0.6c0.2-0.3,0.4-0.5,0.8-0.6c0.2,0.1,0.4,0.3,0.5,0.6c-0.2,0.2-0.3,0.6-0.3,1.2v3.6c0,1.2-0.2,2-0.6,2.5
		c-0.4,0.5-1.1,0.8-2,0.8c-0.7,0-1.4-0.1-2.1-0.4c0-0.4,0.1-0.7,0.3-0.9c0.5,0.3,1.1,0.4,1.6,0.4s1-0.2,1.2-0.5
		c0.2-0.3,0.3-0.7,0.3-1.3V8.2C66,8.7,65.5,8.9,64.8,8.9z M66.5,7.2V4.3c-0.4-0.4-0.8-0.6-1.2-0.6c-0.4,0-0.7,0.2-1,0.6
		S64,5.2,64,5.9c0,0.7,0.1,1.2,0.3,1.6s0.5,0.5,0.8,0.5C65.6,7.9,66.1,7.7,66.5,7.2z"/>
	<path fill="#A9D42D" d="M74.1,8.3c-0.1,0.3-0.2,0.5-0.5,0.6c-0.4-0.1-0.7-0.3-0.9-0.8C72.1,8.7,71.5,9,70.9,9
		c-0.6,0-1.1-0.2-1.4-0.5c-0.3-0.4-0.5-0.8-0.5-1.2c0-0.7,0.2-1.1,0.6-1.5s1-0.5,1.7-0.5c0.4,0,0.8,0,1.2,0.1V4.8
		c0-0.7-0.3-1.1-1-1.1c-0.5,0-1.2,0.2-1.9,0.5c-0.2-0.2-0.3-0.5-0.3-0.9C70.2,3,71,2.8,71.8,2.8c0.6,0,1.1,0.2,1.4,0.5
		c0.3,0.3,0.5,0.8,0.5,1.5v2.5C73.7,7.8,73.8,8.1,74.1,8.3z M71.1,8c0.5,0,1-0.3,1.5-0.8V6.1c-0.3,0-0.7-0.1-1.1-0.1
		c-0.4,0-0.7,0.1-0.9,0.3s-0.3,0.4-0.3,0.7s0.1,0.5,0.2,0.7C70.6,8,70.8,8,71.1,8z"/>
	<path fill="#A9D42D" d="M77,9.7c0-0.2,0.1-0.5,0.3-0.8c-0.7-0.1-1.2-0.4-1.5-1c-0.3-0.6-0.5-1.3-0.5-2.1c0-1,0.2-1.8,0.7-2.4
		C76.4,3,77,2.7,77.7,2.7c0.7,0,1.2,0.2,1.6,0.6c0.4,0.4,0.6,0.8,0.6,1.2c0,0.4-0.2,0.7-0.6,0.7c-0.2,0-0.3,0-0.5,0c0,0,0-0.1,0-0.1
		c0-0.9-0.4-1.4-1.1-1.4c-0.4,0-0.7,0.2-0.9,0.6c-0.2,0.4-0.3,0.9-0.3,1.7c0,1.4,0.5,2.1,1.4,2.1c0.4,0,0.9-0.2,1.5-0.6
		c0.1,0.1,0.2,0.2,0.3,0.3c0.1,0.1,0.2,0.3,0.2,0.4C79.3,8.6,78.7,8.9,78,9c-0.1,0.1-0.1,0.2-0.1,0.3c0.3,0,0.6,0.1,0.8,0.3
		S79,10,79,10.4s-0.1,0.6-0.4,0.8c-0.3,0.2-0.6,0.3-1,0.3c-0.4,0-0.7-0.1-1-0.2c0-0.2,0.1-0.4,0.2-0.6c0.2,0.1,0.4,0.2,0.6,0.2
		s0.3,0,0.4-0.1c0.1-0.1,0.1-0.2,0.1-0.3c0-0.1,0-0.3-0.1-0.3c-0.1-0.1-0.2-0.1-0.3-0.1c-0.1,0-0.2,0-0.3,0.1
		C77.1,9.9,77,9.8,77,9.7z"/>
	<path fill="#A9D42D" d="M85.8,8.3c-0.1,0.3-0.2,0.5-0.5,0.6c-0.4-0.1-0.7-0.3-0.9-0.8C83.8,8.7,83.3,9,82.7,9
		c-0.6,0-1.1-0.2-1.4-0.5c-0.3-0.4-0.5-0.8-0.5-1.2c0-0.7,0.2-1.1,0.6-1.5s1-0.5,1.7-0.5c0.4,0,0.8,0,1.2,0.1V4.8
		c0-0.7-0.3-1.1-1-1.1c-0.5,0-1.2,0.2-1.9,0.5C81.2,4,81.1,3.7,81,3.3c0.8-0.4,1.7-0.6,2.5-0.6c0.6,0,1.1,0.2,1.4,0.5
		c0.3,0.3,0.5,0.8,0.5,1.5v2.5C85.5,7.8,85.6,8.1,85.8,8.3z M83.4,2l-0.7-0.3c-0.2-0.1-0.3-0.1-0.4-0.1S82,1.6,81.8,1.8L81.7,2
		c-0.1,0-0.2,0-0.3-0.1c-0.1-0.1-0.2-0.2-0.2-0.3l0.1-0.2c0.1-0.3,0.3-0.5,0.5-0.6s0.4-0.2,0.6-0.2c0.2,0,0.5,0.1,0.7,0.2l0.7,0.3
		c0.1,0.1,0.3,0.1,0.4,0.1c0.1,0,0.3-0.1,0.5-0.3l0.1-0.2c0.1,0,0.2,0,0.3,0.1c0.1,0.1,0.2,0.2,0.2,0.3l-0.1,0.2
		c-0.1,0.3-0.3,0.5-0.5,0.6s-0.4,0.2-0.6,0.2C83.9,2.1,83.6,2.1,83.4,2z M82.8,8c0.5,0,1-0.3,1.5-0.8V6.1C84,6.1,83.6,6,83.2,6
		c-0.4,0-0.7,0.1-0.9,0.3S82,6.8,82,7.1s0.1,0.5,0.2,0.7C82.4,8,82.6,8,82.8,8z"/>
	<path fill="#A9D42D" d="M91.2,3.4c0.6,0.6,0.8,1.4,0.8,2.5s-0.3,1.9-0.8,2.5c-0.4,0.4-1,0.7-1.7,0.7s-1.3-0.2-1.7-0.7
		c-0.6-0.6-0.8-1.4-0.8-2.5s0.3-1.9,0.8-2.5c0.4-0.4,1-0.7,1.7-0.7S90.8,3,91.2,3.4z M88.1,5.9c0,1.5,0.5,2.2,1.4,2.2
		s1.4-0.7,1.4-2.2c0-0.4,0-0.8-0.1-1.1S90.5,4.2,90.3,4c-0.2-0.2-0.5-0.3-0.8-0.3S88.9,3.7,88.7,4c-0.2,0.2-0.4,0.5-0.4,0.8
		S88.1,5.5,88.1,5.9z"/>
	<path fill="#A9D42D" d="M98.1,7.9l1.5-5c0.1,0,0.3,0,0.5,0s0.4,0,0.6,0.1l0,0c-0.8,2.6-1.4,4.5-1.9,5.8c-0.2,0-0.5,0.1-0.8,0.1
		s-0.5,0-0.6-0.1S97.1,8.5,97,8.2L95.3,3c0.2-0.1,0.5-0.2,0.7-0.2c0.3,0,0.5,0.2,0.6,0.5L97.5,6c0.2,0.6,0.3,1.2,0.5,1.8
		C98,7.8,98,7.9,98.1,7.9z"/>
	<path fill="#A9D42D" d="M106,6.2h-3.6c0,0.6,0.1,1,0.4,1.3c0.2,0.3,0.6,0.5,1.1,0.5s1.1-0.2,1.7-0.5c0.2,0.2,0.3,0.4,0.4,0.8
		c-0.6,0.4-1.4,0.7-2.3,0.7c-0.9,0-1.5-0.3-1.9-0.9s-0.6-1.3-0.6-2.3s0.2-1.7,0.6-2.3c0.4-0.6,1-0.9,1.8-0.9c0.8,0,1.4,0.2,1.8,0.7
		c0.4,0.5,0.6,1.1,0.6,1.8C106.1,5.6,106.1,5.9,106,6.2z M104.6,4.1c-0.2-0.3-0.5-0.5-0.9-0.5s-0.7,0.2-0.9,0.5s-0.3,0.7-0.4,1.3
		h2.5V5.2C105,4.7,104.8,4.4,104.6,4.1z"/>
	<path fill="#A9D42D" d="M107.3,3.4c0.1-0.3,0.2-0.5,0.4-0.6c0.5,0.1,0.9,0.5,1,1.1c0.3-0.7,0.9-1.1,1.6-1.1c0.2,0,0.4,0,0.6,0.1
		c0,0.4-0.1,0.8-0.3,1.1c0,0-0.2,0-0.5,0c-0.6,0-1,0.3-1.3,0.9v3.9c-0.1,0-0.3,0-0.6,0s-0.4,0-0.6,0V4.7
		C107.8,4.1,107.6,3.7,107.3,3.4z"/>
	<path fill="#A9D42D" d="M115.1,2.9c0,0.1,0,0.3,0,0.4s0,0.3,0,0.4l-1.5,0v3.7c0,0.3,0.2,0.5,0.5,0.5h0.8c0.1,0.2,0.1,0.3,0.1,0.5
		s0,0.3,0,0.3c-0.5,0.1-0.9,0.1-1.3,0.1c-0.8,0-1.2-0.4-1.2-1.2V3.7l-0.9,0c0-0.1,0-0.3,0-0.4s0-0.3,0-0.4l0.9,0V1.8
		c0-0.3,0-0.5,0.1-0.6c0.1-0.1,0.3-0.2,0.5-0.2h0.4l0.1,0.1v1.8L115.1,2.9z"/>
	<path fill="#A9D42D" d="M117.9,3.9v4.9c-0.1,0-0.3,0-0.6,0c-0.2,0-0.4,0-0.6,0V4.4c0-0.2,0-0.4-0.1-0.5s-0.2-0.1-0.4-0.1h-0.1
		c0-0.1,0-0.3,0-0.4s0-0.3,0-0.4c0.3,0,0.5,0,0.7,0h0.2c0.3,0,0.5,0.1,0.7,0.3C117.8,3.3,117.9,3.6,117.9,3.9z M116.4,1.3
		c0-0.2,0-0.4,0.1-0.5c0.2-0.1,0.4-0.1,0.7-0.1c0.3,0,0.5,0,0.6,0.1c0.1,0.1,0.1,0.3,0.1,0.5s0,0.4-0.1,0.5
		c-0.1,0.1-0.3,0.1-0.6,0.1c-0.3,0-0.5,0-0.6-0.1C116.4,1.6,116.4,1.5,116.4,1.3z"/>
	<path fill="#A9D42D" d="M123,5.1c0,0,0-0.1,0-0.1c0-0.9-0.4-1.4-1.1-1.4c-0.4,0-0.7,0.2-0.9,0.6c-0.2,0.4-0.3,0.9-0.3,1.7
		c0,1.4,0.5,2.1,1.4,2.1c0.4,0,0.9-0.2,1.5-0.6c0.1,0.1,0.2,0.2,0.3,0.3c0.1,0.1,0.2,0.3,0.2,0.4c-0.6,0.6-1.3,0.9-2.1,0.9
		s-1.4-0.3-1.8-0.9c-0.4-0.6-0.6-1.4-0.6-2.3c0-1,0.2-1.7,0.7-2.2c0.5-0.5,1.1-0.8,1.8-0.8c0.7,0,1.2,0.2,1.6,0.6
		c0.4,0.4,0.6,0.8,0.6,1.2c0,0.4-0.2,0.7-0.6,0.7C123.3,5.2,123.1,5.2,123,5.1z"/>
	<path fill="#A9D42D" d="M130,8.3c-0.1,0.3-0.2,0.5-0.5,0.6c-0.4-0.1-0.7-0.3-0.9-0.8c-0.6,0.6-1.2,0.8-1.8,0.8
		c-0.6,0-1.1-0.2-1.4-0.5c-0.3-0.4-0.5-0.8-0.5-1.2c0-0.7,0.2-1.1,0.6-1.5s1-0.5,1.7-0.5c0.4,0,0.8,0,1.2,0.1V4.8
		c0-0.7-0.3-1.1-1-1.1c-0.5,0-1.2,0.2-1.9,0.5c-0.2-0.2-0.3-0.5-0.3-0.9c0.8-0.4,1.7-0.6,2.5-0.6c0.6,0,1.1,0.2,1.4,0.5
		c0.3,0.3,0.5,0.8,0.5,1.5v2.5C129.7,7.8,129.8,8.1,130,8.3z M127.1,8c0.5,0,1-0.3,1.5-0.8V6.1c-0.3,0-0.7-0.1-1.1-0.1
		c-0.4,0-0.7,0.1-0.9,0.3s-0.3,0.4-0.3,0.7s0.1,0.5,0.2,0.7C126.6,8,126.8,8,127.1,8z"/>
	<path fill="#A9D42D" d="M133.1,7.9h0.5c0.1,0.2,0.1,0.3,0.1,0.5s0,0.3,0,0.4c-0.3,0.1-0.7,0.1-1,0.1c-0.8,0-1.1-0.4-1.1-1.2V0.1
		l0.1-0.1h0.4c0.2,0,0.4,0.1,0.5,0.2c0.1,0.1,0.1,0.3,0.1,0.6v6.7C132.7,7.8,132.8,7.9,133.1,7.9z"/>
	<path fill="#FFFFFF" d="M4.6,21.4v-2.8c0-0.5-0.1-0.8-0.2-1.1c0.2-0.2,0.4-0.2,0.7-0.2c0.3,0,0.4,0.1,0.5,0.2
		c0.1,0.1,0.1,0.3,0.1,0.6v3.1c0,0.4,0.1,0.7,0.2,0.9c0.1,0.2,0.3,0.3,0.6,0.3c0.3,0,0.6-0.1,0.8-0.2c0.3-0.1,0.5-0.3,0.8-0.6v-4.2
		c0.2,0,0.4,0,0.6,0s0.4,0,0.6,0v4.2c0,0.6,0.1,1,0.3,1.2c-0.1,0.3-0.2,0.5-0.4,0.6c-0.5-0.1-0.8-0.4-0.9-0.9
		c-0.6,0.6-1.3,0.9-2,0.9c-0.5,0-0.9-0.2-1.2-0.5S4.6,22,4.6,21.4z"/>
	<path fill="#FFFFFF" d="M14.1,17.3c0,0.1,0,0.3,0,0.4s0,0.3,0,0.4l-1.5,0v3.7c0,0.3,0.2,0.5,0.5,0.5h0.8c0.1,0.2,0.1,0.3,0.1,0.5
		s0,0.3,0,0.3c-0.5,0.1-0.9,0.1-1.3,0.1c-0.8,0-1.2-0.4-1.2-1.2v-3.9l-0.9,0c0-0.1,0-0.3,0-0.4s0-0.3,0-0.4l0.9,0v-1.1
		c0-0.3,0-0.5,0.1-0.6c0.1-0.1,0.3-0.2,0.5-0.2h0.4l0.1,0.1v1.8L14.1,17.3z"/>
	<path fill="#FFFFFF" d="M16.8,18.3v4.9c-0.1,0-0.3,0-0.6,0c-0.2,0-0.4,0-0.6,0v-4.5c0-0.2,0-0.4-0.1-0.5s-0.2-0.1-0.4-0.1H15
		c0-0.1,0-0.3,0-0.4c0-0.2,0-0.3,0-0.4c0.3,0,0.5,0,0.7,0h0.2c0.3,0,0.5,0.1,0.7,0.3C16.8,17.7,16.8,18,16.8,18.3z M15.3,15.7
		c0-0.2,0-0.4,0.1-0.5c0.2-0.1,0.4-0.1,0.7-0.1c0.3,0,0.5,0,0.6,0.1c0.1,0.1,0.1,0.3,0.1,0.5c0,0.2,0,0.4-0.1,0.5
		c-0.1,0.1-0.3,0.1-0.6,0.1c-0.3,0-0.5,0-0.6-0.1C15.4,16,15.3,15.9,15.3,15.7z"/>
	<path fill="#FFFFFF" d="M20.3,22.3h0.5c0.1,0.2,0.1,0.3,0.1,0.5c0,0.1,0,0.3,0,0.4c-0.3,0.1-0.7,0.1-1,0.1c-0.8,0-1.1-0.4-1.1-1.2
		v-7.6l0.1-0.1h0.4c0.2,0,0.4,0.1,0.5,0.2c0.1,0.1,0.1,0.3,0.1,0.6v6.7C19.9,22.2,20,22.3,20.3,22.3z"/>
	<path fill="#FFFFFF" d="M23.6,18.3v4.9c-0.1,0-0.3,0-0.6,0c-0.2,0-0.4,0-0.6,0v-4.5c0-0.2,0-0.4-0.1-0.5s-0.2-0.1-0.4-0.1h-0.1
		c0-0.1,0-0.3,0-0.4c0-0.2,0-0.3,0-0.4c0.3,0,0.5,0,0.7,0h0.2c0.3,0,0.5,0.1,0.7,0.3C23.5,17.7,23.6,18,23.6,18.3z M22,15.7
		c0-0.2,0-0.4,0.1-0.5c0.2-0.1,0.4-0.1,0.7-0.1c0.3,0,0.5,0,0.6,0.1c0.1,0.1,0.1,0.3,0.1,0.5c0,0.2,0,0.4-0.1,0.5
		c-0.1,0.1-0.3,0.1-0.6,0.1c-0.3,0-0.5,0-0.6-0.1C22.1,16,22,15.9,22,15.7z"/>
	<path fill="#FFFFFF" d="M25.1,22.1l2-2.8c0.3-0.4,0.6-0.8,0.9-1.2l0,0c-0.4,0-1,0.1-1.6,0.1h-1.3c0-0.1,0-0.3,0-0.4
		c0-0.1,0-0.3,0.1-0.5h4c0.1,0.3,0.2,0.6,0.2,0.7c0,0.1-0.1,0.3-0.2,0.4l-2,2.7c0,0.1-0.4,0.5-0.9,1.2l0,0c0.4,0,0.7,0,1.1,0H28
		c0.6,0,1.1-0.1,1.3-0.2c0.1,0.2,0.1,0.3,0.1,0.5c0,0.4-0.3,0.6-0.8,0.6h-3.6c-0.1-0.3-0.2-0.6-0.2-0.7C24.9,22.4,25,22.3,25.1,22.1
		z"/>
	<path fill="#FFFFFF" d="M35.2,20.6h-3.6c0,0.6,0.1,1,0.4,1.3s0.6,0.5,1.1,0.5s1.1-0.2,1.7-0.5c0.2,0.2,0.3,0.4,0.4,0.8
		c-0.6,0.4-1.4,0.7-2.3,0.7c-0.9,0-1.5-0.3-1.9-0.9s-0.6-1.3-0.6-2.3s0.2-1.7,0.6-2.3c0.4-0.6,1-0.9,1.8-0.9c0.8,0,1.4,0.2,1.8,0.7
		c0.4,0.5,0.6,1.1,0.6,1.8C35.3,20,35.2,20.3,35.2,20.6z M33.8,18.5c-0.2-0.3-0.5-0.4-0.9-0.4s-0.7,0.2-0.9,0.5
		c-0.2,0.3-0.3,0.7-0.4,1.3h2.5v-0.2C34.1,19.1,34,18.8,33.8,18.5z"/>
	<path fill="#FFFFFF" d="M44,22.7c-0.1,0.3-0.2,0.5-0.5,0.6c-0.4-0.1-0.7-0.3-0.9-0.8c-0.6,0.6-1.2,0.8-1.8,0.8
		c-0.6,0-1.1-0.2-1.4-0.5S39,22.1,39,21.6c0-0.7,0.2-1.2,0.6-1.5s1-0.5,1.7-0.5c0.4,0,0.8,0,1.2,0.1v-0.5c0-0.7-0.3-1.1-1-1.1
		c-0.5,0-1.2,0.2-1.9,0.5c-0.2-0.2-0.3-0.5-0.3-0.9c0.8-0.4,1.7-0.6,2.5-0.6c0.6,0,1.1,0.2,1.4,0.5c0.3,0.3,0.5,0.8,0.5,1.5v2.5
		C43.7,22.2,43.8,22.5,44,22.7z M41,22.4c0.5,0,1-0.3,1.5-0.8v-1.2c-0.3,0-0.7-0.1-1.1-0.1c-0.4,0-0.7,0.1-0.9,0.3
		c-0.2,0.2-0.3,0.4-0.3,0.7c0,0.3,0.1,0.5,0.2,0.7C40.6,22.4,40.8,22.4,41,22.4z"/>
	<path fill="#FFFFFF" d="M51,17.2c0.6,0,1.1,0.3,1.5,0.8c0.4,0.5,0.5,1.3,0.5,2.2c0,1-0.3,1.7-0.8,2.2c-0.5,0.5-1.1,0.8-1.9,0.8
		s-1.5-0.1-2.2-0.4v-8.4l0.1-0.1h0.4c0.2,0,0.4,0.1,0.5,0.2c0.1,0.1,0.1,0.3,0.1,0.6v2.7C49.8,17.4,50.4,17.2,51,17.2z M50.7,18.2
		c-0.5,0-1,0.2-1.4,0.7v3.4c0.3,0.1,0.7,0.2,1.1,0.2s0.8-0.2,1-0.6c0.3-0.4,0.4-0.9,0.4-1.6c0-0.7-0.1-1.2-0.3-1.6
		S51,18.2,50.7,18.2z"/>
	<path fill="#FFFFFF" d="M59,22.7c-0.1,0.3-0.2,0.5-0.5,0.6c-0.4-0.1-0.7-0.3-0.9-0.8c-0.6,0.6-1.2,0.8-1.8,0.8
		c-0.6,0-1.1-0.2-1.4-0.5s-0.5-0.8-0.5-1.2c0-0.7,0.2-1.2,0.6-1.5s1-0.5,1.7-0.5c0.4,0,0.8,0,1.2,0.1v-0.5c0-0.7-0.3-1.1-1-1.1
		c-0.5,0-1.2,0.2-1.9,0.5c-0.2-0.2-0.3-0.5-0.3-0.9c0.8-0.4,1.7-0.6,2.5-0.6c0.6,0,1.1,0.2,1.4,0.5c0.3,0.3,0.5,0.8,0.5,1.5v2.5
		C58.7,22.2,58.8,22.5,59,22.7z M56.1,22.4c0.5,0,1-0.3,1.5-0.8v-1.2c-0.3,0-0.7-0.1-1.1-0.1c-0.4,0-0.7,0.1-0.9,0.3
		c-0.2,0.2-0.3,0.4-0.3,0.7c0,0.3,0.1,0.5,0.2,0.7C55.6,22.4,55.8,22.4,56.1,22.4z"/>
	<path fill="#FFFFFF" d="M60.3,17.8c0.1-0.3,0.2-0.5,0.4-0.6c0.5,0.1,0.9,0.5,1,1.1c0.3-0.7,0.9-1.1,1.6-1.1c0.2,0,0.4,0,0.6,0.1
		c0,0.4-0.1,0.8-0.3,1.1c0,0-0.2,0-0.5,0c-0.6,0-1,0.3-1.3,0.9v3.9c-0.1,0-0.3,0-0.6,0s-0.4,0-0.6,0v-4.2
		C60.7,18.5,60.5,18.1,60.3,17.8z"/>
	<path fill="#FFFFFF" d="M64.6,17.8c0.1-0.3,0.2-0.5,0.4-0.6c0.5,0.1,0.9,0.5,1,1.1c0.3-0.7,0.9-1.1,1.6-1.1c0.2,0,0.4,0,0.6,0.1
		c0,0.4-0.1,0.8-0.3,1.1c0,0-0.2,0-0.5,0c-0.6,0-1,0.3-1.3,0.9v3.9c-0.1,0-0.3,0-0.6,0s-0.4,0-0.6,0v-4.2
		C65.1,18.5,64.9,18.1,64.6,17.8z"/>
	<path fill="#FFFFFF" d="M73.8,22.7c-0.1,0.3-0.2,0.5-0.5,0.6c-0.4-0.1-0.7-0.3-0.9-0.8c-0.6,0.6-1.2,0.8-1.8,0.8
		c-0.6,0-1.1-0.2-1.4-0.5s-0.5-0.8-0.5-1.2c0-0.7,0.2-1.2,0.6-1.5s1-0.5,1.7-0.5c0.4,0,0.8,0,1.2,0.1v-0.5c0-0.7-0.3-1.1-1-1.1
		c-0.5,0-1.2,0.2-1.9,0.5c-0.2-0.2-0.3-0.5-0.3-0.9c0.8-0.4,1.7-0.6,2.5-0.6c0.6,0,1.1,0.2,1.4,0.5c0.3,0.3,0.5,0.8,0.5,1.5v2.5
		C73.5,22.2,73.6,22.5,73.8,22.7z M70.8,22.4c0.5,0,1-0.3,1.5-0.8v-1.2c-0.3,0-0.7-0.1-1.1-0.1c-0.4,0-0.7,0.1-0.9,0.3
		c-0.2,0.2-0.3,0.4-0.3,0.7c0,0.3,0.1,0.5,0.2,0.7C70.4,22.4,70.6,22.4,70.8,22.4z"/>
	<path fill="#FFFFFF" d="M79.6,23.4c-0.7,0-1.2-0.3-1.5-0.8c-0.4-0.6-0.5-1.3-0.5-2.3s0.2-1.7,0.7-2.3c0.5-0.5,1-0.8,1.6-0.8
		c0.4,0,0.9,0.1,1.4,0.4v-3.1l0.1-0.1h0.4c0.2,0,0.4,0.1,0.5,0.2c0.1,0.1,0.1,0.3,0.1,0.6v6.4c0,0.6,0.1,1,0.3,1.2
		c-0.1,0.3-0.2,0.5-0.5,0.6c-0.4-0.1-0.7-0.3-0.9-0.8C80.9,23.1,80.3,23.4,79.6,23.4z M79.9,22.4c0.5,0,1-0.3,1.4-0.8v-3
		c-0.4-0.3-0.9-0.5-1.2-0.5s-0.7,0.2-0.9,0.6s-0.4,0.9-0.4,1.6c0,0.7,0.1,1.2,0.3,1.6S79.5,22.4,79.9,22.4z"/>
	<path fill="#FFFFFF" d="M88.7,20.6h-3.6c0,0.6,0.1,1,0.4,1.3s0.6,0.5,1.1,0.5s1.1-0.2,1.7-0.5c0.2,0.2,0.3,0.4,0.4,0.8
		c-0.6,0.4-1.4,0.7-2.3,0.7c-0.9,0-1.5-0.3-1.9-0.9s-0.6-1.3-0.6-2.3s0.2-1.7,0.6-2.3c0.4-0.6,1-0.9,1.8-0.9c0.8,0,1.4,0.2,1.8,0.7
		c0.4,0.5,0.6,1.1,0.6,1.8C88.8,20,88.7,20.3,88.7,20.6z M87.3,18.5c-0.2-0.3-0.5-0.4-0.9-0.4s-0.7,0.2-0.9,0.5
		c-0.2,0.3-0.3,0.7-0.4,1.3h2.5v-0.2C87.6,19.1,87.5,18.8,87.3,18.5z"/>
	<path fill="#FFFFFF" d="M92.6,17.8c0.1-0.3,0.2-0.5,0.4-0.6c0.5,0.1,0.9,0.5,1,1.1c0.3-0.7,0.9-1.1,1.6-1.1c0.2,0,0.4,0,0.6,0.1
		c0,0.4-0.1,0.8-0.3,1.1c0,0-0.2,0-0.5,0c-0.6,0-1,0.3-1.3,0.9v3.9c-0.1,0-0.3,0-0.6,0s-0.4,0-0.6,0v-4.2
		C93.1,18.5,92.9,18.1,92.6,17.8z"/>
	<path fill="#FFFFFF" d="M101.2,17.8c0.6,0.6,0.8,1.4,0.8,2.5s-0.3,1.9-0.8,2.5c-0.4,0.4-1,0.7-1.7,0.7s-1.3-0.2-1.7-0.7
		c-0.6-0.6-0.8-1.4-0.8-2.5s0.3-1.9,0.8-2.5c0.4-0.4,1-0.7,1.7-0.7S100.8,17.4,101.2,17.8z M98.1,20.3c0,1.5,0.5,2.2,1.4,2.2
		s1.4-0.7,1.4-2.2c0-0.4,0-0.8-0.1-1.1c-0.1-0.3-0.2-0.6-0.4-0.8c-0.2-0.2-0.5-0.3-0.8-0.3s-0.6,0.1-0.8,0.3s-0.4,0.5-0.4,0.8
		C98.2,19.5,98.1,19.9,98.1,20.3z"/>
	<path fill="#FFFFFF" d="M105.2,22.3h0.5c0.1,0.2,0.1,0.3,0.1,0.5c0,0.1,0,0.3,0,0.4c-0.3,0.1-0.7,0.1-1,0.1c-0.8,0-1.1-0.4-1.1-1.2
		v-7.6l0.1-0.1h0.4c0.2,0,0.4,0.1,0.5,0.2c0.1,0.1,0.1,0.3,0.1,0.6v6.7C104.7,22.2,104.9,22.3,105.2,22.3z"/>
	<path fill="#FFFFFF" d="M111.6,22.7c-0.1,0.3-0.2,0.5-0.5,0.6c-0.4-0.1-0.7-0.3-0.9-0.8c-0.6,0.6-1.2,0.8-1.8,0.8
		c-0.6,0-1.1-0.2-1.4-0.5s-0.5-0.8-0.5-1.2c0-0.7,0.2-1.2,0.6-1.5s1-0.5,1.7-0.5c0.4,0,0.8,0,1.2,0.1v-0.5c0-0.7-0.3-1.1-1-1.1
		c-0.5,0-1.2,0.2-1.9,0.5c-0.2-0.2-0.3-0.5-0.3-0.9c0.8-0.4,1.7-0.6,2.5-0.6c0.6,0,1.1,0.2,1.4,0.5c0.3,0.3,0.5,0.8,0.5,1.5v2.5
		C111.3,22.2,111.4,22.5,111.6,22.7z M108.7,22.4c0.5,0,1-0.3,1.5-0.8v-1.2c-0.3,0-0.7-0.1-1.1-0.1c-0.4,0-0.7,0.1-0.9,0.3
		c-0.2,0.2-0.3,0.4-0.3,0.7c0,0.3,0.1,0.5,0.2,0.7C108.2,22.4,108.4,22.4,108.7,22.4z"/>
	<path fill="#FFFFFF" d="M114.8,23.3c-0.6,0-1.1-0.3-1.5-0.8c-0.4-0.5-0.5-1.3-0.5-2.3c0-1,0.2-1.7,0.7-2.3c0.5-0.5,1-0.8,1.6-0.8
		s1.2,0.2,1.7,0.6c0.2-0.3,0.4-0.5,0.8-0.6c0.2,0.1,0.4,0.3,0.5,0.6c-0.2,0.2-0.3,0.6-0.3,1.2v3.6c0,1.2-0.2,2-0.6,2.5
		c-0.4,0.5-1.1,0.8-2,0.8c-0.7,0-1.4-0.1-2.1-0.4c0-0.4,0.1-0.7,0.3-0.9c0.5,0.3,1.1,0.4,1.6,0.4s1-0.2,1.2-0.5
		c0.2-0.3,0.3-0.7,0.3-1.3v-0.6C116,23.1,115.4,23.3,114.8,23.3z M116.4,21.6v-2.9c-0.4-0.4-0.8-0.6-1.2-0.6c-0.4,0-0.7,0.2-1,0.6
		c-0.2,0.4-0.4,0.9-0.4,1.6c0,0.7,0.1,1.2,0.3,1.6s0.5,0.5,0.8,0.5C115.6,22.3,116,22.1,116.4,21.6z"/>
	<path fill="#FFFFFF" d="M123.8,20.6h-3.6c0,0.6,0.1,1,0.4,1.3s0.6,0.5,1.1,0.5s1.1-0.2,1.7-0.5c0.2,0.2,0.3,0.4,0.4,0.8
		c-0.6,0.4-1.4,0.7-2.3,0.7c-0.9,0-1.5-0.3-1.9-0.9s-0.6-1.3-0.6-2.3s0.2-1.7,0.6-2.3c0.4-0.6,1-0.9,1.8-0.9c0.8,0,1.4,0.2,1.8,0.7
		c0.4,0.5,0.6,1.1,0.6,1.8C123.9,20,123.9,20.3,123.8,20.6z M122.5,18.5c-0.2-0.3-0.5-0.4-0.9-0.4s-0.7,0.2-0.9,0.5
		c-0.2,0.3-0.3,0.7-0.4,1.3h2.5v-0.2C122.8,19.1,122.7,18.8,122.5,18.5z"/>
	<path fill="#FFFFFF" d="M128.7,19.4c0-0.4-0.1-0.7-0.2-0.9s-0.3-0.3-0.6-0.3c-0.5,0-0.9,0.3-1.4,0.8v4.2c-0.1,0-0.3,0-0.6,0
		s-0.4,0-0.6,0v-5.9l0.1-0.1h0.4c0.4,0,0.6,0.3,0.6,0.8c0.5-0.5,1.1-0.8,1.7-0.8s1.1,0.3,1.3,0.9c0.6-0.6,1.3-0.9,1.9-0.9
		c0.5,0,0.9,0.2,1.1,0.5c0.3,0.4,0.4,0.8,0.4,1.3V22c0,0.5,0.1,0.8,0.2,1.1c-0.2,0.2-0.4,0.3-0.7,0.3c-0.4,0-0.6-0.2-0.6-0.7v-3.1
		c0-0.4-0.1-0.7-0.2-0.9c-0.1-0.2-0.3-0.3-0.6-0.3c-0.5,0-0.9,0.3-1.4,0.8v4.2c-0.1,0-0.3,0-0.6,0s-0.4,0-0.6,0V19.4z"/>
	<path fill="#FFFFFF" d="M2.8,31.5c0.7,0,1.2,0.3,1.5,0.8c0.4,0.6,0.5,1.3,0.5,2.3c0,1-0.2,1.7-0.7,2.3c-0.5,0.5-1,0.8-1.6,0.8
		c-0.5,0-1-0.1-1.4-0.4v2.1c0,0.3,0,0.5-0.1,0.6s-0.3,0.2-0.5,0.2H0.1L0,40.1v-8.4l0.1-0.1h0.4c0.4,0,0.6,0.2,0.7,0.6
		C1.6,31.8,2.2,31.5,2.8,31.5z M2.5,32.5c-0.6,0-1,0.3-1.4,0.8v3c0.4,0.3,0.9,0.5,1.2,0.5s0.7-0.2,0.9-0.6c0.2-0.4,0.4-0.9,0.4-1.6
		c0-0.7-0.1-1.2-0.3-1.6S2.9,32.5,2.5,32.5z"/>
	<path fill="#FFFFFF" d="M10.9,37.1c-0.1,0.3-0.2,0.5-0.5,0.6c-0.4-0.1-0.7-0.3-0.9-0.8c-0.6,0.6-1.2,0.8-1.8,0.8
		c-0.6,0-1.1-0.2-1.4-0.5S5.9,36.5,5.9,36c0-0.7,0.2-1.2,0.6-1.5s1-0.5,1.7-0.5c0.4,0,0.8,0,1.2,0.1v-0.5c0-0.7-0.3-1.1-1-1.1
		c-0.5,0-1.2,0.2-1.9,0.5c-0.2-0.2-0.3-0.5-0.3-0.9c0.8-0.4,1.7-0.6,2.5-0.6c0.6,0,1.1,0.2,1.4,0.5c0.3,0.3,0.5,0.8,0.5,1.5V36
		C10.5,36.6,10.7,36.9,10.9,37.1z M7.9,36.8c0.5,0,1-0.3,1.5-0.8v-1.2c-0.3,0-0.7-0.1-1.1-0.1c-0.4,0-0.7,0.1-0.9,0.3
		c-0.2,0.2-0.3,0.4-0.3,0.7c0,0.3,0.1,0.5,0.2,0.7C7.5,36.8,7.7,36.8,7.9,36.8z"/>
	<path fill="#FFFFFF" d="M12.1,32.2c0.1-0.3,0.2-0.5,0.4-0.6c0.5,0.1,0.9,0.5,1,1.1c0.3-0.7,0.9-1.1,1.6-1.1c0.2,0,0.4,0,0.6,0.1
		c0,0.4-0.1,0.8-0.3,1.1c0,0-0.2,0-0.5,0c-0.6,0-1,0.3-1.3,0.9v3.9c-0.1,0-0.3,0-0.6,0s-0.4,0-0.6,0v-4.2
		C12.5,32.9,12.4,32.5,12.1,32.2z"/>
	<path fill="#FFFFFF" d="M21.3,37.1c-0.1,0.3-0.2,0.5-0.5,0.6c-0.4-0.1-0.7-0.3-0.9-0.8c-0.6,0.6-1.2,0.8-1.8,0.8
		c-0.6,0-1.1-0.2-1.4-0.5s-0.5-0.8-0.5-1.2c0-0.7,0.2-1.2,0.6-1.5s1-0.5,1.7-0.5c0.4,0,0.8,0,1.2,0.1v-0.5c0-0.7-0.3-1.1-1-1.1
		c-0.5,0-1.2,0.2-1.9,0.5c-0.2-0.2-0.3-0.5-0.3-0.9c0.8-0.4,1.7-0.6,2.5-0.6c0.6,0,1.1,0.2,1.4,0.5c0.3,0.3,0.5,0.8,0.5,1.5V36
		C20.9,36.6,21,36.9,21.3,37.1z M18.3,36.8c0.5,0,1-0.3,1.5-0.8v-1.2c-0.3,0-0.7-0.1-1.1-0.1c-0.4,0-0.7,0.1-0.9,0.3
		c-0.2,0.2-0.3,0.4-0.3,0.7c0,0.3,0.1,0.5,0.2,0.7C17.8,36.8,18,36.8,18.3,36.8z"/>
	<path fill="#FFFFFF" d="M26.7,32.7v4.9c-0.1,0-0.3,0-0.6,0c-0.2,0-0.4,0-0.6,0v-4.5c0-0.2,0-0.4-0.1-0.5s-0.2-0.1-0.4-0.1h-0.1
		c0-0.1,0-0.3,0-0.4c0-0.2,0-0.3,0-0.4c0.3,0,0.5,0,0.7,0h0.2c0.3,0,0.5,0.1,0.7,0.3C26.7,32.1,26.7,32.4,26.7,32.7z M25.2,30.1
		c0-0.2,0-0.4,0.1-0.5c0.2-0.1,0.4-0.1,0.7-0.1c0.3,0,0.5,0,0.6,0.1c0.1,0.1,0.1,0.3,0.1,0.5c0,0.2,0,0.4-0.1,0.5
		c-0.1,0.1-0.3,0.1-0.6,0.1c-0.3,0-0.5,0-0.6-0.1C25.2,30.4,25.2,30.3,25.2,30.1z"/>
	<path fill="#FFFFFF" d="M33.3,33.5v2.8c0,0.5,0.1,0.8,0.2,1.1c-0.2,0.2-0.4,0.3-0.7,0.3c-0.4,0-0.6-0.2-0.6-0.7v-3.1
		c0-0.4-0.1-0.7-0.2-0.9c-0.1-0.2-0.3-0.3-0.6-0.3c-0.3,0-0.6,0.1-0.9,0.2s-0.5,0.3-0.8,0.6v4.2c-0.1,0-0.3,0-0.6,0s-0.4,0-0.6,0
		v-5.9l0.1-0.1h0.4c0.4,0,0.6,0.3,0.6,0.8c0.6-0.5,1.2-0.8,1.9-0.8c0.5,0,0.9,0.2,1.2,0.5C33.2,32.5,33.3,33,33.3,33.5z"/>
	<path fill="#FFFFFF" d="M36.5,32.7v4.9c-0.1,0-0.3,0-0.6,0c-0.2,0-0.4,0-0.6,0v-4.5c0-0.2,0-0.4-0.1-0.5s-0.2-0.1-0.4-0.1h-0.1
		c0-0.1,0-0.3,0-0.4c0-0.2,0-0.3,0-0.4c0.3,0,0.5,0,0.7,0h0.2c0.3,0,0.5,0.1,0.7,0.3C36.4,32.1,36.5,32.4,36.5,32.7z M35,30.1
		c0-0.2,0-0.4,0.1-0.5c0.2-0.1,0.4-0.1,0.7-0.1c0.3,0,0.5,0,0.6,0.1c0.1,0.1,0.1,0.3,0.1,0.5c0,0.2,0,0.4-0.1,0.5
		c-0.1,0.1-0.3,0.1-0.6,0.1c-0.3,0-0.5,0-0.6-0.1C35,30.4,35,30.3,35,30.1z"/>
	<path fill="#FFFFFF" d="M41.6,33.9c0,0,0-0.1,0-0.1c0-0.9-0.4-1.4-1.1-1.4c-0.4,0-0.7,0.2-0.9,0.6s-0.3,0.9-0.3,1.7
		c0,1.4,0.5,2.1,1.4,2.1c0.4,0,0.9-0.2,1.5-0.6c0.1,0.1,0.2,0.2,0.3,0.3c0.1,0.1,0.2,0.3,0.2,0.4c-0.6,0.6-1.3,0.9-2.1,0.9
		s-1.4-0.3-1.8-0.9c-0.4-0.6-0.6-1.4-0.6-2.3c0-1,0.2-1.7,0.7-2.2c0.5-0.5,1.1-0.8,1.8-0.8c0.7,0,1.2,0.2,1.6,0.6
		c0.4,0.4,0.6,0.8,0.6,1.2c0,0.4-0.2,0.7-0.6,0.7C41.9,34,41.7,34,41.6,33.9z"/>
	<path fill="#FFFFFF" d="M45.5,32.7v4.9c-0.1,0-0.3,0-0.6,0c-0.2,0-0.4,0-0.6,0v-4.5c0-0.2,0-0.4-0.1-0.5s-0.2-0.1-0.4-0.1h-0.1
		c0-0.1,0-0.3,0-0.4c0-0.2,0-0.3,0-0.4c0.3,0,0.5,0,0.7,0h0.2c0.3,0,0.5,0.1,0.7,0.3C45.4,32.1,45.5,32.4,45.5,32.7z M44,30.1
		c0-0.2,0-0.4,0.1-0.5c0.2-0.1,0.4-0.1,0.7-0.1c0.3,0,0.5,0,0.6,0.1c0.1,0.1,0.1,0.3,0.1,0.5c0,0.2,0,0.4-0.1,0.5
		c-0.1,0.1-0.3,0.1-0.6,0.1c-0.3,0-0.5,0-0.6-0.1C44,30.4,44,30.3,44,30.1z"/>
	<path fill="#FFFFFF" d="M51.9,37.1c-0.1,0.3-0.2,0.5-0.5,0.6c-0.4-0.1-0.7-0.3-0.9-0.8c-0.6,0.6-1.2,0.8-1.8,0.8
		c-0.6,0-1.1-0.2-1.4-0.5S47,36.5,47,36c0-0.7,0.2-1.2,0.6-1.5s1-0.5,1.7-0.5c0.4,0,0.8,0,1.2,0.1v-0.5c0-0.7-0.3-1.1-1-1.1
		c-0.5,0-1.2,0.2-1.9,0.5c-0.2-0.2-0.3-0.5-0.3-0.9c0.8-0.4,1.7-0.6,2.5-0.6c0.6,0,1.1,0.2,1.4,0.5c0.3,0.3,0.5,0.8,0.5,1.5V36
		C51.6,36.6,51.7,36.9,51.9,37.1z M49,36.8c0.5,0,1-0.3,1.5-0.8v-1.2c-0.3,0-0.7-0.1-1.1-0.1c-0.4,0-0.7,0.1-0.9,0.3
		c-0.2,0.2-0.3,0.4-0.3,0.7c0,0.3,0.1,0.5,0.2,0.7C48.5,36.8,48.7,36.8,49,36.8z"/>
	<path fill="#FFFFFF" d="M53.1,32.2c0.1-0.3,0.2-0.5,0.4-0.6c0.5,0.1,0.9,0.5,1,1.1c0.3-0.7,0.9-1.1,1.6-1.1c0.2,0,0.4,0,0.6,0.1
		c0,0.4-0.1,0.8-0.3,1.1c0,0-0.2,0-0.5,0c-0.6,0-1,0.3-1.3,0.9v3.9c-0.1,0-0.3,0-0.6,0s-0.4,0-0.6,0v-4.2
		C53.6,32.9,53.4,32.5,53.1,32.2z"/>
	<path fill="#FFFFFF" d="M65,37.1c-0.1,0.3-0.2,0.5-0.5,0.6c-0.4-0.1-0.7-0.3-0.9-0.8c-0.6,0.6-1.2,0.8-1.8,0.8
		c-0.6,0-1.1-0.2-1.4-0.5s-0.5-0.8-0.5-1.2c0-0.7,0.2-1.2,0.6-1.5s1-0.5,1.7-0.5c0.4,0,0.8,0,1.2,0.1v-0.5c0-0.7-0.3-1.1-1-1.1
		c-0.5,0-1.2,0.2-1.9,0.5c-0.2-0.2-0.3-0.5-0.3-0.9c0.8-0.4,1.7-0.6,2.5-0.6c0.6,0,1.1,0.2,1.4,0.5c0.3,0.3,0.5,0.8,0.5,1.5V36
		C64.7,36.6,64.8,36.9,65,37.1z M62.1,36.8c0.5,0,1-0.3,1.5-0.8v-1.2c-0.3,0-0.7-0.1-1.1-0.1c-0.4,0-0.7,0.1-0.9,0.3
		c-0.2,0.2-0.3,0.4-0.3,0.7c0,0.3,0.1,0.5,0.2,0.7C61.6,36.8,61.8,36.8,62.1,36.8z"/>
	<path fill="#FFFFFF" d="M71.1,36.7l1.5-5c0.1,0,0.3,0,0.5,0s0.4,0,0.6,0.1l0,0c-0.8,2.6-1.4,4.5-1.9,5.8c-0.2,0-0.5,0.1-0.8,0.1
		s-0.5,0-0.6-0.1S70.1,37.3,70,37l-1.7-5.2c0.2-0.1,0.5-0.2,0.7-0.2c0.3,0,0.5,0.2,0.6,0.5l0.8,2.7c0.2,0.6,0.3,1.2,0.5,1.8
		C71,36.6,71,36.7,71.1,36.7z"/>
	<path fill="#FFFFFF" d="M76,32.7v4.9c-0.1,0-0.3,0-0.6,0c-0.2,0-0.4,0-0.6,0v-4.5c0-0.2,0-0.4-0.1-0.5s-0.2-0.1-0.4-0.1h-0.1
		c0-0.1,0-0.3,0-0.4c0-0.2,0-0.3,0-0.4c0.3,0,0.5,0,0.7,0h0.2c0.3,0,0.5,0.1,0.7,0.3C75.9,32.1,76,32.4,76,32.7z M74.5,30.1
		c0-0.2,0-0.4,0.1-0.5c0.2-0.1,0.4-0.1,0.7-0.1c0.3,0,0.5,0,0.6,0.1c0.1,0.1,0.1,0.3,0.1,0.5c0,0.2,0,0.4-0.1,0.5
		c-0.1,0.1-0.3,0.1-0.6,0.1c-0.3,0-0.5,0-0.6-0.1C74.5,30.4,74.5,30.3,74.5,30.1z"/>
	<path fill="#FFFFFF" d="M77.4,37.2c0-0.1,0-0.3,0.1-0.4s0.2-0.3,0.3-0.4c0.7,0.4,1.2,0.5,1.6,0.5c0.4,0,0.7-0.1,0.9-0.2
		c0.2-0.1,0.3-0.3,0.3-0.6c0-0.4-0.3-0.7-0.8-0.9L79.1,35c-1-0.4-1.5-0.9-1.5-1.7c0-0.5,0.2-1,0.6-1.3c0.4-0.3,0.9-0.5,1.6-0.5
		s1.3,0.1,1.9,0.4c0,0.2,0,0.3-0.1,0.5s-0.2,0.3-0.3,0.4c-0.6-0.3-1.1-0.4-1.6-0.4c-0.3,0-0.5,0.1-0.7,0.2c-0.2,0.1-0.3,0.3-0.3,0.5
		c0,0.2,0.1,0.4,0.2,0.5c0.1,0.1,0.3,0.2,0.6,0.3l0.7,0.3c1,0.4,1.5,1,1.5,1.8c0,0.5-0.2,1-0.6,1.3c-0.4,0.3-1,0.5-1.7,0.5
		S78,37.6,77.4,37.2z"/>
	<path fill="#FFFFFF" d="M83.1,35.8v-2.8c0-0.5-0.1-0.8-0.2-1.1c0.2-0.2,0.4-0.2,0.7-0.2c0.3,0,0.4,0.1,0.5,0.2
		c0.1,0.1,0.1,0.3,0.1,0.6v3.1c0,0.4,0.1,0.7,0.2,0.9c0.1,0.2,0.3,0.3,0.6,0.3c0.3,0,0.6-0.1,0.8-0.2c0.3-0.1,0.5-0.3,0.8-0.6v-4.2
		c0.2,0,0.4,0,0.6,0s0.4,0,0.6,0V36c0,0.6,0.1,1,0.3,1.2c-0.1,0.3-0.2,0.5-0.4,0.6c-0.5-0.1-0.8-0.4-0.9-0.9c-0.6,0.6-1.3,0.9-2,0.9
		c-0.5,0-0.9-0.2-1.2-0.5S83.1,36.4,83.1,35.8z"/>
	<path fill="#FFFFFF" d="M94.3,37.1c-0.1,0.3-0.2,0.5-0.5,0.6c-0.4-0.1-0.7-0.3-0.9-0.8c-0.6,0.6-1.2,0.8-1.8,0.8
		c-0.6,0-1.1-0.2-1.4-0.5s-0.5-0.8-0.5-1.2c0-0.7,0.2-1.2,0.6-1.5s1-0.5,1.7-0.5c0.4,0,0.8,0,1.2,0.1v-0.5c0-0.7-0.3-1.1-1-1.1
		c-0.5,0-1.2,0.2-1.9,0.5c-0.2-0.2-0.3-0.5-0.3-0.9c0.8-0.4,1.7-0.6,2.5-0.6c0.6,0,1.1,0.2,1.4,0.5c0.3,0.3,0.5,0.8,0.5,1.5V36
		C93.9,36.6,94.1,36.9,94.3,37.1z M91.3,36.8c0.5,0,1-0.3,1.5-0.8v-1.2c-0.3,0-0.7-0.1-1.1-0.1c-0.4,0-0.7,0.1-0.9,0.3
		c-0.2,0.2-0.3,0.4-0.3,0.7c0,0.3,0.1,0.5,0.2,0.7C90.9,36.8,91.1,36.8,91.3,36.8z"/>
	<path fill="#FFFFFF" d="M97.4,36.7h0.5c0.1,0.2,0.1,0.3,0.1,0.5c0,0.1,0,0.3,0,0.4c-0.3,0.1-0.7,0.1-1,0.1c-0.8,0-1.1-0.4-1.1-1.2
		v-7.6l0.1-0.1h0.4c0.2,0,0.4,0.1,0.5,0.2c0.1,0.1,0.1,0.3,0.1,0.6v6.7C96.9,36.6,97.1,36.7,97.4,36.7z"/>
	<path fill="#FFFFFF" d="M100.6,32.7v4.9c-0.1,0-0.3,0-0.6,0c-0.2,0-0.4,0-0.6,0v-4.5c0-0.2,0-0.4-0.1-0.5s-0.2-0.1-0.4-0.1h-0.1
		c0-0.1,0-0.3,0-0.4c0-0.2,0-0.3,0-0.4c0.3,0,0.5,0,0.7,0h0.2c0.3,0,0.5,0.1,0.7,0.3C100.5,32.1,100.6,32.4,100.6,32.7z M99.1,30.1
		c0-0.2,0-0.4,0.1-0.5c0.2-0.1,0.4-0.1,0.7-0.1c0.3,0,0.5,0,0.6,0.1c0.1,0.1,0.1,0.3,0.1,0.5c0,0.2,0,0.4-0.1,0.5
		c-0.1,0.1-0.3,0.1-0.6,0.1c-0.3,0-0.5,0-0.6-0.1C99.1,30.4,99.1,30.3,99.1,30.1z"/>
	<path fill="#FFFFFF" d="M102.2,36.5l2-2.8c0.3-0.4,0.6-0.8,0.9-1.2l0,0c-0.4,0-1,0.1-1.6,0.1h-1.3c0-0.1,0-0.3,0-0.4
		c0-0.1,0-0.3,0.1-0.5h4c0.1,0.3,0.2,0.6,0.2,0.7c0,0.1-0.1,0.3-0.2,0.4l-2,2.7c0,0.1-0.4,0.5-0.9,1.2l0,0c0.4,0,0.7,0,1.1,0h0.6
		c0.6,0,1.1-0.1,1.3-0.2c0.1,0.2,0.1,0.3,0.1,0.5c0,0.4-0.3,0.6-0.8,0.6h-3.6c-0.1-0.3-0.2-0.6-0.2-0.7
		C102,36.8,102.1,36.7,102.2,36.5z"/>
	<path fill="#FFFFFF" d="M112.4,37.1c-0.1,0.3-0.2,0.5-0.5,0.6c-0.4-0.1-0.7-0.3-0.9-0.8c-0.6,0.6-1.2,0.8-1.8,0.8
		c-0.6,0-1.1-0.2-1.4-0.5s-0.5-0.8-0.5-1.2c0-0.7,0.2-1.2,0.6-1.5s1-0.5,1.7-0.5c0.4,0,0.8,0,1.2,0.1v-0.5c0-0.7-0.3-1.1-1-1.1
		c-0.5,0-1.2,0.2-1.9,0.5c-0.2-0.2-0.3-0.5-0.3-0.9c0.8-0.4,1.7-0.6,2.5-0.6c0.6,0,1.1,0.2,1.4,0.5c0.3,0.3,0.5,0.8,0.5,1.5V36
		C112.1,36.6,112.2,36.9,112.4,37.1z M109.5,36.8c0.5,0,1-0.3,1.5-0.8v-1.2c-0.3,0-0.7-0.1-1.1-0.1c-0.4,0-0.7,0.1-0.9,0.3
		c-0.2,0.2-0.3,0.4-0.3,0.7c0,0.3,0.1,0.5,0.2,0.7C109,36.8,109.2,36.8,109.5,36.8z"/>
	<path fill="#FFFFFF" d="M115.3,38.5c0-0.2,0.1-0.5,0.3-0.8c-0.7-0.1-1.2-0.4-1.5-1c-0.3-0.6-0.5-1.3-0.5-2.1c0-1,0.2-1.8,0.7-2.4
		c0.5-0.5,1.1-0.8,1.8-0.8c0.7,0,1.2,0.2,1.6,0.6c0.4,0.4,0.6,0.8,0.6,1.2c0,0.4-0.2,0.7-0.6,0.7c-0.2,0-0.3,0-0.5,0
		c0,0,0-0.1,0-0.1c0-0.9-0.4-1.4-1.1-1.4c-0.4,0-0.7,0.2-0.9,0.6s-0.3,0.9-0.3,1.7c0,1.4,0.5,2.1,1.4,2.1c0.4,0,0.9-0.2,1.5-0.6
		c0.1,0.1,0.2,0.2,0.3,0.3c0.1,0.1,0.2,0.3,0.2,0.4c-0.5,0.5-1.1,0.8-1.8,0.9c-0.1,0.1-0.1,0.2-0.1,0.3c0.3,0,0.6,0.1,0.8,0.3
		c0.2,0.2,0.3,0.4,0.3,0.8c0,0.3-0.1,0.6-0.4,0.8c-0.3,0.2-0.6,0.3-1,0.3c-0.4,0-0.7-0.1-1-0.2c0-0.2,0.1-0.4,0.2-0.6
		c0.2,0.1,0.4,0.2,0.6,0.2s0.3,0,0.4-0.1c0.1-0.1,0.1-0.2,0.1-0.3c0-0.1,0-0.3-0.1-0.3c-0.1-0.1-0.2-0.1-0.3-0.1
		c-0.1,0-0.2,0-0.3,0.1C115.4,38.7,115.4,38.6,115.3,38.5z"/>
	<path fill="#FFFFFF" d="M124.1,37.1c-0.1,0.3-0.2,0.5-0.5,0.6c-0.4-0.1-0.7-0.3-0.9-0.8c-0.6,0.6-1.2,0.8-1.8,0.8
		c-0.6,0-1.1-0.2-1.4-0.5s-0.5-0.8-0.5-1.2c0-0.7,0.2-1.2,0.6-1.5s1-0.5,1.7-0.5c0.4,0,0.8,0,1.2,0.1v-0.5c0-0.7-0.3-1.1-1-1.1
		c-0.5,0-1.2,0.2-1.9,0.5c-0.2-0.2-0.3-0.5-0.3-0.9c0.8-0.4,1.7-0.6,2.5-0.6c0.6,0,1.1,0.2,1.4,0.5c0.3,0.3,0.5,0.8,0.5,1.5V36
		C123.8,36.6,123.9,36.9,124.1,37.1z M121.7,30.8l-0.7-0.3c-0.2-0.1-0.3-0.1-0.4-0.1s-0.3,0.1-0.4,0.3l-0.1,0.2
		c-0.1,0-0.2,0-0.3-0.1c-0.1-0.1-0.2-0.2-0.2-0.3l0.1-0.2c0.1-0.3,0.3-0.5,0.5-0.6s0.4-0.2,0.6-0.2c0.2,0,0.5,0.1,0.7,0.2l0.7,0.3
		c0.1,0.1,0.3,0.1,0.4,0.1c0.1,0,0.3-0.1,0.5-0.3l0.1-0.2c0.1,0,0.2,0,0.3,0.1s0.2,0.2,0.2,0.3l-0.1,0.2c-0.1,0.3-0.3,0.5-0.5,0.6
		c-0.2,0.2-0.4,0.2-0.6,0.2C122.2,30.9,122,30.9,121.7,30.8z M121.2,36.8c0.5,0,1-0.3,1.5-0.8v-1.2c-0.3,0-0.7-0.1-1.1-0.1
		c-0.4,0-0.7,0.1-0.9,0.3c-0.2,0.2-0.3,0.4-0.3,0.7c0,0.3,0.1,0.5,0.2,0.7C120.7,36.8,120.9,36.8,121.2,36.8z"/>
	<path fill="#FFFFFF" d="M129.6,32.2c0.6,0.6,0.8,1.4,0.8,2.5s-0.3,1.9-0.8,2.5c-0.4,0.4-1,0.7-1.7,0.7s-1.3-0.2-1.7-0.7
		c-0.6-0.6-0.8-1.4-0.8-2.5s0.3-1.9,0.8-2.5c0.4-0.4,1-0.7,1.7-0.7S129.1,31.8,129.6,32.2z M126.5,34.7c0,1.5,0.5,2.2,1.4,2.2
		s1.4-0.7,1.4-2.2c0-0.4,0-0.8-0.1-1.1c-0.1-0.3-0.2-0.6-0.4-0.8c-0.2-0.2-0.5-0.3-0.8-0.3s-0.6,0.1-0.8,0.3s-0.4,0.5-0.4,0.8
		C126.5,33.9,126.5,34.3,126.5,34.7z"/>
	<path fill="#FFFFFF" d="M131.7,37c0-0.2,0-0.4,0.1-0.6c0.2-0.1,0.4-0.1,0.7-0.1c0.3,0,0.5,0,0.7,0.1c0.1,0.1,0.1,0.3,0.1,0.6
		s0,0.4-0.1,0.6c-0.2,0.1-0.4,0.1-0.7,0.1c-0.3,0-0.5,0-0.7-0.1C131.7,37.4,131.7,37.2,131.7,37z"/>
</g>
</svg>