<!-- Generator: Adobe Illustrator 17.1.0, SVG Export Plug-In  -->
<svg version="1.1"
	 xmlns="http://www.w3.org/2000/svg" xmlns:xlink="http://www.w3.org/1999/xlink" xmlns:a="http://ns.adobe.com/AdobeSVGViewerExtensions/3.0/"
	 x="0px" y="0px" width="587.8px" height="552px" viewBox="0 0 587.8 552" enable-background="new 0 0 587.8 552"
	 xml:space="preserve">
<defs>
</defs>
<g>
	<linearGradient id="SVGID_1_" gradientUnits="userSpaceOnUse" x1="481.4619" y1="77.9075" x2="295.5192" y2="258.003">
		<stop  offset="0" style="stop-color:#FFFFFF;stop-opacity:0"/>
		<stop  offset="1" style="stop-color:#FFFFFF"/>
	</linearGradient>
	<path fill="url(#SVGID_1_)" d="M289.1,262.9l298.7-146.2C561.8-44.9,406.9,8.4,406.9,8.4L280.4,256.5L289.1,262.9z"/>
	<g>
		<polygon fill="#951D26" points="279.8,480.6 279.8,499.4 351.8,462.5 351.8,444 		"/>
		<polygon fill="#C0272D" points="279.8,480.6 279.8,499.4 206.8,462.5 206.8,444 		"/>
		<polygon fill="#DC404B" points="206.7,444 279.6,407.3 353.8,444 280.3,480.6 		"/>
		<path fill="#C0272D" d="M302.8,308.9c0,9.3-12.5,16.8-28,16.8l0,0c-15.5,0-28-7.5-28-16.8v-36.5c0-9.3,12.5-16.8,28-16.8l0,0
			c15.5,0,28,7.5,28,16.8V308.9z"/>
		<ellipse fill="#DC404B" cx="275.1" cy="269.5" rx="27.1" ry="13.1"/>
		<path fill="#D1D1CC" d="M235.8,447.5l11.7-160.1c0,0,8.3,9.6,27.3,9.6c19.8,0,28.8-9.2,28.8-9.2L326,446.1
			C326,446.1,284,479.5,235.8,447.5z"/>
		<path fill="#C0272D" d="M239.3,400.3l4.3-54.8c0,0,11.3,12.1,36.6,12.1c26.2,0,31.4-12.1,31.4-12.1l7.8,54.8
			C319.5,400.2,284.8,427.4,239.3,400.3z"/>
		<path fill="#0C3B60" d="M298.1,320.2c-2.3,0.6-2.3,4.2-2.3,4.2v0.1v5.2l5-2.4v-5.1C300.8,322.2,300.7,319.6,298.1,320.2z"/>
		<path fill="#0C3B60" d="M303.1,378.3c-2.3,0.6-2.3,4.2-2.3,4.2v0.1v5.2l5-2.4v-5.1C305.8,380.3,305.7,377.6,303.1,378.3z"/>
		<path fill="#0C3B60" d="M305.1,427.4c-2.3,0.6-2.3,4.2-2.3,4.2v0.1v5.2l5-2.4v-5.1C307.8,429.4,307.7,426.7,305.1,427.4z"/>
		<path fill="#DC404B" d="M302.8,272.7v10.1c0,7.8-12.5,12.5-28,12.5s-28-6-28-12.7v-9.6c-12,3.9-15.5,9.9-15.5,16.5
			c0,11.9,20,21.5,44.5,21.5c24.5,0,44-9.6,44-21.5C319.8,282.8,312.8,276.7,302.8,272.7z"/>
		<path fill="#0C3B60" d="M276,286.6c-16.3,0-29-8.6-29-15.6h2.3c0,7,12.2,13.2,26.7,13.2c15.4,0,26.2-8.2,26.2-15.2h2.3
			C304.5,278,291.5,286.6,276,286.6z"/>
		<path opacity="0.49" fill="#FFFFFF" d="M303.7,266.8c0,9.3-12.6,16.8-28.1,16.8l0,0c-15.5,0-28.1-7.5-28.1-16.8v-36.5
			c0-9.3,12.6-16.8,28.1-16.8l0,0c15.5,0,28.1,7.5,28.1,16.8V266.8z"/>
		<path fill="#0C3B60" d="M248.8,272c0,0.6-0.4,1-1,1l0,0c-0.6,0-1-0.4-1-1v-49c0-0.6,0.4-1,1-1l0,0c0.6,0,1,0.4,1,1V272z"/>
		<path fill="#0C3B60" d="M260.8,282c0,0.6-0.4,1-1,1l0,0c-0.6,0-1-0.4-1-1v-49c0-0.6,0.4-1,1-1l0,0c0.6,0,1,0.4,1,1V282z"/>
		<path fill="#0C3B60" d="M293.8,279c0,0.6-0.4,1-1,1l0,0c-0.6,0-1-0.4-1-1v-49c0-0.6,0.4-1,1-1l0,0c0.6,0,1,0.4,1,1V279z"/>
		<path fill="#0C3B60" d="M302.8,272c0,0.6-0.4,1-1,1l0,0c-0.6,0-1-0.4-1-1v-49c0-0.6,0.4-1,1-1l0,0c0.6,0,1,0.4,1,1V272z"/>
		<path fill="#FFFFFF" d="M286.9,263.4c0,5.2-4.2,16.6-9.4,16.6c-5.2,0-9.4-11.5-9.4-16.6c0-1.2,0.2-2.4,0.7-3.5
			c1.4-3.5,4.8-5.9,8.7-5.9C282.7,254,286.9,258.2,286.9,263.4z"/>
		<path fill="#C0272D" d="M246.2,214.8c0,0,20.3-12,56.6-0.5c0,0,15.3,19.1-1.3,22.4c-16.6,3.3-56.5-0.2-57.5-8.8
			C243,219.3,246.2,214.8,246.2,214.8z"/>
		<path fill="#0C3B60" d="M276.8,284c0,0.6-0.4,1-1,1l0,0c-0.6,0-1-0.4-1-1v-49c0-0.6,0.4-1,1-1l0,0c0.6,0,1,0.4,1,1V284z"/>
		<path fill="#DC404B" d="M302.8,214.3v10.1c0,7.8-28.5-30.8-28.5-30.8s-27.5,37.2-27.5,30.6v-9.6c-12,3.9-15.5,9.9-15.5,16.5
			c0,11.9,20,21.5,44.5,21.5c24.5,0,44-9.6,44-21.5C319.8,224.3,312.8,218.2,302.8,214.3z"/>
		<circle fill="#DC404B" cx="275.1" cy="193.6" r="9.1"/>
		<path fill="#C0272D" d="M280.7,186.4c0,0-0.7,14.1-5.6,15.7c0,0,8.8,0,9.1-9.3C284.3,189.4,280.7,186.4,280.7,186.4z"/>
	</g>
	<linearGradient id="SVGID_2_" gradientUnits="userSpaceOnUse" x1="83.827" y1="433.6913" x2="260.4141" y2="279.9085">
		<stop  offset="0" style="stop-color:#FFFFFF;stop-opacity:0"/>
		<stop  offset="1" style="stop-color:#FFFFFF"/>
	</linearGradient>
	<path fill="url(#SVGID_2_)" d="M275.6,271.3L101,552c-154.4-43.7-85.8-191.8-85.8-191.8L270.3,262L275.6,271.3z"/>
</g>
</svg>