<!-- Generator: Adobe Illustrator 17.1.0, SVG Export Plug-In  -->
<svg version="1.1"
	 xmlns="http://www.w3.org/2000/svg" xmlns:xlink="http://www.w3.org/1999/xlink" xmlns:a="http://ns.adobe.com/AdobeSVGViewerExtensions/3.0/"
	 x="0px" y="0px" width="224.8px" height="112.3px" viewBox="0 0 224.8 112.3" enable-background="new 0 0 224.8 112.3"
	 xml:space="preserve">
<defs>
</defs>
<g>
	<polygon fill="#CBDA2A" points="206.6,93.4 97.2,93.4 97.2,20 206.6,20 224.8,56.7 	"/>
	<g>
		<radialGradient id="SVGID_1_" cx="56.1667" cy="56.1667" r="56.1667" gradientUnits="userSpaceOnUse">
			<stop  offset="0" style="stop-color:#008B94"/>
			<stop  offset="0.4984" style="stop-color:#008993"/>
			<stop  offset="0.6778" style="stop-color:#008290"/>
			<stop  offset="0.8058" style="stop-color:#00778B"/>
			<stop  offset="0.9085" style="stop-color:#006684"/>
			<stop  offset="0.9961" style="stop-color:#00507A"/>
			<stop  offset="1" style="stop-color:#004F7A"/>
		</radialGradient>
		<circle fill-rule="evenodd" clip-rule="evenodd" fill="url(#SVGID_1_)" cx="56.2" cy="56.2" r="56.2"/>
		<radialGradient id="SVGID_2_" cx="56.1667" cy="56.1667" r="50.6667" gradientUnits="userSpaceOnUse">
			<stop  offset="0" style="stop-color:#008B94"/>
			<stop  offset="0.4984" style="stop-color:#008993"/>
			<stop  offset="0.6778" style="stop-color:#008290"/>
			<stop  offset="0.8058" style="stop-color:#00778B"/>
			<stop  offset="0.9085" style="stop-color:#006684"/>
			<stop  offset="0.9961" style="stop-color:#00507A"/>
			<stop  offset="1" style="stop-color:#004F7A"/>
		</radialGradient>
		<circle fill-rule="evenodd" clip-rule="evenodd" fill="url(#SVGID_2_)" cx="56.2" cy="56.2" r="50.7"/>
		<path fill="none" stroke="#FFFFFF" stroke-width="3" stroke-linecap="round" stroke-miterlimit="10" d="M40.8,41.7
			c-2.5,0-4,3.5-2.6,6.1l16.7,31.7c1.2,2.4,4,2.4,5.3,0l16.7-31.7c1.4-2.6-0.1-6.1-2.6-6.1H46.5"/>
	</g>
	<g>
		<path fill="#0C3B60" d="M127.9,50.9c-0.4,0.2-1.3,0.4-2.4,0.4c-3,0-4.8-1.9-4.8-4.7c0-3.1,2.2-5,5-5c1.1,0,1.9,0.2,2.3,0.4
			l-0.4,1.4c-0.4-0.2-1.1-0.4-1.8-0.4c-1.9,0-3.3,1.2-3.3,3.5c0,2.1,1.2,3.4,3.3,3.4c0.7,0,1.4-0.1,1.9-0.3L127.9,50.9z"/>
		<path fill="#0C3B60" d="M129.3,41.2h1.7v9.9h-1.7V41.2z"/>
		<path fill="#0C3B60" d="M134.7,42.4c0,0.5-0.4,0.9-1,0.9c-0.6,0-1-0.4-1-0.9c0-0.5,0.4-0.9,1-0.9
			C134.3,41.5,134.7,41.9,134.7,42.4z M132.9,51.1v-6.8h1.7v6.8H132.9z"/>
		<path fill="#0C3B60" d="M141,50.2L141,50.2c-0.4,0.7-1.1,1.1-2.1,1.1c-1.5,0-2.9-1.3-2.9-3.5c0-2.5,1.6-3.7,3.1-3.7
			c1,0,1.6,0.4,2,1.1l0,0l0-0.9h1.7c0,0.6-0.1,1.3-0.1,2v7.6H141V50.2z M141,47.1c0-0.1,0-0.3,0-0.4c-0.2-0.6-0.7-1.2-1.5-1.2
			c-1.1,0-1.7,0.9-1.7,2.2c0,1.2,0.6,2.2,1.7,2.2c0.7,0,1.3-0.4,1.5-1.1c0.1-0.2,0.1-0.4,0.1-0.5V47.1z"/>
		<path fill="#0C3B60" d="M150.7,49.1c0,0.8,0,1.5,0.1,2h-1.5l-0.1-1h0c-0.3,0.5-1,1.2-2.2,1.2c-1.2,0-2.4-0.7-2.4-3v-4h1.7V48
			c0,1.1,0.4,1.9,1.3,1.9c0.7,0,1.1-0.5,1.3-0.9c0.1-0.2,0.1-0.3,0.1-0.5v-4.1h1.7V49.1z"/>
		<path fill="#0C3B60" d="M153.8,48.2c0,1.2,1,1.8,2.1,1.8c0.8,0,1.4-0.1,1.9-0.3l0.3,1.2c-0.6,0.2-1.4,0.4-2.4,0.4
			c-2.2,0-3.5-1.4-3.5-3.4c0-1.9,1.1-3.7,3.3-3.7c2.2,0,2.9,1.8,2.9,3.3c0,0.3,0,0.6-0.1,0.7H153.8z M156.8,47
			c0-0.6-0.3-1.7-1.4-1.7c-1.1,0-1.5,1-1.6,1.7H156.8z"/>
		<path fill="#0C3B60" d="M166.5,51.1l-0.1-0.8h0c-0.4,0.5-1.1,0.9-2,0.9c-1.4,0-2.1-1-2.1-2c0-1.7,1.5-2.6,4-2.6v-0.1
			c0-0.4-0.2-1.2-1.4-1.2c-0.7,0-1.4,0.2-1.8,0.5l-0.3-1.1c0.5-0.3,1.4-0.6,2.5-0.6c2.2,0,2.8,1.4,2.8,2.9v2.5c0,0.6,0,1.2,0.1,1.6
			H166.5z M166.3,47.8c-1.2,0-2.4,0.2-2.4,1.3c0,0.7,0.4,1,1,1c0.7,0,1.2-0.4,1.3-0.9c0-0.1,0.1-0.3,0.1-0.4V47.8z"/>
		<path fill="#0C3B60" d="M174.4,50.2L174.4,50.2c-0.4,0.7-1.1,1.1-2.1,1.1c-1.5,0-2.9-1.3-2.9-3.5c0-2.5,1.6-3.7,3.1-3.7
			c1,0,1.6,0.4,2,1.1l0,0l0-0.9h1.7c0,0.6-0.1,1.3-0.1,2v7.6h-1.7V50.2z M174.4,47.1c0-0.1,0-0.3,0-0.4c-0.2-0.6-0.7-1.2-1.5-1.2
			c-1.1,0-1.7,0.9-1.7,2.2c0,1.2,0.6,2.2,1.7,2.2c0.7,0,1.3-0.4,1.5-1.1c0.1-0.2,0.1-0.4,0.1-0.5V47.1z"/>
		<path fill="#0C3B60" d="M184,49.1c0,0.8,0,1.5,0.1,2h-1.5l-0.1-1h0c-0.3,0.5-1,1.2-2.2,1.2c-1.2,0-2.4-0.7-2.4-3v-4h1.7V48
			c0,1.1,0.4,1.9,1.3,1.9c0.7,0,1.1-0.5,1.3-0.9c0.1-0.2,0.1-0.3,0.1-0.5v-4.1h1.7V49.1z"/>
		<path fill="#0C3B60" d="M187.7,42.4c0,0.5-0.4,0.9-1,0.9c-0.6,0-1-0.4-1-0.9c0-0.5,0.4-0.9,1-0.9
			C187.4,41.5,187.7,41.9,187.7,42.4z M185.9,51.1v-6.8h1.7v6.8H185.9z"/>
		<path fill="#0C3B60" d="M121.1,63.4c0-0.9,0-1.6-0.1-2.3h1.5l0.1,1h0c0.5-0.8,1.3-1.2,2.3-1.2c1.6,0,2.9,1.3,2.9,3.5
			c0,2.5-1.6,3.7-3.1,3.7c-0.9,0-1.6-0.4-1.9-0.9h0v3.5h-1.7V63.4z M122.8,65.1c0,0.2,0,0.3,0.1,0.5c0.2,0.7,0.8,1.2,1.5,1.2
			c1.1,0,1.7-0.9,1.7-2.3c0-1.2-0.6-2.2-1.7-2.2c-0.7,0-1.4,0.5-1.5,1.3c0,0.1-0.1,0.3-0.1,0.4V65.1z"/>
		<path fill="#0C3B60" d="M133.1,67.9l-0.1-0.8h0c-0.4,0.5-1.1,0.9-2,0.9c-1.4,0-2.1-1-2.1-2c0-1.7,1.5-2.6,4-2.6v-0.1
			c0-0.4-0.2-1.2-1.4-1.2c-0.7,0-1.4,0.2-1.8,0.5l-0.3-1.1c0.5-0.3,1.4-0.6,2.5-0.6c2.2,0,2.8,1.4,2.8,2.9v2.5c0,0.6,0,1.2,0.1,1.6
			H133.1z M132.9,64.6c-1.2,0-2.4,0.2-2.4,1.3c0,0.7,0.4,1,1,1c0.7,0,1.2-0.4,1.3-0.9c0-0.1,0.1-0.3,0.1-0.4V64.6z"/>
		<path fill="#0C3B60" d="M136.4,63.3c0-0.9,0-1.6-0.1-2.2h1.5l0.1,1.3h0.1c0.3-1,1.1-1.5,1.9-1.5c0.2,0,0.3,0,0.4,0v1.6
			c-0.1,0-0.3-0.1-0.5-0.1c-0.8,0-1.4,0.5-1.5,1.3c0,0.2-0.1,0.3-0.1,0.5v3.5h-1.7V63.3z"/>
		<path fill="#0C3B60" d="M145.1,67.9l-0.1-0.8h0c-0.4,0.5-1.1,0.9-2,0.9c-1.4,0-2.1-1-2.1-2c0-1.7,1.5-2.6,4-2.6v-0.1
			c0-0.4-0.2-1.2-1.4-1.2c-0.7,0-1.4,0.2-1.8,0.5l-0.3-1.1c0.5-0.3,1.4-0.6,2.5-0.6c2.2,0,2.8,1.4,2.8,2.9v2.5c0,0.6,0,1.2,0.1,1.6
			H145.1z M144.9,64.6c-1.2,0-2.4,0.2-2.4,1.3c0,0.7,0.4,1,1,1c0.7,0,1.2-0.4,1.3-0.9c0-0.1,0.1-0.3,0.1-0.4V64.6z"/>
		<path fill="#0C3B60" d="M156.3,67.7c-0.4,0.2-1.1,0.3-1.9,0.3c-2.1,0-3.5-1.4-3.5-3.5c0-2,1.4-3.6,3.8-3.6c0.6,0,1.3,0.1,1.7,0.3
			l-0.3,1.3c-0.3-0.1-0.7-0.3-1.3-0.3c-1.3,0-2.1,1-2.1,2.2c0,1.4,0.9,2.2,2.1,2.2c0.6,0,1-0.1,1.4-0.3L156.3,67.7z"/>
		<path fill="#0C3B60" d="M163.9,64.5c0,2.5-1.8,3.6-3.5,3.6c-1.9,0-3.4-1.3-3.4-3.5c0-2.2,1.5-3.6,3.5-3.6
			C162.5,61,163.9,62.4,163.9,64.5z M158.8,64.5c0,1.3,0.6,2.3,1.7,2.3c1,0,1.7-1,1.7-2.3c0-1.1-0.5-2.3-1.7-2.3
			C159.3,62.2,158.8,63.4,158.8,64.5z"/>
		<path fill="#0C3B60" d="M165.3,63.1c0-0.8,0-1.4-0.1-2h1.5l0.1,1h0c0.3-0.5,1-1.2,2.2-1.2c1.2,0,2.4,0.8,2.4,2.9v4h-1.7v-3.9
			c0-1-0.4-1.7-1.3-1.7c-0.7,0-1.2,0.5-1.3,1c-0.1,0.2-0.1,0.4-0.1,0.6v4h-1.7V63.1z"/>
		<path fill="#0C3B60" d="M175.2,59.2v1.9h1.6v1.3h-1.6v3c0,0.8,0.2,1.3,0.9,1.3c0.3,0,0.5,0,0.7-0.1l0,1.3
			c-0.3,0.1-0.7,0.2-1.2,0.2c-0.6,0-1.2-0.2-1.5-0.6c-0.4-0.4-0.5-1-0.5-1.9v-3.2h-1v-1.3h1v-1.5L175.2,59.2z"/>
		<path fill="#0C3B60" d="M180,59.2c0,0.5-0.4,0.9-1,0.9c-0.6,0-1-0.4-1-0.9c0-0.5,0.4-0.9,1-0.9C179.6,58.3,180,58.7,180,59.2z
			 M178.2,67.9v-6.8h1.7v6.8H178.2z"/>
		<path fill="#0C3B60" d="M181.8,63.1c0-0.8,0-1.4-0.1-2h1.5l0.1,1h0c0.3-0.5,1-1.2,2.2-1.2c1.2,0,2.4,0.8,2.4,2.9v4h-1.7v-3.9
			c0-1-0.4-1.7-1.3-1.7c-0.7,0-1.2,0.5-1.3,1c-0.1,0.2-0.1,0.4-0.1,0.6v4h-1.7V63.1z"/>
		<path fill="#0C3B60" d="M195.9,65.9c0,0.8,0,1.5,0.1,2h-1.5l-0.1-1h0c-0.3,0.5-1,1.2-2.2,1.2c-1.2,0-2.4-0.7-2.4-3v-4h1.7v3.7
			c0,1.1,0.4,1.9,1.3,1.9c0.7,0,1.1-0.5,1.3-0.9c0.1-0.2,0.1-0.3,0.1-0.5v-4.1h1.7V65.9z"/>
		<path fill="#0C3B60" d="M201.6,67.9l-0.1-0.8h0c-0.4,0.5-1.1,0.9-2,0.9c-1.4,0-2.1-1-2.1-2c0-1.7,1.5-2.6,4-2.6v-0.1
			c0-0.4-0.2-1.2-1.4-1.2c-0.7,0-1.4,0.2-1.8,0.5l-0.3-1.1c0.5-0.3,1.4-0.6,2.5-0.6c2.2,0,2.8,1.4,2.8,2.9v2.5c0,0.6,0,1.2,0.1,1.6
			H201.6z M201.3,64.6c-1.2,0-2.4,0.2-2.4,1.3c0,0.7,0.4,1,1,1c0.7,0,1.2-0.4,1.3-0.9c0-0.1,0.1-0.3,0.1-0.4V64.6z"/>
		<path fill="#0C3B60" d="M204.8,63.3c0-0.9,0-1.6-0.1-2.2h1.5l0.1,1.3h0.1c0.3-1,1.1-1.5,1.9-1.5c0.2,0,0.3,0,0.4,0v1.6
			c-0.1,0-0.3-0.1-0.5-0.1c-0.8,0-1.4,0.5-1.5,1.3c0,0.2-0.1,0.3-0.1,0.5v3.5h-1.7V63.3z"/>
	</g>
	<g>
		<g>
			<path fill="#CBDA2A" d="M96.8,81.2c0.1,0.1,0.1,0.1,0.1,0.1c0.5,1.1,1.1,2.1,1.3,3.3c0.1,0.4,0,0.8-0.2,1.1
				c-0.1,0.2-0.2,0.3-0.3,0.5l-0.3,0.5c-0.2,0.4-0.4,0.7-0.6,1.1c-0.2,0.3-0.4,0.6-0.7,0.9c-0.1-0.2-0.2-0.4-0.3-0.5
				c-0.4-0.8-0.8-1.7-1.1-2.5c-0.2-0.5-0.3-1.1,0-1.6c0.3-0.4,0.6-0.9,0.8-1.3l0.4-0.6c0.1-0.2,0.3-0.4,0.5-0.6
				C96.6,81.4,96.7,81.3,96.8,81.2"/>
			<path fill="#CBDA2A" d="M99,84.2c-0.4-0.8-0.8-1.5-1.1-2.4c-0.1-0.3-0.2-0.7-0.4-1.1c-0.1-0.4-0.1-0.7,0.1-1
				c0.5-0.9,1.1-1.8,1.5-2.8c0-0.1,0.1-0.1,0.2-0.2c0.1,0.2,0.2,0.3,0.3,0.4c0.2,0.3,0.3,0.6,0.4,1c0.2,0.5,0.4,1,0.6,1.5
				c0.3,0.7,0.3,1.4-0.1,2.1c-0.5,0.8-1,1.6-1.4,2.3C99.2,84.1,99.1,84.2,99,84.2"/>
			<path fill="#CBDA2A" d="M101.7,79.8c-0.2-0.2-0.3-0.3-0.3-0.5c-0.3-0.7-0.6-1.4-0.9-2.1c-0.1-0.1-0.1-0.2-0.2-0.3
				c-0.3-0.5-0.3-0.9-0.1-1.4c0.4-0.9,0.8-1.8,1.2-2.7c0.2-0.4,0.4-0.5,0.6-0.1c0.5,0.8,1.1,1.7,1.3,2.6c0.2,0.5,0,1.1-0.2,1.6
				c-0.3,0.8-0.7,1.6-1.1,2.4C102,79.5,101.9,79.6,101.7,79.8"/>
			<path fill="#CBDA2A" d="M103.3,67.8c0.1,0,0.1,0,0.2,0.1c0.8,0.9,1.6,1.7,2.1,2.8c0.2,0.4,0.2,0.8,0.1,1.2
				c-0.1,0.4-0.3,0.8-0.4,1.2c-0.1,0.4-0.3,0.8-0.5,1.2c-0.1,0.3-0.3,0.6-0.6,1c-0.1-0.2-0.2-0.3-0.3-0.5c-0.5-0.8-0.9-1.6-1.4-2.3
				c-0.3-0.5-0.5-1-0.3-1.5c0.3-1,0.6-1.9,0.9-2.8C103.2,68,103.3,67.9,103.3,67.8"/>
			<path fill="#CBDA2A" d="M106.2,70.1c-0.6-0.6-1.2-1.3-1.7-2c-0.2-0.3-0.4-0.6-0.6-0.9c-0.2-0.3-0.3-0.6-0.2-1c0.2-1,0.4-2,0.5-3
				c0-0.1,0-0.1,0.1-0.3c0.2,0.1,0.3,0.2,0.4,0.3c0.3,0.2,0.5,0.5,0.7,0.8c0.4,0.4,0.7,0.8,1.1,1.2c0.5,0.6,0.7,1.3,0.6,2
				c-0.1,0.5-0.2,0.9-0.4,1.4l-0.4,1.4C106.4,70,106.3,70.1,106.2,70.1"/>
			<path fill="#CBDA2A" d="M107.6,65c-0.2-0.1-0.4-0.2-0.5-0.3c-0.5-0.5-1.1-1.1-1.6-1.6c-0.1-0.1-0.2-0.2-0.3-0.3
				c-0.5-0.3-0.6-0.8-0.6-1.3c0.1-1,0.1-2,0.1-3c0-0.4,0.2-0.6,0.6-0.3c0.8,0.6,1.6,1.2,2.2,2c0.3,0.4,0.3,1,0.4,1.6
				c0,0.9-0.1,1.8-0.2,2.6C107.7,64.6,107.6,64.7,107.6,65"/>
			<path fill="#CBDA2A" d="M104.7,53c0.1,0,0.2,0,0.2,0c1,0.6,2.1,1.1,3,1.9c0.3,0.3,0.5,0.6,0.5,1.1c0,0.4,0,0.8,0,1.3
				c0,0.4,0,0.9,0,1.3c0,0.4-0.1,0.7-0.2,1.1c-0.2-0.1-0.3-0.2-0.5-0.3c-0.7-0.6-1.5-1.1-2.2-1.6c-0.4-0.3-0.8-0.8-0.8-1.3
				c-0.1-1-0.2-2-0.1-3C104.7,53.3,104.7,53.2,104.7,53"/>
			<path fill="#CBDA2A" d="M108.3,54.2c-0.8-0.4-1.5-0.8-2.2-1.3c-0.3-0.2-0.6-0.4-0.9-0.6c-0.3-0.2-0.5-0.5-0.5-0.9
				c-0.2-1-0.3-2.1-0.5-3.1c0-0.1,0-0.2,0-0.3c0.2,0,0.4,0.1,0.5,0.1c0.3,0.1,0.6,0.3,0.9,0.5c0.5,0.3,1,0.5,1.4,0.8
				c0.6,0.4,1.1,0.9,1.2,1.7l0.1,1.4l0.1,1.4C108.4,54.1,108.3,54.1,108.3,54.2"/>
			<path fill="#CBDA2A" d="M107.8,49c-0.3-0.1-0.4-0.1-0.6-0.1c-0.7-0.3-1.4-0.7-2-1c-0.1-0.1-0.2-0.1-0.3-0.2
				c-0.5-0.2-0.8-0.5-0.9-1c-0.2-1-0.5-2-0.8-2.9c-0.1-0.4,0-0.6,0.5-0.5c0.9,0.3,1.9,0.6,2.7,1.2c0.4,0.3,0.6,0.9,0.8,1.4
				c0.3,0.8,0.5,1.7,0.6,2.5C107.8,48.5,107.8,48.7,107.8,49"/>
			<path fill="#CBDA2A" d="M101.6,38.6c0.1,0,0.1-0.1,0.2-0.1c1.1,0.2,2.3,0.4,3.4,0.9c0.4,0.2,0.7,0.5,0.8,0.9
				c0.3,0.8,0.5,1.6,0.8,2.4c0.1,0.3,0.1,0.7,0.2,1.1c-0.2-0.1-0.4-0.1-0.5-0.2c-0.8-0.3-1.7-0.6-2.6-0.9c-0.5-0.2-1-0.5-1.2-1
				c-0.3-0.9-0.7-1.8-1-2.8C101.6,38.8,101.6,38.7,101.6,38.6"/>
			<path fill="#CBDA2A" d="M105.3,38.6c-0.9-0.1-1.7-0.3-2.5-0.5c-0.4-0.1-0.7-0.2-1.1-0.3c-0.4-0.1-0.6-0.3-0.8-0.6l-0.4-0.7
				l-0.4-0.7l-0.8-1.4c0-0.1-0.1-0.1-0.1-0.3c0.2,0,0.4-0.1,0.5-0.1c0.4,0,0.7,0.1,1.1,0.1c0.5,0.1,1.1,0.2,1.6,0.2
				c0.4,0.1,0.7,0.2,1,0.4c0.3,0.2,0.5,0.5,0.7,0.8c0.4,0.9,0.8,1.8,1.1,2.7C105.3,38.4,105.3,38.5,105.3,38.6"/>
			<path fill="#CBDA2A" d="M103,33.7c-0.3,0-0.4,0.1-0.6,0.1c-0.8-0.1-1.5-0.2-2.3-0.3c-0.1,0-0.3,0-0.4,0c-0.6,0-0.9-0.2-1.2-0.7
				c-0.5-0.9-1.1-1.7-1.7-2.5c-0.2-0.3-0.2-0.6,0.3-0.6c1,0,2,0,2.9,0.3c0.5,0.2,0.9,0.6,1.2,1c0.5,0.7,1,1.4,1.5,2.2
				C102.9,33.3,102.9,33.5,103,33.7"/>
			<path fill="#CBDA2A" d="M93.6,25.8c0.1-0.1,0.1-0.1,0.1-0.1c1.1-0.2,2.3-0.5,3.5-0.3c0.4,0,0.8,0.2,1.1,0.6
				c0.5,0.7,1.1,1.3,1.5,2.1c0.2,0.3,0.3,0.6,0.5,1c-0.2,0-0.4,0-0.6,0c-0.9,0-1.8,0-2.7-0.1c-0.6,0-1.1-0.1-1.4-0.6
				c-0.6-0.8-1.3-1.5-1.9-2.3C93.7,26,93.6,25.9,93.6,25.8"/>
			<path fill="#CBDA2A" d="M93.6,25.9c0.1-0.1,0.1-0.1,0.1-0.1c1.1-0.2,2.3-0.4,3.5-0.3c0.4,0.1,0.8,0.2,1.1,0.6
				c0.5,0.7,1.1,1.3,1.5,2.1c0.2,0.3,0.3,0.6,0.5,1c-0.2,0-0.4,0-0.6,0c-0.9,0-1.8,0-2.7-0.1c-0.6,0-1.1-0.1-1.4-0.6
				c-0.6-0.8-1.3-1.5-1.9-2.3C93.7,26.1,93.7,26,93.6,25.9"/>
			<path fill="#CBDA2A" d="M93.6,25.9c0.1-0.1,0.1-0.1,0.1-0.1c1.1-0.2,2.3-0.4,3.5-0.3c0.4,0.1,0.8,0.2,1.1,0.6
				c0.5,0.7,1.1,1.3,1.5,2.1c0.2,0.3,0.3,0.6,0.5,1c-0.2,0-0.4,0-0.6,0c-0.9,0-1.8,0-2.7-0.1c-0.6,0-1.1-0.1-1.4-0.6
				c-0.6-0.8-1.3-1.5-1.9-2.3C93.7,26.1,93.7,26,93.6,25.9"/>
			<path fill="#CBDA2A" d="M97.1,24.6c-0.9,0.2-1.7,0.3-2.6,0.3c-0.4,0-0.7,0.1-1.1,0.1c-0.4,0-0.7-0.1-0.9-0.3
				c-0.8-0.7-1.5-1.4-2.3-2c-0.1,0-0.1-0.1-0.2-0.2c0.2-0.1,0.3-0.2,0.5-0.2c0.3-0.1,0.7-0.1,1-0.2c0.5-0.1,1.1-0.2,1.6-0.3
				c0.7-0.1,1.4,0,2,0.6c0.7,0.7,1.3,1.4,2,2.1C97.1,24.5,97.1,24.5,97.1,24.6"/>
			<path fill="#CBDA2A" d="M93.4,20.8C93.2,20.9,93,21,92.9,21c-0.7,0.2-1.5,0.3-2.2,0.5c-0.1,0-0.3,0-0.4,0.1
				c-0.5,0.2-1,0.1-1.4-0.2l-2.4-1.9c-0.3-0.3-0.3-0.5,0.1-0.7c0.9-0.3,1.9-0.5,2.9-0.6c0.6,0,1,0.3,1.5,0.6c0.7,0.5,1.4,1,2.1,1.5
				C93.1,20.4,93.2,20.6,93.4,20.8"/>
			<path fill="#CBDA2A" d="M82.3,15.9c0.1-0.1,0.1-0.1,0.1-0.1c0.5-0.2,1.1-0.4,1.6-0.6c0.6-0.2,1.1-0.3,1.7-0.4
				c0.4,0,0.8,0.1,1.1,0.3c0.6,0.5,1.3,1,1.9,1.6c0.3,0.2,0.5,0.5,0.8,0.8c-0.2,0.1-0.4,0.1-0.5,0.2c-0.9,0.2-1.7,0.5-2.6,0.7
				c-0.5,0.1-1.1,0.1-1.5-0.2c-0.4-0.3-0.8-0.6-1.2-0.9c-0.4-0.3-0.8-0.6-1.2-0.9C82.4,16.1,82.4,16,82.3,15.9"/>
			<path fill="#CBDA2A" d="M85.5,14c-0.8,0.4-1.6,0.6-2.4,0.9c-0.4,0.1-0.7,0.2-1.1,0.3c-0.4,0.1-0.7,0.1-1-0.1
				c-0.9-0.5-1.8-1-2.7-1.5c-0.1,0-0.1-0.1-0.2-0.2c0.2-0.1,0.3-0.3,0.4-0.3c0.3-0.2,0.6-0.3,1-0.5c0.5-0.2,1-0.5,1.5-0.7
				c0.7-0.3,1.4-0.3,2.1,0.1c0.4,0.3,0.8,0.5,1.2,0.8c0.4,0.3,0.8,0.6,1.2,0.9C85.4,13.8,85.4,13.9,85.5,14"/>
			<path fill="#CBDA2A" d="M81,11c-0.2,0.2-0.3,0.3-0.5,0.4c-0.7,0.3-1.4,0.6-2,1c-0.1,0.1-0.2,0.1-0.3,0.2
				c-0.4,0.3-0.9,0.3-1.4,0.1c-0.9-0.4-1.9-0.8-2.8-1.1c-0.4-0.1-0.5-0.4-0.1-0.6c0.8-0.6,1.6-1.1,2.6-1.5c0.5-0.2,1.1,0,1.6,0.2
				c0.8,0.3,1.7,0.6,2.5,1C80.6,10.7,80.8,10.8,81,11"/>
			<path fill="#CBDA2A" d="M68.8,9.8c0-0.1,0-0.1,0.1-0.2c0.9-0.8,1.7-1.6,2.8-2.2c0.4-0.2,0.8-0.2,1.2-0.1c0.8,0.3,1.6,0.5,2.4,0.8
				c0.3,0.1,0.6,0.3,1,0.5C76,8.8,75.9,8.9,75.8,9c-0.8,0.5-1.5,1-2.3,1.5c-0.5,0.3-1,0.5-1.5,0.3c-1-0.3-2-0.5-2.9-0.9
				C69,9.9,68.9,9.9,68.8,9.8"/>
			<path fill="#CBDA2A" d="M71.1,6.8c-0.6,0.6-1.3,1.2-2,1.7c-0.3,0.2-0.6,0.4-0.9,0.6c-0.3,0.2-0.6,0.3-1,0.2c-1-0.2-2-0.3-3-0.5
				c-0.1,0-0.1,0-0.3-0.1c0.1-0.2,0.2-0.3,0.3-0.5c0.2-0.3,0.5-0.5,0.8-0.7c0.4-0.4,0.8-0.8,1.2-1.1c0.6-0.5,1.2-0.7,2-0.6
				c0.9,0.2,1.8,0.5,2.7,0.7C70.9,6.7,71,6.8,71.1,6.8"/>
			<path fill="#CBDA2A" d="M65.9,5.6c-0.1,0.2-0.2,0.4-0.3,0.5C65,6.6,64.5,7.1,64,7.7c-0.1,0.1-0.2,0.2-0.3,0.3
				c-0.3,0.5-0.7,0.6-1.3,0.6c-1-0.1-2-0.1-3-0.1c-0.4,0-0.6-0.2-0.3-0.6c0.5-0.8,1.2-1.6,1.9-2.2c0.4-0.3,1-0.4,1.6-0.4
				c0.9,0,1.8,0.1,2.6,0.1C65.5,5.5,65.6,5.5,65.9,5.6"/>
			<path fill="#CBDA2A" d="M54.1,8.6c0-0.1,0-0.2,0-0.2c0.5-1,1-2.1,1.8-3C56.2,5,56.6,4.9,57,4.8c0.9,0,1.7-0.1,2.6,0
				c0.4,0,0.7,0.1,1.1,0.2c-0.1,0.2-0.2,0.3-0.3,0.5c-0.6,0.7-1.1,1.4-1.6,2.2C58.4,8,58,8.4,57.5,8.4c-1,0.1-2,0.2-3,0.2
				C54.4,8.6,54.3,8.6,54.1,8.6"/>
			<path fill="#CBDA2A" d="M55.2,5c-0.4,0.8-0.8,1.6-1.2,2.3c-0.2,0.3-0.4,0.6-0.6,0.9c-0.2,0.3-0.5,0.5-0.8,0.6c-1,0.2-2,0.4-3,0.6
				c-0.1,0-0.2,0-0.3,0c0-0.2,0-0.4,0.1-0.5c0.1-0.3,0.3-0.6,0.5-1c0.2-0.5,0.5-1,0.7-1.5c0.4-0.7,0.9-1.1,1.7-1.3
				C53.1,5.1,54,5,55,4.9C55,4.9,55.1,4.9,55.2,5"/>
			<path fill="#CBDA2A" d="M49.9,5.7c-0.1,0.3-0.1,0.4-0.1,0.6c-0.3,0.7-0.6,1.4-0.9,2.1c-0.1,0.1-0.1,0.2-0.1,0.4
				c-0.1,0.6-0.5,0.8-1,1c-1,0.3-2,0.6-3,0.9c-0.4,0.1-0.6,0-0.5-0.5c0.3-0.9,0.6-1.9,1.2-2.7c0.3-0.5,0.8-0.7,1.3-0.9
				c0.8-0.3,1.7-0.5,2.5-0.8C49.5,5.7,49.7,5.7,49.9,5.7"/>
			<path fill="#CBDA2A" d="M39.3,12.1c0-0.1,0-0.1,0-0.2c0.3-1.1,0.5-2.3,1.1-3.4c0.2-0.4,0.5-0.6,0.9-0.8c0.8-0.2,1.6-0.5,2.4-0.7
				c0.3-0.1,0.7-0.1,1.1-0.2c-0.1,0.2-0.1,0.4-0.2,0.5c-0.3,0.9-0.6,1.7-0.9,2.6c-0.2,0.5-0.5,1-1.1,1.2c-1,0.3-1.9,0.7-2.9,0.9
				C39.5,12.1,39.4,12.1,39.3,12.1"/>
			<path fill="#CBDA2A" d="M39.3,12.1c0-0.1,0-0.1,0-0.2c0.3-1.1,0.5-2.3,1.1-3.4c0.2-0.4,0.5-0.6,0.9-0.8C42,7.5,42.8,7.3,43.6,7
				c0.3-0.1,0.7-0.1,1.1-0.2c-0.1,0.2-0.1,0.4-0.2,0.5c-0.3,0.9-0.6,1.7-0.9,2.6c-0.2,0.5-0.5,1-1.1,1.2c-1,0.3-1.9,0.7-2.9,0.9
				C39.6,12,39.4,12,39.3,12.1"/>
			<path fill="#CBDA2A" d="M39.3,12.1c0-0.1,0-0.1,0-0.2c0.3-1.1,0.5-2.3,1.1-3.4c0.2-0.4,0.5-0.6,0.9-0.8C42,7.5,42.8,7.3,43.6,7
				c0.3-0.1,0.7-0.1,1.1-0.2c-0.1,0.2-0.1,0.4-0.2,0.5c-0.3,0.9-0.6,1.7-0.9,2.6c-0.2,0.5-0.5,1-1.1,1.2c-1,0.3-1.9,0.7-2.9,0.9
				C39.6,12,39.4,12,39.3,12.1"/>
			<path fill="#CBDA2A" d="M39.5,8.3c-0.2,0.9-0.4,1.7-0.7,2.5c-0.1,0.4-0.2,0.7-0.4,1c-0.1,0.4-0.3,0.6-0.6,0.7
				c-0.9,0.4-1.7,0.9-2.6,1.5c-0.1,0-0.1,0.1-0.3,0.1c0-0.2-0.1-0.4-0.1-0.5c0-0.4,0.1-0.7,0.1-1.1c0.1-0.5,0.1-1.1,0.3-1.6
				c0.1-0.7,0.5-1.4,1.3-1.7c0.9-0.4,1.8-0.7,2.7-1C39.3,8.3,39.4,8.3,39.5,8.3"/>
			<path fill="#CBDA2A" d="M34.5,10.4c0,0.3,0.1,0.4,0.1,0.6c-0.1,0.8-0.2,1.5-0.2,2.3c0,0.1,0,0.3,0,0.4c0,0.6-0.2,0.9-0.7,1.2
				l-1.3,0.8c-0.4,0.3-0.8,0.5-1.3,0.8c-0.4,0.2-0.6,0.2-0.6-0.3c0-1,0.1-2,0.4-2.9c0.2-0.5,0.7-0.9,1.1-1.2c0.7-0.5,1.4-1,2.1-1.4
				C34.1,10.6,34.2,10.5,34.5,10.4"/>
			<path fill="#CBDA2A" d="M26.5,19.6c-0.1-0.1-0.1-0.1-0.1-0.1c-0.1-1.2-0.3-2.3-0.1-3.5c0.1-0.4,0.3-0.8,0.6-1
				c0.7-0.5,1.4-1,2.1-1.5c0.3-0.2,0.6-0.3,1-0.5c0,0.2,0,0.4,0,0.6c-0.1,0.9-0.1,1.8-0.1,2.7c0,0.6-0.2,1.1-0.6,1.4
				c-0.8,0.6-1.6,1.3-2.4,1.8C26.8,19.5,26.6,19.5,26.5,19.6"/>
			<path fill="#CBDA2A" d="M25.5,16c0.1,0.9,0.2,1.7,0.2,2.6c0,0.4,0,0.7,0,1.1c0,0.4-0.1,0.7-0.4,0.9c-0.8,0.7-1.5,1.4-2.3,2.2
				c-0.1,0.1-0.1,0.1-0.2,0.2c-0.1-0.2-0.2-0.3-0.2-0.5c-0.1-0.3-0.1-0.7-0.1-1.1c-0.1-0.5-0.1-1.1-0.2-1.6c0-0.7,0.2-1.4,0.7-1.9
				c0.7-0.6,1.5-1.2,2.2-1.8C25.3,16,25.4,16,25.5,16"/>
			<path fill="#CBDA2A" d="M21.4,19.3c0.1,0.2,0.2,0.4,0.2,0.5c0.1,0.8,0.2,1.5,0.3,2.3c0,0.1,0,0.3,0.1,0.4c0.2,0.5,0,1-0.3,1.4
				c-0.7,0.7-1.3,1.5-2,2.3c-0.3,0.3-0.5,0.3-0.6-0.1c-0.3-0.9-0.5-1.9-0.5-2.9c0-0.6,0.4-1,0.7-1.5c0.5-0.7,1.1-1.3,1.7-2
				C21.1,19.6,21.2,19.5,21.4,19.3"/>
			<path fill="#CBDA2A" d="M16.3,30.4c-0.1-0.1-0.1-0.1-0.1-0.1c-0.5-1.1-1-2.1-1.2-3.3c-0.1-0.4,0-0.8,0.3-1.2c0.5-0.7,1-1.4,1.6-2
				c0.2-0.3,0.5-0.5,0.8-0.8c0.1,0.2,0.1,0.4,0.1,0.5c0.2,0.9,0.4,1.8,0.7,2.6c0.1,0.5,0.2,1.1-0.2,1.5c-0.6,0.8-1.1,1.7-1.7,2.4
				C16.5,30.3,16.4,30.3,16.3,30.4"/>
			<path fill="#CBDA2A" d="M14.2,27.3c0.4,0.8,0.7,1.6,1,2.4c0.1,0.4,0.2,0.7,0.3,1c0.1,0.3,0.1,0.7-0.1,1c-0.5,0.9-0.9,1.8-1.4,2.8
				c0,0.1-0.1,0.1-0.2,0.2c-0.1-0.1-0.3-0.3-0.4-0.4c-0.2-0.3-0.3-0.6-0.5-0.9c-0.2-0.5-0.5-1-0.7-1.5c-0.3-0.7-0.3-1.4,0.1-2.1
				c0.5-0.8,1-1.6,1.6-2.4C14.1,27.4,14.1,27.4,14.2,27.3"/>
			<path fill="#CBDA2A" d="M11.5,31.9c0.2,0.2,0.3,0.3,0.4,0.4c0.4,0.7,0.7,1.3,1.1,2c0.1,0.1,0.1,0.2,0.2,0.3
				c0.4,0.4,0.4,0.9,0.2,1.4c-0.4,0.9-0.7,1.9-1,2.9c-0.1,0.4-0.4,0.5-0.6,0.1c-0.6-0.8-1.2-1.6-1.5-2.5c-0.2-0.5,0-1.1,0.1-1.6
				c0.2-0.8,0.6-1.7,0.9-2.5C11.2,32.3,11.3,32.1,11.5,31.9"/>
			<path fill="#CBDA2A" d="M10.5,44.1c-0.1,0-0.1,0-0.2-0.1c-0.8-0.9-1.6-1.7-2.2-2.8c-0.2-0.4-0.2-0.8-0.1-1.2
				c0.2-0.8,0.5-1.6,0.8-2.4c0.1-0.3,0.3-0.6,0.5-1c0.1,0.2,0.2,0.3,0.3,0.4c0.5,0.8,1,1.5,1.6,2.2c0.3,0.5,0.5,1,0.4,1.5
				c-0.3,1-0.5,2-0.9,2.9C10.6,43.9,10.6,44,10.5,44.1"/>
			<path fill="#CBDA2A" d="M7.6,41.8c0.6,0.6,1.2,1.3,1.7,2c0.2,0.3,0.4,0.6,0.7,0.9c0.2,0.3,0.3,0.6,0.2,1c-0.2,1-0.3,2-0.4,3.1
				c0,0.1,0,0.2-0.1,0.3c-0.2-0.1-0.3-0.2-0.5-0.3c-0.3-0.2-0.5-0.5-0.8-0.7c-0.4-0.4-0.8-0.8-1.1-1.2c-0.5-0.6-0.8-1.2-0.6-2
				c0.1-0.5,0.2-0.9,0.3-1.4c0.1-0.5,0.3-0.9,0.4-1.4C7.5,41.9,7.5,41.9,7.6,41.8"/>
			<path fill="#CBDA2A" d="M6.4,47c0.2,0.1,0.4,0.2,0.5,0.3c0.5,0.5,1.1,1.1,1.6,1.6c0.1,0.1,0.2,0.2,0.3,0.3
				c0.5,0.3,0.6,0.8,0.6,1.3c-0.1,1-0.2,2-0.2,3c0,0.4-0.2,0.6-0.6,0.3c-0.8-0.6-1.6-1.2-2.1-2c-0.3-0.5-0.3-1-0.3-1.6
				c0-0.9,0.1-1.7,0.1-2.6C6.2,47.4,6.3,47.3,6.4,47"/>
			<path fill="#CBDA2A" d="M9.1,59C9,59,9,59,8.9,59c-1-0.5-2.1-1-3-1.9c-0.3-0.3-0.5-0.7-0.5-1.1c0-0.9,0-1.7,0-2.6
				c0-0.4,0.1-0.7,0.2-1.1c0.2,0.1,0.3,0.2,0.4,0.3c0.7,0.6,1.4,1.1,2.1,1.7C8.7,54.7,9,55.2,9,55.7c0,1,0.1,2,0.1,3
				C9.2,58.8,9.1,58.9,9.1,59"/>
			<path fill="#CBDA2A" d="M9.1,59C9,59,9,59,8.9,59c-1-0.5-2.1-1-3-1.9c-0.3-0.3-0.5-0.7-0.5-1.1c0-0.9,0-1.7,0-2.6
				c0-0.4,0.1-0.7,0.2-1.1c0.2,0.2,0.3,0.2,0.4,0.3c0.7,0.6,1.4,1.1,2.1,1.7C8.7,54.7,9,55.1,9,55.7c0,1,0.1,2,0.1,3
				C9.1,58.7,9.1,58.8,9.1,59"/>
			<path fill="#CBDA2A" d="M9.1,59C9,59,9,59,8.9,59c-1-0.5-2.1-1-3-1.9c-0.3-0.3-0.5-0.7-0.5-1.1c0-0.9,0-1.7,0-2.6
				c0-0.4,0.1-0.7,0.2-1.1c0.2,0.2,0.3,0.2,0.4,0.3c0.7,0.6,1.4,1.1,2.1,1.7C8.7,54.7,9,55.1,9,55.7c0,1,0.1,2,0.1,3
				C9.1,58.7,9.1,58.8,9.1,59"/>
			<path fill="#CBDA2A" d="M5.5,57.8c0.8,0.4,1.5,0.8,2.3,1.3c0.3,0.2,0.6,0.4,0.9,0.6c0.3,0.2,0.5,0.5,0.6,0.8c0.2,1,0.4,2,0.7,3.1
				c0,0.1,0,0.2,0,0.3c-0.2,0-0.4,0-0.5-0.1c-0.3-0.1-0.6-0.3-1-0.4c-0.5-0.2-1-0.5-1.5-0.7c-0.7-0.4-1.1-0.9-1.3-1.7
				C5.6,60,5.5,59,5.5,58C5.5,58,5.5,57.9,5.5,57.8"/>
			<path fill="#CBDA2A" d="M6.2,63.2c0.3,0,0.4,0,0.6,0.1c0.7,0.3,1.4,0.6,2.1,0.9c0.1,0,0.2,0.1,0.4,0.1c0.6,0.1,0.8,0.5,1,1
				c0.3,1,0.6,2,0.9,2.9c0.1,0.4,0,0.6-0.4,0.5c-0.9-0.3-1.9-0.6-2.7-1.1c-0.5-0.3-0.7-0.8-0.9-1.3c-0.3-0.8-0.5-1.7-0.8-2.5
				C6.3,63.6,6.3,63.4,6.2,63.2"/>
			<path fill="#CBDA2A" d="M12.8,73.4c-0.1,0-0.1,0.1-0.2,0c-1.1-0.2-2.3-0.4-3.4-0.9c-0.4-0.2-0.7-0.5-0.8-0.9
				c-0.3-0.8-0.6-1.6-0.8-2.4c-0.1-0.3-0.1-0.7-0.2-1.1c0.2,0.1,0.4,0.1,0.5,0.2c0.9,0.3,1.7,0.6,2.6,0.9c0.5,0.2,1,0.5,1.2,1
				c0.4,1,0.8,1.9,1,2.9C12.8,73.2,12.8,73.3,12.8,73.4"/>
			<path fill="#CBDA2A" d="M9.1,73.3c0.9,0.1,1.7,0.3,2.5,0.6c0.4,0.1,0.7,0.2,1.1,0.3c0.4,0.1,0.6,0.3,0.8,0.7
				c0.5,0.9,0.9,1.9,1.4,2.8c0,0.1,0,0.1,0.1,0.3c-0.2,0-0.4,0.1-0.5,0c-0.3,0-0.7-0.1-1-0.2c-0.5-0.1-1.1-0.2-1.6-0.3
				c-0.7-0.2-1.3-0.6-1.6-1.3c-0.4-0.9-0.7-1.7-1.1-2.6C9.1,73.5,9.1,73.5,9.1,73.3"/>
			<path fill="#CBDA2A" d="M11.1,78.2c0.3,0,0.4-0.1,0.6,0c0.8,0.1,1.5,0.3,2.2,0.4c0.1,0,0.3,0.1,0.4,0c0.6,0,0.9,0.3,1.2,0.7
				c0.5,0.9,1,1.7,1.6,2.6c0.2,0.4,0.2,0.6-0.3,0.6c-1,0-2-0.1-2.9-0.4c-0.5-0.2-0.9-0.6-1.2-1.1c-0.5-0.7-0.9-1.5-1.4-2.2
				C11.3,78.6,11.2,78.5,11.1,78.2"/>
			<path fill="#CBDA2A" d="M20.2,86.4c-0.1,0.1-0.1,0.1-0.1,0.1c-1.2,0.1-2.3,0.3-3.5,0.1c-0.4-0.1-0.8-0.3-1-0.6
				c-0.5-0.7-1-1.4-1.4-2.1c-0.2-0.3-0.3-0.6-0.5-1c0.2,0,0.4,0,0.6,0c0.9,0.1,1.8,0.1,2.7,0.2c0.6,0,1.1,0.2,1.4,0.6
				c0.6,0.8,1.3,1.6,1.8,2.4C20.1,86.2,20.2,86.3,20.2,86.4"/>
			<path fill="#CBDA2A" d="M16.6,87.4c0.9-0.1,1.7-0.2,2.6-0.2c0.4,0,0.7,0,1.1,0c0.4,0,0.7,0.1,0.9,0.4l0.5,0.6l0.3,0.3
				c0.1,0.1,0.2,0.3,0.3,0.4l1,1.2c0,0.1,0.1,0.1,0.1,0.2c-0.2,0.1-0.3,0.1-0.5,0.2c-0.3,0-0.7,0-1,0c-0.5,0-1.1,0-1.6,0
				c-0.7,0.1-1.4-0.1-1.9-0.7c-0.6-0.7-1.2-1.5-1.8-2.2C16.6,87.6,16.6,87.6,16.6,87.4"/>
			<path fill="#CBDA2A" d="M19.9,91.4c0.3-0.1,0.4-0.2,0.5-0.2c0.8,0,1.5,0,2.3-0.1c0.1,0,0.3,0,0.4-0.1c0.3-0.1,0.5-0.1,0.7-0.1
				c0.1,0,0.2,0,0.3,0.1c0,0,0.1,0,0.1,0.1c0.1,0,0.1,0.1,0.2,0.1c0.8,0.6,1.6,1.3,2.5,1.9c0.3,0.3,0.3,0.5-0.1,0.6
				c-0.9,0.3-1.9,0.6-2.9,0.6c-0.6,0-1-0.3-1.5-0.6l-0.3-0.2c-0.1-0.1-0.2-0.2-0.3-0.2c-0.2-0.2-0.4-0.3-0.6-0.5
				c-0.4-0.4-0.7-0.7-1-1C20.1,91.8,20,91.6,19.9,91.4"/>
			<path fill="#CBDA2A" d="M31.1,96.4C31,96.4,31,96.5,31,96.5c-1,0.5-2.1,1.1-3.3,1.3c-0.4,0.1-0.8,0-1.2-0.3c-0.7-0.5-1.4-1-2-1.5
				c-0.3-0.2-0.5-0.5-0.8-0.8c0.2-0.1,0.4-0.1,0.5-0.2c0.9-0.3,1.8-0.5,2.6-0.8c0.5-0.1,1.1-0.2,1.6,0.2c0.8,0.6,1.7,1.1,2.5,1.7
				C30.9,96.2,31,96.3,31.1,96.4"/>
			<path fill="#CBDA2A" d="M28,98.5c0.8-0.4,1.6-0.7,2.4-1c0.3-0.1,0.7-0.3,1-0.4c0.3-0.1,0.7-0.1,1,0c0.9,0.4,1.8,0.8,2.7,1.1
				c0.1,0,0.1,0.1,0.3,0.1c-0.1,0.2-0.2,0.3-0.3,0.4c-0.3,0.2-0.6,0.4-0.9,0.6c-0.5,0.3-0.9,0.6-1.4,0.8c-0.7,0.3-1.4,0.4-2.1,0
				c-0.9-0.4-1.7-1-2.5-1.5C28.1,98.7,28.1,98.6,28,98.5"/>
			<path fill="#CBDA2A" d="M32.8,101.1c0.2-0.2,0.3-0.3,0.4-0.4c0.7-0.4,1.3-0.8,1.9-1.3c0.1-0.1,0.2-0.1,0.3-0.2
				c0.5-0.4,1.1-0.3,1.4-0.1l2.9,1.1c0.4,0.2,0.5,0.4,0.1,0.6c-0.8,0.5-1.7,1.1-2.6,1.4c-0.5,0.2-1.1,0-1.6-0.1
				c-0.5-0.2-0.9-0.3-1.2-0.4l-0.2-0.1l-0.3-0.1c-0.2-0.1-0.4-0.1-0.7-0.2C33.2,101.4,33.1,101.3,32.8,101.1"/>
			<path fill="#CBDA2A" d="M45.1,102.2c0,0.1,0,0.1-0.1,0.2c-0.8,0.8-1.7,1.6-2.8,2.1c-0.4,0.2-0.8,0.2-1.2,0.1
				c-0.8-0.3-1.6-0.6-2.4-0.9c-0.3-0.1-0.6-0.3-1-0.5c0.2-0.1,0.3-0.2,0.5-0.3c0.8-0.5,1.5-1,2.3-1.5c0.5-0.3,1-0.5,1.5-0.3
				c1,0.3,1.9,0.6,2.8,0.9C44.9,102.1,45,102.2,45.1,102.2"/>
			<path fill="#CBDA2A" d="M45,102.2c0,0.1,0,0.1-0.1,0.2c-0.9,0.8-1.7,1.6-2.8,2.1c-0.4,0.2-0.8,0.2-1.2,0.1
				c-0.8-0.3-1.6-0.6-2.4-0.9c-0.3-0.1-0.6-0.3-1-0.5c0.2-0.1,0.3-0.2,0.5-0.3c0.8-0.5,1.5-1,2.3-1.5c0.5-0.3,1-0.5,1.5-0.3
				c1,0.3,1.9,0.6,2.8,0.9C44.8,102.1,44.9,102.1,45,102.2"/>
			<path fill="#CBDA2A" d="M45,102.2c0,0.1,0,0.1-0.1,0.2c-0.9,0.8-1.7,1.6-2.8,2.1c-0.4,0.2-0.8,0.2-1.2,0.1
				c-0.8-0.3-1.6-0.6-2.4-0.9c-0.3-0.1-0.6-0.3-1-0.5c0.2-0.1,0.3-0.2,0.5-0.3c0.8-0.5,1.5-1,2.3-1.5c0.5-0.3,1-0.5,1.5-0.3
				c1,0.3,1.9,0.6,2.8,0.9C44.8,102.1,44.9,102.1,45,102.2"/>
			<path fill="#CBDA2A" d="M42.7,105.1c0.7-0.6,1.3-1.2,2-1.7c0.3-0.2,0.6-0.4,0.9-0.7c0.3-0.2,0.6-0.3,0.9-0.3
				c1,0.1,2.1,0.3,3.1,0.4c0.1,0,0.2,0,0.3,0.1c-0.1,0.2-0.2,0.3-0.3,0.5c-0.2,0.3-0.5,0.5-0.7,0.8c-0.4,0.4-0.8,0.8-1.2,1.2
				c-0.6,0.5-1.2,0.8-2,0.7c-1-0.2-1.9-0.4-2.9-0.7C42.8,105.3,42.8,105.2,42.7,105.1"/>
			<path fill="#CBDA2A" d="M48,106.3c0.1-0.2,0.2-0.4,0.3-0.5c0.5-0.6,1-1.1,1.5-1.7c0.1-0.1,0.2-0.2,0.3-0.3
				c0.3-0.5,0.7-0.6,1.3-0.6c1,0.1,2.1,0.1,3.1,0.2c0.4,0,0.6,0.2,0.3,0.6c-0.6,0.8-1.2,1.6-2,2.1c-0.4,0.3-1,0.4-1.6,0.4
				c-0.9,0-1.7,0-2.6-0.1C48.4,106.4,48.3,106.4,48,106.3"/>
			<path fill="#CBDA2A" d="M59.8,103.7c0,0.1,0,0.2,0,0.2c-0.6,1-1.1,2.1-2,2.9c-0.3,0.3-0.7,0.4-1.1,0.4c-0.8,0-1.7,0-2.5-0.1
				c-0.3,0-0.7-0.1-1.1-0.2c0.1-0.2,0.2-0.3,0.3-0.4c0.6-0.7,1.1-1.4,1.7-2.1c0.4-0.4,0.8-0.8,1.4-0.7l0.8,0l0.7,0c0.5,0,1,0,1.5,0
				C59.6,103.6,59.7,103.7,59.8,103.7"/>
			<path fill="#CBDA2A" d="M58.5,107.2c0.4-0.8,0.9-1.5,1.4-2.2c0.2-0.3,0.4-0.6,0.6-0.9c0.2-0.3,0.5-0.5,0.8-0.5c1-0.2,2-0.4,3-0.6
				c0.1,0,0.2,0,0.3,0c0,0.2,0,0.4-0.1,0.5c-0.1,0.3-0.3,0.6-0.4,1c-0.2,0.5-0.5,1-0.7,1.5c-0.4,0.7-0.9,1.1-1.7,1.2
				c-1,0.1-1.9,0.2-2.9,0.2C58.7,107.3,58.6,107.2,58.5,107.2"/>
			<path fill="#CBDA2A" d="M63.9,106.7c0.1-0.3,0.1-0.4,0.1-0.6c0.3-0.7,0.6-1.4,0.9-2.1c0-0.1,0.1-0.2,0.1-0.4c0.1-0.6,0.5-0.8,1-1
				c0.9-0.3,1.9-0.7,2.8-1c0.4-0.2,0.6,0,0.5,0.4c-0.2,1-0.5,1.9-1,2.8c-0.3,0.5-0.8,0.7-1.3,0.9c-0.8,0.3-1.7,0.6-2.5,0.8
				C64.4,106.7,64.2,106.7,63.9,106.7"/>
			<path fill="#CBDA2A" d="M74.2,99.7c0,0.1,0,0.1,0,0.2c-0.3,1.1-0.5,2.3-0.9,3.4c-0.2,0.4-0.4,0.7-0.8,0.8
				c-0.8,0.3-1.5,0.6-2.3,0.9c-0.3,0.1-0.7,0.2-1.1,0.3c0.1-0.2,0.1-0.4,0.1-0.5c0.3-0.9,0.5-1.8,0.7-2.6c0.1-0.5,0.4-1,1-1.3
				c1-0.4,1.9-0.9,3-1.1C74,99.7,74.1,99.7,74.2,99.7"/>
			<path fill="#CBDA2A" d="M74.1,103.5c0.1-0.9,0.3-1.7,0.6-2.5c0.1-0.4,0.3-0.7,0.4-1c0.1-0.3,0.4-0.6,0.8-0.7
				c0.9-0.4,1.9-0.8,2.8-1.2c0.1,0,0.1,0,0.3-0.1c0,0.2,0,0.4,0,0.5c-0.1,0.3-0.2,0.7-0.2,1c-0.1,0.5-0.3,1.1-0.4,1.6
				c-0.2,0.7-0.7,1.3-1.4,1.6c-0.8,0.3-1.7,0.6-2.5,0.9C74.3,103.5,74.2,103.5,74.1,103.5"/>
			<path fill="#CBDA2A" d="M79,101.7c0-0.3,0-0.4,0-0.6c0.2-0.7,0.3-1.5,0.5-2.2c0-0.1,0.1-0.3,0.1-0.4c0-0.6,0.3-0.9,0.7-1.2
				c0.9-0.5,1.7-1,2.5-1.6c0.3-0.2,0.6-0.2,0.6,0.3c0,1,0,2-0.4,2.9c-0.2,0.5-0.7,0.9-1.1,1.2c-0.7,0.5-1.5,0.9-2.3,1.3
				C79.4,101.6,79.3,101.6,79,101.7"/>
			<path fill="#CBDA2A" d="M87.2,92.7c0.1,0.1,0.1,0.1,0.1,0.1c0.1,1.2,0.3,2.3,0.2,3.5c0,0.4-0.2,0.8-0.6,1c-0.7,0.5-1.4,1-2.1,1.5
				c-0.3,0.2-0.6,0.3-1,0.5c0-0.2,0-0.4,0-0.6c0.1-0.9,0.1-1.8,0.1-2.7c0-0.6,0.2-1.1,0.6-1.4c0.8-0.6,1.5-1.3,2.4-1.9
				C86.9,92.8,87,92.7,87.2,92.7"/>
			<path fill="#CBDA2A" d="M88.2,96.2c-0.2-0.9-0.2-1.7-0.2-2.6c0-0.4,0-0.7,0-1.1c0-0.4,0.1-0.7,0.4-0.9c0.8-0.7,1.5-1.4,2.2-2.2
				c0.1-0.1,0.1-0.1,0.2-0.2c0.1,0.2,0.2,0.3,0.2,0.5c0.1,0.3,0.1,0.7,0.2,1c0.1,0.5,0.1,1.1,0.2,1.6c0.1,0.7-0.1,1.4-0.7,2
				c-0.7,0.6-1.4,1.2-2.2,1.8C88.4,96.2,88.4,96.2,88.2,96.2"/>
			<path fill="#CBDA2A" d="M92.3,92.8c-0.1-0.2-0.2-0.4-0.2-0.5c-0.1-0.8-0.2-1.5-0.4-2.2c0-0.1,0-0.3-0.1-0.4c-0.2-0.5,0-1,0.3-1.3
				c0.6-0.8,1.2-1.5,1.7-2.4c0.2-0.3,0.5-0.4,0.6,0.1c0.2,0.4,0.4,0.9,0.5,1.4c0.1,0.5,0.2,1,0.3,1.5c0,0.6-0.3,1.1-0.6,1.5
				c-0.5,0.7-1.1,1.4-1.7,2.1C92.6,92.5,92.5,92.6,92.3,92.8"/>
			<path fill="#CBDA2A" d="M96.8,81.1c0.1,0.1,0.1,0.1,0.1,0.1c0.5,1.1,1.1,2.1,1.4,3.3c0.1,0.4,0.1,0.8-0.2,1.2l-0.6,1.1
				c-0.2,0.4-0.5,0.8-0.7,1.1c-0.2,0.3-0.5,0.6-0.8,0.9c-0.1-0.2-0.1-0.4-0.2-0.5c-0.3-0.9-0.6-1.7-0.9-2.6c-0.2-0.5-0.3-1,0-1.6
				c0.5-0.9,1-1.8,1.6-2.7C96.6,81.3,96.7,81.2,96.8,81.1"/>
			<path fill="#CBDA2A" d="M96.7,81.2c0.1,0.1,0.1,0.1,0.1,0.1c0.5,1.1,1.1,2.1,1.4,3.3c0.1,0.4,0.1,0.8-0.2,1.2
				c-0.2,0.4-0.4,0.7-0.6,1.1c-0.2,0.4-0.5,0.8-0.7,1.1c-0.2,0.3-0.5,0.6-0.8,0.9c-0.1-0.2-0.1-0.4-0.2-0.5
				c-0.3-0.9-0.6-1.7-0.9-2.6c-0.2-0.5-0.3-1,0-1.6c0.5-0.9,1-1.8,1.6-2.7C96.5,81.3,96.6,81.3,96.7,81.2"/>
		</g>
	</g>
</g>
</svg>