<!-- Generator: Adobe Illustrator 17.1.0, SVG Export Plug-In  -->
<svg version="1.1"
	 xmlns="http://www.w3.org/2000/svg" xmlns:xlink="http://www.w3.org/1999/xlink" xmlns:a="http://ns.adobe.com/AdobeSVGViewerExtensions/3.0/"
	 x="0px" y="0px" width="312.5px" height="221px" viewBox="0 0 312.5 221" enable-background="new 0 0 312.5 221"
	 xml:space="preserve">
<defs>
</defs>
<g>
	<path fill="#FFFFFF" d="M57.5,150.1c0-1.1,0.9-2,2-2h0c1.1,0,2,0.9,2,2l0,0c0,1.1-0.9,2-2,2l0,0l0,0l0,0
		C58.4,152.1,57.5,151.2,57.5,150.1z M65.7,150.1c0-1.1,0.8-2,1.9-2.1l0,0c1.1-0.1,2,0.8,2.1,1.9l0,0c0,1.1-0.8,2-1.9,2.1l0,0l0,0
		l0,0c0,0-0.1,0-0.1,0l0,0C66.7,152,65.8,151.2,65.7,150.1z M51.2,151.7c-1.1-0.1-1.9-1-1.8-2.2l0,0c0.1-1.1,1-1.9,2.2-1.8l0,0
		c1.1,0.1,1.9,1,1.8,2.2l0,0c-0.1,1-1,1.8-2,1.8l0,0C51.3,151.7,51.2,151.7,51.2,151.7z M73.9,149.6c-0.1-1.1,0.7-2.1,1.8-2.2l0,0
		c1.1-0.1,2.1,0.7,2.2,1.8l0,0c0.1,1.1-0.7,2.1-1.8,2.2l0,0c-0.1,0-0.2,0-0.2,0l0,0C74.9,151.4,74.1,150.6,73.9,149.6z M42.9,150.8
		c-1.1-0.1-1.9-1.1-1.7-2.2l0,0c0.1-1.1,1.2-1.9,2.2-1.7l0,0c1.1,0.1,1.9,1.1,1.7,2.2l0,0c-0.1,1-1,1.7-2,1.7l0,0
		C43.1,150.8,43,150.8,42.9,150.8z M82.1,148.5c-0.2-1.1,0.5-2.1,1.6-2.4l0,0c1.1-0.2,2.1,0.5,2.3,1.6l0,0c0.2,1.1-0.5,2.1-1.6,2.3
		l0,0l0,0l0,0c-0.1,0-0.3,0-0.4,0l0,0C83.1,150.1,82.3,149.5,82.1,148.5z M34.7,149.5c-1.1-0.2-1.8-1.2-1.6-2.3l0,0
		c0.2-1.1,1.2-1.8,2.3-1.6l0,0c1.1,0.2,1.8,1.2,1.6,2.3l0,0c-0.2,1-1,1.6-2,1.6l0,0C34.9,149.6,34.8,149.6,34.7,149.5z M90.1,146.8
		c-0.3-1.1,0.3-2.2,1.4-2.5l0,0c1.1-0.3,2.2,0.3,2.5,1.4l0,0c0.3,1.1-0.3,2.2-1.4,2.5l0,0c-0.2,0-0.4,0.1-0.5,0.1l0,0
		C91.2,148.2,90.4,147.7,90.1,146.8z M26.5,147.9C26.5,147.9,26.5,147.9,26.5,147.9L26.5,147.9c-1.1-0.3-1.8-1.3-1.5-2.4l0,0
		c0.2-1.1,1.3-1.8,2.4-1.5l0,0c1.1,0.2,1.8,1.3,1.5,2.4l0,0c-0.2,0.9-1,1.6-2,1.6l0,0C26.8,147.9,26.7,147.9,26.5,147.9z M98,144.4
		c-0.4-1,0.1-2.2,1.1-2.6l0,0c1-0.4,2.2,0.1,2.6,1.2l0,0c0.4,1-0.1,2.2-1.1,2.6l0,0l0,0l0,0c-0.2,0.1-0.5,0.1-0.7,0.1l0,0
		C99,145.7,98.3,145.2,98,144.4z M105.6,141.2c-0.5-1-0.1-2.2,0.9-2.7l0,0c1-0.5,2.2-0.1,2.7,0.9l0,0c0.5,1,0.1,2.2-0.9,2.7l0,0
		c-0.3,0.2-0.6,0.2-0.9,0.2l0,0C106.6,142.3,105.9,141.9,105.6,141.2z M112.8,137.4c-0.6-0.9-0.3-2.2,0.6-2.8l0,0
		c0.9-0.6,2.2-0.3,2.8,0.6l0,0c0.6,0.9,0.3,2.2-0.6,2.8l0,0c-0.3,0.2-0.7,0.3-1.1,0.3l0,0C113.8,138.3,113.2,138,112.8,137.4z
		 M119.6,132.8c-0.7-0.9-0.5-2.1,0.3-2.8l0,0c0.9-0.7,2.1-0.5,2.8,0.3l0,0c0.7,0.9,0.5,2.1-0.3,2.8l0,0c-0.4,0.3-0.8,0.4-1.2,0.4
		l0,0C120.6,133.6,120,133.3,119.6,132.8z M126,127.5c-0.8-0.8-0.8-2.1,0-2.8l0,0c0.8-0.8,2.1-0.8,2.8,0l0,0c0.8,0.8,0.8,2.1,0,2.8
		l0,0l0,0l0,0c-0.4,0.4-0.9,0.6-1.4,0.6l0,0C126.9,128.1,126.4,127.9,126,127.5z"/>
</g>
<g>
	<g>
		<path fill="#AEB1B1" d="M0.4,126.1c0,0,10.4,1.4,17.5,5.9c7.1,4.5,25.7,14.5,25.7,14.5v1.6c0,0-37.5-16.7-39.4-17.8
			C1.1,128.6,0.4,126.1,0.4,126.1z"/>
	</g>
	<g>
		<path fill="#D5DDDD" d="M42.9,147l-27.6-15.7c0,0-6.8-3.9-11.9-4.2l-2.5-0.6l-0.5-0.4c0,0,6.9,0.9,10.7,2.5
			c3.7,1.7,3.8,1.7,8.1,4.1s24.5,13.8,24.5,13.8L42.9,147z"/>
	</g>
	<g>
		<path fill="#BF582B" d="M43.6,148.2L32,154.9L3.1,138.2c0,0-2.9-5.6-1.5-10.5c0,0,5.4-0.4,12.8,3.7
			C21.9,135.6,43.6,148.2,43.6,148.2z"/>
	</g>
	<g>
		<polygon fill="#E6E6E5" points="43.6,146.6 32,153.3 32,160 43.6,153.4 		"/>
	</g>
	<g>
		<polygon fill="#993D1C" points="0.9,133 33.3,151.4 33,151.6 0.9,133.2 		"/>
	</g>
	<g>
		<polygon fill="#993D1C" points="11.8,130.6 40.9,147.1 40.5,147.3 10.5,130 		"/>
	</g>
	<g>
		<polygon fill="#993D1C" points="0.9,130.5 35.5,150.2 35.2,150.4 0.8,130.7 		"/>
	</g>
	<g>
		<polygon fill="#993D1C" points="0.9,128.5 37.4,149.1 37,149.3 0.9,128.7 		"/>
	</g>
	<g>
		<polygon fill="#993D1C" points="3.9,128.1 39.2,148.1 38.8,148.3 3.4,128 		"/>
	</g>
	<g>
		<polygon fill="#96725A" points="2.4,135.7 32.7,152.9 32.4,153.1 2.6,136 		"/>
	</g>
	<g>
		<path fill="#4D5050" d="M10.8,115.6c0,0,3.1,14.1,3.2,14.7c0,0,0.5,0.2,0.5,0.2c0,0-3.6-15-3.6-15L10.8,115.6z"/>
	</g>
	<g>
		<path fill="#4D5050" d="M11.1,115.5c0,0,4.4,15.1,4.6,15.7c0,0,0.3,0.2,0.3,0.2c0,0-4.8-15.9-4.8-15.9H11.1z"/>
	</g>
	<g>
		<path fill="#4D5050" d="M11.4,115.5c0,0,6.7,16.6,6.9,17.2c0,0,0.2,0.1,0.4,0.2c0,0-7.1-17.5-7.1-17.5H11.4z"/>
	</g>
	<g>
		<g>
			<polygon fill="#8E9595" points="10.2,134.2 11.8,134.2 11.5,115.5 10.5,115.5 			"/>
		</g>
		<g>
			<path fill="#8E9595" d="M11.8,134.3c0,0,0,0.5-0.8,0.5c-0.8,0-0.8-0.6-0.8-0.6l1.6-0.1V134.3z"/>
		</g>
	</g>
	<g>
		<path fill="#B5BCBC" d="M11.2,115.8L11,134.2c0,0,0.3,0.3,0.6-0.1c0.2-0.4-0.1-18.3-0.1-18.3H11.2z"/>
	</g>
	<g>
		<path fill="#C7C7C7" d="M32,153.3L3.3,136.9c0,0-2-6.2-1.8-8.3l0.3-1l-1.4-1.5c0,0-0.5,2.4-0.3,4.5c0.1,1.4-0.1,5.3,2.8,12.9
			L32,160V153.3z"/>
	</g>
	<g>
		<polygon fill="#D5DDDD" points="43,146.3 31.5,153 32,153.4 43.6,146.6 		"/>
	</g>
	<g>
		<path fill="#D5DDDD" d="M32.4,152.7L3.2,136c0,0-1.5-2.5-1.7-4.9c-0.2-2.5,0-3.4,0-3.4l-1.2-0.3c0,0,0.1,6.9,2.9,9.5L32,153.3
			L32.4,152.7z"/>
	</g>
	<g>
		<path fill="#4D5050" d="M11,115.5c0,0-0.3,24.1-0.5,25c0,0-0.5-0.3-0.5-0.3c0,0,0.8-24.8,0.8-24.8H11z"/>
	</g>
	<g>
		<path fill="#4D5050" d="M10.6,115.5c0,0-2.1,23-2.3,24c0,0-0.5-0.3-0.5-0.3c0,0,2.6-23.7,2.6-23.7H10.6z"/>
	</g>
	<g>
		<path fill="#4D5050" d="M10.6,115.5c0,0-4.2,21.7-4.4,22.7c0,0-0.5-0.3-0.5-0.3c0,0,4.7-22.4,4.7-22.4H10.6z"/>
	</g>
	<g>
		<g>
			<polygon fill="#D5DDDD" points="36.5,147.4 36.5,140.6 30.4,144.2 30.4,150.9 			"/>
		</g>
		<g>
			<path fill="#CFD1D2" d="M18.7,144.2l11.7,6.7v-6.7c0,0-11.9-6.9-11.7-6.7C18.9,137.7,18.7,144.2,18.7,144.2z"/>
		</g>
		<g>
			<g>
				<polygon fill="#8DB33C" points="39.7,140.9 39.7,139.7 31.1,144.6 31.1,145.8 				"/>
			</g>
			<g>
				<path fill="#94C73D" d="M14.6,136.3l16.6,9.5v-1.1l-16.6-9.5C14.6,135.4,14.6,136.3,14.6,136.3z"/>
			</g>
			<g>
				<polygon fill="#A9D42D" points="39.7,139.7 23.2,130.4 14.6,135.1 31.1,144.6 				"/>
			</g>
		</g>
		<g>
			<g>
				<path fill="#898989" d="M26.6,144.6l0.4-0.2c0,0,0.4-0.3,1.1,0.4c0.7,0.6,0.8,1.4,0.6,1.9c0,0-0.1,0.2-0.1,0.3l-0.4,0.2
					L26.6,144.6z"/>
			</g>
			<g>
				<path fill="#A5A4A4" d="M27.3,147.2c0.3,0.1,1.2,0.2,1.2-0.8c0-1.1-0.8-1.7-1.2-1.9c-0.2-0.1-1.1-0.1-1.1,0.7
					C26.2,145.8,26.3,146.7,27.3,147.2z"/>
			</g>
			<g>
				<path fill="#008A93" d="M27.3,146.9c0.2,0.1,0.9,0.1,0.9-0.6c0-0.9-0.6-1.4-0.9-1.5c-0.2-0.1-0.8-0.1-0.9,0.6
					C26.4,145.4,26.4,146.5,27.3,146.9z"/>
			</g>
			<g>
				<path fill="#043A63" d="M27.3,144.8c0,0-0.7,0-0.7,0.6c0,0.6,0.2,1.1,0.3,1.1c0,0-0.2-0.2-0.4-0.9
					C26.3,145.1,26.8,144.7,27.3,144.8z"/>
			</g>
			<g>
				<path fill="#00D1D2" d="M27.2,145c0,0,0.6,0.4,0.7,0.9c0.1,0.5,0,0.8-0.2,0.8c0,0-0.8-1-0.8-1.3C27,145,27.2,145,27.2,145z"/>
			</g>
		</g>
		<g>
			<g>
				<path fill="#898989" d="M19.8,140.9l0.4-0.2c0,0,0.4-0.3,1.1,0.4c0.7,0.6,0.8,1.4,0.6,1.9c0,0-0.1,0.2-0.1,0.3l-0.4,0.2
					L19.8,140.9z"/>
			</g>
			<g>
				<path fill="#A5A4A4" d="M20.6,143.4c0.3,0.1,1.2,0.2,1.2-0.8c0-1.1-0.8-1.7-1.2-1.9c-0.2-0.1-1.1-0.1-1.1,0.7
					C19.4,142.1,19.6,143,20.6,143.4z"/>
			</g>
			<g>
				<path fill="#008A93" d="M20.5,143.2c0.2,0.1,0.9,0.1,0.9-0.6c0-0.9-0.6-1.4-0.9-1.5c-0.2-0.1-0.8-0.1-0.9,0.6
					C19.7,141.7,19.7,142.8,20.5,143.2z"/>
			</g>
			<g>
				<path fill="#043A63" d="M20.5,141.1c0,0-0.7,0-0.7,0.6c0,0.6,0.2,1.1,0.3,1.1c0,0-0.2-0.2-0.4-0.9C19.6,141.3,20,141,20.5,141.1
					z"/>
			</g>
			<g>
				<path fill="#00D1D2" d="M20.4,141.3c0,0,0.6,0.4,0.7,0.9c0.1,0.5,0,0.8-0.2,0.8c0,0-0.8-1-0.8-1.3S20.4,141.3,20.4,141.3z"/>
			</g>
		</g>
		<g>
			<polygon fill="#043A63" points="35.2,148.2 35.3,144.2 32.9,145.6 32.9,149.5 			"/>
		</g>
	</g>
	<g>
		<ellipse fill="#B5BCBC" cx="11.1" cy="115.6" rx="0.6" ry="0.3"/>
	</g>
	<g>
		<polygon fill="#4D5050" points="11.1,115.5 11.1,110.5 10.9,110.5 10.9,115.5 		"/>
	</g>
	<g>
		<path fill="#F9AE40" d="M11,114.3c0,0,1.8,0.3,2.2,0.9c0.4,0.8,2,0.6,2.1,0.6c0.1-0.1,0-3.5,0-3.5s-1.7,0.1-1.8-0.4
			c-0.1-0.5-2.4-1.1-2.4-1.1"/>
	</g>
	<g>
		<polygon fill="#B8700F" points="13,115 13.3,115.3 13.5,111.8 13.2,111.6 		"/>
	</g>
	<g>
		<polygon fill="#AEB1B1" points="34.6,144.5 35.1,144.2 35.1,148.2 34.5,148.5 		"/>
	</g>
	<g>
		<g>
			<path fill="#941D26" d="M24.5,151.9c0.7-0.5,0.7-1.7-0.1-2.8c-0.7-1.1-1.9-1.7-2.6-1.2c-0.7,0.5-1.5,1.1-0.2,3
				C22.9,152.8,23.8,152.3,24.5,151.9z M23.2,151.4c-0.3,0.2-0.9-0.1-1.3-0.7c-0.4-0.6-0.4-1.3-0.1-1.5c0.3-0.2,0.9,0.1,1.3,0.7
				C23.5,150.5,23.6,151.1,23.2,151.4z"/>
		</g>
		<g>
			<path fill="#941D26" d="M22.1,149.1c0,0-0.4,0.4,0.2,1.3c0.6,0.9,1.1,0.8,1.1,0.8s0.1,0.9-0.6,0.7c-0.7-0.3-2.1-2.2-1.6-2.6
				C21.7,148.9,22.1,149.1,22.1,149.1z"/>
		</g>
		<g>
			<path fill="#DB404B" d="M24,152.2c0.7-0.5,0.7-1.7-0.1-2.8c-0.7-1.1-1.9-1.7-2.6-1.2c-0.7,0.5-0.7,1.7,0.1,2.8
				C22.2,152.1,23.3,152.6,24,152.2z M23.2,151.4c-0.3,0.2-0.9-0.1-1.3-0.7c-0.4-0.6-0.4-1.3-0.1-1.5c0.3-0.2,0.9,0.1,1.3,0.7
				C23.5,150.5,23.6,151.1,23.2,151.4z"/>
		</g>
		<g>
			<path fill="#FFFFFF" d="M24.2,149.8c0,0-0.1-0.2-0.3-0.5c-0.1-0.1-0.4-0.5-0.4-0.5l-0.7,0.8l0.3,0.5L24.2,149.8z"/>
		</g>
		<g>
			<path fill="#FFFFFF" d="M21.8,151.4c0,0-0.2-0.2-0.3-0.5c-0.1-0.1-0.3-0.5-0.3-0.5l0.6,0l0.3,0.5L21.8,151.4z"/>
		</g>
		<g>
			<path fill="#D1D1D1" d="M24,148.6l-0.4,0.3c0,0,0.5,0.5,0.6,1l0.4-0.3C24.7,149.5,24.3,148.7,24,148.6z"/>
		</g>
		<g>
			<path fill="#D1D1D1" d="M22.2,150l-0.4,0.3c0,0,0,0.1,0.3,0.5l0.4-0.3C22.5,150.7,22.4,150.5,22.2,150z"/>
		</g>
		<g>
			<path fill="#FFFFFF" d="M21.7,149.3l-0.6-0.7c0,0,0.3-0.5,0.8-0.6l0.2,1.1C22,149.1,21.7,149.1,21.7,149.3z"/>
		</g>
		<g>
			<path fill="#FFFFFF" d="M23,151.4c0,0,0.2,0,0.3-0.2s0,0,0,0l0.8,0.8c0,0-0.4,0.4-0.7,0.3L23,151.4z"/>
		</g>
	</g>
	<g>
		<g>
			<path fill="#941D26" d="M19.1,149.1c0.7-0.5,0.7-1.7-0.1-2.8c-0.7-1.1-1.9-1.7-2.6-1.2c-0.7,0.5-1.5,1.1-0.2,3
				C17.5,150.1,18.4,149.6,19.1,149.1z M17.9,148.6c-0.3,0.2-0.9-0.1-1.3-0.7s-0.4-1.3-0.1-1.5c0.3-0.2,0.9,0.1,1.3,0.7
				C18.2,147.7,18.2,148.4,17.9,148.6z"/>
		</g>
		<g>
			<path fill="#941D26" d="M16.8,146.3c0,0-0.4,0.4,0.2,1.3c0.6,0.9,1.1,0.8,1.1,0.8s0.1,0.9-0.6,0.7c-0.7-0.3-2.1-2.2-1.6-2.6
				S16.8,146.3,16.8,146.3z"/>
		</g>
		<g>
			<path fill="#DB404B" d="M18.7,149.4c0.7-0.5,0.7-1.7-0.1-2.8c-0.7-1.1-1.9-1.7-2.6-1.2c-0.7,0.5-0.7,1.7,0.1,2.8
				C16.8,149.3,18,149.9,18.7,149.4z M17.9,148.6c-0.3,0.2-0.9-0.1-1.3-0.7s-0.4-1.3-0.1-1.5c0.3-0.2,0.9,0.1,1.3,0.7
				C18.2,147.7,18.2,148.4,17.9,148.6z"/>
		</g>
		<g>
			<path fill="#FFFFFF" d="M18.9,147.1c0,0-0.1-0.2-0.3-0.5c-0.1-0.1-0.4-0.5-0.4-0.5l-0.7,0.8l0.3,0.5L18.9,147.1z"/>
		</g>
		<g>
			<path fill="#FFFFFF" d="M16.4,148.6c0,0-0.2-0.2-0.3-0.5c-0.1-0.1-0.3-0.5-0.3-0.5l0.6,0l0.3,0.5L16.4,148.6z"/>
		</g>
		<g>
			<path fill="#D1D1D1" d="M18.7,145.8l-0.4,0.3c0,0,0.5,0.5,0.6,1l0.4-0.3C19.3,146.8,18.9,146,18.7,145.8z"/>
		</g>
		<g>
			<path fill="#D1D1D1" d="M16.8,147.3l-0.4,0.3c0,0,0,0.1,0.3,0.5l0.4-0.3C17.2,147.9,17,147.7,16.8,147.3z"/>
		</g>
		<g>
			<path fill="#FFFFFF" d="M16.3,146.5l-0.6-0.7c0,0,0.3-0.5,0.8-0.6l0.2,1.1C16.7,146.4,16.3,146.4,16.3,146.5z"/>
		</g>
		<g>
			<path fill="#FFFFFF" d="M17.7,148.7c0,0,0.2,0,0.3-0.2s0,0,0,0l0.8,0.8c0,0-0.4,0.4-0.7,0.3L17.7,148.7z"/>
		</g>
	</g>
	<g>
		<g>
			<path fill="#941D26" d="M14.2,146.3c0.7-0.5,0.7-1.7-0.1-2.8c-0.7-1.1-1.9-1.7-2.6-1.2c-0.7,0.5-1.5,1.1-0.2,3
				C12.6,147.2,13.5,146.7,14.2,146.3z M13,145.7c-0.3,0.2-0.9-0.1-1.3-0.7c-0.4-0.6-0.4-1.3-0.1-1.5c0.3-0.2,0.9,0.1,1.3,0.7
				S13.3,145.5,13,145.7z"/>
		</g>
		<g>
			<path fill="#941D26" d="M11.9,143.5c0,0-0.4,0.4,0.2,1.3s1.1,0.8,1.1,0.8s0.1,0.9-0.6,0.7c-0.7-0.3-2.1-2.2-1.6-2.6
				S11.9,143.5,11.9,143.5z"/>
		</g>
		<g>
			<path fill="#DB404B" d="M13.8,146.5c0.7-0.5,0.7-1.7-0.1-2.8c-0.7-1.1-1.9-1.7-2.6-1.2s-0.7,1.7,0.1,2.8
				C11.9,146.4,13.1,147,13.8,146.5z M13,145.7c-0.3,0.2-0.9-0.1-1.3-0.7c-0.4-0.6-0.4-1.3-0.1-1.5c0.3-0.2,0.9,0.1,1.3,0.7
				S13.3,145.5,13,145.7z"/>
		</g>
		<g>
			<path fill="#FFFFFF" d="M14,144.2c0,0-0.1-0.2-0.3-0.5c-0.1-0.1-0.4-0.5-0.4-0.5l-0.7,0.8l0.3,0.5L14,144.2z"/>
		</g>
		<g>
			<path fill="#FFFFFF" d="M11.5,145.8c0,0-0.2-0.2-0.3-0.5c-0.1-0.1-0.3-0.5-0.3-0.5l0.6,0l0.3,0.5L11.5,145.8z"/>
		</g>
		<g>
			<path fill="#D1D1D1" d="M13.8,142.9l-0.4,0.3c0,0,0.5,0.5,0.6,1l0.4-0.3C14.4,143.9,14,143.1,13.8,142.9z"/>
		</g>
		<g>
			<path fill="#D1D1D1" d="M11.9,144.4l-0.4,0.3c0,0,0,0.1,0.3,0.5l0.4-0.3C12.3,145,12.1,144.8,11.9,144.4z"/>
		</g>
		<g>
			<path fill="#FFFFFF" d="M11.4,143.6l-0.6-0.7c0,0,0.3-0.5,0.8-0.6l0.2,1.1C11.8,143.5,11.4,143.5,11.4,143.6z"/>
		</g>
		<g>
			<path fill="#FFFFFF" d="M12.8,145.8c0,0,0.2,0,0.3-0.2c0.1-0.2,0,0,0,0l0.8,0.8c0,0-0.4,0.4-0.7,0.3L12.8,145.8z"/>
		</g>
	</g>
</g>
<g>
	<g>
		<path fill="#B74620" d="M202,216.5c-58.5,0-106-47.5-106-106s47.5-106,106-106c58.5,0,106,47.5,106,106S260.5,216.5,202,216.5"/>
	</g>
	<g>
		<path fill="#FFFFFF" d="M202,217.5c-59,0-107-48-107-107s48-107,107-107s107,48,107,107S261,217.5,202,217.5z M202,5.5
			c-57.9,0-105,47.1-105,105s47.1,105,105,105s105-47.1,105-105S259.9,5.5,202,5.5z"/>
	</g>
</g>
<g>
	<path fill="#FFFFFF" d="M202,221C141,221,91.5,171.4,91.5,110.5S141,0,202,0s110.5,49.6,110.5,110.5S262.9,221,202,221z M202,9
		c-56,0-101.5,45.5-101.5,101.5S146,212,202,212s101.5-45.5,101.5-101.5S257.9,9,202,9z"/>
</g>
<g>
	<path fill="#043A63" d="M142.5,54.7c0.2,0.7,0.3,1.5,0.3,2.4c0,0.9-0.1,1.7-0.3,2.4c-0.2,0.7-0.6,1.3-1.2,1.7
		c-0.3,0.2-0.7,0.4-1.1,0.5c-0.5,0.1-0.9,0.2-1.4,0.2s-1.5,0-3.2-0.1l-0.1-0.1v-9.4l0.1-0.1c1.1,0,2.2-0.1,3.2-0.1
		c0.4,0,0.9,0.1,1.4,0.2c0.5,0.1,0.9,0.3,1.1,0.5C141.9,53.4,142.3,54,142.5,54.7z M140.6,59.4c0.1-0.4,0.2-0.7,0.3-1.1
		c0.1-0.4,0.1-0.8,0.1-1.2c0-0.5,0-0.9-0.1-1.2s-0.1-0.7-0.3-1.1s-0.4-0.6-0.7-0.8c-0.3-0.2-0.7-0.3-1.3-0.3s-1,0-1.4,0v6.9h1.6
		c0.4,0,0.8-0.1,1.1-0.3C140.2,60,140.5,59.7,140.6,59.4z"/>
	<path fill="#043A63" d="M149.7,59h-3.9c0,0.6,0.2,1,0.4,1.3c0.2,0.3,0.6,0.5,1.2,0.5s1.2-0.2,1.8-0.5c0.3,0.3,0.4,0.6,0.5,1.1
		c-0.7,0.5-1.6,0.8-2.7,0.8s-1.8-0.3-2.3-1c-0.5-0.7-0.7-1.6-0.7-2.6c0-1.1,0.3-2,0.8-2.6c0.5-0.7,1.2-1,2.2-1
		c0.9,0,1.7,0.3,2.2,0.8s0.8,1.3,0.8,2.1C149.8,58.1,149.8,58.5,149.7,59z M147,56c-0.8,0-1.2,0.6-1.2,1.7h2.4v-0.2
		c0-0.5-0.1-0.8-0.3-1.1C147.7,56.1,147.4,56,147,56z"/>
	<path fill="#043A63" d="M153.7,60.6h0.5c0.1,0.3,0.1,0.5,0.1,0.7s0,0.4,0,0.5c-0.5,0.1-1,0.1-1.3,0.1c-1,0-1.5-0.5-1.5-1.6v-8.6
		l0.1-0.1h0.7c0.3,0,0.6,0.1,0.7,0.2c0.1,0.2,0.2,0.4,0.2,0.8v7.3C153.1,60.4,153.3,60.6,153.7,60.6z"/>
	<path fill="#043A63" d="M160.9,59H157c0,0.6,0.2,1,0.4,1.3c0.2,0.3,0.6,0.5,1.2,0.5s1.2-0.2,1.8-0.5c0.3,0.3,0.4,0.6,0.5,1.1
		c-0.7,0.5-1.6,0.8-2.7,0.8s-1.8-0.3-2.3-1c-0.5-0.7-0.7-1.6-0.7-2.6c0-1.1,0.3-2,0.8-2.6c0.5-0.7,1.2-1,2.2-1
		c0.9,0,1.7,0.3,2.2,0.8s0.8,1.3,0.8,2.1C161,58.1,161,58.5,160.9,59z M158.2,56c-0.8,0-1.2,0.6-1.2,1.7h2.4v-0.2
		c0-0.5-0.1-0.8-0.3-1.1C158.9,56.1,158.6,56,158.2,56z"/>
	<path fill="#043A63" d="M162.8,61c-0.4-0.6-0.6-1.5-0.6-2.7s0.3-2,0.8-2.7c0.5-0.6,1.2-1,1.9-1c0.7,0,1.4,0.2,1.9,0.7
		c0.3-0.3,0.6-0.5,1.1-0.6c0.1,0.1,0.3,0.2,0.4,0.4c0.1,0.2,0.2,0.3,0.2,0.5c-0.3,0.2-0.4,0.6-0.4,1.2v4c0,1.5-0.2,2.5-0.7,3.2
		S166.1,65,165,65c-0.9,0-1.7-0.2-2.5-0.5c0-0.5,0.1-0.9,0.4-1.3c0.6,0.3,1.3,0.4,1.9,0.4s1-0.2,1.3-0.5c0.2-0.3,0.4-0.7,0.4-1.3
		v-0.6c-0.5,0.4-1.1,0.7-1.8,0.7C163.8,62,163.2,61.7,162.8,61z M166.4,59.9v-3.2c-0.4-0.4-0.8-0.6-1.2-0.6c-0.4,0-0.7,0.2-0.9,0.6
		c-0.2,0.4-0.3,1-0.3,1.7c0,0.7,0.1,1.3,0.3,1.7c0.2,0.4,0.5,0.5,0.8,0.5C165.6,60.6,166,60.3,166.4,59.9z"/>
	<path fill="#043A63" d="M175.7,61.1c0,0.2-0.1,0.3-0.2,0.5c-0.1,0.2-0.2,0.3-0.4,0.4c-0.6-0.1-1-0.3-1.3-0.8
		c-0.6,0.6-1.3,0.9-2,0.9s-1.3-0.2-1.6-0.6s-0.5-0.9-0.5-1.5c0-0.8,0.3-1.4,0.8-1.8s1.2-0.6,2-0.6c0.4,0,0.8,0,1.2,0.1v-0.4
		c0-0.7-0.4-1.1-1.1-1.1c-0.5,0-1.2,0.2-2.1,0.5c-0.3-0.3-0.4-0.7-0.5-1.2c1-0.4,2-0.6,3-0.6c0.7,0,1.3,0.2,1.7,0.6
		c0.4,0.4,0.7,1,0.7,1.8V60C175.3,60.5,175.4,60.9,175.7,61.1z M172.1,60.7c0.5,0,1-0.2,1.4-0.7v-1.2c-0.3,0-0.7-0.1-1.1-0.1
		c-0.4,0-0.7,0.1-0.9,0.3c-0.2,0.2-0.3,0.4-0.3,0.7c0,0.3,0.1,0.5,0.2,0.7S171.9,60.7,172.1,60.7z"/>
	<path fill="#043A63" d="M178.9,62.9c0.1-0.4,0.2-0.7,0.3-0.9c-0.8-0.1-1.4-0.5-1.8-1.2c-0.4-0.6-0.6-1.5-0.6-2.4
		c0-1.2,0.3-2.2,0.9-2.8s1.3-0.9,2.1-0.9c0.8,0,1.5,0.2,1.9,0.7c0.5,0.4,0.7,1,0.7,1.6c0,0.6-0.3,0.9-0.9,0.9c-0.2,0-0.5,0-0.7-0.1
		c0-0.1,0-0.1,0-0.2c0-0.5-0.1-0.8-0.2-1.1c-0.1-0.3-0.4-0.4-0.8-0.4c-0.8,0-1.2,0.8-1.2,2.3s0.5,2.3,1.4,2.3c0.5,0,1-0.2,1.6-0.7
		c0.1,0.1,0.3,0.2,0.4,0.4c0.1,0.2,0.2,0.4,0.3,0.6c-0.6,0.6-1.3,0.9-2.1,1c-0.1,0.1-0.1,0.2-0.1,0.3c0.4,0,0.7,0.1,1,0.4
		c0.2,0.2,0.4,0.5,0.4,0.9c0,0.4-0.2,0.7-0.5,1c-0.3,0.3-0.7,0.4-1.2,0.4c-0.5,0-0.9-0.1-1.2-0.3c0-0.3,0.1-0.6,0.3-0.8
		c0.2,0.1,0.4,0.2,0.7,0.2c0.4,0,0.6-0.2,0.6-0.5c0-0.1,0-0.3-0.1-0.3c-0.1-0.1-0.2-0.1-0.3-0.1c-0.1,0-0.3,0-0.4,0.1
		C179,63.1,178.9,63.1,178.9,62.9z"/>
	<path fill="#043A63" d="M189.4,61.1c0,0.2-0.1,0.3-0.2,0.5c-0.1,0.2-0.2,0.3-0.4,0.4c-0.6-0.1-1-0.3-1.3-0.8
		c-0.6,0.6-1.3,0.9-2,0.9s-1.3-0.2-1.6-0.6s-0.5-0.9-0.5-1.5c0-0.8,0.3-1.4,0.8-1.8s1.2-0.6,2-0.6c0.4,0,0.8,0,1.2,0.1v-0.4
		c0-0.7-0.4-1.1-1.1-1.1c-0.5,0-1.2,0.2-2.1,0.5c-0.3-0.3-0.4-0.7-0.5-1.2c1-0.4,2-0.6,3-0.6c0.7,0,1.3,0.2,1.7,0.6
		c0.4,0.4,0.7,1,0.7,1.8V60C189,60.5,189.1,60.9,189.4,61.1z M186.4,53.9l-0.7-0.4c-0.1-0.1-0.3-0.1-0.5-0.1c-0.2,0-0.3,0.1-0.5,0.4
		l-0.1,0.2c-0.2,0-0.3-0.1-0.5-0.2c-0.2-0.1-0.3-0.2-0.3-0.4l0.1-0.3c0.1-0.3,0.4-0.6,0.6-0.8c0.3-0.2,0.5-0.3,0.8-0.3
		c0.3,0,0.6,0.1,0.9,0.2l0.7,0.4c0.2,0.1,0.3,0.1,0.5,0.1s0.3-0.1,0.5-0.4l0.1-0.2c0.2,0,0.3,0.1,0.5,0.2c0.2,0.1,0.3,0.2,0.3,0.4
		l-0.1,0.3c-0.1,0.3-0.4,0.6-0.6,0.8c-0.3,0.2-0.5,0.3-0.8,0.3S186.6,54,186.4,53.9z M185.9,60.7c0.5,0,1-0.2,1.4-0.7v-1.2
		c-0.3,0-0.7-0.1-1.1-0.1c-0.4,0-0.7,0.1-0.9,0.3c-0.2,0.2-0.3,0.4-0.3,0.7c0,0.3,0.1,0.5,0.2,0.7S185.6,60.7,185.9,60.7z"/>
	<path fill="#043A63" d="M196.7,58.4c0,1.3-0.3,2.2-1,2.9c-0.5,0.5-1.2,0.8-2.1,0.8c-0.9,0-1.6-0.3-2.1-0.8c-0.7-0.7-1-1.6-1-2.9
		s0.3-2.2,1-2.9c0.5-0.5,1.2-0.8,2.1-0.8c0.9,0,1.6,0.3,2.1,0.8C196.3,56.2,196.7,57.1,196.7,58.4z M193.6,56
		c-0.9,0-1.3,0.8-1.3,2.4c0,1.6,0.4,2.4,1.3,2.4c0.9,0,1.3-0.8,1.3-2.4C194.9,56.8,194.5,56,193.6,56z"/>
	<path fill="#043A63" d="M206.5,59h-3.9c0,0.6,0.2,1,0.4,1.3c0.2,0.3,0.6,0.5,1.2,0.5s1.2-0.2,1.8-0.5c0.3,0.3,0.4,0.6,0.5,1.1
		c-0.7,0.5-1.6,0.8-2.7,0.8s-1.8-0.3-2.3-1c-0.5-0.7-0.7-1.6-0.7-2.6c0-1.1,0.3-2,0.8-2.6c0.5-0.7,1.2-1,2.2-1
		c0.9,0,1.7,0.3,2.2,0.8s0.8,1.3,0.8,2.1C206.7,58.1,206.6,58.5,206.5,59z M203.8,56c-0.8,0-1.2,0.6-1.2,1.7h2.4v-0.2
		c0-0.5-0.1-0.8-0.3-1.1C204.6,56.1,204.3,56,203.8,56z"/>
	<path fill="#043A63" d="M214.6,60.4h2.6c0,0.3,0,0.5,0,0.7c-0.1,0.6-0.5,0.9-1.2,0.9h-3.5c-0.3,0-0.6-0.1-0.8-0.3s-0.3-0.5-0.3-0.8
		v-8.5l0.1-0.1h0.7c0.4,0,0.6,0.1,0.8,0.3c0.2,0.2,0.3,0.5,0.3,0.9v7C213.8,60.4,214.2,60.4,214.6,60.4z"/>
	<path fill="#043A63" d="M220.6,56.3v5.6c-0.3,0-0.5,0.1-0.9,0.1c-0.3,0-0.6,0-0.9-0.1v-4.9c0-0.5-0.2-0.8-0.6-0.8H218
		c0-0.2-0.1-0.4-0.1-0.6c0-0.2,0-0.5,0.1-0.6c0.3,0,0.7-0.1,1-0.1h0.2c0.4,0,0.7,0.1,0.9,0.4S220.6,55.8,220.6,56.3z M218.5,53.7
		c-0.1-0.2-0.1-0.4-0.1-0.7c0-0.2,0-0.5,0.1-0.7c0.2-0.1,0.5-0.2,0.9-0.2s0.6,0.1,0.9,0.2c0.1,0.2,0.1,0.4,0.1,0.7
		c0,0.2,0,0.5-0.1,0.7c-0.2,0.1-0.5,0.2-0.9,0.2S218.7,53.8,218.5,53.7z"/>
	<path fill="#043A63" d="M224.5,62.1c-0.8,0-1.4-0.3-1.8-1c-0.4-0.6-0.6-1.5-0.6-2.7c0-1.1,0.3-2,0.8-2.7c0.5-0.6,1.2-1,1.9-1
		c0.5,0,1,0.1,1.5,0.4v-3.5l0.1-0.1h0.7c0.3,0,0.6,0.1,0.7,0.2c0.1,0.2,0.2,0.4,0.2,0.8v7.2c0,0.6,0.1,1,0.4,1.2
		c0,0.2-0.1,0.3-0.2,0.5c-0.1,0.2-0.2,0.3-0.4,0.4c-0.6-0.1-1-0.4-1.2-0.8C226,61.8,225.3,62.1,224.5,62.1z M225,60.6
		c0.5,0,1-0.3,1.3-0.8v-3.3c-0.5-0.3-0.9-0.4-1.2-0.4s-0.6,0.2-0.9,0.6c-0.2,0.4-0.3,1-0.3,1.7s0.1,1.3,0.3,1.6S224.6,60.6,225,60.6
		z"/>
	<path fill="#043A63" d="M235.2,59h-3.9c0,0.6,0.2,1,0.4,1.3c0.2,0.3,0.6,0.5,1.2,0.5s1.2-0.2,1.8-0.5c0.3,0.3,0.4,0.6,0.5,1.1
		c-0.7,0.5-1.6,0.8-2.7,0.8s-1.8-0.3-2.3-1c-0.5-0.7-0.7-1.6-0.7-2.6c0-1.1,0.3-2,0.8-2.6c0.5-0.7,1.2-1,2.2-1
		c0.9,0,1.7,0.3,2.2,0.8s0.8,1.3,0.8,2.1C235.4,58.1,235.3,58.5,235.2,59z M232.5,56c-0.8,0-1.2,0.6-1.2,1.7h2.4v-0.2
		c0-0.5-0.1-0.8-0.3-1.1C233.3,56.1,233,56,232.5,56z"/>
	<path fill="#043A63" d="M236.6,55.7c0-0.2,0.1-0.3,0.2-0.5c0.1-0.2,0.2-0.3,0.4-0.4c0.7,0.1,1.2,0.5,1.5,1.2c0.4-0.8,1-1.2,1.8-1.2
		c0.2,0,0.5,0,0.8,0.1c0,0.6-0.1,1.1-0.4,1.6c-0.1,0-0.3-0.1-0.6-0.1c-0.6,0-1,0.3-1.4,0.9v4.5c-0.3,0-0.5,0.1-0.9,0.1
		c-0.3,0-0.6,0-0.9-0.1v-4.7C237.1,56.5,236.9,56,236.6,55.7z"/>
	<path fill="#043A63" d="M247.8,61.1c0,0.2-0.1,0.3-0.2,0.5c-0.1,0.2-0.2,0.3-0.4,0.4c-0.6-0.1-1-0.3-1.3-0.8
		c-0.6,0.6-1.3,0.9-2,0.9s-1.3-0.2-1.6-0.6s-0.5-0.9-0.5-1.5c0-0.8,0.3-1.4,0.8-1.8s1.2-0.6,2-0.6c0.4,0,0.8,0,1.2,0.1v-0.4
		c0-0.7-0.4-1.1-1.1-1.1c-0.5,0-1.2,0.2-2.1,0.5c-0.3-0.3-0.4-0.7-0.5-1.2c1-0.4,2-0.6,3-0.6c0.7,0,1.3,0.2,1.7,0.6
		c0.4,0.4,0.7,1,0.7,1.8V60C247.4,60.5,247.5,60.9,247.8,61.1z M244.3,60.7c0.5,0,1-0.2,1.4-0.7v-1.2c-0.3,0-0.7-0.1-1.1-0.1
		c-0.4,0-0.7,0.1-0.9,0.3c-0.2,0.2-0.3,0.4-0.3,0.7c0,0.3,0.1,0.5,0.2,0.7S244,60.7,244.3,60.7z"/>
	<path fill="#043A63" d="M255,57.2v3.1c0,0.6,0.1,1,0.3,1.3c-0.3,0.2-0.7,0.4-1,0.4s-0.6-0.1-0.8-0.3c-0.1-0.2-0.2-0.5-0.2-0.8v-3.3
		c0-0.4-0.1-0.7-0.2-0.9c-0.1-0.2-0.3-0.3-0.6-0.3c-0.5,0-1,0.2-1.5,0.7v4.8c-0.3,0-0.5,0.1-0.9,0.1s-0.6,0-0.9-0.1v-6.9l0.1-0.1
		h0.6c0.5,0,0.8,0.3,1,0.8c0.7-0.6,1.4-0.9,2-0.9s1.2,0.2,1.5,0.7C254.9,55.9,255,56.5,255,57.2z"/>
	<path fill="#043A63" d="M258.6,62.9c0.1-0.4,0.2-0.7,0.3-0.9c-0.8-0.1-1.4-0.5-1.8-1.2c-0.4-0.6-0.6-1.5-0.6-2.4
		c0-1.2,0.3-2.2,0.9-2.8s1.3-0.9,2.1-0.9c0.8,0,1.5,0.2,1.9,0.7c0.5,0.4,0.7,1,0.7,1.6c0,0.6-0.3,0.9-0.9,0.9c-0.2,0-0.5,0-0.7-0.1
		c0-0.1,0-0.1,0-0.2c0-0.5-0.1-0.8-0.2-1.1c-0.1-0.3-0.4-0.4-0.8-0.4c-0.8,0-1.2,0.8-1.2,2.3s0.5,2.3,1.4,2.3c0.5,0,1-0.2,1.6-0.7
		c0.1,0.1,0.3,0.2,0.4,0.4c0.1,0.2,0.2,0.4,0.3,0.6c-0.6,0.6-1.3,0.9-2.1,1c-0.1,0.1-0.1,0.2-0.1,0.3c0.4,0,0.7,0.1,1,0.4
		c0.2,0.2,0.4,0.5,0.4,0.9c0,0.4-0.2,0.7-0.5,1c-0.3,0.3-0.7,0.4-1.2,0.4c-0.5,0-0.9-0.1-1.2-0.3c0-0.3,0.1-0.6,0.3-0.8
		c0.2,0.1,0.4,0.2,0.7,0.2c0.4,0,0.6-0.2,0.6-0.5c0-0.1,0-0.3-0.1-0.3c-0.1-0.1-0.2-0.1-0.3-0.1c-0.1,0-0.3,0-0.4,0.1
		C258.8,63.1,258.7,63.1,258.6,62.9z"/>
	<path fill="#043A63" d="M269.1,61.1c0,0.2-0.1,0.3-0.2,0.5c-0.1,0.2-0.2,0.3-0.4,0.4c-0.6-0.1-1-0.3-1.3-0.8
		c-0.6,0.6-1.3,0.9-2,0.9s-1.3-0.2-1.6-0.6s-0.5-0.9-0.5-1.5c0-0.8,0.3-1.4,0.8-1.8s1.2-0.6,2-0.6c0.4,0,0.8,0,1.2,0.1v-0.4
		c0-0.7-0.4-1.1-1.1-1.1c-0.5,0-1.2,0.2-2.1,0.5c-0.3-0.3-0.4-0.7-0.5-1.2c1-0.4,2-0.6,3-0.6c0.7,0,1.3,0.2,1.7,0.6
		c0.4,0.4,0.7,1,0.7,1.8V60C268.7,60.5,268.9,60.9,269.1,61.1z M265.6,60.7c0.5,0,1-0.2,1.4-0.7v-1.2c-0.3,0-0.7-0.1-1.1-0.1
		c-0.4,0-0.7,0.1-0.9,0.3c-0.2,0.2-0.3,0.4-0.3,0.7c0,0.3,0.1,0.5,0.2,0.7S265.4,60.7,265.6,60.7z"/>
	<path fill="#043A63" d="M140.6,75.8h-3.9c0,0.6,0.2,1,0.4,1.3c0.2,0.3,0.6,0.5,1.2,0.5s1.2-0.2,1.8-0.5c0.3,0.3,0.4,0.6,0.5,1.1
		c-0.7,0.5-1.6,0.8-2.7,0.8s-1.8-0.3-2.3-1c-0.5-0.7-0.7-1.6-0.7-2.6c0-1.1,0.3-2,0.8-2.6c0.5-0.7,1.2-1,2.2-1
		c0.9,0,1.7,0.3,2.2,0.8s0.8,1.3,0.8,2.1C140.7,74.9,140.6,75.3,140.6,75.8z M137.9,72.8c-0.8,0-1.2,0.6-1.2,1.7h2.4v-0.2
		c0-0.5-0.1-0.8-0.3-1.1C138.6,72.9,138.3,72.8,137.9,72.8z"/>
	<path fill="#043A63" d="M146.1,74.4c0-0.8-0.3-1.2-0.8-1.2c-0.4,0-0.8,0.2-1.3,0.7v4.8c-0.3,0-0.5,0.1-0.9,0.1s-0.6,0-0.9-0.1v-6.9
		l0.1-0.1h0.6c0.5,0,0.9,0.3,1,0.9c0.6-0.6,1.3-0.9,2-0.9c0.7,0,1.2,0.3,1.5,1c0.7-0.7,1.5-1,2.2-1c0.6,0,1,0.2,1.4,0.6
		c0.3,0.4,0.5,0.9,0.5,1.6v3.3c0,0.6,0.1,1,0.3,1.3c-0.3,0.2-0.6,0.4-1,0.4c-0.4,0-0.7-0.1-0.8-0.3s-0.2-0.5-0.2-0.8v-3.3
		c0-0.8-0.3-1.2-0.8-1.2c-0.4,0-0.8,0.2-1.3,0.7v4.8c-0.3,0-0.5,0.1-0.9,0.1c-0.3,0-0.6,0-0.9-0.1V74.4z"/>
	<path fill="#043A63" d="M160.4,73.5l2.2,0c0,0,0,0,0,0c0.8,0,1.2,0.4,1.2,1.1v3.7c-1.1,0.4-2.3,0.6-3.6,0.6s-2.3-0.5-3-1.4
		c-0.7-0.9-1-2.1-1-3.7s0.4-2.8,1.3-3.6c0.8-0.9,1.9-1.3,3.1-1.3c1.2,0,2.3,0.3,3.3,1c0,0.3-0.1,0.5-0.3,0.7
		c-0.2,0.2-0.3,0.4-0.5,0.6c-0.8-0.6-1.6-0.8-2.4-0.8s-1.4,0.3-1.9,0.9c-0.4,0.6-0.7,1.5-0.7,2.7c0,2.3,0.8,3.5,2.5,3.5
		c0.5,0,1-0.1,1.6-0.2v-1.3c0-0.4,0-0.7,0-0.9h-1c-0.3,0-0.5-0.1-0.6-0.2c-0.1-0.1-0.2-0.3-0.2-0.6S160.4,73.7,160.4,73.5z"/>
	<path fill="#043A63" d="M170.9,75.8H167c0,0.6,0.2,1,0.4,1.3c0.2,0.3,0.6,0.5,1.2,0.5s1.2-0.2,1.8-0.5c0.3,0.3,0.4,0.6,0.5,1.1
		c-0.7,0.5-1.6,0.8-2.7,0.8s-1.8-0.3-2.3-1c-0.5-0.7-0.7-1.6-0.7-2.6c0-1.1,0.3-2,0.8-2.6c0.5-0.7,1.2-1,2.2-1
		c0.9,0,1.7,0.3,2.2,0.8s0.8,1.3,0.8,2.1C171.1,74.9,171,75.3,170.9,75.8z M168.2,72.8c-0.8,0-1.2,0.6-1.2,1.7h2.4v-0.2
		c0-0.5-0.1-0.8-0.3-1.1C168.9,72.9,168.6,72.8,168.2,72.8z"/>
	<path fill="#043A63" d="M172,78.2c0-0.2,0.1-0.4,0.2-0.6c0.1-0.2,0.2-0.4,0.4-0.6c0.7,0.4,1.4,0.6,2,0.6c0.3,0,0.6-0.1,0.8-0.2
		c0.2-0.1,0.3-0.3,0.3-0.5c0-0.4-0.3-0.6-0.8-0.8l-0.8-0.3c-1.2-0.4-1.8-1.1-1.8-2c0-0.7,0.2-1.2,0.7-1.6c0.5-0.4,1.1-0.6,1.9-0.6
		s1.6,0.2,2.4,0.5c0,0.2,0,0.4-0.1,0.7c-0.1,0.2-0.2,0.4-0.4,0.5c-0.7-0.3-1.3-0.5-1.9-0.5c-0.3,0-0.5,0.1-0.6,0.2
		c-0.2,0.1-0.2,0.3-0.2,0.5c0,0.3,0.2,0.5,0.7,0.7l0.9,0.3c1.2,0.4,1.8,1.2,1.8,2.2c0,0.7-0.2,1.2-0.7,1.6c-0.5,0.4-1.2,0.6-2.1,0.6
		S172.8,78.6,172,78.2z"/>
	<path fill="#043A63" d="M182.5,71.7c0,0.2,0.1,0.4,0.1,0.6c0,0.2,0,0.4-0.1,0.6l-1.7,0v3.8c0,0.4,0.2,0.6,0.6,0.6h0.9
		c0.1,0.3,0.1,0.5,0.1,0.7s0,0.4,0,0.5c-0.6,0.1-1.1,0.1-1.7,0.1c-1.1,0-1.6-0.5-1.6-1.6V73l-1,0c0-0.2-0.1-0.4-0.1-0.6
		c0-0.2,0-0.5,0.1-0.6l1,0v-1.1c0-0.4,0.1-0.7,0.2-0.8c0.1-0.2,0.4-0.2,0.7-0.2h0.7l0.1,0.1v2L182.5,71.7z"/>
	<path fill="#043A63" d="M189.4,77.9c0,0.2-0.1,0.3-0.2,0.5c-0.1,0.2-0.2,0.3-0.4,0.4c-0.6-0.1-1-0.3-1.3-0.8
		c-0.6,0.6-1.3,0.9-2,0.9s-1.3-0.2-1.6-0.6s-0.5-0.9-0.5-1.5c0-0.8,0.3-1.4,0.8-1.8s1.2-0.6,2-0.6c0.4,0,0.8,0,1.2,0.1V74
		c0-0.7-0.4-1.1-1.1-1.1c-0.5,0-1.2,0.2-2.1,0.5c-0.3-0.3-0.4-0.7-0.5-1.2c1-0.4,2-0.6,3-0.6c0.7,0,1.3,0.2,1.7,0.6
		c0.4,0.4,0.7,1,0.7,1.8v2.9C189.1,77.3,189.2,77.7,189.4,77.9z M186.4,70.7l-0.7-0.4c-0.1-0.1-0.3-0.1-0.5-0.1
		c-0.2,0-0.3,0.1-0.5,0.4l-0.1,0.2c-0.2,0-0.3-0.1-0.5-0.2c-0.2-0.1-0.3-0.2-0.3-0.4l0.1-0.3c0.1-0.3,0.4-0.6,0.6-0.8
		c0.3-0.2,0.5-0.3,0.8-0.3c0.3,0,0.6,0.1,0.9,0.2l0.7,0.4c0.2,0.1,0.3,0.1,0.5,0.1s0.3-0.1,0.5-0.4L188,69c0.2,0,0.3,0.1,0.5,0.2
		c0.2,0.1,0.3,0.2,0.3,0.4l-0.1,0.3c-0.1,0.3-0.4,0.6-0.6,0.8c-0.3,0.2-0.5,0.3-0.8,0.3S186.7,70.8,186.4,70.7z M185.9,77.5
		c0.5,0,1-0.2,1.4-0.7v-1.2c-0.3,0-0.7-0.1-1.1-0.1c-0.4,0-0.7,0.1-0.9,0.3c-0.2,0.2-0.3,0.4-0.3,0.7c0,0.3,0.1,0.5,0.2,0.7
		S185.7,77.5,185.9,77.5z"/>
	<path fill="#043A63" d="M196.7,75.2c0,1.3-0.3,2.2-1,2.9c-0.5,0.5-1.2,0.8-2.1,0.8c-0.9,0-1.6-0.3-2.1-0.8c-0.7-0.7-1-1.6-1-2.9
		s0.3-2.2,1-2.9c0.5-0.5,1.2-0.8,2.1-0.8c0.9,0,1.6,0.3,2.1,0.8C196.4,73,196.7,73.9,196.7,75.2z M193.6,72.8
		c-0.9,0-1.3,0.8-1.3,2.4c0,1.6,0.4,2.4,1.3,2.4c0.9,0,1.3-0.8,1.3-2.4C195,73.6,194.5,72.8,193.6,72.8z"/>
	<path fill="#043A63" d="M203.4,78.9c-0.8,0-1.4-0.3-1.8-1c-0.4-0.6-0.6-1.5-0.6-2.7c0-1.1,0.3-2,0.8-2.7c0.5-0.6,1.2-1,1.9-1
		c0.5,0,1,0.1,1.5,0.4v-3.5l0.1-0.1h0.7c0.3,0,0.6,0.1,0.7,0.2c0.1,0.2,0.2,0.4,0.2,0.8v7.2c0,0.6,0.1,1,0.4,1.2
		c0,0.2-0.1,0.3-0.2,0.5c-0.1,0.2-0.2,0.3-0.4,0.4c-0.6-0.1-1-0.4-1.2-0.8C204.8,78.6,204.1,78.9,203.4,78.9z M203.8,77.4
		c0.5,0,1-0.3,1.3-0.8v-3.3c-0.5-0.3-0.9-0.4-1.2-0.4s-0.6,0.2-0.9,0.6c-0.2,0.4-0.3,1-0.3,1.7s0.1,1.3,0.3,1.6
		S203.5,77.4,203.8,77.4z"/>
	<path fill="#043A63" d="M214.1,75.8h-3.9c0,0.6,0.2,1,0.4,1.3c0.2,0.3,0.6,0.5,1.2,0.5s1.2-0.2,1.8-0.5c0.3,0.3,0.4,0.6,0.5,1.1
		c-0.7,0.5-1.6,0.8-2.7,0.8s-1.8-0.3-2.3-1c-0.5-0.7-0.7-1.6-0.7-2.6c0-1.1,0.3-2,0.8-2.6c0.5-0.7,1.2-1,2.2-1
		c0.9,0,1.7,0.3,2.2,0.8s0.8,1.3,0.8,2.1C214.2,74.9,214.2,75.3,214.1,75.8z M211.4,72.8c-0.8,0-1.2,0.6-1.2,1.7h2.4v-0.2
		c0-0.5-0.1-0.8-0.3-1.1C212.1,72.9,211.8,72.8,211.4,72.8z"/>
	<path fill="#043A63" d="M224.6,69.8c0.6,0.5,0.9,1.3,0.9,2.4s-0.3,1.8-0.9,2.4c-0.6,0.6-1.4,0.8-2.4,0.8h-1.3v3.2
		c-0.2,0-0.5,0.1-0.9,0.1c-0.4,0-0.7,0-0.9-0.1v-9.5l0.1-0.1c1.5,0,2.5-0.1,3-0.1C223.2,69,224,69.3,224.6,69.8z M220.9,70.4v3.7
		c0.6,0,1,0,1.2,0c0.6,0,1-0.2,1.2-0.5s0.3-0.8,0.3-1.3c0-0.5-0.1-0.9-0.3-1.3c-0.2-0.4-0.6-0.5-1.2-0.5
		C221.6,70.4,221.1,70.4,220.9,70.4z"/>
	<path fill="#043A63" d="M232.2,75.8h-3.9c0,0.6,0.2,1,0.4,1.3c0.2,0.3,0.6,0.5,1.2,0.5s1.2-0.2,1.8-0.5c0.3,0.3,0.4,0.6,0.5,1.1
		c-0.7,0.5-1.6,0.8-2.7,0.8s-1.8-0.3-2.3-1c-0.5-0.7-0.7-1.6-0.7-2.6c0-1.1,0.3-2,0.8-2.6c0.5-0.7,1.2-1,2.2-1
		c0.9,0,1.7,0.3,2.2,0.8s0.8,1.3,0.8,2.1C232.3,74.9,232.3,75.3,232.2,75.8z M229.5,72.8c-0.8,0-1.2,0.6-1.2,1.7h2.4v-0.2
		c0-0.5-0.1-0.8-0.3-1.1C230.2,72.9,229.9,72.8,229.5,72.8z"/>
	<path fill="#043A63" d="M233.3,78.2c0-0.2,0.1-0.4,0.2-0.6c0.1-0.2,0.2-0.4,0.4-0.6c0.7,0.4,1.4,0.6,2,0.6c0.3,0,0.6-0.1,0.8-0.2
		c0.2-0.1,0.3-0.3,0.3-0.5c0-0.4-0.3-0.6-0.8-0.8l-0.8-0.3c-1.2-0.4-1.8-1.1-1.8-2c0-0.7,0.2-1.2,0.7-1.6c0.5-0.4,1.1-0.6,1.9-0.6
		s1.6,0.2,2.4,0.5c0,0.2,0,0.4-0.1,0.7c-0.1,0.2-0.2,0.4-0.4,0.5c-0.7-0.3-1.3-0.5-1.9-0.5c-0.3,0-0.5,0.1-0.6,0.2
		c-0.2,0.1-0.2,0.3-0.2,0.5c0,0.3,0.2,0.5,0.7,0.7l0.9,0.3c1.2,0.4,1.8,1.2,1.8,2.2c0,0.7-0.2,1.2-0.7,1.6c-0.5,0.4-1.2,0.6-2.1,0.6
		S234.1,78.6,233.3,78.2z"/>
	<path fill="#043A63" d="M239.5,78.2c0-0.2,0.1-0.4,0.2-0.6c0.1-0.2,0.2-0.4,0.4-0.6c0.7,0.4,1.4,0.6,2,0.6c0.3,0,0.6-0.1,0.8-0.2
		c0.2-0.1,0.3-0.3,0.3-0.5c0-0.4-0.3-0.6-0.8-0.8l-0.8-0.3c-1.2-0.4-1.8-1.1-1.8-2c0-0.7,0.2-1.2,0.7-1.6c0.5-0.4,1.1-0.6,1.9-0.6
		s1.6,0.2,2.4,0.5c0,0.2,0,0.4-0.1,0.7c-0.1,0.2-0.2,0.4-0.4,0.5c-0.7-0.3-1.3-0.5-1.9-0.5c-0.3,0-0.5,0.1-0.6,0.2
		c-0.2,0.1-0.2,0.3-0.2,0.5c0,0.3,0.2,0.5,0.7,0.7l0.9,0.3c1.2,0.4,1.8,1.2,1.8,2.2c0,0.7-0.2,1.2-0.7,1.6c-0.5,0.4-1.2,0.6-2.1,0.6
		S240.3,78.6,239.5,78.2z"/>
	<path fill="#043A63" d="M252,75.2c0,1.3-0.3,2.2-1,2.9c-0.5,0.5-1.2,0.8-2.1,0.8c-0.9,0-1.6-0.3-2.1-0.8c-0.7-0.7-1-1.6-1-2.9
		s0.3-2.2,1-2.9c0.5-0.5,1.2-0.8,2.1-0.8c0.9,0,1.6,0.3,2.1,0.8C251.7,73,252,73.9,252,75.2z M248.9,72.8c-0.9,0-1.3,0.8-1.3,2.4
		c0,1.6,0.4,2.4,1.3,2.4c0.9,0,1.3-0.8,1.3-2.4C250.2,73.6,249.8,72.8,248.9,72.8z"/>
	<path fill="#043A63" d="M259.1,77.9c0,0.2-0.1,0.3-0.2,0.5c-0.1,0.2-0.2,0.3-0.4,0.4c-0.6-0.1-1-0.3-1.3-0.8
		c-0.6,0.6-1.3,0.9-2,0.9s-1.3-0.2-1.6-0.6s-0.5-0.9-0.5-1.5c0-0.8,0.3-1.4,0.8-1.8s1.2-0.6,2-0.6c0.4,0,0.8,0,1.2,0.1V74
		c0-0.7-0.4-1.1-1.1-1.1c-0.5,0-1.2,0.2-2.1,0.5c-0.3-0.3-0.4-0.7-0.5-1.2c1-0.4,2-0.6,3-0.6c0.7,0,1.3,0.2,1.7,0.6
		c0.4,0.4,0.7,1,0.7,1.8v2.9C258.7,77.3,258.9,77.7,259.1,77.9z M255.6,77.5c0.5,0,1-0.2,1.4-0.7v-1.2c-0.3,0-0.7-0.1-1.1-0.1
		c-0.4,0-0.7,0.1-0.9,0.3c-0.2,0.2-0.3,0.4-0.3,0.7c0,0.3,0.1,0.5,0.2,0.7S255.4,77.5,255.6,77.5z"/>
	<path fill="#043A63" d="M260,78.2c0-0.2,0.1-0.4,0.2-0.6c0.1-0.2,0.2-0.4,0.4-0.6c0.7,0.4,1.4,0.6,2,0.6c0.3,0,0.6-0.1,0.8-0.2
		c0.2-0.1,0.3-0.3,0.3-0.5c0-0.4-0.3-0.6-0.8-0.8l-0.8-0.3c-1.2-0.4-1.8-1.1-1.8-2c0-0.7,0.2-1.2,0.7-1.6c0.5-0.4,1.1-0.6,1.9-0.6
		s1.6,0.2,2.4,0.5c0,0.2,0,0.4-0.1,0.7c-0.1,0.2-0.2,0.4-0.4,0.5c-0.7-0.3-1.3-0.5-1.9-0.5c-0.3,0-0.5,0.1-0.6,0.2
		c-0.2,0.1-0.2,0.3-0.2,0.5c0,0.3,0.2,0.5,0.7,0.7l0.9,0.3c1.2,0.4,1.8,1.2,1.8,2.2c0,0.7-0.2,1.2-0.7,1.6c-0.5,0.4-1.2,0.6-2.1,0.6
		S260.9,78.6,260,78.2z"/>
	<path fill="#043A63" d="M266.8,78.6c-0.1-0.2-0.1-0.4-0.1-0.7s0-0.6,0.1-0.8c0.3-0.1,0.6-0.2,1-0.2s0.7,0.1,0.9,0.2
		c0.1,0.2,0.1,0.5,0.1,0.8s0,0.6-0.1,0.7c-0.2,0.1-0.5,0.2-0.9,0.2S267,78.7,266.8,78.6z"/>
</g>
<g>
	<path fill="#FFFFFF" d="M121.5,89.8c0.2,0.7,0.3,1.5,0.3,2.4c0,0.9-0.1,1.7-0.3,2.4c-0.2,0.7-0.6,1.2-1.2,1.7
		c-0.3,0.2-0.7,0.4-1.1,0.5s-0.9,0.2-1.3,0.2s-1.4,0-3-0.1l-0.1-0.1v-9.4l0.1-0.1c0.8,0,1.8,0,3,0c0.4,0,0.8,0.1,1.3,0.2
		c0.5,0.1,0.8,0.3,1.1,0.5C120.9,88.5,121.3,89.1,121.5,89.8z M116.2,95.9l1.7,0c0.4,0,0.8-0.1,1.1-0.2c0.3-0.2,0.5-0.3,0.7-0.6
		s0.3-0.5,0.4-0.9c0.1-0.3,0.2-0.7,0.2-1c0-0.3,0-0.7,0-1c0-0.4,0-0.7,0-1c0-0.3-0.1-0.6-0.2-1c-0.1-0.3-0.2-0.6-0.4-0.9
		s-0.4-0.4-0.7-0.6c-0.3-0.2-0.7-0.2-1.1-0.2l-1.7,0V95.9z"/>
	<path fill="#FFFFFF" d="M125,91.2V97c-0.2,0-0.4,0.1-0.7,0.1c-0.3,0-0.5,0-0.7-0.1v-5.2c0-0.3,0-0.4-0.1-0.5
		c-0.1-0.1-0.2-0.2-0.5-0.2h-0.2c0-0.1-0.1-0.3-0.1-0.5c0-0.2,0-0.3,0.1-0.5c0.3,0,0.6-0.1,0.8-0.1h0.2c0.3,0,0.6,0.1,0.8,0.3
		C124.9,90.5,125,90.8,125,91.2z M123.3,88.1c0-0.2,0-0.4,0.1-0.6c0.2-0.1,0.5-0.2,0.8-0.2s0.6,0.1,0.7,0.2c0.1,0.2,0.1,0.4,0.1,0.6
		c0,0.2,0,0.4-0.1,0.6c-0.2,0.1-0.4,0.2-0.7,0.2c-0.3,0-0.6-0.1-0.8-0.2C123.3,88.6,123.3,88.4,123.3,88.1z"/>
	<path fill="#FFFFFF" d="M126.7,90.7c0.1-0.3,0.2-0.6,0.5-0.7c0.6,0.1,1,0.6,1.2,1.2c0.4-0.8,1-1.2,1.8-1.2c0.2,0,0.5,0,0.7,0.1
		c0,0.5-0.1,0.9-0.3,1.3c-0.1,0-0.2,0-0.6-0.1c-0.7,0-1.2,0.4-1.5,1.1V97c-0.2,0-0.4,0.1-0.7,0.1c-0.3,0-0.5,0-0.7-0.1v-4.8
		C127.2,91.5,127.1,91,126.7,90.7z"/>
	<path fill="#FFFFFF" d="M137.2,93.9H133c0,0.7,0.2,1.2,0.4,1.5c0.3,0.4,0.7,0.5,1.3,0.5s1.2-0.2,1.9-0.5c0.2,0.2,0.4,0.5,0.4,0.9
		c-0.7,0.5-1.6,0.8-2.6,0.8c-1,0-1.7-0.3-2.2-1s-0.7-1.5-0.7-2.6s0.3-2,0.7-2.6c0.5-0.7,1.2-1,2.1-1c0.9,0,1.6,0.3,2.1,0.8
		c0.5,0.6,0.7,1.3,0.7,2.1C137.3,93.2,137.2,93.6,137.2,93.9z M135.6,91.4c-0.2-0.4-0.6-0.5-1.1-0.5c-0.5,0-0.8,0.2-1.1,0.5
		s-0.4,0.9-0.4,1.5h2.9v-0.2C136,92.2,135.8,91.8,135.6,91.4z"/>
	<path fill="#FFFFFF" d="M142.3,90c0,0.2,0.1,0.3,0.1,0.5c0,0.2,0,0.3-0.1,0.5l-1.8,0v4.3c0,0.4,0.2,0.6,0.6,0.6h1
		c0.1,0.2,0.1,0.4,0.1,0.6s0,0.3,0,0.4c-0.5,0.1-1.1,0.1-1.5,0.1c-1,0-1.4-0.5-1.4-1.4V91l-1,0c0-0.1-0.1-0.3-0.1-0.5
		c0-0.2,0-0.4,0.1-0.5l1,0v-1.3c0-0.3,0.1-0.5,0.2-0.7s0.3-0.2,0.6-0.2h0.5l0.1,0.1v2.1L142.3,90z"/>
	<path fill="#FFFFFF" d="M143.3,90.7c0.1-0.3,0.2-0.6,0.5-0.7c0.6,0.1,1,0.6,1.2,1.2c0.4-0.8,1-1.2,1.8-1.2c0.2,0,0.5,0,0.7,0.1
		c0,0.5-0.1,0.9-0.3,1.3c-0.1,0-0.2,0-0.6-0.1c-0.7,0-1.2,0.4-1.5,1.1V97c-0.2,0-0.4,0.1-0.7,0.1s-0.5,0-0.7-0.1v-4.8
		C143.8,91.5,143.7,91,143.3,90.7z"/>
	<path fill="#FFFFFF" d="M150.4,91.2V97c-0.2,0-0.4,0.1-0.7,0.1c-0.3,0-0.5,0-0.7-0.1v-5.2c0-0.3,0-0.4-0.1-0.5
		c-0.1-0.1-0.2-0.2-0.5-0.2h-0.2c0-0.1-0.1-0.3-0.1-0.5c0-0.2,0-0.3,0.1-0.5c0.3,0,0.6-0.1,0.8-0.1h0.2c0.3,0,0.6,0.1,0.8,0.3
		C150.3,90.5,150.4,90.8,150.4,91.2z M148.7,88.1c0-0.2,0-0.4,0.1-0.6c0.2-0.1,0.5-0.2,0.8-0.2s0.6,0.1,0.7,0.2
		c0.1,0.2,0.1,0.4,0.1,0.6c0,0.2,0,0.4-0.1,0.6c-0.2,0.1-0.4,0.2-0.7,0.2c-0.3,0-0.6-0.1-0.8-0.2C148.7,88.6,148.7,88.4,148.7,88.1z
		"/>
	<path fill="#FFFFFF" d="M152.1,95.7l2.4-3.2c0.4-0.5,0.8-0.9,1.1-1.4l0,0c-0.5,0.1-1.1,0.1-1.9,0.1h-1.5c0-0.1,0-0.3,0-0.5
		s0-0.4,0.1-0.6h4.7c0.1,0.4,0.2,0.7,0.2,0.8s-0.1,0.3-0.2,0.5l-2.4,3.2c-0.1,0.1-0.4,0.5-1.1,1.4l0,0.1c0.4,0,0.8-0.1,1.3-0.1h0.7
		c0.7,0,1.2-0.1,1.5-0.2c0.1,0.2,0.1,0.4,0.1,0.6c0,0.4-0.3,0.6-0.9,0.6h-4.2c-0.1-0.4-0.2-0.6-0.2-0.8S152,95.9,152.1,95.7z"/>
	<path fill="#FFFFFF" d="M163.7,93.9h-4.2c0,0.7,0.2,1.2,0.4,1.5c0.3,0.4,0.7,0.5,1.3,0.5s1.2-0.2,1.9-0.5c0.2,0.2,0.4,0.5,0.4,0.9
		c-0.7,0.5-1.6,0.8-2.6,0.8c-1,0-1.7-0.3-2.2-1s-0.7-1.5-0.7-2.6s0.3-2,0.7-2.6c0.5-0.7,1.2-1,2.1-1c0.9,0,1.6,0.3,2.1,0.8
		c0.5,0.6,0.7,1.3,0.7,2.1C163.8,93.2,163.8,93.6,163.7,93.9z M162.1,91.4c-0.2-0.4-0.6-0.5-1.1-0.5c-0.5,0-0.8,0.2-1.1,0.5
		s-0.4,0.9-0.4,1.5h2.9v-0.2C162.5,92.2,162.4,91.8,162.1,91.4z"/>
	<path fill="#FFFFFF" d="M164.8,96.4c0-0.2,0.1-0.3,0.1-0.5s0.2-0.3,0.3-0.4c0.8,0.4,1.4,0.6,1.9,0.6c0.5,0,0.8-0.1,1.1-0.3
		s0.4-0.4,0.4-0.7c0-0.4-0.3-0.8-0.9-1l-0.8-0.3c-1.2-0.4-1.8-1.1-1.8-2c0-0.6,0.2-1.1,0.7-1.5c0.5-0.4,1.1-0.6,1.8-0.6
		s1.5,0.2,2.2,0.5c0,0.2,0,0.4-0.1,0.6s-0.2,0.3-0.3,0.4c-0.7-0.3-1.3-0.4-1.9-0.4c-0.3,0-0.6,0.1-0.8,0.2c-0.2,0.2-0.3,0.3-0.3,0.6
		s0.1,0.4,0.2,0.6c0.1,0.1,0.4,0.3,0.7,0.4l0.8,0.3c1.2,0.5,1.8,1.2,1.8,2.1c0,0.6-0.2,1.1-0.7,1.5c-0.5,0.4-1.2,0.6-2,0.6
		C166.4,97.1,165.6,96.9,164.8,96.4z"/>
	<path fill="#FFFFFF" d="M177.7,89.9c0.8,0,1.3,0.3,1.8,1c0.4,0.6,0.6,1.5,0.6,2.7c0,1.1-0.3,2-0.8,2.6s-1.2,0.9-1.9,0.9
		c-0.6,0-1.1-0.2-1.7-0.5v2.5c0,0.3-0.1,0.5-0.2,0.7c-0.1,0.1-0.3,0.2-0.6,0.2h-0.5l-0.1-0.1v-9.8l0.1-0.1h0.4
		c0.4,0,0.7,0.2,0.8,0.7C176.3,90.2,176.9,89.9,177.7,89.9z M177.4,91c-0.7,0-1.2,0.3-1.6,1v3.4c0.5,0.4,1,0.5,1.4,0.5
		c0.4,0,0.8-0.2,1.1-0.7c0.3-0.4,0.4-1.1,0.4-1.9s-0.1-1.4-0.4-1.8C178.1,91.2,177.7,91,177.4,91z"/>
	<path fill="#FFFFFF" d="M187,96.4c-0.1,0.3-0.3,0.6-0.5,0.7c-0.5-0.1-0.9-0.4-1.1-0.9c-0.7,0.7-1.4,1-2.1,1s-1.2-0.2-1.6-0.6
		c-0.4-0.4-0.5-0.9-0.5-1.4c0-0.8,0.2-1.3,0.7-1.7c0.5-0.4,1.1-0.6,1.9-0.6c0.5,0,0.9,0,1.4,0.1v-0.6c0-0.8-0.4-1.3-1.2-1.3
		c-0.6,0-1.3,0.2-2.2,0.5c-0.3-0.3-0.4-0.6-0.4-1c1-0.4,1.9-0.6,2.9-0.6c0.7,0,1.3,0.2,1.7,0.6c0.4,0.4,0.6,1,0.6,1.8v2.9
		C186.6,95.7,186.7,96.1,187,96.4z M183.5,96c0.6,0,1.2-0.3,1.7-0.9v-1.3c-0.4,0-0.8-0.1-1.3-0.1c-0.5,0-0.8,0.1-1.1,0.3
		c-0.2,0.2-0.4,0.5-0.4,0.9c0,0.4,0.1,0.6,0.3,0.8S183.2,96,183.5,96z"/>
	<path fill="#FFFFFF" d="M188.2,90.7c0.1-0.3,0.2-0.6,0.5-0.7c0.6,0.1,1,0.6,1.2,1.2c0.4-0.8,1-1.2,1.8-1.2c0.2,0,0.5,0,0.7,0.1
		c0,0.5-0.1,0.9-0.3,1.3c-0.1,0-0.2,0-0.6-0.1c-0.7,0-1.2,0.4-1.5,1.1V97c-0.2,0-0.4,0.1-0.7,0.1s-0.5,0-0.7-0.1v-4.8
		C188.7,91.5,188.6,91,188.2,90.7z"/>
	<path fill="#FFFFFF" d="M198.8,96.4c-0.1,0.3-0.3,0.6-0.5,0.7c-0.5-0.1-0.9-0.4-1.1-0.9c-0.7,0.7-1.4,1-2.1,1s-1.2-0.2-1.6-0.6
		c-0.4-0.4-0.5-0.9-0.5-1.4c0-0.8,0.2-1.3,0.7-1.7c0.5-0.4,1.1-0.6,1.9-0.6c0.5,0,0.9,0,1.4,0.1v-0.6c0-0.8-0.4-1.3-1.2-1.3
		c-0.6,0-1.3,0.2-2.2,0.5c-0.3-0.3-0.4-0.6-0.4-1c1-0.4,1.9-0.6,2.9-0.6c0.7,0,1.3,0.2,1.7,0.6c0.4,0.4,0.6,1,0.6,1.8v2.9
		C198.4,95.7,198.5,96.1,198.8,96.4z M195.3,96c0.6,0,1.2-0.3,1.7-0.9v-1.3c-0.4,0-0.8-0.1-1.3-0.1c-0.5,0-0.8,0.1-1.1,0.3
		c-0.2,0.2-0.4,0.5-0.4,0.9c0,0.4,0.1,0.6,0.3,0.8S195,96,195.3,96z"/>
	<path fill="#FFFFFF" d="M203.3,94.8v-3.3c0-0.5-0.1-1-0.2-1.2c0.2-0.2,0.5-0.3,0.8-0.3s0.5,0.1,0.6,0.2c0.1,0.1,0.2,0.4,0.2,0.7
		v3.6c0,0.5,0.1,0.9,0.2,1.1c0.1,0.2,0.4,0.3,0.7,0.3s0.7-0.1,1-0.3c0.3-0.2,0.6-0.4,0.9-0.7v-4.9c0.2,0,0.5-0.1,0.7-0.1
		s0.4,0,0.7,0.1v5c0,0.7,0.1,1.1,0.4,1.4c-0.1,0.3-0.3,0.5-0.5,0.7c-0.6-0.1-0.9-0.5-1.1-1c-0.7,0.7-1.5,1-2.4,1
		c-0.6,0-1.1-0.2-1.4-0.6C203.5,96,203.3,95.5,203.3,94.8z"/>
	<path fill="#FFFFFF" d="M214.7,92.5c0-0.5-0.1-0.8-0.2-1.1c-0.1-0.2-0.4-0.3-0.7-0.3c-0.5,0-1.1,0.3-1.6,0.9V97
		c-0.2,0-0.4,0.1-0.7,0.1c-0.3,0-0.5,0-0.7-0.1v-6.9L211,90h0.5c0.5,0,0.7,0.3,0.8,0.9c0.6-0.6,1.3-1,2-1s1.3,0.3,1.6,1
		c0.7-0.7,1.5-1,2.2-1c0.6,0,1,0.2,1.3,0.6c0.3,0.4,0.5,0.9,0.5,1.6v3.4c0,0.5,0.1,1,0.2,1.2c-0.2,0.2-0.5,0.3-0.9,0.3
		c-0.5,0-0.7-0.3-0.7-0.9v-3.7c0-0.5-0.1-0.8-0.2-1.1c-0.1-0.2-0.4-0.3-0.7-0.3c-0.6,0-1.1,0.3-1.6,0.9V97c-0.2,0-0.4,0.1-0.7,0.1
		c-0.3,0-0.5,0-0.7-0.1V92.5z"/>
	<path fill="#FFFFFF" d="M227.2,96.4c-0.1,0.3-0.3,0.6-0.5,0.7c-0.5-0.1-0.9-0.4-1.1-0.9c-0.7,0.7-1.4,1-2.1,1s-1.2-0.2-1.6-0.6
		c-0.4-0.4-0.5-0.9-0.5-1.4c0-0.8,0.2-1.3,0.7-1.7c0.5-0.4,1.1-0.6,1.9-0.6c0.5,0,0.9,0,1.4,0.1v-0.6c0-0.8-0.4-1.3-1.2-1.3
		c-0.6,0-1.3,0.2-2.2,0.5c-0.3-0.3-0.4-0.6-0.4-1c1-0.4,1.9-0.6,2.9-0.6c0.7,0,1.3,0.2,1.7,0.6c0.4,0.4,0.6,1,0.6,1.8v2.9
		C226.8,95.7,226.9,96.1,227.2,96.4z M223.7,96c0.6,0,1.2-0.3,1.7-0.9v-1.3c-0.4,0-0.8-0.1-1.3-0.1c-0.5,0-0.8,0.1-1.1,0.3
		c-0.2,0.2-0.4,0.5-0.4,0.9c0,0.4,0.1,0.6,0.3,0.8S223.4,96,223.7,96z"/>
	<path fill="#FFFFFF" d="M233.7,97.1c-0.8,0-1.4-0.3-1.8-1c-0.4-0.6-0.6-1.5-0.6-2.7c0-1.1,0.3-2,0.8-2.6s1.2-0.9,1.9-0.9
		c0.5,0,1.1,0.2,1.6,0.5v-3.7l0.1-0.1h0.5c0.3,0,0.5,0.1,0.6,0.2c0.1,0.1,0.2,0.4,0.2,0.7V95c0,0.7,0.1,1.1,0.4,1.4
		c-0.1,0.3-0.3,0.6-0.5,0.7c-0.5-0.1-0.8-0.4-1-0.9C235.2,96.8,234.5,97.1,233.7,97.1z M234,96c0.6,0,1.1-0.3,1.6-0.9v-3.5
		c-0.5-0.4-1-0.5-1.4-0.5c-0.4,0-0.8,0.2-1.1,0.7c-0.3,0.4-0.4,1.1-0.4,1.9s0.1,1.4,0.4,1.8S233.6,96,234,96z"/>
	<path fill="#FFFFFF" d="M244.1,93.9H240c0,0.7,0.2,1.2,0.4,1.5c0.3,0.4,0.7,0.5,1.3,0.5s1.2-0.2,1.9-0.5c0.2,0.2,0.4,0.5,0.4,0.9
		c-0.7,0.5-1.6,0.8-2.6,0.8c-1,0-1.7-0.3-2.2-1s-0.7-1.5-0.7-2.6s0.3-2,0.7-2.6c0.5-0.7,1.2-1,2.1-1c0.9,0,1.6,0.3,2.1,0.8
		c0.5,0.6,0.7,1.3,0.7,2.1C244.2,93.2,244.2,93.6,244.1,93.9z M242.6,91.4c-0.2-0.4-0.6-0.5-1.1-0.5c-0.5,0-0.8,0.2-1.1,0.5
		s-0.4,0.9-0.4,1.5h2.9v-0.2C242.9,92.2,242.8,91.8,242.6,91.4z"/>
	<path fill="#FFFFFF" d="M247.8,95.9h0.5c0.1,0.2,0.1,0.4,0.1,0.6s0,0.3,0,0.4c-0.4,0.1-0.8,0.1-1.2,0.1c-0.9,0-1.3-0.5-1.3-1.4
		v-8.9l0.1-0.1h0.5c0.3,0,0.5,0.1,0.6,0.2s0.2,0.4,0.2,0.7v7.8C247.2,95.7,247.4,95.9,247.8,95.9z"/>
	<path fill="#FFFFFF" d="M254.9,93.9h-4.2c0,0.7,0.2,1.2,0.4,1.5c0.3,0.4,0.7,0.5,1.3,0.5s1.2-0.2,1.9-0.5c0.2,0.2,0.4,0.5,0.4,0.9
		c-0.7,0.5-1.6,0.8-2.6,0.8c-1,0-1.7-0.3-2.2-1s-0.7-1.5-0.7-2.6s0.3-2,0.7-2.6c0.5-0.7,1.2-1,2.1-1c0.9,0,1.6,0.3,2.1,0.8
		c0.5,0.6,0.7,1.3,0.7,2.1C255,93.2,255,93.6,254.9,93.9z M253.4,91.4c-0.2-0.4-0.6-0.5-1.1-0.5c-0.5,0-0.8,0.2-1.1,0.5
		s-0.4,0.9-0.4,1.5h2.9v-0.2C253.7,92.2,253.6,91.8,253.4,91.4z"/>
	<path fill="#FFFFFF" d="M258.6,97.1c-0.7,0-1.3-0.3-1.7-1c-0.4-0.6-0.6-1.5-0.6-2.7s0.3-2,0.8-2.6s1.2-0.9,1.9-0.9
		c0.7,0,1.4,0.2,1.9,0.7c0.2-0.3,0.5-0.6,0.9-0.7c0.3,0.1,0.4,0.4,0.5,0.7c-0.3,0.2-0.4,0.7-0.4,1.4v4.2c0,1.4-0.2,2.4-0.7,2.9
		c-0.5,0.6-1.3,0.9-2.3,0.9c-0.8,0-1.6-0.2-2.4-0.5c0-0.4,0.1-0.8,0.4-1c0.6,0.3,1.3,0.4,1.9,0.4c0.7,0,1.1-0.2,1.4-0.5
		s0.4-0.9,0.4-1.5v-0.7C260,96.8,259.4,97.1,258.6,97.1z M260.6,95.1v-3.4c-0.5-0.4-1-0.7-1.4-0.7s-0.8,0.2-1.1,0.6
		s-0.4,1.1-0.4,1.9s0.1,1.4,0.4,1.8c0.2,0.4,0.6,0.6,0.9,0.6C259.6,95.9,260.1,95.6,260.6,95.1z"/>
	<path fill="#FFFFFF" d="M269.3,96.4c-0.1,0.3-0.3,0.6-0.5,0.7c-0.5-0.1-0.9-0.4-1.1-0.9c-0.7,0.7-1.4,1-2.1,1s-1.2-0.2-1.6-0.6
		c-0.4-0.4-0.5-0.9-0.5-1.4c0-0.8,0.2-1.3,0.7-1.7c0.5-0.4,1.1-0.6,1.9-0.6c0.5,0,0.9,0,1.4,0.1v-0.6c0-0.8-0.4-1.3-1.2-1.3
		c-0.6,0-1.3,0.2-2.2,0.5c-0.3-0.3-0.4-0.6-0.4-1c1-0.4,1.9-0.6,2.9-0.6c0.7,0,1.3,0.2,1.7,0.6c0.4,0.4,0.6,1,0.6,1.8v2.9
		C268.9,95.7,269,96.1,269.3,96.4z M265.8,96c0.6,0,1.2-0.3,1.7-0.9v-1.3c-0.4,0-0.8-0.1-1.3-0.1c-0.5,0-0.8,0.1-1.1,0.3
		c-0.2,0.2-0.4,0.5-0.4,0.9c0,0.4,0.1,0.6,0.3,0.8S265.5,96,265.8,96z"/>
	<path fill="#FFFFFF" d="M272.5,98c0.1-0.2,0.2-0.5,0.3-0.9c-0.8-0.1-1.4-0.5-1.8-1.1c-0.4-0.7-0.6-1.5-0.6-2.4
		c0-1.2,0.3-2.1,0.8-2.8c0.6-0.6,1.2-0.9,2-0.9s1.4,0.2,1.9,0.7c0.4,0.4,0.7,0.9,0.7,1.4c0,0.5-0.2,0.8-0.7,0.8
		c-0.2,0-0.4,0-0.6-0.1c0,0,0-0.1,0-0.1c0-1.1-0.4-1.6-1.3-1.6c-0.5,0-0.8,0.2-1.1,0.7c-0.3,0.4-0.4,1.1-0.4,2
		c0,1.6,0.5,2.5,1.6,2.5c0.5,0,1.1-0.2,1.7-0.7c0.1,0.1,0.3,0.2,0.4,0.3c0.1,0.2,0.2,0.3,0.2,0.5c-0.6,0.6-1.3,0.9-2.1,1
		c-0.1,0.2-0.1,0.3-0.2,0.4c0.4,0,0.7,0.2,0.9,0.4c0.2,0.2,0.4,0.5,0.4,0.9s-0.2,0.7-0.5,0.9c-0.3,0.3-0.7,0.4-1.1,0.4
		s-0.8-0.1-1.1-0.3c0-0.3,0.1-0.5,0.3-0.7c0.2,0.1,0.4,0.2,0.7,0.2s0.4-0.1,0.5-0.2s0.2-0.2,0.2-0.4c0-0.2-0.1-0.3-0.2-0.4
		s-0.2-0.2-0.4-0.2s-0.3,0-0.4,0.1C272.6,98.2,272.6,98.1,272.5,98z"/>
	<path fill="#FFFFFF" d="M282.7,96.4c-0.1,0.3-0.3,0.6-0.5,0.7c-0.5-0.1-0.9-0.4-1.1-0.9c-0.7,0.7-1.4,1-2.1,1s-1.2-0.2-1.6-0.6
		c-0.4-0.4-0.5-0.9-0.5-1.4c0-0.8,0.2-1.3,0.7-1.7c0.5-0.4,1.1-0.6,1.9-0.6c0.5,0,0.9,0,1.4,0.1v-0.6c0-0.8-0.4-1.3-1.2-1.3
		c-0.6,0-1.3,0.2-2.2,0.5c-0.3-0.3-0.4-0.6-0.4-1c1-0.4,1.9-0.6,2.9-0.6c0.7,0,1.3,0.2,1.7,0.6c0.4,0.4,0.6,1,0.6,1.8v2.9
		C282.3,95.7,282.4,96.1,282.7,96.4z M279.8,89l-0.8-0.4c-0.2-0.1-0.4-0.1-0.5-0.1s-0.3,0.1-0.5,0.3l-0.2,0.2c-0.1,0-0.3,0-0.4-0.1
		c-0.1-0.1-0.2-0.2-0.3-0.3l0.1-0.3c0.1-0.3,0.3-0.6,0.6-0.7c0.2-0.2,0.5-0.3,0.8-0.3c0.3,0,0.5,0.1,0.8,0.2l0.8,0.4
		c0.1,0.1,0.3,0.1,0.5,0.1s0.3-0.1,0.5-0.4l0.2-0.2c0.1,0,0.3,0.1,0.4,0.1c0.1,0.1,0.2,0.2,0.3,0.3l-0.1,0.3
		c-0.1,0.3-0.3,0.6-0.6,0.7c-0.2,0.2-0.5,0.3-0.7,0.3S280.1,89.1,279.8,89z M279.2,96c0.6,0,1.2-0.3,1.7-0.9v-1.3
		c-0.4,0-0.8-0.1-1.3-0.1c-0.5,0-0.8,0.1-1.1,0.3c-0.2,0.2-0.4,0.5-0.4,0.9c0,0.4,0.1,0.6,0.3,0.8S278.9,96,279.2,96z"/>
	<path fill="#FFFFFF" d="M288.8,90.6c0.7,0.7,1,1.6,1,2.9s-0.3,2.2-1,2.9c-0.5,0.5-1.2,0.8-2,0.8c-0.8,0-1.5-0.3-2-0.8
		c-0.7-0.7-1-1.6-1-2.9s0.3-2.2,1-2.9c0.5-0.5,1.2-0.8,2-0.8C287.7,89.9,288.3,90.1,288.8,90.6z M285.2,93.5c0,1.7,0.5,2.6,1.6,2.6
		c1.1,0,1.6-0.9,1.6-2.6c0-0.5,0-0.9-0.1-1.3c-0.1-0.4-0.3-0.7-0.5-0.9c-0.2-0.3-0.6-0.4-1-0.4c-0.4,0-0.7,0.1-1,0.4
		c-0.2,0.3-0.4,0.6-0.5,0.9S285.2,93,285.2,93.5z"/>
	<path fill="#FFFFFF" d="M137.4,108.9h-4.2c0,0.7,0.2,1.2,0.4,1.5c0.3,0.4,0.7,0.5,1.3,0.5s1.2-0.2,1.9-0.5c0.2,0.2,0.4,0.5,0.4,0.9
		c-0.7,0.5-1.6,0.8-2.6,0.8c-1,0-1.7-0.3-2.2-1s-0.7-1.5-0.7-2.6s0.3-2,0.7-2.6c0.5-0.7,1.2-1,2.1-1c0.9,0,1.6,0.3,2.1,0.8
		c0.5,0.6,0.7,1.3,0.7,2.1C137.5,108.2,137.5,108.6,137.4,108.9z M135.8,106.4c-0.2-0.4-0.6-0.5-1.1-0.5c-0.5,0-0.8,0.2-1.1,0.5
		s-0.4,0.9-0.4,1.5h2.9v-0.2C136.2,107.2,136.1,106.8,135.8,106.4z"/>
	<path fill="#FFFFFF" d="M139.5,112V106l-1.2,0c0-0.2-0.1-0.4-0.1-0.5c0-0.1,0-0.3,0.1-0.5l1.1,0c-0.1-0.5-0.1-1-0.1-1.3
		c0-0.6,0.2-1.1,0.6-1.5s0.9-0.6,1.5-0.6s1.2,0.1,1.8,0.3c0,0.4-0.1,0.7-0.3,0.9c-0.5-0.1-0.9-0.2-1.2-0.2s-0.6,0.1-0.8,0.3
		s-0.3,0.5-0.3,0.9c0,0.4,0,0.8,0.1,1.3l2,0c0,0.2,0.1,0.4,0.1,0.5c0,0.1,0,0.3-0.1,0.5l-1.9,0v5.9c-0.2,0-0.4,0.1-0.7,0.1
		C139.9,112,139.7,112,139.5,112z"/>
	<path fill="#FFFFFF" d="M145.8,106.2v5.8c-0.2,0-0.4,0.1-0.7,0.1c-0.3,0-0.5,0-0.7-0.1v-5.2c0-0.3,0-0.4-0.1-0.5
		c-0.1-0.1-0.2-0.2-0.5-0.2h-0.2c0-0.1-0.1-0.3-0.1-0.5c0-0.2,0-0.3,0.1-0.5c0.3,0,0.6-0.1,0.8-0.1h0.2c0.3,0,0.6,0.1,0.8,0.3
		C145.7,105.5,145.8,105.8,145.8,106.2z M144.1,103.1c0-0.2,0-0.4,0.1-0.6c0.2-0.1,0.5-0.2,0.8-0.2s0.6,0.1,0.7,0.2
		c0.1,0.2,0.1,0.4,0.1,0.6c0,0.2,0,0.4-0.1,0.6c-0.2,0.1-0.4,0.2-0.7,0.2c-0.3,0-0.6-0.1-0.8-0.2
		C144.1,103.6,144.1,103.4,144.1,103.1z"/>
	<path fill="#FFFFFF" d="M151.6,107.7c0,0,0-0.1,0-0.1c0-1.1-0.4-1.6-1.3-1.6c-0.5,0-0.8,0.2-1.1,0.7c-0.3,0.4-0.4,1.1-0.4,2
		c0,1.6,0.5,2.5,1.6,2.5c0.5,0,1.1-0.2,1.7-0.7c0.1,0.1,0.3,0.2,0.4,0.3c0.1,0.2,0.2,0.3,0.2,0.5c-0.7,0.7-1.5,1-2.5,1
		s-1.7-0.3-2.1-1c-0.5-0.7-0.7-1.6-0.7-2.7s0.3-2,0.8-2.6c0.6-0.6,1.2-0.9,2-0.9s1.4,0.2,1.9,0.7c0.4,0.4,0.7,0.9,0.7,1.4
		c0,0.5-0.2,0.8-0.7,0.8C151.9,107.7,151.8,107.7,151.6,107.7z"/>
	<path fill="#FFFFFF" d="M156,106.2v5.8c-0.2,0-0.4,0.1-0.7,0.1c-0.3,0-0.5,0-0.7-0.1v-5.2c0-0.3,0-0.4-0.1-0.5
		c-0.1-0.1-0.2-0.2-0.5-0.2h-0.2c0-0.1-0.1-0.3-0.1-0.5c0-0.2,0-0.3,0.1-0.5c0.3,0,0.6-0.1,0.8-0.1h0.2c0.3,0,0.6,0.1,0.8,0.3
		C155.9,105.5,156,105.8,156,106.2z M154.3,103.1c0-0.2,0-0.4,0.1-0.6c0.2-0.1,0.5-0.2,0.8-0.2s0.6,0.1,0.7,0.2
		c0.1,0.2,0.1,0.4,0.1,0.6c0,0.2,0,0.4-0.1,0.6c-0.2,0.1-0.4,0.2-0.7,0.2c-0.3,0-0.6-0.1-0.8-0.2
		C154.3,103.6,154.3,103.4,154.3,103.1z"/>
	<path fill="#FFFFFF" d="M163.2,108.9H159c0,0.7,0.2,1.2,0.4,1.5c0.3,0.4,0.7,0.5,1.3,0.5s1.2-0.2,1.9-0.5c0.2,0.2,0.4,0.5,0.4,0.9
		c-0.7,0.5-1.6,0.8-2.6,0.8c-1,0-1.7-0.3-2.2-1s-0.7-1.5-0.7-2.6s0.3-2,0.7-2.6c0.5-0.7,1.2-1,2.1-1c0.9,0,1.6,0.3,2.1,0.8
		c0.5,0.6,0.7,1.3,0.7,2.1C163.3,108.2,163.3,108.6,163.2,108.9z M161.6,106.4c-0.2-0.4-0.6-0.5-1.1-0.5c-0.5,0-0.8,0.2-1.1,0.5
		s-0.4,0.9-0.4,1.5h2.9v-0.2C162,107.2,161.9,106.8,161.6,106.4z"/>
	<path fill="#FFFFFF" d="M170.5,107.2v3.3c0,0.6,0.1,1,0.2,1.2c-0.2,0.2-0.5,0.3-0.8,0.3c-0.5,0-0.7-0.3-0.7-0.9v-3.6
		c0-0.5-0.1-0.9-0.2-1.1s-0.4-0.3-0.7-0.3c-0.3,0-0.7,0.1-1,0.3s-0.6,0.4-0.9,0.7v4.9c-0.2,0-0.4,0.1-0.7,0.1c-0.3,0-0.5,0-0.7-0.1
		v-6.9l0.1-0.1h0.5c0.5,0,0.7,0.3,0.8,0.9c0.7-0.6,1.5-1,2.3-1c0.6,0,1.1,0.2,1.4,0.6C170.3,106,170.5,106.5,170.5,107.2z"/>
	<path fill="#FFFFFF" d="M175.8,105c0,0.2,0.1,0.3,0.1,0.5c0,0.2,0,0.3-0.1,0.5l-1.8,0v4.3c0,0.4,0.2,0.6,0.6,0.6h1
		c0.1,0.2,0.1,0.4,0.1,0.6s0,0.3,0,0.4c-0.5,0.1-1.1,0.1-1.5,0.1c-1,0-1.4-0.5-1.4-1.4V106l-1,0c0-0.1-0.1-0.3-0.1-0.5
		c0-0.2,0-0.4,0.1-0.5l1,0v-1.3c0-0.3,0.1-0.5,0.2-0.7s0.3-0.2,0.6-0.2h0.5l0.1,0.1v2.1L175.8,105z"/>
	<path fill="#FFFFFF" d="M182.3,108.9h-4.2c0,0.7,0.2,1.2,0.4,1.5c0.3,0.4,0.7,0.5,1.3,0.5s1.2-0.2,1.9-0.5c0.2,0.2,0.4,0.5,0.4,0.9
		c-0.7,0.5-1.6,0.8-2.6,0.8c-1,0-1.7-0.3-2.2-1s-0.7-1.5-0.7-2.6s0.3-2,0.7-2.6c0.5-0.7,1.2-1,2.1-1c0.9,0,1.6,0.3,2.1,0.8
		c0.5,0.6,0.7,1.3,0.7,2.1C182.4,108.2,182.4,108.6,182.3,108.9z M180.7,106.4c-0.2-0.4-0.6-0.5-1.1-0.5c-0.5,0-0.8,0.2-1.1,0.5
		s-0.4,0.9-0.4,1.5h2.9v-0.2C181.1,107.2,181,106.8,180.7,106.4z"/>
	<path fill="#FFFFFF" d="M190.1,108.8h-3.4c0-0.2-0.1-0.4-0.1-0.6s0-0.4,0.1-0.6h3.4c0,0.2,0.1,0.4,0.1,0.6
		C190.1,108.5,190.1,108.7,190.1,108.8z"/>
	<path fill="#FFFFFF" d="M198.4,107.7c0,0,0-0.1,0-0.1c0-1.1-0.4-1.6-1.3-1.6c-0.5,0-0.8,0.2-1.1,0.7c-0.3,0.4-0.4,1.1-0.4,2
		c0,1.6,0.5,2.5,1.6,2.5c0.5,0,1.1-0.2,1.7-0.7c0.1,0.1,0.3,0.2,0.4,0.3c0.1,0.2,0.2,0.3,0.2,0.5c-0.7,0.7-1.5,1-2.5,1
		s-1.7-0.3-2.1-1c-0.5-0.7-0.7-1.6-0.7-2.7s0.3-2,0.8-2.6c0.6-0.6,1.2-0.9,2-0.9s1.4,0.2,1.9,0.7c0.4,0.4,0.7,0.9,0.7,1.4
		c0,0.5-0.2,0.8-0.7,0.8C198.7,107.7,198.5,107.7,198.4,107.7z"/>
	<path fill="#FFFFFF" d="M205.7,105.6c0.7,0.7,1,1.6,1,2.9s-0.3,2.2-1,2.9c-0.5,0.5-1.2,0.8-2,0.8c-0.8,0-1.5-0.3-2-0.8
		c-0.7-0.7-1-1.6-1-2.9s0.3-2.2,1-2.9c0.5-0.5,1.2-0.8,2-0.8C204.5,104.9,205.2,105.1,205.7,105.6z M202.1,108.5
		c0,1.7,0.5,2.6,1.6,2.6c1.1,0,1.6-0.9,1.6-2.6c0-0.5,0-0.9-0.1-1.3c-0.1-0.4-0.3-0.7-0.5-0.9c-0.2-0.3-0.6-0.4-1-0.4
		c-0.4,0-0.7,0.1-1,0.4c-0.2,0.3-0.4,0.6-0.5,0.9S202.1,108,202.1,108.5z"/>
	<path fill="#FFFFFF" d="M212.1,107.5c0-0.5-0.1-0.8-0.2-1.1c-0.1-0.2-0.4-0.3-0.7-0.3c-0.5,0-1.1,0.3-1.6,0.9v4.9
		c-0.2,0-0.4,0.1-0.7,0.1c-0.3,0-0.5,0-0.7-0.1v-6.9l0.1-0.1h0.5c0.5,0,0.7,0.3,0.8,0.9c0.6-0.6,1.3-1,2-1s1.3,0.3,1.6,1
		c0.7-0.7,1.5-1,2.2-1c0.6,0,1,0.2,1.3,0.6c0.3,0.4,0.5,0.9,0.5,1.6v3.4c0,0.5,0.1,1,0.2,1.2c-0.2,0.2-0.5,0.3-0.9,0.3
		c-0.5,0-0.7-0.3-0.7-0.9v-3.7c0-0.5-0.1-0.8-0.2-1.1c-0.1-0.2-0.4-0.3-0.7-0.3c-0.6,0-1.1,0.3-1.6,0.9v4.9c-0.2,0-0.4,0.1-0.7,0.1
		c-0.3,0-0.5,0-0.7-0.1V107.5z"/>
	<path fill="#FFFFFF" d="M223.8,105.6c0.7,0.7,1,1.6,1,2.9s-0.3,2.2-1,2.9c-0.5,0.5-1.2,0.8-2,0.8c-0.8,0-1.5-0.3-2-0.8
		c-0.7-0.7-1-1.6-1-2.9s0.3-2.2,1-2.9c0.5-0.5,1.2-0.8,2-0.8C222.7,104.9,223.3,105.1,223.8,105.6z M220.2,108.5
		c0,1.7,0.5,2.6,1.6,2.6c1.1,0,1.6-0.9,1.6-2.6c0-0.5,0-0.9-0.1-1.3c-0.1-0.4-0.3-0.7-0.5-0.9c-0.2-0.3-0.6-0.4-1-0.4
		c-0.4,0-0.7,0.1-1,0.4c-0.2,0.3-0.4,0.6-0.5,0.9S220.2,108,220.2,108.5z"/>
	<path fill="#FFFFFF" d="M229,105.7c0.1-0.3,0.2-0.6,0.5-0.7c0.6,0.1,1,0.6,1.2,1.2c0.4-0.8,1-1.2,1.8-1.2c0.2,0,0.5,0,0.7,0.1
		c0,0.5-0.1,0.9-0.3,1.3c-0.1,0-0.2,0-0.6-0.1c-0.7,0-1.2,0.4-1.5,1.1v4.6c-0.2,0-0.4,0.1-0.7,0.1s-0.5,0-0.7-0.1v-4.8
		C229.5,106.5,229.3,106,229,105.7z"/>
	<path fill="#FFFFFF" d="M239.4,108.9h-4.2c0,0.7,0.2,1.2,0.4,1.5c0.3,0.4,0.7,0.5,1.3,0.5s1.2-0.2,1.9-0.5c0.2,0.2,0.4,0.5,0.4,0.9
		c-0.7,0.5-1.6,0.8-2.6,0.8c-1,0-1.7-0.3-2.2-1s-0.7-1.5-0.7-2.6s0.3-2,0.7-2.6c0.5-0.7,1.2-1,2.1-1c0.9,0,1.6,0.3,2.1,0.8
		c0.5,0.6,0.7,1.3,0.7,2.1C239.5,108.2,239.5,108.6,239.4,108.9z M237.9,106.4c-0.2-0.4-0.6-0.5-1.1-0.5c-0.5,0-0.8,0.2-1.1,0.5
		s-0.4,0.9-0.4,1.5h2.9v-0.2C238.2,107.2,238.1,106.8,237.9,106.4z"/>
	<path fill="#FFFFFF" d="M246.5,111.4c-0.1,0.3-0.3,0.6-0.5,0.7c-0.5-0.1-0.9-0.4-1.1-0.9c-0.7,0.7-1.4,1-2.1,1s-1.2-0.2-1.6-0.6
		c-0.4-0.4-0.5-0.9-0.5-1.4c0-0.8,0.2-1.3,0.7-1.7c0.5-0.4,1.1-0.6,1.9-0.6c0.5,0,0.9,0,1.4,0.1v-0.6c0-0.8-0.4-1.3-1.2-1.3
		c-0.6,0-1.3,0.2-2.2,0.5c-0.3-0.3-0.4-0.6-0.4-1c1-0.4,1.9-0.6,2.9-0.6c0.7,0,1.3,0.2,1.7,0.6c0.4,0.4,0.6,1,0.6,1.8v2.9
		C246.1,110.7,246.3,111.1,246.5,111.4z M243.1,111c0.6,0,1.2-0.3,1.7-0.9v-1.3c-0.4,0-0.8-0.1-1.3-0.1c-0.5,0-0.8,0.1-1.1,0.3
		c-0.2,0.2-0.4,0.5-0.4,0.9c0,0.4,0.1,0.6,0.3,0.8S242.8,111,243.1,111z"/>
	<path fill="#FFFFFF" d="M250,110.9h0.5c0.1,0.2,0.1,0.4,0.1,0.6s0,0.3,0,0.4c-0.4,0.1-0.8,0.1-1.2,0.1c-0.9,0-1.3-0.5-1.3-1.4v-8.9
		l0.1-0.1h0.5c0.3,0,0.5,0.1,0.6,0.2s0.2,0.4,0.2,0.7v7.8C249.5,110.7,249.7,110.9,250,110.9z"/>
	<path fill="#FFFFFF" d="M253.6,106.2v5.8c-0.2,0-0.4,0.1-0.7,0.1c-0.3,0-0.5,0-0.7-0.1v-5.2c0-0.3,0-0.4-0.1-0.5
		c-0.1-0.1-0.2-0.2-0.5-0.2h-0.2c0-0.1-0.1-0.3-0.1-0.5c0-0.2,0-0.3,0.1-0.5c0.3,0,0.6-0.1,0.8-0.1h0.2c0.3,0,0.6,0.1,0.8,0.3
		C253.5,105.5,253.6,105.8,253.6,106.2z M251.9,103.1c0-0.2,0-0.4,0.1-0.6c0.2-0.1,0.5-0.2,0.8-0.2s0.6,0.1,0.7,0.2
		c0.1,0.2,0.1,0.4,0.1,0.6c0,0.2,0,0.4-0.1,0.6c-0.2,0.1-0.4,0.2-0.7,0.2c-0.3,0-0.6-0.1-0.8-0.2
		C251.9,103.6,251.9,103.4,251.9,103.1z"/>
	<path fill="#FFFFFF" d="M255.3,110.7l2.4-3.2c0.4-0.5,0.8-0.9,1.1-1.4l0,0c-0.5,0.1-1.1,0.1-1.9,0.1h-1.5c0-0.1,0-0.3,0-0.5
		s0-0.4,0.1-0.6h4.7c0.1,0.4,0.2,0.7,0.2,0.8s-0.1,0.3-0.2,0.5l-2.4,3.2c-0.1,0.1-0.4,0.5-1.1,1.4l0,0.1c0.4,0,0.8-0.1,1.3-0.1h0.7
		c0.7,0,1.2-0.1,1.5-0.2c0.1,0.2,0.1,0.4,0.1,0.6c0,0.4-0.3,0.6-0.9,0.6h-4.2c-0.1-0.4-0.2-0.6-0.2-0.8S255.2,110.9,255.3,110.7z"/>
	<path fill="#FFFFFF" d="M267.1,111.4c-0.1,0.3-0.3,0.6-0.5,0.7c-0.5-0.1-0.9-0.4-1.1-0.9c-0.7,0.7-1.4,1-2.1,1s-1.2-0.2-1.6-0.6
		c-0.4-0.4-0.5-0.9-0.5-1.4c0-0.8,0.2-1.3,0.7-1.7c0.5-0.4,1.1-0.6,1.9-0.6c0.5,0,0.9,0,1.4,0.1v-0.6c0-0.8-0.4-1.3-1.2-1.3
		c-0.6,0-1.3,0.2-2.2,0.5c-0.3-0.3-0.4-0.6-0.4-1c1-0.4,1.9-0.6,2.9-0.6c0.7,0,1.3,0.2,1.7,0.6c0.4,0.4,0.6,1,0.6,1.8v2.9
		C266.7,110.7,266.8,111.1,267.1,111.4z M263.7,111c0.6,0,1.2-0.3,1.7-0.9v-1.3c-0.4,0-0.8-0.1-1.3-0.1c-0.5,0-0.8,0.1-1.1,0.3
		c-0.2,0.2-0.4,0.5-0.4,0.9c0,0.4,0.1,0.6,0.3,0.8S263.4,111,263.7,111z"/>
	<path fill="#FFFFFF" d="M268.4,105.7c0.1-0.3,0.2-0.6,0.5-0.7c0.6,0.1,1,0.6,1.2,1.2c0.4-0.8,1-1.2,1.8-1.2c0.2,0,0.5,0,0.7,0.1
		c0,0.5-0.1,0.9-0.3,1.3c-0.1,0-0.2,0-0.6-0.1c-0.7,0-1.2,0.4-1.5,1.1v4.6c-0.2,0-0.4,0.1-0.7,0.1s-0.5,0-0.7-0.1v-4.8
		C268.9,106.5,268.7,106,268.4,105.7z"/>
	<path fill="#FFFFFF" d="M138,123.9h-4.2c0,0.7,0.2,1.2,0.4,1.5c0.3,0.4,0.7,0.5,1.3,0.5s1.2-0.2,1.9-0.5c0.2,0.2,0.4,0.5,0.4,0.9
		c-0.7,0.5-1.6,0.8-2.6,0.8c-1,0-1.7-0.3-2.2-1s-0.7-1.5-0.7-2.6s0.3-2,0.7-2.6c0.5-0.7,1.2-1,2.1-1c0.9,0,1.6,0.3,2.1,0.8
		c0.5,0.6,0.7,1.3,0.7,2.1C138.1,123.2,138.1,123.6,138,123.9z M136.5,121.4c-0.2-0.4-0.6-0.5-1.1-0.5c-0.5,0-0.8,0.2-1.1,0.5
		s-0.4,0.9-0.4,1.5h2.9v-0.2C136.8,122.2,136.7,121.8,136.5,121.4z"/>
	<path fill="#FFFFFF" d="M146.6,122.5c0-0.5-0.1-0.8-0.2-1.1c-0.1-0.2-0.4-0.3-0.7-0.3c-0.5,0-1.1,0.3-1.6,0.9v4.9
		c-0.2,0-0.4,0.1-0.7,0.1c-0.3,0-0.5,0-0.7-0.1v-6.9l0.1-0.1h0.5c0.5,0,0.7,0.3,0.8,0.9c0.6-0.6,1.3-1,2-1s1.3,0.3,1.6,1
		c0.7-0.7,1.5-1,2.2-1c0.6,0,1,0.2,1.3,0.6c0.3,0.4,0.5,0.9,0.5,1.6v3.4c0,0.5,0.1,1,0.2,1.2c-0.2,0.2-0.5,0.3-0.9,0.3
		c-0.5,0-0.7-0.3-0.7-0.9v-3.7c0-0.5-0.1-0.8-0.2-1.1c-0.1-0.2-0.4-0.3-0.7-0.3c-0.6,0-1.1,0.3-1.6,0.9v4.9c-0.2,0-0.4,0.1-0.7,0.1
		c-0.3,0-0.5,0-0.7-0.1V122.5z"/>
	<path fill="#FFFFFF" d="M158.3,120.6c0.7,0.7,1,1.6,1,2.9s-0.3,2.2-1,2.9c-0.5,0.5-1.2,0.8-2,0.8c-0.8,0-1.5-0.3-2-0.8
		c-0.7-0.7-1-1.6-1-2.9s0.3-2.2,1-2.9c0.5-0.5,1.2-0.8,2-0.8C157.1,119.9,157.8,120.1,158.3,120.6z M154.7,123.5
		c0,1.7,0.5,2.6,1.6,2.6c1.1,0,1.6-0.9,1.6-2.6c0-0.5,0-0.9-0.1-1.3c-0.1-0.4-0.3-0.7-0.5-0.9c-0.2-0.3-0.6-0.4-1-0.4
		c-0.4,0-0.7,0.1-1,0.4c-0.2,0.3-0.4,0.6-0.5,0.9S154.7,123,154.7,123.5z"/>
	<path fill="#FFFFFF" d="M166.4,122.2v3.3c0,0.6,0.1,1,0.2,1.2c-0.2,0.2-0.5,0.3-0.8,0.3c-0.5,0-0.7-0.3-0.7-0.9v-3.6
		c0-0.5-0.1-0.9-0.2-1.1s-0.4-0.3-0.7-0.3c-0.3,0-0.7,0.1-1,0.3s-0.6,0.4-0.9,0.7v4.9c-0.2,0-0.4,0.1-0.7,0.1c-0.3,0-0.5,0-0.7-0.1
		v-6.9l0.1-0.1h0.5c0.5,0,0.7,0.3,0.8,0.9c0.7-0.6,1.5-1,2.3-1c0.6,0,1.1,0.2,1.4,0.6C166.2,121,166.4,121.5,166.4,122.2z"/>
	<path fill="#FFFFFF" d="M169.9,121.2v5.8c-0.2,0-0.4,0.1-0.7,0.1c-0.3,0-0.5,0-0.7-0.1v-5.2c0-0.3,0-0.4-0.1-0.5
		c-0.1-0.1-0.2-0.2-0.5-0.2h-0.2c0-0.1-0.1-0.3-0.1-0.5c0-0.2,0-0.3,0.1-0.5c0.3,0,0.6-0.1,0.8-0.1h0.2c0.3,0,0.6,0.1,0.8,0.3
		C169.8,120.5,169.9,120.8,169.9,121.2z M168.2,118.1c0-0.2,0-0.4,0.1-0.6c0.2-0.1,0.5-0.2,0.8-0.2s0.6,0.1,0.7,0.2
		c0.1,0.2,0.1,0.4,0.1,0.6c0,0.2,0,0.4-0.1,0.6c-0.2,0.1-0.4,0.2-0.7,0.2c-0.3,0-0.6-0.1-0.8-0.2
		C168.2,118.6,168.2,118.4,168.2,118.1z"/>
	<path fill="#FFFFFF" d="M175.3,120c0,0.2,0.1,0.3,0.1,0.5c0,0.2,0,0.3-0.1,0.5l-1.8,0v4.3c0,0.4,0.2,0.6,0.6,0.6h1
		c0.1,0.2,0.1,0.4,0.1,0.6s0,0.3,0,0.4c-0.5,0.1-1.1,0.1-1.5,0.1c-1,0-1.4-0.5-1.4-1.4V121l-1,0c0-0.1-0.1-0.3-0.1-0.5
		c0-0.2,0-0.4,0.1-0.5l1,0v-1.3c0-0.3,0.1-0.5,0.2-0.7s0.3-0.2,0.6-0.2h0.5l0.1,0.1v2.1L175.3,120z"/>
	<path fill="#FFFFFF" d="M181.2,120.6c0.7,0.7,1,1.6,1,2.9s-0.3,2.2-1,2.9c-0.5,0.5-1.2,0.8-2,0.8c-0.8,0-1.5-0.3-2-0.8
		c-0.7-0.7-1-1.6-1-2.9s0.3-2.2,1-2.9c0.5-0.5,1.2-0.8,2-0.8C180,119.9,180.7,120.1,181.2,120.6z M177.6,123.5
		c0,1.7,0.5,2.6,1.6,2.6c1.1,0,1.6-0.9,1.6-2.6c0-0.5,0-0.9-0.1-1.3c-0.1-0.4-0.3-0.7-0.5-0.9c-0.2-0.3-0.6-0.4-1-0.4
		c-0.4,0-0.7,0.1-1,0.4c-0.2,0.3-0.4,0.6-0.5,0.9S177.6,123,177.6,123.5z"/>
	<path fill="#FFFFFF" d="M183.4,120.7c0.1-0.3,0.2-0.6,0.5-0.7c0.6,0.1,1,0.6,1.2,1.2c0.4-0.8,1-1.2,1.8-1.2c0.2,0,0.5,0,0.7,0.1
		c0,0.5-0.1,0.9-0.3,1.3c-0.1,0-0.2,0-0.6-0.1c-0.7,0-1.2,0.4-1.5,1.1v4.6c-0.2,0-0.4,0.1-0.7,0.1s-0.5,0-0.7-0.1v-4.8
		C184,121.5,183.8,121,183.4,120.7z"/>
	<path fill="#FFFFFF" d="M194,126.4c-0.1,0.3-0.3,0.6-0.5,0.7c-0.5-0.1-0.9-0.4-1.1-0.9c-0.7,0.7-1.4,1-2.1,1s-1.2-0.2-1.6-0.6
		c-0.4-0.4-0.5-0.9-0.5-1.4c0-0.8,0.2-1.3,0.7-1.7c0.5-0.4,1.1-0.6,1.9-0.6c0.5,0,0.9,0,1.4,0.1v-0.6c0-0.8-0.4-1.3-1.2-1.3
		c-0.6,0-1.3,0.2-2.2,0.5c-0.3-0.3-0.4-0.6-0.4-1c1-0.4,1.9-0.6,2.9-0.6c0.7,0,1.3,0.2,1.7,0.6c0.4,0.4,0.6,1,0.6,1.8v2.9
		C193.6,125.7,193.7,126.1,194,126.4z M190.5,126c0.6,0,1.2-0.3,1.7-0.9v-1.3c-0.4,0-0.8-0.1-1.3-0.1c-0.5,0-0.8,0.1-1.1,0.3
		c-0.2,0.2-0.4,0.5-0.4,0.9c0,0.4,0.1,0.6,0.3,0.8S190.2,126,190.5,126z"/>
	<path fill="#FFFFFF" d="M195.3,120.7c0.1-0.3,0.2-0.6,0.5-0.7c0.6,0.1,1,0.6,1.2,1.2c0.4-0.8,1-1.2,1.8-1.2c0.2,0,0.5,0,0.7,0.1
		c0,0.5-0.1,0.9-0.3,1.3c-0.1,0-0.2,0-0.6-0.1c-0.7,0-1.2,0.4-1.5,1.1v4.6c-0.2,0-0.4,0.1-0.7,0.1s-0.5,0-0.7-0.1v-4.8
		C195.8,121.5,195.6,121,195.3,120.7z"/>
	<path fill="#FFFFFF" d="M208.8,126.4c-0.1,0.3-0.3,0.6-0.5,0.7c-0.5-0.1-0.9-0.4-1.1-0.9c-0.7,0.7-1.4,1-2.1,1s-1.2-0.2-1.6-0.6
		c-0.4-0.4-0.5-0.9-0.5-1.4c0-0.8,0.2-1.3,0.7-1.7c0.5-0.4,1.1-0.6,1.9-0.6c0.5,0,0.9,0,1.4,0.1v-0.6c0-0.8-0.4-1.3-1.2-1.3
		c-0.6,0-1.3,0.2-2.2,0.5c-0.3-0.3-0.4-0.6-0.4-1c1-0.4,1.9-0.6,2.9-0.6c0.7,0,1.3,0.2,1.7,0.6c0.4,0.4,0.6,1,0.6,1.8v2.9
		C208.5,125.7,208.6,126.1,208.8,126.4z M205.4,126c0.6,0,1.2-0.3,1.7-0.9v-1.3c-0.4,0-0.8-0.1-1.3-0.1c-0.5,0-0.8,0.1-1.1,0.3
		c-0.2,0.2-0.4,0.5-0.4,0.9c0,0.4,0.1,0.6,0.3,0.8S205.1,126,205.4,126z"/>
	<path fill="#FFFFFF" d="M215.4,127.1c-0.8,0-1.4-0.3-1.8-1c-0.4-0.6-0.6-1.5-0.6-2.7c0-1.1,0.3-2,0.8-2.6s1.2-0.9,1.9-0.9
		c0.5,0,1.1,0.2,1.6,0.5v-3.7l0.1-0.1h0.5c0.3,0,0.5,0.1,0.6,0.2c0.1,0.1,0.2,0.4,0.2,0.7v7.5c0,0.7,0.1,1.1,0.4,1.4
		c-0.1,0.3-0.3,0.6-0.5,0.7c-0.5-0.1-0.8-0.4-1-0.9C216.8,126.8,216.2,127.1,215.4,127.1z M215.6,126c0.6,0,1.1-0.3,1.6-0.9v-3.5
		c-0.5-0.4-1-0.5-1.4-0.5c-0.4,0-0.8,0.2-1.1,0.7c-0.3,0.4-0.4,1.1-0.4,1.9s0.1,1.4,0.4,1.8S215.3,126,215.6,126z"/>
	<path fill="#FFFFFF" d="M225.8,123.9h-4.2c0,0.7,0.2,1.2,0.4,1.5c0.3,0.4,0.7,0.5,1.3,0.5s1.2-0.2,1.9-0.5c0.2,0.2,0.4,0.5,0.4,0.9
		c-0.7,0.5-1.6,0.8-2.6,0.8c-1,0-1.7-0.3-2.2-1s-0.7-1.5-0.7-2.6s0.3-2,0.7-2.6c0.5-0.7,1.2-1,2.1-1c0.9,0,1.6,0.3,2.1,0.8
		c0.5,0.6,0.7,1.3,0.7,2.1C225.9,123.2,225.9,123.6,225.8,123.9z M224.2,121.4c-0.2-0.4-0.6-0.5-1.1-0.5c-0.5,0-0.8,0.2-1.1,0.5
		s-0.4,0.9-0.4,1.5h2.9v-0.2C224.6,122.2,224.4,121.8,224.2,121.4z"/>
	<path fill="#FFFFFF" d="M229.4,125.9h0.5c0.1,0.2,0.1,0.4,0.1,0.6s0,0.3,0,0.4c-0.4,0.1-0.8,0.1-1.2,0.1c-0.9,0-1.3-0.5-1.3-1.4
		v-8.9l0.1-0.1h0.5c0.3,0,0.5,0.1,0.6,0.2s0.2,0.4,0.2,0.7v7.8C228.9,125.7,229.1,125.9,229.4,125.9z"/>
	<path fill="#FFFFFF" d="M236.6,123.9h-4.2c0,0.7,0.2,1.2,0.4,1.5c0.3,0.4,0.7,0.5,1.3,0.5s1.2-0.2,1.9-0.5c0.2,0.2,0.4,0.5,0.4,0.9
		c-0.7,0.5-1.6,0.8-2.6,0.8c-1,0-1.7-0.3-2.2-1s-0.7-1.5-0.7-2.6s0.3-2,0.7-2.6c0.5-0.7,1.2-1,2.1-1c0.9,0,1.6,0.3,2.1,0.8
		c0.5,0.6,0.7,1.3,0.7,2.1C236.7,123.2,236.7,123.6,236.6,123.9z M235,121.4c-0.2-0.4-0.6-0.5-1.1-0.5c-0.5,0-0.8,0.2-1.1,0.5
		s-0.4,0.9-0.4,1.5h2.9v-0.2C235.4,122.2,235.3,121.8,235,121.4z"/>
	<path fill="#FFFFFF" d="M240.3,127.1c-0.7,0-1.3-0.3-1.7-1c-0.4-0.6-0.6-1.5-0.6-2.7s0.3-2,0.8-2.6s1.2-0.9,1.9-0.9
		c0.7,0,1.4,0.2,1.9,0.7c0.2-0.3,0.5-0.6,0.9-0.7c0.3,0.1,0.4,0.4,0.5,0.7c-0.3,0.2-0.4,0.7-0.4,1.4v4.2c0,1.4-0.2,2.4-0.7,2.9
		c-0.5,0.6-1.3,0.9-2.3,0.9c-0.8,0-1.6-0.2-2.4-0.5c0-0.4,0.1-0.8,0.4-1c0.6,0.3,1.3,0.4,1.9,0.4c0.7,0,1.1-0.2,1.4-0.5
		s0.4-0.9,0.4-1.5v-0.7C241.7,126.8,241,127.1,240.3,127.1z M242.2,125.1v-3.4c-0.5-0.4-1-0.7-1.4-0.7s-0.8,0.2-1.1,0.6
		s-0.4,1.1-0.4,1.9s0.1,1.4,0.4,1.8c0.2,0.4,0.6,0.6,0.9,0.6C241.2,125.9,241.8,125.6,242.2,125.1z"/>
	<path fill="#FFFFFF" d="M250.9,126.4c-0.1,0.3-0.3,0.6-0.5,0.7c-0.5-0.1-0.9-0.4-1.1-0.9c-0.7,0.7-1.4,1-2.1,1s-1.2-0.2-1.6-0.6
		c-0.4-0.4-0.5-0.9-0.5-1.4c0-0.8,0.2-1.3,0.7-1.7c0.5-0.4,1.1-0.6,1.9-0.6c0.5,0,0.9,0,1.4,0.1v-0.6c0-0.8-0.4-1.3-1.2-1.3
		c-0.6,0-1.3,0.2-2.2,0.5c-0.3-0.3-0.4-0.6-0.4-1c1-0.4,1.9-0.6,2.9-0.6c0.7,0,1.3,0.2,1.7,0.6c0.4,0.4,0.6,1,0.6,1.8v2.9
		C250.5,125.7,250.7,126.1,250.9,126.4z M247.5,126c0.6,0,1.2-0.3,1.7-0.9v-1.3c-0.4,0-0.8-0.1-1.3-0.1c-0.5,0-0.8,0.1-1.1,0.3
		c-0.2,0.2-0.4,0.5-0.4,0.9c0,0.4,0.1,0.6,0.3,0.8S247.2,126,247.5,126z"/>
	<path fill="#FFFFFF" d="M254.2,128c0.1-0.2,0.2-0.5,0.3-0.9c-0.8-0.1-1.4-0.5-1.8-1.1c-0.4-0.7-0.6-1.5-0.6-2.4
		c0-1.2,0.3-2.1,0.8-2.8c0.6-0.6,1.2-0.9,2-0.9s1.4,0.2,1.9,0.7c0.4,0.4,0.7,0.9,0.7,1.4c0,0.5-0.2,0.8-0.7,0.8
		c-0.2,0-0.4,0-0.6-0.1c0,0,0-0.1,0-0.1c0-1.1-0.4-1.6-1.3-1.6c-0.5,0-0.8,0.2-1.1,0.7c-0.3,0.4-0.4,1.1-0.4,2
		c0,1.6,0.5,2.5,1.6,2.5c0.5,0,1.1-0.2,1.7-0.7c0.1,0.1,0.3,0.2,0.4,0.3c0.1,0.2,0.2,0.3,0.2,0.5c-0.6,0.6-1.3,0.9-2.1,1
		c-0.1,0.2-0.1,0.3-0.2,0.4c0.4,0,0.7,0.2,0.9,0.4c0.2,0.2,0.4,0.5,0.4,0.9s-0.2,0.7-0.5,0.9c-0.3,0.3-0.7,0.4-1.1,0.4
		s-0.8-0.1-1.1-0.3c0-0.3,0.1-0.5,0.3-0.7c0.2,0.1,0.4,0.2,0.7,0.2s0.4-0.1,0.5-0.2s0.2-0.2,0.2-0.4c0-0.2-0.1-0.3-0.2-0.4
		s-0.2-0.2-0.4-0.2s-0.3,0-0.4,0.1C254.3,128.2,254.2,128.1,254.2,128z"/>
	<path fill="#FFFFFF" d="M264.3,126.4c-0.1,0.3-0.3,0.6-0.5,0.7c-0.5-0.1-0.9-0.4-1.1-0.9c-0.7,0.7-1.4,1-2.1,1s-1.2-0.2-1.6-0.6
		c-0.4-0.4-0.5-0.9-0.5-1.4c0-0.8,0.2-1.3,0.7-1.7c0.5-0.4,1.1-0.6,1.9-0.6c0.5,0,0.9,0,1.4,0.1v-0.6c0-0.8-0.4-1.3-1.2-1.3
		c-0.6,0-1.3,0.2-2.2,0.5c-0.3-0.3-0.4-0.6-0.4-1c1-0.4,1.9-0.6,2.9-0.6c0.7,0,1.3,0.2,1.7,0.6c0.4,0.4,0.6,1,0.6,1.8v2.9
		C263.9,125.7,264.1,126.1,264.3,126.4z M261.5,119l-0.8-0.4c-0.2-0.1-0.4-0.1-0.5-0.1s-0.3,0.1-0.5,0.3l-0.2,0.2
		c-0.1,0-0.3,0-0.4-0.1c-0.1-0.1-0.2-0.2-0.3-0.3l0.1-0.3c0.1-0.3,0.3-0.6,0.6-0.7c0.2-0.2,0.5-0.3,0.8-0.3c0.3,0,0.5,0.1,0.8,0.2
		l0.8,0.4c0.1,0.1,0.3,0.1,0.5,0.1s0.3-0.1,0.5-0.4l0.2-0.2c0.1,0,0.3,0.1,0.4,0.1c0.1,0.1,0.2,0.2,0.3,0.3l-0.1,0.3
		c-0.1,0.3-0.3,0.6-0.6,0.7c-0.2,0.2-0.5,0.3-0.7,0.3S261.8,119.1,261.5,119z M260.9,126c0.6,0,1.2-0.3,1.7-0.9v-1.3
		c-0.4,0-0.8-0.1-1.3-0.1c-0.5,0-0.8,0.1-1.1,0.3c-0.2,0.2-0.4,0.5-0.4,0.9c0,0.4,0.1,0.6,0.3,0.8S260.6,126,260.9,126z"/>
	<path fill="#FFFFFF" d="M270.5,120.6c0.7,0.7,1,1.6,1,2.9s-0.3,2.2-1,2.9c-0.5,0.5-1.2,0.8-2,0.8c-0.8,0-1.5-0.3-2-0.8
		c-0.7-0.7-1-1.6-1-2.9s0.3-2.2,1-2.9c0.5-0.5,1.2-0.8,2-0.8C269.3,119.9,270,120.1,270.5,120.6z M266.9,123.5
		c0,1.7,0.5,2.6,1.6,2.6c1.1,0,1.6-0.9,1.6-2.6c0-0.5,0-0.9-0.1-1.3c-0.1-0.4-0.3-0.7-0.5-0.9c-0.2-0.3-0.6-0.4-1-0.4
		c-0.4,0-0.7,0.1-1,0.4c-0.2,0.3-0.4,0.6-0.5,0.9S266.9,123,266.9,123.5z"/>
	<path fill="#FFFFFF" d="M140.6,142.1c-0.8,0-1.4-0.3-1.8-1c-0.4-0.6-0.6-1.5-0.6-2.7c0-1.1,0.3-2,0.8-2.6s1.2-0.9,1.9-0.9
		c0.5,0,1.1,0.2,1.6,0.5v-3.7l0.1-0.1h0.5c0.3,0,0.5,0.1,0.6,0.2c0.1,0.1,0.2,0.4,0.2,0.7v7.5c0,0.7,0.1,1.1,0.4,1.4
		c-0.1,0.3-0.3,0.6-0.5,0.7c-0.5-0.1-0.8-0.4-1-0.9C142,141.8,141.4,142.1,140.6,142.1z M140.8,141c0.6,0,1.1-0.3,1.6-0.9v-3.5
		c-0.5-0.4-1-0.5-1.4-0.5c-0.4,0-0.8,0.2-1.1,0.7c-0.3,0.4-0.4,1.1-0.4,1.9s0.1,1.4,0.4,1.8S140.5,141,140.8,141z"/>
	<path fill="#FFFFFF" d="M151,138.9h-4.2c0,0.7,0.2,1.2,0.4,1.5c0.3,0.4,0.7,0.5,1.3,0.5s1.2-0.2,1.9-0.5c0.2,0.2,0.4,0.5,0.4,0.9
		c-0.7,0.5-1.6,0.8-2.6,0.8c-1,0-1.7-0.3-2.2-1s-0.7-1.5-0.7-2.6s0.3-2,0.7-2.6c0.5-0.7,1.2-1,2.1-1c0.9,0,1.6,0.3,2.1,0.8
		c0.5,0.6,0.7,1.3,0.7,2.1C151.1,138.2,151,138.6,151,138.9z M149.4,136.4c-0.2-0.4-0.6-0.5-1.1-0.5c-0.5,0-0.8,0.2-1.1,0.5
		s-0.4,0.9-0.4,1.5h2.9v-0.2C149.8,137.2,149.6,136.8,149.4,136.4z"/>
	<path fill="#FFFFFF" d="M159,135c0,0.2,0.1,0.3,0.1,0.5c0,0.2,0,0.3-0.1,0.5l-1.8,0v4.3c0,0.4,0.2,0.6,0.6,0.6h1
		c0.1,0.2,0.1,0.4,0.1,0.6s0,0.3,0,0.4c-0.5,0.1-1.1,0.1-1.5,0.1c-1,0-1.4-0.5-1.4-1.4V136l-1,0c0-0.1-0.1-0.3-0.1-0.5
		c0-0.2,0-0.4,0.1-0.5l1,0v-1.3c0-0.3,0.1-0.5,0.2-0.7s0.3-0.2,0.6-0.2h0.5l0.1,0.1v2.1L159,135z"/>
	<path fill="#FFFFFF" d="M165.7,141.4c-0.1,0.3-0.3,0.6-0.5,0.7c-0.5-0.1-0.9-0.4-1.1-0.9c-0.7,0.7-1.4,1-2.1,1s-1.2-0.2-1.6-0.6
		c-0.4-0.4-0.5-0.9-0.5-1.4c0-0.8,0.2-1.3,0.7-1.7c0.5-0.4,1.1-0.6,1.9-0.6c0.5,0,0.9,0,1.4,0.1v-0.6c0-0.8-0.4-1.3-1.2-1.3
		c-0.6,0-1.3,0.2-2.2,0.5c-0.3-0.3-0.4-0.6-0.4-1c1-0.4,1.9-0.6,2.9-0.6c0.7,0,1.3,0.2,1.7,0.6c0.4,0.4,0.6,1,0.6,1.8v2.9
		C165.3,140.7,165.5,141.1,165.7,141.4z M162.3,141c0.6,0,1.2-0.3,1.7-0.9v-1.3c-0.4,0-0.8-0.1-1.3-0.1c-0.5,0-0.8,0.1-1.1,0.3
		c-0.2,0.2-0.4,0.5-0.4,0.9c0,0.4,0.1,0.6,0.3,0.8S162,141,162.3,141z"/>
	<path fill="#FFFFFF" d="M167,135.7c0.1-0.3,0.2-0.6,0.5-0.7c0.6,0.1,1,0.6,1.2,1.2c0.4-0.8,1-1.2,1.8-1.2c0.2,0,0.5,0,0.7,0.1
		c0,0.5-0.1,0.9-0.3,1.3c-0.1,0-0.2,0-0.6-0.1c-0.7,0-1.2,0.4-1.5,1.1v4.6c-0.2,0-0.4,0.1-0.7,0.1s-0.5,0-0.7-0.1v-4.8
		C167.5,136.5,167.3,136,167,135.7z"/>
	<path fill="#FFFFFF" d="M177.4,138.9h-4.2c0,0.7,0.2,1.2,0.4,1.5c0.3,0.4,0.7,0.5,1.3,0.5s1.2-0.2,1.9-0.5c0.2,0.2,0.4,0.5,0.4,0.9
		c-0.7,0.5-1.6,0.8-2.6,0.8c-1,0-1.7-0.3-2.2-1s-0.7-1.5-0.7-2.6s0.3-2,0.7-2.6c0.5-0.7,1.2-1,2.1-1c0.9,0,1.6,0.3,2.1,0.8
		c0.5,0.6,0.7,1.3,0.7,2.1C177.5,138.2,177.5,138.6,177.4,138.9z M175.9,136.4c-0.2-0.4-0.6-0.5-1.1-0.5c-0.5,0-0.8,0.2-1.1,0.5
		s-0.4,0.9-0.4,1.5h2.9v-0.2C176.2,137.2,176.1,136.8,175.9,136.4z"/>
	<path fill="#FFFFFF" d="M179.5,142V136l-1.2,0c0-0.2-0.1-0.4-0.1-0.5c0-0.1,0-0.3,0.1-0.5l1.1,0c-0.1-0.5-0.1-1-0.1-1.3
		c0-0.6,0.2-1.1,0.6-1.5s0.9-0.6,1.5-0.6s1.2,0.1,1.8,0.3c0,0.4-0.1,0.7-0.3,0.9c-0.5-0.1-0.9-0.2-1.2-0.2s-0.6,0.1-0.8,0.3
		s-0.3,0.5-0.3,0.9c0,0.4,0,0.8,0.1,1.3l2,0c0,0.2,0.1,0.4,0.1,0.5c0,0.1,0,0.3-0.1,0.5l-1.9,0v5.9c-0.2,0-0.4,0.1-0.7,0.1
		C179.9,142,179.7,142,179.5,142z"/>
	<path fill="#FFFFFF" d="M189,141.4c-0.1,0.3-0.3,0.6-0.5,0.7c-0.5-0.1-0.9-0.4-1.1-0.9c-0.7,0.7-1.4,1-2.1,1s-1.2-0.2-1.6-0.6
		c-0.4-0.4-0.5-0.9-0.5-1.4c0-0.8,0.2-1.3,0.7-1.7c0.5-0.4,1.1-0.6,1.9-0.6c0.5,0,0.9,0,1.4,0.1v-0.6c0-0.8-0.4-1.3-1.2-1.3
		c-0.6,0-1.3,0.2-2.2,0.5c-0.3-0.3-0.4-0.6-0.4-1c1-0.4,1.9-0.6,2.9-0.6c0.7,0,1.3,0.2,1.7,0.6c0.4,0.4,0.6,1,0.6,1.8v2.9
		C188.6,140.7,188.8,141.1,189,141.4z M185.6,141c0.6,0,1.2-0.3,1.7-0.9v-1.3c-0.4,0-0.8-0.1-1.3-0.1c-0.5,0-0.8,0.1-1.1,0.3
		c-0.2,0.2-0.4,0.5-0.4,0.9c0,0.4,0.1,0.6,0.3,0.8S185.3,141,185.6,141z"/>
	<path fill="#FFFFFF" d="M190,141.4c0-0.2,0.1-0.3,0.1-0.5s0.2-0.3,0.3-0.4c0.8,0.4,1.4,0.6,1.9,0.6c0.5,0,0.8-0.1,1.1-0.3
		s0.4-0.4,0.4-0.7c0-0.4-0.3-0.8-0.9-1l-0.8-0.3c-1.2-0.4-1.8-1.1-1.8-2c0-0.6,0.2-1.1,0.7-1.5c0.5-0.4,1.1-0.6,1.8-0.6
		s1.5,0.2,2.2,0.5c0,0.2,0,0.4-0.1,0.6s-0.2,0.3-0.3,0.4c-0.7-0.3-1.3-0.4-1.9-0.4c-0.3,0-0.6,0.1-0.8,0.2c-0.2,0.2-0.3,0.3-0.3,0.6
		s0.1,0.4,0.2,0.6c0.1,0.1,0.4,0.3,0.7,0.4l0.8,0.3c1.2,0.5,1.8,1.2,1.8,2.1c0,0.6-0.2,1.1-0.7,1.5c-0.5,0.4-1.2,0.6-2,0.6
		C191.6,142.1,190.8,141.9,190,141.4z"/>
	<path fill="#FFFFFF" d="M204.7,138.9h-4.2c0,0.7,0.2,1.2,0.4,1.5c0.3,0.4,0.7,0.5,1.3,0.5s1.2-0.2,1.9-0.5c0.2,0.2,0.4,0.5,0.4,0.9
		c-0.7,0.5-1.6,0.8-2.6,0.8c-1,0-1.7-0.3-2.2-1s-0.7-1.5-0.7-2.6s0.3-2,0.7-2.6c0.5-0.7,1.2-1,2.1-1c0.9,0,1.6,0.3,2.1,0.8
		c0.5,0.6,0.7,1.3,0.7,2.1C204.8,138.2,204.7,138.6,204.7,138.9z M203.1,136.4c-0.2-0.4-0.6-0.5-1.1-0.5c-0.5,0-0.8,0.2-1.1,0.5
		s-0.4,0.9-0.4,1.5h2.9v-0.2C203.4,137.2,203.3,136.8,203.1,136.4z"/>
	<path fill="#FFFFFF" d="M206.2,144.2c-0.2-0.1-0.4-0.3-0.4-0.6c0,0,0-0.1,0-0.1c0.3-0.1,0.6-0.3,0.8-0.6s0.3-0.5,0.3-0.8
		c-0.3-0.1-0.5-0.1-0.5-0.2c-0.1-0.1-0.1-0.4-0.1-0.7s0-0.5,0.1-0.7c0.2-0.1,0.5-0.2,0.9-0.2c0.4,0,0.6,0.1,0.8,0.2
		c0.1,0.2,0.1,0.5,0.1,0.9c0,0.6-0.2,1.2-0.5,1.7C207.3,143.6,206.8,143.9,206.2,144.2z M206.3,136.6c0-0.3,0-0.5,0.1-0.7
		c0.2-0.1,0.5-0.2,0.8-0.2c0.3,0,0.6,0.1,0.8,0.2c0.1,0.2,0.1,0.4,0.1,0.7s0,0.5-0.1,0.7c-0.2,0.1-0.4,0.2-0.8,0.2s-0.6-0.1-0.8-0.2
		C206.3,137.1,206.3,136.9,206.3,136.6z"/>
	<path fill="#FFFFFF" d="M214.9,140.9h0.5c0.1,0.2,0.1,0.4,0.1,0.6s0,0.3,0,0.4c-0.4,0.1-0.8,0.1-1.2,0.1c-0.9,0-1.3-0.5-1.3-1.4
		v-8.9l0.1-0.1h0.5c0.3,0,0.5,0.1,0.6,0.2s0.2,0.4,0.2,0.7v7.8C214.3,140.7,214.5,140.9,214.9,140.9z"/>
	<path fill="#FFFFFF" d="M218.5,136.2v5.8c-0.2,0-0.4,0.1-0.7,0.1c-0.3,0-0.5,0-0.7-0.1v-5.2c0-0.3,0-0.4-0.1-0.5
		c-0.1-0.1-0.2-0.2-0.5-0.2h-0.2c0-0.1-0.1-0.3-0.1-0.5c0-0.2,0-0.3,0.1-0.5c0.3,0,0.6-0.1,0.8-0.1h0.2c0.3,0,0.6,0.1,0.8,0.3
		C218.4,135.5,218.5,135.8,218.5,136.2z M216.7,133.1c0-0.2,0-0.4,0.1-0.6c0.2-0.1,0.5-0.2,0.8-0.2s0.6,0.1,0.7,0.2
		c0.1,0.2,0.1,0.4,0.1,0.6c0,0.2,0,0.4-0.1,0.6c-0.2,0.1-0.4,0.2-0.7,0.2c-0.3,0-0.6-0.1-0.8-0.2
		C216.7,133.6,216.7,133.4,216.7,133.1z"/>
	<path fill="#FFFFFF" d="M222.5,142.1c-0.8,0-1.4-0.3-1.8-1c-0.4-0.6-0.6-1.5-0.6-2.7c0-1.1,0.3-2,0.8-2.6s1.2-0.9,1.9-0.9
		c0.5,0,1.1,0.2,1.6,0.5v-3.7l0.1-0.1h0.5c0.3,0,0.5,0.1,0.6,0.2c0.1,0.1,0.2,0.4,0.2,0.7v7.5c0,0.7,0.1,1.1,0.4,1.4
		c-0.1,0.3-0.3,0.6-0.5,0.7c-0.5-0.1-0.8-0.4-1-0.9C224,141.8,223.3,142.1,222.5,142.1z M222.8,141c0.6,0,1.1-0.3,1.6-0.9v-3.5
		c-0.5-0.4-1-0.5-1.4-0.5c-0.4,0-0.8,0.2-1.1,0.7c-0.3,0.4-0.4,1.1-0.4,1.9s0.1,1.4,0.4,1.8S222.4,141,222.8,141z"/>
	<path fill="#FFFFFF" d="M232.9,138.9h-4.2c0,0.7,0.2,1.2,0.4,1.5c0.3,0.4,0.7,0.5,1.3,0.5s1.2-0.2,1.9-0.5c0.2,0.2,0.4,0.5,0.4,0.9
		c-0.7,0.5-1.6,0.8-2.6,0.8c-1,0-1.7-0.3-2.2-1s-0.7-1.5-0.7-2.6s0.3-2,0.7-2.6c0.5-0.7,1.2-1,2.1-1c0.9,0,1.6,0.3,2.1,0.8
		c0.5,0.6,0.7,1.3,0.7,2.1C233,138.2,233,138.6,232.9,138.9z M231.3,136.4c-0.2-0.4-0.6-0.5-1.1-0.5c-0.5,0-0.8,0.2-1.1,0.5
		s-0.4,0.9-0.4,1.5h2.9v-0.2C231.7,137.2,231.6,136.8,231.3,136.4z"/>
	<path fill="#FFFFFF" d="M234.3,135.7c0.1-0.3,0.2-0.6,0.5-0.7c0.6,0.1,1,0.6,1.2,1.2c0.4-0.8,1-1.2,1.8-1.2c0.2,0,0.5,0,0.7,0.1
		c0,0.5-0.1,0.9-0.3,1.3c-0.1,0-0.2,0-0.6-0.1c-0.7,0-1.2,0.4-1.5,1.1v4.6c-0.2,0-0.4,0.1-0.7,0.1s-0.5,0-0.7-0.1v-4.8
		C234.8,136.5,234.7,136,234.3,135.7z"/>
	<path fill="#FFFFFF" d="M244.9,141.4c-0.1,0.3-0.3,0.6-0.5,0.7c-0.5-0.1-0.9-0.4-1.1-0.9c-0.7,0.7-1.4,1-2.1,1s-1.2-0.2-1.6-0.6
		c-0.4-0.4-0.5-0.9-0.5-1.4c0-0.8,0.2-1.3,0.7-1.7c0.5-0.4,1.1-0.6,1.9-0.6c0.5,0,0.9,0,1.4,0.1v-0.6c0-0.8-0.4-1.3-1.2-1.3
		c-0.6,0-1.3,0.2-2.2,0.5c-0.3-0.3-0.4-0.6-0.4-1c1-0.4,1.9-0.6,2.9-0.6c0.7,0,1.3,0.2,1.7,0.6c0.4,0.4,0.6,1,0.6,1.8v2.9
		C244.5,140.7,244.6,141.1,244.9,141.4z M241.4,141c0.6,0,1.2-0.3,1.7-0.9v-1.3c-0.4,0-0.8-0.1-1.3-0.1c-0.5,0-0.8,0.1-1.1,0.3
		c-0.2,0.2-0.4,0.5-0.4,0.9c0,0.4,0.1,0.6,0.3,0.8S241.1,141,241.4,141z"/>
	<path fill="#FFFFFF" d="M252,137.2v3.3c0,0.6,0.1,1,0.2,1.2c-0.2,0.2-0.5,0.3-0.8,0.3c-0.5,0-0.7-0.3-0.7-0.9v-3.6
		c0-0.5-0.1-0.9-0.2-1.1s-0.4-0.3-0.7-0.3c-0.3,0-0.7,0.1-1,0.3s-0.6,0.4-0.9,0.7v4.9c-0.2,0-0.4,0.1-0.7,0.1c-0.3,0-0.5,0-0.7-0.1
		v-6.9l0.1-0.1h0.5c0.5,0,0.7,0.3,0.8,0.9c0.7-0.6,1.5-1,2.3-1c0.6,0,1.1,0.2,1.4,0.6C251.8,136,252,136.5,252,137.2z"/>
	<path fill="#FFFFFF" d="M255.7,143c0.1-0.2,0.2-0.5,0.3-0.9c-0.8-0.1-1.4-0.5-1.8-1.1c-0.4-0.7-0.6-1.5-0.6-2.4
		c0-1.2,0.3-2.1,0.8-2.8c0.6-0.6,1.2-0.9,2-0.9s1.4,0.2,1.9,0.7c0.4,0.4,0.7,0.9,0.7,1.4c0,0.5-0.2,0.8-0.7,0.8
		c-0.2,0-0.4,0-0.6-0.1c0,0,0-0.1,0-0.1c0-1.1-0.4-1.6-1.3-1.6c-0.5,0-0.8,0.2-1.1,0.7c-0.3,0.4-0.4,1.1-0.4,2
		c0,1.6,0.5,2.5,1.6,2.5c0.5,0,1.1-0.2,1.7-0.7c0.1,0.1,0.3,0.2,0.4,0.3c0.1,0.2,0.2,0.3,0.2,0.5c-0.6,0.6-1.3,0.9-2.1,1
		c-0.1,0.2-0.1,0.3-0.2,0.4c0.4,0,0.7,0.2,0.9,0.4c0.2,0.2,0.4,0.5,0.4,0.9s-0.2,0.7-0.5,0.9c-0.3,0.3-0.7,0.4-1.1,0.4
		s-0.8-0.1-1.1-0.3c0-0.3,0.1-0.5,0.3-0.7c0.2,0.1,0.4,0.2,0.7,0.2s0.4-0.1,0.5-0.2s0.2-0.2,0.2-0.4c0-0.2-0.1-0.3-0.2-0.4
		s-0.2-0.2-0.4-0.2s-0.3,0-0.4,0.1C255.8,143.2,255.7,143.1,255.7,143z"/>
	<path fill="#FFFFFF" d="M265.8,141.4c-0.1,0.3-0.3,0.6-0.5,0.7c-0.5-0.1-0.9-0.4-1.1-0.9c-0.7,0.7-1.4,1-2.1,1s-1.2-0.2-1.6-0.6
		c-0.4-0.4-0.5-0.9-0.5-1.4c0-0.8,0.2-1.3,0.7-1.7c0.5-0.4,1.1-0.6,1.9-0.6c0.5,0,0.9,0,1.4,0.1v-0.6c0-0.8-0.4-1.3-1.2-1.3
		c-0.6,0-1.3,0.2-2.2,0.5c-0.3-0.3-0.4-0.6-0.4-1c1-0.4,1.9-0.6,2.9-0.6c0.7,0,1.3,0.2,1.7,0.6c0.4,0.4,0.6,1,0.6,1.8v2.9
		C265.4,140.7,265.5,141.1,265.8,141.4z M262.3,141c0.6,0,1.2-0.3,1.7-0.9v-1.3c-0.4,0-0.8-0.1-1.3-0.1c-0.5,0-0.8,0.1-1.1,0.3
		c-0.2,0.2-0.4,0.5-0.4,0.9c0,0.4,0.1,0.6,0.3,0.8S262,141,262.3,141z"/>
	<path fill="#FFFFFF" d="M127.1,156.4c0-0.2,0.1-0.3,0.1-0.5s0.2-0.3,0.3-0.4c0.8,0.4,1.4,0.6,1.9,0.6c0.5,0,0.8-0.1,1.1-0.3
		s0.4-0.4,0.4-0.7c0-0.4-0.3-0.8-0.9-1l-0.8-0.3c-1.2-0.4-1.8-1.1-1.8-2c0-0.6,0.2-1.1,0.7-1.5c0.5-0.4,1.1-0.6,1.8-0.6
		s1.5,0.2,2.2,0.5c0,0.2,0,0.4-0.1,0.6s-0.2,0.3-0.3,0.4c-0.7-0.3-1.3-0.4-1.9-0.4c-0.3,0-0.6,0.1-0.8,0.2c-0.2,0.2-0.3,0.3-0.3,0.6
		s0.1,0.4,0.2,0.6c0.1,0.1,0.4,0.3,0.7,0.4l0.8,0.3c1.2,0.5,1.8,1.2,1.8,2.1c0,0.6-0.2,1.1-0.7,1.5c-0.5,0.4-1.2,0.6-2,0.6
		C128.7,157.1,127.9,156.9,127.1,156.4z"/>
	<path fill="#FFFFFF" d="M135.3,151.2v5.8c-0.2,0-0.4,0.1-0.7,0.1c-0.3,0-0.5,0-0.7-0.1v-5.2c0-0.3,0-0.4-0.1-0.5
		c-0.1-0.1-0.2-0.2-0.5-0.2h-0.2c0-0.1-0.1-0.3-0.1-0.5c0-0.2,0-0.3,0.1-0.5c0.3,0,0.6-0.1,0.8-0.1h0.2c0.3,0,0.6,0.1,0.8,0.3
		C135.2,150.5,135.3,150.8,135.3,151.2z M133.6,148.1c0-0.2,0-0.4,0.1-0.6c0.2-0.1,0.5-0.2,0.8-0.2s0.6,0.1,0.7,0.2
		c0.1,0.2,0.1,0.4,0.1,0.6c0,0.2,0,0.4-0.1,0.6c-0.2,0.1-0.4,0.2-0.7,0.2c-0.3,0-0.6-0.1-0.8-0.2
		C133.6,148.6,133.6,148.4,133.6,148.1z"/>
	<path fill="#FFFFFF" d="M140.7,150c0,0.2,0.1,0.3,0.1,0.5c0,0.2,0,0.3-0.1,0.5l-1.8,0v4.3c0,0.4,0.2,0.6,0.6,0.6h1
		c0.1,0.2,0.1,0.4,0.1,0.6s0,0.3,0,0.4c-0.5,0.1-1.1,0.1-1.5,0.1c-1,0-1.4-0.5-1.4-1.4V151l-1,0c0-0.1-0.1-0.3-0.1-0.5
		c0-0.2,0-0.4,0.1-0.5l1,0v-1.3c0-0.3,0.1-0.5,0.2-0.7s0.3-0.2,0.6-0.2h0.5l0.1,0.1v2.1L140.7,150z"/>
	<path fill="#FFFFFF" d="M142,154.8v-3.3c0-0.5-0.1-1-0.2-1.2c0.2-0.2,0.5-0.3,0.8-0.3s0.5,0.1,0.6,0.2c0.1,0.1,0.2,0.4,0.2,0.7v3.6
		c0,0.5,0.1,0.9,0.2,1.1c0.1,0.2,0.4,0.3,0.7,0.3s0.7-0.1,1-0.3c0.3-0.2,0.6-0.4,0.9-0.7v-4.9c0.2,0,0.5-0.1,0.7-0.1s0.4,0,0.7,0.1
		v5c0,0.7,0.1,1.1,0.4,1.4c-0.1,0.3-0.3,0.5-0.5,0.7c-0.6-0.1-0.9-0.5-1.1-1c-0.7,0.7-1.5,1-2.4,1c-0.6,0-1.1-0.2-1.4-0.6
		C142.2,156,142,155.5,142,154.8z"/>
	<path fill="#FFFFFF" d="M154.9,156.4c-0.1,0.3-0.3,0.6-0.5,0.7c-0.5-0.1-0.9-0.4-1.1-0.9c-0.7,0.7-1.4,1-2.1,1s-1.2-0.2-1.6-0.6
		c-0.4-0.4-0.5-0.9-0.5-1.4c0-0.8,0.2-1.3,0.7-1.7c0.5-0.4,1.1-0.6,1.9-0.6c0.5,0,0.9,0,1.4,0.1v-0.6c0-0.8-0.4-1.3-1.2-1.3
		c-0.6,0-1.3,0.2-2.2,0.5c-0.3-0.3-0.4-0.6-0.4-1c1-0.4,1.9-0.6,2.9-0.6c0.7,0,1.3,0.2,1.7,0.6c0.4,0.4,0.6,1,0.6,1.8v2.9
		C154.5,155.7,154.6,156.1,154.9,156.4z M151.5,156c0.6,0,1.2-0.3,1.7-0.9v-1.3c-0.4,0-0.8-0.1-1.3-0.1c-0.5,0-0.8,0.1-1.1,0.3
		c-0.2,0.2-0.4,0.5-0.4,0.9c0,0.4,0.1,0.6,0.3,0.8S151.1,156,151.5,156z"/>
	<path fill="#FFFFFF" d="M160,152.7c0,0,0-0.1,0-0.1c0-1.1-0.4-1.6-1.3-1.6c-0.5,0-0.8,0.2-1.1,0.7c-0.3,0.4-0.4,1.1-0.4,2
		c0,1.6,0.5,2.5,1.6,2.5c0.5,0,1.1-0.2,1.7-0.7c0.1,0.1,0.3,0.2,0.4,0.3c0.1,0.2,0.2,0.3,0.2,0.5c-0.7,0.7-1.5,1-2.5,1
		s-1.7-0.3-2.1-1c-0.5-0.7-0.7-1.6-0.7-2.7s0.3-2,0.8-2.6c0.6-0.6,1.2-0.9,2-0.9s1.4,0.2,1.9,0.7c0.4,0.4,0.7,0.9,0.7,1.4
		c0,0.5-0.2,0.8-0.7,0.8C160.4,152.7,160.2,152.7,160,152.7z"/>
	<path fill="#FFFFFF" d="M164.5,151.2v5.8c-0.2,0-0.4,0.1-0.7,0.1c-0.3,0-0.5,0-0.7-0.1v-5.2c0-0.3,0-0.4-0.1-0.5
		c-0.1-0.1-0.2-0.2-0.5-0.2h-0.2c0-0.1-0.1-0.3-0.1-0.5c0-0.2,0-0.3,0.1-0.5c0.3,0,0.6-0.1,0.8-0.1h0.2c0.3,0,0.6,0.1,0.8,0.3
		C164.4,150.5,164.5,150.8,164.5,151.2z M162.7,148.1c0-0.2,0-0.4,0.1-0.6c0.2-0.1,0.5-0.2,0.8-0.2s0.6,0.1,0.7,0.2
		c0.1,0.2,0.1,0.4,0.1,0.6c0,0.2,0,0.4-0.1,0.6c-0.2,0.1-0.4,0.2-0.7,0.2c-0.3,0-0.6-0.1-0.8-0.2
		C162.7,148.6,162.7,148.4,162.7,148.1z"/>
	<path fill="#FFFFFF" d="M171.1,150.6c0.7,0.7,1,1.6,1,2.9s-0.3,2.2-1,2.9c-0.5,0.5-1.2,0.8-2,0.8c-0.8,0-1.5-0.3-2-0.8
		c-0.7-0.7-1-1.6-1-2.9s0.3-2.2,1-2.9c0.5-0.5,1.2-0.8,2-0.8C169.9,149.9,170.6,150.1,171.1,150.6z M167.5,153.5
		c0,1.7,0.5,2.6,1.6,2.6c1.1,0,1.6-0.9,1.6-2.6c0-0.5,0-0.9-0.1-1.3c-0.1-0.4-0.3-0.7-0.5-0.9c-0.2-0.3-0.6-0.4-1-0.4
		c-0.4,0-0.7,0.1-1,0.4c-0.2,0.3-0.4,0.6-0.5,0.9S167.5,153,167.5,153.5z"/>
	<path fill="#FFFFFF" d="M179.2,152.2v3.3c0,0.6,0.1,1,0.2,1.2c-0.2,0.2-0.5,0.3-0.8,0.3c-0.5,0-0.7-0.3-0.7-0.9v-3.6
		c0-0.5-0.1-0.9-0.2-1.1s-0.4-0.3-0.7-0.3c-0.3,0-0.7,0.1-1,0.3s-0.6,0.4-0.9,0.7v4.9c-0.2,0-0.4,0.1-0.7,0.1c-0.3,0-0.5,0-0.7-0.1
		v-6.9l0.1-0.1h0.5c0.5,0,0.7,0.3,0.8,0.9c0.7-0.6,1.5-1,2.3-1c0.6,0,1.1,0.2,1.4,0.6C179,151,179.2,151.5,179.2,152.2z"/>
	<path fill="#FFFFFF" d="M186.5,156.4c-0.1,0.3-0.3,0.6-0.5,0.7c-0.5-0.1-0.9-0.4-1.1-0.9c-0.7,0.7-1.4,1-2.1,1s-1.2-0.2-1.6-0.6
		c-0.4-0.4-0.5-0.9-0.5-1.4c0-0.8,0.2-1.3,0.7-1.7c0.5-0.4,1.1-0.6,1.9-0.6c0.5,0,0.9,0,1.4,0.1v-0.6c0-0.8-0.4-1.3-1.2-1.3
		c-0.6,0-1.3,0.2-2.2,0.5c-0.3-0.3-0.4-0.6-0.4-1c1-0.4,1.9-0.6,2.9-0.6c0.7,0,1.3,0.2,1.7,0.6c0.4,0.4,0.6,1,0.6,1.8v2.9
		C186.1,155.7,186.2,156.1,186.5,156.4z M183.1,156c0.6,0,1.2-0.3,1.7-0.9v-1.3c-0.4,0-0.8-0.1-1.3-0.1c-0.5,0-0.8,0.1-1.1,0.3
		c-0.2,0.2-0.4,0.5-0.4,0.9c0,0.4,0.1,0.6,0.3,0.8S182.7,156,183.1,156z"/>
	<path fill="#FFFFFF" d="M190,155.9h0.5c0.1,0.2,0.1,0.4,0.1,0.6s0,0.3,0,0.4c-0.4,0.1-0.8,0.1-1.2,0.1c-0.9,0-1.3-0.5-1.3-1.4v-8.9
		l0.1-0.1h0.5c0.3,0,0.5,0.1,0.6,0.2s0.2,0.4,0.2,0.7v7.8C189.4,155.7,189.6,155.9,190,155.9z"/>
	<path fill="#FFFFFF" d="M198.3,149.9c0.8,0,1.3,0.3,1.8,1c0.4,0.6,0.6,1.5,0.6,2.7c0,1.1-0.3,2-0.8,2.6s-1.2,0.9-1.9,0.9
		c-0.6,0-1.1-0.2-1.7-0.5v2.5c0,0.3-0.1,0.5-0.2,0.7c-0.1,0.1-0.3,0.2-0.6,0.2h-0.5l-0.1-0.1v-9.8l0.1-0.1h0.4
		c0.4,0,0.7,0.2,0.8,0.7C196.9,150.2,197.5,149.9,198.3,149.9z M198,151c-0.7,0-1.2,0.3-1.6,1v3.4c0.5,0.4,1,0.5,1.4,0.5
		c0.4,0,0.8-0.2,1.1-0.7c0.3-0.4,0.4-1.1,0.4-1.9s-0.1-1.4-0.4-1.8C198.7,151.2,198.4,151,198,151z"/>
	<path fill="#FFFFFF" d="M207.6,156.4c-0.1,0.3-0.3,0.6-0.5,0.7c-0.5-0.1-0.9-0.4-1.1-0.9c-0.7,0.7-1.4,1-2.1,1s-1.2-0.2-1.6-0.6
		c-0.4-0.4-0.5-0.9-0.5-1.4c0-0.8,0.2-1.3,0.7-1.7c0.5-0.4,1.1-0.6,1.9-0.6c0.5,0,0.9,0,1.4,0.1v-0.6c0-0.8-0.4-1.3-1.2-1.3
		c-0.6,0-1.3,0.2-2.2,0.5c-0.3-0.3-0.4-0.6-0.4-1c1-0.4,1.9-0.6,2.9-0.6c0.7,0,1.3,0.2,1.7,0.6c0.4,0.4,0.6,1,0.6,1.8v2.9
		C207.2,155.7,207.3,156.1,207.6,156.4z M204.1,156c0.6,0,1.2-0.3,1.7-0.9v-1.3c-0.4,0-0.8-0.1-1.3-0.1c-0.5,0-0.8,0.1-1.1,0.3
		c-0.2,0.2-0.4,0.5-0.4,0.9c0,0.4,0.1,0.6,0.3,0.8S203.8,156,204.1,156z"/>
	<path fill="#FFFFFF" d="M208.9,150.7c0.1-0.3,0.2-0.6,0.5-0.7c0.6,0.1,1,0.6,1.2,1.2c0.4-0.8,1-1.2,1.8-1.2c0.2,0,0.5,0,0.7,0.1
		c0,0.5-0.1,0.9-0.3,1.3c-0.1,0-0.2,0-0.6-0.1c-0.7,0-1.2,0.4-1.5,1.1v4.6c-0.2,0-0.4,0.1-0.7,0.1s-0.5,0-0.7-0.1v-4.8
		C209.4,151.5,209.2,151,208.9,150.7z"/>
	<path fill="#FFFFFF" d="M219.4,156.4c-0.1,0.3-0.3,0.6-0.5,0.7c-0.5-0.1-0.9-0.4-1.1-0.9c-0.7,0.7-1.4,1-2.1,1s-1.2-0.2-1.6-0.6
		c-0.4-0.4-0.5-0.9-0.5-1.4c0-0.8,0.2-1.3,0.7-1.7c0.5-0.4,1.1-0.6,1.9-0.6c0.5,0,0.9,0,1.4,0.1v-0.6c0-0.8-0.4-1.3-1.2-1.3
		c-0.6,0-1.3,0.2-2.2,0.5c-0.3-0.3-0.4-0.6-0.4-1c1-0.4,1.9-0.6,2.9-0.6c0.7,0,1.3,0.2,1.7,0.6c0.4,0.4,0.6,1,0.6,1.8v2.9
		C219,155.7,219.1,156.1,219.4,156.4z M216,156c0.6,0,1.2-0.3,1.7-0.9v-1.3c-0.4,0-0.8-0.1-1.3-0.1c-0.5,0-0.8,0.1-1.1,0.3
		c-0.2,0.2-0.4,0.5-0.4,0.9c0,0.4,0.1,0.6,0.3,0.8S215.6,156,216,156z"/>
	<path fill="#FFFFFF" d="M227.8,152.5c0-0.5-0.1-0.8-0.2-1.1c-0.1-0.2-0.4-0.3-0.7-0.3c-0.5,0-1.1,0.3-1.6,0.9v4.9
		c-0.2,0-0.4,0.1-0.7,0.1c-0.3,0-0.5,0-0.7-0.1v-6.9l0.1-0.1h0.5c0.5,0,0.7,0.3,0.8,0.9c0.6-0.6,1.3-1,2-1s1.3,0.3,1.6,1
		c0.7-0.7,1.5-1,2.2-1c0.6,0,1,0.2,1.3,0.6c0.3,0.4,0.5,0.9,0.5,1.6v3.4c0,0.5,0.1,1,0.2,1.2c-0.2,0.2-0.5,0.3-0.9,0.3
		c-0.5,0-0.7-0.3-0.7-0.9v-3.7c0-0.5-0.1-0.8-0.2-1.1c-0.1-0.2-0.4-0.3-0.7-0.3c-0.6,0-1.1,0.3-1.6,0.9v4.9c-0.2,0-0.4,0.1-0.7,0.1
		c-0.3,0-0.5,0-0.7-0.1V152.5z"/>
	<path fill="#FFFFFF" d="M240.1,153.9h-4.2c0,0.7,0.2,1.2,0.4,1.5c0.3,0.4,0.7,0.5,1.3,0.5s1.2-0.2,1.9-0.5c0.2,0.2,0.4,0.5,0.4,0.9
		c-0.7,0.5-1.6,0.8-2.6,0.8c-1,0-1.7-0.3-2.2-1s-0.7-1.5-0.7-2.6s0.3-2,0.7-2.6c0.5-0.7,1.2-1,2.1-1c0.9,0,1.6,0.3,2.1,0.8
		c0.5,0.6,0.7,1.3,0.7,2.1C240.2,153.2,240.1,153.6,240.1,153.9z M238.5,151.4c-0.2-0.4-0.6-0.5-1.1-0.5c-0.5,0-0.8,0.2-1.1,0.5
		s-0.4,0.9-0.4,1.5h2.9v-0.2C238.9,152.2,238.7,151.8,238.5,151.4z"/>
	<path fill="#FFFFFF" d="M243.7,155.9h0.5c0.1,0.2,0.1,0.4,0.1,0.6s0,0.3,0,0.4c-0.4,0.1-0.8,0.1-1.2,0.1c-0.9,0-1.3-0.5-1.3-1.4
		v-8.9l0.1-0.1h0.5c0.3,0,0.5,0.1,0.6,0.2s0.2,0.4,0.2,0.7v7.8C243.2,155.7,243.3,155.9,243.7,155.9z"/>
	<path fill="#FFFFFF" d="M251.2,152.2v3.3c0,0.5,0.1,1,0.2,1.2c-0.2,0.2-0.5,0.3-0.9,0.3c-0.5,0-0.7-0.3-0.7-0.9v-3.6
		c0-0.5-0.1-0.9-0.2-1.1s-0.4-0.3-0.7-0.3s-0.7,0.1-1,0.3s-0.6,0.4-0.9,0.7v4.9c-0.2,0-0.4,0.1-0.7,0.1s-0.5,0-0.7-0.1v-10.2
		l0.1-0.1h0.5c0.3,0,0.5,0.1,0.6,0.2s0.2,0.4,0.2,0.7v3.3c0.7-0.6,1.4-0.9,2.3-0.9c0.6,0,1.1,0.2,1.4,0.6
		C251.1,151,251.2,151.5,251.2,152.2z"/>
	<path fill="#FFFFFF" d="M257.8,150.6c0.7,0.7,1,1.6,1,2.9s-0.3,2.2-1,2.9c-0.5,0.5-1.2,0.8-2,0.8c-0.8,0-1.5-0.3-2-0.8
		c-0.7-0.7-1-1.6-1-2.9s0.3-2.2,1-2.9c0.5-0.5,1.2-0.8,2-0.8C256.6,149.9,257.3,150.1,257.8,150.6z M254.2,153.5
		c0,1.7,0.5,2.6,1.6,2.6c1.1,0,1.6-0.9,1.6-2.6c0-0.5,0-0.9-0.1-1.3c-0.1-0.4-0.3-0.7-0.5-0.9c-0.2-0.3-0.6-0.4-1-0.4
		c-0.4,0-0.7,0.1-1,0.4c-0.2,0.3-0.4,0.6-0.5,0.9S254.2,153,254.2,153.5z"/>
	<path fill="#FFFFFF" d="M260,150.7c0.1-0.3,0.2-0.6,0.5-0.7c0.6,0.1,1,0.6,1.2,1.2c0.4-0.8,1-1.2,1.8-1.2c0.2,0,0.5,0,0.7,0.1
		c0,0.5-0.1,0.9-0.3,1.3c-0.1,0-0.2,0-0.6-0.1c-0.7,0-1.2,0.4-1.5,1.1v4.6c-0.2,0-0.4,0.1-0.7,0.1s-0.5,0-0.7-0.1v-4.8
		C260.5,151.5,260.4,151,260,150.7z"/>
	<path fill="#FFFFFF" d="M270.5,153.9h-4.2c0,0.7,0.2,1.2,0.4,1.5c0.3,0.4,0.7,0.5,1.3,0.5s1.2-0.2,1.9-0.5c0.2,0.2,0.4,0.5,0.4,0.9
		c-0.7,0.5-1.6,0.8-2.6,0.8c-1,0-1.7-0.3-2.2-1s-0.7-1.5-0.7-2.6s0.3-2,0.7-2.6c0.5-0.7,1.2-1,2.1-1c0.9,0,1.6,0.3,2.1,0.8
		c0.5,0.6,0.7,1.3,0.7,2.1C270.6,153.2,270.5,153.6,270.5,153.9z M268.9,151.4c-0.2-0.4-0.6-0.5-1.1-0.5c-0.5,0-0.8,0.2-1.1,0.5
		s-0.4,0.9-0.4,1.5h2.9v-0.2C269.2,152.2,269.1,151.8,268.9,151.4z"/>
	<path fill="#FFFFFF" d="M271.6,156.4c0-0.2,0.1-0.3,0.1-0.5s0.2-0.3,0.3-0.4c0.8,0.4,1.4,0.6,1.9,0.6c0.5,0,0.8-0.1,1.1-0.3
		s0.4-0.4,0.4-0.7c0-0.4-0.3-0.8-0.9-1l-0.8-0.3c-1.2-0.4-1.8-1.1-1.8-2c0-0.6,0.2-1.1,0.7-1.5c0.5-0.4,1.1-0.6,1.8-0.6
		s1.5,0.2,2.2,0.5c0,0.2,0,0.4-0.1,0.6s-0.2,0.3-0.3,0.4c-0.7-0.3-1.3-0.4-1.9-0.4c-0.3,0-0.6,0.1-0.8,0.2c-0.2,0.2-0.3,0.3-0.3,0.6
		s0.1,0.4,0.2,0.6c0.1,0.1,0.4,0.3,0.7,0.4l0.8,0.3c1.2,0.5,1.8,1.2,1.8,2.1c0,0.6-0.2,1.1-0.7,1.5c-0.5,0.4-1.2,0.6-2,0.6
		C273.2,157.1,272.4,156.9,271.6,156.4z"/>
	<path fill="#FFFFFF" d="M130.6,165.7c0.1-0.3,0.2-0.6,0.5-0.7c0.6,0.1,1,0.6,1.2,1.2c0.4-0.8,1-1.2,1.8-1.2c0.2,0,0.5,0,0.7,0.1
		c0,0.5-0.1,0.9-0.3,1.3c-0.1,0-0.2,0-0.6-0.1c-0.7,0-1.2,0.4-1.5,1.1v4.6c-0.2,0-0.4,0.1-0.7,0.1s-0.5,0-0.7-0.1v-4.8
		C131.1,166.5,130.9,166,130.6,165.7z"/>
	<path fill="#FFFFFF" d="M141,168.9h-4.2c0,0.7,0.2,1.2,0.4,1.5c0.3,0.4,0.7,0.5,1.3,0.5s1.2-0.2,1.9-0.5c0.2,0.2,0.4,0.5,0.4,0.9
		c-0.7,0.5-1.6,0.8-2.6,0.8c-1,0-1.7-0.3-2.2-1s-0.7-1.5-0.7-2.6s0.3-2,0.7-2.6c0.5-0.7,1.2-1,2.1-1c0.9,0,1.6,0.3,2.1,0.8
		c0.5,0.6,0.7,1.3,0.7,2.1C141.1,168.2,141.1,168.6,141,168.9z M139.4,166.4c-0.2-0.4-0.6-0.5-1.1-0.5c-0.5,0-0.8,0.2-1.1,0.5
		s-0.4,0.9-0.4,1.5h2.9v-0.2C139.8,167.2,139.7,166.8,139.4,166.4z"/>
	<path fill="#FFFFFF" d="M142.1,171.4c0-0.2,0.1-0.3,0.1-0.5s0.2-0.3,0.3-0.4c0.8,0.4,1.4,0.6,1.9,0.6c0.5,0,0.8-0.1,1.1-0.3
		s0.4-0.4,0.4-0.7c0-0.4-0.3-0.8-0.9-1l-0.8-0.3c-1.2-0.4-1.8-1.1-1.8-2c0-0.6,0.2-1.1,0.7-1.5c0.5-0.4,1.1-0.6,1.8-0.6
		s1.5,0.2,2.2,0.5c0,0.2,0,0.4-0.1,0.6s-0.2,0.3-0.3,0.4c-0.7-0.3-1.3-0.4-1.9-0.4c-0.3,0-0.6,0.1-0.8,0.2c-0.2,0.2-0.3,0.3-0.3,0.6
		s0.1,0.4,0.2,0.6c0.1,0.1,0.4,0.3,0.7,0.4l0.8,0.3c1.2,0.5,1.8,1.2,1.8,2.1c0,0.6-0.2,1.1-0.7,1.5c-0.5,0.4-1.2,0.6-2,0.6
		C143.7,172.1,142.9,171.9,142.1,171.4z"/>
	<path fill="#FFFFFF" d="M148.7,169.8v-3.3c0-0.5-0.1-1-0.2-1.2c0.2-0.2,0.5-0.3,0.8-0.3s0.5,0.1,0.6,0.2c0.1,0.1,0.2,0.4,0.2,0.7
		v3.6c0,0.5,0.1,0.9,0.2,1.1c0.1,0.2,0.4,0.3,0.7,0.3s0.7-0.1,1-0.3c0.3-0.2,0.6-0.4,0.9-0.7v-4.9c0.2,0,0.5-0.1,0.7-0.1
		s0.4,0,0.7,0.1v5c0,0.7,0.1,1.1,0.4,1.4c-0.1,0.3-0.3,0.5-0.5,0.7c-0.6-0.1-0.9-0.5-1.1-1c-0.7,0.7-1.5,1-2.4,1
		c-0.6,0-1.1-0.2-1.4-0.6C148.9,171,148.7,170.5,148.7,169.8z"/>
	<path fill="#FFFFFF" d="M158.1,170.9h0.5c0.1,0.2,0.1,0.4,0.1,0.6s0,0.3,0,0.4c-0.4,0.1-0.8,0.1-1.2,0.1c-0.9,0-1.3-0.5-1.3-1.4
		v-8.9l0.1-0.1h0.5c0.3,0,0.5,0.1,0.6,0.2s0.2,0.4,0.2,0.7v7.8C157.6,170.7,157.8,170.9,158.1,170.9z"/>
	<path fill="#FFFFFF" d="M163.3,165c0,0.2,0.1,0.3,0.1,0.5c0,0.2,0,0.3-0.1,0.5l-1.8,0v4.3c0,0.4,0.2,0.6,0.6,0.6h1
		c0.1,0.2,0.1,0.4,0.1,0.6s0,0.3,0,0.4c-0.5,0.1-1.1,0.1-1.5,0.1c-1,0-1.4-0.5-1.4-1.4V166l-1,0c0-0.1-0.1-0.3-0.1-0.5
		c0-0.2,0-0.4,0.1-0.5l1,0v-1.3c0-0.3,0.1-0.5,0.2-0.7s0.3-0.2,0.6-0.2h0.5l0.1,0.1v2.1L163.3,165z"/>
	<path fill="#FFFFFF" d="M170,171.4c-0.1,0.3-0.3,0.6-0.5,0.7c-0.5-0.1-0.9-0.4-1.1-0.9c-0.7,0.7-1.4,1-2.1,1s-1.2-0.2-1.6-0.6
		c-0.4-0.4-0.5-0.9-0.5-1.4c0-0.8,0.2-1.3,0.7-1.7c0.5-0.4,1.1-0.6,1.9-0.6c0.5,0,0.9,0,1.4,0.1v-0.6c0-0.8-0.4-1.3-1.2-1.3
		c-0.6,0-1.3,0.2-2.2,0.5c-0.3-0.3-0.4-0.6-0.4-1c1-0.4,1.9-0.6,2.9-0.6c0.7,0,1.3,0.2,1.7,0.6c0.4,0.4,0.6,1,0.6,1.8v2.9
		C169.6,170.7,169.7,171.1,170,171.4z M166.6,171c0.6,0,1.2-0.3,1.7-0.9v-1.3c-0.4,0-0.8-0.1-1.3-0.1c-0.5,0-0.8,0.1-1.1,0.3
		c-0.2,0.2-0.4,0.5-0.4,0.9c0,0.4,0.1,0.6,0.3,0.8S166.2,171,166.6,171z"/>
	<path fill="#FFFFFF" d="M173.5,172.1c-0.8,0-1.4-0.3-1.8-1c-0.4-0.6-0.6-1.5-0.6-2.7c0-1.1,0.3-2,0.8-2.6s1.2-0.9,1.9-0.9
		c0.5,0,1.1,0.2,1.6,0.5v-3.7l0.1-0.1h0.5c0.3,0,0.5,0.1,0.6,0.2c0.1,0.1,0.2,0.4,0.2,0.7v7.5c0,0.7,0.1,1.1,0.4,1.4
		c-0.1,0.3-0.3,0.6-0.5,0.7c-0.5-0.1-0.8-0.4-1-0.9C174.9,171.8,174.3,172.1,173.5,172.1z M173.7,171c0.6,0,1.1-0.3,1.6-0.9v-3.5
		c-0.5-0.4-1-0.5-1.4-0.5c-0.4,0-0.8,0.2-1.1,0.7c-0.3,0.4-0.4,1.1-0.4,1.9s0.1,1.4,0.4,1.8S173.4,171,173.7,171z"/>
	<path fill="#FFFFFF" d="M183.3,165.6c0.7,0.7,1,1.6,1,2.9s-0.3,2.2-1,2.9c-0.5,0.5-1.2,0.8-2,0.8c-0.8,0-1.5-0.3-2-0.8
		c-0.7-0.7-1-1.6-1-2.9s0.3-2.2,1-2.9c0.5-0.5,1.2-0.8,2-0.8C182.1,164.9,182.8,165.1,183.3,165.6z M179.7,168.5
		c0,1.7,0.5,2.6,1.6,2.6c1.1,0,1.6-0.9,1.6-2.6c0-0.5,0-0.9-0.1-1.3c-0.1-0.4-0.3-0.7-0.5-0.9c-0.2-0.3-0.6-0.4-1-0.4
		c-0.4,0-0.7,0.1-1,0.4c-0.2,0.3-0.4,0.6-0.5,0.9S179.7,168,179.7,168.5z"/>
	<path fill="#FFFFFF" d="M185.3,171.4c0-0.2,0.1-0.3,0.1-0.5s0.2-0.3,0.3-0.4c0.8,0.4,1.4,0.6,1.9,0.6c0.5,0,0.8-0.1,1.1-0.3
		s0.4-0.4,0.4-0.7c0-0.4-0.3-0.8-0.9-1l-0.8-0.3c-1.2-0.4-1.8-1.1-1.8-2c0-0.6,0.2-1.1,0.7-1.5c0.5-0.4,1.1-0.6,1.8-0.6
		s1.5,0.2,2.2,0.5c0,0.2,0,0.4-0.1,0.6s-0.2,0.3-0.3,0.4c-0.7-0.3-1.3-0.4-1.9-0.4c-0.3,0-0.6,0.1-0.8,0.2c-0.2,0.2-0.3,0.3-0.3,0.6
		s0.1,0.4,0.2,0.6c0.1,0.1,0.4,0.3,0.7,0.4l0.8,0.3c1.2,0.5,1.8,1.2,1.8,2.1c0,0.6-0.2,1.1-0.7,1.5c-0.5,0.4-1.2,0.6-2,0.6
		C186.8,172.1,186,171.9,185.3,171.4z"/>
	<path fill="#FFFFFF" d="M198.5,167.7c0,0,0-0.1,0-0.1c0-1.1-0.4-1.6-1.3-1.6c-0.5,0-0.8,0.2-1.1,0.7c-0.3,0.4-0.4,1.1-0.4,2
		c0,1.6,0.5,2.5,1.6,2.5c0.5,0,1.1-0.2,1.7-0.7c0.1,0.1,0.3,0.2,0.4,0.3c0.1,0.2,0.2,0.3,0.2,0.5c-0.7,0.7-1.5,1-2.5,1
		s-1.7-0.3-2.1-1c-0.5-0.7-0.7-1.6-0.7-2.7s0.3-2,0.8-2.6c0.6-0.6,1.2-0.9,2-0.9s1.4,0.2,1.9,0.7c0.4,0.4,0.7,0.9,0.7,1.4
		c0,0.5-0.2,0.8-0.7,0.8C198.9,167.7,198.7,167.7,198.5,167.7z"/>
	<path fill="#FFFFFF" d="M205.8,165.6c0.7,0.7,1,1.6,1,2.9s-0.3,2.2-1,2.9c-0.5,0.5-1.2,0.8-2,0.8c-0.8,0-1.5-0.3-2-0.8
		c-0.7-0.7-1-1.6-1-2.9s0.3-2.2,1-2.9c0.5-0.5,1.2-0.8,2-0.8C204.7,164.9,205.3,165.1,205.8,165.6z M202.2,168.5
		c0,1.7,0.5,2.6,1.6,2.6c1.1,0,1.6-0.9,1.6-2.6c0-0.5,0-0.9-0.1-1.3c-0.1-0.4-0.3-0.7-0.5-0.9c-0.2-0.3-0.6-0.4-1-0.4
		c-0.4,0-0.7,0.1-1,0.4c-0.2,0.3-0.4,0.6-0.5,0.9S202.2,168,202.2,168.5z"/>
	<path fill="#FFFFFF" d="M212.3,167.5c0-0.5-0.1-0.8-0.2-1.1c-0.1-0.2-0.4-0.3-0.7-0.3c-0.5,0-1.1,0.3-1.6,0.9v4.9
		c-0.2,0-0.4,0.1-0.7,0.1c-0.3,0-0.5,0-0.7-0.1v-6.9l0.1-0.1h0.5c0.5,0,0.7,0.3,0.8,0.9c0.6-0.6,1.3-1,2-1s1.3,0.3,1.6,1
		c0.7-0.7,1.5-1,2.2-1c0.6,0,1,0.2,1.3,0.6c0.3,0.4,0.5,0.9,0.5,1.6v3.4c0,0.5,0.1,1,0.2,1.2c-0.2,0.2-0.5,0.3-0.9,0.3
		c-0.5,0-0.7-0.3-0.7-0.9v-3.7c0-0.5-0.1-0.8-0.2-1.1c-0.1-0.2-0.4-0.3-0.7-0.3c-0.6,0-1.1,0.3-1.6,0.9v4.9c-0.2,0-0.4,0.1-0.7,0.1
		c-0.3,0-0.5,0-0.7-0.1V167.5z"/>
	<path fill="#FFFFFF" d="M227.7,171.4c-0.1,0.3-0.3,0.6-0.5,0.7c-0.5-0.1-0.9-0.4-1.1-0.9c-0.7,0.7-1.4,1-2.1,1s-1.2-0.2-1.6-0.6
		c-0.4-0.4-0.5-0.9-0.5-1.4c0-0.8,0.2-1.3,0.7-1.7c0.5-0.4,1.1-0.6,1.9-0.6c0.5,0,0.9,0,1.4,0.1v-0.6c0-0.8-0.4-1.3-1.2-1.3
		c-0.6,0-1.3,0.2-2.2,0.5c-0.3-0.3-0.4-0.6-0.4-1c1-0.4,1.9-0.6,2.9-0.6c0.7,0,1.3,0.2,1.7,0.6c0.4,0.4,0.6,1,0.6,1.8v2.9
		C227.3,170.7,227.4,171.1,227.7,171.4z M224.2,171c0.6,0,1.2-0.3,1.7-0.9v-1.3c-0.4,0-0.8-0.1-1.3-0.1c-0.5,0-0.8,0.1-1.1,0.3
		c-0.2,0.2-0.4,0.5-0.4,0.9c0,0.4,0.1,0.6,0.3,0.8S223.9,171,224.2,171z"/>
	<path fill="#FFFFFF" d="M237.4,168.9h-4.2c0,0.7,0.2,1.2,0.4,1.5c0.3,0.4,0.7,0.5,1.3,0.5s1.2-0.2,1.9-0.5c0.2,0.2,0.4,0.5,0.4,0.9
		c-0.7,0.5-1.6,0.8-2.6,0.8c-1,0-1.7-0.3-2.2-1s-0.7-1.5-0.7-2.6s0.3-2,0.7-2.6c0.5-0.7,1.2-1,2.1-1c0.9,0,1.6,0.3,2.1,0.8
		c0.5,0.6,0.7,1.3,0.7,2.1C237.5,168.2,237.4,168.6,237.4,168.9z M235.8,166.4c-0.2-0.4-0.6-0.5-1.1-0.5c-0.5,0-0.8,0.2-1.1,0.5
		s-0.4,0.9-0.4,1.5h2.9v-0.2C236.1,167.2,236,166.8,235.8,166.4z"/>
	<path fill="#FFFFFF" d="M243,174.1v-2.8c-0.6,0.5-1.2,0.8-2,0.8c-0.7,0-1.3-0.3-1.7-1c-0.4-0.6-0.6-1.5-0.6-2.7s0.3-2,0.8-2.6
		s1.2-0.9,1.9-0.9c0.7,0,1.4,0.2,1.9,0.7c0.2-0.3,0.5-0.5,0.9-0.6c0.2,0.1,0.4,0.4,0.5,0.7c-0.3,0.2-0.4,0.7-0.4,1.4v7.9l-0.1,0.1
		h-0.5c-0.3,0-0.5-0.1-0.6-0.2C243,174.6,243,174.4,243,174.1z M241.3,170.9c0.6,0,1.2-0.3,1.6-0.8v-3.5c-0.5-0.4-1-0.6-1.4-0.6
		c-0.5,0-0.8,0.2-1.1,0.7c-0.3,0.4-0.4,1.1-0.4,1.9c0,0.8,0.1,1.4,0.4,1.8S241,170.9,241.3,170.9z"/>
	<path fill="#FFFFFF" d="M246.3,169.8v-3.3c0-0.5-0.1-1-0.2-1.2c0.2-0.2,0.5-0.3,0.8-0.3s0.5,0.1,0.6,0.2c0.1,0.1,0.2,0.4,0.2,0.7
		v3.6c0,0.5,0.1,0.9,0.2,1.1c0.1,0.2,0.4,0.3,0.7,0.3s0.7-0.1,1-0.3c0.3-0.2,0.6-0.4,0.9-0.7v-4.9c0.2,0,0.5-0.1,0.7-0.1
		s0.4,0,0.7,0.1v5c0,0.7,0.1,1.1,0.4,1.4c-0.1,0.3-0.3,0.5-0.5,0.7c-0.6-0.1-0.9-0.5-1.1-1c-0.7,0.7-1.5,1-2.4,1
		c-0.6,0-1.1-0.2-1.4-0.6C246.5,171,246.3,170.5,246.3,169.8z"/>
	<path fill="#FFFFFF" d="M255.4,166.2v5.8c-0.2,0-0.4,0.1-0.7,0.1c-0.3,0-0.5,0-0.7-0.1v-5.2c0-0.3,0-0.4-0.1-0.5
		c-0.1-0.1-0.2-0.2-0.5-0.2h-0.2c0-0.1-0.1-0.3-0.1-0.5c0-0.2,0-0.3,0.1-0.5c0.3,0,0.6-0.1,0.8-0.1h0.2c0.3,0,0.6,0.1,0.8,0.3
		C255.3,165.5,255.4,165.8,255.4,166.2z M253.6,163.1c0-0.2,0-0.4,0.1-0.6c0.2-0.1,0.5-0.2,0.8-0.2s0.6,0.1,0.7,0.2
		c0.1,0.2,0.1,0.4,0.1,0.6c0,0.2,0,0.4-0.1,0.6c-0.2,0.1-0.4,0.2-0.7,0.2c-0.3,0-0.6-0.1-0.8-0.2
		C253.6,163.6,253.6,163.4,253.6,163.1z"/>
	<path fill="#FFFFFF" d="M260.7,164.9c0.8,0,1.3,0.3,1.8,1c0.4,0.6,0.6,1.5,0.6,2.7c0,1.1-0.3,2-0.8,2.6s-1.2,0.9-1.9,0.9
		c-0.6,0-1.1-0.2-1.7-0.5v2.5c0,0.3-0.1,0.5-0.2,0.7c-0.1,0.1-0.3,0.2-0.6,0.2h-0.5l-0.1-0.1v-9.8l0.1-0.1h0.4
		c0.4,0,0.7,0.2,0.8,0.7C259.3,165.2,260,164.9,260.7,164.9z M260.4,166c-0.7,0-1.2,0.3-1.6,1v3.4c0.5,0.4,1,0.5,1.4,0.5
		c0.4,0,0.8-0.2,1.1-0.7c0.3-0.4,0.4-1.1,0.4-1.9s-0.1-1.4-0.4-1.8C261.1,166.2,260.8,166,260.4,166z"/>
	<path fill="#FFFFFF" d="M269.8,168.9h-4.2c0,0.7,0.2,1.2,0.4,1.5c0.3,0.4,0.7,0.5,1.3,0.5s1.2-0.2,1.9-0.5c0.2,0.2,0.4,0.5,0.4,0.9
		c-0.7,0.5-1.6,0.8-2.6,0.8c-1,0-1.7-0.3-2.2-1s-0.7-1.5-0.7-2.6s0.3-2,0.7-2.6c0.5-0.7,1.2-1,2.1-1c0.9,0,1.6,0.3,2.1,0.8
		c0.5,0.6,0.7,1.3,0.7,2.1C269.9,168.2,269.9,168.6,269.8,168.9z M268.2,166.4c-0.2-0.4-0.6-0.5-1.1-0.5c-0.5,0-0.8,0.2-1.1,0.5
		s-0.4,0.9-0.4,1.5h2.9v-0.2C268.6,167.2,268.5,166.8,268.2,166.4z"/>
	<path fill="#FFFFFF" d="M271.4,171.2c0-0.3,0-0.5,0.1-0.7c0.2-0.1,0.5-0.2,0.8-0.2c0.3,0,0.6,0.1,0.8,0.2c0.1,0.2,0.1,0.4,0.1,0.7
		c0,0.3,0,0.5-0.1,0.7c-0.2,0.1-0.4,0.2-0.8,0.2s-0.6-0.1-0.8-0.2C271.4,171.7,271.4,171.5,271.4,171.2z"/>
</g>
</svg>