<!-- Generator: Adobe Illustrator 17.1.0, SVG Export Plug-In  -->
<svg version="1.1"
	 xmlns="http://www.w3.org/2000/svg" xmlns:xlink="http://www.w3.org/1999/xlink" xmlns:a="http://ns.adobe.com/AdobeSVGViewerExtensions/3.0/"
	 x="0px" y="0px" width="165.3px" height="165.1px" viewBox="0 0 165.3 165.1" enable-background="new 0 0 165.3 165.1"
	 xml:space="preserve">
<defs>
</defs>
<g id="XMLID_1_">
	<polygon id="XMLID_113_" fill="#043A63" points="165.3,118.5 84,165.1 0,118.5 0,0 165.3,0 	"/>
	<g id="XMLID_109_">
		<path id="XMLID_110_" fill="#FFFFFF" d="M83.9,159.2l-0.5-0.3L4.9,114.8V4.7h155.5v110.1l-0.5,0.3L83.9,159.2z M6.9,113.6l77,43.3
			l74.5-43.3V6.7H6.9V113.6z"/>
	</g>
	<g id="XMLID_106_">
		<path id="XMLID_108_" fill="#FFFFFF" d="M84.5,138.8c-1.2-0.5-2.7,0-3.4,1.1c-0.7,1.2-0.5,2.7,0.5,3.6L84.5,138.8z"/>
		<path id="XMLID_107_" fill="#FFFFFF" d="M85.4,139.4l-2.9,4.7c1.2,0.5,2.7,0,3.4-1.1C86.6,141.8,86.4,140.3,85.4,139.4"/>
	</g>
	<g id="XMLID_2_">
		<g id="XMLID_87_">
			<g id="XMLID_89_">
				<path id="XMLID_95_" fill="#FFFFFF" d="M53.1,65.6h-6.8V34h11.3c6.8,0,11,3.2,11,9.4c0,6.7-4.4,11.1-11.5,11.1h-3.9V65.6z
					 M56.2,49.5c3.5,0,5.3-2,5.3-5.6c0-3.4-1.8-4.8-4.8-4.8h-3.6v10.4H56.2z"/>
				<path id="XMLID_92_" fill="#FFFFFF" d="M73,34h10.5c7.4,0,13,3.3,13,14.4c0,13.8-6.3,17.1-14.3,17.1H73V34z M79.8,60.6h2.8
					c4.5,0,6.8-3,6.8-11.4c0-7.5-2-10.1-6.2-10.1h-3.3V60.6z"/>
				<path id="XMLID_90_" fill="#FFFFFF" d="M101.7,34h6.8v26.2h12.9v5.3h-19.7V34z"/>
			</g>
		</g>
		<rect id="XMLID_86_" x="44.6" y="71.7" fill="#A9BE2F" width="76.1" height="1.3"/>
		<g id="XMLID_3_">
			<path id="XMLID_83_" fill="#FFFFFF" d="M55.9,85.7h-0.4v-6.2h2c1.1,0,1.8,0.5,1.8,1.6c0,1.3-0.8,2-2,2h-1.4V85.7z M57.3,82.8
				c1,0,1.5-0.6,1.5-1.5c0-1-0.5-1.3-1.5-1.3h-1.5v2.8H57.3z"/>
			<path id="XMLID_80_" fill="#FFFFFF" d="M61.2,85.7h-0.4v-6.2h1.8c1.1,0,1.9,0.5,1.9,1.5c0,1-0.6,1.4-1.1,1.7l1.1,2.9h-0.4
				L63,82.9h-1.8V85.7z M62.6,82.5c0.9,0,1.5-0.4,1.5-1.3c0-1-0.5-1.3-1.5-1.3h-1.4v2.6H62.6z"/>
			<path id="XMLID_77_" fill="#FFFFFF" d="M65.8,82.6c0-2.1,0.9-3.1,2.3-3.1c1.5,0,2.1,0.9,2.1,3.1c0,2.6-1,3.3-2.2,3.3
				C66.8,85.9,65.8,85.2,65.8,82.6z M68,79.9c-1,0-1.8,0.7-1.8,2.7c0,2.1,0.7,2.9,1.7,2.9c1,0,1.8-0.6,1.8-2.9
				C69.7,80.5,69,79.9,68,79.9z"/>
			<path id="XMLID_75_" fill="#FFFFFF" d="M73.6,82.8h2v2.6c-0.4,0.2-1,0.4-1.7,0.4c-1.7,0-2.4-1-2.4-3.3c0-1.8,0.6-3.1,2.2-3.1
				c1.1,0,1.6,0.5,1.8,1.5L75.1,81c-0.2-0.7-0.5-1.2-1.4-1.2c-1,0-1.7,0.8-1.7,2.7c0,1.7,0.3,3,2,3c0.5,0,1-0.1,1.3-0.3v-2h-1.6
				V82.8z"/>
			<path id="XMLID_72_" fill="#FFFFFF" d="M77.6,85.7h-0.4v-6.2H79c1.1,0,1.9,0.5,1.9,1.5c0,1-0.6,1.4-1.1,1.7l1.1,2.9h-0.4
				l-1.1-2.8h-1.8V85.7z M79,82.5c0.9,0,1.5-0.4,1.5-1.3c0-1-0.5-1.3-1.5-1.3h-1.4v2.6H79z"/>
			<path id="XMLID_69_" fill="#FFFFFF" d="M81.9,85.7l1.9-6.2h0.7l2,6.2h-0.4l-0.7-2H83l-0.6,2H81.9z M83.1,83.4h2.3l-1.2-3.5
				L83.1,83.4z"/>
			<path id="XMLID_67_" fill="#FFFFFF" d="M92.8,79.6l0.3,6.2h-0.4l-0.2-5.6l-1.8,5h-0.3l-1.8-5l-0.2,5.6h-0.4l0.3-6.2h0.6l1.8,4.9
				l1.8-4.9H92.8z"/>
			<path id="XMLID_64_" fill="#FFFFFF" d="M94.3,85.7l1.9-6.2H97l2,6.2h-0.4l-0.7-2h-2.5l-0.6,2H94.3z M95.5,83.4h2.3l-1.2-3.5
				L95.5,83.4z"/>
			<path id="XMLID_61_" fill="#FFFFFF" d="M104.1,80.4c1.1,0,1.9,0.6,1.9,2.5c0,2.4-1,2.9-2.1,2.9h-1.3v-5.4H104.1z M103,85.4h1
				c1.1,0,1.7-0.7,1.7-2.5c0-1.6-0.5-2.2-1.5-2.2H103V85.4z"/>
			<path id="XMLID_59_" fill="#FFFFFF" d="M107.4,80.4h2.8v0.3h-2.4v2h2.1v0.4h-2.1v2.3h2.5v0.3h-2.9V80.4z"/>
			<path id="XMLID_56_" fill="#FFFFFF" d="M40.7,88.4c1.3,0,2.2,0.6,2.2,2.8c0,2.8-1.1,3.3-2.4,3.3h-1.5v-6.2H40.7z M39.4,94.1h1.1
				c1.3,0,2-0.8,2-2.8c0-1.8-0.6-2.5-1.7-2.5h-1.3V94.1z"/>
			<path id="XMLID_54_" fill="#FFFFFF" d="M44.5,88.4h3.2v0.4h-2.8v2.3h2.4v0.4h-2.4v2.6h2.9v0.4h-3.3V88.4z"/>
			<path id="XMLID_52_" fill="#FFFFFF" d="M48.9,93.6c0.3,0.3,0.8,0.6,1.5,0.6c0.7,0,1.4-0.3,1.4-1.2s-0.6-1.2-1.3-1.4
				c-0.8-0.3-1.6-0.5-1.6-1.7c0-1.1,0.8-1.6,1.8-1.6c1.2,0,1.6,0.8,1.7,1.4l-0.4,0.1c-0.2-0.8-0.7-1.1-1.3-1.1
				c-0.7,0-1.3,0.4-1.3,1.2c0,0.9,0.6,1.1,1.4,1.3c0.8,0.3,1.6,0.6,1.6,1.7c0,1-0.5,1.7-1.8,1.7c-0.9,0-1.6-0.4-1.8-0.6L48.9,93.6z"
				/>
			<path id="XMLID_50_" fill="#FFFFFF" d="M54,88.4h3.2v0.4h-2.8v2.3h2.4v0.4h-2.4v2.6h2.9v0.4H54V88.4z"/>
			<path id="XMLID_48_" fill="#FFFFFF" d="M62.8,88.4v6.2h-0.4l-3.3-5.4v5.4h-0.4v-6.2h0.5l3.3,5.4v-5.4H62.8z"/>
			<path id="XMLID_46_" fill="#FFFFFF" d="M68.1,88.4h0.4l-2,6.2h-0.6L64,88.4h0.4l1.8,5.7L68.1,88.4z"/>
			<path id="XMLID_43_" fill="#FFFFFF" d="M69.3,91.3c0-2.1,0.9-3.1,2.3-3.1c1.5,0,2.1,0.9,2.1,3.1c0,2.6-1,3.3-2.2,3.3
				C70.4,94.6,69.3,94,69.3,91.3z M71.6,88.6c-1,0-1.8,0.7-1.8,2.7c0,2.1,0.7,2.9,1.7,2.9c1,0,1.8-0.6,1.8-2.9
				C73.3,89.2,72.6,88.6,71.6,88.6z"/>
			<path id="XMLID_41_" fill="#FFFFFF" d="M75.4,88.4h0.4v5.8h2.8v0.4h-3.2V88.4z"/>
			<path id="XMLID_39_" fill="#FFFFFF" d="M82.5,88.4h0.4l-2,6.2h-0.6l-1.9-6.2h0.4l1.8,5.7L82.5,88.4z"/>
			<path id="XMLID_37_" fill="#FFFFFF" d="M84.5,88.4v6.2h-0.4v-6.2H84.5z"/>
			<path id="XMLID_35_" fill="#FFFFFF" d="M91.4,88.4l0.3,6.2h-0.4L91,88.9l-1.8,5h-0.3l-1.8-5l-0.2,5.6h-0.4l0.3-6.2h0.6l1.8,4.9
				l1.8-4.9H91.4z"/>
			<path id="XMLID_33_" fill="#FFFFFF" d="M93.5,88.4h3.2v0.4h-2.8v2.3h2.4v0.4h-2.4v2.6h2.9v0.4h-3.3V88.4z"/>
			<path id="XMLID_31_" fill="#FFFFFF" d="M102.3,88.4v6.2h-0.4l-3.3-5.4v5.4h-0.4v-6.2h0.5l3.3,5.4v-5.4H102.3z"/>
			<path id="XMLID_29_" fill="#FFFFFF" d="M103.6,88.4h4.3v0.4h-2v5.8h-0.4v-5.8h-1.9V88.4z"/>
			<path id="XMLID_26_" fill="#FFFFFF" d="M108.4,91.3c0-2.1,0.9-3.1,2.3-3.1c1.5,0,2.1,0.9,2.1,3.1c0,2.6-1,3.3-2.2,3.3
				C109.5,94.6,108.4,94,108.4,91.3z M110.7,88.6c-1,0-1.8,0.7-1.8,2.7c0,2.1,0.7,2.9,1.7,2.9c1,0,1.8-0.6,1.8-2.9
				C112.4,89.2,111.7,88.6,110.7,88.6z"/>
			<path id="XMLID_23_" fill="#FFFFFF" d="M118.3,89.1c1.1,0,1.9,0.6,1.9,2.5c0,2.4-1,2.9-2.1,2.9h-1.3v-5.4H118.3z M117.1,94.2h1
				c1.1,0,1.7-0.7,1.7-2.5c0-1.6-0.5-2.2-1.5-2.2h-1.2V94.2z"/>
			<path id="XMLID_21_" fill="#FFFFFF" d="M121.6,89.1h2.8v0.3H122v2h2.1v0.4H122v2.3h2.5v0.3h-2.9V89.1z"/>
			<path id="XMLID_19_" fill="#FFFFFF" d="M66.3,97.1h1.3v5.1h2.5v1h-3.8V97.1z"/>
			<path id="XMLID_16_" fill="#FFFFFF" d="M72.7,95.3l0.3,0.9l-1.9,0.5L70.9,96L72.7,95.3z M72.5,97.1v6.2h-1.3v-6.2H72.5z"/>
			<path id="XMLID_13_" fill="#FFFFFF" d="M74,97.1h2.1c1.4,0,2.5,0.7,2.5,2.8c0,2.7-1.2,3.3-2.8,3.3H74V97.1z M75.3,102.3h0.5
				c0.9,0,1.3-0.6,1.3-2.2c0-1.5-0.4-2-1.2-2h-0.7V102.3z"/>
			<path id="XMLID_11_" fill="#FFFFFF" d="M79.8,97.1h3.8v1h-2.5v1.5h2.2v1h-2.2v1.6h2.6v1h-3.9V97.1z"/>
			<path id="XMLID_8_" fill="#FFFFFF" d="M89.4,103.3H88l-1-2.5h-0.8v2.5h-1.3v-6.2H87c1.3,0,2.2,0.5,2.2,1.7c0,0.9-0.4,1.4-1,1.7
				L89.4,103.3z M87,99.8c0.5,0,0.9-0.3,0.9-0.9c0-0.7-0.3-0.8-0.9-0.8h-0.7v1.7H87z"/>
			<path id="XMLID_6_" fill="#FFFFFF" d="M90.4,97.1h3.8v1h-2.5v1.5h2.2v1h-2.2v1.6h2.6v1h-3.9V97.1z"/>
			<path id="XMLID_4_" fill="#FFFFFF" d="M95.4,101.7c0.5,0.3,1.1,0.5,1.6,0.5c0.5,0,0.8-0.2,0.8-0.7c0-0.5-0.4-0.7-1.1-0.9
				c-0.8-0.2-1.7-0.5-1.7-1.8c0-1.1,0.8-1.9,2.1-1.9c1.4,0,1.9,0.8,2.1,1.5L98,98.9c-0.1-0.4-0.4-0.8-0.9-0.8
				c-0.4,0-0.7,0.2-0.7,0.6c0,0.5,0.4,0.7,1.1,0.9c1,0.3,1.7,0.8,1.7,1.9c0,1.3-0.9,2-2.2,2c-1,0-1.7-0.3-2-0.5L95.4,101.7z"/>
		</g>
	</g>
</g>
</svg>