<!-- Generator: Adobe Illustrator 17.1.0, SVG Export Plug-In  -->
<svg version="1.1"
	 xmlns="http://www.w3.org/2000/svg" xmlns:xlink="http://www.w3.org/1999/xlink" xmlns:a="http://ns.adobe.com/AdobeSVGViewerExtensions/3.0/"
	 x="0px" y="0px" width="215.8px" height="37.8px" viewBox="0 0 215.8 37.8" enable-background="new 0 0 215.8 37.8"
	 xml:space="preserve">
<defs>
</defs>
<g>
	<path fill="#FFFFFF" d="M5,3.4c0,0,0-0.1,0-0.3c0-0.2,0-0.4-0.1-0.6C4.7,2.2,4.5,2,4.3,1.8C4,1.6,3.7,1.5,3.2,1.5
		c-0.6,0-1.1,0.3-1.5,0.8C1.4,2.9,1.3,3.7,1.3,4.7s0.2,1.8,0.5,2.4c0.4,0.6,0.9,0.8,1.5,0.8S4.7,7.6,5.4,7C5.8,7.2,6,7.5,6,7.8
		C5.7,8.1,5.3,8.4,4.8,8.6C4.2,8.9,3.7,9,3.1,9C2.6,9,2.1,8.9,1.7,8.6c-0.4-0.2-0.7-0.6-1-1C0.2,6.9,0,5.9,0,4.8
		c0-1.4,0.3-2.5,0.9-3.2c0.6-0.7,1.4-1.1,2.3-1.1c0.9,0,1.6,0.2,2.1,0.7c0.5,0.5,0.8,1,0.8,1.6c0,0.5-0.2,0.7-0.7,0.7
		C5.3,3.5,5.1,3.5,5,3.4z"/>
	<path fill="#FFFFFF" d="M11.5,3.4C12,4,12.3,4.8,12.3,5.9S12,7.7,11.5,8.3C11,8.8,10.5,9,9.7,9S8.5,8.8,8,8.3
		C7.5,7.7,7.2,6.9,7.2,5.9S7.5,4,8,3.4C8.5,3,9,2.7,9.7,2.7S11,3,11.5,3.4z M8.4,5.9c0,1.5,0.5,2.2,1.4,2.2s1.4-0.7,1.4-2.2
		c0-0.4,0-0.8-0.1-1.1c-0.1-0.3-0.2-0.6-0.4-0.8c-0.2-0.2-0.5-0.3-0.8-0.3S9.1,3.7,8.9,4C8.7,4.2,8.6,4.5,8.5,4.8
		C8.4,5.1,8.4,5.5,8.4,5.9z"/>
	<path fill="#FFFFFF" d="M17.1,5c0-0.4-0.1-0.7-0.2-0.9c-0.1-0.2-0.3-0.3-0.6-0.3c-0.5,0-0.9,0.3-1.4,0.8v4.2c-0.1,0-0.3,0-0.6,0
		s-0.4,0-0.6,0V2.9l0.1-0.1h0.4c0.4,0,0.6,0.3,0.6,0.8c0.5-0.5,1.1-0.8,1.7-0.8s1.1,0.3,1.3,0.9c0.6-0.6,1.3-0.9,1.9-0.9
		c0.5,0,0.9,0.2,1.1,0.5c0.3,0.4,0.4,0.8,0.4,1.3v2.9c0,0.5,0.1,0.8,0.2,1.1c-0.2,0.2-0.4,0.3-0.7,0.3c-0.4,0-0.6-0.2-0.6-0.7V5
		c0-0.4-0.1-0.7-0.2-0.9c-0.1-0.2-0.3-0.3-0.6-0.3c-0.5,0-0.9,0.3-1.4,0.8v4.2c-0.1,0-0.3,0-0.6,0s-0.4,0-0.6,0V5z"/>
	<path fill="#FFFFFF" d="M27.7,6.2h-3.6c0,0.6,0.1,1,0.4,1.3C24.7,7.9,25.1,8,25.6,8s1.1-0.2,1.7-0.5c0.2,0.2,0.3,0.4,0.4,0.8
		C27,8.8,26.3,9,25.4,9c-0.9,0-1.5-0.3-1.9-0.9S23,6.8,23,5.9s0.2-1.7,0.6-2.3c0.4-0.6,1-0.9,1.8-0.9c0.8,0,1.4,0.2,1.8,0.7
		c0.4,0.5,0.6,1.1,0.6,1.8C27.8,5.6,27.8,5.9,27.7,6.2z M26.4,4.1c-0.2-0.3-0.5-0.5-0.9-0.5s-0.7,0.2-0.9,0.5
		c-0.2,0.3-0.3,0.7-0.4,1.3h2.5V5.2C26.7,4.7,26.6,4.4,26.4,4.1z"/>
	<path fill="#FFFFFF" d="M32.5,5.1c0,0,0-0.1,0-0.1c0-0.9-0.4-1.4-1.1-1.4c-0.4,0-0.7,0.2-0.9,0.6c-0.2,0.4-0.3,0.9-0.3,1.7
		c0,1.4,0.5,2.1,1.4,2.1C32,8,32.5,7.8,33,7.4c0.1,0.1,0.2,0.2,0.3,0.3c0.1,0.1,0.2,0.3,0.2,0.4C33,8.7,32.3,9,31.4,9
		S30,8.7,29.6,8.1C29.2,7.5,29,6.7,29,5.8s0.2-1.7,0.7-2.2c0.5-0.5,1.1-0.8,1.8-0.8c0.7,0,1.2,0.2,1.6,0.6s0.6,0.8,0.6,1.2
		S33.4,5.2,33,5.2C32.8,5.2,32.7,5.2,32.5,5.1z"/>
	<path fill="#FFFFFF" d="M39.4,6.2h-3.6c0,0.6,0.1,1,0.4,1.3C36.4,7.9,36.8,8,37.3,8s1.1-0.2,1.7-0.5c0.2,0.2,0.3,0.4,0.4,0.8
		C38.7,8.8,37.9,9,37.1,9c-0.9,0-1.5-0.3-1.9-0.9s-0.6-1.3-0.6-2.3s0.2-1.7,0.6-2.3c0.4-0.6,1-0.9,1.8-0.9c0.8,0,1.4,0.2,1.8,0.7
		c0.4,0.5,0.6,1.1,0.6,1.8C39.5,5.6,39.5,5.9,39.4,6.2z M38,4.1c-0.2-0.3-0.5-0.5-0.9-0.5s-0.7,0.2-0.9,0.5
		c-0.2,0.3-0.3,0.7-0.4,1.3h2.5V5.2C38.4,4.7,38.3,4.4,38,4.1z"/>
	<path fill="#FFFFFF" d="M45.1,3.9v4.7c0,0.7,0,1.2-0.1,1.5s-0.2,0.5-0.3,0.7c-0.3,0.3-0.7,0.6-1.3,0.7c-0.2-0.2-0.3-0.4-0.3-0.7
		c0.3-0.2,0.6-0.4,0.7-0.6c0.1-0.2,0.2-0.5,0.2-0.9V4.4c0-0.2,0-0.4-0.1-0.5s-0.2-0.1-0.4-0.1h-0.2c0-0.2,0-0.3,0-0.4s0-0.2,0-0.4
		c0.3,0,0.6,0,0.9,0h0.1c0.3,0,0.5,0.1,0.7,0.3C45,3.3,45.1,3.6,45.1,3.9z M43.5,1.3c0-0.2,0-0.4,0.1-0.5c0.2-0.1,0.4-0.1,0.7-0.1
		c0.3,0,0.5,0,0.6,0.1C45,0.9,45,1.1,45,1.3c0,0.2,0,0.4-0.1,0.5c-0.1,0.1-0.3,0.1-0.6,0.1c-0.3,0-0.5,0-0.6-0.1
		C43.6,1.6,43.5,1.5,43.5,1.3z"/>
	<path fill="#FFFFFF" d="M51.5,8.3c-0.1,0.3-0.2,0.5-0.5,0.6c-0.4-0.1-0.7-0.3-0.9-0.8C49.6,8.7,49,9,48.4,9c-0.6,0-1.1-0.2-1.4-0.5
		c-0.3-0.4-0.5-0.8-0.5-1.2c0-0.7,0.2-1.1,0.6-1.5s1-0.5,1.7-0.5c0.4,0,0.8,0,1.2,0.1V4.8c0-0.7-0.3-1.1-1-1.1
		c-0.5,0-1.2,0.2-1.9,0.5c-0.2-0.2-0.3-0.5-0.3-0.9c0.8-0.4,1.7-0.6,2.5-0.6c0.6,0,1.1,0.2,1.4,0.5c0.3,0.3,0.5,0.8,0.5,1.5v2.5
		C51.2,7.8,51.3,8.1,51.5,8.3z M48.6,8c0.5,0,1-0.3,1.5-0.8V6.1C49.7,6.1,49.4,6,49,6c-0.4,0-0.7,0.1-0.9,0.3
		c-0.2,0.2-0.3,0.4-0.3,0.7c0,0.3,0.1,0.5,0.2,0.7C48.1,8,48.3,8,48.6,8z M48.1,1.9L49.8,0c0.2,0.1,0.3,0.2,0.5,0.3
		c0.2,0.1,0.3,0.3,0.3,0.5l-2,1.6C48.3,2.3,48.2,2.1,48.1,1.9z"/>
	<path fill="#FFFFFF" d="M60.2,8.3c-0.1,0.3-0.2,0.5-0.5,0.6c-0.4-0.1-0.7-0.3-0.9-0.8C58.3,8.7,57.7,9,57.1,9
		c-0.6,0-1.1-0.2-1.4-0.5c-0.3-0.4-0.5-0.8-0.5-1.2c0-0.7,0.2-1.1,0.6-1.5s1-0.5,1.7-0.5c0.4,0,0.8,0,1.2,0.1V4.8
		c0-0.7-0.3-1.1-1-1.1c-0.5,0-1.2,0.2-1.9,0.5c-0.2-0.2-0.3-0.5-0.3-0.9C56.3,3,57.2,2.8,58,2.8c0.6,0,1.1,0.2,1.4,0.5
		c0.3,0.3,0.5,0.8,0.5,1.5v2.5C59.9,7.8,60,8.1,60.2,8.3z M57.3,8c0.5,0,1-0.3,1.5-0.8V6.1c-0.3,0-0.7-0.1-1.1-0.1
		c-0.4,0-0.7,0.1-0.9,0.3c-0.2,0.2-0.3,0.4-0.3,0.7c0,0.3,0.1,0.5,0.2,0.7C56.8,8,57,8,57.3,8z"/>
	<path fill="#FFFFFF" d="M63.8,8.4c0-0.1,0-0.3,0.1-0.4s0.2-0.3,0.3-0.4c0.7,0.4,1.2,0.5,1.6,0.5c0.4,0,0.7-0.1,0.9-0.2
		C66.9,7.7,67,7.5,67,7.3c0-0.4-0.3-0.7-0.8-0.9l-0.7-0.3c-1-0.4-1.5-0.9-1.5-1.7c0-0.5,0.2-1,0.6-1.3c0.4-0.3,0.9-0.5,1.6-0.5
		s1.3,0.1,1.9,0.4c0,0.2,0,0.3-0.1,0.5S67.8,3.9,67.7,4c-0.6-0.3-1.1-0.4-1.6-0.4c-0.3,0-0.5,0.1-0.7,0.2c-0.2,0.1-0.3,0.3-0.3,0.5
		c0,0.2,0.1,0.4,0.2,0.5S65.7,5,66,5.1l0.7,0.3c1,0.4,1.5,1,1.5,1.8c0,0.5-0.2,1-0.6,1.3c-0.4,0.3-1,0.5-1.7,0.5S64.5,8.8,63.8,8.4z
		"/>
	<path fill="#FFFFFF" d="M74,6.2h-3.6c0,0.6,0.1,1,0.4,1.3C71,7.9,71.4,8,71.9,8s1.1-0.2,1.7-0.5c0.2,0.2,0.3,0.4,0.4,0.8
		C73.3,8.8,72.5,9,71.7,9c-0.9,0-1.5-0.3-1.9-0.9s-0.6-1.3-0.6-2.3s0.2-1.7,0.6-2.3c0.4-0.6,1-0.9,1.8-0.9c0.8,0,1.4,0.2,1.8,0.7
		c0.4,0.5,0.6,1.1,0.6,1.8C74.1,5.6,74.1,5.9,74,6.2z M72.7,4.1c-0.2-0.3-0.5-0.5-0.9-0.5S71,3.8,70.8,4.1c-0.2,0.3-0.3,0.7-0.4,1.3
		H73V5.2C73,4.7,72.9,4.4,72.7,4.1z"/>
	<path fill="#FFFFFF" d="M81.1,2.7c0.7,0,1.2,0.3,1.5,0.8c0.4,0.6,0.5,1.3,0.5,2.3s-0.2,1.7-0.7,2.3s-1,0.8-1.6,0.8
		c-0.5,0-1-0.1-1.4-0.4v2.1c0,0.3,0,0.5-0.1,0.6c-0.1,0.1-0.3,0.2-0.5,0.2h-0.4l-0.1-0.1V2.9l0.1-0.1h0.4c0.4,0,0.6,0.2,0.7,0.6
		C79.9,3,80.5,2.7,81.1,2.7z M80.8,3.7c-0.6,0-1,0.3-1.4,0.8v3C79.9,7.8,80.3,8,80.7,8s0.7-0.2,0.9-0.6C81.9,7.1,82,6.5,82,5.8
		s-0.1-1.2-0.3-1.6S81.2,3.7,80.8,3.7z"/>
	<path fill="#FFFFFF" d="M84.3,3.4c0.1-0.3,0.2-0.5,0.4-0.6c0.5,0.1,0.9,0.5,1,1.1c0.3-0.7,0.9-1.1,1.6-1.1c0.2,0,0.4,0,0.6,0.1
		c0,0.4-0.1,0.8-0.3,1.1c0,0-0.2,0-0.5,0c-0.6,0-1,0.3-1.3,0.9v3.9c-0.1,0-0.3,0-0.6,0s-0.4,0-0.6,0V4.7C84.8,4.1,84.6,3.7,84.3,3.4
		z"/>
	<path fill="#FFFFFF" d="M93.4,6.2h-3.6c0,0.6,0.1,1,0.4,1.3C90.4,7.9,90.8,8,91.3,8s1.1-0.2,1.7-0.5c0.2,0.2,0.3,0.4,0.4,0.8
		C92.7,8.8,91.9,9,91.1,9c-0.9,0-1.5-0.3-1.9-0.9s-0.6-1.3-0.6-2.3s0.2-1.7,0.6-2.3c0.4-0.6,1-0.9,1.8-0.9c0.8,0,1.4,0.2,1.8,0.7
		c0.4,0.5,0.6,1.1,0.6,1.8C93.5,5.6,93.5,5.9,93.4,6.2z M92,4.1c-0.2-0.3-0.5-0.5-0.9-0.5s-0.7,0.2-0.9,0.5
		c-0.2,0.3-0.3,0.7-0.4,1.3h2.5V5.2C92.4,4.7,92.2,4.4,92,4.1z"/>
	<path fill="#FFFFFF" d="M97.9,2.7c0.7,0,1.2,0.3,1.5,0.8c0.4,0.6,0.5,1.3,0.5,2.3s-0.2,1.7-0.7,2.3s-1,0.8-1.6,0.8
		c-0.5,0-1-0.1-1.4-0.4v2.1c0,0.3,0,0.5-0.1,0.6c-0.1,0.1-0.3,0.2-0.5,0.2h-0.4L95,11.3V2.9l0.1-0.1h0.4c0.4,0,0.6,0.2,0.7,0.6
		C96.6,3,97.2,2.7,97.9,2.7z M97.6,3.7c-0.6,0-1,0.3-1.4,0.8v3C96.6,7.8,97,8,97.4,8s0.7-0.2,0.9-0.6c0.2-0.4,0.4-0.9,0.4-1.6
		s-0.1-1.2-0.3-1.6S97.9,3.7,97.6,3.7z"/>
	<path fill="#FFFFFF" d="M105.9,8.3c-0.1,0.3-0.2,0.5-0.5,0.6c-0.4-0.1-0.7-0.3-0.9-0.8C104,8.7,103.4,9,102.8,9
		c-0.6,0-1.1-0.2-1.4-0.5c-0.3-0.4-0.5-0.8-0.5-1.2c0-0.7,0.2-1.1,0.6-1.5s1-0.5,1.7-0.5c0.4,0,0.8,0,1.2,0.1V4.8
		c0-0.7-0.3-1.1-1-1.1c-0.5,0-1.2,0.2-1.9,0.5c-0.2-0.2-0.3-0.5-0.3-0.9c0.8-0.4,1.7-0.6,2.5-0.6c0.6,0,1.1,0.2,1.4,0.5
		c0.3,0.3,0.5,0.8,0.5,1.5v2.5C105.6,7.8,105.7,8.1,105.9,8.3z M103,8c0.5,0,1-0.3,1.5-0.8V6.1c-0.3,0-0.7-0.1-1.1-0.1
		c-0.4,0-0.7,0.1-0.9,0.3c-0.2,0.2-0.3,0.4-0.3,0.7c0,0.3,0.1,0.5,0.2,0.7C102.5,8,102.7,8,103,8z"/>
	<path fill="#FFFFFF" d="M107.1,3.4c0.1-0.3,0.2-0.5,0.4-0.6c0.5,0.1,0.9,0.5,1,1.1c0.3-0.7,0.9-1.1,1.6-1.1c0.2,0,0.4,0,0.6,0.1
		c0,0.4-0.1,0.8-0.3,1.1c0,0-0.2,0-0.5,0c-0.6,0-1,0.3-1.3,0.9v3.9c-0.1,0-0.3,0-0.6,0s-0.4,0-0.6,0V4.7
		C107.6,4.1,107.4,3.7,107.1,3.4z"/>
	<path fill="#FFFFFF" d="M116.3,8.3c-0.1,0.3-0.2,0.5-0.5,0.6c-0.4-0.1-0.7-0.3-0.9-0.8c-0.6,0.6-1.2,0.8-1.8,0.8
		c-0.6,0-1.1-0.2-1.4-0.5c-0.3-0.4-0.5-0.8-0.5-1.2c0-0.7,0.2-1.1,0.6-1.5s1-0.5,1.7-0.5c0.4,0,0.8,0,1.2,0.1V4.8
		c0-0.7-0.3-1.1-1-1.1c-0.5,0-1.2,0.2-1.9,0.5c-0.2-0.2-0.3-0.5-0.3-0.9c0.8-0.4,1.7-0.6,2.5-0.6c0.6,0,1.1,0.2,1.4,0.5
		c0.3,0.3,0.5,0.8,0.5,1.5v2.5C116,7.8,116.1,8.1,116.3,8.3z M113.3,8c0.5,0,1-0.3,1.5-0.8V6.1c-0.3,0-0.7-0.1-1.1-0.1
		c-0.4,0-0.7,0.1-0.9,0.3c-0.2,0.2-0.3,0.4-0.3,0.7c0,0.3,0.1,0.5,0.2,0.7C112.9,8,113.1,8,113.3,8z"/>
	<path fill="#FFFFFF" d="M117.5,3.4c0.1-0.3,0.2-0.5,0.4-0.6c0.5,0.1,0.9,0.5,1,1.1c0.3-0.7,0.9-1.1,1.6-1.1c0.2,0,0.4,0,0.6,0.1
		c0,0.4-0.1,0.8-0.3,1.1c0,0-0.2,0-0.5,0c-0.6,0-1,0.3-1.3,0.9v3.9c-0.1,0-0.3,0-0.6,0s-0.4,0-0.6,0V4.7
		C117.9,4.1,117.8,3.7,117.5,3.4z"/>
	<path fill="#FFFFFF" d="M127.7,2.7c0.7,0,1.2,0.3,1.5,0.8c0.4,0.6,0.5,1.3,0.5,2.3s-0.2,1.7-0.7,2.3s-1,0.8-1.6,0.8
		c-0.5,0-1-0.1-1.4-0.4v2.1c0,0.3,0,0.5-0.1,0.6c-0.1,0.1-0.3,0.2-0.5,0.2h-0.4l-0.1-0.1V2.9l0.1-0.1h0.4c0.4,0,0.6,0.2,0.7,0.6
		C126.4,3,127,2.7,127.7,2.7z M127.4,3.7c-0.6,0-1,0.3-1.4,0.8v3c0.4,0.3,0.9,0.5,1.2,0.5s0.7-0.2,0.9-0.6c0.2-0.4,0.4-0.9,0.4-1.6
		s-0.1-1.2-0.3-1.6S127.7,3.7,127.4,3.7z"/>
	<path fill="#FFFFFF" d="M135.7,8.3c-0.1,0.3-0.2,0.5-0.5,0.6c-0.4-0.1-0.7-0.3-0.9-0.8c-0.6,0.6-1.2,0.8-1.8,0.8
		c-0.6,0-1.1-0.2-1.4-0.5c-0.3-0.4-0.5-0.8-0.5-1.2c0-0.7,0.2-1.1,0.6-1.5s1-0.5,1.7-0.5c0.4,0,0.8,0,1.2,0.1V4.8
		c0-0.7-0.3-1.1-1-1.1c-0.5,0-1.2,0.2-1.9,0.5C131.1,4,131,3.7,131,3.3c0.8-0.4,1.7-0.6,2.5-0.6c0.6,0,1.1,0.2,1.4,0.5
		c0.3,0.3,0.5,0.8,0.5,1.5v2.5C135.4,7.8,135.5,8.1,135.7,8.3z M132.8,8c0.5,0,1-0.3,1.5-0.8V6.1c-0.3,0-0.7-0.1-1.1-0.1
		c-0.4,0-0.7,0.1-0.9,0.3c-0.2,0.2-0.3,0.4-0.3,0.7c0,0.3,0.1,0.5,0.2,0.7C132.3,8,132.5,8,132.8,8z"/>
	<path fill="#FFFFFF" d="M137,3.4c0.1-0.3,0.2-0.5,0.4-0.6c0.5,0.1,0.9,0.5,1,1.1c0.3-0.7,0.9-1.1,1.6-1.1c0.2,0,0.4,0,0.6,0.1
		c0,0.4-0.1,0.8-0.3,1.1c0,0-0.2,0-0.5,0c-0.6,0-1,0.3-1.3,0.9v3.9c-0.1,0-0.3,0-0.6,0s-0.4,0-0.6,0V4.7
		C137.4,4.1,137.2,3.7,137,3.4z"/>
	<path fill="#FFFFFF" d="M146.1,8.3c-0.1,0.3-0.2,0.5-0.5,0.6c-0.4-0.1-0.7-0.3-0.9-0.8C144.2,8.7,143.6,9,143,9
		c-0.6,0-1.1-0.2-1.4-0.5c-0.3-0.4-0.5-0.8-0.5-1.2c0-0.7,0.2-1.1,0.6-1.5s1-0.5,1.7-0.5c0.4,0,0.8,0,1.2,0.1V4.8
		c0-0.7-0.3-1.1-1-1.1c-0.5,0-1.2,0.2-1.9,0.5c-0.2-0.2-0.3-0.5-0.3-0.9c0.8-0.4,1.7-0.6,2.5-0.6c0.6,0,1.1,0.2,1.4,0.5
		c0.3,0.3,0.5,0.8,0.5,1.5v2.5C145.8,7.8,145.9,8.1,146.1,8.3z M143.2,8c0.5,0,1-0.3,1.5-0.8V6.1c-0.3,0-0.7-0.1-1.1-0.1
		c-0.4,0-0.7,0.1-0.9,0.3c-0.2,0.2-0.3,0.4-0.3,0.7c0,0.3,0.1,0.5,0.2,0.7C142.7,8,142.9,8,143.2,8z"/>
	<path fill="#FFFFFF" d="M154.6,6.2h-3.6c0,0.6,0.1,1,0.4,1.3c0.2,0.3,0.6,0.5,1.1,0.5s1.1-0.2,1.7-0.5c0.2,0.2,0.3,0.4,0.4,0.8
		c-0.6,0.4-1.4,0.7-2.3,0.7c-0.9,0-1.5-0.3-1.9-0.9s-0.6-1.3-0.6-2.3s0.2-1.7,0.6-2.3c0.4-0.6,1-0.9,1.8-0.9c0.8,0,1.4,0.2,1.8,0.7
		c0.4,0.5,0.6,1.1,0.6,1.8C154.7,5.6,154.7,5.9,154.6,6.2z M153.3,4.1c-0.2-0.3-0.5-0.5-0.9-0.5s-0.7,0.2-0.9,0.5
		c-0.2,0.3-0.3,0.7-0.4,1.3h2.5V5.2C153.6,4.7,153.5,4.4,153.3,4.1z"/>
	<path fill="#FFFFFF" d="M155.7,8.4c0-0.1,0-0.3,0.1-0.4s0.2-0.3,0.3-0.4c0.7,0.4,1.2,0.5,1.6,0.5c0.4,0,0.7-0.1,0.9-0.2
		c0.2-0.1,0.3-0.3,0.3-0.6c0-0.4-0.3-0.7-0.8-0.9l-0.7-0.3c-1-0.4-1.5-0.9-1.5-1.7c0-0.5,0.2-1,0.6-1.3c0.4-0.3,0.9-0.5,1.6-0.5
		s1.3,0.1,1.9,0.4c0,0.2,0,0.3-0.1,0.5s-0.2,0.3-0.3,0.4c-0.6-0.3-1.1-0.4-1.6-0.4c-0.3,0-0.5,0.1-0.7,0.2c-0.2,0.1-0.3,0.3-0.3,0.5
		c0,0.2,0.1,0.4,0.2,0.5s0.3,0.2,0.6,0.3l0.7,0.3c1,0.4,1.5,1,1.5,1.8c0,0.5-0.2,1-0.6,1.3c-0.4,0.3-1,0.5-1.7,0.5
		S156.4,8.8,155.7,8.4z"/>
	<path fill="#FFFFFF" d="M161,8.4c0-0.1,0-0.3,0.1-0.4s0.2-0.3,0.3-0.4c0.7,0.4,1.2,0.5,1.6,0.5c0.4,0,0.7-0.1,0.9-0.2
		c0.2-0.1,0.3-0.3,0.3-0.6c0-0.4-0.3-0.7-0.8-0.9l-0.7-0.3c-1-0.4-1.5-0.9-1.5-1.7c0-0.5,0.2-1,0.6-1.3c0.4-0.3,0.9-0.5,1.6-0.5
		s1.3,0.1,1.9,0.4c0,0.2,0,0.3-0.1,0.5S165,3.9,164.9,4c-0.6-0.3-1.1-0.4-1.6-0.4c-0.3,0-0.5,0.1-0.7,0.2c-0.2,0.1-0.3,0.3-0.3,0.5
		c0,0.2,0.1,0.4,0.2,0.5s0.3,0.2,0.6,0.3l0.7,0.3c1,0.4,1.5,1,1.5,1.8c0,0.5-0.2,1-0.6,1.3c-0.4,0.3-1,0.5-1.7,0.5
		S161.6,8.8,161,8.4z"/>
	<path fill="#FFFFFF" d="M171.3,8.3c-0.1,0.3-0.2,0.5-0.5,0.6c-0.4-0.1-0.7-0.3-0.9-0.8c-0.6,0.6-1.2,0.8-1.8,0.8
		c-0.6,0-1.1-0.2-1.4-0.5c-0.3-0.4-0.5-0.8-0.5-1.2c0-0.7,0.2-1.1,0.6-1.5s1-0.5,1.7-0.5c0.4,0,0.8,0,1.2,0.1V4.8
		c0-0.7-0.3-1.1-1-1.1c-0.5,0-1.2,0.2-1.9,0.5c-0.2-0.2-0.3-0.5-0.3-0.9c0.8-0.4,1.7-0.6,2.5-0.6c0.6,0,1.1,0.2,1.4,0.5
		c0.3,0.3,0.5,0.8,0.5,1.5v2.5C171,7.8,171.1,8.1,171.3,8.3z M168.4,8c0.5,0,1-0.3,1.5-0.8V6.1c-0.3,0-0.7-0.1-1.1-0.1
		c-0.4,0-0.7,0.1-0.9,0.3c-0.2,0.2-0.3,0.4-0.3,0.7c0,0.3,0.1,0.5,0.2,0.7C167.9,8,168.1,8,168.4,8z"/>
	<path fill="#FFFFFF" d="M176.9,3.9v4.7c0,0.7,0,1.2-0.1,1.5s-0.2,0.5-0.3,0.7c-0.3,0.3-0.7,0.6-1.3,0.7c-0.2-0.2-0.3-0.4-0.3-0.7
		c0.3-0.2,0.6-0.4,0.7-0.6c0.1-0.2,0.2-0.5,0.2-0.9V4.4c0-0.2,0-0.4-0.1-0.5s-0.2-0.1-0.4-0.1H175c0-0.2,0-0.3,0-0.4s0-0.2,0-0.4
		c0.3,0,0.6,0,0.9,0h0.1c0.3,0,0.5,0.1,0.7,0.3C176.8,3.3,176.9,3.6,176.9,3.9z M175.4,1.3c0-0.2,0-0.4,0.1-0.5
		c0.2-0.1,0.4-0.1,0.7-0.1c0.3,0,0.5,0,0.6,0.1c0.1,0.1,0.1,0.3,0.1,0.5c0,0.2,0,0.4-0.1,0.5c-0.1,0.1-0.3,0.1-0.6,0.1
		c-0.3,0-0.5,0-0.6-0.1C175.4,1.6,175.4,1.5,175.4,1.3z"/>
	<path fill="#FFFFFF" d="M182.7,3.4c0.6,0.6,0.8,1.4,0.8,2.5s-0.3,1.9-0.8,2.5c-0.4,0.4-1,0.7-1.7,0.7s-1.3-0.2-1.7-0.7
		c-0.6-0.6-0.8-1.4-0.8-2.5s0.3-1.9,0.8-2.5c0.4-0.4,1-0.7,1.7-0.7S182.2,3,182.7,3.4z M179.6,5.9c0,1.5,0.5,2.2,1.4,2.2
		s1.4-0.7,1.4-2.2c0-0.4,0-0.8-0.1-1.1c-0.1-0.3-0.2-0.6-0.4-0.8c-0.2-0.2-0.5-0.3-0.8-0.3s-0.6,0.1-0.8,0.3
		c-0.2,0.2-0.4,0.5-0.4,0.8C179.6,5.1,179.6,5.5,179.6,5.9z"/>
	<path fill="#FFFFFF" d="M184.7,3.4c0.1-0.3,0.2-0.5,0.4-0.6c0.5,0.1,0.9,0.5,1,1.1c0.3-0.7,0.9-1.1,1.6-1.1c0.2,0,0.4,0,0.6,0.1
		c0,0.4-0.1,0.8-0.3,1.1c0,0-0.2,0-0.5,0c-0.6,0-1,0.3-1.3,0.9v3.9c-0.1,0-0.3,0-0.6,0s-0.4,0-0.6,0V4.7
		C185.1,4.1,185,3.7,184.7,3.4z"/>
	<path fill="#FFFFFF" d="M194.1,4.7v2.8c0,0.5,0.1,0.8,0.2,1.1c-0.2,0.2-0.4,0.3-0.7,0.3c-0.4,0-0.6-0.2-0.6-0.7V5
		c0-0.4-0.1-0.7-0.2-0.9c-0.1-0.2-0.3-0.3-0.6-0.3c-0.3,0-0.6,0.1-0.9,0.2c-0.3,0.1-0.5,0.3-0.8,0.6v4.2c-0.1,0-0.3,0-0.6,0
		s-0.4,0-0.6,0V2.9l0.1-0.1h0.4c0.4,0,0.6,0.3,0.6,0.8c0.6-0.5,1.2-0.8,1.9-0.8c0.5,0,0.9,0.2,1.2,0.5C194,3.7,194.1,4.2,194.1,4.7z
		"/>
	<path fill="#FFFFFF" d="M200.5,8.3c-0.1,0.3-0.2,0.5-0.5,0.6c-0.4-0.1-0.7-0.3-0.9-0.8C198.6,8.7,198,9,197.4,9
		c-0.6,0-1.1-0.2-1.4-0.5c-0.3-0.4-0.5-0.8-0.5-1.2c0-0.7,0.2-1.1,0.6-1.5s1-0.5,1.7-0.5c0.4,0,0.8,0,1.2,0.1V4.8
		c0-0.7-0.3-1.1-1-1.1c-0.5,0-1.2,0.2-1.9,0.5c-0.2-0.2-0.3-0.5-0.3-0.9c0.8-0.4,1.7-0.6,2.5-0.6c0.6,0,1.1,0.2,1.4,0.5
		c0.3,0.3,0.5,0.8,0.5,1.5v2.5C200.2,7.8,200.3,8.1,200.5,8.3z M197.6,8c0.5,0,1-0.3,1.5-0.8V6.1c-0.3,0-0.7-0.1-1.1-0.1
		c-0.4,0-0.7,0.1-0.9,0.3c-0.2,0.2-0.3,0.4-0.3,0.7c0,0.3,0.1,0.5,0.2,0.7C197.1,8,197.3,8,197.6,8z"/>
	<path fill="#FFFFFF" d="M203.6,9c-0.7,0-1.2-0.3-1.5-0.8c-0.4-0.6-0.5-1.3-0.5-2.3c0-1,0.2-1.7,0.7-2.3c0.5-0.5,1-0.8,1.6-0.8
		c0.4,0,0.9,0.1,1.4,0.4V0.1l0.1-0.1h0.4c0.2,0,0.4,0.1,0.5,0.2c0.1,0.1,0.1,0.3,0.1,0.6v6.4c0,0.6,0.1,1,0.3,1.2
		c-0.1,0.3-0.2,0.5-0.5,0.6c-0.4-0.1-0.7-0.3-0.9-0.8C204.8,8.7,204.3,9,203.6,9z M203.8,8c0.5,0,1-0.3,1.4-0.8v-3
		c-0.4-0.3-0.9-0.5-1.2-0.5s-0.7,0.2-0.9,0.6c-0.2,0.4-0.4,0.9-0.4,1.6c0,0.7,0.1,1.2,0.3,1.6S203.5,8,203.8,8z"/>
	<path fill="#FFFFFF" d="M212.8,8.3c-0.1,0.3-0.2,0.5-0.5,0.6c-0.4-0.1-0.7-0.3-0.9-0.8c-0.6,0.6-1.2,0.8-1.8,0.8
		c-0.6,0-1.1-0.2-1.4-0.5c-0.3-0.4-0.5-0.8-0.5-1.2c0-0.7,0.2-1.1,0.6-1.5s1-0.5,1.7-0.5c0.4,0,0.8,0,1.2,0.1V4.8
		c0-0.7-0.3-1.1-1-1.1c-0.5,0-1.2,0.2-1.9,0.5c-0.2-0.2-0.3-0.5-0.3-0.9c0.8-0.4,1.7-0.6,2.5-0.6c0.6,0,1.1,0.2,1.4,0.5
		c0.3,0.3,0.5,0.8,0.5,1.5v2.5C212.5,7.8,212.6,8.1,212.8,8.3z M209.9,8c0.5,0,1-0.3,1.5-0.8V6.1c-0.3,0-0.7-0.1-1.1-0.1
		c-0.4,0-0.7,0.1-0.9,0.3c-0.2,0.2-0.3,0.4-0.3,0.7c0,0.3,0.1,0.5,0.2,0.7C209.4,8,209.6,8,209.9,8z"/>
	<path fill="#FFFFFF" d="M214.1,8.2c0-0.2,0-0.4,0.1-0.6c0.2-0.1,0.4-0.1,0.7-0.1c0.3,0,0.5,0,0.7,0.1c0.1,0.1,0.1,0.3,0.1,0.6
		s0,0.4-0.1,0.6c-0.2,0.1-0.4,0.1-0.7,0.1c-0.3,0-0.5,0-0.7-0.1C214.2,8.6,214.1,8.4,214.1,8.2z"/>
	<path fill="#FFFFFF" d="M13.5,21.2l-0.7,0h-1.6l-0.7,0l-0.6,2c-0.1,0-0.3,0-0.5,0c-0.2,0-0.4,0-0.6-0.1l0-0.1l2.7-8.1
		c0.2,0,0.4,0,0.7,0s0.5,0,0.7,0l2.7,8.1c-0.2,0.1-0.4,0.2-0.6,0.2s-0.4,0-0.5-0.1c-0.1-0.1-0.2-0.3-0.3-0.5L13.5,21.2z M10.7,20.2
		l0.6,0h1.2c0,0,0.1,0,0.3,0c0.2,0,0.3,0,0.3,0l-0.6-1.9c-0.2-0.7-0.4-1.4-0.6-2.1h-0.1c-0.1,0.6-0.3,1.1-0.5,1.7L10.7,20.2z"/>
	<path fill="#FFFFFF" d="M19.7,19.5c0,0,0-0.1,0-0.1c0-0.9-0.4-1.4-1.1-1.4c-0.4,0-0.7,0.2-0.9,0.6c-0.2,0.4-0.3,0.9-0.3,1.7
		c0,1.4,0.5,2.1,1.4,2.1c0.4,0,0.9-0.2,1.5-0.6c0.1,0.1,0.2,0.2,0.3,0.3c0.1,0.1,0.2,0.3,0.2,0.4c-0.6,0.6-1.3,0.9-2.1,0.9
		s-1.4-0.3-1.8-0.9c-0.4-0.6-0.6-1.4-0.6-2.3s0.2-1.7,0.7-2.2c0.5-0.5,1.1-0.8,1.8-0.8c0.7,0,1.2,0.2,1.6,0.6s0.6,0.8,0.6,1.2
		s-0.2,0.7-0.6,0.7C20,19.6,19.8,19.6,19.7,19.5z"/>
	<path fill="#FFFFFF" d="M26.5,20.6H23c0,0.6,0.1,1,0.4,1.3c0.2,0.3,0.6,0.5,1.1,0.5s1.1-0.2,1.7-0.5c0.2,0.2,0.3,0.4,0.4,0.8
		c-0.6,0.4-1.4,0.7-2.3,0.7c-0.9,0-1.5-0.3-1.9-0.9s-0.6-1.3-0.6-2.3s0.2-1.7,0.6-2.3c0.4-0.6,1-0.9,1.8-0.9c0.8,0,1.4,0.2,1.8,0.7
		c0.4,0.5,0.6,1.1,0.6,1.8C26.6,20,26.6,20.3,26.5,20.6z M25.2,18.5C25,18.2,24.7,18,24.3,18s-0.7,0.2-0.9,0.5
		c-0.2,0.3-0.3,0.7-0.4,1.3h2.5v-0.2C25.5,19.1,25.4,18.8,25.2,18.5z"/>
	<path fill="#FFFFFF" d="M27.6,22.8c0-0.1,0-0.3,0.1-0.4S27.9,22,28,22c0.7,0.4,1.2,0.5,1.6,0.5c0.4,0,0.7-0.1,0.9-0.2
		c0.2-0.1,0.3-0.3,0.3-0.6c0-0.4-0.3-0.7-0.8-0.9l-0.7-0.3c-1-0.4-1.5-0.9-1.5-1.7c0-0.5,0.2-1,0.6-1.3c0.4-0.3,0.9-0.5,1.6-0.5
		s1.3,0.1,1.9,0.4c0,0.2,0,0.3-0.1,0.5s-0.2,0.3-0.3,0.4c-0.6-0.3-1.1-0.4-1.6-0.4c-0.3,0-0.5,0.1-0.7,0.2c-0.2,0.1-0.3,0.3-0.3,0.5
		c0,0.2,0.1,0.4,0.2,0.5s0.3,0.2,0.6,0.3l0.7,0.3c1,0.4,1.5,1,1.5,1.8c0,0.5-0.2,1-0.6,1.3c-0.4,0.3-1,0.5-1.7,0.5
		S28.3,23.2,27.6,22.8z"/>
	<path fill="#FFFFFF" d="M32.9,22.8c0-0.1,0-0.3,0.1-0.4s0.2-0.3,0.3-0.4c0.7,0.4,1.2,0.5,1.6,0.5c0.4,0,0.7-0.1,0.9-0.2
		c0.2-0.1,0.3-0.3,0.3-0.6c0-0.4-0.3-0.7-0.8-0.9l-0.7-0.3c-1-0.4-1.5-0.9-1.5-1.7c0-0.5,0.2-1,0.6-1.3c0.4-0.3,0.9-0.5,1.6-0.5
		s1.3,0.1,1.9,0.4c0,0.2,0,0.3-0.1,0.5s-0.2,0.3-0.3,0.4c-0.6-0.3-1.1-0.4-1.6-0.4c-0.3,0-0.5,0.1-0.7,0.2c-0.2,0.1-0.3,0.3-0.3,0.5
		c0,0.2,0.1,0.4,0.2,0.5s0.3,0.2,0.6,0.3l0.7,0.3c1,0.4,1.5,1,1.5,1.8c0,0.5-0.2,1-0.6,1.3c-0.4,0.3-1,0.5-1.7,0.5
		S33.5,23.2,32.9,22.8z"/>
	<path fill="#FFFFFF" d="M43,20.6h-3.6c0,0.6,0.1,1,0.4,1.3c0.2,0.3,0.6,0.5,1.1,0.5s1.1-0.2,1.7-0.5c0.2,0.2,0.3,0.4,0.4,0.8
		c-0.6,0.4-1.4,0.7-2.3,0.7c-0.9,0-1.5-0.3-1.9-0.9s-0.6-1.3-0.6-2.3s0.2-1.7,0.6-2.3c0.4-0.6,1-0.9,1.8-0.9c0.8,0,1.4,0.2,1.8,0.7
		c0.4,0.5,0.6,1.1,0.6,1.8C43.1,20,43.1,20.3,43,20.6z M41.7,18.5c-0.2-0.3-0.5-0.5-0.9-0.5s-0.7,0.2-0.9,0.5
		c-0.2,0.3-0.3,0.7-0.4,1.3H42v-0.2C42,19.1,41.9,18.8,41.7,18.5z"/>
	<path fill="#FFFFFF" d="M51.2,17.8c0.6,0.6,0.8,1.4,0.8,2.5s-0.3,1.9-0.8,2.5c-0.4,0.4-1,0.7-1.7,0.7s-1.3-0.2-1.7-0.7
		c-0.6-0.6-0.8-1.4-0.8-2.5s0.3-1.9,0.8-2.5c0.4-0.4,1-0.7,1.7-0.7S50.8,17.4,51.2,17.8z M48.1,20.3c0,1.5,0.5,2.2,1.4,2.2
		s1.4-0.7,1.4-2.2c0-0.4,0-0.8-0.1-1.1c-0.1-0.3-0.2-0.6-0.4-0.8c-0.2-0.2-0.5-0.3-0.8-0.3s-0.6,0.1-0.8,0.3
		c-0.2,0.2-0.4,0.5-0.4,0.8C48.2,19.5,48.1,19.9,48.1,20.3z"/>
	<path fill="#A9D42D" d="M59.2,19.6c0-0.6-0.2-0.9-0.6-0.9c-0.3,0-0.6,0.2-0.9,0.5v4c-0.2,0-0.5,0.1-0.9,0.1c-0.3,0-0.6,0-0.9-0.1
		v-6l0.1-0.1h0.7c0.5,0,0.8,0.3,1,0.8c0.6-0.5,1.1-0.8,1.7-0.8c0.6,0,1.1,0.3,1.4,0.8c0.6-0.6,1.2-0.8,1.8-0.8s1,0.2,1.3,0.5
		c0.3,0.4,0.4,0.8,0.4,1.4v2.7c0,0.5,0.1,0.9,0.3,1.2c-0.3,0.3-0.7,0.4-1,0.4c-0.4,0-0.7-0.1-0.8-0.3c-0.1-0.2-0.2-0.5-0.2-0.8v-2.6
		c0-0.6-0.2-0.9-0.6-0.9c-0.2,0-0.5,0.2-0.8,0.5v4c-0.3,0-0.6,0.1-0.9,0.1s-0.6,0-0.9-0.1V19.6z"/>
	<path fill="#A9D42D" d="M70,17.8c0.6,0.6,0.9,1.4,0.9,2.5c0,1.1-0.3,1.9-0.9,2.5c-0.5,0.5-1.1,0.7-1.9,0.7s-1.4-0.2-1.9-0.7
		c-0.6-0.6-0.9-1.4-0.9-2.5c0-1.1,0.3-1.9,0.9-2.5c0.5-0.5,1.1-0.7,1.9-0.7S69.5,17.3,70,17.8z M67,16l1.8-2
		c0.2,0.1,0.4,0.2,0.7,0.4c0.2,0.2,0.4,0.4,0.4,0.6l-2.2,1.7c-0.2,0-0.3-0.1-0.4-0.3S67,16.2,67,16z M67.3,18.9
		c-0.1,0.3-0.2,0.8-0.2,1.4s0.1,1,0.2,1.4c0.1,0.3,0.4,0.5,0.7,0.5c0.4,0,0.6-0.2,0.7-0.5c0.1-0.3,0.2-0.8,0.2-1.4s-0.1-1-0.2-1.4
		c-0.1-0.3-0.4-0.5-0.7-0.5C67.7,18.4,67.5,18.6,67.3,18.9z"/>
	<path fill="#A9D42D" d="M73.7,23.4c-0.7,0-1.2-0.3-1.6-0.8c-0.4-0.6-0.5-1.3-0.5-2.3s0.2-1.7,0.7-2.3s1-0.8,1.7-0.8
		c0.4,0,0.7,0.1,1.1,0.3v-2.9l0.1-0.1h0.7c0.4,0,0.6,0.1,0.7,0.2s0.2,0.4,0.2,0.8v6c0,0.4,0.1,0.7,0.3,0.9c0,0.2-0.1,0.3-0.2,0.5
		c-0.1,0.2-0.2,0.3-0.3,0.4c-0.6,0-1-0.2-1.2-0.7C74.9,23.1,74.4,23.4,73.7,23.4z M74.2,22c0.4,0,0.7-0.2,0.9-0.5v-2.7
		c-0.3-0.2-0.6-0.3-0.8-0.3c-0.6,0-0.9,0.6-0.9,1.9c0,0.6,0.1,1,0.2,1.2C73.8,21.8,74,22,74.2,22z"/>
	<path fill="#A9D42D" d="M78.4,21.2v-2.5c0-0.5-0.1-0.9-0.3-1.2c0.3-0.3,0.6-0.4,1-0.4c0.4,0,0.7,0.1,0.8,0.3
		c0.1,0.2,0.2,0.5,0.2,0.8v2.6c0,0.3,0,0.5,0.1,0.6s0.2,0.2,0.4,0.2c0.3,0,0.7-0.1,1-0.4v-4c0.2,0,0.5-0.1,0.9-0.1
		c0.3,0,0.6,0,0.9,0.1v4.3c0,0.4,0.1,0.7,0.3,0.9c0,0.2-0.1,0.3-0.2,0.5c-0.1,0.2-0.2,0.3-0.3,0.4c-0.6,0-1.1-0.3-1.4-0.8
		c-0.6,0.6-1.2,0.9-1.8,0.9s-1-0.2-1.3-0.6C78.5,22.4,78.4,21.8,78.4,21.2z"/>
	<path fill="#A9D42D" d="M87.2,21.9h0.3c0.1,0.3,0.1,0.5,0.1,0.7c0,0.2,0,0.4,0,0.5c-0.5,0.1-0.9,0.1-1.4,0.1c-0.4,0-0.8-0.1-1-0.4
		c-0.2-0.3-0.3-0.7-0.3-1.2v-7.2l0.1-0.1h0.7c0.4,0,0.6,0.1,0.8,0.2c0.1,0.2,0.2,0.4,0.2,0.8v5.9C86.7,21.7,86.9,21.9,87.2,21.9z"/>
	<path fill="#A9D42D" d="M93,17.8c0.6,0.6,0.9,1.4,0.9,2.5c0,1.1-0.3,1.9-0.9,2.5c-0.5,0.5-1.1,0.7-1.9,0.7s-1.4-0.2-1.9-0.7
		c-0.6-0.6-0.9-1.4-0.9-2.5c0-1.1,0.3-1.9,0.9-2.5c0.5-0.5,1.1-0.7,1.9-0.7S92.5,17.3,93,17.8z M90.4,18.9c-0.1,0.3-0.2,0.8-0.2,1.4
		s0.1,1,0.2,1.4c0.1,0.3,0.4,0.5,0.7,0.5c0.4,0,0.6-0.2,0.7-0.5c0.1-0.3,0.2-0.8,0.2-1.4s-0.1-1-0.2-1.4c-0.1-0.3-0.4-0.5-0.7-0.5
		C90.7,18.4,90.5,18.6,90.4,18.9z"/>
	<path fill="#A9D42D" d="M99.5,21.8l0-0.9v-1.7c0-0.1,0-0.4,0-0.7c0-0.3,0-0.6,0-0.7c-0.4,0.5-1,0.9-1.6,1.1
		c-0.2-0.1-0.3-0.2-0.5-0.4c-0.1-0.2-0.2-0.4-0.3-0.6c1.1-0.7,1.9-1.5,2.3-2.4c0.2,0,0.5-0.1,0.8-0.1c0.3,0,0.6,0,0.8,0.1v5.4l0,0.9
		l0.8,0h0.7c0.1,0.2,0.1,0.4,0.1,0.7s0,0.5-0.1,0.7h-4.9c-0.1-0.3-0.1-0.5-0.1-0.7c0-0.2,0-0.5,0.1-0.7h1L99.5,21.8z"/>
	<path fill="#A9D42D" d="M111.7,20.7h-5.1c-0.1-0.2-0.1-0.4-0.1-0.7c0-0.3,0-0.5,0.1-0.7h5.1c0.1,0.2,0.1,0.4,0.1,0.7
		C111.8,20.3,111.8,20.5,111.7,20.7z"/>
	<path fill="#A9D42D" d="M120.4,18.2c0,0,0-0.1,0-0.1c0-0.5-0.1-0.9-0.3-1.3c-0.2-0.4-0.6-0.5-1.1-0.5c-0.5,0-0.9,0.2-1.1,0.7
		c-0.2,0.5-0.4,1.2-0.4,2.1s0.1,1.6,0.4,2s0.7,0.7,1.3,0.7c0.6,0,1.2-0.3,2-0.9c0.2,0.1,0.4,0.3,0.5,0.5c0.2,0.2,0.3,0.4,0.3,0.6
		c-0.4,0.4-0.8,0.7-1.4,0.9c-0.6,0.2-1.2,0.4-1.7,0.4c-0.6,0-1-0.1-1.4-0.2c-0.4-0.2-0.7-0.4-0.9-0.6c-0.2-0.3-0.4-0.6-0.6-1
		c-0.3-0.7-0.4-1.5-0.4-2.4c0-1.4,0.3-2.5,1-3.2c0.7-0.7,1.5-1.1,2.4-1.1s1.7,0.2,2.3,0.7c0.6,0.5,0.8,1.1,0.8,1.8c0,0.7-0.3,1-1,1
		C120.8,18.3,120.6,18.3,120.4,18.2z"/>
	<path fill="#A9D42D" d="M123.1,21.2v-2.5c0-0.5-0.1-0.9-0.3-1.2c0.3-0.3,0.6-0.4,1-0.4c0.4,0,0.7,0.1,0.8,0.3
		c0.1,0.2,0.2,0.5,0.2,0.8v2.6c0,0.3,0,0.5,0.1,0.6s0.2,0.2,0.4,0.2c0.3,0,0.7-0.1,1-0.4v-4c0.2,0,0.5-0.1,0.9-0.1
		c0.3,0,0.6,0,0.9,0.1v4.3c0,0.4,0.1,0.7,0.3,0.9c0,0.2-0.1,0.3-0.2,0.5c-0.1,0.2-0.2,0.3-0.3,0.4c-0.6,0-1.1-0.3-1.4-0.8
		c-0.6,0.6-1.2,0.9-1.8,0.9s-1-0.2-1.3-0.6C123.2,22.4,123.1,21.8,123.1,21.2z"/>
	<path fill="#A9D42D" d="M131.9,21.9h0.3c0.1,0.3,0.1,0.5,0.1,0.7c0,0.2,0,0.4,0,0.5c-0.5,0.1-0.9,0.1-1.4,0.1c-0.4,0-0.8-0.1-1-0.4
		c-0.2-0.3-0.3-0.7-0.3-1.2v-7.2l0.1-0.1h0.7c0.4,0,0.6,0.1,0.8,0.2c0.1,0.2,0.2,0.4,0.2,0.8v5.9C131.4,21.7,131.6,21.9,131.9,21.9z
		"/>
	<path fill="#A9D42D" d="M136.7,17.2c0,0.2,0.1,0.4,0.1,0.6s0,0.4-0.1,0.6l-1.4,0v2.9c0,0.4,0.2,0.6,0.5,0.6h0.7
		c0.1,0.3,0.1,0.5,0.1,0.8s0,0.4,0,0.5c-0.6,0.1-1.1,0.1-1.6,0.1c-1,0-1.5-0.5-1.5-1.6v-3.2l-0.9,0c0-0.2-0.1-0.4-0.1-0.6
		s0-0.5,0.1-0.6l0.9,0v-0.7c0-0.4,0.1-0.7,0.2-0.8c0.1-0.2,0.4-0.2,0.7-0.2h0.7l0.1,0.1v1.7L136.7,17.2z"/>
	<path fill="#A9D42D" d="M137.7,21.2v-2.5c0-0.5-0.1-0.9-0.3-1.2c0.3-0.3,0.6-0.4,1-0.4c0.4,0,0.7,0.1,0.8,0.3
		c0.1,0.2,0.2,0.5,0.2,0.8v2.6c0,0.3,0,0.5,0.1,0.6s0.2,0.2,0.4,0.2c0.3,0,0.7-0.1,1-0.4v-4c0.2,0,0.5-0.1,0.9-0.1
		c0.3,0,0.6,0,0.9,0.1v4.3c0,0.4,0.1,0.7,0.3,0.9c0,0.2-0.1,0.3-0.2,0.5c-0.1,0.2-0.2,0.3-0.3,0.4c-0.6,0-1.1-0.3-1.4-0.8
		c-0.6,0.6-1.2,0.9-1.8,0.9s-1-0.2-1.3-0.6C137.8,22.4,137.7,21.8,137.7,21.2z"/>
	<path fill="#A9D42D" d="M144,18.1c0-0.2,0.1-0.3,0.2-0.5c0.1-0.2,0.2-0.3,0.3-0.4c0.7,0.1,1.2,0.4,1.5,1.1c0.3-0.7,0.8-1.1,1.5-1.1
		c0.3,0,0.5,0,0.8,0.1c0,0.2,0,0.5-0.1,0.8s-0.2,0.6-0.3,0.8c-0.2-0.1-0.4-0.1-0.6-0.1c-0.4,0-0.8,0.2-1,0.6v3.8
		c-0.2,0-0.5,0.1-0.9,0.1s-0.6,0-0.9-0.1v-3.9C144.4,18.7,144.3,18.3,144,18.1z"/>
	<path fill="#A9D42D" d="M153.9,22.4c0,0.2-0.1,0.3-0.2,0.5c-0.1,0.2-0.2,0.3-0.3,0.4c-0.6,0-1-0.2-1.2-0.6
		c-0.5,0.5-1.1,0.7-1.7,0.7s-1.1-0.2-1.4-0.6c-0.3-0.4-0.5-0.8-0.5-1.3c0-0.7,0.2-1.2,0.7-1.5c0.5-0.4,1-0.5,1.7-0.5
		c0.3,0,0.6,0,0.9,0v-0.3c0-0.5-0.3-0.8-0.8-0.8c-0.3,0-0.9,0.1-1.8,0.4c-0.2-0.3-0.4-0.7-0.4-1.2c0.4-0.2,0.8-0.3,1.3-0.4
		c0.5-0.1,1-0.1,1.4-0.1c0.6,0,1.1,0.2,1.5,0.5c0.4,0.3,0.6,0.8,0.6,1.5v2.4C153.6,22,153.7,22.2,153.9,22.4z M150.9,22.1
		c0.3,0,0.6-0.1,0.9-0.4v-1c-0.2,0-0.4,0-0.7,0c-0.5,0-0.8,0.3-0.8,0.8c0,0.2,0.1,0.3,0.2,0.4C150.6,22,150.7,22.1,150.9,22.1z"/>
	<path fill="#A9D42D" d="M163.7,17.5c0,0.5-0.1,1-0.4,1.4c-0.3,0.4-0.6,0.7-1,0.8c0.4,0.1,0.7,0.5,0.9,1.1l0.4,1.1
		c0.1,0.4,0.3,0.7,0.6,0.9c-0.1,0.2-0.3,0.3-0.5,0.4c-0.2,0.1-0.5,0.2-0.8,0.2c-0.3,0-0.5-0.1-0.6-0.2c-0.2-0.2-0.3-0.4-0.4-0.8
		l-0.5-1.3c-0.1-0.2-0.2-0.4-0.4-0.6s-0.4-0.2-0.7-0.2h-0.6v3c-0.2,0-0.5,0.1-0.9,0.1s-0.7,0-0.9-0.1v-8.1L158,15c1.3,0,2.3,0,2.8,0
		c0.9,0,1.6,0.2,2.1,0.7C163.4,16,163.7,16.7,163.7,17.5z M159.7,16.3v2.4c0.5,0,0.8,0,1,0c0.8,0,1.2-0.4,1.2-1.2s-0.4-1.2-1.2-1.2
		C160.3,16.3,159.9,16.3,159.7,16.3z"/>
	<path fill="#A9D42D" d="M169.3,17.8c0.6,0.6,0.9,1.4,0.9,2.5c0,1.1-0.3,1.9-0.9,2.5c-0.5,0.5-1.1,0.7-1.9,0.7s-1.4-0.2-1.9-0.7
		c-0.6-0.6-0.9-1.4-0.9-2.5c0-1.1,0.3-1.9,0.9-2.5c0.5-0.5,1.1-0.7,1.9-0.7S168.8,17.3,169.3,17.8z M166.7,18.9
		c-0.1,0.3-0.2,0.8-0.2,1.4s0.1,1,0.2,1.4c0.1,0.3,0.4,0.5,0.7,0.5c0.4,0,0.6-0.2,0.7-0.5c0.1-0.3,0.2-0.8,0.2-1.4s-0.1-1-0.2-1.4
		c-0.1-0.3-0.4-0.5-0.7-0.5C167.1,18.4,166.8,18.6,166.7,18.9z"/>
	<path fill="#A9D42D" d="M173.1,23.4c-0.7,0-1.2-0.3-1.6-0.8c-0.4-0.6-0.5-1.3-0.5-2.3s0.2-1.7,0.7-2.3s1-0.8,1.7-0.8
		c0.4,0,0.7,0.1,1.1,0.3v-2.9l0.1-0.1h0.7c0.4,0,0.6,0.1,0.7,0.2s0.2,0.4,0.2,0.8v6c0,0.4,0.1,0.7,0.3,0.9c0,0.2-0.1,0.3-0.2,0.5
		c-0.1,0.2-0.2,0.3-0.3,0.4c-0.6,0-1-0.2-1.2-0.7C174.3,23.1,173.7,23.4,173.1,23.4z M173.6,22c0.4,0,0.7-0.2,0.9-0.5v-2.7
		c-0.3-0.2-0.6-0.3-0.8-0.3c-0.6,0-0.9,0.6-0.9,1.9c0,0.6,0.1,1,0.2,1.2C173.2,21.8,173.3,22,173.6,22z"/>
	<path fill="#A9D42D" d="M182,17.8c0.6,0.6,0.9,1.4,0.9,2.5c0,1.1-0.3,1.9-0.9,2.5c-0.5,0.5-1.1,0.7-1.9,0.7s-1.4-0.2-1.9-0.7
		c-0.6-0.6-0.9-1.4-0.9-2.5c0-1.1,0.3-1.9,0.9-2.5c0.5-0.5,1.1-0.7,1.9-0.7S181.6,17.3,182,17.8z M179.4,18.9
		c-0.1,0.3-0.2,0.8-0.2,1.4s0.1,1,0.2,1.4c0.1,0.3,0.4,0.5,0.7,0.5c0.4,0,0.6-0.2,0.7-0.5c0.1-0.3,0.2-0.8,0.2-1.4s-0.1-1-0.2-1.4
		c-0.1-0.3-0.4-0.5-0.7-0.5C179.8,18.4,179.5,18.6,179.4,18.9z"/>
	<path fill="#A9D42D" d="M188.8,18c0.4,0.6,0.5,1.3,0.5,2.3c0,0.9-0.3,1.7-0.8,2.3c-0.5,0.6-1.2,0.9-2.1,0.9c-0.9,0-1.7-0.1-2.4-0.4
		v-8.4l0.1-0.1h0.7c0.4,0,0.6,0.1,0.8,0.2c0.2,0.2,0.2,0.4,0.2,0.8v2.1c0.4-0.3,0.9-0.4,1.4-0.4C187.9,17.1,188.4,17.4,188.8,18z
		 M186.7,18.6c-0.3,0-0.6,0.1-0.9,0.4v3c0.2,0,0.4,0.1,0.6,0.1c0.7,0,1.1-0.6,1.1-1.9C187.5,19.1,187.2,18.6,186.7,18.6z"/>
	<path fill="#A9D42D" d="M195.1,20.8h-3.2c0,0.4,0.1,0.7,0.3,0.9s0.5,0.3,0.9,0.3s0.9-0.1,1.5-0.4c0.2,0.2,0.4,0.6,0.5,1.1
		c-0.6,0.5-1.4,0.7-2.4,0.7c-0.5,0-0.9-0.1-1.3-0.3c-0.4-0.2-0.6-0.4-0.8-0.7c-0.4-0.6-0.5-1.3-0.5-2.2s0.2-1.7,0.7-2.2
		c0.4-0.6,1.1-0.9,1.9-0.9s1.5,0.2,1.9,0.7c0.4,0.5,0.7,1.1,0.7,1.8C195.2,20,195.2,20.4,195.1,20.8z M193.4,18.6
		c-0.1-0.2-0.3-0.3-0.6-0.3s-0.5,0.1-0.6,0.3s-0.2,0.5-0.2,0.9h1.7v-0.1C193.6,19.1,193.5,18.8,193.4,18.6z"/>
	<path fill="#A9D42D" d="M201.5,19.2v2.5c0,0.5,0.1,0.9,0.3,1.2c-0.3,0.3-0.7,0.4-1,0.4s-0.7-0.1-0.8-0.3c-0.1-0.2-0.2-0.5-0.2-0.8
		v-2.6c0-0.3,0-0.5-0.1-0.6c-0.1-0.1-0.2-0.2-0.4-0.2c-0.3,0-0.7,0.2-1,0.5v4c-0.2,0-0.5,0.1-0.9,0.1c-0.3,0-0.6,0-0.9-0.1v-6
		l0.1-0.1h0.7c0.5,0,0.8,0.2,0.9,0.7c0.6-0.5,1.2-0.7,1.7-0.7c0.6,0,1,0.2,1.3,0.6S201.5,18.6,201.5,19.2z"/>
	<path fill="#A9D42D" d="M202.5,22.8c0-0.2,0.1-0.4,0.2-0.6c0.1-0.2,0.2-0.4,0.3-0.6c0.6,0.3,1.2,0.5,1.7,0.5c0.2,0,0.4,0,0.6-0.1
		c0.1-0.1,0.2-0.2,0.2-0.3c0-0.3-0.2-0.5-0.6-0.6l-0.7-0.2c-1-0.4-1.5-1-1.5-1.8c0-0.6,0.2-1.1,0.6-1.4c0.4-0.4,1-0.5,1.7-0.5
		c0.3,0,0.7,0,1.1,0.1c0.4,0.1,0.8,0.2,1,0.3c0,0.2,0,0.5-0.1,0.7c-0.1,0.3-0.2,0.4-0.4,0.5c-0.7-0.3-1.2-0.4-1.7-0.4
		c-0.2,0-0.3,0-0.4,0.1s-0.1,0.2-0.1,0.3c0,0.2,0.2,0.4,0.5,0.5l0.7,0.3c1.1,0.4,1.6,1,1.6,1.9c0,0.6-0.2,1.1-0.7,1.4
		c-0.4,0.4-1.1,0.5-1.9,0.5S203.2,23.2,202.5,22.8z"/>
	<path fill="#A9D42D" d="M19.6,37l-1.2-5.2c0.2-0.1,0.5-0.2,0.7-0.2c0.3,0,0.5,0.2,0.5,0.5l0.6,2.6c0.1,0.7,0.3,1.4,0.4,2
		c0,0.1,0,0.1,0.1,0.1l1.1-5c0.2,0,0.4-0.1,0.7-0.1c0.3,0,0.5,0,0.7,0.1l1,4.9c0,0.1,0,0.1,0.1,0.1c0-0.2,0.1-0.4,0.1-0.7
		c0.1-0.4,0.2-0.9,0.3-1.4l0.7-2.9c0.1,0,0.3,0,0.5,0c0.2,0,0.4,0,0.6,0.1l0,0.1l-1.5,5.8c-0.2,0-0.5,0-0.8,0s-0.5,0-0.7-0.1
		s-0.2-0.3-0.3-0.5l-0.4-1.7l-0.5-2.5h-0.1c-0.1,0.4-0.2,1.3-0.5,2.5l-0.5,2.3c-0.3,0-0.6,0.1-0.9,0.1c-0.3,0-0.5,0-0.6-0.1
		S19.6,37.3,19.6,37z"/>
	<path fill="#A9D42D" d="M28.2,37l-1.2-5.2c0.2-0.1,0.5-0.2,0.7-0.2c0.3,0,0.5,0.2,0.5,0.5l0.6,2.6c0.1,0.7,0.3,1.4,0.4,2
		c0,0.1,0,0.1,0.1,0.1l1.1-5c0.2,0,0.4-0.1,0.7-0.1c0.3,0,0.5,0,0.7,0.1l1,4.9c0,0.1,0,0.1,0.1,0.1c0-0.2,0.1-0.4,0.1-0.7
		c0.1-0.4,0.2-0.9,0.3-1.4l0.7-2.9c0.1,0,0.3,0,0.5,0c0.2,0,0.4,0,0.6,0.1l0,0.1l-1.5,5.8c-0.2,0-0.5,0-0.8,0s-0.5,0-0.7-0.1
		s-0.2-0.3-0.3-0.5l-0.4-1.7L31,32.8h-0.1c-0.1,0.4-0.2,1.3-0.5,2.5l-0.5,2.3c-0.3,0-0.6,0.1-0.9,0.1c-0.3,0-0.5,0-0.6-0.1
		S28.2,37.3,28.2,37z"/>
	<path fill="#A9D42D" d="M36.8,37l-1.2-5.2c0.2-0.1,0.5-0.2,0.7-0.2c0.3,0,0.5,0.2,0.5,0.5l0.6,2.6c0.1,0.7,0.3,1.4,0.4,2
		c0,0.1,0,0.1,0.1,0.1l1.1-5c0.2,0,0.4-0.1,0.7-0.1c0.3,0,0.5,0,0.7,0.1l1,4.9c0,0.1,0,0.1,0.1,0.1c0-0.2,0.1-0.4,0.1-0.7
		c0.1-0.4,0.2-0.9,0.3-1.4l0.7-2.9c0.1,0,0.3,0,0.5,0c0.2,0,0.4,0,0.6,0.1l0,0.1l-1.5,5.8c-0.2,0-0.5,0-0.8,0s-0.5,0-0.7-0.1
		s-0.2-0.3-0.3-0.5l-0.4-1.7l-0.5-2.5h-0.1c-0.1,0.4-0.2,1.3-0.5,2.5l-0.5,2.3c-0.3,0-0.6,0.1-0.9,0.1c-0.3,0-0.5,0-0.6-0.1
		S36.9,37.3,36.8,37z"/>
	<path fill="#A9D42D" d="M44.6,37c0-0.2,0-0.4,0.1-0.6c0.2-0.1,0.4-0.1,0.7-0.1c0.3,0,0.5,0,0.7,0.1c0.1,0.1,0.1,0.3,0.1,0.6
		s0,0.4-0.1,0.6c-0.2,0.1-0.4,0.1-0.7,0.1c-0.3,0-0.5,0-0.7-0.1C44.6,37.4,44.6,37.2,44.6,37z"/>
	<path fill="#A9D42D" d="M47.9,35.8v-2.8c0-0.5-0.1-0.8-0.2-1.1c0.2-0.2,0.4-0.2,0.7-0.2c0.3,0,0.4,0.1,0.5,0.2
		c0.1,0.1,0.1,0.3,0.1,0.6v3.1c0,0.4,0.1,0.7,0.2,0.9c0.1,0.2,0.3,0.3,0.6,0.3c0.3,0,0.6-0.1,0.8-0.2c0.3-0.1,0.5-0.3,0.8-0.6v-4.2
		c0.2,0,0.4,0,0.6,0s0.4,0,0.6,0V36c0,0.6,0.1,1,0.3,1.2c-0.1,0.3-0.2,0.5-0.4,0.6c-0.5-0.1-0.8-0.4-0.9-0.9c-0.6,0.6-1.3,0.9-2,0.9
		c-0.5,0-0.9-0.2-1.2-0.5C48,36.8,47.9,36.4,47.9,35.8z"/>
	<path fill="#A9D42D" d="M59.2,33.5v2.8c0,0.5,0.1,0.8,0.2,1.1c-0.2,0.2-0.4,0.3-0.7,0.3c-0.4,0-0.6-0.2-0.6-0.7v-3.1
		c0-0.4-0.1-0.7-0.2-0.9c-0.1-0.2-0.3-0.3-0.6-0.3c-0.3,0-0.6,0.1-0.9,0.2c-0.3,0.1-0.5,0.3-0.8,0.6v4.2c-0.1,0-0.3,0-0.6,0
		s-0.4,0-0.6,0v-5.9l0.1-0.1H55c0.4,0,0.6,0.3,0.6,0.8c0.6-0.5,1.2-0.8,1.9-0.8c0.5,0,0.9,0.2,1.2,0.5C59.1,32.5,59.2,33,59.2,33.5z
		"/>
	<path fill="#A9D42D" d="M62.4,32.7v4.9c-0.1,0-0.3,0-0.6,0c-0.2,0-0.4,0-0.6,0v-4.5c0-0.2,0-0.4-0.1-0.5s-0.2-0.1-0.4-0.1h-0.1
		c0-0.1,0-0.3,0-0.4c0-0.2,0-0.3,0-0.4c0.3,0,0.5,0,0.7,0h0.2c0.3,0,0.5,0.1,0.7,0.3C62.3,32.1,62.4,32.4,62.4,32.7z M60.8,30.1
		c0-0.2,0-0.4,0.1-0.5c0.2-0.1,0.4-0.1,0.7-0.1c0.3,0,0.5,0,0.6,0.1c0.1,0.1,0.1,0.3,0.1,0.5c0,0.2,0,0.4-0.1,0.5
		c-0.1,0.1-0.3,0.1-0.6,0.1c-0.3,0-0.5,0-0.6-0.1C60.9,30.4,60.8,30.3,60.8,30.1z"/>
	<path fill="#A9D42D" d="M66,36.7l1.5-5c0.1,0,0.3,0,0.5,0s0.4,0,0.6,0.1l0,0c-0.8,2.6-1.4,4.5-1.9,5.8c-0.2,0-0.5,0.1-0.8,0.1
		s-0.5,0-0.6-0.1S65.1,37.3,65,37l-1.7-5.2c0.2-0.1,0.5-0.2,0.7-0.2c0.3,0,0.5,0.2,0.6,0.5l0.8,2.7c0.2,0.6,0.3,1.2,0.5,1.8
		C65.9,36.6,65.9,36.7,66,36.7z"/>
	<path fill="#A9D42D" d="M73.9,35h-3.6c0,0.6,0.1,1,0.4,1.3c0.2,0.3,0.6,0.5,1.1,0.5s1.1-0.2,1.7-0.5c0.2,0.2,0.3,0.4,0.4,0.8
		c-0.6,0.4-1.4,0.7-2.3,0.7c-0.9,0-1.5-0.3-1.9-0.9s-0.6-1.3-0.6-2.3s0.2-1.7,0.6-2.3c0.4-0.6,1-0.9,1.8-0.9c0.8,0,1.4,0.2,1.8,0.7
		c0.4,0.5,0.6,1.1,0.6,1.8C74,34.4,74,34.7,73.9,35z M72.6,32.9c-0.2-0.3-0.5-0.5-0.9-0.5s-0.7,0.2-0.9,0.5
		c-0.2,0.3-0.3,0.7-0.4,1.3h2.5V34C72.9,33.5,72.8,33.2,72.6,32.9z"/>
	<path fill="#A9D42D" d="M75.3,32.2c0.1-0.3,0.2-0.5,0.4-0.6c0.5,0.1,0.9,0.5,1,1.1c0.3-0.7,0.9-1.1,1.6-1.1c0.2,0,0.4,0,0.6,0.1
		c0,0.4-0.1,0.8-0.3,1.1c0,0-0.2,0-0.5,0c-0.6,0-1,0.3-1.3,0.9v3.9c-0.1,0-0.3,0-0.6,0s-0.4,0-0.6,0v-4.2
		C75.7,32.9,75.6,32.5,75.3,32.2z"/>
	<path fill="#A9D42D" d="M79.4,37.2c0-0.1,0-0.3,0.1-0.4s0.2-0.3,0.3-0.4c0.7,0.4,1.2,0.5,1.6,0.5c0.4,0,0.7-0.1,0.9-0.2
		c0.2-0.1,0.3-0.3,0.3-0.6c0-0.4-0.3-0.7-0.8-0.9L81.2,35c-1-0.4-1.5-0.9-1.5-1.7c0-0.5,0.2-1,0.6-1.3c0.4-0.3,0.9-0.5,1.6-0.5
		s1.3,0.1,1.9,0.4c0,0.2,0,0.3-0.1,0.5s-0.2,0.3-0.3,0.4c-0.6-0.3-1.1-0.4-1.6-0.4c-0.3,0-0.5,0.1-0.7,0.2c-0.2,0.1-0.3,0.3-0.3,0.5
		c0,0.2,0.1,0.4,0.2,0.5s0.3,0.2,0.6,0.3l0.7,0.3c1,0.4,1.5,1,1.5,1.8c0,0.5-0.2,1-0.6,1.3c-0.4,0.3-1,0.5-1.7,0.5
		S80.1,37.6,79.4,37.2z"/>
	<path fill="#A9D42D" d="M86.5,32.7v4.9c-0.1,0-0.3,0-0.6,0c-0.2,0-0.4,0-0.6,0v-4.5c0-0.2,0-0.4-0.1-0.5s-0.2-0.1-0.4-0.1h-0.1
		c0-0.1,0-0.3,0-0.4c0-0.2,0-0.3,0-0.4c0.3,0,0.5,0,0.7,0h0.2c0.3,0,0.5,0.1,0.7,0.3C86.5,32.1,86.5,32.4,86.5,32.7z M85,30.1
		c0-0.2,0-0.4,0.1-0.5c0.2-0.1,0.4-0.1,0.7-0.1c0.3,0,0.5,0,0.6,0.1c0.1,0.1,0.1,0.3,0.1,0.5c0,0.2,0,0.4-0.1,0.5
		c-0.1,0.1-0.3,0.1-0.6,0.1c-0.3,0-0.5,0-0.6-0.1C85.1,30.4,85,30.3,85,30.1z"/>
	<path fill="#A9D42D" d="M90.1,37.8c-0.7,0-1.2-0.3-1.5-0.8c-0.4-0.6-0.5-1.3-0.5-2.3c0-1,0.2-1.7,0.7-2.3c0.5-0.5,1-0.8,1.6-0.8
		c0.4,0,0.9,0.1,1.4,0.4v-3.1l0.1-0.1h0.4c0.2,0,0.4,0.1,0.5,0.2c0.1,0.1,0.1,0.3,0.1,0.6v6.4c0,0.6,0.1,1,0.3,1.2
		c-0.1,0.3-0.2,0.5-0.5,0.6c-0.4-0.1-0.7-0.3-0.9-0.8C91.4,37.5,90.8,37.8,90.1,37.8z M90.3,36.8c0.5,0,1-0.3,1.4-0.8v-3
		c-0.4-0.3-0.9-0.5-1.2-0.5s-0.7,0.2-0.9,0.6c-0.2,0.4-0.4,0.9-0.4,1.6c0,0.7,0.1,1.2,0.3,1.6S90,36.8,90.3,36.8z"/>
	<path fill="#A9D42D" d="M99.3,37.1c-0.1,0.3-0.2,0.5-0.5,0.6c-0.4-0.1-0.7-0.3-0.9-0.8c-0.6,0.6-1.2,0.8-1.8,0.8
		c-0.6,0-1.1-0.2-1.4-0.5c-0.3-0.4-0.5-0.8-0.5-1.2c0-0.7,0.2-1.1,0.6-1.5s1-0.5,1.7-0.5c0.4,0,0.8,0,1.2,0.1v-0.5
		c0-0.7-0.3-1.1-1-1.1c-0.5,0-1.2,0.2-1.9,0.5c-0.2-0.2-0.3-0.5-0.3-0.9c0.8-0.4,1.7-0.6,2.5-0.6c0.6,0,1.1,0.2,1.4,0.5
		c0.3,0.3,0.5,0.8,0.5,1.5V36C99,36.6,99.1,36.9,99.3,37.1z M96.4,36.8c0.5,0,1-0.3,1.5-0.8v-1.2c-0.3,0-0.7-0.1-1.1-0.1
		c-0.4,0-0.7,0.1-0.9,0.3c-0.2,0.2-0.3,0.4-0.3,0.7c0,0.3,0.1,0.5,0.2,0.7C95.9,36.8,96.1,36.8,96.4,36.8z"/>
	<path fill="#A9D42D" d="M102.4,37.8c-0.7,0-1.2-0.3-1.5-0.8c-0.4-0.6-0.5-1.3-0.5-2.3c0-1,0.2-1.7,0.7-2.3c0.5-0.5,1-0.8,1.6-0.8
		c0.4,0,0.9,0.1,1.4,0.4v-3.1l0.1-0.1h0.4c0.2,0,0.4,0.1,0.5,0.2c0.1,0.1,0.1,0.3,0.1,0.6v6.4c0,0.6,0.1,1,0.3,1.2
		c-0.1,0.3-0.2,0.5-0.5,0.6c-0.4-0.1-0.7-0.3-0.9-0.8C103.7,37.5,103.1,37.8,102.4,37.8z M102.7,36.8c0.5,0,1-0.3,1.4-0.8v-3
		c-0.4-0.3-0.9-0.5-1.2-0.5s-0.7,0.2-0.9,0.6c-0.2,0.4-0.4,0.9-0.4,1.6c0,0.7,0.1,1.2,0.3,1.6S102.3,36.8,102.7,36.8z"/>
	<path fill="#A9D42D" d="M111.5,35h-3.6c0,0.6,0.1,1,0.4,1.3c0.2,0.3,0.6,0.5,1.1,0.5s1.1-0.2,1.7-0.5c0.2,0.2,0.3,0.4,0.4,0.8
		c-0.6,0.4-1.4,0.7-2.3,0.7c-0.9,0-1.5-0.3-1.9-0.9s-0.6-1.3-0.6-2.3s0.2-1.7,0.6-2.3c0.4-0.6,1-0.9,1.8-0.9c0.8,0,1.4,0.2,1.8,0.7
		c0.4,0.5,0.6,1.1,0.6,1.8C111.6,34.4,111.5,34.7,111.5,35z M110.1,32.9c-0.2-0.3-0.5-0.5-0.9-0.5s-0.7,0.2-0.9,0.5
		c-0.2,0.3-0.3,0.7-0.4,1.3h2.5V34C110.4,33.5,110.3,33.2,110.1,32.9z"/>
	<path fill="#A9D42D" d="M112.8,32.2c0.1-0.3,0.2-0.5,0.4-0.6c0.5,0.1,0.9,0.5,1,1.1c0.3-0.7,0.9-1.1,1.6-1.1c0.2,0,0.4,0,0.6,0.1
		c0,0.4-0.1,0.8-0.3,1.1c0,0-0.2,0-0.5,0c-0.6,0-1,0.3-1.3,0.9v3.9c-0.1,0-0.3,0-0.6,0s-0.4,0-0.6,0v-4.2
		C113.2,32.9,113.1,32.5,112.8,32.2z"/>
	<path fill="#A9D42D" d="M121.4,32.2c0.6,0.6,0.8,1.4,0.8,2.5s-0.3,1.9-0.8,2.5c-0.4,0.4-1,0.7-1.7,0.7s-1.3-0.2-1.7-0.7
		c-0.6-0.6-0.8-1.4-0.8-2.5s0.3-1.9,0.8-2.5c0.4-0.4,1-0.7,1.7-0.7S121,31.8,121.4,32.2z M118.3,34.7c0,1.5,0.5,2.2,1.4,2.2
		s1.4-0.7,1.4-2.2c0-0.4,0-0.8-0.1-1.1c-0.1-0.3-0.2-0.6-0.4-0.8c-0.2-0.2-0.5-0.3-0.8-0.3s-0.6,0.1-0.8,0.3
		c-0.2,0.2-0.4,0.5-0.4,0.8C118.3,33.9,118.3,34.3,118.3,34.7z"/>
	<path fill="#A9D42D" d="M125.4,37.8c-0.7,0-1.2-0.3-1.5-0.8c-0.4-0.6-0.5-1.3-0.5-2.3c0-1,0.2-1.7,0.7-2.3c0.5-0.5,1-0.8,1.6-0.8
		c0.4,0,0.9,0.1,1.4,0.4v-3.1l0.1-0.1h0.4c0.2,0,0.4,0.1,0.5,0.2c0.1,0.1,0.1,0.3,0.1,0.6v6.4c0,0.6,0.1,1,0.3,1.2
		c-0.1,0.3-0.2,0.5-0.5,0.6c-0.4-0.1-0.7-0.3-0.9-0.8C126.7,37.5,126.1,37.8,125.4,37.8z M125.6,36.8c0.5,0,1-0.3,1.4-0.8v-3
		c-0.4-0.3-0.9-0.5-1.2-0.5s-0.7,0.2-0.9,0.6c-0.2,0.4-0.4,0.9-0.4,1.6c0,0.7,0.1,1.2,0.3,1.6S125.3,36.8,125.6,36.8z"/>
	<path fill="#A9D42D" d="M134,32.2c0.6,0.6,0.8,1.4,0.8,2.5s-0.3,1.9-0.8,2.5c-0.4,0.4-1,0.7-1.7,0.7s-1.3-0.2-1.7-0.7
		c-0.6-0.6-0.8-1.4-0.8-2.5s0.3-1.9,0.8-2.5c0.4-0.4,1-0.7,1.7-0.7S133.5,31.8,134,32.2z M130.9,34.7c0,1.5,0.5,2.2,1.4,2.2
		s1.4-0.7,1.4-2.2c0-0.4,0-0.8-0.1-1.1c-0.1-0.3-0.2-0.6-0.4-0.8c-0.2-0.2-0.5-0.3-0.8-0.3s-0.6,0.1-0.8,0.3
		c-0.2,0.2-0.4,0.5-0.4,0.8C130.9,33.9,130.9,34.3,130.9,34.7z"/>
	<path fill="#A9D42D" d="M139.1,31.6c0.6,0,1.1,0.3,1.5,0.8c0.4,0.5,0.5,1.3,0.5,2.2s-0.3,1.7-0.8,2.2s-1.1,0.8-1.9,0.8
		s-1.5-0.1-2.2-0.4v-8.4l0.1-0.1h0.4c0.2,0,0.4,0.1,0.5,0.2c0.1,0.1,0.1,0.3,0.1,0.6v2.7C138,31.8,138.5,31.6,139.1,31.6z
		 M138.8,32.6c-0.5,0-1,0.2-1.4,0.7v3.4c0.3,0.1,0.7,0.2,1.1,0.2s0.8-0.2,1-0.6c0.3-0.4,0.4-0.9,0.4-1.6c0-0.7-0.1-1.2-0.3-1.6
		S139.2,32.6,138.8,32.6z"/>
	<path fill="#A9D42D" d="M147,35h-3.6c0,0.6,0.1,1,0.4,1.3c0.2,0.3,0.6,0.5,1.1,0.5s1.1-0.2,1.7-0.5c0.2,0.2,0.3,0.4,0.4,0.8
		c-0.6,0.4-1.4,0.7-2.3,0.7c-0.9,0-1.5-0.3-1.9-0.9s-0.6-1.3-0.6-2.3s0.2-1.7,0.6-2.3c0.4-0.6,1-0.9,1.8-0.9c0.8,0,1.4,0.2,1.8,0.7
		c0.4,0.5,0.6,1.1,0.6,1.8C147.1,34.4,147.1,34.7,147,35z M145.7,32.9c-0.2-0.3-0.5-0.5-0.9-0.5s-0.7,0.2-0.9,0.5
		c-0.2,0.3-0.3,0.7-0.4,1.3h2.5V34C146,33.5,145.9,33.2,145.7,32.9z"/>
	<path fill="#A9D42D" d="M153.3,33.5v2.8c0,0.5,0.1,0.8,0.2,1.1c-0.2,0.2-0.4,0.3-0.7,0.3c-0.4,0-0.6-0.2-0.6-0.7v-3.1
		c0-0.4-0.1-0.7-0.2-0.9c-0.1-0.2-0.3-0.3-0.6-0.3c-0.3,0-0.6,0.1-0.9,0.2c-0.3,0.1-0.5,0.3-0.8,0.6v4.2c-0.1,0-0.3,0-0.6,0
		s-0.4,0-0.6,0v-5.9l0.1-0.1h0.4c0.4,0,0.6,0.3,0.6,0.8c0.6-0.5,1.2-0.8,1.9-0.8c0.5,0,0.9,0.2,1.2,0.5
		C153.2,32.5,153.3,33,153.3,33.5z"/>
	<path fill="#A9D42D" d="M154.6,37.2c0-0.1,0-0.3,0.1-0.4s0.2-0.3,0.3-0.4c0.7,0.4,1.2,0.5,1.6,0.5c0.4,0,0.7-0.1,0.9-0.2
		c0.2-0.1,0.3-0.3,0.3-0.6c0-0.4-0.3-0.7-0.8-0.9l-0.7-0.3c-1-0.4-1.5-0.9-1.5-1.7c0-0.5,0.2-1,0.6-1.3c0.4-0.3,0.9-0.5,1.6-0.5
		s1.3,0.1,1.9,0.4c0,0.2,0,0.3-0.1,0.5s-0.2,0.3-0.3,0.4c-0.6-0.3-1.1-0.4-1.6-0.4c-0.3,0-0.5,0.1-0.7,0.2c-0.2,0.1-0.3,0.3-0.3,0.5
		c0,0.2,0.1,0.4,0.2,0.5s0.3,0.2,0.6,0.3l0.7,0.3c1,0.4,1.5,1,1.5,1.8c0,0.5-0.2,1-0.6,1.3c-0.4,0.3-1,0.5-1.7,0.5
		S155.3,37.6,154.6,37.2z"/>
	<path fill="#A9D42D" d="M160.2,37c0-0.2,0-0.4,0.1-0.6c0.2-0.1,0.4-0.1,0.7-0.1c0.3,0,0.5,0,0.7,0.1c0.1,0.1,0.1,0.3,0.1,0.6
		s0,0.4-0.1,0.6c-0.2,0.1-0.4,0.1-0.7,0.1c-0.3,0-0.5,0-0.7-0.1C160.3,37.4,160.2,37.2,160.2,37z"/>
	<path fill="#A9D42D" d="M166.7,33.9c0,0,0-0.1,0-0.1c0-0.9-0.4-1.4-1.1-1.4c-0.4,0-0.7,0.2-0.9,0.6c-0.2,0.4-0.3,0.9-0.3,1.7
		c0,1.4,0.5,2.1,1.4,2.1c0.4,0,0.9-0.2,1.5-0.6c0.1,0.1,0.2,0.2,0.3,0.3c0.1,0.1,0.2,0.3,0.2,0.4c-0.6,0.6-1.3,0.9-2.1,0.9
		s-1.4-0.3-1.8-0.9c-0.4-0.6-0.6-1.4-0.6-2.3s0.2-1.7,0.7-2.2c0.5-0.5,1.1-0.8,1.8-0.8c0.7,0,1.2,0.2,1.6,0.6s0.6,0.8,0.6,1.2
		s-0.2,0.7-0.6,0.7C167,34,166.9,34,166.7,33.9z"/>
	<path fill="#A9D42D" d="M173.1,32.2c0.6,0.6,0.8,1.4,0.8,2.5s-0.3,1.9-0.8,2.5c-0.4,0.4-1,0.7-1.7,0.7s-1.3-0.2-1.7-0.7
		c-0.6-0.6-0.8-1.4-0.8-2.5s0.3-1.9,0.8-2.5c0.4-0.4,1-0.7,1.7-0.7S172.7,31.8,173.1,32.2z M170,34.7c0,1.5,0.5,2.2,1.4,2.2
		s1.4-0.7,1.4-2.2c0-0.4,0-0.8-0.1-1.1c-0.1-0.3-0.2-0.6-0.4-0.8c-0.2-0.2-0.5-0.3-0.8-0.3s-0.6,0.1-0.8,0.3
		c-0.2,0.2-0.4,0.5-0.4,0.8C170.1,33.9,170,34.3,170,34.7z"/>
	<path fill="#A9D42D" d="M178.7,33.8c0-0.4-0.1-0.7-0.2-0.9c-0.1-0.2-0.3-0.3-0.6-0.3c-0.5,0-0.9,0.3-1.4,0.8v4.2
		c-0.1,0-0.3,0-0.6,0s-0.4,0-0.6,0v-5.9l0.1-0.1h0.4c0.4,0,0.6,0.3,0.6,0.8c0.5-0.5,1.1-0.8,1.7-0.8s1.1,0.3,1.3,0.9
		c0.6-0.6,1.3-0.9,1.9-0.9c0.5,0,0.9,0.2,1.1,0.5c0.3,0.4,0.4,0.8,0.4,1.3v2.9c0,0.5,0.1,0.8,0.2,1.1c-0.2,0.2-0.4,0.3-0.7,0.3
		c-0.4,0-0.6-0.2-0.6-0.7v-3.1c0-0.4-0.1-0.7-0.2-0.9c-0.1-0.2-0.3-0.3-0.6-0.3c-0.5,0-0.9,0.3-1.4,0.8v4.2c-0.1,0-0.3,0-0.6,0
		s-0.4,0-0.6,0V33.8z"/>
	<path fill="#A9D42D" d="M184.8,37c0-0.2,0-0.4,0.1-0.6c0.2-0.1,0.4-0.1,0.7-0.1c0.3,0,0.5,0,0.7,0.1c0.1,0.1,0.1,0.3,0.1,0.6
		s0,0.4-0.1,0.6c-0.2,0.1-0.4,0.1-0.7,0.1c-0.3,0-0.5,0-0.7-0.1C184.8,37.4,184.8,37.2,184.8,37z"/>
	<path fill="#A9D42D" d="M191,31.6c0.6,0,1.1,0.3,1.5,0.8c0.4,0.5,0.5,1.3,0.5,2.2s-0.3,1.7-0.8,2.2s-1.1,0.8-1.9,0.8
		s-1.5-0.1-2.2-0.4v-8.4l0.1-0.1h0.4c0.2,0,0.4,0.1,0.5,0.2c0.1,0.1,0.1,0.3,0.1,0.6v2.7C189.8,31.8,190.3,31.6,191,31.6z
		 M190.7,32.6c-0.5,0-1,0.2-1.4,0.7v3.4c0.3,0.1,0.7,0.2,1.1,0.2s0.8-0.2,1-0.6c0.3-0.4,0.4-0.9,0.4-1.6c0-0.7-0.1-1.2-0.3-1.6
		S191,32.6,190.7,32.6z"/>
	<path fill="#A9D42D" d="M194.1,32.2c0.1-0.3,0.2-0.5,0.4-0.6c0.5,0.1,0.9,0.5,1,1.1c0.3-0.7,0.9-1.1,1.6-1.1c0.2,0,0.4,0,0.6,0.1
		c0,0.4-0.1,0.8-0.3,1.1c0,0-0.2,0-0.5,0c-0.6,0-1,0.3-1.3,0.9v3.9c-0.1,0-0.3,0-0.6,0s-0.4,0-0.6,0v-4.2
		C194.6,32.9,194.4,32.5,194.1,32.2z"/>
</g>
</svg>