<!-- Generator: Adobe Illustrator 17.1.0, SVG Export Plug-In  -->
<svg version="1.1"
	 xmlns="http://www.w3.org/2000/svg" xmlns:xlink="http://www.w3.org/1999/xlink" xmlns:a="http://ns.adobe.com/AdobeSVGViewerExtensions/3.0/"
	 x="0px" y="0px" width="168.3px" height="26.8px" viewBox="0 0 168.3 26.8" enable-background="new 0 0 168.3 26.8"
	 xml:space="preserve">
<defs>
</defs>
<g>
	<path fill="#A9D42D" d="M5.3,4.1c0,0,0-0.1,0-0.1c0-0.5-0.1-1-0.4-1.4C4.6,2.2,4.2,2,3.6,2C2.4,2,1.7,3.1,1.7,5.4
		c0,1,0.2,1.8,0.5,2.3c0.4,0.5,0.9,0.8,1.5,0.8c0.7,0,1.4-0.3,2.2-1C6.2,7.7,6.4,7.8,6.5,8c0.2,0.2,0.3,0.4,0.3,0.6
		C6.4,9,5.9,9.3,5.3,9.6C4.7,9.8,4.1,9.9,3.5,9.9S2.3,9.8,1.8,9.6C1.4,9.3,1,8.9,0.8,8.5C0.3,7.6,0,6.6,0,5.4c0-1.5,0.3-2.7,1-3.5
		c0.7-0.8,1.5-1.2,2.5-1.2c1,0,1.8,0.3,2.4,0.8C6.6,2,6.9,2.6,6.9,3.3c0,0.6-0.3,0.9-0.9,0.9C5.7,4.2,5.5,4.2,5.3,4.1z"/>
	<path fill="#A9D42D" d="M10.3,8.6h0.4c0.1,0.3,0.1,0.5,0.1,0.7s0,0.4,0,0.5c-0.5,0.1-0.9,0.1-1.2,0.1c-0.9,0-1.4-0.5-1.4-1.5v-8
		l0.1-0.1h0.6c0.3,0,0.5,0.1,0.7,0.2c0.1,0.2,0.2,0.4,0.2,0.8V8C9.8,8.4,10,8.6,10.3,8.6z"/>
	<path fill="#A9D42D" d="M14,4.6v5.2c-0.2,0-0.5,0.1-0.8,0.1s-0.6,0-0.8-0.1V5.2c0-0.5-0.2-0.7-0.6-0.7h-0.2c0-0.1-0.1-0.3-0.1-0.6
		c0-0.2,0-0.4,0.1-0.6c0.3,0,0.6-0.1,0.9-0.1h0.2c0.4,0,0.7,0.1,0.9,0.4C13.9,3.9,14,4.2,14,4.6z M12.1,2.1C12,1.9,12,1.7,12,1.5
		s0-0.4,0.1-0.6c0.2-0.1,0.5-0.2,0.8-0.2c0.3,0,0.6,0.1,0.8,0.2c0.1,0.2,0.1,0.4,0.1,0.6s0,0.4-0.1,0.6c-0.2,0.1-0.5,0.2-0.8,0.2
		C12.5,2.3,12.3,2.3,12.1,2.1z"/>
	<path fill="#A9D42D" d="M19.3,11.6V9.3c-0.5,0.4-1,0.6-1.6,0.6c-0.8,0-1.3-0.3-1.7-0.9c-0.4-0.6-0.6-1.4-0.6-2.5
		c0-1.1,0.2-1.9,0.7-2.5c0.5-0.6,1.1-0.9,1.8-0.9c0.7,0,1.3,0.2,1.8,0.6c0.3-0.3,0.6-0.5,1-0.5c0.1,0.1,0.2,0.2,0.3,0.4
		s0.2,0.3,0.2,0.5c-0.2,0.2-0.4,0.6-0.4,1.1v7.3l-0.1,0.1h-0.6c-0.3,0-0.5-0.1-0.7-0.2C19.4,12.2,19.3,11.9,19.3,11.6z M18.1,8.6
		c0.5,0,0.9-0.2,1.2-0.6v-3c-0.4-0.3-0.8-0.5-1.1-0.5c-0.4,0-0.6,0.2-0.8,0.6C17.1,5.3,17,5.8,17,6.5s0.1,1.2,0.3,1.5
		C17.5,8.4,17.8,8.6,18.1,8.6z"/>
	<path fill="#A9D42D" d="M22.7,7.7V4.8c0-0.5-0.1-0.9-0.2-1.2c0.3-0.2,0.6-0.4,0.9-0.4c0.4,0,0.6,0.1,0.7,0.2
		c0.1,0.2,0.2,0.4,0.2,0.8v3.1c0,0.4,0.1,0.7,0.2,0.9c0.1,0.2,0.3,0.3,0.6,0.3c0.5,0,0.9-0.2,1.4-0.6V3.3c0.2,0,0.5-0.1,0.8-0.1
		c0.3,0,0.6,0,0.8,0.1v4.6c0,0.6,0.1,0.9,0.4,1.1c-0.1,0.3-0.3,0.6-0.5,0.8c-0.6-0.1-1-0.4-1.3-0.9c-0.7,0.6-1.4,0.9-2.1,0.9
		c-0.6,0-1-0.2-1.3-0.6C22.8,8.9,22.7,8.3,22.7,7.7z"/>
	<path fill="#A9D42D" d="M34.7,7.1h-3.6c0,0.5,0.1,0.9,0.3,1.2c0.2,0.3,0.6,0.4,1.1,0.4c0.5,0,1.1-0.2,1.7-0.5
		c0.2,0.2,0.4,0.6,0.5,1c-0.7,0.5-1.5,0.7-2.5,0.7c-1,0-1.7-0.3-2.1-0.9c-0.4-0.6-0.6-1.5-0.6-2.5c0-1,0.2-1.8,0.7-2.5
		s1.1-0.9,2-0.9s1.5,0.3,2,0.8c0.5,0.5,0.7,1.2,0.7,2C34.9,6.3,34.8,6.7,34.7,7.1z M32.2,4.3c-0.7,0-1.1,0.5-1.1,1.6h2.3V5.8
		c0-0.4-0.1-0.8-0.3-1.1C32.9,4.4,32.6,4.3,32.2,4.3z"/>
	<path fill="#A9D42D" d="M44.5,5.4v2.9c0,0.5,0.1,0.9,0.3,1.2c-0.3,0.2-0.6,0.3-1,0.3c-0.4,0-0.6-0.1-0.7-0.2
		c-0.1-0.2-0.2-0.4-0.2-0.8V5.7c0-0.4-0.1-0.7-0.2-0.8c-0.1-0.2-0.3-0.3-0.6-0.3c-0.5,0-0.9,0.2-1.4,0.7v4.5c-0.2,0-0.5,0.1-0.8,0.1
		s-0.6,0-0.8-0.1V3.3l0.1-0.1h0.6c0.5,0,0.8,0.3,0.9,0.8c0.6-0.6,1.3-0.8,1.9-0.8c0.6,0,1.1,0.2,1.4,0.6S44.5,4.7,44.5,5.4z"/>
	<path fill="#A9D42D" d="M51.6,6.5c0,1.2-0.3,2-0.9,2.7c-0.5,0.5-1.1,0.7-2,0.7c-0.8,0-1.5-0.2-2-0.7c-0.6-0.6-0.9-1.5-0.9-2.7
		c0-1.2,0.3-2,0.9-2.7c0.5-0.5,1.1-0.7,2-0.7c0.8,0,1.5,0.2,2,0.7C51.3,4.5,51.6,5.4,51.6,6.5z M48.8,4.4c-0.8,0-1.2,0.7-1.2,2.2
		s0.4,2.2,1.2,2.2C49.6,8.7,50,8,50,6.5S49.6,4.4,48.8,4.4z"/>
	<path fill="#A9D42D" d="M57.7,4.6v5.2c-0.2,0-0.5,0.1-0.8,0.1s-0.6,0-0.8-0.1V5.2c0-0.5-0.2-0.7-0.6-0.7h-0.2
		c0-0.1-0.1-0.3-0.1-0.6c0-0.2,0-0.4,0.1-0.6c0.3,0,0.6-0.1,0.9-0.1h0.2c0.4,0,0.7,0.1,0.9,0.4C57.6,3.9,57.7,4.2,57.7,4.6z
		 M55.6,2.1L57.5,0c0.2,0.1,0.4,0.2,0.6,0.4c0.2,0.2,0.3,0.4,0.4,0.6l-2.3,1.8C55.9,2.7,55.7,2.4,55.6,2.1z"/>
	<path fill="#A9D42D" d="M62.9,6c0-0.1,0-0.1,0-0.2c0-0.4-0.1-0.8-0.2-1c-0.1-0.3-0.4-0.4-0.8-0.4c-0.7,0-1.1,0.7-1.1,2.2
		c0,1.4,0.4,2.2,1.3,2.2c0.5,0,1-0.2,1.5-0.6c0.1,0.1,0.3,0.2,0.4,0.4c0.1,0.2,0.2,0.4,0.2,0.5c-0.7,0.7-1.4,1-2.4,1
		c-0.9,0-1.6-0.3-2.1-0.9s-0.7-1.5-0.7-2.5c0-1.1,0.3-1.9,0.8-2.5c0.5-0.6,1.2-0.9,2-0.9s1.3,0.2,1.8,0.6s0.7,0.9,0.7,1.4
		c0,0.6-0.3,0.8-0.8,0.8C63.3,6,63.1,6,62.9,6z"/>
	<path fill="#A9D42D" d="M71,6.5c0,1.2-0.3,2-0.9,2.7c-0.5,0.5-1.1,0.7-2,0.7c-0.8,0-1.5-0.2-2-0.7c-0.6-0.6-0.9-1.5-0.9-2.7
		c0-1.2,0.3-2,0.9-2.7c0.5-0.5,1.1-0.7,2-0.7c0.8,0,1.5,0.2,2,0.7C70.7,4.5,71,5.4,71,6.5z M68.1,4.4c-0.8,0-1.2,0.7-1.2,2.2
		s0.4,2.2,1.2,2.2c0.8,0,1.2-0.7,1.2-2.2S69,4.4,68.1,4.4z"/>
	<path fill="#A9D42D" d="M77.8,5.4v2.9c0,0.5,0.1,0.9,0.3,1.2c-0.3,0.2-0.6,0.3-1,0.3c-0.4,0-0.6-0.1-0.7-0.2
		c-0.1-0.2-0.2-0.4-0.2-0.8V5.7c0-0.4-0.1-0.7-0.2-0.8c-0.1-0.2-0.3-0.3-0.6-0.3c-0.5,0-0.9,0.2-1.4,0.7v4.5c-0.2,0-0.5,0.1-0.8,0.1
		s-0.6,0-0.8-0.1V3.3l0.1-0.1h0.6c0.5,0,0.8,0.3,0.9,0.8c0.6-0.6,1.3-0.8,1.9-0.8c0.6,0,1.1,0.2,1.4,0.6S77.8,4.7,77.8,5.4z"/>
	<path fill="#A9D42D" d="M84.4,7.1h-3.6c0,0.5,0.1,0.9,0.3,1.2c0.2,0.3,0.6,0.4,1.1,0.4c0.5,0,1.1-0.2,1.7-0.5
		c0.2,0.2,0.4,0.6,0.5,1c-0.7,0.5-1.5,0.7-2.5,0.7c-1,0-1.7-0.3-2.1-0.9c-0.4-0.6-0.6-1.5-0.6-2.5c0-1,0.2-1.8,0.7-2.5
		s1.1-0.9,2-0.9s1.5,0.3,2,0.8c0.5,0.5,0.7,1.2,0.7,2C84.5,6.3,84.5,6.7,84.4,7.1z M81.9,4.3c-0.7,0-1.1,0.5-1.1,1.6H83V5.8
		c0-0.4-0.1-0.8-0.3-1.1C82.6,4.4,82.3,4.3,81.9,4.3z"/>
	<path fill="#A9D42D" d="M94.1,9c0,0.1-0.1,0.3-0.2,0.5s-0.2,0.3-0.3,0.4c-0.5-0.1-0.9-0.3-1.2-0.8c-0.6,0.6-1.2,0.8-1.9,0.8
		S89.3,9.8,89,9.4C88.6,9,88.5,8.5,88.5,8c0-0.7,0.2-1.3,0.7-1.6C89.6,6,90.2,5.8,91,5.8c0.4,0,0.8,0,1.1,0.1V5.5c0-0.7-0.3-1-1-1
		c-0.5,0-1.1,0.2-2,0.5c-0.3-0.3-0.4-0.7-0.4-1.2c0.9-0.4,1.9-0.6,2.8-0.6c0.7,0,1.2,0.2,1.6,0.5s0.6,0.9,0.6,1.7V8
		C93.7,8.5,93.8,8.8,94.1,9z M90.8,8.7c0.5,0,0.9-0.2,1.3-0.6V6.9c-0.3,0-0.6-0.1-1-0.1S90.5,7,90.3,7.1C90.1,7.3,90,7.6,90,7.8
		s0.1,0.5,0.2,0.6S90.6,8.7,90.8,8.7z"/>
	<path fill="#A9D42D" d="M98.7,6c0-0.1,0-0.1,0-0.2c0-0.4-0.1-0.8-0.2-1c-0.1-0.3-0.4-0.4-0.8-0.4c-0.7,0-1.1,0.7-1.1,2.2
		c0,1.4,0.4,2.2,1.3,2.2c0.5,0,1-0.2,1.5-0.6c0.1,0.1,0.3,0.2,0.4,0.4c0.1,0.2,0.2,0.4,0.2,0.5c-0.7,0.7-1.4,1-2.4,1
		c-0.9,0-1.6-0.3-2.1-0.9s-0.7-1.5-0.7-2.5c0-1.1,0.3-1.9,0.8-2.5c0.5-0.6,1.2-0.9,2-0.9s1.3,0.2,1.8,0.6s0.7,0.9,0.7,1.4
		c0,0.6-0.3,0.8-0.8,0.8C99.1,6,98.9,6,98.7,6z"/>
	<path fill="#A9D42D" d="M103.4,4.6v5.2c-0.2,0-0.5,0.1-0.8,0.1s-0.6,0-0.8-0.1V5.2c0-0.5-0.2-0.7-0.6-0.7h-0.2
		c0-0.1-0.1-0.3-0.1-0.6c0-0.2,0-0.4,0.1-0.6c0.3,0,0.6-0.1,0.9-0.1h0.2c0.4,0,0.7,0.1,0.9,0.4C103.3,3.9,103.4,4.2,103.4,4.6z
		 M101.6,2.1c-0.1-0.2-0.1-0.4-0.1-0.6s0-0.4,0.1-0.6c0.2-0.1,0.5-0.2,0.8-0.2c0.3,0,0.6,0.1,0.8,0.2c0.1,0.2,0.1,0.4,0.1,0.6
		s0,0.4-0.1,0.6c-0.2,0.1-0.5,0.2-0.8,0.2C102,2.3,101.7,2.3,101.6,2.1z"/>
	<path fill="#A9D42D" d="M108.8,5.8c0-0.7-0.2-1.1-0.7-1.1c-0.4,0-0.8,0.2-1.2,0.7v4.5c-0.2,0-0.5,0.1-0.8,0.1s-0.6,0-0.8-0.1V3.3
		l0.1-0.1h0.6c0.5,0,0.8,0.3,0.9,0.8c0.6-0.6,1.2-0.9,1.9-0.9s1.1,0.3,1.4,0.9c0.7-0.6,1.3-0.9,2-0.9c0.5,0,1,0.2,1.3,0.6
		c0.3,0.4,0.4,0.9,0.4,1.5v3c0,0.5,0.1,0.9,0.3,1.2c-0.3,0.2-0.6,0.3-0.9,0.3s-0.6-0.1-0.7-0.2c-0.1-0.2-0.2-0.4-0.2-0.8V5.7
		c0-0.7-0.2-1.1-0.7-1.1c-0.4,0-0.8,0.2-1.2,0.7v4.4c-0.2,0-0.5,0.1-0.8,0.1s-0.6,0-0.8-0.1V5.8z"/>
	<path fill="#A9D42D" d="M120.9,9c0,0.1-0.1,0.3-0.2,0.5s-0.2,0.3-0.3,0.4c-0.5-0.1-0.9-0.3-1.2-0.8c-0.6,0.6-1.2,0.8-1.9,0.8
		s-1.2-0.2-1.5-0.6c-0.3-0.4-0.5-0.8-0.5-1.4c0-0.7,0.2-1.3,0.7-1.6c0.5-0.4,1.1-0.6,1.8-0.6c0.4,0,0.8,0,1.1,0.1V5.5
		c0-0.7-0.3-1-1-1c-0.5,0-1.1,0.2-2,0.5c-0.3-0.3-0.4-0.7-0.4-1.2c0.9-0.4,1.9-0.6,2.8-0.6c0.7,0,1.2,0.2,1.6,0.5s0.6,0.9,0.6,1.7V8
		C120.5,8.5,120.6,8.8,120.9,9z M117.6,8.7c0.5,0,0.9-0.2,1.3-0.6V6.9c-0.3,0-0.6-0.1-1-0.1s-0.6,0.1-0.8,0.3
		c-0.2,0.2-0.3,0.4-0.3,0.7s0.1,0.5,0.2,0.6S117.4,8.7,117.6,8.7z"/>
	<path fill="#FFFFFF" d="M129.6,7.2H126c0,0.6,0.1,1,0.4,1.3c0.2,0.3,0.6,0.5,1.1,0.5s1.1-0.2,1.7-0.5c0.2,0.2,0.3,0.4,0.4,0.8
		c-0.6,0.4-1.4,0.7-2.3,0.7c-0.9,0-1.5-0.3-1.9-0.9s-0.6-1.3-0.6-2.3s0.2-1.7,0.6-2.3c0.4-0.6,1-0.9,1.8-0.9c0.8,0,1.4,0.2,1.8,0.7
		c0.4,0.5,0.6,1.1,0.6,1.8C129.7,6.6,129.6,6.9,129.6,7.2z M128.2,5c-0.2-0.3-0.5-0.5-0.9-0.5s-0.7,0.2-0.9,0.5
		c-0.2,0.3-0.3,0.7-0.4,1.3h2.5V6.2C128.5,5.7,128.4,5.3,128.2,5z"/>
	<path fill="#FFFFFF" d="M136.7,3.8c0.6,0,1.1,0.3,1.5,0.8c0.4,0.5,0.5,1.3,0.5,2.2s-0.3,1.7-0.8,2.2s-1.1,0.8-1.9,0.8
		s-1.5-0.1-2.2-0.4V1l0.1-0.1h0.4c0.2,0,0.4,0.1,0.5,0.2c0.1,0.1,0.1,0.3,0.1,0.6v2.7C135.5,4,136,3.8,136.7,3.8z M136.4,4.7
		c-0.5,0-1,0.2-1.4,0.7v3.4c0.3,0.1,0.7,0.2,1.1,0.2s0.8-0.2,1-0.6c0.3-0.4,0.4-0.9,0.4-1.6c0-0.7-0.1-1.2-0.3-1.6
		S136.7,4.7,136.4,4.7z"/>
	<path fill="#FFFFFF" d="M144.7,9.2c-0.1,0.3-0.2,0.5-0.5,0.6c-0.4-0.1-0.7-0.3-0.9-0.8c-0.6,0.6-1.2,0.8-1.8,0.8
		c-0.6,0-1.1-0.2-1.4-0.5c-0.3-0.4-0.5-0.8-0.5-1.2c0-0.7,0.2-1.1,0.6-1.5s1-0.5,1.7-0.5c0.4,0,0.8,0,1.2,0.1V5.8
		c0-0.7-0.3-1.1-1-1.1c-0.5,0-1.2,0.2-1.9,0.5c-0.2-0.2-0.3-0.5-0.3-0.9c0.8-0.4,1.7-0.6,2.5-0.6c0.6,0,1.1,0.2,1.4,0.5
		c0.3,0.3,0.5,0.8,0.5,1.5v2.5C144.4,8.7,144.5,9.1,144.7,9.2z M141.8,9c0.5,0,1-0.3,1.5-0.8V7.1c-0.3,0-0.7-0.1-1.1-0.1
		c-0.4,0-0.7,0.1-0.9,0.3c-0.2,0.2-0.3,0.4-0.3,0.7c0,0.3,0.1,0.5,0.2,0.7C141.3,8.9,141.5,9,141.8,9z"/>
	<path fill="#FFFFFF" d="M147.6,4.8v4.9c-0.1,0-0.3,0-0.6,0c-0.2,0-0.4,0-0.6,0V5.3c0-0.2,0-0.4-0.1-0.5s-0.2-0.1-0.4-0.1h-0.1
		c0-0.1,0-0.3,0-0.4c0-0.2,0-0.3,0-0.4c0.3,0,0.5,0,0.7,0h0.2c0.3,0,0.5,0.1,0.7,0.3C147.5,4.3,147.6,4.5,147.6,4.8z M146,2.2
		c0-0.2,0-0.4,0.1-0.5c0.2-0.1,0.4-0.1,0.7-0.1c0.3,0,0.5,0,0.6,0.1c0.1,0.1,0.1,0.3,0.1,0.5c0,0.2,0,0.4-0.1,0.5
		c-0.1,0.1-0.3,0.1-0.6,0.1c-0.3,0-0.5,0-0.6-0.1C146.1,2.6,146,2.4,146,2.2z"/>
	<path fill="#FFFFFF" d="M152.4,3.8c0.1,0,0.3,0,0.5,0s0.4,0,0.5,0.1l0,0.1l-1.7,2.7l1.9,3c-0.3,0.2-0.6,0.3-0.8,0.3
		s-0.4-0.1-0.6-0.4l-1.2-1.9l-1.3,2.2c-0.1,0-0.3,0-0.5,0c-0.2,0-0.4,0-0.6-0.1l0-0.1l1.9-3L148.8,4c0.3-0.2,0.5-0.3,0.8-0.3
		s0.5,0.1,0.6,0.3l1.1,1.6L152.4,3.8z"/>
	<path fill="#FFFFFF" d="M159.2,7.2h-3.6c0,0.6,0.1,1,0.4,1.3c0.2,0.3,0.6,0.5,1.1,0.5s1.1-0.2,1.7-0.5c0.2,0.2,0.3,0.4,0.4,0.8
		c-0.6,0.4-1.4,0.7-2.3,0.7c-0.9,0-1.5-0.3-1.9-0.9s-0.6-1.3-0.6-2.3s0.2-1.7,0.6-2.3c0.4-0.6,1-0.9,1.8-0.9c0.8,0,1.4,0.2,1.8,0.7
		c0.4,0.5,0.6,1.1,0.6,1.8C159.3,6.6,159.3,6.9,159.2,7.2z M157.9,5c-0.2-0.3-0.5-0.5-0.9-0.5S156.3,4.7,156,5
		c-0.2,0.3-0.3,0.7-0.4,1.3h2.5V6.2C158.2,5.7,158.1,5.3,157.9,5z"/>
	<path fill="#FFFFFF" d="M167.4,4.4c0.6,0.6,0.8,1.4,0.8,2.5s-0.3,1.9-0.8,2.5c-0.4,0.4-1,0.7-1.7,0.7s-1.3-0.2-1.7-0.7
		c-0.6-0.6-0.8-1.4-0.8-2.5s0.3-1.9,0.8-2.5c0.4-0.4,1-0.7,1.7-0.7S167,3.9,167.4,4.4z M164.3,6.8c0,1.5,0.5,2.2,1.4,2.2
		s1.4-0.7,1.4-2.2c0-0.4,0-0.8-0.1-1.1c-0.1-0.3-0.2-0.6-0.4-0.8c-0.2-0.2-0.5-0.3-0.8-0.3s-0.6,0.1-0.8,0.3
		c-0.2,0.2-0.4,0.5-0.4,0.8C164.4,6,164.3,6.4,164.3,6.8z"/>
	<path fill="#FFFFFF" d="M17,18.1c0.7,0,1.2,0.3,1.5,0.8c0.4,0.6,0.5,1.3,0.5,2.3s-0.2,1.7-0.7,2.3s-1,0.8-1.6,0.8
		c-0.5,0-1-0.1-1.4-0.4V26c0,0.3,0,0.5-0.1,0.6c-0.1,0.1-0.3,0.2-0.5,0.2h-0.4l-0.1-0.1v-8.4l0.1-0.1h0.4c0.4,0,0.6,0.2,0.7,0.6
		C15.8,18.3,16.4,18.1,17,18.1z M16.8,19.1c-0.6,0-1,0.3-1.4,0.8v3c0.4,0.3,0.9,0.5,1.2,0.5s0.7-0.2,0.9-0.6
		c0.2-0.4,0.4-0.9,0.4-1.6s-0.1-1.2-0.3-1.6S17.1,19.1,16.8,19.1z"/>
	<path fill="#FFFFFF" d="M20.2,18.8c0.1-0.3,0.2-0.5,0.4-0.6c0.5,0.1,0.9,0.5,1,1.1c0.3-0.7,0.9-1.1,1.6-1.1c0.2,0,0.4,0,0.6,0.1
		c0,0.4-0.1,0.8-0.3,1.1c0,0-0.2,0-0.5,0c-0.6,0-1,0.3-1.3,0.9v3.9c-0.1,0-0.3,0-0.6,0s-0.4,0-0.6,0V20
		C20.7,19.5,20.5,19.1,20.2,18.8z"/>
	<path fill="#FFFFFF" d="M28.8,18.8c0.6,0.6,0.8,1.4,0.8,2.5s-0.3,1.9-0.8,2.5c-0.4,0.4-1,0.7-1.7,0.7s-1.3-0.2-1.7-0.7
		c-0.6-0.6-0.8-1.4-0.8-2.5s0.3-1.9,0.8-2.5c0.4-0.4,1-0.7,1.7-0.7S28.4,18.3,28.8,18.8z M25.7,21.2c0,1.5,0.5,2.2,1.4,2.2
		s1.4-0.7,1.4-2.2c0-0.4,0-0.8-0.1-1.1c-0.1-0.3-0.2-0.6-0.4-0.8c-0.2-0.2-0.5-0.3-0.8-0.3s-0.6,0.1-0.8,0.3
		c-0.2,0.2-0.4,0.5-0.4,0.8C25.8,20.4,25.7,20.8,25.7,21.2z"/>
	<path fill="#FFFFFF" d="M32.8,24.3c-0.6,0-1.1-0.3-1.5-0.8c-0.4-0.5-0.5-1.3-0.5-2.3s0.2-1.7,0.7-2.3c0.5-0.5,1-0.8,1.6-0.8
		s1.2,0.2,1.7,0.6c0.2-0.3,0.4-0.5,0.8-0.6c0.2,0.1,0.4,0.3,0.5,0.6c-0.2,0.2-0.3,0.6-0.3,1.2v3.6c0,1.2-0.2,2-0.6,2.5
		c-0.4,0.5-1.1,0.8-2,0.8c-0.7,0-1.4-0.1-2.1-0.4c0-0.4,0.1-0.7,0.3-0.9c0.5,0.3,1.1,0.4,1.6,0.4s1-0.2,1.2-0.5
		c0.2-0.3,0.3-0.7,0.3-1.3v-0.6C34,24,33.4,24.3,32.8,24.3z M34.5,22.5v-2.9c-0.4-0.4-0.8-0.6-1.2-0.6c-0.4,0-0.7,0.2-1,0.6
		C32.1,20,32,20.5,32,21.2s0.1,1.2,0.3,1.6s0.5,0.5,0.8,0.5C33.6,23.3,34.1,23,34.5,22.5z"/>
	<path fill="#FFFFFF" d="M37.2,18.8c0.1-0.3,0.2-0.5,0.4-0.6c0.5,0.1,0.9,0.5,1,1.1c0.3-0.7,0.9-1.1,1.6-1.1c0.2,0,0.4,0,0.6,0.1
		c0,0.4-0.1,0.8-0.3,1.1c0,0-0.2,0-0.5,0c-0.6,0-1,0.3-1.3,0.9v3.9c-0.1,0-0.3,0-0.6,0s-0.4,0-0.6,0V20
		C37.6,19.5,37.5,19.1,37.2,18.8z"/>
	<path fill="#FFFFFF" d="M46.3,23.6c-0.1,0.3-0.2,0.5-0.5,0.6c-0.4-0.1-0.7-0.3-0.9-0.8c-0.6,0.6-1.2,0.8-1.8,0.8
		c-0.6,0-1.1-0.2-1.4-0.5c-0.3-0.4-0.5-0.8-0.5-1.2c0-0.7,0.2-1.1,0.6-1.5s1-0.5,1.7-0.5c0.4,0,0.8,0,1.2,0.1v-0.5
		c0-0.7-0.3-1.1-1-1.1c-0.5,0-1.2,0.2-1.9,0.5c-0.2-0.2-0.3-0.5-0.3-0.9c0.8-0.4,1.7-0.6,2.5-0.6c0.6,0,1.1,0.2,1.4,0.5
		c0.3,0.3,0.5,0.8,0.5,1.5v2.5C46,23.1,46.1,23.5,46.3,23.6z M43.4,23.4c0.5,0,1-0.3,1.5-0.8v-1.2c-0.3,0-0.7-0.1-1.1-0.1
		c-0.4,0-0.7,0.1-0.9,0.3c-0.2,0.2-0.3,0.4-0.3,0.7c0,0.3,0.1,0.5,0.2,0.7C42.9,23.3,43.1,23.4,43.4,23.4z"/>
	<path fill="#FFFFFF" d="M51.1,20.4c0-0.4-0.1-0.7-0.2-0.9c-0.1-0.2-0.3-0.3-0.6-0.3c-0.5,0-0.9,0.3-1.4,0.8v4.2c-0.1,0-0.3,0-0.6,0
		s-0.4,0-0.6,0v-5.9l0.1-0.1h0.4c0.4,0,0.6,0.3,0.6,0.8c0.5-0.5,1.1-0.8,1.7-0.8s1.1,0.3,1.3,0.9c0.6-0.6,1.3-0.9,1.9-0.9
		c0.5,0,0.9,0.2,1.1,0.5c0.3,0.4,0.4,0.8,0.4,1.3v2.9c0,0.5,0.1,0.8,0.2,1.1c-0.2,0.2-0.4,0.3-0.7,0.3c-0.4,0-0.6-0.2-0.6-0.7v-3.1
		c0-0.4-0.1-0.7-0.2-0.9c-0.1-0.2-0.3-0.3-0.6-0.3c-0.5,0-0.9,0.3-1.4,0.8v4.2c-0.1,0-0.3,0-0.6,0s-0.4,0-0.6,0V20.4z"/>
	<path fill="#FFFFFF" d="M62,23.6c-0.1,0.3-0.2,0.5-0.5,0.6c-0.4-0.1-0.7-0.3-0.9-0.8c-0.6,0.6-1.2,0.8-1.8,0.8
		c-0.6,0-1.1-0.2-1.4-0.5C57.2,23.4,57,23,57,22.6c0-0.7,0.2-1.1,0.6-1.5s1-0.5,1.7-0.5c0.4,0,0.8,0,1.2,0.1v-0.5
		c0-0.7-0.3-1.1-1-1.1c-0.5,0-1.2,0.2-1.9,0.5c-0.2-0.2-0.3-0.5-0.3-0.9c0.8-0.4,1.7-0.6,2.5-0.6c0.6,0,1.1,0.2,1.4,0.5
		c0.3,0.3,0.5,0.8,0.5,1.5v2.5C61.6,23.1,61.7,23.5,62,23.6z M59,23.4c0.5,0,1-0.3,1.5-0.8v-1.2c-0.3,0-0.7-0.1-1.1-0.1
		c-0.4,0-0.7,0.1-0.9,0.3c-0.2,0.2-0.3,0.4-0.3,0.7c0,0.3,0.1,0.5,0.2,0.7C58.5,23.3,58.8,23.4,59,23.4z"/>
	<path fill="#FFFFFF" d="M69.3,20.5c0,0,0-0.1,0-0.1c0-0.9-0.4-1.4-1.1-1.4c-0.4,0-0.7,0.2-0.9,0.6c-0.2,0.4-0.3,0.9-0.3,1.7
		c0,1.4,0.5,2.1,1.4,2.1c0.4,0,0.9-0.2,1.5-0.6c0.1,0.1,0.2,0.2,0.3,0.3c0.1,0.1,0.2,0.3,0.2,0.4c-0.6,0.6-1.3,0.9-2.1,0.9
		s-1.4-0.3-1.8-0.9c-0.4-0.6-0.6-1.4-0.6-2.3s0.2-1.7,0.7-2.2c0.5-0.5,1.1-0.8,1.8-0.8c0.7,0,1.2,0.2,1.6,0.6s0.6,0.8,0.6,1.2
		s-0.2,0.7-0.6,0.7C69.6,20.5,69.4,20.5,69.3,20.5z"/>
	<path fill="#FFFFFF" d="M75.7,18.8c0.6,0.6,0.8,1.4,0.8,2.5s-0.3,1.9-0.8,2.5c-0.4,0.4-1,0.7-1.7,0.7s-1.3-0.2-1.7-0.7
		c-0.6-0.6-0.8-1.4-0.8-2.5s0.3-1.9,0.8-2.5c0.4-0.4,1-0.7,1.7-0.7S75.2,18.3,75.7,18.8z M72.6,21.2c0,1.5,0.5,2.2,1.4,2.2
		s1.4-0.7,1.4-2.2c0-0.4,0-0.8-0.1-1.1c-0.1-0.3-0.2-0.6-0.4-0.8C74.6,19.1,74.3,19,74,19s-0.6,0.1-0.8,0.3
		c-0.2,0.2-0.4,0.5-0.4,0.8C72.6,20.4,72.6,20.8,72.6,21.2z"/>
	<path fill="#FFFFFF" d="M81.3,20.4c0-0.4-0.1-0.7-0.2-0.9c-0.1-0.2-0.3-0.3-0.6-0.3c-0.5,0-0.9,0.3-1.4,0.8v4.2c-0.1,0-0.3,0-0.6,0
		s-0.4,0-0.6,0v-5.9l0.1-0.1h0.4c0.4,0,0.6,0.3,0.6,0.8c0.5-0.5,1.1-0.8,1.7-0.8s1.1,0.3,1.3,0.9c0.6-0.6,1.3-0.9,1.9-0.9
		c0.5,0,0.9,0.2,1.1,0.5c0.3,0.4,0.4,0.8,0.4,1.3v2.9c0,0.5,0.1,0.8,0.2,1.1c-0.2,0.2-0.4,0.3-0.7,0.3c-0.4,0-0.6-0.2-0.6-0.7v-3.1
		c0-0.4-0.1-0.7-0.2-0.9c-0.1-0.2-0.3-0.3-0.6-0.3c-0.5,0-0.9,0.3-1.4,0.8v4.2c-0.1,0-0.3,0-0.6,0s-0.4,0-0.6,0V20.4z"/>
	<path fill="#FFFFFF" d="M90.4,18.1c0.7,0,1.2,0.3,1.5,0.8c0.4,0.6,0.5,1.3,0.5,2.3s-0.2,1.7-0.7,2.3s-1,0.8-1.6,0.8
		c-0.5,0-1-0.1-1.4-0.4V26c0,0.3,0,0.5-0.1,0.6c-0.1,0.1-0.3,0.2-0.5,0.2h-0.4l-0.1-0.1v-8.4l0.1-0.1H88c0.4,0,0.6,0.2,0.7,0.6
		C89.2,18.3,89.7,18.1,90.4,18.1z M90.1,19.1c-0.6,0-1,0.3-1.4,0.8v3c0.4,0.3,0.9,0.5,1.2,0.5s0.7-0.2,0.9-0.6
		c0.2-0.4,0.4-0.9,0.4-1.6s-0.1-1.2-0.3-1.6S90.4,19.1,90.1,19.1z"/>
	<path fill="#FFFFFF" d="M95.5,23.3H96c0.1,0.2,0.1,0.3,0.1,0.5c0,0.1,0,0.3,0,0.4c-0.3,0.1-0.7,0.1-1,0.1c-0.8,0-1.1-0.4-1.1-1.2
		v-7.6l0.1-0.1h0.4c0.2,0,0.4,0.1,0.5,0.2c0.1,0.1,0.1,0.3,0.1,0.6v6.7C95,23.1,95.2,23.3,95.5,23.3z"/>
	<path fill="#FFFFFF" d="M101.8,21.6h-3.6c0,0.6,0.1,1,0.4,1.3c0.2,0.3,0.6,0.5,1.1,0.5s1.1-0.2,1.7-0.5c0.2,0.2,0.3,0.4,0.4,0.8
		c-0.6,0.4-1.4,0.7-2.3,0.7c-0.9,0-1.5-0.3-1.9-0.9S97,22.1,97,21.2s0.2-1.7,0.6-2.3c0.4-0.6,1-0.9,1.8-0.9c0.8,0,1.4,0.2,1.8,0.7
		c0.4,0.5,0.6,1.1,0.6,1.8C101.9,21,101.8,21.3,101.8,21.6z M100.4,19.4c-0.2-0.3-0.5-0.5-0.9-0.5s-0.7,0.2-0.9,0.5
		c-0.2,0.3-0.3,0.7-0.4,1.3h2.5v-0.2C100.7,20.1,100.6,19.7,100.4,19.4z"/>
	<path fill="#FFFFFF" d="M106.3,18.2c0,0.1,0,0.3,0,0.4s0,0.3,0,0.4l-1.5,0v3.7c0,0.3,0.2,0.5,0.5,0.5h0.8c0.1,0.2,0.1,0.3,0.1,0.5
		s0,0.3,0,0.3c-0.5,0.1-0.9,0.1-1.3,0.1c-0.8,0-1.2-0.4-1.2-1.2v-3.9l-0.9,0c0-0.1,0-0.3,0-0.4s0-0.3,0-0.4l0.9,0v-1.1
		c0-0.3,0-0.5,0.1-0.6c0.1-0.1,0.3-0.2,0.5-0.2h0.4l0.1,0.1v1.8L106.3,18.2z"/>
	<path fill="#FFFFFF" d="M111.5,18.8c0.6,0.6,0.8,1.4,0.8,2.5s-0.3,1.9-0.8,2.5c-0.4,0.4-1,0.7-1.7,0.7s-1.3-0.2-1.7-0.7
		c-0.6-0.6-0.8-1.4-0.8-2.5s0.3-1.9,0.8-2.5c0.4-0.4,1-0.7,1.7-0.7S111.1,18.3,111.5,18.8z M108.4,21.2c0,1.5,0.5,2.2,1.4,2.2
		s1.4-0.7,1.4-2.2c0-0.4,0-0.8-0.1-1.1c-0.1-0.3-0.2-0.6-0.4-0.8c-0.2-0.2-0.5-0.3-0.8-0.3s-0.6,0.1-0.8,0.3
		c-0.2,0.2-0.4,0.5-0.4,0.8C108.4,20.4,108.4,20.8,108.4,21.2z"/>
	<path fill="#FFFFFF" d="M120.8,21.6h-3.6c0,0.6,0.1,1,0.4,1.3c0.2,0.3,0.6,0.5,1.1,0.5s1.1-0.2,1.7-0.5c0.2,0.2,0.3,0.4,0.4,0.8
		c-0.6,0.4-1.4,0.7-2.3,0.7c-0.9,0-1.5-0.3-1.9-0.9s-0.6-1.3-0.6-2.3s0.2-1.7,0.6-2.3c0.4-0.6,1-0.9,1.8-0.9c0.8,0,1.4,0.2,1.8,0.7
		c0.4,0.5,0.6,1.1,0.6,1.8C120.9,21,120.9,21.3,120.8,21.6z M119.5,19.4c-0.2-0.3-0.5-0.5-0.9-0.5s-0.7,0.2-0.9,0.5
		c-0.2,0.3-0.3,0.7-0.4,1.3h2.5v-0.2C119.8,20.1,119.7,19.7,119.5,19.4z"/>
	<path fill="#FFFFFF" d="M125.8,20.4c0-0.4-0.1-0.7-0.2-0.9c-0.1-0.2-0.3-0.3-0.6-0.3c-0.5,0-0.9,0.3-1.4,0.8v4.2
		c-0.1,0-0.3,0-0.6,0s-0.4,0-0.6,0v-5.9l0.1-0.1h0.4c0.4,0,0.6,0.3,0.6,0.8c0.5-0.5,1.1-0.8,1.7-0.8s1.1,0.3,1.3,0.9
		c0.6-0.6,1.3-0.9,1.9-0.9c0.5,0,0.9,0.2,1.1,0.5c0.3,0.4,0.4,0.8,0.4,1.3v2.9c0,0.5,0.1,0.8,0.2,1.1c-0.2,0.2-0.4,0.3-0.7,0.3
		c-0.4,0-0.6-0.2-0.6-0.7v-3.1c0-0.4-0.1-0.7-0.2-0.9c-0.1-0.2-0.3-0.3-0.6-0.3c-0.5,0-0.9,0.3-1.4,0.8v4.2c-0.1,0-0.3,0-0.6,0
		s-0.4,0-0.6,0V20.4z"/>
	<path fill="#FFFFFF" d="M134.9,16l2.4,0c0.8,0,1.5,0.2,2,0.7s0.8,1.1,0.8,2c0,0.9-0.3,1.5-0.8,2s-1.2,0.7-2,0.7H136v2.9
		c-0.2,0-0.4,0-0.6,0s-0.4,0-0.6,0L134.9,16L134.9,16z M136,20.3l1.3,0c0.4,0,0.7-0.1,0.9-0.3c0.2-0.2,0.4-0.4,0.5-0.6
		c0.1-0.2,0.1-0.5,0.1-0.9s-0.1-0.7-0.3-1.1s-0.6-0.5-1.2-0.5c-0.6,0-1,0-1.3,0V20.3z"/>
	<path fill="#FFFFFF" d="M147.4,18c0.2,0.6,0.3,1.3,0.3,2.1s-0.1,1.5-0.3,2.1c-0.2,0.6-0.5,1.1-1,1.5c-0.2,0.2-0.6,0.4-1,0.5
		c-0.4,0.1-0.8,0.2-1.1,0.2s-1.2,0-2.6,0l-0.1-0.1V16l0.1-0.1c0.7,0,1.6,0,2.6,0c0.4,0,0.7,0.1,1.1,0.2c0.4,0.1,0.7,0.3,1,0.5
		C146.9,16.9,147.2,17.4,147.4,18z M142.8,23.2l1.5,0c0.4,0,0.7-0.1,0.9-0.2c0.3-0.1,0.5-0.3,0.6-0.5c0.1-0.2,0.3-0.4,0.4-0.7
		c0.1-0.3,0.1-0.6,0.2-0.8c0-0.3,0-0.6,0-0.9s0-0.6,0-0.9c0-0.3-0.1-0.5-0.2-0.8c-0.1-0.3-0.2-0.5-0.4-0.7c-0.1-0.2-0.4-0.4-0.6-0.5
		c-0.3-0.1-0.6-0.2-0.9-0.2l-1.5,0V23.2z"/>
	<path fill="#FFFFFF" d="M150.6,17l0,1.5v1.1c0.1,0,0.3,0,0.5,0h2.4c0,0.2,0.1,0.3,0.1,0.5s0,0.3-0.1,0.5h-2.4c-0.2,0-0.4,0-0.5,0
		v3.6c-0.2,0-0.4,0-0.6,0s-0.4,0-0.6,0V16l0.1-0.1h4.7c0,0.1,0.1,0.3,0.1,0.5c0,0.4-0.2,0.6-0.7,0.6h-1.8
		C151.2,17,150.8,17,150.6,17z"/>
	<path fill="#FFFFFF" d="M155.3,23.5c0-0.2,0-0.4,0.1-0.6c0.2-0.1,0.4-0.1,0.7-0.1c0.3,0,0.5,0,0.7,0.1c0.1,0.1,0.1,0.3,0.1,0.6
		s0,0.4-0.1,0.6c-0.2,0.1-0.4,0.1-0.7,0.1c-0.3,0-0.5,0-0.7-0.1C155.3,24,155.3,23.8,155.3,23.5z"/>
</g>
</svg>