<!-- Generator: Adobe Illustrator 17.1.0, SVG Export Plug-In  -->
<svg version="1.1"
	 xmlns="http://www.w3.org/2000/svg" xmlns:xlink="http://www.w3.org/1999/xlink" xmlns:a="http://ns.adobe.com/AdobeSVGViewerExtensions/3.0/"
	 x="0px" y="0px" width="559.4px" height="117.4px" viewBox="0 0 559.4 117.4" enable-background="new 0 0 559.4 117.4"
	 xml:space="preserve">
<defs>
</defs>
<polygon fill="#043A63" points="23.8,117.4 0,59.6 23.8,0 559.4,0 559.4,117.4 "/>
<g>
	<path fill="#FFFFFF" d="M50.7,38.1l-0.8,0h-1.8l-0.8,0l-0.7,2.2c-0.1,0-0.3,0.1-0.5,0.1c-0.2,0-0.4,0-0.7-0.1l0-0.1l3-8.8
		c0.2,0,0.4-0.1,0.8-0.1c0.3,0,0.6,0,0.7,0.1l2.9,8.8c-0.2,0.1-0.4,0.2-0.7,0.2s-0.5,0-0.6-0.1c-0.1-0.1-0.2-0.3-0.3-0.5L50.7,38.1z
		 M47.7,37l0.7,0h1.3c0,0,0.1,0,0.3,0c0.2,0,0.3,0,0.4,0l-0.6-2c-0.3-0.8-0.5-1.6-0.7-2.3H49c-0.1,0.6-0.3,1.2-0.5,1.8L47.7,37z"/>
	<path fill="#FFFFFF" d="M58.3,34.4c0.6,0.6,0.9,1.5,0.9,2.7c0,1.2-0.3,2-0.9,2.7c-0.5,0.5-1.1,0.7-1.9,0.7s-1.4-0.2-1.9-0.7
		c-0.6-0.6-0.9-1.5-0.9-2.7c0-1.2,0.3-2,0.9-2.7c0.5-0.5,1.1-0.7,1.9-0.7S57.8,34,58.3,34.4z M55,37.1c0,1.6,0.5,2.4,1.5,2.4
		s1.5-0.8,1.5-2.4c0-0.5,0-0.8-0.1-1.2s-0.2-0.6-0.5-0.9c-0.2-0.2-0.5-0.4-0.9-0.4s-0.7,0.1-0.9,0.4c-0.2,0.2-0.4,0.5-0.5,0.9
		S55,36.6,55,37.1z"/>
	<path fill="#FFFFFF" d="M64,40.3v-5.5l-1.1,0c0-0.2-0.1-0.3-0.1-0.5c0-0.1,0-0.3,0.1-0.5l1.1,0c-0.1-0.5-0.1-0.9-0.1-1.2
		c0-0.6,0.2-1.1,0.5-1.4c0.4-0.4,0.8-0.6,1.4-0.6c0.6,0,1.1,0.1,1.7,0.3c0,0.4-0.1,0.6-0.3,0.8c-0.4-0.1-0.8-0.2-1.1-0.2
		c-0.3,0-0.6,0.1-0.7,0.3c-0.2,0.2-0.3,0.5-0.3,0.8c0,0.3,0,0.7,0.1,1.2l1.8,0c0,0.2,0.1,0.4,0.1,0.5c0,0.1,0,0.3-0.1,0.5l-1.8,0
		v5.5c-0.2,0-0.4,0.1-0.6,0.1C64.4,40.3,64.2,40.3,64,40.3z"/>
	<path fill="#FFFFFF" d="M70,35v5.3c-0.1,0-0.4,0.1-0.6,0.1s-0.5,0-0.6-0.1v-4.8c0-0.2,0-0.4-0.1-0.5c-0.1-0.1-0.2-0.2-0.4-0.2h-0.1
		c0-0.1-0.1-0.3-0.1-0.4c0-0.2,0-0.3,0.1-0.5c0.3,0,0.5-0.1,0.8-0.1H69c0.3,0,0.6,0.1,0.7,0.3C69.9,34.3,70,34.6,70,35z M68.4,32.1
		c0-0.2,0-0.4,0.1-0.6c0.2-0.1,0.4-0.2,0.7-0.2s0.5,0.1,0.7,0.2c0.1,0.2,0.1,0.3,0.1,0.6c0,0.2,0,0.4-0.1,0.6
		c-0.1,0.1-0.4,0.2-0.7,0.2c-0.3,0-0.5-0.1-0.7-0.2C68.4,32.5,68.4,32.3,68.4,32.1z"/>
	<path fill="#FFFFFF" d="M77.1,35.9V39c0,0.5,0.1,0.9,0.2,1.2c-0.2,0.2-0.5,0.3-0.8,0.3c-0.5,0-0.7-0.3-0.7-0.8v-3.4
		c0-0.5-0.1-0.8-0.2-1c-0.1-0.2-0.3-0.3-0.6-0.3s-0.6,0.1-0.9,0.2c-0.3,0.2-0.6,0.4-0.8,0.6v4.5c-0.1,0-0.4,0.1-0.6,0.1
		s-0.5,0-0.6-0.1v-6.4l0.1-0.1h0.5c0.4,0,0.7,0.3,0.7,0.8c0.7-0.6,1.3-0.9,2.1-0.9c0.6,0,1,0.2,1.3,0.6C77,34.7,77.1,35.2,77.1,35.9
		z"/>
	<path fill="#FFFFFF" d="M84.1,39.7c-0.1,0.3-0.3,0.5-0.5,0.6c-0.5-0.1-0.8-0.4-1-0.8c-0.6,0.6-1.3,0.9-1.9,0.9
		c-0.6,0-1.1-0.2-1.5-0.6c-0.3-0.4-0.5-0.8-0.5-1.3c0-0.7,0.2-1.2,0.7-1.6c0.5-0.4,1.1-0.5,1.8-0.5c0.4,0,0.9,0,1.3,0.1V36
		c0-0.8-0.4-1.2-1.1-1.2c-0.6,0-1.3,0.2-2.1,0.5c-0.2-0.2-0.4-0.5-0.4-0.9c0.9-0.4,1.8-0.6,2.7-0.6c0.7,0,1.2,0.2,1.6,0.5
		c0.4,0.4,0.6,0.9,0.6,1.6v2.7C83.7,39.1,83.8,39.5,84.1,39.7z M80.9,39.4c0.6,0,1.1-0.3,1.6-0.8v-1.2c-0.3,0-0.7-0.1-1.2-0.1
		c-0.4,0-0.8,0.1-1,0.3c-0.2,0.2-0.3,0.5-0.3,0.8s0.1,0.6,0.2,0.8C80.4,39.4,80.6,39.4,80.9,39.4z"/>
	<path fill="#FFFFFF" d="M87.5,39.3H88c0.1,0.2,0.1,0.4,0.1,0.5c0,0.2,0,0.3,0,0.4c-0.3,0.1-0.7,0.1-1.1,0.1c-0.8,0-1.2-0.4-1.2-1.3
		v-8.3l0.1-0.1h0.5c0.3,0,0.4,0.1,0.5,0.2c0.1,0.1,0.1,0.3,0.1,0.6v7.2C87,39.2,87.1,39.3,87.5,39.3z"/>
	<path fill="#FFFFFF" d="M94.2,40.5c-0.7,0-1.3-0.3-1.7-0.9C92.1,39,92,38.1,92,37.1s0.2-1.9,0.7-2.4c0.5-0.6,1.1-0.9,1.7-0.9
		c0.5,0,1,0.1,1.5,0.4v-3.4l0.1-0.1h0.5c0.3,0,0.4,0.1,0.5,0.2c0.1,0.1,0.1,0.3,0.1,0.6v6.9c0,0.6,0.1,1,0.4,1.3
		c-0.1,0.3-0.3,0.5-0.5,0.6c-0.5-0.1-0.8-0.4-1-0.8C95.6,40.2,94.9,40.5,94.2,40.5z M94.4,39.4c0.6,0,1.1-0.3,1.5-0.9v-3.3
		c-0.5-0.3-0.9-0.5-1.3-0.5c-0.4,0-0.7,0.2-1,0.6c-0.3,0.4-0.4,1-0.4,1.7c0,0.8,0.1,1.3,0.3,1.7C93.8,39.2,94.1,39.4,94.4,39.4z"/>
	<path fill="#FFFFFF" d="M104,37.5h-3.9c0,0.6,0.2,1.1,0.4,1.4s0.6,0.5,1.2,0.5s1.1-0.2,1.8-0.5c0.2,0.2,0.4,0.5,0.4,0.8
		c-0.7,0.5-1.5,0.7-2.4,0.7s-1.6-0.3-2-0.9c-0.4-0.6-0.6-1.4-0.6-2.4s0.2-1.8,0.7-2.4c0.5-0.6,1.1-0.9,1.9-0.9
		c0.8,0,1.5,0.3,1.9,0.8c0.5,0.5,0.7,1.2,0.7,2C104.1,36.8,104.1,37.2,104,37.5z M102.5,35.1c-0.2-0.3-0.6-0.5-1-0.5
		c-0.4,0-0.8,0.2-1,0.5c-0.2,0.3-0.4,0.8-0.4,1.4h2.7v-0.2C102.9,35.9,102.8,35.5,102.5,35.1z"/>
	<path fill="#FFFFFF" d="M110.6,39l0-0.9v-2.5c0-0.2,0-0.8,0.1-1.5c-0.5,0.5-1.1,1-1.8,1.3c-0.2-0.1-0.3-0.2-0.4-0.4
		c-0.1-0.2-0.2-0.4-0.2-0.6c1.2-0.8,2.1-1.6,2.5-2.5c0.2,0,0.5-0.1,0.8-0.1s0.5,0,0.8,0.1v6.2l0,0.9l0.8,0h0.8
		c0.1,0.2,0.1,0.4,0.1,0.7c0,0.2,0,0.5-0.1,0.7h-5.1c-0.1-0.2-0.1-0.5-0.1-0.7s0-0.4,0.1-0.7h1.1L110.6,39z"/>
	<path fill="#FFFFFF" d="M120.7,38.9c0,0.2,0,0.4,0,0.6c-0.1,0.5-0.4,0.8-1,0.8h-4c-0.4-0.4-0.6-0.7-0.6-1c0-0.7,0.5-1.5,1.6-2.4
		l1.3-1.2c0.6-0.5,0.9-1,0.9-1.6c0-0.3-0.1-0.6-0.3-0.8c-0.2-0.2-0.5-0.3-0.8-0.3s-0.6,0.1-0.9,0.3c-0.2,0.2-0.4,0.5-0.6,0.9
		c-0.2,0-0.4,0-0.7-0.1c-0.2-0.1-0.4-0.2-0.5-0.4c0.2-0.6,0.5-1.1,1-1.4c0.5-0.4,1.1-0.6,1.8-0.6c0.7,0,1.3,0.2,1.8,0.7
		c0.5,0.5,0.7,1.1,0.7,1.8c0,0.6-0.1,1-0.4,1.4c-0.3,0.4-0.7,0.8-1.2,1.2l-1,0.8c-0.7,0.6-1.1,1-1.2,1.3c0.7-0.1,1.3-0.1,1.8-0.1
		H120.7z"/>
	<path fill="#FFFFFF" d="M128.7,36.3c0-0.7-0.2-1.1-0.7-1.1c-0.4,0-0.8,0.2-1.2,0.7v4.5c-0.2,0-0.5,0.1-0.8,0.1s-0.6,0-0.8-0.1v-6.4
		l0.1-0.1h0.6c0.5,0,0.8,0.3,0.9,0.8c0.6-0.6,1.2-0.9,1.9-0.9s1.1,0.3,1.4,0.9c0.7-0.6,1.3-0.9,2-0.9c0.5,0,1,0.2,1.3,0.6
		c0.3,0.4,0.4,0.9,0.4,1.5v3c0,0.5,0.1,0.9,0.3,1.2c-0.3,0.2-0.6,0.3-0.9,0.3s-0.6-0.1-0.7-0.2c-0.1-0.2-0.2-0.4-0.2-0.8v-3.1
		c0-0.7-0.2-1.1-0.7-1.1c-0.4,0-0.8,0.2-1.2,0.7v4.4c-0.2,0-0.5,0.1-0.8,0.1s-0.6,0-0.8-0.1V36.3z"/>
	<path fill="#FFFFFF" d="M140.5,37.6h-3.6c0,0.5,0.1,0.9,0.3,1.2c0.2,0.3,0.6,0.4,1.1,0.4c0.5,0,1.1-0.2,1.7-0.5
		c0.2,0.2,0.4,0.6,0.5,1c-0.7,0.5-1.5,0.7-2.5,0.7c-1,0-1.7-0.3-2.1-0.9c-0.4-0.6-0.6-1.5-0.6-2.5c0-1,0.2-1.8,0.7-2.5
		s1.1-0.9,2-0.9s1.5,0.3,2,0.8c0.5,0.5,0.7,1.2,0.7,2C140.6,36.8,140.6,37.2,140.5,37.6z M138,34.8c-0.7,0-1.1,0.5-1.1,1.6h2.3v-0.2
		c0-0.4-0.1-0.8-0.3-1.1C138.6,35,138.3,34.8,138,34.8z"/>
	<path fill="#FFFFFF" d="M141.5,39.8c0-0.2,0.1-0.4,0.2-0.6c0.1-0.2,0.2-0.4,0.3-0.5c0.7,0.4,1.3,0.6,1.8,0.6c0.3,0,0.6-0.1,0.7-0.2
		c0.2-0.1,0.3-0.3,0.3-0.5c0-0.3-0.2-0.6-0.7-0.8l-0.7-0.3c-1.1-0.4-1.6-1-1.6-1.9c0-0.6,0.2-1.1,0.7-1.5c0.4-0.4,1-0.6,1.8-0.6
		s1.5,0.2,2.2,0.5c0,0.2,0,0.4-0.1,0.6c-0.1,0.2-0.2,0.4-0.3,0.5c-0.6-0.3-1.2-0.4-1.8-0.4c-0.2,0-0.4,0.1-0.6,0.2
		c-0.1,0.1-0.2,0.3-0.2,0.5c0,0.3,0.2,0.5,0.7,0.7l0.8,0.3c1.1,0.4,1.7,1.1,1.7,2c0,0.6-0.2,1.1-0.7,1.5c-0.5,0.4-1.1,0.5-1.9,0.5
		C143,40.5,142.2,40.3,141.5,39.8z"/>
	<path fill="#FFFFFF" d="M152.7,37.6H149c0,0.5,0.1,0.9,0.3,1.2c0.2,0.3,0.6,0.4,1.1,0.4c0.5,0,1.1-0.2,1.7-0.5
		c0.2,0.2,0.4,0.6,0.5,1c-0.7,0.5-1.5,0.7-2.5,0.7c-1,0-1.7-0.3-2.1-0.9c-0.4-0.6-0.6-1.5-0.6-2.5c0-1,0.2-1.8,0.7-2.5
		s1.1-0.9,2-0.9s1.5,0.3,2,0.8c0.5,0.5,0.7,1.2,0.7,2C152.8,36.8,152.8,37.2,152.7,37.6z M150.2,34.8c-0.7,0-1.1,0.5-1.1,1.6h2.3
		v-0.2c0-0.4-0.1-0.8-0.3-1.1C150.8,35,150.5,34.8,150.2,34.8z"/>
	<path fill="#FFFFFF" d="M153.7,39.8c0-0.2,0.1-0.4,0.2-0.6c0.1-0.2,0.2-0.4,0.3-0.5c0.7,0.4,1.3,0.6,1.8,0.6c0.3,0,0.6-0.1,0.7-0.2
		c0.2-0.1,0.3-0.3,0.3-0.5c0-0.3-0.2-0.6-0.7-0.8l-0.7-0.3c-1.1-0.4-1.6-1-1.6-1.9c0-0.6,0.2-1.1,0.7-1.5c0.4-0.4,1-0.6,1.8-0.6
		s1.5,0.2,2.2,0.5c0,0.2,0,0.4-0.1,0.6c-0.1,0.2-0.2,0.4-0.3,0.5c-0.6-0.3-1.2-0.4-1.8-0.4c-0.2,0-0.4,0.1-0.6,0.2
		c-0.1,0.1-0.2,0.3-0.2,0.5c0,0.3,0.2,0.5,0.7,0.7l0.8,0.3c1.1,0.4,1.7,1.1,1.7,2c0,0.6-0.2,1.1-0.7,1.5c-0.5,0.4-1.1,0.5-1.9,0.5
		C155.2,40.5,154.5,40.3,153.7,39.8z"/>
	<path fill="#FFFFFF" d="M164.7,40.5c-0.7,0-1.3-0.3-1.7-0.9c-0.4-0.6-0.6-1.4-0.6-2.5c0-1,0.2-1.9,0.7-2.5c0.5-0.6,1.1-0.9,1.8-0.9
		c0.4,0,0.9,0.1,1.4,0.4v-3.3l0.1-0.1h0.6c0.3,0,0.5,0.1,0.7,0.2c0.1,0.2,0.2,0.4,0.2,0.8v6.7c0,0.5,0.1,0.9,0.4,1.1
		c0,0.1-0.1,0.3-0.2,0.5c-0.1,0.2-0.2,0.3-0.3,0.4c-0.5-0.1-0.9-0.3-1.2-0.8C166.1,40.2,165.5,40.5,164.7,40.5z M165.1,39.1
		c0.5,0,0.9-0.2,1.2-0.7v-3.1c-0.4-0.3-0.8-0.4-1.2-0.4s-0.6,0.2-0.8,0.6c-0.2,0.4-0.3,0.9-0.3,1.6s0.1,1.2,0.3,1.5
		C164.6,39,164.8,39.1,165.1,39.1z"/>
	<path fill="#FFFFFF" d="M174.7,37.6H171c0,0.5,0.1,0.9,0.3,1.2c0.2,0.3,0.6,0.4,1.1,0.4c0.5,0,1.1-0.2,1.7-0.5
		c0.2,0.2,0.4,0.6,0.5,1c-0.7,0.5-1.5,0.7-2.5,0.7c-1,0-1.7-0.3-2.1-0.9c-0.4-0.6-0.6-1.5-0.6-2.5c0-1,0.2-1.8,0.7-2.5
		s1.1-0.9,2-0.9s1.5,0.3,2,0.8c0.5,0.5,0.7,1.2,0.7,2C174.8,36.8,174.8,37.2,174.7,37.6z M172.2,34.8c-0.7,0-1.1,0.5-1.1,1.6h2.3
		v-0.2c0-0.4-0.1-0.8-0.3-1.1C172.8,35,172.5,34.8,172.2,34.8z"/>
	<path fill="#FFFFFF" d="M182.5,33.8c0,0.2,0.1,0.4,0.1,0.6c0,0.2,0,0.4-0.1,0.6l-1.6,0v3.5c0,0.4,0.2,0.6,0.6,0.6h0.8
		c0.1,0.3,0.1,0.5,0.1,0.7s0,0.4,0,0.5c-0.5,0.1-1.1,0.1-1.5,0.1c-1,0-1.5-0.5-1.5-1.5V35l-1,0c0-0.2-0.1-0.4-0.1-0.6
		c0-0.2,0-0.4,0.1-0.6l1,0v-1c0-0.4,0.1-0.6,0.2-0.8s0.4-0.2,0.7-0.2h0.6L181,32v1.9L182.5,33.8z"/>
	<path fill="#FFFFFF" d="M183.4,34.6c0-0.1,0.1-0.3,0.2-0.5c0.1-0.2,0.2-0.3,0.3-0.4c0.7,0.1,1.1,0.5,1.4,1.2
		c0.3-0.8,0.9-1.2,1.7-1.2c0.2,0,0.5,0,0.8,0.1c0,0.6-0.1,1.1-0.4,1.5c-0.1,0-0.3-0.1-0.6-0.1c-0.5,0-1,0.3-1.3,0.8v4.2
		c-0.2,0-0.5,0.1-0.8,0.1s-0.6,0-0.8-0.1v-4.4C183.9,35.3,183.8,34.9,183.4,34.6z"/>
	<path fill="#FFFFFF" d="M193.8,39.6c0,0.1-0.1,0.3-0.2,0.5s-0.2,0.3-0.3,0.4c-0.5-0.1-0.9-0.3-1.2-0.8c-0.6,0.6-1.2,0.8-1.9,0.8
		s-1.2-0.2-1.5-0.6c-0.3-0.4-0.5-0.8-0.5-1.4c0-0.7,0.2-1.3,0.7-1.6c0.5-0.4,1.1-0.6,1.8-0.6c0.4,0,0.8,0,1.1,0.1V36
		c0-0.7-0.3-1-1-1c-0.5,0-1.1,0.2-2,0.5c-0.3-0.3-0.4-0.7-0.4-1.2c0.9-0.4,1.9-0.6,2.8-0.6c0.7,0,1.2,0.2,1.6,0.5s0.6,0.9,0.6,1.7
		v2.7C193.5,39,193.6,39.4,193.8,39.6z M190.6,39.2c0.5,0,0.9-0.2,1.3-0.6v-1.2c-0.3,0-0.6-0.1-1-0.1s-0.6,0.1-0.8,0.3
		c-0.2,0.2-0.3,0.4-0.3,0.7s0.1,0.5,0.2,0.6S190.3,39.2,190.6,39.2z"/>
	<path fill="#FFFFFF" d="M197.3,39l1.4-5.2c0.2,0,0.4-0.1,0.7-0.1s0.5,0,0.7,0.1l0.1,0.1c-0.8,2.9-1.5,5-1.9,6.3
		c-0.3,0.1-0.7,0.1-1.1,0.1s-0.7-0.1-0.8-0.2s-0.3-0.3-0.4-0.7l-1.7-5.6c0.3-0.2,0.6-0.2,0.9-0.2c0.5,0,0.8,0.2,0.9,0.7l0.8,2.7
		c0.1,0.2,0.2,0.8,0.4,1.8C197.2,39,197.2,39,197.3,39z"/>
	<path fill="#FFFFFF" d="M206,37.6h-3.6c0,0.5,0.1,0.9,0.3,1.2c0.2,0.3,0.6,0.4,1.1,0.4c0.5,0,1.1-0.2,1.7-0.5
		c0.2,0.2,0.4,0.6,0.5,1c-0.7,0.5-1.5,0.7-2.5,0.7c-1,0-1.7-0.3-2.1-0.9c-0.4-0.6-0.6-1.5-0.6-2.5c0-1,0.2-1.8,0.7-2.5
		s1.1-0.9,2-0.9s1.5,0.3,2,0.8c0.5,0.5,0.7,1.2,0.7,2C206.1,36.8,206.1,37.2,206,37.6z M203.5,34.8c-0.7,0-1.1,0.5-1.1,1.6h2.3v-0.2
		c0-0.4-0.1-0.8-0.3-1.1C204.1,35,203.9,34.8,203.5,34.8z"/>
	<path fill="#FFFFFF" d="M207,39.8c0-0.2,0.1-0.4,0.2-0.6c0.1-0.2,0.2-0.4,0.3-0.5c0.7,0.4,1.3,0.6,1.8,0.6c0.3,0,0.6-0.1,0.7-0.2
		c0.2-0.1,0.3-0.3,0.3-0.5c0-0.3-0.2-0.6-0.7-0.8l-0.7-0.3c-1.1-0.4-1.6-1-1.6-1.9c0-0.6,0.2-1.1,0.7-1.5c0.4-0.4,1-0.6,1.8-0.6
		s1.5,0.2,2.2,0.5c0,0.2,0,0.4-0.1,0.6c-0.1,0.2-0.2,0.4-0.3,0.5c-0.6-0.3-1.2-0.4-1.8-0.4c-0.2,0-0.4,0.1-0.6,0.2
		c-0.1,0.1-0.2,0.3-0.2,0.5c0,0.3,0.2,0.5,0.7,0.7l0.8,0.3c1.1,0.4,1.7,1.1,1.7,2c0,0.6-0.2,1.1-0.7,1.5c-0.5,0.4-1.1,0.5-1.9,0.5
		C208.6,40.5,207.8,40.3,207,39.8z"/>
	<path fill="#FFFFFF" d="M212.7,39.8c0-0.2,0.1-0.4,0.2-0.6c0.1-0.2,0.2-0.4,0.3-0.5c0.7,0.4,1.3,0.6,1.8,0.6c0.3,0,0.6-0.1,0.7-0.2
		c0.2-0.1,0.3-0.3,0.3-0.5c0-0.3-0.2-0.6-0.7-0.8l-0.7-0.3c-1.1-0.4-1.6-1-1.6-1.9c0-0.6,0.2-1.1,0.7-1.5c0.4-0.4,1-0.6,1.8-0.6
		s1.5,0.2,2.2,0.5c0,0.2,0,0.4-0.1,0.6c-0.1,0.2-0.2,0.4-0.3,0.5c-0.6-0.3-1.2-0.4-1.8-0.4c-0.2,0-0.4,0.1-0.6,0.2
		c-0.1,0.1-0.2,0.3-0.2,0.5c0,0.3,0.2,0.5,0.7,0.7l0.8,0.3c1.1,0.4,1.7,1.1,1.7,2c0,0.6-0.2,1.1-0.7,1.5c-0.5,0.4-1.1,0.5-1.9,0.5
		C214.3,40.5,213.5,40.3,212.7,39.8z"/>
	<path fill="#FFFFFF" d="M220.9,35.1v5.2c-0.2,0-0.5,0.1-0.8,0.1s-0.6,0-0.8-0.1v-4.6c0-0.5-0.2-0.7-0.6-0.7h-0.2
		c0-0.1-0.1-0.3-0.1-0.6c0-0.2,0-0.4,0.1-0.6c0.3,0,0.6-0.1,0.9-0.1h0.2c0.4,0,0.7,0.1,0.9,0.4C220.8,34.4,220.9,34.7,220.9,35.1z
		 M219,32.7c-0.1-0.2-0.1-0.4-0.1-0.6s0-0.4,0.1-0.6c0.2-0.1,0.5-0.2,0.8-0.2c0.3,0,0.6,0.1,0.8,0.2c0.1,0.2,0.1,0.4,0.1,0.6
		s0,0.4-0.1,0.6c-0.2,0.1-0.5,0.2-0.8,0.2C219.5,32.9,219.2,32.8,219,32.7z"/>
	<path fill="#FFFFFF" d="M227.9,39.6c0,0.1-0.1,0.3-0.2,0.5s-0.2,0.3-0.3,0.4c-0.5-0.1-0.9-0.3-1.2-0.8c-0.6,0.6-1.2,0.8-1.9,0.8
		s-1.2-0.2-1.5-0.6c-0.3-0.4-0.5-0.8-0.5-1.4c0-0.7,0.2-1.3,0.7-1.6c0.5-0.4,1.1-0.6,1.8-0.6c0.4,0,0.8,0,1.1,0.1V36
		c0-0.7-0.3-1-1-1c-0.5,0-1.1,0.2-2,0.5c-0.3-0.3-0.4-0.7-0.4-1.2c0.9-0.4,1.9-0.6,2.8-0.6c0.7,0,1.2,0.2,1.6,0.5s0.6,0.9,0.6,1.7
		v2.7C227.6,39,227.7,39.4,227.9,39.6z M224.7,39.2c0.5,0,0.9-0.2,1.3-0.6v-1.2c-0.3,0-0.6-0.1-1-0.1s-0.6,0.1-0.8,0.3
		c-0.2,0.2-0.3,0.4-0.3,0.7s0.1,0.5,0.2,0.6S224.4,39.2,224.7,39.2z"/>
	<path fill="#FFFFFF" d="M229.2,42.4c-0.2-0.1-0.3-0.3-0.3-0.6c0,0,0-0.1,0-0.1c0.3-0.1,0.6-0.3,0.7-0.6c0.2-0.2,0.3-0.5,0.3-0.7
		c-0.3-0.1-0.4-0.1-0.5-0.2c-0.1-0.1-0.1-0.4-0.1-0.6c0-0.3,0-0.5,0.1-0.6c0.2-0.1,0.5-0.2,0.8-0.2s0.6,0.1,0.7,0.2
		c0.1,0.2,0.1,0.5,0.1,0.8c0,0.6-0.2,1.1-0.5,1.5C230.3,41.8,229.8,42.1,229.2,42.4z"/>
	<path fill="#FFFFFF" d="M48.2,54.9l1.6-5.4c0.1,0,0.3-0.1,0.5-0.1s0.4,0,0.6,0.1l0,0.1c-0.9,2.8-1.5,4.9-2,6.3
		c-0.2,0-0.5,0.1-0.8,0.1s-0.5,0-0.7-0.1c-0.1-0.1-0.2-0.3-0.3-0.6l-1.8-5.7c0.3-0.1,0.5-0.2,0.7-0.2c0.4,0,0.6,0.2,0.7,0.5l0.9,2.9
		c0.2,0.6,0.4,1.3,0.5,1.9C48.1,54.8,48.1,54.9,48.2,54.9z"/>
	<path fill="#FFFFFF" d="M56.3,50c0.6,0.6,0.9,1.5,0.9,2.7c0,1.2-0.3,2-0.9,2.7c-0.5,0.5-1.1,0.7-1.9,0.7s-1.4-0.2-1.9-0.7
		c-0.6-0.6-0.9-1.5-0.9-2.7c0-1.2,0.3-2,0.9-2.7c0.5-0.5,1.1-0.7,1.9-0.7S55.8,49.6,56.3,50z M52.9,52.7c0,1.6,0.5,2.4,1.5,2.4
		s1.5-0.8,1.5-2.4c0-0.5,0-0.8-0.1-1.2s-0.2-0.6-0.5-0.9c-0.2-0.2-0.5-0.4-0.9-0.4s-0.7,0.1-0.9,0.4c-0.2,0.2-0.4,0.5-0.5,0.9
		S52.9,52.2,52.9,52.7z"/>
	<path fill="#FFFFFF" d="M62.3,51.9c0,0,0-0.1,0-0.1c0-1-0.4-1.5-1.2-1.5c-0.4,0-0.8,0.2-1,0.6c-0.2,0.4-0.4,1-0.4,1.8
		c0,1.5,0.5,2.3,1.5,2.3c0.5,0,1-0.2,1.6-0.7c0.1,0.1,0.2,0.2,0.3,0.3c0.1,0.1,0.2,0.3,0.2,0.4c-0.6,0.6-1.4,1-2.3,1s-1.6-0.3-2-0.9
		c-0.4-0.6-0.7-1.5-0.7-2.5s0.3-1.8,0.8-2.4c0.5-0.6,1.2-0.9,1.9-0.9c0.7,0,1.3,0.2,1.7,0.6c0.4,0.4,0.6,0.8,0.6,1.3
		S63.2,52,62.8,52C62.6,52,62.4,51.9,62.3,51.9z"/>
	<path fill="#FFFFFF" d="M69.7,53.1h-3.9c0,0.6,0.2,1.1,0.4,1.4s0.6,0.5,1.2,0.5s1.1-0.2,1.8-0.5c0.2,0.2,0.4,0.5,0.4,0.8
		c-0.7,0.5-1.5,0.7-2.4,0.7s-1.6-0.3-2-0.9c-0.4-0.6-0.6-1.4-0.6-2.4s0.2-1.8,0.7-2.4c0.5-0.6,1.1-0.9,1.9-0.9
		c0.8,0,1.5,0.3,1.9,0.8c0.5,0.5,0.7,1.2,0.7,2C69.8,52.4,69.7,52.8,69.7,53.1z M68.5,48.8l-1.2-1.2L66,48.9
		c-0.3-0.1-0.4-0.3-0.6-0.5l1.4-1.7c0.1,0,0.3-0.1,0.5-0.1c0.2,0,0.4,0,0.6,0.1l1.3,1.6C69,48.5,68.8,48.7,68.5,48.8z M68.2,50.7
		c-0.2-0.3-0.6-0.5-1-0.5c-0.4,0-0.8,0.2-1,0.5c-0.2,0.3-0.4,0.8-0.4,1.4h2.7V52C68.6,51.5,68.4,51.1,68.2,50.7z"/>
	<path fill="#FFFFFF" d="M77.8,51.9c0,0,0-0.1,0-0.1c0-1-0.4-1.5-1.2-1.5c-0.4,0-0.8,0.2-1,0.6c-0.2,0.4-0.4,1-0.4,1.8
		c0,1.5,0.5,2.3,1.5,2.3c0.5,0,1-0.2,1.6-0.7c0.1,0.1,0.2,0.2,0.3,0.3c0.1,0.1,0.2,0.3,0.2,0.4c-0.6,0.6-1.4,1-2.3,1s-1.6-0.3-2-0.9
		c-0.4-0.6-0.7-1.5-0.7-2.5s0.3-1.8,0.8-2.4c0.5-0.6,1.2-0.9,1.9-0.9c0.7,0,1.3,0.2,1.7,0.6c0.4,0.4,0.6,0.8,0.6,1.3
		S78.7,52,78.3,52C78.1,52,77.9,51.9,77.8,51.9z"/>
	<path fill="#FFFFFF" d="M85.5,51.5v3.1c0,0.5,0.1,0.9,0.2,1.2c-0.2,0.2-0.5,0.3-0.8,0.3c-0.4,0-0.7-0.3-0.7-0.8v-3.4
		c0-0.5-0.1-0.8-0.2-1c-0.1-0.2-0.3-0.3-0.6-0.3s-0.6,0.1-0.9,0.2c-0.3,0.2-0.6,0.4-0.8,0.6v4.5c-0.1,0-0.3,0.1-0.6,0.1
		c-0.3,0-0.5,0-0.6-0.1v-9.5l0.1-0.1H81c0.3,0,0.4,0.1,0.5,0.2c0.1,0.1,0.1,0.3,0.1,0.6v3.1c0.6-0.6,1.3-0.9,2.1-0.9
		c0.6,0,1,0.2,1.3,0.6C85.4,50.4,85.5,50.9,85.5,51.5z"/>
	<path fill="#FFFFFF" d="M92.3,53.1h-3.9c0,0.6,0.2,1.1,0.4,1.4S89.4,55,90,55s1.1-0.2,1.8-0.5c0.2,0.2,0.4,0.5,0.4,0.8
		c-0.7,0.5-1.5,0.7-2.4,0.7s-1.6-0.3-2-0.9c-0.4-0.6-0.6-1.4-0.6-2.4s0.2-1.8,0.7-2.4c0.5-0.6,1.1-0.9,1.9-0.9
		c0.8,0,1.5,0.3,1.9,0.8c0.5,0.5,0.7,1.2,0.7,2C92.3,52.4,92.3,52.8,92.3,53.1z M90.8,50.7c-0.2-0.3-0.6-0.5-1-0.5
		c-0.4,0-0.8,0.2-1,0.5c-0.2,0.3-0.4,0.8-0.4,1.4h2.7V52C91.1,51.5,91,51.1,90.8,50.7z"/>
	<path fill="#FFFFFF" d="M95.8,56c-0.7,0-1.2-0.3-1.6-0.9s-0.6-1.4-0.6-2.5c0-1.1,0.2-1.9,0.7-2.5c0.5-0.6,1.1-0.9,1.7-0.9
		s1.3,0.2,1.8,0.7c0.2-0.3,0.5-0.5,0.8-0.6c0.2,0.1,0.4,0.3,0.5,0.7c-0.2,0.2-0.4,0.6-0.4,1.3v3.9c0,1.3-0.2,2.2-0.6,2.7
		c-0.5,0.6-1.2,0.8-2.1,0.8c-0.8,0-1.5-0.1-2.2-0.4c0-0.4,0.1-0.7,0.3-1c0.6,0.3,1.2,0.4,1.8,0.4s1-0.2,1.3-0.5
		c0.2-0.3,0.4-0.8,0.4-1.4v-0.6C97.1,55.8,96.5,56,95.8,56z M97.6,54.1V51c-0.5-0.4-0.9-0.6-1.3-0.6s-0.8,0.2-1,0.6
		c-0.3,0.4-0.4,1-0.4,1.7c0,0.8,0.1,1.3,0.3,1.7c0.2,0.4,0.5,0.6,0.9,0.6C96.7,54.9,97.2,54.7,97.6,54.1z"/>
	<path fill="#FFFFFF" d="M105.8,55.3c-0.1,0.3-0.3,0.5-0.5,0.6c-0.5-0.1-0.8-0.4-1-0.8c-0.6,0.6-1.3,0.9-1.9,0.9
		c-0.6,0-1.1-0.2-1.5-0.6c-0.3-0.4-0.5-0.8-0.5-1.3c0-0.7,0.2-1.2,0.7-1.6c0.5-0.4,1.1-0.5,1.8-0.5c0.4,0,0.9,0,1.3,0.1v-0.5
		c0-0.8-0.4-1.2-1.1-1.2c-0.6,0-1.3,0.2-2.1,0.5c-0.2-0.2-0.4-0.5-0.4-0.9c0.9-0.4,1.8-0.6,2.7-0.6c0.7,0,1.2,0.2,1.6,0.5
		c0.4,0.4,0.6,0.9,0.6,1.6v2.7C105.4,54.7,105.6,55.1,105.8,55.3z M102.6,55c0.6,0,1.1-0.3,1.6-0.8V53c-0.3,0-0.7-0.1-1.2-0.1
		c-0.4,0-0.8,0.1-1,0.3c-0.2,0.2-0.3,0.5-0.3,0.8s0.1,0.6,0.2,0.8C102.1,55,102.3,55,102.6,55z"/>
	<path fill="#FFFFFF" d="M107.1,50.1c0.1-0.3,0.2-0.5,0.5-0.7c0.6,0.1,0.9,0.5,1.1,1.2c0.4-0.8,0.9-1.2,1.7-1.2c0.2,0,0.4,0,0.7,0.1
		c0,0.5-0.1,0.9-0.3,1.2c-0.1,0-0.2,0-0.5-0.1c-0.6,0-1.1,0.3-1.4,1v4.3c-0.1,0-0.4,0.1-0.6,0.1c-0.3,0-0.5,0-0.6-0.1v-4.5
		C107.6,50.8,107.4,50.4,107.1,50.1z"/>
	<path fill="#FFFFFF" d="M117.1,55.3c-0.1,0.3-0.3,0.5-0.5,0.6c-0.5-0.1-0.8-0.4-1-0.8c-0.6,0.6-1.3,0.9-1.9,0.9
		c-0.6,0-1.1-0.2-1.5-0.6c-0.3-0.4-0.5-0.8-0.5-1.3c0-0.7,0.2-1.2,0.7-1.6c0.5-0.4,1.1-0.5,1.8-0.5c0.4,0,0.9,0,1.3,0.1v-0.5
		c0-0.8-0.4-1.2-1.1-1.2c-0.6,0-1.3,0.2-2.1,0.5c-0.2-0.2-0.4-0.5-0.4-0.9c0.9-0.4,1.8-0.6,2.7-0.6c0.7,0,1.2,0.2,1.6,0.5
		c0.4,0.4,0.6,0.9,0.6,1.6v2.7C116.8,54.7,116.9,55.1,117.1,55.3z M113.9,55c0.6,0,1.1-0.3,1.6-0.8V53c-0.3,0-0.7-0.1-1.2-0.1
		c-0.4,0-0.8,0.1-1,0.3c-0.2,0.2-0.3,0.5-0.3,0.8s0.1,0.6,0.2,0.8C113.4,55,113.7,55,113.9,55z M113.4,48.4l1.8-2.1
		c0.2,0.1,0.4,0.2,0.5,0.3c0.2,0.2,0.3,0.3,0.4,0.5l-2.2,1.7C113.7,48.8,113.5,48.6,113.4,48.4z"/>
	<path fill="#FFFFFF" d="M126.7,51.5v3.1c0,0.5,0.1,0.9,0.2,1.2c-0.2,0.2-0.5,0.3-0.8,0.3c-0.5,0-0.7-0.3-0.7-0.8v-3.4
		c0-0.5-0.1-0.8-0.2-1c-0.1-0.2-0.3-0.3-0.6-0.3s-0.6,0.1-0.9,0.2c-0.3,0.2-0.6,0.4-0.8,0.6v4.5c-0.1,0-0.4,0.1-0.6,0.1
		s-0.5,0-0.6-0.1v-6.4l0.1-0.1h0.5c0.4,0,0.7,0.3,0.7,0.8c0.7-0.6,1.3-0.9,2.1-0.9c0.6,0,1,0.2,1.3,0.6
		C126.6,50.3,126.7,50.8,126.7,51.5z"/>
	<path fill="#FFFFFF" d="M133,50c0.6,0.6,0.9,1.5,0.9,2.7c0,1.2-0.3,2-0.9,2.7c-0.5,0.5-1.1,0.7-1.9,0.7s-1.4-0.2-1.9-0.7
		c-0.6-0.6-0.9-1.5-0.9-2.7c0-1.2,0.3-2,0.9-2.7c0.5-0.5,1.1-0.7,1.9-0.7S132.5,49.6,133,50z M129.6,52.7c0,1.6,0.5,2.4,1.5,2.4
		s1.5-0.8,1.5-2.4c0-0.5,0-0.8-0.1-1.2s-0.2-0.6-0.5-0.9c-0.2-0.2-0.5-0.4-0.9-0.4s-0.7,0.1-0.9,0.4c-0.2,0.2-0.4,0.5-0.5,0.9
		S129.6,52.2,129.6,52.7z"/>
	<path fill="#FFFFFF" d="M137.8,55.4c0-0.1,0.1-0.3,0.1-0.5c0.1-0.2,0.2-0.3,0.3-0.4c0.7,0.4,1.3,0.6,1.7,0.6s0.8-0.1,1-0.2
		s0.3-0.4,0.3-0.6c0-0.4-0.3-0.7-0.8-0.9l-0.7-0.3c-1.1-0.4-1.7-1-1.7-1.8c0-0.6,0.2-1,0.6-1.4c0.4-0.3,1-0.5,1.7-0.5s1.4,0.2,2,0.5
		c0,0.2,0,0.3-0.1,0.5c-0.1,0.2-0.2,0.3-0.3,0.4c-0.6-0.3-1.2-0.4-1.7-0.4c-0.3,0-0.5,0.1-0.7,0.2c-0.2,0.1-0.3,0.3-0.3,0.5
		s0.1,0.4,0.2,0.5c0.1,0.1,0.3,0.2,0.6,0.4l0.8,0.3c1.1,0.4,1.6,1.1,1.6,2c0,0.6-0.2,1-0.7,1.4s-1.1,0.5-1.8,0.5
		S138.5,55.8,137.8,55.4z"/>
	<path fill="#FFFFFF" d="M148.8,53.1h-3.9c0,0.6,0.2,1.1,0.4,1.4s0.6,0.5,1.2,0.5s1.1-0.2,1.8-0.5c0.2,0.2,0.4,0.5,0.4,0.8
		c-0.7,0.5-1.5,0.7-2.4,0.7s-1.6-0.3-2-0.9c-0.4-0.6-0.6-1.4-0.6-2.4s0.2-1.8,0.7-2.4c0.5-0.6,1.1-0.9,1.9-0.9
		c0.8,0,1.5,0.3,1.9,0.8c0.5,0.5,0.7,1.2,0.7,2C148.9,52.4,148.8,52.8,148.8,53.1z M147.3,50.7c-0.2-0.3-0.6-0.5-1-0.5
		c-0.4,0-0.8,0.2-1,0.5c-0.2,0.3-0.4,0.8-0.4,1.4h2.7V52C147.6,51.5,147.5,51.1,147.3,50.7z"/>
	<path fill="#FFFFFF" d="M150.5,53.9v-3.1c0-0.5-0.1-0.9-0.2-1.2c0.2-0.2,0.4-0.3,0.7-0.3s0.5,0.1,0.6,0.2c0.1,0.1,0.1,0.3,0.1,0.6
		v3.4c0,0.5,0.1,0.8,0.2,1c0.1,0.2,0.3,0.3,0.6,0.3c0.3,0,0.6-0.1,0.9-0.2c0.3-0.2,0.6-0.4,0.8-0.6v-4.5c0.2,0,0.4-0.1,0.6-0.1
		s0.4,0,0.6,0.1v4.6c0,0.6,0.1,1,0.4,1.3c-0.1,0.3-0.2,0.5-0.5,0.6c-0.5-0.1-0.9-0.4-1-0.9c-0.7,0.7-1.4,1-2.2,1
		c-0.6,0-1-0.2-1.3-0.6C150.7,55,150.5,54.5,150.5,53.9z"/>
	<path fill="#FFFFFF" d="M162.3,56.1c-0.7,0-1.3-0.3-1.7-0.9c-0.4-0.6-0.6-1.4-0.6-2.5s0.2-1.9,0.7-2.4c0.5-0.6,1.1-0.9,1.7-0.9
		c0.5,0,1,0.1,1.5,0.4v-3.4l0.1-0.1h0.5c0.3,0,0.4,0.1,0.5,0.2c0.1,0.1,0.1,0.3,0.1,0.6v6.9c0,0.6,0.1,1,0.4,1.3
		c-0.1,0.3-0.3,0.5-0.5,0.6c-0.5-0.1-0.8-0.4-1-0.8C163.7,55.8,163.1,56.1,162.3,56.1z M162.6,55c0.6,0,1.1-0.3,1.5-0.9v-3.3
		c-0.5-0.3-0.9-0.5-1.3-0.5c-0.4,0-0.7,0.2-1,0.6c-0.3,0.4-0.4,1-0.4,1.7c0,0.8,0.1,1.3,0.3,1.7C161.9,54.8,162.2,55,162.6,55z"/>
	<path fill="#FFFFFF" d="M172.1,53.1h-3.9c0,0.6,0.2,1.1,0.4,1.4s0.6,0.5,1.2,0.5s1.1-0.2,1.8-0.5c0.2,0.2,0.4,0.5,0.4,0.8
		c-0.7,0.5-1.5,0.7-2.4,0.7s-1.6-0.3-2-0.9c-0.4-0.6-0.6-1.4-0.6-2.4s0.2-1.8,0.7-2.4c0.5-0.6,1.1-0.9,1.9-0.9
		c0.8,0,1.5,0.3,1.9,0.8c0.5,0.5,0.7,1.2,0.7,2C172.2,52.4,172.2,52.8,172.1,53.1z M170.7,50.7c-0.2-0.3-0.6-0.5-1-0.5
		c-0.4,0-0.8,0.2-1,0.5c-0.2,0.3-0.4,0.8-0.4,1.4h2.7V52C171,51.5,170.9,51.1,170.7,50.7z"/>
	<path fill="#FFFFFF" d="M173.3,55.4c0-0.1,0.1-0.3,0.1-0.5c0.1-0.2,0.2-0.3,0.3-0.4c0.7,0.4,1.3,0.6,1.7,0.6s0.8-0.1,1-0.2
		s0.3-0.4,0.3-0.6c0-0.4-0.3-0.7-0.8-0.9l-0.7-0.3c-1.1-0.4-1.7-1-1.7-1.8c0-0.6,0.2-1,0.6-1.4c0.4-0.3,1-0.5,1.7-0.5s1.4,0.2,2,0.5
		c0,0.2,0,0.3-0.1,0.5c-0.1,0.2-0.2,0.3-0.3,0.4c-0.6-0.3-1.2-0.4-1.7-0.4c-0.3,0-0.5,0.1-0.7,0.2c-0.2,0.1-0.3,0.3-0.3,0.5
		s0.1,0.4,0.2,0.5c0.1,0.1,0.3,0.2,0.6,0.4l0.8,0.3c1.1,0.4,1.6,1.1,1.6,2c0,0.6-0.2,1-0.7,1.4s-1.1,0.5-1.8,0.5
		S174,55.8,173.3,55.4z"/>
	<path fill="#FFFFFF" d="M182.7,49.5c0,0.1,0.1,0.3,0.1,0.5s0,0.3-0.1,0.5l-1.6,0v4c0,0.4,0.2,0.6,0.5,0.6h0.9
		c0.1,0.2,0.1,0.3,0.1,0.5c0,0.2,0,0.3,0,0.4c-0.5,0.1-1,0.1-1.4,0.1c-0.9,0-1.3-0.4-1.3-1.3v-4.3l-0.9,0c0-0.1-0.1-0.3-0.1-0.5
		s0-0.3,0.1-0.5l0.9,0v-1.2c0-0.3,0-0.5,0.1-0.6c0.1-0.1,0.3-0.2,0.5-0.2h0.5l0.1,0.1v1.9L182.7,49.5z"/>
	<path fill="#FFFFFF" d="M185.7,50.6v5.3c-0.1,0-0.4,0.1-0.6,0.1s-0.5,0-0.6-0.1v-4.8c0-0.2,0-0.4-0.1-0.5c-0.1-0.1-0.2-0.2-0.4-0.2
		h-0.1c0-0.1-0.1-0.3-0.1-0.4c0-0.2,0-0.3,0.1-0.5c0.3,0,0.5-0.1,0.8-0.1h0.2c0.3,0,0.6,0.1,0.7,0.3
		C185.6,49.9,185.7,50.2,185.7,50.6z M184.1,47.7c0-0.2,0-0.4,0.1-0.6c0.2-0.1,0.4-0.2,0.7-0.2s0.5,0.1,0.7,0.2
		c0.1,0.2,0.1,0.3,0.1,0.6c0,0.2,0,0.4-0.1,0.6c-0.1,0.1-0.4,0.2-0.7,0.2c-0.3,0-0.5-0.1-0.7-0.2C184.1,48.1,184.1,47.9,184.1,47.7z
		"/>
	<path fill="#FFFFFF" d="M192.9,51.5v3.1c0,0.5,0.1,0.9,0.2,1.2c-0.2,0.2-0.5,0.3-0.8,0.3c-0.5,0-0.7-0.3-0.7-0.8v-3.4
		c0-0.5-0.1-0.8-0.2-1c-0.1-0.2-0.3-0.3-0.6-0.3s-0.6,0.1-0.9,0.2c-0.3,0.2-0.6,0.4-0.8,0.6v4.5c-0.1,0-0.4,0.1-0.6,0.1
		s-0.5,0-0.6-0.1v-6.4l0.1-0.1h0.5c0.4,0,0.7,0.3,0.7,0.8c0.7-0.6,1.3-0.9,2.1-0.9c0.6,0,1,0.2,1.3,0.6
		C192.7,50.3,192.9,50.8,192.9,51.5z"/>
	<path fill="#FFFFFF" d="M199.1,50c0.6,0.6,0.9,1.5,0.9,2.7c0,1.2-0.3,2-0.9,2.7c-0.5,0.5-1.1,0.7-1.9,0.7s-1.4-0.2-1.9-0.7
		c-0.6-0.6-0.9-1.5-0.9-2.7c0-1.2,0.3-2,0.9-2.7c0.5-0.5,1.1-0.7,1.9-0.7S198.6,49.6,199.1,50z M195.8,52.7c0,1.6,0.5,2.4,1.5,2.4
		s1.5-0.8,1.5-2.4c0-0.5,0-0.8-0.1-1.2s-0.2-0.6-0.5-0.9c-0.2-0.2-0.5-0.4-0.9-0.4s-0.7,0.1-0.9,0.4c-0.2,0.2-0.4,0.5-0.5,0.9
		S195.8,52.2,195.8,52.7z"/>
	<path fill="#FFFFFF" d="M209.5,53h-5.2c0-0.1-0.1-0.3-0.1-0.5s0-0.4,0.1-0.5h5.2c0,0.2,0.1,0.3,0.1,0.5
		C209.5,52.7,209.5,52.8,209.5,53z"/>
	<path fill="#FFFFFF" d="M51.4,68.3c0,1.2-0.3,2-0.9,2.7c-0.5,0.5-1.1,0.7-2,0.7c-0.8,0-1.5-0.2-2-0.7c-0.6-0.6-0.9-1.5-0.9-2.7
		c0-1.2,0.3-2,0.9-2.7c0.5-0.5,1.1-0.7,2-0.7c0.8,0,1.5,0.2,2,0.7C51.1,66.2,51.4,67.1,51.4,68.3z M48.5,66.1
		c-0.8,0-1.2,0.7-1.2,2.2s0.4,2.2,1.2,2.2c0.8,0,1.2-0.7,1.2-2.2S49.4,66.1,48.5,66.1z"/>
	<path fill="#FFFFFF" d="M56,71.5v-5.3l-1.1,0c0-0.2-0.1-0.4-0.1-0.6c0-0.2,0-0.4,0.1-0.6l1,0c-0.1-0.5-0.1-0.8-0.1-1.1
		c0-0.6,0.2-1.1,0.6-1.5c0.4-0.4,0.9-0.6,1.5-0.6c0.6,0,1.2,0.1,1.8,0.3c0,0.5-0.1,0.8-0.4,1.1c-0.4-0.1-0.8-0.2-1.1-0.2
		c-0.3,0-0.5,0.1-0.7,0.3c-0.2,0.2-0.2,0.4-0.2,0.7c0,0.3,0,0.6,0.1,1l1.8,0c0,0.2,0.1,0.4,0.1,0.6c0,0.2,0,0.4-0.1,0.6l-1.7,0v5.3
		c-0.3,0-0.5,0.1-0.8,0.1S56.3,71.5,56,71.5z"/>
	<path fill="#FFFFFF" d="M65.4,70.8c0,0.1-0.1,0.3-0.2,0.5s-0.2,0.3-0.3,0.4c-0.5-0.1-0.9-0.3-1.2-0.8c-0.6,0.6-1.2,0.8-1.9,0.8
		s-1.2-0.2-1.5-0.6c-0.3-0.4-0.5-0.8-0.5-1.4c0-0.7,0.2-1.3,0.7-1.6c0.5-0.4,1.1-0.6,1.8-0.6c0.4,0,0.8,0,1.1,0.1v-0.4
		c0-0.7-0.3-1-1-1c-0.5,0-1.1,0.2-2,0.5C60.2,66.4,60,66,60,65.5c0.9-0.4,1.9-0.6,2.8-0.6c0.7,0,1.2,0.2,1.6,0.5
		c0.4,0.4,0.6,0.9,0.6,1.7v2.7C65,70.2,65.1,70.6,65.4,70.8z M62.1,70.4c0.5,0,0.9-0.2,1.3-0.6v-1.2c-0.3,0-0.6-0.1-1-0.1
		s-0.6,0.1-0.8,0.3c-0.2,0.2-0.3,0.4-0.3,0.7s0.1,0.5,0.2,0.6S61.9,70.4,62.1,70.4z"/>
	<path fill="#FFFFFF" d="M66.4,65.8c0-0.1,0.1-0.3,0.2-0.5c0.1-0.2,0.2-0.3,0.3-0.4c0.7,0.1,1.1,0.5,1.4,1.2
		c0.3-0.8,0.9-1.2,1.7-1.2c0.2,0,0.5,0,0.8,0.1c0,0.6-0.1,1.1-0.4,1.5c-0.1,0-0.3-0.1-0.6-0.1c-0.5,0-1,0.3-1.3,0.8v4.2
		c-0.2,0-0.5,0.1-0.8,0.1s-0.6,0-0.8-0.1v-4.4C66.9,66.5,66.7,66.1,66.4,65.8z"/>
	<path fill="#FFFFFF" d="M77.1,68.3c0,1.2-0.3,2-0.9,2.7c-0.5,0.5-1.1,0.7-2,0.7c-0.8,0-1.5-0.2-2-0.7c-0.6-0.6-0.9-1.5-0.9-2.7
		c0-1.2,0.3-2,0.9-2.7c0.5-0.5,1.1-0.7,2-0.7c0.8,0,1.5,0.2,2,0.7C76.7,66.2,77.1,67.1,77.1,68.3z M74.2,66.1
		c-0.8,0-1.2,0.7-1.2,2.2s0.4,2.2,1.2,2.2c0.8,0,1.2-0.7,1.2-2.2S75,66.1,74.2,66.1z"/>
	<path fill="#FFFFFF" d="M80.6,70.3H81c0.1,0.3,0.1,0.5,0.1,0.7s0,0.4,0,0.5c-0.5,0.1-0.9,0.1-1.2,0.1c-0.9,0-1.4-0.5-1.4-1.5v-8
		l0.1-0.1h0.6c0.3,0,0.5,0.1,0.7,0.2c0.1,0.2,0.2,0.4,0.2,0.8v6.8C80,70.1,80.2,70.3,80.6,70.3z"/>
	<path fill="#FFFFFF" d="M87.1,71.7c-0.7,0-1.3-0.3-1.7-0.9c-0.4-0.6-0.6-1.4-0.6-2.5c0-1,0.2-1.9,0.7-2.5c0.5-0.6,1.1-0.9,1.8-0.9
		c0.4,0,0.9,0.1,1.4,0.4V62l0.1-0.1h0.6c0.3,0,0.5,0.1,0.7,0.2c0.1,0.2,0.2,0.4,0.2,0.8v6.7c0,0.5,0.1,0.9,0.4,1.1
		c0,0.1-0.1,0.3-0.2,0.5c-0.1,0.2-0.2,0.3-0.3,0.4c-0.5-0.1-0.9-0.3-1.2-0.8C88.5,71.4,87.8,71.7,87.1,71.7z M87.5,70.3
		c0.5,0,0.9-0.2,1.2-0.7v-3.1c-0.4-0.3-0.8-0.4-1.2-0.4s-0.6,0.2-0.8,0.6c-0.2,0.4-0.3,0.9-0.3,1.6s0.1,1.2,0.3,1.5
		C87,70.2,87.2,70.3,87.5,70.3z"/>
	<path fill="#FFFFFF" d="M97.5,68.3c0,1.2-0.3,2-0.9,2.7c-0.5,0.5-1.1,0.7-2,0.7c-0.8,0-1.5-0.2-2-0.7c-0.6-0.6-0.9-1.5-0.9-2.7
		c0-1.2,0.3-2,0.9-2.7c0.5-0.5,1.1-0.7,2-0.7c0.8,0,1.5,0.2,2,0.7C97.2,66.2,97.5,67.1,97.5,68.3z M94.7,66.1
		c-0.8,0-1.2,0.7-1.2,2.2s0.4,2.2,1.2,2.2c0.8,0,1.2-0.7,1.2-2.2S95.5,66.1,94.7,66.1z"/>
	<path fill="#FFFFFF" d="M105.1,67.7c0-0.1,0-0.1,0-0.2c0-0.4-0.1-0.8-0.2-1c-0.1-0.3-0.4-0.4-0.8-0.4c-0.7,0-1.1,0.7-1.1,2.2
		c0,1.4,0.4,2.2,1.3,2.2c0.5,0,1-0.2,1.5-0.6c0.1,0.1,0.3,0.2,0.4,0.4c0.1,0.2,0.2,0.4,0.2,0.5c-0.7,0.7-1.4,1-2.4,1
		c-0.9,0-1.6-0.3-2.1-0.9s-0.7-1.5-0.7-2.5c0-1.1,0.3-1.9,0.8-2.5c0.5-0.6,1.2-0.9,2-0.9s1.3,0.2,1.8,0.6s0.7,0.9,0.7,1.4
		c0,0.6-0.3,0.8-0.8,0.8C105.6,67.7,105.4,67.7,105.1,67.7z"/>
	<path fill="#FFFFFF" d="M113.3,68.3c0,1.2-0.3,2-0.9,2.7c-0.5,0.5-1.1,0.7-2,0.7c-0.8,0-1.5-0.2-2-0.7c-0.6-0.6-0.9-1.5-0.9-2.7
		c0-1.2,0.3-2,0.9-2.7c0.5-0.5,1.1-0.7,2-0.7c0.8,0,1.5,0.2,2,0.7C113,66.2,113.3,67.1,113.3,68.3z M110.4,66.1
		c-0.8,0-1.2,0.7-1.2,2.2s0.4,2.2,1.2,2.2c0.8,0,1.2-0.7,1.2-2.2S111.2,66.1,110.4,66.1z"/>
	<path fill="#FFFFFF" d="M120,67.1V70c0,0.5,0.1,0.9,0.3,1.2c-0.3,0.2-0.6,0.3-1,0.3c-0.4,0-0.6-0.1-0.7-0.2
		c-0.1-0.2-0.2-0.4-0.2-0.8v-3.1c0-0.4-0.1-0.7-0.2-0.8c-0.1-0.2-0.3-0.3-0.6-0.3c-0.5,0-0.9,0.2-1.4,0.7v4.5
		c-0.2,0-0.5,0.1-0.8,0.1s-0.6,0-0.8-0.1v-6.4l0.1-0.1h0.6c0.5,0,0.8,0.3,0.9,0.8c0.6-0.6,1.3-0.8,1.9-0.8c0.6,0,1.1,0.2,1.4,0.6
		S120,66.5,120,67.1z"/>
	<path fill="#FFFFFF" d="M127.1,67.1V70c0,0.5,0.1,0.9,0.3,1.2c-0.3,0.2-0.6,0.3-0.9,0.3c-0.4,0-0.6-0.1-0.7-0.2
		c-0.1-0.2-0.2-0.4-0.2-0.8v-3.1c0-0.4,0-0.7-0.1-0.9s-0.3-0.3-0.6-0.3c-0.5,0-1,0.2-1.4,0.7v4.4c-0.2,0-0.5,0.1-0.8,0.1
		c-0.3,0-0.5,0-0.8-0.1V62l0.1-0.1h0.6c0.3,0,0.6,0.1,0.7,0.2c0.1,0.2,0.2,0.4,0.2,0.8v2.8c0.6-0.5,1.2-0.8,1.9-0.8
		c0.6,0,1.1,0.2,1.4,0.6C126.9,65.9,127.1,66.5,127.1,67.1z"/>
	<path fill="#FFFFFF" d="M133.8,68.8h-3.6c0,0.5,0.1,0.9,0.3,1.2c0.2,0.3,0.6,0.4,1.1,0.4c0.5,0,1.1-0.2,1.7-0.5
		c0.2,0.2,0.4,0.6,0.5,1c-0.7,0.5-1.5,0.7-2.5,0.7c-1,0-1.7-0.3-2.1-0.9c-0.4-0.6-0.6-1.5-0.6-2.5c0-1,0.2-1.8,0.7-2.5
		s1.1-0.9,2-0.9s1.5,0.3,2,0.8c0.5,0.5,0.7,1.2,0.7,2C133.9,68,133.8,68.4,133.8,68.8z M131.3,66c-0.7,0-1.1,0.5-1.1,1.6h2.3v-0.2
		c0-0.4-0.1-0.8-0.3-1.1C131.9,66.2,131.6,66,131.3,66z"/>
	<path fill="#FFFFFF" d="M138.7,67.7c0-0.1,0-0.1,0-0.2c0-0.4-0.1-0.8-0.2-1c-0.1-0.3-0.4-0.4-0.8-0.4c-0.7,0-1.1,0.7-1.1,2.2
		c0,1.4,0.4,2.2,1.3,2.2c0.5,0,1-0.2,1.5-0.6c0.1,0.1,0.3,0.2,0.4,0.4c0.1,0.2,0.2,0.4,0.2,0.5c-0.7,0.7-1.4,1-2.4,1
		c-0.9,0-1.6-0.3-2.1-0.9s-0.7-1.5-0.7-2.5c0-1.1,0.3-1.9,0.8-2.5c0.5-0.6,1.2-0.9,2-0.9s1.3,0.2,1.8,0.6s0.7,0.9,0.7,1.4
		c0,0.6-0.3,0.8-0.8,0.8C139.2,67.7,138.9,67.7,138.7,67.7z"/>
	<path fill="#FFFFFF" d="M143.5,66.3v5.2c-0.2,0-0.5,0.1-0.8,0.1s-0.6,0-0.8-0.1v-4.6c0-0.5-0.2-0.7-0.6-0.7h-0.2
		c0-0.1-0.1-0.3-0.1-0.6c0-0.2,0-0.4,0.1-0.6c0.3,0,0.6-0.1,0.9-0.1h0.2c0.4,0,0.7,0.1,0.9,0.4C143.4,65.6,143.5,65.9,143.5,66.3z
		 M141.6,63.9c-0.1-0.2-0.1-0.4-0.1-0.6s0-0.4,0.1-0.6c0.2-0.1,0.5-0.2,0.8-0.2c0.3,0,0.6,0.1,0.8,0.2c0.1,0.2,0.1,0.4,0.1,0.6
		s0,0.4-0.1,0.6c-0.2,0.1-0.5,0.2-0.8,0.2C142,64.1,141.8,64,141.6,63.9z"/>
	<path fill="#FFFFFF" d="M148.8,67.5c0-0.7-0.2-1.1-0.7-1.1c-0.4,0-0.8,0.2-1.2,0.7v4.5c-0.2,0-0.5,0.1-0.8,0.1s-0.6,0-0.8-0.1v-6.4
		l0.1-0.1h0.6c0.5,0,0.8,0.3,0.9,0.8c0.6-0.6,1.2-0.9,1.9-0.9s1.1,0.3,1.4,0.9c0.7-0.6,1.3-0.9,2-0.9c0.5,0,1,0.2,1.3,0.6
		c0.3,0.4,0.4,0.9,0.4,1.5v3c0,0.5,0.1,0.9,0.3,1.2c-0.3,0.2-0.6,0.3-0.9,0.3s-0.6-0.1-0.7-0.2c-0.1-0.2-0.2-0.4-0.2-0.8v-3.1
		c0-0.7-0.2-1.1-0.7-1.1c-0.4,0-0.8,0.2-1.2,0.7v4.4c-0.2,0-0.5,0.1-0.8,0.1s-0.6,0-0.8-0.1V67.5z"/>
	<path fill="#FFFFFF" d="M160.6,68.8H157c0,0.5,0.1,0.9,0.3,1.2c0.2,0.3,0.6,0.4,1.1,0.4c0.5,0,1.1-0.2,1.7-0.5
		c0.2,0.2,0.4,0.6,0.5,1c-0.7,0.5-1.5,0.7-2.5,0.7c-1,0-1.7-0.3-2.1-0.9c-0.4-0.6-0.6-1.5-0.6-2.5c0-1,0.2-1.8,0.7-2.5
		s1.1-0.9,2-0.9s1.5,0.3,2,0.8c0.5,0.5,0.7,1.2,0.7,2C160.7,68,160.7,68.4,160.6,68.8z M158.1,66c-0.7,0-1.1,0.5-1.1,1.6h2.3v-0.2
		c0-0.4-0.1-0.8-0.3-1.1C158.8,66.2,158.5,66,158.1,66z"/>
	<path fill="#FFFFFF" d="M167.5,67.1V70c0,0.5,0.1,0.9,0.3,1.2c-0.3,0.2-0.6,0.3-1,0.3c-0.4,0-0.6-0.1-0.7-0.2
		c-0.1-0.2-0.2-0.4-0.2-0.8v-3.1c0-0.4-0.1-0.7-0.2-0.8c-0.1-0.2-0.3-0.3-0.6-0.3c-0.5,0-0.9,0.2-1.4,0.7v4.5
		c-0.2,0-0.5,0.1-0.8,0.1s-0.6,0-0.8-0.1v-6.4l0.1-0.1h0.6c0.5,0,0.8,0.3,0.9,0.8c0.6-0.6,1.3-0.8,1.9-0.8c0.6,0,1.1,0.2,1.4,0.6
		S167.5,66.5,167.5,67.1z"/>
	<path fill="#FFFFFF" d="M172.7,65c0,0.2,0.1,0.4,0.1,0.6c0,0.2,0,0.4-0.1,0.6l-1.6,0v3.5c0,0.4,0.2,0.6,0.6,0.6h0.8
		c0.1,0.3,0.1,0.5,0.1,0.7s0,0.4,0,0.5c-0.5,0.1-1.1,0.1-1.5,0.1c-1,0-1.5-0.5-1.5-1.5v-3.8l-1,0c0-0.2-0.1-0.4-0.1-0.6
		c0-0.2,0-0.4,0.1-0.6l1,0v-1c0-0.4,0.1-0.6,0.2-0.8s0.4-0.2,0.7-0.2h0.6l0.1,0.1v1.9L172.7,65z"/>
	<path fill="#FFFFFF" d="M179.3,68.3c0,1.2-0.3,2-0.9,2.7c-0.5,0.5-1.1,0.7-2,0.7c-0.8,0-1.5-0.2-2-0.7c-0.6-0.6-0.9-1.5-0.9-2.7
		c0-1.2,0.3-2,0.9-2.7c0.5-0.5,1.1-0.7,2-0.7c0.8,0,1.5,0.2,2,0.7C179,66.2,179.3,67.1,179.3,68.3z M176.5,66.1
		c-0.8,0-1.2,0.7-1.2,2.2s0.4,2.2,1.2,2.2c0.8,0,1.2-0.7,1.2-2.2S177.3,66.1,176.5,66.1z"/>
	<path fill="#FFFFFF" d="M181.7,69.9c0.3,0,0.6,0.1,0.8,0.2c0.1,0.1,0.1,0.3,0.1,0.7s0,0.5-0.1,0.7c-0.2,0.1-0.5,0.2-0.8,0.2
		s-0.6-0.1-0.8-0.2c-0.1-0.2-0.1-0.4-0.1-0.7c0-0.3,0-0.5,0.1-0.7C181.1,70,181.4,69.9,181.7,69.9z M181.1,68.9l-0.2-5.9
		c0.4-0.3,1-0.5,1.7-0.5l0.1,0.1l-0.4,6.3c-0.2,0.1-0.4,0.1-0.6,0.1C181.5,69,181.3,68.9,181.1,68.9z"/>
	<path fill="#FFFFFF" d="M50.9,80.2C50.9,80.2,50.9,80.2,50.9,80.2c0-0.5-0.2-1-0.5-1.4c-0.3-0.4-0.8-0.6-1.5-0.6
		c-0.7,0-1.2,0.3-1.6,0.9c-0.4,0.6-0.6,1.5-0.6,2.6s0.2,2,0.6,2.6c0.4,0.6,1,0.9,1.7,0.9c0.7,0,1.4-0.3,2.2-1
		c0.2,0.1,0.4,0.3,0.5,0.6c-0.3,0.3-0.7,0.6-1.2,0.8s-1,0.3-1.7,0.3s-1.2-0.2-1.6-0.6c-0.8-0.7-1.3-1.9-1.3-3.6
		c0-1.4,0.3-2.5,0.9-3.2s1.3-1.1,2.2-1.1c0.9,0,1.5,0.2,2.1,0.7c0.5,0.5,0.8,1,0.8,1.6c0,0.3-0.2,0.5-0.5,0.5
		C51.2,80.3,51,80.3,50.9,80.2z"/>
	<path fill="#FFFFFF" d="M54.7,85.3h0.5c0,0.1,0.1,0.2,0.1,0.4s0,0.2,0,0.2c-0.3,0-0.6,0.1-0.9,0.1c-0.3,0-0.5-0.1-0.7-0.3
		s-0.3-0.4-0.3-0.7v-7.8l0.1-0.1h0.3c0.2,0,0.3,0,0.3,0.1c0.1,0.1,0.1,0.2,0.1,0.4v7.1C54.2,85.1,54.4,85.3,54.7,85.3z"/>
	<path fill="#FFFFFF" d="M57.7,80.8v5.1c-0.1,0-0.2,0-0.4,0s-0.3,0-0.4,0v-4.7c0-0.2,0-0.4-0.1-0.5c-0.1-0.1-0.2-0.1-0.4-0.1h-0.1
		c0-0.1,0-0.2,0-0.3s0-0.2,0-0.3c0.2,0,0.4,0,0.6,0H57c0.2,0,0.4,0.1,0.5,0.2C57.6,80.3,57.7,80.5,57.7,80.8z M56.6,78.8
		c-0.1-0.1-0.1-0.3-0.1-0.4s0-0.3,0.1-0.4c0.1-0.1,0.3-0.1,0.5-0.1c0.2,0,0.4,0,0.5,0.1c0.1,0.1,0.1,0.2,0.1,0.4s0,0.3-0.1,0.4
		c-0.1,0.1-0.2,0.1-0.5,0.1S56.7,78.9,56.6,78.8z"/>
	<path fill="#FFFFFF" d="M63.2,87.9v-2.7c-0.5,0.5-1.1,0.8-1.7,0.8c-0.7,0-1.2-0.3-1.5-0.8c-0.4-0.5-0.5-1.3-0.5-2.3
		c0-1,0.2-1.7,0.7-2.3c0.5-0.5,1-0.8,1.6-0.8c0.6,0,1.2,0.2,1.6,0.6c0.1-0.3,0.3-0.5,0.6-0.6c0.2,0.1,0.3,0.2,0.4,0.4
		c-0.2,0.2-0.3,0.7-0.3,1.3v6.7l-0.1,0.1h-0.3c-0.2,0-0.3,0-0.3-0.1C63.2,88.3,63.2,88.1,63.2,87.9z M61.5,85.3
		c0.6,0,1.2-0.3,1.6-0.9v-3.2c-0.5-0.4-0.9-0.6-1.4-0.6s-0.8,0.2-1.1,0.6c-0.3,0.4-0.4,1-0.4,1.8c0,0.8,0.1,1.4,0.4,1.7
		C60.8,85.1,61.1,85.3,61.5,85.3z"/>
	<path fill="#FFFFFF" d="M66,84.1v-3c0-0.5,0-0.8-0.1-1c0.1-0.1,0.3-0.2,0.5-0.2c0.3,0,0.4,0.2,0.4,0.5v3.4c0,0.5,0.1,0.9,0.2,1.1
		s0.4,0.3,0.7,0.3s0.7-0.1,1-0.3c0.4-0.2,0.7-0.4,0.9-0.7V80c0.1,0,0.2,0,0.4,0s0.3,0,0.4,0v4.2c0,0.7,0.1,1.1,0.3,1.3
		c-0.1,0.2-0.2,0.3-0.4,0.4c-0.4-0.2-0.6-0.4-0.7-0.9c-0.3,0.3-0.6,0.5-1,0.7C68.3,85.9,68,86,67.6,86c-0.5,0-0.9-0.2-1.2-0.5
		C66.2,85.1,66,84.7,66,84.1z"/>
	<path fill="#FFFFFF" d="M76.9,83.2h-3.8c0,1.4,0.6,2.1,1.6,2.1c0.6,0,1.1-0.2,1.8-0.5c0.2,0.2,0.3,0.3,0.3,0.6
		c-0.6,0.4-1.4,0.7-2.2,0.7c-0.6,0-1-0.1-1.4-0.4c-0.4-0.3-0.6-0.7-0.8-1.1c-0.1-0.4-0.2-1-0.2-1.5c0-0.9,0.2-1.6,0.6-2.2
		c0.4-0.6,1-0.9,1.7-0.9c0.7,0,1.3,0.2,1.7,0.7c0.4,0.5,0.6,1.1,0.6,1.8C76.9,82.7,76.9,82.9,76.9,83.2z M75.7,81
		c-0.2-0.4-0.6-0.5-1.1-0.5c-0.5,0-0.8,0.2-1.1,0.6c-0.3,0.4-0.4,0.9-0.4,1.5h3v-0.2C76.1,81.8,75.9,81.4,75.7,81z"/>
	<path fill="#FFFFFF" d="M85.8,81.8v3c0,0.5,0,0.8,0.1,1c-0.1,0.1-0.3,0.2-0.5,0.2c-0.3,0-0.4-0.2-0.4-0.5V82c0-0.5-0.1-0.9-0.2-1.1
		c-0.1-0.2-0.4-0.3-0.7-0.3s-0.7,0.1-1,0.3c-0.4,0.2-0.7,0.4-0.9,0.7v4.3c-0.1,0-0.2,0-0.4,0c-0.2,0-0.3,0-0.4,0V80l0.1-0.1h0.3
		c0.2,0,0.3,0,0.3,0.1c0.1,0.1,0.1,0.2,0.1,0.4v0.2c0.3-0.3,0.6-0.5,1-0.6s0.8-0.2,1.1-0.2c0.5,0,0.9,0.2,1.2,0.5
		S85.8,81.2,85.8,81.8z"/>
	<path fill="#FFFFFF" d="M92.4,83c0,1.1-0.3,1.9-0.8,2.4c-0.4,0.4-1,0.6-1.6,0.6s-1.2-0.2-1.6-0.6c-0.6-0.6-0.8-1.4-0.8-2.4
		c0-1.1,0.3-1.9,0.8-2.4c0.4-0.4,1-0.6,1.6-0.6s1.2,0.2,1.6,0.6C92.1,81.1,92.4,81.9,92.4,83z M89.9,80.5c-0.6,0-1,0.2-1.2,0.7
		s-0.4,1.1-0.4,1.7c0,0.7,0.1,1.3,0.4,1.7s0.7,0.7,1.2,0.7c0.4,0,0.7-0.1,1-0.4c0.4-0.4,0.7-1.1,0.7-2.1c0-0.7-0.1-1.3-0.4-1.7
		C90.9,80.7,90.5,80.5,89.9,80.5z"/>
	<path fill="#FFFFFF" d="M97,85.9v-5.3l-1,0c0-0.1,0-0.2,0-0.3c0-0.1,0-0.2,0-0.3l1,0c-0.1-0.7-0.1-1.2-0.1-1.3
		c0-0.5,0.1-0.9,0.4-1.2S98,77,98.5,77s1,0.1,1.4,0.3c0,0.2-0.1,0.4-0.2,0.6c-0.4-0.1-0.8-0.2-1.1-0.2s-0.5,0.1-0.7,0.3
		c-0.2,0.2-0.3,0.5-0.3,0.8c0,0.4,0,0.8,0.1,1.3l1.8,0c0,0.1,0,0.2,0,0.3c0,0.1,0,0.2,0,0.3l-1.7,0v5.3c-0.1,0-0.3,0-0.4,0
		S97.1,85.9,97,85.9z"/>
	<path fill="#FFFFFF" d="M104.8,85.6c-0.1,0.2-0.2,0.3-0.4,0.4c-0.4-0.2-0.6-0.4-0.7-0.9c-0.6,0.6-1.3,0.9-1.9,0.9
		c-0.5,0-1-0.2-1.3-0.5c-0.3-0.3-0.5-0.8-0.5-1.2c0-0.6,0.2-1.1,0.6-1.4c0.4-0.3,0.9-0.5,1.6-0.5c0.5,0,0.9,0,1.4,0.1v-0.6
		c0-0.8-0.4-1.3-1.1-1.3c-0.6,0-1.2,0.2-2,0.5c-0.1-0.1-0.1-0.2-0.2-0.3c-0.1-0.1-0.1-0.2-0.1-0.4c0.8-0.4,1.6-0.6,2.3-0.6
		c1.2,0,1.8,0.7,1.8,2v2.5C104.5,84.9,104.6,85.3,104.8,85.6z M100.9,84.2c0,0.4,0.1,0.6,0.3,0.8s0.4,0.3,0.7,0.3
		c0.3,0,0.6-0.1,0.9-0.3c0.3-0.2,0.6-0.4,0.9-0.8v-1.2c-0.4-0.1-0.9-0.1-1.3-0.1c-0.4,0-0.8,0.1-1,0.3
		C101.1,83.6,100.9,83.8,100.9,84.2z"/>
	<path fill="#FFFFFF" d="M106.3,80.4c0.1-0.2,0.2-0.4,0.4-0.5c0.4,0.2,0.7,0.5,0.8,1.1c0.4-0.7,0.9-1.1,1.6-1.1c0.2,0,0.3,0,0.5,0
		c0,0.3-0.1,0.6-0.2,0.8c-0.1,0-0.2,0-0.4,0c-0.7,0-1.2,0.4-1.5,1.1v4c-0.1,0-0.2,0-0.4,0s-0.3,0-0.4,0v-4.3
		C106.7,81.1,106.6,80.7,106.3,80.4z"/>
	<path fill="#FFFFFF" d="M115.3,83c0,1.1-0.3,1.9-0.8,2.4c-0.4,0.4-1,0.6-1.6,0.6s-1.2-0.2-1.6-0.6c-0.6-0.6-0.8-1.4-0.8-2.4
		c0-1.1,0.3-1.9,0.8-2.4c0.4-0.4,1-0.6,1.6-0.6s1.2,0.2,1.6,0.6C115,81.1,115.3,81.9,115.3,83z M112.8,80.5c-0.6,0-1,0.2-1.2,0.7
		s-0.4,1.1-0.4,1.7c0,0.7,0.1,1.3,0.4,1.7s0.7,0.7,1.2,0.7c0.4,0,0.7-0.1,1-0.4c0.4-0.4,0.7-1.1,0.7-2.1c0-0.7-0.1-1.3-0.4-1.7
		C113.8,80.7,113.4,80.5,112.8,80.5z"/>
	<path fill="#FFFFFF" d="M118.2,85.3h0.5c0,0.1,0.1,0.2,0.1,0.4s0,0.2,0,0.2c-0.3,0-0.6,0.1-0.9,0.1c-0.3,0-0.5-0.1-0.7-0.3
		S117,85.3,117,85v-7.8l0.1-0.1h0.3c0.2,0,0.3,0,0.3,0.1c0.1,0.1,0.1,0.2,0.1,0.4v7.1C117.8,85.1,117.9,85.3,118.2,85.3z"/>
	<path fill="#FFFFFF" d="M125.5,79.9c0.7,0,1.2,0.3,1.5,0.8c0.3,0.5,0.5,1.3,0.5,2.3s-0.2,1.7-0.7,2.2c-0.4,0.5-0.9,0.8-1.5,0.8
		s-1.1-0.2-1.6-0.5v2.4c0,0.2,0,0.3-0.1,0.4s-0.2,0.1-0.3,0.1h-0.3l-0.1-0.1V80l0.1-0.1h0.3c0.2,0,0.3,0,0.3,0.1s0.1,0.2,0.1,0.4
		v0.2C124.3,80.1,124.9,79.9,125.5,79.9z M126.8,82.9c0-0.8-0.1-1.4-0.4-1.7c-0.3-0.4-0.5-0.6-0.9-0.6s-0.7,0.1-1,0.3
		c-0.3,0.2-0.6,0.4-0.7,0.7v3.1c0.5,0.4,1,0.6,1.5,0.6s0.8-0.2,1.1-0.6C126.6,84.3,126.8,83.7,126.8,82.9z"/>
	<path fill="#FFFFFF" d="M133.6,85.6c-0.1,0.2-0.2,0.3-0.4,0.4c-0.4-0.2-0.6-0.4-0.7-0.9c-0.6,0.6-1.3,0.9-1.9,0.9
		c-0.5,0-1-0.2-1.3-0.5c-0.3-0.3-0.5-0.8-0.5-1.2c0-0.6,0.2-1.1,0.6-1.4c0.4-0.3,0.9-0.5,1.6-0.5c0.5,0,0.9,0,1.4,0.1v-0.6
		c0-0.8-0.4-1.3-1.1-1.3c-0.6,0-1.2,0.2-2,0.5c-0.1-0.1-0.1-0.2-0.2-0.3c-0.1-0.1-0.1-0.2-0.1-0.4c0.8-0.4,1.6-0.6,2.3-0.6
		c1.2,0,1.8,0.7,1.8,2v2.5C133.2,84.9,133.3,85.3,133.6,85.6z M129.7,84.2c0,0.4,0.1,0.6,0.3,0.8s0.4,0.3,0.7,0.3
		c0.3,0,0.6-0.1,0.9-0.3c0.3-0.2,0.6-0.4,0.9-0.8v-1.2c-0.4-0.1-0.9-0.1-1.3-0.1c-0.4,0-0.8,0.1-1,0.3
		C129.8,83.6,129.7,83.8,129.7,84.2z"/>
	<path fill="#FFFFFF" d="M135,80.4c0.1-0.2,0.2-0.4,0.4-0.5c0.4,0.2,0.7,0.5,0.8,1.1c0.4-0.7,0.9-1.1,1.6-1.1c0.2,0,0.3,0,0.5,0
		c0,0.3-0.1,0.6-0.2,0.8c-0.1,0-0.2,0-0.4,0c-0.7,0-1.2,0.4-1.5,1.1v4c-0.1,0-0.2,0-0.4,0s-0.3,0-0.4,0v-4.3
		C135.5,81.1,135.3,80.7,135,80.4z"/>
	<path fill="#FFFFFF" d="M143.7,85.6c-0.1,0.2-0.2,0.3-0.4,0.4c-0.4-0.2-0.6-0.4-0.7-0.9c-0.6,0.6-1.3,0.9-1.9,0.9
		c-0.5,0-1-0.2-1.3-0.5c-0.3-0.3-0.5-0.8-0.5-1.2c0-0.6,0.2-1.1,0.6-1.4c0.4-0.3,0.9-0.5,1.6-0.5c0.5,0,0.9,0,1.4,0.1v-0.6
		c0-0.8-0.4-1.3-1.1-1.3c-0.6,0-1.2,0.2-2,0.5c-0.1-0.1-0.1-0.2-0.2-0.3c-0.1-0.1-0.1-0.2-0.1-0.4c0.8-0.4,1.6-0.6,2.3-0.6
		c1.2,0,1.8,0.7,1.8,2v2.5C143.4,84.9,143.5,85.3,143.7,85.6z M139.8,84.2c0,0.4,0.1,0.6,0.3,0.8s0.4,0.3,0.7,0.3
		c0.3,0,0.6-0.1,0.9-0.3c0.3-0.2,0.6-0.4,0.9-0.8v-1.2c-0.4-0.1-0.9-0.1-1.3-0.1c-0.4,0-0.8,0.1-1,0.3
		C140,83.6,139.8,83.8,139.8,84.2z"/>
	<path fill="#FFFFFF" d="M147.5,85.4c0-0.2,0.1-0.4,0.3-0.6c0.7,0.4,1.2,0.6,1.6,0.6c0.4,0,0.8-0.1,1-0.3c0.2-0.2,0.4-0.4,0.4-0.7
		c0-0.4-0.3-0.8-0.9-1l-0.7-0.3c-1-0.4-1.5-0.9-1.5-1.7c0-0.5,0.2-0.9,0.6-1.2c0.4-0.3,0.9-0.4,1.5-0.4c0.6,0,1.2,0.1,1.7,0.4
		c0,0.3-0.1,0.5-0.3,0.6c-0.5-0.2-1-0.4-1.4-0.4s-0.7,0.1-0.9,0.3s-0.3,0.4-0.3,0.6c0,0.2,0.1,0.4,0.2,0.6c0.1,0.1,0.4,0.3,0.7,0.4
		l0.7,0.3c1,0.4,1.5,1,1.5,1.7c0,0.5-0.2,0.9-0.6,1.2c-0.4,0.3-0.9,0.4-1.6,0.4S148.1,85.8,147.5,85.4z"/>
	<path fill="#FFFFFF" d="M157.6,85.6c-0.1,0.2-0.2,0.3-0.4,0.4c-0.4-0.2-0.6-0.4-0.7-0.9c-0.6,0.6-1.3,0.9-1.9,0.9
		c-0.5,0-1-0.2-1.3-0.5c-0.3-0.3-0.5-0.8-0.5-1.2c0-0.6,0.2-1.1,0.6-1.4c0.4-0.3,0.9-0.5,1.6-0.5c0.5,0,0.9,0,1.4,0.1v-0.6
		c0-0.8-0.4-1.3-1.1-1.3c-0.6,0-1.2,0.2-2,0.5c-0.1-0.1-0.1-0.2-0.2-0.3c-0.1-0.1-0.1-0.2-0.1-0.4c0.8-0.4,1.6-0.6,2.3-0.6
		c1.2,0,1.8,0.7,1.8,2v2.5C157.3,84.9,157.4,85.3,157.6,85.6z M153.7,84.2c0,0.4,0.1,0.6,0.3,0.8s0.4,0.3,0.7,0.3
		c0.3,0,0.6-0.1,0.9-0.3c0.3-0.2,0.6-0.4,0.9-0.8v-1.2c-0.4-0.1-0.9-0.1-1.3-0.1c-0.4,0-0.8,0.1-1,0.3
		C153.8,83.6,153.7,83.8,153.7,84.2z"/>
	<path fill="#FFFFFF" d="M161.9,79.9c0.6,0,1.1,0.3,1.5,0.8c0.4,0.5,0.5,1.3,0.5,2.3s-0.2,1.7-0.7,2.2c-0.5,0.5-1.1,0.8-1.8,0.8
		c-0.7,0-1.4-0.1-2.1-0.4v-8.4l0.1-0.1h0.3c0.2,0,0.3,0,0.3,0.1c0.1,0.1,0.1,0.2,0.1,0.4v3C160.7,80.2,161.3,79.9,161.9,79.9z
		 M163.1,82.9c0-0.8-0.1-1.4-0.4-1.7s-0.5-0.6-0.9-0.6c-0.3,0-0.7,0.1-0.9,0.2s-0.5,0.4-0.7,0.6v3.6c0.4,0.2,0.8,0.2,1.3,0.2
		c0.5,0,0.9-0.2,1.2-0.6C163,84.3,163.1,83.7,163.1,82.9z"/>
	<path fill="#FFFFFF" d="M169.8,83.2h-3.8c0,1.4,0.6,2.1,1.6,2.1c0.6,0,1.1-0.2,1.8-0.5c0.2,0.2,0.3,0.3,0.3,0.6
		c-0.6,0.4-1.4,0.7-2.2,0.7c-0.6,0-1-0.1-1.4-0.4c-0.4-0.3-0.6-0.7-0.8-1.1c-0.1-0.4-0.2-1-0.2-1.5c0-0.9,0.2-1.6,0.6-2.2
		c0.4-0.6,1-0.9,1.7-0.9c0.7,0,1.3,0.2,1.7,0.7c0.4,0.5,0.6,1.1,0.6,1.8C169.9,82.7,169.9,82.9,169.8,83.2z M168.7,81
		c-0.2-0.4-0.6-0.5-1.1-0.5c-0.5,0-0.8,0.2-1.1,0.6c-0.3,0.4-0.4,0.9-0.4,1.5h3v-0.2C169.1,81.8,168.9,81.4,168.7,81z"/>
	<path fill="#FFFFFF" d="M171.4,80.4c0.1-0.2,0.2-0.4,0.4-0.5c0.4,0.2,0.7,0.5,0.8,1.1c0.4-0.7,0.9-1.1,1.6-1.1c0.2,0,0.3,0,0.5,0
		c0,0.3-0.1,0.6-0.2,0.8c-0.1,0-0.2,0-0.4,0c-0.7,0-1.2,0.4-1.5,1.1v4c-0.1,0-0.2,0-0.4,0s-0.3,0-0.4,0v-4.3
		C171.8,81.1,171.7,80.7,171.4,80.4z"/>
	<path fill="#FFFFFF" d="M181.8,82c0-0.5-0.1-0.9-0.2-1.1s-0.3-0.3-0.6-0.3c-0.3,0-0.6,0.1-0.9,0.3c-0.3,0.2-0.6,0.4-0.8,0.7v4.3
		c-0.1,0-0.2,0-0.4,0c-0.2,0-0.3,0-0.4,0v-5.8l0.1-0.1h0.3c0.2,0,0.3,0,0.3,0.1c0.1,0.1,0.1,0.2,0.1,0.4v0.2
		c0.5-0.6,1.1-0.9,1.8-0.9c0.7,0,1.1,0.3,1.4,0.9c0.6-0.6,1.3-0.9,1.9-0.9c0.5,0,0.9,0.2,1.1,0.5c0.3,0.3,0.4,0.8,0.4,1.3v3
		c0,0.4,0,0.8,0.1,1c-0.1,0.1-0.3,0.2-0.5,0.2c-0.3,0-0.4-0.2-0.4-0.5V82c0-0.5-0.1-0.8-0.2-1.1s-0.3-0.3-0.6-0.3
		c-0.3,0-0.6,0.1-0.9,0.3s-0.6,0.4-0.8,0.7v4.3c-0.1,0-0.2,0-0.4,0s-0.3,0-0.4,0V82z"/>
	<path fill="#FFFFFF" d="M192.2,85.6c-0.1,0.2-0.2,0.3-0.4,0.4c-0.4-0.2-0.6-0.4-0.7-0.9c-0.6,0.6-1.3,0.9-1.9,0.9
		c-0.5,0-1-0.2-1.3-0.5c-0.3-0.3-0.5-0.8-0.5-1.2c0-0.6,0.2-1.1,0.6-1.4c0.4-0.3,0.9-0.5,1.6-0.5c0.5,0,0.9,0,1.4,0.1v-0.6
		c0-0.8-0.4-1.3-1.1-1.3c-0.6,0-1.2,0.2-2,0.5c-0.1-0.1-0.1-0.2-0.2-0.3c-0.1-0.1-0.1-0.2-0.1-0.4c0.8-0.4,1.6-0.6,2.3-0.6
		c1.2,0,1.8,0.7,1.8,2v2.5C191.9,84.9,192,85.3,192.2,85.6z M188.4,84.2c0,0.4,0.1,0.6,0.3,0.8s0.4,0.3,0.7,0.3
		c0.3,0,0.6-0.1,0.9-0.3c0.3-0.2,0.6-0.4,0.9-0.8v-1.2c-0.4-0.1-0.9-0.1-1.3-0.1c-0.4,0-0.8,0.1-1,0.3
		C188.5,83.6,188.4,83.8,188.4,84.2z"/>
	<path fill="#FFFFFF" d="M194.9,80.8v5.1c-0.1,0-0.2,0-0.4,0s-0.3,0-0.4,0v-4.7c0-0.2,0-0.4-0.1-0.5c-0.1-0.1-0.2-0.1-0.4-0.1h-0.1
		c0-0.1,0-0.2,0-0.3s0-0.2,0-0.3c0.2,0,0.4,0,0.6,0h0.1c0.2,0,0.4,0.1,0.5,0.2C194.9,80.3,194.9,80.5,194.9,80.8z M193.8,78.8
		c-0.1-0.1-0.1-0.3-0.1-0.4s0-0.3,0.1-0.4c0.1-0.1,0.3-0.1,0.5-0.1c0.2,0,0.4,0,0.5,0.1c0.1,0.1,0.1,0.2,0.1,0.4s0,0.3-0.1,0.4
		c-0.1,0.1-0.2,0.1-0.5,0.1S193.9,78.9,193.8,78.8z"/>
	<path fill="#FFFFFF" d="M196.4,85.4c0-0.2,0.1-0.4,0.3-0.6c0.7,0.4,1.2,0.6,1.6,0.6c0.4,0,0.8-0.1,1-0.3c0.2-0.2,0.4-0.4,0.4-0.7
		c0-0.4-0.3-0.8-0.9-1l-0.7-0.3c-1-0.4-1.5-0.9-1.5-1.7c0-0.5,0.2-0.9,0.6-1.2c0.4-0.3,0.9-0.4,1.5-0.4c0.6,0,1.2,0.1,1.7,0.4
		c0,0.3-0.1,0.5-0.3,0.6c-0.5-0.2-1-0.4-1.4-0.4s-0.7,0.1-0.9,0.3s-0.3,0.4-0.3,0.6c0,0.2,0.1,0.4,0.2,0.6c0.1,0.1,0.4,0.3,0.7,0.4
		l0.7,0.3c1,0.4,1.5,1,1.5,1.7c0,0.5-0.2,0.9-0.6,1.2c-0.4,0.3-0.9,0.4-1.6,0.4S197.1,85.8,196.4,85.4z"/>
	<path fill="#FFFFFF" d="M202.1,85.9c-0.1-0.1-0.1-0.3-0.1-0.5s0-0.4,0.1-0.5c0.1-0.1,0.3-0.1,0.6-0.1s0.5,0,0.6,0.1
		c0.1,0.1,0.1,0.3,0.1,0.5s0,0.4-0.1,0.5c-0.1,0.1-0.3,0.1-0.6,0.1C202.4,86,202.2,85.9,202.1,85.9z"/>
</g>
</svg>